<?xml version="1.0" encoding="utf-8"?>
<!-- Generator: Adobe Illustrator 23.0.3, SVG Export Plug-In . SVG Version: 6.00 Build 0)  -->
<svg version="1.1" id="Layer_1" xmlns="http://www.w3.org/2000/svg" xmlns:xlink="http://www.w3.org/1999/xlink" x="0px" y="0px"
	 viewBox="0 0 509 62" style="enable-background:new 0 0 509 62;" xml:space="preserve">
<style type="text/css">
	.st0{fill:#FFFFFF;}
	.st1{fill:#00AE4D;}
	.st2{fill:none;stroke:#939598;stroke-width:0.5;stroke-miterlimit:10;}
	.st3{fill:none;stroke:#939598;stroke-width:0.499;stroke-miterlimit:10;}
	.st4{fill:none;stroke:#FFFFFF;stroke-width:0.499;stroke-miterlimit:10;}
</style>
<rect x="5.6" y="4.7" class="st0" width="99.2" height="12.4"/>
<path class="st1" d="M402.5,4.7h99.2v12.4h-99.2V4.7z M303.2,4.7h99.2v12.4h-99.2V4.7z M204,4.7h99.2v12.4H204V4.7z M104.8,4.7H204
	v12.4h-99.2V4.7z"/>
<line class="st2" x1="5.6" y1="29.5" x2="104.6" y2="29.5"/>
<line class="st2" x1="105.1" y1="29.5" x2="203.8" y2="29.5"/>
<line class="st2" x1="204.3" y1="29.5" x2="303" y2="29.5"/>
<line class="st2" x1="303.5" y1="29.5" x2="402.2" y2="29.5"/>
<line class="st2" x1="402.7" y1="29.5" x2="501.7" y2="29.5"/>
<line class="st2" x1="104.8" y1="41.9" x2="203.8" y2="41.9"/>
<line class="st2" x1="204.3" y1="41.9" x2="303" y2="41.9"/>
<line class="st2" x1="303.5" y1="41.9" x2="402.2" y2="41.9"/>
<line class="st2" x1="402.7" y1="41.9" x2="501.7" y2="41.9"/>
<line class="st2" x1="5.6" y1="54.3" x2="104.8" y2="54.3"/>
<line class="st2" x1="104.8" y1="54.3" x2="204" y2="54.3"/>
<line class="st2" x1="204" y1="54.3" x2="303.2" y2="54.3"/>
<line class="st2" x1="303.2" y1="54.3" x2="402.5" y2="54.3"/>
<line class="st2" x1="402.5" y1="54.3" x2="501.7" y2="54.3"/>
<line class="st3" x1="402.5" y1="29.5" x2="402.5" y2="17.3"/>
<line class="st3" x1="402.5" y1="41.9" x2="402.5" y2="29.5"/>
<line class="st3" x1="104.8" y1="54.1" x2="104.8" y2="42.2"/>
<line class="st3" x1="204" y1="54.1" x2="204" y2="41.9"/>
<line class="st3" x1="303.2" y1="54.1" x2="303.2" y2="41.9"/>
<line class="st3" x1="402.5" y1="54.1" x2="402.5" y2="41.9"/>
<line class="st3" x1="204" y1="29.5" x2="204" y2="17.3"/>
<line class="st3" x1="303.2" y1="29.5" x2="303.2" y2="17.3"/>
<line class="st3" x1="204" y1="41.9" x2="204" y2="29.5"/>
<line class="st3" x1="303.2" y1="41.9" x2="303.2" y2="29.5"/>
<line class="st3" x1="104.8" y1="29.5" x2="104.8" y2="17.3"/>
<line class="st3" x1="104.8" y1="41.7" x2="104.8" y2="29.5"/>
<line class="st2" x1="5.6" y1="41.9" x2="104.8" y2="41.9"/>
<line class="st4" x1="104.8" y1="16.8" x2="104.8" y2="4.9"/>
<line class="st4" x1="204" y1="16.8" x2="204" y2="4.9"/>
<line class="st4" x1="303.2" y1="16.8" x2="303.2" y2="4.9"/>
<line class="st4" x1="402.5" y1="16.8" x2="402.5" y2="4.9"/>
<line class="st3" x1="5.6" y1="4.7" x2="104.8" y2="4.7"/>
<line class="st3" x1="104.8" y1="4.7" x2="204" y2="4.7"/>
<line class="st3" x1="204" y1="4.7" x2="303.2" y2="4.7"/>
<line class="st3" x1="303.2" y1="4.7" x2="402.5" y2="4.7"/>
<line class="st3" x1="402.5" y1="4.7" x2="501.7" y2="4.7"/>
<line class="st3" x1="5.6" y1="17.1" x2="104.8" y2="17.1"/>
<line class="st3" x1="104.8" y1="17.1" x2="204" y2="17.1"/>
<line class="st3" x1="204" y1="17.1" x2="303.2" y2="17.1"/>
<line class="st3" x1="303.2" y1="17.1" x2="402.5" y2="17.1"/>
<line class="st3" x1="402.5" y1="17.1" x2="501.7" y2="17.1"/>
<g>
	<path d="M7.4,11.3c0-1.9,1.3-3.1,2.8-3.1C11,8.3,11.6,8.6,12,9l-0.7,0.8c-0.3-0.3-0.6-0.5-1-0.5c-0.8,0-1.4,0.7-1.4,1.9
		c0,1.2,0.6,1.9,1.4,1.9c0.5,0,0.9-0.2,1.1-0.5l0.7,0.8c-0.5,0.6-1.1,0.9-1.9,0.9C8.7,14.3,7.4,13.3,7.4,11.3z"/>
	<path d="M13,8.4h2c1.3,0,2.3,0.5,2.3,1.9c0,1.4-1.1,2-2.3,2h-0.7v2H13V8.4z M14.9,11.2c0.7,0,1.1-0.3,1.1-0.9s-0.4-0.8-1.1-0.8
		h-0.6v1.8H14.9z"/>
	<path d="M18.3,8.4h2c1.3,0,2.3,0.5,2.3,1.9c0,1.4-1.1,2-2.3,2h-0.7v2h-1.3V8.4z M20.3,11.2c0.7,0,1.1-0.3,1.1-0.9S21,9.4,20.3,9.4
		h-0.6v1.8H20.3z"/>
</g>
<g>
	<path class="st0" d="M168.3,11.3c0-1.9,1.3-3.1,2.8-3.1c0.8,0,1.4,0.4,1.8,0.8l-0.7,0.8c-0.3-0.3-0.6-0.5-1-0.5
		c-0.8,0-1.4,0.7-1.4,1.9c0,1.2,0.6,1.9,1.4,1.9c0.5,0,0.9-0.2,1.1-0.5l0.7,0.8c-0.5,0.6-1.1,0.9-1.9,0.9
		C169.6,14.3,168.3,13.3,168.3,11.3z"/>
	<path class="st0" d="M173.5,13c0-0.9,0.7-1.4,2.5-1.6c0-0.4-0.2-0.6-0.7-0.6c-0.4,0-0.7,0.2-1.2,0.4l-0.5-0.9
		c0.6-0.3,1.2-0.6,1.9-0.6c1.1,0,1.8,0.6,1.8,2v2.6h-1.1l-0.1-0.5h0c-0.4,0.3-0.8,0.6-1.3,0.6C174,14.3,173.5,13.8,173.5,13z
		 M176,12.9v-0.8c-0.9,0.1-1.2,0.4-1.2,0.7c0,0.3,0.2,0.4,0.5,0.4C175.6,13.3,175.8,13.2,176,12.9z"/>
	<path class="st0" d="M178.5,9.8h1.1l0.1,0.4h0c0.4-0.3,0.8-0.5,1.3-0.5c1.1,0,1.7,0.9,1.7,2.3c0,1.5-0.9,2.4-1.9,2.4
		c-0.4,0-0.7-0.2-1.1-0.5l0,0.7v1.3h-1.3V9.8z M181.3,12c0-0.8-0.2-1.2-0.8-1.2c-0.3,0-0.5,0.1-0.8,0.4V13c0.2,0.2,0.5,0.3,0.7,0.3
		C181,13.3,181.3,12.9,181.3,12z"/>
	<path class="st0" d="M183.4,13c0-0.9,0.7-1.4,2.5-1.6c0-0.4-0.2-0.6-0.7-0.6c-0.4,0-0.7,0.2-1.2,0.4l-0.5-0.9
		c0.6-0.3,1.2-0.6,1.9-0.6c1.1,0,1.8,0.6,1.8,2v2.6h-1.1l-0.1-0.5h0c-0.4,0.3-0.8,0.6-1.3,0.6C183.9,14.3,183.4,13.8,183.4,13z
		 M185.9,12.9v-0.8c-0.9,0.1-1.2,0.4-1.2,0.7c0,0.3,0.2,0.4,0.5,0.4C185.5,13.3,185.7,13.2,185.9,12.9z"/>
	<path class="st0" d="M188.1,12c0-1.5,1.1-2.3,2.3-2.3c0.5,0,1,0.2,1.3,0.5l-0.6,0.9c-0.2-0.2-0.4-0.3-0.6-0.3c-0.6,0-1,0.5-1,1.3
		s0.4,1.3,1,1.3c0.3,0,0.6-0.1,0.8-0.3l0.5,0.9c-0.4,0.4-1,0.5-1.5,0.5C189.1,14.3,188.1,13.5,188.1,12z"/>
	<path class="st0" d="M192.5,8.4c0-0.4,0.3-0.7,0.7-0.7S194,8,194,8.4c0,0.4-0.3,0.7-0.7,0.7S192.5,8.8,192.5,8.4z M192.6,9.8h1.3
		v4.5h-1.3V9.8z"/>
	<path class="st0" d="M195.2,12.6v-1.8h-0.6v-1l0.7-0.1l0.2-1.2h1.1v1.2h1.1v1h-1.1v1.8c0,0.5,0.2,0.7,0.6,0.7c0.1,0,0.3,0,0.4-0.1
		l0.2,1c-0.2,0.1-0.6,0.2-1,0.2C195.7,14.3,195.2,13.7,195.2,12.6z"/>
	<path class="st0" d="M198.4,15.9l0.2-1c0.1,0,0.2,0.1,0.3,0.1c0.4,0,0.7-0.2,0.8-0.6l0.1-0.2L198,9.8h1.3l0.6,1.9
		c0.1,0.4,0.2,0.8,0.4,1.3h0c0.1-0.4,0.2-0.8,0.3-1.3l0.5-1.9h1.3l-1.5,4.5c-0.4,1.1-0.9,1.7-2,1.7C198.7,16,198.6,15.9,198.4,15.9z
		"/>
</g>
<g>
	<path class="st0" d="M272.1,8.4h2c1.3,0,2.3,0.5,2.3,1.9c0,1.4-1.1,2-2.3,2h-0.7v2h-1.3V8.4z M274,11.2c0.7,0,1.1-0.3,1.1-0.9
		s-0.4-0.8-1.1-0.8h-0.6v1.8H274z"/>
	<path class="st0" d="M277.4,8.4h1.3v4.8h2.3v1.1h-3.6V8.4z"/>
	<path class="st0" d="M282.1,8.4h3.7v1.1h-2.4v1.4h2V12h-2v2.3h-1.3V8.4z"/>
	<path class="st0" d="M288.6,11.7c0-1.6,0.4-2.9,1.2-4.1l0.8,0.3c-0.7,1.2-0.9,2.5-0.9,3.8s0.3,2.6,0.9,3.8l-0.8,0.3
		C289,14.6,288.6,13.3,288.6,11.7z"/>
	<path class="st0" d="M291.3,10.1c0-1.2,0.6-1.9,1.5-1.9c0.8,0,1.5,0.7,1.5,1.9c0,1.2-0.6,1.9-1.5,1.9
		C291.9,12,291.3,11.3,291.3,10.1z M293.3,10.1c0-0.8-0.2-1.1-0.5-1.1s-0.5,0.3-0.5,1.1c0,0.8,0.2,1.1,0.5,1.1S293.3,11,293.3,10.1z
		 M296.1,8.3h0.8l-3.2,6.1h-0.8L296.1,8.3z M295.6,12.5c0-1.2,0.6-1.9,1.5-1.9c0.8,0,1.5,0.7,1.5,1.9c0,1.2-0.6,1.9-1.5,1.9
		C296.2,14.3,295.6,13.7,295.6,12.5z M297.6,12.5c0-0.8-0.2-1.1-0.5-1.1c-0.3,0-0.5,0.3-0.5,1.1s0.2,1.1,0.5,1.1
		C297.3,13.6,297.6,13.3,297.6,12.5z"/>
	<path class="st0" d="M299.2,15.5c0.7-1.2,1-2.5,1-3.8s-0.3-2.6-1-3.8l0.8-0.3c0.8,1.2,1.2,2.5,1.2,4.1c0,1.6-0.4,2.9-1.2,4.1
		L299.2,15.5z"/>
</g>
<g>
	<path class="st0" d="M371.4,8.4h1.6l1.8,5.9h-1.4l-0.4-1.4h-1.8l-0.4,1.4h-1.3L371.4,8.4z M371.5,11.8h1.3l-0.1-0.5
		c-0.2-0.6-0.3-1.3-0.5-1.9h0c-0.1,0.6-0.3,1.3-0.5,1.9L371.5,11.8z"/>
	<path class="st0" d="M375.4,8.4h2c1.3,0,2.3,0.5,2.3,1.9c0,1.4-1.1,2-2.3,2h-0.7v2h-1.3V8.4z M377.4,11.2c0.7,0,1.1-0.3,1.1-0.9
		s-0.4-0.8-1.1-0.8h-0.6v1.8H377.4z"/>
	<path class="st0" d="M380.5,11.3c0-1.9,1.3-3.1,2.8-3.1c0.8,0,1.4,0.4,1.8,0.8l-0.7,0.8c-0.3-0.3-0.6-0.5-1-0.5
		c-0.8,0-1.4,0.7-1.4,1.9c0,1.2,0.6,1.9,1.4,1.9c0.5,0,0.9-0.2,1.1-0.5l0.7,0.8c-0.5,0.6-1.1,0.9-1.9,0.9
		C381.8,14.3,380.5,13.3,380.5,11.3z"/>
	<path class="st0" d="M387.8,11.7c0-1.6,0.4-2.9,1.2-4.1l0.8,0.3c-0.7,1.2-0.9,2.5-0.9,3.8s0.3,2.6,0.9,3.8l-0.8,0.3
		C388.2,14.6,387.8,13.3,387.8,11.7z"/>
	<path class="st0" d="M390.5,10.1c0-1.2,0.6-1.9,1.5-1.9c0.8,0,1.5,0.7,1.5,1.9c0,1.2-0.6,1.9-1.5,1.9
		C391.1,12,390.5,11.3,390.5,10.1z M392.5,10.1c0-0.8-0.2-1.1-0.5-1.1s-0.5,0.3-0.5,1.1c0,0.8,0.2,1.1,0.5,1.1S392.5,11,392.5,10.1z
		 M395.3,8.3h0.8l-3.2,6.1h-0.8L395.3,8.3z M394.8,12.5c0-1.2,0.6-1.9,1.5-1.9c0.8,0,1.5,0.7,1.5,1.9c0,1.2-0.6,1.9-1.5,1.9
		C395.4,14.3,394.8,13.7,394.8,12.5z M396.8,12.5c0-0.8-0.2-1.1-0.5-1.1c-0.3,0-0.5,0.3-0.5,1.1s0.2,1.1,0.5,1.1
		C396.6,13.6,396.8,13.3,396.8,12.5z"/>
	<path class="st0" d="M398.4,15.5c0.7-1.2,1-2.5,1-3.8s-0.3-2.6-1-3.8l0.8-0.3c0.8,1.2,1.2,2.5,1.2,4.1c0,1.6-0.4,2.9-1.2,4.1
		L398.4,15.5z"/>
</g>
<g>
	<path class="st0" d="M439,13.5l0.8-0.9c0.4,0.4,1,0.6,1.4,0.6c0.5,0,0.8-0.2,0.8-0.6c0-0.4-0.3-0.5-0.8-0.7l-0.8-0.3
		c-0.6-0.2-1.2-0.7-1.2-1.6c0-1,0.9-1.7,2.1-1.7c0.7,0,1.4,0.3,1.9,0.8l-0.7,0.8c-0.4-0.3-0.7-0.5-1.2-0.5c-0.5,0-0.7,0.2-0.7,0.5
		c0,0.4,0.4,0.5,0.9,0.7l0.8,0.3c0.7,0.3,1.2,0.8,1.2,1.6c0,1-0.8,1.8-2.2,1.8C440.4,14.3,439.5,14.1,439,13.5z"/>
	<path class="st0" d="M444.1,11.3c0-1.9,1.3-3.1,2.8-3.1c0.8,0,1.4,0.4,1.8,0.8l-0.7,0.8c-0.3-0.3-0.6-0.5-1-0.5
		c-0.8,0-1.4,0.7-1.4,1.9c0,1.2,0.6,1.9,1.4,1.9c0.5,0,0.9-0.2,1.1-0.5l0.7,0.8c-0.5,0.6-1.1,0.9-1.9,0.9
		C445.3,14.3,444.1,13.3,444.1,11.3z"/>
	<path class="st0" d="M449.3,11.3c0-1.9,1.3-3.1,2.8-3.1c0.8,0,1.4,0.4,1.8,0.8l-0.7,0.8c-0.3-0.3-0.6-0.5-1-0.5
		c-0.8,0-1.4,0.7-1.4,1.9c0,1.2,0.6,1.9,1.4,1.9c0.5,0,0.9-0.2,1.1-0.5l0.7,0.8c-0.5,0.6-1.1,0.9-1.9,0.9
		C450.5,14.3,449.3,13.3,449.3,11.3z"/>
	<path class="st0" d="M456.6,11.7c0-1.6,0.4-2.9,1.2-4.1l0.8,0.3c-0.7,1.2-0.9,2.5-0.9,3.8s0.3,2.6,0.9,3.8l-0.8,0.3
		C457,14.6,456.6,13.3,456.6,11.7z"/>
	<path class="st0" d="M459.4,11.3c0-1.9,1.3-3.1,2.9-3.1c0.8,0,1.5,0.4,1.8,0.8l-0.7,0.8c-0.3-0.3-0.6-0.5-1.1-0.5
		c-0.9,0-1.5,0.7-1.5,1.9c0,1.2,0.5,1.9,1.6,1.9c0.2,0,0.5-0.1,0.6-0.2v-1h-1v-1.1h2.1v2.7c-0.4,0.4-1.1,0.7-1.9,0.7
		C460.7,14.3,459.4,13.3,459.4,11.3z"/>
	<path class="st0" d="M465.3,9.8h1.1l0.1,0.6h0c0.4-0.4,0.8-0.7,1.3-0.7c0.6,0,1,0.3,1.2,0.7c0.4-0.4,0.8-0.7,1.4-0.7
		c1,0,1.4,0.7,1.4,1.8v2.8h-1.3v-2.6c0-0.6-0.2-0.8-0.5-0.8c-0.2,0-0.5,0.1-0.8,0.4v3H468v-2.6c0-0.6-0.2-0.8-0.5-0.8
		c-0.2,0-0.5,0.1-0.8,0.4v3h-1.3V9.8z"/>
	<path class="st0" d="M472.7,13.7l0.6-0.8c0.4,0.3,0.8,0.5,1.2,0.5c0.4,0,0.6-0.1,0.6-0.4c0-0.3-0.5-0.4-0.9-0.6
		c-0.5-0.2-1.2-0.6-1.2-1.3c0-0.8,0.7-1.4,1.7-1.4c0.7,0,1.2,0.3,1.6,0.6l-0.6,0.8c-0.3-0.2-0.6-0.4-0.9-0.4c-0.3,0-0.5,0.1-0.5,0.4
		c0,0.3,0.4,0.4,0.9,0.6c0.6,0.2,1.2,0.5,1.2,1.3c0,0.8-0.6,1.4-1.8,1.4C473.8,14.3,473.1,14.1,472.7,13.7z"/>
	<path class="st0" d="M478.4,7.8h0.9l-1.8,7.8h-0.9L478.4,7.8z"/>
	<path class="st0" d="M480.2,8.4h1.3v2.4h0l1.7-2.4h1.5l-1.8,2.3l2.1,3.5h-1.5l-1.4-2.5l-0.7,0.9v1.6h-1.3V8.4z"/>
	<path class="st0" d="M485.2,9.8h1.3l0.4,2.1c0.1,0.4,0.1,0.9,0.2,1.3h0c0.1-0.5,0.2-0.9,0.3-1.3l0.5-2.1h1.1l0.5,2.1
		c0.1,0.4,0.2,0.9,0.3,1.3h0c0.1-0.5,0.1-0.9,0.2-1.3l0.4-2.1h1.2l-1.1,4.5h-1.5l-0.4-1.8c-0.1-0.4-0.2-0.8-0.2-1.3h0
		c-0.1,0.5-0.1,0.9-0.2,1.3l-0.4,1.8h-1.5L485.2,9.8z"/>
	<path class="st0" d="M492.6,7.9h1.3v1.5l-0.1,0.8c0.3-0.3,0.8-0.6,1.4-0.6c1,0,1.4,0.7,1.4,1.8v2.8h-1.3v-2.6
		c0-0.6-0.2-0.8-0.5-0.8c-0.3,0-0.5,0.2-0.8,0.4v3h-1.3V7.9z"/>
	<path class="st0" d="M497.6,15.5c0.7-1.2,1-2.5,1-3.8s-0.3-2.6-1-3.8l0.8-0.3c0.8,1.2,1.2,2.5,1.2,4.1c0,1.6-0.4,2.9-1.2,4.1
		L497.6,15.5z"/>
</g>
<g>
	<path d="M7.5,23.7c0-1.9,1-3.1,2.5-3.1c0.7,0,1.2,0.3,1.5,0.7l-0.2,0.3C11,21.2,10.6,21,10.1,21C8.8,21,8,22,8,23.7
		s0.8,2.7,2.1,2.7c0.6,0,1.1-0.3,1.5-0.7l0.2,0.3c-0.5,0.5-1,0.8-1.8,0.8C8.5,26.8,7.5,25.6,7.5,23.7z"/>
	<path d="M12.9,20.2h0.4V23c0.5-0.5,0.9-0.8,1.5-0.8c0.9,0,1.3,0.5,1.3,1.7v2.8h-0.4v-2.7c0-0.9-0.3-1.4-1-1.4
		c-0.5,0-0.9,0.3-1.4,0.8v3.3h-0.4V20.2z"/>
	<path d="M17.4,25.6c0-1,0.9-1.4,2.8-1.6c0-0.7-0.2-1.4-1-1.4c-0.6,0-1.1,0.3-1.4,0.5l-0.2-0.3c0.3-0.2,0.9-0.6,1.6-0.6
		c1,0,1.4,0.7,1.4,1.7v2.8h-0.3l0-0.6h0c-0.4,0.4-1,0.7-1.5,0.7C17.9,26.8,17.4,26.4,17.4,25.6z M20.2,25.7v-1.5
		c-1.8,0.2-2.4,0.6-2.4,1.3c0,0.6,0.4,0.9,0.9,0.9S19.6,26.2,20.2,25.7z"/>
	<path d="M22.1,22.3h0.3l0,0.7h0c0.4-0.4,0.9-0.8,1.5-0.8c0.9,0,1.3,0.5,1.3,1.7v2.8h-0.4v-2.7c0-0.9-0.3-1.4-1-1.4
		c-0.5,0-0.9,0.3-1.4,0.8v3.3h-0.4V22.3z"/>
	<path d="M26.5,24.5c0-1.4,0.9-2.3,1.9-2.3c0.5,0,0.9,0.2,1.3,0.5l0-0.8v-1.8h0.4v6.5h-0.3l0-0.6h0c-0.4,0.4-0.8,0.7-1.4,0.7
		C27.2,26.8,26.5,26,26.5,24.5z M29.7,25.7v-2.6c-0.5-0.4-0.8-0.6-1.3-0.6c-0.9,0-1.5,0.8-1.5,1.9c0,1.1,0.5,1.9,1.4,1.9
		C28.8,26.4,29.3,26.2,29.7,25.7z"/>
	<path d="M31.4,24.5c0-1.4,0.9-2.3,1.9-2.3c1,0,1.7,0.7,1.7,2c0,0.1,0,0.2,0,0.3h-3.1c0,1.1,0.7,1.9,1.6,1.9c0.5,0,0.8-0.2,1.2-0.4
		l0.2,0.3c-0.3,0.2-0.7,0.4-1.4,0.4C32.3,26.8,31.4,25.9,31.4,24.5z M34.6,24.2c0-1.1-0.5-1.7-1.3-1.7c-0.7,0-1.4,0.6-1.5,1.7H34.6z
		"/>
	<path d="M36.1,22.3h0.3l0,0.8h0c0.3-0.5,0.7-0.9,1.2-0.9c0.2,0,0.3,0,0.4,0.1l-0.1,0.4c-0.1-0.1-0.2-0.1-0.4-0.1
		c-0.4,0-0.8,0.3-1.2,1.1v2.9h-0.4V22.3z"/>
	<path d="M38.8,20.9c0-0.2,0.1-0.4,0.3-0.4s0.3,0.1,0.3,0.4c0,0.2-0.1,0.4-0.3,0.4S38.8,21.1,38.8,20.9z M39,22.3h0.4v4.3H39V22.3z"
		/>
	<path d="M40.4,28.5l0.1-0.4c0.1,0,0.2,0.1,0.4,0.1c0.5,0,0.9-0.5,1.1-1.1l0.1-0.4l-1.8-4.4h0.4l1,2.7c0.1,0.4,0.3,0.8,0.5,1.2h0
		c0.1-0.4,0.3-0.8,0.4-1.2l0.9-2.7H44l-1.7,4.9c-0.2,0.7-0.7,1.4-1.4,1.4C40.7,28.6,40.5,28.6,40.4,28.5z"/>
	<path d="M44.7,25.6c0-1,0.9-1.4,2.8-1.6c0-0.7-0.2-1.4-1-1.4c-0.6,0-1.1,0.3-1.4,0.5l-0.2-0.3c0.3-0.2,0.9-0.6,1.6-0.6
		c1,0,1.4,0.7,1.4,1.7v2.8h-0.3l0-0.6h0c-0.4,0.4-1,0.7-1.5,0.7C45.2,26.8,44.7,26.4,44.7,25.6z M47.5,25.7v-1.5
		c-1.8,0.2-2.4,0.6-2.4,1.3c0,0.6,0.4,0.9,0.9,0.9S46.9,26.2,47.5,25.7z"/>
</g>
<g>
	<path d="M175,26.4c1.9-1.9,2.8-3,2.8-4c0-0.7-0.4-1.3-1.3-1.3c-0.5,0-1,0.3-1.3,0.8l-0.3-0.3c0.4-0.5,0.9-0.8,1.6-0.8
		c1,0,1.6,0.6,1.6,1.6c0,1.1-1,2.2-2.6,3.9c0.3,0,0.6,0,1,0h2v0.4H175V26.4z"/>
	<path d="M179.2,26l0.2-0.3c0.3,0.4,0.8,0.7,1.6,0.7c0.8,0,1.3-0.5,1.3-1.3c0-0.8-0.6-1.3-2-1.3v-0.4c1.3,0,1.8-0.6,1.8-1.3
		c0-0.6-0.5-1.1-1.2-1.1c-0.5,0-1,0.3-1.3,0.6l-0.2-0.3c0.4-0.4,0.9-0.7,1.6-0.7c0.9,0,1.6,0.5,1.6,1.4c0,0.8-0.5,1.2-1.1,1.4v0
		c0.7,0.2,1.3,0.7,1.3,1.5c0,1-0.8,1.6-1.8,1.6C180.1,26.8,179.5,26.3,179.2,26z"/>
	<path d="M186,24.9h-2.6v-0.2l2.7-3.8h0.4v3.7h0.9v0.3h-0.9v1.7H186V24.9z M186,24.6v-2.1c0-0.3,0-0.7,0-1h0
		c-0.1,0.2-0.3,0.5-0.5,0.7l-1.7,2.4H186z"/>
	<path d="M190.2,20.7h0.6l1.2,3.5c0.2,0.4,0.3,0.9,0.5,1.3h0c0.2-0.4,0.3-0.9,0.5-1.3l1.2-3.5h0.6v5.9h-0.4v-3.9
		c0-0.5,0-1.1,0.1-1.6h0l-0.5,1.3l-1.3,3.5h-0.4l-1.3-3.5l-0.5-1.3h0c0,0.5,0.1,1.1,0.1,1.6v3.9h-0.4V20.7z"/>
	<path d="M195.9,20.7h0.4l0.7,3.5c0.1,0.6,0.3,1.3,0.4,1.9h0c0.1-0.6,0.3-1.3,0.5-1.9l0.9-3.5h0.4l0.9,3.5c0.2,0.6,0.3,1.3,0.5,1.9
		h0c0.1-0.6,0.3-1.3,0.4-1.9l0.7-3.5h0.4l-1.3,5.9h-0.5l-1.1-4.1c-0.1-0.5-0.2-0.9-0.3-1.3h0c-0.1,0.5-0.2,0.9-0.3,1.3l-1.1,4.1
		h-0.5L195.9,20.7z"/>
</g>
<g>
	<path d="M293.7,26.2l0.2-0.3c0.3,0.3,0.6,0.5,1,0.5c0.9,0,1.7-0.7,1.7-2.8c-0.4,0.5-0.9,0.8-1.5,0.8c-1,0-1.6-0.6-1.6-1.8
		c0-1,0.7-1.8,1.6-1.8c1.1,0,1.9,1,1.9,2.7c0,2.4-1,3.3-2.1,3.3C294.4,26.8,294,26.5,293.7,26.2z M295.2,24c0.4,0,1-0.3,1.4-0.9
		c-0.1-1.2-0.5-2-1.5-2c-0.7,0-1.2,0.6-1.2,1.4C294,23.4,294.4,24,295.2,24z"/>
	<path d="M297.8,26l0.2-0.3c0.3,0.4,0.8,0.7,1.6,0.7c0.8,0,1.4-0.6,1.4-1.5c0-0.9-0.5-1.5-1.4-1.5c-0.4,0-0.7,0.2-1.1,0.4l-0.3-0.2
		l0.2-2.7h2.7v0.4h-2.3l-0.2,2.1c0.3-0.2,0.6-0.3,1-0.3c1,0,1.8,0.6,1.8,1.8c0,1.2-0.9,1.9-1.8,1.9C298.6,26.8,298.1,26.4,297.8,26z
		"/>
</g>
<g>
	<path d="M386.5,25.2c0-0.8,0.6-1.3,1.2-1.6v0c-0.4-0.3-0.8-0.7-0.8-1.3c0-0.8,0.7-1.4,1.5-1.4c1,0,1.6,0.6,1.6,1.5
		c0,0.6-0.5,1.2-0.8,1.5v0c0.5,0.3,1,0.7,1,1.5c0,0.8-0.7,1.5-1.7,1.5C387.3,26.8,386.5,26.1,386.5,25.2z M389.7,25.3
		c0-0.9-0.9-1.2-1.8-1.5c-0.6,0.3-1,0.8-1,1.5c0,0.7,0.6,1.3,1.4,1.3C389.1,26.4,389.7,25.9,389.7,25.3z M389.5,22.3
		c0-0.6-0.4-1.2-1.2-1.2c-0.6,0-1.1,0.5-1.1,1.1c0,0.8,0.8,1.1,1.5,1.4C389.2,23.2,389.5,22.8,389.5,22.3z"/>
	<path d="M391.1,26.4c0-0.3,0.2-0.4,0.4-0.4s0.4,0.2,0.4,0.4c0,0.3-0.2,0.4-0.4,0.4S391.1,26.6,391.1,26.4z"/>
	<path d="M392.7,26l0.2-0.3c0.3,0.4,0.8,0.7,1.6,0.7c0.8,0,1.3-0.5,1.3-1.3c0-0.8-0.6-1.3-2-1.3v-0.4c1.3,0,1.8-0.6,1.8-1.3
		c0-0.6-0.5-1.1-1.2-1.1c-0.5,0-1,0.3-1.3,0.6l-0.2-0.3c0.4-0.4,0.9-0.7,1.6-0.7c0.9,0,1.6,0.5,1.6,1.4c0,0.8-0.5,1.2-1.1,1.4v0
		c0.7,0.2,1.3,0.7,1.3,1.5c0,1-0.8,1.6-1.8,1.6C393.6,26.8,393,26.3,392.7,26z"/>
	<path d="M397.2,23.8c0-1.9,0.6-3,1.7-3c1.1,0,1.7,1.1,1.7,3c0,1.9-0.6,3-1.7,3C397.8,26.8,397.2,25.7,397.2,23.8z M400.2,23.8
		c0-1.8-0.5-2.6-1.3-2.6c-0.8,0-1.3,0.9-1.3,2.6c0,1.8,0.5,2.7,1.3,2.7C399.7,26.4,400.2,25.5,400.2,23.8z"/>
</g>
<g>
	<path d="M490.1,24.9h-2.6v-0.2l2.7-3.8h0.4v3.7h0.9v0.3h-0.9v1.7h-0.4V24.9z M490.1,24.6v-2.1c0-0.3,0-0.7,0-1h0
		c-0.1,0.2-0.3,0.5-0.5,0.7l-1.7,2.4H490.1z"/>
	<path d="M494.4,24.9h-2.6v-0.2l2.7-3.8h0.4v3.7h0.9v0.3h-0.9v1.7h-0.4V24.9z M494.4,24.6v-2.1c0-0.3,0-0.7,0-1h0
		c-0.1,0.2-0.3,0.5-0.5,0.7l-1.7,2.4H494.4z"/>
	<path d="M496.3,26.4c1.9-1.9,2.8-3,2.8-4c0-0.7-0.4-1.3-1.3-1.3c-0.5,0-1,0.3-1.3,0.8l-0.3-0.3c0.4-0.5,0.9-0.8,1.6-0.8
		c1,0,1.6,0.6,1.6,1.6c0,1.1-1,2.2-2.6,3.9c0.3,0,0.6,0,1,0h2v0.4h-3.5V26.4z"/>
</g>
<g>
	<path d="M7.9,33.1h1.4c1.8,0,2.7,1.2,2.7,2.9c0,1.8-0.9,3-2.7,3H7.9V33.1z M9.2,38.7c1.6,0,2.3-1.1,2.3-2.6c0-1.5-0.7-2.6-2.3-2.6
		H8.3v5.2H9.2z"/>
	<path d="M13,38c0-1,0.9-1.4,2.8-1.6c0-0.7-0.2-1.4-1-1.4c-0.6,0-1.1,0.3-1.4,0.5l-0.2-0.3c0.3-0.2,0.9-0.6,1.6-0.6
		c1,0,1.4,0.7,1.4,1.7v2.8h-0.3l0-0.6h0c-0.4,0.4-1,0.7-1.5,0.7C13.5,39.2,13,38.8,13,38z M15.8,38.1v-1.5c-1.8,0.2-2.4,0.6-2.4,1.3
		c0,0.6,0.4,0.9,0.9,0.9S15.2,38.6,15.8,38.1z"/>
	<path d="M17.7,34.8H18l0,0.8h0c0.3-0.5,0.7-0.9,1.2-0.9c0.2,0,0.3,0,0.4,0.1l-0.1,0.4C19.5,35,19.5,35,19.3,35
		c-0.4,0-0.8,0.3-1.2,1.1v2.9h-0.4V34.8z"/>
	<path d="M20.4,33.3c0-0.2,0.1-0.4,0.3-0.4s0.3,0.1,0.3,0.4c0,0.2-0.1,0.4-0.3,0.4S20.4,33.6,20.4,33.3z M20.6,34.8H21v4.3h-0.4
		V34.8z"/>
	<path d="M23,38.6L23,38.6L23,39.1h-0.3v-6.5H23v1.9l0,0.8c0.4-0.4,1-0.7,1.5-0.7c1.2,0,1.7,0.9,1.7,2.2c0,1.5-0.9,2.3-1.9,2.3
		C23.9,39.2,23.4,39,23,38.6z M25.8,36.9c0-1.1-0.4-1.9-1.4-1.9c-0.4,0-0.9,0.3-1.4,0.7v2.6c0.5,0.4,0.9,0.6,1.3,0.6
		C25.2,38.8,25.8,38,25.8,36.9z"/>
	<path d="M27.2,38c0-1,0.9-1.4,2.8-1.6c0-0.7-0.2-1.4-1-1.4c-0.6,0-1.1,0.3-1.4,0.5l-0.2-0.3c0.3-0.2,0.9-0.6,1.6-0.6
		c1,0,1.4,0.7,1.4,1.7v2.8H30l0-0.6h0c-0.4,0.4-1,0.7-1.5,0.7C27.8,39.2,27.2,38.8,27.2,38z M30,38.1v-1.5c-1.8,0.2-2.4,0.6-2.4,1.3
		c0,0.6,0.4,0.9,0.9,0.9S29.4,38.6,30,38.1z"/>
</g>
<g>
	<path d="M175.4,38.7h1.4V34h-1v-0.3c0.5-0.1,0.8-0.2,1.1-0.4h0.3v5.4h1.3v0.4h-3V38.7z"/>
	<path d="M179.4,36.5c0-2.4,1-3.3,2.1-3.3c0.5,0,0.9,0.2,1.2,0.6l-0.2,0.3c-0.3-0.3-0.6-0.5-1-0.5c-0.9,0-1.7,0.7-1.7,2.8
		c0.4-0.5,0.9-0.8,1.4-0.8c1,0,1.6,0.6,1.6,1.8c0,1-0.7,1.8-1.6,1.8C180.1,39.2,179.4,38.2,179.4,36.5z M179.8,36.8
		c0.1,1.2,0.5,2,1.5,2c0.7,0,1.2-0.6,1.2-1.5s-0.4-1.4-1.2-1.4C180.8,35.9,180.3,36.2,179.8,36.8z"/>
	<path d="M183.7,36.2c0-1.9,0.6-3,1.7-3c1.1,0,1.7,1.1,1.7,3c0,1.9-0.6,3-1.7,3C184.3,39.2,183.7,38.1,183.7,36.2z M186.7,36.2
		c0-1.8-0.5-2.6-1.3-2.6c-0.8,0-1.3,0.9-1.3,2.6c0,1.8,0.5,2.7,1.3,2.7C186.2,38.8,186.7,37.9,186.7,36.2z"/>
	<path d="M190.2,33.1h0.6l1.2,3.5c0.2,0.4,0.3,0.9,0.5,1.3h0c0.2-0.4,0.3-0.9,0.5-1.3l1.2-3.5h0.6v5.9h-0.4v-3.9
		c0-0.5,0-1.1,0.1-1.6h0l-0.5,1.3l-1.3,3.5h-0.4l-1.3-3.5l-0.5-1.3h0c0,0.5,0.1,1.1,0.1,1.6v3.9h-0.4V33.1z"/>
	<path d="M195.9,33.1h0.4l0.7,3.5c0.1,0.6,0.3,1.3,0.4,1.9h0c0.1-0.6,0.3-1.3,0.5-1.9l0.9-3.5h0.4l0.9,3.5c0.2,0.6,0.3,1.3,0.5,1.9
		h0c0.1-0.6,0.3-1.3,0.4-1.9l0.7-3.5h0.4l-1.3,5.9h-0.5l-1.1-4.1c-0.1-0.5-0.2-0.9-0.3-1.3h0c-0.1,0.5-0.2,0.9-0.3,1.3l-1.1,4.1
		h-0.5L195.9,33.1z"/>
</g>
<g>
	<path d="M293.7,38.6l0.2-0.3c0.3,0.3,0.6,0.5,1,0.5c0.9,0,1.7-0.7,1.7-2.8c-0.4,0.5-0.9,0.8-1.5,0.8c-1,0-1.6-0.6-1.6-1.8
		c0-1,0.7-1.8,1.6-1.8c1.1,0,1.9,1,1.9,2.7c0,2.4-1,3.3-2.1,3.3C294.4,39.2,294,39,293.7,38.6z M295.2,36.5c0.4,0,1-0.3,1.4-0.9
		c-0.1-1.2-0.5-2-1.5-2c-0.7,0-1.2,0.6-1.2,1.4C294,35.8,294.4,36.5,295.2,36.5z"/>
	<path d="M297.8,38.4l0.2-0.3c0.3,0.4,0.8,0.7,1.6,0.7c0.8,0,1.4-0.6,1.4-1.5c0-0.9-0.5-1.5-1.4-1.5c-0.4,0-0.7,0.2-1.1,0.4
		l-0.3-0.2l0.2-2.7h2.7v0.4h-2.3l-0.2,2.1c0.3-0.2,0.6-0.3,1-0.3c1,0,1.8,0.6,1.8,1.8c0,1.2-0.9,1.9-1.8,1.9
		C298.6,39.2,298.1,38.8,297.8,38.4z"/>
</g>
<g>
	<path d="M386.5,37.6c0-0.8,0.6-1.3,1.2-1.6v0c-0.4-0.3-0.8-0.7-0.8-1.3c0-0.8,0.7-1.4,1.5-1.4c1,0,1.6,0.6,1.6,1.5
		c0,0.6-0.5,1.2-0.8,1.5v0c0.5,0.3,1,0.7,1,1.5c0,0.8-0.7,1.5-1.7,1.5C387.3,39.2,386.5,38.5,386.5,37.6z M389.7,37.7
		c0-0.9-0.9-1.2-1.8-1.5c-0.6,0.3-1,0.8-1,1.5c0,0.7,0.6,1.3,1.4,1.3C389.1,38.9,389.7,38.3,389.7,37.7z M389.5,34.7
		c0-0.6-0.4-1.2-1.2-1.2c-0.6,0-1.1,0.5-1.1,1.1c0,0.8,0.8,1.1,1.5,1.4C389.2,35.7,389.5,35.2,389.5,34.7z"/>
	<path d="M391.1,38.8c0-0.3,0.2-0.4,0.4-0.4s0.4,0.2,0.4,0.4c0,0.3-0.2,0.4-0.4,0.4S391.1,39,391.1,38.8z"/>
	<path d="M392.7,38.4l0.2-0.3c0.3,0.4,0.8,0.7,1.6,0.7c0.8,0,1.3-0.5,1.3-1.3c0-0.8-0.6-1.3-2-1.3v-0.4c1.3,0,1.8-0.6,1.8-1.3
		c0-0.6-0.5-1.1-1.2-1.1c-0.5,0-1,0.3-1.3,0.6l-0.2-0.3c0.4-0.4,0.9-0.7,1.6-0.7c0.9,0,1.6,0.5,1.6,1.4c0,0.8-0.5,1.2-1.1,1.4v0
		c0.7,0.2,1.3,0.7,1.3,1.5c0,1-0.8,1.6-1.8,1.6C393.6,39.2,393,38.8,392.7,38.4z"/>
	<path d="M397.5,38.7h1.4V34h-1v-0.3c0.5-0.1,0.8-0.2,1.1-0.4h0.3v5.4h1.3v0.4h-3V38.7z"/>
</g>
<g>
	<path d="M490.1,37.4h-2.6v-0.2l2.7-3.8h0.4V37h0.9v0.3h-0.9v1.7h-0.4V37.4z M490.1,37v-2.1c0-0.3,0-0.7,0-1h0
		c-0.1,0.2-0.3,0.5-0.5,0.7l-1.7,2.4H490.1z"/>
	<path d="M491.9,38.4l0.2-0.3c0.3,0.4,0.8,0.7,1.6,0.7c0.8,0,1.3-0.5,1.3-1.3c0-0.8-0.6-1.3-2-1.3v-0.4c1.3,0,1.8-0.6,1.8-1.3
		c0-0.6-0.5-1.1-1.2-1.1c-0.5,0-1,0.3-1.3,0.6l-0.2-0.3c0.4-0.4,0.9-0.7,1.6-0.7c0.9,0,1.6,0.5,1.6,1.4c0,0.8-0.5,1.2-1.1,1.4v0
		c0.7,0.2,1.3,0.7,1.3,1.5c0,1-0.8,1.6-1.8,1.6C492.8,39.2,492.3,38.8,491.9,38.4z"/>
	<path d="M499.4,33.7h-3v-0.4h3.5v0.2c-1.4,1.8-1.7,3.3-1.8,5.5h-0.4C497.7,36.8,498.2,35.3,499.4,33.7z"/>
</g>
<g>
	<path d="M7.5,51.3l3.4-5.3H7.8v-0.4h3.6v0.2L8,51.1h3.4v0.4h-4V51.3z"/>
	<path d="M12.4,50.4c0-1,0.9-1.4,2.8-1.6c0-0.7-0.2-1.4-1-1.4c-0.6,0-1.1,0.3-1.4,0.5l-0.2-0.3c0.3-0.2,0.9-0.6,1.6-0.6
		c1,0,1.4,0.7,1.4,1.7v2.8h-0.3l0-0.6h0c-0.4,0.4-1,0.7-1.5,0.7C13,51.6,12.4,51.2,12.4,50.4z M15.2,50.6v-1.5
		c-1.8,0.2-2.4,0.6-2.4,1.3c0,0.6,0.4,0.9,0.9,0.9S14.6,51,15.2,50.6z"/>
	<path d="M16.5,47.2h0.4l0.8,2.8c0.1,0.4,0.2,0.8,0.3,1.2h0c0.1-0.4,0.2-0.8,0.3-1.2l0.8-2.8h0.5l0.8,2.8c0.1,0.4,0.2,0.8,0.3,1.2h0
		c0.1-0.4,0.2-0.8,0.3-1.2l0.8-2.8h0.4L21,51.5h-0.5l-0.8-2.7c-0.1-0.4-0.2-0.8-0.3-1.2h0c-0.1,0.4-0.2,0.8-0.3,1.3l-0.7,2.7h-0.5
		L16.5,47.2z"/>
	<path d="M23,50.4c0-1,0.9-1.4,2.8-1.6c0-0.7-0.2-1.4-1-1.4c-0.6,0-1.1,0.3-1.4,0.5l-0.2-0.3c0.3-0.2,0.9-0.6,1.6-0.6
		c1,0,1.4,0.7,1.4,1.7v2.8h-0.3l0-0.6h0c-0.4,0.4-1,0.7-1.5,0.7C23.5,51.6,23,51.2,23,50.4z M25.8,50.6v-1.5
		c-1.8,0.2-2.4,0.6-2.4,1.3c0,0.6,0.4,0.9,0.9,0.9S25.2,51,25.8,50.6z"/>
	<path d="M27.7,47.2H28l0,0.8h0c0.3-0.5,0.7-0.9,1.2-0.9c0.2,0,0.3,0,0.4,0.1l-0.1,0.4c-0.1-0.1-0.2-0.1-0.4-0.1
		c-0.4,0-0.8,0.3-1.2,1.1v2.9h-0.4V47.2z"/>
</g>
<g>
	<path d="M179.3,50c0-0.8,0.6-1.3,1.2-1.6v0c-0.4-0.3-0.8-0.7-0.8-1.3c0-0.8,0.7-1.4,1.5-1.4c1,0,1.6,0.6,1.6,1.5
		c0,0.6-0.5,1.2-0.8,1.5v0c0.5,0.3,1,0.7,1,1.5c0,0.8-0.7,1.5-1.7,1.5C180,51.6,179.3,50.9,179.3,50z M182.4,50.1
		c0-0.9-0.9-1.2-1.8-1.5c-0.6,0.3-1,0.8-1,1.5c0,0.7,0.6,1.3,1.4,1.3C181.9,51.3,182.4,50.7,182.4,50.1z M182.3,47.1
		c0-0.6-0.4-1.2-1.2-1.2c-0.6,0-1.1,0.5-1.1,1.1c0,0.8,0.8,1.1,1.5,1.4C182,48.1,182.3,47.6,182.3,47.1z"/>
	<path d="M183.7,48.6c0-1.9,0.6-3,1.7-3c1.1,0,1.7,1.1,1.7,3c0,1.9-0.6,3-1.7,3C184.3,51.6,183.7,50.5,183.7,48.6z M186.7,48.6
		c0-1.8-0.5-2.6-1.3-2.6c-0.8,0-1.3,0.9-1.3,2.6c0,1.8,0.5,2.7,1.3,2.7C186.2,51.3,186.7,50.4,186.7,48.6z"/>
	<path d="M190.2,45.6h0.6L192,49c0.2,0.4,0.3,0.9,0.5,1.3h0c0.2-0.4,0.3-0.9,0.5-1.3l1.2-3.5h0.6v5.9h-0.4v-3.9c0-0.5,0-1.1,0.1-1.6
		h0l-0.5,1.3l-1.3,3.5h-0.4l-1.3-3.5l-0.5-1.3h0c0,0.5,0.1,1.1,0.1,1.6v3.9h-0.4V45.6z"/>
	<path d="M195.9,45.6h0.4l0.7,3.5c0.1,0.6,0.3,1.3,0.4,1.9h0c0.1-0.6,0.3-1.3,0.5-1.9l0.9-3.5h0.4l0.9,3.5c0.2,0.6,0.3,1.3,0.5,1.9
		h0c0.1-0.6,0.3-1.3,0.4-1.9l0.7-3.5h0.4l-1.3,5.9h-0.5l-1.1-4.1c-0.1-0.5-0.2-0.9-0.3-1.3h0c-0.1,0.5-0.2,0.9-0.3,1.3l-1.1,4.1
		h-0.5L195.9,45.6z"/>
</g>
<g>
	<path d="M293.7,51l0.2-0.3c0.3,0.3,0.6,0.5,1,0.5c0.9,0,1.7-0.7,1.7-2.8c-0.4,0.5-0.9,0.8-1.5,0.8c-1,0-1.6-0.6-1.6-1.8
		c0-1,0.7-1.8,1.6-1.8c1.1,0,1.9,1,1.9,2.7c0,2.4-1,3.3-2.1,3.3C294.4,51.6,294,51.4,293.7,51z M295.2,48.9c0.4,0,1-0.3,1.4-0.9
		c-0.1-1.2-0.5-2-1.5-2c-0.7,0-1.2,0.6-1.2,1.4C294,48.3,294.4,48.9,295.2,48.9z"/>
	<path d="M300.9,46.1h-3v-0.4h3.5V46c-1.4,1.8-1.7,3.3-1.8,5.5h-0.4C299.3,49.2,299.8,47.7,300.9,46.1z"/>
</g>
<g>
	<path d="M386.5,50c0-0.8,0.6-1.3,1.2-1.6v0c-0.4-0.3-0.8-0.7-0.8-1.3c0-0.8,0.7-1.4,1.5-1.4c1,0,1.6,0.6,1.6,1.5
		c0,0.6-0.5,1.2-0.8,1.5v0c0.5,0.3,1,0.7,1,1.5c0,0.8-0.7,1.5-1.7,1.5C387.3,51.6,386.5,50.9,386.5,50z M389.7,50.1
		c0-0.9-0.9-1.2-1.8-1.5c-0.6,0.3-1,0.8-1,1.5c0,0.7,0.6,1.3,1.4,1.3C389.1,51.3,389.7,50.7,389.7,50.1z M389.5,47.1
		c0-0.6-0.4-1.2-1.2-1.2c-0.6,0-1.1,0.5-1.1,1.1c0,0.8,0.8,1.1,1.5,1.4C389.2,48.1,389.5,47.6,389.5,47.1z"/>
	<path d="M391.1,51.2c0-0.3,0.2-0.4,0.4-0.4s0.4,0.2,0.4,0.4c0,0.3-0.2,0.4-0.4,0.4S391.1,51.5,391.1,51.2z"/>
	<path d="M392.8,51.2c1.9-1.9,2.8-3,2.8-4c0-0.7-0.4-1.3-1.3-1.3c-0.5,0-1,0.3-1.3,0.8l-0.3-0.3c0.4-0.5,0.9-0.8,1.6-0.8
		c1,0,1.6,0.6,1.6,1.6c0,1.1-1,2.2-2.6,3.9c0.3,0,0.6,0,1,0h2v0.4h-3.5V51.2z"/>
	<path d="M397.5,51.1h1.4v-4.8h-1v-0.3c0.5-0.1,0.8-0.2,1.1-0.4h0.3v5.4h1.3v0.4h-3V51.1z"/>
</g>
<g>
	<path d="M490.1,49.8h-2.6v-0.2l2.7-3.8h0.4v3.7h0.9v0.3h-0.9v1.7h-0.4V49.8z M490.1,49.4v-2.1c0-0.3,0-0.7,0-1h0
		c-0.1,0.2-0.3,0.5-0.5,0.7l-1.7,2.4H490.1z"/>
	<path d="M491.9,50.8l0.2-0.3c0.3,0.4,0.8,0.7,1.6,0.7c0.8,0,1.3-0.5,1.3-1.3c0-0.8-0.6-1.3-2-1.3v-0.4c1.3,0,1.8-0.6,1.8-1.3
		c0-0.6-0.5-1.1-1.2-1.1c-0.5,0-1,0.3-1.3,0.6l-0.2-0.3c0.4-0.4,0.9-0.7,1.6-0.7c0.9,0,1.6,0.5,1.6,1.4c0,0.8-0.5,1.2-1.1,1.4v0
		c0.7,0.2,1.3,0.7,1.3,1.5c0,1-0.8,1.6-1.8,1.6C492.8,51.6,492.3,51.2,491.9,50.8z"/>
	<path d="M496.3,50c0-0.8,0.6-1.3,1.2-1.6v0c-0.4-0.3-0.8-0.7-0.8-1.3c0-0.8,0.7-1.4,1.5-1.4c1,0,1.6,0.6,1.6,1.5
		c0,0.6-0.5,1.2-0.8,1.5v0c0.5,0.3,1,0.7,1,1.5c0,0.8-0.7,1.5-1.7,1.5C497.1,51.6,496.3,50.9,496.3,50z M499.5,50.1
		c0-0.9-0.9-1.2-1.8-1.5c-0.6,0.3-1,0.8-1,1.5c0,0.7,0.6,1.3,1.4,1.3C498.9,51.3,499.5,50.7,499.5,50.1z M499.3,47.1
		c0-0.6-0.4-1.2-1.2-1.2c-0.6,0-1.1,0.5-1.1,1.1c0,0.8,0.8,1.1,1.5,1.4C499,48.1,499.3,47.6,499.3,47.1z"/>
</g>
</svg>
