<?xml version="1.0" encoding="utf-8"?>
<!-- Generator: Adobe Illustrator 23.0.3, SVG Export Plug-In . SVG Version: 6.00 Build 0)  -->
<svg version="1.1" id="Layer_1" xmlns="http://www.w3.org/2000/svg" xmlns:xlink="http://www.w3.org/1999/xlink" x="0px" y="0px"
	 viewBox="0 0 283 112" style="enable-background:new 0 0 283 112;" xml:space="preserve">
<style type="text/css">
	.st0{fill:#37B550;}
	.st1{fill:#FFFFFF;}
	.st2{fill:#00AE4D;}
	.st3{fill:none;stroke:#939598;stroke-width:0.5;stroke-miterlimit:10;}
	.st4{fill:none;stroke:#939598;stroke-width:0.499;stroke-miterlimit:10;}
	.st5{fill:none;stroke:#FFFFFF;stroke-width:0.499;stroke-miterlimit:10;}
</style>
<g>
	<path class="st0" d="M7.6,8.1h1.6l1,2.9c0.1,0.4,0.3,0.8,0.4,1.2h0c0.1-0.4,0.2-0.8,0.4-1.2l1-2.9h1.6v6.5h-1.3v-2.4
		c0-0.6,0.1-1.6,0.2-2.2h0l-0.5,1.5L11,14h-0.8l-0.9-2.5L8.7,10h0c0.1,0.6,0.2,1.6,0.2,2.2v2.4H7.6V8.1z"/>
	<path class="st0" d="M15.2,8.1h1.5v6.5h-1.5V8.1z"/>
	<path class="st0" d="M18.2,8.1h1.5l1.7,3.2l0.6,1.4h0c-0.1-0.7-0.2-1.6-0.2-2.4V8.1h1.4v6.5h-1.5l-1.7-3.2l-0.6-1.4h0
		c0.1,0.7,0.2,1.6,0.2,2.4v2.3h-1.4V8.1z"/>
	<path class="st0" d="M24.9,8.1h1.5v6.5h-1.5V8.1z"/>
	<path class="st0" d="M27.9,8.1h1.5l1.7,3.2l0.6,1.4h0c-0.1-0.7-0.2-1.6-0.2-2.4V8.1H33v6.5h-1.5l-1.7-3.2l-0.6-1.4h0
		c0.1,0.7,0.2,1.6,0.2,2.4v2.3h-1.4V8.1z"/>
	<path class="st0" d="M34.2,11.4c0-2.2,1.4-3.4,3.2-3.4c0.9,0,1.6,0.4,2,0.8l-0.8,0.9c-0.3-0.3-0.7-0.5-1.2-0.5
		c-1,0-1.7,0.8-1.7,2.1c0,1.3,0.6,2.1,1.8,2.1c0.3,0,0.5-0.1,0.7-0.2v-1.1h-1.1v-1.2h2.4v3c-0.5,0.4-1.2,0.8-2.1,0.8
		C35.6,14.7,34.2,13.6,34.2,11.4z"/>
	<path class="st0" d="M42.9,8.1h1.5v6.5h-1.5V8.1z"/>
	<path class="st0" d="M45.9,8.1h1.5l1.7,3.2l0.6,1.4h0c-0.1-0.7-0.2-1.6-0.2-2.4V8.1H51v6.5h-1.5l-1.7-3.2l-0.6-1.4h0
		c0.1,0.7,0.2,1.6,0.2,2.4v2.3h-1.4V8.1z"/>
	<path class="st0" d="M54.6,8.1H56v2.5h2.2V8.1h1.5v6.5h-1.5v-2.7H56v2.7h-1.5V8.1z"/>
	<path class="st0" d="M60.9,13.7l2.9-4.4h-2.6V8.1h4.4V9l-2.9,4.4h2.9v1.2h-4.7V13.7z"/>
	<path class="st0" d="M66.7,8.1h1.5v5.3h2.6v1.2h-4V8.1z"/>
	<path class="st0" d="M73.5,11.6H76v1h-2.5V11.6z"/>
	<path class="st0" d="M80.4,8.1h1.8l2,6.5h-1.6l-0.4-1.5h-2l-0.4,1.5h-1.5L80.4,8.1z M80.6,11.9H82l-0.2-0.6
		c-0.2-0.7-0.4-1.4-0.5-2.1h0c-0.2,0.7-0.3,1.4-0.5,2.1L80.6,11.9z"/>
	<path class="st0" d="M84.9,8.1h1.5l1.7,3.2l0.6,1.4h0c-0.1-0.7-0.2-1.6-0.2-2.4V8.1H90v6.5h-1.5l-1.7-3.2l-0.6-1.4h0
		c0.1,0.7,0.2,1.6,0.2,2.4v2.3h-1.4V8.1z"/>
	<path class="st0" d="M93.3,11.3c0-2.1,1.2-3.3,3-3.3s3,1.2,3,3.3c0,2.1-1.2,3.4-3,3.4S93.3,13.4,93.3,11.3z M97.7,11.3
		c0-1.3-0.6-2.1-1.4-2.1s-1.4,0.8-1.4,2.1c0,1.3,0.6,2.1,1.4,2.1S97.7,12.6,97.7,11.3z"/>
	<path class="st0" d="M99.5,8.1h1.6l0.8,3c0.2,0.7,0.3,1.4,0.5,2.1h0c0.2-0.7,0.3-1.4,0.5-2.1l0.8-3h1.5l-2,6.5h-1.8L99.5,8.1z"/>
	<path class="st0" d="M105.9,8.1h4.1v1.2h-2.6v1.3h2.2v1.2h-2.2v1.5h2.7v1.2h-4.2V8.1z"/>
	<path class="st0" d="M111.4,8.1h2.3c1.4,0,2.5,0.5,2.5,2c0,1-0.5,1.6-1.2,1.9l1.5,2.6h-1.6l-1.3-2.3h-0.8v2.3h-1.5V8.1z
		 M113.6,11.1c0.8,0,1.2-0.3,1.2-1s-0.4-0.9-1.2-0.9h-0.8v1.8H113.6z"/>
	<path class="st0" d="M116.5,8.1h1.6l0.8,3c0.2,0.7,0.3,1.4,0.5,2.1h0c0.2-0.7,0.3-1.4,0.5-2.1l0.8-3h1.5l-2,6.5h-1.8L116.5,8.1z"/>
	<path class="st0" d="M122.9,8.1h1.5v6.5h-1.5V8.1z"/>
	<path class="st0" d="M125.9,8.1h4.1v1.2h-2.6v1.3h2.2v1.2h-2.2v1.5h2.7v1.2h-4.2V8.1z"/>
	<path class="st0" d="M130.8,8.1h1.5l0.4,3c0.1,0.7,0.2,1.4,0.3,2.1h0c0.1-0.7,0.3-1.4,0.4-2.1l0.7-3h1.2l0.7,3
		c0.1,0.7,0.3,1.4,0.4,2.1h0c0.1-0.7,0.2-1.4,0.3-2.1l0.4-3h1.4l-1.2,6.5h-1.8l-0.6-3c-0.1-0.5-0.2-1-0.3-1.5h0
		c-0.1,0.5-0.2,1-0.3,1.5l-0.6,3H132L130.8,8.1z"/>
</g>
<rect x="6.8" y="21.7" class="st1" width="36.4" height="23.2"/>
<path class="st2" d="M191.1,21.7h89.7v23.2h-89.7V21.7z M43.2,21.7h148v23.2h-148V21.7z"/>
<line class="st3" x1="6.8" y1="57.3" x2="42.9" y2="57.3"/>
<line class="st3" x1="43.4" y1="57.3" x2="190.9" y2="57.3"/>
<line class="st3" x1="191.4" y1="57.3" x2="280.9" y2="57.3"/>
<line class="st3" x1="43.4" y1="69.8" x2="190.9" y2="69.8"/>
<line class="st3" x1="191.4" y1="69.8" x2="280.9" y2="69.8"/>
<line class="st3" x1="6.8" y1="82.2" x2="42.9" y2="82.2"/>
<line class="st3" x1="43.2" y1="94.6" x2="190.9" y2="94.6"/>
<line class="st3" x1="191.4" y1="94.6" x2="280.9" y2="94.6"/>
<line class="st3" x1="6.8" y1="107" x2="43.2" y2="107"/>
<line class="st3" x1="43.2" y1="107" x2="191.1" y2="107"/>
<line class="st3" x1="191.1" y1="107" x2="280.9" y2="107"/>
<line class="st4" x1="191.1" y1="94.6" x2="191.1" y2="82.4"/>
<line class="st4" x1="43.2" y1="106.8" x2="43.2" y2="94.8"/>
<line class="st4" x1="191.1" y1="106.8" x2="191.1" y2="94.6"/>
<line class="st3" x1="6.8" y1="69.8" x2="42.9" y2="69.8"/>
<line class="st3" x1="43.4" y1="82.2" x2="191.1" y2="82.2"/>
<line class="st4" x1="191.1" y1="57.3" x2="191.1" y2="45.2"/>
<line class="st4" x1="191.1" y1="69.8" x2="191.1" y2="57.3"/>
<line class="st4" x1="191.1" y1="81.9" x2="191.1" y2="69.8"/>
<line class="st3" x1="191.1" y1="82.2" x2="280.9" y2="82.2"/>
<line class="st4" x1="43.2" y1="57.3" x2="43.2" y2="45.2"/>
<line class="st4" x1="43.2" y1="69.8" x2="43.2" y2="57.3"/>
<line class="st4" x1="43.2" y1="82.2" x2="43.2" y2="69.8"/>
<line class="st4" x1="43.2" y1="94.3" x2="43.2" y2="82.2"/>
<line class="st3" x1="6.8" y1="94.6" x2="43.2" y2="94.6"/>
<line class="st5" x1="43.2" y1="44.7" x2="43.2" y2="21.9"/>
<line class="st5" x1="191.1" y1="44.7" x2="191.1" y2="21.9"/>
<line class="st4" x1="6.8" y1="21.7" x2="43.2" y2="21.7"/>
<line class="st4" x1="43.2" y1="21.7" x2="191.1" y2="21.7"/>
<line class="st4" x1="191.1" y1="21.7" x2="280.9" y2="21.7"/>
<line class="st4" x1="6.8" y1="44.9" x2="43.2" y2="44.9"/>
<line class="st4" x1="43.2" y1="44.9" x2="191.1" y2="44.9"/>
<line class="st4" x1="191.1" y1="44.9" x2="280.9" y2="44.9"/>
<g>
	<path d="M8.8,25.3h1.3l0.8,2.3c0.1,0.3,0.2,0.6,0.3,1h0c0.1-0.3,0.2-0.7,0.3-1l0.8-2.3h1.3v5.2h-1.1v-1.9c0-0.5,0.1-1.3,0.2-1.8h0
		l-0.4,1.2l-0.7,2h-0.6l-0.7-2l-0.4-1.2h0c0.1,0.5,0.2,1.3,0.2,1.8v1.9H8.8V25.3z"/>
	<path d="M14.8,25.4c0-0.4,0.3-0.6,0.7-0.6s0.7,0.2,0.7,0.6c0,0.4-0.3,0.6-0.7,0.6S14.8,25.7,14.8,25.4z M14.8,26.6H16v4h-1.2V26.6z
		"/>
	<path d="M17,26.6h1l0.1,0.5h0c0.3-0.3,0.7-0.6,1.3-0.6c0.9,0,1.2,0.6,1.2,1.6v2.5h-1.2v-2.3c0-0.6-0.2-0.8-0.5-0.8
		c-0.3,0-0.5,0.1-0.7,0.4v2.7H17V26.6z"/>
	<path d="M21.4,28.5c0-1.3,0.9-2.1,1.9-2.1c1.1,0,1.7,0.8,1.7,1.9c0,0.2,0,0.4,0,0.5h-2.4c0.1,0.6,0.5,0.8,1,0.8
		c0.3,0,0.6-0.1,0.9-0.3l0.4,0.7c-0.4,0.3-0.9,0.4-1.4,0.4C22.3,30.6,21.4,29.9,21.4,28.5z M23.9,28.1c0-0.4-0.2-0.8-0.7-0.8
		c-0.4,0-0.7,0.2-0.8,0.8H23.9z"/>
</g>
<g>
	<path class="st1" d="M45.2,28.6v-3.2h1.3v3.3c0,1.2,0.4,1.5,1,1.5s1-0.4,1-1.5v-3.3h1.3v3.2c0,2-0.8,2.8-2.3,2.8
		C46.1,31.4,45.2,30.5,45.2,28.6z"/>
	<path class="st1" d="M51.2,26.8h1.1l0.1,0.6h0c0.4-0.4,0.8-0.7,1.4-0.7c1,0,1.4,0.7,1.4,1.8v2.8h-1.3v-2.6c0-0.6-0.2-0.8-0.5-0.8
		c-0.3,0-0.5,0.2-0.8,0.4v3h-1.3V26.8z"/>
	<path class="st1" d="M56.1,29c0-1.5,0.9-2.3,1.9-2.3c0.5,0,0.8,0.2,1.1,0.5L59,26.5V25h1.3v6.3h-1.1l-0.1-0.4h0
		c-0.3,0.3-0.8,0.5-1.2,0.5C56.8,31.4,56.1,30.5,56.1,29z M59,29.9v-1.8c-0.2-0.2-0.5-0.3-0.7-0.3c-0.4,0-0.8,0.4-0.8,1.2
		c0,0.9,0.3,1.3,0.8,1.3C58.5,30.3,58.8,30.2,59,29.9z"/>
	<path class="st1" d="M61.2,29c0-1.4,1-2.3,2.1-2.3c1.3,0,1.9,0.9,1.9,2.1c0,0.2,0,0.5-0.1,0.6h-2.7c0.1,0.6,0.6,0.9,1.2,0.9
		c0.3,0,0.6-0.1,1-0.3l0.4,0.8c-0.5,0.3-1.1,0.5-1.6,0.5C62.2,31.4,61.2,30.5,61.2,29z M64.1,28.6c0-0.5-0.2-0.8-0.7-0.8
		c-0.4,0-0.8,0.3-0.9,0.8H64.1z"/>
	<path class="st1" d="M66.1,26.8h1.1l0.1,0.8h0c0.3-0.6,0.8-0.9,1.3-0.9c0.3,0,0.4,0,0.5,0.1l-0.2,1.1c-0.2,0-0.3-0.1-0.5-0.1
		c-0.3,0-0.7,0.2-1,0.8v2.6h-1.3V26.8z"/>
	<path class="st1" d="M69.4,32c0-0.4,0.2-0.7,0.6-0.9v0c-0.2-0.2-0.4-0.4-0.4-0.8c0-0.3,0.2-0.6,0.5-0.8v0c-0.3-0.2-0.6-0.6-0.6-1.2
		c0-1.1,0.9-1.6,1.8-1.6c0.3,0,0.5,0,0.7,0.1h1.6v1H73c0.1,0.1,0.1,0.4,0.1,0.6c0,1-0.8,1.5-1.8,1.5c-0.2,0-0.3,0-0.5-0.1
		c-0.1,0.1-0.2,0.2-0.2,0.3c0,0.2,0.2,0.3,0.7,0.3h0.7c1.1,0,1.7,0.3,1.7,1.1c0,0.9-1,1.6-2.5,1.6C70.3,33.2,69.4,32.8,69.4,32z
		 M72.5,31.8c0-0.3-0.2-0.4-0.7-0.4h-0.5c-0.3,0-0.5,0-0.6-0.1c-0.2,0.1-0.2,0.3-0.2,0.4c0,0.3,0.4,0.5,1,0.5S72.5,32.1,72.5,31.8z
		 M72,28.3c0-0.5-0.3-0.7-0.6-0.7c-0.4,0-0.6,0.2-0.6,0.7c0,0.5,0.3,0.7,0.6,0.7C71.8,29.1,72,28.8,72,28.3z"/>
	<path class="st1" d="M74.5,26.8h1.1l0.1,0.8h0c0.3-0.6,0.8-0.9,1.3-0.9c0.3,0,0.4,0,0.5,0.1l-0.2,1.1c-0.2,0-0.3-0.1-0.5-0.1
		c-0.3,0-0.7,0.2-1,0.8v2.6h-1.3V26.8z"/>
	<path class="st1" d="M77.8,29c0-1.5,1-2.3,2.2-2.3c1.1,0,2.2,0.9,2.2,2.3s-1,2.3-2.2,2.3C78.9,31.4,77.8,30.5,77.8,29z M80.8,29
		c0-0.8-0.3-1.3-0.8-1.3c-0.5,0-0.8,0.5-0.8,1.3s0.3,1.3,0.8,1.3C80.6,30.3,80.8,29.8,80.8,29z"/>
	<path class="st1" d="M83,29.6v-2.8h1.3v2.6c0,0.6,0.2,0.8,0.6,0.8c0.3,0,0.5-0.1,0.8-0.5v-3H87v4.5H86l-0.1-0.6h0
		c-0.4,0.5-0.8,0.7-1.4,0.7C83.5,31.4,83,30.7,83,29.6z"/>
	<path class="st1" d="M88.2,26.8h1.1l0.1,0.6h0c0.4-0.4,0.8-0.7,1.4-0.7c1,0,1.4,0.7,1.4,1.8v2.8h-1.3v-2.6c0-0.6-0.2-0.8-0.5-0.8
		c-0.3,0-0.5,0.2-0.8,0.4v3h-1.3V26.8z"/>
	<path class="st1" d="M93.1,29c0-1.5,0.9-2.3,1.9-2.3c0.5,0,0.8,0.2,1.1,0.5L96,26.5V25h1.3v6.3h-1.1l-0.1-0.4h0
		c-0.3,0.3-0.8,0.5-1.2,0.5C93.8,31.4,93.1,30.5,93.1,29z M96,29.9v-1.8c-0.2-0.2-0.5-0.3-0.7-0.3c-0.4,0-0.8,0.4-0.8,1.2
		c0,0.9,0.3,1.3,0.8,1.3C95.6,30.3,95.8,30.2,96,29.9z"/>
	<path class="st1" d="M100.4,25.4h1.4l0.9,2.6c0.1,0.3,0.2,0.7,0.3,1.1h0c0.1-0.4,0.2-0.7,0.3-1.1l0.9-2.6h1.4v5.9h-1.2v-2.2
		c0-0.6,0.1-1.4,0.2-2h0l-0.5,1.4l-0.8,2.2h-0.7l-0.8-2.2l-0.5-1.4h0c0.1,0.6,0.2,1.4,0.2,2v2.2h-1.2V25.4z"/>
	<path class="st1" d="M107.1,25.5c0-0.4,0.3-0.7,0.7-0.7s0.7,0.3,0.7,0.7c0,0.4-0.3,0.7-0.7,0.7S107.1,25.9,107.1,25.5z M107.2,26.8
		h1.3v4.5h-1.3V26.8z"/>
	<path class="st1" d="M109.7,26.8h1.1l0.1,0.6h0c0.4-0.4,0.8-0.7,1.4-0.7c1,0,1.4,0.7,1.4,1.8v2.8h-1.3v-2.6c0-0.6-0.2-0.8-0.5-0.8
		c-0.3,0-0.5,0.2-0.8,0.4v3h-1.3V26.8z"/>
	<path class="st1" d="M114.7,25.5c0-0.4,0.3-0.7,0.7-0.7s0.7,0.3,0.7,0.7c0,0.4-0.3,0.7-0.7,0.7S114.7,25.9,114.7,25.5z M114.8,26.8
		h1.3v4.5h-1.3V26.8z"/>
	<path class="st1" d="M117.3,26.8h1.1l0.1,0.6h0c0.4-0.4,0.8-0.7,1.4-0.7c1,0,1.4,0.7,1.4,1.8v2.8H120v-2.6c0-0.6-0.2-0.8-0.5-0.8
		c-0.3,0-0.5,0.2-0.8,0.4v3h-1.3V26.8z"/>
	<path class="st1" d="M122.2,32c0-0.4,0.2-0.7,0.6-0.9v0c-0.2-0.2-0.4-0.4-0.4-0.8c0-0.3,0.2-0.6,0.5-0.8v0
		c-0.3-0.2-0.6-0.6-0.6-1.2c0-1.1,0.9-1.6,1.8-1.6c0.3,0,0.5,0,0.7,0.1h1.6v1h-0.7c0.1,0.1,0.1,0.4,0.1,0.6c0,1-0.8,1.5-1.8,1.5
		c-0.2,0-0.3,0-0.5-0.1c-0.1,0.1-0.2,0.2-0.2,0.3c0,0.2,0.2,0.3,0.7,0.3h0.7c1.1,0,1.7,0.3,1.7,1.1c0,0.9-1,1.6-2.5,1.6
		C123,33.2,122.2,32.8,122.2,32z M125.3,31.8c0-0.3-0.2-0.4-0.7-0.4h-0.5c-0.3,0-0.5,0-0.6-0.1c-0.2,0.1-0.2,0.3-0.2,0.4
		c0,0.3,0.4,0.5,1,0.5S125.3,32.1,125.3,31.8z M124.7,28.3c0-0.5-0.3-0.7-0.6-0.7c-0.4,0-0.6,0.2-0.6,0.7c0,0.5,0.3,0.7,0.6,0.7
		C124.5,29.1,124.7,28.8,124.7,28.3z"/>
	<path class="st1" d="M129.1,25.4h1.4l0.9,2.6c0.1,0.3,0.2,0.7,0.3,1.1h0c0.1-0.4,0.2-0.7,0.3-1.1l0.9-2.6h1.4v5.9h-1.2v-2.2
		c0-0.6,0.1-1.4,0.2-2h0l-0.5,1.4l-0.8,2.2h-0.7l-0.8-2.2l-0.5-1.4h0c0.1,0.6,0.2,1.4,0.2,2v2.2h-1.2V25.4z"/>
	<path class="st1" d="M135.6,29c0-1.4,1-2.3,2.1-2.3c1.3,0,1.9,0.9,1.9,2.1c0,0.2,0,0.5-0.1,0.6h-2.7c0.1,0.6,0.6,0.9,1.2,0.9
		c0.3,0,0.6-0.1,1-0.3l0.4,0.8c-0.5,0.3-1.1,0.5-1.6,0.5C136.6,31.4,135.6,30.5,135.6,29z M138.5,28.6c0-0.5-0.2-0.8-0.7-0.8
		c-0.4,0-0.8,0.3-0.9,0.8H138.5z"/>
	<path class="st1" d="M140.7,29.7v-1.8h-0.6v-1l0.7-0.1l0.2-1.2h1.1v1.2h1.1v1h-1.1v1.8c0,0.5,0.2,0.7,0.6,0.7c0.1,0,0.3,0,0.4-0.1
		l0.2,1c-0.2,0.1-0.6,0.2-1,0.2C141.2,31.4,140.7,30.7,140.7,29.7z"/>
	<path class="st1" d="M144,25h1.3v1.5l-0.1,0.8c0.3-0.3,0.8-0.6,1.4-0.6c1,0,1.4,0.7,1.4,1.8v2.8h-1.3v-2.6c0-0.6-0.2-0.8-0.5-0.8
		c-0.3,0-0.5,0.2-0.8,0.4v3H144V25z"/>
	<path class="st1" d="M148.9,29c0-1.5,1-2.3,2.2-2.3c1.1,0,2.2,0.9,2.2,2.3s-1,2.3-2.2,2.3C149.9,31.4,148.9,30.5,148.9,29z
		 M151.9,29c0-0.8-0.3-1.3-0.8-1.3c-0.5,0-0.8,0.5-0.8,1.3s0.3,1.3,0.8,1.3C151.6,30.3,151.9,29.8,151.9,29z"/>
	<path class="st1" d="M153.9,29c0-1.5,0.9-2.3,1.9-2.3c0.5,0,0.8,0.2,1.1,0.5l-0.1-0.7V25h1.3v6.3H157l-0.1-0.4h0
		c-0.3,0.3-0.8,0.5-1.2,0.5C154.6,31.4,153.9,30.5,153.9,29z M156.8,29.9v-1.8c-0.2-0.2-0.5-0.3-0.7-0.3c-0.4,0-0.8,0.4-0.8,1.2
		c0,0.9,0.3,1.3,0.8,1.3C156.4,30.3,156.6,30.2,156.8,29.9z"/>
</g>
<g>
	<path class="st1" d="M202,25.4h2.1c1.2,0,2.3,0.4,2.3,1.8c0,0.9-0.4,1.4-1,1.7l1.3,2.3h-1.5l-1.1-2.1h-0.7v2.1H202V25.4z M204,28.1
		c0.7,0,1.1-0.3,1.1-0.9s-0.4-0.8-1.1-0.8h-0.7v1.6H204z"/>
	<path class="st1" d="M207.2,29c0-1.4,1-2.3,2.1-2.3c1.3,0,1.9,0.9,1.9,2.1c0,0.2,0,0.5-0.1,0.6h-2.7c0.1,0.6,0.6,0.9,1.2,0.9
		c0.3,0,0.6-0.1,1-0.3l0.4,0.8c-0.5,0.3-1.1,0.5-1.6,0.5C208.2,31.4,207.2,30.5,207.2,29z M210.1,28.6c0-0.5-0.2-0.8-0.7-0.8
		c-0.4,0-0.8,0.3-0.9,0.8H210.1z"/>
	<path class="st1" d="M211.7,30.8l0.6-0.8c0.4,0.3,0.8,0.5,1.2,0.5c0.4,0,0.6-0.1,0.6-0.4c0-0.3-0.5-0.4-0.9-0.6
		c-0.5-0.2-1.2-0.6-1.2-1.3c0-0.8,0.7-1.4,1.7-1.4c0.7,0,1.2,0.3,1.6,0.6l-0.6,0.8c-0.3-0.2-0.6-0.4-0.9-0.4c-0.3,0-0.5,0.1-0.5,0.4
		c0,0.3,0.4,0.4,0.9,0.6c0.6,0.2,1.2,0.5,1.2,1.3c0,0.8-0.6,1.4-1.8,1.4C212.8,31.4,212.2,31.1,211.7,30.8z"/>
	<path class="st1" d="M215.8,29c0-1.4,1-2.3,2.1-2.3c1.3,0,1.9,0.9,1.9,2.1c0,0.2,0,0.5-0.1,0.6h-2.7c0.1,0.6,0.6,0.9,1.2,0.9
		c0.3,0,0.6-0.1,1-0.3l0.4,0.8c-0.5,0.3-1.1,0.5-1.6,0.5C216.8,31.4,215.8,30.5,215.8,29z M218.7,28.6c0-0.5-0.2-0.8-0.7-0.8
		c-0.4,0-0.8,0.3-0.9,0.8H218.7z"/>
	<path class="st1" d="M220.8,26.8h1.1l0.1,0.8h0c0.3-0.6,0.8-0.9,1.3-0.9c0.3,0,0.4,0,0.5,0.1l-0.2,1.1c-0.2,0-0.3-0.1-0.5-0.1
		c-0.3,0-0.7,0.2-1,0.8v2.6h-1.3V26.8z"/>
	<path class="st1" d="M223.9,26.8h1.3l0.6,2.1c0.1,0.4,0.2,0.9,0.4,1.4h0c0.1-0.5,0.2-0.9,0.3-1.4l0.6-2.1h1.3l-1.5,4.5h-1.5
		L223.9,26.8z"/>
	<path class="st1" d="M228.8,29c0-1.4,1-2.3,2.1-2.3c1.3,0,1.9,0.9,1.9,2.1c0,0.2,0,0.5-0.1,0.6h-2.7c0.1,0.6,0.6,0.9,1.2,0.9
		c0.3,0,0.6-0.1,1-0.3l0.4,0.8c-0.5,0.3-1.1,0.5-1.6,0.5C229.8,31.4,228.8,30.5,228.8,29z M231.7,28.6c0-0.5-0.2-0.8-0.7-0.8
		c-0.4,0-0.8,0.3-0.9,0.8H231.7z"/>
	<path class="st1" d="M235.1,29.7c0-0.8,0.5-1.3,1.1-1.7c-0.2-0.4-0.4-0.8-0.4-1.2c0-0.8,0.6-1.5,1.6-1.5c0.9,0,1.4,0.5,1.4,1.3
		c0,0.8-0.6,1.3-1.2,1.7c0.3,0.4,0.7,0.8,1.2,1.1c0.3-0.4,0.5-0.9,0.7-1.4h1.2c-0.2,0.7-0.5,1.4-1,2c0.4,0.2,0.7,0.3,1,0.4l-0.3,1.1
		c-0.5-0.1-1-0.3-1.5-0.6c-0.5,0.4-1.1,0.6-1.8,0.6C235.8,31.4,235.1,30.6,235.1,29.7z M237.3,30.4c0.2,0,0.5-0.1,0.7-0.2
		c-0.5-0.4-0.9-0.8-1.2-1.2c-0.2,0.2-0.4,0.4-0.4,0.7C236.4,30.1,236.7,30.4,237.3,30.4z M237.1,27.5c0.4-0.3,0.7-0.5,0.7-0.9
		c0-0.3-0.1-0.5-0.4-0.5c-0.3,0-0.5,0.3-0.5,0.7C236.9,27,237,27.3,237.1,27.5z"/>
	<path class="st1" d="M243.4,25.4h2.1c1.2,0,2.3,0.4,2.3,1.8c0,0.9-0.4,1.4-1,1.7l1.3,2.3h-1.5l-1.1-2.1h-0.7v2.1h-1.3V25.4z
		 M245.4,28.1c0.7,0,1.1-0.3,1.1-0.9s-0.4-0.8-1.1-0.8h-0.7v1.6H245.4z"/>
	<path class="st1" d="M248.6,29c0-1.4,1-2.3,2.1-2.3c1.3,0,1.9,0.9,1.9,2.1c0,0.2,0,0.5-0.1,0.6h-2.7c0.1,0.6,0.6,0.9,1.2,0.9
		c0.3,0,0.6-0.1,1-0.3l0.4,0.8c-0.5,0.3-1.1,0.5-1.6,0.5C249.5,31.4,248.6,30.5,248.6,29z M251.4,28.6c0-0.5-0.2-0.8-0.7-0.8
		c-0.4,0-0.8,0.3-0.9,0.8H251.4z"/>
	<path class="st1" d="M253.1,30.8l0.6-0.8c0.4,0.3,0.8,0.5,1.2,0.5c0.4,0,0.6-0.1,0.6-0.4c0-0.3-0.5-0.4-0.9-0.6
		c-0.5-0.2-1.2-0.6-1.2-1.3c0-0.8,0.7-1.4,1.7-1.4c0.7,0,1.2,0.3,1.6,0.6l-0.6,0.8c-0.3-0.2-0.6-0.4-0.9-0.4c-0.3,0-0.5,0.1-0.5,0.4
		c0,0.3,0.4,0.4,0.9,0.6c0.6,0.2,1.2,0.5,1.2,1.3c0,0.8-0.6,1.4-1.8,1.4C254.2,31.4,253.5,31.1,253.1,30.8z"/>
	<path class="st1" d="M257.2,29c0-1.5,1-2.3,2.2-2.3c1.1,0,2.2,0.9,2.2,2.3s-1,2.3-2.2,2.3C258.3,31.4,257.2,30.5,257.2,29z
		 M260.2,29c0-0.8-0.3-1.3-0.8-1.3c-0.5,0-0.8,0.5-0.8,1.3s0.3,1.3,0.8,1.3C259.9,30.3,260.2,29.8,260.2,29z"/>
	<path class="st1" d="M262.4,29.6v-2.8h1.3v2.6c0,0.6,0.2,0.8,0.6,0.8c0.3,0,0.5-0.1,0.8-0.5v-3h1.3v4.5h-1.1l-0.1-0.6h0
		c-0.4,0.5-0.8,0.7-1.4,0.7C262.8,31.4,262.4,30.7,262.4,29.6z"/>
	<path class="st1" d="M267.6,26.8h1.1l0.1,0.8h0c0.3-0.6,0.8-0.9,1.3-0.9c0.3,0,0.4,0,0.5,0.1l-0.2,1.1c-0.2,0-0.3-0.1-0.5-0.1
		c-0.3,0-0.7,0.2-1,0.8v2.6h-1.3V26.8z"/>
	<path class="st1" d="M270.9,29c0-1.5,1.1-2.3,2.3-2.3c0.5,0,1,0.2,1.3,0.5l-0.6,0.9c-0.2-0.2-0.4-0.3-0.6-0.3c-0.6,0-1,0.5-1,1.3
		s0.4,1.3,1,1.3c0.3,0,0.6-0.1,0.8-0.3l0.5,0.9c-0.4,0.4-1,0.5-1.5,0.5C271.9,31.4,270.9,30.5,270.9,29z"/>
	<path class="st1" d="M275.1,29c0-1.4,1-2.3,2.1-2.3c1.3,0,1.9,0.9,1.9,2.1c0,0.2,0,0.5-0.1,0.6h-2.7c0.1,0.6,0.6,0.9,1.2,0.9
		c0.3,0,0.6-0.1,1-0.3l0.4,0.8c-0.5,0.3-1.1,0.5-1.6,0.5C276.1,31.4,275.1,30.5,275.1,29z M278,28.6c0-0.5-0.2-0.8-0.7-0.8
		c-0.4,0-0.8,0.3-0.9,0.8H278z"/>
</g>
<g>
	<path class="st1" d="M247.4,39.6c0-1.6,0.4-2.9,1.2-4.1l0.8,0.3c-0.7,1.2-0.9,2.5-0.9,3.8s0.3,2.6,0.9,3.8l-0.8,0.3
		C247.8,42.5,247.4,41.2,247.4,39.6z"/>
	<path class="st1" d="M250.4,37.6h1.1l0.1,0.6h0c0.4-0.4,0.8-0.7,1.3-0.7c0.6,0,1,0.3,1.2,0.7c0.4-0.4,0.8-0.7,1.4-0.7
		c1,0,1.4,0.7,1.4,1.8v2.8h-1.3v-2.6c0-0.6-0.2-0.8-0.5-0.8c-0.2,0-0.5,0.1-0.8,0.4v3H253v-2.6c0-0.6-0.2-0.8-0.5-0.8
		c-0.2,0-0.5,0.1-0.8,0.4v3h-1.3V37.6z"/>
	<path class="st1" d="M258.1,37.6h1.1l0.1,0.6h0c0.4-0.4,0.8-0.7,1.4-0.7c1,0,1.4,0.7,1.4,1.8v2.8h-1.3v-2.6c0-0.6-0.2-0.8-0.5-0.8
		c-0.3,0-0.5,0.2-0.8,0.4v3h-1.3V37.6z"/>
	<path class="st1" d="M265.2,36.2h1.4l0.9,2.6c0.1,0.3,0.2,0.7,0.3,1.1h0c0.1-0.4,0.2-0.7,0.3-1.1l0.9-2.6h1.4v5.9h-1.2v-2.2
		c0-0.6,0.1-1.4,0.2-2h0l-0.5,1.4l-0.8,2.2h-0.7l-0.8-2.2l-0.5-1.4h0c0.1,0.6,0.2,1.4,0.2,2v2.2h-1.2V36.2z"/>
	<path class="st1" d="M273.2,37.3h-1.6v-1.1h4.6v1.1h-1.6v4.8h-1.3V37.3z"/>
	<path class="st1" d="M276.8,43.3c0.7-1.2,1-2.5,1-3.8s-0.3-2.6-1-3.8l0.8-0.3c0.8,1.2,1.2,2.5,1.2,4.1c0,1.6-0.4,2.9-1.2,4.1
		L276.8,43.3z"/>
</g>
<g>
	<path d="M9.1,48.6h1.7c1.2,0,1.9,0.4,1.9,1.6c0,0.9-0.6,1.5-1.5,1.6l1.6,2.8h-0.5l-1.6-2.7H9.5v2.7H9.1V48.6z M10.7,51.4
		c1,0,1.6-0.4,1.6-1.3c0-0.9-0.6-1.2-1.6-1.2H9.5v2.5H10.7z"/>
	<path d="M15.3,48.6h0.4l2.1,5.9h-0.4l-0.7-2h-2.3l-0.7,2h-0.4L15.3,48.6z M14.4,52.1h2.1L16.2,51c-0.2-0.7-0.5-1.3-0.7-2.1h0
		c-0.2,0.7-0.4,1.4-0.7,2.1L14.4,52.1z"/>
	<path d="M18.7,48.6h0.6l1.2,3.5c0.2,0.4,0.3,0.9,0.5,1.3h0c0.2-0.4,0.3-0.9,0.5-1.3l1.2-3.5h0.6v5.9h-0.4v-3.9c0-0.5,0-1.1,0.1-1.6
		h0l-0.5,1.3l-1.3,3.5h-0.4l-1.3-3.5L19.1,49h0c0,0.5,0.1,1.1,0.1,1.6v3.9h-0.4V48.6z"/>
</g>
<g>
	<path d="M45.5,48.6h0.4v5.6h2.7v0.4h-3.2V48.6z"/>
	<path d="M49.3,52.3c0-1.4,0.9-2.3,1.9-2.3c1,0,1.9,0.8,1.9,2.3c0,1.4-0.9,2.3-1.9,2.3C50.2,54.6,49.3,53.8,49.3,52.3z M52.7,52.3
		c0-1.1-0.7-1.9-1.5-1.9c-0.9,0-1.5,0.8-1.5,1.9c0,1.1,0.6,1.9,1.5,1.9C52.1,54.3,52.7,53.5,52.7,52.3z"/>
	<path d="M54.4,50.2h0.3l0,0.7h0c0.4-0.4,0.9-0.8,1.5-0.8c0.9,0,1.3,0.5,1.3,1.7v2.8h-0.4v-2.7c0-0.9-0.3-1.4-1-1.4
		c-0.5,0-0.9,0.3-1.4,0.8v3.3h-0.4V50.2z"/>
	<path d="M58.9,55.4c0-0.4,0.2-0.8,0.6-1v0c-0.2-0.1-0.4-0.4-0.4-0.7c0-0.4,0.3-0.7,0.5-0.8v0c-0.3-0.2-0.5-0.7-0.5-1.2
		c0-0.9,0.7-1.5,1.5-1.5c0.2,0,0.4,0.1,0.6,0.1h1.5v0.3h-1c0.3,0.2,0.5,0.6,0.5,1.1c0,0.9-0.7,1.5-1.5,1.5c-0.2,0-0.5-0.1-0.7-0.2
		c-0.2,0.2-0.4,0.3-0.4,0.6c0,0.3,0.2,0.6,0.8,0.6h0.9c1,0,1.4,0.3,1.4,1c0,0.7-0.8,1.5-2,1.5C59.5,56.6,58.9,56.1,58.9,55.4z
		 M62.3,55.2c0-0.5-0.4-0.7-1-0.7h-0.9c-0.1,0-0.3,0-0.5-0.1c-0.4,0.3-0.6,0.6-0.6,0.9c0,0.5,0.5,0.9,1.4,0.9
		C61.7,56.3,62.3,55.7,62.3,55.2z M61.7,51.6c0-0.7-0.5-1.2-1.1-1.2s-1.1,0.5-1.1,1.2c0,0.7,0.5,1.2,1.1,1.2
		C61.2,52.8,61.7,52.3,61.7,51.6z"/>
	<path d="M65.4,48h0.4v2.8c0.5-0.5,0.9-0.8,1.5-0.8c0.9,0,1.3,0.5,1.3,1.7v2.8h-0.4v-2.7c0-0.9-0.3-1.4-1-1.4
		c-0.5,0-0.9,0.3-1.4,0.8v3.3h-0.4V48z"/>
	<path d="M69.8,52.3c0-1.4,0.9-2.3,1.9-2.3c1,0,1.9,0.8,1.9,2.3c0,1.4-0.9,2.3-1.9,2.3C70.7,54.6,69.8,53.8,69.8,52.3z M73.3,52.3
		c0-1.1-0.7-1.9-1.5-1.9c-0.9,0-1.5,0.8-1.5,1.9c0,1.1,0.6,1.9,1.5,1.9C72.6,54.3,73.3,53.5,73.3,52.3z"/>
	<path d="M75,53.9V48h0.4v6c0,0.2,0.1,0.3,0.2,0.3c0,0,0.1,0,0.2,0l0.1,0.3c-0.1,0-0.2,0-0.3,0C75.2,54.6,75,54.4,75,53.9z"/>
	<path d="M76.7,52.3c0-1.4,0.9-2.3,1.9-2.3c1,0,1.7,0.7,1.7,2c0,0.1,0,0.2,0,0.3h-3.1c0,1.1,0.7,1.9,1.6,1.9c0.5,0,0.8-0.2,1.2-0.4
		l0.2,0.3c-0.3,0.2-0.7,0.4-1.4,0.4C77.6,54.6,76.7,53.8,76.7,52.3z M79.9,52.1c0-1.1-0.5-1.7-1.3-1.7c-0.7,0-1.4,0.6-1.5,1.7H79.9z
		"/>
	<path d="M82.7,54l0.2-0.3c0.4,0.3,0.8,0.5,1.4,0.5c0.7,0,1-0.4,1-0.9c0-0.5-0.6-0.8-1.1-1C83.6,52.2,83,52,83,51.2
		c0-0.6,0.5-1.2,1.4-1.2c0.5,0,0.9,0.2,1.2,0.5l-0.2,0.3c-0.3-0.2-0.6-0.4-1-0.4c-0.7,0-1,0.4-1,0.8c0,0.5,0.5,0.7,1,0.9
		c0.7,0.3,1.4,0.5,1.4,1.3c0,0.6-0.5,1.2-1.5,1.2C83.7,54.6,83.1,54.3,82.7,54z"/>
	<path d="M87,53.3v-2.8h-0.7v-0.3l0.7,0l0.1-1.3h0.3v1.3h1.3v0.3h-1.3v2.8c0,0.5,0.1,0.9,0.7,0.9c0.2,0,0.4-0.1,0.5-0.1l0.1,0.3
		c-0.3,0.1-0.5,0.2-0.7,0.2C87.2,54.6,87,54.1,87,53.3z"/>
	<path d="M89.3,52.3c0-1.4,0.9-2.3,1.9-2.3c1,0,1.9,0.8,1.9,2.3c0,1.4-0.9,2.3-1.9,2.3C90.2,54.6,89.3,53.8,89.3,52.3z M92.8,52.3
		c0-1.1-0.7-1.9-1.5-1.9c-0.9,0-1.5,0.8-1.5,1.9c0,1.1,0.6,1.9,1.5,1.9C92.2,54.3,92.8,53.5,92.8,52.3z"/>
	<path d="M94.5,50.2h0.3l0,0.5h0c0.4-0.3,0.9-0.6,1.5-0.6c1.2,0,1.7,0.9,1.7,2.2c0,1.5-0.9,2.3-1.9,2.3c-0.4,0-0.8-0.2-1.3-0.5v2.4
		h-0.4V50.2z M97.7,52.3c0-1.1-0.4-1.9-1.4-1.9c-0.4,0-0.9,0.3-1.4,0.7v2.6c0.5,0.4,0.9,0.6,1.3,0.6C97.1,54.3,97.7,53.4,97.7,52.3z
		"/>
	<path d="M99.3,48.8c0-0.2,0.1-0.4,0.3-0.4s0.3,0.1,0.3,0.4c0,0.2-0.1,0.4-0.3,0.4S99.3,49,99.3,48.8z M99.4,50.2h0.4v4.3h-0.4V50.2
		z"/>
	<path d="M101.5,50.2h0.3l0,0.7h0c0.4-0.4,0.9-0.8,1.5-0.8c0.9,0,1.3,0.5,1.3,1.7v2.8h-0.4v-2.7c0-0.9-0.3-1.4-1-1.4
		c-0.5,0-0.9,0.3-1.4,0.8v3.3h-0.4V50.2z"/>
	<path d="M105.9,55.4c0-0.4,0.2-0.8,0.6-1v0c-0.2-0.1-0.4-0.4-0.4-0.7c0-0.4,0.3-0.7,0.5-0.8v0c-0.3-0.2-0.5-0.7-0.5-1.2
		c0-0.9,0.7-1.5,1.5-1.5c0.2,0,0.4,0.1,0.6,0.1h1.5v0.3h-1c0.3,0.2,0.5,0.6,0.5,1.1c0,0.9-0.7,1.5-1.5,1.5c-0.2,0-0.5-0.1-0.7-0.2
		c-0.2,0.2-0.4,0.3-0.4,0.6c0,0.3,0.2,0.6,0.8,0.6h0.9c1,0,1.4,0.3,1.4,1c0,0.7-0.8,1.5-2,1.5C106.6,56.6,105.9,56.1,105.9,55.4z
		 M109.3,55.2c0-0.5-0.4-0.7-1-0.7h-0.9c-0.1,0-0.3,0-0.5-0.1c-0.4,0.3-0.6,0.6-0.6,0.9c0,0.5,0.5,0.9,1.4,0.9
		C108.7,56.3,109.3,55.7,109.3,55.2z M108.7,51.6c0-0.7-0.5-1.2-1.1-1.2s-1.1,0.5-1.1,1.2c0,0.7,0.5,1.2,1.1,1.2
		C108.2,52.8,108.7,52.3,108.7,51.6z"/>
	<path d="M111.8,50.2h0.4L113,53c0.1,0.4,0.2,0.8,0.3,1.2h0c0.1-0.4,0.2-0.8,0.3-1.2l0.8-2.8h0.5l0.8,2.8c0.1,0.4,0.2,0.8,0.3,1.2h0
		c0.1-0.4,0.2-0.8,0.3-1.2l0.8-2.8h0.4l-1.2,4.3h-0.5l-0.8-2.7c-0.1-0.4-0.2-0.8-0.3-1.2h0c-0.1,0.4-0.2,0.8-0.3,1.3l-0.7,2.7h-0.5
		L111.8,50.2z"/>
	<path d="M118.5,48.8c0-0.2,0.1-0.4,0.3-0.4s0.3,0.1,0.3,0.4c0,0.2-0.1,0.4-0.3,0.4S118.5,49,118.5,48.8z M118.6,50.2h0.4v4.3h-0.4
		V50.2z"/>
	<path d="M120.8,53.3v-2.8h-0.7v-0.3l0.7,0l0.1-1.3h0.3v1.3h1.3v0.3h-1.3v2.8c0,0.5,0.1,0.9,0.7,0.9c0.2,0,0.4-0.1,0.5-0.1l0.1,0.3
		c-0.3,0.1-0.5,0.2-0.7,0.2C121,54.6,120.8,54.1,120.8,53.3z"/>
	<path d="M123.5,48h0.4v2.8c0.5-0.5,0.9-0.8,1.5-0.8c0.9,0,1.3,0.5,1.3,1.7v2.8h-0.4v-2.7c0-0.9-0.3-1.4-1-1.4
		c-0.5,0-0.9,0.3-1.4,0.8v3.3h-0.4V48z"/>
	<path d="M130,50.2h0.3l0,0.5h0c0.4-0.3,0.9-0.6,1.5-0.6c1.2,0,1.7,0.9,1.7,2.2c0,1.5-0.9,2.3-1.9,2.3c-0.4,0-0.8-0.2-1.3-0.5v2.4
		H130V50.2z M133.2,52.3c0-1.1-0.4-1.9-1.4-1.9c-0.4,0-0.9,0.3-1.4,0.7v2.6c0.5,0.4,0.9,0.6,1.3,0.6
		C132.6,54.3,133.2,53.4,133.2,52.3z"/>
	<path d="M134.6,53.4c0-1,0.9-1.4,2.8-1.6c0-0.7-0.2-1.4-1-1.4c-0.6,0-1.1,0.3-1.4,0.5l-0.2-0.3c0.3-0.2,0.9-0.6,1.6-0.6
		c1,0,1.4,0.7,1.4,1.7v2.8h-0.3l0-0.6h0c-0.4,0.4-1,0.7-1.5,0.7C135.2,54.6,134.6,54.2,134.6,53.4z M137.4,53.6v-1.5
		c-1.8,0.2-2.4,0.6-2.4,1.3c0,0.6,0.4,0.9,0.9,0.9S136.9,54,137.4,53.6z"/>
	<path d="M138.8,54l0.2-0.3c0.4,0.3,0.8,0.5,1.4,0.5c0.7,0,1-0.4,1-0.9c0-0.5-0.6-0.8-1.1-1c-0.7-0.2-1.3-0.5-1.3-1.2
		c0-0.6,0.5-1.2,1.4-1.2c0.5,0,0.9,0.2,1.2,0.5l-0.2,0.3c-0.3-0.2-0.6-0.4-1-0.4c-0.7,0-1,0.4-1,0.8c0,0.5,0.5,0.7,1,0.9
		c0.7,0.3,1.4,0.5,1.4,1.3c0,0.6-0.5,1.2-1.5,1.2C139.8,54.6,139.2,54.3,138.8,54z"/>
	<path d="M143.1,53.3v-2.8h-0.7v-0.3l0.7,0l0.1-1.3h0.3v1.3h1.3v0.3h-1.3v2.8c0,0.5,0.1,0.9,0.7,0.9c0.2,0,0.4-0.1,0.5-0.1l0.1,0.3
		c-0.3,0.1-0.5,0.2-0.7,0.2C143.3,54.6,143.1,54.1,143.1,53.3z"/>
	<path d="M145.4,52.3c0-1.4,0.9-2.3,1.9-2.3c1,0,1.7,0.7,1.7,2c0,0.1,0,0.2,0,0.3h-3.1c0,1.1,0.7,1.9,1.6,1.9c0.5,0,0.8-0.2,1.2-0.4
		l0.2,0.3c-0.3,0.2-0.7,0.4-1.4,0.4C146.3,54.6,145.4,53.8,145.4,52.3z M148.6,52.1c0-1.1-0.5-1.7-1.3-1.7c-0.7,0-1.4,0.6-1.5,1.7
		H148.6z"/>
	<path d="M152,50.5h-0.6v-0.3l0.6,0v-1c0-0.9,0.4-1.3,1.1-1.3c0.2,0,0.4,0.1,0.6,0.1l-0.1,0.3c-0.2-0.1-0.4-0.1-0.5-0.1
		c-0.5,0-0.7,0.4-0.7,1v0.9h1v0.3h-1v4H152V50.5z"/>
	<path d="M154.2,48.8c0-0.2,0.1-0.4,0.3-0.4s0.3,0.1,0.3,0.4c0,0.2-0.1,0.4-0.3,0.4S154.2,49,154.2,48.8z M154.3,50.2h0.4v4.3h-0.4
		V50.2z"/>
	<path d="M156.4,53.9V48h0.4v6c0,0.2,0.1,0.3,0.2,0.3c0,0,0.1,0,0.2,0l0.1,0.3c-0.1,0-0.2,0-0.3,0C156.6,54.6,156.4,54.4,156.4,53.9
		z"/>
	<path d="M158.5,53.9V48h0.4v6c0,0.2,0.1,0.3,0.2,0.3c0,0,0.1,0,0.2,0l0.1,0.3c-0.1,0-0.2,0-0.3,0C158.7,54.6,158.5,54.4,158.5,53.9
		z"/>
	<path d="M160.5,48.8c0-0.2,0.1-0.4,0.3-0.4s0.3,0.1,0.3,0.4c0,0.2-0.1,0.4-0.3,0.4S160.5,49,160.5,48.8z M160.6,50.2h0.4v4.3h-0.4
		V50.2z"/>
	<path d="M162.7,50.2h0.3l0,0.7h0c0.4-0.4,0.9-0.8,1.5-0.8c0.9,0,1.3,0.5,1.3,1.7v2.8h-0.4v-2.7c0-0.9-0.3-1.4-1-1.4
		c-0.5,0-0.9,0.3-1.4,0.8v3.3h-0.4V50.2z"/>
	<path d="M167.1,55.4c0-0.4,0.2-0.8,0.6-1v0c-0.2-0.1-0.4-0.4-0.4-0.7c0-0.4,0.3-0.7,0.5-0.8v0c-0.3-0.2-0.5-0.7-0.5-1.2
		c0-0.9,0.7-1.5,1.5-1.5c0.2,0,0.4,0.1,0.6,0.1h1.5v0.3h-1c0.3,0.2,0.5,0.6,0.5,1.1c0,0.9-0.7,1.5-1.5,1.5c-0.2,0-0.5-0.1-0.7-0.2
		c-0.2,0.2-0.4,0.3-0.4,0.6c0,0.3,0.2,0.6,0.8,0.6h0.9c1,0,1.4,0.3,1.4,1c0,0.7-0.8,1.5-2,1.5C167.8,56.6,167.1,56.1,167.1,55.4z
		 M170.5,55.2c0-0.5-0.4-0.7-1-0.7h-0.9c-0.1,0-0.3,0-0.5-0.1c-0.4,0.3-0.6,0.6-0.6,0.9c0,0.5,0.5,0.9,1.4,0.9
		C169.9,56.3,170.5,55.7,170.5,55.2z M170,51.6c0-0.7-0.5-1.2-1.1-1.2s-1.1,0.5-1.1,1.2c0,0.7,0.5,1.2,1.1,1.2
		C169.4,52.8,170,52.3,170,51.6z"/>
</g>
<g>
	<path d="M265,54l0.2-0.3c0.3,0.3,0.6,0.5,1,0.5c0.9,0,1.7-0.7,1.7-2.8c-0.4,0.5-0.9,0.8-1.5,0.8c-1,0-1.6-0.6-1.6-1.8
		c0-1,0.7-1.8,1.6-1.8c1.1,0,1.9,1,1.9,2.7c0,2.4-1,3.3-2.1,3.3C265.7,54.6,265.3,54.4,265,54z M266.6,51.9c0.4,0,1-0.3,1.4-0.9
		c-0.1-1.2-0.5-2-1.5-2c-0.7,0-1.2,0.6-1.2,1.4C265.3,51.3,265.7,51.9,266.6,51.9z"/>
	<path d="M269.3,51.6c0-1.9,0.6-3,1.7-3c1.1,0,1.7,1.1,1.7,3c0,1.9-0.6,3-1.7,3C269.9,54.6,269.3,53.5,269.3,51.6z M272.3,51.6
		c0-1.8-0.5-2.6-1.3-2.6c-0.8,0-1.3,0.9-1.3,2.6c0,1.8,0.5,2.7,1.3,2.7C271.8,54.3,272.3,53.4,272.3,51.6z"/>
	<path d="M273.8,54.2c0-0.3,0.2-0.4,0.4-0.4s0.4,0.2,0.4,0.4c0,0.3-0.2,0.4-0.4,0.4S273.8,54.5,273.8,54.2z"/>
	<path d="M275.4,53.8l0.2-0.3c0.3,0.4,0.8,0.7,1.6,0.7c0.8,0,1.3-0.5,1.3-1.3c0-0.8-0.6-1.3-2-1.3v-0.4c1.3,0,1.8-0.6,1.8-1.3
		c0-0.6-0.5-1.1-1.2-1.1c-0.5,0-1,0.3-1.3,0.6l-0.2-0.3c0.4-0.4,0.9-0.7,1.6-0.7c0.9,0,1.6,0.5,1.6,1.4c0,0.8-0.5,1.2-1.1,1.4v0
		c0.7,0.2,1.3,0.7,1.3,1.5c0,1-0.8,1.6-1.8,1.6C276.3,54.6,275.8,54.2,275.4,53.8z"/>
</g>
<g>
	<path d="M8.6,66.1l0.3-0.3c0.4,0.5,1.1,0.8,1.7,0.8c0.9,0,1.5-0.5,1.5-1.2c0-0.7-0.5-1-1.1-1.2l-0.9-0.4C9.6,63.6,9,63.2,9,62.3
		c0-0.9,0.7-1.5,1.7-1.5c0.7,0,1.3,0.3,1.6,0.7l-0.2,0.3c-0.4-0.4-0.8-0.6-1.4-0.6c-0.8,0-1.3,0.4-1.3,1.1c0,0.7,0.6,0.9,1,1.1
		l0.9,0.4c0.7,0.3,1.3,0.7,1.3,1.6S11.8,67,10.6,67C9.8,67,9.1,66.7,8.6,66.1z"/>
	<path d="M13.8,61h0.4v3.3h0l2.9-3.3h0.5l-1.9,2.2l2.2,3.7h-0.5l-2-3.4l-1.2,1.4v2h-0.4V61z"/>
	<path d="M18.8,61h0.6l1.2,3.5c0.2,0.4,0.3,0.9,0.5,1.3h0c0.2-0.4,0.3-0.9,0.5-1.3l1.2-3.5h0.6v5.9H23V63c0-0.5,0-1.1,0.1-1.6h0
		l-0.5,1.3l-1.3,3.5h-0.4l-1.3-3.5l-0.5-1.3h0c0,0.5,0.1,1.1,0.1,1.6v3.9h-0.4V61z"/>
</g>
<g>
	<path d="M45.5,61h0.4v5.6h2.7v0.4h-3.2V61z"/>
	<path d="M49.3,64.8c0-1.5,0.9-2.3,1.9-2.3c1,0,1.9,0.8,1.9,2.3c0,1.4-0.9,2.3-1.9,2.3C50.2,67,49.3,66.2,49.3,64.8z M52.7,64.8
		c0-1.1-0.7-1.9-1.5-1.9c-0.9,0-1.5,0.8-1.5,1.9c0,1.1,0.6,1.9,1.5,1.9C52.1,66.7,52.7,65.9,52.7,64.8z"/>
	<path d="M54.4,62.6h0.3l0,0.7h0c0.4-0.4,0.9-0.8,1.5-0.8c0.9,0,1.3,0.5,1.3,1.7v2.8h-0.4v-2.7c0-0.9-0.3-1.4-1-1.4
		c-0.5,0-0.9,0.3-1.4,0.8v3.3h-0.4V62.6z"/>
	<path d="M58.9,67.8c0-0.4,0.2-0.8,0.6-1v0c-0.2-0.1-0.4-0.4-0.4-0.7c0-0.4,0.3-0.7,0.5-0.8v0c-0.3-0.2-0.5-0.7-0.5-1.2
		c0-0.9,0.7-1.5,1.5-1.5c0.2,0,0.4,0.1,0.6,0.1h1.5v0.3h-1c0.3,0.2,0.5,0.6,0.5,1.1c0,0.9-0.7,1.5-1.5,1.5c-0.2,0-0.5-0.1-0.7-0.2
		c-0.2,0.2-0.4,0.3-0.4,0.6c0,0.3,0.2,0.6,0.8,0.6h0.9c1,0,1.4,0.3,1.4,1c0,0.7-0.8,1.5-2,1.5C59.5,69,58.9,68.5,58.9,67.8z
		 M62.3,67.6c0-0.5-0.4-0.7-1-0.7h-0.9c-0.1,0-0.3,0-0.5-0.1c-0.4,0.3-0.6,0.6-0.6,0.9c0,0.5,0.5,0.9,1.4,0.9
		C61.7,68.7,62.3,68.1,62.3,67.6z M61.7,64c0-0.7-0.5-1.2-1.1-1.2s-1.1,0.5-1.1,1.2c0,0.7,0.5,1.2,1.1,1.2
		C61.2,65.2,61.7,64.7,61.7,64z"/>
	<path d="M65.4,60.4h0.4v2.8c0.5-0.5,0.9-0.8,1.5-0.8c0.9,0,1.3,0.5,1.3,1.7v2.8h-0.4v-2.7c0-0.9-0.3-1.4-1-1.4
		c-0.5,0-0.9,0.3-1.4,0.8v3.3h-0.4V60.4z"/>
	<path d="M69.8,64.8c0-1.5,0.9-2.3,1.9-2.3c1,0,1.9,0.8,1.9,2.3c0,1.4-0.9,2.3-1.9,2.3C70.7,67,69.8,66.2,69.8,64.8z M73.3,64.8
		c0-1.1-0.7-1.9-1.5-1.9c-0.9,0-1.5,0.8-1.5,1.9c0,1.1,0.6,1.9,1.5,1.9C72.6,66.7,73.3,65.9,73.3,64.8z"/>
	<path d="M75,66.3v-5.9h0.4v6c0,0.2,0.1,0.3,0.2,0.3c0,0,0.1,0,0.2,0l0.1,0.3c-0.1,0-0.2,0-0.3,0C75.2,67,75,66.8,75,66.3z"/>
	<path d="M76.7,64.8c0-1.4,0.9-2.3,1.9-2.3c1,0,1.7,0.7,1.7,2c0,0.1,0,0.2,0,0.3h-3.1c0,1.1,0.7,1.9,1.6,1.9c0.5,0,0.8-0.2,1.2-0.4
		l0.2,0.3c-0.3,0.2-0.7,0.4-1.4,0.4C77.6,67,76.7,66.2,76.7,64.8z M79.9,64.5c0-1.1-0.5-1.7-1.3-1.7c-0.7,0-1.4,0.6-1.5,1.7H79.9z"
		/>
	<path d="M82.7,66.4l0.2-0.3c0.4,0.3,0.8,0.5,1.4,0.5c0.7,0,1-0.4,1-0.9c0-0.5-0.6-0.8-1.1-1c-0.7-0.2-1.3-0.5-1.3-1.2
		c0-0.6,0.5-1.2,1.4-1.2c0.5,0,0.9,0.2,1.2,0.5l-0.2,0.3c-0.3-0.2-0.6-0.4-1-0.4c-0.7,0-1,0.4-1,0.8c0,0.5,0.5,0.7,1,0.9
		c0.7,0.3,1.4,0.5,1.4,1.3c0,0.6-0.5,1.2-1.5,1.2C83.7,67,83.1,66.8,82.7,66.4z"/>
	<path d="M87,65.7v-2.8h-0.7v-0.3l0.7,0l0.1-1.3h0.3v1.3h1.3v0.3h-1.3v2.8c0,0.5,0.1,0.9,0.7,0.9c0.2,0,0.4-0.1,0.5-0.1l0.1,0.3
		C88.5,67,88.3,67,88.1,67C87.2,67,87,66.5,87,65.7z"/>
	<path d="M89.3,64.8c0-1.5,0.9-2.3,1.9-2.3c1,0,1.9,0.8,1.9,2.3c0,1.4-0.9,2.3-1.9,2.3C90.2,67,89.3,66.2,89.3,64.8z M92.8,64.8
		c0-1.1-0.7-1.9-1.5-1.9c-0.9,0-1.5,0.8-1.5,1.9c0,1.1,0.6,1.9,1.5,1.9C92.2,66.7,92.8,65.9,92.8,64.8z"/>
	<path d="M94.5,62.6h0.3l0,0.5h0c0.4-0.3,0.9-0.6,1.5-0.6c1.2,0,1.7,0.9,1.7,2.2c0,1.5-0.9,2.3-1.9,2.3c-0.4,0-0.8-0.2-1.3-0.5v2.4
		h-0.4V62.6z M97.7,64.7c0-1.1-0.4-1.9-1.4-1.9c-0.4,0-0.9,0.3-1.4,0.7v2.6c0.5,0.4,0.9,0.6,1.3,0.6C97.1,66.7,97.7,65.9,97.7,64.7z
		"/>
	<path d="M99.3,61.2c0-0.2,0.1-0.4,0.3-0.4s0.3,0.1,0.3,0.4c0,0.2-0.1,0.4-0.3,0.4S99.3,61.4,99.3,61.2z M99.4,62.6h0.4v4.3h-0.4
		V62.6z"/>
	<path d="M101.5,62.6h0.3l0,0.7h0c0.4-0.4,0.9-0.8,1.5-0.8c0.9,0,1.3,0.5,1.3,1.7v2.8h-0.4v-2.7c0-0.9-0.3-1.4-1-1.4
		c-0.5,0-0.9,0.3-1.4,0.8v3.3h-0.4V62.6z"/>
	<path d="M105.9,67.8c0-0.4,0.2-0.8,0.6-1v0c-0.2-0.1-0.4-0.4-0.4-0.7c0-0.4,0.3-0.7,0.5-0.8v0c-0.3-0.2-0.5-0.7-0.5-1.2
		c0-0.9,0.7-1.5,1.5-1.5c0.2,0,0.4,0.1,0.6,0.1h1.5v0.3h-1c0.3,0.2,0.5,0.6,0.5,1.1c0,0.9-0.7,1.5-1.5,1.5c-0.2,0-0.5-0.1-0.7-0.2
		c-0.2,0.2-0.4,0.3-0.4,0.6c0,0.3,0.2,0.6,0.8,0.6h0.9c1,0,1.4,0.3,1.4,1c0,0.7-0.8,1.5-2,1.5C106.6,69,105.9,68.5,105.9,67.8z
		 M109.3,67.6c0-0.5-0.4-0.7-1-0.7h-0.9c-0.1,0-0.3,0-0.5-0.1c-0.4,0.3-0.6,0.6-0.6,0.9c0,0.5,0.5,0.9,1.4,0.9
		C108.7,68.7,109.3,68.1,109.3,67.6z M108.7,64c0-0.7-0.5-1.2-1.1-1.2s-1.1,0.5-1.1,1.2c0,0.7,0.5,1.2,1.1,1.2
		C108.2,65.2,108.7,64.7,108.7,64z"/>
	<path d="M111.8,62.6h0.4l0.8,2.8c0.1,0.4,0.2,0.8,0.3,1.2h0c0.1-0.4,0.2-0.8,0.3-1.2l0.8-2.8h0.5l0.8,2.8c0.1,0.4,0.2,0.8,0.3,1.2
		h0c0.1-0.4,0.2-0.8,0.3-1.2l0.8-2.8h0.4l-1.2,4.3h-0.5l-0.8-2.7c-0.1-0.4-0.2-0.8-0.3-1.2h0c-0.1,0.4-0.2,0.8-0.3,1.3l-0.7,2.7
		h-0.5L111.8,62.6z"/>
	<path d="M118.5,61.2c0-0.2,0.1-0.4,0.3-0.4s0.3,0.1,0.3,0.4c0,0.2-0.1,0.4-0.3,0.4S118.5,61.4,118.5,61.2z M118.6,62.6h0.4v4.3
		h-0.4V62.6z"/>
	<path d="M120.8,65.7v-2.8h-0.7v-0.3l0.7,0l0.1-1.3h0.3v1.3h1.3v0.3h-1.3v2.8c0,0.5,0.1,0.9,0.7,0.9c0.2,0,0.4-0.1,0.5-0.1l0.1,0.3
		c-0.3,0.1-0.5,0.2-0.7,0.2C121,67,120.8,66.5,120.8,65.7z"/>
	<path d="M123.5,60.4h0.4v2.8c0.5-0.5,0.9-0.8,1.5-0.8c0.9,0,1.3,0.5,1.3,1.7v2.8h-0.4v-2.7c0-0.9-0.3-1.4-1-1.4
		c-0.5,0-0.9,0.3-1.4,0.8v3.3h-0.4V60.4z"/>
	<path d="M130,62.6h0.3l0,0.5h0c0.4-0.3,0.9-0.6,1.5-0.6c1.2,0,1.7,0.9,1.7,2.2c0,1.5-0.9,2.3-1.9,2.3c-0.4,0-0.8-0.2-1.3-0.5v2.4
		H130V62.6z M133.2,64.7c0-1.1-0.4-1.9-1.4-1.9c-0.4,0-0.9,0.3-1.4,0.7v2.6c0.5,0.4,0.9,0.6,1.3,0.6
		C132.6,66.7,133.2,65.9,133.2,64.7z"/>
	<path d="M134.6,65.8c0-1,0.9-1.4,2.8-1.6c0-0.7-0.2-1.4-1-1.4c-0.6,0-1.1,0.3-1.4,0.5l-0.2-0.3c0.3-0.2,0.9-0.6,1.6-0.6
		c1,0,1.4,0.7,1.4,1.7v2.8h-0.3l0-0.6h0c-0.4,0.4-1,0.7-1.5,0.7C135.2,67,134.6,66.7,134.6,65.8z M137.4,66v-1.5
		c-1.8,0.2-2.4,0.6-2.4,1.3c0,0.6,0.4,0.9,0.9,0.9S136.9,66.4,137.4,66z"/>
	<path d="M138.8,66.4l0.2-0.3c0.4,0.3,0.8,0.5,1.4,0.5c0.7,0,1-0.4,1-0.9c0-0.5-0.6-0.8-1.1-1c-0.7-0.2-1.3-0.5-1.3-1.2
		c0-0.6,0.5-1.2,1.4-1.2c0.5,0,0.9,0.2,1.2,0.5l-0.2,0.3c-0.3-0.2-0.6-0.4-1-0.4c-0.7,0-1,0.4-1,0.8c0,0.5,0.5,0.7,1,0.9
		c0.7,0.3,1.4,0.5,1.4,1.3c0,0.6-0.5,1.2-1.5,1.2C139.8,67,139.2,66.8,138.8,66.4z"/>
	<path d="M143.1,65.7v-2.8h-0.7v-0.3l0.7,0l0.1-1.3h0.3v1.3h1.3v0.3h-1.3v2.8c0,0.5,0.1,0.9,0.7,0.9c0.2,0,0.4-0.1,0.5-0.1l0.1,0.3
		c-0.3,0.1-0.5,0.2-0.7,0.2C143.3,67,143.1,66.5,143.1,65.7z"/>
	<path d="M145.4,64.8c0-1.4,0.9-2.3,1.9-2.3c1,0,1.7,0.7,1.7,2c0,0.1,0,0.2,0,0.3h-3.1c0,1.1,0.7,1.9,1.6,1.9c0.5,0,0.8-0.2,1.2-0.4
		l0.2,0.3c-0.3,0.2-0.7,0.4-1.4,0.4C146.3,67,145.4,66.2,145.4,64.8z M148.6,64.5c0-1.1-0.5-1.7-1.3-1.7c-0.7,0-1.4,0.6-1.5,1.7
		H148.6z"/>
	<path d="M152,62.9h-0.6v-0.3l0.6,0v-1c0-0.9,0.4-1.3,1.1-1.3c0.2,0,0.4,0.1,0.6,0.1l-0.1,0.3c-0.2-0.1-0.4-0.1-0.5-0.1
		c-0.5,0-0.7,0.4-0.7,1v0.9h1v0.3h-1v4H152V62.9z"/>
	<path d="M154.2,61.2c0-0.2,0.1-0.4,0.3-0.4s0.3,0.1,0.3,0.4c0,0.2-0.1,0.4-0.3,0.4S154.2,61.4,154.2,61.2z M154.3,62.6h0.4v4.3
		h-0.4V62.6z"/>
	<path d="M156.4,66.3v-5.9h0.4v6c0,0.2,0.1,0.3,0.2,0.3c0,0,0.1,0,0.2,0l0.1,0.3c-0.1,0-0.2,0-0.3,0C156.6,67,156.4,66.8,156.4,66.3
		z"/>
	<path d="M158.5,66.3v-5.9h0.4v6c0,0.2,0.1,0.3,0.2,0.3c0,0,0.1,0,0.2,0l0.1,0.3c-0.1,0-0.2,0-0.3,0C158.7,67,158.5,66.8,158.5,66.3
		z"/>
	<path d="M160.5,61.2c0-0.2,0.1-0.4,0.3-0.4s0.3,0.1,0.3,0.4c0,0.2-0.1,0.4-0.3,0.4S160.5,61.4,160.5,61.2z M160.6,62.6h0.4v4.3
		h-0.4V62.6z"/>
	<path d="M162.7,62.6h0.3l0,0.7h0c0.4-0.4,0.9-0.8,1.5-0.8c0.9,0,1.3,0.5,1.3,1.7v2.8h-0.4v-2.7c0-0.9-0.3-1.4-1-1.4
		c-0.5,0-0.9,0.3-1.4,0.8v3.3h-0.4V62.6z"/>
	<path d="M167.1,67.8c0-0.4,0.2-0.8,0.6-1v0c-0.2-0.1-0.4-0.4-0.4-0.7c0-0.4,0.3-0.7,0.5-0.8v0c-0.3-0.2-0.5-0.7-0.5-1.2
		c0-0.9,0.7-1.5,1.5-1.5c0.2,0,0.4,0.1,0.6,0.1h1.5v0.3h-1c0.3,0.2,0.5,0.6,0.5,1.1c0,0.9-0.7,1.5-1.5,1.5c-0.2,0-0.5-0.1-0.7-0.2
		c-0.2,0.2-0.4,0.3-0.4,0.6c0,0.3,0.2,0.6,0.8,0.6h0.9c1,0,1.4,0.3,1.4,1c0,0.7-0.8,1.5-2,1.5C167.8,69,167.1,68.5,167.1,67.8z
		 M170.5,67.6c0-0.5-0.4-0.7-1-0.7h-0.9c-0.1,0-0.3,0-0.5-0.1c-0.4,0.3-0.6,0.6-0.6,0.9c0,0.5,0.5,0.9,1.4,0.9
		C169.9,68.7,170.5,68.1,170.5,67.6z M170,64c0-0.7-0.5-1.2-1.1-1.2s-1.1,0.5-1.1,1.2c0,0.7,0.5,1.2,1.1,1.2
		C169.4,65.2,170,64.7,170,64z"/>
</g>
<g>
	<path d="M261,66.6h1.4v-4.8h-1v-0.3c0.5-0.1,0.8-0.2,1.1-0.4h0.3v5.4h1.3v0.4h-3V66.6z"/>
	<path d="M265.3,66.6h1.4v-4.8h-1v-0.3c0.5-0.1,0.8-0.2,1.1-0.4h0.3v5.4h1.3v0.4h-3V66.6z"/>
	<path d="M269.1,66.2l0.2-0.3c0.3,0.4,0.8,0.7,1.6,0.7c0.8,0,1.3-0.5,1.3-1.3c0-0.8-0.6-1.3-2-1.3v-0.4c1.3,0,1.8-0.6,1.8-1.3
		c0-0.6-0.5-1.1-1.2-1.1c-0.5,0-1,0.3-1.3,0.6l-0.2-0.3c0.4-0.4,0.9-0.7,1.6-0.7c0.9,0,1.6,0.5,1.6,1.4c0,0.8-0.5,1.2-1.1,1.4v0
		c0.7,0.2,1.3,0.7,1.3,1.5c0,1-0.8,1.6-1.8,1.6C270,67,269.5,66.6,269.1,66.2z"/>
	<path d="M273.8,66.6c0-0.3,0.2-0.4,0.4-0.4s0.4,0.2,0.4,0.4c0,0.3-0.2,0.4-0.4,0.4S273.8,66.9,273.8,66.6z"/>
	<path d="M275.6,64.3c0-2.4,1-3.3,2.1-3.3c0.5,0,0.9,0.2,1.2,0.6l-0.2,0.3c-0.3-0.3-0.6-0.5-1-0.5c-0.9,0-1.7,0.7-1.7,2.8
		c0.4-0.5,0.9-0.8,1.4-0.8c1,0,1.6,0.6,1.6,1.8c0,1-0.7,1.8-1.6,1.8C276.3,67,275.6,66.1,275.6,64.3z M276,64.6c0.1,1.2,0.5,2,1.5,2
		c0.7,0,1.2-0.6,1.2-1.5s-0.4-1.4-1.2-1.4C277,63.8,276.5,64,276,64.6z"/>
</g>
<g>
	<path d="M9.1,73.4h1.7c1.2,0,1.9,0.4,1.9,1.6c0,0.9-0.6,1.5-1.5,1.6l1.6,2.8h-0.5l-1.6-2.7H9.5v2.7H9.1V73.4z M10.7,76.3
		c1,0,1.6-0.4,1.6-1.3c0-0.9-0.6-1.2-1.6-1.2H9.5v2.5H10.7z"/>
	<path d="M14,73.4h1.4c1.8,0,2.7,1.2,2.7,2.9c0,1.8-0.9,3-2.7,3H14V73.4z M15.3,79c1.6,0,2.3-1.1,2.3-2.6c0-1.5-0.7-2.6-2.3-2.6
		h-0.9V79H15.3z"/>
	<path d="M19.4,73.4H20l1.2,3.5c0.2,0.4,0.3,0.9,0.5,1.3h0c0.2-0.4,0.3-0.9,0.5-1.3l1.2-3.5H24v5.9h-0.4v-3.9c0-0.5,0-1.1,0.1-1.6h0
		l-0.5,1.3l-1.3,3.5h-0.4l-1.3-3.5l-0.5-1.3h0c0,0.5,0.1,1.1,0.1,1.6v3.9h-0.4V73.4z"/>
</g>
<g>
	<path d="M45.5,73.4h1.6c1.2,0,2,0.5,2,1.4c0,0.6-0.3,1.1-0.9,1.3v0c0.8,0.1,1.3,0.6,1.3,1.4c0,1.1-0.9,1.7-2.2,1.7h-1.7V73.4z
		 M46.9,76c1.2,0,1.7-0.4,1.7-1.1c0-0.8-0.6-1.1-1.7-1.1h-1.1V76H46.9z M47.1,79c1.2,0,1.9-0.4,1.9-1.4c0-0.9-0.7-1.3-1.9-1.3h-1.2
		V79H47.1z"/>
	<path d="M50.6,78.8v-5.9H51v6c0,0.2,0.1,0.3,0.2,0.3c0,0,0.1,0,0.2,0l0.1,0.3c-0.1,0-0.2,0-0.3,0C50.8,79.4,50.6,79.2,50.6,78.8z"
		/>
	<path d="M52.4,78.3c0-1,0.9-1.4,2.8-1.6c0-0.7-0.2-1.4-1-1.4c-0.6,0-1.1,0.3-1.4,0.5l-0.2-0.3c0.3-0.2,0.9-0.6,1.6-0.6
		c1,0,1.4,0.7,1.4,1.7v2.8h-0.3l0-0.6h0c-0.4,0.4-1,0.7-1.5,0.7C53,79.4,52.4,79.1,52.4,78.3z M55.2,78.4v-1.5
		c-1.8,0.2-2.4,0.6-2.4,1.3c0,0.6,0.4,0.9,0.9,0.9S54.7,78.9,55.2,78.4z"/>
	<path d="M56.6,78.8l0.2-0.3c0.4,0.3,0.8,0.5,1.4,0.5c0.7,0,1-0.4,1-0.9c0-0.5-0.6-0.8-1.1-1c-0.7-0.2-1.3-0.5-1.3-1.2
		c0-0.6,0.5-1.2,1.4-1.2c0.5,0,0.9,0.2,1.2,0.5l-0.2,0.3c-0.3-0.2-0.6-0.4-1-0.4c-0.7,0-1,0.4-1,0.8c0,0.5,0.5,0.7,1,0.9
		c0.7,0.3,1.4,0.5,1.4,1.3c0,0.6-0.5,1.2-1.5,1.2C57.6,79.4,57,79.2,56.6,78.8z"/>
	<path d="M60.9,78.1v-2.8h-0.7V75l0.7,0l0.1-1.3h0.3V75h1.3v0.3h-1.3v2.8c0,0.5,0.1,0.9,0.7,0.9c0.2,0,0.4-0.1,0.5-0.1l0.1,0.3
		c-0.3,0.1-0.5,0.2-0.7,0.2C61.2,79.4,60.9,78.9,60.9,78.1z"/>
	<path d="M65.4,72.9h0.4v2.8c0.5-0.5,0.9-0.8,1.5-0.8c0.9,0,1.3,0.5,1.3,1.7v2.8h-0.4v-2.7c0-0.9-0.3-1.4-1-1.4
		c-0.5,0-0.9,0.3-1.4,0.8v3.3h-0.4V72.9z"/>
	<path d="M69.8,77.2c0-1.5,0.9-2.3,1.9-2.3c1,0,1.9,0.8,1.9,2.3c0,1.4-0.9,2.3-1.9,2.3C70.7,79.4,69.8,78.6,69.8,77.2z M73.3,77.2
		c0-1.1-0.7-1.9-1.5-1.9c-0.9,0-1.5,0.8-1.5,1.9c0,1.1,0.6,1.9,1.5,1.9C72.6,79.1,73.3,78.3,73.3,77.2z"/>
	<path d="M75,78.8v-5.9h0.4v6c0,0.2,0.1,0.3,0.2,0.3c0,0,0.1,0,0.2,0l0.1,0.3c-0.1,0-0.2,0-0.3,0C75.2,79.4,75,79.2,75,78.8z"/>
	<path d="M76.8,77.2c0-1.4,0.9-2.3,1.9-2.3c1,0,1.7,0.7,1.7,2c0,0.1,0,0.2,0,0.3h-3.1c0,1.1,0.7,1.9,1.6,1.9c0.5,0,0.8-0.2,1.2-0.4
		l0.2,0.3c-0.3,0.2-0.7,0.4-1.4,0.4C77.7,79.4,76.8,78.6,76.8,77.2z M79.9,76.9c0-1.1-0.5-1.7-1.3-1.7c-0.7,0-1.4,0.6-1.5,1.7H79.9z
		"/>
	<path d="M82.7,78.8l0.2-0.3c0.4,0.3,0.8,0.5,1.4,0.5c0.7,0,1-0.4,1-0.9c0-0.5-0.6-0.8-1.1-1c-0.7-0.2-1.3-0.5-1.3-1.2
		c0-0.6,0.5-1.2,1.4-1.2c0.5,0,0.9,0.2,1.2,0.5l-0.2,0.3c-0.3-0.2-0.6-0.4-1-0.4c-0.7,0-1,0.4-1,0.8c0,0.5,0.5,0.7,1,0.9
		c0.7,0.3,1.4,0.5,1.4,1.3c0,0.6-0.5,1.2-1.5,1.2C83.7,79.4,83.1,79.2,82.7,78.8z"/>
	<path d="M87,78.1v-2.8h-0.7V75l0.7,0l0.1-1.3h0.3V75h1.3v0.3h-1.3v2.8c0,0.5,0.1,0.9,0.7,0.9c0.2,0,0.4-0.1,0.5-0.1l0.1,0.3
		c-0.3,0.1-0.5,0.2-0.7,0.2C87.3,79.4,87,78.9,87,78.1z"/>
	<path d="M89.4,77.2c0-1.5,0.9-2.3,1.9-2.3c1,0,1.9,0.8,1.9,2.3c0,1.4-0.9,2.3-1.9,2.3C90.3,79.4,89.4,78.6,89.4,77.2z M92.8,77.2
		c0-1.1-0.7-1.9-1.5-1.9c-0.9,0-1.5,0.8-1.5,1.9c0,1.1,0.6,1.9,1.5,1.9C92.2,79.1,92.8,78.3,92.8,77.2z"/>
	<path d="M94.5,75h0.3l0,0.5h0c0.4-0.3,0.9-0.6,1.5-0.6c1.2,0,1.7,0.9,1.7,2.2c0,1.5-0.9,2.3-1.9,2.3c-0.4,0-0.8-0.2-1.3-0.5v2.4
		h-0.4V75z M97.7,77.1c0-1.1-0.4-1.9-1.4-1.9c-0.4,0-0.9,0.3-1.4,0.7v2.6c0.5,0.4,0.9,0.6,1.3,0.6C97.1,79.1,97.7,78.3,97.7,77.1z"
		/>
	<path d="M99.3,73.6c0-0.2,0.1-0.4,0.3-0.4s0.3,0.1,0.3,0.4c0,0.2-0.1,0.4-0.3,0.4S99.3,73.8,99.3,73.6z M99.4,75h0.4v4.3h-0.4V75z"
		/>
	<path d="M101.5,75h0.3l0,0.7h0c0.4-0.4,0.9-0.8,1.5-0.8c0.9,0,1.3,0.5,1.3,1.7v2.8h-0.4v-2.7c0-0.9-0.3-1.4-1-1.4
		c-0.5,0-0.9,0.3-1.4,0.8v3.3h-0.4V75z"/>
	<path d="M105.9,80.2c0-0.4,0.2-0.8,0.6-1v0c-0.2-0.1-0.4-0.4-0.4-0.7c0-0.4,0.3-0.7,0.5-0.8v0c-0.3-0.2-0.5-0.7-0.5-1.2
		c0-0.9,0.7-1.5,1.5-1.5c0.2,0,0.4,0.1,0.6,0.1h1.5v0.3h-1c0.3,0.2,0.5,0.6,0.5,1.1c0,0.9-0.7,1.5-1.5,1.5c-0.2,0-0.5-0.1-0.7-0.2
		c-0.2,0.2-0.4,0.3-0.4,0.6c0,0.3,0.2,0.6,0.8,0.6h0.9c1,0,1.4,0.3,1.4,1c0,0.7-0.8,1.5-2,1.5C106.6,81.4,105.9,80.9,105.9,80.2z
		 M109.3,80c0-0.5-0.4-0.7-1-0.7h-0.9c-0.1,0-0.3,0-0.5-0.1c-0.4,0.3-0.6,0.6-0.6,0.9c0,0.5,0.5,0.9,1.4,0.9
		C108.7,81.1,109.3,80.5,109.3,80z M108.8,76.4c0-0.7-0.5-1.2-1.1-1.2s-1.1,0.5-1.1,1.2c0,0.7,0.5,1.2,1.1,1.2
		C108.2,77.6,108.8,77.2,108.8,76.4z"/>
	<path d="M111.9,75h0.4l0.8,2.8c0.1,0.4,0.2,0.8,0.3,1.2h0c0.1-0.4,0.2-0.8,0.3-1.2l0.8-2.8h0.5l0.8,2.8c0.1,0.4,0.2,0.8,0.3,1.2h0
		c0.1-0.4,0.2-0.8,0.3-1.2l0.8-2.8h0.4l-1.2,4.3h-0.5l-0.8-2.7c-0.1-0.4-0.2-0.8-0.3-1.2h0c-0.1,0.4-0.2,0.8-0.3,1.3l-0.7,2.7h-0.5
		L111.9,75z"/>
	<path d="M118.5,73.6c0-0.2,0.1-0.4,0.3-0.4s0.3,0.1,0.3,0.4c0,0.2-0.1,0.4-0.3,0.4S118.5,73.8,118.5,73.6z M118.6,75h0.4v4.3h-0.4
		V75z"/>
	<path d="M120.8,78.1v-2.8h-0.7V75l0.7,0l0.1-1.3h0.3V75h1.3v0.3h-1.3v2.8c0,0.5,0.1,0.9,0.7,0.9c0.2,0,0.4-0.1,0.5-0.1l0.1,0.3
		c-0.3,0.1-0.5,0.2-0.7,0.2C121,79.4,120.8,78.9,120.8,78.1z"/>
	<path d="M123.5,72.9h0.4v2.8c0.5-0.5,0.9-0.8,1.5-0.8c0.9,0,1.3,0.5,1.3,1.7v2.8h-0.4v-2.7c0-0.9-0.3-1.4-1-1.4
		c-0.5,0-0.9,0.3-1.4,0.8v3.3h-0.4V72.9z"/>
	<path d="M130.1,72.9h0.4v2.8c0.5-0.5,0.9-0.8,1.5-0.8c0.9,0,1.3,0.5,1.3,1.7v2.8h-0.4v-2.7c0-0.9-0.3-1.4-1-1.4
		c-0.5,0-0.9,0.3-1.4,0.8v3.3h-0.4V72.9z"/>
	<path d="M134.2,81.2l0.1-0.4c0.1,0,0.2,0.1,0.4,0.1c0.5,0,0.9-0.5,1.1-1.1l0.1-0.4l-1.8-4.4h0.4l1,2.7c0.1,0.4,0.3,0.8,0.5,1.2h0
		c0.1-0.4,0.3-0.8,0.4-1.2l0.9-2.7h0.4l-1.7,4.9c-0.2,0.7-0.7,1.4-1.4,1.4C134.5,81.3,134.3,81.3,134.2,81.2z"/>
	<path d="M138.4,77.2c0-1.4,0.9-2.3,1.9-2.3c0.5,0,0.9,0.2,1.3,0.5l0-0.8v-1.8h0.4v6.5h-0.3l0-0.6h0c-0.4,0.4-0.8,0.7-1.4,0.7
		C139.1,79.4,138.4,78.6,138.4,77.2z M141.6,78.4v-2.6c-0.5-0.4-0.8-0.6-1.3-0.6c-0.9,0-1.5,0.8-1.5,1.9c0,1.1,0.5,1.9,1.4,1.9
		C140.7,79.1,141.1,78.8,141.6,78.4z"/>
	<path d="M143.6,75h0.3l0,0.8h0c0.3-0.5,0.7-0.9,1.2-0.9c0.2,0,0.3,0,0.4,0.1l-0.1,0.4c-0.1-0.1-0.2-0.1-0.4-0.1
		c-0.4,0-0.8,0.3-1.2,1.1v2.9h-0.4V75z"/>
	<path d="M146.2,78.3c0-1,0.9-1.4,2.8-1.6c0-0.7-0.2-1.4-1-1.4c-0.6,0-1.1,0.3-1.4,0.5l-0.2-0.3c0.3-0.2,0.9-0.6,1.6-0.6
		c1,0,1.4,0.7,1.4,1.7v2.8H149l0-0.6h0c-0.4,0.4-1,0.7-1.5,0.7C146.7,79.4,146.2,79.1,146.2,78.3z M149,78.4v-1.5
		c-1.8,0.2-2.4,0.6-2.4,1.3c0,0.6,0.4,0.9,0.9,0.9S148.4,78.9,149,78.4z"/>
	<path d="M150.8,77.8V75h0.4v2.7c0,0.9,0.3,1.4,1,1.4c0.5,0,0.9-0.3,1.4-0.9V75h0.4v4.3h-0.3l0-0.7h0c-0.4,0.5-0.9,0.8-1.5,0.8
		C151.2,79.4,150.8,78.9,150.8,77.8z"/>
	<path d="M155.7,78.8v-5.9h0.4v6c0,0.2,0.1,0.3,0.2,0.3c0,0,0.1,0,0.2,0l0.1,0.3c-0.1,0-0.2,0-0.3,0
		C155.8,79.4,155.7,79.2,155.7,78.8z"/>
	<path d="M157.7,73.6c0-0.2,0.1-0.4,0.3-0.4s0.3,0.1,0.3,0.4c0,0.2-0.1,0.4-0.3,0.4S157.7,73.8,157.7,73.6z M157.8,75h0.4v4.3h-0.4
		V75z"/>
	<path d="M159.5,77.2c0-1.5,0.9-2.3,2-2.3c0.6,0,1,0.3,1.3,0.5l-0.2,0.3c-0.3-0.3-0.6-0.5-1-0.5c-0.9,0-1.6,0.8-1.6,1.9
		c0,1.1,0.6,1.9,1.6,1.9c0.5,0,0.9-0.2,1.2-0.5l0.2,0.3c-0.4,0.3-0.8,0.6-1.4,0.6C160.3,79.4,159.5,78.6,159.5,77.2z"/>
	<path d="M165.8,75.4h-0.6V75l0.6,0v-1c0-0.9,0.4-1.3,1.1-1.3c0.2,0,0.4,0.1,0.6,0.1l-0.1,0.3c-0.2-0.1-0.4-0.1-0.5-0.1
		c-0.5,0-0.7,0.4-0.7,1V75h1v0.3h-1v4h-0.4V75.4z"/>
	<path d="M167.9,73.6c0-0.2,0.1-0.4,0.3-0.4s0.3,0.1,0.3,0.4c0,0.2-0.1,0.4-0.3,0.4S167.9,73.8,167.9,73.6z M168.1,75h0.4v4.3h-0.4
		V75z"/>
	<path d="M170.1,78.8v-5.9h0.4v6c0,0.2,0.1,0.3,0.2,0.3c0,0,0.1,0,0.2,0l0.1,0.3c-0.1,0-0.2,0-0.3,0
		C170.3,79.4,170.1,79.2,170.1,78.8z"/>
	<path d="M172.3,78.8v-5.9h0.4v6c0,0.2,0.1,0.3,0.2,0.3c0,0,0.1,0,0.2,0l0.1,0.3c-0.1,0-0.2,0-0.3,0
		C172.4,79.4,172.3,79.2,172.3,78.8z"/>
	<path d="M174.3,73.6c0-0.2,0.1-0.4,0.3-0.4s0.3,0.1,0.3,0.4c0,0.2-0.1,0.4-0.3,0.4S174.3,73.8,174.3,73.6z M174.4,75h0.4v4.3h-0.4
		V75z"/>
	<path d="M176.4,75h0.3l0,0.7h0c0.4-0.4,0.9-0.8,1.5-0.8c0.9,0,1.3,0.5,1.3,1.7v2.8h-0.4v-2.7c0-0.9-0.3-1.4-1-1.4
		c-0.5,0-0.9,0.3-1.4,0.8v3.3h-0.4V75z"/>
	<path d="M180.9,80.2c0-0.4,0.2-0.8,0.6-1v0c-0.2-0.1-0.4-0.4-0.4-0.7c0-0.4,0.3-0.7,0.5-0.8v0c-0.3-0.2-0.5-0.7-0.5-1.2
		c0-0.9,0.7-1.5,1.5-1.5c0.2,0,0.4,0.1,0.6,0.1h1.5v0.3h-1c0.3,0.2,0.5,0.6,0.5,1.1c0,0.9-0.7,1.5-1.5,1.5c-0.2,0-0.5-0.1-0.7-0.2
		c-0.2,0.2-0.4,0.3-0.4,0.6c0,0.3,0.2,0.6,0.8,0.6h0.9c1,0,1.4,0.3,1.4,1c0,0.7-0.8,1.5-2,1.5C181.6,81.4,180.9,80.9,180.9,80.2z
		 M184.3,80c0-0.5-0.4-0.7-1-0.7h-0.9c-0.1,0-0.3,0-0.5-0.1c-0.4,0.3-0.6,0.6-0.6,0.9c0,0.5,0.5,0.9,1.4,0.9
		C183.7,81.1,184.3,80.5,184.3,80z M183.7,76.4c0-0.7-0.5-1.2-1.1-1.2s-1.1,0.5-1.1,1.2c0,0.7,0.5,1.2,1.1,1.2
		C183.2,77.6,183.7,77.2,183.7,76.4z"/>
</g>
<g>
	<path d="M264.8,78.7l0.2-0.3c0.3,0.4,0.8,0.7,1.6,0.7c0.8,0,1.4-0.6,1.4-1.5c0-0.9-0.5-1.5-1.4-1.5c-0.4,0-0.7,0.2-1.1,0.4
		l-0.3-0.2l0.2-2.7h2.7v0.4h-2.3l-0.2,2.1c0.3-0.2,0.6-0.3,1-0.3c1,0,1.8,0.6,1.8,1.8c0,1.2-0.9,1.9-1.8,1.9
		C265.7,79.4,265.1,79,264.8,78.7z"/>
	<path d="M272.3,73.9h-3v-0.4h3.5v0.2c-1.4,1.8-1.7,3.3-1.8,5.5h-0.4C270.6,77,271.1,75.6,272.3,73.9z"/>
	<path d="M273.8,79c0-0.3,0.2-0.4,0.4-0.4s0.4,0.2,0.4,0.4c0,0.3-0.2,0.4-0.4,0.4S273.8,79.3,273.8,79z"/>
	<path d="M275.6,78.9l0.2-0.3c0.3,0.3,0.6,0.5,1,0.5c0.9,0,1.7-0.7,1.7-2.8c-0.4,0.5-0.9,0.8-1.5,0.8c-1,0-1.6-0.6-1.6-1.8
		c0-1,0.7-1.8,1.6-1.8c1.1,0,1.9,1,1.9,2.7c0,2.4-1,3.3-2.1,3.3C276.3,79.4,275.9,79.2,275.6,78.9z M277.2,76.7c0.4,0,1-0.3,1.4-0.9
		c-0.1-1.2-0.5-2-1.5-2c-0.7,0-1.2,0.6-1.2,1.4C275.9,76.1,276.3,76.7,277.2,76.7z"/>
</g>
<g>
	<path d="M8.7,91.5l3.4-5.3H9v-0.4h3.6v0.2l-3.4,5.3h3.4v0.4h-4V91.5z"/>
	<path d="M13.9,85.8h0.6l1.2,3.5c0.2,0.4,0.3,0.9,0.5,1.3h0c0.2-0.4,0.3-0.9,0.5-1.3l1.2-3.5h0.6v5.9h-0.4v-3.9c0-0.5,0-1.1,0.1-1.6
		h0l-0.5,1.3l-1.3,3.5h-0.4l-1.3-3.5l-0.5-1.3h0c0,0.5,0.1,1.1,0.1,1.6v3.9h-0.4V85.8z"/>
</g>
<g>
	<path d="M45.5,85.8h1.6c1.2,0,2,0.5,2,1.4c0,0.6-0.3,1.1-0.9,1.3v0c0.8,0.1,1.3,0.6,1.3,1.4c0,1.1-0.9,1.7-2.2,1.7h-1.7V85.8z
		 M46.9,88.4c1.2,0,1.7-0.4,1.7-1.1c0-0.8-0.6-1.1-1.7-1.1h-1.1v2.3H46.9z M47.1,91.4c1.2,0,1.9-0.4,1.9-1.4c0-0.9-0.7-1.3-1.9-1.3
		h-1.2v2.6H47.1z"/>
	<path d="M50.6,91.2v-5.9H51v6c0,0.2,0.1,0.3,0.2,0.3c0,0,0.1,0,0.2,0l0.1,0.3c-0.1,0-0.2,0-0.3,0C50.8,91.9,50.6,91.6,50.6,91.2z"
		/>
	<path d="M52.4,90.7c0-1,0.9-1.4,2.8-1.6c0-0.7-0.2-1.4-1-1.4c-0.6,0-1.1,0.3-1.4,0.5l-0.2-0.3c0.3-0.2,0.9-0.6,1.6-0.6
		c1,0,1.4,0.7,1.4,1.7v2.8h-0.3l0-0.6h0c-0.4,0.4-1,0.7-1.5,0.7C53,91.9,52.4,91.5,52.4,90.7z M55.2,90.8v-1.5
		c-1.8,0.2-2.4,0.6-2.4,1.3c0,0.6,0.4,0.9,0.9,0.9S54.7,91.3,55.2,90.8z"/>
	<path d="M56.6,91.3l0.2-0.3c0.4,0.3,0.8,0.5,1.4,0.5c0.7,0,1-0.4,1-0.9c0-0.5-0.6-0.8-1.1-1c-0.7-0.2-1.3-0.5-1.3-1.2
		c0-0.6,0.5-1.2,1.4-1.2c0.5,0,0.9,0.2,1.2,0.5l-0.2,0.3c-0.3-0.2-0.6-0.4-1-0.4c-0.7,0-1,0.4-1,0.8c0,0.5,0.5,0.7,1,0.9
		c0.7,0.3,1.4,0.5,1.4,1.3c0,0.6-0.5,1.2-1.5,1.2C57.6,91.9,57,91.6,56.6,91.3z"/>
	<path d="M60.9,90.6v-2.8h-0.7v-0.3l0.7,0l0.1-1.3h0.3v1.3h1.3v0.3h-1.3v2.8c0,0.5,0.1,0.9,0.7,0.9c0.2,0,0.4-0.1,0.5-0.1l0.1,0.3
		c-0.3,0.1-0.5,0.2-0.7,0.2C61.2,91.9,60.9,91.3,60.9,90.6z"/>
	<path d="M65.4,85.3h0.4v2.8c0.5-0.5,0.9-0.8,1.5-0.8c0.9,0,1.3,0.5,1.3,1.7v2.8h-0.4V89c0-0.9-0.3-1.4-1-1.4
		c-0.5,0-0.9,0.3-1.4,0.8v3.3h-0.4V85.3z"/>
	<path d="M69.8,89.6c0-1.4,0.9-2.3,1.9-2.3c1,0,1.9,0.8,1.9,2.3c0,1.4-0.9,2.3-1.9,2.3C70.7,91.9,69.8,91,69.8,89.6z M73.3,89.6
		c0-1.1-0.7-1.9-1.5-1.9c-0.9,0-1.5,0.8-1.5,1.9c0,1.1,0.6,1.9,1.5,1.9C72.6,91.5,73.3,90.7,73.3,89.6z"/>
	<path d="M75,91.2v-5.9h0.4v6c0,0.2,0.1,0.3,0.2,0.3c0,0,0.1,0,0.2,0l0.1,0.3c-0.1,0-0.2,0-0.3,0C75.2,91.9,75,91.6,75,91.2z"/>
	<path d="M76.8,89.6c0-1.4,0.9-2.3,1.9-2.3c1,0,1.7,0.7,1.7,2c0,0.1,0,0.2,0,0.3h-3.1c0,1.1,0.7,1.9,1.6,1.9c0.5,0,0.8-0.2,1.2-0.4
		l0.2,0.3c-0.3,0.2-0.7,0.4-1.4,0.4C77.7,91.9,76.8,91,76.8,89.6z M79.9,89.3c0-1.1-0.5-1.7-1.3-1.7c-0.7,0-1.4,0.6-1.5,1.7H79.9z"
		/>
	<path d="M82.9,89.6c0-1.4,0.9-2.3,1.9-2.3c1,0,1.9,0.8,1.9,2.3c0,1.4-0.9,2.3-1.9,2.3C83.8,91.9,82.9,91,82.9,89.6z M86.4,89.6
		c0-1.1-0.7-1.9-1.5-1.9c-0.9,0-1.5,0.8-1.5,1.9c0,1.1,0.6,1.9,1.5,1.9C85.7,91.5,86.4,90.7,86.4,89.6z"/>
	<path d="M88.1,87.4h0.3l0,0.5h0c0.4-0.3,0.9-0.6,1.5-0.6c1.2,0,1.7,0.9,1.7,2.2c0,1.5-0.9,2.3-1.9,2.3c-0.4,0-0.8-0.2-1.3-0.5v2.4
		h-0.4V87.4z M91.3,89.5c0-1.1-0.4-1.9-1.4-1.9c-0.4,0-0.9,0.3-1.4,0.7V91c0.5,0.4,0.9,0.6,1.3,0.6C90.6,91.5,91.3,90.7,91.3,89.5z"
		/>
	<path d="M92.6,89.6c0-1.4,0.9-2.3,1.9-2.3c1,0,1.7,0.7,1.7,2c0,0.1,0,0.2,0,0.3H93c0,1.1,0.7,1.9,1.6,1.9c0.5,0,0.8-0.2,1.2-0.4
		l0.2,0.3c-0.3,0.2-0.7,0.4-1.4,0.4C93.5,91.9,92.6,91,92.6,89.6z M95.8,89.3c0-1.1-0.5-1.7-1.3-1.7c-0.7,0-1.4,0.6-1.5,1.7H95.8z"
		/>
	<path d="M97.3,87.4h0.3l0,0.7h0c0.4-0.4,0.9-0.8,1.5-0.8c0.9,0,1.3,0.5,1.3,1.7v2.8h-0.4V89c0-0.9-0.3-1.4-1-1.4
		c-0.5,0-0.9,0.3-1.4,0.8v3.3h-0.4V87.4z"/>
	<path d="M103.4,91.3l0.2-0.3c0.4,0.3,0.8,0.5,1.4,0.5c0.7,0,1-0.4,1-0.9c0-0.5-0.6-0.8-1.1-1c-0.7-0.2-1.3-0.5-1.3-1.2
		c0-0.6,0.5-1.2,1.4-1.2c0.5,0,0.9,0.2,1.2,0.5l-0.2,0.3c-0.3-0.2-0.6-0.4-1-0.4c-0.7,0-1,0.4-1,0.8c0,0.5,0.5,0.7,1,0.9
		c0.7,0.3,1.4,0.5,1.4,1.3c0,0.6-0.5,1.2-1.5,1.2C104.3,91.9,103.8,91.6,103.4,91.3z"/>
	<path d="M107.7,90.6v-2.8H107v-0.3l0.7,0l0.1-1.3h0.3v1.3h1.3v0.3h-1.3v2.8c0,0.5,0.1,0.9,0.7,0.9c0.2,0,0.4-0.1,0.5-0.1l0.1,0.3
		c-0.3,0.1-0.5,0.2-0.7,0.2C107.9,91.9,107.7,91.3,107.7,90.6z"/>
	<path d="M110,89.6c0-1.4,0.9-2.3,1.9-2.3c1,0,1.9,0.8,1.9,2.3c0,1.4-0.9,2.3-1.9,2.3C110.9,91.9,110,91,110,89.6z M113.5,89.6
		c0-1.1-0.7-1.9-1.5-1.9c-0.9,0-1.5,0.8-1.5,1.9c0,1.1,0.6,1.9,1.5,1.9C112.8,91.5,113.5,90.7,113.5,89.6z"/>
	<path d="M115.2,87.4h0.3l0,0.5h0c0.4-0.3,0.9-0.6,1.5-0.6c1.2,0,1.7,0.9,1.7,2.2c0,1.5-0.9,2.3-1.9,2.3c-0.4,0-0.8-0.2-1.3-0.5v2.4
		h-0.4V87.4z M118.4,89.5c0-1.1-0.4-1.9-1.4-1.9c-0.4,0-0.9,0.3-1.4,0.7V91c0.5,0.4,0.9,0.6,1.3,0.6
		C117.7,91.5,118.4,90.7,118.4,89.5z"/>
	<path d="M119.9,86c0-0.2,0.1-0.4,0.3-0.4s0.3,0.1,0.3,0.4c0,0.2-0.1,0.4-0.3,0.4S119.9,86.2,119.9,86z M120.1,87.4h0.4v4.3h-0.4
		V87.4z"/>
	<path d="M122.1,87.4h0.3l0,0.7h0c0.4-0.4,0.9-0.8,1.5-0.8c0.9,0,1.3,0.5,1.3,1.7v2.8h-0.4V89c0-0.9-0.3-1.4-1-1.4
		c-0.5,0-0.9,0.3-1.4,0.8v3.3h-0.4V87.4z"/>
	<path d="M126.6,92.6c0-0.4,0.2-0.8,0.6-1v0c-0.2-0.1-0.4-0.4-0.4-0.7c0-0.4,0.3-0.7,0.5-0.8v0c-0.3-0.2-0.5-0.7-0.5-1.2
		c0-0.9,0.7-1.5,1.5-1.5c0.2,0,0.4,0.1,0.6,0.1h1.5v0.3h-1c0.3,0.2,0.5,0.6,0.5,1.1c0,0.9-0.7,1.5-1.5,1.5c-0.2,0-0.5-0.1-0.7-0.2
		c-0.2,0.2-0.4,0.3-0.4,0.6c0,0.3,0.2,0.6,0.8,0.6h0.9c1,0,1.4,0.3,1.4,1c0,0.7-0.8,1.5-2,1.5C127.3,93.8,126.6,93.4,126.6,92.6z
		 M130,92.4c0-0.5-0.4-0.7-1-0.7h-0.9c-0.1,0-0.3,0-0.5-0.1c-0.4,0.3-0.6,0.6-0.6,0.9c0,0.5,0.5,0.9,1.4,0.9
		C129.4,93.5,130,93,130,92.4z M129.4,88.8c0-0.7-0.5-1.2-1.1-1.2s-1.1,0.5-1.1,1.2c0,0.7,0.5,1.2,1.1,1.2
		C128.9,90.1,129.4,89.6,129.4,88.8z"/>
</g>
<g>
	<path d="M261,91.4h1.4v-4.8h-1v-0.3c0.5-0.1,0.8-0.2,1.1-0.4h0.3v5.4h1.3v0.4h-3V91.4z"/>
	<path d="M265,88.9c0-1.9,0.6-3,1.7-3c1.1,0,1.7,1.1,1.7,3c0,1.9-0.6,3-1.7,3C265.6,91.9,265,90.8,265,88.9z M268,88.9
		c0-1.8-0.5-2.6-1.3-2.6c-0.8,0-1.3,0.9-1.3,2.6c0,1.8,0.5,2.7,1.3,2.7C267.5,91.5,268,90.6,268,88.9z"/>
	<path d="M269.1,91.1l0.2-0.3c0.3,0.4,0.8,0.7,1.6,0.7c0.8,0,1.4-0.6,1.4-1.5c0-0.9-0.5-1.5-1.4-1.5c-0.4,0-0.7,0.2-1.1,0.4
		l-0.3-0.2l0.2-2.7h2.7v0.4h-2.3l-0.2,2.1c0.3-0.2,0.6-0.3,1-0.3c1,0,1.8,0.6,1.8,1.8c0,1.2-0.9,1.9-1.8,1.9
		C270,91.9,269.5,91.5,269.1,91.1z"/>
	<path d="M273.8,91.5c0-0.3,0.2-0.4,0.4-0.4s0.4,0.2,0.4,0.4c0,0.3-0.2,0.4-0.4,0.4S273.8,91.7,273.8,91.5z"/>
	<path d="M275.4,91.1l0.2-0.3c0.3,0.4,0.8,0.7,1.6,0.7c0.8,0,1.4-0.6,1.4-1.5c0-0.9-0.5-1.5-1.4-1.5c-0.4,0-0.7,0.2-1.1,0.4
		l-0.3-0.2L276,86h2.7v0.4h-2.3l-0.2,2.1c0.3-0.2,0.6-0.3,1-0.3c1,0,1.8,0.6,1.8,1.8c0,1.2-0.9,1.9-1.8,1.9
		C276.3,91.9,275.7,91.5,275.4,91.1z"/>
</g>
<g>
	<path d="M9.1,98.2h0.4v3.3h0l2.9-3.3h0.5l-1.9,2.2l2.2,3.7h-0.5l-2-3.4l-1.2,1.4v2H9.1V98.2z"/>
	<path d="M14.1,98.2h0.6l1.2,3.5c0.2,0.4,0.3,0.9,0.5,1.3h0c0.2-0.4,0.3-0.9,0.5-1.3l1.2-3.5h0.6v5.9h-0.4v-3.9c0-0.5,0-1.1,0.1-1.6
		h0l-0.5,1.3l-1.3,3.5h-0.4L15,100l-0.5-1.3h0c0,0.5,0.1,1.1,0.1,1.6v3.9h-0.4V98.2z"/>
</g>
<g>
	<path d="M45.5,98.2h0.4v5.6h2.7v0.4h-3.2V98.2z"/>
	<path d="M49.3,102c0-1.5,0.9-2.3,1.9-2.3c1,0,1.9,0.8,1.9,2.3c0,1.4-0.9,2.3-1.9,2.3C50.2,104.3,49.3,103.5,49.3,102z M52.7,102
		c0-1.1-0.7-1.9-1.5-1.9c-0.9,0-1.5,0.8-1.5,1.9c0,1.1,0.6,1.9,1.5,1.9C52.1,103.9,52.7,103.2,52.7,102z"/>
	<path d="M54.4,99.9h0.3l0,0.7h0c0.4-0.4,0.9-0.8,1.5-0.8c0.9,0,1.3,0.5,1.3,1.7v2.8h-0.4v-2.7c0-0.9-0.3-1.4-1-1.4
		c-0.5,0-0.9,0.3-1.4,0.8v3.3h-0.4V99.9z"/>
	<path d="M58.9,105.1c0-0.4,0.2-0.8,0.6-1v0c-0.2-0.1-0.4-0.4-0.4-0.7c0-0.4,0.3-0.7,0.5-0.8v0c-0.3-0.2-0.5-0.7-0.5-1.2
		c0-0.9,0.7-1.5,1.5-1.5c0.2,0,0.4,0.1,0.6,0.1h1.5v0.3h-1c0.3,0.2,0.5,0.6,0.5,1.1c0,0.9-0.7,1.5-1.5,1.5c-0.2,0-0.5-0.1-0.7-0.2
		c-0.2,0.2-0.4,0.3-0.4,0.6c0,0.3,0.2,0.6,0.8,0.6h0.9c1,0,1.4,0.3,1.4,1c0,0.7-0.8,1.5-2,1.5C59.5,106.3,58.9,105.8,58.9,105.1z
		 M62.3,104.8c0-0.5-0.4-0.7-1-0.7h-0.9c-0.1,0-0.3,0-0.5-0.1c-0.4,0.3-0.6,0.6-0.6,0.9c0,0.5,0.5,0.9,1.4,0.9
		C61.7,105.9,62.3,105.4,62.3,104.8z M61.7,101.3c0-0.7-0.5-1.2-1.1-1.2s-1.1,0.5-1.1,1.2c0,0.7,0.5,1.2,1.1,1.2
		C61.2,102.5,61.7,102,61.7,101.3z"/>
	<path d="M65.4,97.7h0.4v2.8c0.5-0.5,0.9-0.8,1.5-0.8c0.9,0,1.3,0.5,1.3,1.7v2.8h-0.4v-2.7c0-0.9-0.3-1.4-1-1.4
		c-0.5,0-0.9,0.3-1.4,0.8v3.3h-0.4V97.7z"/>
	<path d="M69.8,102c0-1.5,0.9-2.3,1.9-2.3c1,0,1.9,0.8,1.9,2.3c0,1.4-0.9,2.3-1.9,2.3C70.7,104.3,69.8,103.5,69.8,102z M73.3,102
		c0-1.1-0.7-1.9-1.5-1.9c-0.9,0-1.5,0.8-1.5,1.9c0,1.1,0.6,1.9,1.5,1.9C72.6,103.9,73.3,103.2,73.3,102z"/>
	<path d="M75,103.6v-5.9h0.4v6c0,0.2,0.1,0.3,0.2,0.3c0,0,0.1,0,0.2,0l0.1,0.3c-0.1,0-0.2,0-0.3,0C75.2,104.3,75,104.1,75,103.6z"/>
	<path d="M76.7,102c0-1.4,0.9-2.3,1.9-2.3c1,0,1.7,0.7,1.7,2c0,0.1,0,0.2,0,0.3h-3.1c0,1.1,0.7,1.9,1.6,1.9c0.5,0,0.8-0.2,1.2-0.4
		l0.2,0.3c-0.3,0.2-0.7,0.4-1.4,0.4C77.6,104.3,76.7,103.4,76.7,102z M79.9,101.7c0-1.1-0.5-1.7-1.3-1.7c-0.7,0-1.4,0.6-1.5,1.7
		H79.9z"/>
	<path d="M82.9,102c0-1.5,0.9-2.3,1.9-2.3c1,0,1.9,0.8,1.9,2.3c0,1.4-0.9,2.3-1.9,2.3C83.8,104.3,82.9,103.5,82.9,102z M86.4,102
		c0-1.1-0.7-1.9-1.5-1.9c-0.9,0-1.5,0.8-1.5,1.9c0,1.1,0.6,1.9,1.5,1.9C85.7,103.9,86.4,103.2,86.4,102z"/>
	<path d="M88.1,99.9h0.3l0,0.5h0c0.4-0.3,0.9-0.6,1.5-0.6c1.2,0,1.7,0.9,1.7,2.2c0,1.5-0.9,2.3-1.9,2.3c-0.4,0-0.8-0.2-1.3-0.5v2.4
		h-0.4V99.9z M91.2,101.9c0-1.1-0.4-1.9-1.4-1.9c-0.4,0-0.9,0.3-1.4,0.7v2.6c0.5,0.4,0.9,0.6,1.3,0.6
		C90.6,103.9,91.2,103.1,91.2,101.9z"/>
	<path d="M92.6,102c0-1.4,0.9-2.3,1.9-2.3c1,0,1.7,0.7,1.7,2c0,0.1,0,0.2,0,0.3H93c0,1.1,0.7,1.9,1.6,1.9c0.5,0,0.8-0.2,1.2-0.4
		l0.2,0.3c-0.3,0.2-0.7,0.4-1.4,0.4C93.5,104.3,92.6,103.4,92.6,102z M95.8,101.7c0-1.1-0.5-1.7-1.3-1.7c-0.7,0-1.4,0.6-1.5,1.7
		H95.8z"/>
	<path d="M97.3,99.9h0.3l0,0.7h0c0.4-0.4,0.9-0.8,1.5-0.8c0.9,0,1.3,0.5,1.3,1.7v2.8h-0.4v-2.7c0-0.9-0.3-1.4-1-1.4
		c-0.5,0-0.9,0.3-1.4,0.8v3.3h-0.4V99.9z"/>
	<path d="M103.4,103.7l0.2-0.3c0.4,0.3,0.8,0.5,1.4,0.5c0.7,0,1-0.4,1-0.9c0-0.5-0.6-0.8-1.1-1c-0.7-0.2-1.3-0.5-1.3-1.2
		c0-0.6,0.5-1.2,1.4-1.2c0.5,0,0.9,0.2,1.2,0.5l-0.2,0.3c-0.3-0.2-0.6-0.4-1-0.4c-0.7,0-1,0.4-1,0.8c0,0.5,0.5,0.7,1,0.9
		c0.7,0.3,1.4,0.5,1.4,1.3c0,0.6-0.5,1.2-1.5,1.2C104.3,104.3,103.7,104,103.4,103.7z"/>
	<path d="M107.6,103v-2.8H107v-0.3l0.7,0l0.1-1.3h0.3v1.3h1.3v0.3H108v2.8c0,0.5,0.1,0.9,0.7,0.9c0.2,0,0.4-0.1,0.5-0.1l0.1,0.3
		c-0.3,0.1-0.5,0.2-0.7,0.2C107.9,104.3,107.6,103.8,107.6,103z"/>
	<path d="M110,102c0-1.5,0.9-2.3,1.9-2.3c1,0,1.9,0.8,1.9,2.3c0,1.4-0.9,2.3-1.9,2.3C110.9,104.3,110,103.5,110,102z M113.5,102
		c0-1.1-0.7-1.9-1.5-1.9c-0.9,0-1.5,0.8-1.5,1.9c0,1.1,0.6,1.9,1.5,1.9C112.8,103.9,113.5,103.2,113.5,102z"/>
	<path d="M115.2,99.9h0.3l0,0.5h0c0.4-0.3,0.9-0.6,1.5-0.6c1.2,0,1.7,0.9,1.7,2.2c0,1.5-0.9,2.3-1.9,2.3c-0.4,0-0.8-0.2-1.3-0.5v2.4
		h-0.4V99.9z M118.3,101.9c0-1.1-0.4-1.9-1.4-1.9c-0.4,0-0.9,0.3-1.4,0.7v2.6c0.5,0.4,0.9,0.6,1.3,0.6
		C117.7,103.9,118.3,103.1,118.3,101.9z"/>
	<path d="M119.9,98.4c0-0.2,0.1-0.4,0.3-0.4s0.3,0.1,0.3,0.4c0,0.2-0.1,0.4-0.3,0.4S119.9,98.7,119.9,98.4z M120.1,99.9h0.4v4.3
		h-0.4V99.9z"/>
	<path d="M122.1,99.9h0.3l0,0.7h0c0.4-0.4,0.9-0.8,1.5-0.8c0.9,0,1.3,0.5,1.3,1.7v2.8h-0.4v-2.7c0-0.9-0.3-1.4-1-1.4
		c-0.5,0-0.9,0.3-1.4,0.8v3.3h-0.4V99.9z"/>
	<path d="M126.6,105.1c0-0.4,0.2-0.8,0.6-1v0c-0.2-0.1-0.4-0.4-0.4-0.7c0-0.4,0.3-0.7,0.5-0.8v0c-0.3-0.2-0.5-0.7-0.5-1.2
		c0-0.9,0.7-1.5,1.5-1.5c0.2,0,0.4,0.1,0.6,0.1h1.5v0.3h-1c0.3,0.2,0.5,0.6,0.5,1.1c0,0.9-0.7,1.5-1.5,1.5c-0.2,0-0.5-0.1-0.7-0.2
		c-0.2,0.2-0.4,0.3-0.4,0.6c0,0.3,0.2,0.6,0.8,0.6h0.9c1,0,1.4,0.3,1.4,1c0,0.7-0.8,1.5-2,1.5C127.2,106.3,126.6,105.8,126.6,105.1z
		 M130,104.8c0-0.5-0.4-0.7-1-0.7H128c-0.1,0-0.3,0-0.5-0.1c-0.4,0.3-0.6,0.6-0.6,0.9c0,0.5,0.5,0.9,1.4,0.9
		C129.3,105.9,130,105.4,130,104.8z M129.4,101.3c0-0.7-0.5-1.2-1.1-1.2s-1.1,0.5-1.1,1.2c0,0.7,0.5,1.2,1.1,1.2
		C128.9,102.5,129.4,102,129.4,101.3z"/>
	<path d="M132.5,99.9h0.4l0.8,2.8c0.1,0.4,0.2,0.8,0.3,1.2h0c0.1-0.4,0.2-0.8,0.3-1.2l0.8-2.8h0.5l0.8,2.8c0.1,0.4,0.2,0.8,0.3,1.2
		h0c0.1-0.4,0.2-0.8,0.3-1.2l0.8-2.8h0.4l-1.2,4.3h-0.5l-0.8-2.7c-0.1-0.4-0.2-0.8-0.3-1.2h0c-0.1,0.4-0.2,0.8-0.3,1.3l-0.7,2.7
		h-0.5L132.5,99.9z"/>
	<path d="M139.1,98.4c0-0.2,0.1-0.4,0.3-0.4s0.3,0.1,0.3,0.4c0,0.2-0.1,0.4-0.3,0.4S139.1,98.7,139.1,98.4z M139.3,99.9h0.4v4.3
		h-0.4V99.9z"/>
	<path d="M141.4,103v-2.8h-0.7v-0.3l0.7,0l0.1-1.3h0.3v1.3h1.3v0.3h-1.3v2.8c0,0.5,0.1,0.9,0.7,0.9c0.2,0,0.4-0.1,0.5-0.1l0.1,0.3
		c-0.3,0.1-0.5,0.2-0.7,0.2C141.7,104.3,141.4,103.8,141.4,103z"/>
	<path d="M144.1,97.7h0.4v2.8c0.5-0.5,0.9-0.8,1.5-0.8c0.9,0,1.3,0.5,1.3,1.7v2.8h-0.4v-2.7c0-0.9-0.3-1.4-1-1.4
		c-0.5,0-0.9,0.3-1.4,0.8v3.3h-0.4V97.7z"/>
	<path d="M150.3,101.2c0-1.9,1-3.1,2.5-3.1c0.7,0,1.2,0.3,1.5,0.7l-0.2,0.3c-0.3-0.4-0.8-0.6-1.3-0.6c-1.3,0-2.1,1-2.1,2.7
		s0.8,2.7,2.1,2.7c0.6,0,1.1-0.3,1.5-0.7l0.2,0.3c-0.5,0.5-1,0.8-1.8,0.8C151.4,104.3,150.3,103.1,150.3,101.2z"/>
	<path d="M155.8,98.2h1.7c1.2,0,1.9,0.4,1.9,1.6c0,0.9-0.6,1.5-1.5,1.6l1.6,2.8h-0.5l-1.6-2.7h-1.3v2.7h-0.4V98.2z M157.4,101.1
		c1,0,1.6-0.4,1.6-1.3c0-0.9-0.6-1.2-1.6-1.2h-1.2v2.5H157.4z"/>
	<path d="M160.7,98.2h3.2v0.4h-2.8v2.4h2.4v0.4h-2.4v2.9h-0.4V98.2z"/>
</g>
<g>
	<path d="M272.3,98.8h-3v-0.4h3.5v0.2c-1.4,1.8-1.7,3.3-1.8,5.5h-0.4C270.6,101.9,271.1,100.4,272.3,98.8z"/>
	<path d="M273.8,103.9c0-0.3,0.2-0.4,0.4-0.4s0.4,0.2,0.4,0.4c0,0.3-0.2,0.4-0.4,0.4S273.8,104.1,273.8,103.9z"/>
	<path d="M278.6,98.8h-3v-0.4h3.5v0.2c-1.4,1.8-1.7,3.3-1.8,5.5h-0.4C276.9,101.9,277.4,100.4,278.6,98.8z"/>
</g>
</svg>
