<?xml version="1.0" encoding="utf-8"?>
<!-- Generator: Adobe Illustrator 23.0.3, SVG Export Plug-In . SVG Version: 6.00 Build 0)  -->
<svg version="1.1" id="Layer_1" xmlns="http://www.w3.org/2000/svg" xmlns:xlink="http://www.w3.org/1999/xlink" x="0px" y="0px"
	 viewBox="0 0 512 191" style="enable-background:new 0 0 512 191;" xml:space="preserve">
<style type="text/css">
	.st0{fill:#37B550;}
	.st1{fill:#FFFFFF;}
	.st2{fill:#00AE4D;}
	.st3{fill:none;stroke:#939598;stroke-width:0.5;stroke-miterlimit:10;}
	.st4{fill:none;stroke:#939598;stroke-width:0.499;stroke-miterlimit:10;}
	.st5{fill:none;stroke:#FFFFFF;stroke-width:0.499;stroke-miterlimit:10;}
</style>
<g>
	<path class="st0" d="M9,14.6l0.8-1c0.5,0.4,1.1,0.7,1.6,0.7c0.6,0,0.9-0.2,0.9-0.6c0-0.4-0.4-0.5-0.9-0.8l-0.8-0.4
		c-0.7-0.3-1.3-0.8-1.3-1.8c0-1.1,1-1.9,2.3-1.9c0.7,0,1.5,0.3,2.1,0.9l-0.8,0.9c-0.4-0.3-0.8-0.5-1.3-0.5c-0.5,0-0.8,0.2-0.8,0.6
		c0,0.4,0.4,0.5,1,0.8l0.8,0.3c0.8,0.3,1.3,0.8,1.3,1.8c0,1.1-0.9,2-2.5,2C10.5,15.5,9.6,15.2,9,14.6z"/>
	<path class="st0" d="M14.9,8.9h1.6l1,2.9c0.1,0.4,0.3,0.8,0.4,1.2h0c0.1-0.4,0.2-0.8,0.4-1.2l1-2.9H21v6.5h-1.3V13
		c0-0.6,0.1-1.6,0.2-2.2h0l-0.5,1.5l-0.9,2.5h-0.8l-0.9-2.5l-0.5-1.5h0c0.1,0.6,0.2,1.6,0.2,2.2v2.4h-1.3V8.9z"/>
	<path class="st0" d="M22.6,8.9h4.1v1.2H24v1.3h2.2v1.2H24v1.5h2.7v1.2h-4.2V8.9z"/>
	<path class="st0" d="M28,8.9h1.5v5.3h2.6v1.2h-4V8.9z"/>
	<path class="st0" d="M33.3,10.1h-1.8V8.9h5.1v1.2h-1.8v5.3h-1.5V10.1z"/>
	<path class="st0" d="M37.6,8.9h1.5v6.5h-1.5V8.9z"/>
	<path class="st0" d="M40.6,8.9h1.5l1.7,3.2l0.6,1.4h0c-0.1-0.7-0.2-1.6-0.2-2.4V8.9h1.4v6.5h-1.5l-1.7-3.2l-0.6-1.4h0
		c0.1,0.7,0.2,1.6,0.2,2.4v2.3h-1.4V8.9z"/>
	<path class="st0" d="M46.9,12.2c0-2.2,1.4-3.4,3.2-3.4c0.9,0,1.6,0.4,2,0.8l-0.8,0.9c-0.3-0.3-0.7-0.5-1.2-0.5
		c-1,0-1.7,0.8-1.7,2.1c0,1.3,0.6,2.1,1.8,2.1c0.3,0,0.5-0.1,0.7-0.2v-1.1h-1.1v-1.2h2.4v3c-0.5,0.4-1.2,0.8-2.1,0.8
		C48.3,15.5,46.9,14.4,46.9,12.2z"/>
	<path class="st0" d="M56.8,8.9h1.8l2,6.5h-1.6l-0.4-1.5h-2l-0.4,1.5h-1.5L56.8,8.9z M57,12.7h1.4l-0.2-0.6
		c-0.2-0.7-0.4-1.4-0.5-2.1h0c-0.2,0.7-0.3,1.4-0.5,2.1L57,12.7z"/>
	<path class="st0" d="M61.9,10.1h-1.8V8.9h5.1v1.2h-1.8v5.3h-1.5V10.1z"/>
	<path class="st0" d="M68.2,8.9h1.5v2.5h2.2V8.9h1.5v6.5h-1.5v-2.7h-2.2v2.7h-1.5V8.9z"/>
	<path class="st0" d="M74.5,14.5l2.9-4.4h-2.6V8.9h4.4v0.9l-2.9,4.4h2.9v1.2h-4.7V14.5z"/>
	<path class="st0" d="M80.3,8.9h1.5v5.3h2.6v1.2h-4V8.9z"/>
	<path class="st0" d="M87.2,12.4h3.9v0.9h-3.9V12.4z"/>
	<path class="st0" d="M93.5,8.9h1.8l2,6.5h-1.6l-0.4-1.5h-2L93,15.4h-1.5L93.5,8.9z M93.7,12.7h1.4l-0.2-0.6
		c-0.2-0.7-0.4-1.4-0.5-2.1h0c-0.2,0.7-0.3,1.4-0.5,2.1L93.7,12.7z"/>
	<path class="st0" d="M98,8.9h1.5l1.7,3.2l0.6,1.4h0c-0.1-0.7-0.2-1.6-0.2-2.4V8.9h1.4v6.5h-1.5l-1.7-3.2l-0.6-1.4h0
		c0.1,0.7,0.2,1.6,0.2,2.4v2.3H98V8.9z"/>
	<path class="st0" d="M106.4,12.1c0-2.1,1.2-3.3,3-3.3s3,1.2,3,3.3c0,2.1-1.2,3.4-3,3.4S106.4,14.2,106.4,12.1z M110.8,12.1
		c0-1.3-0.6-2.1-1.4-2.1s-1.4,0.8-1.4,2.1c0,1.3,0.6,2.1,1.4,2.1S110.8,13.4,110.8,12.1z"/>
	<path class="st0" d="M112.6,8.9h1.6l0.8,3c0.2,0.7,0.3,1.4,0.5,2.1h0c0.2-0.7,0.3-1.4,0.5-2.1l0.8-3h1.5l-2,6.5h-1.8L112.6,8.9z"/>
	<path class="st0" d="M119,8.9h4.1v1.2h-2.6v1.3h2.2v1.2h-2.2v1.5h2.7v1.2H119V8.9z"/>
	<path class="st0" d="M124.5,8.9h2.3c1.4,0,2.5,0.5,2.5,2c0,1-0.5,1.6-1.2,1.9l1.5,2.6H128l-1.3-2.3H126v2.3h-1.5V8.9z M126.7,11.9
		c0.8,0,1.2-0.3,1.2-1s-0.4-0.9-1.2-0.9H126v1.8H126.7z"/>
	<path class="st0" d="M129.7,8.9h1.6l0.8,3c0.2,0.7,0.3,1.4,0.5,2.1h0c0.2-0.7,0.3-1.4,0.5-2.1l0.8-3h1.5l-2,6.5h-1.8L129.7,8.9z"/>
	<path class="st0" d="M136.1,8.9h1.5v6.5h-1.5V8.9z"/>
	<path class="st0" d="M139.1,8.9h4.1v1.2h-2.6v1.3h2.2v1.2h-2.2v1.5h2.7v1.2h-4.2V8.9z"/>
	<path class="st0" d="M143.9,8.9h1.5l0.4,3c0.1,0.7,0.2,1.4,0.3,2.1h0c0.1-0.7,0.3-1.4,0.4-2.1l0.7-3h1.2l0.7,3
		c0.1,0.7,0.3,1.4,0.4,2.1h0c0.1-0.7,0.2-1.4,0.3-2.1l0.4-3h1.4l-1.2,6.5h-1.8l-0.6-3c-0.1-0.5-0.2-1-0.3-1.5h0
		c-0.1,0.5-0.2,1-0.3,1.5l-0.6,3h-1.8L143.9,8.9z"/>
</g>
<rect x="8.6" y="26.8" class="st1" width="70.9" height="23.2"/>
<path class="st2" d="M433.8,26.8h70.9V50h-70.9V26.8z M362.9,26.8h70.9V50h-70.9V26.8z M150.3,26.8h212.6V50H150.3V26.8z M79.5,26.8
	h70.9V50H79.5V26.8z"/>
<line class="st3" x1="363.2" y1="62.4" x2="433.6" y2="62.4"/>
<line class="st3" x1="434.1" y1="62.4" x2="504.7" y2="62.4"/>
<line class="st3" x1="362.9" y1="87.2" x2="433.6" y2="87.2"/>
<line class="st3" x1="434.1" y1="87.2" x2="504.7" y2="87.2"/>
<line class="st3" x1="363.2" y1="74.8" x2="433.6" y2="74.8"/>
<line class="st3" x1="434.1" y1="74.8" x2="504.7" y2="74.8"/>
<line class="st3" x1="79.7" y1="99.7" x2="150.1" y2="99.7"/>
<line class="st3" x1="150.6" y1="99.7" x2="362.7" y2="99.7"/>
<line class="st3" x1="363.2" y1="99.7" x2="433.6" y2="99.7"/>
<line class="st3" x1="434.1" y1="99.7" x2="504.7" y2="99.7"/>
<line class="st3" x1="150.3" y1="112.1" x2="362.7" y2="112.1"/>
<line class="st3" x1="363.2" y1="112.1" x2="433.6" y2="112.1"/>
<line class="st3" x1="434.1" y1="112.1" x2="504.7" y2="112.1"/>
<line class="st3" x1="150.6" y1="124.5" x2="362.7" y2="124.5"/>
<line class="st3" x1="363.2" y1="124.5" x2="433.6" y2="124.5"/>
<line class="st3" x1="434.1" y1="124.5" x2="504.7" y2="124.5"/>
<line class="st3" x1="150.6" y1="136.9" x2="362.7" y2="136.9"/>
<line class="st3" x1="363.2" y1="136.9" x2="433.6" y2="136.9"/>
<line class="st3" x1="434.1" y1="136.9" x2="504.7" y2="136.9"/>
<line class="st3" x1="150.3" y1="149.3" x2="362.7" y2="149.3"/>
<line class="st3" x1="363.2" y1="149.3" x2="433.6" y2="149.3"/>
<line class="st3" x1="434.1" y1="149.3" x2="504.7" y2="149.3"/>
<line class="st3" x1="79.5" y1="161.7" x2="150.1" y2="161.7"/>
<line class="st3" x1="150.6" y1="161.7" x2="362.7" y2="161.7"/>
<line class="st3" x1="363.2" y1="161.7" x2="433.6" y2="161.7"/>
<line class="st3" x1="434.1" y1="161.7" x2="504.7" y2="161.7"/>
<line class="st3" x1="8.6" y1="174.2" x2="79.5" y2="174.2"/>
<line class="st3" x1="79.5" y1="174.2" x2="150.3" y2="174.2"/>
<line class="st3" x1="150.3" y1="174.2" x2="362.9" y2="174.2"/>
<line class="st3" x1="362.9" y1="174.2" x2="433.8" y2="174.2"/>
<line class="st3" x1="433.8" y1="174.2" x2="504.7" y2="174.2"/>
<line class="st4" x1="433.8" y1="62.4" x2="433.8" y2="50.2"/>
<line class="st4" x1="433.8" y1="74.8" x2="433.8" y2="62.4"/>
<line class="st4" x1="433.8" y1="87.2" x2="433.8" y2="74.8"/>
<line class="st4" x1="150.3" y1="99.7" x2="150.3" y2="87.5"/>
<line class="st4" x1="362.9" y1="99.7" x2="362.9" y2="87.5"/>
<line class="st4" x1="433.8" y1="99.7" x2="433.8" y2="87.2"/>
<line class="st4" x1="150.3" y1="111.8" x2="150.3" y2="99.7"/>
<line class="st4" x1="362.9" y1="112.1" x2="362.9" y2="99.7"/>
<line class="st4" x1="433.8" y1="112.1" x2="433.8" y2="99.7"/>
<line class="st4" x1="362.9" y1="124.5" x2="362.9" y2="112.1"/>
<line class="st4" x1="433.8" y1="124.5" x2="433.8" y2="112.1"/>
<line class="st4" x1="362.9" y1="136.9" x2="362.9" y2="124.5"/>
<line class="st4" x1="433.8" y1="136.9" x2="433.8" y2="124.5"/>
<line class="st4" x1="362.9" y1="149.3" x2="362.9" y2="136.9"/>
<line class="st4" x1="433.8" y1="149.3" x2="433.8" y2="136.9"/>
<line class="st4" x1="150.3" y1="161.7" x2="150.3" y2="149.6"/>
<line class="st4" x1="362.9" y1="161.7" x2="362.9" y2="149.3"/>
<line class="st4" x1="433.8" y1="161.7" x2="433.8" y2="149.3"/>
<line class="st4" x1="79.5" y1="173.9" x2="79.5" y2="162"/>
<line class="st4" x1="150.3" y1="173.9" x2="150.3" y2="161.7"/>
<line class="st4" x1="362.9" y1="173.9" x2="362.9" y2="161.7"/>
<line class="st4" x1="433.8" y1="173.9" x2="433.8" y2="161.7"/>
<line class="st3" x1="79.7" y1="87.2" x2="150.3" y2="87.2"/>
<line class="st4" x1="150.3" y1="62.4" x2="150.3" y2="50.2"/>
<line class="st4" x1="362.9" y1="62.4" x2="362.9" y2="50.2"/>
<line class="st4" x1="150.3" y1="74.8" x2="150.3" y2="62.4"/>
<line class="st4" x1="362.9" y1="74.8" x2="362.9" y2="62.4"/>
<line class="st4" x1="150.3" y1="87" x2="150.3" y2="74.8"/>
<line class="st4" x1="362.9" y1="87" x2="362.9" y2="74.8"/>
<line class="st3" x1="150.3" y1="87.2" x2="362.9" y2="87.2"/>
<line class="st4" x1="79.5" y1="62.4" x2="79.5" y2="50.2"/>
<line class="st4" x1="79.5" y1="74.8" x2="79.5" y2="62.4"/>
<line class="st4" x1="79.5" y1="87.2" x2="79.5" y2="74.8"/>
<line class="st4" x1="79.5" y1="99.7" x2="79.5" y2="87.2"/>
<line class="st4" x1="79.5" y1="111.8" x2="79.5" y2="99.7"/>
<line class="st3" x1="8.6" y1="112.1" x2="79.5" y2="112.1"/>
<line class="st3" x1="8.6" y1="161.7" x2="79.5" y2="161.7"/>
<line class="st4" x1="79.5" y1="161.5" x2="79.5" y2="149.3"/>
<line class="st3" x1="79.5" y1="112.1" x2="150.3" y2="112.1"/>
<line class="st3" x1="79.7" y1="149.3" x2="150.3" y2="149.3"/>
<line class="st4" x1="79.5" y1="124.5" x2="79.5" y2="112.3"/>
<line class="st4" x1="150.3" y1="124.5" x2="150.3" y2="112.3"/>
<line class="st4" x1="79.5" y1="136.9" x2="79.5" y2="124.5"/>
<line class="st4" x1="150.3" y1="136.9" x2="150.3" y2="124.5"/>
<line class="st4" x1="79.5" y1="149.3" x2="79.5" y2="136.9"/>
<line class="st4" x1="150.3" y1="149.1" x2="150.3" y2="136.9"/>
<line class="st5" x1="79.5" y1="49.7" x2="79.5" y2="27"/>
<line class="st5" x1="150.3" y1="49.7" x2="150.3" y2="27"/>
<line class="st5" x1="362.9" y1="49.7" x2="362.9" y2="27"/>
<line class="st5" x1="433.8" y1="49.7" x2="433.8" y2="27"/>
<line class="st4" x1="8.6" y1="26.8" x2="79.5" y2="26.8"/>
<line class="st4" x1="79.5" y1="26.8" x2="150.3" y2="26.8"/>
<line class="st4" x1="150.3" y1="26.8" x2="362.9" y2="26.8"/>
<line class="st4" x1="362.9" y1="26.8" x2="433.8" y2="26.8"/>
<line class="st4" x1="433.8" y1="26.8" x2="504.7" y2="26.8"/>
<line class="st4" x1="8.6" y1="50" x2="79.5" y2="50"/>
<line class="st4" x1="79.5" y1="50" x2="150.3" y2="50"/>
<line class="st4" x1="150.3" y1="50" x2="362.9" y2="50"/>
<line class="st4" x1="362.9" y1="50" x2="433.8" y2="50"/>
<line class="st4" x1="433.8" y1="50" x2="504.7" y2="50"/>
<g>
	<path d="M10.7,30.5h1.4l0.9,2.6c0.1,0.3,0.2,0.7,0.3,1.1h0c0.1-0.4,0.2-0.7,0.3-1.1l0.9-2.6h1.4v5.9H15v-2.2c0-0.6,0.1-1.4,0.2-2h0
		l-0.5,1.4l-0.8,2.2h-0.7l-0.8-2.2l-0.5-1.4h0c0.1,0.6,0.2,1.4,0.2,2v2.2h-1.2V30.5z"/>
	<path d="M17.2,34.1c0-1.4,1-2.3,2.1-2.3c1.3,0,1.9,0.9,1.9,2.1c0,0.2,0,0.5-0.1,0.6h-2.7c0.1,0.6,0.6,0.9,1.2,0.9
		c0.3,0,0.6-0.1,1-0.3l0.4,0.8c-0.5,0.3-1.1,0.5-1.6,0.5C18.2,36.4,17.2,35.6,17.2,34.1z M20.1,33.6c0-0.5-0.2-0.8-0.7-0.8
		c-0.4,0-0.8,0.3-0.9,0.8H20.1z"/>
	<path d="M22.3,34.7v-1.8h-0.6v-1l0.7-0.1l0.2-1.2h1.1v1.2h1.1v1h-1.1v1.8c0,0.5,0.2,0.7,0.6,0.7c0.1,0,0.3,0,0.4-0.1l0.2,1
		c-0.2,0.1-0.6,0.2-1,0.2C22.7,36.4,22.3,35.8,22.3,34.7z"/>
	<path d="M25.4,35.1c0-0.9,0.7-1.4,2.5-1.6c0-0.4-0.2-0.6-0.7-0.6c-0.4,0-0.7,0.2-1.2,0.4l-0.5-0.9c0.6-0.3,1.2-0.6,1.9-0.6
		c1.1,0,1.8,0.6,1.8,2v2.6h-1.1L28,35.9h0c-0.4,0.3-0.8,0.6-1.3,0.6C25.9,36.4,25.4,35.9,25.4,35.1z M27.9,35v-0.8
		c-0.9,0.1-1.2,0.4-1.2,0.7c0,0.3,0.2,0.4,0.5,0.4C27.4,35.4,27.6,35.3,27.9,35z"/>
	<path d="M30.3,35V30h1.3v5c0,0.3,0.1,0.4,0.2,0.4c0.1,0,0.1,0,0.2,0l0.2,1c-0.1,0.1-0.4,0.1-0.7,0.1C30.6,36.4,30.3,35.9,30.3,35z"
		/>
</g>
<g>
	<path class="st1" d="M81.6,30.5h2c1.3,0,2.3,0.5,2.3,1.9c0,1.4-1.1,2-2.3,2h-0.7v2h-1.3V30.5z M83.6,33.3c0.7,0,1.1-0.3,1.1-0.9
		s-0.4-0.8-1.1-0.8h-0.6v1.8H83.6z"/>
	<path class="st1" d="M86.8,31.9h1.1l0.1,0.8h0c0.3-0.6,0.8-0.9,1.3-0.9c0.3,0,0.4,0,0.5,0.1L89.6,33c-0.2,0-0.3-0.1-0.5-0.1
		c-0.3,0-0.7,0.2-1,0.8v2.6h-1.3V31.9z"/>
	<path class="st1" d="M90.2,34.1c0-1.5,1-2.3,2.2-2.3c1.1,0,2.2,0.9,2.2,2.3s-1,2.3-2.2,2.3C91.2,36.4,90.2,35.6,90.2,34.1z
		 M93.2,34.1c0-0.8-0.3-1.3-0.8-1.3c-0.5,0-0.8,0.5-0.8,1.3s0.3,1.3,0.8,1.3C92.9,35.4,93.2,34.9,93.2,34.1z"/>
	<path class="st1" d="M95.2,34.1c0-1.5,1.1-2.3,2.3-2.3c0.5,0,1,0.2,1.3,0.5l-0.6,0.9c-0.2-0.2-0.4-0.3-0.6-0.3c-0.6,0-1,0.5-1,1.3
		s0.4,1.3,1,1.3c0.3,0,0.6-0.1,0.8-0.3l0.5,0.9c-0.4,0.4-1,0.5-1.5,0.5C96.1,36.4,95.2,35.6,95.2,34.1z"/>
	<path class="st1" d="M99.4,34.1c0-1.4,1-2.3,2.1-2.3c1.3,0,1.9,0.9,1.9,2.1c0,0.2,0,0.5-0.1,0.6h-2.7c0.1,0.6,0.6,0.9,1.2,0.9
		c0.3,0,0.6-0.1,1-0.3l0.4,0.8c-0.5,0.3-1.1,0.5-1.6,0.5C100.3,36.4,99.4,35.6,99.4,34.1z M102.2,33.6c0-0.5-0.2-0.8-0.7-0.8
		c-0.4,0-0.8,0.3-0.9,0.8H102.2z"/>
	<path class="st1" d="M103.9,35.8l0.6-0.8c0.4,0.3,0.8,0.5,1.2,0.5c0.4,0,0.6-0.1,0.6-0.4c0-0.3-0.5-0.4-0.9-0.6
		c-0.5-0.2-1.2-0.6-1.2-1.3c0-0.8,0.7-1.4,1.7-1.4c0.7,0,1.2,0.3,1.6,0.6l-0.6,0.8c-0.3-0.2-0.6-0.4-0.9-0.4c-0.3,0-0.5,0.1-0.5,0.4
		c0,0.3,0.4,0.4,0.9,0.6c0.6,0.2,1.2,0.5,1.2,1.3c0,0.8-0.6,1.4-1.8,1.4C105,36.4,104.3,36.2,103.9,35.8z"/>
	<path class="st1" d="M107.9,35.8l0.6-0.8c0.4,0.3,0.8,0.5,1.2,0.5c0.4,0,0.6-0.1,0.6-0.4c0-0.3-0.5-0.4-0.9-0.6
		c-0.5-0.2-1.2-0.6-1.2-1.3c0-0.8,0.7-1.4,1.7-1.4c0.7,0,1.2,0.3,1.6,0.6l-0.6,0.8c-0.3-0.2-0.6-0.4-0.9-0.4c-0.3,0-0.5,0.1-0.5,0.4
		c0,0.3,0.4,0.4,0.9,0.6c0.6,0.2,1.2,0.5,1.2,1.3c0,0.8-0.6,1.4-1.8,1.4C109,36.4,108.3,36.2,107.9,35.8z"/>
</g>
<g>
	<path class="st1" d="M153.6,31.6H152v-1.1h4.6v1.1h-1.6v4.8h-1.3V31.6z"/>
	<path class="st1" d="M157.1,34.1c0-1.4,1-2.3,2.1-2.3c1.3,0,1.9,0.9,1.9,2.1c0,0.2,0,0.5-0.1,0.6h-2.7c0.1,0.6,0.6,0.9,1.2,0.9
		c0.3,0,0.6-0.1,1-0.3l0.4,0.8c-0.5,0.3-1.1,0.5-1.6,0.5C158.1,36.4,157.1,35.6,157.1,34.1z M160,33.6c0-0.5-0.2-0.8-0.7-0.8
		c-0.4,0-0.8,0.3-0.9,0.8H160z"/>
	<path class="st1" d="M161.7,34.1c0-1.5,1.1-2.3,2.3-2.3c0.5,0,1,0.2,1.3,0.5l-0.6,0.9c-0.2-0.2-0.4-0.3-0.6-0.3c-0.6,0-1,0.5-1,1.3
		s0.4,1.3,1,1.3c0.3,0,0.6-0.1,0.8-0.3l0.5,0.9c-0.4,0.4-1,0.5-1.5,0.5C162.7,36.4,161.7,35.6,161.7,34.1z"/>
	<path class="st1" d="M166.2,30h1.3v1.5l-0.1,0.8c0.3-0.3,0.8-0.6,1.4-0.6c1,0,1.4,0.7,1.4,1.8v2.8h-1.3v-2.6c0-0.6-0.2-0.8-0.5-0.8
		c-0.3,0-0.5,0.2-0.8,0.4v3h-1.3V30z"/>
	<path class="st1" d="M171.3,31.9h1.1l0.1,0.6h0c0.4-0.4,0.8-0.7,1.4-0.7c1,0,1.4,0.7,1.4,1.8v2.8H174v-2.6c0-0.6-0.2-0.8-0.5-0.8
		c-0.3,0-0.5,0.2-0.8,0.4v3h-1.3V31.9z"/>
	<path class="st1" d="M176.2,34.1c0-1.5,1-2.3,2.2-2.3c1.1,0,2.2,0.9,2.2,2.3s-1,2.3-2.2,2.3C177.3,36.4,176.2,35.6,176.2,34.1z
		 M179.2,34.1c0-0.8-0.3-1.3-0.8-1.3c-0.5,0-0.8,0.5-0.8,1.3s0.3,1.3,0.8,1.3C179,35.4,179.2,34.9,179.2,34.1z"/>
	<path class="st1" d="M181.5,35V30h1.3v5c0,0.3,0.1,0.4,0.2,0.4c0.1,0,0.1,0,0.2,0l0.2,1c-0.1,0.1-0.4,0.1-0.7,0.1
		C181.8,36.4,181.5,35.9,181.5,35z"/>
	<path class="st1" d="M183.8,34.1c0-1.5,1-2.3,2.2-2.3c1.1,0,2.2,0.9,2.2,2.3s-1,2.3-2.2,2.3C184.8,36.4,183.8,35.6,183.8,34.1z
		 M186.8,34.1c0-0.8-0.3-1.3-0.8-1.3c-0.5,0-0.8,0.5-0.8,1.3s0.3,1.3,0.8,1.3C186.5,35.4,186.8,34.9,186.8,34.1z"/>
	<path class="st1" d="M188.8,37.1c0-0.4,0.2-0.7,0.6-0.9v0c-0.2-0.2-0.4-0.4-0.4-0.8c0-0.3,0.2-0.6,0.5-0.8v0
		c-0.3-0.2-0.6-0.6-0.6-1.2c0-1.1,0.9-1.6,1.8-1.6c0.3,0,0.5,0,0.7,0.1h1.6v1h-0.7c0.1,0.1,0.1,0.4,0.1,0.6c0,1-0.8,1.5-1.8,1.5
		c-0.2,0-0.3,0-0.5-0.1c-0.1,0.1-0.2,0.2-0.2,0.3c0,0.2,0.2,0.3,0.7,0.3h0.7c1.1,0,1.7,0.3,1.7,1.1c0,0.9-1,1.6-2.5,1.6
		C189.6,38.2,188.8,37.9,188.8,37.1z M191.9,36.9c0-0.3-0.2-0.4-0.7-0.4h-0.5c-0.3,0-0.5,0-0.6-0.1c-0.2,0.1-0.2,0.3-0.2,0.4
		c0,0.3,0.4,0.5,1,0.5S191.9,37.2,191.9,36.9z M191.4,33.4c0-0.5-0.3-0.7-0.6-0.7c-0.4,0-0.6,0.2-0.6,0.7c0,0.5,0.3,0.7,0.6,0.7
		C191.1,34.1,191.4,33.9,191.4,33.4z"/>
	<path class="st1" d="M193.7,38l0.2-1c0.1,0,0.2,0.1,0.3,0.1c0.4,0,0.7-0.2,0.8-0.6l0.1-0.2l-1.7-4.3h1.3l0.6,1.9
		c0.1,0.4,0.2,0.8,0.4,1.3h0c0.1-0.4,0.2-0.8,0.3-1.3l0.5-1.9h1.3l-1.5,4.5c-0.4,1.1-0.9,1.7-2,1.7C194.1,38.1,193.9,38,193.7,38z"
		/>
</g>
<g>
	<path class="st1" d="M364.7,35.6l0.8-0.9c0.4,0.4,1,0.6,1.4,0.6c0.5,0,0.8-0.2,0.8-0.6c0-0.4-0.3-0.5-0.8-0.7l-0.8-0.3
		c-0.6-0.2-1.2-0.7-1.2-1.6c0-1,0.9-1.7,2.1-1.7c0.7,0,1.4,0.3,1.9,0.8l-0.7,0.8c-0.4-0.3-0.7-0.5-1.2-0.5c-0.5,0-0.7,0.2-0.7,0.5
		c0,0.4,0.4,0.5,0.9,0.7l0.8,0.3c0.7,0.3,1.2,0.8,1.2,1.6c0,1-0.8,1.8-2.2,1.8C366.1,36.4,365.3,36.2,364.7,35.6z"/>
	<path class="st1" d="M369.9,31.9h1.1l0.1,0.6h0c0.4-0.4,0.8-0.7,1.3-0.7c0.6,0,1,0.3,1.2,0.7c0.4-0.4,0.8-0.7,1.4-0.7
		c1,0,1.4,0.7,1.4,1.8v2.8h-1.3v-2.6c0-0.6-0.2-0.8-0.5-0.8c-0.2,0-0.5,0.1-0.8,0.4v3h-1.3v-2.6c0-0.6-0.2-0.8-0.5-0.8
		c-0.2,0-0.5,0.1-0.8,0.4v3h-1.3V31.9z"/>
	<path class="st1" d="M377.4,34.1c0-1.4,1-2.3,2.1-2.3c1.3,0,1.9,0.9,1.9,2.1c0,0.2,0,0.5-0.1,0.6h-2.7c0.1,0.6,0.6,0.9,1.2,0.9
		c0.3,0,0.6-0.1,1-0.3l0.4,0.8c-0.5,0.3-1.1,0.5-1.6,0.5C378.4,36.4,377.4,35.6,377.4,34.1z M380.3,33.6c0-0.5-0.2-0.8-0.7-0.8
		c-0.4,0-0.8,0.3-0.9,0.8H380.3z"/>
	<path class="st1" d="M382.3,35V30h1.3v5c0,0.3,0.1,0.4,0.2,0.4c0.1,0,0.1,0,0.2,0l0.2,1c-0.1,0.1-0.4,0.1-0.7,0.1
		C382.6,36.4,382.3,35.9,382.3,35z"/>
	<path class="st1" d="M385.1,34.7v-1.8h-0.6v-1l0.7-0.1l0.2-1.2h1.1v1.2h1.1v1h-1.1v1.8c0,0.5,0.2,0.7,0.6,0.7c0.1,0,0.3,0,0.4-0.1
		l0.2,1c-0.2,0.1-0.6,0.2-1,0.2C385.5,36.4,385.1,35.8,385.1,34.7z"/>
	<path class="st1" d="M388.1,34.1c0-1.4,1-2.3,2.1-2.3c1.3,0,1.9,0.9,1.9,2.1c0,0.2,0,0.5-0.1,0.6h-2.7c0.1,0.6,0.6,0.9,1.2,0.9
		c0.3,0,0.6-0.1,1-0.3l0.4,0.8c-0.5,0.3-1.1,0.5-1.6,0.5C389.1,36.4,388.1,35.6,388.1,34.1z M391,33.6c0-0.5-0.2-0.8-0.7-0.8
		c-0.4,0-0.8,0.3-0.9,0.8H391z"/>
	<path class="st1" d="M393,31.9h1.1l0.1,0.8h0c0.3-0.6,0.8-0.9,1.3-0.9c0.3,0,0.4,0,0.5,0.1l-0.2,1.1c-0.2,0-0.3-0.1-0.5-0.1
		c-0.3,0-0.7,0.2-1,0.8v2.6H393V31.9z"/>
</g>
<g>
	<path class="st1" d="M469,33.4c0-1.9,1.3-3.1,2.8-3.1c0.8,0,1.4,0.4,1.8,0.8l-0.7,0.8c-0.3-0.3-0.6-0.5-1-0.5
		c-0.8,0-1.4,0.7-1.4,1.9c0,1.2,0.6,1.9,1.4,1.9c0.5,0,0.9-0.2,1.1-0.5l0.7,0.8c-0.5,0.6-1.1,0.9-1.9,0.9
		C470.2,36.4,469,35.4,469,33.4z"/>
	<path class="st1" d="M474.2,35.1c0-0.9,0.7-1.4,2.5-1.6c0-0.4-0.2-0.6-0.7-0.6c-0.4,0-0.7,0.2-1.2,0.4l-0.5-0.9
		c0.6-0.3,1.2-0.6,1.9-0.6c1.1,0,1.8,0.6,1.8,2v2.6h-1.1l-0.1-0.5h0c-0.4,0.3-0.8,0.6-1.3,0.6C474.7,36.4,474.2,35.9,474.2,35.1z
		 M476.7,35v-0.8c-0.9,0.1-1.2,0.4-1.2,0.7c0,0.3,0.2,0.4,0.5,0.4C476.2,35.4,476.4,35.3,476.7,35z"/>
	<path class="st1" d="M479.1,31.9h1.1l0.1,0.4h0c0.4-0.3,0.8-0.5,1.3-0.5c1.1,0,1.7,0.9,1.7,2.3c0,1.5-0.9,2.4-1.9,2.4
		c-0.4,0-0.7-0.2-1.1-0.5l0,0.7V38h-1.3V31.9z M482,34.1c0-0.8-0.2-1.2-0.8-1.2c-0.3,0-0.5,0.1-0.8,0.4v1.8c0.2,0.2,0.5,0.3,0.7,0.3
		C481.6,35.4,482,35,482,34.1z"/>
	<path class="st1" d="M484.1,35.1c0-0.9,0.7-1.4,2.5-1.6c0-0.4-0.2-0.6-0.7-0.6c-0.4,0-0.7,0.2-1.2,0.4l-0.5-0.9
		c0.6-0.3,1.2-0.6,1.9-0.6c1.1,0,1.8,0.6,1.8,2v2.6h-1.1l-0.1-0.5h0c-0.4,0.3-0.8,0.6-1.3,0.6C484.6,36.4,484.1,35.9,484.1,35.1z
		 M486.6,35v-0.8c-0.9,0.1-1.2,0.4-1.2,0.7c0,0.3,0.2,0.4,0.5,0.4C486.1,35.4,486.3,35.3,486.6,35z"/>
	<path class="st1" d="M488.8,34.1c0-1.5,1.1-2.3,2.3-2.3c0.5,0,1,0.2,1.3,0.5l-0.6,0.9c-0.2-0.2-0.4-0.3-0.6-0.3c-0.6,0-1,0.5-1,1.3
		s0.4,1.3,1,1.3c0.3,0,0.6-0.1,0.8-0.3l0.5,0.9c-0.4,0.4-1,0.5-1.5,0.5C489.7,36.4,488.8,35.6,488.8,34.1z"/>
	<path class="st1" d="M493.1,30.5c0-0.4,0.3-0.7,0.7-0.7s0.7,0.3,0.7,0.7c0,0.4-0.3,0.7-0.7,0.7S493.1,30.9,493.1,30.5z M493.2,31.9
		h1.3v4.5h-1.3V31.9z"/>
	<path class="st1" d="M495.9,34.7v-1.8h-0.6v-1l0.7-0.1l0.2-1.2h1.1v1.2h1.1v1h-1.1v1.8c0,0.5,0.2,0.7,0.6,0.7c0.1,0,0.3,0,0.4-0.1
		l0.2,1c-0.2,0.1-0.6,0.2-1,0.2C496.3,36.4,495.9,35.8,495.9,34.7z"/>
	<path class="st1" d="M499,38l0.2-1c0.1,0,0.2,0.1,0.3,0.1c0.4,0,0.7-0.2,0.8-0.6l0.1-0.2l-1.7-4.3h1.3l0.6,1.9
		c0.1,0.4,0.2,0.8,0.4,1.3h0c0.1-0.4,0.2-0.8,0.3-1.3l0.5-1.9h1.3l-1.5,4.5c-0.4,1.1-0.9,1.7-2,1.7C499.4,38.1,499.2,38,499,38z"/>
</g>
<g>
	<path class="st1" d="M441,44.6c0-1.6,0.4-2.9,1.2-4.1l0.8,0.3c-0.7,1.2-0.9,2.5-0.9,3.8s0.3,2.6,0.9,3.8l-0.8,0.3
		C441.4,47.5,441,46.2,441,44.6z"/>
	<path class="st1" d="M444.1,41.3h1.4l0.9,2.6c0.1,0.3,0.2,0.7,0.3,1.1h0c0.1-0.4,0.2-0.7,0.3-1.1l0.9-2.6h1.4v5.9h-1.2V45
		c0-0.6,0.1-1.4,0.2-2h0l-0.5,1.4l-0.8,2.2h-0.7l-0.8-2.2l-0.5-1.4h0c0.1,0.6,0.2,1.4,0.2,2v2.2h-1.2V41.3z"/>
	<path class="st1" d="M452.1,42.4h-1.6v-1.1h4.6v1.1h-1.6v4.8h-1.3V42.4z"/>
	<path class="st1" d="M457.7,42.7h1.1l0.1,0.4h0c0.4-0.3,0.8-0.5,1.3-0.5c1.1,0,1.7,0.9,1.7,2.3c0,1.5-0.9,2.4-1.9,2.4
		c-0.4,0-0.7-0.2-1.1-0.5l0,0.7v1.3h-1.3V42.7z M460.5,44.9c0-0.8-0.2-1.2-0.8-1.2c-0.3,0-0.5,0.1-0.8,0.4v1.8
		c0.2,0.2,0.5,0.3,0.7,0.3C460.2,46.2,460.5,45.8,460.5,44.9z"/>
	<path class="st1" d="M462.6,44.9c0-1.4,1-2.3,2.1-2.3c1.3,0,1.9,0.9,1.9,2.1c0,0.2,0,0.5-0.1,0.6h-2.7c0.1,0.6,0.6,0.9,1.2,0.9
		c0.3,0,0.6-0.1,1-0.3l0.4,0.8c-0.5,0.3-1.1,0.5-1.6,0.5C463.6,47.2,462.6,46.4,462.6,44.9z M465.5,44.4c0-0.5-0.2-0.8-0.7-0.8
		c-0.4,0-0.8,0.3-0.9,0.8H465.5z"/>
	<path class="st1" d="M467.5,42.7h1.1l0.1,0.8h0c0.3-0.6,0.8-0.9,1.3-0.9c0.3,0,0.4,0,0.5,0.1l-0.2,1.1c-0.2,0-0.3-0.1-0.5-0.1
		c-0.3,0-0.7,0.2-1,0.8v2.6h-1.3V42.7z"/>
	<path class="st1" d="M472.7,45.9c0-0.9,0.7-1.4,2.5-1.6c0-0.4-0.2-0.6-0.7-0.6c-0.4,0-0.7,0.2-1.2,0.4l-0.5-0.9
		c0.6-0.3,1.2-0.6,1.9-0.6c1.1,0,1.8,0.6,1.8,2v2.6h-1.1l-0.1-0.5h0c-0.4,0.3-0.8,0.6-1.3,0.6C473.2,47.2,472.7,46.7,472.7,45.9z
		 M475.2,45.8v-0.8c-0.9,0.1-1.2,0.4-1.2,0.7c0,0.3,0.2,0.4,0.5,0.4C474.8,46.2,474.9,46.1,475.2,45.8z"/>
	<path class="st1" d="M477.6,42.7h1.1l0.1,0.6h0c0.4-0.4,0.8-0.7,1.4-0.7c1,0,1.4,0.7,1.4,1.8v2.8h-1.3v-2.6c0-0.6-0.2-0.8-0.5-0.8
		c-0.3,0-0.5,0.2-0.8,0.4v3h-1.3V42.7z"/>
	<path class="st1" d="M482.8,42.7h1.1l0.1,0.6h0c0.4-0.4,0.8-0.7,1.4-0.7c1,0,1.4,0.7,1.4,1.8v2.8h-1.3v-2.6c0-0.6-0.2-0.8-0.5-0.8
		c-0.3,0-0.5,0.2-0.8,0.4v3h-1.3V42.7z"/>
	<path class="st1" d="M487.9,45.4v-2.8h1.3v2.6c0,0.6,0.2,0.8,0.6,0.8c0.3,0,0.5-0.1,0.8-0.5v-3h1.3v4.5h-1.1l-0.1-0.6h0
		c-0.4,0.5-0.8,0.7-1.4,0.7C488.3,47.2,487.9,46.6,487.9,45.4z"/>
	<path class="st1" d="M493,42.7h1.1l0.1,0.6h0c0.4-0.4,0.8-0.7,1.3-0.7c0.6,0,1,0.3,1.2,0.7c0.4-0.4,0.8-0.7,1.4-0.7
		c1,0,1.4,0.7,1.4,1.8v2.8h-1.3v-2.6c0-0.6-0.2-0.8-0.5-0.8c-0.2,0-0.5,0.1-0.8,0.4v3h-1.3v-2.6c0-0.6-0.2-0.8-0.5-0.8
		c-0.2,0-0.5,0.1-0.8,0.4v3H493V42.7z"/>
	<path class="st1" d="M500.6,48.4c0.7-1.2,1-2.5,1-3.8s-0.3-2.6-1-3.8l0.8-0.3c0.8,1.2,1.2,2.5,1.2,4.1c0,1.6-0.4,2.9-1.2,4.1
		L500.6,48.4z"/>
</g>
<g>
	<path d="M10.5,59.3l3.4-5.3h-3.1v-0.4h3.6v0.2L11,59.2h3.4v0.4h-4V59.3z"/>
	<path d="M15.6,53.8c0-0.2,0.1-0.4,0.3-0.4s0.3,0.1,0.3,0.4c0,0.2-0.1,0.4-0.3,0.4S15.6,54,15.6,53.8z M15.7,55.2h0.4v4.3h-0.4V55.2
		z"/>
	<path d="M17.8,55.2h0.3l0,0.7h0c0.4-0.4,0.9-0.8,1.5-0.8c0.9,0,1.3,0.5,1.3,1.7v2.8h-0.4v-2.7c0-0.9-0.3-1.4-1-1.4
		c-0.5,0-0.9,0.3-1.4,0.8v3.3h-0.4V55.2z"/>
	<path d="M22.2,57.4c0-1.5,0.9-2.3,2-2.3c0.6,0,1,0.3,1.3,0.5l-0.2,0.3c-0.3-0.3-0.6-0.5-1-0.5c-0.9,0-1.6,0.8-1.6,1.9
		c0,1.1,0.6,1.9,1.6,1.9c0.5,0,0.9-0.2,1.2-0.5l0.2,0.3c-0.4,0.3-0.8,0.6-1.4,0.6C23,59.7,22.2,58.8,22.2,57.4z"/>
</g>
<g>
	<path d="M81.8,53.6h0.4v2.6h3.2v-2.6h0.4v5.9h-0.4v-3h-3.2v3h-0.4V53.6z"/>
	<path d="M86.9,61.4l0.1-0.4c0.1,0,0.2,0.1,0.4,0.1c0.5,0,0.9-0.5,1.1-1.1l0.1-0.4l-1.8-4.4h0.4l1,2.7c0.1,0.4,0.3,0.8,0.5,1.2h0
		c0.1-0.4,0.3-0.8,0.4-1.2l0.9-2.7h0.4l-1.7,4.9c-0.2,0.7-0.7,1.4-1.4,1.4C87.1,61.5,87,61.5,86.9,61.4z"/>
	<path d="M91,57.4c0-1.4,0.9-2.3,1.9-2.3c0.5,0,0.9,0.2,1.3,0.5l0-0.8v-1.8h0.4v6.5h-0.3l0-0.6h0c-0.4,0.4-0.8,0.7-1.4,0.7
		C91.7,59.7,91,58.9,91,57.4z M94.2,58.6V56c-0.5-0.4-0.8-0.6-1.3-0.6c-0.9,0-1.5,0.8-1.5,1.9c0,1.1,0.5,1.9,1.4,1.9
		C93.4,59.3,93.8,59.1,94.2,58.6z"/>
	<path d="M96.3,55.2h0.3l0,0.8h0c0.3-0.5,0.7-0.9,1.2-0.9c0.2,0,0.3,0,0.4,0.1l-0.1,0.4c-0.1-0.1-0.2-0.1-0.4-0.1
		c-0.4,0-0.8,0.3-1.2,1.1v2.9h-0.4V55.2z"/>
	<path d="M98.8,57.4c0-1.5,0.9-2.3,1.9-2.3c1,0,1.9,0.8,1.9,2.3c0,1.4-0.9,2.3-1.9,2.3C99.7,59.7,98.8,58.8,98.8,57.4z M102.2,57.4
		c0-1.1-0.7-1.9-1.5-1.9c-0.9,0-1.5,0.8-1.5,1.9c0,1.1,0.6,1.9,1.5,1.9C101.6,59.3,102.2,58.5,102.2,57.4z"/>
	<path d="M104,55.2h0.3l0,0.7h0c0.4-0.4,0.9-0.8,1.4-0.8c0.7,0,1,0.4,1.2,0.9c0.5-0.5,1-0.9,1.5-0.9c0.9,0,1.3,0.5,1.3,1.7v2.8h-0.4
		v-2.7c0-0.9-0.3-1.4-1-1.4c-0.4,0-0.8,0.3-1.3,0.8v3.3h-0.4v-2.7c0-0.9-0.3-1.4-1-1.4c-0.4,0-0.8,0.3-1.3,0.8v3.3H104V55.2z"/>
	<path d="M110.9,57.4c0-1.4,0.9-2.3,1.9-2.3c1,0,1.7,0.7,1.7,2c0,0.1,0,0.2,0,0.3h-3.1c0,1.1,0.7,1.9,1.6,1.9c0.5,0,0.8-0.2,1.2-0.4
		l0.2,0.3c-0.3,0.2-0.7,0.4-1.4,0.4C111.8,59.7,110.9,58.8,110.9,57.4z M114.1,57.1c0-1.1-0.5-1.7-1.3-1.7c-0.7,0-1.4,0.6-1.5,1.7
		H114.1z"/>
	<path d="M115.7,58.4v-2.8H115v-0.3l0.7,0l0.1-1.3h0.3v1.3h1.3v0.3h-1.3v2.8c0,0.5,0.1,0.9,0.7,0.9c0.2,0,0.4-0.1,0.5-0.1l0.1,0.3
		c-0.3,0.1-0.5,0.2-0.7,0.2C116,59.7,115.7,59.1,115.7,58.4z"/>
	<path d="M118.1,58.5c0-1,0.9-1.4,2.8-1.6c0-0.7-0.2-1.4-1-1.4c-0.6,0-1.1,0.3-1.4,0.5l-0.2-0.3c0.3-0.2,0.9-0.6,1.6-0.6
		c1,0,1.4,0.7,1.4,1.7v2.8H121l0-0.6h0c-0.4,0.4-1,0.7-1.5,0.7C118.7,59.7,118.1,59.3,118.1,58.5z M120.9,58.6v-1.5
		c-1.8,0.2-2.4,0.6-2.4,1.3c0,0.6,0.4,0.9,0.9,0.9S120.4,59.1,120.9,58.6z"/>
	<path d="M122.8,59v-5.9h0.4v6c0,0.2,0.1,0.3,0.2,0.3c0,0,0.1,0,0.2,0l0.1,0.3c-0.1,0-0.2,0-0.3,0C123,59.7,122.8,59.4,122.8,59z"/>
	<path d="M125,59v-5.9h0.4v6c0,0.2,0.1,0.3,0.2,0.3c0,0,0.1,0,0.2,0l0.1,0.3c-0.1,0-0.2,0-0.3,0C125.2,59.7,125,59.4,125,59z"/>
	<path d="M127,58v-2.8h0.4V58c0,0.9,0.3,1.4,1,1.4c0.5,0,0.9-0.3,1.4-0.9v-3.2h0.4v4.3h-0.3l0-0.7h0c-0.4,0.5-0.9,0.8-1.5,0.8
		C127.5,59.7,127,59.1,127,58z"/>
	<path d="M131.9,55.2h0.3l0,0.8h0c0.3-0.5,0.7-0.9,1.2-0.9c0.2,0,0.3,0,0.4,0.1l-0.1,0.4c-0.1-0.1-0.2-0.1-0.4-0.1
		c-0.4,0-0.8,0.3-1.2,1.1v2.9h-0.4V55.2z"/>
	<path d="M134.4,60.4c0-0.4,0.2-0.8,0.6-1v0c-0.2-0.1-0.4-0.4-0.4-0.7c0-0.4,0.3-0.7,0.5-0.8v0c-0.3-0.2-0.5-0.7-0.5-1.2
		c0-0.9,0.7-1.5,1.5-1.5c0.2,0,0.4,0.1,0.6,0.1h1.5v0.3h-1c0.3,0.2,0.5,0.6,0.5,1.1c0,0.9-0.7,1.5-1.5,1.5c-0.2,0-0.5-0.1-0.7-0.2
		c-0.2,0.2-0.4,0.3-0.4,0.6c0,0.3,0.2,0.6,0.8,0.6h0.9c1,0,1.4,0.3,1.4,1c0,0.7-0.8,1.5-2,1.5C135,61.6,134.4,61.2,134.4,60.4z
		 M137.8,60.2c0-0.5-0.4-0.7-1-0.7h-0.9c-0.1,0-0.3,0-0.5-0.1c-0.4,0.3-0.6,0.6-0.6,0.9c0,0.5,0.5,0.9,1.4,0.9
		C137.1,61.3,137.8,60.8,137.8,60.2z M137.2,56.6c0-0.7-0.5-1.2-1.1-1.2s-1.1,0.5-1.1,1.2c0,0.7,0.5,1.2,1.1,1.2
		C136.7,57.9,137.2,57.4,137.2,56.6z"/>
	<path d="M138.5,61.4l0.1-0.4c0.1,0,0.2,0.1,0.4,0.1c0.5,0,0.9-0.5,1.1-1.1l0.1-0.4l-1.8-4.4h0.4l1,2.7c0.1,0.4,0.3,0.8,0.5,1.2h0
		c0.1-0.4,0.3-0.8,0.4-1.2l0.9-2.7h0.4l-1.7,4.9c-0.2,0.7-0.7,1.4-1.4,1.4C138.8,61.5,138.6,61.5,138.5,61.4z"/>
</g>
<g>
	<path d="M152.3,56.6c0-1.9,1-3.1,2.4-3.1c1.4,0,2.4,1.2,2.4,3.1c0,1.9-1,3.1-2.4,3.1C153.3,59.7,152.3,58.5,152.3,56.6z
		 M156.7,56.6c0-1.6-0.8-2.7-2-2.7c-1.2,0-2,1-2,2.7c0,1.6,0.8,2.7,2,2.7C155.9,59.3,156.7,58.2,156.7,56.6z"/>
	<path d="M158.4,58v-2.8h0.4V58c0,0.9,0.3,1.4,1,1.4c0.5,0,0.9-0.3,1.4-0.9v-3.2h0.4v4.3h-0.3l0-0.7h0c-0.4,0.5-0.9,0.8-1.5,0.8
		C158.8,59.7,158.4,59.1,158.4,58z"/>
	<path d="M163.3,58.4v-2.8h-0.7v-0.3l0.7,0l0.1-1.3h0.3v1.3h1.3v0.3h-1.3v2.8c0,0.5,0.1,0.9,0.7,0.9c0.2,0,0.4-0.1,0.5-0.1l0.1,0.3
		c-0.3,0.1-0.5,0.2-0.7,0.2C163.6,59.7,163.3,59.1,163.3,58.4z"/>
	<path d="M165.7,57.4c0-1.5,0.9-2.3,1.9-2.3c1,0,1.9,0.8,1.9,2.3c0,1.4-0.9,2.3-1.9,2.3C166.6,59.7,165.7,58.8,165.7,57.4z
		 M169.1,57.4c0-1.1-0.7-1.9-1.5-1.9c-0.9,0-1.5,0.8-1.5,1.9c0,1.1,0.6,1.9,1.5,1.9C168.5,59.3,169.1,58.5,169.1,57.4z"/>
	<path d="M170.8,53.1h0.4v4.8h0l2.1-2.6h0.5l-1.4,1.7l1.6,2.6h-0.4l-1.4-2.3l-1,1.1v1.2h-0.4V53.1z"/>
	<path d="M174.9,58v-2.8h0.4V58c0,0.9,0.3,1.4,1,1.4c0.5,0,0.9-0.3,1.4-0.9v-3.2h0.4v4.3h-0.3l0-0.7h0c-0.4,0.5-0.9,0.8-1.5,0.8
		C175.4,59.7,174.9,59.1,174.9,58z"/>
	<path d="M179.8,55.2h0.3l0,0.7h0c0.4-0.4,0.9-0.8,1.4-0.8c0.7,0,1,0.4,1.2,0.9c0.5-0.5,1-0.9,1.5-0.9c0.9,0,1.3,0.5,1.3,1.7v2.8
		h-0.4v-2.7c0-0.9-0.3-1.4-1-1.4c-0.4,0-0.8,0.3-1.3,0.8v3.3h-0.4v-2.7c0-0.9-0.3-1.4-1-1.4c-0.4,0-0.8,0.3-1.3,0.8v3.3h-0.4V55.2z"
		/>
	<path d="M187.1,55.2h0.3l0,0.5h0c0.4-0.3,0.9-0.6,1.5-0.6c1.2,0,1.7,0.9,1.7,2.2c0,1.5-0.9,2.3-1.9,2.3c-0.4,0-0.8-0.2-1.3-0.5v2.4
		h-0.4V55.2z M190.3,57.3c0-1.1-0.4-1.9-1.4-1.9c-0.4,0-0.9,0.3-1.4,0.7v2.6c0.5,0.4,0.9,0.6,1.3,0.6
		C189.6,59.3,190.3,58.5,190.3,57.3z"/>
	<path d="M191.9,58v-2.8h0.4V58c0,0.9,0.3,1.4,1,1.4c0.5,0,0.9-0.3,1.4-0.9v-3.2h0.4v4.3h-0.3l0-0.7h0c-0.4,0.5-0.9,0.8-1.5,0.8
		C192.3,59.7,191.9,59.1,191.9,58z"/>
	<path d="M198.5,55.2h0.3l0,0.8h0c0.3-0.5,0.7-0.9,1.2-0.9c0.2,0,0.3,0,0.4,0.1l-0.1,0.4c-0.1-0.1-0.2-0.1-0.4-0.1
		c-0.4,0-0.8,0.3-1.2,1.1v2.9h-0.4V55.2z"/>
	<path d="M201,57.4c0-1.5,0.9-2.3,1.9-2.3c1,0,1.9,0.8,1.9,2.3c0,1.4-0.9,2.3-1.9,2.3C201.9,59.7,201,58.8,201,57.4z M204.5,57.4
		c0-1.1-0.7-1.9-1.5-1.9c-0.9,0-1.5,0.8-1.5,1.9c0,1.1,0.6,1.9,1.5,1.9C203.8,59.3,204.5,58.5,204.5,57.4z"/>
	<path d="M205.9,58.5c0-1,0.9-1.4,2.8-1.6c0-0.7-0.2-1.4-1-1.4c-0.6,0-1.1,0.3-1.4,0.5l-0.2-0.3c0.3-0.2,0.9-0.6,1.6-0.6
		c1,0,1.4,0.7,1.4,1.7v2.8h-0.3l0-0.6h0c-0.4,0.4-1,0.7-1.5,0.7C206.5,59.7,205.9,59.3,205.9,58.5z M208.7,58.6v-1.5
		c-1.8,0.2-2.4,0.6-2.4,1.3c0,0.6,0.4,0.9,0.9,0.9S208.1,59.1,208.7,58.6z"/>
	<path d="M210.1,59.1l0.2-0.3c0.4,0.3,0.8,0.5,1.4,0.5c0.7,0,1-0.4,1-0.9c0-0.5-0.6-0.8-1.1-1c-0.7-0.2-1.3-0.5-1.3-1.2
		c0-0.6,0.5-1.2,1.4-1.2c0.5,0,0.9,0.2,1.2,0.5l-0.2,0.3c-0.3-0.2-0.6-0.4-1-0.4c-0.7,0-1,0.4-1,0.8c0,0.5,0.5,0.7,1,0.9
		c0.7,0.3,1.4,0.5,1.4,1.3c0,0.6-0.5,1.2-1.5,1.2C211,59.7,210.5,59.4,210.1,59.1z"/>
	<path d="M214.4,58.4v-2.8h-0.7v-0.3l0.7,0l0.1-1.3h0.3v1.3h1.3v0.3h-1.3v2.8c0,0.5,0.1,0.9,0.7,0.9c0.2,0,0.4-0.1,0.5-0.1l0.1,0.3
		c-0.3,0.1-0.5,0.2-0.7,0.2C214.6,59.7,214.4,59.1,214.4,58.4z"/>
	<path d="M216.6,57.1h2v0.4h-2V57.1z"/>
	<path d="M219.8,59v-5.9h0.4v6c0,0.2,0.1,0.3,0.2,0.3c0,0,0.1,0,0.2,0l0.1,0.3c-0.1,0-0.2,0-0.3,0C219.9,59.7,219.8,59.4,219.8,59z"
		/>
	<path d="M221.5,57.4c0-1.4,0.9-2.3,1.9-2.3c1,0,1.7,0.7,1.7,2c0,0.1,0,0.2,0,0.3h-3.1c0,1.1,0.7,1.9,1.6,1.9c0.5,0,0.8-0.2,1.2-0.4
		l0.2,0.3c-0.3,0.2-0.7,0.4-1.4,0.4C222.4,59.7,221.5,58.8,221.5,57.4z M224.7,57.1c0-1.1-0.5-1.7-1.3-1.7c-0.7,0-1.4,0.6-1.5,1.7
		H224.7z"/>
	<path d="M225.9,58.5c0-1,0.9-1.4,2.8-1.6c0-0.7-0.2-1.4-1-1.4c-0.6,0-1.1,0.3-1.4,0.5l-0.2-0.3c0.3-0.2,0.9-0.6,1.6-0.6
		c1,0,1.4,0.7,1.4,1.7v2.8h-0.3l0-0.6h0c-0.4,0.4-1,0.7-1.5,0.7C226.5,59.7,225.9,59.3,225.9,58.5z M228.7,58.6v-1.5
		c-1.8,0.2-2.4,0.6-2.4,1.3c0,0.6,0.4,0.9,0.9,0.9S228.2,59.1,228.7,58.6z"/>
	<path d="M230.3,57.4c0-1.5,0.9-2.3,2-2.3c0.6,0,1,0.3,1.3,0.5l-0.2,0.3c-0.3-0.3-0.6-0.5-1-0.5c-0.9,0-1.6,0.8-1.6,1.9
		c0,1.1,0.6,1.9,1.6,1.9c0.5,0,0.9-0.2,1.2-0.5l0.2,0.3c-0.4,0.3-0.8,0.6-1.4,0.6C231.2,59.7,230.3,58.8,230.3,57.4z"/>
	<path d="M234.7,53.1h0.4v2.8c0.5-0.5,0.9-0.8,1.5-0.8c0.9,0,1.3,0.5,1.3,1.7v2.8h-0.4v-2.7c0-0.9-0.3-1.4-1-1.4
		c-0.5,0-0.9,0.3-1.4,0.8v3.3h-0.4V53.1z"/>
	<path d="M239,57.1h2v0.4h-2V57.1z"/>
	<path d="M241.8,57.4c0-1.4,0.9-2.3,1.9-2.3c1,0,1.7,0.7,1.7,2c0,0.1,0,0.2,0,0.3h-3.1c0,1.1,0.7,1.9,1.6,1.9c0.5,0,0.8-0.2,1.2-0.4
		l0.2,0.3c-0.3,0.2-0.7,0.4-1.4,0.4C242.7,59.7,241.8,58.8,241.8,57.4z M245,57.1c0-1.1-0.5-1.7-1.3-1.7c-0.7,0-1.4,0.6-1.5,1.7H245
		z"/>
	<path d="M246.5,59v-5.9h0.4v6c0,0.2,0.1,0.3,0.2,0.3c0,0,0.1,0,0.2,0l0.1,0.3c-0.1,0-0.2,0-0.3,0C246.7,59.7,246.5,59.4,246.5,59z"
		/>
	<path d="M248.3,57.4c0-1.4,0.9-2.3,1.9-2.3c1,0,1.7,0.7,1.7,2c0,0.1,0,0.2,0,0.3h-3.1c0,1.1,0.7,1.9,1.6,1.9c0.5,0,0.8-0.2,1.2-0.4
		l0.2,0.3c-0.3,0.2-0.7,0.4-1.4,0.4C249.2,59.7,248.3,58.8,248.3,57.4z M251.4,57.1c0-1.1-0.5-1.7-1.3-1.7c-0.7,0-1.4,0.6-1.5,1.7
		H251.4z"/>
	<path d="M252.6,57.4c0-1.5,0.9-2.3,2-2.3c0.6,0,1,0.3,1.3,0.5l-0.2,0.3c-0.3-0.3-0.6-0.5-1-0.5c-0.9,0-1.6,0.8-1.6,1.9
		c0,1.1,0.6,1.9,1.6,1.9c0.5,0,0.9-0.2,1.2-0.5l0.2,0.3c-0.4,0.3-0.8,0.6-1.4,0.6C253.5,59.7,252.6,58.8,252.6,57.4z"/>
	<path d="M257.1,58.4v-2.8h-0.7v-0.3l0.7,0l0.1-1.3h0.3v1.3h1.3v0.3h-1.3v2.8c0,0.5,0.1,0.9,0.7,0.9c0.2,0,0.4-0.1,0.5-0.1l0.1,0.3
		c-0.3,0.1-0.5,0.2-0.7,0.2C257.4,59.7,257.1,59.1,257.1,58.4z"/>
	<path d="M259.8,55.2h0.3l0,0.8h0c0.3-0.5,0.7-0.9,1.2-0.9c0.2,0,0.3,0,0.4,0.1l-0.1,0.4c-0.1-0.1-0.2-0.1-0.4-0.1
		c-0.4,0-0.8,0.3-1.2,1.1v2.9h-0.4V55.2z"/>
	<path d="M262.3,57.4c0-1.5,0.9-2.3,1.9-2.3c1,0,1.9,0.8,1.9,2.3c0,1.4-0.9,2.3-1.9,2.3C263.2,59.7,262.3,58.8,262.3,57.4z
		 M265.8,57.4c0-1.1-0.7-1.9-1.5-1.9c-0.9,0-1.5,0.8-1.5,1.9c0,1.1,0.6,1.9,1.5,1.9C265.1,59.3,265.8,58.5,265.8,57.4z"/>
	<path d="M268.7,55.2h0.4l0.8,2.8c0.1,0.4,0.2,0.8,0.3,1.2h0c0.1-0.4,0.2-0.8,0.3-1.2l0.8-2.8h0.5l0.8,2.8c0.1,0.4,0.2,0.8,0.3,1.2
		h0c0.1-0.4,0.2-0.8,0.3-1.2l0.8-2.8h0.4l-1.2,4.3h-0.5l-0.8-2.7c-0.1-0.4-0.2-0.8-0.3-1.2h0c-0.1,0.4-0.2,0.8-0.3,1.3l-0.7,2.7H270
		L268.7,55.2z"/>
	<path d="M275.3,53.8c0-0.2,0.1-0.4,0.3-0.4s0.3,0.1,0.3,0.4c0,0.2-0.1,0.4-0.3,0.4S275.3,54,275.3,53.8z M275.5,55.2h0.4v4.3h-0.4
		V55.2z"/>
	<path d="M277.5,55.2h0.3l0,0.7h0c0.4-0.4,0.9-0.8,1.5-0.8c0.9,0,1.3,0.5,1.3,1.7v2.8h-0.4v-2.7c0-0.9-0.3-1.4-1-1.4
		c-0.5,0-0.9,0.3-1.4,0.8v3.3h-0.4V55.2z"/>
	<path d="M282.3,55.2h0.3l0,0.7h0c0.4-0.4,0.9-0.8,1.5-0.8c0.9,0,1.3,0.5,1.3,1.7v2.8h-0.4v-2.7c0-0.9-0.3-1.4-1-1.4
		c-0.5,0-0.9,0.3-1.4,0.8v3.3h-0.4V55.2z"/>
	<path d="M287,53.8c0-0.2,0.1-0.4,0.3-0.4s0.3,0.1,0.3,0.4c0,0.2-0.1,0.4-0.3,0.4S287,54,287,53.8z M287.1,55.2h0.4v4.3h-0.4V55.2z"
		/>
	<path d="M289.2,55.2h0.3l0,0.7h0c0.4-0.4,0.9-0.8,1.5-0.8c0.9,0,1.3,0.5,1.3,1.7v2.8H292v-2.7c0-0.9-0.3-1.4-1-1.4
		c-0.5,0-0.9,0.3-1.4,0.8v3.3h-0.4V55.2z"/>
	<path d="M293.6,60.4c0-0.4,0.2-0.8,0.6-1v0c-0.2-0.1-0.4-0.4-0.4-0.7c0-0.4,0.3-0.7,0.5-0.8v0c-0.3-0.2-0.5-0.7-0.5-1.2
		c0-0.9,0.7-1.5,1.5-1.5c0.2,0,0.4,0.1,0.6,0.1h1.5v0.3h-1c0.3,0.2,0.5,0.6,0.5,1.1c0,0.9-0.7,1.5-1.5,1.5c-0.2,0-0.5-0.1-0.7-0.2
		c-0.2,0.2-0.4,0.3-0.4,0.6c0,0.3,0.2,0.6,0.8,0.6h0.9c1,0,1.4,0.3,1.4,1c0,0.7-0.8,1.5-2,1.5C294.3,61.6,293.6,61.2,293.6,60.4z
		 M297,60.2c0-0.5-0.4-0.7-1-0.7h-0.9c-0.1,0-0.3,0-0.5-0.1c-0.4,0.3-0.6,0.6-0.6,0.9c0,0.5,0.5,0.9,1.4,0.9
		C296.4,61.3,297,60.8,297,60.2z M296.4,56.6c0-0.7-0.5-1.2-1.1-1.2s-1.1,0.5-1.1,1.2c0,0.7,0.5,1.2,1.1,1.2
		C295.9,57.9,296.4,57.4,296.4,56.6z"/>
</g>
<g>
	<path d="M364.8,56.6c0-1.9,1-3.1,2.5-3.1c0.7,0,1.2,0.3,1.5,0.7l-0.2,0.3c-0.3-0.4-0.8-0.6-1.3-0.6c-1.3,0-2.1,1-2.1,2.7
		s0.8,2.7,2.1,2.7c0.6,0,1.1-0.3,1.5-0.7l0.2,0.3c-0.5,0.5-1,0.8-1.8,0.8C365.9,59.7,364.8,58.5,364.8,56.6z"/>
	<path d="M370.3,53.1h0.4v2.8c0.5-0.5,0.9-0.8,1.5-0.8c0.9,0,1.3,0.5,1.3,1.7v2.8h-0.4v-2.7c0-0.9-0.3-1.4-1-1.4
		c-0.5,0-0.9,0.3-1.4,0.8v3.3h-0.4V53.1z"/>
	<path d="M374.7,58.5c0-1,0.9-1.4,2.8-1.6c0-0.7-0.2-1.4-1-1.4c-0.6,0-1.1,0.3-1.4,0.5l-0.2-0.3c0.3-0.2,0.9-0.6,1.6-0.6
		c1,0,1.4,0.7,1.4,1.7v2.8h-0.3l0-0.6h0c-0.4,0.4-1,0.7-1.5,0.7C375.3,59.7,374.7,59.3,374.7,58.5z M377.5,58.6v-1.5
		c-1.8,0.2-2.4,0.6-2.4,1.3c0,0.6,0.4,0.9,0.9,0.9S377,59.1,377.5,58.6z"/>
	<path d="M379.4,55.2h0.3l0,0.7h0c0.4-0.4,0.9-0.8,1.5-0.8c0.9,0,1.3,0.5,1.3,1.7v2.8h-0.4v-2.7c0-0.9-0.3-1.4-1-1.4
		c-0.5,0-0.9,0.3-1.4,0.8v3.3h-0.4V55.2z"/>
	<path d="M383.9,57.4c0-1.4,0.9-2.3,1.9-2.3c0.5,0,0.9,0.2,1.3,0.5l0-0.8v-1.8h0.4v6.5h-0.3l0-0.6h0c-0.4,0.4-0.8,0.7-1.4,0.7
		C384.6,59.7,383.9,58.9,383.9,57.4z M387.1,58.6V56c-0.5-0.4-0.8-0.6-1.3-0.6c-0.9,0-1.5,0.8-1.5,1.9c0,1.1,0.5,1.9,1.4,1.9
		C386.2,59.3,386.6,59.1,387.1,58.6z"/>
	<path d="M388.8,57.4c0-1.4,0.9-2.3,1.9-2.3c1,0,1.7,0.7,1.7,2c0,0.1,0,0.2,0,0.3h-3.1c0,1.1,0.7,1.9,1.6,1.9c0.5,0,0.8-0.2,1.2-0.4
		l0.2,0.3c-0.3,0.2-0.7,0.4-1.4,0.4C389.6,59.7,388.8,58.8,388.8,57.4z M391.9,57.1c0-1.1-0.5-1.7-1.3-1.7c-0.7,0-1.4,0.6-1.5,1.7
		H391.9z"/>
	<path d="M393.5,55.2h0.3l0,0.8h0c0.3-0.5,0.7-0.9,1.2-0.9c0.2,0,0.3,0,0.4,0.1l-0.1,0.4c-0.1-0.1-0.2-0.1-0.4-0.1
		c-0.4,0-0.8,0.3-1.2,1.1v2.9h-0.4V55.2z"/>
	<path d="M396.2,53.8c0-0.2,0.1-0.4,0.3-0.4s0.3,0.1,0.3,0.4c0,0.2-0.1,0.4-0.3,0.4S396.2,54,396.2,53.8z M396.3,55.2h0.4v4.3h-0.4
		V55.2z"/>
	<path d="M397.8,61.4l0.1-0.4c0.1,0,0.2,0.1,0.4,0.1c0.5,0,0.9-0.5,1.1-1.1l0.1-0.4l-1.8-4.4h0.4l1,2.7c0.1,0.4,0.3,0.8,0.5,1.2h0
		c0.1-0.4,0.3-0.8,0.4-1.2l0.9-2.7h0.4l-1.7,4.9c-0.2,0.7-0.7,1.4-1.4,1.4C398,61.5,397.9,61.5,397.8,61.4z"/>
	<path d="M402,58.5c0-1,0.9-1.4,2.8-1.6c0-0.7-0.2-1.4-1-1.4c-0.6,0-1.1,0.3-1.4,0.5l-0.2-0.3c0.3-0.2,0.9-0.6,1.6-0.6
		c1,0,1.4,0.7,1.4,1.7v2.8h-0.3l0-0.6h0c-0.4,0.4-1,0.7-1.5,0.7C402.6,59.7,402,59.3,402,58.5z M404.8,58.6v-1.5
		c-1.8,0.2-2.4,0.6-2.4,1.3c0,0.6,0.4,0.9,0.9,0.9S404.2,59.1,404.8,58.6z"/>
</g>
<g>
	<path d="M478.2,57.8h-2.6v-0.2l2.7-3.8h0.4v3.7h0.9v0.3h-0.9v1.7h-0.4V57.8z M478.2,57.5v-2.1c0-0.3,0-0.7,0-1h0
		c-0.1,0.2-0.3,0.5-0.5,0.7l-1.7,2.4H478.2z"/>
	<path d="M480,58.9l0.2-0.3c0.3,0.4,0.8,0.7,1.6,0.7c0.8,0,1.4-0.6,1.4-1.5c0-0.9-0.5-1.5-1.4-1.5c-0.4,0-0.7,0.2-1.1,0.4l-0.3-0.2
		l0.2-2.7h2.7v0.4H481l-0.2,2.1c0.3-0.2,0.6-0.3,1-0.3c1,0,1.8,0.6,1.8,1.8c0,1.2-0.9,1.9-1.8,1.9C480.9,59.7,480.3,59.3,480,58.9z"
		/>
	<path d="M484.3,58.9l0.2-0.3c0.3,0.4,0.8,0.7,1.6,0.7c0.8,0,1.3-0.5,1.3-1.3c0-0.8-0.6-1.3-2-1.3v-0.4c1.3,0,1.8-0.6,1.8-1.3
		c0-0.6-0.5-1.1-1.2-1.1c-0.5,0-1,0.3-1.3,0.6l-0.2-0.3c0.4-0.4,0.9-0.7,1.6-0.7c0.9,0,1.6,0.5,1.6,1.4c0,0.8-0.5,1.2-1.1,1.4v0
		c0.7,0.2,1.3,0.7,1.3,1.5c0,1-0.8,1.6-1.8,1.6C485.2,59.7,484.7,59.2,484.3,58.9z"/>
	<path d="M488.8,60.7c0.4-0.2,0.7-0.6,0.7-1.1c0,0-0.1,0-0.1,0c-0.2,0-0.4-0.1-0.4-0.4s0.2-0.4,0.4-0.4c0.3,0,0.5,0.2,0.5,0.6
		c0,0.7-0.4,1.2-0.9,1.5L488.8,60.7z"/>
	<path d="M490.8,56.7c0-1.9,0.6-3,1.7-3c1.1,0,1.7,1.1,1.7,3c0,1.9-0.6,3-1.7,3C491.4,59.7,490.8,58.6,490.8,56.7z M493.8,56.7
		c0-1.8-0.5-2.6-1.3-2.6c-0.8,0-1.3,0.9-1.3,2.6c0,1.8,0.5,2.7,1.3,2.7C493.3,59.3,493.8,58.4,493.8,56.7z"/>
	<path d="M495.1,56.7c0-1.9,0.6-3,1.7-3c1.1,0,1.7,1.1,1.7,3c0,1.9-0.6,3-1.7,3C495.7,59.7,495.1,58.6,495.1,56.7z M498.1,56.7
		c0-1.8-0.5-2.6-1.3-2.6c-0.8,0-1.3,0.9-1.3,2.6c0,1.8,0.5,2.7,1.3,2.7C497.6,59.3,498.1,58.4,498.1,56.7z"/>
	<path d="M499.4,56.7c0-1.9,0.6-3,1.7-3c1.1,0,1.7,1.1,1.7,3c0,1.9-0.6,3-1.7,3C500,59.7,499.4,58.6,499.4,56.7z M502.4,56.7
		c0-1.8-0.5-2.6-1.3-2.6c-0.8,0-1.3,0.9-1.3,2.6c0,1.8,0.5,2.7,1.3,2.7C501.9,59.3,502.4,58.4,502.4,56.7z"/>
</g>
<g>
	<path d="M365.2,66h1.4c1.8,0,2.7,1.2,2.7,2.9c0,1.8-0.9,3-2.7,3h-1.4V66z M366.6,71.6c1.6,0,2.3-1.1,2.3-2.6c0-1.5-0.7-2.6-2.3-2.6
		h-0.9v5.2H366.6z"/>
	<path d="M370.3,70.9c0-1,0.9-1.4,2.8-1.6c0-0.7-0.2-1.4-1-1.4c-0.6,0-1.1,0.3-1.4,0.5l-0.2-0.3c0.3-0.2,0.9-0.6,1.6-0.6
		c1,0,1.4,0.7,1.4,1.7V72h-0.3l0-0.6h0c-0.4,0.4-1,0.7-1.5,0.7C370.9,72.1,370.3,71.7,370.3,70.9z M373.1,71v-1.5
		c-1.8,0.2-2.4,0.6-2.4,1.3c0,0.6,0.4,0.9,0.9,0.9S372.6,71.5,373.1,71z"/>
	<path d="M375,67.7h0.3l0,0.8h0c0.3-0.5,0.7-0.9,1.2-0.9c0.2,0,0.3,0,0.4,0.1L377,68c-0.1-0.1-0.2-0.1-0.4-0.1
		c-0.4,0-0.8,0.3-1.2,1.1V72H375V67.7z"/>
	<path d="M377.8,66.2c0-0.2,0.1-0.4,0.3-0.4s0.3,0.1,0.3,0.4c0,0.2-0.1,0.4-0.3,0.4S377.8,66.5,377.8,66.2z M377.9,67.7h0.4V72h-0.4
		V67.7z"/>
	<path d="M380.3,71.5L380.3,71.5l-0.1,0.4H380v-6.5h0.4v1.9l0,0.8c0.4-0.4,1-0.7,1.5-0.7c1.2,0,1.7,0.9,1.7,2.2
		c0,1.5-0.9,2.3-1.9,2.3C381.2,72.1,380.8,71.9,380.3,71.5z M383.1,69.8c0-1.1-0.4-1.9-1.4-1.9c-0.4,0-0.9,0.3-1.4,0.7v2.6
		c0.5,0.4,0.9,0.6,1.3,0.6C382.5,71.7,383.1,70.9,383.1,69.8z"/>
	<path d="M384.5,70.9c0-1,0.9-1.4,2.8-1.6c0-0.7-0.2-1.4-1-1.4c-0.6,0-1.1,0.3-1.4,0.5l-0.2-0.3c0.3-0.2,0.9-0.6,1.6-0.6
		c1,0,1.4,0.7,1.4,1.7V72h-0.3l0-0.6h0c-0.4,0.4-1,0.7-1.5,0.7C385.1,72.1,384.5,71.7,384.5,70.9z M387.3,71v-1.5
		c-1.8,0.2-2.4,0.6-2.4,1.3c0,0.6,0.4,0.9,0.9,0.9S386.8,71.5,387.3,71z"/>
</g>
<g>
	<path d="M475.8,71.7c1.9-1.9,2.8-3,2.8-4c0-0.7-0.4-1.3-1.3-1.3c-0.5,0-1,0.3-1.3,0.8l-0.3-0.3c0.4-0.5,0.9-0.8,1.6-0.8
		c1,0,1.6,0.6,1.6,1.6c0,1.1-1,2.2-2.6,3.9c0.3,0,0.6,0,1,0h2V72h-3.5V71.7z"/>
	<path d="M480,71.3l0.2-0.3c0.3,0.4,0.8,0.7,1.6,0.7c0.8,0,1.3-0.5,1.3-1.3c0-0.8-0.6-1.3-2-1.3v-0.4c1.3,0,1.8-0.6,1.8-1.3
		c0-0.6-0.5-1.1-1.2-1.1c-0.5,0-1,0.3-1.3,0.6l-0.2-0.3c0.4-0.4,0.9-0.7,1.6-0.7c0.9,0,1.6,0.5,1.6,1.4c0,0.8-0.5,1.2-1.1,1.4v0
		c0.7,0.2,1.3,0.7,1.3,1.5c0,1-0.8,1.6-1.8,1.6C480.9,72.1,480.4,71.7,480,71.3z"/>
	<path d="M486.8,70.3h-2.6V70l2.7-3.8h0.4v3.7h0.9v0.3h-0.9V72h-0.4V70.3z M486.8,69.9v-2.1c0-0.3,0-0.7,0-1h0
		c-0.1,0.2-0.3,0.5-0.5,0.7l-1.7,2.4H486.8z"/>
	<path d="M488.8,73.1c0.4-0.2,0.7-0.6,0.7-1.1c0,0-0.1,0-0.1,0c-0.2,0-0.4-0.1-0.4-0.4s0.2-0.4,0.4-0.4c0.3,0,0.5,0.2,0.5,0.6
		c0,0.7-0.4,1.2-0.9,1.5L488.8,73.1z"/>
	<path d="M490.8,69.1c0-1.9,0.6-3,1.7-3c1.1,0,1.7,1.1,1.7,3c0,1.9-0.6,3-1.7,3C491.4,72.1,490.8,71,490.8,69.1z M493.8,69.1
		c0-1.8-0.5-2.6-1.3-2.6c-0.8,0-1.3,0.9-1.3,2.6c0,1.8,0.5,2.7,1.3,2.7C493.3,71.7,493.8,70.8,493.8,69.1z"/>
	<path d="M495.1,69.1c0-1.9,0.6-3,1.7-3c1.1,0,1.7,1.1,1.7,3c0,1.9-0.6,3-1.7,3C495.7,72.1,495.1,71,495.1,69.1z M498.1,69.1
		c0-1.8-0.5-2.6-1.3-2.6c-0.8,0-1.3,0.9-1.3,2.6c0,1.8,0.5,2.7,1.3,2.7C497.6,71.7,498.1,70.8,498.1,69.1z"/>
	<path d="M499.4,69.1c0-1.9,0.6-3,1.7-3c1.1,0,1.7,1.1,1.7,3c0,1.9-0.6,3-1.7,3C500,72.1,499.4,71,499.4,69.1z M502.4,69.1
		c0-1.8-0.5-2.6-1.3-2.6c-0.8,0-1.3,0.9-1.3,2.6c0,1.8,0.5,2.7,1.3,2.7C501.9,71.7,502.4,70.8,502.4,69.1z"/>
</g>
<g>
	<path d="M365.2,78.5h1.4c1.8,0,2.7,1.2,2.7,2.9c0,1.8-0.9,3-2.7,3h-1.4V78.5z M366.6,84c1.6,0,2.3-1.1,2.3-2.6
		c0-1.5-0.7-2.6-2.3-2.6h-0.9V84H366.6z"/>
	<path d="M370.3,82.2c0-1.4,0.9-2.3,1.9-2.3c1,0,1.7,0.7,1.7,2c0,0.1,0,0.2,0,0.3h-3.1c0,1.1,0.7,1.9,1.6,1.9c0.5,0,0.8-0.2,1.2-0.4
		l0.2,0.3c-0.3,0.2-0.7,0.4-1.4,0.4C371.1,84.5,370.3,83.7,370.3,82.2z M373.4,82c0-1.1-0.5-1.7-1.3-1.7c-0.7,0-1.4,0.6-1.5,1.7
		H373.4z"/>
	<path d="M375.4,84L375.4,84l-0.1,0.4H375v-6.5h0.4v1.9l0,0.8c0.4-0.4,1-0.7,1.5-0.7c1.2,0,1.7,0.9,1.7,2.2c0,1.5-0.9,2.3-1.9,2.3
		C376.2,84.5,375.8,84.3,375.4,84z M378.1,82.2c0-1.1-0.4-1.9-1.4-1.9c-0.4,0-0.9,0.3-1.4,0.7v2.6c0.5,0.4,0.9,0.6,1.3,0.6
		C377.5,84.2,378.1,83.3,378.1,82.2z"/>
	<path d="M379.5,83.3c0-1,0.9-1.4,2.8-1.6c0-0.7-0.2-1.4-1-1.4c-0.6,0-1.1,0.3-1.4,0.5l-0.2-0.3c0.3-0.2,0.9-0.6,1.6-0.6
		c1,0,1.4,0.7,1.4,1.7v2.8h-0.3l0-0.6h0c-0.4,0.4-1,0.7-1.5,0.7C380.1,84.5,379.5,84.1,379.5,83.3z M382.3,83.5V82
		c-1.8,0.2-2.4,0.6-2.4,1.3c0,0.6,0.4,0.9,0.9,0.9S381.8,83.9,382.3,83.5z"/>
	<path d="M384.3,80.1h0.3l0,0.8h0c0.3-0.5,0.7-0.9,1.2-0.9c0.2,0,0.3,0,0.4,0.1l-0.1,0.4c-0.1-0.1-0.2-0.1-0.4-0.1
		c-0.4,0-0.8,0.3-1.2,1.1v2.9h-0.4V80.1z"/>
	<path d="M387,78.7c0-0.2,0.1-0.4,0.3-0.4s0.3,0.1,0.3,0.4c0,0.2-0.1,0.4-0.3,0.4S387,78.9,387,78.7z M387.1,80.1h0.4v4.3h-0.4V80.1
		z"/>
</g>
<g>
	<path d="M480.1,82.9c0-0.8,0.6-1.3,1.2-1.6v0c-0.4-0.3-0.8-0.7-0.8-1.3c0-0.8,0.7-1.4,1.5-1.4c1,0,1.6,0.6,1.6,1.5
		c0,0.6-0.5,1.2-0.8,1.5v0c0.5,0.3,1,0.7,1,1.5c0,0.8-0.7,1.5-1.7,1.5C480.9,84.5,480.1,83.8,480.1,82.9z M483.3,83
		c0-0.9-0.9-1.2-1.8-1.5c-0.6,0.3-1,0.8-1,1.5c0,0.7,0.6,1.3,1.4,1.3C482.7,84.2,483.3,83.6,483.3,83z M483.1,80
		c0-0.6-0.4-1.2-1.2-1.2c-0.6,0-1.1,0.5-1.1,1.1c0,0.8,0.8,1.1,1.5,1.4C482.8,81,483.1,80.5,483.1,80z"/>
	<path d="M484.4,82.9c0-0.8,0.6-1.3,1.2-1.6v0c-0.4-0.3-0.8-0.7-0.8-1.3c0-0.8,0.7-1.4,1.5-1.4c1,0,1.6,0.6,1.6,1.5
		c0,0.6-0.5,1.2-0.8,1.5v0c0.5,0.3,1,0.7,1,1.5c0,0.8-0.7,1.5-1.7,1.5C485.2,84.5,484.4,83.8,484.4,82.9z M487.6,83
		c0-0.9-0.9-1.2-1.8-1.5c-0.6,0.3-1,0.8-1,1.5c0,0.7,0.6,1.3,1.4,1.3C487,84.2,487.6,83.6,487.6,83z M487.4,80
		c0-0.6-0.4-1.2-1.2-1.2c-0.6,0-1.1,0.5-1.1,1.1c0,0.8,0.8,1.1,1.5,1.4C487.1,81,487.4,80.5,487.4,80z"/>
	<path d="M488.8,85.5c0.4-0.2,0.7-0.6,0.7-1.1c0,0-0.1,0-0.1,0c-0.2,0-0.4-0.1-0.4-0.4s0.2-0.4,0.4-0.4c0.3,0,0.5,0.2,0.5,0.6
		c0,0.7-0.4,1.2-0.9,1.5L488.8,85.5z"/>
	<path d="M490.8,81.5c0-1.9,0.6-3,1.7-3c1.1,0,1.7,1.1,1.7,3c0,1.9-0.6,3-1.7,3C491.4,84.5,490.8,83.4,490.8,81.5z M493.8,81.5
		c0-1.8-0.5-2.6-1.3-2.6c-0.8,0-1.3,0.9-1.3,2.6c0,1.8,0.5,2.7,1.3,2.7C493.3,84.2,493.8,83.3,493.8,81.5z"/>
	<path d="M495.1,81.5c0-1.9,0.6-3,1.7-3c1.1,0,1.7,1.1,1.7,3c0,1.9-0.6,3-1.7,3C495.7,84.5,495.1,83.4,495.1,81.5z M498.1,81.5
		c0-1.8-0.5-2.6-1.3-2.6c-0.8,0-1.3,0.9-1.3,2.6c0,1.8,0.5,2.7,1.3,2.7C497.6,84.2,498.1,83.3,498.1,81.5z"/>
	<path d="M499.4,81.5c0-1.9,0.6-3,1.7-3c1.1,0,1.7,1.1,1.7,3c0,1.9-0.6,3-1.7,3C500,84.5,499.4,83.4,499.4,81.5z M502.4,81.5
		c0-1.8-0.5-2.6-1.3-2.6c-0.8,0-1.3,0.9-1.3,2.6c0,1.8,0.5,2.7,1.3,2.7C501.9,84.2,502.4,83.3,502.4,81.5z"/>
</g>
<g>
	<path d="M81.8,90.9h1.5c1.3,0,2.2,0.4,2.2,1.7c0,1.2-0.8,1.7-2.1,1.7h-1.1v2.5h-0.4V90.9z M83.2,93.9c1.2,0,1.8-0.4,1.8-1.4
		c0-1-0.6-1.3-1.8-1.3h-1v2.7H83.2z"/>
	<path d="M86,98.7l0.1-0.4c0.1,0,0.2,0.1,0.4,0.1c0.5,0,0.9-0.5,1.1-1.1l0.1-0.4l-1.8-4.4h0.4l1,2.7c0.1,0.4,0.3,0.8,0.5,1.2h0
		c0.1-0.4,0.3-0.8,0.4-1.2l0.9-2.7h0.4l-1.7,4.9c-0.2,0.7-0.7,1.4-1.4,1.4C86.3,98.8,86.2,98.8,86,98.7z"/>
	<path d="M90.6,92.5h0.3l0,0.8h0c0.3-0.5,0.7-0.9,1.2-0.9c0.2,0,0.3,0,0.4,0.1l-0.1,0.4c-0.1-0.1-0.2-0.1-0.4-0.1
		c-0.4,0-0.8,0.3-1.2,1.1v2.9h-0.4V92.5z"/>
	<path d="M93.1,94.7c0-1.5,0.9-2.3,1.9-2.3c1,0,1.9,0.8,1.9,2.3c0,1.4-0.9,2.3-1.9,2.3C94,96.9,93.1,96.1,93.1,94.7z M96.5,94.7
		c0-1.1-0.7-1.9-1.5-1.9c-0.9,0-1.5,0.8-1.5,1.9c0,1.1,0.6,1.9,1.5,1.9C95.9,96.6,96.5,95.8,96.5,94.7z"/>
	<path d="M98.3,92.5h0.3l0,0.7h0c0.4-0.4,0.9-0.8,1.4-0.8c0.7,0,1,0.4,1.2,0.9c0.5-0.5,1-0.9,1.5-0.9c0.9,0,1.3,0.5,1.3,1.7v2.8
		h-0.4v-2.7c0-0.9-0.3-1.4-1-1.4c-0.4,0-0.8,0.3-1.3,0.8v3.3h-0.4v-2.7c0-0.9-0.3-1.4-1-1.4c-0.4,0-0.8,0.3-1.3,0.8v3.3h-0.4V92.5z"
		/>
	<path d="M105.2,94.7c0-1.4,0.9-2.3,1.9-2.3c1,0,1.7,0.7,1.7,2c0,0.1,0,0.2,0,0.3h-3.1c0,1.1,0.7,1.9,1.6,1.9c0.5,0,0.8-0.2,1.2-0.4
		l0.2,0.3c-0.3,0.2-0.7,0.4-1.4,0.4C106.1,96.9,105.2,96.1,105.2,94.7z M108.4,94.4c0-1.1-0.5-1.7-1.3-1.7c-0.7,0-1.4,0.6-1.5,1.7
		H108.4z"/>
	<path d="M110,95.6v-2.8h-0.7v-0.3l0.7,0l0.1-1.3h0.3v1.3h1.3v0.3h-1.3v2.8c0,0.5,0.1,0.9,0.7,0.9c0.2,0,0.4-0.1,0.5-0.1l0.1,0.3
		c-0.3,0.1-0.5,0.2-0.7,0.2C110.2,96.9,110,96.4,110,95.6z"/>
	<path d="M112.4,95.7c0-1,0.9-1.4,2.8-1.6c0-0.7-0.2-1.4-1-1.4c-0.6,0-1.1,0.3-1.4,0.5l-0.2-0.3c0.3-0.2,0.9-0.6,1.6-0.6
		c1,0,1.4,0.7,1.4,1.7v2.8h-0.3l0-0.6h0c-0.4,0.4-1,0.7-1.5,0.7C113,96.9,112.4,96.6,112.4,95.7z M115.2,95.9v-1.5
		c-1.8,0.2-2.4,0.6-2.4,1.3c0,0.6,0.4,0.9,0.9,0.9S114.7,96.3,115.2,95.9z"/>
	<path d="M117.1,96.2v-5.9h0.4v6c0,0.2,0.1,0.3,0.2,0.3c0,0,0.1,0,0.2,0l0.1,0.3c-0.1,0-0.2,0-0.3,0
		C117.3,96.9,117.1,96.7,117.1,96.2z"/>
	<path d="M119.3,96.2v-5.9h0.4v6c0,0.2,0.1,0.3,0.2,0.3c0,0,0.1,0,0.2,0l0.1,0.3c-0.1,0-0.2,0-0.3,0
		C119.4,96.9,119.3,96.7,119.3,96.2z"/>
	<path d="M121.3,95.3v-2.8h0.4v2.7c0,0.9,0.3,1.4,1,1.4c0.5,0,0.9-0.3,1.4-0.9v-3.2h0.4v4.3h-0.3l0-0.7h0c-0.4,0.5-0.9,0.8-1.5,0.8
		C121.8,96.9,121.3,96.4,121.3,95.3z"/>
	<path d="M126.2,92.5h0.3l0,0.8h0c0.3-0.5,0.7-0.9,1.2-0.9c0.2,0,0.3,0,0.4,0.1l-0.1,0.4c-0.1-0.1-0.2-0.1-0.4-0.1
		c-0.4,0-0.8,0.3-1.2,1.1v2.9h-0.4V92.5z"/>
	<path d="M128.7,97.7c0-0.4,0.2-0.8,0.6-1v0c-0.2-0.1-0.4-0.4-0.4-0.7c0-0.4,0.3-0.7,0.5-0.8v0c-0.3-0.2-0.5-0.7-0.5-1.2
		c0-0.9,0.7-1.5,1.5-1.5c0.2,0,0.4,0.1,0.6,0.1h1.5v0.3h-1c0.3,0.2,0.5,0.6,0.5,1.1c0,0.9-0.7,1.5-1.5,1.5c-0.2,0-0.5-0.1-0.7-0.2
		c-0.2,0.2-0.4,0.3-0.4,0.6c0,0.3,0.2,0.6,0.8,0.6h0.9c1,0,1.4,0.3,1.4,1c0,0.7-0.8,1.5-2,1.5C129.3,98.9,128.7,98.4,128.7,97.7z
		 M132.1,97.5c0-0.5-0.4-0.7-1-0.7h-0.9c-0.1,0-0.3,0-0.5-0.1c-0.4,0.3-0.6,0.6-0.6,0.9c0,0.5,0.5,0.9,1.4,0.9
		C131.4,98.6,132.1,98,132.1,97.5z M131.5,93.9c0-0.7-0.5-1.2-1.1-1.2s-1.1,0.5-1.1,1.2c0,0.7,0.5,1.2,1.1,1.2
		C131,95.1,131.5,94.6,131.5,93.9z"/>
	<path d="M132.8,98.7l0.1-0.4c0.1,0,0.2,0.1,0.4,0.1c0.5,0,0.9-0.5,1.1-1.1l0.1-0.4l-1.8-4.4h0.4l1,2.7c0.1,0.4,0.3,0.8,0.5,1.2h0
		c0.1-0.4,0.3-0.8,0.4-1.2l0.9-2.7h0.4l-1.7,4.9c-0.2,0.7-0.7,1.4-1.4,1.4C133.1,98.8,132.9,98.8,132.8,98.7z"/>
</g>
<g>
	<path d="M152.6,90.9h0.4v5.9h-0.4V90.9z"/>
	<path d="M154.7,92.5h0.3l0,0.7h0c0.4-0.4,0.9-0.8,1.4-0.8c0.7,0,1,0.4,1.2,0.9c0.5-0.5,1-0.9,1.5-0.9c0.9,0,1.3,0.5,1.3,1.7v2.8
		h-0.4v-2.7c0-0.9-0.3-1.4-1-1.4c-0.4,0-0.8,0.3-1.3,0.8v3.3h-0.4v-2.7c0-0.9-0.3-1.4-1-1.4c-0.4,0-0.8,0.3-1.3,0.8v3.3h-0.4V92.5z"
		/>
	<path d="M162.1,92.5h0.3l0,0.5h0c0.4-0.3,0.9-0.6,1.5-0.6c1.2,0,1.7,0.9,1.7,2.2c0,1.5-0.9,2.3-1.9,2.3c-0.4,0-0.8-0.2-1.3-0.5v2.4
		h-0.4V92.5z M165.2,94.6c0-1.1-0.4-1.9-1.4-1.9c-0.4,0-0.9,0.3-1.4,0.7V96c0.5,0.4,0.9,0.6,1.3,0.6
		C164.6,96.6,165.2,95.8,165.2,94.6z"/>
	<path d="M166.6,94.7c0-1.4,0.9-2.3,1.9-2.3c1,0,1.7,0.7,1.7,2c0,0.1,0,0.2,0,0.3H167c0,1.1,0.7,1.9,1.6,1.9c0.5,0,0.8-0.2,1.2-0.4
		l0.2,0.3c-0.3,0.2-0.7,0.4-1.4,0.4C167.5,96.9,166.6,96.1,166.6,94.7z M169.7,94.4c0-1.1-0.5-1.7-1.3-1.7c-0.7,0-1.4,0.6-1.5,1.7
		H169.7z"/>
	<path d="M171.3,92.5h0.3l0,0.8h0c0.3-0.5,0.7-0.9,1.2-0.9c0.2,0,0.3,0,0.4,0.1l-0.1,0.4c-0.1-0.1-0.2-0.1-0.4-0.1
		c-0.4,0-0.8,0.3-1.2,1.1v2.9h-0.4V92.5z"/>
	<path d="M174,91.1c0-0.2,0.1-0.4,0.3-0.4s0.3,0.1,0.3,0.4c0,0.2-0.1,0.4-0.3,0.4S174,91.3,174,91.1z M174.1,92.5h0.4v4.3h-0.4V92.5
		z"/>
	<path d="M175.9,95.7c0-1,0.9-1.4,2.8-1.6c0-0.7-0.2-1.4-1-1.4c-0.6,0-1.1,0.3-1.4,0.5l-0.2-0.3c0.3-0.2,0.9-0.6,1.6-0.6
		c1,0,1.4,0.7,1.4,1.7v2.8h-0.3l0-0.6h0c-0.4,0.4-1,0.7-1.5,0.7C176.5,96.9,175.9,96.6,175.9,95.7z M178.7,95.9v-1.5
		c-1.8,0.2-2.4,0.6-2.4,1.3c0,0.6,0.4,0.9,0.9,0.9S178.2,96.3,178.7,95.9z"/>
	<path d="M180.6,96.2v-5.9h0.4v6c0,0.2,0.1,0.3,0.2,0.3c0,0,0.1,0,0.2,0l0.1,0.3c-0.1,0-0.2,0-0.3,0
		C180.8,96.9,180.6,96.7,180.6,96.2z"/>
	<path d="M184,96.3l0.2-0.3c0.4,0.3,0.8,0.5,1.4,0.5c0.7,0,1-0.4,1-0.9c0-0.5-0.6-0.8-1.1-1c-0.7-0.2-1.3-0.5-1.3-1.2
		c0-0.6,0.5-1.2,1.4-1.2c0.5,0,0.9,0.2,1.2,0.5l-0.2,0.3c-0.3-0.2-0.6-0.4-1-0.4c-0.7,0-1,0.4-1,0.8c0,0.5,0.5,0.7,1,0.9
		c0.7,0.3,1.4,0.5,1.4,1.3c0,0.6-0.5,1.2-1.5,1.2C185,96.9,184.4,96.7,184,96.3z"/>
	<path d="M188.2,92.5h0.3l0,0.7h0c0.4-0.4,0.9-0.8,1.4-0.8c0.7,0,1,0.4,1.2,0.9c0.5-0.5,1-0.9,1.5-0.9c0.9,0,1.3,0.5,1.3,1.7v2.8
		h-0.4v-2.7c0-0.9-0.3-1.4-1-1.4c-0.4,0-0.8,0.3-1.3,0.8v3.3h-0.4v-2.7c0-0.9-0.3-1.4-1-1.4c-0.4,0-0.8,0.3-1.3,0.8v3.3h-0.4V92.5z"
		/>
	<path d="M195.2,94.7c0-1.4,0.9-2.3,1.9-2.3c1,0,1.7,0.7,1.7,2c0,0.1,0,0.2,0,0.3h-3.1c0,1.1,0.7,1.9,1.6,1.9c0.5,0,0.8-0.2,1.2-0.4
		l0.2,0.3c-0.3,0.2-0.7,0.4-1.4,0.4C196,96.9,195.2,96.1,195.2,94.7z M198.3,94.4c0-1.1-0.5-1.7-1.3-1.7c-0.7,0-1.4,0.6-1.5,1.7
		H198.3z"/>
	<path d="M199.9,96.2v-5.9h0.4v6c0,0.2,0.1,0.3,0.2,0.3c0,0,0.1,0,0.2,0l0.1,0.3c-0.1,0-0.2,0-0.3,0C200,96.9,199.9,96.7,199.9,96.2
		z"/>
	<path d="M202.1,95.6v-2.8h-0.7v-0.3l0.7,0l0.1-1.3h0.3v1.3h1.3v0.3h-1.3v2.8c0,0.5,0.1,0.9,0.7,0.9c0.2,0,0.4-0.1,0.5-0.1l0.1,0.3
		c-0.3,0.1-0.5,0.2-0.7,0.2C202.3,96.9,202.1,96.4,202.1,95.6z"/>
	<path d="M204.7,91.1c0-0.2,0.1-0.4,0.3-0.4s0.3,0.1,0.3,0.4c0,0.2-0.1,0.4-0.3,0.4S204.7,91.3,204.7,91.1z M204.8,92.5h0.4v4.3
		h-0.4V92.5z"/>
	<path d="M206.9,92.5h0.3l0,0.7h0c0.4-0.4,0.9-0.8,1.5-0.8c0.9,0,1.3,0.5,1.3,1.7v2.8h-0.4v-2.7c0-0.9-0.3-1.4-1-1.4
		c-0.5,0-0.9,0.3-1.4,0.8v3.3h-0.4V92.5z"/>
	<path d="M211.3,97.7c0-0.4,0.2-0.8,0.6-1v0c-0.2-0.1-0.4-0.4-0.4-0.7c0-0.4,0.3-0.7,0.5-0.8v0c-0.3-0.2-0.5-0.7-0.5-1.2
		c0-0.9,0.7-1.5,1.5-1.5c0.2,0,0.4,0.1,0.6,0.1h1.5v0.3h-1c0.3,0.2,0.5,0.6,0.5,1.1c0,0.9-0.7,1.5-1.5,1.5c-0.2,0-0.5-0.1-0.7-0.2
		c-0.2,0.2-0.4,0.3-0.4,0.6c0,0.3,0.2,0.6,0.8,0.6h0.9c1,0,1.4,0.3,1.4,1c0,0.7-0.8,1.5-2,1.5C212,98.9,211.3,98.4,211.3,97.7z
		 M214.7,97.5c0-0.5-0.4-0.7-1-0.7h-0.9c-0.1,0-0.3,0-0.5-0.1c-0.4,0.3-0.6,0.6-0.6,0.9c0,0.5,0.5,0.9,1.4,0.9
		C214.1,98.6,214.7,98,214.7,97.5z M214.1,93.9c0-0.7-0.5-1.2-1.1-1.2s-1.1,0.5-1.1,1.2c0,0.7,0.5,1.2,1.1,1.2
		C213.6,95.1,214.1,94.6,214.1,93.9z"/>
</g>
<g>
	<path d="M364.8,93.8c0-1.9,1-3.1,2.5-3.1c0.7,0,1.2,0.3,1.5,0.7l-0.2,0.3c-0.3-0.4-0.8-0.6-1.3-0.6c-1.3,0-2.1,1-2.1,2.7
		s0.8,2.7,2.1,2.7c0.6,0,1.1-0.3,1.5-0.7l0.2,0.3c-0.5,0.5-1,0.8-1.8,0.8C365.9,96.9,364.8,95.7,364.8,93.8z"/>
	<path d="M370.3,90.3h0.4v2.8c0.5-0.5,0.9-0.8,1.5-0.8c0.9,0,1.3,0.5,1.3,1.7v2.8h-0.4v-2.7c0-0.9-0.3-1.4-1-1.4
		c-0.5,0-0.9,0.3-1.4,0.8v3.3h-0.4V90.3z"/>
	<path d="M374.7,95.7c0-1,0.9-1.4,2.8-1.6c0-0.7-0.2-1.4-1-1.4c-0.6,0-1.1,0.3-1.4,0.5l-0.2-0.3c0.3-0.2,0.9-0.6,1.6-0.6
		c1,0,1.4,0.7,1.4,1.7v2.8h-0.3l0-0.6h0c-0.4,0.4-1,0.7-1.5,0.7C375.3,96.9,374.7,96.6,374.7,95.7z M377.5,95.9v-1.5
		c-1.8,0.2-2.4,0.6-2.4,1.3c0,0.6,0.4,0.9,0.9,0.9S377,96.3,377.5,95.9z"/>
	<path d="M379.4,92.5h0.3l0,0.7h0c0.4-0.4,0.9-0.8,1.5-0.8c0.9,0,1.3,0.5,1.3,1.7v2.8h-0.4v-2.7c0-0.9-0.3-1.4-1-1.4
		c-0.5,0-0.9,0.3-1.4,0.8v3.3h-0.4V92.5z"/>
	<path d="M383.9,94.7c0-1.4,0.9-2.3,1.9-2.3c0.5,0,0.9,0.2,1.3,0.5l0-0.8v-1.8h0.4v6.5h-0.3l0-0.6h0c-0.4,0.4-0.8,0.7-1.4,0.7
		C384.6,96.9,383.9,96.1,383.9,94.7z M387.1,95.9v-2.6c-0.5-0.4-0.8-0.6-1.3-0.6c-0.9,0-1.5,0.8-1.5,1.9c0,1.1,0.5,1.9,1.4,1.9
		C386.2,96.6,386.6,96.3,387.1,95.9z"/>
	<path d="M388.8,94.7c0-1.4,0.9-2.3,1.9-2.3c1,0,1.7,0.7,1.7,2c0,0.1,0,0.2,0,0.3h-3.1c0,1.1,0.7,1.9,1.6,1.9c0.5,0,0.8-0.2,1.2-0.4
		l0.2,0.3c-0.3,0.2-0.7,0.4-1.4,0.4C389.6,96.9,388.8,96.1,388.8,94.7z M391.9,94.4c0-1.1-0.5-1.7-1.3-1.7c-0.7,0-1.4,0.6-1.5,1.7
		H391.9z"/>
	<path d="M393.5,92.5h0.3l0,0.8h0c0.3-0.5,0.7-0.9,1.2-0.9c0.2,0,0.3,0,0.4,0.1l-0.1,0.4c-0.1-0.1-0.2-0.1-0.4-0.1
		c-0.4,0-0.8,0.3-1.2,1.1v2.9h-0.4V92.5z"/>
	<path d="M396.2,91.1c0-0.2,0.1-0.4,0.3-0.4s0.3,0.1,0.3,0.4c0,0.2-0.1,0.4-0.3,0.4S396.2,91.3,396.2,91.1z M396.3,92.5h0.4v4.3
		h-0.4V92.5z"/>
	<path d="M397.8,98.7l0.1-0.4c0.1,0,0.2,0.1,0.4,0.1c0.5,0,0.9-0.5,1.1-1.1l0.1-0.4l-1.8-4.4h0.4l1,2.7c0.1,0.4,0.3,0.8,0.5,1.2h0
		c0.1-0.4,0.3-0.8,0.4-1.2l0.9-2.7h0.4l-1.7,4.9c-0.2,0.7-0.7,1.4-1.4,1.4C398,98.8,397.9,98.8,397.8,98.7z"/>
	<path d="M402,95.7c0-1,0.9-1.4,2.8-1.6c0-0.7-0.2-1.4-1-1.4c-0.6,0-1.1,0.3-1.4,0.5l-0.2-0.3c0.3-0.2,0.9-0.6,1.6-0.6
		c1,0,1.4,0.7,1.4,1.7v2.8h-0.3l0-0.6h0c-0.4,0.4-1,0.7-1.5,0.7C402.6,96.9,402,96.6,402,95.7z M404.8,95.9v-1.5
		c-1.8,0.2-2.4,0.6-2.4,1.3c0,0.6,0.4,0.9,0.9,0.9S404.2,96.3,404.8,95.9z"/>
</g>
<g>
	<path d="M476.2,96.5h1.4v-4.8h-1v-0.3c0.5-0.1,0.8-0.2,1.1-0.4h0.3v5.4h1.3v0.4h-3V96.5z"/>
	<path d="M480.2,93.9c0-1.9,0.6-3,1.7-3c1.1,0,1.7,1.1,1.7,3c0,1.9-0.6,3-1.7,3C480.8,96.9,480.2,95.8,480.2,93.9z M483.2,93.9
		c0-1.8-0.5-2.6-1.3-2.6c-0.8,0-1.3,0.9-1.3,2.6c0,1.8,0.5,2.7,1.3,2.7C482.7,96.6,483.2,95.7,483.2,93.9z"/>
	<path d="M484.3,96.1l0.2-0.3c0.3,0.4,0.8,0.7,1.6,0.7c0.8,0,1.4-0.6,1.4-1.5c0-0.9-0.5-1.5-1.4-1.5c-0.4,0-0.7,0.2-1.1,0.4
		l-0.3-0.2l0.2-2.7h2.7v0.4h-2.3l-0.2,2.1c0.3-0.2,0.6-0.3,1-0.3c1,0,1.8,0.6,1.8,1.8c0,1.2-0.9,1.9-1.8,1.9
		C485.2,96.9,484.6,96.5,484.3,96.1z"/>
	<path d="M488.8,97.9c0.4-0.2,0.7-0.6,0.7-1.1c0,0-0.1,0-0.1,0c-0.2,0-0.4-0.1-0.4-0.4s0.2-0.4,0.4-0.4c0.3,0,0.5,0.2,0.5,0.6
		c0,0.7-0.4,1.2-0.9,1.5L488.8,97.9z"/>
	<path d="M490.8,93.9c0-1.9,0.6-3,1.7-3c1.1,0,1.7,1.1,1.7,3c0,1.9-0.6,3-1.7,3C491.4,96.9,490.8,95.8,490.8,93.9z M493.8,93.9
		c0-1.8-0.5-2.6-1.3-2.6c-0.8,0-1.3,0.9-1.3,2.6c0,1.8,0.5,2.7,1.3,2.7C493.3,96.6,493.8,95.7,493.8,93.9z"/>
	<path d="M495.1,93.9c0-1.9,0.6-3,1.7-3c1.1,0,1.7,1.1,1.7,3c0,1.9-0.6,3-1.7,3C495.7,96.9,495.1,95.8,495.1,93.9z M498.1,93.9
		c0-1.8-0.5-2.6-1.3-2.6c-0.8,0-1.3,0.9-1.3,2.6c0,1.8,0.5,2.7,1.3,2.7C497.6,96.6,498.1,95.7,498.1,93.9z"/>
	<path d="M499.4,93.9c0-1.9,0.6-3,1.7-3c1.1,0,1.7,1.1,1.7,3c0,1.9-0.6,3-1.7,3C500,96.9,499.4,95.8,499.4,93.9z M502.4,93.9
		c0-1.8-0.5-2.6-1.3-2.6c-0.8,0-1.3,0.9-1.3,2.6c0,1.8,0.5,2.7,1.3,2.7C501.9,96.6,502.4,95.7,502.4,93.9z"/>
</g>
<g>
	<path d="M366.2,104.5h-1.6v-1.1h4.6v1.1h-1.6v4.8h-1.3V104.5z"/>
	<path d="M369.7,107c0-1.5,1-2.3,2.2-2.3c1.1,0,2.2,0.9,2.2,2.3s-1,2.3-2.2,2.3C370.7,109.3,369.7,108.5,369.7,107z M372.7,107
		c0-0.8-0.3-1.3-0.8-1.3c-0.5,0-0.8,0.5-0.8,1.3s0.3,1.3,0.8,1.3C372.4,108.3,372.7,107.8,372.7,107z"/>
	<path d="M375.1,107.6v-1.8h-0.6v-1l0.7-0.1l0.2-1.2h1.1v1.2h1.1v1h-1.1v1.8c0,0.5,0.2,0.7,0.6,0.7c0.1,0,0.3,0,0.4-0.1l0.2,1
		c-0.2,0.1-0.6,0.2-1,0.2C375.6,109.3,375.1,108.6,375.1,107.6z"/>
	<path d="M378.2,108c0-0.9,0.7-1.4,2.5-1.6c0-0.4-0.2-0.6-0.7-0.6c-0.4,0-0.7,0.2-1.2,0.4l-0.5-0.9c0.6-0.3,1.2-0.6,1.9-0.6
		c1.1,0,1.8,0.6,1.8,2v2.6h-1.1l-0.1-0.5h0c-0.4,0.3-0.8,0.6-1.3,0.6C378.7,109.3,378.2,108.7,378.2,108z M380.7,107.9v-0.8
		c-0.9,0.1-1.2,0.4-1.2,0.7c0,0.3,0.2,0.4,0.5,0.4C380.3,108.3,380.5,108.2,380.7,107.9z"/>
	<path d="M383.1,107.8v-4.9h1.3v5c0,0.3,0.1,0.4,0.2,0.4c0.1,0,0.1,0,0.2,0l0.2,1c-0.1,0.1-0.4,0.1-0.7,0.1
		C383.4,109.3,383.1,108.7,383.1,107.8z"/>
</g>
<g>
	<path d="M472.4,107.8c0-0.7,0.4-1.1,1-1.4v0c-0.4-0.3-0.8-0.7-0.8-1.4c0-1,0.8-1.6,1.8-1.6c1,0,1.7,0.6,1.7,1.6
		c0,0.5-0.4,1-0.7,1.3v0c0.5,0.3,1,0.7,1,1.5c0,0.9-0.8,1.6-2,1.6C473.3,109.3,472.4,108.7,472.4,107.8z M475.2,107.7
		c0-0.5-0.5-0.7-1.2-1c-0.3,0.2-0.4,0.6-0.4,0.9c0,0.5,0.4,0.8,0.9,0.8C474.9,108.4,475.2,108.2,475.2,107.7z M475.1,105.1
		c0-0.4-0.3-0.7-0.7-0.7c-0.4,0-0.6,0.2-0.6,0.7c0,0.5,0.4,0.7,1,0.9C475,105.6,475.1,105.4,475.1,105.1z"/>
	<path d="M477.2,107.8c0-0.7,0.4-1.1,1-1.4v0c-0.4-0.3-0.8-0.7-0.8-1.4c0-1,0.8-1.6,1.8-1.6c1,0,1.7,0.6,1.7,1.6
		c0,0.5-0.4,1-0.7,1.3v0c0.5,0.3,1,0.7,1,1.5c0,0.9-0.8,1.6-2,1.6C478,109.3,477.2,108.7,477.2,107.8z M480,107.7
		c0-0.5-0.5-0.7-1.2-1c-0.3,0.2-0.4,0.6-0.4,0.9c0,0.5,0.4,0.8,0.9,0.8C479.6,108.4,480,108.2,480,107.7z M479.9,105.1
		c0-0.4-0.3-0.7-0.7-0.7c-0.4,0-0.6,0.2-0.6,0.7c0,0.5,0.4,0.7,1,0.9C479.7,105.6,479.9,105.4,479.9,105.1z"/>
	<path d="M481.9,106.4c0-1.9,0.8-2.9,2-2.9s2,1,2,2.9s-0.8,3-2,3S481.9,108.3,481.9,106.4z M484.7,106.4c0-1.6-0.3-1.9-0.8-1.9
		c-0.4,0-0.8,0.4-0.8,1.9c0,1.6,0.4,2,0.8,2C484.4,108.3,484.7,107.9,484.7,106.4z"/>
	<path d="M486.7,110.3c0.7-0.2,1-0.6,1-1.1c0,0,0,0-0.1,0c-0.4,0-0.8-0.3-0.8-0.7c0-0.5,0.4-0.8,0.8-0.8c0.6,0,0.9,0.5,0.9,1.3
		c0,1-0.6,1.7-1.6,2.1L486.7,110.3z"/>
	<path d="M489.3,106.4c0-1.9,0.8-2.9,2-2.9c1.2,0,2,1,2,2.9s-0.8,3-2,3C490.1,109.3,489.3,108.3,489.3,106.4z M492.2,106.4
		c0-1.6-0.3-1.9-0.8-1.9c-0.4,0-0.8,0.4-0.8,1.9c0,1.6,0.4,2,0.8,2C491.8,108.3,492.2,107.9,492.2,106.4z"/>
	<path d="M494.1,106.4c0-1.9,0.8-2.9,2-2.9c1.2,0,2,1,2,2.9s-0.8,3-2,3C494.9,109.3,494.1,108.3,494.1,106.4z M496.9,106.4
		c0-1.6-0.3-1.9-0.8-1.9c-0.4,0-0.8,0.4-0.8,1.9c0,1.6,0.4,2,0.8,2C496.6,108.3,496.9,107.9,496.9,106.4z"/>
	<path d="M498.8,106.4c0-1.9,0.8-2.9,2-2.9c1.2,0,2,1,2,2.9s-0.8,3-2,3C499.7,109.3,498.8,108.3,498.8,106.4z M501.7,106.4
		c0-1.6-0.3-1.9-0.8-1.9c-0.4,0-0.8,0.4-0.8,1.9c0,1.6,0.4,2,0.8,2C501.3,108.3,501.7,107.9,501.7,106.4z"/>
</g>
<g>
	<path d="M10.9,115.7h0.4v5.6H14v0.4h-3.2V115.7z"/>
	<path d="M14.7,119.5c0-1.4,0.9-2.3,1.9-2.3c1,0,1.7,0.7,1.7,2c0,0.1,0,0.2,0,0.3h-3.1c0,1.1,0.7,1.9,1.6,1.9c0.5,0,0.8-0.2,1.2-0.4
		l0.2,0.3c-0.3,0.2-0.7,0.4-1.4,0.4C15.6,121.8,14.7,120.9,14.7,119.5z M17.9,119.2c0-1.1-0.5-1.7-1.3-1.7c-0.7,0-1.4,0.6-1.5,1.7
		H17.9z"/>
	<path d="M19.1,120.6c0-1,0.9-1.4,2.8-1.6c0-0.7-0.2-1.4-1-1.4c-0.6,0-1.1,0.3-1.4,0.5l-0.2-0.3c0.3-0.2,0.9-0.6,1.6-0.6
		c1,0,1.4,0.7,1.4,1.7v2.8h-0.3l0-0.6h0c-0.4,0.4-1,0.7-1.5,0.7C19.7,121.8,19.1,121.4,19.1,120.6z M21.9,120.7v-1.5
		c-1.8,0.2-2.4,0.6-2.4,1.3c0,0.6,0.4,0.9,0.9,0.9S21.3,121.2,21.9,120.7z"/>
	<path d="M23.5,119.5c0-1.4,0.9-2.3,1.9-2.3c0.5,0,0.9,0.2,1.3,0.5l0-0.8v-1.8h0.4v6.5h-0.3l0-0.6h0c-0.4,0.4-0.8,0.7-1.4,0.7
		C24.2,121.8,23.5,121,23.5,119.5z M26.7,120.7v-2.6c-0.5-0.4-0.8-0.6-1.3-0.6c-0.9,0-1.5,0.8-1.5,1.9c0,1.1,0.5,1.9,1.4,1.9
		C25.8,121.4,26.2,121.2,26.7,120.7z"/>
</g>
<g>
	<path d="M81.8,115.7h1.5c1.3,0,2.2,0.4,2.2,1.7c0,1.2-0.8,1.7-2.1,1.7h-1.1v2.5h-0.4V115.7z M83.2,118.8c1.2,0,1.8-0.4,1.8-1.4
		c0-1-0.6-1.3-1.8-1.3h-1v2.7H83.2z"/>
	<path d="M86,123.5l0.1-0.4c0.1,0,0.2,0.1,0.4,0.1c0.5,0,0.9-0.5,1.1-1.1l0.1-0.4l-1.8-4.4h0.4l1,2.7c0.1,0.4,0.3,0.8,0.5,1.2h0
		c0.1-0.4,0.3-0.8,0.4-1.2l0.9-2.7h0.4l-1.7,4.9c-0.2,0.7-0.7,1.4-1.4,1.4C86.3,123.6,86.2,123.6,86,123.5z"/>
	<path d="M90.6,117.3h0.3l0,0.8h0c0.3-0.5,0.7-0.9,1.2-0.9c0.2,0,0.3,0,0.4,0.1l-0.1,0.4c-0.1-0.1-0.2-0.1-0.4-0.1
		c-0.4,0-0.8,0.3-1.2,1.1v2.9h-0.4V117.3z"/>
	<path d="M93.1,119.5c0-1.4,0.9-2.3,1.9-2.3c1,0,1.9,0.8,1.9,2.3c0,1.4-0.9,2.3-1.9,2.3C94,121.8,93.1,120.9,93.1,119.5z
		 M96.5,119.5c0-1.1-0.7-1.9-1.5-1.9c-0.9,0-1.5,0.8-1.5,1.9c0,1.1,0.6,1.9,1.5,1.9C95.9,121.4,96.5,120.6,96.5,119.5z"/>
	<path d="M98.3,117.3h0.3l0,0.7h0c0.4-0.4,0.9-0.8,1.4-0.8c0.7,0,1,0.4,1.2,0.9c0.5-0.5,1-0.9,1.5-0.9c0.9,0,1.3,0.5,1.3,1.7v2.8
		h-0.4v-2.7c0-0.9-0.3-1.4-1-1.4c-0.4,0-0.8,0.3-1.3,0.8v3.3h-0.4v-2.7c0-0.9-0.3-1.4-1-1.4c-0.4,0-0.8,0.3-1.3,0.8v3.3h-0.4V117.3z
		"/>
	<path d="M105.2,119.5c0-1.4,0.9-2.3,1.9-2.3c1,0,1.7,0.7,1.7,2c0,0.1,0,0.2,0,0.3h-3.1c0,1.1,0.7,1.9,1.6,1.9
		c0.5,0,0.8-0.2,1.2-0.4l0.2,0.3c-0.3,0.2-0.7,0.4-1.4,0.4C106.1,121.8,105.2,120.9,105.2,119.5z M108.4,119.2
		c0-1.1-0.5-1.7-1.3-1.7c-0.7,0-1.4,0.6-1.5,1.7H108.4z"/>
	<path d="M110,120.5v-2.8h-0.7v-0.3l0.7,0l0.1-1.3h0.3v1.3h1.3v0.3h-1.3v2.8c0,0.5,0.1,0.9,0.7,0.9c0.2,0,0.4-0.1,0.5-0.1l0.1,0.3
		c-0.3,0.1-0.5,0.2-0.7,0.2C110.2,121.8,110,121.2,110,120.5z"/>
	<path d="M112.4,120.6c0-1,0.9-1.4,2.8-1.6c0-0.7-0.2-1.4-1-1.4c-0.6,0-1.1,0.3-1.4,0.5l-0.2-0.3c0.3-0.2,0.9-0.6,1.6-0.6
		c1,0,1.4,0.7,1.4,1.7v2.8h-0.3l0-0.6h0c-0.4,0.4-1,0.7-1.5,0.7C113,121.8,112.4,121.4,112.4,120.6z M115.2,120.7v-1.5
		c-1.8,0.2-2.4,0.6-2.4,1.3c0,0.6,0.4,0.9,0.9,0.9S114.7,121.2,115.2,120.7z"/>
	<path d="M117.1,121.1v-5.9h0.4v6c0,0.2,0.1,0.3,0.2,0.3c0,0,0.1,0,0.2,0l0.1,0.3c-0.1,0-0.2,0-0.3,0
		C117.3,121.8,117.1,121.5,117.1,121.1z"/>
	<path d="M119.3,121.1v-5.9h0.4v6c0,0.2,0.1,0.3,0.2,0.3c0,0,0.1,0,0.2,0l0.1,0.3c-0.1,0-0.2,0-0.3,0
		C119.4,121.8,119.3,121.5,119.3,121.1z"/>
	<path d="M121.3,120.1v-2.8h0.4v2.7c0,0.9,0.3,1.4,1,1.4c0.5,0,0.9-0.3,1.4-0.9v-3.2h0.4v4.3h-0.3l0-0.7h0c-0.4,0.5-0.9,0.8-1.5,0.8
		C121.8,121.8,121.3,121.2,121.3,120.1z"/>
	<path d="M126.2,117.3h0.3l0,0.8h0c0.3-0.5,0.7-0.9,1.2-0.9c0.2,0,0.3,0,0.4,0.1l-0.1,0.4c-0.1-0.1-0.2-0.1-0.4-0.1
		c-0.4,0-0.8,0.3-1.2,1.1v2.9h-0.4V117.3z"/>
	<path d="M128.7,122.5c0-0.4,0.2-0.8,0.6-1v0c-0.2-0.1-0.4-0.4-0.4-0.7c0-0.4,0.3-0.7,0.5-0.8v0c-0.3-0.2-0.5-0.7-0.5-1.2
		c0-0.9,0.7-1.5,1.5-1.5c0.2,0,0.4,0.1,0.6,0.1h1.5v0.3h-1c0.3,0.2,0.5,0.6,0.5,1.1c0,0.9-0.7,1.5-1.5,1.5c-0.2,0-0.5-0.1-0.7-0.2
		c-0.2,0.2-0.4,0.3-0.4,0.6c0,0.3,0.2,0.6,0.8,0.6h0.9c1,0,1.4,0.3,1.4,1c0,0.7-0.8,1.5-2,1.5C129.3,123.7,128.7,123.3,128.7,122.5z
		 M132.1,122.3c0-0.5-0.4-0.7-1-0.7h-0.9c-0.1,0-0.3,0-0.5-0.1c-0.4,0.3-0.6,0.6-0.6,0.9c0,0.5,0.5,0.9,1.4,0.9
		C131.4,123.4,132.1,122.9,132.1,122.3z M131.5,118.7c0-0.7-0.5-1.2-1.1-1.2s-1.1,0.5-1.1,1.2c0,0.7,0.5,1.2,1.1,1.2
		C131,120,131.5,119.5,131.5,118.7z"/>
	<path d="M132.8,123.5l0.1-0.4c0.1,0,0.2,0.1,0.4,0.1c0.5,0,0.9-0.5,1.1-1.1l0.1-0.4l-1.8-4.4h0.4l1,2.7c0.1,0.4,0.3,0.8,0.5,1.2h0
		c0.1-0.4,0.3-0.8,0.4-1.2l0.9-2.7h0.4l-1.7,4.9c-0.2,0.7-0.7,1.4-1.4,1.4C133.1,123.6,132.9,123.6,132.8,123.5z"/>
</g>
<g>
	<path d="M152.6,115.7h0.4v5.9h-0.4V115.7z"/>
	<path d="M154.7,117.3h0.3l0,0.7h0c0.4-0.4,0.9-0.8,1.4-0.8c0.7,0,1,0.4,1.2,0.9c0.5-0.5,1-0.9,1.5-0.9c0.9,0,1.3,0.5,1.3,1.7v2.8
		h-0.4v-2.7c0-0.9-0.3-1.4-1-1.4c-0.4,0-0.8,0.3-1.3,0.8v3.3h-0.4v-2.7c0-0.9-0.3-1.4-1-1.4c-0.4,0-0.8,0.3-1.3,0.8v3.3h-0.4V117.3z
		"/>
	<path d="M162.1,117.3h0.3l0,0.5h0c0.4-0.3,0.9-0.6,1.5-0.6c1.2,0,1.7,0.9,1.7,2.2c0,1.5-0.9,2.3-1.9,2.3c-0.4,0-0.8-0.2-1.3-0.5
		v2.4h-0.4V117.3z M165.2,119.4c0-1.1-0.4-1.9-1.4-1.9c-0.4,0-0.9,0.3-1.4,0.7v2.6c0.5,0.4,0.9,0.6,1.3,0.6
		C164.6,121.4,165.2,120.6,165.2,119.4z"/>
	<path d="M166.6,119.5c0-1.4,0.9-2.3,1.9-2.3c1,0,1.7,0.7,1.7,2c0,0.1,0,0.2,0,0.3H167c0,1.1,0.7,1.9,1.6,1.9c0.5,0,0.8-0.2,1.2-0.4
		l0.2,0.3c-0.3,0.2-0.7,0.4-1.4,0.4C167.5,121.8,166.6,120.9,166.6,119.5z M169.7,119.2c0-1.1-0.5-1.7-1.3-1.7
		c-0.7,0-1.4,0.6-1.5,1.7H169.7z"/>
	<path d="M171.3,117.3h0.3l0,0.8h0c0.3-0.5,0.7-0.9,1.2-0.9c0.2,0,0.3,0,0.4,0.1l-0.1,0.4c-0.1-0.1-0.2-0.1-0.4-0.1
		c-0.4,0-0.8,0.3-1.2,1.1v2.9h-0.4V117.3z"/>
	<path d="M174,115.9c0-0.2,0.1-0.4,0.3-0.4s0.3,0.1,0.3,0.4c0,0.2-0.1,0.4-0.3,0.4S174,116.1,174,115.9z M174.1,117.3h0.4v4.3h-0.4
		V117.3z"/>
	<path d="M175.9,120.6c0-1,0.9-1.4,2.8-1.6c0-0.7-0.2-1.4-1-1.4c-0.6,0-1.1,0.3-1.4,0.5l-0.2-0.3c0.3-0.2,0.9-0.6,1.6-0.6
		c1,0,1.4,0.7,1.4,1.7v2.8h-0.3l0-0.6h0c-0.4,0.4-1,0.7-1.5,0.7C176.5,121.8,175.9,121.4,175.9,120.6z M178.7,120.7v-1.5
		c-1.8,0.2-2.4,0.6-2.4,1.3c0,0.6,0.4,0.9,0.9,0.9S178.2,121.2,178.7,120.7z"/>
	<path d="M180.6,121.1v-5.9h0.4v6c0,0.2,0.1,0.3,0.2,0.3c0,0,0.1,0,0.2,0l0.1,0.3c-0.1,0-0.2,0-0.3,0
		C180.8,121.8,180.6,121.5,180.6,121.1z"/>
	<path d="M184,121.2l0.2-0.3c0.4,0.3,0.8,0.5,1.4,0.5c0.7,0,1-0.4,1-0.9c0-0.5-0.6-0.8-1.1-1c-0.7-0.2-1.3-0.5-1.3-1.2
		c0-0.6,0.5-1.2,1.4-1.2c0.5,0,0.9,0.2,1.2,0.5l-0.2,0.3c-0.3-0.2-0.6-0.4-1-0.4c-0.7,0-1,0.4-1,0.8c0,0.5,0.5,0.7,1,0.9
		c0.7,0.3,1.4,0.5,1.4,1.3c0,0.6-0.5,1.2-1.5,1.2C185,121.8,184.4,121.5,184,121.2z"/>
	<path d="M188.2,117.3h0.3l0,0.7h0c0.4-0.4,0.9-0.8,1.4-0.8c0.7,0,1,0.4,1.2,0.9c0.5-0.5,1-0.9,1.5-0.9c0.9,0,1.3,0.5,1.3,1.7v2.8
		h-0.4v-2.7c0-0.9-0.3-1.4-1-1.4c-0.4,0-0.8,0.3-1.3,0.8v3.3h-0.4v-2.7c0-0.9-0.3-1.4-1-1.4c-0.4,0-0.8,0.3-1.3,0.8v3.3h-0.4V117.3z
		"/>
	<path d="M195.2,119.5c0-1.4,0.9-2.3,1.9-2.3c1,0,1.7,0.7,1.7,2c0,0.1,0,0.2,0,0.3h-3.1c0,1.1,0.7,1.9,1.6,1.9
		c0.5,0,0.8-0.2,1.2-0.4l0.2,0.3c-0.3,0.2-0.7,0.4-1.4,0.4C196,121.8,195.2,120.9,195.2,119.5z M198.3,119.2c0-1.1-0.5-1.7-1.3-1.7
		c-0.7,0-1.4,0.6-1.5,1.7H198.3z"/>
	<path d="M199.9,121.1v-5.9h0.4v6c0,0.2,0.1,0.3,0.2,0.3c0,0,0.1,0,0.2,0l0.1,0.3c-0.1,0-0.2,0-0.3,0
		C200,121.8,199.9,121.5,199.9,121.1z"/>
	<path d="M202.1,120.5v-2.8h-0.7v-0.3l0.7,0l0.1-1.3h0.3v1.3h1.3v0.3h-1.3v2.8c0,0.5,0.1,0.9,0.7,0.9c0.2,0,0.4-0.1,0.5-0.1l0.1,0.3
		c-0.3,0.1-0.5,0.2-0.7,0.2C202.3,121.8,202.1,121.2,202.1,120.5z"/>
	<path d="M204.7,115.9c0-0.2,0.1-0.4,0.3-0.4s0.3,0.1,0.3,0.4c0,0.2-0.1,0.4-0.3,0.4S204.7,116.1,204.7,115.9z M204.8,117.3h0.4v4.3
		h-0.4V117.3z"/>
	<path d="M206.9,117.3h0.3l0,0.7h0c0.4-0.4,0.9-0.8,1.5-0.8c0.9,0,1.3,0.5,1.3,1.7v2.8h-0.4v-2.7c0-0.9-0.3-1.4-1-1.4
		c-0.5,0-0.9,0.3-1.4,0.8v3.3h-0.4V117.3z"/>
	<path d="M211.3,122.5c0-0.4,0.2-0.8,0.6-1v0c-0.2-0.1-0.4-0.4-0.4-0.7c0-0.4,0.3-0.7,0.5-0.8v0c-0.3-0.2-0.5-0.7-0.5-1.2
		c0-0.9,0.7-1.5,1.5-1.5c0.2,0,0.4,0.1,0.6,0.1h1.5v0.3h-1c0.3,0.2,0.5,0.6,0.5,1.1c0,0.9-0.7,1.5-1.5,1.5c-0.2,0-0.5-0.1-0.7-0.2
		c-0.2,0.2-0.4,0.3-0.4,0.6c0,0.3,0.2,0.6,0.8,0.6h0.9c1,0,1.4,0.3,1.4,1c0,0.7-0.8,1.5-2,1.5C212,123.7,211.3,123.3,211.3,122.5z
		 M214.7,122.3c0-0.5-0.4-0.7-1-0.7h-0.9c-0.1,0-0.3,0-0.5-0.1c-0.4,0.3-0.6,0.6-0.6,0.9c0,0.5,0.5,0.9,1.4,0.9
		C214.1,123.4,214.7,122.9,214.7,122.3z M214.1,118.7c0-0.7-0.5-1.2-1.1-1.2s-1.1,0.5-1.1,1.2c0,0.7,0.5,1.2,1.1,1.2
		C213.6,120,214.1,119.5,214.1,118.7z"/>
</g>
<g>
	<path d="M364.8,118.7c0-1.9,1-3.1,2.5-3.1c0.7,0,1.2,0.3,1.5,0.7l-0.2,0.3c-0.3-0.4-0.8-0.6-1.3-0.6c-1.3,0-2.1,1-2.1,2.7
		s0.8,2.7,2.1,2.7c0.6,0,1.1-0.3,1.5-0.7l0.2,0.3c-0.5,0.5-1,0.8-1.8,0.8C365.9,121.8,364.8,120.6,364.8,118.7z"/>
	<path d="M370.3,115.2h0.4v2.8c0.5-0.5,0.9-0.8,1.5-0.8c0.9,0,1.3,0.5,1.3,1.7v2.8h-0.4v-2.7c0-0.9-0.3-1.4-1-1.4
		c-0.5,0-0.9,0.3-1.4,0.8v3.3h-0.4V115.2z"/>
	<path d="M374.7,120.6c0-1,0.9-1.4,2.8-1.6c0-0.7-0.2-1.4-1-1.4c-0.6,0-1.1,0.3-1.4,0.5l-0.2-0.3c0.3-0.2,0.9-0.6,1.6-0.6
		c1,0,1.4,0.7,1.4,1.7v2.8h-0.3l0-0.6h0c-0.4,0.4-1,0.7-1.5,0.7C375.3,121.8,374.7,121.4,374.7,120.6z M377.5,120.7v-1.5
		c-1.8,0.2-2.4,0.6-2.4,1.3c0,0.6,0.4,0.9,0.9,0.9S377,121.2,377.5,120.7z"/>
	<path d="M379.4,117.3h0.3l0,0.7h0c0.4-0.4,0.9-0.8,1.5-0.8c0.9,0,1.3,0.5,1.3,1.7v2.8h-0.4v-2.7c0-0.9-0.3-1.4-1-1.4
		c-0.5,0-0.9,0.3-1.4,0.8v3.3h-0.4V117.3z"/>
	<path d="M383.9,119.5c0-1.4,0.9-2.3,1.9-2.3c0.5,0,0.9,0.2,1.3,0.5l0-0.8v-1.8h0.4v6.5h-0.3l0-0.6h0c-0.4,0.4-0.8,0.7-1.4,0.7
		C384.6,121.8,383.9,121,383.9,119.5z M387.1,120.7v-2.6c-0.5-0.4-0.8-0.6-1.3-0.6c-0.9,0-1.5,0.8-1.5,1.9c0,1.1,0.5,1.9,1.4,1.9
		C386.2,121.4,386.6,121.2,387.1,120.7z"/>
	<path d="M388.8,119.5c0-1.4,0.9-2.3,1.9-2.3c1,0,1.7,0.7,1.7,2c0,0.1,0,0.2,0,0.3h-3.1c0,1.1,0.7,1.9,1.6,1.9
		c0.5,0,0.8-0.2,1.2-0.4l0.2,0.3c-0.3,0.2-0.7,0.4-1.4,0.4C389.6,121.8,388.8,120.9,388.8,119.5z M391.9,119.2
		c0-1.1-0.5-1.7-1.3-1.7c-0.7,0-1.4,0.6-1.5,1.7H391.9z"/>
	<path d="M393.5,117.3h0.3l0,0.8h0c0.3-0.5,0.7-0.9,1.2-0.9c0.2,0,0.3,0,0.4,0.1l-0.1,0.4c-0.1-0.1-0.2-0.1-0.4-0.1
		c-0.4,0-0.8,0.3-1.2,1.1v2.9h-0.4V117.3z"/>
	<path d="M396.2,115.9c0-0.2,0.1-0.4,0.3-0.4s0.3,0.1,0.3,0.4c0,0.2-0.1,0.4-0.3,0.4S396.2,116.1,396.2,115.9z M396.3,117.3h0.4v4.3
		h-0.4V117.3z"/>
	<path d="M397.8,123.5l0.1-0.4c0.1,0,0.2,0.1,0.4,0.1c0.5,0,0.9-0.5,1.1-1.1l0.1-0.4l-1.8-4.4h0.4l1,2.7c0.1,0.4,0.3,0.8,0.5,1.2h0
		c0.1-0.4,0.3-0.8,0.4-1.2l0.9-2.7h0.4l-1.7,4.9c-0.2,0.7-0.7,1.4-1.4,1.4C398,123.6,397.9,123.6,397.8,123.5z"/>
	<path d="M402,120.6c0-1,0.9-1.4,2.8-1.6c0-0.7-0.2-1.4-1-1.4c-0.6,0-1.1,0.3-1.4,0.5l-0.2-0.3c0.3-0.2,0.9-0.6,1.6-0.6
		c1,0,1.4,0.7,1.4,1.7v2.8h-0.3l0-0.6h0c-0.4,0.4-1,0.7-1.5,0.7C402.6,121.8,402,121.4,402,120.6z M404.8,120.7v-1.5
		c-1.8,0.2-2.4,0.6-2.4,1.3c0,0.6,0.4,0.9,0.9,0.9S404.2,121.2,404.8,120.7z"/>
</g>
<g>
	<path d="M480,121l0.2-0.3c0.3,0.4,0.8,0.7,1.6,0.7c0.8,0,1.3-0.5,1.3-1.3c0-0.8-0.6-1.3-2-1.3v-0.4c1.3,0,1.8-0.6,1.8-1.3
		c0-0.6-0.5-1.1-1.2-1.1c-0.5,0-1,0.3-1.3,0.6l-0.2-0.3c0.4-0.4,0.9-0.7,1.6-0.7c0.9,0,1.6,0.5,1.6,1.4c0,0.8-0.5,1.2-1.1,1.4v0
		c0.7,0.2,1.3,0.7,1.3,1.5c0,1-0.8,1.6-1.8,1.6C480.9,121.8,480.4,121.3,480,121z"/>
	<path d="M484.3,121l0.2-0.3c0.3,0.4,0.8,0.7,1.6,0.7c0.8,0,1.4-0.6,1.4-1.5c0-0.9-0.5-1.5-1.4-1.5c-0.4,0-0.7,0.2-1.1,0.4l-0.3-0.2
		l0.2-2.7h2.7v0.4h-2.3l-0.2,2.1c0.3-0.2,0.6-0.3,1-0.3c1,0,1.8,0.6,1.8,1.8c0,1.2-0.9,1.9-1.8,1.9
		C485.2,121.8,484.6,121.4,484.3,121z"/>
	<path d="M488.8,122.8c0.4-0.2,0.7-0.6,0.7-1.1c0,0-0.1,0-0.1,0c-0.2,0-0.4-0.1-0.4-0.4s0.2-0.4,0.4-0.4c0.3,0,0.5,0.2,0.5,0.6
		c0,0.7-0.4,1.2-0.9,1.5L488.8,122.8z"/>
	<path d="M490.8,118.8c0-1.9,0.6-3,1.7-3c1.1,0,1.7,1.1,1.7,3c0,1.9-0.6,3-1.7,3C491.4,121.8,490.8,120.7,490.8,118.8z M493.8,118.8
		c0-1.8-0.5-2.6-1.3-2.6c-0.8,0-1.3,0.9-1.3,2.6c0,1.8,0.5,2.7,1.3,2.7C493.3,121.4,493.8,120.5,493.8,118.8z"/>
	<path d="M495.1,118.8c0-1.9,0.6-3,1.7-3c1.1,0,1.7,1.1,1.7,3c0,1.9-0.6,3-1.7,3C495.7,121.8,495.1,120.7,495.1,118.8z M498.1,118.8
		c0-1.8-0.5-2.6-1.3-2.6c-0.8,0-1.3,0.9-1.3,2.6c0,1.8,0.5,2.7,1.3,2.7C497.6,121.4,498.1,120.5,498.1,118.8z"/>
	<path d="M499.4,118.8c0-1.9,0.6-3,1.7-3c1.1,0,1.7,1.1,1.7,3c0,1.9-0.6,3-1.7,3C500,121.8,499.4,120.7,499.4,118.8z M502.4,118.8
		c0-1.8-0.5-2.6-1.3-2.6c-0.8,0-1.3,0.9-1.3,2.6c0,1.8,0.5,2.7,1.3,2.7C501.9,121.4,502.4,120.5,502.4,118.8z"/>
</g>
<g>
	<path d="M153.9,128.1h0.4l2.1,5.9H156l-0.7-2h-2.3l-0.7,2h-0.4L153.9,128.1z M153.1,131.7h2.1l-0.4-1.1c-0.2-0.7-0.5-1.3-0.7-2.1h0
		c-0.2,0.7-0.4,1.4-0.7,2.1L153.1,131.7z"/>
	<path d="M157.3,132.5v-2.8h0.4v2.7c0,0.9,0.3,1.4,1,1.4c0.5,0,0.9-0.3,1.4-0.9v-3.2h0.4v4.3h-0.3l0-0.7h0c-0.4,0.5-0.9,0.8-1.5,0.8
		C157.7,134.2,157.3,133.6,157.3,132.5z"/>
	<path d="M161.5,133.6l0.2-0.3c0.4,0.3,0.8,0.5,1.4,0.5c0.7,0,1-0.4,1-0.9c0-0.5-0.6-0.8-1.1-1c-0.7-0.2-1.3-0.5-1.3-1.2
		c0-0.6,0.5-1.2,1.4-1.2c0.5,0,0.9,0.2,1.2,0.5l-0.2,0.3c-0.3-0.2-0.6-0.4-1-0.4c-0.7,0-1,0.4-1,0.8c0,0.5,0.5,0.7,1,0.9
		c0.7,0.3,1.4,0.5,1.4,1.3c0,0.6-0.5,1.2-1.5,1.2C162.5,134.2,161.9,133.9,161.5,133.6z"/>
	<path d="M165.7,129.8h0.3l0,0.7h0c0.4-0.4,0.9-0.8,1.4-0.8c0.7,0,1,0.4,1.2,0.9c0.5-0.5,1-0.9,1.5-0.9c0.9,0,1.3,0.5,1.3,1.7v2.8
		H171v-2.7c0-0.9-0.3-1.4-1-1.4c-0.4,0-0.8,0.3-1.3,0.8v3.3h-0.4v-2.7c0-0.9-0.3-1.4-1-1.4c-0.4,0-0.8,0.3-1.3,0.8v3.3h-0.4V129.8z"
		/>
	<path d="M172.7,131.9c0-1.4,0.9-2.3,1.9-2.3c1,0,1.7,0.7,1.7,2c0,0.1,0,0.2,0,0.3h-3.1c0,1.1,0.7,1.9,1.6,1.9
		c0.5,0,0.8-0.2,1.2-0.4l0.2,0.3c-0.3,0.2-0.7,0.4-1.4,0.4C173.6,134.2,172.7,133.3,172.7,131.9z M175.8,131.6
		c0-1.1-0.5-1.7-1.3-1.7c-0.7,0-1.4,0.6-1.5,1.7H175.8z"/>
	<path d="M177.4,133.5v-5.9h0.4v6c0,0.2,0.1,0.3,0.2,0.3c0,0,0.1,0,0.2,0l0.1,0.3c-0.1,0-0.2,0-0.3,0
		C177.6,134.2,177.4,134,177.4,133.5z"/>
	<path d="M179.6,132.9v-2.8h-0.7v-0.3l0.7,0l0.1-1.3h0.3v1.3h1.3v0.3H180v2.8c0,0.5,0.1,0.9,0.7,0.9c0.2,0,0.4-0.1,0.5-0.1l0.1,0.3
		c-0.3,0.1-0.5,0.2-0.7,0.2C179.9,134.2,179.6,133.7,179.6,132.9z"/>
	<path d="M185.4,128.5h-1.9v-0.4h4.2v0.4h-1.9v5.6h-0.4V128.5z"/>
	<path d="M188.5,131.9c0-1.5,0.9-2.3,1.9-2.3c1,0,1.9,0.8,1.9,2.3c0,1.4-0.9,2.3-1.9,2.3C189.4,134.2,188.5,133.4,188.5,131.9z
		 M191.9,131.9c0-1.1-0.7-1.9-1.5-1.9c-0.9,0-1.5,0.8-1.5,1.9c0,1.1,0.6,1.9,1.5,1.9C191.3,133.8,191.9,133.1,191.9,131.9z"/>
	<path d="M193.7,129.8h0.3l0,0.5h0c0.4-0.3,0.9-0.6,1.5-0.6c1.2,0,1.7,0.9,1.7,2.2c0,1.5-0.9,2.3-1.9,2.3c-0.4,0-0.8-0.2-1.3-0.5
		v2.4h-0.4V129.8z M196.8,131.8c0-1.1-0.4-1.9-1.4-1.9c-0.4,0-0.9,0.3-1.4,0.7v2.6c0.5,0.4,0.9,0.6,1.3,0.6
		C196.2,133.8,196.8,133,196.8,131.8z"/>
	<path d="M199.9,133.3l0.3-0.3c0.4,0.5,1.1,0.8,1.7,0.8c0.9,0,1.5-0.5,1.5-1.2c0-0.7-0.5-1-1.1-1.2l-0.9-0.4
		c-0.5-0.2-1.2-0.6-1.2-1.5c0-0.9,0.7-1.5,1.7-1.5c0.7,0,1.3,0.3,1.6,0.7l-0.2,0.3c-0.4-0.4-0.8-0.6-1.4-0.6c-0.8,0-1.3,0.4-1.3,1.1
		c0,0.7,0.6,0.9,1,1.1l0.9,0.4c0.7,0.3,1.3,0.7,1.3,1.6s-0.7,1.6-1.9,1.6C201.1,134.2,200.4,133.8,199.9,133.3z"/>
	<path d="M205,132.5v-2.8h0.4v2.7c0,0.9,0.3,1.4,1,1.4c0.5,0,0.9-0.3,1.4-0.9v-3.2h0.4v4.3h-0.3l0-0.7h0c-0.4,0.5-0.9,0.8-1.5,0.8
		C205.4,134.2,205,133.6,205,132.5z"/>
	<path d="M210.2,133.6L210.2,133.6l-0.1,0.4h-0.3v-6.5h0.4v1.9l0,0.8c0.4-0.4,1-0.7,1.5-0.7c1.2,0,1.7,0.9,1.7,2.2
		c0,1.5-0.9,2.3-1.9,2.3C211.1,134.2,210.6,134,210.2,133.6z M213,131.8c0-1.1-0.4-1.9-1.4-1.9c-0.4,0-0.9,0.3-1.4,0.7v2.6
		c0.5,0.4,0.9,0.6,1.3,0.6C212.3,133.8,213,133,213,131.8z"/>
	<path d="M214.7,129.8h0.3l0,0.7h0c0.4-0.4,0.9-0.8,1.4-0.8c0.7,0,1,0.4,1.2,0.9c0.5-0.5,1-0.9,1.5-0.9c0.9,0,1.3,0.5,1.3,1.7v2.8
		H220v-2.7c0-0.9-0.3-1.4-1-1.4c-0.4,0-0.8,0.3-1.3,0.8v3.3h-0.4v-2.7c0-0.9-0.3-1.4-1-1.4c-0.4,0-0.8,0.3-1.3,0.8v3.3h-0.4V129.8z"
		/>
	<path d="M221.6,131.9c0-1.4,0.9-2.3,1.9-2.3c1,0,1.7,0.7,1.7,2c0,0.1,0,0.2,0,0.3H222c0,1.1,0.7,1.9,1.6,1.9c0.5,0,0.8-0.2,1.2-0.4
		l0.2,0.3c-0.3,0.2-0.7,0.4-1.4,0.4C222.5,134.2,221.6,133.3,221.6,131.9z M224.8,131.6c0-1.1-0.5-1.7-1.3-1.7
		c-0.7,0-1.4,0.6-1.5,1.7H224.8z"/>
	<path d="M226.3,129.8h0.3l0,0.8h0c0.3-0.5,0.7-0.9,1.2-0.9c0.2,0,0.3,0,0.4,0.1l-0.1,0.4c-0.1-0.1-0.2-0.1-0.4-0.1
		c-0.4,0-0.8,0.3-1.2,1.1v2.9h-0.4V129.8z"/>
	<path d="M228.8,135c0-0.4,0.2-0.8,0.6-1v0c-0.2-0.1-0.4-0.4-0.4-0.7c0-0.4,0.3-0.7,0.5-0.8v0c-0.3-0.2-0.5-0.7-0.5-1.2
		c0-0.9,0.7-1.5,1.5-1.5c0.2,0,0.4,0.1,0.6,0.1h1.5v0.3h-1c0.3,0.2,0.5,0.6,0.5,1.1c0,0.9-0.7,1.5-1.5,1.5c-0.2,0-0.5-0.1-0.7-0.2
		c-0.2,0.2-0.4,0.3-0.4,0.6c0,0.3,0.2,0.6,0.8,0.6h0.9c1,0,1.4,0.3,1.4,1c0,0.7-0.8,1.5-2,1.5C229.5,136.2,228.8,135.7,228.8,135z
		 M232.2,134.7c0-0.5-0.4-0.7-1-0.7h-0.9c-0.1,0-0.3,0-0.5-0.1c-0.4,0.3-0.6,0.6-0.6,0.9c0,0.5,0.5,0.9,1.4,0.9
		C231.6,135.8,232.2,135.3,232.2,134.7z M231.6,131.2c0-0.7-0.5-1.2-1.1-1.2s-1.1,0.5-1.1,1.2c0,0.7,0.5,1.2,1.1,1.2
		C231.1,132.4,231.6,131.9,231.6,131.2z"/>
	<path d="M233.2,131.9c0-1.4,0.9-2.3,1.9-2.3c1,0,1.7,0.7,1.7,2c0,0.1,0,0.2,0,0.3h-3.1c0,1.1,0.7,1.9,1.6,1.9
		c0.5,0,0.8-0.2,1.2-0.4l0.2,0.3c-0.3,0.2-0.7,0.4-1.4,0.4C234.1,134.2,233.2,133.3,233.2,131.9z M236.4,131.6
		c0-1.1-0.5-1.7-1.3-1.7c-0.7,0-1.4,0.6-1.5,1.7H236.4z"/>
	<path d="M237.6,131.9c0-1.4,0.9-2.3,1.9-2.3c0.5,0,0.9,0.2,1.3,0.5l0-0.8v-1.8h0.4v6.5h-0.3l0-0.6h0c-0.4,0.4-0.8,0.7-1.4,0.7
		C238.3,134.2,237.6,133.4,237.6,131.9z M240.8,133.1v-2.6c-0.5-0.4-0.8-0.6-1.3-0.6c-0.9,0-1.5,0.8-1.5,1.9c0,1.1,0.5,1.9,1.4,1.9
		C239.9,133.8,240.3,133.6,240.8,133.1z"/>
	<path d="M244.7,128.1h0.4v5.6h2.7v0.4h-3.2V128.1z"/>
	<path d="M248.5,133c0-1,0.9-1.4,2.8-1.6c0-0.7-0.2-1.4-1-1.4c-0.6,0-1.1,0.3-1.4,0.5l-0.2-0.3c0.3-0.2,0.9-0.6,1.6-0.6
		c1,0,1.4,0.7,1.4,1.7v2.8h-0.3l0-0.6h0c-0.4,0.4-1,0.7-1.5,0.7C249.1,134.2,248.5,133.8,248.5,133z M251.3,133.1v-1.5
		c-1.8,0.2-2.4,0.6-2.4,1.3c0,0.6,0.4,0.9,0.9,0.9S250.8,133.6,251.3,133.1z"/>
	<path d="M253.2,129.8h0.3l0,0.7h0c0.4-0.4,0.9-0.8,1.5-0.8c0.9,0,1.3,0.5,1.3,1.7v2.8H256v-2.7c0-0.9-0.3-1.4-1-1.4
		c-0.5,0-0.9,0.3-1.4,0.8v3.3h-0.4V129.8z"/>
	<path d="M257.7,131.9c0-1.5,0.9-2.3,2-2.3c0.6,0,1,0.3,1.3,0.5l-0.2,0.3c-0.3-0.3-0.6-0.5-1-0.5c-0.9,0-1.6,0.8-1.6,1.9
		c0,1.1,0.6,1.9,1.6,1.9c0.5,0,0.9-0.2,1.2-0.5l0.2,0.3c-0.4,0.3-0.8,0.6-1.4,0.6C258.5,134.2,257.7,133.4,257.7,131.9z"/>
	<path d="M261.7,131.9c0-1.4,0.9-2.3,1.9-2.3c1,0,1.7,0.7,1.7,2c0,0.1,0,0.2,0,0.3h-3.1c0,1.1,0.7,1.9,1.6,1.9
		c0.5,0,0.8-0.2,1.2-0.4l0.2,0.3c-0.3,0.2-0.7,0.4-1.4,0.4C262.6,134.2,261.7,133.3,261.7,131.9z M264.9,131.6
		c0-1.1-0.5-1.7-1.3-1.7c-0.7,0-1.4,0.6-1.5,1.7H264.9z"/>
</g>
<g>
	<path d="M364.8,131.1c0-1.9,1-3.1,2.5-3.1c0.7,0,1.2,0.3,1.5,0.7l-0.2,0.3c-0.3-0.4-0.8-0.6-1.3-0.6c-1.3,0-2.1,1-2.1,2.7
		s0.8,2.7,2.1,2.7c0.6,0,1.1-0.3,1.5-0.7l0.2,0.3c-0.5,0.5-1,0.8-1.8,0.8C365.9,134.2,364.8,133,364.8,131.1z"/>
	<path d="M370.3,127.6h0.4v2.8c0.5-0.5,0.9-0.8,1.5-0.8c0.9,0,1.3,0.5,1.3,1.7v2.8h-0.4v-2.7c0-0.9-0.3-1.4-1-1.4
		c-0.5,0-0.9,0.3-1.4,0.8v3.3h-0.4V127.6z"/>
	<path d="M374.7,133c0-1,0.9-1.4,2.8-1.6c0-0.7-0.2-1.4-1-1.4c-0.6,0-1.1,0.3-1.4,0.5l-0.2-0.3c0.3-0.2,0.9-0.6,1.6-0.6
		c1,0,1.4,0.7,1.4,1.7v2.8h-0.3l0-0.6h0c-0.4,0.4-1,0.7-1.5,0.7C375.3,134.2,374.7,133.8,374.7,133z M377.5,133.1v-1.5
		c-1.8,0.2-2.4,0.6-2.4,1.3c0,0.6,0.4,0.9,0.9,0.9S377,133.6,377.5,133.1z"/>
	<path d="M379.4,129.8h0.3l0,0.7h0c0.4-0.4,0.9-0.8,1.5-0.8c0.9,0,1.3,0.5,1.3,1.7v2.8h-0.4v-2.7c0-0.9-0.3-1.4-1-1.4
		c-0.5,0-0.9,0.3-1.4,0.8v3.3h-0.4V129.8z"/>
	<path d="M383.9,131.9c0-1.4,0.9-2.3,1.9-2.3c0.5,0,0.9,0.2,1.3,0.5l0-0.8v-1.8h0.4v6.5h-0.3l0-0.6h0c-0.4,0.4-0.8,0.7-1.4,0.7
		C384.6,134.2,383.9,133.4,383.9,131.9z M387.1,133.1v-2.6c-0.5-0.4-0.8-0.6-1.3-0.6c-0.9,0-1.5,0.8-1.5,1.9c0,1.1,0.5,1.9,1.4,1.9
		C386.2,133.8,386.6,133.6,387.1,133.1z"/>
	<path d="M388.8,131.9c0-1.4,0.9-2.3,1.9-2.3c1,0,1.7,0.7,1.7,2c0,0.1,0,0.2,0,0.3h-3.1c0,1.1,0.7,1.9,1.6,1.9
		c0.5,0,0.8-0.2,1.2-0.4l0.2,0.3c-0.3,0.2-0.7,0.4-1.4,0.4C389.6,134.2,388.8,133.3,388.8,131.9z M391.9,131.6
		c0-1.1-0.5-1.7-1.3-1.7c-0.7,0-1.4,0.6-1.5,1.7H391.9z"/>
	<path d="M393.5,129.8h0.3l0,0.8h0c0.3-0.5,0.7-0.9,1.2-0.9c0.2,0,0.3,0,0.4,0.1l-0.1,0.4c-0.1-0.1-0.2-0.1-0.4-0.1
		c-0.4,0-0.8,0.3-1.2,1.1v2.9h-0.4V129.8z"/>
	<path d="M396.2,128.3c0-0.2,0.1-0.4,0.3-0.4s0.3,0.1,0.3,0.4c0,0.2-0.1,0.4-0.3,0.4S396.2,128.6,396.2,128.3z M396.3,129.8h0.4v4.3
		h-0.4V129.8z"/>
	<path d="M397.8,136l0.1-0.4c0.1,0,0.2,0.1,0.4,0.1c0.5,0,0.9-0.5,1.1-1.1l0.1-0.4l-1.8-4.4h0.4l1,2.7c0.1,0.4,0.3,0.8,0.5,1.2h0
		c0.1-0.4,0.3-0.8,0.4-1.2l0.9-2.7h0.4l-1.7,4.9c-0.2,0.7-0.7,1.4-1.4,1.4C398,136,397.9,136,397.8,136z"/>
	<path d="M402,133c0-1,0.9-1.4,2.8-1.6c0-0.7-0.2-1.4-1-1.4c-0.6,0-1.1,0.3-1.4,0.5l-0.2-0.3c0.3-0.2,0.9-0.6,1.6-0.6
		c1,0,1.4,0.7,1.4,1.7v2.8h-0.3l0-0.6h0c-0.4,0.4-1,0.7-1.5,0.7C402.6,134.2,402,133.8,402,133z M404.8,133.1v-1.5
		c-1.8,0.2-2.4,0.6-2.4,1.3c0,0.6,0.4,0.9,0.9,0.9S404.2,133.6,404.8,133.1z"/>
</g>
<g>
	<path d="M480,133.4l0.2-0.3c0.3,0.4,0.8,0.7,1.6,0.7c0.8,0,1.4-0.6,1.4-1.5c0-0.9-0.5-1.5-1.4-1.5c-0.4,0-0.7,0.2-1.1,0.4l-0.3-0.2
		l0.2-2.7h2.7v0.4H481l-0.2,2.1c0.3-0.2,0.6-0.3,1-0.3c1,0,1.8,0.6,1.8,1.8c0,1.2-0.9,1.9-1.8,1.9
		C480.9,134.2,480.3,133.8,480,133.4z"/>
	<path d="M484.5,131.2c0-1.9,0.6-3,1.7-3c1.1,0,1.7,1.1,1.7,3c0,1.9-0.6,3-1.7,3C485.1,134.2,484.5,133.1,484.5,131.2z M487.5,131.2
		c0-1.8-0.5-2.6-1.3-2.6c-0.8,0-1.3,0.9-1.3,2.6c0,1.8,0.5,2.7,1.3,2.7C487,133.8,487.5,132.9,487.5,131.2z"/>
	<path d="M488.8,135.2c0.4-0.2,0.7-0.6,0.7-1.1c0,0-0.1,0-0.1,0c-0.2,0-0.4-0.1-0.4-0.4s0.2-0.4,0.4-0.4c0.3,0,0.5,0.2,0.5,0.6
		c0,0.7-0.4,1.2-0.9,1.5L488.8,135.2z"/>
	<path d="M490.8,131.2c0-1.9,0.6-3,1.7-3c1.1,0,1.7,1.1,1.7,3c0,1.9-0.6,3-1.7,3C491.4,134.2,490.8,133.1,490.8,131.2z M493.8,131.2
		c0-1.8-0.5-2.6-1.3-2.6c-0.8,0-1.3,0.9-1.3,2.6c0,1.8,0.5,2.7,1.3,2.7C493.3,133.8,493.8,132.9,493.8,131.2z"/>
	<path d="M495.1,131.2c0-1.9,0.6-3,1.7-3c1.1,0,1.7,1.1,1.7,3c0,1.9-0.6,3-1.7,3C495.7,134.2,495.1,133.1,495.1,131.2z M498.1,131.2
		c0-1.8-0.5-2.6-1.3-2.6c-0.8,0-1.3,0.9-1.3,2.6c0,1.8,0.5,2.7,1.3,2.7C497.6,133.8,498.1,132.9,498.1,131.2z"/>
	<path d="M499.4,131.2c0-1.9,0.6-3,1.7-3c1.1,0,1.7,1.1,1.7,3c0,1.9-0.6,3-1.7,3C500,134.2,499.4,133.1,499.4,131.2z M502.4,131.2
		c0-1.8-0.5-2.6-1.3-2.6c-0.8,0-1.3,0.9-1.3,2.6c0,1.8,0.5,2.7,1.3,2.7C501.9,133.8,502.4,132.9,502.4,131.2z"/>
</g>
<g>
	<path d="M152.2,145.7l0.3-0.3c0.4,0.5,1.1,0.8,1.7,0.8c0.9,0,1.5-0.5,1.5-1.2c0-0.7-0.5-1-1.1-1.2l-0.9-0.4
		c-0.5-0.2-1.2-0.6-1.2-1.5c0-0.9,0.7-1.5,1.7-1.5c0.7,0,1.3,0.3,1.6,0.7l-0.2,0.3c-0.4-0.4-0.8-0.6-1.4-0.6c-0.8,0-1.3,0.4-1.3,1.1
		c0,0.7,0.6,0.9,1,1.1l0.9,0.4c0.7,0.3,1.3,0.7,1.3,1.6s-0.7,1.6-1.9,1.6C153.3,146.6,152.6,146.2,152.2,145.7z"/>
	<path d="M157.3,140.6h0.4v3.3h0l2.9-3.3h0.5l-1.9,2.2l2.2,3.7h-0.5l-2-3.4l-1.2,1.4v2h-0.4V140.6z"/>
	<path d="M161.9,145.7l0.3-0.3c0.4,0.5,1.1,0.8,1.7,0.8c0.9,0,1.5-0.5,1.5-1.2c0-0.7-0.5-1-1.1-1.2l-0.9-0.4
		c-0.5-0.2-1.2-0.6-1.2-1.5c0-0.9,0.7-1.5,1.7-1.5c0.7,0,1.3,0.3,1.6,0.7l-0.2,0.3c-0.4-0.4-0.8-0.6-1.4-0.6c-0.8,0-1.3,0.4-1.3,1.1
		c0,0.7,0.6,0.9,1,1.1l0.9,0.4c0.7,0.3,1.3,0.7,1.3,1.6s-0.7,1.6-1.9,1.6C163,146.6,162.3,146.2,161.9,145.7z"/>
	<path d="M166.6,147.6c0.4-0.2,0.7-0.6,0.7-1.1c0,0-0.1,0-0.1,0c-0.2,0-0.4-0.1-0.4-0.4s0.2-0.4,0.4-0.4c0.3,0,0.5,0.2,0.5,0.6
		c0,0.7-0.4,1.2-0.9,1.5L166.6,147.6z"/>
	<path d="M171.2,146.1L171.2,146.1l-0.1,0.4h-0.3V140h0.4v1.9l0,0.8c0.4-0.4,1-0.7,1.5-0.7c1.2,0,1.7,0.9,1.7,2.2
		c0,1.5-0.9,2.3-1.9,2.3C172,146.6,171.6,146.4,171.2,146.1z M173.9,144.3c0-1.1-0.4-1.9-1.4-1.9c-0.4,0-0.9,0.3-1.4,0.7v2.6
		c0.5,0.4,0.9,0.6,1.3,0.6C173.3,146.2,173.9,145.4,173.9,144.3z"/>
	<path d="M175.3,144.3c0-1.4,0.9-2.3,1.9-2.3c1,0,1.9,0.8,1.9,2.3c0,1.4-0.9,2.3-1.9,2.3C176.2,146.6,175.3,145.8,175.3,144.3z
		 M178.7,144.3c0-1.1-0.7-1.9-1.5-1.9c-0.9,0-1.5,0.8-1.5,1.9c0,1.1,0.6,1.9,1.5,1.9C178.1,146.2,178.7,145.5,178.7,144.3z"/>
	<path d="M180.5,145.3v-2.8h-0.7v-0.3l0.7,0l0.1-1.3h0.3v1.3h1.3v0.3H181v2.8c0,0.5,0.1,0.9,0.7,0.9c0.2,0,0.4-0.1,0.5-0.1l0.1,0.3
		c-0.3,0.1-0.5,0.2-0.7,0.2C180.8,146.6,180.5,146.1,180.5,145.3z"/>
	<path d="M183.4,145.3v-2.8h-0.7v-0.3l0.7,0l0.1-1.3h0.3v1.3h1.3v0.3h-1.3v2.8c0,0.5,0.1,0.9,0.7,0.9c0.2,0,0.4-0.1,0.5-0.1l0.1,0.3
		c-0.3,0.1-0.5,0.2-0.7,0.2C183.6,146.6,183.4,146.1,183.4,145.3z"/>
	<path d="M185.7,144.3c0-1.4,0.9-2.3,1.9-2.3c1,0,1.9,0.8,1.9,2.3c0,1.4-0.9,2.3-1.9,2.3C186.6,146.6,185.7,145.8,185.7,144.3z
		 M189.2,144.3c0-1.1-0.7-1.9-1.5-1.9c-0.9,0-1.5,0.8-1.5,1.9c0,1.1,0.6,1.9,1.5,1.9C188.5,146.2,189.2,145.5,189.2,144.3z"/>
	<path d="M190.9,142.2h0.3l0,0.7h0c0.4-0.4,0.9-0.8,1.4-0.8c0.7,0,1,0.4,1.2,0.9c0.5-0.5,1-0.9,1.5-0.9c0.9,0,1.3,0.5,1.3,1.7v2.8
		h-0.4v-2.7c0-0.9-0.3-1.4-1-1.4c-0.4,0-0.8,0.3-1.3,0.8v3.3h-0.4v-2.7c0-0.9-0.3-1.4-1-1.4c-0.4,0-0.8,0.3-1.3,0.8v3.3h-0.4V142.2z
		"/>
	<path d="M200.4,146.1L200.4,146.1l-0.1,0.4H200V140h0.4v1.9l0,0.8c0.4-0.4,1-0.7,1.5-0.7c1.2,0,1.7,0.9,1.7,2.2
		c0,1.5-0.9,2.3-1.9,2.3C201.3,146.6,200.8,146.4,200.4,146.1z M203.2,144.3c0-1.1-0.4-1.9-1.4-1.9c-0.4,0-0.9,0.3-1.4,0.7v2.6
		c0.5,0.4,0.9,0.6,1.3,0.6C202.5,146.2,203.2,145.4,203.2,144.3z"/>
	<path d="M204.9,145.9V140h0.4v6c0,0.2,0.1,0.3,0.2,0.3c0,0,0.1,0,0.2,0l0.1,0.3c-0.1,0-0.2,0-0.3,0
		C205,146.6,204.9,146.4,204.9,145.9z"/>
	<path d="M206.6,144.3c0-1.4,0.9-2.3,1.9-2.3c1,0,1.9,0.8,1.9,2.3c0,1.4-0.9,2.3-1.9,2.3C207.5,146.6,206.6,145.8,206.6,144.3z
		 M210.1,144.3c0-1.1-0.7-1.9-1.5-1.9c-0.9,0-1.5,0.8-1.5,1.9c0,1.1,0.6,1.9,1.5,1.9C209.4,146.2,210.1,145.5,210.1,144.3z"/>
	<path d="M211.2,142.2h0.4l0.8,2.8c0.1,0.4,0.2,0.8,0.3,1.2h0c0.1-0.4,0.2-0.8,0.3-1.2l0.8-2.8h0.5l0.8,2.8c0.1,0.4,0.2,0.8,0.3,1.2
		h0c0.1-0.4,0.2-0.8,0.3-1.2l0.8-2.8h0.4l-1.2,4.3h-0.5l-0.8-2.7c-0.1-0.4-0.2-0.8-0.3-1.2h0c-0.1,0.4-0.2,0.8-0.3,1.3l-0.7,2.7
		h-0.5L211.2,142.2z"/>
	<path d="M217.8,140.8c0-0.2,0.1-0.4,0.3-0.4s0.3,0.1,0.3,0.4c0,0.2-0.1,0.4-0.3,0.4S217.8,141,217.8,140.8z M218,142.2h0.4v4.3H218
		V142.2z"/>
	<path d="M220,142.2h0.3l0,0.7h0c0.4-0.4,0.9-0.8,1.5-0.8c0.9,0,1.3,0.5,1.3,1.7v2.8h-0.4v-2.7c0-0.9-0.3-1.4-1-1.4
		c-0.5,0-0.9,0.3-1.4,0.8v3.3H220V142.2z"/>
	<path d="M224.5,147.4c0-0.4,0.2-0.8,0.6-1v0c-0.2-0.1-0.4-0.4-0.4-0.7c0-0.4,0.3-0.7,0.5-0.8v0c-0.3-0.2-0.5-0.7-0.5-1.2
		c0-0.9,0.7-1.5,1.5-1.5c0.2,0,0.4,0.1,0.6,0.1h1.5v0.3h-1c0.3,0.2,0.5,0.6,0.5,1.1c0,0.9-0.7,1.5-1.5,1.5c-0.2,0-0.5-0.1-0.7-0.2
		c-0.2,0.2-0.4,0.3-0.4,0.6c0,0.3,0.2,0.6,0.8,0.6h0.9c1,0,1.4,0.3,1.4,1c0,0.7-0.8,1.5-2,1.5C225.2,148.6,224.5,148.1,224.5,147.4z
		 M227.9,147.2c0-0.5-0.4-0.7-1-0.7H226c-0.1,0-0.3,0-0.5-0.1c-0.4,0.3-0.6,0.6-0.6,0.9c0,0.5,0.5,0.9,1.4,0.9
		C227.3,148.2,227.9,147.7,227.9,147.2z M227.3,143.6c0-0.7-0.5-1.2-1.1-1.2s-1.1,0.5-1.1,1.2c0,0.7,0.5,1.2,1.1,1.2
		C226.8,144.8,227.3,144.3,227.3,143.6z"/>
</g>
<g>
	<path d="M365.2,140.6h1.4c1.8,0,2.7,1.2,2.7,2.9c0,1.8-0.9,3-2.7,3h-1.4V140.6z M366.6,146.1c1.6,0,2.3-1.1,2.3-2.6
		c0-1.5-0.7-2.6-2.3-2.6h-0.9v5.2H366.6z"/>
	<path d="M370.3,145.4c0-1,0.9-1.4,2.8-1.6c0-0.7-0.2-1.4-1-1.4c-0.6,0-1.1,0.3-1.4,0.5l-0.2-0.3c0.3-0.2,0.9-0.6,1.6-0.6
		c1,0,1.4,0.7,1.4,1.7v2.8h-0.3l0-0.6h0c-0.4,0.4-1,0.7-1.5,0.7C370.9,146.6,370.3,146.2,370.3,145.4z M373.1,145.6v-1.5
		c-1.8,0.2-2.4,0.6-2.4,1.3c0,0.6,0.4,0.9,0.9,0.9S372.6,146,373.1,145.6z"/>
	<path d="M375,142.2h0.3l0,0.8h0c0.3-0.5,0.7-0.9,1.2-0.9c0.2,0,0.3,0,0.4,0.1l-0.1,0.4c-0.1-0.1-0.2-0.1-0.4-0.1
		c-0.4,0-0.8,0.3-1.2,1.1v2.9H375V142.2z"/>
	<path d="M377.8,140.8c0-0.2,0.1-0.4,0.3-0.4s0.3,0.1,0.3,0.4c0,0.2-0.1,0.4-0.3,0.4S377.8,141,377.8,140.8z M377.9,142.2h0.4v4.3
		h-0.4V142.2z"/>
	<path d="M380.3,146.1L380.3,146.1l-0.1,0.4H380V140h0.4v1.9l0,0.8c0.4-0.4,1-0.7,1.5-0.7c1.2,0,1.7,0.9,1.7,2.2
		c0,1.5-0.9,2.3-1.9,2.3C381.2,146.6,380.8,146.4,380.3,146.1z M383.1,144.3c0-1.1-0.4-1.9-1.4-1.9c-0.4,0-0.9,0.3-1.4,0.7v2.6
		c0.5,0.4,0.9,0.6,1.3,0.6C382.5,146.2,383.1,145.4,383.1,144.3z"/>
	<path d="M384.5,145.4c0-1,0.9-1.4,2.8-1.6c0-0.7-0.2-1.4-1-1.4c-0.6,0-1.1,0.3-1.4,0.5l-0.2-0.3c0.3-0.2,0.9-0.6,1.6-0.6
		c1,0,1.4,0.7,1.4,1.7v2.8h-0.3l0-0.6h0c-0.4,0.4-1,0.7-1.5,0.7C385.1,146.6,384.5,146.2,384.5,145.4z M387.3,145.6v-1.5
		c-1.8,0.2-2.4,0.6-2.4,1.3c0,0.6,0.4,0.9,0.9,0.9S386.8,146,387.3,145.6z"/>
</g>
<g>
	<path d="M476.2,146.1h1.4v-4.8h-1v-0.3c0.5-0.1,0.8-0.2,1.1-0.4h0.3v5.4h1.3v0.4h-3V146.1z"/>
	<path d="M480.1,146.2c1.9-1.9,2.8-3,2.8-4c0-0.7-0.4-1.3-1.3-1.3c-0.5,0-1,0.3-1.3,0.8l-0.3-0.3c0.4-0.5,0.9-0.8,1.6-0.8
		c1,0,1.6,0.6,1.6,1.6c0,1.1-1,2.2-2.6,3.9c0.3,0,0.6,0,1,0h2v0.4h-3.5V146.2z"/>
	<path d="M484.5,143.6c0-1.9,0.6-3,1.7-3c1.1,0,1.7,1.1,1.7,3c0,1.9-0.6,3-1.7,3C485.1,146.6,484.5,145.5,484.5,143.6z M487.5,143.6
		c0-1.8-0.5-2.6-1.3-2.6c-0.8,0-1.3,0.9-1.3,2.6c0,1.8,0.5,2.7,1.3,2.7C487,146.3,487.5,145.3,487.5,143.6z"/>
	<path d="M488.8,147.6c0.4-0.2,0.7-0.6,0.7-1.1c0,0-0.1,0-0.1,0c-0.2,0-0.4-0.1-0.4-0.4s0.2-0.4,0.4-0.4c0.3,0,0.5,0.2,0.5,0.6
		c0,0.7-0.4,1.2-0.9,1.5L488.8,147.6z"/>
	<path d="M490.8,143.6c0-1.9,0.6-3,1.7-3c1.1,0,1.7,1.1,1.7,3c0,1.9-0.6,3-1.7,3C491.4,146.6,490.8,145.5,490.8,143.6z M493.8,143.6
		c0-1.8-0.5-2.6-1.3-2.6c-0.8,0-1.3,0.9-1.3,2.6c0,1.8,0.5,2.7,1.3,2.7C493.3,146.3,493.8,145.3,493.8,143.6z"/>
	<path d="M495.1,143.6c0-1.9,0.6-3,1.7-3c1.1,0,1.7,1.1,1.7,3c0,1.9-0.6,3-1.7,3C495.7,146.6,495.1,145.5,495.1,143.6z M498.1,143.6
		c0-1.8-0.5-2.6-1.3-2.6c-0.8,0-1.3,0.9-1.3,2.6c0,1.8,0.5,2.7,1.3,2.7C497.6,146.3,498.1,145.3,498.1,143.6z"/>
	<path d="M499.4,143.6c0-1.9,0.6-3,1.7-3c1.1,0,1.7,1.1,1.7,3c0,1.9-0.6,3-1.7,3C500,146.6,499.4,145.5,499.4,143.6z M502.4,143.6
		c0-1.8-0.5-2.6-1.3-2.6c-0.8,0-1.3,0.9-1.3,2.6c0,1.8,0.5,2.7,1.3,2.7C501.9,146.3,502.4,145.3,502.4,143.6z"/>
</g>
<g>
	<path d="M366.2,154.2h-1.6V153h4.6v1.1h-1.6v4.8h-1.3V154.2z"/>
	<path d="M369.7,156.7c0-1.5,1-2.3,2.2-2.3c1.1,0,2.2,0.9,2.2,2.3s-1,2.3-2.2,2.3C370.7,159,369.7,158.2,369.7,156.7z M372.7,156.7
		c0-0.8-0.3-1.3-0.8-1.3c-0.5,0-0.8,0.5-0.8,1.3s0.3,1.3,0.8,1.3C372.4,157.9,372.7,157.5,372.7,156.7z"/>
	<path d="M375.1,157.3v-1.8h-0.6v-1l0.7-0.1l0.2-1.2h1.1v1.2h1.1v1h-1.1v1.8c0,0.5,0.2,0.7,0.6,0.7c0.1,0,0.3,0,0.4-0.1l0.2,1
		c-0.2,0.1-0.6,0.2-1,0.2C375.6,159,375.1,158.3,375.1,157.3z"/>
	<path d="M378.2,157.7c0-0.9,0.7-1.4,2.5-1.6c0-0.4-0.2-0.6-0.7-0.6c-0.4,0-0.7,0.2-1.2,0.4l-0.5-0.9c0.6-0.3,1.2-0.6,1.9-0.6
		c1.1,0,1.8,0.6,1.8,2v2.6h-1.1l-0.1-0.5h0c-0.4,0.3-0.8,0.6-1.3,0.6C378.7,159,378.2,158.4,378.2,157.7z M380.7,157.6v-0.8
		c-0.9,0.1-1.2,0.4-1.2,0.7c0,0.3,0.2,0.4,0.5,0.4C380.3,158,380.5,157.8,380.7,157.6z"/>
	<path d="M383.1,157.5v-4.9h1.3v5c0,0.3,0.1,0.4,0.2,0.4c0.1,0,0.1,0,0.2,0l0.2,1c-0.1,0.1-0.4,0.1-0.7,0.1
		C383.4,159,383.1,158.4,383.1,157.5z"/>
</g>
<g>
	<path d="M472.4,158.2c1.5-1.4,2.5-2.4,2.5-3.2c0-0.6-0.3-0.9-0.8-0.9c-0.4,0-0.7,0.3-1,0.6l-0.7-0.7c0.6-0.6,1.1-0.9,1.9-0.9
		c1.1,0,1.9,0.7,1.9,1.8c0,1-0.9,2-1.8,3c0.3,0,0.7-0.1,1-0.1h1.2v1.1h-4V158.2z"/>
	<path d="M477.1,156c0-1.9,0.8-2.9,2-2.9s2,1,2,2.9s-0.8,3-2,3S477.1,158,477.1,156z M480,156c0-1.6-0.3-1.9-0.8-1.9
		c-0.4,0-0.8,0.4-0.8,1.9c0,1.6,0.4,2,0.8,2C479.6,158,480,157.6,480,156z"/>
	<path d="M481.8,158.2l0.6-0.8c0.3,0.3,0.7,0.6,1.2,0.6c0.6,0,1-0.3,1-0.9c0-0.6-0.4-0.9-0.9-0.9c-0.3,0-0.5,0.1-0.8,0.3l-0.6-0.4
		l0.2-2.9h3.2v1.1h-2.1l-0.1,1.1c0.2-0.1,0.4-0.1,0.6-0.1c1,0,1.8,0.6,1.8,1.8c0,1.3-1,2-2.1,2C482.8,159,482.2,158.7,481.8,158.2z"
		/>
	<path d="M486.7,160c0.7-0.2,1-0.6,1-1.1c0,0,0,0-0.1,0c-0.4,0-0.8-0.3-0.8-0.7c0-0.5,0.4-0.8,0.8-0.8c0.6,0,0.9,0.5,0.9,1.3
		c0,1-0.6,1.7-1.6,2.1L486.7,160z"/>
	<path d="M489.3,156c0-1.9,0.8-2.9,2-2.9c1.2,0,2,1,2,2.9s-0.8,3-2,3C490.1,159,489.3,158,489.3,156z M492.2,156
		c0-1.6-0.3-1.9-0.8-1.9c-0.4,0-0.8,0.4-0.8,1.9c0,1.6,0.4,2,0.8,2C491.8,158,492.2,157.6,492.2,156z"/>
	<path d="M494.1,156c0-1.9,0.8-2.9,2-2.9c1.2,0,2,1,2,2.9s-0.8,3-2,3C494.9,159,494.1,158,494.1,156z M496.9,156
		c0-1.6-0.3-1.9-0.8-1.9c-0.4,0-0.8,0.4-0.8,1.9c0,1.6,0.4,2,0.8,2C496.6,158,496.9,157.6,496.9,156z"/>
	<path d="M498.8,156c0-1.9,0.8-2.9,2-2.9c1.2,0,2,1,2,2.9s-0.8,3-2,3C499.7,159,498.8,158,498.8,156z M501.7,156
		c0-1.6-0.3-1.9-0.8-1.9c-0.4,0-0.8,0.4-0.8,1.9c0,1.6,0.4,2,0.8,2C501.3,158,501.7,157.6,501.7,156z"/>
</g>
<g>
	<path d="M10.5,171.1l3.4-5.3h-3.1v-0.4h3.6v0.2L11,171h3.4v0.4h-4V171.1z"/>
	<path d="M15.6,165.6c0-0.2,0.1-0.4,0.3-0.4s0.3,0.1,0.3,0.4c0,0.2-0.1,0.4-0.3,0.4S15.6,165.8,15.6,165.6z M15.7,167h0.4v4.3h-0.4
		V167z"/>
	<path d="M17.8,167h0.3l0,0.7h0c0.4-0.4,0.9-0.8,1.5-0.8c0.9,0,1.3,0.5,1.3,1.7v2.8h-0.4v-2.7c0-0.9-0.3-1.4-1-1.4
		c-0.5,0-0.9,0.3-1.4,0.8v3.3h-0.4V167z"/>
	<path d="M22.2,169.2c0-1.5,0.9-2.3,2-2.3c0.6,0,1,0.3,1.3,0.5l-0.2,0.3c-0.3-0.3-0.6-0.5-1-0.5c-0.9,0-1.6,0.8-1.6,1.9
		c0,1.1,0.6,1.9,1.6,1.9c0.5,0,0.9-0.2,1.2-0.5l0.2,0.3c-0.4,0.3-0.8,0.6-1.4,0.6C23,171.4,22.2,170.6,22.2,169.2z"/>
	<path d="M27.9,169.8c0-0.8,0.6-1.3,1.2-1.7c-0.2-0.5-0.4-1-0.4-1.5c0-0.8,0.5-1.3,1.2-1.3c0.6,0,1,0.5,1,1.1c0,0.8-0.7,1.3-1.4,1.8
		c0.4,0.8,1,1.5,1.6,2c0.4-0.5,0.7-1.2,0.9-2h0.4c-0.2,0.8-0.6,1.6-1.1,2.2c0.4,0.3,0.8,0.6,1.2,0.7l-0.1,0.4
		c-0.4-0.1-0.8-0.4-1.3-0.7c-0.4,0.4-1,0.7-1.6,0.7C28.6,171.4,27.9,170.8,27.9,169.8z M29.6,171.1c0.5,0,0.9-0.3,1.3-0.6
		c-0.6-0.6-1.3-1.3-1.7-2.1c-0.5,0.4-1,0.8-1,1.4C28.3,170.6,28.9,171.1,29.6,171.1z M29.4,167.9c0.6-0.4,1.2-0.9,1.2-1.5
		c0-0.4-0.2-0.8-0.6-0.8c-0.5,0-0.8,0.4-0.8,1C29.1,167,29.2,167.4,29.4,167.9z"/>
	<path d="M35.4,165.4h0.4v5.6h2.7v0.4h-3.2V165.4z"/>
	<path d="M39.2,169.2c0-1.4,0.9-2.3,1.9-2.3c1,0,1.7,0.7,1.7,2c0,0.1,0,0.2,0,0.3h-3.1c0,1.1,0.7,1.9,1.6,1.9c0.5,0,0.8-0.2,1.2-0.4
		l0.2,0.3c-0.3,0.2-0.7,0.4-1.4,0.4C40.1,171.4,39.2,170.6,39.2,169.2z M42.4,168.9c0-1.1-0.5-1.7-1.3-1.7c-0.7,0-1.4,0.6-1.5,1.7
		H42.4z"/>
	<path d="M43.6,170.3c0-1,0.9-1.4,2.8-1.6c0-0.7-0.2-1.4-1-1.4c-0.6,0-1.1,0.3-1.4,0.5l-0.2-0.3c0.3-0.2,0.9-0.6,1.6-0.6
		c1,0,1.4,0.7,1.4,1.7v2.8h-0.3l0-0.6h0c-0.4,0.4-1,0.7-1.5,0.7C44.2,171.4,43.6,171.1,43.6,170.3z M46.4,170.4v-1.5
		c-1.8,0.2-2.4,0.6-2.4,1.3c0,0.6,0.4,0.9,0.9,0.9S45.9,170.9,46.4,170.4z"/>
	<path d="M48,169.2c0-1.4,0.9-2.3,1.9-2.3c0.5,0,0.9,0.2,1.3,0.5l0-0.8v-1.8h0.4v6.5h-0.3l0-0.6h0c-0.4,0.4-0.8,0.7-1.4,0.7
		C48.7,171.4,48,170.6,48,169.2z M51.2,170.4v-2.6c-0.5-0.4-0.8-0.6-1.3-0.6c-0.9,0-1.5,0.8-1.5,1.9c0,1.1,0.5,1.9,1.4,1.9
		C50.3,171.1,50.7,170.8,51.2,170.4z"/>
</g>
<g>
	<path d="M364.8,168.4c0-1.9,1.3-3.1,2.9-3.1c0.8,0,1.5,0.4,1.8,0.8l-0.7,0.8c-0.3-0.3-0.6-0.5-1.1-0.5c-0.9,0-1.5,0.7-1.5,1.9
		c0,1.2,0.5,1.9,1.6,1.9c0.2,0,0.5-0.1,0.6-0.2v-1h-1V168h2.1v2.7c-0.4,0.4-1.1,0.7-1.9,0.7C366,171.4,364.8,170.4,364.8,168.4z"/>
	<path d="M370.7,166.9h1.1l0.1,0.8h0c0.3-0.6,0.8-0.9,1.3-0.9c0.3,0,0.4,0,0.5,0.1l-0.2,1.1c-0.2,0-0.3-0.1-0.5-0.1
		c-0.3,0-0.7,0.2-1,0.8v2.6h-1.3V166.9z"/>
	<path d="M374.1,170.1c0-0.9,0.7-1.4,2.5-1.6c0-0.4-0.2-0.6-0.7-0.6c-0.4,0-0.7,0.2-1.2,0.4l-0.5-0.9c0.6-0.3,1.2-0.6,1.9-0.6
		c1.1,0,1.8,0.6,1.8,2v2.6h-1.1l-0.1-0.5h0c-0.4,0.3-0.8,0.6-1.3,0.6C374.6,171.4,374.1,170.8,374.1,170.1z M376.6,170v-0.8
		c-0.9,0.1-1.2,0.4-1.2,0.7c0,0.3,0.2,0.4,0.5,0.4C376.1,170.4,376.3,170.3,376.6,170z"/>
	<path d="M379,166.9h1.1l0.1,0.6h0c0.4-0.4,0.8-0.7,1.4-0.7c1,0,1.4,0.7,1.4,1.8v2.8h-1.3v-2.6c0-0.6-0.2-0.8-0.5-0.8
		c-0.3,0-0.5,0.2-0.8,0.4v3H379V166.9z"/>
	<path d="M383.9,169.1c0-1.5,0.9-2.3,1.9-2.3c0.5,0,0.8,0.2,1.1,0.5l-0.1-0.7V165h1.3v6.3h-1.1l-0.1-0.4h0c-0.3,0.3-0.8,0.5-1.2,0.5
		C384.6,171.4,383.9,170.6,383.9,169.1z M386.8,170v-1.8c-0.2-0.2-0.5-0.3-0.7-0.3c-0.4,0-0.8,0.4-0.8,1.2c0,0.9,0.3,1.3,0.8,1.3
		C386.4,170.4,386.6,170.3,386.8,170z"/>
	<path d="M392.4,166.6h-1.6v-1.1h4.6v1.1h-1.6v4.8h-1.3V166.6z"/>
	<path d="M395.9,169.1c0-1.5,1-2.3,2.2-2.3c1.1,0,2.2,0.9,2.2,2.3s-1,2.3-2.2,2.3C396.9,171.4,395.9,170.6,395.9,169.1z
		 M398.9,169.1c0-0.8-0.3-1.3-0.8-1.3c-0.5,0-0.8,0.5-0.8,1.3s0.3,1.3,0.8,1.3C398.6,170.4,398.9,169.9,398.9,169.1z"/>
	<path d="M401.3,169.7v-1.8h-0.6v-1l0.7-0.1l0.2-1.2h1.1v1.2h1.1v1h-1.1v1.8c0,0.5,0.2,0.7,0.6,0.7c0.1,0,0.3,0,0.4-0.1l0.2,1
		c-0.2,0.1-0.6,0.2-1,0.2C401.7,171.4,401.3,170.7,401.3,169.7z"/>
	<path d="M404.3,170.1c0-0.9,0.7-1.4,2.5-1.6c0-0.4-0.2-0.6-0.7-0.6c-0.4,0-0.7,0.2-1.2,0.4l-0.5-0.9c0.6-0.3,1.2-0.6,1.9-0.6
		c1.1,0,1.8,0.6,1.8,2v2.6h-1.1l-0.1-0.5h0c-0.4,0.3-0.8,0.6-1.3,0.6C404.9,171.4,404.3,170.8,404.3,170.1z M406.9,170v-0.8
		c-0.9,0.1-1.2,0.4-1.2,0.7c0,0.3,0.2,0.4,0.5,0.4C406.4,170.4,406.6,170.3,406.9,170z"/>
	<path d="M409.3,169.9V165h1.3v5c0,0.3,0.1,0.4,0.2,0.4c0.1,0,0.1,0,0.2,0l0.2,1c-0.1,0.1-0.4,0.1-0.7,0.1
		C409.6,171.4,409.3,170.8,409.3,169.9z"/>
</g>
<g>
	<path d="M465.2,170.3h1.2V167h-1.1v-0.8c0.6-0.1,1-0.3,1.4-0.5h1v4.6h1.1v1.1h-3.6V170.3z"/>
	<path d="M469.8,172.4c0.7-0.2,1-0.6,1-1.1c0,0,0,0-0.1,0c-0.4,0-0.8-0.3-0.8-0.7c0-0.5,0.4-0.8,0.8-0.8c0.6,0,0.9,0.5,0.9,1.3
		c0,1-0.6,1.7-1.6,2.1L469.8,172.4z"/>
	<path d="M472.4,168.5c0-1.9,0.8-2.9,2-2.9s2,1,2,2.9s-0.8,3-2,3S472.4,170.4,472.4,168.5z M475.2,168.5c0-1.6-0.3-1.9-0.8-1.9
		c-0.4,0-0.8,0.4-0.8,1.9c0,1.6,0.4,2,0.8,2C474.9,170.4,475.2,170,475.2,168.5z"/>
	<path d="M477.2,169.9c0-0.7,0.4-1.1,1-1.4v0c-0.4-0.3-0.8-0.7-0.8-1.4c0-1,0.8-1.6,1.8-1.6c1,0,1.7,0.6,1.7,1.6
		c0,0.5-0.4,1-0.7,1.3v0c0.5,0.3,1,0.7,1,1.5c0,0.9-0.8,1.6-2,1.6C478,171.4,477.2,170.8,477.2,169.9z M480,169.8
		c0-0.5-0.5-0.7-1.2-1c-0.3,0.2-0.4,0.6-0.4,0.9c0,0.5,0.4,0.8,0.9,0.8C479.6,170.5,480,170.3,480,169.8z M479.9,167.2
		c0-0.4-0.3-0.7-0.7-0.7c-0.4,0-0.6,0.2-0.6,0.7c0,0.5,0.4,0.7,1,0.9C479.7,167.7,479.9,167.5,479.9,167.2z"/>
	<path d="M481.8,170.6l0.6-0.8c0.3,0.3,0.7,0.6,1.2,0.6c0.6,0,1-0.3,1-0.9c0-0.6-0.4-0.9-0.9-0.9c-0.3,0-0.5,0.1-0.8,0.3l-0.6-0.4
		l0.2-2.9h3.2v1.1h-2.1l-0.1,1.1c0.2-0.1,0.4-0.1,0.6-0.1c1,0,1.8,0.6,1.8,1.8c0,1.3-1,2-2.1,2C482.8,171.4,482.2,171.1,481.8,170.6
		z"/>
	<path d="M486.7,172.4c0.7-0.2,1-0.6,1-1.1c0,0,0,0-0.1,0c-0.4,0-0.8-0.3-0.8-0.7c0-0.5,0.4-0.8,0.8-0.8c0.6,0,0.9,0.5,0.9,1.3
		c0,1-0.6,1.7-1.6,2.1L486.7,172.4z"/>
	<path d="M489.3,168.5c0-1.9,0.8-2.9,2-2.9c1.2,0,2,1,2,2.9s-0.8,3-2,3C490.1,171.4,489.3,170.4,489.3,168.5z M492.2,168.5
		c0-1.6-0.3-1.9-0.8-1.9c-0.4,0-0.8,0.4-0.8,1.9c0,1.6,0.4,2,0.8,2C491.8,170.4,492.2,170,492.2,168.5z"/>
	<path d="M494.1,168.5c0-1.9,0.8-2.9,2-2.9c1.2,0,2,1,2,2.9s-0.8,3-2,3C494.9,171.4,494.1,170.4,494.1,168.5z M496.9,168.5
		c0-1.6-0.3-1.9-0.8-1.9c-0.4,0-0.8,0.4-0.8,1.9c0,1.6,0.4,2,0.8,2C496.6,170.4,496.9,170,496.9,168.5z"/>
	<path d="M498.8,168.5c0-1.9,0.8-2.9,2-2.9c1.2,0,2,1,2,2.9s-0.8,3-2,3C499.7,171.4,498.8,170.4,498.8,168.5z M501.7,168.5
		c0-1.6-0.3-1.9-0.8-1.9c-0.4,0-0.8,0.4-0.8,1.9c0,1.6,0.4,2,0.8,2C501.3,170.4,501.7,170,501.7,168.5z"/>
</g>
</svg>
