<?xml version="1.0" encoding="utf-8"?>
<!-- Generator: Adobe Illustrator 23.0.3, SVG Export Plug-In . SVG Version: 6.00 Build 0)  -->
<svg version="1.1" id="Layer_1" xmlns="http://www.w3.org/2000/svg" xmlns:xlink="http://www.w3.org/1999/xlink" x="0px" y="0px"
	 viewBox="0 0 481.5 530" style="enable-background:new 0 0 481.5 530;" xml:space="preserve">
<style type="text/css">
	.st0{clip-path:url(#SVGID_2_);fill:none;stroke:#BBAB9F;stroke-width:0.469;stroke-miterlimit:10;}
	.st1{clip-path:url(#SVGID_4_);fill:none;stroke:#BBAB9F;stroke-width:0.469;stroke-miterlimit:10;}
	.st2{fill:#ABD693;}
	.st3{fill:none;stroke:#FFFFFF;stroke-width:0.469;stroke-miterlimit:2.613;}
	.st4{fill:#DEC193;}
	.st5{fill:#A8D3C6;}
	.st6{fill:#00AD4C;}
	.st7{fill:#414042;}
	.st8{fill:none;stroke:#BBAB9F;stroke-width:0.469;stroke-miterlimit:10;}
	.st9{fill:none;stroke:#414042;stroke-width:0.469;stroke-miterlimit:10;}
	.st10{fill:#7C3F09;}
	.st11{fill:#FFFFFF;}
	.st12{font-family:'SourceSansPro-Bold';}
	.st13{font-size:6.5582px;}
</style>
<g>
	<defs>
		<path id="SVGID_1_" d="M207.5,348.6c-0.1,0-0.1,0.1-0.2,0.1C207.4,348.6,207.5,348.6,207.5,348.6 M207.9,348.3
			C207.8,348.3,207.8,348.3,207.9,348.3C207.8,348.3,207.8,348.3,207.9,348.3 M208,348.2C208,348.2,208,348.2,208,348.2L208,348.2
			C208,348.1,208,348.1,208,348.2L208,348.2C208,348.2,208,348.2,208,348.2C208,348.2,208,348.2,208,348.2
			C208,348.2,208,348.2,208,348.2 M211.6,341.3c0.1,0,0.1,0,0.2,0C211.7,341.3,211.6,341.3,211.6,341.3L211.6,341.3
			c-0.1,0-0.2,0-0.2,0C211.4,341.3,211.5,341.3,211.6,341.3L211.6,341.3z M212.5,341.2c-0.1,0-0.3,0.1-0.4,0.1
			C212.2,341.2,212.3,341.2,212.5,341.2 M213.2,341c-0.1,0.1-0.3,0.1-0.4,0.1C212.9,341.1,213,341,213.2,341 M209.7,340.9
			c0.2,0.1,0.4,0.2,0.7,0.3C210.2,341.1,210,341,209.7,340.9 M213.9,340.7c-0.2,0.1-0.3,0.1-0.5,0.2
			C213.6,340.8,213.7,340.8,213.9,340.7 M215.3,339.8c-0.2,0.1-0.4,0.3-0.6,0.4c-0.2,0.1-0.4,0.3-0.7,0.4
			C214.5,340.4,214.9,340.1,215.3,339.8 M139.9,160.4c0.9-0.9,1.1-2.1,2-2.9c0.5-0.5,0.7-1.1,1.1-1.6c0.6-0.6,0.9,0,1.6,0
			c0.4,0.5,0.8,0.7,0.9,1.4c0,0.4,0,0.8,0.2,1.1c0.3,0.5,1,0.4,1.1,0.9c0.1,0.6,0.1,1.3,0.2,1.9l-0.1,0.9c-0.5,0.7-0.9,0.6-1.7,0.6
			c-0.9,0-0.6,0.6-1.3,0.9c-0.7,0.3-1.1-0.2-1.5-0.7c-0.5-0.5-1-1-1.9-0.7c-0.2,0.1-0.3,0.1-0.4,0.1
			C139.1,162.4,139.2,161,139.9,160.4 M137.9,123.6c-0.2-0.3-0.3-0.9,0.1-1.2c0.3-0.2,0.5-0.2,0.8-0.2c0.5-0.1,1.4,0.2,1.5,0.7
			c0.1,0.5-0.2,0.9-0.6,1.2l-0.2,0c-0.1,0-0.1,0-0.2,0C138.7,124.1,138.1,124,137.9,123.6 M136.8,118.6l1.7,2l0,0L136.8,118.6z
			 M104.6,7.3L104,6.6c-2.1,0.5-3.1,1-4.9,2.3c-1.5,1.1-3.6,1.9-5.2,0.6c-0.7-0.6-1.4-0.6-2.1-0.5C91.4,9,91,9,90.5,8.9l1.5,1.3
			c0.6,0.3,2.1,1.8,1,2.3c-0.2,0.1-2.9,0.3-3.4,0.3c-1.2,0-1.5-0.9-2.8-0.7c-0.7,0.1-5.1,0.9-5.2,1.2c-0.4,1.3-0.1,2.1-1.4,3.1
			c-1.8,1.2-2,3.2-3.7,4.5c-2,1.4-4.1,0.7-3.2,4.3c0.2,1.4-0.5,2.4,0.7,3.6c1.2,1.3,1.9,0.1,3.3,0.1c0.5,0,1,0.6,1.6,0.6
			c0.3,0,0.7-0.2,1.2-0.4c0.7-0.3,1.5-0.7,1.7,0c1.7,4.8,5.2,5.3,9.7,6.1c2.1,0.4,0.1,2.3-0.2,3.8c-0.5,2.5,3,1.7,4.4,2.9
			c1.6,0.9,1.2,0.9,0.9,2.5c-0.4,2.1-0.7,3.2-2.8,4.1c-1.7,0.7-1.7,1.1-2.5,2.6C90,53,88,52.1,87,54c-1.2,2.2-0.1,4.5,0.6,6.6
			c0.2,0.9,0.5,2.8,0.9,3.6c0.3,0.7,0.8,1.7,0.8,2.4c0.1,1.4-0.5,2.4-0.1,3.9c0.4,1.3,1.1,1.6,0.6,3.1c-0.3,0.9-0.7,1.5-0.5,2.5
			c0.1,0.6,0.5,1,0.6,1.6c0.2,0.8-0.6,1.7,0.4,2.2c1.1,0.5,2.1,0.7,3.1,1.5c0.6,0.2,0.9,0.6,1.3,0.9c0.7,0.5,1.6,0.7,2.3,1.2
			c0.9,0.5,1.7,1,2.5,1.6c0.7,0.5,1,1.4,2.1,1.4l0.8-0.4c0.7,0.2,1.5-1.2,2.4-1.2c0.9,0,0.6,1,0.6,1.7c0,0.8,0.5,4.2,0.8,4.8
			c0.2,0.5,1,0.3,1.7,0.1c0.5-0.1,1-0.3,1.2-0.2c0.5,0.2,0.6,1.1,1.3,0.9c0.7-0.2,0.9-1,1.5-0.9c0.4,0,3.5,2.5,3.9,3l1,2.1
			c-1.4,1-3.1,2.1-4.2,2.5c-1,0.4-2.1,0-3.1,0.4c-0.9,0.3-1.4,2.4-2.4,1.9c-0.3-0.2-1.9,1.3-3.5,2.8c0,0.9,0,1.6,0.3,2.5
			c0.1,0.5,0.4,0.9,0.5,1.4c0.2,0.9,0.3,2-0.1,2.9c-0.4,1.2-1.7,3.6-1,4.7c0.3,0.5,1.9,0.9,2.4,1c0,0.4,0.2,0.1,0.1,0.6
			c0,1.3-1.2,0-1.5,0c-0.9,0-0.4,1.5-1.4,2c-2.6,1.2-3.2,4.5-5.2,5.8c-0.5,0.3-2,1.6-2.3,2.1c-0.1,0.2-1.1,1.4-1.4,1.6
			c-0.3,0.2-0.5,0.3-0.8,0.4l0.8,1.7c0.3,1.2,1.2,2.3-0.2,3.3l-0.3,2.6c0.7-0.1,1.4,0.2,2.1,0.2c1.9,0,4.7-0.7,6.4,0.3l0.9,0.6
			c0.3,1.1,1.7,1.5-0.4,1.9c-0.1,0.3,0.4,1.3,0.7,1.5c0.6,0.3,1.1-0.5,1.6-0.5c0.2,0.8-0.4,2.2-0.1,3.3c0.4,1.8-0.4,1.1-0.7,2.3
			c0,0.2,0.9,2.2,1,2.3c0.4,0.3,1,0,1.6-0.4c0.9-0.5,2-1,2.9,0.5c0.1,0.2,3.1,1.7,3.3,1.8c0.4,0.1,1-0.2,1.6-0.4
			c0.7-0.3,1.4-0.6,1.8-0.3c1.7,0.9,0.1,1.9,0.7,2.9c0.3,0.6,1.3,0.8,1.6,1.4c0.2,0.4,0,1.7,0,2.2c-0.5,3.4,1.3,4.3,2.9,6.7
			c1.4,2,4,1.7,4.5,4c0.1,0.6,1.1,1.3,0.8,2c-0.2,0.4-1.1,1-0.9,1.6c0.2,0.6,0.7,0.5,0.4,1.2c-1,2.3-0.2,2,1.4,2.9
			c1.7,0.9,1.7,0.1,1.2-1.4c-0.5-1.9,0.3-2.2,1.6-1.4c0.5,0.3,1-1.6,1.5-2c0.4-0.3,0.9,0.3,1.6,0.9c0.8,0.7,1.6,1.5,2.6,0.6
			c0.3-0.2,3.9-6.2,4.1-2.6c0.1,1.3,0.7,1.1,0.5,2.9l-0.4,4.3c-0.2,0.3-0.3,0.4-0.2,0.8c0.2,0.8,1,1.4,1.5,0.4
			c0.5-1,0.4-1.9,1.7-1.9c0.4,0,0.9,0.1,1.4,0.1c0.6-0.1,1.2-0.5,1.8-0.7c-0.1,0.9,0.2,1.9-0.1,2.8c-0.3,0.9-0.3,2.4,0.2,3.2
			c0.3,0.6,1.5,0.2,1.6,0.8c0.3,1.5,1.6,0.4,2.7,1.4c0.6,0.6,1,1.6,0.7,2.4c-0.3,0.8-2.2,2.1-1,2.7c0.8,0.4,2.3-0.3,2.3,1.2
			c-0.9,0.2-1.7,0.2-2.5,0.8c-0.5,0.5-1.3,0.7-1.8,1.2c-0.6,0.5-0.8,1.7,0.3,1.7c1.6,0,3.1-1.3,4.3-2.3c0.8-0.7,2-0.3,3.1,0
			c1.1,0.3,2.1,0.7,2.6,0c0.4-0.6,0.5-1.7,1.5-1.2c0.7,0.3,0.6,1.4,1.1,1.9l-0.4,0.5c-1.2,0.7-1.6,2-3,2.3c-1.5,0.3-2.2,0.7-3.4,1.7
			c-2.7,2.4-6.8,3.2-9.7,5.4l-6.4,5c0.1,0.1,0.1,0,0.2-0.1c-1.5,1.5-3.5,1.2-4.1,3.4c-0.4,1.5-0.8,3-0.5,4.5
			c0.2,0.9,0.7,1.6,0.9,2.6c0.9,0.2,1.8,0.3,2.6,0.8c0.4,0.2,1,0.2,1.5,0.2c0.5,0,0.9-0.1,1.1,0.2c0.5,0.6,1.3,0.5,1.9,0.1
			c0.5-0.3,0.9-0.2,1.2,0c0.3,0.1,0.6,0.3,0.9,0.1c0.7-0.5,1.2-2.2,2-2.2c0,0.1,0,0,0.1,0.1c0.3,1.3,0.1,2.4,1.2,3.2
			c1.8,1.3-1,2.3-2.1,2.2c-0.6,0-1,0.1-1.5,0.3c-0.4,0.2-0.8,0.4-1.2,0.3c-0.5-0.1-1-0.4-1.5-0.3c-0.9,0.2-1.2,1.1-1.5,1.8
			c0,0.8,1.7,1.8,0.5,2.2c-0.8,0.3-1.3-0.1-2.1-0.1c-0.1,0.5,1.1,1.4,1.6,1.5c1.3,0.2,2.5,0.2,2.7,1.8c0.1,1,0.5,2.3-0.3,3
			c-1.8,1.8-1.4-1.2-2.3-1.2c-0.6,0-0.4,1.3-0.4,1.6c0,0.7-0.3,1.4-0.2,2.1c0.2,1,1.1,1.6,1.1,2.7c0,1.4-2.6,0.3-3.2,0.2
			c-0.8-0.7-0.3-2.9-1.8-1.6c-1.3,1.1-1.4,0.8-1.9,0.5c-0.3-0.2-0.6-0.3-1.3-0.3c-1.4,0.1-1.4-0.1-2.5-0.7c-1.2-0.7-1.6,2.5-1.8,2.9
			c-0.2,0.3-1.2,0.9-1.5,1.1c-0.6,0.4-1.1,1.4-1.5,2c-0.6,0.9-1.5,0.8-2.4,1.1c-0.6,0.2-2,1.6-2.5,0.6c-0.4-0.9-0.7-1.3-1.3-2.1
			c-1.1-1.4,1.2-1,1.9-1c0.7,0,0.6,0.6,1.5,0.6c2.4-1.8-0.5-2.4,0.3-3.9c0.4-0.7,0.6-0.9,0.6-1.7c0-0.9-0.8-1.7,0.1-2.4
			c1.4-1.1,1.9-0.6,0.8-2.8c-0.8-1.6-0.3-3.5-2.6-2c-1.2,0.8-2.2,1-3.5,0.8c-1.3-0.3-3,0.1-3-1.7c0-1.3,1.9-2,1.7-2.1
			c-0.3-0.2-1.3-0.1-1.1-0.6c0.1-0.4,1.1-1.2,0.6-1.7c-0.5-0.5-1.8-0.2-2.3,0.1c-0.8,0.4-0.7,1-1,1.8c-0.5,1.5-1.7,1.1-2.7,0.7
			c-1-0.4-1.9-0.9-1.5,0.8c0.2,1.2,1.4,1.2,2.3,1.7c1.6,0.8-1.2,1.5-1.8,1.5c-1.6,0-0.9,1-1.8,2.1c-1.4,1.6,1.1,1.2,1.5,1.9
			c-0.3,0.1-1,1.1-1.4,1.3c0,0.4-0.2,2.1,0.1,2.3c0.2,0.1,0.5,0,0.9,0c0.4,0,0.8-0.1,0.9,0c0.8,1.5-0.4,2,1.3,3.3
			c0.3,0.2-0.8,1.9-0.8,2.3c0,1.2,0.2,2.3,0.2,3.5c-0.1,2.3-2.7,2.4-4.3,3c-1.5,0.6-0.6,1.3-1.3,2.2c-0.6,0.9-1.3,1.1,0.5,1.6
			c0.5,0.2,3.8-0.2,2.1,1c-0.6,0.4-3.1,1.9-3.6,1.8c-1.2-0.1-1.2,0-2.3,0.4l1,1.7c1,1.7,1.2,1.4,0.4,3.2c-0.2,0.4-0.4,1.1-0.8,1.3
			c-0.9,0.7-1.7-0.1-2.4,1.1c-0.9,1.6-1.8,0.4-2.8,1.3c-0.5,0.5,0.3,1.1,0.8,1.1c0.6,0,1.1-0.2,1.7-0.2c0.1,0.4,1.1,0.6,0.4,1.1
			c-0.5,0.4-0.8,0.2-1,0.8c-1.4,0-2.2-0.5-1.8,1.2c0.3,1.2,1.5,1.9,1.5,3.3l-1.1,2.7c1.8,0.1,3.4-1.4,5.2-1.4c0.2,0.6,1.4,0.8,1.5,1
			c0.1,1.7-0.8,4,1.6,5c2,0.8,2.9,0.7,5,0.7c1.8,0,2.3,3,4.9,3c1.4,0,2.7,0.8,4,0.8l5.4-0.1c0.6,0,1.1,0,1.5,0
			c1.6,0,2.2-0.1,2.6,2.3c0.3,1.9,1.5,3.5,3.4,2.6l4.2-2c2-1-1.5-1.7,0.7-2.9c2.9-1.6,2.8-4.6,7-5.5c1.6-0.3,4.8-1.9,5.8,0.1
			c0.2,0.5,1.1,2.6,0.5,2.6c-4.3,0,0.2,3.4,1.5,3.4c3.6-0.1,5.6-0.4,8.6-2.6c0.3-0.1,3.8-2.5,3.8-1.1c0,1.7,1.7,0.8,3.1,1.3
			c0.8,0.3,3.1,0.4,3.7-0.2c1.2-1.1,0.7-0.6,2.1-1.2c1.8-0.8,2.6-2.2,4.5-1.5c1.5,0.6,1.8-0.2,3,1.2c0.8,1.1,1.4,0.8,2.1,0.5
			c0.7-0.3,1.4-0.5,2.7,0.2c0.6,0.3,2.5,0.2,3.3,0.3c1.4,0.2,1.6-1.6,3.2-1.6c0.9,0.4,1.3,0.7,1.9,1.6c0.2,0.4,0.3,0.8,0.6,1.2
			c0.8,1.1,2.9,1.9,4.2,2.3c-0.2,1.2-2,1.9-2.7,2.8c-0.7,0.9-0.4,1.5-0.5,2.5c0,0.3-0.3,0.7-0.1,1c0.3,0.5,1.3,0.2,1.3,1
			c0,0.9-0.4,2.2-0.7,3.1c-0.6,2.1,0.3,1.2,1.4,0.8c0.2,1.8,0.3,2.9,0,4.7c-0.2,1.5-1,1.3-2.1,2.1c-2.5,1.9,2,1.4,1.3,3.4
			c-0.1,0.4-0.1,1.4-0.3,1.7c-0.1,0.1-0.3,0.1-0.6,0c-0.4-0.1-0.8-0.2-0.8,0.3c0,0.3,0.4,0.4,0.4,0.7c0,0.4-0.5,0.6-0.4,1.1
			c0.1,0.3,0.4,0.1,0.8,0c0.4-0.2,1-0.4,1.2,0.1c0.4,0.7,1.2,1.1,1.8,1.6c0.4,0.4-0.1,0.7-0.3,1c-0.5,0.8,1.3,0.8,1.6,0.8
			c0.9,0.2,1.1,0.6,1.5,1.4c0.6,1.2-0.8,2.5-1.9,3c-0.8,0.3-0.8,0.5-1.4-0.3c-0.4-0.5-1.1-0.8-1.3-1.4c-0.1,0-1.7,1.8-1.9,2
			c-1.4,1.3-1.4,2.7-1.9,4.3c-0.2,0.7-0.4,1.3,0.1,1.9c0.7,0.9,0.3,0.8-0.1,1.7l-0.2,1.2c-0.9,0-1.8,0.3-2.8,0.3
			c-0.6,0-0.9-0.7-1.4-1c-0.3-0.1-0.7-0.2-0.9-0.5c-0.3-0.3-0.2-1.5-0.2-2c0-1.9-0.7-3.7-0.4-5.5c0.3-1.6,1.4-3.2-0.5-3.9
			c-0.3-0.1-0.7-0.7-1.1-0.9c-0.7-0.5-1.8-1.7-2.7-0.6c-0.2,0.3-1.2,1.2-1.6,1c-1.2-0.6-0.6,0.1-1.7,0.5c-0.9-0.3-3.7-3.7-3.7-0.8
			c0,1.8-1.2,2-2.9,1.4c-1.1-0.4-0.9-1.8-1-2.6c-0.3-1.4-2-1.1-2.9-1.8c-0.7-0.6-0.9-1.4-2-1.6c-1.3-0.2-2,0.1-3.1-0.8
			c-3-2.3-0.6,1.5-1.8,3.3c-0.8,1.2-1.2,1.6,0,2.8c1.4,1.4-2,1.6-2.2,2.3c-0.2,0.5,0.5,1.8,0.1,2.1c-0.5,0.3-1.7-0.3-2.1-0.5
			c-3.1-1.3-2.1-0.4-3.3,2.3c-1.5,0.9-2.3,1.4-1,3c0.4,0.5,2.9,1.2,2.5,1.6c-0.6,0.5-1.2,1.2-1.8,1.7c-0.9,0.8-0.8,1.2-1.1,2.3
			c-0.6,1.8-2.2,1.3-3,2.7c-0.4,0.7,0,1.6-0.1,2.3c0.1,0.8-0.6,1.9-0.1,2.6c0.3,0.4,0.3,1.4,0.7,1.6c1.9,1,0.4,1.3,0.4,2.8
			c0,0.4,0.5,0.6,0.1,1.1c-0.8,0.9-1.3,1.5-1.8,2.6c-0.3,0.7-0.9,1.2,0.1,1.5c0.8,0.3,2.6,0.5,2.9,1.4c0.1,0.4-0.8,0.6-1,0.7
			c-0.9,0.2-1.1,0.7-1.7,1.3c-0.4,1-1.2,1.7-1.6,2.7c-0.5,1.2,1.5,0.6,1.9,1.1c0.2,0.2-0.4,1.7-0.4,2.2c0,0.5,0.5,1.2,0.4,1.7
			c-0.1,0.5-0.6,0.6-0.7,1.3c-0.4,2,1.1,3.7-2,4.4c-2.1,0.5,3,2.3,3.5,2.4c0,1.8-0.6,3.8-0.4,5.8c0,0.1,0,0.3-0.1,0.3
			c-0.2,0.4-1,0.2-1.7,0.1c-0.5-0.1-0.9-0.2-1.3-0.1c-0.4,0-0.7,0-1.1,0c-0.5,0-1-0.1-1.4,0c-0.9,0.2-1.5,1.1-2.3,1.4
			c0.2,1.1,0.2,1.1,0.8,2c0.4,0.6-1,1.1-1,2.3c0,1-1.1,0.9-0.3,2.1c1.2,1.8,1.7,2.3,1.3,4.4c-0.2,1.2,0.5,3.1-1.6,3.1
			c-1,0-1.6-0.3-2.7-0.1c-0.3,0.1-2.2,0.1-0.9,0.5c1.7,0.6,1.1,1.3,0.8,2.6c-0.4,1.5-0.2,2.7,0,4.3l0-0.2c0.4,0.8,0.7,1.2,1.6,1.1
			c1.2-0.1-0.1,2.3,0.4,2.9c1.1,1.3,1.9,0.2,3.2,0c0.8-0.1,1.7-0.5,2.6-0.4c0.3,0,0.6,0,0.9,0c0.7,0,1.4,0,2,0.5
			c1,0.9-0.6,1.8-1,2.5c-0.2,0-0.4,0-0.6,0c-0.5,0-0.7-0.1-0.8,1c0,0.6,1.4,1.3,1,2c-0.8,1.4-1.2-0.4-1.6-1c-0.4-0.5-1-0.4-1.7-0.4
			c-0.7,0-1.4,0.1-1.9-0.4c-0.8-0.8-1.5,0-1.6-1.4c0-0.7-1.1-0.6-0.6,0.5c0.4,0.7,1.1,1.5,1.1,2.3c0,0.7-0.6,3.2,0.7,3.2
			c0.7,0,1.7-3.1,2.5-2c0.5,0.7,0.7,0.6,1,0.6c0.2,0,0.5-0.1,0.9,0.2c0.7,0.5,3,2.5,3.6,2.1c0.4-0.3,0.6-1.5,1.2-1.2
			c1.3,0.7,1.5-0.4,1.9-1.5c0.1-0.4,0.5-1.7,1.1-1.6c0.3,0.1,0.6,0.1,1,0.1c0.5,0,1,0,1.3,0.2c0.3,0.2-0.1,1.1-0.2,1.4
			c-0.2,0.7,0.2,0.6,0.7,0.4c0.3-0.1,0.7-0.2,0.9,0c0.3,0.5,0.2,1.7,0.4,2.3c0.2,0.3,1.6,2.8,2,2.2c0.2-0.3,1.7-1.8,2.1-1.4
			c0.5,0.6,0.3,3.3,0.4,4.2c0.1,0.9,0.8,0.9,1.4,0.9c0.4,0,0.8,0,0.8,0.4c0,0.7-0.6,1.7-0.8,2.5c-0.3,1.3,0.4,3.2-1.5,3.5
			c-1.8,0.3-1.9,0.4-3.2,1.6c0.8,0.9,2.1,2.7,3.2,3.1c0.7,0.2,2-2.3,2.7-2.8c2-1.4-1.5-3.9,2.6-4.1c0.8,0,1.3,0.1,1.8,0.3
			c0.8,0.3,1.3,0.6,2.6-0.2c1.1-0.6,3.1,0,4-0.9c0.6-0.7,3.1-4.1,4.4-3.1c2.7,2.2,4.1,0.2,6.3-1.2c1-0.3,2.9-0.9,3.9-1.2
			c-0.9-0.4-1.9-0.5-1.9-2.3c0-0.3,0.3-2.5,0.8-1.7c0.2,0.3,0.9,1.5,1.3,1.5c0-0.8-0.5-1.9,0.1-2.7c-0.3-0.4-1.5-2.7-1.6-3.2
			c0.4-1.1-0.1-2.4-0.1-3.6c0-1.7,1.7-2.4,1-4.4c-1.9-5.3-3.3-9.9-0.2-15.2c0.9-1.2,0.9-4.3,2.5-5c1.3-0.6,6.6-3.1,7.7-1.3
			c1,1.8,1.1,1.4,2,0.1c0.6-0.9,2-0.8,2.5-1.7c1-1.8,1.3-4.4,2.2-6.2c1.1-2.3,1.2-0.7,2.7-0.7c0.7,0,1.1-0.4,1.8-0.6
			c0.3-0.1,0.6,0.1,0.8,0.2c0.3,0.1,0.6,0.3,1,0.1c0.5-0.2,1.2-0.2,1.8-0.2c0.7,0,1.4,0,1.9-0.2c1.2-0.7,2-2,2.8-3
			c0.7-0.2,2.8-0.7,2.9-1.4c0.2-0.8-0.6-1.9-0.8-2.7c-0.2-1,1.9-4.4,2.8-4.9l9.5-5.7c2.9-1.7,4.2-3.3,6.1-6.1
			c1.4-0.9,2.1-2.4,3.7-3.2l7-3.6c1.5-0.8,1.3-3,2.1-3.5c1-0.6,0.9-0.2,1.9-1.4l4.1-5.1c0.7-0.9,1.2-1.9,1.8-2.8
			c0.5-0.8,1-1.7,1.8-2.4c1.3-0.4,5.6-3.6,6.3-5.3c0.1-0.2,0.2-0.3-0.1-0.1c-0.6,0.6-2.9,2.6-2.9,1.1c0-0.6,2.9-4.7,3.5-5.1
			c1.8-1,2.4-1.7,3.3,0.2c0.1,0.3-4.9,4.3-2.7,2.9c2.3-1.4,4.6-1.7,7.1-2.7c1.9-0.8,4.2-1.1,6.2-1.7c1.7-0.6,0.9-1.7,1-1.7
			c1.6,0.7,2.8-2.2,3.6-3.1c0.5-0.6,1.5-0.7,1.5-1.6c0-0.9,0.5-1.5,1.1-2.2c0.7-0.4,0.9-1.4,1.5-1.9c0.9-0.8,2.5-0.9,2.5-2.3
			c0-2.4-1.4-3.9-1.7-6.1c-0.4-2.5-0.6-3.6,1.6-4.9c1.2-0.7,2-2.1,3.4-2.7c1.3-0.6,2.9-0.6,4.3-1c0.4-0.1,0.9-0.3,1.3-0.5
			c0.8-0.4,2-0.6,2.9-0.9c1.2-0.5,1.9-1.8,3-2.5l2.3-2.2c0.9-0.9,2.1,3,2.3,3.9c0.1,0.3,0.3,2.6,1,1.8c2.5-2.6,1.6-1.5,3.3-0.2
			c0.6,0.4,2.4,0.2,3.4,0.5c1,0.4,1.2-0.4,1.4-1.2c0.1-0.8,0.2-1.5,0.9-1.2c0.7,0.3,2.4,1.1,3.7,1.2l-1.5-2.2c0.1,0,0.2,0,0.3,0
			c0-0.5-0.4-1.1-0.4-1.7c1.2-0.2,1.1-1.1,0.7-2.1c-0.4-0.9,0.1-0.9,0.1-1.7c0-1.3-1-2.4-1.4-3.6c-0.3-0.6-0.1-1.5-0.3-2.2
			c-0.3-0.8-0.4-1.7-0.7-2.5c0.7-1.3,0.7-4.5-0.5-5.5c-1.2-1,0.6-2.2,0.9-3.2c0.4-1.3-0.9-1.2-1.9-1.6c-0.5-0.2-2.6-0.3-1.9-1.2
			c1-1.2,1.4-2.4,0.1-3.5c-0.5-0.4-1-0.3-1.4-1c-0.6-0.9-0.8-2.4-0.8-3.5c0.4-0.5,0.7-1,1.3-1.3c2.4-0.9,0.8-3.2,1-5
			c0.1-0.7,0.1-2.3-0.9-2.3c-0.9,0-1.6-0.1-2.4-0.4l-1.4,0c-0.2-0.4-0.4-0.7-0.6-1.2c-0.5-1.1-2-1.4-3.1-1.9
			c-0.4-0.2-0.8-0.5-1.1-0.8c-0.5-0.8-0.6-1.9-0.9-2.7l1.2-1.4c0.3-0.3,1-1.8,1.1-2.2c0.7-0.1,1.2,0,1.4,0.8
			c0.6,0.1,2.1-1.9,2.3-2.4c0.5-1.1-0.2-2.2,1-2.9c0.6-0.4,4.2-0.2,4.9,0.2c0.6,0.3,0.8,1,1.2,0.1c0.2-0.4,1.3-1.2,1.3-1.5
			c-2.9,0-1.8-1.9-2.2-3.4c-0.1-0.5-0.7-0.4-1.3-0.3c-0.6,0.1-1.3,0.1-1.8-0.3c-0.3-0.3-0.5-1-1-1.1c-1.2-0.3-1.2,0-1.9-1.2
			c-0.5-0.8-2.1-2.4-3-2.4c-0.6,0-1.3,0.3-1.8-0.1c-0.8-0.8-0.3-1.5-0.7-2.3c1.9-1.2,0.7-3.1,2.9-4.1c0.3-0.2,2.7-2.3,2.9-2.7
			c1.1-2.2-2.7-1.5-0.8-3.8c0.8-0.9,0.9,0.4,1.7,1c0.5,0.4,1.7,1,1.9,1.7c0.7,0.2-0.4,1,1.8,1c0.6,0,4,2.8,4,0.9
			c0-1.3-2.5-2.6-0.1-2.5c1.6,0.1,0.3,1.6,0.7,2.6c0.8,2,5.6,5.3,7.7,5c0-0.5,1-3.8,1.6-3.8c0.1,0,0.1,0.1,0.2,0.3
			c0.1,0.3,0,0.9,0.1,1.1c1.3,2.4,2.8,1.8,2.2,4.8c-0.4,2.3,0.3,3.5-0.2,5.5c-0.1,0.6-0.4,1.2-0.8,1.9c-0.2,2.3,2.6,1.9,4.1,2.7
			c2.9,1.4,5.5,1.7,8.7,1.4c0.7-0.1,1.4,0.1,2.1,0.2c0.7,0.1,1.4,0.3,2.1,0.2c0.3,0,0.5-0.1,0.8-0.2c0.4-0.2,0.8-0.4,1.2-0.4
			c0.7-0.1,1.6,0,2.3,0c0.4,0.1,0.8,0,1.2-0.1c0.5-0.1,1-0.3,1.6,0.2c2.6,1.8,6.8,0.5,9.8,0c1.2-0.2,5.1,1.4,6.7,3
			c1.1,1,1.2,2-1.1,2.5c-1.1,0.2-1.7-0.3-1.4,1.1c0.2,0.8-0.4,2.7-1.1,3.4c0,0-0.1,0.1-0.1,0.1c-0.6,0.5-0.8,2.8-0.9,3.5
			c-0.5,0-1.8-1-1.9-0.1c0,0.3,0.2,0.8-0.1,1c-0.2,0.1-0.5-0.1-0.5-0.3c-0.1,0-0.1,0-0.2,0c0,0.2-0.8,4.8-1.4,2.7
			c-0.1-0.4-0.4-1.4-1.1-1.3c-0.4,0.1,0.8,2.4-0.6,1.7c-0.4-0.2-0.7-1.6-1.1-0.8c-0.4,0.8-0.2,1.9-1.5,1.9c-0.9,0-2.1-0.5-2.9-0.3
			c-0.1,0.4,0.6,1-0.1,1.4c-0.9,0.5-2.1,0.1-2.1,1.7c0,0.8,0.3,2-0.4,2.5c-1.5,1-1.3,1.9-0.3,3.4c1,1.6,1.3,2.5,1.3,4.4
			c0.4,0.9,0.6,3.3,1.2,3.9c0.4,0.4,0.6-1.6,0.6-1.9c-0.1-0.5-0.2-1.6,0.5-1.4c0.6,1.2,1.7,4.8,3.3,4.5c2.4-0.5,2.4-1.6,2.5-3.7
			c0.1-2-0.1-1.7,1.5-3.1c2-1.8,0.1-3.3,1-5c0.2-0.4,0.4,0,0.7,0.4c0.2,0.3,0.4,0.6,0.7,0.6c0.5,0,0.9-1.3,1.7-1.1
			c0.3,1.1,1.2-0.2,1.5-0.2c0.3,0.7,0,1.6,0.2,2.5c0.5,2.3,1.6,2.6,0.9,5.1c-0.6,2.2,0.7,5.7,1.9,7.3c0.5,0.8,0.5,2.9,0.8,3.8
			l1.4,5.3l0.2,4.5c1.4,0,1.4-1.5,1.7-2.6c0.1,0,1.4,1.3,1.6,1.5c1.6,1.2,0.4,2.2,2.5,0.5c1-0.8,0.7-2.4,1.9-2.7
			c1.8-0.5,1.8-3.3,0.8-4.6c-1.3-1.7-0.7-5-0.1-6.8c0-0.6-0.4-2.8,0.2-3c0.9-0.3,0.7,0.9,1.3,1.1c1.9,0.8,1.8-3.1,1.8-3.9
			c0-2.7,1.7-5.9,0.9-8.7l-0.8-3c-0.1-0.4-0.4-1.1-0.4-1.7c0-0.4,0.1-0.7,0.3-0.9c0.7-0.4,1.2,1.5,1.5,1.9c0.5,0.7,1.3,0.4,2.1,0.1
			c0.6-0.2,1.2-0.4,1.8-0.3c0.8,0.2,1.5,1.1,2.2,0.8c1.4-0.7,2.3,0.8,3.4,1.6c1.6,1.2,2.3-3.6,2.7-4.6c0.9-2,1.2-4,2.4-5.8
			c1.7-2.4,3.9-5.3,4.7-8.2c0.3-1.1,0.9-2.7-0.4-3.4c-1.3-0.7-2.5-1.1-1.5-3c0.2-0.4,0.4-0.9,0.6-1.4c0.3-0.6,0.6-1.2,1.2-1.5
			c0.4-0.2,0.6-0.2,0.9-0.1c0.3,0,0.6,0.1,1-0.6c0.8-1.5,2.2-2.5,3.3-3.7c0.6-0.7-1-2.6-0.1-3.3c1.9-1.5,1.6-1.2,1.1-3.3
			c-0.2-0.7,0-1.5-0.2-2.2c-0.4-1.2-0.6-1.8-0.5-3.2c0.4-1,1-3.1,2-3.6c0.1,0,0.2-0.1,0.3-0.1c0.3-0.1,0.7,0,1,0.1
			c0.5,0.1,1,0.2,1.5-0.1l3.5-2.6c0.8-0.6,2.4-1.8,2.4-2.2c0.1-1.5,2.1-0.8,2.7-1.9c2.2-3.6,5-3,8.5-4c2.6-0.7,2.4-1.7,4.8-0.2
			c1,0.7,0.4,1.8,1.4,2.2c1,0.4,4.8,2,4.1,0.8l-3.9-6c-0.2-0.5-0.6-1.8-0.4-2.3c0,0,0.9-0.4,1.3-0.8c0.8-0.8,1-1.7,2.2-2
			c1.2-0.2,1.3-1,2-1.6c0.9-0.8,2.2,0,2.1-1.6c-0.1-1.4-1.3-2.2-0.9-3.6l0.5-1.1l-2.2-1c-0.9-0.5-1.9-1.6-3-1.6
			c-1.1,0-2,0.6-3.2,0.4c-2.7-0.6-1.5-2.5-4.8-1.3c-1.5,0.5-2.6-0.2-2.1-1.9c0.4-1.4,2-2.1,2.9-3.1c0.8-0.8-0.2-4.5-1-5.2
			c-0.7-0.6-1.3-0.7-2-1.4c-1.1-1.1-1.2,0.1-1.4,1.1c-0.5,2.9-2,0.4-1.7-1.2c0.1-0.6,2.4-2.3,1.6-3c-0.4-0.4-2.5-3.1-2.8-3.1
			c-0.8-0.1-2.7,1.9-3.8,2.3c-4.8,1.9-11,5-16.1,1.2c-1.6-1.2-1.9-1.3-3.7-0.4c-1.3,0.7-4.3,2.1-5.2,3.1c-0.6,0.6-0.3,1.9-1.6,1.7
			c-1.3-0.2-1,0.3-1.3,1.5c-0.3,1.2-1.5,2.3-2.7,2.7c-2.5,2-5,1.2-7.7,1.7c-1.6,0.3-1.8,3.3-2.5,4.6c-1.7,3.1-7.7,3.2-7.7,6.3
			c0,2.7-2.5,2.8-4.4,3.5c-0.6,0.2-1.1,0-1.6-0.1c-0.4-0.1-0.8-0.3-1.2-0.2c-1.6,0.3-2.3,1.6-3.8,1.8l-5,0.9
			c-0.4,1.7-0.4,3.3,1.4,4.2c0.8,0.4,1.6,0.2,2.3,0c0.9-0.3,1.7-0.5,2.2,0.7c0.3,0.8,1.3,1.4,1.3,2.3c0,1.1-1.7,1.6-1.3,3
			c0.4,1,1.3,1.9,1.4,2.8c0,0.4,0,0.7-0.1,1c-0.1,0.3-0.3,0.5-0.8,0.6c-0.7,0.2-1.2-0.7-1.8-0.7c-0.6,0,0,0.7-0.5,1.1
			c-0.3,0.2-0.5-0.1-0.7-0.4c-0.2-0.2-0.3-0.5-0.5-0.4c-0.7,0.1-1.1,1.3-2.3,1.3c-0.6,0-1.9,0.1-2.3-0.3c-0.5-0.4-1.5-1.7-1.9-0.7
			c-1,2.1-1.9,1.4-3.9,0.9c-2.2,0-5.1,0.8-7.5,0.6c-2-0.2-3.5-2.1-4.8-2.1c-1.6,0-2,1.6-3.3,2.2c-0.4,0.2-0.9,0.3-1.3,0.4
			c-0.7,0.1-1.3,0.1-2,0c-0.8,0-1.6-0.1-2.4,0.1c-1.2,0.3-4.3-1.5-5.6-1.9c-0.7-0.2-1.2,0-1.8,0.1c-0.5,0.1-1.1,0.3-1.7,0.1
			c-1.3-0.3-1.9-1.7-3.1-2.2c-2-0.9-1.4-1.6-2.5-3.1c-0.3-0.4-0.3-0.6-0.3-0.9c0.2-0.7,1.6-0.9,2.1-1.8c-2.1-2.6-1.4-3.6-1.4-6.6
			c0.7-0.9,0.3-4.2,0.1-5.3c-0.7-0.7-2.5-2.7-3.4-2.6c-1.5,2.1-4.2,2.6-6.6,2.6c-1,0-0.8,1.1-1.3,1.7c0.5,0.4,0.9,0.3,0.9,1
			c0,0.6-0.6,1.4-0.8,2c-0.5,1.6-1.5,2.8-1.4,4.6c0,1.3,0.3,2.3,0,3.7c-0.7,2.9,1.2,3.8,2,6.4c0.6,1.7,0.6,2,0.2,2.8
			c-0.2,0.3-0.4,0.7-0.7,1.2c-0.5,1,0.1,3.1-0.6,3.8c-0.9,0.8-1.7,0.2-2.4-0.3c-0.7-0.6-1.3-1.2-1.7-0.3c-0.2,0.4-0.6,0.4-1.1,0.3
			c-0.3-0.1-0.6-0.1-0.8,0c-0.5,0.3-0.9,0.9-1.6,0.5c-1.1-0.6-0.6-1.1-2.1-1c-1.4,0-1.3,2.3-2.7,0.9c-0.9-0.9-2.7-0.3-3.1-1.3
			c-0.1-0.3-0.3-1.9-0.7-1.9c-0.6,0-2.2,1.6-3,1.9c-2.2,0.9-2.7,0-4.6-1.1c-2.5-1.5-4.7-0.7-7-1.7c-0.7-0.3-1.6,0-2.4,0.3
			c-1.5,0.6-2.8,1.1-3.2-2.1c-0.3-2.9-2.2-2-4.1-1.1c-1.7,0.8-3.5,1.6-4.3-0.3c-0.6-1.4-0.9-0.7-1.9-0.7c-0.7,0-0.9-1.8-2.5-2.1
			c-1.2-0.5-3.9-0.8-3.3-2.4c0.6-1.7,0.5-3.4-1.5-3.6c-1.3-0.2-3.1-0.4-4.3-1c-0.7-0.4-3.3-2.9-3.4-2.1c-0.2,1-1.1,1.3-1.9,1
			c-1-0.3-1.3,0.2-1.7,0.5c-0.2,0.1-0.4,0.2-0.7,0.3c-1.3-0.1-1.6-1.4-2.9-1.5L240,180c-0.2,0.6,0.5,4.2-1.8,2.3
			c-1.5-1.2-1-2.3-3.4-1.8c-1.7,0.3-1-0.7-2.1-0.9c-1.4-0.3-2.2,0.5-2.6-1.9c-0.6-3.3-2-1-4.1-0.7c-1.1,0.2-5.4-4-6.8-4.9
			c-0.7-0.4-1,0.1-1.3,0.7c-0.3,0.6-0.6,1.2-1.4,0.7c-1.5-0.9-2.7-2.3-4.4-3.2c-1.5-1-3.8-1.9-4.8-3.3c-1.1-1.6-0.4-2.1-2.5-2.4
			c-2.9-0.5-6.1-3.7-8.4-5.4c-1-0.7-0.2,0.6-0.4,1.3c-0.1,0.3-1.8-0.2-2.1-0.4l-5.1-4.4c-1.4,0.3-2.6,1.3-3.4,0.4
			c-0.6-0.7-1.1-0.5-1.6-0.2c-0.4,0.2-0.8,0.4-1.2,0.2c-0.7-0.3-0.9-1.1-1.7-1.1c-1.8,0.1-1.4,0.7-2.5-0.8c-0.9-1.2-3.5,0.2-3.6-1.7
			c-0.1-1.8-1.3-1.5-2.3-1.1c-0.5,0.2-0.9,0.3-1.1,0.3c-0.8-0.3-0.7-1.6-1.6-2.3c-1.8-1.3-1.5-0.7,0.2-2.2c1.1-1.3,2.8-2.1,0.2-3
			c-1.9-0.7-2.8-2.2-4.3-3.1c-1.1-0.6-2.4-0.7-3.5-1.4c-1.4-0.9-2.3,1.7-3.7,2.2c-1.4,0.5-2.4-3-4-3c-0.8,0-1.6,1.8-2-0.7
			c-0.4-2.1,3.3-5.2,2.2-6.6l-4.1-2.7l2.6-1.4c1.5-1-0.6-1.2-0.4-2c0.3-1.3,0.3-1.4-0.3-2.7c-0.4-0.9,0.2-4.2,0.5-5.2
			c0.6-1.7,1.9-2.2,3.6-2.4c2.6-0.4,3.2-3.4,6.7-2.8c2.2,0.3,4.4,2.3,6.8,1.3c-0.6,0-0.8-1.4-1.6-1.9c-0.1-0.5-0.8-3.1-0.2-3.3
			c0.1-0.4,0.7-0.3,1-0.6c0.6-1.3-1.3-1.8-1.8-2.7c-0.6-1.1,0.5-2,0.5-3.1c0-2.6-1.9-3.6-3.6-5.1c-0.8-0.7-0.5-3-0.5-4.1
			c0-0.8-0.7-1.2-0.7-1.8c0-0.8,1.1-0.9,1.1-1.6c1.1-0.3,2.4-0.1,3.1-1.1c0.1-0.1,0.4-0.9,0.4-0.7h0.1c0.2,0.7,0.4,3.8,0.7,4.2
			c1.6,1.7,2,2.2,4.2,1.7c1.8-0.5,0.8-1,1.8-2.3c1.3-0.4,8-1.2,5.7-3.7c-1.7-1.8-3.5-4.7-2.7-7.2c0.8-2.2-0.7-2.4-2.4-2.2
			c-2.2,0.4-2.9-2-3.8-3.6c-0.3-0.5,0.1-1.1-0.2-1.5c-0.3-0.5-0.7-1-0.7-1.6c0-0.9,0.7-0.9,1.3-0.9c0.7,0,1.3,0,1-1.1
			c0.5-0.7-2.2-3.7-2.2-4.5c-0.1-1.9,1.6-1.6,2.7-1.3c1.4,0.3,1.7-0.7,2.9-0.7c0.4,0,0.8,0,1.1,0c0.9,0.1,1.2,0.2,1.9-1.6
			c0.6-1.7,2.1-3.3,1.3-5c-0.5-1-0.6-1,0-1c0.3,0,0.6,0,1.2-0.1c1.8-0.3,1.6,0.1,2-1.7c0-0.2,1.5-1.6,1.7-1.7
			c0.5-0.3,1.1-0.3,1.6-0.3c0.8,0,1.5,0,1.4-0.9c-0.5-0.8,1.3-3.1,1.6-4c0.4-1.3,0.3-2.6,0.6-3.8c0.2-0.7,0.9-0.9,1.1-1.7
			c0.2-1,0-1.9,0.6-2.7c1.7-2.4,0-1.1-0.7-2.8c-0.5-1.2-1,0.3-1.5,0.7c-1.2,1.1-1.8,1.3-2.3-0.4c-0.5-1.6-1.3-2.5-3-3
			c-1.2-0.4-3.2-2-4-2.9c-1.2-0.8-2.2-2-3.4-2.9c-1.1-0.8-2.5,0-3.8,0.1c-0.6,0-1.2,0-1.8,0c-2,0-3.9,0-5.6,1.5
			c-1.2,1.1-2.6,2.2-4.2,2.8c-1.8,0.6-3.1,2.8-4.8,2.4c-1.1-0.2-0.9,1.6-1.3,2.1c-0.4,0.4-0.9,0.1-1.5-0.2c-0.6-0.3-1.1-0.6-1.5-0.2
			c-0.1-0.1-0.1,0-0.2,0.1c-1,0.2-2.9,0.5-3.9,0.5c-1.3,0-1.9-1.1-2.7-1.1c-1.5,0-4.8-0.7-5.9-2c-0.5-0.6-2.8-0.8-3.7-1.7
			c-1.3-1.1-2.2-1.5-2.2-3.4l0,0c-1.4,0-2.6,1-4.2,0.9c-3.1-0.1-1-1.6-2.5-2.8l-2.5-1.9c-0.9-0.7,1.3-2.3,0.9-2.9
			c-0.9-1.8,0.6-2.1-0.3-3.7c-0.8-1.4-1.2-2.8-2.1-4.1c-0.6-0.8-2.1-1.2-2.9-1.5c-0.5-0.2-1.4,0.1-2.1,0.3c-0.8,0.3-1.5,0.6-1.5,0.3
			c-0.1-0.9-0.4-4.5-1.2-4.7c-1.2-0.3-2,0-3.1-0.5c-1.8-0.9-1.5,0.4-3,0.8c-1.3,0.3-1.8-1.2-1.8-2.2c-0.4,0.1-0.8,0.6-1.3,0.6
			c-0.9,0-0.5-1-0.9-1.3c-0.1-0.1-0.1-0.1-0.2-0.1C105.5,4.9,104.9,7.1,104.6,7.3"/>
	</defs>
	<clipPath id="SVGID_2_">
		<use xlink:href="#SVGID_1_"  style="overflow:visible;"/>
	</clipPath>
	<path class="st0" d="M180,508.8L683.9,4.9 M173.2,508.8L677.1,4.9 M166.5,508.8L670.4,4.9 M159.7,508.8L663.6,4.9 M153,508.8
		L656.9,4.9 M146.2,508.8L650.1,4.9 M139.5,508.8L643.4,4.9 M132.7,508.8L636.6,4.9 M126,508.8L629.9,4.9 M119.2,508.8L623.1,4.9
		 M112.4,508.8L616.4,4.9 M105.7,508.8L609.6,4.9 M98.9,508.8L602.9,4.9 M92.2,508.8L596.1,4.9 M85.4,508.8L589.3,4.9 M78.7,508.8
		L582.6,4.9 M71.9,508.8L575.8,4.9 M65.2,508.8L569.1,4.9 M58.4,508.8L562.3,4.9 M51.7,508.8L555.6,4.9 M44.9,508.8L548.8,4.9
		 M38.2,508.8L542.1,4.9 M31.4,508.8L535.3,4.9 M24.7,508.8L528.6,4.9 M17.9,508.8L521.8,4.9 M11.2,508.8L515.1,4.9 M4.4,508.8
		L508.3,4.9 M-2.3,508.8L501.6,4.9 M-9.1,508.8L494.8,4.9 M-15.8,508.8L488.1,4.9 M-22.6,508.8L481.3,4.9 M-29.3,508.8L474.6,4.9
		 M-36.1,508.8L467.8,4.9 M-42.8,508.8L461.1,4.9 M-49.6,508.8L454.3,4.9 M-56.3,508.8L447.6,4.9 M-63.1,508.8L440.8,4.9
		 M-69.9,508.8L434.1,4.9 M-76.6,508.8L427.3,4.9 M-83.4,508.8L420.6,4.9 M-90.1,508.8L413.8,4.9 M-96.9,508.8L407,4.9
		 M-103.6,508.8L400.3,4.9 M-110.4,508.8L393.5,4.9 M-117.1,508.8L386.8,4.9 M-123.9,508.8L380,4.9 M-130.6,508.8L373.3,4.9
		 M-137.4,508.8L366.5,4.9 M-144.1,508.8L359.8,4.9 M-150.9,508.8L353,4.9 M-157.6,508.8L346.3,4.9 M-164.4,508.8L339.5,4.9
		 M-171.1,508.8L332.8,4.9 M-177.9,508.8L326,4.9 M-184.6,508.8L319.3,4.9 M-191.4,508.8L312.5,4.9 M-198.1,508.8L305.8,4.9
		 M-204.9,508.8L299,4.9 M-211.6,508.8L292.3,4.9 M-218.4,508.8L285.5,4.9 M-225.1,508.8L278.8,4.9 M-231.9,508.8L272,4.9
		 M-238.6,508.8L265.3,4.9 M-245.4,508.8L258.5,4.9 M-252.2,508.8L251.8,4.9 M-258.9,508.8L245,4.9 M-265.7,508.8L238.3,4.9
		 M-272.4,508.8L231.5,4.9 M-279.2,508.8L224.7,4.9 M-285.9,508.8L218,4.9 M-292.7,508.8L211.2,4.9 M-299.4,508.8L204.5,4.9
		 M-306.2,508.8L197.7,4.9 M-312.9,508.8L191,4.9 M-319.7,508.8L184.2,4.9 M-326.4,508.8L177.5,4.9 M-333.2,508.8L170.7,4.9
		 M-339.9,508.8L164,4.9 M-346.7,508.8L157.2,4.9 M-353.4,508.8L150.5,4.9 M-360.2,508.8L143.7,4.9 M-366.9,508.8L137,4.9
		 M-373.7,508.8L130.2,4.9 M-380.4,508.8L123.5,4.9 M-387.2,508.8L116.7,4.9 M-393.9,508.8L110,4.9 M-400.7,508.8L103.2,4.9
		 M-407.4,508.8L96.5,4.9 M-414.2,508.8L89.7,4.9 M-420.9,508.8L83,4.9 M-427.7,508.8L76.2,4.9"/>
</g>
<g>
	<defs>
		<path id="SVGID_3_" d="M112.5,429.3c0.3,1.1,1.5,3.6,2.6,4c1.9,0.8,0.8,0.1,1.7,2c0.6,1.1,1.5,2,2.3,3c0.3,0.3,0.5,0.7,0.8,1.1
			c0.2,0.3,0.3,0.6,0.5,1c0.7,2,2.5,4,2.7,6.1c0.6,1.1,0.9,1.1,1.1,2.3c0.2,1.7,1.2,3,1.9,4.5c1.3,2.6,1.8,5.6,3,8.2
			c1.2,2.5,2.8,5.4,3.6,8c0.2,0.8,0.4,1.7,0.4,2.6c0.1,0.5-1.8,0.4-1.2-1.2c0.3-0.9-0.7-1.7-0.7-2.5c-0.3,0,0,2.3,0.1,2.8
			c0.3,1.9,0.6,4.5,2,6.1c0.6,0.6,1.3,3.7,1.8,3.4c0.6-0.3,2-0.3,1.1,0.4c-0.4,0.3-1.6,0.4-1.1,1.2c0.6,0.9,1.7,1.3,2.4,2.4
			c0.6,1,2.1,3.3,3.1,4c0.7,1.2,1.9,2.5,3.3,3.6c0.2-0.6,0.7-2.5,1.1-3c0.3-0.3,1.1-0.9,1.2-1.4c0.1-1.6-1.9-1.5-0.8-3.2
			c0.8-1.2,0-1.6-0.8-2.4c-1-1,0.6-2.5,1-3.5c0.4-2.2,3.1-4.8,1.9-7.2c-0.1-0.2-0.6,0-1.1,0.1c-0.4,0.1-0.7,0.2-0.9,0.2
			c-0.7-0.1-0.1-2.4-0.2-3.1c-0.2-1.2,0.6-3.6,0.1-4.5c-0.4-0.7-0.9-1-0.9-1.9c0.1-2.7-0.8-1.9-2-1.2c-0.7,0.4-1.5,0.9-2.2,0.6
			c-1.4-0.5-1.5-2.5-1-3.6c0.6-1.9-1.3-1.9-1.3-2.6c0-1.1,2-0.9,1.5-2c-0.3-0.6-0.4-1.3-0.7-1.8c-0.3-0.7-1.2-1.1-1.9-1.3
			c-1.6-0.4-0.5-1.7,0-2.7c0.7-1.6-0.7-1.4-1.9-1.3c-0.5,0.1-1,0.2-1.3,0.1c-0.4-0.1,0.1-1.8,0.3-2c1.5-3-4.4-0.7-4.2-3.8
			c0-0.4,1.1-0.5,1.4-0.7l1.6-1.3c-0.1-1.1-1.1-2.3-2.3-2.4c-1.6-0.1-3.1-1.4-4.8-1.8c-1.4-0.3-1.8-1.3-3.1-1.7
			c-0.7-0.2-1.9-0.1-2.4-0.7c-1.1-1.1-2.9-2.4-3.5-3.8c-0.5-1-0.6-1.6-1.4-2.5c-0.8-0.8-1.8-1.1-2.5-1.8l-3.7-1.6
			C110.3,424.1,111.9,427.3,112.5,429.3"/>
	</defs>
	<clipPath id="SVGID_4_">
		<use xlink:href="#SVGID_3_"  style="overflow:visible;"/>
	</clipPath>
	<path class="st1" d="M146.2,508.8L650.1,4.9 M139.5,508.8L643.4,4.9 M132.7,508.8L636.6,4.9 M126,508.8L629.9,4.9 M119.2,508.8
		L623.1,4.9 M112.4,508.8L616.4,4.9 M105.7,508.8L609.6,4.9 M98.9,508.8L602.9,4.9 M92.2,508.8L596.1,4.9 M85.4,508.8L589.3,4.9
		 M78.7,508.8L582.6,4.9 M71.9,508.8L575.8,4.9 M65.2,508.8L569.1,4.9 M58.4,508.8L562.3,4.9 M51.7,508.8L555.6,4.9 M44.9,508.8
		L548.8,4.9 M38.2,508.8L542.1,4.9 M31.4,508.8L535.3,4.9 M24.7,508.8L528.6,4.9 M17.9,508.8L521.8,4.9 M11.2,508.8L515.1,4.9
		 M4.4,508.8L508.3,4.9 M-2.3,508.8L501.6,4.9 M-9.1,508.8L494.8,4.9 M-15.8,508.8L488.1,4.9 M-22.6,508.8L481.3,4.9 M-29.3,508.8
		L474.6,4.9 M-36.1,508.8L467.8,4.9 M-42.8,508.8L461.1,4.9 M-49.6,508.8L454.3,4.9 M-56.3,508.8L447.6,4.9 M-63.1,508.8L440.8,4.9
		 M-69.9,508.8L434.1,4.9 M-76.6,508.8L427.3,4.9 M-83.4,508.8L420.6,4.9 M-90.1,508.8L413.8,4.9 M-96.9,508.8L407,4.9
		 M-103.6,508.8L400.3,4.9 M-110.4,508.8L393.5,4.9 M-117.1,508.8L386.8,4.9 M-123.9,508.8L380,4.9 M-130.6,508.8L373.3,4.9
		 M-137.4,508.8L366.5,4.9 M-144.1,508.8L359.8,4.9 M-150.9,508.8L353,4.9 M-157.6,508.8L346.3,4.9 M-164.4,508.8L339.5,4.9
		 M-171.1,508.8L332.8,4.9 M-177.9,508.8L326,4.9 M-184.6,508.8L319.3,4.9 M-191.4,508.8L312.5,4.9 M-198.1,508.8L305.8,4.9
		 M-204.9,508.8L299,4.9 M-211.6,508.8L292.3,4.9 M-218.4,508.8L285.5,4.9 M-225.1,508.8L278.8,4.9 M-231.9,508.8L272,4.9
		 M-238.6,508.8L265.3,4.9 M-245.4,508.8L258.5,4.9 M-252.2,508.8L251.8,4.9 M-258.9,508.8L245,4.9 M-265.7,508.8L238.3,4.9
		 M-272.4,508.8L231.5,4.9 M-279.2,508.8L224.7,4.9 M-285.9,508.8L218,4.9 M-292.7,508.8L211.2,4.9 M-299.4,508.8L204.5,4.9
		 M-306.2,508.8L197.7,4.9 M-312.9,508.8L191,4.9 M-319.7,508.8L184.2,4.9 M-326.4,508.8L177.5,4.9 M-333.2,508.8L170.7,4.9
		 M-339.9,508.8L164,4.9 M-346.7,508.8L157.2,4.9 M-353.4,508.8L150.5,4.9 M-360.2,508.8L143.7,4.9 M-366.9,508.8L137,4.9
		 M-373.7,508.8L130.2,4.9 M-380.4,508.8L123.5,4.9 M-387.2,508.8L116.7,4.9 M-393.9,508.8L110,4.9"/>
</g>
<path class="st2" d="M49.6,293.9c2.2-0.6,4.5-2,7.2-3c1-0.7,1.2-1.4,2.5-1.2c1.3,0.2,3.8-1.8,5.2-2.3c1.3-0.4,2-0.8,1.7-2.1
	c-0.2-0.7,1.8-3.4,2.2-4.2c1.3-2.3,0.3-2.8-0.3-5.1c0.6-2.4,1-4.2,2.1-6.4c0.6-1.2-0.6-1.9,0-3.3c0.6-1.5,0.2,3.5,1.7,2.9
	c1.1-0.4,1.8-1.5,3.1-0.9c0.8,0.4,1.5,0.1,2.3,0c0.5-0.1,0.2,0,0.1,0.2c-0.1,0.2-0.2,0.4-0.4,0.5c-0.8,0.6-2.1-0.1-3,0.7
	c-0.6,0.6-1.9,4.6-0.4,4.2c0.6-0.2,2-1.1,2.4-1.1c0.1,0-0.4,1-0.6,1.2c-0.4,0.9-0.3,1.8-0.9,2.7c-0.4,0.6-1.7,1-0.3,0.8
	c1.3-0.1,2.3,0.2,3.5,0.6c0.2,0.1-0.9,0.4-1,0.5c-0.4,0.4-0.5,1.1-0.8,1.6c0.1,0.2,0.6,1,0.3,1.2c-1.3,0.8-1.2,0.8-0.5,1.9
	c0.7,1.1,0.8,0.7,0,1.6c-1.8,1.9,1.5,1.2,1.9,2.5c0.2,0.6,0.4,0.9,0.8,1.5c0.7,1.1-0.9,1.7,0.6,2.6c0.7,0.4-0.5,3.3-0.6,4.4
	c0,0.7-0.1,1.3-0.3,1.9c0.1,0.1,0.5,0.3,0.6,0.5c0.1,0.1,0.2,0.3,0.3,0.5c0.1,0.2,0.1,0.4,0.1,0.6c0,0.5-0.4,0.5-0.8,0.6
	c-0.4,0.1-0.4,0.2-0.8,0c-0.2,0.5-0.4,1-0.6,1.6c-0.3,0.6-0.6,1.2-0.8,1.9l3.2-1.7c0.4-0.5,0.8-1.2,1.4-1.5c0.7-0.3,1.8-0.7,1.8,0.5
	c0,0.4-0.2,0.7-0.1,1.1c0.1,0.5,0.1,0.8,0.5,1.2l0.7,0.8l0-0.1c0.4-0.6,0.2-1.1,1-1.3c0.6-0.1,1.2,0,1.8-0.2
	c1.2-0.4-0.1-1.6-0.2-2.2c-0.1-0.5,0.4-0.8,0.7-1.1c0.5-0.5,0.4-1,0.6-1.6c-0.1-0.7-0.7-1.4-0.6-2.1c0.2-1.5,4.1,3,5.5,1
	c0.6-0.8-0.4-1.4,1.1-1.5c2.3-0.2,0.2-3.9-0.3-5.1c-0.4-0.8-1.5-1.1-2.1-1.7c-0.6-0.6-1.6-0.8,0.1-0.8c1.3,0,1.2-0.2,1.3-1.3
	c0-0.4,1.6-0.5,1.8-1.5c0.2-0.8-0.3-1.4-0.2-2.2c1,0,1.9,0.6,3,0.2c0.7-0.3,5.2-2.7,1.8-2.2c-0.9,0.1-1.4,0.2-2.4,0
	c-0.7-0.1-1.6,1.2-2.8,1.2c-0.8,0-1.6-0.5-1.2-1.4c0.4-0.9,0.1-0.9,1-1.4c1.3-0.7-0.2-0.9-0.5-1.4c-0.5-1.1,1-1.8,1.8-2.2l2-0.7
	l1.1-2.7c0-1.5-1.2-2.1-1.5-3.3c-0.3-1.6,0.5-1.2,1.8-1.2c0.2-0.6,0.5-0.4,1-0.8c0.7-0.6-0.3-0.7-0.4-1.1c-0.6,0-1.1,0.2-1.7,0.2
	c-0.5,0-1.3-0.6-0.8-1.1c1-0.9,1.9,0.2,2.8-1.4c0.7-1.2,1.5-0.5,2.4-1.1c0.4-0.3,0.6-0.9,0.8-1.3c0.8-1.7,0.6-1.4-0.5-3.2l-1-1.7
	c-0.2-0.5-0.8-2.1-1.4-2.1c-1.2-0.1-1.9,1.3-2.2-0.8c-0.1-0.8-0.8-1-1.4-1.4c-0.9-0.5-1.8-1.2-2.7-1.6c-1.2-0.5-3.3-0.4-3.3-2.2
	c0-0.3,0.3-1.9,0-2c-0.8-0.1-1.7,1.3-2,0.2c-0.6-1.1-1.2-1.9-1.9-2.9c-0.8-1.1,0.4-1.4,0.7-2.3c0.2-0.7-0.2-1.2-0.4-1.7
	c-0.7-1.5-0.7,0.1-1.5,0.7c-0.7,0.6-2-1.6-2.3-2.2c-1.1-1.8,1.4-3.4,0.9-3.9c-1-0.9-1.2,0.4-1.2-1.5c0-0.6-0.9-0.2-1.3-0.2
	c-1.8,0.4-0.5,1.8-1.6,2.3c-0.3,0.1-3.3-1.2-3.7-1.3c-0.3-0.3-1.5-1.3-1.9-1.3c-0.5,0-1.7,1.5-1.7,0.7c0-0.5,0.1-1-0.4-1.2
	c-0.7-0.3-0.5-1-1.1-1.2c-0.9-0.3-2.7,0.1-3.2-0.6c-0.3-0.4-0.3-0.9-1-0.7c-0.5,0.1-1.4,1.7-1.6,1c-0.5-1.3-0.9,0-1.6-0.4
	c-0.3-0.1-0.2-0.3-0.5-0.3c-1.3,0-1.6,0.9-2.9,0.2c-0.8-0.4-1.6-0.6-2.5-0.4c-1.1,0.3-2.1,1-3.3,0.7l-3-1.1c0,0.4-0.2,0.7-0.6,1
	c-1.8,1.5,0.8,2.5-1.5,4.1c-1.1,0.8-0.9,1.1-1.6,2.1c-0.8,1.1-2.5,1.1-3.4,0.2c-0.6-0.6-0.9-2.9-1.5-2.7c-2.2,1-4.4,1.3-6.6,2.6
	c-1.3,2.3-5.1,2.2-6.6,0.3c-1.6-1.9-5.1,0.3-6.9-0.2c-1.5-0.4-2.4,1-3.6,0.3c-1.2-0.7-2,1.1-2.5-0.8c-0.5,0-0.4,3.5-0.8,4.2
	c-1.1,2.4-2.1,0.5-4.3,0.8c-2.8,0.4-3.7,4.1-4.4,6.2c0.2,0.1,0.3,0.3,0.6,0.4c1,0.5,2.3,0.1,2.4-1c0.2-1.5,1.3-1.4,1.7-2.7
	c0.2-0.5,0.2-1.9,1.1-1.7c0.2,0.1-0.3,1.4-0.3,1.8c0.9,0.1,2.5-0.7,3.6-0.7c0.6,0-2.9,2.4-3,2.5c-3,3-0.5,3.9,1.1,6.6
	c0.5,0.9-1.3,1.2-0.8,1.5c1.6,0.9,2.6,2.1,3.9,3.1c2.2,1.6,5.8,3.4,8.5,3.9c1.2,0.2,3.1,1.1,4.3,0.6c1.6-0.6,2.2-1.8,4.1-2.2
	c0.7-0.3,3.2-0.4,3.3-1.4c0-0.6,0.4-3.8,1.3-2.5c1,1.4,2.6,1.3,4.1,1.3c0,0.4-0.5,0.7-0.7,1.1c-0.2,0.5-0.1,1-0.3,1.5
	c-0.2,0.7-0.7,0.1-1.3,0.3c-0.8,0.3-0.8,1.8-1.4,2.4c-1.1,1.1-1.7,3.6-3.5,3.3c-1.7-0.2-1.6,0.4-2.9,1.4c-0.9,0.7-1.2,0.9-2.2,0.3
	c-0.9-0.6-1,1.9-2.5,1.3c-1.4-0.6-2.4,0.6-4,1c-0.5,0.3-1.8,0.9-2.3,0.2c-0.5-0.7,0.3-1.4,0.3-2.2c-0.1,0-0.3,0.4-0.7,0.5
	c-0.3,0.1-1.3,0.1-1.6-0.2c-0.1-0.1,0-1.1,0-1.3c-0.2,0-1,1.3-1.2,1.5c-0.8,1.2,1.1,3.3,1.7,4.3c1.2,2.2,3.3,3.7,4.9,5.5l6.5,6.5
	l9.7,8.8c2.4,2.2,4.5,2.8,6.5,2.6c0.1-0.4,0.3-1,0.7-1.1C49.1,292.9,49.2,293.6,49.6,293.9 M39.8,255.7L39.8,255.7v0.9
	c-0.5,0.3-1,0.4-1.5,0.2c-0.4-0.1-0.3-0.5-0.3-0.8c0-0.2,0-0.5,0-0.7c0-0.3-0.1-0.7,0.4-0.7c0.5,0,0.7,0.6,1,0.9
	C39.5,255.8,39.6,255.8,39.8,255.7"/>
<path class="st3" d="M49.6,293.9c2.2-0.6,4.5-2,7.2-3c1-0.7,1.2-1.4,2.5-1.2c1.3,0.2,3.8-1.8,5.2-2.3c1.3-0.4,2-0.8,1.7-2.1
	c-0.2-0.7,1.8-3.4,2.2-4.2c1.3-2.3,0.3-2.8-0.3-5.1c0.6-2.4,1-4.2,2.1-6.4c0.6-1.2-0.6-1.9,0-3.3c0.6-1.5,0.2,3.5,1.7,2.9
	c1.1-0.4,1.8-1.5,3.1-0.9c0.8,0.4,1.5,0.1,2.3,0c0.5-0.1,0.2,0,0.1,0.2c-0.1,0.2-0.2,0.4-0.4,0.5c-0.8,0.6-2.1-0.1-3,0.7
	c-0.6,0.6-1.9,4.6-0.4,4.2c0.6-0.2,2-1.1,2.4-1.1c0.1,0-0.4,1-0.6,1.2c-0.4,0.9-0.3,1.8-0.9,2.7c-0.4,0.6-1.7,1-0.3,0.8
	c1.3-0.1,2.3,0.2,3.5,0.6c0.2,0.1-0.9,0.4-1,0.5c-0.4,0.4-0.5,1.1-0.8,1.6c0.1,0.2,0.6,1,0.3,1.2c-1.3,0.8-1.2,0.8-0.5,1.9
	c0.7,1.1,0.8,0.7,0,1.6c-1.8,1.9,1.5,1.2,1.9,2.5c0.2,0.6,0.4,0.9,0.8,1.5c0.7,1.1-0.9,1.7,0.6,2.6c0.7,0.4-0.5,3.3-0.6,4.4
	c0,0.7-0.1,1.3-0.3,1.9c0.1,0.1,0.5,0.3,0.6,0.5c0.1,0.1,0.2,0.3,0.3,0.5c0.1,0.2,0.1,0.4,0.1,0.6c0,0.5-0.4,0.5-0.8,0.6
	c-0.4,0.1-0.4,0.2-0.8,0c-0.2,0.5-0.4,1-0.6,1.6c-0.3,0.6-0.6,1.2-0.8,1.9l3.2-1.7c0.4-0.5,0.8-1.2,1.4-1.5c0.7-0.3,1.8-0.7,1.8,0.5
	c0,0.4-0.2,0.7-0.1,1.1c0.1,0.5,0.1,0.8,0.5,1.2l0.7,0.8l0-0.1c0.4-0.6,0.2-1.1,1-1.3c0.6-0.1,1.2,0,1.8-0.2
	c1.2-0.4-0.1-1.6-0.2-2.2c-0.1-0.5,0.4-0.8,0.7-1.1c0.5-0.5,0.4-1,0.6-1.6c-0.1-0.7-0.7-1.4-0.6-2.1c0.2-1.5,4.1,3,5.5,1
	c0.6-0.8-0.4-1.4,1.1-1.5c2.3-0.2,0.2-3.9-0.3-5.1c-0.4-0.8-1.5-1.1-2.1-1.7c-0.6-0.6-1.6-0.8,0.1-0.8c1.3,0,1.2-0.2,1.3-1.3
	c0-0.4,1.6-0.5,1.8-1.5c0.2-0.8-0.3-1.4-0.2-2.2c1,0,1.9,0.6,3,0.2c0.7-0.3,5.2-2.7,1.8-2.2c-0.9,0.1-1.4,0.2-2.4,0
	c-0.7-0.1-1.6,1.2-2.8,1.2c-0.8,0-1.6-0.5-1.2-1.4c0.4-0.9,0.1-0.9,1-1.4c1.3-0.7-0.2-0.9-0.5-1.4c-0.5-1.1,1-1.8,1.8-2.2l2-0.7
	l1.1-2.7c0-1.5-1.2-2.1-1.5-3.3c-0.3-1.6,0.5-1.2,1.8-1.2c0.2-0.6,0.5-0.4,1-0.8c0.7-0.6-0.3-0.7-0.4-1.1c-0.6,0-1.1,0.2-1.7,0.2
	c-0.5,0-1.3-0.6-0.8-1.1c1-0.9,1.9,0.2,2.8-1.4c0.7-1.2,1.5-0.5,2.4-1.1c0.4-0.3,0.6-0.9,0.8-1.3c0.8-1.7,0.6-1.4-0.5-3.2l-1-1.7
	c-0.2-0.5-0.8-2.1-1.4-2.1c-1.2-0.1-1.9,1.3-2.2-0.8c-0.1-0.8-0.8-1-1.4-1.4c-0.9-0.5-1.8-1.2-2.7-1.6c-1.2-0.5-3.3-0.4-3.3-2.2
	c0-0.3,0.3-1.9,0-2c-0.8-0.1-1.7,1.3-2,0.2c-0.6-1.1-1.2-1.9-1.9-2.9c-0.8-1.1,0.4-1.4,0.7-2.3c0.2-0.7-0.2-1.2-0.4-1.7
	c-0.7-1.5-0.7,0.1-1.5,0.7c-0.7,0.6-2-1.6-2.3-2.2c-1.1-1.8,1.4-3.4,0.9-3.9c-1-0.9-1.2,0.4-1.2-1.5c0-0.6-0.9-0.2-1.3-0.2
	c-1.8,0.4-0.5,1.8-1.6,2.3c-0.3,0.1-3.3-1.2-3.7-1.3c-0.3-0.3-1.5-1.3-1.9-1.3c-0.5,0-1.7,1.5-1.7,0.7c0-0.5,0.1-1-0.4-1.2
	c-0.7-0.3-0.5-1-1.1-1.2c-0.9-0.3-2.7,0.1-3.2-0.6c-0.3-0.4-0.3-0.9-1-0.7c-0.5,0.1-1.4,1.7-1.6,1c-0.5-1.3-0.9,0-1.6-0.4
	c-0.3-0.1-0.2-0.3-0.5-0.3c-1.3,0-1.6,0.9-2.9,0.2c-0.8-0.4-1.6-0.6-2.5-0.4c-1.1,0.3-2.1,1-3.3,0.7l-3-1.1c0,0.4-0.2,0.7-0.6,1
	c-1.8,1.5,0.8,2.5-1.5,4.1c-1.1,0.8-0.9,1.1-1.6,2.1c-0.8,1.1-2.5,1.1-3.4,0.2c-0.6-0.6-0.9-2.9-1.5-2.7c-2.2,1-4.4,1.3-6.6,2.6
	c-1.3,2.3-5.1,2.2-6.6,0.3c-1.6-1.9-5.1,0.3-6.9-0.2c-1.5-0.4-2.4,1-3.6,0.3c-1.2-0.7-2,1.1-2.5-0.8c-0.5,0-0.4,3.5-0.8,4.2
	c-1.1,2.4-2.1,0.5-4.3,0.8c-2.8,0.4-3.7,4.1-4.4,6.2c0.2,0.1,0.3,0.3,0.6,0.4c1,0.5,2.3,0.1,2.4-1c0.2-1.5,1.3-1.4,1.7-2.7
	c0.2-0.5,0.2-1.9,1.1-1.7c0.2,0.1-0.3,1.4-0.3,1.8c0.9,0.1,2.5-0.7,3.6-0.7c0.6,0-2.9,2.4-3,2.5c-3,3-0.5,3.9,1.1,6.6
	c0.5,0.9-1.3,1.2-0.8,1.5c1.6,0.9,2.6,2.1,3.9,3.1c2.2,1.6,5.8,3.4,8.5,3.9c1.2,0.2,3.1,1.1,4.3,0.6c1.6-0.6,2.2-1.8,4.1-2.2
	c0.7-0.3,3.2-0.4,3.3-1.4c0-0.6,0.4-3.8,1.3-2.5c1,1.4,2.6,1.3,4.1,1.3c0,0.4-0.5,0.7-0.7,1.1c-0.2,0.5-0.1,1-0.3,1.5
	c-0.2,0.7-0.7,0.1-1.3,0.3c-0.8,0.3-0.8,1.8-1.4,2.4c-1.1,1.1-1.7,3.6-3.5,3.3c-1.7-0.2-1.6,0.4-2.9,1.4c-0.9,0.7-1.2,0.9-2.2,0.3
	c-0.9-0.6-1,1.9-2.5,1.3c-1.4-0.6-2.4,0.6-4,1c-0.5,0.3-1.8,0.9-2.3,0.2c-0.5-0.7,0.3-1.4,0.3-2.2c-0.1,0-0.3,0.4-0.7,0.5
	c-0.3,0.1-1.3,0.1-1.6-0.2c-0.1-0.1,0-1.1,0-1.3c-0.2,0-1,1.3-1.2,1.5c-0.8,1.2,1.1,3.3,1.7,4.3c1.2,2.2,3.3,3.7,4.9,5.5l6.5,6.5
	l9.7,8.8c2.4,2.2,4.5,2.8,6.5,2.6c0.1-0.4,0.3-1,0.7-1.1C49.1,292.9,49.2,293.6,49.6,293.9z M39.8,255.7L39.8,255.7v0.9
	c-0.5,0.3-1,0.4-1.5,0.2c-0.4-0.1-0.3-0.5-0.3-0.8c0-0.2,0-0.5,0-0.7c0-0.3-0.1-0.7,0.4-0.7c0.5,0,0.7,0.6,1,0.9
	C39.5,255.8,39.6,255.8,39.8,255.7z"/>
<path class="st4" d="M47.8,294.2c0.6-0.1,1.2-0.2,1.7-0.4c-0.3-0.2-0.4-1-1-0.7C48.1,293.2,48,293.9,47.8,294.2"/>
<path class="st5" d="M47.8,294.2c0.6-0.1,1.2-0.2,1.7-0.4c-0.3-0.2-0.4-1-1-0.7C48.1,293.2,48,293.9,47.8,294.2"/>
<path class="st3" d="M100.9,255.5c1.1-0.5,1.1-0.5,2.3-0.4c0.5,0,3-1.4,3.6-1.8c1.7-1.2-1.6-0.8-2.1-1c-1.8-0.6-1.1-0.8-0.5-1.7
	c0.7-0.9-0.3-1.6,1.3-2.2c1.5-0.6,4.2-0.8,4.3-3c0.1-1.3-0.2-2.3-0.2-3.5c0-0.4,1.1-2.1,0.8-2.3c-1.6-1.3-0.5-1.8-1.3-3.3
	c-0.1-0.2-1.5,0.1-1.8-0.1c-0.3-0.2-0.1-1.9-0.1-2.3c0.4-0.3,1.1-1.3,1.4-1.4c-0.4-0.7-2.9-0.3-1.5-1.9c1-1.1,0.2-2.1,1.8-2.1
	c0.6,0,3.4-0.7,1.8-1.5c-0.9-0.4-2.1-0.5-2.3-1.7c-0.7-3.3,3.3,1.7,4.3-1.4c0.3-0.8,0.2-1.4,1-1.8c0.5-0.3,1.8-0.6,2.3-0.1
	c0.5,0.5-0.5,1.3-0.6,1.7c-0.1,0.5,0.8,0.4,1.1,0.6c0.2,0.1-1.7,0.8-1.7,2.1c0,1.8,1.7,1.4,3,1.7c1.3,0.3,2.4,0,3.5-0.8
	c2.3-1.5,1.8,0.4,2.6,2c1,2.2,0.6,1.6-0.8,2.8c-0.9,0.7-0.1,1.5-0.1,2.4c0,0.8-0.2,1-0.6,1.7c-0.8,1.5,2.1,2.1-0.3,3.9
	c-0.9,0-0.7-0.6-1.5-0.6c-0.7,0-3-0.4-1.9,1c0.6,0.8,0.9,1.2,1.3,2.1c0.5,1,1.9-0.4,2.5-0.6c0.9-0.2,1.8-0.2,2.4-1.1
	c0.4-0.6,0.9-1.6,1.5-2c0.3-0.3,1.3-0.8,1.5-1.1c0.2-0.4,0.6-3.6,1.8-2.9c1.1,0.6,1.1,0.9,2.5,0.7c2-0.2,1.2,1.5,3.2-0.3
	c1.6-1.4,1,0.8,1.8,1.6c0.6,0.1,3.2,1.2,3.2-0.2c0-1.1-1-1.7-1.1-2.7c-0.1-0.7,0.2-1.4,0.2-2.1c0-0.4-0.2-1.7,0.4-1.7
	c0.9,0,0.5,3,2.3,1.2c0.7-0.7,0.4-2.1,0.3-3c-0.2-1.6-1.4-1.6-2.7-1.8c-0.5-0.1-1.7-1-1.6-1.5c0.8,0,1.3,0.3,2.1,0.1
	c1.2-0.4-0.5-1.4-0.5-2.2c0.3-0.7,0.6-1.6,1.5-1.8c0.5-0.1,1,0.2,1.5,0.3c0.8,0.1,1.6-0.7,2.7-0.6c1.1,0.1,3.9-0.9,2.1-2.2
	c-1.2-0.9-0.9-2-1.2-3.2c-0.1,0,0,0-0.1-0.1c-0.9,0-1.3,1.7-2,2.2c-0.7,0.4-1.2-0.7-2.1-0.1c-0.6,0.4-1.4,0.5-1.9-0.1
	c-0.4-0.5-1.7,0.2-2.6-0.3c-0.8-0.5-1.7-0.6-2.6-0.8c-0.1-1.1-0.7-1.8-0.9-2.6c-0.3-1.5,0-3.1,0.4-4.5c0.6-2.2,2.6-1.9,4.1-3.4
	c-0.1,0.1-0.1,0.1-0.2,0.1l6.4-5c2.8-2.2,7-3,9.7-5.4c1.2-1.1,1.9-1.4,3.4-1.7c1.4-0.3,1.8-1.5,3-2.3l0.4-0.5c2.6-0.8,1,0.9,3.2,1.4
	c0.6,0.2,1.3,0.5,2,0.4c1.5-0.4,0.9-1,2.2-0.2c1.5,0.9,3.5,0.7,3.6,2.7c0.1,1,1,2.6,1.6,3.4c0.7,1-0.4,1.7-1,2.3
	c-0.4,0.4-1.2,0.7-0.8,1.4c0.1,0.2,0.6,1.2,0.1,1.2c-1.6,0.2-0.5,0.5-0.5,1.2c0,0.4-1.1,2.5-1.3,2.8c-0.3,0.6-0.9,0.9-1,1.5
	c-0.4,1.5,0.3,2.1-1.6,2.8c-1.4,0.5-4.5,0.7-4.6,2.5c-0.1,0.9-0.8,0.6-1.2,1.3c-0.6,1.2,1.1,2.5,0.8,4.1c-0.2,1-0.9,1.8-1.1,2.9
	c-0.3,1.9-3.1,1.1-1.8,3.2c1,1.6,1.3,2.6,0.7,4.6c0.3,0.7,0.6,1.5,1.3,1.8c0.9,0.4,0.3,1.9,1,2.7c1,1.3,1.3-1,1.9-1.5
	c0.7-0.5,1.2,0.9,1.4,1.3c0.4,0.7,1,0.6,1.7,0.6c0.7,0,1,0.8,1.6,0.9c0.4,0.1,2.1-2.7,2.2-3.2c0.2-1.2,0.4-1.9,0.1-3.1
	c-0.3-1.5-2.1-0.1-3.2-0.9c-0.4-0.3,0.1-1.4,0.2-1.8c0.3-0.9-0.1-1.8-0.5-2.5c0,0.1-0.1,0.1-0.1,0.2c-1.4-1.7-1.8-5.6-2.3-7.7
	c-0.5-2.3,1-0.7,1.8-0.7c0.7,0,3.2-3.9,3.7-3.2c0.4,0.5,0.8,1.8,0.9,2.5c0.2,1.2-3.7,0-2.4,2.5c0.3,0.6,2.4-1.9,1.9-0.2
	c-0.2,0.5-1.7,3,0.1,1.6c0.7-0.5,1.6-1.2,1.6,0.2c0,1.6,1-0.1,1.7,0.7c0.7,0.8,1.6,0.4,2.1-0.5c0.4-0.7-0.8-1.7-0.1-2.2
	c0.6-0.4,2.6-0.5,2.2,0.7c-0.4,1.1-0.3,2,0.9,2.4c0.7,0.2,1.1-0.9,2-0.6c1.3,0.5,2.6,0.8,3.4-0.6c1-1.7,2.1-2.2,4.1-3.1
	c0.8-0.3,1.8-1.3,2.6-1.3c0.1,0.5-0.3,1-0.1,1.6c0.5,1.1,2,0.6,1,2.4c-0.4,0.8-1.1,1.1-1.3,2.1c-0.2,1,0.6,1,1.3,0.9
	c0.9-0.1,2.1,1.5,2.1-0.4c0-0.5,1.7-2,2.2-1.8c0.1,0.4,0.3,0.8,0.7,0.8c0.8,0,1.7,0,2.2,0.9c0.5,0.9,0.1,1.9,1.4,1.9
	c1.2,0.1,4.4,0.3,4.7-1.2c0.2-1.1-0.2-2.7,1.4-2.7c1.1,0,2.1,1.1,2.2,1.1c0.6-0.2-0.6-1.4,0.5-1.6c3.2-0.6,0.7,1.7,2.4,2.2
	c1.8,0.5,2.4,0.9,3.4,2.5c1.1,1.8,3.3,1.6,5.2,2.9c0.6,0.5,1,1.9,1.7,2c1.1,0.3,0.9-1.1,1.4-1.1c0.6,1.9,5.6-1.5,6.1,1.6
	c0,0.2-0.6,1-0.6,1.5c0,1,1,1.5,1,2.6c0,1-0.7,1.8-0.7,2.9l-0.5,2.9l-1.9,0.8c-1.2,0.5-2.3,1.2-3.4,2c-1.5,1.1-2.7,0.7-4.4,0.4
	c-1.5-0.3-2.5,0-3.9,0.4c-1.9,0.6-2.4,0.5-3.3,2.6c0,1.9,3.6,1.5,5,2.3c2,1.1,2.2,3.4,2.5,5.5c0.2,1.6-0.3,1.3-1.5,2
	c-1.6,1-0.8,2.9-2.8,3.5c-1.2,0.4-1.3,1.2-1.8,2.2c-0.5,1-0.4,2.6-1.7,2.6c-1,0.3-1.6,1.3-2.5,1.4c-0.6,0.1-1.2-0.2-1.8,0
	c-1.2,0.4-3.7,0.6-4.3,1.7c-0.6,0.9-0.8,1.9-1.2,2.8c-0.6,1.3-1.5,2.2-2,3.5c-0.5,1.2-0.1,4.7-1.6,5c-1.2,0.2-0.4,4.4-1,5.6
	c-1.4-0.4-3.4-1.2-4.2-2.3c-0.3-0.4-0.4-0.8-0.6-1.2c-0.5-0.9-1-1.1-1.9-1.6c-1.6,0-1.8,1.7-3.2,1.6c-0.8-0.1-2.7,0.1-3.3-0.3
	c-2.6-1.6-3.2,1.3-4.8-0.7c-1.1-1.4-1.4-0.6-3-1.2c-1.9-0.7-2.7,0.7-4.5,1.5c-1.4,0.6-0.9,0.1-2.1,1.2c-0.6,0.6-2.9,0.5-3.8,0.2
	c-1.4-0.4-3.1,0.4-3.1-1.3c0-1.3-3.5,1.1-3.8,1.1c-3,2.3-5,2.5-8.6,2.6c-1.3,0-5.8-3.4-1.5-3.4c0.6,0-0.3-2.2-0.5-2.6
	c-1-2-4.2-0.4-5.8-0.1c-4.2,0.9-4.1,3.9-7,5.5c-2.1,1.2,1.3,2-0.7,2.9l-4.2,2c-1.9,0.9-3.1-0.7-3.4-2.6c-0.6-3-1.3-2.1-4.1-2.3
	l-5.4,0.1c-1.4,0-2.6-0.8-4-0.8c-2.6,0-3.1-3-4.9-3c-2.1,0-3,0.1-5-0.7c-2.4-1-1.5-3.3-1.6-5c0-0.2-1.3-0.4-1.5-1
	c-1.7,0-3.4,1.5-5.2,1.4l1.1-2.7c0-1.5-1.2-2.1-1.5-3.3c-0.3-1.6,0.5-1.2,1.8-1.2c0.2-0.6,0.5-0.4,1-0.8c0.7-0.6-0.3-0.7-0.4-1.1
	c-0.6,0-1.1,0.2-1.7,0.2c-0.5,0-1.3-0.6-0.8-1.1c1-0.9,1.9,0.2,2.8-1.4c0.7-1.2,1.5-0.5,2.4-1.1c0.4-0.3,0.6-0.9,0.8-1.3
	c0.8-1.7,0.6-1.4-0.4-3.2L100.9,255.5z M124.2,90.7l0.9-1.8c1.7-2.3,1.5-1.6-0.2-4c-1.2-1.8-0.9-1.9,1.1-2.5
	c1.2-0.3,1.8,0.4,2.9-0.4c1.5-1.1,2.8-2.3,4.6-3.1c0.9-0.5,1.4-0.2,2.3,0c0.8,0.1,1.4-0.6,2.1-0.5c1.7,2.2,1.8,2.9,4.9,3.2
	c1,1.8,0.5,1.9,2.7,2.3c0.7,0.1,0.7,0.9,1.3,1.1c0.4,0.2,2.1-0.7,2.8-0.7c1.1-0.7,2.5-1.8,3.8-2.1c0.1,0,1.9,0.7,1.9,0.8
	c0.3,0.7,0,1.1,0.7,1.9c0.4,0.5,0.8,0.8,0.9,1.4c0.4,1.5,1.2,2.5,2.7,1.1c2.2-2.1,3.2-0.6,2.2,1.7c-0.2,0.6-0.8,1.5-0.6,2.1
	c0.2,0.7,2.4-0.2,2.7-0.4c0,0.6,0.7,1.1,0.7,1.8c0,1.1-0.3,3.4,0.5,4.1c1.6,1.5,3.6,2.5,3.6,5.1c0,1.1-1.1,1.9-0.5,3.1
	c0.5,0.9,2.4,1.4,1.8,2.7c-0.3,0.3-0.9,0.2-1,0.6c-0.7,0.2,0.1,2.8,0.2,3.3c0.8,0.5,1,1.9,1.6,1.9c-2.4,1.1-4.7-0.9-6.8-1.3
	c-3.5-0.6-4.1,2.4-6.7,2.8c-1.6,0.2-2.9,0.7-3.6,2.4c-0.3,1-0.9,4.3-0.5,5.2c0.6,1.3,0.6,1.4,0.3,2.7c-0.2,0.8,1.8,1,0.4,2l-2.6,1.4
	c-0.4-0.3-3.6-0.4-3.3-1.2c0.5-1.3-0.3-1.1-1.3-0.7c-0.9,0.4-1.8,0.7-2.3-0.4c-0.1-0.3-0.1-2.2-0.6-2.9c-0.6-0.7-1.5-1.1-2.1-1.9
	c-0.3-0.4-0.6-1.1-1-1.4c-0.7-0.4-1.2,0.1-1.9,0.1c-0.2,0.1,0-0.1-0.1,0.1l-1.7-2c-0.8-1.3-0.8-0.7-0.4-2.2c0.2-0.8-0.7-1-0.8-1.7
	c0-0.3,0.1-0.7,0-1c-0.1-0.2-1.7-1.5-2-1.7c-1.8-0.8-2.6,1.3-4-0.9l-3.2-5c-0.6-1.5-1.6-3.1-1.9-4.7c-0.2-1.6-1.4-1.7-2.3-2.7
	c-0.4-0.5-0.3-1.4-0.5-2c-0.2-0.6-1.1-1.7-1.1-2c1.1,0,1.2,0.5,2.2-0.3c0.8-0.6,3-1.2,3.1-2.3C126.1,91.5,124.7,91.1,124.2,90.7z
	 M124.2,90.7l0.9-1.8c1.7-2.3,1.5-1.6-0.2-4c-1.2-1.8-0.9-1.9,1.1-2.5c1.2-0.3,1.8,0.4,2.9-0.4c1.5-1.1,2.8-2.3,4.6-3.1
	c0.9-0.5,1.4-0.2,2.3,0c0.8,0.1,1.4-0.6,2.1-0.5c1.7,2.2,1.8,2.9,4.9,3.2c1,1.8,0.5,1.9,2.7,2.3c0.7,0.1,0.7,0.9,1.3,1.1
	c0.4,0.2,2.1-0.7,2.8-0.7c1.1-0.7,2.5-1.8,3.8-2.1c0.1,0,1.9,0.7,1.9,0.8c0.3,0.7,0,1.1,0.7,1.9c0.4,0.5,0.8,0.8,0.9,1.4
	c0.4,1.5,1.2,2.5,2.7,1.1c2.2-2.1,3.2-0.6,2.2,1.7c-0.2,0.6-0.8,1.5-0.6,2.1c0.2,0.7,2.4-0.2,2.7-0.4c0-0.8,1.1-0.9,1.1-1.6
	c1.1-0.3,2.4-0.1,3.1-1.1c0.1-0.1,0.4-0.9,0.4-0.7h0.1c0.2,0.7,0.5,3.8,0.8,4.2c1.6,1.7,2,2.2,4.2,1.7c1.8-0.5,0.8-1,1.8-2.3
	c1.3-0.4,8-1.2,5.7-3.7c-1.7-1.8-3.5-4.7-2.7-7.2c0.8-2.2-0.7-2.4-2.4-2.2c-2.2,0.4-2.9-2-3.8-3.6c-0.3-0.5,0.1-1.1-0.2-1.5
	c-0.3-0.5-0.7-1-0.7-1.7c0-1.8,2.8,0.1,2.3-1.9c0.5-0.7-2.2-3.7-2.2-4.5c-0.1-1.9,1.6-1.6,2.7-1.3c1.4,0.3,1.7-0.7,2.9-0.7
	c1.9-0.1,2.1,0.8,3-1.6c0.6-1.7,2.1-3.3,1.3-5c-0.7-1.5-0.6-0.8,1.2-1.1c1.8-0.3,1.6,0.1,2-1.7c0-0.2,1.5-1.6,1.7-1.7
	c1.1-0.8,3.1,0.4,3-1.2c-0.5-0.8,1.3-3.1,1.6-4c0.4-1.3,0.3-2.6,0.6-3.8c0.2-0.7,0.9-0.9,1.1-1.7c0.2-1,0-1.9,0.6-2.7
	c1.7-2.4,0-1.1-0.7-2.8c-0.5-1.2-1,0.3-1.5,0.7c-1.2,1.1-1.8,1.3-2.3-0.4c-0.5-1.6-1.3-2.5-3-3c-1.2-0.4-3.2-2-4-2.9
	c-1.2-0.8-2.2-2-3.4-2.9c-1.1-0.8-2.5,0-3.8,0.1c-2.7,0.1-5.2-0.4-7.3,1.5c-1.2,1.1-2.6,2.2-4.2,2.8c-1.8,0.6-3.1,2.8-4.8,2.4
	c-1.1-0.2-0.9,1.6-1.3,2.1c-0.8,0.8-2.2-1.3-3-0.4c-0.1-0.1-0.1,0-0.2,0.1c-1,0.2-2.9,0.5-3.9,0.5c-1.3,0-1.9-1.1-2.7-1.1
	c-1.5,0-4.8-0.7-5.9-2c-0.5-0.6-2.8-0.8-3.7-1.7c-1.3-1.1-2.2-1.5-2.2-3.4l0,0c-1.4,0-2.6,1-4.2,0.9c-3.1-0.1-1-1.6-2.5-2.8
	l-2.5-1.9c-0.9-0.7,1.3-2.3,0.9-2.9c-0.9-1.8,0.6-2.1-0.3-3.7c-0.8-1.4-1.2-2.8-2.1-4.1c-0.6-0.8-2.1-1.2-2.9-1.5
	c-1-0.4-3.6,1.1-3.7,0.6c-0.1-0.9-0.4-4.5-1.2-4.7c-1.2-0.3-2,0-3.1-0.5c-1.8-0.9-1.5,0.4-3,0.8c-1.3,0.3-1.8-1.2-1.8-2.2
	c-0.4,0.1-0.8,0.6-1.3,0.6c-0.9,0-0.5-1-0.9-1.3c-0.7-0.7-1.3,2.1-1.7,2.4L104,6.6c-2.1,0.5-3.1,1-4.9,2.3c-1.5,1.1-3.6,1.9-5.2,0.6
	c-1.2-1-2.2-0.2-3.5-0.6l1.5,1.3c0.6,0.3,2.1,1.8,1,2.3c-0.2,0.1-2.9,0.3-3.4,0.3c-1.2,0-1.5-0.9-2.8-0.7c-0.8,0.1-5.1,0.9-5.2,1.2
	c-0.4,1.3-0.1,2.1-1.4,3.1c-1.8,1.2-2,3.2-3.7,4.5c-2,1.4-4.1,0.7-3.2,4.3c0.2,1.4-0.5,2.4,0.7,3.6c1.2,1.3,1.9,0.1,3.3,0.1
	c0.5,0,1,0.6,1.6,0.6c0.7,0.1,2.6-1.4,2.9-0.4c1.7,4.8,5.2,5.3,9.7,6.1c2.1,0.4,0.1,2.3-0.2,3.8c-0.5,2.5,3,1.7,4.4,2.9
	c1.6,0.9,1.2,0.9,0.9,2.5c-0.4,2.1-0.7,3.2-2.8,4.1c-1.7,0.7-1.7,1.1-2.5,2.6C90,53,88,52.1,87,54c-1.2,2.2-0.1,4.5,0.6,6.6
	c0.2,0.9,0.5,2.8,0.9,3.6c0.3,0.7,0.8,1.7,0.8,2.4c0.1,1.4-0.5,2.4-0.1,3.9c0.4,1.3,1.1,1.6,0.6,3.1c-0.3,0.9-0.7,1.5-0.5,2.5
	c0.1,0.6,0.5,1,0.6,1.6c0.2,0.8-0.6,1.7,0.4,2.2c1.1,0.5,2.1,0.7,3.1,1.5c0.6,0.2,0.9,0.6,1.3,0.9c0.7,0.5,1.6,0.7,2.3,1.2
	c0.9,0.5,1.7,1,2.5,1.6c0.7,0.5,1,1.4,2.1,1.4l0.8-0.4c0.7,0.2,1.5-1.2,2.4-1.2c0.9,0,0.6,1,0.6,1.7c0,0.8,0.5,4.2,0.8,4.8
	c0.4,0.8,2.4-0.3,2.9-0.1c0.5,0.2,0.6,1.1,1.3,0.9c0.7-0.2,0.9-1,1.5-0.9c0.4,0,3.5,2.5,3.9,3l2.6-0.5c0.5,0,1-0.3,1.5-0.4
	c0.8-0.2,1.9-0.5,2.5-1.1C123.2,91.8,123.7,91.2,124.2,90.7z"/>
<path class="st6" d="M103.2,137.6c0.3,1.1,1.7,1.5-0.4,1.9c-0.1,0.3,0.4,1.3,0.7,1.5c0.6,0.3,1.1-0.5,1.6-0.5
	c0.2,0.8-0.4,2.2-0.1,3.3c0.4,1.8-0.4,1.1-0.7,2.3c0,0.2,0.9,2.2,1,2.3c1,0.8,3.1-2.5,4.5,0.1c0.1,0.2,3.1,1.7,3.3,1.8
	c1,0.1,2.6-1.2,3.4-0.7c1.7,0.9,0.1,1.9,0.7,2.9c0.3,0.6,1.3,0.8,1.6,1.4c0.2,0.4,0,1.7,0,2.2c-0.5,3.4,1.3,4.3,2.9,6.7
	c1.4,2,4,1.7,4.5,4c0.1,0.6,1.1,1.3,0.7,1.9c-0.2,0.4-1.1,1-0.9,1.6c0.2,0.6,0.7,0.5,0.4,1.2c-1,2.3-0.2,2,1.4,2.9
	c1.7,0.9,1.7,0.1,1.2-1.4c-0.5-1.9,0.3-2.2,1.6-1.4c0.5,0.3,1-1.6,1.5-1.9c0.9-0.6,2.4,3.1,4.2,1.5c0.3-0.2,3.9-6.2,4.1-2.6
	c0.1,1.3,0.7,1.1,0.5,2.9l-0.4,4.3c-0.2,0.3-0.3,0.4-0.2,0.8c0.2,0.8,1,1.4,1.5,0.4c0.5-1,0.4-1.9,1.7-1.9c0.4,0,0.9,0.1,1.4,0.1
	c0.6-0.1,1.2-0.5,1.8-0.7c-0.1,0.9,0.2,1.9-0.1,2.8c-0.3,0.9-0.3,2.4,0.2,3.2c0.3,0.6,1.5,0.2,1.6,0.8c0.3,1.5,1.6,0.4,2.7,1.4
	c0.6,0.6,1,1.6,0.7,2.4c-0.3,0.8-2.2,2.1-1,2.7c0.8,0.4,2.3-0.3,2.3,1.2c-0.9,0.2-1.7,0.2-2.5,0.8c-0.5,0.5-1.3,0.7-1.8,1.2
	c-0.6,0.5-0.8,1.7,0.3,1.7c1.6,0,3.1-1.3,4.3-2.3c1.6-1.3,4.7,1.3,5.7,0c0.4-0.6,0.5-1.7,1.5-1.2c0.7,0.3,0.6,1.4,1.1,1.9l-0.4,0.5
	c-1.2,0.7-1.6,2-3,2.3c-1.5,0.3-2.2,0.7-3.4,1.7c-2.7,2.4-6.8,3.2-9.7,5.4l-6.4,5c0.1,0.1,0.1,0,0.2-0.1c-1.5,1.5-3.5,1.2-4.1,3.4
	c-0.4,1.5-0.8,3-0.5,4.5c0.2,0.9,0.7,1.6,0.9,2.6c0.9,0.2,1.8,0.3,2.6,0.8c0.9,0.5,2.2-0.2,2.6,0.3c0.5,0.6,1.3,0.5,1.9,0.1
	c0.9-0.6,1.5,0.5,2.1,0.1c0.7-0.5,1.2-2.2,2-2.2c0,0.1,0,0,0.1,0.1c0.3,1.3,0.1,2.4,1.2,3.2c1.8,1.3-1,2.3-2.1,2.2
	c-1.1-0.1-1.9,0.7-2.7,0.6c-0.5-0.1-1-0.4-1.5-0.3c-0.9,0.2-1.2,1.1-1.5,1.8c0,0.8,1.7,1.8,0.5,2.2c-0.8,0.3-1.3-0.1-2.1-0.1
	c-0.1,0.5,1.1,1.4,1.6,1.5c1.3,0.2,2.5,0.2,2.7,1.8c0.1,1,0.5,2.3-0.3,3c-1.8,1.8-1.4-1.2-2.3-1.2c-0.6,0-0.4,1.3-0.4,1.7
	c0,0.7-0.3,1.4-0.2,2.1c0.2,1,1.1,1.6,1.1,2.7c0,1.4-2.6,0.3-3.2,0.2c-0.8-0.7-0.3-2.9-1.8-1.6c-2,1.7-1.3,0.1-3.2,0.3
	c-1.4,0.1-1.4-0.1-2.5-0.7c-1.2-0.7-1.6,2.5-1.8,2.9c-0.2,0.3-1.2,0.9-1.5,1.1c-0.6,0.4-1.1,1.4-1.5,2c-0.6,0.9-1.5,0.8-2.4,1.1
	c-0.6,0.2-2,1.6-2.5,0.6c-0.4-0.9-0.7-1.3-1.3-2.1c-1.1-1.4,1.2-1,1.9-1c0.7,0,0.6,0.6,1.5,0.6c2.4-1.8-0.5-2.4,0.3-3.9
	c0.4-0.7,0.6-0.9,0.6-1.7c0-0.9-0.8-1.7,0.1-2.4c1.4-1.1,1.9-0.6,0.8-2.8c-0.8-1.6-0.3-3.5-2.6-2c-1.2,0.8-2.2,1-3.5,0.8
	c-1.3-0.3-3,0.1-3-1.7c0-1.3,1.9-2,1.7-2.1c-0.3-0.2-1.3-0.1-1.1-0.6c0.1-0.4,1.1-1.2,0.6-1.7c-0.5-0.5-1.8-0.2-2.3,0.1
	c-0.8,0.4-0.7,1-1,1.8c-1,3.1-4.9-1.9-4.3,1.4c0.2,1.2,1.4,1.2,2.3,1.7c1.6,0.8-1.2,1.5-1.8,1.5c-1.6,0-0.9,1-1.8,2.1
	c-1.4,1.6,1.1,1.2,1.5,1.9c-0.3,0.1-1,1.1-1.4,1.4c0,0.4-0.2,2.1,0.1,2.3c0.3,0.2,1.7-0.2,1.8,0.1c0.8,1.5-0.4,2,1.3,3.3
	c0.3,0.2-0.8,1.9-0.8,2.3c0,1.2,0.2,2.3,0.2,3.5c-0.1,2.3-2.7,2.4-4.3,3c-1.5,0.6-0.6,1.3-1.3,2.2c-0.6,0.9-1.3,1.1,0.5,1.6
	c0.5,0.2,3.8-0.2,2.1,1c-0.6,0.4-3.1,1.9-3.6,1.8c-1.2-0.1-1.2,0-2.3,0.4c-0.2-0.5-0.8-2.1-1.4-2.1c-1.2-0.1-1.9,1.3-2.2-0.8
	c-0.1-0.8-0.8-1-1.4-1.4c-0.9-0.5-1.8-1.2-2.7-1.6c-1.2-0.5-3.3-0.4-3.3-2.2c0-0.3,0.3-1.9,0-2c-0.8-0.1-1.7,1.3-2,0.2
	c-0.6-1.1-1.2-1.9-1.9-2.9c-0.9-1.1,0.4-1.4,0.7-2.3c0.2-0.7-0.2-1.2-0.4-1.7c-0.7-1.5-0.7,0.1-1.5,0.7c-0.7,0.6-2-1.6-2.3-2.2
	c-1.1-1.8,1.4-3.4,0.9-3.9c-1-0.9-1.2,0.4-1.2-1.5c0-0.6-0.9-0.2-1.3-0.2c-1.8,0.4-0.5,1.8-1.6,2.3c-0.3,0.1-3.3-1.2-3.7-1.3
	c-0.3-0.3-1.5-1.3-1.9-1.3c-0.5,0-1.7,1.5-1.7,0.7c0-0.5,0.1-1-0.4-1.2c-0.7-0.3-0.5-1-1.1-1.2c-0.9-0.3-2.7,0.1-3.2-0.6
	c-0.3-0.4-0.3-0.9-1-0.7c-0.5,0.1-1.4,1.7-1.6,1c-0.5-1.3-0.9,0-1.6-0.4c-0.3-0.1-0.2-0.3-0.5-0.3c-1.3,0-1.6,0.9-2.9,0.2
	c-0.8-0.4-1.6-0.6-2.5-0.4c-1.1,0.3-2.1,1-3.3,0.7l-3-1.1c0.2-1.7-2.8-3.9-3-5.4c-0.1-1.1-0.2-1.8-0.5-2.9c-0.4-1.2-2-2.3-2.5-3.6
	c-0.5-1.4-0.3-3.1-0.6-4.6c-0.3-1.8-1.2-0.3-2.2-0.2c-2.6,0.4-3.9-1.2-5.1-3.2c-0.6-1-2.2-2.7-1.3-3.9c1.4-2.1,2.1-4.2,1.6-6.7
	c-0.6-3-4.4-1.4-6.6-2.4c-0.7-0.4-3.8-2.4-3.7-3c0.2-3.2,1.3-7.2,3.9-9.1c1.5-1.1,2.6-2,3.5-3.7c1.2-2.2,1.5-4.5,3.3-6.4
	c5.2-3.6,4.8-2.4,7.7,1.7c2.6,3.6,4.7,0.4,7.9-0.7c2.6-0.9,5.4-0.4,8-1.2c2.9-0.9,1.6-1,2.3-3.2c0.6-1.7,3.7-3.8,4.9-5.4
	c2.5-3,0.7-5.5,5.1-8.1c1.6-1.2,3.2-2.1,5.1-2.5c1.4-0.3,1.5-1.3,2.1-2.5c0.6-1.4,1.8-3.6,2.9-4.8c1.7-1.8,1.9-4.6,2.2-6.9
	c0.3-1,0.7-2.7,1.7-3.3c0.8-0.5,1.6-0.8,2.6-0.8c1.4,0,3-0.4,4.1-1.3l-0.3,2.6c0.7-0.1,1.4,0.2,2.1,0.2c1.9,0,4.7-0.7,6.4,0.3
	L103.2,137.6z"/>
<path class="st3" d="M144.5,156c-0.6-0.1-1-0.7-1.6,0c-0.4,0.5-0.6,1.1-1.1,1.6c-0.9,0.8-1.1,2-2,2.9c-0.7,0.7-0.7,2.3,0.6,1.9
	c1.8-0.6,2.2,2.1,3.5,1.5c0.6-0.3,0.3-0.9,1.3-0.9c0.8,0,1.2,0,1.7-0.6l0.1-0.9c-0.1-0.6-0.1-1.3-0.2-1.9c-0.1-0.6-0.9-0.4-1.1-0.9
	c-0.2-0.3-0.2-0.8-0.2-1.1C145.3,156.7,144.9,156.4,144.5,156z M116,94.2l2.6-0.5c0.5,0,1-0.3,1.5-0.4c0.8-0.2,1.9-0.5,2.5-1.1
	c0.5-0.5,1-1.1,1.5-1.6c0.6,0.4,1.9,0.8,1.8,1.7c-0.1,1.1-2.4,1.8-3.1,2.3c-1,0.7-1.1,0.3-2.2,0.3c0,0.3,1,1.4,1.1,2
	c0.2,0.6,0.1,1.5,0.5,2c0.8,1,2,1.1,2.3,2.7c0.2,1.6,1.2,3.2,1.9,4.7l3.2,5c1.4,2.2,2.2,0,4,0.9c0.3,0.1,2,1.4,2,1.7
	c0.1,0.3,0,0.7,0,1c0.1,0.6,0.9,0.9,0.8,1.7c-0.4,1.5-0.4,0.9,0.4,2.2l1.7,2l0.3,1.6c-0.3,0-0.5,0-0.8,0.2c-0.3,0.3-0.3,0.9-0.1,1.2
	c0.3,0.4,1.1,0.5,1.6,0.5l1.2,1c0,0.5-0.2,3.1-0.4,3.5c-0.3,0.7-0.8-1.2-2,0.1c-0.7,0.8-1.6,1.2-2.3,1.9c-0.7,0.7-0.3,1.4-0.3,2.3
	c0,1.1-0.8,0.8-1.4,1.1c-1.3,0.6-1.5-1.1-2.5-0.3c-0.7,0.6-1.8-0.1-2.3,0.3c-0.2,0.2-0.1,1.1-0.3,1.4c-0.9,1.5,0.4,1.3,0.8,2.5
	c0.5,1.4-1.1,1.4-1.9,2.3c-3.3,3.3-2.7-1.4-6-0.6c0,1.8-2,0.7-3.1,0.5c-2.5-0.4-2.9,5.7-4.8,3.3c-0.8-1-0.4-1.6,0.3-2.4
	c0.3-0.3,0.6-1.6,0.1-1.7c-0.2-0.1-0.9,1.1-1.4,1.1c-0.5,0-0.7-3.1-1-2c-0.8,2.5-2.9-1.6-4.1-1.6c-1,0-1.5,0.7-2.4,0.8
	c-0.9,0.1-1.5-0.1-2.5,0.2l-0.9-0.6c-1.8-1-4.5-0.3-6.4-0.3c-0.7,0-1.4-0.2-2.1-0.2l0.3-2.6c1.3-1,0.5-2.2,0.2-3.3l-0.8-1.7
	c0.2-0.1,0.5-0.2,0.8-0.4c0.3-0.2,1.4-1.4,1.4-1.6c0.3-0.6,1.8-1.8,2.3-2.2c2-1.2,2.5-4.6,5.2-5.8c1-0.4,0.5-2,1.4-2
	c0.3,0,1.5,1.3,1.5,0c0.1-0.5-0.1-0.2-0.1-0.6c-0.5-0.1-2.1-0.6-2.4-1c-0.7-1.1,0.6-3.5,1-4.7c0.3-0.9,0.3-1.9,0.1-2.9
	c-0.1-0.5-0.3-1-0.5-1.4c-0.2-0.9-0.2-1.5-0.3-2.5c1.6-1.6,3.2-3,3.5-2.8c1,0.6,1.5-1.5,2.4-1.9c1.1-0.4,2.1,0,3.1-0.4
	c1.1-0.4,2.7-1.4,4.2-2.5L116,94.2z M138.7,122.2c0.5-0.1,1.4,0.2,1.5,0.7s-0.2,0.9-0.6,1.2l-0.2,0l1.2,1c0,0.5-0.2,3.2-0.4,3.5
	c-0.3,0.7-0.8-1.2-2,0.1c-0.7,0.8-1.6,1.2-2.3,1.9c-0.7,0.7-0.3,1.4-0.3,2.3c0,1.1-0.8,0.8-1.4,1.1c-1.3,0.6-1.5-1.1-2.5-0.3
	c-0.7,0.6-1.8-0.1-2.3,0.3c-0.2,0.2-0.1,1.1-0.3,1.4c-0.9,1.5,0.4,1.3,0.8,2.5c0.5,1.4-1.1,1.4-1.9,2.3c-3.2,3.3-2.7-1.4-6-0.6
	c0,1.8-2,0.7-3.1,0.5c-2.5-0.5-2.9,5.7-4.8,3.3c-0.8-1-0.4-1.6,0.3-2.4c0.3-0.3,0.6-1.6,0.1-1.7c-0.2-0.1-0.9,1.1-1.4,1.1
	c-0.5,0-0.7-3.1-1-2c-0.8,2.5-2.9-1.6-4.1-1.6c-1,0-1.5,0.7-2.4,0.8c-0.9,0.1-1.5-0.1-2.5,0.2c0.3,1.1,1.7,1.5-0.4,1.9
	c-0.1,0.3,0.4,1.3,0.7,1.5c0.6,0.3,1.1-0.5,1.6-0.5c0.2,0.8-0.4,2.2-0.1,3.3c0.4,1.8-0.4,1.1-0.7,2.3c0,0.2,0.9,2.2,1,2.3
	c1,0.8,3.1-2.5,4.5,0.1c0.1,0.1,3.1,1.7,3.3,1.8c1,0.1,2.6-1.2,3.4-0.7c1.7,0.9,0.1,1.9,0.7,2.9c0.3,0.6,1.3,0.8,1.6,1.4
	c0.2,0.4,0,1.7,0,2.2c-0.5,3.4,1.3,4.3,2.9,6.7c1.4,2,4,1.7,4.5,4c0.1,0.6,1.1,1.3,0.8,2c-0.2,0.4-1.1,1-0.9,1.6
	c0.2,0.6,0.7,0.5,0.4,1.2c-1,2.3-0.2,2,1.4,2.9c1.7,0.9,1.7,0.1,1.2-1.4c-0.5-1.9,0.3-2.2,1.6-1.4c0.5,0.3,1-1.6,1.5-1.9
	c0.9-0.6,2.4,3.1,4.2,1.5c0.3-0.2,3.9-6.2,4.1-2.6c0.1,1.3,0.7,1.1,0.5,2.9l-0.4,4.3c-0.2,0.3-0.3,0.4-0.2,0.8
	c0.2,0.8,1,1.4,1.5,0.4c0.5-1,0.4-1.9,1.7-1.9c0.4,0,0.9,0.1,1.4,0.1c0.6-0.1,1.2-0.5,1.8-0.7l1.2-0.5c0.3-0.2,0.4-0.6,0.8-0.7
	c0.3-0.1,0.5-0.1,0.8-0.2c0.5-0.2,0.5-0.4,0.6-0.9c0.2-1.1-1-1.5-1-2.3c0-1.7,0.5-3.4,0.5-5c0-1.3-1.6-1.8-2.5-2.6
	c-0.5,0.7-0.9,0.6-1.7,0.6c-0.9,0-0.6,0.6-1.3,0.9c-1.3,0.6-1.7-2.1-3.5-1.5c-1.3,0.4-1.3-1.2-0.6-1.9c0.9-0.9,1.1-2.1,2-2.9
	c0.5-0.5,0.7-1.1,1.1-1.6c0.6-0.6,0.9,0,1.6,0c0.2-0.5,0.2-1.4,0.1-2c-0.1-0.6-0.7-1.1-0.8-1.7c-0.4-1.4,0.2-3.8,0.2-5.3
	c0-1.3-0.4-2.6-0.5-4c0-0.8,0.2-2.1,0.3-2.9c0.1-0.9,0.7-1.4,0.9-2.3c0.1-0.5,0.2-1,0.5-1.4c1.8-2.2,4.3-2.7,5.5-5.6
	c0.3-0.8-0.2-1.3,0.3-2c-0.4-0.3-3.6-0.4-3.3-1.2c0.5-1.3-0.3-1.1-1.3-0.7c-0.9,0.4-1.8,0.7-2.3-0.4c-0.1-0.3-0.1-2.2-0.6-2.9
	c-0.6-0.7-1.5-1.2-2.1-1.9c-0.3-0.4-0.6-1.1-1-1.4c-0.7-0.4-1.2,0.1-1.9,0.1c-0.2,0.1,0-0.1-0.1,0.1L138.7,122.2z M103.2,137.6
	c0.3,1.1,1.7,1.5-0.4,1.9c-0.1,0.3,0.4,1.3,0.7,1.5c0.6,0.3,1.1-0.5,1.6-0.5c0.2,0.8-0.4,2.2-0.1,3.3c0.4,1.8-0.4,1.1-0.7,2.3
	c0,0.2,0.9,2.2,1,2.3c1,0.8,3.1-2.5,4.5,0.1c0.1,0.2,3.1,1.7,3.3,1.8c1,0.1,2.6-1.2,3.4-0.7c1.7,0.9,0.1,1.9,0.7,2.9
	c0.3,0.6,1.3,0.8,1.6,1.4c0.2,0.4,0,1.7,0,2.2c-0.5,3.4,1.3,4.3,2.9,6.7c1.4,2,4,1.7,4.5,4c0.1,0.6,1.1,1.3,0.7,1.9
	c-0.2,0.4-1.1,1-0.9,1.6c0.2,0.6,0.7,0.5,0.4,1.2c-1,2.3-0.2,2,1.4,2.9c1.7,0.9,1.7,0.1,1.2-1.4c-0.5-1.9,0.3-2.2,1.6-1.4
	c0.5,0.3,1-1.6,1.5-1.9c0.9-0.6,2.4,3.1,4.2,1.5c0.3-0.2,3.9-6.2,4.1-2.6c0.1,1.3,0.7,1.1,0.5,2.9l-0.4,4.3
	c-0.2,0.3-0.3,0.4-0.2,0.8c0.2,0.8,1,1.4,1.5,0.4c0.5-1,0.4-1.9,1.7-1.9c0.4,0,0.9,0.1,1.4,0.1c0.6-0.1,1.2-0.5,1.8-0.7
	c-0.1,0.9,0.2,1.9-0.1,2.8c-0.3,0.9-0.3,2.4,0.2,3.2c0.3,0.6,1.5,0.2,1.6,0.8c0.3,1.5,1.6,0.4,2.7,1.4c0.6,0.6,1,1.6,0.7,2.4
	c-0.3,0.8-2.2,2.1-1,2.7c0.8,0.4,2.3-0.3,2.3,1.2c-0.9,0.2-1.7,0.2-2.5,0.8c-0.5,0.5-1.3,0.7-1.8,1.2c-0.6,0.5-0.8,1.7,0.3,1.7
	c1.6,0,3.1-1.3,4.3-2.3c1.6-1.3,4.7,1.3,5.7,0c0.4-0.6,0.5-1.7,1.5-1.2c0.7,0.3,0.6,1.4,1.1,1.9l-0.4,0.5c-1.2,0.7-1.6,2-3,2.3
	c-1.5,0.3-2.2,0.7-3.4,1.7c-2.7,2.4-6.8,3.2-9.7,5.4l-6.4,5c0.1,0.1,0.1,0,0.2-0.1c-1.5,1.5-3.5,1.2-4.1,3.4c-0.4,1.5-0.8,3-0.5,4.5
	c0.2,0.9,0.7,1.6,0.9,2.6c0.9,0.2,1.8,0.3,2.6,0.8c0.9,0.5,2.2-0.2,2.6,0.3c0.5,0.6,1.3,0.5,1.9,0.1c0.9-0.6,1.5,0.5,2.1,0.1
	c0.7-0.5,1.2-2.2,2-2.2c0,0.1,0,0,0.1,0.1c0.3,1.3,0.1,2.4,1.2,3.2c1.8,1.3-1,2.3-2.1,2.2c-1.1-0.1-1.9,0.7-2.7,0.6
	c-0.5-0.1-1-0.4-1.5-0.3c-0.9,0.2-1.2,1.1-1.5,1.8c0,0.8,1.7,1.8,0.5,2.2c-0.8,0.3-1.3-0.1-2.1-0.1c-0.1,0.5,1.1,1.4,1.6,1.5
	c1.3,0.2,2.5,0.2,2.7,1.8c0.1,1,0.5,2.3-0.3,3c-1.8,1.8-1.4-1.2-2.3-1.2c-0.6,0-0.4,1.3-0.4,1.7c0,0.7-0.3,1.4-0.2,2.1
	c0.2,1,1.1,1.6,1.1,2.7c0,1.4-2.6,0.3-3.2,0.2c-0.8-0.7-0.3-2.9-1.8-1.6c-2,1.7-1.3,0.1-3.2,0.3c-1.4,0.1-1.4-0.1-2.5-0.7
	c-1.2-0.7-1.6,2.5-1.8,2.9c-0.2,0.3-1.2,0.9-1.5,1.1c-0.6,0.4-1.1,1.4-1.5,2c-0.6,0.9-1.5,0.8-2.4,1.1c-0.6,0.2-2,1.6-2.5,0.6
	c-0.4-0.9-0.7-1.3-1.3-2.1c-1.1-1.4,1.2-1,1.9-1c0.7,0,0.6,0.6,1.5,0.6c2.4-1.8-0.5-2.4,0.3-3.9c0.4-0.7,0.6-0.9,0.6-1.7
	c0-0.9-0.8-1.7,0.1-2.4c1.4-1.1,1.9-0.6,0.8-2.8c-0.8-1.6-0.3-3.5-2.6-2c-1.2,0.8-2.2,1-3.5,0.8c-1.3-0.3-3,0.1-3-1.7
	c0-1.3,1.9-2,1.7-2.1c-0.3-0.2-1.3-0.1-1.1-0.6c0.1-0.4,1.1-1.2,0.6-1.7c-0.5-0.5-1.8-0.2-2.3,0.1c-0.8,0.4-0.7,1-1,1.8
	c-1,3.1-4.9-1.9-4.3,1.4c0.2,1.2,1.4,1.2,2.3,1.7c1.6,0.8-1.2,1.5-1.8,1.5c-1.6,0-0.9,1-1.8,2.1c-1.4,1.6,1.1,1.2,1.5,1.9
	c-0.3,0.1-1,1.1-1.4,1.4c0,0.4-0.2,2.1,0.1,2.3c0.3,0.2,1.7-0.2,1.8,0.1c0.8,1.5-0.4,2,1.3,3.3c0.3,0.2-0.8,1.9-0.8,2.3
	c0,1.2,0.2,2.3,0.2,3.5c-0.1,2.3-2.7,2.4-4.3,3c-1.5,0.6-0.6,1.3-1.3,2.2c-0.6,0.9-1.3,1.1,0.5,1.6c0.5,0.2,3.8-0.2,2.1,1
	c-0.6,0.4-3.1,1.9-3.6,1.8c-1.2-0.1-1.2,0-2.3,0.4c-0.2-0.5-0.8-2.1-1.4-2.1c-1.2-0.1-1.9,1.3-2.2-0.8c-0.1-0.8-0.8-1-1.4-1.4
	c-0.9-0.5-1.8-1.2-2.7-1.6c-1.2-0.5-3.3-0.4-3.3-2.2c0-0.3,0.3-1.9,0-2c-0.8-0.1-1.7,1.3-2,0.2c-0.6-1.1-1.2-1.9-1.9-2.9
	c-0.9-1.1,0.4-1.4,0.7-2.3c0.2-0.7-0.2-1.2-0.4-1.7c-0.7-1.5-0.7,0.1-1.5,0.7c-0.7,0.6-2-1.6-2.3-2.2c-1.1-1.8,1.4-3.4,0.9-3.9
	c-1-0.9-1.2,0.4-1.2-1.5c0-0.6-0.9-0.2-1.3-0.2c-1.8,0.4-0.5,1.8-1.6,2.3c-0.3,0.1-3.3-1.2-3.7-1.3c-0.3-0.3-1.5-1.3-1.9-1.3
	c-0.5,0-1.7,1.5-1.7,0.7c0-0.5,0.1-1-0.4-1.2c-0.7-0.3-0.5-1-1.1-1.2c-0.9-0.3-2.7,0.1-3.2-0.6c-0.3-0.4-0.3-0.9-1-0.7
	c-0.5,0.1-1.4,1.7-1.6,1c-0.5-1.3-0.9,0-1.6-0.4c-0.3-0.1-0.2-0.3-0.5-0.3c-1.3,0-1.6,0.9-2.9,0.2c-0.8-0.4-1.6-0.6-2.5-0.4
	c-1.1,0.3-2.1,1-3.3,0.7l-3-1.1c0.2-1.7-2.8-3.9-3-5.4c-0.1-1.1-0.2-1.8-0.5-2.9c-0.4-1.2-2-2.3-2.5-3.6c-0.5-1.4-0.3-3.1-0.6-4.6
	c-0.3-1.8-1.2-0.3-2.2-0.2c-2.6,0.4-3.9-1.2-5.1-3.2c-0.6-1-2.2-2.7-1.3-3.9c1.4-2.1,2.1-4.2,1.6-6.7c-0.6-3-4.4-1.4-6.6-2.4
	c-0.7-0.4-3.8-2.4-3.7-3c0.2-3.2,1.3-7.2,3.9-9.1c1.5-1.1,2.6-2,3.5-3.7c1.2-2.2,1.5-4.5,3.3-6.4c5.2-3.6,4.8-2.4,7.7,1.7
	c2.6,3.6,4.7,0.4,7.9-0.7c2.6-0.9,5.4-0.4,8-1.2c2.9-0.9,1.6-1,2.3-3.2c0.6-1.7,3.7-3.8,4.9-5.4c2.5-3,0.7-5.5,5.1-8.1
	c1.6-1.2,3.2-2.1,5.1-2.5c1.4-0.3,1.5-1.3,2.1-2.5c0.6-1.4,1.8-3.6,2.9-4.8c1.7-1.8,1.9-4.6,2.2-6.9c0.3-1,0.7-2.7,1.7-3.3
	c0.8-0.5,1.6-0.8,2.6-0.8c1.4,0,3-0.4,4.1-1.3l-0.3,2.6c0.7-0.1,1.4,0.2,2.1,0.2c1.9,0,4.7-0.7,6.4,0.3L103.2,137.6z"/>
<path class="st2" d="M149.9,333.8c0.1,0.8-0.6,1.9-0.1,2.6c0.3,0.4,0.3,1.4,0.7,1.6c1.9,1,0.4,1.3,0.4,2.8c0,0.4,0.5,0.6,0.1,1.1
	c-0.8,0.9-1.3,1.5-1.8,2.6c-0.3,0.7-0.9,1.2,0.1,1.5c0.8,0.3,2.6,0.5,2.9,1.4c0.1,0.4-0.8,0.6-1,0.7c-0.9,0.2-1.1,0.7-1.7,1.3
	c-0.4,1-1.2,1.7-1.6,2.7c-0.5,1.2,1.5,0.6,1.9,1.1c0.2,0.2-0.4,1.7-0.4,2.2c0,0.5,0.5,1.2,0.4,1.7c-0.1,0.5-0.6,0.6-0.7,1.3
	c-0.4,2,1.1,3.7-2,4.4c-2.1,0.5,3,2.3,3.5,2.4c0,1.8-0.6,3.8-0.4,5.8c0.1,1.1-2,0.2-3.1,0.3c-0.8,0.1-1.7-0.2-2.5,0
	c-0.9,0.2-1.5,1.1-2.3,1.4c0.2,1.1,0.2,1.1,0.8,2c0.4,0.6-1,1.1-1,2.3c0,1-1.1,0.9-0.3,2.1c1.2,1.8,1.7,2.3,1.3,4.4
	c-0.2,1.2,0.5,3.1-1.6,3.1c-1,0-1.6-0.3-2.7-0.1c-0.3,0.1-2.2,0.1-0.9,0.5c1.7,0.6,1.1,1.3,0.8,2.6c-0.4,1.5-0.2,2.7,0,4.3l0-0.2
	c0.4,0.8,0.7,1.2,1.6,1.1c1.2-0.1-0.1,2.3,0.4,2.9c1.1,1.3,1.9,0.2,3.2,0c0.8-0.1,1.7-0.5,2.6-0.4c1.1,0.1,2.1-0.3,3,0.5
	c1,0.9-0.6,1.8-1,2.5c-1,0.1-1.3-0.4-1.3,1c0,0.6,1.4,1.3,1,2c-0.8,1.4-1.2-0.4-1.6-1c-0.7-1-2.5,0.2-3.6-0.8
	c-0.8-0.8-1.5,0-1.6-1.4c0-0.7-1.1-0.6-0.6,0.5c0.4,0.7,1.1,1.5,1.1,2.3c0,0.7-0.6,3.2,0.7,3.2c0.7,0,1.7-3.1,2.5-2
	c0.8,1.2,0.9,0.2,1.9,0.8c0.7,0.5,3,2.5,3.6,2.1c0.4-0.3,0.6-1.5,1.2-1.2c1.3,0.7,1.5-0.4,1.9-1.5c0.1-0.4,0.6-1.7,1.1-1.6
	c0.6,0.2,1.8-0.1,2.3,0.3c0.3,0.2-0.1,1.1-0.2,1.4c-0.4,1.2,1.2-0.1,1.6,0.4c0.3,0.5,0.2,1.7,0.4,2.3c0.2,0.3,1.6,2.8,2,2.2
	c0.2-0.3,1.7-1.8,2.1-1.4c0.5,0.6,0.3,3.3,0.4,4.2c0.2,1.6,2.2,0.4,2.2,1.3c0,0.7-0.6,1.7-0.8,2.5c-0.3,1.3,0.4,3.2-1.5,3.5
	c-1.8,0.3-1.9,0.4-3.2,1.6l-1.3-0.6c-0.4,0-0.7,0-1,0.2c-0.2,0.1-0.6,0.4-0.8,0.4c-0.5,0-0.7-0.5-0.9-0.9c-0.8-1.4-1.9,1.5-2.1,2.1
	c-0.9,2.2-3.6,0.5-2.7,3.5c0.6,1.9-1,2.3-2.2,3.2c-0.8,0.6,0.6,2.1,1.3,2.1c0.9,0.1,3.2,0,2.9,1.3c-0.5,2.9-2.1,1.6-3.4,3.1
	c-1,1.2-0.8,1.8-2.5,2.6c-1.3,0.7-2.5-0.5-3.6-0.2c-0.6,0.2-0.3,0.9-1.2,0.5c-2.5-1.1-1.5,1.6-3.1,1.8c-1.2,0.1-4.1,0.5-4.1-1.1
	c-0.8-0.2-1.8,0-2.6-0.1c-0.1-1.1-1.1-2.3-2.3-2.4c-1.6-0.1-3.1-1.4-4.8-1.8c-1.4-0.3-1.8-1.3-3.1-1.7c-0.7-0.2-1.9-0.1-2.4-0.7
	c-1.1-1.1-2.9-2.4-3.5-3.8c-0.5-1-0.6-1.6-1.4-2.5c-0.8-0.8-1.8-1.1-2.5-1.8l-3.7-1.6l-2.1-8.8c-0.6-2.5-0.5-6.1-1.6-8.4
	c-0.8-1.6-2.2-3.4-2.7-4.9c0-1.2-1-2.3-1-3.6c0-1,0.2-1.8-0.3-2.7c-1-1.7-1-3.1-3-4c-1-0.5-1-2.1,0.1-2.4l1.1-1.3l0.5-3
	c0.1-0.4-0.4-1.8-0.8-1.9c0-0.4,1.4-0.1,1.1-0.9c-0.3-0.9-1.4-1.5-1.5-2.7c0-0.5,0.1-1,0.1-1.5c0-0.5-0.4-1.7-0.4-2.2
	c1.1-0.3,1.9,0,1.9-1.5c0-0.5,0.1-1.5,0.2-2c0.3-1.2,1.8,0,1.4-1.5c-0.2-1,0.3-0.6,0.7-1.3c0.3-0.6-0.6-1.1-0.8-1.7
	c-0.6-0.5-0.7-1.6-1.1-2.3c-0.3-0.5-1.4-1-1.4-1.6c0.3-0.3,1.1,0.3,1.6-0.1c0.9-0.6,1.4-2.2,2.6-2.1c0.5,0,1,1.2,1.6,0.7
	c0.5-0.3,0.3-1.1,0.8-1.5l2.7-1.9c1.1-0.8,1.1-2,2-2.9c0.5,0,1.8,1.4,2.4,1.7c1.3,0.7,3.5-1.1,4.9-1.5c1.3-0.4,2.9,1.5,3.5,1.1
	c0-2.1-0.6-6.9,0.2-8.7c1.5,0.4,2.5,1.6,4,1.3c1.3-0.3,0.9,0.5,1.8,1.1c0.6,0.4,6.6-0.1,6.8-0.5c0.5-0.8-2.6-1.3-1.9-3.2
	c0.4-1.2-0.7-2.4,0.9-3.3c1.5-0.9,3.8,1.9,3.9-1.2c0-1,1.6-0.9,2.3-1.2c1-0.5,0.6-1.7,0.9-2.6c0.4-0.7,0.9-1.6,1.6-1.9
	c1-0.4,2.9,0,2.9-1.7c0-0.9-0.2-2.2,0.4-3c1.5-1.7,1.4,0.9,1.5,1.6C147.3,333.9,149.1,333.6,149.9,333.8"/>
<path class="st3" d="M119.8,439.3c-0.2-0.4-0.5-0.7-0.8-1.1c-0.8-1-1.8-1.8-2.3-3c-1-2,0.1-1.2-1.7-2c-1.1-0.4-2.2-2.9-2.6-4
	c-0.6-2-2.2-5.2-3.4-6.8l3.7,1.6c0.6,0.7,1.7,1,2.5,1.8c0.9,0.9,0.9,1.5,1.4,2.5c0.6,1.3,2.5,2.7,3.5,3.8c0.5,0.5,1.7,0.5,2.4,0.7
	c1.3,0.3,1.6,1.4,3.1,1.7c1.7,0.4,3.2,1.7,4.8,1.8c1.2,0.1,2.1,1.3,2.3,2.4l-1.6,1.3c-0.4,0.2-1.4,0.3-1.4,0.7
	c-0.2,3.1,5.7,0.8,4.2,3.8c-0.1,0.3-0.6,1.9-0.3,2c0.8,0.3,4.2-1.2,3.1,1.2c-0.4,1-1.6,2.3,0,2.7c0.7,0.2,1.6,0.7,1.9,1.3
	c0.3,0.5,0.4,1.2,0.7,1.8c0.5,1.1-1.5,0.8-1.5,2c0,0.7,1.8,0.8,1.3,2.6c-0.5,1.2-0.4,3.1,1,3.6c2,0.7,4.4-3.7,4.3,0.6
	c0,0.9,0.5,1.2,0.9,1.9c0.5,0.9-0.3,3.3-0.1,4.5c0.1,0.6-0.5,3,0.2,3.1c0.4,0.1,1.8-0.7,2-0.4c1.2,2.4-1.5,5.1-1.9,7.2
	c-0.3,1-2,2.4-1,3.5c0.8,0.8,1.6,1.2,0.8,2.4c-1.1,1.8,0.9,1.7,0.8,3.2c0,0.5-0.9,1-1.2,1.4c-0.4,0.5-0.9,2.4-1.1,3
	c-1.4-1.1-2.6-2.4-3.3-3.6c-1-0.6-2.4-2.9-3.1-4c-0.7-1.1-1.8-1.5-2.4-2.4c-0.5-0.8,0.7-0.9,1.1-1.2c1-0.8-0.5-0.8-1.1-0.4
	c-0.5,0.3-1.2-2.8-1.8-3.4c-1.4-1.5-1.7-4.1-2-6.1c-0.1-0.5-0.4-2.8-0.1-2.8c0,0.8,1,1.6,0.7,2.5c-0.6,1.7,1.3,1.8,1.2,1.2
	c-0.1-0.8-0.2-1.7-0.4-2.6c-0.8-2.7-2.4-5.5-3.6-8c-1.3-2.6-1.7-5.6-3-8.2c-0.8-1.5-1.7-2.8-1.9-4.5c-0.2-1.2-0.5-1.3-1.1-2.3
	c-0.2-2.1-2-4.2-2.7-6.1C120.2,440,120,439.7,119.8,439.3z M149.9,333.8c0.1,0.8-0.6,1.9-0.1,2.6c0.3,0.4,0.3,1.4,0.7,1.6
	c1.9,1,0.4,1.3,0.4,2.8c0,0.4,0.5,0.6,0.1,1.1c-0.8,0.9-1.3,1.5-1.8,2.6c-0.3,0.7-0.9,1.2,0.1,1.5c0.8,0.3,2.6,0.5,2.9,1.4
	c0.1,0.4-0.8,0.6-1,0.7c-0.9,0.2-1.1,0.7-1.7,1.3c-0.4,1-1.2,1.7-1.6,2.7c-0.5,1.2,1.5,0.6,1.9,1.1c0.2,0.2-0.4,1.7-0.4,2.2
	c0,0.5,0.5,1.2,0.4,1.7c-0.1,0.5-0.6,0.6-0.7,1.3c-0.4,2,1.1,3.7-2,4.4c-2.1,0.5,3,2.3,3.5,2.4c0,1.8-0.6,3.8-0.4,5.8
	c0.1,1.1-2,0.2-3.1,0.3c-0.8,0.1-1.7-0.2-2.5,0c-0.9,0.2-1.5,1.1-2.3,1.4c0.2,1.1,0.2,1.1,0.8,2c0.4,0.6-1,1.1-1,2.3
	c0,1-1.1,0.9-0.3,2.1c1.2,1.8,1.7,2.3,1.3,4.4c-0.2,1.2,0.5,3.1-1.6,3.1c-1,0-1.6-0.3-2.7-0.1c-0.3,0.1-2.2,0.1-0.9,0.5
	c1.7,0.6,1.1,1.3,0.8,2.6c-0.4,1.5-0.2,2.7,0,4.3l0-0.2c0.4,0.8,0.7,1.2,1.6,1.1c1.2-0.1-0.1,2.3,0.4,2.9c1.1,1.3,1.9,0.2,3.2,0
	c0.8-0.1,1.7-0.5,2.6-0.4c1.1,0.1,2.1-0.3,3,0.5c1,0.9-0.6,1.8-1,2.5c-1,0.1-1.3-0.4-1.3,1c0,0.6,1.4,1.3,1,2
	c-0.8,1.4-1.2-0.4-1.6-1c-0.7-1-2.5,0.2-3.6-0.8c-0.8-0.8-1.5,0-1.6-1.4c0-0.7-1.1-0.6-0.6,0.5c0.4,0.7,1.1,1.5,1.1,2.3
	c0,0.7-0.6,3.2,0.7,3.2c0.7,0,1.7-3.1,2.5-2c0.8,1.2,0.9,0.2,1.9,0.8c0.7,0.5,3,2.5,3.6,2.1c0.4-0.3,0.6-1.5,1.2-1.2
	c1.3,0.7,1.5-0.4,1.9-1.5c0.1-0.4,0.6-1.7,1.1-1.6c0.6,0.2,1.8-0.1,2.3,0.3c0.3,0.2-0.1,1.1-0.2,1.4c-0.4,1.2,1.2-0.1,1.6,0.4
	c0.3,0.5,0.2,1.7,0.4,2.3c0.2,0.3,1.6,2.8,2,2.2c0.2-0.3,1.7-1.8,2.1-1.4c0.5,0.6,0.3,3.3,0.4,4.2c0.2,1.6,2.2,0.4,2.2,1.3
	c0,0.7-0.6,1.7-0.8,2.5c-0.3,1.3,0.4,3.2-1.5,3.5c-1.8,0.3-1.9,0.4-3.2,1.6l-1.3-0.6c-0.4,0-0.7,0-1,0.2c-0.2,0.1-0.6,0.4-0.8,0.4
	c-0.5,0-0.7-0.5-0.9-0.9c-0.8-1.4-1.9,1.5-2.1,2.1c-0.9,2.2-3.6,0.5-2.7,3.5c0.6,1.9-1,2.3-2.2,3.2c-0.8,0.6,0.6,2.1,1.3,2.1
	c0.9,0.1,3.2,0,2.9,1.3c-0.5,2.9-2.1,1.6-3.4,3.1c-1,1.2-0.8,1.8-2.5,2.6c-1.3,0.7-2.5-0.5-3.6-0.2c-0.6,0.2-0.3,0.9-1.2,0.5
	c-2.5-1.1-1.5,1.6-3.1,1.8c-1.2,0.1-4.1,0.5-4.1-1.1c-0.8-0.2-1.8,0-2.6-0.1c-0.1-1.1-1.1-2.3-2.3-2.4c-1.6-0.1-3.1-1.4-4.8-1.8
	c-1.4-0.3-1.8-1.3-3.1-1.7c-0.7-0.2-1.9-0.1-2.4-0.7c-1.1-1.1-2.9-2.4-3.5-3.8c-0.5-1-0.6-1.6-1.4-2.5c-0.8-0.8-1.8-1.1-2.5-1.8
	l-3.7-1.6l-2.1-8.8c-0.6-2.5-0.5-6.1-1.6-8.4c-0.8-1.6-2.2-3.4-2.7-4.9c0-1.2-1-2.3-1-3.6c0-1,0.2-1.8-0.3-2.7c-1-1.7-1-3.1-3-4
	c-1-0.5-1-2.1,0.1-2.4l1.1-1.3l0.5-3c0.1-0.4-0.4-1.8-0.8-1.9c0-0.4,1.4-0.1,1.1-0.9c-0.3-0.9-1.4-1.5-1.5-2.7c0-0.5,0.1-1,0.1-1.5
	c0-0.5-0.4-1.7-0.4-2.2c1.1-0.3,1.9,0,1.9-1.5c0-0.5,0.1-1.5,0.2-2c0.3-1.2,1.8,0,1.4-1.5c-0.2-1,0.3-0.6,0.7-1.3
	c0.3-0.6-0.6-1.1-0.8-1.7c-0.6-0.5-0.7-1.6-1.1-2.3c-0.3-0.5-1.4-1-1.4-1.6c0.3-0.3,1.1,0.3,1.6-0.1c0.9-0.6,1.4-2.2,2.6-2.1
	c0.5,0,1,1.2,1.6,0.7c0.5-0.3,0.3-1.1,0.8-1.5l2.7-1.9c1.1-0.8,1.1-2,2-2.9c0.5,0,1.8,1.4,2.4,1.7c1.3,0.7,3.5-1.1,4.9-1.5
	c1.3-0.4,2.9,1.5,3.5,1.1c0-2.1-0.6-6.9,0.2-8.7c1.5,0.4,2.5,1.6,4,1.3c1.3-0.3,0.9,0.5,1.8,1.1c0.6,0.4,6.6-0.1,6.8-0.5
	c0.5-0.8-2.6-1.3-1.9-3.2c0.4-1.2-0.7-2.4,0.9-3.3c1.5-0.9,3.8,1.9,3.9-1.2c0-1,1.6-0.9,2.3-1.2c1-0.5,0.6-1.7,0.9-2.6
	c0.4-0.7,0.9-1.6,1.6-1.9c1-0.4,2.9,0,2.9-1.7c0-0.9-0.2-2.2,0.4-3c1.5-1.7,1.4,0.9,1.5,1.6C147.3,333.9,149.1,333.6,149.9,333.8z"
	/>
<path class="st2" d="M184.5,451.4l-1.2-1.1l0.8-0.9l1,0.5c0.4-1,0.8-2.1,0-2.9c-0.4-0.4,0.1-1.3,0.1-1.8c0-0.8-0.5-1.7-0.6-2.6
	c-0.1-1-0.8-1.8-0.8-2.9c0-0.6,0.1-1.4,0.4-2.1l-1.7-1.1c0-0.3-0.2-0.5-0.3-0.8c-0.1-0.5-0.2-1.1,0-1.5c0.1-0.3,0.4-0.6,0.7-0.8
	c0.7-0.6,1.8,0.8,2.5,1c0.5-1.2,1-2.3,1.3-3.1c0.5-1.4,1.4-2.4,2.4-3.6c0.5-0.6,0.9-1,1.3-1.7c0.4-0.7,0.3-1.6,0.7-2.4
	c1.3-2.4,0.8-5.2,1.4-7.8c0.3-1.2,0.7-2.8-0.1-3.9c-0.4-0.5-0.8-0.8-1.2-1c-1,0.2-2.9,0.9-3.9,1.2c-2.2,1.4-3.6,3.4-6.3,1.2
	c-1.2-1-3.7,2.4-4.3,3.1c-0.8,0.9-2.9,0.3-4,0.9c-2.1,1.2-2.2-0.2-4.4-0.1c-4,0.1-0.6,2.6-2.5,4.1c-0.7,0.5-2,3-2.7,2.8
	c-1.1-0.3-2.4-2.2-3.2-3.1l-1.3-0.6c-0.4,0-0.7,0-1,0.2c-0.2,0.1-0.6,0.4-0.8,0.4c-0.5,0-0.7-0.5-0.9-0.9c-0.8-1.4-1.9,1.5-2.1,2.1
	c-0.9,2.2-3.6,0.5-2.7,3.5c0.6,1.9-1,2.3-2.2,3.1c-0.8,0.6,0.6,2.1,1.3,2.1c0.9,0.1,3.2,0,2.9,1.3c-0.5,2.9-2.1,1.6-3.4,3.1
	c-1,1.2-0.8,1.8-2.5,2.6c-1.3,0.7-2.5-0.5-3.6-0.2c-0.6,0.2-0.3,0.9-1.2,0.5c-2.5-1.1-1.5,1.6-3.1,1.8c-1.2,0.1-4.1,0.5-4.1-1.1
	c-0.8-0.2-1.8,0-2.6-0.2l-1.6,1.3c-0.4,0.2-1.4,0.3-1.4,0.7c-0.2,3.1,5.7,0.8,4.2,3.8c-0.1,0.3-0.6,1.9-0.3,2
	c0.8,0.3,4.2-1.2,3.1,1.2c-0.4,1-1.6,2.3,0,2.7c0.7,0.2,1.6,0.7,1.9,1.3c0.3,0.5,0.4,1.2,0.7,1.8c0.5,1.1-1.5,0.8-1.5,2
	c0,0.7,1.8,0.8,1.3,2.6c-0.5,1.2-0.4,3.1,1,3.6c2,0.7,4.4-3.7,4.3,0.6c0,0.9,0.5,1.2,0.9,1.9c0.5,0.9-0.3,3.3-0.1,4.5
	c0.1,0.6-0.5,3,0.2,3.1c0.4,0.1,1.8-0.7,2-0.4c1.2,2.4-1.5,5.1-1.9,7.2c-0.3,1-2,2.4-1,3.5c0.8,0.8,1.6,1.2,0.8,2.4
	c-1.1,1.8,0.9,1.7,0.8,3.2c0,0.5-0.9,1-1.2,1.4c-0.4,0.5-0.9,2.4-1.1,3c1.1,0.8,2.2,1.5,3.2,2c1.8,0.7,2.8,0.9,4.4-0.5
	c0.5-0.4,1.4-0.5,2-0.6c1.7-0.4,5.3-3.6,5.7-5.3c0.5-1.7,0.3-5.6,1.3-6.9c1-0.6,2-1.7,3.1-2l8.6-2.4c2-0.6,4,0.4,5.8,0.8
	c-0.5-1.9-2.6-1.1-3.9-1.2c-3.7-0.6-2.8-4.8-0.9-6.9c0.9-1,2.2-2.9,2.9-4c0.9-1.5-0.6-2.9,1.2-4.3c1.7,0.2,2.7-2.2,4.9-1.3
	c0.8,0.3,2.4,0.4,2.9,0.7c0.7,0.5,1.4,0.5,0.9-0.6c-0.4-0.9,0-3.8,0-5v-3c-0.4,0-1.5,1-1.7,0.6C184,452.3,184.3,451.9,184.5,451.4"
	/>
<path class="st3" d="M184.5,451.4l-1.2-1.1l0.8-0.9l1,0.5c0.4-1,0.8-2.1,0-2.9c-0.4-0.4,0.1-1.3,0.1-1.8c0-0.8-0.5-1.7-0.6-2.6
	c-0.1-1-0.8-1.8-0.8-2.9c0-0.6,0.1-1.4,0.4-2.1l-1.7-1.1c0-0.3-0.2-0.5-0.3-0.8c-0.1-0.5-0.2-1.1,0-1.5c0.1-0.3,0.4-0.6,0.7-0.8
	c0.7-0.6,1.8,0.8,2.5,1c0.5-1.2,1-2.3,1.3-3.1c0.5-1.4,1.4-2.4,2.4-3.6c0.5-0.6,0.9-1,1.3-1.7c0.4-0.7,0.3-1.6,0.7-2.4
	c1.3-2.4,0.8-5.2,1.4-7.8c0.3-1.2,0.7-2.8-0.1-3.9c-0.4-0.5-0.8-0.8-1.2-1c-1,0.2-2.9,0.9-3.9,1.2c-2.2,1.4-3.6,3.4-6.3,1.2
	c-1.2-1-3.7,2.4-4.3,3.1c-0.8,0.9-2.9,0.3-4,0.9c-2.1,1.2-2.2-0.2-4.4-0.1c-4,0.1-0.6,2.6-2.5,4.1c-0.7,0.5-2,3-2.7,2.8
	c-1.1-0.3-2.4-2.2-3.2-3.1l-1.3-0.6c-0.4,0-0.7,0-1,0.2c-0.2,0.1-0.6,0.4-0.8,0.4c-0.5,0-0.7-0.5-0.9-0.9c-0.8-1.4-1.9,1.5-2.1,2.1
	c-0.9,2.2-3.6,0.5-2.7,3.5c0.6,1.9-1,2.3-2.2,3.1c-0.8,0.6,0.6,2.1,1.3,2.1c0.9,0.1,3.2,0,2.9,1.3c-0.5,2.9-2.1,1.6-3.4,3.1
	c-1,1.2-0.8,1.8-2.5,2.6c-1.3,0.7-2.5-0.5-3.6-0.2c-0.6,0.2-0.3,0.9-1.2,0.5c-2.5-1.1-1.5,1.6-3.1,1.8c-1.2,0.1-4.1,0.5-4.1-1.1
	c-0.8-0.2-1.8,0-2.6-0.2l-1.6,1.3c-0.4,0.2-1.4,0.3-1.4,0.7c-0.2,3.1,5.7,0.8,4.2,3.8c-0.1,0.3-0.6,1.9-0.3,2
	c0.8,0.3,4.2-1.2,3.1,1.2c-0.4,1-1.6,2.3,0,2.7c0.7,0.2,1.6,0.7,1.9,1.3c0.3,0.5,0.4,1.2,0.7,1.8c0.5,1.1-1.5,0.8-1.5,2
	c0,0.7,1.8,0.8,1.3,2.6c-0.5,1.2-0.4,3.1,1,3.6c2,0.7,4.4-3.7,4.3,0.6c0,0.9,0.5,1.2,0.9,1.9c0.5,0.9-0.3,3.3-0.1,4.5
	c0.1,0.6-0.5,3,0.2,3.1c0.4,0.1,1.8-0.7,2-0.4c1.2,2.4-1.5,5.1-1.9,7.2c-0.3,1-2,2.4-1,3.5c0.8,0.8,1.6,1.2,0.8,2.4
	c-1.1,1.8,0.9,1.7,0.8,3.2c0,0.5-0.9,1-1.2,1.4c-0.4,0.5-0.9,2.4-1.1,3c1.1,0.8,2.2,1.5,3.2,2c1.8,0.7,2.8,0.9,4.4-0.5
	c0.5-0.4,1.4-0.5,2-0.6c1.7-0.4,5.3-3.6,5.7-5.3c0.5-1.7,0.3-5.6,1.3-6.9c1-0.6,2-1.7,3.1-2l8.6-2.4c2-0.6,4,0.4,5.8,0.8
	c-0.5-1.9-2.6-1.1-3.9-1.2c-3.7-0.6-2.8-4.8-0.9-6.9c0.9-1,2.2-2.9,2.9-4c0.9-1.5-0.6-2.9,1.2-4.3c1.7,0.2,2.7-2.2,4.9-1.3
	c0.8,0.3,2.4,0.4,2.9,0.7c0.7,0.5,1.4,0.5,0.9-0.6c-0.4-0.9,0-3.8,0-5v-3c-0.4,0-1.5,1-1.7,0.6C184,452.3,184.3,451.9,184.5,451.4z"
	/>
<path class="st4" d="M185.4,434.3c-0.5,1.1-0.9,2.2-1.2,3.3l-1.7-1.1c0-0.3-0.2-0.5-0.3-0.8c-0.1-0.5-0.2-1.1,0-1.5
	c0.1-0.3,0.4-0.6,0.7-0.8C183.6,432.7,184.7,434.1,185.4,434.3 M185.1,449.9L185.1,449.9c-0.1,0.3-0.2,0.5-0.2,0.7
	c0,0.2-0.2,0.5-0.4,0.8l-1.2-1.1l0.8-0.9L185.1,449.9z"/>
<path class="st5" d="M185.4,434.3c-0.5,1.1-0.9,2.2-1.2,3.3l-1.7-1.1c0-0.3-0.2-0.5-0.3-0.8c-0.1-0.5-0.2-1.1,0-1.5
	c0.1-0.3,0.4-0.6,0.7-0.8C183.6,432.7,184.7,434.1,185.4,434.3 M185.1,449.9L185.1,449.9c-0.1,0.3-0.2,0.5-0.2,0.7
	c0,0.2-0.2,0.5-0.4,0.8l-1.2-1.1l0.8-0.9L185.1,449.9z"/>
<path class="st2" d="M90.7,374.9c-0.1-0.3-0.2-0.6-0.3-0.9c-0.6-1.6-0.9-1.7-2-3.1c-0.5-0.6-0.7-1.5-0.9-2.3L85,357.4
	c-0.9-3.6-2-6.9-2.2-10.6c-0.1-2.2-0.4-6.6-1.6-8.4c-0.4-0.6-1.1-1.8-1.2-2.4c-0.2-0.7-0.5-1.9,0.5-2.1c0.6-0.1-0.8-0.8-0.9-1.2
	c-0.3-1-1.9-3.1,0.4-3.1c-0.1-0.4-0.8-0.6-0.9-1c-0.2-0.6-0.3-1.2-0.6-1.7c-0.8-1.7-0.5-1.3,1.4-1.3c1,0,0-1.1-0.3-1.4
	c-1.2-1,0.7-1.4,1.4-2c1.5-1.2-0.8,0.2-0.8-1.9c0-2-1.4,4.2-2.6,1.5c-0.4-1,0.2-2.1-0.1-3.1c-0.3-1.3-0.5-1.6,1.2-1.6
	c0.8,0-0.3-0.7-0.5-0.8c-0.4-0.2-1.3,0.1-1.5-0.4c-0.2-0.3,0-0.5,0.1-0.8c0.1-0.5,0.9-0.8,1.3-1c0.2-0.1,0.7-0.3,0.8-0.5
	c-0.1-0.1-0.2-0.4-0.3-0.5c-0.1,0,0,0-0.1,0.1c-1.3,0.5-2.2,0.9-2.5-0.8c-0.2-1.2-0.1-2.4-0.2-3.7c-0.1-1-0.3-2.1-0.3-3.1
	c0-0.7,0.2-1.3,0.5-1.9l3.2-1.7c0,0.6,0.2,1.3,0.4,1.8c0.3,0.6,0.8,0.5,1.3,0.7c0.4,0.1,0.8,0.3,1.2,0.5c0.4,0.3,1,0.4,1.4,0.1
	c0.4-0.3-0.1-0.8,0.1-1.1c0.4-0.6,0.2-1.1,1-1.3c0.6-0.1,1.2,0,1.8-0.2c1.2-0.4-0.1-1.6-0.2-2.2c-0.1-0.5,0.4-0.8,0.7-1.1
	c0.5-0.5,0.4-1,0.6-1.6c-0.1-0.7-0.7-1.4-0.6-2.1c0.2-1.5,4.1,3,5.5,1c0.6-0.8-0.4-1.4,1.1-1.5c2.3-0.2,0.2-3.9-0.3-5.1
	c-0.4-0.8-1.5-1.1-2.1-1.7c-0.6-0.6-1.6-0.8,0.1-0.8c1.3,0,1.2-0.2,1.3-1.3c0-0.4,1.6-0.5,1.8-1.5c0.2-0.8-0.3-1.4-0.2-2.2
	c1,0,1.9,0.6,3,0.2c0.7-0.3,5.2-2.7,1.8-2.2c-0.9,0.1-1.4,0.1-2.4,0c-0.7-0.1-1.6,1.2-2.8,1.2c-0.8,0-1.6-0.5-1.2-1.4
	c0.4-0.9,0.1-0.9,1-1.4c1.3-0.7-0.2-0.9-0.5-1.4c-0.5-1.1,1-1.8,1.8-2.2l2-0.7c1.8,0.1,3.4-1.4,5.2-1.4c0.2,0.6,1.5,0.8,1.5,1
	c0.1,1.7-0.8,4,1.6,5c2,0.8,2.9,0.7,5,0.7c1.8,0,2.3,3,4.9,3c1.4,0,2.7,0.8,4,0.8l5.4-0.1c2.7,0.2,3.5-0.7,4.1,2.3
	c0.3,1.9,1.5,3.5,3.4,2.6l4.2-2c2-1-1.5-1.7,0.7-2.9c2.9-1.6,2.8-4.6,7-5.5c1.6-0.3,4.8-1.9,5.8,0.1c0.2,0.5,1.1,2.6,0.5,2.6
	c-4.3,0,0.2,3.4,1.5,3.4c3.6-0.1,5.6-0.4,8.6-2.6c0.3-0.1,3.8-2.5,3.8-1.1c0,1.7,1.7,0.8,3.1,1.3c0.8,0.3,3.1,0.4,3.7-0.2
	c1.2-1.1,0.7-0.6,2.1-1.2c1.8-0.8,2.6-2.2,4.5-1.5c1.5,0.6,1.8-0.2,3,1.2c1.6,2,2.2-0.9,4.8,0.7c0.6,0.3,2.5,0.2,3.3,0.3
	c1.4,0.2,1.6-1.6,3.2-1.6c0.9,0.4,1.3,0.7,1.9,1.6c0.2,0.4,0.3,0.8,0.6,1.2c0.8,1.1,2.9,1.9,4.2,2.3c-0.2,1.2-2,1.9-2.7,2.8
	c-0.7,0.9-0.4,1.5-0.5,2.5c0,0.3-0.3,0.7-0.1,1c0.3,0.5,1.3,0.2,1.3,1c0,0.9-0.4,2.2-0.7,3.1c-0.6,2.1,0.3,1.2,1.4,0.8
	c0.2,1.8,0.3,2.9,0,4.7c-0.2,1.5-1,1.3-2.1,2.1c-2.5,1.9,2,1.4,1.3,3.4c-0.1,0.4-0.1,1.4-0.3,1.7c-0.2,0.3-1.3-0.5-1.4,0.4
	c0,0.3,0.4,0.4,0.4,0.7c0,0.4-0.5,0.6-0.4,1.1c0.2,0.6,1.5-0.8,2,0.1c0.4,0.7,1.2,1.1,1.8,1.6c0.4,0.4-0.1,0.7-0.3,1
	c-0.5,0.8,1.3,0.8,1.6,0.8c0.9,0.2,1.1,0.6,1.5,1.4c0.6,1.2-0.8,2.5-1.9,3c-0.8,0.3-0.8,0.5-1.4-0.3c-0.4-0.5-1.1-0.8-1.3-1.4
	c-0.1,0-1.7,1.8-1.9,2c-1.4,1.3-1.4,2.7-1.9,4.3c-0.2,0.7-0.4,1.3,0.1,1.9c0.7,0.9,0.3,0.8-0.1,1.7l-0.2,1.2c-0.9,0-1.8,0.3-2.8,0.3
	c-0.6,0-0.9-0.7-1.4-1c-0.3-0.1-0.7-0.2-0.9-0.5c-0.3-0.3-0.2-1.5-0.2-2c0-1.9-0.7-3.7-0.4-5.5c0.3-1.6,1.4-3.2-0.5-3.9
	c-0.3-0.1-0.7-0.7-1.1-0.9c-0.7-0.5-1.8-1.7-2.7-0.6c-0.2,0.3-1.2,1.2-1.7,1c-1.2-0.6-0.6,0.1-1.7,0.5c-0.9-0.3-3.7-3.7-3.7-0.8
	c0,1.8-1.2,1.9-2.9,1.3c-1.1-0.4-0.9-1.8-1-2.6c-0.3-1.4-2-1.1-2.9-1.8c-0.7-0.6-0.9-1.4-2-1.6c-1.3-0.2-2,0.1-3.1-0.8
	c-3-2.3-0.6,1.5-1.8,3.3c-0.8,1.2-1.2,1.6,0,2.8c1.4,1.4-2,1.6-2.2,2.3c-0.2,0.5,0.5,1.8,0.1,2.1c-0.5,0.3-1.7-0.3-2.1-0.5
	c-3.1-1.3-2.1-0.4-3.3,2.3c-1.5,0.9-2.3,1.4-1,3c0.4,0.5,2.9,1.2,2.5,1.6c-0.6,0.5-1.2,1.2-1.8,1.7c-0.9,0.8-0.8,1.2-1.1,2.3
	c-0.6,1.8-2.2,1.3-3,2.7c-0.4,0.7,0,1.6-0.1,2.3c-0.8-0.1-2.6,0.2-2.9-1c-0.2-0.7,0-3.3-1.5-1.6c-0.7,0.8-0.4,2-0.4,3
	c-0.1,1.7-2,1.2-2.9,1.7c-0.7,0.3-1.2,1.2-1.6,1.9c-0.3,0.9,0.1,2.2-0.9,2.6c-0.7,0.3-2.2,0.3-2.3,1.2c-0.1,3.1-2.4,0.3-3.9,1.2
	c-1.6,1-0.5,2.2-0.9,3.3c-0.7,1.9,2.4,2.4,1.9,3.2c-0.2,0.3-6.1,0.9-6.8,0.5c-0.9-0.6-0.5-1.4-1.8-1.1c-1.4,0.3-2.5-0.9-4-1.3
	c-0.9,1.8-0.2,6.5-0.2,8.7c-0.6,0.3-2.2-1.5-3.5-1.1c-1.4,0.4-3.7,2.2-4.9,1.5c-0.5-0.3-1.8-1.7-2.4-1.7c-0.9,0.9-0.8,2.1-2,2.9
	l-2.7,1.9c-0.5,0.3-0.3,1.1-0.8,1.5c-0.7,0.4-1.1-0.7-1.6-0.7c-1.2-0.1-1.7,1.6-2.6,2.1c-0.5,0.3-1.3-0.2-1.6,0.1
	c0,0.6,1.1,1.1,1.4,1.6c0.4,0.7,0.5,1.8,1.1,2.3c0.1,0.6,1.1,1.1,0.8,1.7c-0.4,0.7-0.9,0.3-0.7,1.3c0.4,1.6-1.1,0.3-1.4,1.5
	c-0.1,0.5-0.2,1.5-0.2,2c0,1.5-0.9,1.2-1.9,1.5c-1.2,0-1.1,2.5-2.6,2.5c-1.3-0.1-1.6-2-2.2-2.8c-0.9-1.1-0.8-0.2-1.8,0.1L90.7,374.9
	z"/>
<path class="st3" d="M90.7,374.9c-0.1-0.3-0.2-0.6-0.3-0.9c-0.6-1.6-0.9-1.7-2-3.1c-0.5-0.6-0.7-1.5-0.9-2.3L85,357.4
	c-0.9-3.6-2-6.9-2.2-10.6c-0.1-2.2-0.4-6.6-1.6-8.4c-0.4-0.6-1.1-1.8-1.2-2.4c-0.2-0.7-0.5-1.9,0.5-2.1c0.6-0.1-0.8-0.8-0.9-1.2
	c-0.3-1-1.9-3.1,0.4-3.1c-0.1-0.4-0.8-0.6-0.9-1c-0.2-0.6-0.3-1.2-0.6-1.7c-0.8-1.7-0.5-1.3,1.4-1.3c1,0,0-1.1-0.3-1.4
	c-1.2-1,0.7-1.4,1.4-2c1.5-1.2-0.8,0.2-0.8-1.9c0-2-1.4,4.2-2.6,1.5c-0.4-1,0.2-2.1-0.1-3.1c-0.3-1.3-0.5-1.6,1.2-1.6
	c0.8,0-0.3-0.7-0.5-0.8c-0.4-0.2-1.3,0.1-1.5-0.4c-0.2-0.3,0-0.5,0.1-0.8c0.1-0.5,0.9-0.8,1.3-1c0.2-0.1,0.7-0.3,0.8-0.5
	c-0.1-0.1-0.2-0.4-0.3-0.5c-0.1,0,0,0-0.1,0.1c-1.3,0.5-2.2,0.9-2.5-0.8c-0.2-1.2-0.1-2.4-0.2-3.7c-0.1-1-0.3-2.1-0.3-3.1
	c0-0.7,0.2-1.3,0.5-1.9l3.2-1.7c0,0.6,0.2,1.3,0.4,1.8c0.3,0.6,0.8,0.5,1.3,0.7c0.4,0.1,0.8,0.3,1.2,0.5c0.4,0.3,1,0.4,1.4,0.1
	c0.4-0.3-0.1-0.8,0.1-1.1c0.4-0.6,0.2-1.1,1-1.3c0.6-0.1,1.2,0,1.8-0.2c1.2-0.4-0.1-1.6-0.2-2.2c-0.1-0.5,0.4-0.8,0.7-1.1
	c0.5-0.5,0.4-1,0.6-1.6c-0.1-0.7-0.7-1.4-0.6-2.1c0.2-1.5,4.1,3,5.5,1c0.6-0.8-0.4-1.4,1.1-1.5c2.3-0.2,0.2-3.9-0.3-5.1
	c-0.4-0.8-1.5-1.1-2.1-1.7c-0.6-0.6-1.6-0.8,0.1-0.8c1.3,0,1.2-0.2,1.3-1.3c0-0.4,1.6-0.5,1.8-1.5c0.2-0.8-0.3-1.4-0.2-2.2
	c1,0,1.9,0.6,3,0.2c0.7-0.3,5.2-2.7,1.8-2.2c-0.9,0.1-1.4,0.1-2.4,0c-0.7-0.1-1.6,1.2-2.8,1.2c-0.8,0-1.6-0.5-1.2-1.4
	c0.4-0.9,0.1-0.9,1-1.4c1.3-0.7-0.2-0.9-0.5-1.4c-0.5-1.1,1-1.8,1.8-2.2l2-0.7c1.8,0.1,3.4-1.4,5.2-1.4c0.2,0.6,1.5,0.8,1.5,1
	c0.1,1.7-0.8,4,1.6,5c2,0.8,2.9,0.7,5,0.7c1.8,0,2.3,3,4.9,3c1.4,0,2.7,0.8,4,0.8l5.4-0.1c2.7,0.2,3.5-0.7,4.1,2.3
	c0.3,1.9,1.5,3.5,3.4,2.6l4.2-2c2-1-1.5-1.7,0.7-2.9c2.9-1.6,2.8-4.6,7-5.5c1.6-0.3,4.8-1.9,5.8,0.1c0.2,0.5,1.1,2.6,0.5,2.6
	c-4.3,0,0.2,3.4,1.5,3.4c3.6-0.1,5.6-0.4,8.6-2.6c0.3-0.1,3.8-2.5,3.8-1.1c0,1.7,1.7,0.8,3.1,1.3c0.8,0.3,3.1,0.4,3.7-0.2
	c1.2-1.1,0.7-0.6,2.1-1.2c1.8-0.8,2.6-2.2,4.5-1.5c1.5,0.6,1.8-0.2,3,1.2c1.6,2,2.2-0.9,4.8,0.7c0.6,0.3,2.5,0.2,3.3,0.3
	c1.4,0.2,1.6-1.6,3.2-1.6c0.9,0.4,1.3,0.7,1.9,1.6c0.2,0.4,0.3,0.8,0.6,1.2c0.8,1.1,2.9,1.9,4.2,2.3c-0.2,1.2-2,1.9-2.7,2.8
	c-0.7,0.9-0.4,1.5-0.5,2.5c0,0.3-0.3,0.7-0.1,1c0.3,0.5,1.3,0.2,1.3,1c0,0.9-0.4,2.2-0.7,3.1c-0.6,2.1,0.3,1.2,1.4,0.8
	c0.2,1.8,0.3,2.9,0,4.7c-0.2,1.5-1,1.3-2.1,2.1c-2.5,1.9,2,1.4,1.3,3.4c-0.1,0.4-0.1,1.4-0.3,1.7c-0.2,0.3-1.3-0.5-1.4,0.4
	c0,0.3,0.4,0.4,0.4,0.7c0,0.4-0.5,0.6-0.4,1.1c0.2,0.6,1.5-0.8,2,0.1c0.4,0.7,1.2,1.1,1.8,1.6c0.4,0.4-0.1,0.7-0.3,1
	c-0.5,0.8,1.3,0.8,1.6,0.8c0.9,0.2,1.1,0.6,1.5,1.4c0.6,1.2-0.8,2.5-1.9,3c-0.8,0.3-0.8,0.5-1.4-0.3c-0.4-0.5-1.1-0.8-1.3-1.4
	c-0.1,0-1.7,1.8-1.9,2c-1.4,1.3-1.4,2.7-1.9,4.3c-0.2,0.7-0.4,1.3,0.1,1.9c0.7,0.9,0.3,0.8-0.1,1.7l-0.2,1.2c-0.9,0-1.8,0.3-2.8,0.3
	c-0.6,0-0.9-0.7-1.4-1c-0.3-0.1-0.7-0.2-0.9-0.5c-0.3-0.3-0.2-1.5-0.2-2c0-1.9-0.7-3.7-0.4-5.5c0.3-1.6,1.4-3.2-0.5-3.9
	c-0.3-0.1-0.7-0.7-1.1-0.9c-0.7-0.5-1.8-1.7-2.7-0.6c-0.2,0.3-1.2,1.2-1.7,1c-1.2-0.6-0.6,0.1-1.7,0.5c-0.9-0.3-3.7-3.7-3.7-0.8
	c0,1.8-1.2,1.9-2.9,1.3c-1.1-0.4-0.9-1.8-1-2.6c-0.3-1.4-2-1.1-2.9-1.8c-0.7-0.6-0.9-1.4-2-1.6c-1.3-0.2-2,0.1-3.1-0.8
	c-3-2.3-0.6,1.5-1.8,3.3c-0.8,1.2-1.2,1.6,0,2.8c1.4,1.4-2,1.6-2.2,2.3c-0.2,0.5,0.5,1.8,0.1,2.1c-0.5,0.3-1.7-0.3-2.1-0.5
	c-3.1-1.3-2.1-0.4-3.3,2.3c-1.5,0.9-2.3,1.4-1,3c0.4,0.5,2.9,1.2,2.5,1.6c-0.6,0.5-1.2,1.2-1.8,1.7c-0.9,0.8-0.8,1.2-1.1,2.3
	c-0.6,1.8-2.2,1.3-3,2.7c-0.4,0.7,0,1.6-0.1,2.3c-0.8-0.1-2.6,0.2-2.9-1c-0.2-0.7,0-3.3-1.5-1.6c-0.7,0.8-0.4,2-0.4,3
	c-0.1,1.7-2,1.2-2.9,1.7c-0.7,0.3-1.2,1.2-1.6,1.9c-0.3,0.9,0.1,2.2-0.9,2.6c-0.7,0.3-2.2,0.3-2.3,1.2c-0.1,3.1-2.4,0.3-3.9,1.2
	c-1.6,1-0.5,2.2-0.9,3.3c-0.7,1.9,2.4,2.4,1.9,3.2c-0.2,0.3-6.1,0.9-6.8,0.5c-0.9-0.6-0.5-1.4-1.8-1.1c-1.4,0.3-2.5-0.9-4-1.3
	c-0.9,1.8-0.2,6.5-0.2,8.7c-0.6,0.3-2.2-1.5-3.5-1.1c-1.4,0.4-3.7,2.2-4.9,1.5c-0.5-0.3-1.8-1.7-2.4-1.7c-0.9,0.9-0.8,2.1-2,2.9
	l-2.7,1.9c-0.5,0.3-0.3,1.1-0.8,1.5c-0.7,0.4-1.1-0.7-1.6-0.7c-1.2-0.1-1.7,1.6-2.6,2.1c-0.5,0.3-1.3-0.2-1.6,0.1
	c0,0.6,1.1,1.1,1.4,1.6c0.4,0.7,0.5,1.8,1.1,2.3c0.1,0.6,1.1,1.1,0.8,1.7c-0.4,0.7-0.9,0.3-0.7,1.3c0.4,1.6-1.1,0.3-1.4,1.5
	c-0.1,0.5-0.2,1.5-0.2,2c0,1.5-0.9,1.2-1.9,1.5c-1.2,0-1.1,2.5-2.6,2.5c-1.3-0.1-1.6-2-2.2-2.8c-0.9-1.1-0.8-0.2-1.8,0.1L90.7,374.9
	z"/>
<path class="st4" d="M77.5,300.1c0.3-0.7,0.5-1.4,0.7-2.2c0.1,0.1,0.5,0.3,0.6,0.5c0.1,0.1,0.2,0.3,0.3,0.5c0.1,0.2,0.1,0.4,0.1,0.6
	c0,0.5-0.4,0.5-0.8,0.6C78,300.2,77.9,300.3,77.5,300.1 M79.3,301.9L79.3,301.9c0.4-0.5,0.8-1.2,1.4-1.5c0.7-0.3,1.8-0.6,1.8,0.5
	c0,0.4-0.2,0.7-0.1,1.1c0.1,0.5,0.1,0.8,0.5,1.2l0.7,0.8c0-0.1,0.2,0.9-0.1,1.1c-0.4,0.4-1,0.2-1.4-0.1c-0.4-0.3-0.8-0.4-1.2-0.5
	c-0.5-0.2-1-0.1-1.3-0.7C79.5,303.1,79.3,302.5,79.3,301.9"/>
<path class="st5" d="M77.5,300.1c0.3-0.7,0.5-1.4,0.7-2.2c0.1,0.1,0.5,0.3,0.6,0.5c0.1,0.1,0.2,0.3,0.3,0.5c0.1,0.2,0.1,0.4,0.1,0.6
	c0,0.5-0.4,0.5-0.8,0.6C78,300.2,77.9,300.3,77.5,300.1 M79.3,301.9L79.3,301.9c0.4-0.5,0.8-1.2,1.4-1.5c0.7-0.3,1.8-0.6,1.8,0.5
	c0,0.4-0.2,0.7-0.1,1.1c0.1,0.5,0.1,0.8,0.5,1.2l0.7,0.8c0-0.1,0.2,0.9-0.1,1.1c-0.4,0.4-1,0.2-1.4-0.1c-0.4-0.3-0.8-0.4-1.2-0.5
	c-0.5-0.2-1-0.1-1.3-0.7C79.5,303.1,79.3,302.5,79.3,301.9"/>
<path class="st3" d="M214.7,340.2c0.2-0.1,0.4-0.3,0.6-0.4c1-0.7,2.3-1.2,3.4-1.9c1.9-1.3,2.7,1.4,4.2,0.1c2.1-1.8,0.1-3.3,1.1-5.6
	c0.6-0.6,2.3-5.3,2.9-1.4c0.1,0.7,0.9,0.7,1,1.2c0.1,0.6,0,1.2,0.1,1.9c1.6,0.2,1.4-4,3.9-2.4c0.6,0.4,4.2,1.5,3.8-0.4
	c-0.4-1.9-1.8-4.5,0.9-5.3c1.2-0.4,2.1-0.6,3-1.6c0.8-0.9-0.4-1.4-0.4-2.4c0.4-0.4,1.4,0.1,1.9-0.4c0.3-0.3,0.5-1.3,1-0.7
	c1.4,1.8,0.9-1.2,1.6-1.4c0.3-0.1,0.5,1.8,0.8,2.2c0.5,0.5,0.9,0.4,1.5,0.8c0.6,0.3,0.7,1.7,1.4,2.3c0.9,0.8,3.1,0.9,4.3,0.9
	c1.5,0,1.8,0.3,2.3-1.1c0.3-0.7,0.6-1.6,1.1-2.1c0.5-0.5,0.8-0.3,1.4-0.5c0.7-0.2,1.2-1.1,1.6-1.5c0.6-0.5,1.9-0.6,2.7-0.3
	c-0.5,0.9-1,1.9-1.8,2.8l-4.1,5.1c-1,1.2-0.9,0.8-1.9,1.4c-0.7,0.5-0.6,2.7-2.1,3.5l-7,3.6c-1.5,0.8-2.3,2.3-3.7,3.2
	c-1.8,2.8-3.1,4.3-6.1,6.1l-9.5,5.7c-0.9,0.5-3,3.9-2.8,4.9c0.2,0.9,1,1.9,0.8,2.7c-0.2,0.7-2.3,1.3-2.9,1.4c-0.8,1-1.6,2.3-2.8,3
	c-0.9,0.5-2.7,0-3.8,0.4c-0.8,0.3-1.1-0.5-1.8-0.3c-0.7,0.2-1.1,0.6-1.8,0.6c-1.5,0-1.6-1.6-2.7,0.7c-0.9,1.9-1.1,4.5-2.2,6.2
	c-0.5,0.9-1.9,0.7-2.5,1.7c-0.9,1.4-0.9,1.7-2-0.1c-1-1.8-6.3,0.7-7.7,1.3c-1.6,0.7-1.6,3.8-2.5,5c-3.1,5.3-1.7,9.9,0.2,15.2
	c0.7,2-1,2.7-1,4.4c0,1.1,0.4,2.5,0.1,3.6c0.1,0.6,1.3,2.8,1.6,3.2c-0.6,0.8-0.1,1.8-0.1,2.7c-0.5,0-1.1-1.2-1.3-1.5
	c-0.5-0.8-0.8,1.4-0.8,1.7c0,1.8,0.9,1.9,1.9,2.3c-1,0.2-2.9,0.9-3.9,1.2c-2.2,1.4-3.6,3.4-6.3,1.2c-1.2-1-3.7,2.4-4.3,3.1
	c-0.8,0.9-2.9,0.3-4,0.9c-2.1,1.2-2.2-0.2-4.4-0.1c-4,0.1-0.6,2.6-2.5,4.1c-0.7,0.5-2,3-2.7,2.8c-1.1-0.3-2.4-2.2-3.2-3.1
	c1.3-1.3,1.3-1.3,3.2-1.6c1.9-0.4,1.2-2.2,1.5-3.5c0.2-0.8,0.8-1.7,0.8-2.5c0-0.9-2.1,0.3-2.2-1.3c-0.1-0.9,0.1-3.6-0.4-4.2
	c-0.4-0.4-1.9,1-2.1,1.3c-0.5,0.6-1.8-1.8-2-2.2c-0.2-0.7-0.1-1.9-0.4-2.3c-0.4-0.5-1.9,0.9-1.6-0.4c0.1-0.2,0.4-1.2,0.2-1.4
	c-0.5-0.3-1.7-0.1-2.3-0.3c-0.5-0.1-0.9,1.2-1.1,1.6c-0.4,1.1-0.6,2.2-1.9,1.5c-0.7-0.3-0.9,0.9-1.2,1.2c-0.5,0.5-2.9-1.6-3.6-2.1
	c-1-0.6-1,0.4-1.9-0.8c-0.8-1-1.8,2-2.5,2c-1.4,0-0.7-2.5-0.7-3.2c0-0.8-0.7-1.6-1.1-2.3c-0.5-1,0.6-1.2,0.6-0.5
	c0,1.4,0.7,0.6,1.6,1.4c1,1,2.9-0.2,3.6,0.8c0.4,0.6,0.8,2.4,1.6,1c0.4-0.7-1.1-1.5-1-2c0.1-1.4,0.4-0.9,1.3-1c0.4-0.7,2-1.5,1-2.5
	c-0.9-0.8-1.9-0.4-3-0.5c-0.8-0.1-1.8,0.3-2.6,0.4c-1.3,0.2-2.2,1.3-3.2,0c-0.5-0.6,0.8-2.9-0.4-2.9c-0.9,0-1.2-0.3-1.6-1.1l0,0.2
	c-0.2-1.6-0.3-2.7,0-4.3c0.3-1.3,1-2.1-0.8-2.6c-1.3-0.5,0.5-0.5,0.9-0.5c1.1-0.3,1.7,0.1,2.7,0.1c2.1,0,1.4-1.8,1.6-3.1
	c0.3-2.1-0.1-2.6-1.3-4.4c-0.8-1.2,0.3-1.1,0.3-2.1c0-1.2,1.4-1.7,1-2.3c-0.6-0.8-0.6-0.9-0.8-2c0.8-0.3,1.4-1.2,2.3-1.4
	c0.8-0.2,1.7,0.1,2.5,0c1-0.1,2.7,0.6,3.1,0l1.4,0.3c0.9,0,1.8,0.6,2.8,0.5c0.7,0,1.6-0.7,2.2-0.3c0.6,0.4,1,0.1,1.6,0.2
	c0.8,0.2,1.1,0.8,1.8,0.1c0.6-0.6,1.2-1.2,1.9-1.7c0.7-1,1.4-1.9,2.7-1.4c1.7,0.6,1.2-0.4,2.2-0.4c1.1,0,2.3,2.1,3.2,0.6
	c0.2-0.3,0.3-1.6,0.7-1.5c0.6,0.2,0.9-0.3,1.1-0.8c1.2,0,1.2-1.3,2.5-0.5c1.4,0.8,2.4-0.5,1.9-1.9c0-0.8-0.6-1.2,0.1-1.7
	c0.4-0.4,0.1-0.8,0.5-1.2c1-1,2.1-0.5,2.8-1.2c0.6-0.5,1.2-0.4,1.9-1c0.6-0.5,0.8,0.2,1.3-0.1c0.3-0.1,2-0.9,2.1-0.8
	c0.7,0.7,1-0.1,1.5,1.1c1.5,0.6,2.9-1.8,2.4-3.1c-1.1,0-0.1-1.3,0-1.8c0.1-0.2,0.7-0.1,1-0.3l1-0.7c0.4,0.3,1.1,0.1,1.4,0.3
	c0.7,0.4,0.3,2.2,1.6,2.2c1.2,0,1,0.8,1.6,1.4c0.8,0.8,3.1-2.3,0.7-2.3c-1.2,0-2.3-0.4-2-1.6c0.3-1.6,0.8,0.7,1.8-1
	c0.4-0.6,1.1-1.2,1.8-0.6c0.6,0.6,2.5,1.5,3.3,1.2c1.3-0.5,0-2.5,2.2-2.5c0.8,0,1.3-0.1,2-0.3c1.6-0.4,0.5-1.4,2.1-1.7
	c0.2,0,0.5-0.2,0.6-0.5l1.6,0c0.6,0.3,1.2-0.6,1.3-1.1c0.1-0.7,0.1-1.1,0.5-1.6c0.4-0.5,0.6-1.9,0.8-2.6
	C212.5,341.7,215.2,341.4,214.7,340.2z M208,348.1l1.6,0c0.6,0.3,1.2-0.6,1.3-1.1c0.1-0.7,0.1-1.1,0.5-1.6c0.4-0.5,0.6-1.9,0.8-2.6
	c0.4-1.1,3-1.5,2.6-2.6c-1.5,0.9-3.3,1.5-5,0.7c-0.3,0.3-0.4,1-0.9,1.1c-0.6,0.2-1-0.4-1.5-0.6c-1.8-1-3.5,2.1-4.2,0.4
	c-0.4-1-0.5-3.2-0.7-4.2c-0.1-0.6,0.6-2-0.4-1.6c-1.8,0.9-0.9-2.2-1.5-1.4c-0.4,0.6-0.4,2-1.2,0.9c-1.2-1.6,0.6-3.3-1.4-5.1
	c-0.5-0.4-2.1-2.5-2.5-2.5c-0.6,0-1.2,0.8-1.8,0.6c-0.5-0.2-1-1.4-1.1-1.9c-0.9,0-1.8,0.3-2.8,0.3c-0.6,0-0.9-0.7-1.4-1
	c-0.3-0.1-0.7-0.2-0.9-0.5c-0.3-0.3-0.2-1.5-0.2-2c0-1.9-0.7-3.7-0.4-5.5c0.3-1.6,1.4-3.2-0.5-3.9c-0.3-0.1-0.7-0.7-1.1-0.9
	c-0.7-0.5-1.8-1.7-2.7-0.6c-0.2,0.3-1.2,1.2-1.6,1c-1.2-0.6-0.6,0.1-1.7,0.5c-0.9-0.3-3.7-3.7-3.7-0.8c0,1.8-1.2,2-2.9,1.3
	c-1.1-0.4-0.9-1.8-1-2.6c-0.3-1.4-2-1.1-2.9-1.8c-0.7-0.6-0.9-1.4-2-1.6c-1.3-0.2-2,0.1-3.1-0.8c-3-2.3-0.6,1.5-1.8,3.3
	c-0.8,1.2-1.2,1.6,0,2.8c1.4,1.4-2,1.6-2.2,2.3c-0.2,0.5,0.5,1.8,0.1,2.1c-0.5,0.3-1.7-0.3-2.1-0.5c-3.1-1.3-2.1-0.4-3.3,2.3
	c-1.5,0.9-2.3,1.4-1,3c0.4,0.5,2.9,1.2,2.5,1.6c-0.6,0.5-1.2,1.2-1.8,1.7c-0.9,0.8-0.8,1.2-1.1,2.3c-0.6,1.8-2.2,1.3-3,2.7
	c-0.4,0.7,0,1.6-0.1,2.3c0.1,0.8-0.6,1.9-0.1,2.6c0.3,0.4,0.3,1.4,0.7,1.6c1.9,1,0.4,1.3,0.4,2.8c0,0.4,0.5,0.6,0.1,1.1
	c-0.8,0.9-1.3,1.5-1.8,2.6c-0.3,0.7-0.9,1.2,0.1,1.5c0.8,0.3,2.6,0.5,2.9,1.4c0.1,0.4-0.8,0.6-1,0.7c-0.9,0.2-1.1,0.7-1.7,1.3
	c-0.4,1-1.2,1.7-1.6,2.7c-0.5,1.2,1.5,0.6,1.9,1.1c0.2,0.2-0.4,1.7-0.4,2.2c0,0.5,0.5,1.2,0.4,1.7c-0.1,0.5-0.6,0.6-0.7,1.3
	c-0.4,2,1.1,3.7-2,4.4c-2.1,0.5,3,2.3,3.5,2.4c0,1.8-0.6,3.8-0.4,5.8c0,0.1,0,0.3-0.1,0.3l1.4,0.3c0.9,0,1.8,0.6,2.8,0.5
	c0.7,0,1.6-0.7,2.2-0.3c0.6,0.4,1,0.1,1.6,0.2c0.8,0.2,1.1,0.8,1.8,0.1c0.6-0.6,1.2-1.2,1.9-1.7c0.7-1,1.4-1.9,2.7-1.4
	c1.7,0.6,1.2-0.4,2.2-0.4c1.1,0,2.3,2.1,3.2,0.6c0.2-0.3,0.3-1.6,0.7-1.5c0.6,0.2,0.9-0.3,1.1-0.8c1.2,0,1.2-1.3,2.5-0.5
	c1.4,0.8,2.4-0.5,1.9-1.9c0-0.8-0.6-1.2,0.1-1.7c0.4-0.4,0.1-0.8,0.5-1.2c1-1,2.1-0.5,2.8-1.2c0.6-0.5,1.2-0.4,1.9-1
	c0.6-0.5,0.8,0.2,1.3-0.1c0.3-0.1,2-0.9,2.1-0.8c0.8,0.7,1-0.1,1.5,1.1c1.5,0.6,2.9-1.8,2.4-3.1c-1.1,0-0.1-1.3,0-1.8
	c0.1-0.2,0.7-0.1,1-0.3l1-0.7c0.4,0.3,1.1,0.1,1.4,0.3c0.7,0.4,0.3,2.2,1.6,2.2c1.2,0,1,0.8,1.6,1.4c0.8,0.8,3.1-2.3,0.7-2.3
	c-1.2,0-2.3-0.4-2-1.6c0.3-1.6,0.8,0.7,1.8-1c0.4-0.6,1.1-1.2,1.8-0.6c0.6,0.6,2.5,1.5,3.3,1.2c1.3-0.5,0-2.5,2.2-2.5
	c0.8,0,1.3-0.1,2-0.3c1.6-0.4,0.4-1.4,2.1-1.7C207.6,348.6,207.9,348.3,208,348.1L208,348.1z"/>
<path class="st2" d="M151,128.8l2.6-1.4c1.5-1-0.6-1.2-0.4-2c0.3-1.3,0.3-1.4-0.3-2.7c-0.4-0.9,0.2-4.2,0.5-5.2
	c0.6-1.7,1.9-2.2,3.6-2.4c2.6-0.4,3.2-3.4,6.7-2.8c2.2,0.3,4.4,2.3,6.8,1.3c0.3,0,0.6-0.3,1.1-1.2c2.3-4.1,3.9,0.5,5.4,2.8
	c0.5,0.8,3.6,3.5,4.6,3.7c1.4,0.3,3.1-1.8,4.7,0.1c0.6,0.8,0.9,2.1,1.6,2.7c1.5,1.3,3.1-0.9,3,2.1c-0.1,2.2,1.9,3.2,4,3.4
	c1,0.7,2.5,0,3.2,1.3c0.8,1.4,1.8,1.9,3.4,2.3c1.7,0.4,2,0.5,2.8,2c-0.9,0.5-2-0.2-3-0.2l0,0v0.1c-0.5,0.2-0.3,2-1.8,2.4
	c-0.7,0.2-0.2,0.9-0.8,1.3c-0.5,0.3-1.1,0.4-1.6,0.4c-0.1,1-1,2.8-2.1,2.9c-1.2,0.1-1.3,1-1.1,2c0.3,1.5-0.7,2.9-1.6,4.1
	c-1.1,1.6,0.9,2-0.2,4.1c-0.2,2.1-1.8,1.1-2,2.9c-0.1,1-1.8,2.5-1.2,3c-1.4,0.3-2.6,1.3-3.4,0.4c-1-1.3-1.7,0.4-2.8,0.1
	c-0.7-0.3-0.9-1.1-1.7-1.1c-1.8,0.1-1.4,0.7-2.5-0.8c-0.8-1.2-3.5,0.2-3.6-1.7c-0.1-2.7-2.8-0.6-3.4-0.9c-0.8-0.3-0.7-1.6-1.6-2.3
	c-1.8-1.3-1.5-0.7,0.2-2.2c1.1-1.3,2.8-2.1,0.2-3c-1.9-0.7-2.8-2.2-4.3-3.1c-1.1-0.6-2.4-0.7-3.5-1.4c-1.4-0.9-2.3,1.7-3.7,2.2
	c-1.4,0.5-2.4-3-4-3c-0.8,0-1.6,1.8-2-0.7c-0.4-2.1,3.3-5.2,2.2-6.6L151,128.8z"/>
<path class="st3" d="M151,128.8l2.6-1.4c1.5-1-0.6-1.2-0.4-2c0.3-1.3,0.3-1.4-0.3-2.7c-0.4-0.9,0.2-4.2,0.5-5.2
	c0.6-1.7,1.9-2.2,3.6-2.4c2.6-0.4,3.2-3.4,6.7-2.8c2.2,0.3,4.4,2.3,6.8,1.3c0.3,0,0.6-0.3,1.1-1.2c2.3-4.1,3.9,0.5,5.4,2.8
	c0.5,0.8,3.6,3.5,4.6,3.7c1.4,0.3,3.1-1.8,4.7,0.1c0.6,0.8,0.9,2.1,1.6,2.7c1.5,1.3,3.1-0.9,3,2.1c-0.1,2.2,1.9,3.2,4,3.4
	c1,0.7,2.5,0,3.2,1.3c0.8,1.4,1.8,1.9,3.4,2.3c1.7,0.4,2,0.5,2.8,2c-0.9,0.5-2-0.2-3-0.2l0,0v0.1c-0.5,0.2-0.3,2-1.8,2.4
	c-0.7,0.2-0.2,0.9-0.8,1.3c-0.5,0.3-1.1,0.4-1.6,0.4c-0.1,1-1,2.8-2.1,2.9c-1.2,0.1-1.3,1-1.1,2c0.3,1.5-0.7,2.9-1.6,4.1
	c-1.1,1.6,0.9,2-0.2,4.1c-0.2,2.1-1.8,1.1-2,2.9c-0.1,1-1.8,2.5-1.2,3c-1.4,0.3-2.6,1.3-3.4,0.4c-1-1.3-1.7,0.4-2.8,0.1
	c-0.7-0.3-0.9-1.1-1.7-1.1c-1.8,0.1-1.4,0.7-2.5-0.8c-0.8-1.2-3.5,0.2-3.6-1.7c-0.1-2.7-2.8-0.6-3.4-0.9c-0.8-0.3-0.7-1.6-1.6-2.3
	c-1.8-1.3-1.5-0.7,0.2-2.2c1.1-1.3,2.8-2.1,0.2-3c-1.9-0.7-2.8-2.2-4.3-3.1c-1.1-0.6-2.4-0.7-3.5-1.4c-1.4-0.9-2.3,1.7-3.7,2.2
	c-1.4,0.5-2.4-3-4-3c-0.8,0-1.6,1.8-2-0.7c-0.4-2.1,3.3-5.2,2.2-6.6L151,128.8z"/>
<polygon class="st7" points="53.4,255.1 58.7,265.7 48.1,265.7 "/>
<polygon class="st7" points="91.6,319 96.9,329.7 86.2,329.7 "/>
<polygon class="st7" points="129.3,360.6 134.6,371.3 123.9,371.3 "/>
<polygon class="st7" points="176.8,130.4 175.2,132.7 174.4,132.1 176.2,129.9 173.5,129.2 173.8,128.1 176.4,129.1 176.4,126.3 
	177.3,126.3 177.3,129.1 179.9,128.2 180.2,129.1 177.5,129.9 179.3,132.1 178.5,132.8 "/>
<polygon class="st7" points="93.1,171.1 98.4,181.8 87.8,181.8 "/>
<path class="st8" d="M95.4,385.4l4.3-4.3 M94.6,381.1l4.3-4.3 M92.3,378.3l2.4-2.4"/>
<g>
	<path class="st6" d="M370.1,333c-0.2,0.2-0.4,0.4-0.7,0.6c-1.2,1-2.8,2-3.6,3.4c-0.5,1-0.4,1-1.2,1.8c-1,1.1-2,1.7-2.2,3.2
		c-0.1,1,0.3,2.1-0.1,3c-0.4,1-2.1,1.9-2.7,2.9c-0.2,0.3-0.1,0.7-0.3,1c-1.5,2.2-2.7,2.8-5.2,3.9c-0.8,0.4-1.5,0.6-2.1,1.2
		c-0.4,0.4-0.4,1.1-0.8,1.5c-2,2-5.8,0.5-7.8,2.8c-1,1.3-2,3.4-2.6,5c-0.6,1.5-1.2,2.4-2.5,3.5c-1.3,1.1-1.7,1.4-2.2,2.8
		c-0.5,1.2-0.7,1.1-1.6,1.8c-2.4,1.8-4.6,4.2-6.3,6.6c-3.7,0-7.1,1.2-10.4,2c-2.4,0.6-6.6,1.1-8.9-0.2c-2-1.1-2.5-3.7-4.2-5
		c-1-0.7-4.9-1.9-6.2-1.6c-1.3,0.3-2.3,2.7-3,3.6c-1.3,1.7-2.4,3.8-3.6,5.4c-0.6,0.7-1.2,1-2,1.5c-1.1,0.7-0.6,0.5-1.4,1.3
		c-0.9,0.9-2.7,1.7-3.5,2.9c-0.7,1.1-0.5,1.1,0.1,2.2c1.4,2.8,1.9,2.8-0.1,5.5c-1.3,1.7-2.5,3.7-1.5,5.8c1.7,3.5,6.9,2.7,9,5
		c1.2,1.3,1.8,3.8,1.1,5.5c-0.8,2.1-2.9,2.1-2.5,4.8c0.2,1.2,1,1.9,1.2,3.1c0.2,1.2,0.1,2.4,0.4,3.6c0.5,1.7,0.5,3.6,2.3,4.1
		c1.6,0.5,3.5,0.1,5.1,0.6c1.3,0.4,2.3,2.6,2.6,3.8c0.3,1-0.2,2.2,0.1,3.3c0.2,0.9,0.9,1.4,1.1,2.2c0.4,1.3-0.1,2.5,0.9,3.7
		c0.5,0.6,1.7,0.9,2,1.7c0.3,0.7-0.3,1.7-0.3,2.5c0.1,1.5,1.3,2.8,0.9,4.4c-0.3,1.3-2.1,3.3-3,4.5c-0.2,0.3-0.4,0.5-0.6,0.9l0.7,0.7
		c0.7,1.8,0.3,0.7,0.6,0.9c1.1-0.3,24.2,0.5,25.8,2.1c7.7,7.8,13.1,2.3,19.3,5.8c1.6,6-1.3,1.7-1.2,8.3c0.4,0,5.1,0.6,5.1,0.6
		c0,2.3-0.3,5.6-0.6,8c3.4,2.3,2,0.7,4.9,1.7c1.8,8.9,3.1,2.6,6.4,5.3c0.7,0.5,2,2,2.7,2.2c2.8,8.2,2.2,1.1,5,5.7
		c2.1,0.5,4.5,0.4,6.6,0c0.9-4.2-0.9-8.3,5.3-9.6c3.8-0.8-2.3-27.1,4.5-29.4c0.2-1,0.9-0.8,1.3-1.2c6.9-6.1,3.5,0.7,7.4,3.6
		c3.3,2.4,8.1-1.6,9.4,2.3c1.5,4.4,0,12.9-2.8,16.1c10.3-0.7,6.7-6.1,9.5-7.9c4.1-2.6,9.5,2.2,10.6,2.8c6.4,2.9-0.9-6.1,3.9-6.7
		c4-0.5,3-4.3,1.4-6.9c0,0,0.3-0.2,0.3-0.5c1-9.8,5.4-3.4,9.1-7.2c4.3-4.4-9.6-4.8-11.3-4.3c-2.6-2.1-4.7-3.2-5.1-6.9
		c-0.2-1.7,0.5-4.1,0.5-4.1c0.1-5.7,8.2-12.9,12.9-15.2c2.8-1.3,18.2-6.2,18.4-6.4c4.7-5.1-9.3-0.7-9.7-3.5c-0.5-1.2,0.3-5.2,0-5.8
		c-3.8-7.4-4.5-5.1-4.5-14v-0.6c-2.2,0-1.8-0.3-3.6,0.8c-5.6,3.3-3.5-5.9-3.7-6.3c0.9-1.2,0.6-1.7,0.6-3.4c-1.5-0.1-2.6,0.3-3.8,1.2
		c-5.2,4.3-0.9,3.6-6,1.2c-9.1-4.4-5.5,5.4-9.5,6c-1.6-2.7-3.2-5.5-1.3-8.5c3.1-4.8-2.8-4.5-4.7-7.4c-7-7.1-4.9-11.8-7.8-20.2
		c-0.5-0.1-1.6-0.6-1.9-0.6c-4.6,0.2-7.2-1.1-8.9-1.1c-11.7-0.3-1.6-14.6-10.1-15.7c-6.3-0.8-1.5-0.1-6.1-1.9L370.1,333z"/>
	<path class="st9" d="M368.5,320.7c55.8,0,101,45.2,101,101c0,55.8-45.2,101-101,101c-55.8,0-101-45.2-101-101
		C267.5,365.9,312.7,320.7,368.5,320.7"/>
	<path class="st10" d="M379.9,423.6c0,2.3-1.9,4.2-4.2,4.2s-4.2-1.9-4.2-4.2s1.9-4.2,4.2-4.2S379.9,421.3,379.9,423.6"/>
	<path class="st10" d="M381.2,405.6c0,2.3-1.9,4.2-4.2,4.2s-4.2-1.9-4.2-4.2c0-2.3,1.9-4.2,4.2-4.2S381.2,403.3,381.2,405.6"/>
	<path class="st10" d="M374.6,450.4c0,2.3-1.9,4.2-4.2,4.2c-2.3,0-4.2-1.9-4.2-4.2s1.9-4.2,4.2-4.2
		C372.8,446.3,374.6,448.1,374.6,450.4"/>
	<path class="st10" d="M364.9,474.8c0,2.3-1.9,4.2-4.2,4.2s-4.2-1.9-4.2-4.2s1.9-4.2,4.2-4.2S364.9,472.5,364.9,474.8"/>
	<text transform="matrix(1 0 0 1 375.3508 407.8291)" class="st11 st12 st13">5</text>
	<text transform="matrix(1 0 0 1 374.062 425.7803)" class="st11 st12 st13">1</text>
	<text transform="matrix(1 0 0 1 368.7392 452.6377)" class="st11 st12 st13">4</text>
	<text transform="matrix(1 0 0 1 359.0324 476.9795)" class="st11 st12 st13">3</text>
	<rect x="363.4" y="438.1" class="st7" width="7.9" height="7.9"/>
	<text transform="matrix(1 0 0 1 365.7219 443.9766)" class="st11 st12 st13">2</text>
	<rect x="353.8" y="458.8" class="st7" width="7.9" height="7.9"/>
	<text transform="matrix(1 0 0 1 356.1271 464.75)" class="st11 st12 st13">3</text>
	<rect x="380.6" y="444.6" class="st7" width="7.9" height="7.9"/>
	<text transform="matrix(1 0 0 1 382.8666 450.5342)" class="st11 st12 st13">1</text>
	<path class="st10" d="M377.7,441.6c0,2.3-1.9,4.2-4.2,4.2c-2.3,0-4.2-1.9-4.2-4.2c0-2.3,1.9-4.2,4.2-4.2
		C375.9,437.4,377.7,439.3,377.7,441.6"/>
	<text transform="matrix(1 0 0 1 371.8261 443.7881)" class="st11 st12 st13">2</text>
</g>
</svg>
