<?xml version="1.0" encoding="utf-8"?>
<!-- Generator: Adobe Illustrator 23.0.3, SVG Export Plug-In . SVG Version: 6.00 Build 0)  -->
<svg version="1.1" id="Layer_1" xmlns="http://www.w3.org/2000/svg" xmlns:xlink="http://www.w3.org/1999/xlink" x="0px" y="0px"
	 viewBox="0 0 377 97" style="enable-background:new 0 0 377 97;" xml:space="preserve">
<style type="text/css">
	.st0{fill:#37B550;}
	.st1{font-family:'SourceSansPro-Bold';}
	.st2{font-size:10px;}
	.st3{fill:#FFFFFF;}
	.st4{fill:#00AE4D;}
	.st5{fill:none;stroke:#939598;stroke-width:0.5;stroke-miterlimit:10;}
	.st6{fill:none;stroke:#939598;stroke-width:0.499;stroke-miterlimit:10;}
	.st7{fill:none;stroke:#FFFFFF;stroke-width:0.499;stroke-miterlimit:10;}
	.st8{font-size:9px;}
	.st9{font-family:'SourceSansPro-Light';}
</style>
<g>
	<text transform="matrix(1 0 0 1 3.166 14.1145)"><tspan x="0" y="0" class="st0 st1 st2">R &amp; R SUMMA</tspan><tspan x="58.1" y="0" class="st0 st1 st2">R</tspan><tspan x="64.1" y="0" class="st0 st1 st2">Y</tspan></text>
	<rect x="3.2" y="19.2" class="st3" width="161.6" height="24.8"/>
	<path class="st4" d="M317.8,31.6h51V44h-51V31.6z M266.8,31.6h51V44h-51V31.6z M215.8,31.6h51V44h-51V31.6z M164.7,31.6h51V44h-51
		V31.6z M266.8,19.2h102v12.4h-102V19.2z M164.7,19.2h102v12.4h-102V19.2z"/>
	<line class="st5" x1="3.2" y1="44" x2="164.7" y2="44"/>
	<line class="st5" x1="164.7" y1="44" x2="215.8" y2="44"/>
	<line class="st5" x1="215.8" y1="44" x2="266.8" y2="44"/>
	<line class="st5" x1="266.8" y1="44" x2="317.8" y2="44"/>
	<line class="st5" x1="317.8" y1="44" x2="368.8" y2="44"/>
	<line class="st5" x1="165" y1="59.3" x2="215.5" y2="59.3"/>
	<line class="st5" x1="216" y1="59.3" x2="266.5" y2="59.3"/>
	<line class="st5" x1="267" y1="59.3" x2="317.6" y2="59.3"/>
	<line class="st5" x1="318.1" y1="59.3" x2="368.8" y2="59.3"/>
	<line class="st5" x1="3.2" y1="74.5" x2="164.7" y2="74.5"/>
	<line class="st5" x1="164.7" y1="89.8" x2="215.8" y2="89.8"/>
	<line class="st5" x1="215.8" y1="89.8" x2="266.8" y2="89.8"/>
	<line class="st5" x1="266.8" y1="89.8" x2="317.8" y2="89.8"/>
	<line class="st5" x1="317.8" y1="89.8" x2="368.8" y2="89.8"/>
	<line class="st6" x1="215.8" y1="89.5" x2="215.8" y2="74.8"/>
	<line class="st6" x1="317.8" y1="89.5" x2="317.8" y2="74.8"/>
	<line class="st5" x1="3.2" y1="59.3" x2="164.5" y2="59.3"/>
	<line class="st6" x1="164.7" y1="59.3" x2="164.7" y2="44.3"/>
	<line class="st6" x1="215.8" y1="59.3" x2="215.8" y2="44.3"/>
	<line class="st6" x1="266.8" y1="59.3" x2="266.8" y2="44.3"/>
	<line class="st6" x1="317.8" y1="59.3" x2="317.8" y2="44.3"/>
	<line class="st6" x1="164.7" y1="74.3" x2="164.7" y2="59.3"/>
	<line class="st6" x1="215.8" y1="74.3" x2="215.8" y2="59.3"/>
	<line class="st6" x1="266.8" y1="74.3" x2="266.8" y2="59.3"/>
	<line class="st6" x1="317.8" y1="74.3" x2="317.8" y2="59.3"/>
	<line class="st6" x1="164.7" y1="89.5" x2="164.7" y2="74.8"/>
	<line class="st6" x1="266.8" y1="89.5" x2="266.8" y2="74.8"/>
	<line class="st5" x1="164.7" y1="74.5" x2="215.8" y2="74.5"/>
	<line class="st5" x1="215.8" y1="74.5" x2="266.8" y2="74.5"/>
	<line class="st5" x1="266.8" y1="74.5" x2="317.8" y2="74.5"/>
	<line class="st5" x1="317.8" y1="74.5" x2="368.8" y2="74.5"/>
	<line class="st5" x1="3.2" y1="89.8" x2="164.7" y2="89.8"/>
	<line class="st6" x1="3.2" y1="19.2" x2="164.7" y2="19.2"/>
	<line class="st6" x1="164.7" y1="19.2" x2="215.8" y2="19.2"/>
	<line class="st6" x1="215.8" y1="19.2" x2="266.8" y2="19.2"/>
	<line class="st6" x1="266.8" y1="19.2" x2="317.8" y2="19.2"/>
	<line class="st6" x1="317.8" y1="19.2" x2="368.8" y2="19.2"/>
	<line class="st7" x1="266.8" y1="31.3" x2="266.8" y2="19.4"/>
	<line class="st7" x1="164.7" y1="31.6" x2="215.8" y2="31.6"/>
	<line class="st7" x1="215.8" y1="31.6" x2="266.8" y2="31.6"/>
	<line class="st7" x1="215.8" y1="43.8" x2="215.8" y2="31.8"/>
	<line class="st7" x1="266.8" y1="31.6" x2="317.8" y2="31.6"/>
	<line class="st7" x1="266.8" y1="43.8" x2="266.8" y2="31.8"/>
	<line class="st7" x1="317.8" y1="31.6" x2="368.8" y2="31.6"/>
	<line class="st7" x1="317.8" y1="43.8" x2="317.8" y2="31.8"/>
	<text transform="matrix(1 0 0 1 198.9346 28.7473)"><tspan x="0" y="0" class="st3 st1 st8">T</tspan><tspan x="4.3" y="0" class="st3 st1 st8">onna</tspan><tspan x="24.4" y="0" class="st3 st1 st8">g</tspan><tspan x="29" y="0" class="st3 st1 st8">e</tspan></text>
	<text transform="matrix(1 0 0 1 305.9941 28.7473)"><tspan x="0" y="0" class="st3 st1 st8">G</tspan><tspan x="5.7" y="0" class="st3 st1 st8">r</tspan><tspan x="9.1" y="0" class="st3 st1 st8">ade</tspan></text>
	<text transform="matrix(1 0 0 1 172.7129 41.1672)" class="st3 st1 st8">million MT</text>
	<text transform="matrix(1 0 0 1 239.6484 41.1672)" class="st3 st1 st8">Zn (%)</text>
	<text transform="matrix(1 0 0 1 290.168 41.1672)" class="st3 st1 st8">Pb (%)</text>
	<text transform="matrix(1 0 0 1 331.7236 41.1672)"><tspan x="0" y="0" class="st3 st1 st8">(A</tspan><tspan x="8.3" y="0" class="st3 st1 st8">g</tspan><tspan x="13.1" y="0" class="st3 st1 st8">) (</tspan><tspan x="21.1" y="0" class="st3 st1 st8">g</tspan><tspan x="26.1" y="0" class="st3 st1 st8">/</tspan><tspan x="29.2" y="0" class="st3 st1 st8">t)</tspan></text>
	<text transform="matrix(1 0 0 1 4.583 55.0032)" class="st9 st8">Reserve</text>
	<text transform="matrix(1 0 0 1 199.4434 55.0032)" class="st9 st8">92.6</text>
	<text transform="matrix(1 0 0 1 254.7773 55.0032)" class="st9 st8">7.8</text>
	<text transform="matrix(1 0 0 1 305.8008 55.0032)" class="st9 st8">2.3</text>
	<text transform="matrix(1 0 0 1 358.7959 55.0032)" class="st9 st8">94</text>
	<text transform="matrix(1 0 0 1 4.583 70.2581)" class="st9 st8">Mineral Resource – Measured &amp; Indicated</text>
	<text transform="matrix(1 0 0 1 199.4434 70.2581)" class="st9 st8">91.4</text>
	<text transform="matrix(1 0 0 1 254.7773 70.2581)" class="st9 st8">7.5</text>
	<text transform="matrix(1 0 0 1 305.8008 70.2581)" class="st9 st8">2.0</text>
	<text transform="matrix(1 0 0 1 358.7959 70.2581)" class="st9 st8">72</text>
	<text transform="matrix(1 0 0 1 4.583 85.512)" class="st9 st8">Mineral Resource – Inferred</text>
	<text transform="matrix(1 0 0 1 195.1318 85.512)" class="st9 st8">219.0</text>
	<text transform="matrix(1 0 0 1 254.7773 85.512)" class="st9 st8">5.3</text>
	<text transform="matrix(1 0 0 1 305.8008 85.512)" class="st9 st8">2.3</text>
	<text transform="matrix(1 0 0 1 358.7959 85.512)" class="st9 st8">67</text>
</g>
</svg>
