<?xml version="1.0" encoding="utf-8"?>
<!-- Generator: Adobe Illustrator 23.0.3, SVG Export Plug-In . SVG Version: 6.00 Build 0)  -->
<svg version="1.1" id="Layer_1" xmlns="http://www.w3.org/2000/svg" xmlns:xlink="http://www.w3.org/1999/xlink" x="0px" y="0px"
	 viewBox="0 0 497.8 113.5" style="enable-background:new 0 0 497.8 113.5;" xml:space="preserve">
<style type="text/css">
	.st0{fill:#414042;}
	.st1{fill:#00AE4D;}
	.st2{fill:#FFFFFF;}
	.st3{fill:#A3D4A0;}
	.st4{fill:none;stroke:#939598;stroke-width:0.5;stroke-miterlimit:10;}
	.st5{fill:none;stroke:#939598;stroke-width:0.499;stroke-miterlimit:10;}
</style>
<g>
	<g>
		<path d="M1.8,1.4h1.5v5.3h2.6v1.2h-4L1.8,1.4L1.8,1.4z"/>
		<path d="M7,1.4h4.1v1.2H8.4v1.3h2.2v1.2H8.4v1.5h2.7v1.2H6.9L7,1.4L7,1.4z"/>
		<path d="M13.6,1.4h1.8l2,6.5h-1.6l-0.3-1.5h-2l-0.4,1.5h-1.5L13.6,1.4z M13.8,5.2h1.4L15,4.6c-0.2-0.7-0.4-1.4-0.5-2.1l0,0
			c-0.2,0.7-0.3,1.4-0.5,2.1L13.8,5.2z"/>
		<path d="M18.2,1.4H20c2,0,3.3,1,3.3,3.2S22,7.9,20.1,7.9h-1.9C18.2,7.9,18.2,1.4,18.2,1.4z M19.9,6.7c1.1,0,1.8-0.5,1.8-2.1
			s-0.7-2-1.8-2h-0.3v4.1C19.6,6.7,19.9,6.7,19.9,6.7z"/>
		<path d="M26.5,1.4h1.9c2,0,3.3,1,3.3,3.2s-1.3,3.3-3.2,3.3h-1.9L26.5,1.4L26.5,1.4z M28.3,6.7c1.1,0,1.8-0.5,1.8-2.1s-0.7-2-1.8-2
			H28v4.1C28,6.7,28.3,6.7,28.3,6.7z"/>
		<path d="M32.9,1.4H37v1.2h-2.6v1.3h2.2v1.2h-2.2v1.5h2.7v1.2h-4.2V1.4z"/>
		<path d="M38.3,1.4h1.6l1,2.9c0.1,0.4,0.3,0.8,0.4,1.2l0,0c0.1-0.4,0.2-0.8,0.4-1.2l1-2.9h1.7v6.5h-1.3V5.5c0-0.6,0.1-1.6,0.2-2.2
			l0,0l-0.5,1.5l-0.9,2.5h-0.8l-0.9-2.5l-0.5-1.5l0,0c0.1,0.6,0.2,1.6,0.2,2.2v2.4h-1.3V1.4H38.3z"/>
		<path d="M47.2,1.4H49l2,6.5h-1.6L49,6.4h-2l-0.4,1.5h-1.5L47.2,1.4z M47.3,5.2h1.4l-0.2-0.6c-0.2-0.7-0.4-1.4-0.5-2.1l0,0
			c-0.2,0.7-0.3,1.4-0.5,2.1L47.3,5.2z"/>
		<path d="M51.7,1.4h1.5l1.7,3.2L55.5,6l0,0c0-0.6-0.1-1.5-0.1-2.3V1.4h1.4v6.5h-1.5l-1.7-3.2L53,3.3l0,0c0.1,0.7,0.2,1.6,0.2,2.4V8
			h-1.4V1.4H51.7z"/>
		<path d="M58.3,1.4h1.8c2,0,3.3,1,3.3,3.2s-1.3,3.3-3.2,3.3h-1.9C58.3,7.9,58.3,1.4,58.3,1.4z M60.1,6.7c1.1,0,1.8-0.5,1.8-2.1
			s-0.7-2-1.8-2h-0.3v4.1C59.8,6.7,60.1,6.7,60.1,6.7z"/>
		<path d="M66.4,4.9h2.5v1h-2.5V4.9z"/>
		<path d="M71.6,7.1l0.8-1c0.5,0.4,1.1,0.7,1.6,0.7c0.6,0,0.9-0.2,0.9-0.6c0-0.4-0.4-0.5-0.9-0.8L73.2,5c-0.7-0.3-1.3-0.8-1.3-1.8
			c0-1.1,1-1.9,2.3-1.9c0.7,0,1.5,0.3,2.1,0.9l-0.8,0.9c-0.4-0.3-0.8-0.5-1.3-0.5s-0.8,0.2-0.8,0.6c0,0.4,0.4,0.5,1,0.8l0.8,0.3
			c0.8,0.3,1.3,0.8,1.3,1.8c0,1.1-0.9,2-2.5,2C73.2,8,72.3,7.7,71.6,7.1z"/>
		<path d="M77.5,4.9V1.4H79V5c0,1.3,0.4,1.7,1.1,1.7s1.1-0.4,1.1-1.7V1.4h1.4v3.5C82.6,7.1,81.7,8,80,8C78.5,8,77.5,7.1,77.5,4.9z"
			/>
		<path d="M84.2,1.4h2.2c1.4,0,2.6,0.5,2.6,2.1c0,1.5-1.2,2.2-2.5,2.2h-0.8v2.2h-1.5C84.2,7.9,84.2,1.4,84.2,1.4z M86.4,4.5
			c0.8,0,1.2-0.4,1.2-1s-0.4-0.9-1.2-0.9h-0.7v2L86.4,4.5L86.4,4.5z"/>
		<path d="M90.2,1.4h2.2c1.4,0,2.6,0.5,2.6,2.1c0,1.5-1.2,2.2-2.5,2.2h-0.8v2.2h-1.5C90.2,7.9,90.2,1.4,90.2,1.4z M92.4,4.5
			c0.8,0,1.2-0.4,1.2-1s-0.4-0.9-1.2-0.9h-0.7v2h0.7V4.5z"/>
		<path d="M96.1,1.4h1.5v5.3h2.6v1.2h-4L96.1,1.4L96.1,1.4z"/>
		<path d="M101.6,5.6l-2-4.2h1.6l0.6,1.5c0.2,0.5,0.3,0.9,0.5,1.4l0,0c0.2-0.5,0.4-0.9,0.5-1.4l0.6-1.5h1.5l-2,4.2v2.3h-1.5V5.6
			H101.6z"/>
	</g>
	<g>
		<path class="st0" d="M1.3,111.4l0.2-0.2c0.3,0.4,0.8,0.6,1.4,0.6c0.7,0,1.1-0.4,1.1-0.9c0-0.6-0.4-0.8-0.8-1l-0.7-0.3
			c-0.4-0.2-0.9-0.5-0.9-1.1c0-0.7,0.6-1.1,1.3-1.1c0.6,0,1,0.3,1.3,0.6L4,108.2c-0.3-0.3-0.6-0.5-1.1-0.5c-0.6,0-1,0.3-1,0.8
			s0.5,0.7,0.8,0.9l0.7,0.3c0.5,0.2,1,0.5,1,1.2s-0.6,1.2-1.5,1.2C2.2,112.1,1.7,111.8,1.3,111.4z"/>
		<path class="st0" d="M5.1,110.4c0-1.1,0.7-1.8,1.5-1.8s1.5,0.6,1.5,1.8c0,1.1-0.7,1.8-1.5,1.8C5.8,112.1,5.1,111.5,5.1,110.4z
			 M7.8,110.4c0-0.9-0.5-1.5-1.2-1.5s-1.2,0.6-1.2,1.5s0.5,1.5,1.2,1.5S7.8,111.3,7.8,110.4z"/>
		<path class="st0" d="M9.2,110.8v-2.2h0.3v2.1c0,0.7,0.2,1.1,0.8,1.1c0.4,0,0.7-0.2,1.1-0.7v-2.5h0.3v3.4h-0.3v-0.6l0,0
			c-0.3,0.4-0.7,0.6-1.1,0.6C9.5,112.1,9.2,111.7,9.2,110.8z"/>
		<path class="st0" d="M12.9,108.7h0.3v0.6l0,0c0.2-0.4,0.6-0.7,1-0.7c0.1,0,0.2,0,0.3,0.1l-0.1,0.3c-0.1,0-0.2-0.1-0.3-0.1
			c-0.3,0-0.7,0.2-0.9,0.9v2.3h-0.3V108.7z"/>
		<path class="st0" d="M14.9,110.4c0-1.1,0.7-1.8,1.5-1.8c0.5,0,0.8,0.2,1,0.4l-0.2,0.2c-0.2-0.2-0.5-0.4-0.8-0.4
			c-0.7,0-1.2,0.6-1.2,1.5s0.5,1.5,1.2,1.5c0.4,0,0.7-0.2,0.9-0.4l0.2,0.2c-0.3,0.3-0.6,0.4-1.1,0.4
			C15.5,112.1,14.9,111.5,14.9,110.4z"/>
		<path class="st0" d="M18,110.4c0-1.1,0.7-1.8,1.5-1.8s1.3,0.6,1.3,1.6c0,0.1,0,0.2,0,0.3h-2.4c0,0.8,0.5,1.5,1.3,1.5
			c0.4,0,0.7-0.1,0.9-0.3l0.1,0.2c-0.3,0.2-0.6,0.3-1.1,0.3C18.7,112.1,18,111.5,18,110.4z M20.5,110.2c0-0.9-0.4-1.3-1-1.3
			s-1.1,0.5-1.2,1.3H20.5z"/>
		<path class="st0" d="M21.5,109.1c0-0.2,0.1-0.3,0.3-0.3s0.3,0.1,0.3,0.3c0,0.2-0.1,0.3-0.3,0.3S21.5,109.3,21.5,109.1z
			 M21.5,111.8c0-0.2,0.1-0.3,0.3-0.3s0.3,0.1,0.3,0.3c0,0.2-0.1,0.3-0.3,0.3S21.5,112,21.5,111.8z"/>
		<path class="st0" d="M24.1,107.4h0.3l0.6,2.7c0.1,0.5,0.2,1,0.3,1.5l0,0c0.1-0.5,0.2-1,0.4-1.5l0.7-2.7h0.3l0.7,2.7
			c0.1,0.5,0.2,1,0.4,1.5l0,0c0.1-0.5,0.2-1,0.3-1.5l0.6-2.7H29l-1,4.6h-0.4l-0.8-3.2c-0.1-0.4-0.2-0.7-0.2-1l0,0
			c-0.1,0.4-0.2,0.7-0.3,1l-0.8,3.2h-0.3L24.1,107.4z"/>
		<path class="st0" d="M29.6,110.4c0-1.1,0.7-1.8,1.5-1.8s1.5,0.6,1.5,1.8c0,1.1-0.7,1.8-1.5,1.8C30.3,112.1,29.6,111.5,29.6,110.4z
			 M32.3,110.4c0-0.9-0.5-1.5-1.2-1.5s-1.2,0.6-1.2,1.5s0.5,1.5,1.2,1.5S32.3,111.3,32.3,110.4z"/>
		<path class="st0" d="M33.4,110.4c0-1.1,0.7-1.8,1.5-1.8s1.5,0.6,1.5,1.8c0,1.1-0.7,1.8-1.5,1.8C34.1,112.1,33.4,111.5,33.4,110.4z
			 M36.1,110.4c0-0.9-0.5-1.5-1.2-1.5s-1.2,0.6-1.2,1.5s0.5,1.5,1.2,1.5S36.1,111.3,36.1,110.4z"/>
		<path class="st0" d="M37.2,110.4c0-1.1,0.7-1.8,1.5-1.8c0.4,0,0.7,0.2,1,0.4v-0.6V107H40v5h-0.3v-0.4l0,0
			c-0.3,0.3-0.6,0.5-1.1,0.5C37.8,112.1,37.2,111.5,37.2,110.4z M39.7,111.3v-2c-0.4-0.3-0.7-0.4-1-0.4c-0.7,0-1.2,0.7-1.2,1.5
			c0,0.9,0.4,1.5,1.1,1.5C39,111.9,39.4,111.7,39.7,111.3z"/>
		<path class="st0" d="M42.6,107.4h0.5l1,2.7c0.1,0.3,0.2,0.7,0.4,1l0,0c0.1-0.3,0.2-0.7,0.4-1l1-2.7h0.5v4.6h-0.3v-3
			c0-0.4,0-0.9,0-1.2l0,0l-0.4,1l-1,2.7h-0.3l-1-2.7l-0.4-1l0,0c0,0.4,0,0.9,0,1.2v3h-0.3v-4.6H42.6z"/>
		<path class="st0" d="M47.3,111.2c0-0.7,0.7-1.1,2.2-1.3c0-0.5-0.1-1.1-0.8-1.1c-0.4,0-0.8,0.2-1.1,0.4l-0.1-0.2
			c0.2-0.2,0.7-0.4,1.3-0.4c0.8,0,1.1,0.6,1.1,1.3v2.2h-0.3v-0.4l0,0c-0.3,0.3-0.7,0.5-1.2,0.5C47.7,112.1,47.3,111.8,47.3,111.2z
			 M49.5,111.3v-1.1c-1.4,0.2-1.9,0.5-1.9,1s0.3,0.7,0.7,0.7S49.1,111.7,49.5,111.3z"/>
		<path class="st0" d="M50.8,110.4c0-1.1,0.7-1.8,1.5-1.8c0.5,0,0.8,0.2,1,0.4l-0.2,0.2c-0.2-0.2-0.5-0.4-0.8-0.4
			c-0.7,0-1.2,0.6-1.2,1.5s0.5,1.5,1.2,1.5c0.4,0,0.7-0.2,0.9-0.4l0.2,0.2c-0.3,0.3-0.6,0.4-1.1,0.4
			C51.4,112.1,50.8,111.5,50.8,110.4z"/>
		<path class="st0" d="M54.2,107h0.3v3.7l0,0l1.7-2h0.4l-1.1,1.3l1.3,2h-0.4l-1.1-1.8l-0.8,0.9v0.9h-0.3C54.2,112,54.2,107,54.2,107
			z"/>
		<path class="st0" d="M57.2,110.4c0-1.1,0.7-1.8,1.5-1.8s1.3,0.6,1.3,1.6c0,0.1,0,0.2,0,0.3h-2.4c0,0.8,0.5,1.5,1.3,1.5
			c0.4,0,0.7-0.1,0.9-0.3l0.1,0.2c-0.3,0.2-0.6,0.3-1.1,0.3C57.9,112.1,57.2,111.5,57.2,110.4z M59.6,110.2c0-0.9-0.4-1.3-1-1.3
			s-1.1,0.5-1.2,1.3H59.6z"/>
		<path class="st0" d="M60.9,108.7h0.3v0.5l0,0c0.3-0.3,0.7-0.6,1.2-0.6c0.7,0,1,0.4,1,1.3v2.2h-0.3V110c0-0.7-0.2-1.1-0.8-1.1
			c-0.4,0-0.7,0.2-1.1,0.6v2.5h-0.3C60.9,112,60.9,108.7,60.9,108.7z"/>
		<path class="st0" d="M64.2,111.9l2-2.9h-1.8v-0.3h2.2v0.2l-2,2.9h2.1v0.3h-2.5C64.2,112.1,64.2,111.9,64.2,111.9z"/>
		<path class="st0" d="M67.4,107.6c0-0.2,0.1-0.3,0.3-0.3s0.3,0.1,0.3,0.3c0,0.2-0.1,0.3-0.3,0.3S67.4,107.8,67.4,107.6z
			 M67.6,108.7h0.3v3.4h-0.3V108.7z"/>
		<path class="st0" d="M68.9,110.4c0-1.1,0.7-1.8,1.5-1.8s1.3,0.6,1.3,1.6c0,0.1,0,0.2,0,0.3h-2.4c0,0.8,0.5,1.5,1.3,1.5
			c0.4,0,0.7-0.1,0.9-0.3l0.1,0.2c-0.3,0.2-0.6,0.3-1.1,0.3C69.6,112.1,68.9,111.5,68.9,110.4z M71.3,110.2c0-0.9-0.4-1.3-1-1.3
			s-1.1,0.5-1.2,1.3H71.3z"/>
	</g>
	<path class="st1" d="M425.9,19.4h70.9V33h-70.9V19.4z M355.1,19.4H426V33h-70.9V19.4z M284.2,19.4h70.9V33h-70.9V19.4z M213.3,19.4
		h70.9V33h-70.9V19.4z"/>
	<path class="st2" d="M284.2,87.1h70.9v13.6h-70.9V87.1z M213.3,87.1h70.9v13.6h-70.9V87.1z M1,87.1h212.3v13.6H1V87.1z M284.2,73.6
		h70.9v13.6h-70.9V73.6z M213.3,73.6h70.9v13.6h-70.9V73.6z M1,73.6h212.3v13.6H1V73.6z M284.2,60h70.9v13.6h-70.9V60z M213.3,60
		h70.9v13.6h-70.9V60z M1,60h212.3v13.6H1V60z M284.2,46.5h70.9v13.6h-70.9V46.5z M213.3,46.5h70.9v13.6h-70.9V46.5z M1,46.5h212.3
		v13.6H1V46.5z M284.2,32.9h70.9v13.6h-70.9V32.9z M213.3,32.9h70.9v13.6h-70.9V32.9z M1,32.9h212.3v13.6H1V32.9z"/>
	<path class="st3" d="M355.1,87.1H426v13.6h-70.9V87.1z M355.1,73.6H426v13.6h-70.9V73.6z M355.1,60H426v13.6h-70.9V60z M355.1,46.5
		H426v13.6h-70.9V46.5z M355.1,32.9H426v13.6h-70.9V32.9z"/>
	<line class="st4" x1="425.9" y1="32.9" x2="496.8" y2="32.9"/>
	<line class="st4" x1="1" y1="46.5" x2="213.1" y2="46.5"/>
	<line class="st4" x1="213.6" y1="46.5" x2="283.9" y2="46.5"/>
	<line class="st4" x1="284.4" y1="46.5" x2="354.8" y2="46.5"/>
	<line class="st4" x1="355.3" y1="46.5" x2="425.7" y2="46.5"/>
	<line class="st4" x1="426.2" y1="46.5" x2="496.8" y2="46.5"/>
	<line class="st4" x1="213.6" y1="60" x2="283.9" y2="60"/>
	<line class="st4" x1="284.4" y1="60" x2="354.8" y2="60"/>
	<line class="st4" x1="355.3" y1="60" x2="425.7" y2="60"/>
	<line class="st4" x1="426.2" y1="60" x2="496.8" y2="60"/>
	<line class="st4" x1="213.6" y1="73.6" x2="283.9" y2="73.6"/>
	<line class="st4" x1="284.4" y1="73.6" x2="354.8" y2="73.6"/>
	<line class="st4" x1="355.3" y1="73.6" x2="425.7" y2="73.6"/>
	<line class="st4" x1="426.2" y1="73.6" x2="496.8" y2="73.6"/>
	<line class="st4" x1="213.6" y1="87.1" x2="283.9" y2="87.1"/>
	<line class="st4" x1="284.4" y1="87.1" x2="354.8" y2="87.1"/>
	<line class="st4" x1="355.3" y1="87.1" x2="425.7" y2="87.1"/>
	<line class="st4" x1="426.2" y1="87.1" x2="496.8" y2="87.1"/>
	<line class="st4" x1="213.3" y1="100.7" x2="284.2" y2="100.7"/>
	<line class="st4" x1="284.2" y1="100.7" x2="355.1" y2="100.7"/>
	<line class="st4" x1="355.1" y1="100.7" x2="425.9" y2="100.7"/>
	<line class="st4" x1="425.9" y1="100.7" x2="496.8" y2="100.7"/>
	<line class="st5" x1="425.9" y1="100.4" x2="425.9" y2="87.1"/>
	<line class="st4" x1="425.9" y1="19.4" x2="496.8" y2="19.4"/>
	<line class="st4" x1="1" y1="19.4" x2="213.3" y2="19.4"/>
	<line class="st4" x1="213.3" y1="19.4" x2="284.2" y2="19.4"/>
	<line class="st4" x1="284.2" y1="19.4" x2="355.1" y2="19.4"/>
	<line class="st4" x1="355.1" y1="19.4" x2="425.9" y2="19.4"/>
	<line class="st5" x1="213.3" y1="32.7" x2="213.3" y2="19.6"/>
	<line class="st5" x1="284.2" y1="32.7" x2="284.2" y2="19.6"/>
	<line class="st5" x1="355.1" y1="32.7" x2="355.1" y2="19.6"/>
	<line class="st5" x1="425.9" y1="32.7" x2="425.9" y2="19.6"/>
	<line class="st4" x1="1" y1="60" x2="213.1" y2="60"/>
	<line class="st4" x1="1" y1="73.6" x2="213.1" y2="73.6"/>
	<line class="st4" x1="1" y1="87.1" x2="213.1" y2="87.1"/>
	<line class="st4" x1="213.3" y1="32.9" x2="284.2" y2="32.9"/>
	<line class="st4" x1="284.2" y1="32.9" x2="355.1" y2="32.9"/>
	<line class="st4" x1="355.1" y1="32.9" x2="425.9" y2="32.9"/>
	<line class="st5" x1="213.3" y1="46.5" x2="213.3" y2="33.2"/>
	<line class="st5" x1="284.2" y1="46.5" x2="284.2" y2="33.2"/>
	<line class="st5" x1="355.1" y1="46.5" x2="355.1" y2="33.2"/>
	<line class="st5" x1="425.9" y1="46.5" x2="425.9" y2="33.2"/>
	<line class="st5" x1="213.3" y1="60" x2="213.3" y2="46.5"/>
	<line class="st5" x1="284.2" y1="60" x2="284.2" y2="46.5"/>
	<line class="st5" x1="355.1" y1="60" x2="355.1" y2="46.5"/>
	<line class="st5" x1="425.9" y1="60" x2="425.9" y2="46.5"/>
	<line class="st5" x1="213.3" y1="73.6" x2="213.3" y2="60"/>
	<line class="st5" x1="284.2" y1="73.6" x2="284.2" y2="60"/>
	<line class="st5" x1="355.1" y1="73.6" x2="355.1" y2="60"/>
	<line class="st5" x1="425.9" y1="73.6" x2="425.9" y2="60"/>
	<line class="st5" x1="213.3" y1="87.1" x2="213.3" y2="73.6"/>
	<line class="st5" x1="284.2" y1="87.1" x2="284.2" y2="73.6"/>
	<line class="st5" x1="355.1" y1="87.1" x2="355.1" y2="73.6"/>
	<line class="st5" x1="425.9" y1="87.1" x2="425.9" y2="73.6"/>
	<line class="st5" x1="213.3" y1="100.4" x2="213.3" y2="87.1"/>
	<line class="st5" x1="284.2" y1="100.4" x2="284.2" y2="87.1"/>
	<line class="st5" x1="355.1" y1="100.4" x2="355.1" y2="87.1"/>
	<line class="st4" x1="1" y1="32.9" x2="213.3" y2="32.9"/>
	<line class="st4" x1="1" y1="100.7" x2="213.3" y2="100.7"/>
	<g>
		<path d="M3.1,23.7h1.3v4.7h2.3v1.1H3.1V23.7z"/>
		<path d="M7.4,27.3c0-1.4,1-2.3,2.1-2.3c1.3,0,1.9,0.9,1.9,2.1c0,0.2,0,0.5-0.1,0.6H8.6c0.1,0.6,0.6,0.9,1.2,0.9
			c0.3,0,0.6-0.1,1-0.3l0.4,0.8c-0.5,0.3-1.1,0.5-1.6,0.5C8.4,29.6,7.4,28.8,7.4,27.3z M10.3,26.8c0-0.5-0.2-0.8-0.7-0.8
			c-0.4,0-0.8,0.3-0.9,0.8H10.3z"/>
		<path d="M12.1,28.3c0-0.9,0.7-1.4,2.5-1.6c0-0.4-0.2-0.6-0.7-0.6c-0.4,0-0.7,0.2-1.2,0.4l-0.5-0.9c0.6-0.3,1.2-0.6,1.9-0.6
			c1.1,0,1.8,0.6,1.8,2v2.6h-1.1l-0.1-0.5l0,0c-0.4,0.3-0.8,0.6-1.3,0.6C12.6,29.6,12.1,29,12.1,28.3z M14.6,28.2v-0.8
			c-0.9,0.1-1.2,0.4-1.2,0.7s0.2,0.4,0.5,0.4C14.2,28.6,14.4,28.5,14.6,28.2z"/>
		<path d="M16.8,27.3c0-1.5,0.9-2.3,1.9-2.3c0.5,0,0.8,0.2,1.1,0.5l-0.1-0.7v-1.5H21v6.3h-1.1l-0.1-0.4l0,0
			c-0.3,0.3-0.8,0.5-1.2,0.5C17.6,29.6,16.8,28.8,16.8,27.3z M19.7,28.2v-1.8c-0.2-0.2-0.5-0.3-0.7-0.3c-0.4,0-0.8,0.4-0.8,1.2
			c0,0.9,0.3,1.3,0.8,1.3C19.3,28.6,19.5,28.5,19.7,28.2z"/>
		<path d="M23.9,26.6c0-1.9,1.3-3.1,2.9-3.1c0.8,0,1.5,0.4,1.8,0.8l-0.7,0.8c-0.3-0.3-0.6-0.5-1.1-0.5c-0.9,0-1.5,0.7-1.5,1.9
			c0,1.2,0.5,1.9,1.6,1.9c0.2,0,0.5-0.1,0.6-0.2v-1h-1v-1.1h2.1v2.7c-0.4,0.4-1.1,0.7-1.9,0.7C25.1,29.6,23.9,28.6,23.9,26.6z"/>
		<path d="M29.8,28.1v-4.9h1.3v5c0,0.3,0.1,0.4,0.2,0.4c0.1,0,0.1,0,0.2,0l0.2,1c-0.1,0.1-0.4,0.1-0.7,0.1
			C30.1,29.6,29.8,29,29.8,28.1z"/>
		<path d="M32.1,27.3c0-1.5,1-2.3,2.2-2.3c1.1,0,2.2,0.9,2.2,2.3c0,1.4-1,2.3-2.2,2.3S32.1,28.8,32.1,27.3z M35.1,27.3
			c0-0.8-0.3-1.3-0.8-1.3s-0.8,0.5-0.8,1.3s0.3,1.3,0.8,1.3S35.1,28.1,35.1,27.3z"/>
		<path d="M38.5,29.1L38.5,29.1l-0.1,0.4h-1v-6.3h1.3v1.5v0.7c0.3-0.3,0.8-0.5,1.2-0.5c1.1,0,1.8,0.9,1.8,2.3c0,1.5-0.9,2.4-1.9,2.4
			C39.3,29.6,38.9,29.4,38.5,29.1z M40.2,27.2c0-0.8-0.2-1.2-0.8-1.2c-0.3,0-0.5,0.1-0.8,0.4v1.8c0.2,0.2,0.5,0.3,0.7,0.3
			C39.8,28.6,40.2,28.2,40.2,27.2z"/>
		<path d="M42.3,28.3c0-0.9,0.7-1.4,2.5-1.6c0-0.4-0.2-0.6-0.7-0.6c-0.4,0-0.7,0.2-1.2,0.4l-0.5-1c0.6-0.3,1.2-0.6,1.9-0.6
			c1.1,0,1.8,0.6,1.8,2v2.6H45L44.9,29l0,0c-0.4,0.3-0.8,0.6-1.3,0.6C42.8,29.6,42.3,29,42.3,28.3z M44.8,28.2v-0.8
			c-0.9,0.1-1.2,0.4-1.2,0.7s0.2,0.4,0.5,0.4C44.4,28.6,44.6,28.5,44.8,28.2z"/>
		<path d="M47.2,28.1v-4.9h1.3v5c0,0.3,0.1,0.4,0.2,0.4c0.1,0,0.1,0,0.2,0l0.2,1c-0.1,0.1-0.4,0.1-0.7,0.1
			C47.5,29.6,47.2,29,47.2,28.1z"/>
		<path d="M51.7,23.7h2c1.2,0,2.2,0.3,2.2,1.5c0,0.5-0.3,1.1-0.8,1.3l0,0c0.6,0.2,1.1,0.6,1.1,1.4c0,1.2-1,1.7-2.3,1.7h-2.2V23.7z
			 M53.7,26c0.6,0,0.9-0.3,0.9-0.7c0-0.5-0.3-0.6-0.9-0.6h-0.6V26C53.1,26,53.7,26,53.7,26z M53.8,28.5c0.7,0,1.1-0.3,1.1-0.8
			S54.5,27,53.8,27h-0.7v1.5H53.8z"/>
		<path d="M56.9,28.3c0-0.9,0.7-1.4,2.5-1.6c0-0.4-0.2-0.6-0.7-0.6c-0.4,0-0.7,0.2-1.2,0.4L57,25.6c0.6-0.3,1.2-0.6,1.9-0.6
			c1.1,0,1.8,0.6,1.8,2v2.6h-1.1l-0.1-0.5l0,0c-0.4,0.3-0.8,0.6-1.3,0.6C57.4,29.6,56.9,29,56.9,28.3z M59.4,28.2v-0.8
			c-0.9,0.1-1.2,0.4-1.2,0.7s0.2,0.4,0.5,0.4C58.9,28.6,59.1,28.5,59.4,28.2z"/>
		<path d="M61.8,28.1v-4.9h1.3v5c0,0.3,0.1,0.4,0.2,0.4s0.1,0,0.2,0l0.2,1c-0.1,0.1-0.4,0.1-0.7,0.1C62.1,29.6,61.8,29,61.8,28.1z"
			/>
		<path d="M64.2,28.3c0-0.9,0.7-1.4,2.5-1.6c0-0.4-0.2-0.6-0.7-0.6c-0.4,0-0.7,0.2-1.2,0.4l-0.5-0.9c0.6-0.3,1.2-0.6,1.9-0.6
			c1.1,0,1.8,0.6,1.8,2v2.6h-1.1l-0.1-0.5l0,0c-0.4,0.3-0.8,0.6-1.3,0.6C64.7,29.6,64.2,29,64.2,28.3z M66.7,28.2v-0.8
			c-0.9,0.1-1.2,0.4-1.2,0.7s0.2,0.4,0.5,0.4C66.3,28.6,66.4,28.5,66.7,28.2z"/>
		<path d="M69.1,25.1h1.1l0.1,0.6l0,0c0.4-0.4,0.8-0.7,1.4-0.7c1,0,1.4,0.7,1.4,1.8v2.8h-1.3V27c0-0.6-0.2-0.8-0.5-0.8
			s-0.5,0.2-0.8,0.4v3h-1.3L69.1,25.1L69.1,25.1z"/>
		<path d="M74,27.3c0-1.5,1.1-2.3,2.3-2.3c0.5,0,1,0.2,1.3,0.5L77,26.4c-0.2-0.2-0.4-0.3-0.6-0.3c-0.6,0-1,0.5-1,1.3s0.4,1.3,1,1.3
			c0.3,0,0.6-0.1,0.8-0.3l0.5,0.9c-0.4,0.4-1,0.5-1.5,0.5C75,29.6,74,28.8,74,27.3z"/>
		<path d="M78.2,27.3c0-1.4,1-2.3,2.1-2.3c1.3,0,1.9,0.9,1.9,2.1c0,0.2,0,0.5-0.1,0.6h-2.7c0.1,0.6,0.6,0.9,1.2,0.9
			c0.3,0,0.6-0.1,1-0.3l0.4,0.8c-0.5,0.3-1.1,0.5-1.6,0.5C79.2,29.6,78.2,28.8,78.2,27.3z M81.1,26.8c0-0.5-0.2-0.8-0.7-0.8
			c-0.4,0-0.8,0.3-0.9,0.8H81.1z"/>
		<path d="M84.8,23.7c0-0.4,0.3-0.7,0.7-0.7s0.7,0.3,0.7,0.7c0,0.4-0.3,0.7-0.7,0.7S84.8,24.1,84.8,23.7z M84.9,25.1h1.3v4.5h-1.3
			V25.1z"/>
		<path d="M87.4,25.1h1.1l0.1,0.6l0,0C89,25.3,89.4,25,90,25c1,0,1.4,0.7,1.4,1.8v2.8h-1.3V27c0-0.6-0.2-0.8-0.5-0.8
			s-0.5,0.2-0.8,0.4v3h-1.4V25.1z"/>
		<path d="M94.5,23.7h1.3v2.4l0,0l1.7-2.4H99L97.2,26l2.1,3.5h-1.5L96.4,27l-0.7,0.9v1.6h-1.3v-5.8H94.5z"/>
		<path d="M101.1,24.8h-1.6v-1.1h4.6v1.1h-1.6v4.8h-1.3L101.1,24.8L101.1,24.8z"/>
	</g>
	<g>
		<path class="st2" d="M252.4,26.6c0-1.9,1.3-3.1,2.8-3.1c0.8,0,1.4,0.4,1.8,0.8l-0.7,0.8c-0.3-0.3-0.6-0.5-1-0.5
			c-0.8,0-1.4,0.7-1.4,1.9c0,1.2,0.6,1.9,1.4,1.9c0.5,0,0.9-0.2,1.1-0.5l0.7,0.8c-0.5,0.6-1.1,0.9-1.9,0.9
			C253.7,29.6,252.4,28.6,252.4,26.6z"/>
		<path class="st2" d="M258.9,27.4l-1.8-3.8h1.4L259,25c0.2,0.4,0.3,0.8,0.5,1.3l0,0c0.2-0.5,0.3-0.9,0.5-1.3l0.5-1.4h1.4l-1.8,3.8
			v2.1h-1.3L258.9,27.4L258.9,27.4z"/>
		<path class="st2" d="M264.1,28.8c1.5-1.4,2.5-2.4,2.5-3.2c0-0.6-0.3-0.9-0.8-0.9c-0.4,0-0.7,0.3-1,0.6l-0.7-0.7
			c0.6-0.6,1.1-0.9,1.9-0.9c1.1,0,1.9,0.7,1.9,1.8c0,1-0.9,2-1.8,3c0.3,0,0.7-0.1,1-0.1h1.2v1.1h-4v-0.7H264.1z"/>
		<path class="st2" d="M268.8,26.7c0-1.9,0.8-2.9,2-2.9s2,1,2,2.9c0,1.9-0.8,3-2,3S268.8,28.6,268.8,26.7z M271.7,26.7
			c0-1.6-0.3-1.9-0.8-1.9c-0.4,0-0.8,0.4-0.8,1.9c0,1.6,0.4,2,0.8,2C271.3,28.6,271.7,28.2,271.7,26.7z"/>
		<path class="st2" d="M273.9,28.5h1.2v-3.3H274v-0.8c0.6-0.1,1-0.3,1.4-0.5h1v4.6h1.1v1.1h-3.6V28.5z"/>
		<path class="st2" d="M281,24.9h-2.6v-1.1h4v0.8c-1.3,1.6-1.5,2.7-1.6,4.9h-1.4C279.6,27.6,279.9,26.4,281,24.9z"/>
	</g>
	<g>
		<path class="st2" d="M323.3,26.6c0-1.9,1.3-3.1,2.8-3.1c0.8,0,1.4,0.4,1.8,0.8l-0.7,0.8c-0.3-0.3-0.6-0.5-1-0.5
			c-0.8,0-1.4,0.7-1.4,1.9c0,1.2,0.6,1.9,1.4,1.9c0.5,0,0.9-0.2,1.1-0.5l0.7,0.8c-0.5,0.6-1.1,0.9-1.9,0.9
			C324.5,29.6,323.3,28.6,323.3,26.6z"/>
		<path class="st2" d="M329.8,27.4l-1.8-3.8h1.4l0.5,1.4c0.2,0.4,0.3,0.8,0.5,1.3l0,0c0.2-0.5,0.3-0.9,0.5-1.3l0.5-1.4h1.4l-1.8,3.8
			v2.1h-1.3L329.8,27.4L329.8,27.4z"/>
		<path class="st2" d="M335,28.8c1.4-1.4,2.4-2.4,2.4-3.2c0-0.6-0.3-0.9-0.8-0.9c-0.4,0-0.7,0.3-1,0.6l-0.7-0.7
			c0.6-0.6,1.1-0.9,1.9-0.9c1.1,0,1.9,0.7,1.9,1.8c0,1-0.9,2-1.8,3c0.3,0,0.7-0.1,1-0.1h1.2v1.1h-4v-0.7H335z"/>
		<path class="st2" d="M339.7,26.7c0-1.9,0.8-2.9,2-2.9s2,1,2,2.9c0,1.9-0.8,3-2,3C340.5,29.6,339.7,28.6,339.7,26.7z M342.5,26.7
			c0-1.6-0.3-1.9-0.8-1.9c-0.4,0-0.8,0.4-0.8,1.9c0,1.6,0.4,2,0.8,2C342.2,28.6,342.5,28.2,342.5,26.7z"/>
		<path class="st2" d="M344.8,28.5h1.2v-3.3h-1.1v-0.8c0.6-0.1,1-0.3,1.4-0.5h1v4.6h1.1v1.1h-3.6V28.5z"/>
		<path class="st2" d="M349.3,28.1c0-0.7,0.4-1.1,1-1.4l0,0c-0.4-0.3-0.8-0.7-0.8-1.4c0-1,0.8-1.6,1.8-1.6s1.7,0.6,1.7,1.6
			c0,0.5-0.4,1-0.7,1.3l0,0c0.5,0.3,1,0.7,1,1.5c0,0.9-0.8,1.6-2,1.6C350.1,29.6,349.3,29,349.3,28.1z M352,28c0-0.5-0.5-0.7-1.2-1
			c-0.3,0.2-0.4,0.6-0.4,0.9c0,0.5,0.4,0.8,0.9,0.8C351.7,28.7,352,28.5,352,28z M352,25.4c0-0.4-0.3-0.7-0.7-0.7
			c-0.4,0-0.6,0.2-0.6,0.7s0.4,0.7,1,0.9C351.8,25.9,352,25.7,352,25.4z"/>
	</g>
	<g>
		<path class="st2" d="M387.4,26.6c0-1.9,1.3-3.1,2.8-3.1c0.8,0,1.4,0.4,1.8,0.8l-0.7,0.8c-0.3-0.3-0.6-0.5-1-0.5
			c-0.8,0-1.4,0.7-1.4,1.9c0,1.2,0.6,1.9,1.4,1.9c0.5,0,0.9-0.2,1.1-0.5l0.7,0.8c-0.5,0.6-1.1,0.9-1.9,0.9
			C388.7,29.6,387.4,28.6,387.4,26.6z"/>
		<path class="st2" d="M393.9,27.4l-1.8-3.8h1.4L394,25c0.2,0.4,0.3,0.8,0.5,1.3l0,0c0.2-0.5,0.3-0.9,0.5-1.3l0.5-1.4h1.4l-1.8,3.8
			v2.1h-1.3L393.9,27.4L393.9,27.4z"/>
		<path class="st2" d="M399.1,28.8c1.5-1.4,2.5-2.4,2.5-3.2c0-0.6-0.3-0.9-0.8-0.9c-0.4,0-0.7,0.3-1,0.6l-0.7-0.7
			c0.6-0.6,1.1-0.9,1.9-0.9c1.1,0,1.9,0.7,1.9,1.8c0,1-0.9,2-1.8,3c0.3,0,0.7-0.1,1-0.1h1.2v1.1h-4v-0.7H399.1z"/>
		<path class="st2" d="M403.8,26.7c0-1.9,0.8-2.9,2-2.9s2,1,2,2.9c0,1.9-0.8,3-2,3S403.8,28.6,403.8,26.7z M406.7,26.7
			c0-1.6-0.3-1.9-0.8-1.9c-0.4,0-0.8,0.4-0.8,1.9c0,1.6,0.4,2,0.8,2C406.3,28.6,406.7,28.2,406.7,26.7z"/>
		<path class="st2" d="M408.9,28.5h1.2v-3.3H409v-0.8c0.6-0.1,1-0.3,1.4-0.5h1v4.6h1.1v1.1h-3.6V28.5z"/>
		<path class="st2" d="M413.4,29l0.7-0.8c0.2,0.2,0.5,0.4,0.9,0.4c0.6,0,1.1-0.5,1.2-1.8c-0.3,0.4-0.8,0.6-1.1,0.6
			c-1,0-1.7-0.6-1.7-1.8s0.9-1.9,1.9-1.9c1.1,0,2.2,0.8,2.2,2.8c0,2.1-1.1,3.1-2.3,3.1C414.3,29.6,413.8,29.3,413.4,29z M415.3,26.5
			c0.3,0,0.6-0.2,0.9-0.6c-0.1-0.9-0.5-1.2-0.9-1.2s-0.7,0.3-0.7,0.9C414.5,26.2,414.9,26.5,415.3,26.5z"/>
		<path class="st2" d="M420.3,23.7h3.7v1.1h-2.3V26h2v1.1h-2v1.3h2.4v1.1h-3.8L420.3,23.7L420.3,23.7z"/>
	</g>
	<g>
		<path class="st2" d="M458.3,26.6c0-1.9,1.3-3.1,2.8-3.1c0.8,0,1.4,0.4,1.8,0.8l-0.7,0.8c-0.3-0.3-0.6-0.5-1-0.5
			c-0.8,0-1.4,0.7-1.4,1.9c0,1.2,0.6,1.9,1.4,1.9c0.5,0,0.9-0.2,1.1-0.5l0.7,0.8c-0.5,0.6-1.1,0.9-1.9,0.9
			C459.5,29.6,458.3,28.6,458.3,26.6z"/>
		<path class="st2" d="M464.8,27.4l-1.8-3.8h1.4l0.5,1.4c0.2,0.4,0.3,0.8,0.5,1.3l0,0c0.2-0.5,0.3-0.9,0.5-1.3l0.5-1.4h1.4l-1.8,3.8
			v2.1h-1.3L464.8,27.4L464.8,27.4z"/>
		<path class="st2" d="M470,28.8c1.4-1.4,2.4-2.4,2.4-3.2c0-0.6-0.3-0.9-0.8-0.9c-0.4,0-0.7,0.3-1,0.6l-0.7-0.7
			c0.6-0.6,1.1-0.9,1.9-0.9c1.1,0,1.9,0.7,1.9,1.8c0,1-0.9,2-1.8,3c0.3,0,0.7-0.1,1-0.1h1.2v1.1h-4v-0.7H470z"/>
		<path class="st2" d="M474.7,26.7c0-1.9,0.8-2.9,2-2.9s2,1,2,2.9c0,1.9-0.8,3-2,3C475.5,29.6,474.7,28.6,474.7,26.7z M477.5,26.7
			c0-1.6-0.3-1.9-0.8-1.9c-0.4,0-0.8,0.4-0.8,1.9c0,1.6,0.4,2,0.8,2C477.2,28.6,477.5,28.2,477.5,26.7z"/>
		<path class="st2" d="M479.5,28.8c1.5-1.4,2.5-2.4,2.5-3.2c0-0.6-0.3-0.9-0.8-0.9c-0.4,0-0.7,0.3-1,0.6l-0.7-0.7
			c0.6-0.6,1.1-0.9,1.9-0.9c1.1,0,1.9,0.7,1.9,1.8c0,1-0.9,2-1.8,3c0.3,0,0.7-0.1,1-0.1h1.2v1.1h-4v-0.7H479.5z"/>
		<path class="st2" d="M484.2,26.7c0-1.9,0.8-2.9,2-2.9s2,1,2,2.9c0,1.9-0.8,3-2,3C485,29.6,484.2,28.6,484.2,26.7z M487.1,26.7
			c0-1.6-0.3-1.9-0.8-1.9c-0.4,0-0.8,0.4-0.8,1.9c0,1.6,0.4,2,0.8,2C486.7,28.6,487.1,28.2,487.1,26.7z"/>
		<path class="st2" d="M491.1,23.7h3.7v1.1h-2.3V26h2v1.1h-2v1.3h2.4v1.1h-3.8L491.1,23.7L491.1,23.7z"/>
	</g>
	<g>
		<path d="M3.3,37.2h0.6l1.2,3.5c0.2,0.4,0.3,0.9,0.5,1.3l0,0c0.2-0.4,0.3-0.9,0.5-1.3l1.2-3.5h0.6v5.9H7.5v-3.9
			c0-0.5,0-1.1,0.1-1.6l0,0l-0.5,1.3l-1.3,3.5H5.4l-1.3-3.5l-0.5-1.3l0,0c0,0.5,0.1,1.1,0.1,1.6v3.9H3.3V37.2z"/>
		<path d="M9.5,37.4c0-0.2,0.1-0.4,0.3-0.4s0.3,0.1,0.3,0.4c0,0.2-0.1,0.4-0.3,0.4S9.5,37.6,9.5,37.4z M9.6,38.8H10v4.3H9.6V38.8z"
			/>
		<path d="M11.7,38.8H12v0.7l0,0c0.4-0.4,0.9-0.8,1.5-0.8c0.9,0,1.3,0.5,1.3,1.7v2.8h-0.4v-2.8c0-0.9-0.3-1.4-1-1.4
			c-0.5,0-0.9,0.3-1.4,0.8v3.3h-0.4v-4.3H11.7z"/>
		<path d="M16.1,40.9c0-1.4,0.9-2.3,1.9-2.3s1.7,0.7,1.7,2c0,0.1,0,0.2,0,0.3h-3.1c0,1.1,0.7,1.9,1.6,1.9c0.5,0,0.8-0.2,1.2-0.4
			l0.2,0.3c-0.3,0.2-0.7,0.4-1.4,0.4C17,43.2,16.1,42.3,16.1,40.9z M19.3,40.7c0-1.1-0.5-1.7-1.3-1.7c-0.7,0-1.4,0.6-1.5,1.7H19.3z"
			/>
		<path d="M22.6,37.2h1.5c1.3,0,2.2,0.4,2.2,1.7c0,1.2-0.8,1.7-2.1,1.7h-1.1v2.5h-0.4v-5.9H22.6z M24.1,40.2c1.2,0,1.8-0.4,1.8-1.4
			s-0.6-1.3-1.8-1.3h-1v2.7H24.1z"/>
		<path d="M27.5,38.8h0.3v0.8l0,0c0.3-0.5,0.7-0.9,1.2-0.9c0.2,0,0.3,0,0.4,0.1l-0.1,0.4c-0.1-0.1-0.2-0.1-0.4-0.1
			c-0.4,0-0.8,0.3-1.2,1.1v2.9h-0.4v-4.3H27.5z"/>
		<path d="M30,40.9c0-1.4,0.9-2.3,1.9-2.3c1,0,1.9,0.8,1.9,2.3c0,1.4-0.9,2.3-1.9,2.3C30.9,43.2,30,42.4,30,40.9z M33.5,40.9
			c0-1.1-0.7-1.9-1.5-1.9c-0.9,0-1.5,0.8-1.5,1.9c0,1.1,0.6,1.9,1.5,1.9C32.8,42.8,33.5,42.1,33.5,40.9z"/>
		<path d="M34.8,40.9c0-1.4,0.9-2.3,1.9-2.3c0.5,0,0.9,0.2,1.3,0.5v-0.8v-1.8h0.4V43h-0.3v-0.6l0,0c-0.4,0.4-0.8,0.7-1.4,0.7
			C35.6,43.2,34.8,42.4,34.8,40.9z M38.1,42.1v-2.6c-0.5-0.4-0.8-0.6-1.3-0.6c-0.9,0-1.5,0.8-1.5,1.9c0,1.1,0.5,1.9,1.4,1.9
			C37.2,42.8,37.6,42.6,38.1,42.1z"/>
		<path d="M40,41.5v-2.8h0.4v2.7c0,0.9,0.3,1.4,1,1.4c0.5,0,0.9-0.3,1.4-0.9v-3.2h0.4V43h-0.3v-0.7l0,0c-0.4,0.5-0.9,0.8-1.5,0.8
			C40.5,43.2,40,42.7,40,41.5z"/>
		<path d="M44.5,40.9c0-1.4,0.9-2.3,2-2.3c0.6,0,1,0.3,1.3,0.5l-0.2,0.3c-0.3-0.3-0.6-0.5-1-0.5c-0.9,0-1.6,0.8-1.6,1.9
			c0,1.1,0.6,1.9,1.6,1.9c0.5,0,0.9-0.2,1.2-0.5l0.2,0.3c-0.4,0.3-0.8,0.6-1.4,0.6C45.4,43.2,44.5,42.4,44.5,40.9z"/>
		<path d="M49,41.9v-2.8h-0.7v-0.3H49l0.1-1.3h0.3v1.3h1.3v0.3h-1.3v2.8c0,0.5,0.1,0.9,0.7,0.9c0.2,0,0.4-0.1,0.5-0.1l0.1,0.3
			c-0.3,0.1-0.5,0.2-0.7,0.2C49.2,43.2,49,42.7,49,41.9z"/>
		<path d="M51.6,37.4c0-0.2,0.1-0.4,0.3-0.4s0.3,0.1,0.3,0.4c0,0.2-0.1,0.4-0.3,0.4S51.6,37.6,51.6,37.4z M51.7,38.8h0.4v4.3h-0.4
			V38.8z"/>
		<path d="M53.4,40.9c0-1.4,0.9-2.3,1.9-2.3s1.9,0.8,1.9,2.3c0,1.4-0.9,2.3-1.9,2.3S53.4,42.4,53.4,40.9z M56.9,40.9
			c0-1.1-0.7-1.9-1.5-1.9c-0.9,0-1.5,0.8-1.5,1.9c0,1.1,0.6,1.9,1.5,1.9C56.2,42.8,56.9,42.1,56.9,40.9z"/>
		<path d="M58.6,38.8h0.3v0.7l0,0c0.4-0.4,0.9-0.8,1.5-0.8c0.9,0,1.3,0.5,1.3,1.7v2.8h-0.3v-2.8c0-0.9-0.3-1.4-1-1.4
			c-0.5,0-0.9,0.3-1.4,0.8v3.3h-0.4V38.8z"/>
	</g>
	<g>
		<path d="M263.8,42.4l0.2-0.3c0.3,0.4,0.8,0.7,1.6,0.7c0.8,0,1.4-0.6,1.4-1.5s-0.5-1.5-1.4-1.5c-0.4,0-0.7,0.2-1.1,0.4l-0.3-0.2
			l0.2-2.7h2.7v0.4h-2.3l-0.2,2.1c0.3-0.2,0.6-0.3,1-0.3c1,0,1.8,0.6,1.8,1.8s-0.9,1.9-1.8,1.9C264.7,43.2,264.2,42.8,263.8,42.4z"
			/>
		<path d="M268.3,44.2c0.4-0.2,0.7-0.6,0.7-1.1h-0.1c-0.2,0-0.4-0.1-0.4-0.4s0.2-0.4,0.4-0.4c0.3,0,0.5,0.2,0.5,0.6
			c0,0.7-0.4,1.2-0.9,1.5L268.3,44.2z"/>
		<path d="M270.2,42.8c1.9-1.9,2.8-3,2.8-4c0-0.7-0.4-1.3-1.3-1.3c-0.5,0-1,0.3-1.3,0.8l-0.3-0.3c0.4-0.5,0.9-0.8,1.6-0.8
			c1,0,1.6,0.6,1.6,1.6c0,1.1-1,2.2-2.6,3.9c0.3,0,0.6,0,1,0h2v0.4h-3.5L270.2,42.8L270.2,42.8z"/>
		<path d="M274.5,41.6c0-0.8,0.6-1.3,1.2-1.6l0,0c-0.4-0.3-0.8-0.7-0.8-1.3c0-0.8,0.7-1.4,1.5-1.4c1,0,1.6,0.6,1.6,1.5
			c0,0.6-0.5,1.2-0.8,1.5l0,0c0.5,0.3,1,0.7,1,1.5s-0.7,1.5-1.7,1.5C275.3,43.2,274.5,42.5,274.5,41.6z M277.7,41.7
			c0-0.9-0.9-1.2-1.8-1.5c-0.6,0.3-1,0.8-1,1.5s0.6,1.3,1.4,1.3C277.1,42.9,277.7,42.3,277.7,41.7z M277.5,38.7
			c0-0.6-0.4-1.2-1.2-1.2c-0.6,0-1.1,0.5-1.1,1.1c0,0.8,0.8,1.1,1.5,1.4C277.2,39.7,277.5,39.2,277.5,38.7z"/>
		<path d="M279.2,42.7h1.4v-4.8h-1v-0.3c0.5-0.1,0.8-0.2,1.1-0.4h0.3v5.4h1.3V43h-3L279.2,42.7L279.2,42.7z"/>
	</g>
	<g>
		<path d="M334.7,42.4l0.2-0.3c0.3,0.4,0.8,0.7,1.6,0.7c0.8,0,1.4-0.6,1.4-1.5s-0.5-1.5-1.4-1.5c-0.4,0-0.7,0.2-1.1,0.4l-0.3-0.2
			l0.2-2.7h2.7v0.4h-2.3l-0.2,2.1c0.3-0.2,0.6-0.3,1-0.3c1,0,1.8,0.6,1.8,1.8s-0.9,1.9-1.8,1.9C335.5,43.2,335,42.8,334.7,42.4z"/>
		<path d="M339.2,44.2c0.4-0.2,0.7-0.6,0.7-1.1h-0.1c-0.2,0-0.4-0.1-0.4-0.4s0.2-0.4,0.4-0.4c0.3,0,0.5,0.2,0.5,0.6
			c0,0.7-0.4,1.2-0.9,1.5L339.2,44.2z"/>
		<path d="M341.1,42.8c1.9-1.9,2.8-3,2.8-4c0-0.7-0.4-1.3-1.3-1.3c-0.5,0-1,0.3-1.3,0.8L341,38c0.4-0.5,0.9-0.8,1.6-0.8
			c1,0,1.6,0.6,1.6,1.6c0,1.1-1,2.2-2.6,3.9c0.3,0,0.6,0,1,0h2v0.4h-3.5L341.1,42.8L341.1,42.8z"/>
		<path d="M345.8,42.7h1.4v-4.8h-1v-0.3c0.5-0.1,0.8-0.2,1.1-0.4h0.3v5.4h1.3V43h-3L345.8,42.7L345.8,42.7z"/>
		<path d="M352.8,37.7h-3v-0.4h3.5v0.2c-1.4,1.8-1.7,3.3-1.8,5.5h-0.4C351.1,40.8,351.6,39.3,352.8,37.7z"/>
	</g>
	<g>
		<path d="M405.5,42.4l0.2-0.3c0.3,0.4,0.8,0.7,1.6,0.7c0.8,0,1.4-0.6,1.4-1.5s-0.5-1.5-1.4-1.5c-0.4,0-0.7,0.2-1.1,0.4l-0.3-0.2
			l0.2-2.7h2.7v0.4h-2.3l-0.2,2.1c0.3-0.2,0.6-0.3,1-0.3c1,0,1.8,0.6,1.8,1.8s-0.9,1.9-1.8,1.9C406.4,43.2,405.9,42.8,405.5,42.4z"
			/>
		<path d="M410,44.2c0.4-0.2,0.7-0.6,0.7-1.1h-0.1c-0.2,0-0.4-0.1-0.4-0.4s0.2-0.4,0.4-0.4c0.3,0,0.5,0.2,0.5,0.6
			c0,0.7-0.4,1.2-0.9,1.5L410,44.2z"/>
		<path d="M414.4,41.4h-2.6v-0.2l2.7-3.8h0.4v3.7h0.9v0.3h-0.9v1.7h-0.5V41.4z M414.4,41v-2.1c0-0.3,0-0.7,0-1l0,0
			c-0.1,0.2-0.3,0.5-0.5,0.7l-1.7,2.4C412.2,41,414.4,41,414.4,41z"/>
		<path d="M416.2,41.6c0-0.8,0.6-1.3,1.2-1.6l0,0c-0.4-0.3-0.8-0.7-0.8-1.3c0-0.8,0.7-1.4,1.5-1.4c1,0,1.6,0.6,1.6,1.5
			c0,0.6-0.5,1.2-0.8,1.5l0,0c0.5,0.3,1,0.7,1,1.5s-0.7,1.5-1.7,1.5C417,43.2,416.2,42.5,416.2,41.6z M419.4,41.7
			c0-0.9-0.9-1.2-1.8-1.5c-0.6,0.3-1,0.8-1,1.5s0.6,1.3,1.4,1.3C418.9,42.9,419.4,42.3,419.4,41.7z M419.2,38.7
			c0-0.6-0.4-1.2-1.2-1.2c-0.6,0-1.1,0.5-1.1,1.1c0,0.8,0.8,1.1,1.5,1.4C419,39.7,419.2,39.2,419.2,38.7z"/>
		<path d="M420.7,42.6l0.2-0.3c0.3,0.3,0.6,0.5,1,0.5c0.9,0,1.7-0.7,1.7-2.8c-0.4,0.5-0.9,0.8-1.5,0.8c-1,0-1.6-0.6-1.6-1.8
			c0-1,0.7-1.8,1.6-1.8c1.1,0,1.9,1,1.9,2.7c0,2.4-1,3.3-2.1,3.3C421.4,43.2,421,43,420.7,42.6z M422.2,40.5c0.4,0,1-0.3,1.4-0.9
			c-0.1-1.2-0.5-2-1.5-2c-0.7,0-1.2,0.6-1.2,1.4C421,39.9,421.3,40.5,422.2,40.5z"/>
	</g>
	<g>
		<path d="M476.4,42.4l0.2-0.3c0.3,0.4,0.8,0.7,1.6,0.7c0.8,0,1.4-0.6,1.4-1.5s-0.5-1.5-1.4-1.5c-0.4,0-0.7,0.2-1.1,0.4l-0.3-0.2
			l0.2-2.7h2.7v0.4h-2.3l-0.2,2.1c0.3-0.2,0.6-0.3,1-0.3c1,0,1.8,0.6,1.8,1.8s-0.9,1.9-1.8,1.9C477.3,43.2,476.8,42.8,476.4,42.4z"
			/>
		<path d="M480.9,44.2c0.4-0.2,0.7-0.6,0.7-1.1h-0.1c-0.2,0-0.4-0.1-0.4-0.4s0.2-0.4,0.4-0.4c0.3,0,0.5,0.2,0.5,0.6
			c0,0.7-0.4,1.2-0.9,1.5L480.9,44.2z"/>
		<path d="M482.9,40.5c0-2.4,1-3.3,2.1-3.3c0.5,0,0.9,0.2,1.2,0.6l-0.2,0.3c-0.3-0.3-0.6-0.5-1-0.5c-0.9,0-1.7,0.7-1.7,2.8
			c0.4-0.5,0.9-0.8,1.4-0.8c1,0,1.6,0.6,1.6,1.8c0,1-0.7,1.8-1.6,1.8C483.6,43.2,482.9,42.2,482.9,40.5z M483.3,40.8
			c0.1,1.2,0.5,2,1.5,2c0.7,0,1.2-0.6,1.2-1.5s-0.4-1.4-1.2-1.4C484.3,40,483.8,40.2,483.3,40.8z"/>
		<path d="M490.2,37.7h-3v-0.4h3.5v0.2c-1.4,1.8-1.7,3.3-1.8,5.5h-0.5C488.5,40.8,489,39.3,490.2,37.7z"/>
		<path d="M491.3,42.4l0.2-0.3c0.3,0.4,0.8,0.7,1.6,0.7c0.8,0,1.4-0.6,1.4-1.5s-0.5-1.5-1.4-1.5c-0.4,0-0.7,0.2-1.1,0.4l-0.3-0.2
			l0.2-2.7h2.7v0.4h-2.3l-0.2,2.1c0.3-0.2,0.6-0.3,1-0.3c1,0,1.8,0.6,1.8,1.8s-0.9,1.9-1.8,1.9C492.2,43.2,491.7,42.8,491.3,42.4z"
			/>
	</g>
	<g>
		<path d="M3.3,50.7h1.5c1.3,0,2.2,0.4,2.2,1.7c0,1.2-0.8,1.7-2.1,1.7H3.7v2.5H3.3V50.7z M4.7,53.7c1.2,0,1.8-0.4,1.8-1.4
			S5.9,51,4.7,51h-1v2.7H4.7z"/>
		<path d="M8.2,52.3h0.3v0.8l0,0c0.3-0.5,0.7-0.9,1.2-0.9c0.2,0,0.3,0,0.4,0.1L10,52.7c-0.1-0.1-0.2-0.1-0.4-0.1
			c-0.4,0-0.8,0.3-1.2,1.1v2.9H8v-4.3H8.2z"/>
		<path d="M10.7,54.5c0-1.4,0.9-2.3,1.9-2.3s1.9,0.8,1.9,2.3c0,1.4-0.9,2.3-1.9,2.3C11.6,56.7,10.7,55.9,10.7,54.5z M14.2,54.5
			c0-1.1-0.7-1.9-1.5-1.9c-0.9,0-1.5,0.8-1.5,1.9c0,1.1,0.6,1.9,1.5,1.9C13.5,56.4,14.2,55.6,14.2,54.5z"/>
		<path d="M15.5,54.5c0-1.4,0.9-2.3,1.9-2.3c0.5,0,0.9,0.2,1.3,0.5v-0.8v-1.8h0.4v6.5h-0.3V56l0,0c-0.4,0.4-0.8,0.7-1.4,0.7
			C16.2,56.7,15.5,55.9,15.5,54.5z M18.7,55.7v-2.6c-0.5-0.4-0.8-0.6-1.3-0.6c-0.9,0-1.5,0.8-1.5,1.9c0,1.1,0.5,1.9,1.4,1.9
			C17.8,56.4,18.2,56.1,18.7,55.7z"/>
		<path d="M20.7,55.1v-2.8h0.4V55c0,0.9,0.3,1.4,1,1.4c0.5,0,0.9-0.3,1.4-0.9v-3.2h0.4v4.3h-0.3v-0.7l0,0c-0.4,0.5-0.9,0.8-1.5,0.8
			C21.1,56.7,20.7,56.2,20.7,55.1z"/>
		<path d="M25.2,54.5c0-1.4,0.9-2.3,2-2.3c0.6,0,1,0.3,1.3,0.5L28.3,53c-0.3-0.3-0.6-0.5-1-0.5c-0.9,0-1.6,0.8-1.6,1.9
			c0,1.1,0.6,1.9,1.6,1.9c0.5,0,0.9-0.2,1.2-0.5l0.2,0.3c-0.4,0.3-0.8,0.6-1.4,0.6C26,56.7,25.2,55.9,25.2,54.5z"/>
		<path d="M29.7,55.4v-2.8H29v-0.2h0.7l0.1-1.3h0.3v1.3h1.3v0.3h-1.3v2.8c0,0.5,0.1,0.9,0.7,0.9c0.2,0,0.4-0.1,0.5-0.1l0.1,0.3
			c-0.3,0.1-0.5,0.2-0.7,0.2C29.9,56.7,29.7,56.2,29.7,55.4z"/>
		<path d="M32.2,50.9c0-0.2,0.1-0.4,0.3-0.4s0.3,0.1,0.3,0.4c0,0.2-0.1,0.4-0.3,0.4S32.2,51.1,32.2,50.9z M32.4,52.3h0.4v4.3h-0.4
			V52.3z"/>
		<path d="M34.1,54.5c0-1.4,0.9-2.3,1.9-2.3s1.9,0.8,1.9,2.3c0,1.4-0.9,2.3-1.9,2.3C35,56.7,34.1,55.9,34.1,54.5z M37.5,54.5
			c0-1.1-0.7-1.9-1.5-1.9c-0.9,0-1.5,0.8-1.5,1.9c0,1.1,0.6,1.9,1.5,1.9S37.5,55.6,37.5,54.5z"/>
		<path d="M39.2,52.3h0.3V53l0,0c0.4-0.4,0.9-0.8,1.5-0.8c0.9,0,1.3,0.5,1.3,1.7v2.8h-0.4V54c0-0.9-0.3-1.4-1-1.4
			c-0.5,0-0.9,0.3-1.4,0.8v3.3h-0.4v-4.4H39.2z"/>
		<path d="M45.5,55.6c0-1,0.9-1.4,2.8-1.6c0-0.7-0.2-1.4-1-1.4c-0.6,0-1.1,0.3-1.4,0.5l-0.2-0.3c0.3-0.2,0.9-0.6,1.6-0.6
			c1,0,1.4,0.7,1.4,1.7v2.8h-0.3v-0.6l0,0c-0.4,0.4-1,0.7-1.5,0.7C46.1,56.7,45.5,56.4,45.5,55.6z M48.3,55.7v-1.5
			c-1.8,0.2-2.4,0.6-2.4,1.3c0,0.6,0.4,0.9,0.9,0.9S47.8,56.2,48.3,55.7z"/>
		<path d="M50.3,55.4v-2.8h-0.7v-0.2h0.7l0.1-1.3h0.3v1.3H52v0.3h-1.3v2.8c0,0.5,0.1,0.9,0.7,0.9c0.2,0,0.4-0.1,0.5-0.1l0.1,0.3
			c-0.3,0.1-0.5,0.2-0.7,0.2C50.6,56.7,50.3,56.2,50.3,55.4z"/>
		<path d="M54.9,52.3h0.3v0.5l0,0c0.4-0.3,0.9-0.6,1.5-0.6c1.2,0,1.7,0.9,1.7,2.2c0,1.5-0.9,2.3-1.9,2.3c-0.4,0-0.8-0.2-1.3-0.5v2.4
			h-0.4v-6.3H54.9z M58,54.4c0-1.1-0.4-1.9-1.4-1.9c-0.4,0-0.9,0.3-1.4,0.7v2.6c0.5,0.4,0.9,0.6,1.3,0.6C57.4,56.4,58,55.6,58,54.4z
			"/>
		<path d="M59.8,52.3h0.3v0.8l0,0c0.3-0.5,0.7-0.9,1.2-0.9c0.2,0,0.3,0,0.4,0.1l-0.1,0.4c-0.1-0.1-0.2-0.1-0.4-0.1
			c-0.4,0-0.8,0.3-1.2,1.1v2.9h-0.4v-4.3H59.8z"/>
		<path d="M62.5,50.9c0-0.2,0.1-0.4,0.3-0.4s0.3,0.1,0.3,0.4c0,0.2-0.1,0.4-0.3,0.4S62.5,51.1,62.5,50.9z M62.6,52.3H63v4.3h-0.4
			V52.3z"/>
		<path d="M64.7,52.3H65V53l0,0c0.4-0.4,0.9-0.8,1.4-0.8c0.7,0,1,0.4,1.2,0.9c0.5-0.5,1-0.9,1.5-0.9c0.9,0,1.3,0.5,1.3,1.7v2.8H70
			V54c0-0.9-0.3-1.4-1-1.4c-0.4,0-0.8,0.3-1.3,0.8v3.3h-0.4V54c0-0.9-0.3-1.4-1-1.4c-0.4,0-0.8,0.3-1.3,0.8v3.3h-0.4v-4.4H64.7z"/>
		<path d="M71.7,55.6c0-1,0.9-1.4,2.8-1.6c0-0.7-0.2-1.4-1-1.4c-0.6,0-1.1,0.3-1.4,0.5l-0.2-0.3c0.3-0.2,0.9-0.6,1.6-0.6
			c1,0,1.4,0.7,1.4,1.7v2.8h-0.3v-0.6l0,0c-0.4,0.4-1,0.7-1.5,0.7C72.2,56.7,71.7,56.4,71.7,55.6z M74.5,55.7v-1.5
			c-1.8,0.2-2.4,0.6-2.4,1.3c0,0.6,0.4,0.9,0.9,0.9S73.9,56.2,74.5,55.7z"/>
		<path d="M76.4,52.3h0.3v0.8l0,0c0.3-0.5,0.7-0.9,1.2-0.9c0.2,0,0.3,0,0.4,0.1l0.1,0.4c-0.1-0.1-0.2-0.1-0.4-0.1
			c-0.4,0-0.8,0.3-1.2,1.1v2.9h-0.4V52.3z"/>
		<path d="M78.6,58.5l0.1-0.4c0.1,0,0.2,0.1,0.4,0.1c0.5,0,0.9-0.5,1.1-1.1l0.1-0.4l-1.8-4.4h0.4l1,2.7c0.1,0.4,0.3,0.8,0.5,1.2l0,0
			c0.1-0.4,0.3-0.8,0.4-1.2l0.9-2.7h0.4l-1.7,4.9c-0.2,0.7-0.7,1.4-1.4,1.4C78.9,58.6,78.8,58.6,78.6,58.5z"/>
		<path d="M84.4,56.2l0.2-0.3c0.4,0.3,0.8,0.5,1.4,0.5c0.7,0,1-0.4,1-0.9s-0.6-0.8-1.1-1c-0.5-0.1-1.2-0.4-1.2-1.1
			c0-0.6,0.5-1.2,1.4-1.2c0.5,0,0.9,0.2,1.2,0.5L87.1,53c-0.3-0.2-0.6-0.4-1-0.4c-0.7,0-1,0.4-1,0.8c0,0.5,0.5,0.7,1,0.9
			c0.7,0.3,1.4,0.5,1.4,1.3c0,0.6-0.5,1.2-1.5,1.2C85.4,56.7,84.8,56.5,84.4,56.2z"/>
		<path d="M88.6,52.3h0.3V53l0,0c0.4-0.4,0.9-0.8,1.4-0.8c0.7,0,1,0.4,1.2,0.9c0.5-0.5,1-0.9,1.5-0.9c0.9,0,1.3,0.5,1.3,1.7v2.8
			h-0.4V54c0-0.9-0.3-1.4-1-1.4c-0.4,0-0.8,0.3-1.3,0.8v3.3h-0.4V54c0-0.9-0.3-1.4-1-1.4c-0.4,0-0.8,0.3-1.3,0.8v3.3h-0.4v-4.4H88.6
			z"/>
		<path d="M95.6,54.5c0-1.4,0.9-2.3,1.9-2.3s1.7,0.7,1.7,2c0,0.1,0,0.2,0,0.3h-3.1c0,1.1,0.7,1.9,1.6,1.9c0.5,0,0.8-0.2,1.2-0.4
			l0.2,0.3c-0.3,0.2-0.7,0.4-1.4,0.4C96.5,56.7,95.6,55.9,95.6,54.5z M98.7,54.2c0-1.1-0.5-1.7-1.3-1.7c-0.7,0-1.4,0.6-1.5,1.7H98.7
			z"/>
		<path d="M100.3,56.1v-5.9h0.4v6c0,0.2,0.1,0.3,0.2,0.3c0,0,0.1,0,0.2,0l0.1,0.3c-0.1,0-0.2,0-0.3,0
			C100.5,56.7,100.3,56.5,100.3,56.1z"/>
		<path d="M102.5,55.4v-2.8h-0.7v-0.2h0.7l0.1-1.3h0.3v1.3h1.3v0.3h-1.3v2.8c0,0.5,0.1,0.9,0.7,0.9c0.2,0,0.4-0.1,0.5-0.1l0.1,0.3
			c-0.3,0.1-0.5,0.2-0.7,0.2C102.7,56.7,102.5,56.2,102.5,55.4z"/>
		<path d="M104.9,54.5c0-1.4,0.9-2.3,1.9-2.3s1.7,0.7,1.7,2c0,0.1,0,0.2,0,0.3h-3.1c0,1.1,0.7,1.9,1.6,1.9c0.5,0,0.8-0.2,1.2-0.4
			l0.2,0.3c-0.3,0.2-0.7,0.4-1.4,0.4C105.7,56.7,104.9,55.9,104.9,54.5z M108,54.2c0-1.1-0.5-1.7-1.3-1.7c-0.7,0-1.4,0.6-1.5,1.7
			H108z"/>
		<path d="M109.6,52.3h0.3v0.8l0,0c0.3-0.5,0.7-0.9,1.2-0.9c0.2,0,0.3,0,0.4,0.1l-0.1,0.4c-0.1-0.1-0.2-0.1-0.4-0.1
			c-0.4,0-0.8,0.3-1.2,1.1v2.9h-0.4v-4.3H109.6z"/>
		<path d="M111.9,56.2l0.2-0.3c0.4,0.3,0.8,0.5,1.4,0.5c0.7,0,1-0.4,1-0.9s-0.6-0.8-1.1-1c-0.7-0.2-1.3-0.5-1.3-1.2
			c0-0.6,0.5-1.2,1.4-1.2c0.5,0,0.9,0.2,1.2,0.5l-0.2,0.3c-0.3-0.2-0.6-0.4-1-0.4c-0.7,0-1,0.4-1,0.8c0,0.5,0.5,0.7,1,0.9
			c0.7,0.3,1.4,0.5,1.4,1.3c0,0.6-0.5,1.2-1.5,1.2C112.8,56.7,112.3,56.5,111.9,56.2z"/>
	</g>
	<g>
		<path d="M263.8,56l0.2-0.3c0.3,0.4,0.8,0.7,1.6,0.7c0.8,0,1.4-0.6,1.4-1.5s-0.5-1.5-1.4-1.5c-0.4,0-0.7,0.2-1.1,0.4l-0.3-0.2
			l0.2-2.7h2.7v0.4h-2.3l-0.2,2.1c0.3-0.2,0.6-0.3,1-0.3c1,0,1.8,0.6,1.8,1.8s-0.9,1.9-1.8,1.9C264.7,56.7,264.2,56.3,263.8,56z"/>
		<path d="M268.3,57.8c0.4-0.2,0.7-0.6,0.7-1.1h-0.1c-0.2,0-0.4-0.1-0.4-0.4s0.2-0.4,0.4-0.4c0.3,0,0.5,0.2,0.5,0.6
			c0,0.7-0.4,1.2-0.9,1.5L268.3,57.8z"/>
		<path d="M273.3,51.2h-3v-0.4h3.5V51c-1.4,1.8-1.7,3.3-1.8,5.5h-0.4C271.6,54.3,272.1,52.9,273.3,51.2z"/>
		<path d="M274.6,53.7c0-1.9,0.6-3,1.7-3s1.7,1.1,1.7,3s-0.6,3-1.7,3C275.2,56.7,274.6,55.7,274.6,53.7z M277.6,53.7
			c0-1.8-0.5-2.6-1.3-2.6S275,52,275,53.7c0,1.8,0.5,2.7,1.3,2.7S277.6,55.5,277.6,53.7z"/>
		<path d="M278.7,56l0.2-0.3c0.3,0.4,0.8,0.7,1.6,0.7c0.8,0,1.4-0.6,1.4-1.5s-0.5-1.5-1.4-1.5c-0.4,0-0.7,0.2-1.1,0.4l-0.3-0.2
			l0.2-2.7h2.7v0.4h-2.3l-0.2,2.1c0.3-0.2,0.6-0.3,1-0.3c1,0,1.8,0.6,1.8,1.8s-0.9,1.9-1.8,1.9C279.6,56.7,279.1,56.3,278.7,56z"/>
	</g>
	<g>
		<path d="M334.7,56l0.2-0.3c0.3,0.4,0.8,0.7,1.6,0.7c0.8,0,1.4-0.6,1.4-1.5s-0.5-1.5-1.4-1.5c-0.4,0-0.7,0.2-1.1,0.4l-0.3-0.2
			l0.2-2.7h2.7v0.4h-2.3l-0.2,2.1c0.3-0.2,0.6-0.3,1-0.3c1,0,1.8,0.6,1.8,1.8s-0.9,1.9-1.8,1.9C335.5,56.7,335,56.3,334.7,56z"/>
		<path d="M339.2,57.8c0.4-0.2,0.7-0.6,0.7-1.1h-0.1c-0.2,0-0.4-0.1-0.4-0.4s0.2-0.4,0.4-0.4c0.3,0,0.5,0.2,0.5,0.6
			c0,0.7-0.4,1.2-0.9,1.5L339.2,57.8z"/>
		<path d="M344.1,51.2h-3v-0.4h3.5V51c-1.4,1.8-1.7,3.3-1.8,5.5h-0.4C342.5,54.3,343,52.9,344.1,51.2z"/>
		<path d="M345.5,54c0-2.4,1-3.3,2.1-3.3c0.5,0,0.9,0.2,1.2,0.6l-0.2,0.3c-0.3-0.3-0.6-0.5-1-0.5c-0.9,0-1.7,0.7-1.7,2.8
			c0.4-0.5,0.9-0.8,1.4-0.8c1,0,1.6,0.6,1.6,1.8c0,1-0.7,1.8-1.6,1.8C346.2,56.7,345.5,55.8,345.5,54z M345.9,54.4
			c0.1,1.2,0.5,2,1.5,2c0.7,0,1.2-0.6,1.2-1.5s-0.4-1.4-1.2-1.4C346.9,53.5,346.4,53.7,345.9,54.4z"/>
		<path d="M349.8,56.2l0.2-0.3c0.3,0.3,0.6,0.5,1,0.5c0.9,0,1.7-0.7,1.7-2.8c-0.4,0.5-0.9,0.8-1.5,0.8c-1,0-1.6-0.6-1.6-1.8
			c0-1,0.7-1.8,1.6-1.8c1.1,0,1.9,1,1.9,2.7c0,2.4-1,3.3-2.1,3.3C350.5,56.7,350.1,56.5,349.8,56.2z M351.4,54c0.4,0,1-0.3,1.4-0.9
			c-0.1-1.2-0.5-2-1.5-2c-0.7,0-1.2,0.6-1.2,1.4C350.1,53.4,350.5,54,351.4,54z"/>
	</g>
	<g>
		<path d="M405.5,56l0.2-0.3c0.3,0.4,0.8,0.7,1.6,0.7c0.8,0,1.4-0.6,1.4-1.5s-0.5-1.5-1.4-1.5c-0.4,0-0.7,0.2-1.1,0.4l-0.3-0.2
			l0.2-2.7h2.7v0.4h-2.3l-0.2,2.1c0.3-0.2,0.6-0.3,1-0.3c1,0,1.8,0.6,1.8,1.8s-0.9,1.9-1.8,1.9C406.4,56.7,405.9,56.3,405.5,56z"/>
		<path d="M410,57.8c0.4-0.2,0.7-0.6,0.7-1.1h-0.1c-0.2,0-0.4-0.1-0.4-0.4s0.2-0.4,0.4-0.4c0.3,0,0.5,0.2,0.5,0.6
			c0,0.7-0.4,1.2-0.9,1.5L410,57.8z"/>
		<path d="M412.1,56.2l0.2-0.3c0.3,0.3,0.6,0.5,1,0.5c0.9,0,1.7-0.7,1.7-2.8c-0.4,0.5-0.9,0.8-1.5,0.8c-1,0-1.6-0.6-1.6-1.8
			c0-1,0.7-1.8,1.6-1.8c1.1,0,1.9,1,1.9,2.7c0,2.4-1,3.3-2.1,3.3C412.8,56.7,412.4,56.5,412.1,56.2z M413.6,54c0.4,0,1-0.3,1.4-0.9
			c-0.1-1.2-0.5-2-1.5-2c-0.7,0-1.2,0.6-1.2,1.4C412.4,53.4,412.7,54,413.6,54z"/>
		<path d="M416.4,56.2l0.2-0.3c0.3,0.3,0.6,0.5,1,0.5c0.9,0,1.7-0.7,1.7-2.8c-0.4,0.5-0.9,0.8-1.5,0.8c-1,0-1.6-0.6-1.6-1.8
			c0-1,0.7-1.8,1.6-1.8c1.1,0,1.9,1,1.9,2.7c0,2.4-1,3.3-2.1,3.3C417.1,56.7,416.7,56.5,416.4,56.2z M417.9,54c0.4,0,1-0.3,1.4-0.9
			c-0.1-1.2-0.5-2-1.5-2c-0.7,0-1.2,0.6-1.2,1.4C416.7,53.4,417,54,417.9,54z"/>
		<path d="M423.6,51.2h-3v-0.4h3.5V51c-1.4,1.8-1.7,3.3-1.8,5.5h-0.4C422,54.3,422.5,52.9,423.6,51.2z"/>
	</g>
	<g>
		<path d="M476.6,54c0-2.4,1-3.3,2.1-3.3c0.5,0,0.9,0.2,1.2,0.6l-0.2,0.3c-0.3-0.3-0.6-0.5-1-0.5c-0.9,0-1.7,0.7-1.7,2.8
			c0.4-0.5,0.9-0.8,1.4-0.8c1,0,1.6,0.6,1.6,1.8c0,1-0.7,1.8-1.6,1.8C477.4,56.7,476.6,55.8,476.6,54z M477,54.4
			c0.1,1.2,0.5,2,1.5,2c0.7,0,1.2-0.6,1.2-1.5s-0.4-1.4-1.2-1.4C478,53.5,477.5,53.7,477,54.4z"/>
		<path d="M480.9,57.8c0.4-0.2,0.7-0.6,0.7-1.1h-0.1c-0.2,0-0.4-0.1-0.4-0.4s0.2-0.4,0.4-0.4c0.3,0,0.5,0.2,0.5,0.6
			c0,0.7-0.4,1.2-0.9,1.5L480.9,57.8z"/>
		<path d="M482.9,53.7c0-1.9,0.6-3,1.7-3s1.7,1.1,1.7,3s-0.6,3-1.7,3S482.9,55.7,482.9,53.7z M485.9,53.7c0-1.8-0.5-2.6-1.3-2.6
			s-1.3,0.9-1.3,2.6c0,1.8,0.5,2.7,1.3,2.7S485.9,55.5,485.9,53.7z"/>
		<path d="M487.2,54c0-2.4,1-3.3,2.1-3.3c0.5,0,0.9,0.2,1.2,0.6l-0.2,0.3c-0.3-0.3-0.6-0.5-1-0.5c-0.9,0-1.7,0.7-1.7,2.8
			c0.4-0.5,0.9-0.8,1.4-0.8c1,0,1.6,0.6,1.6,1.8c0,1-0.7,1.8-1.6,1.8C487.9,56.7,487.2,55.8,487.2,54z M487.6,54.4
			c0.1,1.2,0.5,2,1.5,2c0.7,0,1.2-0.6,1.2-1.5s-0.4-1.4-1.2-1.4C488.6,53.5,488.1,53.7,487.6,54.4z"/>
		<path d="M491.4,56.4c1.9-1.9,2.8-3,2.8-4c0-0.7-0.4-1.3-1.3-1.3c-0.5,0-1,0.3-1.3,0.8l-0.3-0.3c0.4-0.5,0.9-0.8,1.6-0.8
			c1,0,1.6,0.6,1.6,1.6c0,1.1-1,2.2-2.6,3.9c0.3,0,0.6,0,1,0h2v0.4h-3.5V56.4z"/>
	</g>
	<g>
		<path d="M3.3,64.3h1.5C6.1,64.3,7,64.7,7,66c0,1.2-0.8,1.7-2.1,1.7H3.7v2.5H3.3V64.3z M4.7,67.3c1.2,0,1.8-0.4,1.8-1.4
			s-0.6-1.3-1.8-1.3h-1v2.7C3.7,67.3,4.7,67.3,4.7,67.3z"/>
		<path d="M8.2,65.9h0.3v0.8l0,0c0.3-0.5,0.7-0.9,1.2-0.9c0.2,0,0.3,0,0.4,0.1L10,66.3c-0.1-0.1-0.2-0.1-0.4-0.1
			c-0.4,0-0.8,0.3-1.2,1.1v2.9H8v-4.3H8.2z"/>
		<path d="M10.7,68c0-1.4,0.9-2.3,1.9-2.3s1.9,0.8,1.9,2.3c0,1.4-0.9,2.3-1.9,2.3C11.6,70.3,10.7,69.5,10.7,68z M14.2,68
			c0-1.1-0.7-1.9-1.5-1.9c-0.9,0-1.5,0.8-1.5,1.9s0.6,1.9,1.5,1.9C13.5,69.9,14.2,69.2,14.2,68z"/>
		<path d="M15.5,68c0-1.4,0.9-2.3,1.9-2.3c0.5,0,0.9,0.2,1.3,0.5v-0.8v-1.8h0.4v6.5h-0.3v-0.6l0,0c-0.4,0.4-0.8,0.7-1.4,0.7
			C16.2,70.3,15.5,69.5,15.5,68z M18.7,69.2v-2.6c-0.5-0.4-0.8-0.6-1.3-0.6c-0.9,0-1.5,0.8-1.5,1.9s0.5,1.9,1.4,1.9
			C17.8,69.9,18.2,69.7,18.7,69.2z"/>
		<path d="M20.7,68.6v-2.8h0.4v2.7c0,0.9,0.3,1.4,1,1.4c0.5,0,0.9-0.3,1.4-0.9v-3.2h0.4v4.3h-0.3v-0.7l0,0c-0.4,0.5-0.9,0.8-1.5,0.8
			C21.1,70.3,20.7,69.8,20.7,68.6z"/>
		<path d="M25.2,68c0-1.4,0.9-2.3,2-2.3c0.6,0,1,0.3,1.3,0.5l-0.2,0.3c-0.3-0.3-0.6-0.5-1-0.5c-0.9,0-1.6,0.8-1.6,1.9
			s0.6,1.9,1.6,1.9c0.5,0,0.9-0.2,1.2-0.5l0.2,0.3c-0.4,0.3-0.8,0.6-1.4,0.6C26,70.3,25.2,69.5,25.2,68z"/>
		<path d="M29.7,69v-2.8H29v-0.3h0.7l0.1-1.3h0.3v1.3h1.3v0.3h-1.3V69c0,0.5,0.1,0.9,0.7,0.9c0.2,0,0.4-0.1,0.5-0.1l0.1,0.3
			c-0.3,0.1-0.5,0.2-0.7,0.2C29.9,70.3,29.7,69.8,29.7,69z"/>
		<path d="M32.2,64.5c0-0.2,0.1-0.4,0.3-0.4s0.3,0.1,0.3,0.4c0,0.2-0.1,0.4-0.3,0.4S32.2,64.7,32.2,64.5z M32.4,65.9h0.4v4.3h-0.4
			V65.9z"/>
		<path d="M34.1,68c0-1.4,0.9-2.3,1.9-2.3s1.9,0.8,1.9,2.3c0,1.4-0.9,2.3-1.9,2.3C35,70.3,34.1,69.5,34.1,68z M37.5,68
			c0-1.1-0.7-1.9-1.5-1.9c-0.9,0-1.5,0.8-1.5,1.9s0.6,1.9,1.5,1.9S37.5,69.2,37.5,68z"/>
		<path d="M39.2,65.9h0.3v0.7l0,0c0.4-0.4,0.9-0.8,1.5-0.8c0.9,0,1.3,0.5,1.3,1.7v2.8h-0.4v-2.7c0-0.9-0.3-1.4-1-1.4
			c-0.5,0-0.9,0.3-1.4,0.8v3.3h-0.4v-4.4H39.2z"/>
		<path d="M45.5,69.1c0-1,0.9-1.4,2.8-1.6c0-0.7-0.2-1.4-1-1.4c-0.6,0-1.1,0.3-1.4,0.5l-0.2-0.3c0.3-0.2,0.9-0.6,1.6-0.6
			c1,0,1.4,0.7,1.4,1.7v2.8h-0.3v-0.6l0,0c-0.4,0.4-1,0.7-1.5,0.7C46.1,70.3,45.5,69.9,45.5,69.1z M48.3,69.3v-1.5
			c-1.8,0.2-2.4,0.6-2.4,1.3c0,0.6,0.4,0.9,0.9,0.9S47.8,69.7,48.3,69.3z"/>
		<path d="M50.3,69v-2.8h-0.7v-0.3h0.7l0.1-1.3h0.3v1.3H52v0.3h-1.3V69c0,0.5,0.1,0.9,0.7,0.9c0.2,0,0.4-0.1,0.5-0.1l0.1,0.3
			c-0.3,0.1-0.5,0.2-0.7,0.2C50.6,70.3,50.3,69.8,50.3,69z"/>
		<path d="M54.3,69.7l0.2-0.3c0.4,0.3,0.8,0.5,1.4,0.5c0.7,0,1-0.4,1-0.9s-0.6-0.8-1.1-1c-0.7-0.2-1.3-0.5-1.3-1.2
			c0-0.6,0.5-1.2,1.4-1.2c0.5,0,0.9,0.2,1.2,0.5l-0.2,0.3c-0.3-0.2-0.6-0.4-1-0.4c-0.7,0-1,0.4-1,0.8c0,0.5,0.5,0.7,1,0.9
			c0.7,0.3,1.4,0.5,1.4,1.3c0,0.6-0.5,1.2-1.5,1.2C55.3,70.3,54.7,70,54.3,69.7z"/>
		<path d="M58.1,68c0-1.4,0.9-2.3,1.9-2.3s1.7,0.7,1.7,2c0,0.1,0,0.2,0,0.3h-3.1c0,1.1,0.7,1.9,1.6,1.9c0.5,0,0.8-0.2,1.2-0.4
			l0.2,0.3c-0.3,0.2-0.7,0.4-1.4,0.4C59,70.3,58.1,69.5,58.1,68z M61.3,67.8c0-1.1-0.5-1.7-1.3-1.7c-0.7,0-1.4,0.6-1.5,1.7H61.3z"/>
		<path d="M62.5,68c0-1.4,0.9-2.3,2-2.3c0.6,0,1,0.3,1.3,0.5l-0.2,0.3c-0.3-0.3-0.6-0.5-1-0.5c-0.9,0-1.6,0.8-1.6,1.9
			s0.6,1.9,1.6,1.9c0.5,0,0.9-0.2,1.2-0.5l0.2,0.3c-0.4,0.3-0.8,0.6-1.4,0.6C63.3,70.3,62.5,69.5,62.5,68z"/>
		<path d="M66.5,68c0-1.4,0.9-2.3,1.9-2.3s1.9,0.8,1.9,2.3c0,1.4-0.9,2.3-1.9,2.3S66.5,69.5,66.5,68z M70,68c0-1.1-0.7-1.9-1.5-1.9
			c-0.9,0-1.5,0.8-1.5,1.9s0.6,1.9,1.5,1.9C69.3,69.9,70,69.2,70,68z"/>
		<path d="M71.7,65.9H72v0.7l0,0c0.4-0.4,0.9-0.8,1.5-0.8c0.9,0,1.3,0.5,1.3,1.7v2.8h-0.4v-2.7c0-0.9-0.3-1.4-1-1.4
			c-0.5,0-0.9,0.3-1.4,0.8v3.3h-0.4L71.7,65.9L71.7,65.9z"/>
		<path d="M76.1,68c0-1.4,0.9-2.3,1.9-2.3c0.5,0,0.9,0.2,1.3,0.5v-0.8v-1.8h0.4v6.5h-0.3v-0.6l0,0c-0.4,0.4-0.8,0.7-1.4,0.7
			C76.8,70.3,76.1,69.5,76.1,68z M79.3,69.2v-2.6C78.8,66.2,78.5,66,78,66c-0.9,0-1.5,0.8-1.5,1.9s0.5,1.9,1.4,1.9
			C78.5,69.9,78.9,69.7,79.3,69.2z"/>
		<path d="M81.1,69.1c0-1,0.9-1.4,2.8-1.6c0-0.7-0.2-1.4-1-1.4c-0.6,0-1.1,0.3-1.4,0.5l-0.2-0.3c0.3-0.2,0.9-0.6,1.6-0.6
			c1,0,1.4,0.7,1.4,1.7v2.8H84v-0.6l0,0c-0.4,0.4-1,0.7-1.5,0.7C81.7,70.3,81.1,69.9,81.1,69.1z M83.9,69.3v-1.5
			c-1.8,0.2-2.4,0.6-2.4,1.3c0,0.6,0.4,0.9,0.9,0.9S83.3,69.7,83.9,69.3z"/>
		<path d="M85.8,65.9h0.3v0.8l0,0c0.3-0.5,0.7-0.9,1.2-0.9c0.2,0,0.3,0,0.4,0.1l-0.1,0.4c-0.1-0.1-0.2-0.1-0.4-0.1
			c-0.4,0-0.8,0.3-1.2,1.1v2.9h-0.4v-4.3H85.8z"/>
		<path d="M88,72.1l0.1-0.4c0.1,0,0.2,0.1,0.4,0.1c0.5,0,0.9-0.5,1.1-1.1l0.1-0.4l-1.8-4.4h0.5l1,2.7c0.1,0.4,0.3,0.8,0.5,1.2l0,0
			c0.1-0.4,0.3-0.8,0.4-1.2l0.9-2.7h0.4l-1.7,4.9c-0.2,0.7-0.7,1.4-1.4,1.4C88.3,72.2,88.2,72.1,88,72.1z"/>
		<path d="M94.4,65.9h0.3v0.8l0,0c0.3-0.5,0.7-0.9,1.2-0.9c0.2,0,0.3,0,0.4,0.1l-0.1,0.4c-0.1-0.1-0.2-0.1-0.4-0.1
			c-0.4,0-0.8,0.3-1.2,1.1v2.9h-0.2V65.9z"/>
		<path d="M96.9,68c0-1.4,0.9-2.3,1.9-2.3s1.7,0.7,1.7,2c0,0.1,0,0.2,0,0.3h-3.1c0,1.1,0.7,1.9,1.6,1.9c0.5,0,0.8-0.2,1.2-0.4
			l0.2,0.3c-0.3,0.2-0.7,0.4-1.4,0.4C97.8,70.3,96.9,69.5,96.9,68z M100,67.8c0-1.1-0.5-1.7-1.3-1.7c-0.7,0-1.4,0.6-1.5,1.7H100z"/>
		<path d="M101.6,66.2H101v-0.3h0.6v-1c0-0.9,0.4-1.3,1.1-1.3c0.2,0,0.4,0.1,0.6,0.1l-0.1,0.3c-0.2-0.1-0.4-0.1-0.5-0.1
			c-0.5,0-0.7,0.4-0.7,1v0.9h1v0.3h-1v4h-0.4V66.2z"/>
		<path d="M103.8,64.5c0-0.2,0.1-0.4,0.3-0.4s0.3,0.1,0.3,0.4c0,0.2-0.1,0.4-0.3,0.4S103.8,64.7,103.8,64.5z M104,65.9h0.4v4.3H104
			V65.9z"/>
		<path d="M106,65.9h0.3v0.7l0,0c0.4-0.4,0.9-0.8,1.5-0.8c0.9,0,1.3,0.5,1.3,1.7v2.8h-0.4v-2.7c0-0.9-0.3-1.4-1-1.4
			c-0.5,0-0.9,0.3-1.4,0.8v3.3h-0.4L106,65.9L106,65.9z"/>
		<path d="M110.4,68c0-1.4,0.9-2.3,1.9-2.3s1.7,0.7,1.7,2c0,0.1,0,0.2,0,0.3h-3.1c0,1.1,0.7,1.9,1.6,1.9c0.5,0,0.8-0.2,1.2-0.4
			l0.2,0.3c-0.3,0.2-0.7,0.4-1.4,0.4C111.3,70.3,110.4,69.5,110.4,68z M113.6,67.8c0-1.1-0.5-1.7-1.3-1.7c-0.7,0-1.4,0.6-1.5,1.7
			H113.6z"/>
		<path d="M115.1,65.9h0.3v0.8l0,0c0.3-0.5,0.7-0.9,1.2-0.9c0.2,0,0.3,0,0.4,0.1l-0.1,0.4c-0.1-0.1-0.2-0.1-0.4-0.1
			c-0.4,0-0.8,0.3-1.2,1.1v2.9h-0.4v-4.3H115.1z"/>
		<path d="M117.9,64.5c0-0.2,0.1-0.4,0.3-0.4s0.3,0.1,0.3,0.4c0,0.2-0.1,0.4-0.3,0.4S117.9,64.7,117.9,64.5z M118,65.9h0.4v4.3H118
			V65.9z"/>
		<path d="M119.7,68c0-1.4,0.9-2.3,1.9-2.3c1,0,1.7,0.7,1.7,2c0,0.1,0,0.2,0,0.3h-3.1c0,1.1,0.7,1.9,1.6,1.9c0.5,0,0.8-0.2,1.2-0.4
			l0.2,0.3c-0.3,0.2-0.7,0.4-1.4,0.4C120.6,70.3,119.7,69.5,119.7,68z M122.9,67.8c0-1.1-0.5-1.7-1.3-1.7c-0.7,0-1.4,0.6-1.5,1.7
			H122.9z"/>
		<path d="M123.9,69.7l0.2-0.3c0.4,0.3,0.8,0.5,1.4,0.5c0.7,0,1-0.4,1-0.9s-0.6-0.8-1.1-1c-0.7-0.2-1.3-0.5-1.3-1.2
			c0-0.6,0.5-1.2,1.4-1.2c0.5,0,0.9,0.2,1.2,0.5l-0.2,0.3c-0.3-0.2-0.6-0.4-1-0.4c-0.7,0-1,0.4-1,0.8c0,0.5,0.5,0.7,1,0.9
			c0.7,0.3,1.4,0.5,1.4,1.3c0,0.6-0.5,1.2-1.5,1.2C124.8,70.3,124.3,70,123.9,69.7z"/>
	</g>
	<g>
		<path d="M264,67.6c0-2.4,1-3.3,2.1-3.3c0.5,0,0.9,0.2,1.2,0.6l-0.2,0.3c-0.3-0.3-0.6-0.5-1-0.5c-0.9,0-1.7,0.7-1.7,2.8
			c0.4-0.5,0.9-0.8,1.4-0.8c1,0,1.6,0.6,1.6,1.8c0,1-0.7,1.8-1.6,1.8C264.8,70.3,264,69.3,264,67.6z M264.4,67.9
			c0.1,1.2,0.5,2,1.5,2c0.7,0,1.2-0.6,1.2-1.5s-0.4-1.4-1.2-1.4C265.4,67.1,264.9,67.3,264.4,67.9z"/>
		<path d="M268.3,71.3c0.4-0.2,0.7-0.6,0.7-1.1h-0.1c-0.2,0-0.4-0.1-0.4-0.4s0.2-0.4,0.4-0.4c0.3,0,0.5,0.2,0.5,0.6
			c0,0.7-0.4,1.2-0.9,1.5L268.3,71.3z"/>
		<path d="M270.3,67.6c0-2.4,1-3.3,2.1-3.3c0.5,0,0.9,0.2,1.2,0.6l-0.2,0.3c-0.3-0.3-0.6-0.5-1-0.5c-0.9,0-1.7,0.7-1.7,2.8
			c0.4-0.5,0.9-0.8,1.4-0.8c1,0,1.6,0.6,1.6,1.8c0,1-0.7,1.8-1.6,1.8C271,70.3,270.3,69.3,270.3,67.6z M270.7,67.9
			c0.1,1.2,0.5,2,1.5,2c0.7,0,1.2-0.6,1.2-1.5S273,67,272.2,67C271.7,67.1,271.2,67.3,270.7,67.9z"/>
		<path d="M274.7,69.7l0.2-0.3c0.3,0.3,0.6,0.5,1,0.5c0.9,0,1.7-0.7,1.7-2.8c-0.4,0.5-0.9,0.8-1.5,0.8c-1,0-1.6-0.6-1.6-1.8
			c0-1,0.7-1.8,1.6-1.8c1.1,0,1.9,1,1.9,2.7c0,2.4-1,3.3-2.1,3.3C275.3,70.3,274.9,70.1,274.7,69.7z M276.2,67.6
			c0.4,0,1-0.3,1.4-0.9c-0.1-1.2-0.5-2-1.5-2c-0.7,0-1.2,0.6-1.2,1.4C274.9,67,275.3,67.6,276.2,67.6z"/>
		<path d="M278.9,67.6c0-2.4,1-3.3,2.1-3.3c0.5,0,0.9,0.2,1.2,0.6l-0.2,0.3c-0.3-0.3-0.6-0.5-1-0.5c-0.9,0-1.7,0.7-1.7,2.8
			c0.4-0.5,0.9-0.8,1.4-0.8c1,0,1.6,0.6,1.6,1.8c0,1-0.7,1.8-1.6,1.8C279.7,70.3,278.9,69.3,278.9,67.6z M279.3,67.9
			c0.1,1.2,0.5,2,1.5,2c0.7,0,1.2-0.6,1.2-1.5s-0.4-1.4-1.2-1.4C280.3,67.1,279.8,67.3,279.3,67.9z"/>
	</g>
	<g>
		<path d="M334.9,67.6c0-2.4,1-3.3,2.1-3.3c0.5,0,0.9,0.2,1.2,0.6l-0.2,0.3c-0.3-0.3-0.6-0.5-1-0.5c-0.9,0-1.7,0.7-1.7,2.8
			c0.4-0.5,0.9-0.8,1.4-0.8c1,0,1.6,0.6,1.6,1.8c0,1-0.7,1.8-1.6,1.8C335.6,70.3,334.9,69.3,334.9,67.6z M335.3,67.9
			c0.1,1.2,0.5,2,1.5,2c0.7,0,1.2-0.6,1.2-1.5s-0.4-1.4-1.2-1.4C336.3,67.1,335.8,67.3,335.3,67.9z"/>
		<path d="M339.2,71.3c0.4-0.2,0.7-0.6,0.7-1.1h-0.1c-0.2,0-0.4-0.1-0.4-0.4s0.2-0.4,0.4-0.4c0.3,0,0.5,0.2,0.5,0.6
			c0,0.7-0.4,1.2-0.9,1.5L339.2,71.3z"/>
		<path d="M341.2,69.7l0.2-0.3c0.3,0.3,0.6,0.5,1,0.5c0.9,0,1.7-0.7,1.7-2.8c-0.4,0.5-0.9,0.8-1.5,0.8c-1,0-1.6-0.6-1.6-1.8
			c0-1,0.7-1.8,1.6-1.8c1.1,0,1.9,1,1.9,2.7c0,2.4-1,3.3-2.1,3.3C341.9,70.3,341.5,70.1,341.2,69.7z M342.7,67.6
			c0.4,0,1-0.3,1.4-0.9c-0.1-1.2-0.5-2-1.5-2c-0.7,0-1.2,0.6-1.2,1.4C341.5,67,341.9,67.6,342.7,67.6z"/>
		<path d="M345.3,69.5l0.2-0.3c0.3,0.4,0.8,0.7,1.6,0.7c0.8,0,1.3-0.5,1.3-1.3s-0.6-1.3-2-1.3v-0.4c1.3,0,1.8-0.6,1.8-1.3
			c0-0.6-0.5-1.1-1.2-1.1c-0.5,0-1,0.3-1.3,0.6l-0.2-0.3c0.4-0.4,0.9-0.7,1.6-0.7c0.9,0,1.6,0.5,1.6,1.4c0,0.8-0.5,1.2-1.1,1.4l0,0
			c0.7,0.2,1.3,0.7,1.3,1.5c0,1-0.8,1.6-1.8,1.6C346.2,70.3,345.6,69.9,345.3,69.5z"/>
		<path d="M349.7,68.7c0-0.8,0.6-1.3,1.2-1.6l0,0c-0.4-0.3-0.8-0.7-0.8-1.3c0-0.8,0.7-1.4,1.5-1.4c1,0,1.6,0.6,1.6,1.5
			c0,0.6-0.5,1.2-0.8,1.5l0,0c0.5,0.3,1,0.7,1,1.5s-0.7,1.5-1.7,1.5C350.5,70.3,349.7,69.6,349.7,68.7z M352.9,68.8
			c0-0.9-0.9-1.2-1.8-1.5c-0.6,0.3-1,0.8-1,1.5s0.6,1.3,1.4,1.3C352.3,70,352.9,69.4,352.9,68.8z M352.7,65.8c0-0.6-0.4-1.2-1.2-1.2
			c-0.6,0-1.1,0.5-1.1,1.1c0,0.8,0.8,1.1,1.5,1.4C352.4,66.8,352.7,66.3,352.7,65.8z"/>
	</g>
	<g>
		<path d="M408.7,64.8h-3v-0.4h3.5v0.2c-1.4,1.8-1.7,3.3-1.8,5.5H407C407.1,67.9,407.6,66.4,408.7,64.8z"/>
		<path d="M410,71.3c0.4-0.2,0.7-0.6,0.7-1.1h-0.1c-0.2,0-0.4-0.1-0.4-0.4s0.2-0.4,0.4-0.4c0.3,0,0.5,0.2,0.5,0.6
			c0,0.7-0.4,1.2-0.9,1.5L410,71.3z"/>
		<path d="M412.3,69.8h1.4V65h-1v-0.3c0.5-0.1,0.8-0.2,1.1-0.4h0.3v5.4h1.3v0.4h-3L412.3,69.8L412.3,69.8z"/>
		<path d="M419.3,64.8h-3v-0.4h3.5v0.2c-1.4,1.8-1.7,3.3-1.8,5.5h-0.4C417.7,67.9,418.1,66.4,419.3,64.8z"/>
		<path d="M420.7,69.7l0.2-0.3c0.3,0.3,0.6,0.5,1,0.5c0.9,0,1.7-0.7,1.7-2.8c-0.4,0.5-0.9,0.8-1.5,0.8c-1,0-1.6-0.6-1.6-1.8
			c0-1,0.7-1.8,1.6-1.8c1.1,0,1.9,1,1.9,2.7c0,2.4-1,3.3-2.1,3.3C421.4,70.3,421,70.1,420.7,69.7z M422.2,67.6c0.4,0,1-0.3,1.4-0.9
			c-0.1-1.2-0.5-2-1.5-2c-0.7,0-1.2,0.6-1.2,1.4C421,67,421.3,67.6,422.2,67.6z"/>
	</g>
	<g>
		<path d="M479.6,64.8h-3v-0.4h3.5v0.2c-1.4,1.8-1.7,3.3-1.8,5.5h-0.4C477.9,67.9,478.4,66.4,479.6,64.8z"/>
		<path d="M480.9,71.3c0.4-0.2,0.7-0.6,0.7-1.1h-0.1c-0.2,0-0.4-0.1-0.4-0.4s0.2-0.4,0.4-0.4c0.3,0,0.5,0.2,0.5,0.6
			c0,0.7-0.4,1.2-0.9,1.5L480.9,71.3z"/>
		<path d="M482.7,69.5l0.2-0.3c0.3,0.4,0.8,0.7,1.6,0.7c0.8,0,1.3-0.5,1.3-1.3s-0.6-1.3-2-1.3v-0.4c1.3,0,1.8-0.6,1.8-1.3
			c0-0.6-0.5-1.1-1.2-1.1c-0.5,0-1,0.3-1.3,0.6l-0.2-0.3c0.4-0.4,0.9-0.7,1.6-0.7c0.9,0,1.6,0.5,1.6,1.4c0,0.8-0.5,1.2-1.1,1.4l0,0
			c0.7,0.2,1.3,0.7,1.3,1.5c0,1-0.8,1.6-1.8,1.6C483.6,70.3,483.1,69.9,482.7,69.5z"/>
		<path d="M487.1,68.7c0-0.8,0.6-1.3,1.2-1.6l0,0c-0.4-0.3-0.8-0.7-0.8-1.3c0-0.8,0.7-1.4,1.5-1.4c1,0,1.6,0.6,1.6,1.5
			c0,0.6-0.5,1.2-0.8,1.5l0,0c0.5,0.3,1,0.7,1,1.5s-0.7,1.5-1.7,1.5C487.9,70.3,487.1,69.6,487.1,68.7z M490.3,68.8
			c0-0.9-0.9-1.2-1.8-1.5c-0.6,0.3-1,0.8-1,1.5s0.6,1.3,1.4,1.3C489.7,70,490.3,69.4,490.3,68.8z M490.1,65.8c0-0.6-0.4-1.2-1.2-1.2
			c-0.6,0-1.1,0.5-1.1,1.1c0,0.8,0.8,1.1,1.5,1.4C489.8,66.8,490.1,66.3,490.1,65.8z"/>
		<path d="M491.6,69.7l0.2-0.3c0.3,0.3,0.6,0.5,1,0.5c0.9,0,1.7-0.7,1.7-2.8c-0.4,0.5-0.9,0.8-1.5,0.8c-1,0-1.6-0.6-1.6-1.8
			c0-1,0.7-1.8,1.6-1.8c1.1,0,1.9,1,1.9,2.7c0,2.4-1,3.3-2.1,3.3C492.2,70.3,491.8,70.1,491.6,69.7z M493.1,67.6
			c0.4,0,1-0.3,1.4-0.9c-0.1-1.2-0.5-2-1.5-2c-0.7,0-1.2,0.6-1.2,1.4C491.8,67,492.2,67.6,493.1,67.6z"/>
	</g>
	<g>
		<path d="M3.3,77.8H5c1.2,0,1.9,0.4,1.9,1.6c0,0.9-0.6,1.5-1.5,1.6L7,83.8H6.5l-1.6-2.7H3.7v2.7H3.3V77.8z M4.9,80.7
			c1,0,1.6-0.4,1.6-1.3s-0.6-1.2-1.6-1.2H3.7v2.5H4.9z"/>
		<path d="M7.8,81.6c0-1.4,0.9-2.3,1.9-2.3s1.7,0.7,1.7,2c0,0.1,0,0.2,0,0.3H8.3c0,1.1,0.7,1.9,1.6,1.9c0.5,0,0.8-0.2,1.2-0.4
			l0.2,0.3c-0.3,0.2-0.7,0.4-1.4,0.4C8.7,83.9,7.8,83,7.8,81.6z M10.9,81.3c0-1.1-0.5-1.7-1.3-1.7c-0.7,0-1.4,0.6-1.5,1.7H10.9z"/>
		<path d="M12.6,79.8H12v-0.3h0.6v-1c0-0.9,0.4-1.3,1.1-1.3c0.2,0,0.4,0.1,0.6,0.1l-0.1,0.3c-0.2-0.1-0.4-0.1-0.5-0.1
			c-0.5,0-0.7,0.4-0.7,1v0.9h1v0.3h-1v4h-0.4V79.8z"/>
		<path d="M14.7,78c0-0.2,0.1-0.4,0.3-0.4s0.3,0.1,0.3,0.4c0,0.2-0.1,0.4-0.3,0.4S14.7,78.2,14.7,78z M14.9,79.4h0.4v4.3h-0.4V79.4z
			"/>
		<path d="M16.9,79.4h0.3v0.7l0,0c0.4-0.4,0.9-0.8,1.5-0.8c0.9,0,1.3,0.5,1.3,1.7v2.8h-0.4v-2.7c0-0.9-0.3-1.4-1-1.4
			c-0.5,0-0.9,0.3-1.4,0.8v3.3h-0.4v-4.4H16.9z"/>
		<path d="M21.4,81.6c0-1.4,0.9-2.3,1.9-2.3s1.7,0.7,1.7,2c0,0.1,0,0.2,0,0.3h-3.1c0,1.1,0.7,1.9,1.6,1.9c0.5,0,0.8-0.2,1.2-0.4
			l0.2,0.3c-0.3,0.2-0.7,0.4-1.4,0.4C22.2,83.9,21.4,83,21.4,81.6z M24.5,81.3c0-1.1-0.5-1.7-1.3-1.7c-0.7,0-1.4,0.6-1.5,1.7H24.5z"
			/>
		<path d="M25.7,81.6c0-1.4,0.9-2.3,1.9-2.3c0.5,0,0.9,0.2,1.3,0.5V79v-1.8h0.4v6.5H29v-0.6l0,0c-0.4,0.4-0.8,0.7-1.4,0.7
			C26.4,83.9,25.7,83.1,25.7,81.6z M28.9,82.8v-2.6c-0.5-0.4-0.8-0.6-1.3-0.6c-0.9,0-1.5,0.8-1.5,1.9s0.5,1.9,1.4,1.9
			C28,83.5,28.4,83.2,28.9,82.8z"/>
		<path d="M32.8,77.8h0.4v5.6h2.7v0.4h-3.2L32.8,77.8L32.8,77.8z"/>
		<path d="M36.6,81.6c0-1.4,0.9-2.3,1.9-2.3s1.7,0.7,1.7,2c0,0.1,0,0.2,0,0.3h-3.1c0,1.1,0.7,1.9,1.6,1.9c0.5,0,0.8-0.2,1.2-0.4
			l0.2,0.3c-0.3,0.2-0.7,0.4-1.4,0.4C37.5,83.9,36.6,83,36.6,81.6z M39.8,81.3c0-1.1-0.5-1.7-1.3-1.7c-0.7,0-1.4,0.6-1.5,1.7H39.8z"
			/>
		<path d="M41,82.7c0-1,0.9-1.4,2.8-1.6c0-0.7-0.2-1.4-1-1.4c-0.6,0-1.1,0.3-1.4,0.5l-0.2-0.3c0.3-0.2,0.9-0.6,1.6-0.6
			c1,0,1.4,0.7,1.4,1.7v2.8h-0.3v-0.6l0,0c-0.4,0.4-1,0.7-1.5,0.7C41.6,83.9,41,83.5,41,82.7z M43.8,82.8v-1.5
			c-1.8,0.2-2.4,0.6-2.4,1.3c0,0.6,0.4,0.9,0.9,0.9S43.2,83.3,43.8,82.8z"/>
		<path d="M45.4,81.6c0-1.4,0.9-2.3,1.9-2.3c0.5,0,0.9,0.2,1.3,0.5V79v-1.8H49v6.5h-0.3v-0.6l0,0c-0.4,0.4-0.8,0.7-1.4,0.7
			C46.1,83.9,45.4,83.1,45.4,81.6z M48.6,82.8v-2.6c-0.5-0.4-0.8-0.6-1.3-0.6c-0.9,0-1.5,0.8-1.5,1.9s0.5,1.9,1.4,1.9
			C47.7,83.5,48.1,83.2,48.6,82.8z"/>
		<path d="M52.4,79.4h0.3v0.5l0,0c0.4-0.3,0.9-0.6,1.5-0.6c1.2,0,1.7,0.9,1.7,2.2c0,1.5-0.9,2.3-1.9,2.3c-0.4,0-0.8-0.2-1.3-0.5v2.4
			h-0.3V79.4z M55.6,81.5c0-1.1-0.4-1.9-1.4-1.9c-0.4,0-0.9,0.3-1.4,0.7v2.6c0.5,0.4,0.9,0.6,1.3,0.6C55,83.5,55.6,82.7,55.6,81.5z"
			/>
		<path d="M57.3,79.4h0.3v0.8l0,0c0.3-0.5,0.7-0.9,1.2-0.9c0.2,0,0.3,0,0.4,0.1l-0.1,0.4c-0.1-0.1-0.2-0.1-0.4-0.1
			c-0.4,0-0.8,0.3-1.2,1.1v2.9h-0.4v-4.3H57.3z"/>
		<path d="M59.8,81.6c0-1.5,0.9-2.3,1.9-2.3s1.9,0.8,1.9,2.3c0,1.4-0.9,2.3-1.9,2.3S59.8,83,59.8,81.6z M63.3,81.6
			c0-1.1-0.7-1.9-1.5-1.9c-0.9,0-1.5,0.8-1.5,1.9s0.6,1.9,1.5,1.9C62.6,83.5,63.3,82.7,63.3,81.6z"/>
		<path d="M64.6,81.6c0-1.4,0.9-2.3,1.9-2.3c0.5,0,0.9,0.2,1.3,0.5V79v-1.8h0.4v6.5h-0.3v-0.6l0,0c-0.4,0.4-0.8,0.7-1.4,0.7
			C65.3,83.9,64.6,83.1,64.6,81.6z M67.8,82.8v-2.6c-0.5-0.4-0.8-0.6-1.3-0.6c-0.9,0-1.5,0.8-1.5,1.9s0.5,1.9,1.4,1.9
			C66.9,83.5,67.4,83.2,67.8,82.8z"/>
		<path d="M69.8,82.2v-2.8h0.4v2.7c0,0.9,0.3,1.4,1,1.4c0.5,0,0.9-0.3,1.4-0.9v-3.2H73v4.3h-0.3V83l0,0c-0.4,0.5-0.9,0.8-1.5,0.8
			C70.2,83.9,69.8,83.3,69.8,82.2z"/>
		<path d="M74.3,81.6c0-1.5,0.9-2.3,2-2.3c0.6,0,1,0.3,1.3,0.5l-0.2,0.3c-0.3-0.3-0.6-0.5-1-0.5c-0.9,0-1.6,0.8-1.6,1.9
			s0.6,1.9,1.6,1.9c0.5,0,0.9-0.2,1.2-0.5l0.2,0.3c-0.4,0.3-0.8,0.6-1.4,0.6C75.1,83.9,74.3,83,74.3,81.6z"/>
		<path d="M78.8,82.5v-2.8h-0.7v-0.3h0.7l0.1-1.3h0.3v1.3h1.2v0.3h-1.3v2.8c0,0.5,0.1,0.9,0.7,0.9c0.2,0,0.4-0.1,0.5-0.1l0.1,0.3
			c-0.3,0.1-0.5,0.2-0.7,0.2C79,83.9,78.8,83.3,78.8,82.5z"/>
		<path d="M81.4,78c0-0.2,0.1-0.4,0.3-0.4S82,77.7,82,78c0,0.2-0.1,0.4-0.3,0.4S81.4,78.2,81.4,78z M81.5,79.4h0.4v4.3h-0.4V79.4z"
			/>
		<path d="M83.2,81.6c0-1.5,0.9-2.3,1.9-2.3s1.9,0.8,1.9,2.3c0,1.4-0.9,2.3-1.9,2.3C84.1,83.9,83.2,83,83.2,81.6z M86.7,81.6
			c0-1.1-0.7-1.9-1.5-1.9c-0.9,0-1.5,0.8-1.5,1.9s0.6,1.9,1.5,1.9C86,83.5,86.7,82.7,86.7,81.6z"/>
		<path d="M88.4,79.4h0.3v0.7l0,0c0.4-0.4,0.9-0.8,1.5-0.8c0.9,0,1.3,0.5,1.3,1.7v2.8h-0.4v-2.7c0-0.9-0.3-1.4-1-1.4
			c-0.5,0-0.9,0.3-1.4,0.8v3.3h-0.3V79.4z"/>
	</g>
	<g>
		<path d="M260,83.4h1.4v-4.8h-1v-0.2c0.5-0.1,0.8-0.2,1.1-0.4h0.3v5.4h1.3v0.4h-3L260,83.4L260,83.4z"/>
		<path d="M263.9,83.5c1.9-1.9,2.8-3,2.8-4c0-0.7-0.4-1.3-1.3-1.3c-0.5,0-1,0.3-1.3,0.8l-0.3-0.3c0.4-0.5,0.9-0.8,1.6-0.8
			c1,0,1.6,0.6,1.6,1.6c0,1.1-1,2.2-2.6,3.9c0.3,0,0.6,0,1,0h2v0.4h-3.5L263.9,83.5L263.9,83.5z"/>
		<path d="M268.3,84.9c0.4-0.2,0.7-0.6,0.7-1.1h-0.1c-0.2,0-0.4-0.1-0.4-0.4s0.2-0.4,0.4-0.4c0.3,0,0.5,0.2,0.5,0.6
			c0,0.7-0.4,1.2-0.9,1.5L268.3,84.9z"/>
		<path d="M272.6,82H270v-0.2l2.7-3.8h0.4v3.7h0.9V82h-0.9v1.7h-0.4V82H272.6z M272.6,81.7v-2.1c0-0.3,0-0.7,0-1l0,0
			c-0.1,0.2-0.3,0.5-0.5,0.7l-1.7,2.4H272.6z"/>
		<path d="M274.6,80.8c0-1.9,0.6-3,1.7-3s1.7,1.1,1.7,3s-0.6,3-1.7,3C275.2,83.9,274.6,82.8,274.6,80.8z M277.6,80.8
			c0-1.8-0.5-2.6-1.3-2.6s-1.3,0.9-1.3,2.6c0,1.8,0.5,2.7,1.3,2.7S277.6,82.6,277.6,80.8z"/>
		<path d="M278.8,83.5c1.9-1.9,2.8-3,2.8-4c0-0.7-0.4-1.3-1.3-1.3c-0.5,0-1,0.3-1.3,0.8l-0.3-0.3c0.4-0.5,0.9-0.8,1.6-0.8
			c1,0,1.6,0.6,1.6,1.6c0,1.1-1,2.2-2.6,3.9c0.3,0,0.6,0,1,0h2v0.4h-3.5L278.8,83.5L278.8,83.5z"/>
	</g>
	<g>
		<path d="M330.9,83.4h1.4v-4.8h-1v-0.2c0.5-0.1,0.8-0.2,1.1-0.4h0.3v5.4h1.3v0.4h-3L330.9,83.4L330.9,83.4z"/>
		<path d="M334.8,83.5c1.9-1.9,2.8-3,2.8-4c0-0.7-0.4-1.3-1.3-1.3c-0.5,0-1,0.3-1.3,0.8l-0.3-0.3c0.4-0.5,0.9-0.8,1.6-0.8
			c1,0,1.6,0.6,1.6,1.6c0,1.1-1,2.2-2.6,3.9c0.3,0,0.6,0,1,0h2v0.4h-3.5L334.8,83.5L334.8,83.5z"/>
		<path d="M339.2,84.9c0.4-0.2,0.7-0.6,0.7-1.1h-0.1c-0.2,0-0.4-0.1-0.4-0.4s0.2-0.4,0.4-0.4c0.3,0,0.5,0.2,0.5,0.6
			c0,0.7-0.4,1.2-0.9,1.5L339.2,84.9z"/>
		<path d="M344.1,78.3h-3v-0.4h3.5v0.2c-1.4,1.8-1.7,3.3-1.8,5.5h-0.4C342.5,81.4,343,80,344.1,78.3z"/>
		<path d="M345.4,80.8c0-1.9,0.6-3,1.7-3s1.7,1.1,1.7,3s-0.6,3-1.7,3C346.1,83.9,345.4,82.8,345.4,80.8z M348.5,80.8
			c0-1.8-0.5-2.6-1.3-2.6s-1.3,0.9-1.3,2.6c0,1.8,0.5,2.7,1.3,2.7S348.5,82.6,348.5,80.8z"/>
		<path d="M352.8,78.3h-3v-0.4h3.5v0.2c-1.4,1.8-1.7,3.3-1.8,5.5h-0.4C351.1,81.4,351.6,80,352.8,78.3z"/>
	</g>
	<g>
		<path d="M401.7,83.4h1.4v-4.8h-1v-0.2c0.5-0.1,0.8-0.2,1.1-0.4h0.3v5.4h1.3v0.4h-3L401.7,83.4L401.7,83.4z"/>
		<path d="M405.5,83l0.2-0.3c0.3,0.4,0.8,0.7,1.6,0.7c0.8,0,1.3-0.5,1.3-1.3s-0.6-1.3-2-1.3v-0.4c1.3,0,1.8-0.6,1.8-1.3
			c0-0.6-0.5-1.1-1.2-1.1c-0.5,0-1,0.3-1.3,0.6l-0.2-0.3c0.4-0.4,0.9-0.7,1.6-0.7c0.9,0,1.6,0.5,1.6,1.4c0,0.8-0.5,1.2-1.1,1.4l0,0
			c0.7,0.2,1.3,0.7,1.3,1.5c0,1-0.8,1.6-1.8,1.6C406.5,83.9,405.9,83.4,405.5,83z"/>
		<path d="M410,84.9c0.4-0.2,0.7-0.6,0.7-1.1h-0.1c-0.2,0-0.4-0.1-0.4-0.4s0.2-0.4,0.4-0.4c0.3,0,0.5,0.2,0.5,0.6
			c0,0.7-0.4,1.2-0.9,1.5L410,84.9z"/>
		<path d="M412.3,83.4h1.4v-4.8h-1v-0.2c0.5-0.1,0.8-0.2,1.1-0.4h0.3v5.4h1.3v0.4h-3L412.3,83.4L412.3,83.4z"/>
		<path d="M419.3,78.3h-3v-0.4h3.5v0.2c-1.4,1.8-1.7,3.3-1.8,5.5h-0.4C417.7,81.4,418.1,80,419.3,78.3z"/>
		<path d="M420.7,81.1c0-2.4,1-3.3,2.1-3.3c0.5,0,0.9,0.2,1.2,0.6l-0.2,0.3c-0.3-0.3-0.6-0.5-1-0.5c-0.9,0-1.7,0.7-1.7,2.8
			c0.4-0.5,0.9-0.8,1.4-0.8c1,0,1.6,0.6,1.6,1.8c0,1-0.7,1.8-1.6,1.8C421.4,83.9,420.7,82.9,420.7,81.1z M421.1,81.5
			c0.1,1.2,0.5,2,1.5,2c0.7,0,1.2-0.6,1.2-1.5s-0.4-1.4-1.2-1.4C422.1,80.6,421.5,80.8,421.1,81.5z"/>
	</g>
	<g>
		<path d="M472.6,83.4h1.4v-4.8h-1v-0.2c0.5-0.1,0.8-0.2,1.1-0.4h0.3v5.4h1.3v0.4h-3L472.6,83.4L472.6,83.4z"/>
		<path d="M476.4,83l0.2-0.3c0.3,0.4,0.8,0.7,1.6,0.7c0.8,0,1.3-0.5,1.3-1.3s-0.6-1.3-2-1.3v-0.4c1.3,0,1.8-0.6,1.8-1.3
			c0-0.6-0.5-1.1-1.2-1.1c-0.5,0-1,0.3-1.3,0.6l-0.2-0.3c0.4-0.4,0.9-0.7,1.6-0.7c0.9,0,1.6,0.5,1.6,1.4c0,0.8-0.5,1.2-1.1,1.4l0,0
			c0.7,0.2,1.3,0.7,1.3,1.5c0,1-0.8,1.6-1.8,1.6C477.3,83.9,476.8,83.4,476.4,83z"/>
		<path d="M480.9,84.9c0.4-0.2,0.7-0.6,0.7-1.1h-0.1c-0.2,0-0.4-0.1-0.4-0.4s0.2-0.4,0.4-0.4c0.3,0,0.5,0.2,0.5,0.6
			c0,0.7-0.4,1.2-0.9,1.5L480.9,84.9z"/>
		<path d="M485.2,82h-2.6v-0.2l2.7-3.8h0.4v3.7h0.9V82h-0.9v1.7h-0.4V82H485.2z M485.2,81.7v-2.1c0-0.3,0-0.7,0-1l0,0
			c-0.1,0.2-0.3,0.5-0.5,0.7l-1.7,2.4H485.2z"/>
		<path d="M487,83.1l0.2-0.3c0.3,0.4,0.8,0.7,1.6,0.7c0.8,0,1.4-0.6,1.4-1.5s-0.5-1.5-1.4-1.5c-0.4,0-0.7,0.2-1.1,0.4l-0.3-0.2
			l0.2-2.7h2.7v0.4H488l-0.2,2.1c0.3-0.2,0.6-0.3,1-0.3c1,0,1.8,0.6,1.8,1.8c0,1.2-0.9,1.9-1.8,1.9C487.9,83.9,487.4,83.4,487,83.1z
			"/>
		<path d="M491.8,83.4h1.4v-4.8h-1v-0.2c0.5-0.1,0.8-0.2,1.1-0.4h0.3v5.4h1.3v0.4h-3L491.8,83.4L491.8,83.4z"/>
	</g>
	<g>
		<path d="M2.9,94.3c0-1.9,1-3.1,2.5-3.1c0.7,0,1.2,0.3,1.5,0.7l-0.2,0.3c-0.3-0.4-0.8-0.6-1.3-0.6c-1.3,0-2.1,1-2.1,2.7
			S4.1,97,5.4,97c0.6,0,1.1-0.3,1.5-0.7l0.2,0.3c-0.5,0.5-1,0.8-1.8,0.8C3.9,97.4,2.9,96.2,2.9,94.3z"/>
		<path d="M8,95.1c0-1.5,0.9-2.3,1.9-2.3s1.9,0.8,1.9,2.3c0,1.4-0.9,2.3-1.9,2.3S8,96.6,8,95.1z M11.4,95.1c0-1.1-0.7-1.9-1.5-1.9
			c-0.9,0-1.5,0.8-1.5,1.9S9,97,9.9,97C10.8,97.1,11.4,96.3,11.4,95.1z"/>
		<path d="M13.1,93h0.3v0.7l0,0c0.4-0.4,0.9-0.8,1.5-0.8c0.9,0,1.3,0.5,1.3,1.7v2.8h-0.4v-2.7c0-0.9-0.3-1.4-1-1.4
			c-0.5,0-0.9,0.3-1.4,0.8v3.3H13V93H13.1z"/>
		<path d="M17.4,96.8l0.2-0.3C18,96.8,18.4,97,19,97c0.7,0,1-0.4,1-0.9s-0.6-0.8-1.1-1c-0.7-0.2-1.3-0.5-1.3-1.2
			c0-0.6,0.5-1.2,1.4-1.2c0.5,0,0.9,0.2,1.2,0.5L20,93.5c-0.3-0.2-0.6-0.4-1-0.4c-0.7,0-1,0.4-1,0.8c0,0.5,0.5,0.7,1,0.9
			c0.7,0.3,1.4,0.5,1.4,1.3c0,0.6-0.5,1.2-1.5,1.2C18.3,97.4,17.8,97.1,17.4,96.8z"/>
		<path d="M21.5,95.7v-2.8h0.4v2.7c0,0.9,0.3,1.4,1,1.4c0.5,0,0.9-0.3,1.4-0.9v-3.2h0.4v4.3h-0.3v-0.7l0,0c-0.4,0.5-0.9,0.8-1.5,0.8
			C21.9,97.4,21.5,96.9,21.5,95.7z"/>
		<path d="M26.3,93h0.3v0.7l0,0c0.4-0.4,0.9-0.8,1.4-0.8c0.7,0,1,0.4,1.2,0.9c0.5-0.5,1-0.9,1.5-0.9c0.9,0,1.3,0.5,1.3,1.7v2.8h-0.4
			v-2.7c0-0.9-0.3-1.4-1-1.4c-0.4,0-0.8,0.3-1.3,0.8v3.3h-0.4v-2.7c0-0.9-0.3-1.4-1-1.4c-0.4,0-0.8,0.3-1.3,0.8v3.3h-0.4L26.3,93
			L26.3,93z"/>
		<path d="M33.6,93h0.3v0.5l0,0c0.4-0.3,0.9-0.6,1.5-0.6c1.2,0,1.7,0.9,1.7,2.2c0,1.5-0.9,2.3-1.9,2.3c-0.4,0-0.8-0.2-1.3-0.5v2.4
			h-0.4V93H33.6z M36.8,95.1c0-1.1-0.4-1.9-1.4-1.9c-0.4,0-0.9,0.3-1.4,0.7v2.6c0.5,0.4,0.9,0.6,1.3,0.6
			C36.2,97.1,36.8,96.2,36.8,95.1z"/>
		<path d="M38.6,96.1v-2.8h-0.7V93h0.7l0.1-1.3H39V93h1.3v0.3H39v2.8c0,0.5,0.1,0.9,0.7,0.9c0.2,0,0.4-0.1,0.5-0.1l0.1,0.3
			c-0.3,0.1-0.5,0.2-0.7,0.2C38.9,97.4,38.6,96.9,38.6,96.1z"/>
		<path d="M41.2,91.6c0-0.2,0.1-0.4,0.3-0.4s0.3,0.1,0.3,0.4c0,0.2-0.1,0.4-0.3,0.4S41.2,91.8,41.2,91.6z M41.3,93h0.4v4.3h-0.4V93z
			"/>
		<path d="M43,95.1c0-1.5,0.9-2.3,1.9-2.3s1.9,0.8,1.9,2.3c0,1.4-0.9,2.3-1.9,2.3S43,96.6,43,95.1z M46.5,95.1
			c0-1.1-0.7-1.9-1.5-1.9c-0.9,0-1.5,0.8-1.5,1.9S44.1,97,45,97C45.9,97.1,46.5,96.3,46.5,95.1z"/>
		<path d="M48.2,93h0.3v0.7l0,0c0.4-0.4,0.9-0.8,1.5-0.8c0.9,0,1.3,0.5,1.3,1.7v2.8h-0.4v-2.7c0-0.9-0.3-1.4-1-1.4
			c-0.5,0-0.9,0.3-1.4,0.8v3.3h-0.4V93H48.2z"/>
	</g>
	<g>
		<path d="M260,96.9h1.4v-4.8h-1v-0.3c0.5-0.1,0.8-0.2,1.1-0.4h0.3v5.4h1.3v0.4h-3L260,96.9L260,96.9z"/>
		<path d="M263.9,97c1.9-1.9,2.8-3,2.8-4c0-0.7-0.4-1.3-1.3-1.3c-0.5,0-1,0.3-1.3,0.8l-0.3-0.3c0.4-0.5,0.9-0.8,1.6-0.8
			c1,0,1.6,0.6,1.6,1.6c0,1.1-1,2.2-2.6,3.9c0.3,0,0.6,0,1,0h2v0.4h-3.5L263.9,97L263.9,97z"/>
		<path d="M268.3,98.4c0.4-0.2,0.7-0.6,0.7-1.1h-0.1c-0.2,0-0.4-0.1-0.4-0.4s0.2-0.4,0.4-0.4c0.3,0,0.5,0.2,0.5,0.6
			c0,0.7-0.4,1.2-0.9,1.5L268.3,98.4z"/>
		<path d="M270.3,94.7c0-2.4,1-3.3,2.1-3.3c0.5,0,0.9,0.2,1.2,0.6l-0.2,0.3c-0.3-0.3-0.6-0.5-1-0.5c-0.9,0-1.7,0.7-1.7,2.8
			c0.4-0.5,0.9-0.8,1.4-0.8c1,0,1.6,0.6,1.6,1.8c0,1-0.7,1.8-1.6,1.8C271,97.4,270.3,96.4,270.3,94.7z M270.7,95
			c0.1,1.2,0.5,2,1.5,2c0.7,0,1.2-0.6,1.2-1.5s-0.4-1.4-1.2-1.4C271.7,94.2,271.2,94.4,270.7,95z"/>
		<path d="M274.5,95.8c0-0.8,0.6-1.3,1.2-1.6l0,0c-0.4-0.3-0.8-0.7-0.8-1.3c0-0.8,0.7-1.4,1.5-1.4c1,0,1.6,0.6,1.6,1.5
			c0,0.6-0.5,1.2-0.8,1.5l0,0c0.5,0.3,1,0.7,1,1.5s-0.7,1.5-1.7,1.5C275.3,97.4,274.5,96.7,274.5,95.8z M277.7,95.9
			c0-0.9-0.9-1.2-1.8-1.5c-0.6,0.3-1,0.8-1,1.5s0.6,1.3,1.4,1.3C277.1,97.1,277.7,96.6,277.7,95.9z M277.5,92.9
			c0-0.6-0.4-1.2-1.2-1.2c-0.6,0-1.1,0.5-1.1,1.1c0,0.8,0.8,1.1,1.5,1.4C277.2,93.9,277.5,93.4,277.5,92.9z"/>
		<path d="M279.2,96.9h1.4v-4.8h-1v-0.3c0.5-0.1,0.8-0.2,1.1-0.4h0.3v5.4h1.3v0.4h-3L279.2,96.9L279.2,96.9z"/>
	</g>
	<g>
		<path d="M330.9,96.9h1.4v-4.8h-1v-0.3c0.5-0.1,0.8-0.2,1.1-0.4h0.3v5.4h1.3v0.4h-3L330.9,96.9L330.9,96.9z"/>
		<path d="M334.8,97c1.9-1.9,2.8-3,2.8-4c0-0.7-0.4-1.3-1.3-1.3c-0.5,0-1,0.3-1.3,0.8l-0.3-0.3c0.4-0.5,0.9-0.8,1.6-0.8
			c1,0,1.6,0.6,1.6,1.6c0,1.1-1,2.2-2.6,3.9c0.3,0,0.6,0,1,0h2v0.4h-3.5L334.8,97L334.8,97z"/>
		<path d="M339.2,98.4c0.4-0.2,0.7-0.6,0.7-1.1h-0.1c-0.2,0-0.4-0.1-0.4-0.4s0.2-0.4,0.4-0.4c0.3,0,0.5,0.2,0.5,0.6
			c0,0.7-0.4,1.2-0.9,1.5L339.2,98.4z"/>
		<path d="M341.2,96.8l0.2-0.3c0.3,0.3,0.6,0.5,1,0.5c0.9,0,1.7-0.7,1.7-2.8c-0.4,0.5-0.9,0.8-1.5,0.8c-1,0-1.6-0.6-1.6-1.8
			c0-1,0.7-1.8,1.6-1.8c1.1,0,1.9,1,1.9,2.7c0,2.4-1,3.3-2.1,3.3C341.9,97.4,341.5,97.2,341.2,96.8z M342.7,94.7
			c0.4,0,1-0.3,1.4-0.9c-0.1-1.2-0.5-2-1.5-2c-0.7,0-1.2,0.6-1.2,1.4C341.5,94.1,341.9,94.7,342.7,94.7z"/>
		<path d="M345.3,96.6l0.2-0.3c0.3,0.4,0.8,0.7,1.6,0.7c0.8,0,1.3-0.5,1.3-1.3s-0.6-1.3-2-1.3V94c1.3,0,1.8-0.6,1.8-1.3
			c0-0.6-0.5-1.1-1.2-1.1c-0.5,0-1,0.3-1.3,0.6l-0.2-0.3c0.4-0.4,0.9-0.7,1.6-0.7c0.9,0,1.6,0.5,1.6,1.4c0,0.8-0.5,1.2-1.1,1.4l0,0
			c0.7,0.2,1.3,0.7,1.3,1.5c0,1-0.8,1.6-1.8,1.6C346.2,97.4,345.6,97,345.3,96.6z"/>
		<path d="M349.6,96.6l0.2-0.3c0.3,0.4,0.8,0.7,1.6,0.7c0.8,0,1.4-0.6,1.4-1.5s-0.5-1.5-1.4-1.5c-0.4,0-0.7,0.2-1.1,0.4l-0.3-0.2
			l0.2-2.7h2.7v0.4h-2.3l-0.2,2.1c0.3-0.2,0.6-0.3,1-0.3c1,0,1.8,0.6,1.8,1.8c0,1.2-0.9,1.9-1.8,1.9C350.5,97.4,349.9,97,349.6,96.6
			z"/>
	</g>
	<g>
		<path d="M401.7,96.9h1.4v-4.8h-1v-0.3c0.5-0.1,0.8-0.2,1.1-0.4h0.3v5.4h1.3v0.4h-3L401.7,96.9L401.7,96.9z"/>
		<path d="M405.5,96.6l0.2-0.3c0.3,0.4,0.8,0.7,1.6,0.7c0.8,0,1.3-0.5,1.3-1.3s-0.6-1.3-2-1.3V94c1.3,0,1.8-0.6,1.8-1.3
			c0-0.6-0.5-1.1-1.2-1.1c-0.5,0-1,0.3-1.3,0.6l-0.2-0.3c0.4-0.4,0.9-0.7,1.6-0.7c0.9,0,1.6,0.5,1.6,1.4c0,0.8-0.5,1.2-1.1,1.4l0,0
			c0.7,0.2,1.3,0.7,1.3,1.5c0,1-0.8,1.6-1.8,1.6C406.5,97.4,405.9,97,405.5,96.6z"/>
		<path d="M410,98.4c0.4-0.2,0.7-0.6,0.7-1.1h-0.1c-0.2,0-0.4-0.1-0.4-0.4s0.2-0.4,0.4-0.4c0.3,0,0.5,0.2,0.5,0.6
			c0,0.7-0.4,1.2-0.9,1.5L410,98.4z"/>
		<path d="M411.9,97c1.9-1.9,2.8-3,2.8-4c0-0.7-0.4-1.3-1.3-1.3c-0.5,0-1,0.3-1.3,0.8l-0.3-0.3c0.4-0.5,0.9-0.8,1.6-0.8
			c1,0,1.6,0.6,1.6,1.6c0,1.1-1,2.2-2.6,3.9c0.3,0,0.6,0,1,0h2v0.4h-3.5L411.9,97L411.9,97z"/>
		<path d="M416.3,94.4c0-1.9,0.6-3,1.7-3s1.7,1.1,1.7,3s-0.6,3-1.7,3S416.3,96.3,416.3,94.4z M419.3,94.4c0-1.8-0.5-2.6-1.3-2.6
			s-1.3,0.9-1.3,2.6c0,1.8,0.5,2.7,1.3,2.7S419.3,96.2,419.3,94.4z"/>
		<path d="M423.6,91.9h-3v-0.4h3.5v0.2c-1.4,1.8-1.7,3.3-1.8,5.5h-0.4C422,95,422.5,93.5,423.6,91.9z"/>
	</g>
	<g>
		<path d="M472.6,96.9h1.4v-4.8h-1v-0.3c0.5-0.1,0.8-0.2,1.1-0.4h0.3v5.4h1.3v0.4h-3L472.6,96.9L472.6,96.9z"/>
		<path d="M476.4,96.6l0.2-0.3c0.3,0.4,0.8,0.7,1.6,0.7c0.8,0,1.3-0.5,1.3-1.3s-0.6-1.3-2-1.3V94c1.3,0,1.8-0.6,1.8-1.3
			c0-0.6-0.5-1.1-1.2-1.1c-0.5,0-1,0.3-1.3,0.6l-0.2-0.3c0.4-0.4,0.9-0.7,1.6-0.7c0.9,0,1.6,0.5,1.6,1.4c0,0.8-0.5,1.2-1.1,1.4l0,0
			c0.7,0.2,1.3,0.7,1.3,1.5c0,1-0.8,1.6-1.8,1.6C477.3,97.4,476.8,97,476.4,96.6z"/>
		<path d="M480.9,98.4c0.4-0.2,0.7-0.6,0.7-1.1h-0.1c-0.2,0-0.4-0.1-0.4-0.4s0.2-0.4,0.4-0.4c0.3,0,0.5,0.2,0.5,0.6
			c0,0.7-0.4,1.2-0.9,1.5L480.9,98.4z"/>
		<path d="M485.2,95.6h-2.6v-0.2l2.7-3.8h0.4v3.7h0.9v0.3h-0.9v1.7h-0.4v-1.7H485.2z M485.2,95.2v-2.1c0-0.3,0-0.7,0-1l0,0
			c-0.1,0.2-0.3,0.5-0.5,0.7l-1.7,2.4H485.2z"/>
		<path d="M487.1,97c1.9-1.9,2.8-3,2.8-4c0-0.7-0.4-1.3-1.3-1.3c-0.5,0-1,0.3-1.3,0.8l-0.3-0.3c0.4-0.5,0.9-0.8,1.6-0.8
			c1,0,1.6,0.6,1.6,1.6c0,1.1-1,2.2-2.6,3.9c0.3,0,0.6,0,1,0h2v0.4h-3.5L487.1,97L487.1,97z"/>
		<path d="M491.6,96.8l0.2-0.3c0.3,0.3,0.6,0.5,1,0.5c0.9,0,1.7-0.7,1.7-2.8c-0.4,0.5-0.9,0.8-1.5,0.8c-1,0-1.6-0.6-1.6-1.8
			c0-1,0.7-1.8,1.6-1.8c1.1,0,1.9,1,1.9,2.7c0,2.4-1,3.3-2.1,3.3C492.2,97.4,491.9,97.2,491.6,96.8z M493.1,94.7
			c0.4,0,1-0.3,1.4-0.9c-0.1-1.2-0.5-2-1.5-2c-0.7,0-1.2,0.6-1.2,1.4C491.8,94.1,492.2,94.7,493.1,94.7z"/>
	</g>
</g>
</svg>
