<?xml version="1.0" encoding="utf-8"?>
<!-- Generator: Adobe Illustrator 23.0.3, SVG Export Plug-In . SVG Version: 6.00 Build 0)  -->
<svg version="1.1" id="Layer_1" xmlns="http://www.w3.org/2000/svg" xmlns:xlink="http://www.w3.org/1999/xlink" x="0px" y="0px"
	 viewBox="0 0 496.9 62.7" style="enable-background:new 0 0 496.9 62.7;" xml:space="preserve">
<style type="text/css">
	.st0{fill:#37B550;}
	.st1{fill:#00AE4D;}
	.st2{fill:#FFFFFF;}
	.st3{fill:#A3D4A0;}
	.st4{fill:none;stroke:#939598;stroke-width:0.5;stroke-miterlimit:10;}
	.st5{fill:none;stroke:#939598;stroke-width:0.499;stroke-miterlimit:10;}
</style>
<g>
	<g>
		<path class="st0" d="M1.3,1.2h2.2c1.4,0,2.6,0.5,2.6,2.1c0,1.5-1.2,2.2-2.5,2.2H2.8v2.2H1.3C1.3,7.7,1.3,1.2,1.3,1.2z M3.5,4.3
			c0.8,0,1.2-0.4,1.2-1S4.3,2.4,3.5,2.4H2.8v2h0.7V4.3z"/>
		<path class="st0" d="M7.2,1.2h2.3c1.4,0,2.5,0.5,2.5,2c0,1-0.5,1.6-1.2,1.9l1.5,2.6h-1.6L9.4,5.4H8.6v2.3H7.1V1.2H7.2z M9.5,4.2
			c0.8,0,1.2-0.3,1.2-1s-0.4-0.9-1.2-0.9H8.7v1.8L9.5,4.2L9.5,4.2z"/>
		<path class="st0" d="M13.4,1.2h1.5v6.5h-1.5V1.2z"/>
		<path class="st0" d="M16.1,4.5c0-2.2,1.4-3.4,3.1-3.4c0.8,0,1.5,0.4,2,0.8l-0.8,0.9c-0.3-0.3-0.7-0.5-1.2-0.5
			c-0.9,0-1.6,0.8-1.6,2.1s0.6,2.1,1.6,2.1c0.5,0,0.9-0.3,1.3-0.6l0.8,0.9c-0.5,0.6-1.3,1-2.1,1C17.4,7.8,16.1,6.7,16.1,4.5z"/>
		<path class="st0" d="M22.2,1.2h4.1v1.2h-2.6v1.3h2.2V5h-2.2v1.5h2.7v1.2h-4.2V1.2z"/>
		<path class="st0" d="M27.3,6.9l0.8-1c0.5,0.4,1.1,0.7,1.6,0.7c0.6,0,0.9-0.2,0.9-0.6c0-0.4-0.4-0.5-0.9-0.8l-0.8-0.4
			C28.2,4.5,27.6,4,27.6,3c0-1.1,1-1.9,2.3-1.9c0.8,0,1.5,0.3,2.1,0.9l-0.8,0.9c-0.4-0.3-0.8-0.5-1.3-0.5S29.1,2.6,29.1,3
			c0,0.4,0.4,0.5,1,0.8l0.8,0.3c0.8,0.3,1.3,0.8,1.3,1.8c0,1.1-0.9,2-2.5,2C28.8,7.8,27.9,7.5,27.3,6.9z"/>
	</g>
	<path class="st1" d="M425.4,11.9h70.9v12.4h-70.9V11.9z M354.6,11.9h70.9v12.4h-70.9V11.9z M283.7,11.9h70.9v12.4h-70.9V11.9z"/>
	<path class="st2" d="M0.5,49.2h283.2v12.4H0.5V49.2z M0.5,36.8h283.2v12.4H0.5V36.8z M0.5,24.4h283.2v12.4H0.5V24.4z"/>
	<path class="st3" d="M283.7,49.2h70.9v12.4h-70.9V49.2z M283.7,36.8h70.9v12.4h-70.9V36.8z M283.7,24.4h70.9v12.4h-70.9V24.4z"/>
	<line class="st4" x1="425.4" y1="24.4" x2="496.3" y2="24.4"/>
	<line class="st4" x1="0.5" y1="36.8" x2="283.4" y2="36.8"/>
	<line class="st4" x1="283.9" y1="36.8" x2="354.3" y2="36.8"/>
	<line class="st4" x1="354.8" y1="36.8" x2="425.2" y2="36.8"/>
	<line class="st4" x1="425.7" y1="36.8" x2="496.3" y2="36.8"/>
	<line class="st4" x1="283.9" y1="49.2" x2="354.3" y2="49.2"/>
	<line class="st4" x1="354.8" y1="49.2" x2="425.2" y2="49.2"/>
	<line class="st4" x1="425.7" y1="49.2" x2="496.3" y2="49.2"/>
	<line class="st4" x1="283.7" y1="61.6" x2="354.6" y2="61.6"/>
	<line class="st4" x1="354.6" y1="61.6" x2="425.4" y2="61.6"/>
	<line class="st4" x1="425.4" y1="61.6" x2="496.3" y2="61.6"/>
	<line class="st5" x1="425.4" y1="36.8" x2="425.4" y2="24.6"/>
	<line class="st5" x1="425.4" y1="49.2" x2="425.4" y2="36.8"/>
	<line class="st5" x1="425.4" y1="61.4" x2="425.4" y2="49.2"/>
	<line class="st4" x1="425.4" y1="11.9" x2="496.3" y2="11.9"/>
	<line class="st4" x1="0.5" y1="11.9" x2="283.7" y2="11.9"/>
	<line class="st4" x1="283.7" y1="11.9" x2="354.6" y2="11.9"/>
	<line class="st5" x1="283.7" y1="24.1" x2="283.7" y2="12.2"/>
	<line class="st4" x1="354.6" y1="11.9" x2="425.4" y2="11.9"/>
	<line class="st5" x1="354.6" y1="24.1" x2="354.6" y2="12.2"/>
	<line class="st5" x1="425.4" y1="24.1" x2="425.4" y2="12.2"/>
	<line class="st4" x1="354.6" y1="24.4" x2="425.4" y2="24.4"/>
	<line class="st4" x1="0.5" y1="49.2" x2="283.4" y2="49.2"/>
	<line class="st4" x1="283.7" y1="24.4" x2="354.6" y2="24.4"/>
	<line class="st5" x1="283.7" y1="36.8" x2="283.7" y2="24.6"/>
	<line class="st5" x1="354.6" y1="36.8" x2="354.6" y2="24.6"/>
	<line class="st5" x1="283.7" y1="49.2" x2="283.7" y2="36.8"/>
	<line class="st5" x1="354.6" y1="49.2" x2="354.6" y2="36.8"/>
	<line class="st5" x1="283.7" y1="61.4" x2="283.7" y2="49.2"/>
	<line class="st5" x1="354.6" y1="61.4" x2="354.6" y2="49.2"/>
	<line class="st4" x1="0.5" y1="24.4" x2="283.7" y2="24.4"/>
	<line class="st4" x1="0.5" y1="61.6" x2="283.7" y2="61.6"/>
	<g>
		<path class="st2" d="M323.6,15.7h3.7v1.1h-2.4v1.4h2v1.1h-2v2.3h-1.3V15.7z"/>
		<path class="st2" d="M329.3,19.4l-1.8-3.8h1.4l0.5,1.4c0.2,0.4,0.3,0.8,0.5,1.3l0,0c0.2-0.5,0.3-0.9,0.5-1.3l0.5-1.4h1.4l-1.8,3.8
			v2.1h-1.3L329.3,19.4L329.3,19.4z"/>
		<path class="st2" d="M334.5,20.8c1.5-1.4,2.5-2.4,2.5-3.2c0-0.6-0.3-0.9-0.8-0.9c-0.4,0-0.7,0.3-1,0.6l-0.7-0.7
			c0.6-0.6,1.1-0.9,1.9-0.9c1.1,0,1.9,0.7,1.9,1.8c0,1-0.9,2-1.8,3c0.3,0,0.7-0.1,1-0.1h1.2v1.1h-4v-0.7H334.5z"/>
		<path class="st2" d="M339.2,18.6c0-1.9,0.8-2.9,2-2.9s2,1,2,2.9s-0.8,3-2,3C340,21.6,339.2,20.6,339.2,18.6z M342,18.6
			c0-1.6-0.3-1.9-0.8-1.9c-0.4,0-0.8,0.4-0.8,1.9c0,1.6,0.4,2,0.8,2C341.7,20.6,342,20.2,342,18.6z"/>
		<path class="st2" d="M344.3,20.5h1.2v-3.3h-1.1v-0.8c0.6-0.1,1-0.3,1.4-0.5h1v4.6h1.1v1.1h-3.6V20.5z"/>
		<path class="st2" d="M348.8,21l0.7-0.8c0.2,0.2,0.6,0.4,0.9,0.4c0.6,0,1.1-0.5,1.2-1.8c-0.3,0.4-0.8,0.6-1.1,0.6
			c-1,0-1.7-0.6-1.7-1.8c0-1.2,0.9-1.9,1.9-1.9c1.1,0,2.2,0.8,2.2,2.8c0,2.1-1.1,3.1-2.3,3.1C349.7,21.6,349.1,21.3,348.8,21z
			 M350.7,18.4c0.3,0,0.6-0.2,0.9-0.6c-0.1-0.9-0.5-1.2-0.9-1.2s-0.7,0.3-0.7,0.9C349.9,18.2,350.2,18.4,350.7,18.4z"/>
	</g>
	<g>
		<path class="st2" d="M394.4,15.7h3.7v1.1h-2.4v1.4h2v1.1h-2v2.3h-1.3L394.4,15.7L394.4,15.7z"/>
		<path class="st2" d="M400.2,19.4l-1.8-3.8h1.4l0.5,1.4c0.2,0.4,0.3,0.8,0.5,1.3l0,0c0.2-0.5,0.3-0.9,0.5-1.3l0.5-1.4h1.4l-1.8,3.8
			v2.1h-1.3L400.2,19.4L400.2,19.4z"/>
		<path class="st2" d="M405.3,20.8c1.5-1.4,2.5-2.4,2.5-3.2c0-0.6-0.3-0.9-0.8-0.9c-0.4,0-0.7,0.3-1,0.6l-0.7-0.7
			c0.6-0.6,1.1-0.9,1.9-0.9c1.1,0,1.9,0.7,1.9,1.8c0,1-0.9,2-1.8,3c0.3,0,0.7-0.1,1-0.1h1.2v1.1h-4v-0.7H405.3z"/>
		<path class="st2" d="M410.1,18.6c0-1.9,0.8-2.9,2-2.9s2,1,2,2.9s-0.8,3-2,3S410.1,20.6,410.1,18.6z M412.9,18.6
			c0-1.6-0.3-1.9-0.8-1.9c-0.4,0-0.8,0.4-0.8,1.9c0,1.6,0.4,2,0.8,2C412.6,20.6,412.9,20.2,412.9,18.6z"/>
		<path class="st2" d="M415.1,20.5h1.2v-3.3h-1.1v-0.8c0.6-0.1,1-0.3,1.4-0.5h1v4.6h1.1v1.1h-3.6V20.5z"/>
		<path class="st2" d="M419.6,20.1c0-0.7,0.4-1.1,1-1.4l0,0c-0.4-0.3-0.8-0.7-0.8-1.4c0-1,0.8-1.6,1.8-1.6s1.7,0.6,1.7,1.6
			c0,0.5-0.4,1-0.7,1.3l0,0c0.5,0.3,1,0.7,1,1.5c0,0.9-0.8,1.6-2,1.6C420.5,21.6,419.6,21,419.6,20.1z M422.4,20
			c0-0.5-0.5-0.7-1.2-1c-0.3,0.2-0.4,0.6-0.4,0.9c0,0.5,0.4,0.8,0.9,0.8C422.1,20.7,422.4,20.5,422.4,20z M422.3,17.4
			c0-0.4-0.3-0.7-0.7-0.7c-0.4,0-0.6,0.2-0.6,0.7s0.4,0.7,1,0.9C422.2,17.9,422.3,17.7,422.3,17.4z"/>
	</g>
	<g>
		<path class="st2" d="M456.9,17.4c0-1.2,0.6-1.9,1.5-1.9s1.5,0.7,1.5,1.9c0,1.2-0.6,1.9-1.5,1.9S456.9,18.6,456.9,17.4z
			 M458.9,17.4c0-0.8-0.2-1.1-0.5-1.1s-0.5,0.3-0.5,1.1c0,0.8,0.2,1.1,0.5,1.1S458.9,18.2,458.9,17.4z M461.7,15.5h0.8l-3.2,6.1
			h-0.8L461.7,15.5z M461.2,19.8c0-1.2,0.6-1.9,1.5-1.9s1.5,0.7,1.5,1.9c0,1.2-0.6,1.9-1.5,1.9S461.2,20.9,461.2,19.8z M463.2,19.8
			c0-0.8-0.2-1.1-0.5-1.1s-0.5,0.3-0.5,1.1s0.2,1.1,0.5,1.1S463.2,20.6,463.2,19.8z"/>
		<path class="st2" d="M466.5,19.3c0-1.5,1.1-2.3,2.3-2.3c0.5,0,1,0.2,1.3,0.5l-0.6,0.9c-0.2-0.2-0.4-0.3-0.6-0.3
			c-0.6,0-1,0.5-1,1.3s0.4,1.3,1,1.3c0.3,0,0.6-0.1,0.8-0.3l0.5,0.9c-0.4,0.4-1,0.5-1.5,0.5C467.5,21.6,466.5,20.8,466.5,19.3z"/>
		<path class="st2" d="M471,15.2h1.3v1.5l-0.1,0.8c0.3-0.3,0.8-0.6,1.4-0.6c1,0,1.4,0.7,1.4,1.8v2.8h-1.3v-2.6
			c0-0.6-0.2-0.8-0.5-0.8s-0.5,0.2-0.8,0.4v3h-1.3v-6.3H471z"/>
		<path class="st2" d="M475.9,20.3c0-0.9,0.7-1.4,2.5-1.6c0-0.4-0.2-0.6-0.7-0.6c-0.4,0-0.7,0.2-1.2,0.4l-0.5-0.9
			c0.6-0.3,1.2-0.6,1.9-0.6c1.1,0,1.8,0.6,1.8,2v2.6h-1.1l-0.1-0.5l0,0c-0.4,0.3-0.8,0.6-1.3,0.6C476.4,21.6,475.9,21,475.9,20.3z
			 M478.4,20.2v-0.8c-0.9,0.1-1.2,0.4-1.2,0.7c0,0.3,0.2,0.4,0.5,0.4C478,20.6,478.2,20.5,478.4,20.2z"/>
		<path class="st2" d="M480.8,17.1h1.1l0.1,0.6l0,0c0.4-0.4,0.8-0.7,1.4-0.7c1,0,1.4,0.7,1.4,1.8v2.8h-1.3V19c0-0.6-0.2-0.8-0.6-0.8
			c-0.3,0-0.5,0.2-0.8,0.4v3h-1.3L480.8,17.1L480.8,17.1z"/>
		<path class="st2" d="M485.7,22.3c0-0.4,0.2-0.7,0.6-0.9l0,0c-0.2-0.2-0.4-0.4-0.4-0.8c0-0.3,0.2-0.6,0.5-0.8l0,0
			c-0.3-0.2-0.6-0.6-0.6-1.2c0-1.1,0.9-1.6,1.8-1.6c0.3,0,0.5,0,0.7,0.1h1.6v1h-0.7c0.1,0.1,0.1,0.4,0.1,0.6c0,1-0.8,1.5-1.8,1.5
			c-0.2,0-0.3,0-0.5-0.1c-0.1,0.1-0.2,0.2-0.2,0.3c0,0.2,0.2,0.3,0.7,0.3h0.7c1.1,0,1.7,0.3,1.7,1.1c0,0.9-1,1.6-2.5,1.6
			C486.5,23.4,485.7,23.1,485.7,22.3z M488.8,22c0-0.3-0.2-0.4-0.7-0.4h-0.5c-0.3,0-0.5,0-0.6-0.1c-0.2,0.1-0.2,0.3-0.2,0.4
			c0,0.3,0.4,0.5,1,0.5S488.8,22.4,488.8,22z M488.3,18.6c0-0.5-0.3-0.7-0.6-0.7c-0.3,0-0.6,0.2-0.6,0.7s0.3,0.7,0.6,0.7
			C488,19.3,488.3,19.1,488.3,18.6z"/>
		<path class="st2" d="M490.5,19.3c0-1.4,1-2.3,2.1-2.3c1.3,0,1.9,0.9,1.9,2.1c0,0.2,0,0.5-0.1,0.6h-2.7c0.1,0.6,0.6,0.9,1.2,0.9
			c0.3,0,0.6-0.1,1-0.3l0.4,0.8c-0.5,0.3-1.1,0.5-1.6,0.5C491.5,21.6,490.5,20.8,490.5,19.3z M493.4,18.8c0-0.5-0.2-0.8-0.7-0.8
			c-0.4,0-0.8,0.3-0.9,0.8H493.4z"/>
	</g>
	<g>
		<path d="M4.1,28h0.4l2.1,5.9H6.2l-0.7-2H3.2l-0.7,2H2.1L4.1,28z M3.2,31.6h2.1l-0.4-1.1c-0.2-0.7-0.5-1.3-0.7-2.1l0,0
			c-0.2,0.7-0.4,1.4-0.7,2.1L3.2,31.6z"/>
		<path d="M6.8,29.6h0.4l1,2.7c0.1,0.4,0.3,0.8,0.4,1.2l0,0c0.1-0.4,0.3-0.8,0.4-1.2l1-2.7h0.4l-1.5,4.3H8.4L6.8,29.6z"/>
		<path d="M11,31.8c0-1.4,0.9-2.3,1.9-2.3s1.7,0.7,1.7,2c0,0.1,0,0.2,0,0.3h-3.1c0,1.1,0.7,1.9,1.6,1.9c0.5,0,0.8-0.2,1.2-0.4
			l0.2,0.3c-0.3,0.2-0.7,0.4-1.4,0.4C11.9,34.1,11,33.2,11,31.8z M14.2,31.5c0-1.1-0.5-1.7-1.3-1.7c-0.7,0-1.4,0.6-1.5,1.7H14.2z"/>
		<path d="M15.7,29.6H16v0.8l0,0c0.3-0.5,0.7-0.9,1.2-0.9c0.2,0,0.3,0,0.4,0.1l0.1,0.4c-0.1-0.1-0.2-0.1-0.4-0.1
			c-0.4,0-0.8,0.3-1.2,1.1v2.9h-0.4V29.6z"/>
		<path d="M18.3,32.9c0-1,0.9-1.4,2.8-1.6c0-0.7-0.2-1.4-1-1.4c-0.6,0-1.1,0.3-1.4,0.5l-0.2-0.3c0.3-0.2,0.9-0.6,1.6-0.6
			c1,0,1.4,0.7,1.4,1.7V34h-0.3v-0.6l0,0c-0.4,0.4-1,0.7-1.5,0.7C18.9,34.1,18.3,33.7,18.3,32.9z M21.1,33v-1.5
			c-1.8,0.2-2.4,0.6-2.4,1.3c0,0.6,0.4,0.9,0.9,0.9S20.5,33.5,21.1,33z"/>
		<path d="M22.7,34.8c0-0.4,0.2-0.8,0.6-1l0,0c-0.2-0.1-0.4-0.4-0.4-0.7c0-0.4,0.3-0.7,0.5-0.8l0,0c-0.3-0.2-0.5-0.7-0.5-1.2
			c0-0.9,0.7-1.5,1.5-1.5c0.2,0,0.4,0.1,0.6,0.1h1.5V30h-1c0.3,0.2,0.5,0.6,0.5,1.1c0,0.9-0.7,1.5-1.5,1.5c-0.2,0-0.5-0.1-0.7-0.2
			c-0.2,0.2-0.4,0.3-0.4,0.6s0.2,0.6,0.8,0.6h0.9c1,0,1.4,0.3,1.4,1s-0.8,1.5-2,1.5C23.3,36,22.7,35.6,22.7,34.8z M26.1,34.6
			c0-0.5-0.4-0.7-1-0.7h-0.9c-0.1,0-0.3,0-0.5-0.1c-0.4,0.3-0.6,0.6-0.6,0.9c0,0.5,0.5,0.9,1.4,0.9C25.4,35.7,26.1,35.2,26.1,34.6z
			 M25.5,31c0-0.7-0.5-1.2-1.1-1.2s-1.1,0.5-1.1,1.2s0.5,1.2,1.1,1.2C25,32.3,25.5,31.8,25.5,31z"/>
		<path d="M27,31.8c0-1.4,0.9-2.3,1.9-2.3s1.7,0.7,1.7,2c0,0.1,0,0.2,0,0.3h-3.1c0,1.1,0.7,1.9,1.6,1.9c0.5,0,0.8-0.2,1.2-0.4
			l0.2,0.3c-0.3,0.2-0.7,0.4-1.4,0.4C27.9,34.1,27,33.2,27,31.8z M30.2,31.5c0-1.1-0.5-1.7-1.3-1.7c-0.7,0-1.4,0.6-1.5,1.7H30.2z"/>
		<path d="M33,33.7l2.6-3.8h-2.3v-0.3h2.8v0.2l-2.5,3.8h2.6V34H33C33,34,33,33.7,33,33.7z"/>
		<path d="M37,28.2c0-0.2,0.1-0.4,0.3-0.4s0.3,0.1,0.3,0.4c0,0.2-0.1,0.4-0.3,0.4C37.2,28.6,37,28.4,37,28.2z M37.2,29.6h0.4v4.3
			h-0.4V29.6z"/>
		<path d="M39.2,29.6h0.3v0.7l0,0c0.4-0.4,0.9-0.8,1.5-0.8c0.9,0,1.3,0.5,1.3,1.7V34h-0.4v-2.7c0-0.9-0.3-1.4-1-1.4
			c-0.5,0-0.9,0.3-1.4,0.8V34h-0.4v-4.4H39.2z"/>
		<path d="M43.7,31.8c0-1.4,0.9-2.3,2-2.3c0.6,0,1,0.3,1.3,0.5l-0.2,0.3c-0.3-0.3-0.6-0.5-1-0.5c-0.9,0-1.6,0.8-1.6,1.9
			c0,1.1,0.6,1.9,1.6,1.9c0.5,0,0.9-0.2,1.2-0.5l0.2,0.3c-0.4,0.3-0.8,0.6-1.4,0.6C44.5,34.1,43.7,33.2,43.7,31.8z"/>
		<path d="M49.9,28h0.4v5.6H53V34h-3.1V28z"/>
		<path d="M54.1,28h0.6l1.2,3.5c0.2,0.4,0.3,0.9,0.5,1.3l0,0c0.2-0.4,0.3-0.9,0.5-1.3l1.2-3.5h0.6v5.9h-0.4V30c0-0.5,0-1.1,0.1-1.6
			l0,0l-0.5,1.4l-1.3,3.5h-0.4l-1.3-3.5l-0.5-1.3l0,0c0,0.5,0.1,1.1,0.1,1.6V34h-0.4C54.1,34,54.1,28,54.1,28z"/>
		<path d="M60.5,28h3.3v0.4h-2.9v2.2h2.4V31h-2.4v2.6h2.9V34h-3.3V28z"/>
		<path d="M66.5,31.8c0-1.4,0.9-2.3,2-2.3c0.6,0,1,0.3,1.3,0.5l-0.2,0.3c-0.3-0.3-0.6-0.5-1-0.5c-0.9,0-1.6,0.8-1.6,1.9
			c0,1.1,0.6,1.9,1.6,1.9c0.5,0,0.9-0.2,1.2-0.5l0.2,0.3c-0.4,0.3-0.8,0.6-1.4,0.6C67.3,34.1,66.5,33.2,66.5,31.8z"/>
		<path d="M70.6,32.9c0-1,0.9-1.4,2.8-1.6c0-0.7-0.2-1.4-1-1.4c-0.6,0-1.1,0.3-1.4,0.5l-0.2-0.3c0.3-0.2,0.9-0.6,1.6-0.6
			c1,0,1.4,0.7,1.4,1.7V34h-0.3v-0.6l0,0c-0.4,0.4-1,0.7-1.5,0.7C71.2,34.1,70.6,33.7,70.6,32.9z M73.4,33v-1.5
			c-1.8,0.2-2.4,0.6-2.4,1.3c0,0.6,0.4,0.9,0.9,0.9S72.8,33.5,73.4,33z"/>
		<path d="M74.8,33.5l0.2-0.3c0.4,0.3,0.8,0.5,1.4,0.5c0.7,0,1-0.4,1-0.9s-0.6-0.8-1.1-1c-0.7-0.2-1.3-0.5-1.3-1.2
			c0-0.6,0.5-1.2,1.4-1.2c0.5,0,0.9,0.2,1.2,0.5l-0.2,0.3c-0.3-0.2-0.6-0.4-1-0.4c-0.7,0-1,0.4-1,0.8c0,0.5,0.5,0.7,1,0.9
			c0.7,0.3,1.4,0.5,1.4,1.3c0,0.6-0.5,1.2-1.5,1.2C75.7,34.1,75.2,33.8,74.8,33.5z"/>
		<path d="M79,27.5h0.4v2.8c0.4-0.5,0.9-0.8,1.5-0.8c0.9,0,1.3,0.5,1.3,1.7V34h-0.4v-2.7c0-0.9-0.3-1.4-1-1.4
			c-0.5,0-0.9,0.3-1.4,0.8V34H79V27.5z"/>
		<path d="M85,33.5l0.2-0.3c0.4,0.3,0.8,0.5,1.4,0.5c0.7,0,1-0.4,1-0.9s-0.6-0.8-1.1-1c-0.7-0.2-1.3-0.5-1.3-1.2
			c0-0.6,0.5-1.2,1.4-1.2c0.5,0,0.9,0.2,1.2,0.5l-0.2,0.3c-0.3-0.2-0.6-0.4-1-0.4c-0.7,0-1,0.4-1,0.8c0,0.5,0.5,0.7,1,0.9
			c0.7,0.3,1.4,0.5,1.4,1.3c0,0.6-0.5,1.2-1.5,1.2C85.9,34.1,85.4,33.8,85,33.5z"/>
		<path d="M88.8,31.8c0-1.4,0.9-2.3,1.9-2.3s1.7,0.7,1.7,2c0,0.1,0,0.2,0,0.3h-3.1c0,1.1,0.7,1.9,1.6,1.9c0.5,0,0.8-0.2,1.2-0.4
			l0.2,0.3C92,33.8,91.6,34,90.9,34C89.7,34.1,88.8,33.2,88.8,31.8z M92,31.5c0-1.1-0.5-1.7-1.3-1.7c-0.7,0-1.4,0.6-1.5,1.7H92z"/>
		<path d="M93.6,32.8V30h-0.7v-0.3h0.7l0.1-1.3H94v1.3h1.3V30H94v2.8c0,0.5,0.1,0.9,0.7,0.9c0.2,0,0.4-0.1,0.5-0.1l0.1,0.3
			c-0.3,0.1-0.5,0.2-0.7,0.2C93.8,34.1,93.6,33.5,93.6,32.8z"/>
		<path d="M96.4,32.8V30h-0.7v-0.3h0.7l0.1-1.3h0.3v1.3h1.3V30h-1.3v2.8c0,0.5,0.1,0.9,0.7,0.9c0.2,0,0.4-0.1,0.5-0.1l0.1,0.3
			c-0.3,0.1-0.5,0.2-0.7,0.2C96.7,34.1,96.4,33.5,96.4,32.8z"/>
		<path d="M99.1,33.4v-5.9h0.4v6c0,0.2,0.1,0.3,0.2,0.3c0,0,0.1,0,0.2,0l0,0.2c-0.1,0-0.2,0-0.3,0C99.3,34.1,99.1,33.8,99.1,33.4z"
			/>
		<path d="M100.9,31.8c0-1.4,0.9-2.3,1.9-2.3s1.7,0.7,1.7,2c0,0.1,0,0.2,0,0.3h-3.1c0,1.1,0.7,1.9,1.6,1.9c0.5,0,0.8-0.2,1.2-0.4
			l0.2,0.3c-0.3,0.2-0.7,0.4-1.4,0.4C101.8,34.1,100.9,33.2,100.9,31.8z M104.1,31.5c0-1.1-0.5-1.7-1.3-1.7c-0.7,0-1.4,0.6-1.5,1.7
			H104.1z"/>
		<path d="M105.6,29.6h0.3v0.7l0,0c0.4-0.4,0.9-0.8,1.4-0.8c0.7,0,1,0.4,1.2,0.9c0.5-0.5,1-0.9,1.5-0.9c0.9,0,1.3,0.5,1.3,1.7V34
			h-0.4v-2.7c0-0.9-0.3-1.4-1-1.4c-0.4,0-0.8,0.3-1.3,0.8V34h-0.4v-2.7c0-0.9-0.3-1.4-1-1.4c-0.4,0-0.8,0.3-1.3,0.8V34h-0.4v-4.4
			H105.6z"/>
		<path d="M112.5,31.8c0-1.4,0.9-2.3,1.9-2.3s1.7,0.7,1.7,2c0,0.1,0,0.2,0,0.3H113c0,1.1,0.7,1.9,1.6,1.9c0.5,0,0.8-0.2,1.2-0.4
			l0.2,0.3c-0.3,0.2-0.7,0.4-1.4,0.4C113.4,34.1,112.5,33.2,112.5,31.8z M115.7,31.5c0-1.1-0.5-1.7-1.3-1.7c-0.7,0-1.4,0.6-1.5,1.7
			H115.7z"/>
		<path d="M117.3,29.6h0.3v0.7l0,0c0.4-0.4,0.9-0.8,1.5-0.8c0.9,0,1.3,0.5,1.3,1.7V34H120v-2.7c0-0.9-0.3-1.4-1-1.4
			c-0.5,0-0.9,0.3-1.4,0.8V34h-0.4L117.3,29.6L117.3,29.6z"/>
		<path d="M122.1,32.8V30h-0.7v-0.3h0.7l0.1-1.3h0.3v1.3h1.3V30h-1.3v2.8c0,0.5,0.1,0.9,0.7,0.9c0.2,0,0.4-0.1,0.5-0.1l0.1,0.3
			c-0.3,0.1-0.5,0.2-0.7,0.2C122.4,34.1,122.1,33.5,122.1,32.8z"/>
		<path d="M126.7,29.6h0.3v0.5l0,0c0.4-0.3,0.9-0.6,1.5-0.6c1.2,0,1.7,0.9,1.7,2.2c0,1.5-0.9,2.3-1.9,2.3c-0.4,0-0.8-0.2-1.3-0.5
			v2.4h-0.4L126.7,29.6L126.7,29.6z M129.8,31.7c0-1.1-0.4-1.9-1.4-1.9c-0.4,0-0.9,0.3-1.4,0.7v2.6c0.5,0.4,0.9,0.6,1.3,0.6
			C129.2,33.7,129.8,32.9,129.8,31.7z"/>
		<path d="M131.5,29.6h0.3v0.8l0,0c0.3-0.5,0.7-0.9,1.2-0.9c0.2,0,0.3,0,0.4,0.1l-0.1,0.4c-0.1-0.1-0.2-0.1-0.4-0.1
			c-0.4,0-0.8,0.3-1.2,1.1v2.9h-0.4v-4.3H131.5z"/>
		<path d="M134.3,28.2c0-0.2,0.1-0.4,0.3-0.4s0.3,0.1,0.3,0.4c0,0.2-0.1,0.4-0.3,0.4C134.4,28.6,134.3,28.4,134.3,28.2z M134.4,29.6
			h0.4v4.3h-0.4V29.6z"/>
		<path d="M136.1,31.8c0-1.4,0.9-2.3,2-2.3c0.6,0,1,0.3,1.3,0.5l-0.2,0.3c-0.3-0.3-0.6-0.5-1-0.5c-0.9,0-1.6,0.8-1.6,1.9
			c0,1.1,0.6,1.9,1.6,1.9c0.5,0,0.9-0.2,1.2-0.5l0.2,0.3c-0.4,0.3-0.8,0.6-1.4,0.6C136.9,34.1,136.1,33.2,136.1,31.8z"/>
		<path d="M140.1,31.8c0-1.4,0.9-2.3,1.9-2.3s1.7,0.7,1.7,2c0,0.1,0,0.2,0,0.3h-3.1c0,1.1,0.7,1.9,1.6,1.9c0.5,0,0.8-0.2,1.2-0.4
			l0.2,0.3c-0.3,0.2-0.7,0.4-1.4,0.4C141,34.1,140.1,33.2,140.1,31.8z M143.3,31.5c0-1.1-0.5-1.7-1.3-1.7c-0.7,0-1.4,0.6-1.5,1.7
			H143.3z"/>
		<path d="M144.3,33.5l0.2-0.3c0.4,0.3,0.8,0.5,1.4,0.5c0.7,0,1-0.4,1-0.9s-0.6-0.8-1.1-1c-0.7-0.2-1.3-0.5-1.3-1.2
			c0-0.6,0.5-1.2,1.4-1.2c0.5,0,0.9,0.2,1.2,0.5l-0.2,0.3c-0.3-0.2-0.6-0.4-1-0.4c-0.7,0-1,0.4-1,0.8c0,0.5,0.5,0.7,1,0.9
			c0.7,0.3,1.4,0.5,1.4,1.3c0,0.6-0.5,1.2-1.5,1.2C145.3,34.1,144.7,33.8,144.3,33.5z"/>
		<path d="M150.3,31.7V28h0.4v3.6c0,1.6,0.7,2.1,1.6,2.1c0.9,0,1.6-0.5,1.6-2.1V28h0.4v3.7c0,1.9-1,2.4-2,2.4
			C151.3,34.1,150.3,33.5,150.3,31.7z"/>
		<path d="M155.6,33.2l0.3-0.3c0.4,0.5,1.1,0.8,1.7,0.8c0.9,0,1.5-0.5,1.5-1.2s-0.5-1-1.1-1.2l-0.9-0.4c-0.5-0.2-1.2-0.6-1.2-1.5
			s0.7-1.5,1.7-1.5c0.7,0,1.3,0.3,1.6,0.7l-0.2,0.3c-0.4-0.4-0.8-0.6-1.4-0.6c-0.8,0-1.3,0.4-1.3,1.1c0,0.7,0.6,0.9,1,1.1l0.9,0.4
			c0.7,0.3,1.3,0.7,1.3,1.6s-0.7,1.6-1.9,1.6C156.7,34.1,156.1,33.7,155.6,33.2z"/>
		<path d="M161.9,34c-0.6,0-1.2-0.4-1.5-0.7l0.2-0.3c0.3,0.3,0.8,0.6,1.4,0.6c0.8,0,1.2-0.5,1.2-1.1c0-1.8-2.6-1.3-2.6-3.1
			c0-0.8,0.5-1.3,1.3-1.4v-0.9h0.4V28c0.6,0,0.9,0.3,1.2,0.6l-0.2,0.3c-0.3-0.3-0.6-0.5-1.2-0.5c-0.6,0-1,0.4-1,1
			c0,1.6,2.6,1,2.6,3.1c0,0.9-0.6,1.4-1.4,1.5v0.9h-0.4V34z"/>
		<path d="M167,27.6h0.3l-2.7,7.8h-0.3L167,27.6z"/>
		<path d="M168.3,32.8V30h-0.7v-0.3h0.7l0.1-1.3h0.3v1.3h1.3V30h-1.3v2.8c0,0.5,0.1,0.9,0.7,0.9c0.2,0,0.4-0.1,0.5-0.1l0.1,0.3
			c-0.3,0.1-0.5,0.2-0.7,0.2C168.6,34.1,168.3,33.5,168.3,32.8z"/>
	</g>
	<g>
		<path d="M334.3,33.7c1.9-1.9,2.8-3,2.8-4c0-0.7-0.4-1.3-1.3-1.3c-0.5,0-1,0.3-1.3,0.8l-0.3-0.3c0.4-0.5,0.9-0.8,1.6-0.8
			c1,0,1.6,0.6,1.6,1.6c0,1.1-1,2.2-2.6,3.9c0.3,0,0.6,0,1,0h2V34h-3.5L334.3,33.7L334.3,33.7z"/>
		<path d="M338.7,35.1c0.4-0.2,0.7-0.6,0.7-1.1h-0.1c-0.2,0-0.4-0.1-0.4-0.4s0.2-0.4,0.4-0.4c0.3,0,0.5,0.2,0.5,0.6
			c0,0.7-0.4,1.2-0.9,1.5L338.7,35.1z"/>
		<path d="M343.6,28.5h-3v-0.4h3.5v0.2c-1.4,1.8-1.7,3.3-1.8,5.5h-0.4C342,31.6,342.5,30.2,343.6,28.5z"/>
		<path d="M347.3,32.2h-2.6V32l2.7-3.8h0.4v3.7h0.9v0.3h-0.9v1.7h-0.4v-1.7H347.3z M347.3,31.9v-2.1c0-0.3,0-0.7,0-1l0,0
			c-0.1,0.2-0.3,0.5-0.5,0.7l-1.7,2.4C345.1,31.9,347.3,31.9,347.3,31.9z"/>
		<path d="M349.1,33.2l0.2-0.3c0.3,0.4,0.8,0.7,1.6,0.7c0.8,0,1.3-0.5,1.3-1.3s-0.6-1.3-2-1.3v-0.4c1.3,0,1.8-0.6,1.8-1.3
			c0-0.6-0.5-1.1-1.2-1.1c-0.5,0-1,0.3-1.3,0.6l-0.2-0.3c0.4-0.4,0.9-0.7,1.6-0.7c0.9,0,1.6,0.5,1.6,1.4c0,0.8-0.5,1.2-1.1,1.4l0,0
			c0.7,0.2,1.3,0.7,1.3,1.5c0,1-0.8,1.6-1.8,1.6C350,34.1,349.5,33.6,349.1,33.2z"/>
	</g>
	<g>
		<path d="M405,33.2l0.2-0.3c0.3,0.4,0.8,0.7,1.6,0.7c0.8,0,1.3-0.5,1.3-1.3s-0.6-1.3-2-1.3v-0.4c1.3,0,1.8-0.6,1.8-1.3
			c0-0.6-0.5-1.1-1.2-1.1c-0.5,0-1,0.3-1.3,0.6l-0.2-0.3c0.4-0.4,0.9-0.7,1.6-0.7c0.9,0,1.6,0.5,1.6,1.4c0,0.8-0.5,1.2-1.1,1.4l0,0
			c0.7,0.2,1.3,0.7,1.3,1.5c0,1-0.8,1.6-1.8,1.6C406,34.1,405.4,33.6,405,33.2z"/>
		<path d="M409.5,35.1c0.4-0.2,0.7-0.6,0.7-1.1h-0.1c-0.2,0-0.4-0.1-0.4-0.4s0.2-0.4,0.4-0.4c0.3,0,0.5,0.2,0.5,0.6
			c0,0.7-0.4,1.2-0.9,1.5L409.5,35.1z"/>
		<path d="M411.5,31c0-1.9,0.6-3,1.7-3s1.7,1.1,1.7,3s-0.6,3-1.7,3C412.1,34.1,411.5,33,411.5,31z M414.5,31c0-1.8-0.5-2.6-1.3-2.6
			s-1.3,0.9-1.3,2.6c0,1.8,0.5,2.7,1.3,2.7S414.5,32.8,414.5,31z"/>
		<path d="M415.6,33.3l0.2-0.3c0.3,0.4,0.8,0.7,1.6,0.7c0.8,0,1.4-0.6,1.4-1.5s-0.5-1.5-1.4-1.5c-0.4,0-0.7,0.2-1.1,0.4l-0.3-0.2
			l0.2-2.7h2.7v0.4h-2.3l-0.2,2.1c0.3-0.2,0.6-0.3,1-0.3c1,0,1.8,0.6,1.8,1.8s-0.9,1.9-1.8,1.9C416.5,34.1,416,33.7,415.6,33.3z"/>
		<path d="M423.1,28.5h-3v-0.4h3.5v0.2c-1.4,1.8-1.7,3.3-1.8,5.5h-0.4C421.5,31.6,422,30.2,423.1,28.5z"/>
	</g>
	<g>
		<path d="M476.7,31.5h2v0.4h-2V31.5z"/>
		<path d="M479.8,33.6h1.4v-4.8h-1v-0.3c0.5-0.1,0.8-0.2,1.1-0.4h0.3v5.4h1.3v0.4h-3L479.8,33.6L479.8,33.6z"/>
		<path d="M483.7,31c0-1.9,0.6-3,1.7-3s1.7,1.1,1.7,3s-0.6,3-1.7,3S483.7,33,483.7,31z M486.8,31c0-1.8-0.5-2.6-1.3-2.6
			s-1.3,0.9-1.3,2.6c0,1.8,0.5,2.7,1.3,2.7S486.8,32.8,486.8,31z"/>
		<path d="M488,29.8c0-1.2,0.5-1.9,1.3-1.9s1.3,0.7,1.3,1.9s-0.5,1.9-1.3,1.9S488,31,488,29.8z M490.2,29.8c0-1-0.4-1.6-0.9-1.6
			c-0.6,0-0.9,0.6-0.9,1.6s0.4,1.6,0.9,1.6C489.8,31.3,490.2,30.8,490.2,29.8z M492.7,27.9h0.3l-3.3,6.1h-0.4L492.7,27.9z M492,32.2
			c0-1.2,0.5-1.9,1.3-1.9s1.3,0.7,1.3,1.9s-0.5,1.9-1.3,1.9C492.5,34.1,492,33.4,492,32.2z M494.2,32.2c0-1-0.4-1.6-0.9-1.6
			c-0.6,0-0.9,0.6-0.9,1.6s0.4,1.6,0.9,1.6S494.2,33.2,494.2,32.2z"/>
	</g>
	<g>
		<path d="M4.1,40.4h0.4l2.1,5.9H6.2l-0.7-2H3.2l-0.7,2H2.1L4.1,40.4z M3.2,44h2.1l-0.4-1.1c-0.2-0.7-0.5-1.3-0.7-2.1l0,0
			c-0.2,0.7-0.4,1.4-0.7,2.1L3.2,44z"/>
		<path d="M6.8,42h0.4l1,2.7c0.1,0.4,0.3,0.8,0.4,1.2l0,0c0.1-0.4,0.3-0.8,0.4-1.2l1-2.7h0.4l-1.5,4.4H8.4L6.8,42z"/>
		<path d="M11,44.2c0-1.4,0.9-2.3,1.9-2.3s1.7,0.7,1.7,2c0,0.1,0,0.2,0,0.3h-3.1c0,1.1,0.7,1.9,1.6,1.9c0.5,0,0.8-0.2,1.2-0.4
			l0.2,0.3c-0.3,0.2-0.7,0.4-1.4,0.4C11.9,46.5,11,45.6,11,44.2z M14.2,43.9c0-1.1-0.5-1.7-1.3-1.7c-0.7,0-1.4,0.6-1.5,1.7H14.2z"/>
		<path d="M15.7,42H16v0.8l0,0c0.3-0.5,0.7-0.9,1.2-0.9c0.2,0,0.3,0,0.4,0.1l-0.1,0.4c-0.1-0.1-0.2-0.1-0.4-0.1
			c-0.4,0-0.8,0.3-1.2,1.1v2.9h-0.4V42H15.7z"/>
		<path d="M18.3,45.3c0-1,0.9-1.4,2.8-1.6c0-0.7-0.2-1.4-1-1.4c-0.6,0-1.1,0.3-1.4,0.5l-0.2-0.3c0.3-0.2,0.9-0.6,1.6-0.6
			c1,0,1.4,0.7,1.4,1.7v2.8h-0.3v-0.6l0,0c-0.4,0.4-1,0.7-1.5,0.7C18.9,46.5,18.3,46.1,18.3,45.3z M21.1,45.4V44
			c-1.8,0.2-2.4,0.6-2.4,1.3c0,0.6,0.4,0.9,0.9,0.9C20.1,46.1,20.5,45.9,21.1,45.4z"/>
		<path d="M22.7,47.2c0-0.4,0.2-0.8,0.6-1l0,0c-0.2-0.2-0.4-0.4-0.4-0.7c0-0.4,0.3-0.7,0.5-0.8l0,0c-0.3-0.2-0.5-0.7-0.5-1.2
			c0-0.9,0.7-1.5,1.5-1.5c0.2,0,0.4,0.1,0.6,0.1h1.5v0.3h-1c0.3,0.2,0.5,0.6,0.5,1.1c0,0.9-0.7,1.5-1.5,1.5c-0.2,0-0.5-0.1-0.7-0.2
			c-0.2,0.2-0.4,0.3-0.4,0.6s0.2,0.6,0.8,0.6h0.9c1,0,1.4,0.3,1.4,1s-0.8,1.5-2,1.5C23.3,48.4,22.7,48,22.7,47.2z M26.1,47
			c0-0.5-0.4-0.7-1-0.7h-0.9c-0.1,0-0.3,0-0.5-0.1c-0.4,0.3-0.6,0.6-0.6,0.9c0,0.5,0.5,0.9,1.4,0.9C25.4,48.1,26.1,47.6,26.1,47z
			 M25.5,43.5c0-0.7-0.5-1.2-1.1-1.2s-1.1,0.5-1.1,1.2s0.5,1.2,1.1,1.2S25.5,44.2,25.5,43.5z"/>
		<path d="M27,44.2c0-1.4,0.9-2.3,1.9-2.3s1.7,0.7,1.7,2c0,0.1,0,0.2,0,0.3h-3.1c0,1.1,0.7,1.9,1.6,1.9c0.5,0,0.8-0.2,1.2-0.4
			l0.2,0.3c-0.3,0.2-0.7,0.4-1.4,0.4C27.9,46.5,27,45.6,27,44.2z M30.2,43.9c0-1.1-0.5-1.7-1.3-1.7c-0.7,0-1.4,0.6-1.5,1.7H30.2z"/>
		<path d="M33.5,45.8v-5.9h0.4v6c0,0.2,0.1,0.3,0.2,0.3c0,0,0.1,0,0.2,0l0.1,0.3c-0.1,0-0.2,0-0.3,0C33.7,46.5,33.5,46.3,33.5,45.8z
			"/>
		<path d="M35.3,44.2c0-1.4,0.9-2.3,1.9-2.3s1.7,0.7,1.7,2c0,0.1,0,0.2,0,0.3h-3.1c0,1.1,0.7,1.9,1.6,1.9c0.5,0,0.8-0.2,1.2-0.4
			l0.2,0.3c-0.3,0.2-0.7,0.4-1.4,0.4C36.2,46.5,35.3,45.6,35.3,44.2z M38.5,43.9c0-1.1-0.5-1.7-1.3-1.7c-0.7,0-1.4,0.6-1.5,1.7H38.5
			z"/>
		<path d="M39.7,45.3c0-1,0.9-1.4,2.8-1.6c0-0.7-0.2-1.4-1-1.4c-0.6,0-1.1,0.3-1.4,0.5l-0.2-0.3c0.3-0.2,0.9-0.6,1.6-0.6
			c1,0,1.4,0.7,1.4,1.7v2.8h-0.3v-0.6l0,0c-0.4,0.4-1,0.7-1.5,0.7C40.3,46.5,39.7,46.1,39.7,45.3z M42.5,45.4V44
			c-1.8,0.2-2.4,0.6-2.4,1.3c0,0.6,0.4,0.9,0.9,0.9C41.5,46.1,42,45.9,42.5,45.4z"/>
		<path d="M44.1,44.2c0-1.4,0.9-2.3,1.9-2.3c0.5,0,0.9,0.2,1.3,0.5v-0.8v-1.8h0.4v6.5h-0.3v-0.6l0,0c-0.4,0.4-0.8,0.7-1.4,0.7
			C44.8,46.5,44.1,45.7,44.1,44.2z M47.3,45.4v-2.6c-0.5-0.4-0.8-0.6-1.3-0.6c-0.9,0-1.5,0.8-1.5,1.9c0,1.1,0.5,1.9,1.4,1.9
			C46.4,46.1,46.8,45.9,47.3,45.4z"/>
		<path d="M51.2,40.4h0.4V46h2.7v0.4h-3.2L51.2,40.4L51.2,40.4z"/>
		<path d="M55.4,40.4H56l1.2,3.5c0.2,0.4,0.3,0.9,0.5,1.3l0,0c0.2-0.4,0.3-0.9,0.4-1.3l1.2-3.5h0.6v5.9h-0.4v-3.9
			c0-0.5,0-1.1,0.1-1.6l0,0l-0.5,1.3l-1.2,3.6h-0.4l-1.3-3.5l-0.5-1.3l0,0c0,0.5,0.1,1.1,0.1,1.6v3.9h-0.4
			C55.4,46.4,55.4,40.4,55.4,40.4z"/>
		<path d="M61.7,40.4H65v0.4h-2.8V43h2.4v0.4h-2.4V46h2.9v0.4h-3.3L61.7,40.4L61.7,40.4z"/>
		<path d="M67.8,44.2c0-1.5,0.9-2.3,2-2.3c0.6,0,1,0.3,1.3,0.5l-0.2,0.3c-0.3-0.3-0.6-0.5-1-0.5c-0.9,0-1.6,0.8-1.6,1.9
			c0,1.1,0.6,1.9,1.6,1.9c0.5,0,0.9-0.2,1.2-0.5l0.2,0.3c-0.4,0.3-0.8,0.6-1.4,0.6C68.6,46.5,67.8,45.6,67.8,44.2z"/>
		<path d="M71.9,45.3c0-1,0.9-1.4,2.8-1.6c0-0.7-0.2-1.4-1-1.4c-0.6,0-1.1,0.3-1.4,0.5l-0.2-0.3c0.3-0.2,0.9-0.6,1.6-0.6
			c1,0,1.4,0.7,1.4,1.7v2.8h-0.3v-0.6l0,0c-0.4,0.4-1,0.7-1.5,0.7C72.4,46.5,71.9,46.1,71.9,45.3z M74.7,45.4V44
			c-1.8,0.2-2.4,0.6-2.4,1.3c0,0.6,0.4,0.9,0.9,0.9C73.7,46.1,74.1,45.9,74.7,45.4z"/>
		<path d="M76,45.9l0.2-0.3c0.4,0.3,0.8,0.5,1.4,0.5c0.7,0,1-0.4,1-0.9s-0.6-0.8-1.1-1c-0.7-0.2-1.3-0.5-1.3-1.2
			c0-0.6,0.5-1.2,1.4-1.2c0.5,0,0.9,0.2,1.2,0.5l-0.2,0.3c-0.3-0.2-0.6-0.4-1-0.4c-0.7,0-1,0.4-1,0.8c0,0.5,0.5,0.7,1,0.9
			c0.7,0.3,1.4,0.5,1.4,1.3c0,0.6-0.5,1.2-1.5,1.2C77,46.5,76.4,46.2,76,45.9z"/>
		<path d="M80.2,39.9h0.4v2.8c0.5-0.5,0.9-0.8,1.5-0.8c0.9,0,1.3,0.5,1.3,1.7v2.8H83v-2.7c0-0.9-0.3-1.4-1-1.4
			c-0.5,0-0.9,0.3-1.4,0.8v3.3h-0.4V39.9z"/>
		<path d="M86.2,45.9l0.2-0.3c0.4,0.3,0.8,0.5,1.4,0.5c0.7,0,1-0.4,1-0.9s-0.6-0.8-1.1-1C87,44,86.4,43.7,86.4,43
			c0-0.6,0.5-1.2,1.4-1.2c0.5,0,0.9,0.2,1.2,0.5l-0.2,0.3c-0.3-0.2-0.6-0.4-1-0.4c-0.7,0-1,0.4-1,0.8c0,0.5,0.5,0.7,1,0.9
			c0.7,0.3,1.4,0.5,1.4,1.3c0,0.6-0.5,1.2-1.5,1.2C87.2,46.5,86.6,46.2,86.2,45.9z"/>
		<path d="M90.1,44.2c0-1.4,0.9-2.3,1.9-2.3s1.7,0.7,1.7,2c0,0.1,0,0.2,0,0.3h-3.1c0,1.1,0.7,1.9,1.6,1.9c0.5,0,0.8-0.2,1.2-0.4
			l0.2,0.3c-0.3,0.2-0.7,0.4-1.4,0.4C91,46.5,90.1,45.6,90.1,44.2z M93.2,43.9c0-1.1-0.5-1.7-1.3-1.7c-0.7,0-1.4,0.6-1.5,1.7H93.2z"
			/>
		<path d="M94.9,45.2v-2.8h-0.7v-0.3h0.7l0.1-1.3h0.3V42h1.3v0.3h-1.3v2.8c0,0.5,0.1,0.9,0.7,0.9c0.2,0,0.4-0.1,0.5-0.1l0.1,0.3
			c-0.3,0.1-0.5,0.2-0.7,0.2C95.1,46.5,94.9,45.9,94.9,45.2z"/>
		<path d="M97.7,45.2v-2.8H97v-0.3h0.7l0.1-1.3h0.3V42h1.3v0.3h-1.3v2.8c0,0.5,0.1,0.9,0.7,0.9c0.2,0,0.4-0.1,0.5-0.1l0.1,0.3
			c-0.3,0.1-0.5,0.2-0.7,0.2C97.9,46.5,97.7,45.9,97.7,45.2z"/>
		<path d="M100.4,45.8v-5.9h0.4v6c0,0.2,0.1,0.3,0.2,0.3c0,0,0.1,0,0.2,0l0.1,0.3c-0.1,0-0.2,0-0.3,0
			C100.6,46.5,100.4,46.3,100.4,45.8z"/>
		<path d="M102.2,44.2c0-1.4,0.9-2.3,1.9-2.3s1.7,0.7,1.7,2c0,0.1,0,0.2,0,0.3h-3.1c0,1.1,0.7,1.9,1.6,1.9c0.5,0,0.8-0.2,1.2-0.4
			l0.2,0.3c-0.3,0.2-0.7,0.4-1.4,0.4C103.1,46.5,102.2,45.6,102.2,44.2z M105.3,43.9c0-1.1-0.5-1.7-1.3-1.7c-0.7,0-1.4,0.6-1.5,1.7
			H105.3z"/>
		<path d="M106.9,42h0.3v0.7l0,0c0.4-0.4,0.9-0.8,1.4-0.8c0.7,0,1,0.4,1.2,0.9c0.5-0.5,1-0.9,1.5-0.9c0.9,0,1.3,0.5,1.3,1.7v2.8
			h-0.4v-2.7c0-0.9-0.3-1.4-1-1.4c-0.4,0-0.8,0.3-1.3,0.8v3.3h-0.4v-2.7c0-0.9-0.3-1.4-1-1.4c-0.4,0-0.8,0.3-1.3,0.8v3.3h-0.3V42z"
			/>
		<path d="M113.8,44.2c0-1.4,0.9-2.3,1.9-2.3s1.7,0.7,1.7,2c0,0.1,0,0.2,0,0.3h-3.1c0,1.1,0.7,1.9,1.6,1.9c0.5,0,0.8-0.2,1.2-0.4
			l0.2,0.3c-0.3,0.2-0.7,0.4-1.4,0.4C114.7,46.5,113.8,45.6,113.8,44.2z M117,43.9c0-1.1-0.5-1.7-1.3-1.7c-0.7,0-1.4,0.6-1.5,1.7
			H117z"/>
		<path d="M118.5,42h0.3v0.7l0,0c0.4-0.4,0.9-0.8,1.5-0.8c0.9,0,1.3,0.5,1.3,1.7v2.8h-0.4v-2.7c0-0.9-0.3-1.4-1-1.4
			c-0.5,0-0.9,0.3-1.4,0.8v3.3h-0.4L118.5,42L118.5,42z"/>
		<path d="M123.4,45.2v-2.8h-0.7v-0.3h0.7l0.1-1.3h0.3V42h1.3v0.3h-1.3v2.8c0,0.5,0.1,0.9,0.7,0.9c0.2,0,0.4-0.1,0.5-0.1l0.1,0.3
			c-0.3,0.1-0.5,0.2-0.7,0.2C123.7,46.5,123.4,45.9,123.4,45.2z"/>
		<path d="M127.9,42h0.3v0.5l0,0c0.4-0.3,0.9-0.6,1.5-0.6c1.2,0,1.7,0.9,1.7,2.2c0,1.5-0.9,2.3-1.9,2.3c-0.4,0-0.8-0.2-1.3-0.5v2.4
			h-0.3V42z M131.1,44.1c0-1.1-0.4-1.9-1.4-1.9c-0.4,0-0.9,0.3-1.4,0.7v2.6c0.5,0.4,0.9,0.6,1.3,0.6
			C130.5,46.1,131.1,45.3,131.1,44.1z"/>
		<path d="M132.8,42h0.3v0.8l0,0c0.3-0.5,0.7-0.9,1.2-0.9c0.2,0,0.3,0,0.4,0.1l-0.1,0.4c-0.1-0.1-0.2-0.1-0.4-0.1
			c-0.4,0-0.8,0.3-1.2,1.1v2.9h-0.4V42H132.8z"/>
		<path d="M135.5,40.6c0-0.2,0.1-0.4,0.3-0.4s0.3,0.1,0.3,0.4c0,0.2-0.1,0.4-0.3,0.4C135.7,41,135.5,40.9,135.5,40.6z M135.7,42h0.4
			v4.3h-0.4V42z"/>
		<path d="M137.4,44.2c0-1.5,0.9-2.3,2-2.3c0.6,0,1,0.3,1.3,0.5l-0.2,0.3c-0.3-0.3-0.6-0.5-1-0.5c-0.9,0-1.6,0.8-1.6,1.9
			c0,1.1,0.6,1.9,1.6,1.9c0.5,0,0.9-0.2,1.2-0.5l0.2,0.3c-0.4,0.3-0.8,0.6-1.4,0.6C138.2,46.5,137.4,45.6,137.4,44.2z"/>
		<path d="M141.4,44.2c0-1.4,0.9-2.3,1.9-2.3s1.7,0.7,1.7,2c0,0.1,0,0.2,0,0.3h-3.1c0,1.1,0.7,1.9,1.6,1.9c0.5,0,0.8-0.2,1.2-0.4
			l0.2,0.3c-0.3,0.2-0.7,0.4-1.4,0.4C142.3,46.5,141.4,45.6,141.4,44.2z M144.6,43.9c0-1.1-0.5-1.7-1.3-1.7c-0.7,0-1.4,0.6-1.5,1.7
			H144.6z"/>
		<path d="M145.6,45.9l0.2-0.3c0.4,0.3,0.8,0.5,1.4,0.5c0.7,0,1-0.4,1-0.9s-0.6-0.8-1.1-1c-0.7-0.2-1.3-0.5-1.3-1.2
			c0-0.6,0.5-1.2,1.4-1.2c0.5,0,0.9,0.2,1.2,0.5l-0.2,0.3c-0.3-0.2-0.6-0.4-1-0.4c-0.7,0-1,0.4-1,0.8c0,0.5,0.5,0.7,1,0.9
			c0.7,0.3,1.4,0.5,1.4,1.3c0,0.6-0.5,1.2-1.5,1.2C146.5,46.5,146,46.2,145.6,45.9z"/>
		<path d="M151.6,44.1v-3.7h0.4V44c0,1.6,0.7,2.1,1.6,2.1c0.9,0,1.6-0.5,1.6-2.1v-3.6h0.4v3.7c0,1.9-1,2.4-2,2.4
			C152.6,46.5,151.6,45.9,151.6,44.1z"/>
		<path d="M156.9,45.6l0.3-0.3c0.4,0.5,1.1,0.8,1.7,0.8c0.9,0,1.5-0.5,1.5-1.2s-0.5-1-1.1-1.2l-0.9-0.4c-0.5-0.2-1.2-0.6-1.2-1.5
			s0.7-1.5,1.7-1.5c0.7,0,1.3,0.3,1.6,0.7l-0.2,0.3c-0.3-0.4-0.8-0.6-1.4-0.6c-0.8,0-1.3,0.4-1.3,1.1c0,0.7,0.6,0.9,1,1.1l0.9,0.4
			c0.7,0.3,1.3,0.7,1.3,1.6s-0.7,1.6-1.9,1.6C158,46.5,157.3,46.1,156.9,45.6z"/>
		<path d="M163.2,46.5c-0.6,0-1.2-0.4-1.5-0.7l0.2-0.3c0.3,0.3,0.8,0.6,1.4,0.6c0.8,0,1.2-0.5,1.2-1.1c0-1.8-2.6-1.3-2.6-3.1
			c0-0.8,0.5-1.3,1.3-1.4v-0.9h0.4v0.9c0.6,0,0.9,0.3,1.2,0.6l-0.2,0.3c-0.3-0.3-0.6-0.5-1.2-0.5c-0.6,0-1,0.4-1,1
			c0,1.6,2.6,1,2.6,3.1c0,0.9-0.6,1.4-1.4,1.5v0.9h-0.4V46.5z"/>
		<path d="M168.3,40h0.3l-2.7,7.8h-0.3L168.3,40z"/>
		<path d="M169.6,45.2v-2.8h-0.7v-0.3h0.7l0.1-1.3h0.3V42h1.3v0.3H170v2.8c0,0.5,0.1,0.9,0.7,0.9c0.2,0,0.4-0.1,0.5-0.1l0.1,0.3
			c-0.3,0.1-0.5,0.2-0.7,0.2C169.8,46.5,169.6,45.9,169.6,45.2z"/>
	</g>
	<g>
		<path d="M334.3,46.1c1.9-1.9,2.8-3,2.8-4c0-0.7-0.4-1.3-1.3-1.3c-0.5,0-1,0.3-1.3,0.8l-0.3-0.3c0.4-0.5,0.9-0.8,1.6-0.8
			c1,0,1.6,0.6,1.6,1.6c0,1.1-1,2.2-2.6,3.9c0.3,0,0.6,0,1,0h2v0.4h-3.5L334.3,46.1L334.3,46.1z"/>
		<path d="M338.7,47.5c0.4-0.2,0.7-0.6,0.7-1.1h-0.1c-0.2,0-0.4-0.1-0.4-0.4s0.2-0.4,0.4-0.4c0.3,0,0.5,0.2,0.5,0.6
			c0,0.7-0.4,1.2-0.9,1.5L338.7,47.5z"/>
		<path d="M341,46h1.4v-4.8h-1V41c0.5-0.1,0.8-0.2,1.1-0.4h0.3V46h1.3v0.4h-3L341,46L341,46z"/>
		<path d="M344.9,46.1c1.9-1.9,2.8-3,2.8-4c0-0.7-0.4-1.3-1.3-1.3c-0.5,0-1,0.3-1.3,0.8l-0.3-0.3c0.4-0.5,0.9-0.8,1.6-0.8
			c1,0,1.6,0.6,1.6,1.6c0,1.1-1,2.2-2.6,3.9c0.3,0,0.6,0,1,0h2v0.4h-3.5V46.1z"/>
		<path d="M349.6,46h1.4v-4.8h-1V41c0.5-0.1,0.8-0.2,1.1-0.4h0.3V46h1.3v0.4h-3L349.6,46L349.6,46z"/>
	</g>
	<g>
		<path d="M405.2,46.1c1.9-1.9,2.8-3,2.8-4c0-0.7-0.4-1.3-1.3-1.3c-0.5,0-1,0.3-1.3,0.8l-0.3-0.3c0.4-0.5,0.9-0.8,1.6-0.8
			c1,0,1.6,0.6,1.6,1.6c0,1.1-1,2.2-2.6,3.9c0.3,0,0.6,0,1,0h2v0.4h-3.5L405.2,46.1L405.2,46.1z"/>
		<path d="M409.5,47.5c0.4-0.2,0.7-0.6,0.7-1.1h-0.1c-0.2,0-0.4-0.1-0.4-0.4s0.2-0.4,0.4-0.4c0.3,0,0.5,0.2,0.5,0.6
			c0,0.7-0.4,1.2-0.9,1.5L409.5,47.5z"/>
		<path d="M411.3,45.7l0.2-0.3c0.3,0.4,0.8,0.7,1.6,0.7c0.8,0,1.3-0.5,1.3-1.3s-0.6-1.3-2-1.3v-0.4c1.3,0,1.8-0.6,1.8-1.3
			c0-0.6-0.5-1.1-1.2-1.1c-0.5,0-1,0.3-1.3,0.6l-0.2-0.3c0.4-0.4,0.9-0.7,1.6-0.7c0.9,0,1.6,0.5,1.6,1.4c0,0.8-0.5,1.2-1.1,1.4l0,0
			c0.7,0.2,1.3,0.7,1.3,1.5c0,1-0.8,1.6-1.8,1.6C412.2,46.5,411.7,46.1,411.3,45.7z"/>
		<path d="M418.8,41h-3v-0.4h3.5v0.2c-1.4,1.8-1.7,3.3-1.8,5.5h-0.4C417.2,44,417.6,42.6,418.8,41z"/>
		<path d="M420.2,45.9l0.2-0.3c0.3,0.3,0.6,0.5,1,0.5c0.9,0,1.7-0.7,1.7-2.8c-0.4,0.5-0.9,0.8-1.5,0.8c-1,0-1.6-0.6-1.6-1.8
			c0-1,0.7-1.8,1.6-1.8c1.1,0,1.9,1,1.9,2.7c0,2.4-1,3.3-2.1,3.3C420.9,46.5,420.5,46.2,420.2,45.9z M421.7,43.7
			c0.4,0,1-0.3,1.4-0.9c-0.1-1.2-0.5-2-1.5-2c-0.7,0-1.2,0.6-1.2,1.4C420.5,43.1,420.8,43.7,421.7,43.7z"/>
	</g>
	<g>
		<path d="M476.7,43.9h2v0.4h-2V43.9z"/>
		<path d="M479.8,46h1.4v-4.8h-1V41c0.5-0.1,0.8-0.2,1.1-0.4h0.3V46h1.3v0.4h-3L479.8,46L479.8,46z"/>
		<path d="M484.1,46h1.4v-4.8h-1V41c0.5-0.1,0.8-0.2,1.1-0.4h0.3V46h1.3v0.4h-3L484.1,46L484.1,46z"/>
		<path d="M488,42.2c0-1.2,0.5-1.9,1.3-1.9s1.3,0.7,1.3,1.9s-0.5,1.9-1.3,1.9S488,43.4,488,42.2z M490.2,42.2c0-1-0.4-1.6-0.9-1.6
			c-0.6,0-0.9,0.6-0.9,1.6s0.4,1.6,0.9,1.6S490.2,43.2,490.2,42.2z M492.7,40.3h0.3l-3.3,6.1h-0.4L492.7,40.3z M492,44.6
			c0-1.2,0.5-1.9,1.3-1.9s1.3,0.7,1.3,1.9s-0.5,1.9-1.3,1.9S492,45.8,492,44.6z M494.2,44.6c0-1-0.4-1.6-0.9-1.6
			c-0.6,0-0.9,0.6-0.9,1.6s0.4,1.6,0.9,1.6C493.8,46.2,494.2,45.6,494.2,44.6z"/>
	</g>
	<g>
		<path d="M4.1,52.9h0.4l2.1,5.9H6.2l-0.7-2H3.2l-0.7,2H2.1L4.1,52.9z M3.2,56.4h2.1l-0.4-1.1c-0.2-0.7-0.5-1.3-0.7-2.1l0,0
			c-0.2,0.7-0.4,1.4-0.7,2.1L3.2,56.4z"/>
		<path d="M6.8,54.5h0.4l1,2.7c0.1,0.4,0.3,0.8,0.4,1.2l0,0C8.7,58,8.9,57.6,9,57.2l1-2.7h0.4l-1.5,4.3H8.4L6.8,54.5z"/>
		<path d="M11,56.6c0-1.4,0.9-2.3,1.9-2.3s1.7,0.7,1.7,2c0,0.1,0,0.2,0,0.3h-3.1c0,1.1,0.7,1.9,1.6,1.9c0.5,0,0.8-0.2,1.2-0.4
			l0.2,0.3c-0.3,0.2-0.7,0.4-1.4,0.4C11.9,58.9,11,58,11,56.6z M14.2,56.4c0-1.1-0.5-1.7-1.3-1.7c-0.7,0-1.4,0.6-1.5,1.7H14.2z"/>
		<path d="M15.7,54.5H16v0.8l0,0c0.3-0.5,0.7-0.9,1.2-0.9c0.2,0,0.3,0,0.4,0.1l-0.1,0.4c-0.1-0.1-0.2-0.1-0.4-0.1
			c-0.4,0-0.8,0.3-1.2,1.1v2.9h-0.4v-4.3H15.7z"/>
		<path d="M18.3,57.7c0-1,0.9-1.4,2.8-1.6c0-0.7-0.2-1.4-1-1.4c-0.6,0-1.1,0.3-1.4,0.5l-0.2-0.3c0.3-0.2,0.9-0.6,1.6-0.6
			c1,0,1.4,0.7,1.4,1.7v2.8h-0.3v-0.6l0,0c-0.4,0.4-1,0.7-1.5,0.7C18.9,58.9,18.3,58.5,18.3,57.7z M21.1,57.8v-1.5
			c-1.8,0.2-2.4,0.6-2.4,1.3c0,0.6,0.4,0.9,0.9,0.9C20.1,58.6,20.5,58.3,21.1,57.8z"/>
		<path d="M22.7,59.7c0-0.4,0.2-0.8,0.6-1l0,0c-0.2-0.1-0.4-0.4-0.4-0.7c0-0.4,0.3-0.7,0.5-0.8l0,0c-0.3-0.2-0.5-0.7-0.5-1.2
			c0-0.9,0.7-1.5,1.5-1.5c0.2,0,0.4,0.1,0.6,0.1h1.5v0.3h-1c0.3,0.2,0.5,0.6,0.5,1.1c0,0.9-0.7,1.5-1.5,1.5c-0.2,0-0.5-0.1-0.7-0.2
			c-0.2,0.2-0.4,0.3-0.4,0.6c0,0.3,0.2,0.6,0.8,0.6h0.9c1,0,1.4,0.3,1.4,1s-0.8,1.5-2,1.5C23.3,60.9,22.7,60.4,22.7,59.7z
			 M26.1,59.5c0-0.5-0.4-0.7-1-0.7h-0.9c-0.1,0-0.3,0-0.5-0.1c-0.4,0.3-0.6,0.6-0.6,0.9c0,0.5,0.5,0.9,1.4,0.9
			C25.4,60.5,26.1,60,26.1,59.5z M25.5,55.9c0-0.7-0.5-1.2-1.1-1.2s-1.1,0.5-1.1,1.2s0.5,1.2,1.1,1.2S25.5,56.6,25.5,55.9z"/>
		<path d="M27,56.6c0-1.4,0.9-2.3,1.9-2.3s1.7,0.7,1.7,2c0,0.1,0,0.2,0,0.3h-3.1c0,1.1,0.7,1.9,1.6,1.9c0.5,0,0.8-0.2,1.2-0.4
			l0.2,0.3c-0.3,0.2-0.7,0.4-1.4,0.4C27.9,58.9,27,58,27,56.6z M30.2,56.4c0-1.1-0.5-1.7-1.3-1.7c-0.7,0-1.4,0.6-1.5,1.7H30.2z"/>
		<path d="M33,58.3l0.2-0.3c0.4,0.3,0.8,0.5,1.4,0.5c0.7,0,1-0.4,1-0.9s-0.6-0.8-1.1-1c-0.7-0.2-1.3-0.5-1.3-1.2
			c0-0.6,0.5-1.2,1.4-1.2c0.5,0,0.9,0.2,1.2,0.5L35.6,55c-0.3-0.2-0.6-0.4-1-0.4c-0.7,0-1,0.4-1,0.8c0,0.5,0.5,0.7,1,0.9
			c0.7,0.3,1.4,0.5,1.4,1.3c0,0.6-0.5,1.2-1.5,1.2C33.9,58.9,33.4,58.6,33,58.3z"/>
		<path d="M37.1,53.1c0-0.2,0.1-0.4,0.3-0.4s0.3,0.1,0.3,0.4c0,0.2-0.1,0.4-0.3,0.4C37.2,53.4,37.1,53.3,37.1,53.1z M37.2,54.5h0.4
			v4.3h-0.4V54.5z"/>
		<path d="M39.2,58.2v-5.9h0.4v6c0,0.2,0.1,0.3,0.2,0.3c0,0,0.1,0,0.2,0l0.1,0.3c-0.1,0-0.2,0-0.3,0C39.4,58.9,39.2,58.7,39.2,58.2z
			"/>
		<path d="M40.7,54.5h0.4l1,2.7c0.1,0.4,0.3,0.8,0.4,1.2l0,0c0.1-0.4,0.3-0.8,0.4-1.2l1-2.7h0.4l-1.6,4.3h-0.5L40.7,54.5z"/>
		<path d="M44.9,56.6c0-1.4,0.9-2.3,1.9-2.3s1.7,0.7,1.7,2c0,0.1,0,0.2,0,0.3h-3.1c0,1.1,0.7,1.9,1.6,1.9c0.5,0,0.8-0.2,1.2-0.4
			l0.2,0.3c-0.3,0.2-0.7,0.4-1.4,0.4C45.8,58.9,44.9,58,44.9,56.6z M48.1,56.4c0-1.1-0.5-1.7-1.3-1.7c-0.7,0-1.4,0.6-1.5,1.7H48.1z"
			/>
		<path d="M49.6,54.5h0.3v0.8l0,0c0.3-0.5,0.7-0.9,1.2-0.9c0.2,0,0.3,0,0.4,0.1l-0.1,0.4c-0.1-0.1-0.2-0.1-0.4-0.1
			c-0.4,0-0.8,0.3-1.2,1.1v2.9h-0.4v-4.3H49.6z"/>
		<path d="M54.3,54.5h0.3V55l0,0c0.4-0.3,0.9-0.6,1.5-0.6c1.2,0,1.7,0.9,1.7,2.2c0,1.5-0.9,2.3-1.9,2.3c-0.4,0-0.8-0.2-1.3-0.5v2.4
			h-0.4v-6.3H54.3z M57.5,56.6c0-1.1-0.4-1.9-1.4-1.9c-0.4,0-0.9,0.3-1.4,0.7V58c0.5,0.4,0.9,0.6,1.3,0.6
			C56.8,58.5,57.5,57.7,57.5,56.6z"/>
		<path d="M59.2,54.5h0.3v0.8l0,0c0.3-0.5,0.7-0.9,1.2-0.9c0.2,0,0.3,0,0.4,0.1L61,54.9c-0.1-0.1-0.2-0.1-0.4-0.1
			c-0.4,0-0.8,0.3-1.2,1.1v2.9H59v-4.3H59.2z"/>
		<path d="M61.9,53.1c0-0.2,0.1-0.4,0.3-0.4c0.2,0,0.3,0.1,0.3,0.4c0,0.2-0.1,0.4-0.3,0.4C62,53.4,61.9,53.3,61.9,53.1z M62,54.5
			h0.4v4.3H62V54.5z"/>
		<path d="M63.7,56.6c0-1.4,0.9-2.3,2-2.3c0.6,0,1,0.3,1.3,0.5l-0.2,0.3c-0.3-0.3-0.6-0.5-1-0.5c-0.9,0-1.6,0.8-1.6,1.9
			c0,1.1,0.6,1.9,1.6,1.9c0.5,0,0.9-0.2,1.2-0.5l0.2,0.3c-0.4,0.3-0.8,0.6-1.4,0.6C64.6,58.9,63.7,58.1,63.7,56.6z"/>
		<path d="M67.8,56.6c0-1.4,0.9-2.3,1.9-2.3s1.7,0.7,1.7,2c0,0.1,0,0.2,0,0.3h-3.1c0,1.1,0.7,1.9,1.6,1.9c0.5,0,0.8-0.2,1.2-0.4
			l0.2,0.3c-0.3,0.2-0.7,0.4-1.4,0.4C68.7,58.9,67.8,58,67.8,56.6z M70.9,56.4c0-1.1-0.5-1.7-1.3-1.7c-0.7,0-1.4,0.6-1.5,1.7H70.9z"
			/>
		<path d="M71.9,58.3l0.2-0.3c0.4,0.3,0.8,0.5,1.4,0.5c0.7,0,1-0.4,1-0.9s-0.6-0.8-1.1-1c-0.7-0.2-1.3-0.5-1.3-1.2
			c0-0.6,0.5-1.2,1.4-1.2c0.5,0,0.9,0.2,1.2,0.5L74.5,55c-0.3-0.2-0.6-0.4-1-0.4c-0.7,0-1,0.4-1,0.8c0,0.5,0.5,0.7,1,0.9
			c0.7,0.3,1.4,0.5,1.4,1.3c0,0.6-0.5,1.2-1.5,1.2C72.9,58.9,72.3,58.6,71.9,58.3z"/>
		<path d="M78,56.5v-3.7h0.4v3.6c0,1.6,0.7,2.1,1.6,2.1s1.6-0.5,1.6-2.1v-3.6H82v3.7c0,1.9-1,2.4-2,2.4C78.9,58.9,78,58.4,78,56.5z"
			/>
		<path d="M83.2,58l0.3-0.3c0.4,0.5,1.1,0.8,1.7,0.8c0.9,0,1.5-0.5,1.5-1.2c0-0.7-0.5-1-1.1-1.2l-0.9-0.4c-0.5-0.2-1.2-0.6-1.2-1.5
			s0.7-1.5,1.7-1.5c0.7,0,1.3,0.3,1.6,0.7l-0.2,0.3c-0.4-0.4-0.8-0.6-1.4-0.6c-0.8,0-1.3,0.4-1.3,1.1c0,0.7,0.6,0.9,1,1.1l0.9,0.4
			c0.7,0.3,1.3,0.7,1.3,1.6s-0.7,1.6-1.9,1.6C84.4,58.9,83.7,58.5,83.2,58z"/>
		<path d="M89.5,58.9c-0.6,0-1.2-0.4-1.5-0.7l0.2-0.3c0.3,0.3,0.8,0.6,1.4,0.6c0.8,0,1.2-0.5,1.2-1.1c0-1.8-2.6-1.3-2.6-3.1
			c0-0.8,0.5-1.3,1.3-1.4V52h0.4v0.9c0.6,0,0.9,0.3,1.2,0.6l-0.2,0.3c-0.3-0.3-0.6-0.5-1.2-0.5s-1,0.4-1,1c0,1.6,2.6,1,2.6,3.1
			c0,0.9-0.6,1.4-1.4,1.5v0.9h-0.4V58.9z"/>
		<path d="M94.6,52.4h0.3l-2.7,7.8h-0.3L94.6,52.4z"/>
		<path d="M95.5,56.6c0-1.4,0.9-2.3,1.9-2.3s1.9,0.8,1.9,2.3c0,1.4-0.9,2.3-1.9,2.3S95.5,58.1,95.5,56.6z M99,56.6
			c0-1.1-0.7-1.9-1.5-1.9c-0.9,0-1.5,0.8-1.5,1.9c0,1.1,0.6,1.9,1.5,1.9C98.3,58.5,99,57.8,99,56.6z"/>
		<path d="M100.6,57.2v-2.8h0.4v2.7c0,0.9,0.3,1.4,1,1.4c0.5,0,0.9-0.3,1.4-0.9v-3.2h0.4v4.3h-0.3V58l0,0c-0.4,0.5-0.9,0.8-1.5,0.8
			C101,58.9,100.6,58.4,100.6,57.2z"/>
		<path d="M105.4,54.5h0.3v0.7l0,0c0.4-0.4,0.9-0.8,1.5-0.8c0.9,0,1.3,0.5,1.3,1.7v2.8h-0.4v-2.7c0-0.9-0.3-1.4-1-1.4
			c-0.5,0-0.9,0.3-1.4,0.8v3.3h-0.4L105.4,54.5L105.4,54.5z"/>
		<path d="M109.8,56.6c0-1.4,0.9-2.3,2-2.3c0.6,0,1,0.3,1.3,0.5l-0.2,0.3c-0.3-0.3-0.6-0.5-1-0.5c-0.9,0-1.6,0.8-1.6,1.9
			c0,1.1,0.6,1.9,1.6,1.9c0.5,0,0.9-0.2,1.2-0.5l0.2,0.3c-0.4,0.3-0.8,0.6-1.4,0.6C110.7,58.9,109.8,58.1,109.8,56.6z"/>
		<path d="M113.9,56.6c0-1.4,0.9-2.3,1.9-2.3s1.7,0.7,1.7,2c0,0.1,0,0.2,0,0.3h-3.1c0,1.1,0.7,1.9,1.6,1.9c0.5,0,0.8-0.2,1.2-0.4
			l0.2,0.3c-0.3,0.2-0.7,0.4-1.4,0.4C114.8,58.9,113.9,58,113.9,56.6z M117.1,56.4c0-1.1-0.5-1.7-1.3-1.7c-0.7,0-1.4,0.6-1.5,1.7
			H117.1z"/>
	</g>
	<g>
		<path d="M339,58.4h1.4v-4.8h-1v-0.3c0.5-0.1,0.8-0.2,1.1-0.4h0.3v5.4h1.3v0.4h-3L339,58.4L339,58.4z"/>
		<path d="M342.8,58.1l0.2-0.3c0.3,0.4,0.8,0.7,1.6,0.7c0.8,0,1.4-0.6,1.4-1.5s-0.5-1.5-1.4-1.5c-0.4,0-0.7,0.2-1.1,0.4l-0.3-0.2
			l0.2-2.7h2.7v0.4h-2.3l-0.2,2.1c0.3-0.2,0.6-0.3,1-0.3c1,0,1.8,0.6,1.8,1.8c0,1.2-0.9,1.9-1.8,1.9
			C343.7,58.9,343.1,58.5,342.8,58.1z"/>
		<path d="M347.5,58.5c0-0.3,0.2-0.4,0.4-0.4c0.2,0,0.4,0.2,0.4,0.4c0,0.3-0.2,0.4-0.4,0.4C347.6,58.9,347.5,58.7,347.5,58.5z"/>
		<path d="M351.6,57.1H349v-0.2l2.7-3.8h0.4v3.7h0.9v0.3h-0.9v1.7h-0.4v-1.7H351.6z M351.6,56.7v-2.1c0-0.3,0-0.7,0-1l0,0
			c-0.1,0.2-0.3,0.5-0.5,0.7l-1.7,2.4C349.4,56.7,351.6,56.7,351.6,56.7z"/>
	</g>
	<g>
		<path d="M409.9,58.4h1.3v-4.8h-1v-0.3c0.5-0.1,0.8-0.2,1.1-0.4h0.3v5.4h1.3v0.4h-3L409.9,58.4L409.9,58.4z"/>
		<path d="M413.9,56.2c0-2.4,1-3.3,2.1-3.3c0.5,0,0.9,0.2,1.2,0.6l-0.2,0.3c-0.3-0.3-0.6-0.5-1-0.5c-0.9,0-1.7,0.7-1.7,2.8
			c0.4-0.5,0.9-0.8,1.4-0.8c1,0,1.6,0.6,1.6,1.8c0,1-0.7,1.8-1.6,1.8C414.6,58.9,413.9,57.9,413.9,56.2z M414.3,56.5
			c0.1,1.2,0.5,2,1.5,2c0.7,0,1.2-0.6,1.2-1.5s-0.4-1.4-1.2-1.4C415.3,55.7,414.8,55.9,414.3,56.5z"/>
		<path d="M418.3,58.5c0-0.3,0.2-0.4,0.4-0.4c0.2,0,0.4,0.2,0.4,0.4c0,0.3-0.2,0.4-0.4,0.4S418.3,58.7,418.3,58.5z"/>
		<path d="M420.2,58.3l0.2-0.3c0.3,0.3,0.6,0.5,1,0.5c0.9,0,1.7-0.7,1.7-2.8c-0.4,0.5-0.9,0.8-1.5,0.8c-1,0-1.6-0.6-1.6-1.8
			c0-1,0.7-1.8,1.6-1.8c1.1,0,1.9,1,1.9,2.7c0,2.4-1,3.3-2.1,3.3C420.9,58.9,420.5,58.7,420.2,58.3z M421.7,56.2
			c0.4,0,1-0.3,1.4-0.9c-0.1-1.2-0.5-2-1.5-2c-0.7,0-1.2,0.6-1.2,1.4C420.5,55.6,420.8,56.2,421.7,56.2z"/>
	</g>
	<g>
		<path d="M481,56.4h2v0.4h-2V56.4z"/>
		<path d="M483.8,58.3L484,58c0.3,0.3,0.6,0.5,1,0.5c0.9,0,1.7-0.7,1.7-2.8c-0.4,0.5-0.9,0.8-1.5,0.8c-1,0-1.6-0.6-1.6-1.8
			c0-1,0.7-1.8,1.6-1.8c1.1,0,1.9,1,1.9,2.7c0,2.4-1,3.3-2.1,3.3C484.5,58.9,484.1,58.7,483.8,58.3z M485.3,56.2
			c0.4,0,1-0.3,1.4-0.9c-0.1-1.2-0.5-2-1.5-2c-0.7,0-1.2,0.6-1.2,1.4C484.1,55.6,484.5,56.2,485.3,56.2z"/>
		<path d="M488,54.6c0-1.2,0.5-1.9,1.3-1.9s1.3,0.7,1.3,1.9s-0.5,1.9-1.3,1.9S488,55.8,488,54.6z M490.2,54.6c0-1-0.4-1.6-0.9-1.6
			c-0.6,0-0.9,0.6-0.9,1.6s0.4,1.6,0.9,1.6C489.8,56.2,490.2,55.6,490.2,54.6z M492.7,52.7h0.3l-3.3,6.1h-0.4L492.7,52.7z M492,57
			c0-1.2,0.5-1.9,1.3-1.9s1.3,0.7,1.3,1.9c0,1.2-0.5,1.9-1.3,1.9S492,58.2,492,57z M494.2,57c0-1-0.4-1.6-0.9-1.6
			c-0.6,0-0.9,0.6-0.9,1.6s0.4,1.6,0.9,1.6S494.2,58,494.2,57z"/>
	</g>
</g>
</svg>
