<?xml version="1.0" encoding="utf-8"?>
<!-- Generator: Adobe Illustrator 23.0.3, SVG Export Plug-In . SVG Version: 6.00 Build 0)  -->
<svg version="1.1" id="Layer_1" xmlns="http://www.w3.org/2000/svg" xmlns:xlink="http://www.w3.org/1999/xlink" x="0px" y="0px"
	 viewBox="0 0 466.6 253.8" style="enable-background:new 0 0 466.6 253.8;" xml:space="preserve">
<style type="text/css">
	.st0{fill:#ABD693;}
	.st1{fill:#92CD90;}
	.st2{fill:#52BA69;}
	.st3{fill:none;stroke:#000000;stroke-width:0.25;}
	.st4{fill:none;stroke:#00AE4D;stroke-width:1.417;}
</style>
<g>
	<g>
		<path d="M2.1,1.4h2.3c1.4,0,2.5,0.5,2.5,2c0,1-0.5,1.6-1.2,1.9l1.5,2.6H5.6L4.3,5.6H3.5v2.3H2.1V1.4z M4.3,4.4
			c0.8,0,1.2-0.3,1.2-1S5.1,2.5,4.3,2.5H3.5v1.9H4.3z"/>
		<path d="M8.2,1.4h4.1v1.2H9.7v1.3h2.2v1.2H9.7v1.5h2.7v1.2H8.2C8.2,7.8,8.2,1.4,8.2,1.4z"/>
		<path d="M13.7,1.4h4.1v1.2h-2.6v1.5h2.3v1.3h-2.3v2.5h-1.5V1.4z"/>
		<path d="M18.9,1.4h1.5v6.5h-1.5V1.4z"/>
		<path d="M21.9,1.4h1.5l1.7,3.2L25.7,6l0,0c-0.1-0.7-0.2-1.6-0.2-2.4V1.4h1.4v6.5h-1.5l-1.7-3.2l-0.6-1.4l0,0
			c0.1,0.7,0.2,1.6,0.2,2.4V8h-1.4V1.4z"/>
		<path d="M28.6,1.4h4.1v1.2h-2.6v1.3h2.2v1.2h-2.2v1.5h2.7v1.2h-4.2V1.4z"/>
		<path d="M34.1,1.4h1.8c2,0,3.3,1,3.3,3.2S37.9,7.9,36,7.9h-1.9C34.1,7.9,34.1,1.4,34.1,1.4z M35.8,6.7c1.1,0,1.8-0.5,1.8-2.1
			s-0.7-2-1.8-2h-0.3v4.1C35.5,6.7,35.8,6.7,35.8,6.7z"/>
		<path d="M42.4,1.4H44l1,2.9c0.1,0.4,0.3,0.8,0.4,1.2l0,0c0.1-0.4,0.2-0.8,0.4-1.2l1-2.9h1.6v6.5h-1.3V5.5c0-0.6,0.1-1.6,0.2-2.2
			l0,0l-0.5,1.5l-1,2.6H45l-0.9-2.5l-0.5-1.5l0,0C43.7,4,43.8,5,43.8,5.6V8h-1.3L42.4,1.4L42.4,1.4z"/>
		<path d="M50,1.4h4.1v1.2h-2.6v1.3h2.2v1.2h-2.2v1.5h2.7v1.2H50V1.4z"/>
		<path d="M56.8,2.7H55V1.4h5.1v1.2h-1.8v5.3h-1.5C56.8,7.9,56.8,2.7,56.8,2.7z"/>
		<path d="M61.9,1.4h1.8l2,6.5h-1.6l-0.4-1.5h-2l-0.4,1.5h-1.5L61.9,1.4z M62,5.2h1.4l-0.2-0.6c-0.2-0.7-0.4-1.4-0.5-2.1l0,0
			c-0.2,0.7-0.3,1.4-0.5,2.1L62,5.2z"/>
		<path d="M66.4,1.4h1.5v5.3h2.6v1.2h-4L66.4,1.4L66.4,1.4z"/>
		<path d="M73.2,7.1l0.8-1c0.5,0.4,1.1,0.7,1.6,0.7c0.6,0,0.9-0.2,0.9-0.6c0-0.4-0.4-0.5-0.9-0.8L74.7,5c-0.7-0.3-1.3-0.8-1.3-1.8
			c0-1.1,1-1.9,2.3-1.9c0.7,0,1.5,0.3,2.1,0.9L77,3.1c-0.3-0.3-0.7-0.5-1.3-0.5c-0.5,0-0.8,0.2-0.8,0.6s0.4,0.5,1,0.8l0.8,0.3
			C77.5,4.6,78,5.1,78,6.1c0,1.1-0.9,2-2.5,2C74.7,8.1,73.8,7.7,73.2,7.1z"/>
		<path d="M80.2,2.7h-1.8V1.4h5.1v1.2h-1.8v5.3h-1.5V2.7z"/>
		<path d="M83.9,4.7c0-2.1,1.2-3.3,3-3.3s3,1.2,3,3.3s-1.2,3.4-3,3.4S83.9,6.8,83.9,4.7z M88.3,4.7c0-1.3-0.6-2.1-1.4-2.1
			s-1.5,0.8-1.5,2.1s0.6,2.1,1.4,2.1S88.3,6,88.3,4.7z"/>
		<path d="M90.8,4.7c0-2.2,1.4-3.4,3.1-3.4c0.8,0,1.5,0.4,2,0.8L95.1,3c-0.3-0.3-0.7-0.5-1.1-0.5c-0.9,0-1.6,0.8-1.6,2.1
			S93,6.7,94,6.7c0.5,0,0.9-0.3,1.3-0.6L96.1,7c-0.5,0.6-1.3,1-2.1,1C92.1,8.1,90.8,6.9,90.8,4.7z"/>
		<path d="M96.9,1.4h1.5v2.7l0,0l1.9-2.7h1.6l-2,2.6l2.3,3.9h-1.5l-1.6-2.7l-0.8,1v1.7h-1.5L96.9,1.4L96.9,1.4z"/>
		<path d="M102.4,7.1l0.8-1c0.5,0.4,1.1,0.7,1.6,0.7c0.6,0,0.9-0.2,0.9-0.6c0-0.4-0.4-0.5-0.9-0.8L104,5c-0.7-0.3-1.3-0.8-1.3-1.8
			c0-1.1,1-1.9,2.3-1.9c0.7,0,1.5,0.3,2.1,0.9l-0.8,0.9c-0.4-0.3-0.8-0.5-1.3-0.5s-0.8,0.2-0.8,0.6c0,0.4,0.4,0.5,1,0.8l0.8,0.3
			c0.8,0.3,1.3,0.8,1.3,1.8c0,1.1-0.9,2-2.5,2C104,8.1,103.1,7.7,102.4,7.1z"/>
	</g>
	<path class="st0" d="M88,72.9l5.7,4l0.7-0.1l2,1.7l0.5,4.1l3.4,0.7l3.1,3.2l0.7,3.3l3.8,2.6l0.4-0.1l0.6-15.4l0.8-0.1v-2.3l1.5,3.1
		l5.3,0.3l0.3,0.6l2.3-0.1V79l3.3,0.1l1.6,5.3l3.1,0.1l1.8,0.5l1.5,3.2l4-0.2l0.3,0.8h1l1.6,2.8l3.1,0.5l2.4-6.7l2,0.2l0.5,0.5
		l2.5-0.1l0.6-2.6l1-0.2l1.4-2.6h2.6l2.6,1.5l2.8-2.4l2.7-1.4l4.1,0.2v-0.7l3.6,0.1l1.2,5.4h5.7l0.9,2.4h1l2.2-0.6l2.7,2.9l1.1,7.3
		h2.9l3.6,4.8l2.8-6l3.9,5.1l2.6-0.1l3.3,3.3l3.3-0.2l0.4,0.9l1.9,0.1v0.4h1.5l3.9-10.3l2.1,7.4l1.4,0.1c0,0,0.1,0.6,0.2,0.6
		c0.1,0,2.9,0,2.9,0l3,2.6l3.6,0.1l3.5,3.2l1.1-0.1l1.4,0.8h0.6l2,1l0.7-0.1l0.2-0.6h1.1l0.5,0.8l2.4,0.1l1.5,3.5l1.7,0.1l1.2,1
		l2,0.1l3,4l1,0.1l3.1,3.3l0.3,0.3l1-1.6l0.9,2l1.9,0.1l1.4,1.3l1.6,0.1l1-1.4l3.6,1.2l2.7,2.9l1.3-4.4l2.4,0.1l3.1,6.3l1.3-2.6
		l5.1,4.6l1.4,3.7l2.8,0.1v0.6h1.3l1.6,4.9l2.6,2.8l2.1,0.3v0.7h1.7l0.6,3.2h3.2l0.2,2.6h3.2l-0.1-0.7l2.1,0.1v0.8l1.3-0.2l0.2,0.7
		h1V149l1.5,0.1l1.2,2.2l2.7,0.1v0.7h2.5l1.3,4.2l2.9,2.7l2.6,0.1l0.3-0.7l1.5,0.1l0.6-0.5l2.2,0.4l8.6-6.3l0.8,1.7h6l0.2,0.7
		l2.6-0.2v0.8l3.6-0.1l1.4-2.7l3.5-0.1l0.5,0.7l1.8-0.1v0.6h3.5l0.1,0.6h1.3c0,0-0.1,0.7,0,0.7s2.8-0.2,2.8-0.2l0.3,0.8l1.7-0.2
		l0.3,0.7l1.9-0.1l1.9-1.1l0.7,0.6l3.9,0.2l0.3,0.4l0.8-0.1l0.6-4.6l6.4,0.3l6.1,4.8l0.8-12.8l6,3.5l1-6.3l5,5.2l1.6-1.8l3.3,1
		l2,0.2l0.9-1.1h5.1l0.3,0.6l0.9,0.1l0.2-2.6l6.3-0.3l1.4,3.9c0,0,2.7-0.2,2.8,0c0.1,0.2,0.6,0.5,0.6,0.5s1.3,0.6,1.5,0.7
		c0.1,0.1,0,65.8,0,65.8H88V72.9z"/>
	<path class="st1" d="M88,130.3l20,11.4c0,0,1.5-19.8,3.1-21.8l30.8,2.8l1.1-6.4h1.8l0.4,0.8l2.7-0.3l0.5-2.4l3,0.3l0.3,0.7l1.5-0.1
		l3.8,3.1l5.4-2.5l3.5-0.7h11.7l2.2-1l4.6,3.6l2.2,0.1l3.4,3.3l3.1-5.9h1.1l3.9,2.6h1.8l3.2,3.3h3.3l0.2,0.6l1.9-0.1v0.7l1.5-0.1
		l3.9-9.4c0,0,8.8,2.5,9,2.6s0.1,0.5,0.1,0.5h4.5l11.3,6.9l1.8,0.1l1.4,2.3l0.1,1.2l4.9,1.9l6.3,4.5l1.1,1.8l1.2-1.5h1.4l0.3,0.7
		l2.2-0.1c0,0,0.4,0.9,0.6,1s1.6-0.1,1.6-0.1l0.5-1.3l2.1,0.1l1.7,0.9l3.4,3.4c0,0,4.3,3.1,4.6,4.1l0.6,2.4l1,1.1l3,1.7l2.9,3.1
		l0.6,1.2l2.1,0.6v0.8h1.6l2.5,3.4l3.5,3.3l2,0.1v0.6c0,0,2.1,0,1.9,0s0,0.6,0,0.6l3.6,0.1v0.6h1.5l2.2,2.7l2.7-0.2l0.3,0.7l3-0.2
		l4.3,0.6l7.5,4.2l3.5-1.5l2.3,0.7l8.4-7.5h7.1v1h6.4l0.3,0.6l4.4-0.1v0.7l5.6-0.2l4.6,2.7l2.2-0.2l2.8,1.6l3.8-0.1l-0.3,0.7h2.5
		l0.3,0.7l5.2-0.2v0.7h2c0,0,0.3,0.1,0.4,0.4c0.1,0.2,2,0.1,2,0.1l1.5,1.4l7.2,7.8v33.1H88V130.3z"/>
	<path class="st2" d="M88,154.5l1.3,0.9h7.2l0.7,3.3l5.8,0.1l1.3,4.9c0,0,5.4-0.2,5.3,0.1s1.1,6.7,1.1,6.7l6,0.1v0.9h5.9l1.2,4.7
		h5.3l1.5,2.4h5.7l0.7,2.3h6.2l0.4,0.4h5.7l1.4-3.8h5.1l1.3-2.5h11.8l1.3,6h6l0.8,2.1h5.6l1.3,7.1h5.5l0.8,1.2h5.6l1.2,2.7h5.7
		l1.1-0.6h10.7l1.6,5.2h6.4l0.9,1.8h6l0.6,0.9h5.7l1.1-1.9h5.4c0.3,0,1-1.1,1-1.1h5.5l1,1.3h5.8l0.7,1.4h12.4l1.3-5.2h5.3l1.3-3.9
		h5.1l1.3,2h5.2l0.9,1.5h6.1l0.8,2.3h6.2l0.4-0.6h5.7l1.1,1.9h5.5l1.3,3.1h11.8l0.9,0.4h5.7l1.1,1.8h5.8l0.7,0.4h6l1.1-3h5.5
		l0.7,0.5h5.7l1.1-1.1h5.7c0,0,0.7-1.6,0.9-1.6c0.2-0.1,5.7,0,5.7,0l0.6-4.6h12.5l1.4-15.8h5.2l1.3-7.6h5.5l1.1-3h5.3l1.1-1.5h5.7
		l1.1-2.7h6l0.7,3.3h5.5v44.5H88V154.5z"/>
	<g>
		<path d="M48.4,23.5h1.5v5.3h2.6V30h-4L48.4,23.5L48.4,23.5z"/>
		<path d="M53.4,23.5H55l1,2.9c0.1,0.4,0.3,0.8,0.4,1.2l0,0c0.1-0.4,0.2-0.8,0.4-1.2l1-2.9h1.6V30h-1.3v-2.4c0-0.6,0.1-1.6,0.2-2.2
			l0,0L57.7,27l-0.9,2.5H56L55.1,27l-0.6-1.6l0,0c0.1,0.6,0.2,1.6,0.2,2.2V30h-1.3V23.5z"/>
		<path d="M60.8,23.5h4.1v1.2h-2.6V26h2.2v1.2h-2.2v1.5H65v1.2h-4.2V23.5z"/>
		<path d="M67.5,29.2l0.8-1c0.5,0.4,1.1,0.7,1.6,0.7c0.6,0,0.9-0.2,0.9-0.6c0-0.4-0.4-0.5-0.9-0.8l-0.8-0.4
			c-0.7-0.3-1.3-0.8-1.3-1.8c0-1.1,1-1.9,2.3-1.9c0.7,0,1.5,0.3,2.1,0.9l-0.8,0.9c-0.4-0.3-0.8-0.5-1.3-0.5s-0.8,0.2-0.8,0.6
			s0.4,0.5,1,0.8l0.8,0.3c0.8,0.3,1.3,0.8,1.3,1.8c0,1.1-0.9,2-2.5,2C69,30.1,68.1,29.8,67.5,29.2z"/>
		<path d="M73.3,23.5h1.4V26h2.2v-2.5h1.5V30h-1.5v-2.7h-2.2V30h-1.5L73.3,23.5L73.3,23.5z"/>
		<path d="M79.8,23.5h4.1v1.2h-2.6v1.5h2.3v1.2h-2.3v2.5h-1.5V23.5z"/>
		<path d="M84.9,23.5H89v1.2h-2.6V26h2.2v1.2h-2.2v1.5h2.7v1.2h-4.2V23.5z"/>
		<path d="M91.6,29.1l2.9-4.4h-2.6v-1.2h4.4v0.9l-2.9,4.4h2.9V30h-4.7C91.6,30,91.6,29.1,91.6,29.1z"/>
		<path d="M97.2,23.5h1.5V30h-1.5V23.5z"/>
		<path d="M100,23.5h1.5l1.7,3.2l0.6,1.4l0,0c-0.1-0.7-0.2-1.6-0.2-2.4v-2.3h1.4v6.5h-1.5l-1.7-3.2l-0.6-1.4l0,0
			c0.1,0.7,0.2,1.6,0.2,2.4V30H100V23.5z"/>
		<path d="M106.2,26.8c0-2.2,1.4-3.4,3.1-3.4c0.8,0,1.5,0.4,2,0.8l-0.8,0.9c-0.3-0.3-0.7-0.5-1.1-0.5c-0.9,0-1.6,0.8-1.6,2.1
			c0,1.3,0.6,2.1,1.6,2.1c0.5,0,0.9-0.3,1.3-0.6l0.8,0.9c-0.5,0.6-1.3,1-2.1,1C107.5,30.1,106.2,29,106.2,26.8z"/>
		<path d="M113.5,29.2l0.8-1c0.5,0.4,1.1,0.7,1.6,0.7c0.6,0,0.9-0.2,0.9-0.6c0-0.4-0.4-0.5-0.9-0.8l-0.8-0.4
			c-0.7-0.3-1.3-0.8-1.3-1.8c0-1.1,1-1.9,2.3-1.9c0.7,0,1.5,0.3,2.1,0.9l-0.8,0.9c-0.4-0.3-0.8-0.5-1.3-0.5s-0.8,0.2-0.8,0.6
			s0.4,0.5,1,0.8l0.8,0.3c0.8,0.3,1.3,0.8,1.3,1.8c0,1.1-0.9,2-2.5,2C115,30.1,114.1,29.8,113.5,29.2z"/>
		<path d="M120.3,24.7h-1.8v-1.2h5.1v1.2h-1.8V30h-1.5C120.3,30,120.3,24.7,120.3,24.7z"/>
		<path d="M123.8,26.7c0-2.1,1.2-3.3,3-3.3s3,1.2,3,3.3s-1.2,3.4-3,3.4S123.8,28.9,123.8,26.7z M128.3,26.7c0-1.3-0.6-2.1-1.4-2.1
			s-1.4,0.8-1.4,2.1c0,1.3,0.6,2.1,1.4,2.1S128.3,28,128.3,26.7z"/>
		<path d="M130.5,26.8c0-2.2,1.4-3.4,3.1-3.4c0.8,0,1.5,0.4,2,0.8l-0.8,0.9c-0.3-0.3-0.7-0.5-1.1-0.5c-0.9,0-1.6,0.8-1.6,2.1
			c0,1.3,0.6,2.1,1.6,2.1c0.5,0,0.9-0.3,1.3-0.6l0.8,0.9c-0.5,0.6-1.3,1-2.1,1C131.9,30.1,130.5,29,130.5,26.8z"/>
		<path d="M136.4,23.5h1.5v2.7l0,0l1.9-2.7h1.6l-2,2.6l2.3,3.9h-1.6l-1.6-2.7l-0.8,1V30h-1.5v-6.5H136.4z"/>
		<path d="M141.8,29.2l0.8-1c0.5,0.4,1.1,0.7,1.6,0.7c0.6,0,0.9-0.2,0.9-0.6c0-0.4-0.4-0.5-0.9-0.8l-0.8-0.4
			c-0.7-0.3-1.3-0.8-1.3-1.8c0-1.1,1-1.9,2.3-1.9c0.7,0,1.5,0.3,2.1,0.9l-0.8,0.9c-0.4-0.3-0.8-0.5-1.3-0.5s-0.8,0.2-0.8,0.6
			s0.4,0.5,1,0.8l0.8,0.3c0.8,0.3,1.3,0.8,1.3,1.8c0,1.1-0.9,2-2.5,2C143.3,30.1,142.4,29.8,141.8,29.2z"/>
		<path d="M148.8,28.3c0-0.9,0.5-1.4,1.2-1.8c-0.3-0.5-0.4-0.9-0.4-1.3c0-0.9,0.7-1.7,1.8-1.7c1,0,1.6,0.6,1.6,1.5
			c0,0.8-0.7,1.4-1.4,1.8c0.4,0.4,0.8,0.8,1.3,1.2c0.3-0.4,0.6-0.9,0.8-1.6h1.3c-0.2,0.8-0.6,1.5-1.1,2.2c0.4,0.2,0.8,0.4,1.1,0.4
			l-0.3,1.2c-0.5-0.1-1.1-0.3-1.7-0.7c-0.5,0.4-1.2,0.7-2,0.7C149.6,30.1,148.8,29.3,148.8,28.3z M151.2,29c0.3,0,0.5-0.1,0.8-0.3
			c-0.5-0.4-1-0.9-1.3-1.3c-0.3,0.2-0.4,0.5-0.4,0.8C150.2,28.7,150.6,29,151.2,29z M151,25.9c0.5-0.3,0.8-0.6,0.8-1
			c0-0.3-0.1-0.5-0.4-0.5c-0.3,0-0.6,0.3-0.6,0.7C150.8,25.3,150.9,25.6,151,25.9z"/>
		<path d="M157.6,23.5h1.5v5.3h2.6V30h-4v-6.5H157.6z"/>
		<path d="M162.6,23.5h1.6l1,2.9c0.1,0.4,0.3,0.8,0.4,1.2l0,0c0.1-0.4,0.2-0.8,0.4-1.2l1-2.9h1.6V30h-1.3v-2.4
			c0-0.6,0.1-1.6,0.2-2.2l0,0l-0.5,1.5l-0.9,2.5h-0.8l-0.9-2.5l-0.5-1.5l0,0c0.1,0.6,0.2,1.6,0.2,2.2V30h-1.3v-6.5H162.6z"/>
		<path d="M170.1,23.5h4.1v1.2h-2.6V26h2.2v1.2h-2.2v1.5h2.7v1.2h-4.2V23.5z"/>
		<path d="M177.1,23.5h2.2c1.4,0,2.6,0.5,2.6,2.1c0,1.5-1.2,2.2-2.5,2.2h-0.8V30h-1.5V23.5z M179.3,26.6c0.8,0,1.2-0.4,1.2-1
			s-0.4-0.9-1.2-0.9h-0.7v2h0.7V26.6z"/>
		<path d="M182.9,23.5h2.3c1.4,0,2.5,0.5,2.5,2c0,1-0.5,1.6-1.2,1.9L188,30h-1.6l-1.3-2.3h-0.8V30h-1.5v-6.5H182.9z M185.1,26.5
			c0.8,0,1.2-0.3,1.2-1s-0.4-0.9-1.2-0.9h-0.8v1.8h0.8V26.5z"/>
		<path d="M188.8,23.5h1.5V30h-1.5V23.5z"/>
		<path d="M191.4,26.8c0-2.2,1.4-3.4,3.1-3.4c0.8,0,1.5,0.4,2,0.8l-0.8,0.9c-0.3-0.3-0.7-0.5-1.1-0.5c-0.9,0-1.6,0.8-1.6,2.1
			c0,1.3,0.6,2.1,1.6,2.1c0.5,0,0.9-0.3,1.3-0.6l0.8,0.9c-0.5,0.6-1.3,1-2.1,1C192.7,30.1,191.4,29,191.4,26.8z"/>
		<path d="M197.3,23.5h4.1v1.2h-2.6V26h2.2v1.2h-2.2v1.5h2.7v1.2h-4.2V23.5z"/>
	</g>
	<line class="st3" x1="47.6" y1="39.6" x2="427.8" y2="39.6"/>
	<line class="st3" x1="47.5" y1="236.3" x2="427.8" y2="236.3"/>
	<g>
		<path d="M62.3,57.7h-2.4v-0.2l2.4-3.4h0.4v3.3h0.8v0.3h-0.8v1.5h-0.3L62.3,57.7L62.3,57.7z M62.3,57.4v-1.9c0-0.2,0-0.6,0-0.9l0,0
			c-0.1,0.2-0.3,0.4-0.4,0.6l-1.5,2.2H62.3z"/>
		<path d="M64.1,56.7c0-1.7,0.6-2.6,1.5-2.6s1.5,0.9,1.5,2.6c0,1.7-0.6,2.7-1.5,2.7S64.1,58.4,64.1,56.7z M66.8,56.7
			c0-1.6-0.5-2.3-1.2-2.3s-1.2,0.8-1.2,2.3c0,1.6,0.5,2.4,1.2,2.4S66.8,58.2,66.8,56.7z"/>
		<path d="M67.9,56.7c0-1.7,0.6-2.6,1.5-2.6s1.5,0.9,1.5,2.6c0,1.7-0.6,2.7-1.5,2.7S67.9,58.4,67.9,56.7z M70.6,56.7
			c0-1.6-0.5-2.3-1.2-2.3s-1.2,0.8-1.2,2.3c0,1.6,0.5,2.4,1.2,2.4S70.6,58.2,70.6,56.7z"/>
		<path d="M71.7,56.7c0-1.7,0.6-2.6,1.5-2.6s1.5,0.9,1.5,2.6c0,1.7-0.6,2.7-1.5,2.7S71.7,58.4,71.7,56.7z M74.4,56.7
			c0-1.6-0.5-2.3-1.2-2.3S72,55.2,72,56.7c0,1.6,0.5,2.4,1.2,2.4C74,59.1,74.4,58.2,74.4,56.7z"/>
		<path d="M75.6,56.7c0-1.7,0.6-2.6,1.5-2.6s1.5,0.9,1.5,2.6c0,1.7-0.6,2.7-1.5,2.7S75.6,58.4,75.6,56.7z M78.3,56.7
			c0-1.6-0.5-2.3-1.2-2.3s-1.2,0.8-1.2,2.3c0,1.6,0.5,2.4,1.2,2.4S78.3,58.2,78.3,56.7z"/>
		<path d="M79.4,56.7c0-1.7,0.6-2.6,1.5-2.6s1.5,0.9,1.5,2.6c0,1.7-0.6,2.7-1.5,2.7S79.4,58.4,79.4,56.7z M82.1,56.7
			c0-1.6-0.5-2.3-1.2-2.3s-1.2,0.8-1.2,2.3c0,1.6,0.5,2.4,1.2,2.4S82.1,58.2,82.1,56.7z"/>
	</g>
	<g>
		<path d="M433.9,58.6l0.2-0.2c0.3,0.3,0.7,0.7,1.4,0.7c0.7,0,1.2-0.4,1.2-1.1c0-0.7-0.5-1.2-1.8-1.2v-0.4c1.2,0,1.6-0.5,1.6-1.1
			s-0.4-1-1-1c-0.5,0-0.9,0.2-1.2,0.6l-0.2-0.2c0.4-0.3,0.8-0.6,1.4-0.6c0.8,0,1.4,0.4,1.4,1.2c0,0.7-0.4,1.1-1,1.3l0,0
			c0.6,0.1,1.2,0.6,1.2,1.3c0,0.9-0.7,1.4-1.6,1.4C434.7,59.4,434.2,59,433.9,58.6z"/>
		<path d="M437.8,60.3c0.4-0.2,0.6-0.5,0.6-1h-0.1c-0.2,0-0.3-0.1-0.3-0.3s0.2-0.3,0.3-0.3c0.2,0,0.4,0.2,0.4,0.6
			c0,0.6-0.3,1-0.8,1.3L437.8,60.3z"/>
		<path d="M441.7,57.7h-2.4v-0.2l2.4-3.4h0.3v3.3h0.8v0.3H442v1.5h-0.3V57.7z M441.7,57.4v-1.9c0-0.2,0-0.6,0-0.9l0,0
			c-0.1,0.2-0.3,0.4-0.4,0.6l-1.5,2.1h1.9V57.4z"/>
		<path d="M443.4,56.7c0-1.7,0.6-2.6,1.5-2.6s1.5,0.9,1.5,2.6c0,1.7-0.6,2.7-1.5,2.7S443.4,58.4,443.4,56.7z M446.1,56.7
			c0-1.6-0.5-2.3-1.2-2.3s-1.2,0.8-1.2,2.3c0,1.6,0.5,2.4,1.2,2.4C445.7,59.1,446.1,58.2,446.1,56.7z"/>
		<path d="M447.3,56.7c0-1.7,0.6-2.6,1.5-2.6s1.5,0.9,1.5,2.6c0,1.7-0.6,2.7-1.5,2.7S447.3,58.4,447.3,56.7z M449.9,56.7
			c0-1.6-0.5-2.3-1.2-2.3s-1.2,0.8-1.2,2.3c0,1.6,0.5,2.4,1.2,2.4C449.5,59.1,449.9,58.2,449.9,56.7z"/>
	</g>
	<g>
		<path d="M60.1,78.1l0.2-0.2c0.3,0.3,0.7,0.7,1.4,0.7c0.7,0,1.2-0.4,1.2-1.1s-0.5-1.2-1.8-1.2V76c1.2,0,1.6-0.5,1.6-1.1s-0.4-1-1-1
			c-0.5,0-0.9,0.2-1.2,0.6l-0.2-0.2c0.4-0.3,0.8-0.6,1.4-0.6c0.8,0,1.4,0.4,1.4,1.2c0,0.7-0.4,1.1-1,1.3l0,0
			c0.6,0.1,1.2,0.6,1.2,1.3c0,0.9-0.7,1.4-1.6,1.4C60.9,78.8,60.4,78.5,60.1,78.1z"/>
		<path d="M63.9,78.1l0.2-0.2c0.3,0.3,0.7,0.6,1.4,0.6c0.7,0,1.3-0.6,1.3-1.4s-0.5-1.3-1.2-1.3c-0.4,0-0.6,0.1-1,0.3l-0.2-0.2
			l0.2-2.4H67v0.3h-2l-0.3,2c0.3-0.2,0.5-0.3,0.9-0.3c0.9,0,1.6,0.5,1.6,1.6s-0.8,1.7-1.6,1.7C64.7,78.8,64.2,78.5,63.9,78.1z"/>
		<path d="M67.9,76.2c0-1.7,0.6-2.6,1.5-2.6s1.5,0.9,1.5,2.6s-0.6,2.7-1.5,2.7S67.9,77.9,67.9,76.2z M70.6,76.2
			c0-1.6-0.5-2.3-1.2-2.3s-1.2,0.8-1.2,2.3c0,1.6,0.5,2.4,1.2,2.4C70.1,78.5,70.6,77.7,70.6,76.2z"/>
		<path d="M71.7,76.2c0-1.7,0.6-2.6,1.5-2.6s1.5,0.9,1.5,2.6s-0.6,2.7-1.5,2.7S71.7,77.9,71.7,76.2z M74.4,76.2
			c0-1.6-0.5-2.3-1.2-2.3S72,74.7,72,76.2c0,1.6,0.5,2.4,1.2,2.4C74,78.5,74.4,77.7,74.4,76.2z"/>
		<path d="M75.6,76.2c0-1.7,0.6-2.6,1.5-2.6s1.5,0.9,1.5,2.6s-0.6,2.7-1.5,2.7S75.6,77.9,75.6,76.2z M78.3,76.2
			c0-1.6-0.5-2.3-1.2-2.3s-1.2,0.8-1.2,2.3c0,1.6,0.5,2.4,1.2,2.4C77.8,78.5,78.3,77.7,78.3,76.2z"/>
		<path d="M79.4,76.2c0-1.7,0.6-2.6,1.5-2.6s1.5,0.9,1.5,2.6s-0.6,2.7-1.5,2.7S79.4,77.9,79.4,76.2z M82.1,76.2
			c0-1.6-0.5-2.3-1.2-2.3s-1.2,0.8-1.2,2.3c0,1.6,0.5,2.4,1.2,2.4C81.6,78.5,82.1,77.7,82.1,76.2z"/>
	</g>
	<g>
		<path d="M433.9,80.9l0.2-0.2c0.3,0.3,0.7,0.7,1.4,0.7c0.7,0,1.2-0.4,1.2-1.1s-0.5-1.2-1.8-1.2v-0.3c1.2,0,1.6-0.5,1.6-1.1
			s-0.4-1-1-1c-0.5,0-0.9,0.2-1.2,0.6l-0.2-0.2c0.4-0.3,0.8-0.6,1.4-0.6c0.8,0,1.4,0.4,1.4,1.2c0,0.7-0.4,1.1-1,1.3l0,0
			c0.6,0.1,1.2,0.6,1.2,1.3c0,0.9-0.7,1.4-1.6,1.4C434.7,81.6,434.2,81.2,433.9,80.9z"/>
		<path d="M437.8,82.5c0.4-0.2,0.6-0.5,0.6-1h-0.1c-0.2,0-0.3-0.1-0.3-0.3s0.2-0.3,0.3-0.3c0.2,0,0.4,0.2,0.4,0.6
			c0,0.6-0.3,1-0.8,1.3L437.8,82.5z"/>
		<path d="M439.5,81.3c1.7-1.7,2.5-2.7,2.5-3.5c0-0.6-0.3-1.1-1.1-1.1c-0.5,0-0.9,0.3-1.2,0.7l-0.2-0.2c0.4-0.4,0.8-0.8,1.5-0.8
			c0.9,0,1.4,0.6,1.4,1.4c0,1-0.9,2-2.3,3.5c0.3,0,0.6,0,0.9,0h1.7v0.3h-3.1L439.5,81.3L439.5,81.3z"/>
		<path d="M443.4,78.9c0-1.7,0.6-2.6,1.5-2.6s1.5,0.9,1.5,2.6s-0.6,2.7-1.5,2.7S443.4,80.6,443.4,78.9z M446.1,78.9
			c0-1.6-0.5-2.3-1.2-2.3s-1.2,0.8-1.2,2.3c0,1.6,0.5,2.4,1.2,2.4C445.7,81.3,446.1,80.5,446.1,78.9z"/>
		<path d="M447.3,78.9c0-1.7,0.6-2.6,1.5-2.6s1.5,0.9,1.5,2.6s-0.6,2.7-1.5,2.7S447.3,80.6,447.3,78.9z M449.9,78.9
			c0-1.6-0.5-2.3-1.2-2.3s-1.2,0.8-1.2,2.3c0,1.6,0.5,2.4,1.2,2.4C449.5,81.3,449.9,80.5,449.9,78.9z"/>
	</g>
	<g>
		<path d="M60.1,97.6l0.2-0.2c0.3,0.3,0.7,0.7,1.4,0.7c0.7,0,1.2-0.4,1.2-1.1s-0.5-1.2-1.8-1.2v-0.4c1.2,0,1.6-0.5,1.6-1.1
			s-0.4-1-1-1c-0.5,0-0.9,0.2-1.2,0.6l-0.2-0.2c0.4-0.3,0.8-0.6,1.4-0.6c0.8,0,1.4,0.4,1.4,1.2c0,0.7-0.4,1.1-1,1.3l0,0
			c0.6,0.1,1.2,0.6,1.2,1.3c0,0.9-0.7,1.4-1.6,1.4C60.9,98.3,60.4,97.9,60.1,97.6z"/>
		<path d="M64.1,95.6c0-1.7,0.6-2.6,1.5-2.6s1.5,0.9,1.5,2.6s-0.6,2.7-1.5,2.7S64.1,97.3,64.1,95.6z M66.8,95.6
			c0-1.6-0.5-2.3-1.2-2.3s-1.2,0.8-1.2,2.3c0,1.6,0.5,2.4,1.2,2.4S66.8,97.2,66.8,95.6z"/>
		<path d="M67.9,95.6c0-1.7,0.6-2.6,1.5-2.6s1.5,0.9,1.5,2.6s-0.6,2.7-1.5,2.7S67.9,97.3,67.9,95.6z M70.6,95.6
			c0-1.6-0.5-2.3-1.2-2.3s-1.2,0.8-1.2,2.3c0,1.6,0.5,2.4,1.2,2.4S70.6,97.2,70.6,95.6z"/>
		<path d="M71.7,95.6c0-1.7,0.6-2.6,1.5-2.6s1.5,0.9,1.5,2.6s-0.6,2.7-1.5,2.7S71.7,97.3,71.7,95.6z M74.4,95.6
			c0-1.6-0.5-2.3-1.2-2.3S72,94.1,72,95.6c0,1.6,0.5,2.4,1.2,2.4C74,98,74.4,97.2,74.4,95.6z"/>
		<path d="M75.6,95.6c0-1.7,0.6-2.6,1.5-2.6s1.5,0.9,1.5,2.6s-0.6,2.7-1.5,2.7S75.6,97.3,75.6,95.6z M78.3,95.6
			c0-1.6-0.5-2.3-1.2-2.3s-1.2,0.8-1.2,2.3c0,1.6,0.5,2.4,1.2,2.4S78.3,97.2,78.3,95.6z"/>
		<path d="M79.4,95.6c0-1.7,0.6-2.6,1.5-2.6s1.5,0.9,1.5,2.6s-0.6,2.7-1.5,2.7S79.4,97.3,79.4,95.6z M82.1,95.6
			c0-1.6-0.5-2.3-1.2-2.3s-1.2,0.8-1.2,2.3c0,1.6,0.5,2.4,1.2,2.4S82.1,97.2,82.1,95.6z"/>
	</g>
	<g>
		<path d="M433.9,103.1l0.2-0.2c0.3,0.3,0.7,0.7,1.4,0.7c0.7,0,1.2-0.4,1.2-1.1s-0.5-1.2-1.8-1.2V101c1.2,0,1.6-0.5,1.6-1.1
			s-0.4-1-1-1c-0.5,0-0.9,0.2-1.2,0.6l-0.2-0.2c0.4-0.3,0.8-0.6,1.4-0.6c0.8,0,1.4,0.4,1.4,1.2c0,0.7-0.4,1.1-1,1.3l0,0
			c0.6,0.1,1.2,0.6,1.2,1.3c0,0.9-0.7,1.4-1.6,1.4C434.7,103.9,434.2,103.5,433.9,103.1z"/>
		<path d="M437.8,104.8c0.4-0.2,0.6-0.5,0.6-1h-0.1c-0.2,0-0.3-0.1-0.3-0.3s0.2-0.3,0.3-0.3c0.2,0,0.4,0.2,0.4,0.6
			c0,0.6-0.3,1-0.8,1.3L437.8,104.8z"/>
		<path d="M439.6,101.2c0-1.7,0.6-2.6,1.5-2.6s1.5,0.9,1.5,2.6s-0.6,2.7-1.5,2.7S439.6,102.9,439.6,101.2z M442.3,101.2
			c0-1.6-0.5-2.3-1.2-2.3s-1.2,0.8-1.2,2.3c0,1.6,0.5,2.4,1.2,2.4C441.8,103.6,442.3,102.8,442.3,101.2z"/>
		<path d="M443.4,101.2c0-1.7,0.6-2.6,1.5-2.6s1.5,0.9,1.5,2.6s-0.6,2.7-1.5,2.7S443.4,102.9,443.4,101.2z M446.1,101.2
			c0-1.6-0.5-2.3-1.2-2.3s-1.2,0.8-1.2,2.3c0,1.6,0.5,2.4,1.2,2.4C445.7,103.6,446.1,102.8,446.1,101.2z"/>
		<path d="M447.3,101.2c0-1.7,0.6-2.6,1.5-2.6s1.5,0.9,1.5,2.6s-0.6,2.7-1.5,2.7S447.3,102.9,447.3,101.2z M449.9,101.2
			c0-1.6-0.5-2.3-1.2-2.3s-1.2,0.8-1.2,2.3c0,1.6,0.5,2.4,1.2,2.4C449.5,103.6,449.9,102.8,449.9,101.2z"/>
	</g>
	<g>
		<path d="M60.2,117.5c1.7-1.7,2.5-2.7,2.5-3.5c0-0.6-0.3-1.1-1.1-1.1c-0.5,0-0.9,0.3-1.2,0.7l-0.2-0.2c0.4-0.4,0.8-0.8,1.5-0.8
			c0.9,0,1.4,0.6,1.4,1.4c0,1-0.9,2-2.3,3.5c0.3,0,0.6,0,0.9,0h1.7v0.3h-3.1v-0.3H60.2z"/>
		<path d="M63.9,117.1l0.2-0.2c0.3,0.3,0.7,0.6,1.4,0.6c0.7,0,1.3-0.6,1.3-1.4s-0.5-1.3-1.2-1.3c-0.4,0-0.6,0.1-1,0.3l-0.2-0.2
			l0.2-2.4H67v0.3h-2l-0.2,1.8c0.3-0.2,0.5-0.3,0.9-0.3c0.9,0,1.6,0.5,1.6,1.6s-0.8,1.7-1.6,1.7C64.7,117.8,64.2,117.4,63.9,117.1z"
			/>
		<path d="M67.9,115.1c0-1.7,0.6-2.6,1.5-2.6s1.5,0.9,1.5,2.6s-0.6,2.7-1.5,2.7S67.9,116.8,67.9,115.1z M70.6,115.1
			c0-1.6-0.5-2.3-1.2-2.3s-1.2,0.8-1.2,2.3c0,1.6,0.5,2.4,1.2,2.4S70.6,116.7,70.6,115.1z"/>
		<path d="M71.7,115.1c0-1.7,0.6-2.6,1.5-2.6s1.5,0.9,1.5,2.6s-0.6,2.7-1.5,2.7S71.7,116.8,71.7,115.1z M74.4,115.1
			c0-1.6-0.5-2.3-1.2-2.3s-1.2,0.8-1.2,2.3c0,1.6,0.5,2.4,1.2,2.4C74,117.5,74.4,116.7,74.4,115.1z"/>
		<path d="M75.6,115.1c0-1.7,0.6-2.6,1.5-2.6s1.5,0.9,1.5,2.6s-0.6,2.7-1.5,2.7S75.6,116.8,75.6,115.1z M78.3,115.1
			c0-1.6-0.5-2.3-1.2-2.3s-1.2,0.8-1.2,2.3c0,1.6,0.5,2.4,1.2,2.4S78.3,116.7,78.3,115.1z"/>
		<path d="M79.4,115.1c0-1.7,0.6-2.6,1.5-2.6s1.5,0.9,1.5,2.6s-0.6,2.7-1.5,2.7S79.4,116.8,79.4,115.1z M82.1,115.1
			c0-1.6-0.5-2.3-1.2-2.3s-1.2,0.8-1.2,2.3c0,1.6,0.5,2.4,1.2,2.4S82.1,116.7,82.1,115.1z"/>
	</g>
	<g>
		<path d="M434,125.8c1.7-1.7,2.5-2.7,2.5-3.5c0-0.6-0.3-1.1-1.1-1.1c-0.5,0-0.9,0.3-1.2,0.7l-0.2-0.2c0.4-0.4,0.8-0.8,1.5-0.8
			c0.9,0,1.4,0.6,1.4,1.4c0,1-0.9,2-2.3,3.5c0.3,0,0.6,0,0.9,0h1.7v0.3h-3.1L434,125.8L434,125.8z"/>
		<path d="M437.8,127c0.4-0.2,0.6-0.5,0.6-1h-0.1c-0.2,0-0.3-0.1-0.3-0.3s0.2-0.3,0.3-0.3c0.2,0,0.4,0.2,0.4,0.6
			c0,0.6-0.3,1-0.8,1.3L437.8,127z"/>
		<path d="M439.5,124.7c0-0.7,0.5-1.2,1-1.4l0,0c-0.4-0.2-0.7-0.6-0.7-1.2c0-0.7,0.6-1.2,1.3-1.2c0.9,0,1.4,0.6,1.4,1.3
			c0,0.6-0.4,1.1-0.7,1.3l0,0c0.4,0.3,0.9,0.6,0.9,1.3s-0.6,1.3-1.6,1.3C440.2,126.1,439.5,125.5,439.5,124.7z M442.3,124.8
			c0-0.8-0.8-1.1-1.6-1.4c-0.5,0.3-0.9,0.7-0.9,1.3c0,0.6,0.5,1.1,1.3,1.1C441.9,125.8,442.3,125.4,442.3,124.8z M442.2,122.2
			c0-0.6-0.4-1-1-1s-1,0.4-1,1c0,0.7,0.7,1,1.4,1.3C442,123,442.2,122.6,442.2,122.2z"/>
		<path d="M443.4,123.5c0-1.7,0.6-2.6,1.5-2.6s1.5,0.9,1.5,2.6s-0.6,2.7-1.5,2.7S443.4,125.2,443.4,123.5z M446.1,123.5
			c0-1.6-0.5-2.3-1.2-2.3s-1.2,0.8-1.2,2.3c0,1.6,0.5,2.4,1.2,2.4C445.7,125.8,446.1,125,446.1,123.5z"/>
		<path d="M447.3,123.5c0-1.7,0.6-2.6,1.5-2.6s1.5,0.9,1.5,2.6s-0.6,2.7-1.5,2.7S447.3,125.2,447.3,123.5z M449.9,123.5
			c0-1.6-0.5-2.3-1.2-2.3s-1.2,0.8-1.2,2.3c0,1.6,0.5,2.4,1.2,2.4C449.5,125.8,449.9,125,449.9,123.5z"/>
	</g>
	<g>
		<path d="M60.2,136.9c1.7-1.7,2.5-2.7,2.5-3.5c0-0.6-0.3-1.1-1.1-1.1c-0.5,0-0.9,0.3-1.2,0.7l-0.2-0.2c0.4-0.4,0.8-0.8,1.5-0.8
			c0.9,0,1.4,0.6,1.4,1.4c0,1-0.9,2-2.3,3.5c0.3,0,0.6,0,0.9,0h1.7v0.3h-3.1v-0.3H60.2z"/>
		<path d="M64.1,134.6c0-1.7,0.6-2.6,1.5-2.6s1.5,0.9,1.5,2.6c0,1.7-0.6,2.7-1.5,2.7S64.1,136.3,64.1,134.6z M66.8,134.6
			c0-1.6-0.5-2.3-1.2-2.3s-1.2,0.8-1.2,2.3c0,1.6,0.5,2.4,1.2,2.4C66.3,136.9,66.8,136.1,66.8,134.6z"/>
		<path d="M67.9,134.6c0-1.7,0.6-2.6,1.5-2.6s1.5,0.9,1.5,2.6c0,1.7-0.6,2.7-1.5,2.7S67.9,136.3,67.9,134.6z M70.6,134.6
			c0-1.6-0.5-2.3-1.2-2.3s-1.2,0.8-1.2,2.3c0,1.6,0.5,2.4,1.2,2.4C70.1,136.9,70.6,136.1,70.6,134.6z"/>
		<path d="M71.7,134.6c0-1.7,0.6-2.6,1.5-2.6s1.5,0.9,1.5,2.6c0,1.7-0.6,2.7-1.5,2.7S71.7,136.3,71.7,134.6z M74.4,134.6
			c0-1.6-0.5-2.3-1.2-2.3s-1.2,0.8-1.2,2.3c0,1.6,0.5,2.4,1.2,2.4C74,136.9,74.4,136.1,74.4,134.6z"/>
		<path d="M75.6,134.6c0-1.7,0.6-2.6,1.5-2.6s1.5,0.9,1.5,2.6c0,1.7-0.6,2.7-1.5,2.7S75.6,136.3,75.6,134.6z M78.3,134.6
			c0-1.6-0.5-2.3-1.2-2.3s-1.2,0.8-1.2,2.3c0,1.6,0.5,2.4,1.2,2.4C77.8,136.9,78.3,136.1,78.3,134.6z"/>
		<path d="M79.4,134.6c0-1.7,0.6-2.6,1.5-2.6s1.5,0.9,1.5,2.6c0,1.7-0.6,2.7-1.5,2.7S79.4,136.3,79.4,134.6z M82.1,134.6
			c0-1.6-0.5-2.3-1.2-2.3s-1.2,0.8-1.2,2.3c0,1.6,0.5,2.4,1.2,2.4C81.6,136.9,82.1,136.1,82.1,134.6z"/>
	</g>
	<g>
		<path d="M48.3,172.1v-0.4h4.9v-2.4h0.3v2.8L48.3,172.1L48.3,172.1z"/>
		<path d="M48.3,168.4v-0.5l3.1-1.1c0.4-0.1,0.8-0.3,1.2-0.4l0,0c-0.4-0.1-0.8-0.3-1.2-0.4l-3.1-1.1v-0.5h5.3v0.4h-3.5
			c-0.4,0-1,0-1.4,0l0,0l1.2,0.4l3.1,1.1v0.3l-3.1,1.1l-1.2,0.4l0,0c0.4,0,1,0,1.4,0h3.5v0.3H48.3z"/>
		<path d="M48.3,162.7v-2.9h0.4v2.5h2v-2.1H51v2.1h2.3v-2.6h0.3v3H48.3z"/>
		<path d="M51.5,159.1v-1.8h0.3v1.8H51.5z"/>
		<path d="M52.9,156.7l-0.3-0.2c0.4-0.4,0.7-0.9,0.7-1.5c0-0.8-0.4-1.3-1.1-1.3c-0.7,0-0.9,0.4-1.1,0.9l-0.4,0.8
			c-0.2,0.5-0.5,1.1-1.3,1.1s-1.3-0.7-1.3-1.5c0-0.6,0.3-1.1,0.6-1.5l0.2,0.2c-0.3,0.3-0.5,0.7-0.5,1.3c0,0.7,0.4,1.2,0.9,1.2
			c0.6,0,0.8-0.5,1-0.9l0.4-0.8c0.3-0.6,0.6-1.1,1.4-1.1c0.8,0,1.4,0.7,1.4,1.7C53.7,155.7,53.4,156.3,52.9,156.7z"/>
		<path d="M48.3,152.1v-0.4h2.4v-2.8h-2.3v-0.4h5.3v0.4h-2.6v2.8h2.6v0.4H48.3z"/>
		<path d="M48.3,147v-2.9h0.4v2.5h2v-2.1H51v2.1h2.3V144h0.3v3H48.3z"/>
		<path d="M48.3,142.9V140h0.4v2.5h2v-2.1H51v2.1h2.3v-2.6h0.3v3H48.3z"/>
		<path d="M52.9,137.6l-0.2-0.2c0.4-0.4,0.7-0.9,0.7-1.5c0-0.8-0.4-1.3-1.1-1.3c-0.7,0-0.9,0.4-1.1,0.9l-0.4,0.8
			c-0.2,0.5-0.5,1.1-1.3,1.1s-1.3-0.7-1.3-1.5c0-0.6,0.3-1.1,0.6-1.5l0.2,0.2c-0.3,0.3-0.5,0.7-0.5,1.3c0,0.7,0.4,1.2,0.9,1.2
			c0.6,0,0.8-0.5,1-0.9l0.4-0.8c0.3-0.6,0.6-1.1,1.4-1.1c0.8,0,1.4,0.7,1.4,1.7C53.7,136.6,53.4,137.2,52.9,137.6z"/>
		<path d="M48.7,132v1.7h-0.3V130h0.3v1.7h4.9v0.4L48.7,132L48.7,132z"/>
		<path d="M51,129.5c-1.7,0-2.7-0.9-2.7-2.2s1-2.2,2.7-2.2s2.8,0.9,2.8,2.2C53.7,128.6,52.6,129.5,51,129.5z M51,125.5
			c-1.5,0-2.4,0.7-2.4,1.8s0.9,1.8,2.4,1.8s2.4-0.7,2.4-1.8S52.4,125.5,51,125.5z"/>
		<path d="M51,124.3c-1.7,0-2.7-0.9-2.7-2.2c0-0.6,0.3-1.1,0.6-1.4l0.2,0.2c-0.3,0.3-0.5,0.7-0.5,1.2c0,1.2,0.9,1.9,2.4,1.9
			s2.4-0.7,2.4-1.8c0-0.5-0.2-1-0.6-1.3l0.2-0.2c0.5,0.4,0.8,0.9,0.8,1.6C53.7,123.4,52.6,124.3,51,124.3z"/>
		<path d="M48.3,119.4V119h2.9l0,0l-2.9-2.6V116l2,1.7l3.3-1.9v0.4l-3,1.7l1.2,1.1h1.8v0.4C53.6,119.4,48.3,119.4,48.3,119.4z"/>
		<path d="M52.9,115.4l-0.3-0.2c0.4-0.4,0.7-0.9,0.7-1.5c0-0.8-0.4-1.3-1.1-1.3c-0.7,0-0.9,0.4-1.1,0.9l-0.4,0.8
			c-0.2,0.5-0.5,1.1-1.3,1.1s-1.3-0.7-1.3-1.5c0-0.6,0.3-1.1,0.6-1.5l0.2,0.2c-0.3,0.3-0.5,0.7-0.5,1.3c0,0.7,0.4,1.2,0.9,1.2
			c0.6,0,0.8-0.5,1-0.9l0.4-0.8c0.3-0.6,0.6-1.1,1.4-1.1c0.8,0,1.4,0.7,1.4,1.7C53.7,114.3,53.4,114.9,52.9,115.4z"/>
		<path d="M51.4,109.3c-1.4,0-2.6-0.4-3.6-1.1l0.1-0.2c1,0.6,2.2,1,3.5,1s2.5-0.3,3.5-1l0.1,0.2C53.9,108.9,52.8,109.3,51.4,109.3z"
			/>
		<path d="M48.3,106.9v-0.5l3.1-1.1c0.4-0.1,0.8-0.3,1.2-0.4l0,0c-0.4-0.1-0.8-0.3-1.2-0.4l-3.1-1.1v-0.5h5.3v0.4h-3.5
			c-0.4,0-1,0-1.4,0l0,0l1.2,0.4l3.1,1.1v0.3l-3.1,1.1l-1.2,0.4l0,0c0.4,0,1,0,1.4,0h3.5v0.3C53.6,106.9,48.3,106.9,48.3,106.9z"/>
		<path d="M48.7,100.2v1.7h-0.3v-3.7h0.3v1.7h4.9v0.4L48.7,100.2L48.7,100.2z"/>
		<path d="M54.9,97.6c-1-0.6-2.2-1-3.5-1s-2.5,0.3-3.5,1l-0.1-0.2c1.1-0.7,2.2-1.1,3.6-1.1c1.4,0,2.6,0.4,3.6,1.1L54.9,97.6z"/>
	</g>
	<g>
		<path d="M462.9,166.8l-4.7-3v2.8h-0.3v-3.2h0.2l4.7,3v-3.1h0.3v3.5H462.9z"/>
		<path d="M457.9,162.1v-0.4h5.3v0.4H457.9z"/>
		<path d="M457.9,160.2v-0.4l3.7-2.2l1-0.6l0,0c-0.5,0-1,0-1.5,0h-3.2v-0.4h5.3v0.4l-3.7,2.2l-1,0.6l0,0c0.5,0,1,0,1.5,0h3.3v0.4
			H457.9z"/>
		<path d="M460.5,155.5c-1.7,0-2.7-0.9-2.7-2.2c0-0.6,0.3-1.1,0.6-1.4l0.2,0.2c-0.3,0.3-0.5,0.7-0.5,1.2c0,1.2,0.9,1.9,2.4,1.9
			s2.4-0.7,2.4-1.8c0-0.5-0.2-1-0.6-1.3l0.2-0.2c0.5,0.4,0.8,0.9,0.8,1.6C463.3,154.6,462.2,155.5,460.5,155.5z"/>
		<path d="M457.9,149v-0.4h5v-2.4h0.3v2.8L457.9,149L457.9,149z"/>
		<path d="M457.9,145.3v-0.5l3.1-1.1c0.4-0.1,0.8-0.3,1.2-0.4l0,0c-0.4-0.1-0.8-0.3-1.2-0.4l-3.1-1.1v-0.5h5.3v0.4h-3.5
			c-0.4,0-1,0-1.4,0l0,0l1.2,0.4l3.1,1.1v0.3l-3.1,1.1l-1.2,0.4l0,0c0.4,0,1,0,1.4,0h3.5v0.3H457.9z"/>
		<path d="M457.9,139.6v-2.9h0.3v2.5h2v-2.1h0.3v2.1h2.3v-2.6h0.3v3H457.9z"/>
		<path d="M457.9,133.9v-1.3c0-1.2,0.4-1.9,1.5-1.9c1,0,1.5,0.7,1.5,1.9v1h2.3v0.4L457.9,133.9L457.9,133.9z M460.6,132.7
			c0-1.1-0.4-1.6-1.2-1.6c-0.9,0-1.2,0.5-1.2,1.6v0.9h2.4L460.6,132.7L460.6,132.7z"/>
		<path d="M457.9,129.5V128c0-1,0.4-1.7,1.4-1.7c0.8,0,1.3,0.5,1.4,1.4l2.4-1.5v0.4l-2.4,1.4v1.1h2.4v0.4L457.9,129.5L457.9,129.5z
			 M460.4,128.1c0-0.9-0.4-1.4-1.2-1.4c-0.8,0-1.1,0.5-1.1,1.4v1h2.2v-1H460.4z"/>
		<path d="M457.9,125.2v-0.4h5.3v0.4H457.9z"/>
		<path d="M460.5,123.6c-1.7,0-2.7-0.9-2.7-2.2c0-0.6,0.3-1.1,0.6-1.4l0.2,0.2c-0.3,0.3-0.5,0.7-0.5,1.2c0,1.2,0.9,1.9,2.4,1.9
			s2.4-0.7,2.4-1.8c0-0.5-0.2-1-0.6-1.3l0.2-0.2c0.5,0.4,0.8,0.9,0.8,1.6C463.3,122.7,462.2,123.6,460.5,123.6z"/>
		<path d="M457.9,118.7v-2.9h0.3v2.5h2v-2.1h0.3v2.1h2.3v-2.6h0.3v3H457.9z"/>
		<path d="M462.5,115l-0.3-0.2c0.4-0.4,0.7-0.9,0.7-1.5c0-0.8-0.4-1.3-1.1-1.3s-0.9,0.4-1.1,0.9l-0.4,0.8c-0.2,0.5-0.5,1.1-1.3,1.1
			s-1.3-0.7-1.3-1.5c0-0.6,0.3-1.1,0.6-1.5l0.2,0.2c-0.3,0.3-0.5,0.7-0.5,1.3c0,0.7,0.4,1.2,0.9,1.2c0.6,0,0.8-0.5,1-0.9l0.4-0.8
			c0.3-0.6,0.6-1.1,1.4-1.1s1.4,0.7,1.4,1.7C463.3,114,462.9,114.6,462.5,115z"/>
		<path d="M460.9,108.9c-1.4,0-2.6-0.4-3.6-1.1l0.1-0.2c1,0.6,2.2,1,3.5,1s2.5-0.3,3.5-1l0.1,0.2
			C463.5,108.5,462.3,108.9,460.9,108.9z"/>
		<path d="M463.3,105.6c0,0.6-0.3,1-0.6,1.3l-0.2-0.2c0.3-0.3,0.6-0.7,0.6-1.3c0-0.7-0.4-1-1-1c-1.6,0-1.1,2.3-2.8,2.3
			c-0.7,0-1.2-0.5-1.2-1.1h-0.8v-0.3h0.8c0-0.5,0.3-0.8,0.6-1.1l0.2,0.2c-0.3,0.3-0.5,0.5-0.5,1c0,0.6,0.4,0.9,0.9,0.9
			c1.4,0,0.9-2.3,2.8-2.3c0.8,0,1.2,0.5,1.3,1.2h0.8v0.3L463.3,105.6L463.3,105.6z"/>
		<path d="M464.4,103.3c-1-0.6-2.2-1-3.5-1s-2.5,0.3-3.5,1l-0.1-0.2c1.1-0.7,2.2-1.1,3.6-1.1s2.6,0.4,3.6,1.1L464.4,103.3z"/>
	</g>
	<g>
		<path d="M434,148.1c1.7-1.7,2.5-2.7,2.5-3.5c0-0.6-0.3-1.1-1.1-1.1c-0.5,0-0.9,0.3-1.2,0.7L434,144c0.4-0.4,0.8-0.8,1.5-0.8
			c0.9,0,1.4,0.6,1.4,1.4c0,1-0.9,2-2.3,3.5c0.3,0,0.6,0,0.9,0h1.7v0.3h-3.1L434,148.1L434,148.1z"/>
		<path d="M437.8,149.3c0.4-0.2,0.6-0.5,0.6-1h-0.1c-0.2,0-0.3-0.1-0.3-0.3s0.2-0.3,0.3-0.3c0.2,0,0.4,0.2,0.4,0.6
			c0,0.6-0.3,1-0.8,1.3L437.8,149.3z"/>
		<path d="M439.6,146c0-2.1,0.9-2.9,1.9-2.9c0.5,0,0.8,0.2,1.1,0.5l-0.2,0.2c-0.2-0.3-0.5-0.4-0.9-0.4c-0.8,0-1.5,0.7-1.5,2.5
			c0.4-0.4,0.8-0.7,1.3-0.7c0.9,0,1.4,0.6,1.4,1.6c0,0.9-0.6,1.6-1.4,1.6C440.3,148.4,439.6,147.5,439.6,146z M440,146.3
			c0.1,1.1,0.5,1.8,1.3,1.8c0.6,0,1-0.6,1-1.3s-0.3-1.3-1.1-1.3C440.9,145.5,440.4,145.7,440,146.3z"/>
		<path d="M443.4,145.7c0-1.7,0.6-2.6,1.5-2.6s1.5,0.9,1.5,2.6c0,1.7-0.6,2.7-1.5,2.7S443.4,147.4,443.4,145.7z M446.1,145.7
			c0-1.6-0.5-2.3-1.2-2.3s-1.2,0.8-1.2,2.3c0,1.6,0.5,2.4,1.2,2.4C445.7,148.1,446.1,147.3,446.1,145.7z"/>
		<path d="M447.3,145.7c0-1.7,0.6-2.6,1.5-2.6s1.5,0.9,1.5,2.6c0,1.7-0.6,2.7-1.5,2.7S447.3,147.4,447.3,145.7z M449.9,145.7
			c0-1.6-0.5-2.3-1.2-2.3s-1.2,0.8-1.2,2.3c0,1.6,0.5,2.4,1.2,2.4C449.5,148.1,449.9,147.3,449.9,145.7z"/>
	</g>
	<g>
		<path d="M60.5,156.3h1.2v-4.2h-0.9v-0.2c0.4-0.1,0.7-0.2,1-0.3h0.3v4.8h1.1v0.3h-2.7V156.3z"/>
		<path d="M63.9,156l0.2-0.2c0.3,0.3,0.7,0.6,1.4,0.6c0.7,0,1.3-0.6,1.3-1.4c0-0.8-0.5-1.3-1.2-1.3c-0.4,0-0.6,0.1-1,0.3l-0.2-0.2
			l0.2-2.4H67v0.3h-2l-0.2,1.8c0.3-0.2,0.5-0.3,0.9-0.3c0.9,0,1.6,0.5,1.6,1.6s-0.8,1.7-1.6,1.7C64.7,156.7,64.2,156.4,63.9,156z"/>
		<path d="M67.9,154.1c0-1.7,0.6-2.6,1.5-2.6s1.5,0.9,1.5,2.6c0,1.7-0.6,2.7-1.5,2.7S67.9,155.8,67.9,154.1z M70.6,154.1
			c0-1.6-0.5-2.3-1.2-2.3s-1.2,0.8-1.2,2.3c0,1.6,0.5,2.4,1.2,2.4C70.1,156.4,70.6,155.6,70.6,154.1z"/>
		<path d="M71.7,154.1c0-1.7,0.6-2.6,1.5-2.6s1.5,0.9,1.5,2.6c0,1.7-0.6,2.7-1.5,2.7S71.7,155.8,71.7,154.1z M74.4,154.1
			c0-1.6-0.5-2.3-1.2-2.3s-1.2,0.8-1.2,2.3c0,1.6,0.5,2.4,1.2,2.4C74,156.4,74.4,155.6,74.4,154.1z"/>
		<path d="M75.6,154.1c0-1.7,0.6-2.6,1.5-2.6s1.5,0.9,1.5,2.6c0,1.7-0.6,2.7-1.5,2.7S75.6,155.8,75.6,154.1z M78.3,154.1
			c0-1.6-0.5-2.3-1.2-2.3s-1.2,0.8-1.2,2.3c0,1.6,0.5,2.4,1.2,2.4C77.8,156.4,78.3,155.6,78.3,154.1z"/>
		<path d="M79.4,154.1c0-1.7,0.6-2.6,1.5-2.6s1.5,0.9,1.5,2.6c0,1.7-0.6,2.7-1.5,2.7S79.4,155.8,79.4,154.1z M82.1,154.1
			c0-1.6-0.5-2.3-1.2-2.3s-1.2,0.8-1.2,2.3c0,1.6,0.5,2.4,1.2,2.4C81.6,156.4,82.1,155.6,82.1,154.1z"/>
	</g>
	<g>
		<path d="M434,170.3c1.7-1.7,2.5-2.7,2.5-3.5c0-0.6-0.3-1.1-1.1-1.1c-0.5,0-0.9,0.3-1.2,0.7l-0.2-0.2c0.4-0.4,0.8-0.8,1.5-0.8
			c0.9,0,1.4,0.6,1.4,1.4c0,1-0.9,2-2.3,3.5c0.3,0,0.6,0,0.9,0h1.7v0.3h-3.1L434,170.3L434,170.3z"/>
		<path d="M437.8,171.5c0.4-0.2,0.6-0.5,0.6-1h-0.1c-0.2,0-0.3-0.1-0.3-0.3s0.2-0.3,0.3-0.3c0.2,0,0.4,0.2,0.4,0.6
			c0,0.6-0.3,1-0.8,1.3L437.8,171.5z"/>
		<path d="M441.7,169h-2.4v-0.2l2.4-3.4h0.3v3.3h0.8v0.3H442v1.5h-0.3V169z M441.7,168.7v-1.9c0-0.2,0-0.6,0-0.9l0,0
			c-0.1,0.2-0.3,0.4-0.4,0.6l-1.5,2.1L441.7,168.7L441.7,168.7z"/>
		<path d="M443.4,168c0-1.7,0.6-2.6,1.5-2.6s1.5,0.9,1.5,2.6c0,1.7-0.6,2.7-1.5,2.7S443.4,169.7,443.4,168z M446.1,168
			c0-1.6-0.5-2.3-1.2-2.3s-1.2,0.8-1.2,2.3c0,1.6,0.5,2.4,1.2,2.4C445.7,170.3,446.1,169.5,446.1,168z"/>
		<path d="M447.3,168c0-1.7,0.6-2.6,1.5-2.6s1.5,0.9,1.5,2.6c0,1.7-0.6,2.7-1.5,2.7S447.3,169.7,447.3,168z M449.9,168
			c0-1.6-0.5-2.3-1.2-2.3s-1.2,0.8-1.2,2.3c0,1.6,0.5,2.4,1.2,2.4C449.5,170.3,449.9,169.5,449.9,168z"/>
	</g>
	<g>
		<path d="M60.5,175.8h1.2v-4.2h-0.9v-0.2c0.4-0.1,0.7-0.2,1-0.3h0.3v4.8h1.1v0.3h-2.7V175.8z"/>
		<path d="M64.1,173.5c0-1.7,0.6-2.6,1.5-2.6s1.5,0.9,1.5,2.6c0,1.7-0.6,2.7-1.5,2.7S64.1,175.2,64.1,173.5z M66.8,173.5
			c0-1.6-0.5-2.3-1.2-2.3s-1.2,0.8-1.2,2.3c0,1.6,0.5,2.4,1.2,2.4S66.8,175.1,66.8,173.5z"/>
		<path d="M67.9,173.5c0-1.7,0.6-2.6,1.5-2.6s1.5,0.9,1.5,2.6c0,1.7-0.6,2.7-1.5,2.7S67.9,175.2,67.9,173.5z M70.6,173.5
			c0-1.6-0.5-2.3-1.2-2.3s-1.2,0.8-1.2,2.3c0,1.6,0.5,2.4,1.2,2.4S70.6,175.1,70.6,173.5z"/>
		<path d="M71.7,173.5c0-1.7,0.6-2.6,1.5-2.6s1.5,0.9,1.5,2.6c0,1.7-0.6,2.7-1.5,2.7S71.7,175.2,71.7,173.5z M74.4,173.5
			c0-1.6-0.5-2.3-1.2-2.3S72,172,72,173.5c0,1.6,0.5,2.4,1.2,2.4C74,175.9,74.4,175.1,74.4,173.5z"/>
		<path d="M75.6,173.5c0-1.7,0.6-2.6,1.5-2.6s1.5,0.9,1.5,2.6c0,1.7-0.6,2.7-1.5,2.7S75.6,175.2,75.6,173.5z M78.3,173.5
			c0-1.6-0.5-2.3-1.2-2.3s-1.2,0.8-1.2,2.3c0,1.6,0.5,2.4,1.2,2.4S78.3,175.1,78.3,173.5z"/>
		<path d="M79.4,173.5c0-1.7,0.6-2.6,1.5-2.6s1.5,0.9,1.5,2.6c0,1.7-0.6,2.7-1.5,2.7S79.4,175.2,79.4,173.5z M82.1,173.5
			c0-1.6-0.5-2.3-1.2-2.3s-1.2,0.8-1.2,2.3c0,1.6,0.5,2.4,1.2,2.4S82.1,175.1,82.1,173.5z"/>
	</g>
	<g>
		<path d="M434,192.6c1.7-1.7,2.5-2.7,2.5-3.5c0-0.6-0.3-1.1-1.1-1.1c-0.5,0-0.9,0.3-1.2,0.7l-0.2-0.2c0.4-0.4,0.8-0.8,1.5-0.8
			c0.9,0,1.4,0.6,1.4,1.4c0,1-0.9,2-2.3,3.5c0.3,0,0.6,0,0.9,0h1.7v0.3h-3.1L434,192.6L434,192.6z"/>
		<path d="M437.8,193.8c0.4-0.2,0.6-0.5,0.6-1h-0.1c-0.2,0-0.3-0.1-0.3-0.3s0.2-0.3,0.3-0.3c0.2,0,0.4,0.2,0.4,0.6
			c0,0.6-0.3,1-0.8,1.3L437.8,193.8z"/>
		<path d="M439.5,192.6c1.7-1.7,2.5-2.7,2.5-3.5c0-0.6-0.3-1.1-1.1-1.1c-0.5,0-0.9,0.3-1.2,0.7l-0.2-0.2c0.4-0.4,0.8-0.8,1.5-0.8
			c0.9,0,1.4,0.6,1.4,1.4c0,1-0.9,2-2.3,3.5c0.3,0,0.6,0,0.9,0h1.7v0.3h-3.1L439.5,192.6L439.5,192.6z"/>
		<path d="M443.4,190.2c0-1.7,0.6-2.6,1.5-2.6s1.5,0.9,1.5,2.6c0,1.7-0.6,2.7-1.5,2.7S443.4,191.9,443.4,190.2z M446.1,190.2
			c0-1.6-0.5-2.3-1.2-2.3s-1.2,0.8-1.2,2.3c0,1.6,0.5,2.4,1.2,2.4C445.7,192.6,446.1,191.8,446.1,190.2z"/>
		<path d="M447.3,190.2c0-1.7,0.6-2.6,1.5-2.6s1.5,0.9,1.5,2.6c0,1.7-0.6,2.7-1.5,2.7S447.3,191.9,447.3,190.2z M449.9,190.2
			c0-1.6-0.5-2.3-1.2-2.3s-1.2,0.8-1.2,2.3c0,1.6,0.5,2.4,1.2,2.4C449.5,192.6,449.9,191.8,449.9,190.2z"/>
	</g>
	<g>
		<path d="M63.9,195l0.2-0.2c0.3,0.3,0.7,0.6,1.4,0.6c0.7,0,1.3-0.6,1.3-1.4c0-0.8-0.5-1.3-1.2-1.3c-0.4,0-0.6,0.1-1,0.3l-0.2-0.2
			l0.2-2.4H67v0.3h-2l-0.2,1.8c0.3-0.2,0.5-0.3,0.9-0.3c0.9,0,1.6,0.5,1.6,1.6s-0.8,1.7-1.6,1.7C64.7,195.7,64.2,195.3,63.9,195z"/>
		<path d="M67.9,193c0-1.7,0.6-2.6,1.5-2.6s1.5,0.9,1.5,2.6c0,1.7-0.6,2.7-1.5,2.7S67.9,194.7,67.9,193z M70.6,193
			c0-1.6-0.5-2.3-1.2-2.3s-1.2,0.8-1.2,2.3c0,1.6,0.5,2.4,1.2,2.4S70.6,194.6,70.6,193z"/>
		<path d="M71.7,193c0-1.7,0.6-2.6,1.5-2.6s1.5,0.9,1.5,2.6c0,1.7-0.6,2.7-1.5,2.7S71.7,194.7,71.7,193z M74.4,193
			c0-1.6-0.5-2.3-1.2-2.3S72,191.5,72,193c0,1.6,0.5,2.4,1.2,2.4C74,195.4,74.4,194.6,74.4,193z"/>
		<path d="M75.6,193c0-1.7,0.6-2.6,1.5-2.6s1.5,0.9,1.5,2.6c0,1.7-0.6,2.7-1.5,2.7S75.6,194.7,75.6,193z M78.3,193
			c0-1.6-0.5-2.3-1.2-2.3s-1.2,0.8-1.2,2.3c0,1.6,0.5,2.4,1.2,2.4S78.3,194.6,78.3,193z"/>
		<path d="M79.4,193c0-1.7,0.6-2.6,1.5-2.6s1.5,0.9,1.5,2.6c0,1.7-0.6,2.7-1.5,2.7S79.4,194.7,79.4,193z M82.1,193
			c0-1.6-0.5-2.3-1.2-2.3s-1.2,0.8-1.2,2.3c0,1.6,0.5,2.4,1.2,2.4S82.1,194.6,82.1,193z"/>
	</g>
	<g>
		<path d="M434,214.8c1.7-1.7,2.5-2.7,2.5-3.5c0-0.6-0.3-1.1-1.1-1.1c-0.5,0-0.9,0.3-1.2,0.7l-0.2-0.2c0.4-0.4,0.8-0.8,1.5-0.8
			c0.9,0,1.4,0.6,1.4,1.4c0,1-0.9,2-2.3,3.5c0.3,0,0.6,0,0.9,0h1.7v0.3h-3.1L434,214.8L434,214.8z"/>
		<path d="M437.8,216.1c0.4-0.2,0.6-0.5,0.6-1h-0.1c-0.2,0-0.3-0.1-0.3-0.3s0.2-0.3,0.3-0.3c0.2,0,0.4,0.2,0.4,0.6
			c0,0.6-0.3,1-0.8,1.3L437.8,216.1z"/>
		<path d="M439.6,212.5c0-1.7,0.6-2.6,1.5-2.6s1.5,0.9,1.5,2.6c0,1.7-0.6,2.7-1.5,2.7S439.6,214.2,439.6,212.5z M442.3,212.5
			c0-1.6-0.5-2.3-1.2-2.3s-1.2,0.8-1.2,2.3c0,1.6,0.5,2.4,1.2,2.4C441.8,214.8,442.3,214,442.3,212.5z"/>
		<path d="M443.4,212.5c0-1.7,0.6-2.6,1.5-2.6s1.5,0.9,1.5,2.6c0,1.7-0.6,2.7-1.5,2.7S443.4,214.2,443.4,212.5z M446.1,212.5
			c0-1.6-0.5-2.3-1.2-2.3s-1.2,0.8-1.2,2.3c0,1.6,0.5,2.4,1.2,2.4C445.7,214.8,446.1,214,446.1,212.5z"/>
		<path d="M447.3,212.5c0-1.7,0.6-2.6,1.5-2.6s1.5,0.9,1.5,2.6c0,1.7-0.6,2.7-1.5,2.7S447.3,214.2,447.3,212.5z M449.9,212.5
			c0-1.6-0.5-2.3-1.2-2.3s-1.2,0.8-1.2,2.3c0,1.6,0.5,2.4,1.2,2.4C449.5,214.8,449.9,214,449.9,212.5z"/>
	</g>
	<g>
		<path d="M79.4,212.5c0-1.7,0.6-2.6,1.5-2.6s1.5,0.9,1.5,2.6c0,1.7-0.6,2.7-1.5,2.7S79.4,214.2,79.4,212.5z M82.1,212.5
			c0-1.6-0.5-2.3-1.2-2.3s-1.2,0.8-1.2,2.3c0,1.6,0.5,2.4,1.2,2.4C81.6,214.8,82.1,214,82.1,212.5z"/>
	</g>
	<g>
		<path d="M78.3,223.6l0.2-0.2c0.3,0.3,0.7,0.7,1.4,0.7c0.7,0,1.2-0.4,1.2-1.1c0-0.7-0.5-1.2-1.8-1.2v-0.4c1.2,0,1.6-0.5,1.6-1.1
			s-0.4-1-1-1c-0.5,0-0.9,0.2-1.2,0.6l-0.2-0.2c0.4-0.3,0.8-0.6,1.4-0.6c0.8,0,1.4,0.4,1.4,1.2c0,0.7-0.4,1.1-1,1.3l0,0
			c0.6,0.1,1.2,0.6,1.2,1.3c0,0.9-0.7,1.4-1.6,1.4C79.1,224.3,78.6,223.9,78.3,223.6z"/>
		<path d="M82.2,222.1H84v0.3h-1.8V222.1z"/>
		<path d="M86.2,218.9h0.4l1.9,5.3h-0.4l-0.6-1.8h-2.1l-0.6,1.8h-0.4L86.2,218.9z M85.4,222.1h1.9l-0.3-1c-0.2-0.6-0.4-1.2-0.6-1.8
			l0,0c-0.2,0.6-0.4,1.2-0.6,1.8L85.4,222.1z"/>
		<path d="M89.2,220.4h0.3v0.5l0,0c0.4-0.3,0.8-0.6,1.3-0.6c1,0,1.5,0.8,1.5,2c0,1.3-0.8,2.1-1.7,2.1c-0.4,0-0.8-0.2-1.2-0.5v2.1H89
			v-5.6H89.2z M92,222.2c0-0.9-0.3-1.6-1.2-1.6c-0.4,0-0.8,0.2-1.3,0.6v2.3c0.4,0.4,0.8,0.5,1.1,0.5C91.5,224,92,223.3,92,222.2z"/>
		<path d="M93.6,220.4h0.3v0.7l0,0c0.3-0.5,0.6-0.8,1.1-0.8c0.1,0,0.3,0,0.4,0.1l-0.1,0.3c-0.1,0-0.2-0.1-0.4-0.1
			c-0.3,0-0.8,0.3-1,1v2.6h-0.4L93.6,220.4L93.6,220.4z"/>
	</g>
	<g>
		<path d="M106.1,223.6l0.2-0.2c0.3,0.3,0.7,0.7,1.4,0.7c0.7,0,1.2-0.4,1.2-1.1c0-0.7-0.5-1.2-1.8-1.2v-0.4c1.2,0,1.6-0.5,1.6-1.1
			s-0.4-1-1-1c-0.5,0-0.9,0.2-1.2,0.6l-0.2-0.2c0.4-0.3,0.8-0.6,1.4-0.6c0.8,0,1.4,0.4,1.4,1.2c0,0.7-0.4,1.1-1,1.3l0,0
			c0.6,0.1,1.2,0.6,1.2,1.3c0,0.9-0.7,1.4-1.6,1.4C106.9,224.3,106.4,223.9,106.1,223.6z"/>
		<path d="M110,222.1h1.8v0.3H110V222.1z"/>
		<path d="M112.9,218.9h0.5l1.1,3.1c0.1,0.4,0.3,0.8,0.4,1.2l0,0c0.1-0.4,0.3-0.8,0.4-1.2l1.1-3.1h0.5v5.3h-0.4v-3.5
			c0-0.4,0-1,0-1.4l0,0l-0.4,1.2l-1.1,3.1h-0.3l-1.1-3.1l-0.4-1.2l0,0c0,0.4,0,1,0,1.4v3.5h-0.3
			C112.9,224.2,112.9,218.9,112.9,218.9z"/>
		<path d="M118.2,223.3c0-0.8,0.8-1.3,2.5-1.4c0-0.6-0.2-1.2-0.9-1.2c-0.5,0-1,0.3-1.2,0.4l-0.2-0.3c0.3-0.2,0.8-0.5,1.4-0.5
			c0.9,0,1.2,0.7,1.2,1.5v2.5h-0.3v-0.5l0,0c-0.4,0.3-0.9,0.6-1.4,0.6C118.7,224.3,118.2,224,118.2,223.3z M120.7,223.4v-1.3
			c-1.6,0.2-2.1,0.6-2.1,1.2c0,0.6,0.4,0.8,0.8,0.8C119.8,224,120.2,223.8,120.7,223.4z"/>
		<path d="M121.9,225.9l0.1-0.3c0.1,0,0.2,0.1,0.3,0.1c0.5,0,0.8-0.4,1-1l0.1-0.3l-1.6-3.9h0.4l0.9,2.4c0.1,0.3,0.3,0.7,0.4,1.1l0,0
			c0.1-0.3,0.2-0.8,0.4-1.1l0.8-2.4h0.4l-1.5,4.3c-0.2,0.6-0.6,1.3-1.3,1.3C122.1,226,122,225.9,121.9,225.9z"/>
	</g>
	<g>
		<path d="M135.4,223.6l0.2-0.2c0.3,0.3,0.7,0.7,1.4,0.7s1.2-0.4,1.2-1.1c0-0.7-0.5-1.2-1.8-1.2v-0.4c1.2,0,1.6-0.5,1.6-1.1
			s-0.4-1-1-1c-0.5,0-0.9,0.2-1.2,0.6l-0.2-0.2c0.4-0.3,0.8-0.6,1.4-0.6c0.8,0,1.4,0.4,1.4,1.2c0,0.7-0.4,1.1-1,1.3l0,0
			c0.6,0.1,1.2,0.6,1.2,1.3c0,0.9-0.7,1.4-1.6,1.4C136.2,224.3,135.8,223.9,135.4,223.6z"/>
		<path d="M139.4,222.1h1.8v0.3h-1.8V222.1z"/>
		<path d="M141.6,223.5l0.3-0.2c0.3,0.4,0.6,0.6,1,0.6c0.6,0,0.9-0.4,0.9-1.2v-3.8h0.4v3.8c0,0.8-0.4,1.5-1.3,1.5
			C142.3,224.3,141.9,224,141.6,223.5z"/>
		<path d="M145.6,222.8v-2.4h0.4v2.4c0,0.8,0.3,1.2,0.9,1.2c0.5,0,0.8-0.2,1.2-0.8v-2.8h0.4v3.8h-0.3v-0.6l0,0
			c-0.4,0.4-0.8,0.7-1.3,0.7C146,224.3,145.6,223.8,145.6,222.8z"/>
		<path d="M149.9,220.4h0.3v0.6l0,0c0.4-0.4,0.8-0.7,1.3-0.7c0.8,0,1.2,0.5,1.2,1.5v2.5h-0.4v-2.4c0-0.8-0.3-1.2-0.9-1.2
			c-0.5,0-0.8,0.2-1.3,0.7v2.9h-0.4v-3.9H149.9z"/>
	</g>
	<g>
		<path d="M165.4,223.6l0.2-0.2c0.3,0.3,0.7,0.7,1.4,0.7s1.2-0.4,1.2-1.1c0-0.7-0.5-1.2-1.8-1.2v-0.4c1.2,0,1.6-0.5,1.6-1.1
			s-0.4-1-1-1c-0.5,0-0.9,0.2-1.2,0.6l-0.2-0.2c0.4-0.3,0.8-0.6,1.4-0.6c0.8,0,1.4,0.4,1.4,1.2c0,0.7-0.4,1.1-1,1.3l0,0
			c0.6,0.1,1.2,0.6,1.2,1.3c0,0.9-0.7,1.4-1.6,1.4C166.2,224.3,165.8,223.9,165.4,223.6z"/>
		<path d="M169.3,222.1h1.8v0.3h-1.8V222.1z"/>
		<path d="M171.6,223.5l0.3-0.2c0.3,0.4,0.6,0.6,1,0.6c0.6,0,0.9-0.4,0.9-1.2v-3.8h0.4v3.8c0,0.8-0.4,1.5-1.3,1.5
			C172.3,224.3,171.8,224,171.6,223.5z"/>
		<path d="M175.6,222.8v-2.4h0.4v2.4c0,0.8,0.3,1.2,0.9,1.2c0.5,0,0.8-0.2,1.2-0.8v-2.8h0.4v3.8h-0.3v-0.6l0,0
			c-0.4,0.4-0.8,0.7-1.3,0.7C176,224.3,175.6,223.8,175.6,222.8z"/>
		<path d="M179.9,223.7v-5.2h0.4v5.3c0,0.2,0.1,0.2,0.2,0.2h0.1l0.1,0.3c-0.1,0-0.1,0-0.3,0C180.1,224.3,179.9,224.1,179.9,223.7z"
			/>
	</g>
	<g>
		<path d="M192.9,223.6l0.2-0.2c0.3,0.3,0.7,0.7,1.4,0.7s1.2-0.4,1.2-1.1c0-0.7-0.5-1.2-1.8-1.2v-0.4c1.2,0,1.6-0.5,1.6-1.1
			s-0.4-1-1-1c-0.5,0-0.9,0.2-1.2,0.6l-0.2-0.2c0.4-0.3,0.8-0.6,1.4-0.6c0.8,0,1.4,0.4,1.4,1.2c0,0.7-0.4,1.1-1,1.3l0,0
			c0.6,0.1,1.2,0.6,1.2,1.3c0,0.9-0.7,1.4-1.6,1.4C193.7,224.3,193.3,223.9,192.9,223.6z"/>
		<path d="M196.9,222.1h1.8v0.3h-1.8V222.1z"/>
		<path d="M200.8,218.9h0.4l1.9,5.3h-0.4l-0.6-1.8H200l-0.6,1.8H199L200.8,218.9z M200.1,222.1h1.9l-0.3-1c-0.2-0.6-0.4-1.2-0.6-1.8
			l0,0c-0.2,0.6-0.4,1.2-0.6,1.8L200.1,222.1z"/>
		<path d="M203.7,222.8v-2.4h0.4v2.4c0,0.8,0.3,1.2,0.9,1.2c0.5,0,0.8-0.2,1.2-0.8v-2.8h0.4v3.8h-0.3v-0.6l0,0
			c-0.4,0.4-0.8,0.7-1.3,0.7C204.1,224.3,203.7,223.8,203.7,222.8z"/>
		<path d="M207.7,225c0-0.3,0.2-0.7,0.6-0.9l0,0c-0.2-0.1-0.3-0.3-0.3-0.6s0.2-0.6,0.4-0.7l0,0c-0.2-0.2-0.5-0.6-0.5-1.1
			c0-0.8,0.6-1.4,1.4-1.4c0.2,0,0.4,0,0.5,0.1h1.3v0.3h-0.9c0.2,0.2,0.4,0.6,0.4,1c0,0.8-0.6,1.4-1.3,1.4c-0.2,0-0.5-0.1-0.6-0.2
			c-0.2,0.1-0.3,0.3-0.3,0.6s0.2,0.5,0.7,0.5h0.8c0.9,0,1.3,0.3,1.3,0.9c0,0.7-0.7,1.3-1.8,1.3C208.3,226.1,207.7,225.6,207.7,225z
			 M210.7,224.8c0-0.4-0.3-0.6-0.9-0.6H209c-0.1,0-0.3,0-0.5-0.1c-0.4,0.2-0.5,0.5-0.5,0.8c0,0.5,0.5,0.8,1.3,0.8
			C210.2,225.8,210.7,225.3,210.7,224.8z M210.2,221.6c0-0.6-0.4-1.1-1-1.1c-0.5,0-1,0.4-1,1.1c0,0.6,0.5,1.1,1,1.1
			C209.8,222.7,210.2,222.3,210.2,221.6z"/>
	</g>
	<g>
		<path d="M221.7,223.6l0.2-0.2c0.3,0.3,0.7,0.7,1.4,0.7s1.2-0.4,1.2-1.1c0-0.7-0.5-1.2-1.8-1.2v-0.4c1.2,0,1.6-0.5,1.6-1.1
			s-0.4-1-1-1c-0.5,0-0.9,0.2-1.2,0.6l-0.2-0.2c0.4-0.3,0.8-0.6,1.4-0.6c0.8,0,1.4,0.4,1.4,1.2c0,0.7-0.4,1.1-1,1.3l0,0
			c0.6,0.1,1.2,0.6,1.2,1.3c0,0.9-0.7,1.4-1.6,1.4C222.5,224.3,222.1,223.9,221.7,223.6z"/>
		<path d="M225.7,222.1h1.8v0.3h-1.8V222.1z"/>
		<path d="M228,223.5l0.2-0.3c0.4,0.4,0.9,0.7,1.5,0.7c0.8,0,1.3-0.4,1.3-1.1c0-0.7-0.4-0.9-0.9-1.1l-0.8-0.4
			c-0.5-0.2-1.1-0.5-1.1-1.3s0.7-1.3,1.5-1.3c0.6,0,1.1,0.3,1.5,0.6l-0.2,0.2c-0.3-0.3-0.7-0.5-1.3-0.5c-0.7,0-1.2,0.4-1.2,0.9
			c0,0.6,0.5,0.8,0.9,1l0.8,0.4c0.6,0.3,1.1,0.6,1.1,1.4s-0.7,1.4-1.7,1.4C229,224.3,228.4,224,228,223.5z"/>
		<path d="M232.2,222.3c0-1.3,0.8-2,1.7-2s1.5,0.6,1.5,1.8c0,0.1,0,0.2,0,0.3h-2.8c0,1,0.6,1.7,1.4,1.7c0.4,0,0.7-0.1,1-0.3l0.1,0.3
			c-0.3,0.2-0.6,0.4-1.2,0.4C233,224.3,232.2,223.6,232.2,222.3z M235,222.1c0-1-0.4-1.5-1.1-1.5c-0.7,0-1.2,0.6-1.3,1.5H235z"/>
		<path d="M236.4,220.4h0.3v0.5l0,0c0.4-0.3,0.8-0.6,1.3-0.6c1,0,1.5,0.8,1.5,2c0,1.3-0.8,2.1-1.7,2.1c-0.4,0-0.8-0.2-1.2-0.5v2.1
			h-0.4v-5.6H236.4z M239.2,222.2c0-0.9-0.3-1.6-1.2-1.6c-0.4,0-0.8,0.2-1.3,0.6v2.3c0.4,0.4,0.8,0.5,1.1,0.5
			C238.7,224,239.2,223.3,239.2,222.2z"/>
	</g>
	<g>
		<path d="M251.1,223.6l0.2-0.2c0.3,0.3,0.7,0.7,1.4,0.7c0.7,0,1.2-0.4,1.2-1.1c0-0.7-0.5-1.2-1.8-1.2v-0.4c1.2,0,1.6-0.5,1.6-1.1
			s-0.4-1-1-1c-0.5,0-0.9,0.2-1.2,0.6l-0.2-0.2c0.4-0.3,0.8-0.6,1.4-0.6c0.8,0,1.4,0.4,1.4,1.2c0,0.7-0.4,1.1-1,1.3l0,0
			c0.6,0.1,1.2,0.6,1.2,1.3c0,0.9-0.7,1.4-1.6,1.4C251.9,224.3,251.4,223.9,251.1,223.6z"/>
		<path d="M255,222.1h1.8v0.3H255V222.1z"/>
		<path d="M257.5,221.6c0-1.7,0.9-2.7,2.2-2.7c1.3,0,2.2,1,2.2,2.7s-0.9,2.8-2.2,2.8C258.4,224.3,257.5,223.2,257.5,221.6z
			 M261.5,221.6c0-1.5-0.7-2.4-1.8-2.4s-1.8,0.9-1.8,2.4s0.7,2.4,1.8,2.4S261.5,223,261.5,221.6z"/>
		<path d="M262.7,222.3c0-1.3,0.8-2,1.8-2c0.5,0,0.9,0.2,1.1,0.5l-0.2,0.2c-0.2-0.2-0.5-0.4-0.9-0.4c-0.8,0-1.4,0.7-1.4,1.7
			s0.6,1.7,1.4,1.7c0.4,0,0.8-0.2,1-0.4l0.2,0.2c-0.3,0.3-0.7,0.5-1.2,0.5C263.4,224.3,262.7,223.6,262.7,222.3z"/>
		<path d="M266.6,223.1v-2.5H266v-0.2h0.6v-1.1h0.3v1.1h1.1v0.3h-1.1v2.5c0,0.5,0.1,0.8,0.6,0.8c0.1,0,0.3-0.1,0.5-0.1l0.1,0.3
			c-0.2,0.1-0.5,0.1-0.6,0.1C266.8,224.3,266.6,223.8,266.6,223.1z"/>
	</g>
	<g>
		<path d="M279.1,223.6l0.2-0.2c0.3,0.3,0.7,0.7,1.4,0.7c0.7,0,1.2-0.4,1.2-1.1c0-0.7-0.5-1.2-1.8-1.2v-0.4c1.2,0,1.6-0.5,1.6-1.1
			s-0.4-1-1-1c-0.5,0-0.9,0.2-1.2,0.6l-0.2-0.2c0.4-0.3,0.8-0.6,1.4-0.6c0.8,0,1.4,0.4,1.4,1.2c0,0.7-0.4,1.1-1,1.3l0,0
			c0.6,0.1,1.2,0.6,1.2,1.3c0,0.9-0.7,1.4-1.6,1.4C279.9,224.3,279.4,223.9,279.1,223.6z"/>
		<path d="M283,222.1h1.8v0.3H283V222.1z"/>
		<path d="M285.8,218.9h0.4l2.2,3.7l0.6,1l0,0c0-0.5,0-1,0-1.5v-3.2h0.4v5.3H289l-2.2-3.7l-0.6-1l0,0c0,0.5,0,1,0,1.5v3.3h-0.4
			V218.9z"/>
		<path d="M290.6,222.3c0-1.3,0.8-2,1.7-2c0.9,0,1.7,0.7,1.7,2s-0.8,2-1.7,2C291.4,224.3,290.6,223.6,290.6,222.3z M293.6,222.3
			c0-1-0.6-1.7-1.4-1.7s-1.4,0.7-1.4,1.7s0.6,1.7,1.4,1.7S293.6,223.3,293.6,222.3z"/>
		<path d="M294.5,220.4h0.4l0.9,2.4c0.1,0.4,0.3,0.8,0.4,1.1l0,0c0.1-0.4,0.3-0.7,0.4-1.1l0.9-2.4h0.4l-1.4,3.8h-0.4L294.5,220.4z"
			/>
	</g>
	<g>
		<path d="M308.2,223.6l0.2-0.2c0.3,0.3,0.7,0.7,1.4,0.7c0.7,0,1.2-0.4,1.2-1.1c0-0.7-0.5-1.2-1.8-1.2v-0.4c1.2,0,1.6-0.5,1.6-1.1
			s-0.4-1-1-1c-0.5,0-0.9,0.2-1.2,0.6l-0.2-0.2c0.4-0.3,0.8-0.6,1.4-0.6c0.8,0,1.4,0.4,1.4,1.2c0,0.7-0.4,1.1-1,1.3l0,0
			c0.6,0.1,1.2,0.6,1.2,1.3c0,0.9-0.7,1.4-1.6,1.4C309,224.3,308.5,223.9,308.2,223.6z"/>
		<path d="M312.1,222.1h1.8v0.3h-1.8V222.1z"/>
		<path d="M314.9,218.9h1.2c1.6,0,2.4,1,2.4,2.6s-0.8,2.7-2.4,2.7h-1.2V218.9z M316.1,223.9c1.4,0,2-1,2-2.3c0-1.4-0.6-2.3-2-2.3
			h-0.8v4.6H316.1z"/>
		<path d="M319.4,222.3c0-1.3,0.8-2,1.7-2c0.9,0,1.5,0.6,1.5,1.8c0,0.1,0,0.2,0,0.3h-2.8c0,1,0.6,1.7,1.4,1.7c0.4,0,0.7-0.1,1-0.3
			l0.1,0.3c-0.3,0.2-0.6,0.4-1.2,0.4C320.2,224.3,319.4,223.6,319.4,222.3z M322.2,222.1c0-1-0.4-1.5-1.1-1.5s-1.2,0.6-1.3,1.5
			H322.2z"/>
		<path d="M323.3,222.3c0-1.3,0.8-2,1.8-2c0.5,0,0.9,0.2,1.1,0.5L326,221c-0.2-0.2-0.5-0.4-0.9-0.4c-0.8,0-1.4,0.7-1.4,1.7
			s0.6,1.7,1.4,1.7c0.4,0,0.8-0.2,1-0.4l0.2,0.2c-0.3,0.3-0.7,0.5-1.2,0.5C324,224.3,323.3,223.6,323.3,222.3z"/>
	</g>
	<g>
		<path d="M337.3,223.6l0.2-0.2c0.3,0.3,0.7,0.7,1.4,0.7c0.7,0,1.2-0.4,1.2-1.1c0-0.7-0.5-1.2-1.8-1.2v-0.4c1.2,0,1.6-0.5,1.6-1.1
			s-0.4-1-1-1c-0.5,0-0.9,0.2-1.2,0.6l-0.2-0.2c0.4-0.3,0.8-0.6,1.4-0.6c0.8,0,1.4,0.4,1.4,1.2c0,0.7-0.4,1.1-1,1.3l0,0
			c0.6,0.1,1.2,0.6,1.2,1.3c0,0.9-0.7,1.4-1.6,1.4C338.1,224.3,337.6,223.9,337.3,223.6z"/>
		<path d="M341.2,222.1h1.8v0.3h-1.8V222.1z"/>
		<path d="M343.4,223.5l0.3-0.2c0.3,0.4,0.6,0.6,1,0.6c0.6,0,0.9-0.4,0.9-1.2v-3.8h0.4v3.8c0,0.8-0.4,1.5-1.3,1.5
			C344.1,224.3,343.7,224,343.4,223.5z"/>
		<path d="M347.2,223.3c0-0.8,0.8-1.3,2.5-1.4c0-0.6-0.2-1.2-0.9-1.2c-0.5,0-1,0.3-1.2,0.4l-0.2-0.3c0.3-0.2,0.8-0.5,1.4-0.5
			c0.9,0,1.2,0.7,1.2,1.5v2.5h-0.3v-0.5l0,0c-0.4,0.3-0.9,0.6-1.4,0.6C347.8,224.3,347.2,224,347.2,223.3z M349.7,223.4v-1.3
			c-1.6,0.2-2.1,0.6-2.1,1.2c0,0.6,0.4,0.8,0.8,0.8C348.9,224,349.2,223.8,349.7,223.4z"/>
		<path d="M351.4,220.4h0.3v0.6l0,0c0.4-0.4,0.8-0.7,1.3-0.7c0.8,0,1.2,0.5,1.2,1.5v2.5h-0.4v-2.4c0-0.8-0.3-1.2-0.9-1.2
			c-0.5,0-0.8,0.2-1.3,0.7v2.9h-0.4v-3.9H351.4z"/>
	</g>
	<g>
		<path d="M366,223.6l0.2-0.2c0.3,0.3,0.7,0.7,1.4,0.7c0.7,0,1.2-0.4,1.2-1.1c0-0.7-0.5-1.2-1.8-1.2v-0.4c1.2,0,1.6-0.5,1.6-1.1
			s-0.4-1-1-1c-0.5,0-0.9,0.2-1.2,0.6l-0.2-0.2c0.4-0.3,0.8-0.6,1.4-0.6c0.8,0,1.4,0.4,1.4,1.2c0,0.7-0.4,1.1-1,1.3l0,0
			c0.6,0.1,1.2,0.6,1.2,1.3c0,0.9-0.7,1.4-1.6,1.4C366.8,224.3,366.3,223.9,366,223.6z"/>
		<path d="M369.9,222.1h1.8v0.3h-1.8V222.1z"/>
		<path d="M372.7,218.9h2.9v0.3h-2.5v2.1h2.1v0.3h-2.1v2.5h-0.4V218.9z"/>
		<path d="M376.1,222.3c0-1.3,0.8-2,1.7-2c0.9,0,1.5,0.6,1.5,1.8c0,0.1,0,0.2,0,0.3h-2.8c0,1,0.6,1.7,1.4,1.7c0.4,0,0.7-0.1,1-0.3
			l0.1,0.3c-0.3,0.2-0.6,0.4-1.2,0.4C376.9,224.3,376.1,223.6,376.1,222.3z M378.9,222.1c0-1-0.4-1.5-1.1-1.5s-1.2,0.6-1.3,1.5
			H378.9z"/>
		<path d="M380.6,223.8L380.6,223.8l-0.1,0.4h-0.3v-5.7h0.4v1.7v0.8c0.4-0.3,0.9-0.6,1.3-0.6c1,0,1.5,0.8,1.5,2
			c0,1.3-0.8,2.1-1.7,2.1C381.4,224.3,381,224.1,380.6,223.8z M383.1,222.2c0-0.9-0.3-1.6-1.2-1.6c-0.4,0-0.8,0.2-1.3,0.6v2.3
			c0.4,0.4,0.8,0.5,1.1,0.5C382.6,224,383.1,223.3,383.1,222.2z"/>
	</g>
	<g>
		<path d="M394.7,223.6l0.2-0.2c0.3,0.3,0.7,0.7,1.4,0.7c0.7,0,1.2-0.4,1.2-1.1c0-0.7-0.5-1.2-1.8-1.2v-0.4c1.2,0,1.6-0.5,1.6-1.1
			s-0.4-1-1-1c-0.5,0-0.9,0.2-1.2,0.6l-0.2-0.2c0.4-0.3,0.8-0.6,1.4-0.6c0.8,0,1.4,0.4,1.4,1.2c0,0.7-0.4,1.1-1,1.3l0,0
			c0.6,0.1,1.2,0.6,1.2,1.3c0,0.9-0.7,1.4-1.6,1.4C395.5,224.3,395,223.9,394.7,223.6z"/>
		<path d="M398.6,222.1h1.8v0.3h-1.8V222.1z"/>
		<path d="M401.4,218.9h0.5l1.1,3.1c0.1,0.4,0.3,0.8,0.4,1.2l0,0c0.1-0.4,0.3-0.8,0.4-1.2l1.1-3.1h0.5v5.3H405v-3.5c0-0.4,0-1,0-1.4
			l0,0l-0.4,1.2l-1.1,3.1h-0.3l-1.1-3.1l-0.4-1.2l0,0c0,0.4,0,1,0,1.4v3.5h-0.3L401.4,218.9L401.4,218.9z"/>
		<path d="M406.8,223.3c0-0.8,0.8-1.3,2.5-1.4c0-0.6-0.2-1.2-0.9-1.2c-0.5,0-1,0.3-1.2,0.4l-0.2-0.3c0.3-0.2,0.8-0.5,1.4-0.5
			c0.9,0,1.2,0.7,1.2,1.5v2.5h-0.3v-0.5l0,0c-0.4,0.3-0.9,0.6-1.4,0.6C407.3,224.3,406.8,224,406.8,223.3z M409.3,223.4v-1.3
			c-1.6,0.2-2.1,0.6-2.1,1.2c0,0.6,0.4,0.8,0.8,0.8C408.4,224,408.8,223.8,409.3,223.4z"/>
		<path d="M411,220.4h0.3v0.7l0,0c0.3-0.5,0.6-0.8,1.1-0.8c0.1,0,0.3,0,0.4,0.1l-0.1,0.3c-0.1,0-0.2-0.1-0.4-0.1c-0.3,0-0.8,0.3-1,1
			v2.6h-0.4v-3.8H411z"/>
	</g>
	<line class="st3" x1="85.3" y1="56.3" x2="88.1" y2="56.3"/>
	<line class="st3" x1="85.3" y1="75.7" x2="88.1" y2="75.7"/>
	<line class="st3" x1="85.3" y1="95.2" x2="88.1" y2="95.2"/>
	<line class="st3" x1="85.3" y1="114.7" x2="88.1" y2="114.7"/>
	<line class="st3" x1="85.3" y1="134.2" x2="88.1" y2="134.2"/>
	<line class="st3" x1="85.3" y1="153.6" x2="88.1" y2="153.6"/>
	<line class="st3" x1="85.3" y1="173.1" x2="88.1" y2="173.1"/>
	<line class="st3" x1="85.3" y1="192.6" x2="88.1" y2="192.6"/>
	<line class="st3" x1="116.7" y1="211.9" x2="116.7" y2="214.8"/>
	<line class="st3" x1="145.4" y1="211.9" x2="145.4" y2="214.8"/>
	<line class="st3" x1="174.1" y1="211.9" x2="174.1" y2="214.8"/>
	<line class="st3" x1="202.8" y1="211.9" x2="202.8" y2="214.8"/>
	<line class="st3" x1="231.5" y1="211.9" x2="231.5" y2="214.8"/>
	<line class="st3" x1="260.2" y1="211.9" x2="260.2" y2="214.8"/>
	<line class="st3" x1="288.8" y1="211.9" x2="288.8" y2="214.8"/>
	<line class="st3" x1="317.5" y1="211.9" x2="317.5" y2="214.8"/>
	<line class="st3" x1="346.2" y1="211.9" x2="346.2" y2="214.8"/>
	<line class="st3" x1="374.9" y1="211.9" x2="374.9" y2="214.8"/>
	<line class="st3" x1="403.6" y1="211.9" x2="403.6" y2="214.8"/>
	<line class="st3" x1="88" y1="214.8" x2="88" y2="56.1"/>
	<line class="st3" x1="85.3" y1="212.1" x2="427.8" y2="212.1"/>
	<path class="st4" d="M88.6,69.1v4.1l5,3.9l1.6-2.3l1.2,12.9h4.8l1.7-12.8l1-1.1l2.8,2.9l1-2l1.8,15.1l3.7-7l3.2,14.2l0.6,7.5
		l4.3-10.6l2.2-1.5h0.9l2.6,5.8l1.1-3.3h1.5l3.3-4.3h0.9l1.3,9.2l2.2-3.9l4-3.8l0.6-2.7l1.9,1.5h2.6l1.5-9.8l0.9-3.2h1.1l0.6,2.2
		l3.7-4.5h1.1l1.9,4.6l3.1,8.2v7.4h1.5l2.3,6.2l2.7,4.4l0.6,4.3h1l1.9-3.6h0.6l3.2,5.6v11.7l1.7,3.6l4,4.8l1.8,15.3h0.7l1-2.6h0.3
		l2.1,7.1h1l2.6-4.5l0.7-5.6h0.9c0.2,0,2,1.5,2,1.5h0.5l1.5-3.7h0.7l0.8,2.9l2.8,3h0.8l0.4-3.3h1.1l1,1.1l1.1-2.9h0.7l1.8,5.3h0.7
		l2-8.6h0.7l0.6,12.6l3.9,10.4l0.3,14h1l4.3-4.8l1.1-5.3l1.9-1.7l0.6-6.5c0,0,3.1-2.8,3.2-2.8h1.3l0.8,3.3h0.8l1-0.3l2.8,3.7
		l0.3,3.5h1.6l0.6-2.9h0.8l0.3,5.8h3v7.9l2.9-3.1l0.7,4.3l2.8,4.1h0.6l0.6-8.5l2-7.4l3.3-9.5h1.1v-2.3l5.4-7.8l0.8-8.8h0.9v2.1h0.9
		v4.4h0.6v-6.7h0.7v4.8h2.7l1.5-4.4l0.6-1.1h0.6v6.7h0.6l0.3-2.7l0.4-1h1.1l2.5,3.8h1l1.7-5.4l3.3-3.8h0.4v2.5h0.8l0.3-4.5h0.8
		l0.2,2.1l0.7,0.1l1,3.8h0.8l1.8-1.3h0.5l0.4,7.8l1.5,4.9h0.7l0.5-7.6h0.4l2.4,10.4h0.6l0.4-2h0.6l1.1,6.4h0.7l0.5-4.5h1.3l0.3,0.9
		h1.6l0.7-3.8h0.7l0.3,4.5h0.7v-11.7h1.6l2.7-5h1l5,14.5l0.8,6h1.1l1-2.6l1.2-10.1l3.1-5.4l0.3-6.9h0.5l1.9,4.1h0.5l0.4-1.3h0.6
		l3.9,4.6h0.6l0.3-1.8h0.8l0.3,13.7h0.7l3.4-4h1.9l3.3,7h0.8l1.7-2.1l5.8,9.7h0.9l4.4-7.8h1.5l1.5,7.3l4.1,0.1l2.3-3.6l0.9-8.1h1.1
		l0.2,0.6h1.8l0.2-3.3l1.9-1.1l4.1-9.5h0.5l0.6,2h0.9l0.5-4.6l3.5-7h1.2l1.8,6.7l5.3,10.1l0.3,3h1l0.4-4.1h1.9l0.2,0.7h1.8l1.7-8.3
		h1.4l4.5-4.6l2.5-9.7h0.7l1.9,5.1h1.1l0.8-1h0.7l1,1.6l0.3,8.7h0.8l2.3-6.9l1.4-11.8h1.5l0.7,3.7h4.3l1.1-6.1h0.9l0.5,3.2l2.6,3.1
		h0.6l0.7-6.8l1.6-4.9h0.7"/>
	<g>
		<path d="M111.1,246.1h-1.7v-0.3h3.7v0.3h-1.7v4.9H111L111.1,246.1L111.1,246.1z"/>
		<path d="M113.3,249.2c0-1.3,0.8-2,1.7-2c0.9,0,1.7,0.7,1.7,2s-0.8,2-1.7,2S113.3,250.4,113.3,249.2z M116.4,249.2
			c0-1-0.6-1.7-1.4-1.7s-1.4,0.7-1.4,1.7s0.6,1.7,1.4,1.7S116.4,250.2,116.4,249.2z"/>
		<path d="M117.9,250v-2.5h-0.6v-0.3h0.6v-1.1h0.3v1.1h1.1v0.3h-1.1v2.5c0,0.5,0.1,0.8,0.6,0.8c0.1,0,0.3-0.1,0.5-0.1l0.1,0.3
			c-0.2,0.1-0.5,0.1-0.6,0.1C118.2,251.2,117.9,250.7,117.9,250z"/>
		<path d="M119.9,250.1c0-0.8,0.8-1.3,2.5-1.4c0-0.6-0.2-1.2-0.9-1.2c-0.5,0-1,0.3-1.2,0.4l-0.2-0.3c0.3-0.2,0.8-0.5,1.4-0.5
			c0.9,0,1.2,0.7,1.2,1.5v2.5h-0.3v-0.5l0,0c-0.4,0.3-0.9,0.6-1.4,0.6C120.4,251.2,119.9,250.8,119.9,250.1z M122.4,250.2v-1.3
			c-1.6,0.2-2.1,0.6-2.1,1.2c0,0.6,0.4,0.8,0.8,0.8S121.9,250.6,122.4,250.2z"/>
		<path d="M124.1,250.6v-5.2h0.4v5.3c0,0.2,0.1,0.2,0.2,0.2h0.1l0.1,0.3c-0.1,0-0.1,0-0.3,0C124.3,251.2,124.1,251,124.1,250.6z"/>
		<path d="M127.2,250.4l0.2-0.3c0.4,0.4,0.9,0.7,1.5,0.7c0.8,0,1.3-0.4,1.3-1.1c0-0.7-0.4-0.9-0.9-1.1l-0.8-0.4
			c-0.5-0.2-1.1-0.5-1.1-1.3s0.7-1.3,1.5-1.3c0.6,0,1.1,0.3,1.5,0.6l-0.2,0.2c-0.3-0.3-0.7-0.5-1.3-0.5c-0.7,0-1.2,0.4-1.2,0.9
			c0,0.6,0.5,0.8,0.9,1l0.8,0.4c0.6,0.3,1.1,0.6,1.1,1.4s-0.7,1.4-1.7,1.4C128.2,251.2,127.6,250.8,127.2,250.4z"/>
		<path d="M131.7,250v-2.5h-0.6v-0.3h0.6v-1.1h0.3v1.1h1.1v0.3H132v2.5c0,0.5,0.1,0.8,0.6,0.8c0.1,0,0.3-0.1,0.5-0.1l0.1,0.3
			c-0.2,0.1-0.5,0.1-0.6,0.1C131.9,251.2,131.7,250.7,131.7,250z"/>
		<path d="M133.7,249.2c0-1.3,0.8-2,1.7-2s1.7,0.7,1.7,2s-0.8,2-1.7,2S133.7,250.4,133.7,249.2z M136.8,249.2c0-1-0.6-1.7-1.4-1.7
			s-1.4,0.7-1.4,1.7s0.6,1.7,1.4,1.7S136.8,250.2,136.8,249.2z"/>
		<path d="M138,249.2c0-1.3,0.8-2,1.8-2c0.5,0,0.9,0.2,1.1,0.5l-0.2,0.2c-0.2-0.2-0.5-0.4-0.9-0.4c-0.8,0-1.4,0.7-1.4,1.7
			s0.6,1.7,1.4,1.7c0.4,0,0.8-0.2,1-0.4l0.2,0.2c-0.3,0.3-0.7,0.5-1.2,0.5C138.7,251.2,138,250.4,138,249.2z"/>
		<path d="M141.9,245.3h0.4v4.2l0,0l1.9-2.3h0.4l-1.2,1.5l1.5,2.3h-0.4l-1.3-2.1l-0.9,1v1h-0.4V245.3z"/>
		<path d="M145.1,250.6l0.2-0.3c0.3,0.3,0.7,0.5,1.2,0.5c0.6,0,0.9-0.4,0.9-0.8c0-0.5-0.5-0.7-0.9-0.8c-0.6-0.2-1.2-0.4-1.2-1.1
			c0-0.6,0.4-1,1.2-1c0.4,0,0.8,0.2,1.1,0.4l-0.2,0.2c-0.3-0.2-0.5-0.3-0.9-0.3c-0.6,0-0.9,0.3-0.9,0.7s0.4,0.6,0.9,0.8
			c0.6,0.2,1.3,0.4,1.3,1.2c0,0.6-0.5,1.1-1.3,1.1C146,251.2,145.5,250.9,145.1,250.6z"/>
	</g>
	<rect x="88" y="245.2" class="st0" width="17" height="5.7"/>
	<g>
		<path d="M189.6,250.9l3-4.7h-2.8v-0.3h3.2v0.2l-3,4.7h3.1v0.3h-3.5V250.9z"/>
		<path d="M194.2,247.2h0.3v0.6l0,0c0.4-0.4,0.8-0.7,1.3-0.7c0.8,0,1.2,0.5,1.2,1.5v2.5h-0.3v-2.4c0-0.8-0.3-1.2-0.9-1.2
			c-0.5,0-0.8,0.2-1.3,0.7v2.9h-0.4L194.2,247.2L194.2,247.2z"/>
		<path d="M200.1,245.8h0.4v4.9h2.4v0.3h-2.8L200.1,245.8L200.1,245.8z"/>
		<path d="M203.9,245.8h0.5l1.1,3.1c0.1,0.4,0.3,0.8,0.4,1.2l0,0c0.1-0.4,0.3-0.8,0.4-1.2l1.1-3.1h0.5v5.3h-0.4v-3.5
			c0-0.4,0-1,0-1.4l0,0l-0.4,1.2l-1.1,3.1h-0.3l-1.1-3.1l-0.4-1.2l0,0c0,0.4,0,1,0,1.4v3.5h-0.3V245.8z"/>
		<path d="M209.5,245.8h2.9v0.3h-2.5v2h2.1v0.3h-2.1v2.3h2.6v0.3h-3V245.8z"/>
		<path d="M214.8,250.4l0.2-0.3c0.4,0.4,0.9,0.7,1.5,0.7c0.8,0,1.3-0.4,1.3-1.1c0-0.7-0.4-0.9-0.9-1.1l-0.8-0.4
			c-0.5-0.2-1.1-0.5-1.1-1.3s0.7-1.3,1.5-1.3c0.6,0,1.1,0.3,1.5,0.6l-0.2,0.2c-0.3-0.3-0.7-0.5-1.3-0.5c-0.7,0-1.2,0.4-1.2,0.9
			c0,0.6,0.5,0.8,0.9,1l0.8,0.4c0.6,0.3,1.1,0.6,1.1,1.4s-0.7,1.4-1.7,1.4C215.9,251.2,215.3,250.8,214.8,250.4z"/>
		<path d="M219.3,250v-2.5h-0.6v-0.3h0.6v-1.1h0.3v1.1h1.1v0.3h-1v2.5c0,0.5,0.1,0.8,0.6,0.8c0.1,0,0.3-0.1,0.5-0.1l0.1,0.3
			c-0.2,0.1-0.5,0.1-0.6,0.1C219.5,251.2,219.3,250.7,219.3,250z"/>
		<path d="M221.3,249.2c0-1.3,0.8-2,1.7-2s1.7,0.7,1.7,2s-0.8,2-1.7,2C222.1,251.2,221.3,250.4,221.3,249.2z M224.4,249.2
			c0-1-0.6-1.7-1.4-1.7s-1.4,0.7-1.4,1.7s0.6,1.7,1.4,1.7S224.4,250.2,224.4,249.2z"/>
		<path d="M225.6,249.2c0-1.3,0.8-2,1.8-2c0.5,0,0.9,0.2,1.1,0.5l-0.2,0.2c-0.2-0.2-0.5-0.4-0.9-0.4c-0.8,0-1.4,0.7-1.4,1.7
			s0.6,1.7,1.4,1.7c0.4,0,0.8-0.2,1-0.4l0.2,0.2c-0.3,0.3-0.7,0.5-1.2,0.5C226.3,251.2,225.6,250.4,225.6,249.2z"/>
		<path d="M229.5,245.3h0.4v4.2l0,0l1.9-2.3h0.4l-1.2,1.5l1.5,2.3h-0.4l-1.3-2.1l-0.9,1v1h-0.4V245.3z"/>
		<path d="M232.7,250.6l0.2-0.3c0.3,0.3,0.7,0.5,1.2,0.5c0.6,0,0.9-0.4,0.9-0.8c0-0.5-0.5-0.7-0.9-0.8c-0.6-0.2-1.2-0.4-1.2-1.1
			c0-0.6,0.4-1,1.2-1c0.4,0,0.8,0.2,1.1,0.4l-0.2,0.2c-0.3-0.2-0.5-0.3-0.9-0.3c-0.6,0-0.9,0.3-0.9,0.7s0.4,0.6,0.9,0.8
			c0.6,0.2,1.3,0.4,1.3,1.2c0,0.6-0.5,1.1-1.3,1.1C233.6,251.2,233.1,250.9,232.7,250.6z"/>
	</g>
	<rect x="167.7" y="245.2" class="st1" width="17" height="5.7"/>
	<rect x="249.6" y="245.2" class="st2" width="17" height="5.7"/>
	<g>
		<path d="M271.3,250.9l3-4.7h-2.8v-0.3h3.2v0.2l-3,4.7h3.1v0.3h-3.5L271.3,250.9L271.3,250.9z"/>
		<path d="M275.9,247.2h0.3v0.6l0,0c0.4-0.4,0.8-0.7,1.3-0.7c0.8,0,1.2,0.5,1.2,1.5v2.5h-0.4v-2.4c0-0.8-0.3-1.2-0.9-1.2
			c-0.5,0-0.8,0.2-1.3,0.7v2.9h-0.4v-3.9H275.9z"/>
		<path d="M281.4,250.4l0.2-0.3c0.4,0.4,0.9,0.7,1.5,0.7c0.8,0,1.3-0.4,1.3-1.1c0-0.7-0.4-0.9-0.9-1.1l-0.8-0.4
			c-0.5-0.2-1.1-0.5-1.1-1.3s0.7-1.3,1.5-1.3c0.6,0,1.1,0.3,1.5,0.6l-0.2,0.2c-0.3-0.3-0.7-0.5-1.3-0.5c-0.7,0-1.2,0.4-1.2,0.9
			c0,0.6,0.5,0.8,0.9,1l0.8,0.4c0.6,0.3,1.1,0.6,1.1,1.4S284,251,283,251C282.4,251.2,281.8,250.8,281.4,250.4z"/>
		<path d="M286,245.8h0.4v2.3h2.8v-2.3h0.4v5.3h-0.4v-2.7h-2.8v2.6H286V245.8z"/>
		<path d="M291.1,245.8h2.9v0.3h-2.5v2.1h2.1v0.3h-2.1v2.5h-0.4V245.8z"/>
		<path d="M294.9,245.8h2.9v0.3h-2.5v2h2.1v0.3h-2.1v2.3h2.6v0.3h-3V245.8z"/>
		<path d="M300.2,250.4l0.2-0.3c0.4,0.4,0.9,0.7,1.5,0.7c0.8,0,1.3-0.4,1.3-1.1c0-0.7-0.4-0.9-0.9-1.1l-0.8-0.4
			c-0.5-0.2-1.1-0.5-1.1-1.3s0.7-1.3,1.5-1.3c0.6,0,1.1,0.3,1.5,0.6l-0.2,0.2c-0.3-0.3-0.7-0.5-1.3-0.5c-0.7,0-1.2,0.4-1.2,0.9
			c0,0.6,0.5,0.8,0.9,1l0.8,0.4c0.6,0.3,1.1,0.6,1.1,1.4s-0.7,1.4-1.7,1.4C301.2,251.2,300.6,250.8,300.2,250.4z"/>
		<path d="M304.7,250v-2.5h-0.6v-0.3h0.6v-1.1h0.3v1.1h1.1v0.3H305v2.5c0,0.5,0.1,0.8,0.6,0.8c0.1,0,0.3-0.1,0.5-0.1l0.1,0.3
			c-0.2,0.1-0.5,0.1-0.6,0.1C304.9,251.2,304.7,250.7,304.7,250z"/>
		<path d="M306.7,249.2c0-1.3,0.8-2,1.7-2c0.9,0,1.7,0.7,1.7,2s-0.8,2-1.7,2S306.7,250.4,306.7,249.2z M309.8,249.2
			c0-1-0.6-1.7-1.4-1.7s-1.4,0.7-1.4,1.7s0.6,1.7,1.4,1.7S309.8,250.2,309.8,249.2z"/>
		<path d="M311,249.2c0-1.3,0.8-2,1.8-2c0.5,0,0.9,0.2,1.1,0.5l-0.2,0.2c-0.2-0.2-0.5-0.4-0.9-0.4c-0.8,0-1.4,0.7-1.4,1.7
			s0.6,1.7,1.4,1.7c0.4,0,0.8-0.2,1-0.4l0.2,0.2c-0.3,0.3-0.7,0.5-1.2,0.5C311.7,251.2,311,250.4,311,249.2z"/>
		<path d="M314.9,245.3h0.4v4.2l0,0l1.9-2.3h0.4l-1.2,1.5l1.5,2.3h-0.4l-1.3-2.1l-0.9,1v1h-0.4V245.3z"/>
		<path d="M318.1,250.6l0.2-0.3c0.3,0.3,0.7,0.5,1.2,0.5c0.6,0,0.9-0.4,0.9-0.8c0-0.5-0.5-0.7-0.9-0.8c-0.6-0.2-1.2-0.4-1.2-1.1
			c0-0.6,0.4-1,1.2-1c0.4,0,0.8,0.2,1.1,0.4l-0.2,0.2c-0.3-0.2-0.5-0.3-0.9-0.3c-0.6,0-0.9,0.3-0.9,0.7s0.4,0.6,0.9,0.8
			c0.6,0.2,1.3,0.4,1.3,1.2c0,0.6-0.5,1.1-1.3,1.1C318.9,251.2,318.4,250.9,318.1,250.6z"/>
	</g>
	<line class="st4" x1="343.2" y1="248.1" x2="359.8" y2="248.1"/>
	<g>
		<path d="M364,250.9l3-4.7h-2.8v-0.3h3.2v0.2l-3,4.7h3.1v0.3H364L364,250.9L364,250.9z"/>
		<path d="M368.6,247.2h0.3v0.6l0,0c0.4-0.4,0.8-0.7,1.3-0.7c0.8,0,1.2,0.5,1.2,1.5v2.5H371v-2.4c0-0.8-0.3-1.2-0.9-1.2
			c-0.5,0-0.8,0.2-1.3,0.7v2.9h-0.4v-3.9H368.6z"/>
		<path d="M374.5,245.8h0.4v4.9h2.4v0.3h-2.8V245.8z"/>
		<path d="M378.2,245.8h0.5l1.1,3.1c0.1,0.4,0.3,0.8,0.4,1.2l0,0c0.1-0.4,0.3-0.8,0.4-1.2l1.1-3.1h0.5v5.3h-0.4v-3.5
			c0-0.4,0-1,0-1.4l0,0l-0.4,1.2l-1.1,3.1H380l-1.1-3.1l-0.4-1.2l0,0c0,0.4,0,1,0,1.4v3.5h-0.3L378.2,245.8L378.2,245.8z"/>
		<path d="M383.9,245.8h2.9v0.3h-2.5v2h2.1v0.3h-2.1v2.3h2.6v0.3h-3V245.8z"/>
		<path d="M389.5,248.8c0-1.4,0.4-2.6,1.1-3.6l0.2,0.1c-0.6,1-1,2.2-1,3.5s0.3,2.5,1,3.5l-0.2,0.1
			C389.9,251.4,389.5,250.3,389.5,248.8z"/>
		<path d="M392.9,252.3c0.6-1,1-2.2,1-3.5s-0.3-2.5-1-3.5l0.2-0.1c0.7,1.1,1.1,2.2,1.1,3.6s-0.4,2.6-1.1,3.6L392.9,252.3z"/>
	</g>
</g>
</svg>
