<?xml version="1.0" encoding="utf-8"?>
<!-- Generator: Adobe Illustrator 23.0.3, SVG Export Plug-In . SVG Version: 6.00 Build 0)  -->
<svg version="1.1" id="Layer_1" xmlns="http://www.w3.org/2000/svg" xmlns:xlink="http://www.w3.org/1999/xlink" x="0px" y="0px"
	 viewBox="0 0 395.5 176.8" style="enable-background:new 0 0 395.5 176.8;" xml:space="preserve">
<style type="text/css">
	.st0{fill:none;stroke:#000000;stroke-width:0.25;}
	.st1{fill:#ABD693;}
</style>
<g>
	<g>
		<path d="M2,6.6l2.9-4.4H2.3V1h4.4v0.9L3.8,6.3h2.9v1.2H2C2,7.5,2,6.6,2,6.6z"/>
		<path d="M7.6,1h1.5v6.5H7.6V1z"/>
		<path d="M10.5,1H12l1.7,3.2l0.6,1.4l0,0c-0.1-0.7-0.2-1.6-0.2-2.4V1h1.4v6.5h-1.4l-1.7-3.2l-0.6-1.4l0,0C11.9,3.6,12,4.5,12,5.3
			v2.3h-1.4V1H10.5z"/>
		<path d="M16.6,4.3c0-2.2,1.4-3.4,3.1-3.4c0.8,0,1.5,0.4,2,0.8l-0.8,0.9c-0.3-0.3-0.7-0.5-1.1-0.5c-0.9,0-1.6,0.8-1.6,2.1
			s0.6,2.1,1.6,2.1c0.5,0,0.9-0.3,1.3-0.6l0.8,0.9c-0.5,0.6-1.3,1-2.1,1C18,7.6,16.6,6.5,16.6,4.3z"/>
		<path d="M24.4,1h2.2c1.4,0,2.6,0.5,2.6,2.1c0,1.5-1.2,2.2-2.5,2.2h-0.8v2.2h-1.5V1z M26.5,4.1c0.8,0,1.2-0.4,1.2-1
			s-0.4-0.9-1.2-0.9h-0.7v2h0.7V4.1z"/>
		<path d="M30.1,1h2.3c1.4,0,2.5,0.5,2.5,2c0,1-0.5,1.6-1.2,1.9l1.5,2.6h-1.6l-1.3-2.3h-0.8v2.3h-1.4V1z M32.4,4
			c0.8,0,1.2-0.3,1.2-1s-0.5-0.8-1.2-0.8h-0.8V4H32.4z"/>
		<path d="M36.1,1h1.5v6.5h-1.5V1z"/>
		<path d="M38.6,4.3c0-2.2,1.4-3.4,3.1-3.4c0.8,0,1.5,0.4,2,0.8l-0.8,0.9c-0.3-0.3-0.7-0.5-1.2-0.5c-0.9,0-1.6,0.8-1.6,2.1
			s0.6,2.1,1.6,2.1c0.5,0,0.9-0.3,1.3-0.6l0.8,0.9c-0.5,0.6-1.3,1-2.1,1C39.9,7.6,38.6,6.5,38.6,4.3z"/>
		<path d="M44.5,1h4.1v1.2H46v1.3h2.2v1.2H46v1.5h2.7v1.2h-4.2V1z"/>
		<path d="M52.9,2.2h-1.8V1h5v1.2h-1.8v5.3h-1.5L52.9,2.2L52.9,2.2z"/>
		<path d="M57,1h2.3c1.4,0,2.5,0.5,2.5,2c0,1-0.5,1.6-1.2,1.9l1.5,2.6h-1.6l-1.3-2.3h-0.8v2.3h-1.5L57,1L57,1z M59.2,4
			c0.8,0,1.2-0.3,1.2-1S60,2.1,59.2,2.1h-0.8V4H59.2z"/>
		<path d="M62.9,1H67v1.2h-2.6v1.3h2.2v1.2h-2.2v1.5h2.7v1.2h-4.2V1z"/>
		<path d="M68.2,1h1.5l1.7,3.2L72,5.6l0,0c-0.1-0.7-0.2-1.6-0.2-2.4V1h1.4v6.5h-1.5l-1.6-3.2l-0.6-1.4l0,0c0.1,0.7,0.2,1.6,0.2,2.4
			v2.3h-1.4L68.2,1L68.2,1z"/>
		<path d="M74.7,1h1.8c2,0,3.3,1,3.3,3.2s-1.3,3.3-3.2,3.3h-1.9C74.7,7.5,74.7,1,74.7,1z M76.4,6.3c1.1,0,1.8-0.5,1.8-2.1
			s-0.7-2-1.8-2h-0.3v4.1C76.1,6.3,76.4,6.3,76.4,6.3z"/>
	</g>
	<g>
		<path d="M2.2,13.7c0-1.1,0.3-2.1,0.9-2.9l0.2,0.1c-0.5,0.8-0.8,1.8-0.8,2.8s0.3,2,0.8,2.8l-0.2,0.2C2.6,15.8,2.2,14.9,2.2,13.7z"
			/>
		<path d="M4.9,15.6c-0.4,0-0.8-0.3-1.1-0.5L4,14.9c0.2,0.2,0.6,0.5,1,0.5c0.5,0,0.8-0.3,0.8-0.8c0-1.3-1.9-0.9-1.9-2.2
			c0-0.5,0.4-0.9,0.9-1v-0.6h0.3v0.6c0.4,0,0.7,0.2,0.9,0.5l-0.2,0.2c-0.2-0.2-0.4-0.4-0.8-0.4c-0.4,0-0.8,0.3-0.8,0.7
			c0,1.1,1.9,0.8,1.9,2.2c0,0.6-0.4,1-1,1.1v0.6H4.8v-0.7H4.9z"/>
		<path d="M6.8,16.6c0.5-0.8,0.8-1.8,0.8-2.8s-0.3-2-0.8-2.8L7,10.9c0.5,0.9,0.9,1.8,0.9,2.9S7.6,15.9,7,16.7L6.8,16.6z"/>
	</g>
	<line class="st0" x1="1.7" y1="21.1" x2="393.9" y2="21.1"/>
	<line class="st0" x1="1.6" y1="175.8" x2="393.9" y2="175.8"/>
	<g>
		<path d="M1.8,37.6L2,37.4c0.3,0.3,0.7,0.7,1.4,0.7s1.2-0.4,1.2-1.1c0-0.7-0.5-1.2-1.8-1.2v-0.3c1.2,0,1.6-0.5,1.6-1.1s-0.4-1-1-1
			c-0.5,0-0.9,0.2-1.2,0.6L2,33.8c0.4-0.3,0.8-0.6,1.4-0.6c0.8,0,1.4,0.4,1.4,1.2c0,0.7-0.4,1.1-1,1.3l0,0C4.4,35.8,5,36.3,5,37
			c0,0.9-0.7,1.4-1.6,1.4C2.6,38.3,2.1,38,1.8,37.6z"/>
		<path d="M5.8,35.9c0-2.1,0.9-2.9,1.9-2.9c0.5,0,0.8,0.2,1.1,0.5l-0.2,0.2c-0.2-0.3-0.5-0.4-0.9-0.4c-0.8,0-1.5,0.7-1.5,2.5
			c0.4-0.4,0.8-0.7,1.3-0.7c0.9,0,1.4,0.6,1.4,1.6c0,0.9-0.6,1.6-1.4,1.6C6.5,38.3,5.8,37.5,5.8,35.9z M6.2,36.2
			C6.3,37.3,6.7,38,7.5,38c0.6,0,1-0.6,1-1.3s-0.3-1.3-1.1-1.3C7.1,35.5,6.6,35.7,6.2,36.2z"/>
		<path d="M9.6,35.7c0-1.7,0.6-2.6,1.5-2.6c1,0,1.5,0.9,1.5,2.6c0,1.7-0.6,2.7-1.5,2.7C10.2,38.3,9.6,37.4,9.6,35.7z M12.3,35.7
			c0-1.6-0.5-2.3-1.2-2.3s-1.2,0.8-1.2,2.3c0,1.6,0.5,2.4,1.2,2.4C11.8,38,12.3,37.2,12.3,35.7z"/>
		<path d="M13.4,35.7c0-1.7,0.6-2.6,1.5-2.6c1,0,1.5,0.9,1.5,2.6c0,1.7-0.6,2.7-1.5,2.7C14,38.3,13.4,37.4,13.4,35.7z M16.1,35.7
			c0-1.6-0.5-2.3-1.2-2.3s-1.2,0.8-1.2,2.3c0,1.6,0.5,2.4,1.2,2.4C15.7,38,16.1,37.2,16.1,35.7z"/>
	</g>
	<g>
		<path d="M1.8,57L2,56.8c0.3,0.3,0.7,0.7,1.4,0.7s1.2-0.4,1.2-1.1c0-0.7-0.5-1.2-1.8-1.2v-0.3c1.2,0,1.6-0.5,1.6-1.1s-0.4-1-1-1
			c-0.5,0-0.9,0.2-1.2,0.6L2,53.2c0.4-0.3,0.8-0.6,1.4-0.6c0.8,0,1.4,0.4,1.4,1.2c0,0.7-0.4,1.1-1,1.3l0,0C4.4,55.2,5,55.7,5,56.4
			c0,0.9-0.7,1.4-1.6,1.4C2.6,57.7,2.1,57.4,1.8,57z"/>
		<path d="M7.9,56.1H5.6v-0.2L8,52.5h0.3v3.3h0.8v0.3H8.3v1.5H8v-1.5H7.9z M7.9,55.8v-1.9c0-0.2,0-0.6,0-0.9l0,0
			c-0.1,0.2-0.3,0.4-0.4,0.6L6,55.7h1.9V55.8z"/>
		<path d="M9.6,55.1c0-1.7,0.6-2.6,1.5-2.6c1,0,1.5,0.9,1.5,2.6c0,1.7-0.6,2.7-1.5,2.7C10.2,57.7,9.6,56.8,9.6,55.1z M12.3,55.1
			c0-1.6-0.5-2.3-1.2-2.3s-1.2,0.8-1.2,2.3c0,1.6,0.5,2.4,1.2,2.4C11.8,57.4,12.3,56.6,12.3,55.1z"/>
		<path d="M13.4,55.1c0-1.7,0.6-2.6,1.5-2.6c1,0,1.5,0.9,1.5,2.6c0,1.7-0.6,2.7-1.5,2.7C14,57.7,13.4,56.8,13.4,55.1z M16.1,55.1
			c0-1.6-0.5-2.3-1.2-2.3s-1.2,0.8-1.2,2.3c0,1.6,0.5,2.4,1.2,2.4C15.7,57.4,16.1,56.6,16.1,55.1z"/>
	</g>
	<g>
		<path d="M1.8,76.4L2,76.2c0.3,0.3,0.7,0.7,1.4,0.7s1.2-0.4,1.2-1.1s-0.5-1.2-1.8-1.2v-0.3c1.2,0,1.6-0.5,1.6-1.1s-0.4-1-1-1
			c-0.5,0-0.9,0.2-1.2,0.6L2,72.6C2.4,72.3,2.8,72,3.4,72c0.8,0,1.4,0.4,1.4,1.2c0,0.7-0.4,1.1-1,1.3l0,0C4.4,74.6,5,75.1,5,75.8
			c0,0.9-0.7,1.4-1.6,1.4C2.6,77.1,2.1,76.7,1.8,76.4z"/>
		<path d="M5.7,76.8c1.7-1.7,2.5-2.7,2.5-3.5c0-0.6-0.3-1.1-1.1-1.1c-0.5,0-0.9,0.3-1.2,0.7l-0.2-0.2c0.4-0.4,0.8-0.8,1.5-0.8
			c0.9,0,1.4,0.6,1.4,1.4c0,1-0.9,2-2.3,3.5c0.3,0,0.6,0,0.9,0h1.7V77H5.8v-0.2H5.7z"/>
		<path d="M9.6,74.4c0-1.7,0.6-2.6,1.5-2.6c1,0,1.5,0.9,1.5,2.6s-0.6,2.7-1.5,2.7S9.6,76.1,9.6,74.4z M12.3,74.4
			c0-1.6-0.5-2.3-1.2-2.3s-1.2,0.8-1.2,2.3c0,1.6,0.5,2.4,1.2,2.4S12.3,76,12.3,74.4z"/>
		<path d="M13.4,74.4c0-1.7,0.6-2.6,1.5-2.6c1,0,1.5,0.9,1.5,2.6s-0.6,2.7-1.5,2.7S13.4,76.1,13.4,74.4z M16.1,74.4
			c0-1.6-0.5-2.3-1.2-2.3s-1.2,0.8-1.2,2.3c0,1.6,0.5,2.4,1.2,2.4C15.7,76.8,16.1,76,16.1,74.4z"/>
	</g>
	<g>
		<path d="M1.8,95.8L2,95.6c0.3,0.3,0.7,0.7,1.4,0.7s1.2-0.4,1.2-1.1S4.1,94,2.8,94v-0.3c1.2,0,1.6-0.5,1.6-1.1s-0.4-1-1-1
			c-0.5,0-0.9,0.2-1.2,0.6L2,92c0.4-0.3,0.8-0.6,1.4-0.6c0.8,0,1.4,0.4,1.4,1.2c0,0.7-0.4,1.1-1,1.3l0,0C4.4,94,5,94.5,5,95.2
			c0,0.9-0.7,1.4-1.6,1.4C2.6,96.5,2.1,96.1,1.8,95.8z"/>
		<path d="M5.8,93.8c0-1.7,0.6-2.6,1.5-2.6c1,0,1.5,0.9,1.5,2.6s-0.6,2.7-1.5,2.7C6.3,96.5,5.8,95.5,5.8,93.8z M8.5,93.8
			c0-1.6-0.5-2.3-1.2-2.3c-0.7,0-1.2,0.8-1.2,2.3c0,1.6,0.5,2.4,1.2,2.4C8,96.2,8.5,95.4,8.5,93.8z"/>
		<path d="M9.6,93.8c0-1.7,0.6-2.6,1.5-2.6c1,0,1.5,0.9,1.5,2.6s-0.6,2.7-1.5,2.7S9.6,95.5,9.6,93.8z M12.3,93.8
			c0-1.6-0.5-2.3-1.2-2.3s-1.2,0.8-1.2,2.3c0,1.6,0.5,2.4,1.2,2.4C11.8,96.2,12.3,95.4,12.3,93.8z"/>
		<path d="M13.4,93.8c0-1.7,0.6-2.6,1.5-2.6c1,0,1.5,0.9,1.5,2.6s-0.6,2.7-1.5,2.7S13.4,95.5,13.4,93.8z M16.1,93.8
			c0-1.6-0.5-2.3-1.2-2.3s-1.2,0.8-1.2,2.3c0,1.6,0.5,2.4,1.2,2.4C15.7,96.2,16.1,95.4,16.1,93.8z"/>
	</g>
	<g>
		<path d="M1.9,115.6c1.7-1.7,2.5-2.7,2.5-3.5c0-0.6-0.3-1.1-1.1-1.1c-0.5,0-0.9,0.3-1.2,0.7l-0.2-0.2c0.4-0.4,0.8-0.8,1.5-0.8
			c0.9,0,1.4,0.6,1.4,1.4c0,1-0.9,2-2.3,3.5c0.3,0,0.6,0,0.9,0h1.7v0.3H2L1.9,115.6L1.9,115.6z"/>
		<path d="M5.7,114.5c0-0.7,0.5-1.2,1-1.4l0,0c-0.4-0.2-0.7-0.6-0.7-1.2c0-0.7,0.6-1.2,1.3-1.2c0.9,0,1.4,0.6,1.4,1.3
			c0,0.6-0.4,1.1-0.7,1.3l0,0c0.4,0.3,0.9,0.6,0.9,1.3c0,0.7-0.6,1.3-1.6,1.3C6.4,115.9,5.7,115.3,5.7,114.5z M8.5,114.5
			c0-0.8-0.8-1.1-1.6-1.4c-0.5,0.3-0.9,0.7-0.9,1.3c0,0.6,0.5,1.1,1.3,1.1C8,115.6,8.5,115.1,8.5,114.5z M8.4,111.9c0-0.6-0.4-1-1-1
			s-1,0.4-1,1c0,0.7,0.7,1,1.4,1.3C8.1,112.8,8.4,112.4,8.4,111.9z"/>
		<path d="M9.6,113.2c0-1.7,0.6-2.6,1.5-2.6c1,0,1.5,0.9,1.5,2.6s-0.6,2.7-1.5,2.7C10.2,115.9,9.6,114.9,9.6,113.2z M12.3,113.2
			c0-1.6-0.5-2.3-1.2-2.3s-1.2,0.8-1.2,2.3c0,1.6,0.5,2.4,1.2,2.4S12.3,114.8,12.3,113.2z"/>
		<path d="M13.4,113.2c0-1.7,0.6-2.6,1.5-2.6c1,0,1.5,0.9,1.5,2.6s-0.6,2.7-1.5,2.7C14,115.9,13.4,114.9,13.4,113.2z M16.1,113.2
			c0-1.6-0.5-2.3-1.2-2.3s-1.2,0.8-1.2,2.3c0,1.6,0.5,2.4,1.2,2.4C15.7,115.6,16.1,114.8,16.1,113.2z"/>
	</g>
	<g>
		<path d="M1.9,134.9c1.7-1.7,2.5-2.7,2.5-3.5c0-0.6-0.3-1.1-1.1-1.1c-0.5,0-0.9,0.3-1.2,0.7l-0.2-0.2c0.4-0.4,0.8-0.8,1.5-0.8
			c0.9,0,1.4,0.6,1.4,1.4c0,1-0.9,2-2.3,3.5c0.3,0,0.6,0,0.9,0h1.7v0.3H2L1.9,134.9L1.9,134.9z"/>
		<path d="M5.8,132.9c0-2.1,0.9-2.9,1.9-2.9c0.5,0,0.8,0.2,1.1,0.5l-0.2,0.2c-0.2-0.3-0.5-0.4-0.9-0.4c-0.8,0-1.5,0.7-1.5,2.5
			c0.4-0.4,0.8-0.7,1.3-0.7c0.9,0,1.4,0.6,1.4,1.6c0,0.9-0.6,1.6-1.4,1.6C6.5,135.3,5.8,134.4,5.8,132.9z M6.2,133.2
			c0.1,1.1,0.5,1.8,1.3,1.8c0.6,0,1-0.6,1-1.3s-0.3-1.3-1.1-1.3C7.1,132.4,6.6,132.6,6.2,133.2z"/>
		<path d="M9.6,132.6c0-1.7,0.6-2.6,1.5-2.6c1,0,1.5,0.9,1.5,2.6c0,1.7-0.6,2.7-1.5,2.7S9.6,134.3,9.6,132.6z M12.3,132.6
			c0-1.6-0.5-2.3-1.2-2.3s-1.2,0.8-1.2,2.3c0,1.6,0.5,2.4,1.2,2.4S12.3,134.2,12.3,132.6z"/>
		<path d="M13.4,132.6c0-1.7,0.6-2.6,1.5-2.6c1,0,1.5,0.9,1.5,2.6c0,1.7-0.6,2.7-1.5,2.7S13.4,134.3,13.4,132.6z M16.1,132.6
			c0-1.6-0.5-2.3-1.2-2.3s-1.2,0.8-1.2,2.3c0,1.6,0.5,2.4,1.2,2.4C15.7,135,16.1,134.2,16.1,132.6z"/>
	</g>
	<g>
		<path d="M1.9,154.3c1.7-1.7,2.5-2.7,2.5-3.5c0-0.6-0.3-1.1-1.1-1.1c-0.5,0-0.9,0.3-1.2,0.7l-0.2-0.2c0.4-0.4,0.8-0.8,1.5-0.8
			c0.9,0,1.4,0.6,1.4,1.4c0,1-0.9,2-2.3,3.5c0.3,0,0.6,0,0.9,0h1.7v0.3H2L1.9,154.3L1.9,154.3z"/>
		<path d="M7.9,153H5.6v-0.2l2.4-3.4h0.3v3.3h0.8v0.3H8.3v1.5H8V153H7.9z M7.9,152.7v-1.9c0-0.2,0-0.6,0-0.9l0,0
			c-0.1,0.2-0.3,0.4-0.4,0.6L6,152.6L7.9,152.7L7.9,152.7z"/>
		<path d="M9.6,152c0-1.7,0.6-2.6,1.5-2.6c1,0,1.5,0.9,1.5,2.6c0,1.7-0.6,2.7-1.5,2.7C10.2,154.6,9.6,153.7,9.6,152z M12.3,152
			c0-1.6-0.5-2.3-1.2-2.3s-1.2,0.8-1.2,2.3c0,1.6,0.5,2.4,1.2,2.4C11.8,154.3,12.3,153.5,12.3,152z"/>
		<path d="M13.4,152c0-1.7,0.6-2.6,1.5-2.6c1,0,1.5,0.9,1.5,2.6c0,1.7-0.6,2.7-1.5,2.7C14,154.6,13.4,153.7,13.4,152z M16.1,152
			c0-1.6-0.5-2.3-1.2-2.3s-1.2,0.8-1.2,2.3c0,1.6,0.5,2.4,1.2,2.4C15.7,154.3,16.1,153.5,16.1,152z"/>
	</g>
	<g>
		<path d="M20.4,163l0.3-0.2c0.3,0.4,0.6,0.6,1,0.6c0.6,0,0.9-0.4,0.9-1.2v-3.8H23v3.8c0,0.8-0.4,1.5-1.3,1.5
			C21.1,163.8,20.7,163.5,20.4,163z"/>
		<path d="M24.2,162.8c0-0.8,0.8-1.3,2.5-1.4c0-0.6-0.2-1.2-0.9-1.2c-0.5,0-1,0.3-1.2,0.4l-0.2-0.3c0.3-0.2,0.8-0.5,1.4-0.5
			c0.9,0,1.2,0.7,1.2,1.5v2.5h-0.3v-0.5l0,0c-0.4,0.3-0.9,0.6-1.4,0.6C24.7,163.8,24.2,163.5,24.2,162.8z M26.7,162.9v-1.3
			c-1.6,0.2-2.1,0.6-2.1,1.2c0,0.6,0.4,0.8,0.8,0.8C25.8,163.5,26.2,163.3,26.7,162.9z"/>
		<path d="M28.4,159.9h0.3v0.6l0,0c0.4-0.4,0.8-0.7,1.3-0.7c0.8,0,1.2,0.5,1.2,1.5v2.5h-0.4v-2.4c0-0.8-0.3-1.2-0.9-1.2
			c-0.5,0-0.8,0.2-1.3,0.7v2.9h-0.4v-3.9H28.4z"/>
		<path d="M32.3,161.6h1.8v0.3h-1.8V161.6z"/>
		<path d="M35,163.4h1.2v-4.2h-0.9V159c0.4-0.1,0.7-0.2,1-0.3h0.3v4.8h1.1v0.3H35C35,163.8,35,163.4,35,163.4z"/>
		<path d="M38.5,162.4c0-0.7,0.5-1.2,1-1.4l0,0c-0.4-0.2-0.7-0.6-0.7-1.2c0-0.7,0.6-1.2,1.3-1.2c0.9,0,1.4,0.6,1.4,1.3
			c0,0.6-0.4,1.1-0.7,1.3l0,0c0.4,0.3,0.9,0.6,0.9,1.3s-0.6,1.3-1.6,1.3C39.2,163.8,38.5,163.2,38.5,162.4z M41.3,162.5
			c0-0.8-0.8-1.1-1.6-1.4c-0.5,0.3-0.9,0.7-0.9,1.3s0.5,1.1,1.3,1.1C40.8,163.5,41.3,163,41.3,162.5z M41.2,159.8c0-0.6-0.4-1-1-1
			s-1,0.4-1,1c0,0.7,0.7,1,1.4,1.3C40.9,160.7,41.2,160.3,41.2,159.8z"/>
	</g>
	<g>
		<path d="M45.9,158.4h2.9v0.3h-2.5v2.1h2.1v0.3h-2.1v2.5h-0.4V158.4z"/>
		<path d="M49.3,161.8c0-1.3,0.8-2,1.7-2s1.5,0.6,1.5,1.8c0,0.1,0,0.2,0,0.3h-2.8c0,1,0.6,1.7,1.4,1.7c0.4,0,0.7-0.1,1-0.3l0.1,0.3
			c-0.3,0.2-0.6,0.4-1.2,0.4C50,163.8,49.3,163.1,49.3,161.8z M52.1,161.6c0-1-0.4-1.5-1.1-1.5c-0.7,0-1.2,0.6-1.3,1.5H52.1z"/>
		<path d="M53.8,163.3L53.8,163.3l-0.1,0.4h-0.3V158h0.4v1.7v0.8c0.4-0.3,0.9-0.6,1.3-0.6c1,0,1.5,0.8,1.5,2c0,1.3-0.8,2.1-1.7,2.1
			C54.6,163.8,54.1,163.6,53.8,163.3z M56.2,161.7c0-0.9-0.3-1.6-1.2-1.6c-0.4,0-0.8,0.2-1.3,0.6v2.3c0.4,0.4,0.8,0.5,1.1,0.5
			C55.7,163.5,56.2,162.8,56.2,161.7z"/>
		<path d="M57.4,161.6h1.8v0.3h-1.8V161.6z"/>
		<path d="M60.1,163.4h1.2v-4.2h-0.9V159c0.4-0.1,0.7-0.2,1-0.3h0.3v4.8h1.1v0.3h-2.7V163.4z"/>
		<path d="M63.6,162.4c0-0.7,0.5-1.2,1-1.4l0,0c-0.4-0.2-0.7-0.6-0.7-1.2c0-0.7,0.6-1.2,1.3-1.2c0.9,0,1.4,0.6,1.4,1.3
			c0,0.6-0.4,1.1-0.7,1.3l0,0c0.4,0.3,0.9,0.6,0.9,1.3s-0.6,1.3-1.6,1.3C64.3,163.8,63.6,163.2,63.6,162.4z M66.4,162.5
			c0-0.8-0.8-1.1-1.6-1.4c-0.5,0.3-0.9,0.7-0.9,1.3s0.5,1.1,1.3,1.1C65.9,163.5,66.4,163,66.4,162.5z M66.2,159.8c0-0.6-0.4-1-1-1
			s-1,0.4-1,1c0,0.7,0.7,1,1.4,1.3C66,160.7,66.2,160.3,66.2,159.8z"/>
	</g>
	<g>
		<path d="M71,158.4h0.5l1.1,3.1c0.1,0.4,0.3,0.8,0.4,1.2l0,0c0.1-0.4,0.3-0.8,0.4-1.2l1.1-3.1h0.6v5.3h-0.4v-3.5c0-0.4,0-1,0-1.4
			l0,0l-0.4,1.2l-1.1,3.1h-0.3l-1.1-3.1l-0.4-1.2l0,0c0,0.4,0,1,0,1.4v3.5h-0.3L71,158.4L71,158.4z"/>
		<path d="M76.3,162.8c0-0.8,0.8-1.3,2.5-1.4c0-0.6-0.2-1.2-0.9-1.2c-0.5,0-1,0.3-1.2,0.4l-0.2-0.3c0.3-0.2,0.8-0.5,1.4-0.5
			c0.9,0,1.2,0.7,1.2,1.5v2.5h-0.3v-0.5l0,0c-0.4,0.3-0.9,0.6-1.4,0.6C76.8,163.8,76.3,163.5,76.3,162.8z M78.8,162.9v-1.3
			c-1.6,0.2-2.1,0.6-2.1,1.2c0,0.6,0.4,0.8,0.8,0.8S78.3,163.3,78.8,162.9z"/>
		<path d="M80.5,159.9h0.3v0.7l0,0c0.3-0.5,0.6-0.8,1.1-0.8c0.1,0,0.3,0,0.4,0.1l-0.1,0.3c-0.1,0-0.2-0.1-0.4-0.1
			c-0.3,0-0.8,0.3-1,1v2.6h-0.4L80.5,159.9L80.5,159.9z"/>
		<path d="M82.4,161.6h1.8v0.3h-1.8V161.6z"/>
		<path d="M85.1,163.4h1.2v-4.2h-0.9V159c0.4-0.1,0.7-0.2,1-0.3h0.3v4.8h1.1v0.3h-2.7V163.4z"/>
		<path d="M88.6,162.4c0-0.7,0.5-1.2,1-1.4l0,0c-0.4-0.2-0.7-0.6-0.7-1.2c0-0.7,0.6-1.2,1.3-1.2c0.9,0,1.4,0.6,1.4,1.3
			c0,0.6-0.4,1.1-0.7,1.3l0,0c0.4,0.3,0.9,0.6,0.9,1.3s-0.6,1.3-1.6,1.3C89.3,163.8,88.6,163.2,88.6,162.4z M91.4,162.5
			c0-0.8-0.8-1.1-1.6-1.4c-0.5,0.3-0.9,0.7-0.9,1.3s0.5,1.1,1.3,1.1C91,163.5,91.4,163,91.4,162.5z M91.3,159.8c0-0.6-0.4-1-1-1
			s-1,0.4-1,1c0,0.7,0.7,1,1.4,1.3C91,160.7,91.3,160.3,91.3,159.8z"/>
	</g>
	<g>
		<path d="M97.6,158.4H98l1.9,5.3h-0.4l-0.6-1.8h-2.1l-0.6,1.8h-0.4L97.6,158.4z M96.9,161.6h1.9l-0.3-1c-0.2-0.6-0.4-1.2-0.6-1.8
			l0,0c-0.2,0.6-0.4,1.2-0.6,1.8L96.9,161.6z"/>
		<path d="M100.7,159.9h0.3v0.5l0,0c0.4-0.3,0.8-0.6,1.3-0.6c1,0,1.5,0.8,1.5,2c0,1.3-0.8,2.1-1.7,2.1c-0.4,0-0.8-0.2-1.2-0.5v2.1
			h-0.4v-5.6H100.7z M103.5,161.7c0-0.9-0.3-1.6-1.2-1.6c-0.4,0-0.8,0.2-1.3,0.6v2.3c0.4,0.4,0.8,0.5,1.1,0.5
			C102.9,163.5,103.5,162.8,103.5,161.7z"/>
		<path d="M105,159.9h0.3v0.7l0,0c0.3-0.5,0.6-0.8,1.1-0.8c0.1,0,0.3,0,0.4,0.1l-0.1,0.3c-0.1,0-0.2-0.1-0.4-0.1c-0.3,0-0.8,0.3-1,1
			v2.6h-0.4L105,159.9L105,159.9z"/>
		<path d="M107,161.6h1.8v0.3H107V161.6z"/>
		<path d="M109.7,163.4h1.2v-4.2H110V159c0.4-0.1,0.7-0.2,1-0.3h0.3v4.8h1.1v0.3h-2.7V163.4z"/>
		<path d="M113.2,162.4c0-0.7,0.5-1.2,1-1.4l0,0c-0.4-0.2-0.7-0.6-0.7-1.2c0-0.7,0.6-1.2,1.3-1.2c0.9,0,1.4,0.6,1.4,1.3
			c0,0.6-0.4,1.1-0.7,1.3l0,0c0.4,0.3,0.9,0.6,0.9,1.3s-0.6,1.3-1.6,1.3C113.9,163.8,113.2,163.2,113.2,162.4z M116,162.5
			c0-0.8-0.8-1.1-1.6-1.4c-0.5,0.3-0.9,0.7-0.9,1.3s0.5,1.1,1.3,1.1C115.5,163.5,116,163,116,162.5z M115.9,159.8c0-0.6-0.4-1-1-1
			s-1,0.4-1,1c0,0.7,0.7,1,1.4,1.3C115.6,160.7,115.9,160.3,115.9,159.8z"/>
	</g>
	<g>
		<path d="M120.5,158.4h0.5l1.1,3.1c0.1,0.4,0.3,0.8,0.4,1.2l0,0c0.1-0.4,0.3-0.8,0.4-1.2l1.1-3.1h0.5v5.3h-0.4v-3.5
			c0-0.4,0-1,0-1.4l0,0l-0.4,1.2l-1.1,3.1h-0.3l-1.1-3.1l-0.4-1.2l0,0c0,0.4,0,1,0,1.4v3.5h-0.3V158.4z"/>
		<path d="M125.8,162.8c0-0.8,0.8-1.3,2.5-1.4c0-0.6-0.2-1.2-0.9-1.2c-0.5,0-1,0.3-1.2,0.4l-0.2-0.3c0.3-0.2,0.8-0.5,1.4-0.5
			c0.9,0,1.2,0.7,1.2,1.5v2.5h-0.3v-0.5l0,0c-0.4,0.3-0.9,0.6-1.4,0.6C126.3,163.8,125.8,163.5,125.8,162.8z M128.3,162.9v-1.3
			c-1.6,0.2-2.1,0.6-2.1,1.2c0,0.6,0.4,0.8,0.8,0.8C127.4,163.5,127.8,163.3,128.3,162.9z"/>
		<path d="M129.5,165.4l0.1-0.3c0.1,0,0.2,0.1,0.3,0.1c0.5,0,0.8-0.4,1-1l0.1-0.3l-1.6-3.9h0.4l0.9,2.4c0.1,0.3,0.3,0.7,0.4,1.1l0,0
			c0.1-0.3,0.2-0.8,0.4-1.1l0.8-2.4h0.4l-1.5,4.3c-0.2,0.6-0.6,1.3-1.3,1.3C129.7,165.5,129.6,165.4,129.5,165.4z"/>
		<path d="M133.1,161.6h1.8v0.3h-1.8V161.6z"/>
		<path d="M135.8,163.4h1.2v-4.2h-0.9V159c0.4-0.1,0.7-0.2,1-0.3h0.3v4.8h1.1v0.3h-2.7L135.8,163.4L135.8,163.4z"/>
		<path d="M139.3,162.4c0-0.7,0.5-1.2,1-1.4l0,0c-0.4-0.2-0.7-0.6-0.7-1.2c0-0.7,0.6-1.2,1.3-1.2c0.9,0,1.4,0.6,1.4,1.3
			c0,0.6-0.4,1.1-0.7,1.3l0,0c0.4,0.3,0.9,0.6,0.9,1.3s-0.6,1.3-1.6,1.3C140,163.8,139.3,163.2,139.3,162.4z M142.1,162.5
			c0-0.8-0.8-1.1-1.6-1.4c-0.5,0.3-0.9,0.7-0.9,1.3s0.5,1.1,1.3,1.1C141.7,163.5,142.1,163,142.1,162.5z M142,159.8c0-0.6-0.4-1-1-1
			s-1,0.4-1,1c0,0.7,0.7,1,1.4,1.3C141.7,160.7,142,160.3,142,159.8z"/>
	</g>
	<g>
		<path d="M145.5,163l0.3-0.2c0.3,0.4,0.6,0.6,1,0.6c0.6,0,0.9-0.4,0.9-1.2v-3.8h0.4v3.8c0,0.8-0.4,1.5-1.3,1.5
			C146.2,163.8,145.8,163.5,145.5,163z"/>
		<path d="M149.6,162.3v-2.5h0.4v2.4c0,0.8,0.3,1.2,0.9,1.2c0.5,0,0.8-0.2,1.2-0.8v-2.8h0.4v3.8h-0.4V163l0,0
			c-0.4,0.4-0.8,0.7-1.3,0.7C149.9,163.8,149.6,163.3,149.6,162.3z"/>
		<path d="M153.9,159.9h0.3v0.6l0,0c0.4-0.4,0.8-0.7,1.3-0.7c0.8,0,1.2,0.5,1.2,1.5v2.5h-0.4v-2.4c0-0.8-0.3-1.2-0.9-1.2
			c-0.5,0-0.8,0.2-1.3,0.7v2.9h-0.4v-3.9H153.9z"/>
		<path d="M157.7,161.6h1.8v0.3h-1.8V161.6z"/>
		<path d="M160.4,163.4h1.2v-4.2h-0.9V159c0.4-0.1,0.7-0.2,1-0.3h0.3v4.8h1.1v0.3h-2.7L160.4,163.4L160.4,163.4z"/>
		<path d="M163.9,162.4c0-0.7,0.5-1.2,1-1.4l0,0c-0.4-0.2-0.7-0.6-0.7-1.2c0-0.7,0.6-1.2,1.3-1.2c0.9,0,1.4,0.6,1.4,1.3
			c0,0.6-0.4,1.1-0.7,1.3l0,0c0.4,0.3,0.9,0.6,0.9,1.3s-0.6,1.3-1.6,1.3C164.6,163.8,163.9,163.2,163.9,162.4z M166.7,162.5
			c0-0.8-0.8-1.1-1.6-1.4c-0.5,0.3-0.9,0.7-0.9,1.3s0.5,1.1,1.3,1.1C166.3,163.5,166.7,163,166.7,162.5z M166.6,159.8
			c0-0.6-0.4-1-1-1s-1,0.4-1,1c0,0.7,0.7,1,1.4,1.3C166.4,160.7,166.6,160.3,166.6,159.8z"/>
	</g>
	<g>
		<path d="M171.8,163l0.3-0.2c0.3,0.4,0.6,0.6,1,0.6c0.6,0,0.9-0.4,0.9-1.2v-3.8h0.4v3.8c0,0.8-0.4,1.5-1.3,1.5
			C172.5,163.8,172,163.5,171.8,163z"/>
		<path d="M175.8,162.3v-2.5h0.4v2.4c0,0.8,0.3,1.2,0.9,1.2c0.5,0,0.8-0.2,1.2-0.8v-2.8h0.4v3.8h-0.3V163l0,0
			c-0.4,0.4-0.8,0.7-1.3,0.7C176.2,163.8,175.8,163.3,175.8,162.3z"/>
		<path d="M180.1,163.2V158h0.4v5.3c0,0.2,0.1,0.2,0.2,0.2h0.1l0.1,0.3c-0.1,0-0.1,0-0.3,0C180.3,163.8,180.1,163.6,180.1,163.2z"/>
		<path d="M181.6,161.6h1.8v0.3h-1.8V161.6z"/>
		<path d="M184.3,163.4h1.2v-4.2h-0.9V159c0.4-0.1,0.7-0.2,1-0.3h0.3v4.8h1.1v0.3h-2.7L184.3,163.4L184.3,163.4z"/>
		<path d="M187.8,162.4c0-0.7,0.5-1.2,1-1.4l0,0c-0.4-0.2-0.7-0.6-0.7-1.2c0-0.7,0.6-1.2,1.3-1.2c0.9,0,1.4,0.6,1.4,1.3
			c0,0.6-0.4,1.1-0.7,1.3l0,0c0.4,0.3,0.9,0.6,0.9,1.3s-0.6,1.3-1.6,1.3C188.5,163.8,187.8,163.2,187.8,162.4z M190.6,162.5
			c0-0.8-0.8-1.1-1.6-1.4c-0.5,0.3-0.9,0.7-0.9,1.3s0.5,1.1,1.3,1.1C190.1,163.5,190.6,163,190.6,162.5z M190.5,159.8
			c0-0.6-0.4-1-1-1s-1,0.4-1,1c0,0.7,0.7,1,1.4,1.3C190.2,160.7,190.5,160.3,190.5,159.8z"/>
	</g>
	<g>
		<path d="M197.2,158.4h0.4l1.9,5.3h-0.4l-0.6-1.8h-2.1l-0.6,1.8h-0.4L197.2,158.4z M196.4,161.6h1.9l-0.3-1
			c-0.2-0.6-0.4-1.2-0.6-1.8l0,0c-0.2,0.6-0.4,1.2-0.6,1.8L196.4,161.6z"/>
		<path d="M200.1,162.3v-2.5h0.4v2.4c0,0.8,0.3,1.2,0.9,1.2c0.5,0,0.8-0.2,1.2-0.8v-2.8h0.4v3.8h-0.3V163l0,0
			c-0.4,0.4-0.8,0.7-1.3,0.7C200.5,163.8,200.1,163.3,200.1,162.3z"/>
		<path d="M204.1,164.5c0-0.3,0.2-0.7,0.6-0.9l0,0c-0.2-0.1-0.3-0.3-0.3-0.6s0.2-0.6,0.4-0.7l0,0c-0.2-0.2-0.5-0.6-0.5-1.1
			c0-0.8,0.6-1.4,1.3-1.4c0.2,0,0.4,0,0.5,0.1h1.3v0.3h-0.9c0.2,0.2,0.4,0.6,0.4,1c0,0.8-0.6,1.4-1.3,1.4c-0.2,0-0.5-0.1-0.6-0.2
			c-0.2,0.1-0.3,0.3-0.3,0.6s0.2,0.5,0.7,0.5h0.8c0.9,0,1.3,0.3,1.3,0.9c0,0.7-0.7,1.3-1.8,1.3C204.7,165.6,204.1,165.1,204.1,164.5
			z M207.1,164.3c0-0.4-0.3-0.6-0.9-0.6h-0.8c-0.1,0-0.3,0-0.5-0.1c-0.4,0.2-0.5,0.5-0.5,0.8c0,0.5,0.5,0.8,1.3,0.8
			C206.5,165.3,207.1,164.8,207.1,164.3z M206.6,161.1c0-0.6-0.4-1.1-1-1.1c-0.5,0-1,0.4-1,1.1c0,0.6,0.5,1.1,1,1.1
			C206.1,162.2,206.6,161.8,206.6,161.1z"/>
		<path d="M207.9,161.6h1.8v0.3h-1.8V161.6z"/>
		<path d="M210.6,163.4h1.2v-4.2h-0.9V159c0.4-0.1,0.7-0.2,1-0.3h0.3v4.8h1.1v0.3h-2.7L210.6,163.4L210.6,163.4z"/>
		<path d="M214.1,162.4c0-0.7,0.5-1.2,1-1.4l0,0c-0.4-0.2-0.7-0.6-0.7-1.2c0-0.7,0.6-1.2,1.3-1.2c0.9,0,1.4,0.6,1.4,1.3
			c0,0.6-0.4,1.1-0.7,1.3l0,0c0.4,0.3,0.9,0.6,0.9,1.3s-0.6,1.3-1.6,1.3C214.8,163.8,214.1,163.2,214.1,162.4z M216.9,162.5
			c0-0.8-0.8-1.1-1.6-1.4c-0.5,0.3-0.9,0.7-0.9,1.3s0.5,1.1,1.3,1.1C216.4,163.5,216.9,163,216.9,162.5z M216.8,159.8
			c0-0.6-0.4-1-1-1s-1,0.4-1,1c0,0.7,0.7,1,1.4,1.3C216.5,160.7,216.8,160.3,216.8,159.8z"/>
	</g>
	<g>
		<path d="M220.6,163l0.2-0.3c0.4,0.4,0.9,0.7,1.5,0.7c0.8,0,1.3-0.4,1.3-1.1c0-0.7-0.4-0.9-0.9-1.1l-0.8-0.4
			c-0.5-0.2-1.1-0.5-1.1-1.3s0.7-1.3,1.5-1.3c0.6,0,1.1,0.3,1.5,0.6l-0.2,0.2c-0.3-0.3-0.7-0.5-1.3-0.5c-0.7,0-1.2,0.4-1.2,0.9
			c0,0.6,0.5,0.8,0.9,1l0.8,0.4c0.6,0.3,1.1,0.6,1.1,1.4s-0.7,1.4-1.7,1.4C221.6,163.8,221,163.5,220.6,163z"/>
		<path d="M224.8,161.8c0-1.3,0.8-2,1.7-2s1.5,0.6,1.5,1.8c0,0.1,0,0.2,0,0.3h-2.8c0,1,0.6,1.7,1.4,1.7c0.4,0,0.7-0.1,1-0.3l0.1,0.3
			c-0.3,0.2-0.6,0.4-1.2,0.4C225.6,163.8,224.8,163.1,224.8,161.8z M227.6,161.6c0-1-0.4-1.5-1.1-1.5c-0.7,0-1.2,0.6-1.3,1.5H227.6z
			"/>
		<path d="M229,159.9h0.3v0.5l0,0c0.4-0.3,0.8-0.6,1.3-0.6c1,0,1.5,0.8,1.5,2c0,1.3-0.8,2.1-1.7,2.1c-0.4,0-0.8-0.2-1.2-0.5v2.1
			h-0.4v-5.6H229z M231.8,161.7c0-0.9-0.3-1.6-1.2-1.6c-0.4,0-0.8,0.2-1.3,0.6v2.3c0.4,0.4,0.8,0.5,1.1,0.5
			C231.3,163.5,231.8,162.8,231.8,161.7z"/>
		<path d="M233,161.6h1.8v0.3H233V161.6z"/>
		<path d="M235.8,163.4h1.2v-4.2h-0.9V159c0.4-0.1,0.7-0.2,1-0.3h0.3v4.8h1.1v0.3h-2.7L235.8,163.4L235.8,163.4z"/>
		<path d="M239.2,162.4c0-0.7,0.5-1.2,1-1.4l0,0c-0.4-0.2-0.7-0.6-0.7-1.2c0-0.7,0.6-1.2,1.3-1.2c0.9,0,1.4,0.6,1.4,1.3
			c0,0.6-0.4,1.1-0.7,1.3l0,0c0.4,0.3,0.9,0.6,0.9,1.3s-0.6,1.3-1.6,1.3C239.9,163.8,239.2,163.2,239.2,162.4z M242,162.5
			c0-0.8-0.8-1.1-1.6-1.4c-0.5,0.3-0.9,0.7-0.9,1.3s0.5,1.1,1.3,1.1C241.6,163.5,242,163,242,162.5z M241.9,159.8c0-0.6-0.4-1-1-1
			s-1,0.4-1,1c0,0.7,0.7,1,1.4,1.3C241.7,160.7,241.9,160.3,241.9,159.8z"/>
	</g>
	<g>
		<path d="M246.4,161.1c0-1.7,0.9-2.7,2.2-2.7s2.2,1,2.2,2.7s-0.9,2.8-2.2,2.8C247.3,163.8,246.4,162.7,246.4,161.1z M250.4,161.1
			c0-1.5-0.7-2.4-1.8-2.4c-1.1,0-1.8,0.9-1.8,2.4s0.7,2.4,1.8,2.4S250.4,162.5,250.4,161.1z"/>
		<path d="M251.6,161.8c0-1.3,0.8-2,1.8-2c0.5,0,0.9,0.2,1.1,0.5l-0.2,0.2c-0.2-0.2-0.5-0.4-0.9-0.4c-0.8,0-1.4,0.7-1.4,1.7
			s0.6,1.7,1.4,1.7c0.4,0,0.8-0.2,1-0.4l0.2,0.2c-0.3,0.3-0.7,0.5-1.2,0.5C252.4,163.8,251.6,163.1,251.6,161.8z"/>
		<path d="M255.5,162.6v-2.5h-0.6v-0.3h0.6v-1.1h0.3v1.1h1.1v0.3h-1.1v2.5c0,0.5,0.1,0.8,0.6,0.8c0.1,0,0.3-0.1,0.5-0.1l0.1,0.3
			c-0.2,0.1-0.5,0.1-0.6,0.1C255.8,163.8,255.5,163.3,255.5,162.6z"/>
		<path d="M257.4,161.6h1.8v0.3h-1.8V161.6z"/>
		<path d="M260.1,163.4h1.2v-4.2h-0.9V159c0.4-0.1,0.7-0.2,1-0.3h0.3v4.8h1.1v0.3h-2.7V163.4z"/>
		<path d="M263.6,162.4c0-0.7,0.5-1.2,1-1.4l0,0c-0.4-0.2-0.7-0.6-0.7-1.2c0-0.7,0.6-1.2,1.3-1.2c0.9,0,1.4,0.6,1.4,1.3
			c0,0.6-0.4,1.1-0.7,1.3l0,0c0.4,0.3,0.9,0.6,0.9,1.3s-0.6,1.3-1.6,1.3C264.3,163.8,263.6,163.2,263.6,162.4z M266.4,162.5
			c0-0.8-0.8-1.1-1.6-1.4c-0.5,0.3-0.9,0.7-0.9,1.3s0.5,1.1,1.3,1.1C265.9,163.5,266.4,163,266.4,162.5z M266.3,159.8
			c0-0.6-0.4-1-1-1s-1,0.4-1,1c0,0.7,0.7,1,1.4,1.3C266,160.7,266.3,160.3,266.3,159.8z"/>
	</g>
	<g>
		<path d="M270.9,158.4h0.4l2.2,3.7l0.6,1l0,0c0-0.5,0-1,0-1.5v-3.2h0.4v5.3h-0.4l-2.2-3.7l-0.6-1l0,0c0,0.5,0,1,0,1.5v3.3h-0.4
			V158.4z"/>
		<path d="M275.7,161.8c0-1.3,0.8-2,1.7-2c0.9,0,1.7,0.7,1.7,2s-0.8,2-1.7,2S275.7,163.1,275.7,161.8z M278.7,161.8
			c0-1-0.6-1.7-1.4-1.7s-1.4,0.7-1.4,1.7s0.6,1.7,1.4,1.7S278.7,162.8,278.7,161.8z"/>
		<path d="M279.6,159.9h0.4l0.9,2.4c0.1,0.4,0.3,0.8,0.4,1.1l0,0c0.1-0.4,0.3-0.7,0.4-1.1l0.9-2.4h0.4l-1.4,3.8h-0.5L279.6,159.9z"
			/>
		<path d="M283.3,161.6h1.8v0.3h-1.8V161.6z"/>
		<path d="M286.1,163.4h1.2v-4.2h-0.9V159c0.4-0.1,0.7-0.2,1-0.3h0.3v4.8h1.1v0.3h-2.7V163.4z"/>
		<path d="M289.5,162.4c0-0.7,0.5-1.2,1-1.4l0,0c-0.4-0.2-0.7-0.6-0.7-1.2c0-0.7,0.6-1.2,1.3-1.2c0.9,0,1.4,0.6,1.4,1.3
			c0,0.6-0.4,1.1-0.7,1.3l0,0c0.4,0.3,0.9,0.6,0.9,1.3s-0.6,1.3-1.6,1.3C290.2,163.8,289.5,163.2,289.5,162.4z M292.4,162.5
			c0-0.8-0.8-1.1-1.6-1.4c-0.5,0.3-0.9,0.7-0.9,1.3s0.5,1.1,1.3,1.1C291.9,163.5,292.4,163,292.4,162.5z M292.2,159.8
			c0-0.6-0.4-1-1-1s-1,0.4-1,1c0,0.7,0.7,1,1.4,1.3C292,160.7,292.2,160.3,292.2,159.8z"/>
	</g>
	<g>
		<path d="M296.3,158.4h1.2c1.6,0,2.4,1,2.4,2.6s-0.8,2.7-2.4,2.7h-1.2V158.4z M297.5,163.4c1.4,0,2-1,2-2.3c0-1.4-0.6-2.3-2-2.3
			h-0.8v4.6H297.5z"/>
		<path d="M300.8,161.8c0-1.3,0.8-2,1.7-2c0.9,0,1.5,0.6,1.5,1.8c0,0.1,0,0.2,0,0.3h-2.9c0,1,0.6,1.7,1.4,1.7c0.4,0,0.7-0.1,1-0.3
			l0.1,0.3c-0.3,0.2-0.6,0.4-1.2,0.4C301.6,163.8,300.8,163.1,300.8,161.8z M303.6,161.6c0-1-0.4-1.5-1.1-1.5s-1.2,0.6-1.3,1.5
			H303.6z"/>
		<path d="M304.6,161.8c0-1.3,0.8-2,1.8-2c0.5,0,0.9,0.2,1.1,0.5l-0.2,0.2c-0.2-0.2-0.5-0.4-0.9-0.4c-0.8,0-1.4,0.7-1.4,1.7
			s0.6,1.7,1.4,1.7c0.4,0,0.8-0.2,1-0.4l0.2,0.2c-0.3,0.3-0.7,0.5-1.2,0.5C305.4,163.8,304.6,163.1,304.6,161.8z"/>
		<path d="M308.1,161.6h1.8v0.3h-1.8V161.6z"/>
		<path d="M310.8,163.4h1.2v-4.2h-0.9V159c0.4-0.1,0.7-0.2,1-0.3h0.3v4.8h1.1v0.3h-2.7L310.8,163.4L310.8,163.4z"/>
		<path d="M314.3,162.4c0-0.7,0.5-1.2,1-1.4l0,0c-0.4-0.2-0.7-0.6-0.7-1.2c0-0.7,0.6-1.2,1.3-1.2c0.9,0,1.4,0.6,1.4,1.3
			c0,0.6-0.4,1.1-0.7,1.3l0,0c0.4,0.3,0.9,0.6,0.9,1.3s-0.6,1.3-1.6,1.3C315,163.8,314.3,163.2,314.3,162.4z M317.1,162.5
			c0-0.8-0.8-1.1-1.6-1.4c-0.5,0.3-0.9,0.7-0.9,1.3s0.5,1.1,1.3,1.1C316.6,163.5,317.1,163,317.1,162.5z M317,159.8c0-0.6-0.4-1-1-1
			s-1,0.4-1,1c0,0.7,0.7,1,1.4,1.3C316.7,160.7,317,160.3,317,159.8z"/>
	</g>
	<g>
		<path d="M321.1,163l0.3-0.2c0.3,0.4,0.6,0.6,1,0.6c0.6,0,0.9-0.4,0.9-1.2v-3.8h0.4v3.8c0,0.8-0.4,1.5-1.3,1.5
			C321.8,163.8,321.3,163.5,321.1,163z"/>
		<path d="M324.9,162.8c0-0.8,0.8-1.3,2.5-1.4c0-0.6-0.2-1.2-0.9-1.2c-0.5,0-1,0.3-1.2,0.4l-0.2-0.3c0.3-0.2,0.8-0.5,1.4-0.5
			c0.9,0,1.2,0.7,1.2,1.5v2.5h-0.3v-0.5l0,0c-0.4,0.3-0.9,0.6-1.4,0.6C325.4,163.8,324.9,163.5,324.9,162.8z M327.4,162.9v-1.3
			c-1.6,0.2-2.1,0.6-2.1,1.2c0,0.6,0.4,0.8,0.8,0.8S326.9,163.3,327.4,162.9z"/>
		<path d="M329.1,159.9h0.3v0.6l0,0c0.4-0.4,0.8-0.7,1.3-0.7c0.8,0,1.2,0.5,1.2,1.5v2.5h-0.4v-2.4c0-0.8-0.3-1.2-0.9-1.2
			c-0.5,0-0.8,0.2-1.3,0.7v2.9h-0.2V159.9z"/>
		<path d="M332.9,161.6h1.8v0.3h-1.8V161.6z"/>
		<path d="M335.7,163.4h1.2v-4.2H336V159c0.4-0.1,0.7-0.2,1-0.3h0.3v4.8h1.1v0.3h-2.7V163.4z"/>
		<path d="M339.3,163.3l0.2-0.2c0.2,0.3,0.5,0.4,0.9,0.4c0.8,0,1.5-0.7,1.5-2.5c-0.4,0.4-0.8,0.7-1.3,0.7c-0.9,0-1.4-0.6-1.4-1.6
			c0-0.9,0.6-1.6,1.4-1.6c1,0,1.7,0.9,1.7,2.4c0,2.1-0.9,2.9-1.9,2.9C339.9,163.8,339.6,163.6,339.3,163.3z M340.7,161.4
			c0.4,0,0.8-0.2,1.2-0.8c-0.1-1.1-0.5-1.8-1.3-1.8c-0.6,0-1,0.6-1,1.3C339.5,160.8,339.9,161.4,340.7,161.4z"/>
	</g>
	<g>
		<path d="M346.5,158.4h2.9v0.3h-2.5v2.1h2.1v0.3h-2.1v2.5h-0.4V158.4z"/>
		<path d="M349.9,161.8c0-1.3,0.8-2,1.7-2c0.9,0,1.5,0.6,1.5,1.8c0,0.1,0,0.2,0,0.3h-2.8c0,1,0.6,1.7,1.4,1.7c0.4,0,0.7-0.1,1-0.3
			l0.1,0.3c-0.3,0.2-0.6,0.4-1.2,0.4C350.7,163.8,349.9,163.1,349.9,161.8z M352.7,161.6c0-1-0.4-1.5-1.1-1.5s-1.2,0.6-1.3,1.5
			H352.7z"/>
		<path d="M354.4,163.3L354.4,163.3l-0.1,0.4h-0.2V158h0.4v1.7v0.8c0.4-0.3,0.9-0.6,1.3-0.6c1,0,1.5,0.8,1.5,2
			c0,1.3-0.8,2.1-1.7,2.1C355.2,163.8,354.8,163.6,354.4,163.3z M356.9,161.7c0-0.9-0.3-1.6-1.2-1.6c-0.4,0-0.8,0.2-1.3,0.6v2.3
			c0.4,0.4,0.8,0.5,1.1,0.5C356.3,163.5,356.9,162.8,356.9,161.7z"/>
		<path d="M358.1,161.6h1.8v0.3h-1.8V161.6z"/>
		<path d="M360.8,163.4h1.2v-4.2h-0.9V159c0.4-0.1,0.7-0.2,1-0.3h0.3v4.8h1.1v0.3h-2.7L360.8,163.4L360.8,163.4z"/>
		<path d="M364.4,163.3l0.2-0.2c0.2,0.3,0.5,0.4,0.9,0.4c0.8,0,1.5-0.7,1.5-2.5c-0.4,0.4-0.8,0.7-1.3,0.7c-0.9,0-1.4-0.6-1.4-1.6
			c0-0.9,0.6-1.6,1.4-1.6c1,0,1.7,0.9,1.7,2.4c0,2.1-0.9,2.9-1.9,2.9C365,163.8,364.7,163.6,364.4,163.3z M365.8,161.4
			c0.4,0,0.8-0.2,1.2-0.8c-0.1-1.1-0.5-1.8-1.3-1.8c-0.6,0-1,0.6-1,1.3C364.7,160.8,365,161.4,365.8,161.4z"/>
	</g>
	<g>
		<path d="M371.6,158.4h0.5l1.1,3.1c0.1,0.4,0.3,0.8,0.4,1.2l0,0c0.1-0.4,0.3-0.8,0.4-1.2l1.1-3.1h0.5v5.3h-0.4v-3.5
			c0-0.4,0-1,0-1.4l0,0l-0.4,1.2l-1.1,3.1h-0.3l-1.1-3.1l-0.4-1.2l0,0c0,0.4,0,1,0,1.4v3.5h-0.3L371.6,158.4L371.6,158.4z"/>
		<path d="M376.9,162.8c0-0.8,0.8-1.3,2.5-1.4c0-0.6-0.2-1.2-0.9-1.2c-0.5,0-1,0.3-1.2,0.4l-0.2-0.3c0.3-0.2,0.8-0.5,1.4-0.5
			c0.9,0,1.2,0.7,1.2,1.5v2.5h-0.3v-0.5l0,0c-0.4,0.3-0.9,0.6-1.4,0.6C377.4,163.8,376.9,163.5,376.9,162.8z M379.4,162.9v-1.3
			c-1.6,0.2-2.1,0.6-2.1,1.2c0,0.6,0.4,0.8,0.8,0.8C378.6,163.5,378.9,163.3,379.4,162.9z"/>
		<path d="M381.1,159.9h0.3v0.7l0,0c0.3-0.5,0.6-0.8,1.1-0.8c0.1,0,0.3,0,0.4,0.1l-0.1,0.3c-0.1,0-0.2-0.1-0.4-0.1
			c-0.3,0-0.8,0.3-1,1v2.6h-0.3V159.9z"/>
		<path d="M383.1,161.6h1.8v0.3h-1.8V161.6z"/>
		<path d="M385.8,163.4h1.2v-4.2h-0.9V159c0.4-0.1,0.7-0.2,1-0.3h0.3v4.8h1.1v0.3h-2.7L385.8,163.4L385.8,163.4z"/>
		<path d="M389.5,163.3l0.2-0.2c0.2,0.3,0.5,0.4,0.9,0.4c0.8,0,1.5-0.7,1.5-2.5c-0.4,0.4-0.8,0.7-1.3,0.7c-0.9,0-1.4-0.6-1.4-1.6
			c0-0.9,0.6-1.6,1.4-1.6c1,0,1.7,0.9,1.7,2.4c0,2.1-0.9,2.9-1.9,2.9C390.1,163.8,389.7,163.6,389.5,163.3z M390.8,161.4
			c0.4,0,0.8-0.2,1.2-0.8c-0.1-1.1-0.5-1.8-1.3-1.8c-0.6,0-1,0.6-1,1.3C389.7,160.8,390,161.4,390.8,161.4z"/>
	</g>
	<line class="st0" x1="22" y1="154.3" x2="22" y2="35.1"/>
	<line class="st0" x1="19.3" y1="35.3" x2="22.2" y2="35.3"/>
	<line class="st0" x1="19.3" y1="54.6" x2="22.2" y2="54.6"/>
	<line class="st0" x1="19.3" y1="74" x2="22.2" y2="74"/>
	<line class="st0" x1="19.3" y1="93.4" x2="22.2" y2="93.4"/>
	<line class="st0" x1="19.3" y1="112.8" x2="22.2" y2="112.8"/>
	<line class="st0" x1="19.3" y1="132.2" x2="22.2" y2="132.2"/>
	<line class="st0" x1="31" y1="151.4" x2="31" y2="154.3"/>
	<line class="st0" x1="56.1" y1="151.4" x2="56.1" y2="154.3"/>
	<line class="st0" x1="81.2" y1="151.4" x2="81.2" y2="154.3"/>
	<line class="st0" x1="106.2" y1="151.4" x2="106.2" y2="154.3"/>
	<line class="st0" x1="131.3" y1="151.4" x2="131.3" y2="154.3"/>
	<line class="st0" x1="156.3" y1="151.4" x2="156.3" y2="154.3"/>
	<line class="st0" x1="181.4" y1="151.4" x2="181.4" y2="154.3"/>
	<line class="st0" x1="206.4" y1="151.4" x2="206.4" y2="154.3"/>
	<line class="st0" x1="231.5" y1="151.4" x2="231.5" y2="154.3"/>
	<line class="st0" x1="256.5" y1="151.4" x2="256.5" y2="154.3"/>
	<line class="st0" x1="281.6" y1="151.4" x2="281.6" y2="154.3"/>
	<line class="st0" x1="306.7" y1="151.4" x2="306.7" y2="154.3"/>
	<line class="st0" x1="331.7" y1="151.4" x2="331.7" y2="154.3"/>
	<line class="st0" x1="356.8" y1="151.4" x2="356.8" y2="154.3"/>
	<line class="st0" x1="381.8" y1="151.4" x2="381.8" y2="154.3"/>
	<polygon class="st1" points="31,49.4 56,40.3 81.2,65.8 106.1,74.1 131.1,86.8 156.2,83.4 179.3,125.9 206.3,140.7 231.4,148.6 
		254.1,125.3 279.6,132.3 305.1,129.2 329,136.7 354.5,121.9 381.8,106.1 381.8,151.5 31,151.5 	"/>
	<line class="st0" x1="19.3" y1="151.6" x2="393.9" y2="151.6"/>
</g>
</svg>
