<?xml version="1.0" encoding="utf-8"?>
<!-- Generator: Adobe Illustrator 23.0.3, SVG Export Plug-In . SVG Version: 6.00 Build 0)  -->
<svg version="1.1" id="Layer_1" xmlns="http://www.w3.org/2000/svg" xmlns:xlink="http://www.w3.org/1999/xlink" x="0px" y="0px"
	 viewBox="0 0 512 128" style="enable-background:new 0 0 512 128;" xml:space="preserve">
<style type="text/css">
	.st0{fill:#37B550;}
	.st1{fill:#FFFFFF;}
	.st2{fill:#00AE4D;}
	.st3{fill:#A3D4A0;}
	.st4{fill:none;stroke:#939598;stroke-width:0.5;stroke-miterlimit:10;}
	.st5{fill:none;stroke:#939598;stroke-width:0.499;stroke-miterlimit:10;}
	.st6{fill:none;stroke:#FFFFFF;stroke-width:0.499;stroke-miterlimit:10;}
</style>
<g>
	<path class="st0" d="M7.4,8.4h2.2c1.4,0,2.6,0.5,2.6,2.1c0,1.5-1.2,2.2-2.5,2.2H8.8v2.2H7.4V8.4z M9.6,11.5c0.8,0,1.2-0.4,1.2-1
		s-0.4-0.9-1.2-0.9H8.8v2H9.6z"/>
	<path class="st0" d="M13.3,8.4h4.1v1.2h-2.6v1.3H17v1.2h-2.2v1.5h2.7v1.2h-4.2V8.4z"/>
	<path class="st0" d="M18.8,8.4h2.3c1.4,0,2.5,0.5,2.5,2c0,1-0.5,1.6-1.2,1.9l1.5,2.6h-1.6l-1.3-2.3h-0.8v2.3h-1.5V8.4z M21,11.4
		c0.8,0,1.2-0.3,1.2-1S21.8,9.5,21,9.5h-0.8v1.8H21z"/>
	<path class="st0" d="M24.9,8.4h4.1v1.2h-2.6v1.5h2.3v1.2h-2.3v2.5h-1.5V8.4z"/>
	<path class="st0" d="M29.8,11.6c0-2.1,1.2-3.3,3-3.3c1.8,0,3,1.2,3,3.3c0,2.1-1.2,3.4-3,3.4C31,15,29.8,13.7,29.8,11.6z M34.2,11.6
		c0-1.3-0.6-2.1-1.4-2.1c-0.9,0-1.4,0.8-1.4,2.1c0,1.3,0.6,2.1,1.4,2.1C33.6,13.7,34.2,12.9,34.2,11.6z"/>
	<path class="st0" d="M36.9,8.4h2.3c1.4,0,2.5,0.5,2.5,2c0,1-0.5,1.6-1.2,1.9l1.5,2.6h-1.6l-1.3-2.3h-0.8v2.3h-1.5V8.4z M39.2,11.4
		c0.8,0,1.2-0.3,1.2-1s-0.4-0.9-1.2-0.9h-0.8v1.8H39.2z"/>
	<path class="st0" d="M43.1,8.4h1.6l1,2.9c0.1,0.4,0.3,0.8,0.4,1.2h0c0.1-0.4,0.2-0.8,0.4-1.2l1-2.9h1.6v6.5h-1.3v-2.4
		c0-0.6,0.1-1.6,0.2-2.2h0l-0.5,1.5l-0.9,2.5h-0.8l-0.9-2.5l-0.5-1.5h0c0.1,0.6,0.2,1.6,0.2,2.2v2.4h-1.3V8.4z"/>
	<path class="st0" d="M51.9,8.4h1.8l2,6.5h-1.6l-0.4-1.5h-2l-0.4,1.5h-1.5L51.9,8.4z M52.1,12.2h1.4l-0.2-0.6
		c-0.2-0.7-0.4-1.4-0.5-2.1h0c-0.2,0.7-0.3,1.4-0.5,2.1L52.1,12.2z"/>
	<path class="st0" d="M56.4,8.4h1.5l1.7,3.2l0.6,1.4h0c-0.1-0.7-0.2-1.6-0.2-2.4V8.4h1.4v6.5H60l-1.7-3.2l-0.6-1.4h0
		c0.1,0.7,0.2,1.6,0.2,2.4v2.3h-1.4V8.4z"/>
	<path class="st0" d="M62.8,11.7c0-2.2,1.4-3.4,3.1-3.4c0.8,0,1.5,0.4,2,0.8L67,10c-0.3-0.3-0.7-0.5-1.2-0.5c-0.9,0-1.6,0.8-1.6,2.1
		c0,1.3,0.6,2.1,1.6,2.1c0.5,0,0.9-0.3,1.3-0.6l0.8,0.9c-0.5,0.6-1.3,1-2.1,1C64.1,15,62.8,13.8,62.8,11.7z"/>
	<path class="st0" d="M68.9,8.4H73v1.2h-2.6v1.3h2.2v1.2h-2.2v1.5h2.7v1.2h-4.2V8.4z"/>
	<path class="st0" d="M76.4,8.4h1.5v6.5h-1.5V8.4z"/>
	<path class="st0" d="M79.4,8.4h1.5l1.7,3.2l0.6,1.4h0c-0.1-0.7-0.2-1.6-0.2-2.4V8.4h1.4v6.5H83l-1.7-3.2l-0.6-1.4h0
		c0.1,0.7,0.2,1.6,0.2,2.4v2.3h-1.4V8.4z"/>
	<path class="st0" d="M88,8.4h4.1v1.2h-2.6v1.5h2.3v1.2h-2.3v2.5H88V8.4z"/>
	<path class="st0" d="M94.2,12.6l-2-4.2h1.6l0.6,1.5c0.2,0.5,0.3,0.9,0.5,1.4h0c0.2-0.5,0.4-0.9,0.5-1.4l0.6-1.5h1.5l-2,4.2v2.3
		h-1.5V12.6z"/>
	<path class="st0" d="M100,14c1.6-1.5,2.8-2.6,2.8-3.5c0-0.6-0.3-1-0.9-1c-0.5,0-0.8,0.3-1.1,0.7l-0.8-0.8c0.6-0.7,1.2-1,2.1-1
		c1.3,0,2.1,0.8,2.1,2c0,1.1-1,2.2-2,3.3c0.3,0,0.8-0.1,1.1-0.1h1.3v1.2H100V14z"/>
	<path class="st0" d="M105.3,11.7c0-2.2,0.9-3.3,2.3-3.3s2.3,1.1,2.3,3.3s-0.9,3.3-2.3,3.3S105.3,13.8,105.3,11.7z M108.4,11.7
		c0-1.7-0.4-2.1-0.9-2.1c-0.5,0-0.9,0.4-0.9,2.1c0,1.7,0.4,2.2,0.9,2.2C108,13.9,108.4,13.4,108.4,11.7z"/>
	<path class="st0" d="M110.9,13.7h1.4V10h-1.2V9.1c0.7-0.1,1.1-0.3,1.6-0.6h1.1v5.2h1.2v1.2h-4V13.7z"/>
	<path class="st0" d="M115.9,14.2l0.8-0.9c0.2,0.2,0.6,0.5,1,0.5c0.7,0,1.3-0.5,1.3-2c-0.3,0.4-0.9,0.7-1.3,0.7
		c-1.1,0-1.9-0.6-1.9-2c0-1.3,1-2.1,2.1-2.1c1.2,0,2.4,0.9,2.4,3.1c0,2.4-1.2,3.4-2.6,3.4C116.9,15,116.3,14.6,115.9,14.2z
		 M118,11.5c0.3,0,0.7-0.2,0.9-0.6c-0.1-1-0.5-1.3-1-1.3c-0.4,0-0.8,0.3-0.8,1C117.1,11.2,117.5,11.5,118,11.5z"/>
</g>
<rect x="6.6" y="22" class="st1" width="99.2" height="23.2"/>
<path class="st2" d="M403.5,22h99.2v23.2h-99.2V22z M304.2,22h99.2v23.2h-99.2V22z M205,22h99.2v23.2H205V22z M105.8,22H205v23.2
	h-99.2V22z"/>
<path class="st3" d="M403.5,94.9h99.2v12.4h-99.2V94.9z M304.2,94.9h99.2v12.4h-99.2V94.9z M205,94.9h99.2v12.4H205V94.9z
	 M105.8,94.9H205v12.4h-99.2V94.9z M403.5,70h99.2v12.4h-99.2V70z M304.2,70h99.2v12.4h-99.2V70z M205,70h99.2v12.4H205V70z
	 M105.8,70H205v12.4h-99.2V70z M403.5,45.2h99.2v12.4h-99.2V45.2z M304.2,45.2h99.2v12.4h-99.2V45.2z M205,45.2h99.2v12.4H205V45.2z
	 M105.8,45.2H205v12.4h-99.2V45.2z"/>
<line class="st4" x1="6.6" y1="57.6" x2="105.6" y2="57.6"/>
<line class="st4" x1="106.1" y1="57.6" x2="204.8" y2="57.6"/>
<line class="st4" x1="205.3" y1="57.6" x2="304" y2="57.6"/>
<line class="st4" x1="304.5" y1="57.6" x2="403.2" y2="57.6"/>
<line class="st4" x1="403.7" y1="57.6" x2="502.7" y2="57.6"/>
<line class="st4" x1="304.2" y1="82.4" x2="403.2" y2="82.4"/>
<line class="st4" x1="403.7" y1="82.4" x2="502.7" y2="82.4"/>
<line class="st4" x1="106.1" y1="70" x2="204.8" y2="70"/>
<line class="st4" x1="205.3" y1="70" x2="304" y2="70"/>
<line class="st4" x1="304.5" y1="70" x2="403.2" y2="70"/>
<line class="st4" x1="403.7" y1="70" x2="502.7" y2="70"/>
<line class="st4" x1="106.1" y1="94.9" x2="204.8" y2="94.9"/>
<line class="st4" x1="205.3" y1="94.9" x2="304" y2="94.9"/>
<line class="st4" x1="304.5" y1="94.9" x2="403.2" y2="94.9"/>
<line class="st4" x1="403.7" y1="94.9" x2="502.7" y2="94.9"/>
<line class="st4" x1="6.6" y1="82.4" x2="105.6" y2="82.4"/>
<line class="st4" x1="6.6" y1="94.9" x2="105.6" y2="94.9"/>
<line class="st4" x1="105.8" y1="107.3" x2="204.8" y2="107.3"/>
<line class="st4" x1="205.3" y1="107.3" x2="304" y2="107.3"/>
<line class="st4" x1="304.5" y1="107.3" x2="403.2" y2="107.3"/>
<line class="st4" x1="403.7" y1="107.3" x2="502.7" y2="107.3"/>
<line class="st4" x1="6.6" y1="119.7" x2="105.8" y2="119.7"/>
<line class="st4" x1="105.8" y1="119.7" x2="205" y2="119.7"/>
<line class="st4" x1="205" y1="119.7" x2="304.2" y2="119.7"/>
<line class="st4" x1="304.2" y1="119.7" x2="403.5" y2="119.7"/>
<line class="st4" x1="403.5" y1="119.7" x2="502.7" y2="119.7"/>
<line class="st5" x1="403.5" y1="57.6" x2="403.5" y2="45.4"/>
<line class="st5" x1="403.5" y1="70" x2="403.5" y2="57.6"/>
<line class="st5" x1="403.5" y1="82.4" x2="403.5" y2="70"/>
<line class="st5" x1="205" y1="94.9" x2="205" y2="82.7"/>
<line class="st5" x1="304.2" y1="94.9" x2="304.2" y2="82.7"/>
<line class="st5" x1="403.5" y1="94.9" x2="403.5" y2="82.4"/>
<line class="st5" x1="205" y1="107.3" x2="205" y2="94.9"/>
<line class="st5" x1="304.2" y1="107.3" x2="304.2" y2="94.9"/>
<line class="st5" x1="403.5" y1="107.3" x2="403.5" y2="94.9"/>
<line class="st5" x1="105.8" y1="119.4" x2="105.8" y2="107.5"/>
<line class="st5" x1="205" y1="119.4" x2="205" y2="107.3"/>
<line class="st5" x1="304.2" y1="119.4" x2="304.2" y2="107.3"/>
<line class="st5" x1="403.5" y1="119.4" x2="403.5" y2="107.3"/>
<line class="st4" x1="6.6" y1="70" x2="105.6" y2="70"/>
<line class="st4" x1="106.1" y1="82.4" x2="205" y2="82.4"/>
<line class="st5" x1="205" y1="57.6" x2="205" y2="45.4"/>
<line class="st5" x1="304.2" y1="57.6" x2="304.2" y2="45.4"/>
<line class="st5" x1="205" y1="70" x2="205" y2="57.6"/>
<line class="st5" x1="304.2" y1="70" x2="304.2" y2="57.6"/>
<line class="st5" x1="205" y1="82.2" x2="205" y2="70"/>
<line class="st5" x1="304.2" y1="82.2" x2="304.2" y2="70"/>
<line class="st4" x1="205" y1="82.4" x2="304.2" y2="82.4"/>
<line class="st5" x1="105.8" y1="57.6" x2="105.8" y2="45.4"/>
<line class="st5" x1="105.8" y1="70" x2="105.8" y2="57.6"/>
<line class="st5" x1="105.8" y1="82.4" x2="105.8" y2="70"/>
<line class="st5" x1="105.8" y1="94.9" x2="105.8" y2="82.4"/>
<line class="st5" x1="105.8" y1="107" x2="105.8" y2="94.9"/>
<line class="st4" x1="6.6" y1="107.3" x2="105.8" y2="107.3"/>
<line class="st6" x1="105.8" y1="44.9" x2="105.8" y2="22.2"/>
<line class="st6" x1="205" y1="44.9" x2="205" y2="22.2"/>
<line class="st6" x1="304.2" y1="44.9" x2="304.2" y2="22.2"/>
<line class="st6" x1="403.5" y1="44.9" x2="403.5" y2="22.2"/>
<line class="st5" x1="6.6" y1="22" x2="105.8" y2="22"/>
<line class="st5" x1="105.8" y1="22" x2="205" y2="22"/>
<line class="st5" x1="205" y1="22" x2="304.2" y2="22"/>
<line class="st5" x1="304.2" y1="22" x2="403.5" y2="22"/>
<line class="st5" x1="403.5" y1="22" x2="502.7" y2="22"/>
<line class="st5" x1="6.6" y1="45.2" x2="105.8" y2="45.2"/>
<line class="st5" x1="105.8" y1="45.2" x2="205" y2="45.2"/>
<line class="st5" x1="205" y1="45.2" x2="304.2" y2="45.2"/>
<line class="st5" x1="304.2" y1="45.2" x2="403.5" y2="45.2"/>
<line class="st5" x1="403.5" y1="45.2" x2="502.7" y2="45.2"/>
<g>
	<path class="st1" d="M117.7,28.6c0-1.9,1.3-3.1,2.8-3.1c0.8,0,1.4,0.4,1.8,0.8l-0.7,0.8c-0.3-0.3-0.6-0.5-1-0.5
		c-0.8,0-1.4,0.7-1.4,1.9c0,1.2,0.6,1.9,1.4,1.9c0.5,0,0.9-0.2,1.1-0.5l0.7,0.8c-0.5,0.6-1.1,0.9-1.9,0.9
		C119,31.7,117.7,30.6,117.7,28.6z"/>
	<path class="st1" d="M123.1,25.2h1.3v1.5l-0.1,0.8c0.3-0.3,0.8-0.6,1.4-0.6c1,0,1.4,0.7,1.4,1.8v2.8h-1.3v-2.6
		c0-0.6-0.2-0.8-0.6-0.8c-0.3,0-0.5,0.2-0.8,0.4v3h-1.3V25.2z"/>
	<path class="st1" d="M128.1,30.3c0-0.9,0.7-1.4,2.5-1.6c0-0.4-0.2-0.6-0.7-0.6c-0.4,0-0.7,0.2-1.2,0.4l-0.5-0.9
		c0.6-0.3,1.2-0.6,1.9-0.6c1.1,0,1.8,0.6,1.8,2v2.6h-1.1l-0.1-0.5h0c-0.4,0.3-0.8,0.6-1.3,0.6C128.6,31.7,128.1,31.1,128.1,30.3z
		 M130.6,30.2v-0.8c-0.9,0.1-1.2,0.4-1.2,0.7c0,0.3,0.2,0.4,0.5,0.4C130.2,30.6,130.3,30.5,130.6,30.2z"/>
	<path class="st1" d="M133,27.1h1.1l0.1,0.6h0c0.4-0.4,0.8-0.7,1.4-0.7c1,0,1.4,0.7,1.4,1.8v2.8h-1.3v-2.6c0-0.6-0.2-0.8-0.5-0.8
		c-0.3,0-0.5,0.2-0.8,0.4v3H133V27.1z"/>
	<path class="st1" d="M137.9,29.3c0-1.5,0.9-2.3,1.9-2.3c0.5,0,0.8,0.2,1.1,0.5l-0.1-0.7v-1.5h1.3v6.3h-1.1l-0.1-0.4h0
		c-0.3,0.3-0.8,0.5-1.2,0.5C138.7,31.7,137.9,30.8,137.9,29.3z M140.8,30.2v-1.8c-0.2-0.2-0.5-0.3-0.7-0.3c-0.4,0-0.8,0.4-0.8,1.2
		c0,0.9,0.3,1.3,0.8,1.3C140.4,30.6,140.6,30.5,140.8,30.2z"/>
	<path class="st1" d="M143.1,29.3c0-1.4,1-2.3,2.1-2.3c1.3,0,1.9,0.9,1.9,2.1c0,0.2,0,0.5-0.1,0.6h-2.7c0.1,0.6,0.6,0.9,1.2,0.9
		c0.3,0,0.6-0.1,1-0.3l0.4,0.8c-0.5,0.3-1.1,0.5-1.6,0.5C144,31.7,143.1,30.8,143.1,29.3z M145.9,28.8c0-0.5-0.2-0.8-0.7-0.8
		c-0.4,0-0.8,0.3-0.9,0.8H145.9z"/>
	<path class="st1" d="M148,27.1h1.1l0.1,0.8h0c0.3-0.6,0.8-0.9,1.3-0.9c0.3,0,0.4,0,0.5,0.1l-0.2,1.1c-0.2,0-0.3-0.1-0.5-0.1
		c-0.3,0-0.7,0.2-1,0.8v2.6H148V27.1z"/>
	<path class="st1" d="M151.5,25.7c0-0.4,0.3-0.7,0.7-0.7s0.7,0.3,0.7,0.7c0,0.4-0.3,0.7-0.7,0.7S151.5,26.2,151.5,25.7z M151.6,27.1
		h1.3v4.5h-1.3V27.1z"/>
	<path class="st1" d="M153.9,33.2l0.2-1c0.1,0,0.2,0.1,0.3,0.1c0.4,0,0.7-0.2,0.8-0.6l0.1-0.2l-1.7-4.3h1.3l0.6,1.9
		c0.1,0.4,0.2,0.8,0.4,1.3h0c0.1-0.4,0.2-0.8,0.3-1.3l0.5-1.9h1.3l-1.5,4.5c-0.4,1.1-0.9,1.7-2,1.7
		C154.3,33.3,154.1,33.3,153.9,33.2z"/>
	<path class="st1" d="M158.5,30.3c0-0.9,0.7-1.4,2.5-1.6c0-0.4-0.2-0.6-0.7-0.6c-0.4,0-0.7,0.2-1.2,0.4l-0.5-0.9
		c0.6-0.3,1.2-0.6,1.9-0.6c1.1,0,1.8,0.6,1.8,2v2.6h-1.1l-0.1-0.5h0c-0.4,0.3-0.8,0.6-1.3,0.6C159,31.7,158.5,31.1,158.5,30.3z
		 M161,30.2v-0.8c-0.9,0.1-1.2,0.4-1.2,0.7c0,0.3,0.2,0.4,0.5,0.4C160.6,30.6,160.8,30.5,161,30.2z"/>
	<path class="st1" d="M165.4,25.7h1.3v4.8h2.3v1.1h-3.6V25.7z"/>
	<path class="st1" d="M169.7,29.3c0-1.4,1-2.3,2.1-2.3c1.3,0,1.9,0.9,1.9,2.1c0,0.2,0,0.5-0.1,0.6H171c0.1,0.6,0.6,0.9,1.2,0.9
		c0.3,0,0.6-0.1,1-0.3l0.4,0.8c-0.5,0.3-1.1,0.5-1.6,0.5C170.7,31.7,169.7,30.8,169.7,29.3z M172.6,28.8c0-0.5-0.2-0.8-0.7-0.8
		c-0.4,0-0.8,0.3-0.9,0.8H172.6z"/>
	<path class="st1" d="M174.4,30.3c0-0.9,0.7-1.4,2.5-1.6c0-0.4-0.2-0.6-0.7-0.6c-0.4,0-0.7,0.2-1.2,0.4l-0.5-0.9
		c0.6-0.3,1.2-0.6,1.9-0.6c1.1,0,1.8,0.6,1.8,2v2.6h-1.1l-0.1-0.5h0c-0.4,0.3-0.8,0.6-1.3,0.6C174.9,31.7,174.4,31.1,174.4,30.3z
		 M176.9,30.2v-0.8c-0.9,0.1-1.2,0.4-1.2,0.7c0,0.3,0.2,0.4,0.5,0.4C176.5,30.6,176.7,30.5,176.9,30.2z"/>
	<path class="st1" d="M179.1,29.3c0-1.5,0.9-2.3,1.9-2.3c0.5,0,0.8,0.2,1.1,0.5l-0.1-0.7v-1.5h1.3v6.3h-1.1l-0.1-0.4h0
		c-0.3,0.3-0.8,0.5-1.2,0.5C179.8,31.7,179.1,30.8,179.1,29.3z M182,30.2v-1.8c-0.2-0.2-0.5-0.3-0.7-0.3c-0.4,0-0.8,0.4-0.8,1.2
		c0,0.9,0.3,1.3,0.8,1.3C181.6,30.6,181.8,30.5,182,30.2z"/>
	<path class="st1" d="M184.3,28.8h2.2v0.9h-2.2V28.8z"/>
	<path class="st1" d="M187.2,30.7l2.6-4h-2.3v-1.1h4v0.8l-2.6,4h2.6v1.1h-4.3V30.7z"/>
	<path class="st1" d="M192.3,25.7c0-0.4,0.3-0.7,0.7-0.7s0.7,0.3,0.7,0.7c0,0.4-0.3,0.7-0.7,0.7S192.3,26.2,192.3,25.7z M192.4,27.1
		h1.3v4.5h-1.3V27.1z"/>
	<path class="st1" d="M194.8,27.1h1.1l0.1,0.6h0c0.4-0.4,0.8-0.7,1.4-0.7c1,0,1.4,0.7,1.4,1.8v2.8h-1.3v-2.6c0-0.6-0.2-0.8-0.5-0.8
		c-0.3,0-0.5,0.2-0.8,0.4v3h-1.3V27.1z"/>
	<path class="st1" d="M199.7,29.3c0-1.5,1.1-2.3,2.3-2.3c0.5,0,1,0.2,1.3,0.5l-0.6,0.9c-0.2-0.2-0.4-0.3-0.6-0.3c-0.6,0-1,0.5-1,1.3
		s0.4,1.3,1,1.3c0.3,0,0.6-0.1,0.8-0.3l0.5,0.9c-0.4,0.4-1,0.5-1.5,0.5C200.7,31.7,199.7,30.8,199.7,29.3z"/>
</g>
<g>
	<path class="st1" d="M144.5,41.6l0.8-0.9c0.4,0.4,1,0.6,1.4,0.6c0.5,0,0.8-0.2,0.8-0.6c0-0.4-0.3-0.5-0.8-0.7l-0.8-0.3
		c-0.6-0.2-1.2-0.7-1.2-1.6c0-1,0.9-1.7,2.1-1.7c0.7,0,1.4,0.3,1.9,0.8l-0.7,0.8c-0.4-0.3-0.7-0.5-1.2-0.5c-0.5,0-0.7,0.2-0.7,0.5
		c0,0.4,0.4,0.5,0.9,0.7l0.8,0.3c0.7,0.3,1.2,0.8,1.2,1.6c0,1-0.8,1.8-2.2,1.8C145.9,42.5,145.1,42.2,144.5,41.6z"/>
	<path class="st1" d="M149.8,37.9h1.1l0.1,0.6h0c0.4-0.4,0.8-0.7,1.3-0.7c0.6,0,1,0.3,1.2,0.7c0.4-0.4,0.8-0.7,1.4-0.7
		c1,0,1.4,0.7,1.4,1.8v2.8h-1.3v-2.6c0-0.6-0.2-0.8-0.5-0.8c-0.2,0-0.5,0.1-0.8,0.4v3h-1.3v-2.6c0-0.6-0.2-0.8-0.5-0.8
		c-0.2,0-0.5,0.1-0.8,0.4v3h-1.3V37.9z"/>
	<path class="st1" d="M157.2,40.1c0-1.4,1-2.3,2.1-2.3c1.3,0,1.9,0.9,1.9,2.1c0,0.2,0,0.5-0.1,0.6h-2.7c0.1,0.6,0.6,0.9,1.2,0.9
		c0.3,0,0.6-0.1,1-0.3l0.4,0.8c-0.5,0.3-1.1,0.5-1.6,0.5C158.2,42.5,157.2,41.6,157.2,40.1z M160.1,39.6c0-0.5-0.2-0.8-0.7-0.8
		c-0.4,0-0.8,0.3-0.9,0.8H160.1z"/>
	<path class="st1" d="M162.2,41V36h1.3v5c0,0.3,0.1,0.4,0.2,0.4c0.1,0,0.1,0,0.2,0l0.2,1c-0.1,0.1-0.4,0.1-0.7,0.1
		C162.5,42.5,162.2,41.9,162.2,41z"/>
	<path class="st1" d="M164.9,40.7v-1.8h-0.6v-1l0.7-0.1l0.2-1.2h1.1v1.2h1.1v1h-1.1v1.8c0,0.5,0.2,0.7,0.6,0.7c0.1,0,0.3,0,0.4-0.1
		l0.2,1c-0.2,0.1-0.6,0.2-1,0.2C165.4,42.5,164.9,41.8,164.9,40.7z"/>
	<path class="st1" d="M167.9,40.1c0-1.4,1-2.3,2.1-2.3c1.3,0,1.9,0.9,1.9,2.1c0,0.2,0,0.5-0.1,0.6h-2.7c0.1,0.6,0.6,0.9,1.2,0.9
		c0.3,0,0.6-0.1,1-0.3l0.4,0.8c-0.5,0.3-1.1,0.5-1.6,0.5C168.9,42.5,167.9,41.6,167.9,40.1z M170.8,39.6c0-0.5-0.2-0.8-0.7-0.8
		c-0.4,0-0.8,0.3-0.9,0.8H170.8z"/>
	<path class="st1" d="M172.9,37.9h1.1l0.1,0.8h0c0.3-0.6,0.8-0.9,1.3-0.9c0.3,0,0.4,0,0.5,0.1l-0.2,1.1c-0.2,0-0.3-0.1-0.5-0.1
		c-0.3,0-0.7,0.2-1,0.8v2.6h-1.3V37.9z"/>
	<path class="st1" d="M178.3,39.8c0-1.6,0.4-2.9,1.2-4.1l0.8,0.3c-0.7,1.2-0.9,2.5-0.9,3.8s0.3,2.6,0.9,3.8l-0.8,0.3
		C178.7,42.7,178.3,41.4,178.3,39.8z"/>
	<path class="st1" d="M181.2,39.4c0-1.9,1.3-3.1,2.8-3.1c0.8,0,1.4,0.4,1.8,0.8L185,38c-0.3-0.3-0.6-0.5-1-0.5
		c-0.8,0-1.4,0.7-1.4,1.9c0,1.2,0.6,1.9,1.4,1.9c0.5,0,0.9-0.2,1.1-0.5l0.7,0.8c-0.5,0.6-1.1,0.9-1.9,0.9
		C182.4,42.5,181.2,41.4,181.2,39.4z"/>
	<path class="st1" d="M186.7,36.5h1.3v4.8h2.3v1.1h-3.6V36.5z"/>
	<path class="st1" d="M191,41.5l2.6-4h-2.3v-1.1h4v0.8l-2.6,4h2.6v1.1H191V41.5z"/>
	<path class="st1" d="M195.8,41.6l0.8-0.9c0.4,0.4,1,0.6,1.4,0.6c0.5,0,0.8-0.2,0.8-0.6c0-0.4-0.3-0.5-0.8-0.7l-0.8-0.3
		c-0.6-0.2-1.2-0.7-1.2-1.6c0-1,0.9-1.7,2.1-1.7c0.7,0,1.4,0.3,1.9,0.8l-0.7,0.8c-0.4-0.3-0.7-0.5-1.2-0.5c-0.5,0-0.7,0.2-0.7,0.5
		c0,0.4,0.4,0.5,0.9,0.7l0.8,0.3c0.7,0.3,1.2,0.8,1.2,1.6c0,1-0.8,1.8-2.2,1.8C197.2,42.5,196.4,42.2,195.8,41.6z"/>
	<path class="st1" d="M200.9,43.6c0.7-1.2,1-2.5,1-3.8s-0.3-2.6-1-3.8l0.8-0.3c0.8,1.2,1.2,2.5,1.2,4.1c0,1.6-0.4,2.9-1.2,4.1
		L200.9,43.6z"/>
</g>
<g>
	<path class="st1" d="M253,30.7l2.6-4h-2.3v-1.1h4v0.8l-2.6,4h2.6v1.1H253V30.7z"/>
	<path class="st1" d="M258,25.7c0-0.4,0.3-0.7,0.7-0.7s0.7,0.3,0.7,0.7c0,0.4-0.3,0.7-0.7,0.7S258,26.2,258,25.7z M258.1,27.1h1.3
		v4.5h-1.3V27.1z"/>
	<path class="st1" d="M260.6,27.1h1.1l0.1,0.6h0c0.4-0.4,0.8-0.7,1.4-0.7c1,0,1.4,0.7,1.4,1.8v2.8h-1.3v-2.6c0-0.6-0.2-0.8-0.6-0.8
		c-0.3,0-0.5,0.2-0.8,0.4v3h-1.3V27.1z"/>
	<path class="st1" d="M265.5,29.3c0-1.5,1.1-2.3,2.3-2.3c0.6,0,1,0.2,1.3,0.5l-0.6,0.9c-0.2-0.2-0.4-0.3-0.6-0.3c-0.6,0-1,0.5-1,1.3
		s0.4,1.3,1,1.3c0.3,0,0.6-0.1,0.8-0.3l0.5,0.9c-0.4,0.4-1,0.5-1.5,0.5C266.5,31.7,265.5,30.8,265.5,29.3z"/>
	<path class="st1" d="M271.5,30.8l0.8-0.9c0.4,0.4,1,0.6,1.4,0.6c0.6,0,0.8-0.2,0.8-0.6c0-0.4-0.3-0.5-0.8-0.7l-0.8-0.3
		c-0.6-0.2-1.2-0.7-1.2-1.6c0-1,0.9-1.7,2.1-1.7c0.7,0,1.4,0.3,1.9,0.8l-0.7,0.8c-0.4-0.3-0.7-0.5-1.2-0.5c-0.5,0-0.7,0.2-0.7,0.5
		c0,0.4,0.4,0.5,0.9,0.7l0.8,0.3c0.7,0.3,1.2,0.8,1.2,1.6c0,1-0.8,1.8-2.2,1.8C272.9,31.7,272.1,31.4,271.5,30.8z"/>
	<path class="st1" d="M276.8,27.1h1.1l0.1,0.6h0c0.4-0.4,0.8-0.7,1.3-0.7c0.6,0,1,0.3,1.2,0.7c0.4-0.4,0.8-0.7,1.4-0.7
		c1,0,1.4,0.7,1.4,1.8v2.8H282v-2.6c0-0.6-0.2-0.8-0.5-0.8c-0.2,0-0.5,0.1-0.8,0.4v3h-1.3v-2.6c0-0.6-0.2-0.8-0.5-0.8
		c-0.2,0-0.5,0.1-0.8,0.4v3h-1.3V27.1z"/>
	<path class="st1" d="M284.2,29.3c0-1.4,1-2.3,2.1-2.3c1.3,0,1.9,0.9,1.9,2.1c0,0.2,0,0.5-0.1,0.6h-2.7c0.1,0.6,0.6,0.9,1.2,0.9
		c0.3,0,0.6-0.1,1-0.3l0.4,0.8c-0.5,0.3-1.1,0.5-1.6,0.5C285.2,31.7,284.2,30.8,284.2,29.3z M287.1,28.8c0-0.5-0.2-0.8-0.7-0.8
		c-0.4,0-0.8,0.3-0.9,0.8H287.1z"/>
	<path class="st1" d="M289.1,30.2v-4.9h1.3v5c0,0.3,0.1,0.4,0.2,0.4c0.1,0,0.1,0,0.2,0l0.2,1c-0.1,0.1-0.4,0.1-0.7,0.1
		C289.5,31.7,289.1,31.1,289.1,30.2z"/>
	<path class="st1" d="M291.9,29.9v-1.8h-0.6v-1l0.7-0.1l0.2-1.2h1.1v1.2h1.1v1h-1.1v1.8c0,0.5,0.2,0.7,0.6,0.7c0.1,0,0.3,0,0.4-0.1
		l0.2,1c-0.2,0.1-0.6,0.2-1,0.2C292.3,31.7,291.9,31,291.9,29.9z"/>
	<path class="st1" d="M294.9,29.3c0-1.4,1-2.3,2.1-2.3c1.3,0,1.9,0.9,1.9,2.1c0,0.2,0,0.5-0.1,0.6h-2.7c0.1,0.6,0.6,0.9,1.2,0.9
		c0.3,0,0.6-0.1,1-0.3l0.4,0.8c-0.5,0.3-1.1,0.5-1.6,0.5C295.9,31.7,294.9,30.8,294.9,29.3z M297.8,28.8c0-0.5-0.2-0.8-0.7-0.8
		c-0.4,0-0.8,0.3-0.9,0.8H297.8z"/>
	<path class="st1" d="M299.8,27.1h1.1l0.1,0.8h0c0.3-0.6,0.8-0.9,1.3-0.9c0.3,0,0.4,0,0.5,0.1l-0.2,1.1c-0.2,0-0.3-0.1-0.5-0.1
		c-0.3,0-0.7,0.2-1,0.8v2.6h-1.3V27.1z"/>
</g>
<g>
	<path class="st1" d="M253.6,36.5h1.7c1.8,0,2.9,0.9,2.9,2.9s-1.2,3-2.9,3h-1.7V36.5z M255.2,41.3c1,0,1.7-0.5,1.7-1.9
		s-0.7-1.8-1.7-1.8h-0.3v3.7H255.2z"/>
	<path class="st1" d="M258.9,40.1c0-1.4,1-2.3,2.1-2.3c1.3,0,1.9,0.9,1.9,2.1c0,0.2,0,0.5-0.1,0.6h-2.7c0.1,0.6,0.6,0.9,1.2,0.9
		c0.3,0,0.6-0.1,1-0.3l0.4,0.8c-0.5,0.3-1.1,0.5-1.6,0.5C259.9,42.5,258.9,41.6,258.9,40.1z M261.8,39.6c0-0.5-0.2-0.8-0.7-0.8
		c-0.4,0-0.8,0.3-0.9,0.8H261.8z"/>
	<path class="st1" d="M265,41.9L265,41.9l-0.1,0.5h-1V36h1.3v1.5l0,0.7c0.3-0.3,0.8-0.5,1.2-0.5c1.1,0,1.8,0.9,1.8,2.3
		c0,1.5-0.9,2.4-1.9,2.4C265.8,42.5,265.4,42.3,265,41.9z M266.7,40.1c0-0.8-0.2-1.2-0.8-1.2c-0.3,0-0.5,0.1-0.8,0.4v1.8
		c0.2,0.2,0.5,0.3,0.7,0.3C266.4,41.4,266.7,41,266.7,40.1z"/>
	<path class="st1" d="M268.8,41.1c0-0.9,0.7-1.4,2.5-1.6c0-0.4-0.2-0.6-0.7-0.6c-0.4,0-0.7,0.2-1.2,0.4l-0.5-0.9
		c0.6-0.3,1.2-0.6,1.9-0.6c1.1,0,1.8,0.6,1.8,2v2.6h-1.1l-0.1-0.5h0c-0.4,0.3-0.8,0.6-1.3,0.6C269.3,42.5,268.8,41.9,268.8,41.1z
		 M271.3,41v-0.8c-0.9,0.1-1.2,0.4-1.2,0.7c0,0.3,0.2,0.4,0.5,0.4C270.9,41.4,271.1,41.3,271.3,41z"/>
	<path class="st1" d="M273.8,37.9h1.1l0.1,0.8h0c0.3-0.6,0.8-0.9,1.3-0.9c0.3,0,0.4,0,0.5,0.1l-0.2,1.1c-0.2,0-0.3-0.1-0.5-0.1
		c-0.3,0-0.7,0.2-1,0.8v2.6h-1.3V37.9z"/>
	<path class="st1" d="M277.3,36.5c0-0.4,0.3-0.7,0.7-0.7s0.7,0.3,0.7,0.7c0,0.4-0.3,0.7-0.7,0.7S277.3,37,277.3,36.5z M277.3,37.9
		h1.3v4.5h-1.3V37.9z"/>
	<path class="st1" d="M281.7,39.8c0-1.6,0.4-2.9,1.2-4.1l0.8,0.3c-0.7,1.2-0.9,2.5-0.9,3.8s0.3,2.6,0.9,3.8l-0.8,0.3
		C282.1,42.7,281.7,41.4,281.7,39.8z"/>
	<path class="st1" d="M284.5,41.5l2.6-4h-2.3v-1.1h4v0.8l-2.6,4h2.6v1.1h-4.2V41.5z"/>
	<path class="st1" d="M289.3,41.6l0.8-0.9c0.4,0.4,1,0.6,1.4,0.6c0.6,0,0.8-0.2,0.8-0.6c0-0.4-0.3-0.5-0.8-0.7l-0.8-0.3
		c-0.6-0.2-1.2-0.7-1.2-1.6c0-1,0.9-1.7,2.1-1.7c0.7,0,1.4,0.3,1.9,0.8l-0.7,0.8c-0.4-0.3-0.7-0.5-1.2-0.5c-0.5,0-0.7,0.2-0.7,0.5
		c0,0.4,0.4,0.5,0.9,0.7l0.8,0.3c0.7,0.3,1.2,0.8,1.2,1.6c0,1-0.8,1.8-2.2,1.8C290.7,42.5,289.9,42.2,289.3,41.6z"/>
	<path class="st1" d="M294.7,36.5h1.7c1.8,0,2.9,0.9,2.9,2.9s-1.2,3-2.9,3h-1.7V36.5z M296.3,41.3c1,0,1.7-0.5,1.7-1.9
		s-0.7-1.8-1.7-1.8H296v3.7H296.3z"/>
	<path class="st1" d="M300.2,43.6c0.7-1.2,1-2.5,1-3.8s-0.3-2.6-1-3.8l0.8-0.3c0.8,1.2,1.2,2.5,1.2,4.1c0,1.6-0.4,2.9-1.2,4.1
		L300.2,43.6z"/>
</g>
<g>
	<path class="st1" d="M338.7,25.7h1.7c1.8,0,2.9,0.9,2.9,2.9s-1.2,3-2.9,3h-1.7V25.7z M340.2,30.5c1,0,1.7-0.5,1.7-1.9
		s-0.7-1.8-1.7-1.8H340v3.7H340.2z"/>
	<path class="st1" d="M344.1,30.3c0-0.9,0.7-1.4,2.5-1.6c0-0.4-0.2-0.6-0.7-0.6c-0.4,0-0.7,0.2-1.2,0.4l-0.5-0.9
		c0.6-0.3,1.2-0.6,1.9-0.6c1.1,0,1.8,0.6,1.8,2v2.6h-1.1l-0.1-0.5h0c-0.4,0.3-0.8,0.6-1.3,0.6C344.6,31.7,344.1,31.1,344.1,30.3z
		 M346.6,30.2v-0.8c-0.9,0.1-1.2,0.4-1.2,0.7c0,0.3,0.2,0.4,0.5,0.4C346.2,30.6,346.3,30.5,346.6,30.2z"/>
	<path class="st1" d="M349,27.1h1.1l0.1,0.8h0c0.3-0.6,0.8-0.9,1.3-0.9c0.3,0,0.4,0,0.5,0.1l-0.2,1.1c-0.2,0-0.3-0.1-0.5-0.1
		c-0.3,0-0.7,0.2-1,0.8v2.6H349V27.1z"/>
	<path class="st1" d="M352.5,25.7c0-0.4,0.3-0.7,0.7-0.7s0.7,0.3,0.7,0.7c0,0.4-0.3,0.7-0.7,0.7S352.5,26.2,352.5,25.7z M352.6,27.1
		h1.3v4.5h-1.3V27.1z"/>
	<path class="st1" d="M356.3,31.1L356.3,31.1l-0.1,0.5h-1v-6.3h1.3v1.5l0,0.7c0.3-0.3,0.8-0.5,1.2-0.5c1.1,0,1.8,0.9,1.8,2.3
		c0,1.5-0.9,2.4-1.9,2.4C357,31.7,356.6,31.5,356.3,31.1z M357.9,29.3c0-0.8-0.2-1.2-0.8-1.2c-0.3,0-0.5,0.1-0.8,0.4v1.8
		c0.2,0.2,0.5,0.3,0.7,0.3C357.6,30.6,357.9,30.2,357.9,29.3z"/>
	<path class="st1" d="M360,30.3c0-0.9,0.7-1.4,2.5-1.6c0-0.4-0.2-0.6-0.7-0.6c-0.4,0-0.7,0.2-1.2,0.4l-0.5-0.9
		c0.6-0.3,1.2-0.6,1.9-0.6c1.1,0,1.8,0.6,1.8,2v2.6h-1.1l-0.1-0.5h0c-0.4,0.3-0.8,0.6-1.3,0.6C360.6,31.7,360,31.1,360,30.3z
		 M362.5,30.2v-0.8c-0.9,0.1-1.2,0.4-1.2,0.7c0,0.3,0.2,0.4,0.5,0.4C362.1,30.6,362.3,30.5,362.5,30.2z"/>
	<path class="st1" d="M366.5,30.8l0.8-0.9c0.4,0.4,1,0.6,1.4,0.6c0.5,0,0.8-0.2,0.8-0.6c0-0.4-0.3-0.5-0.8-0.7l-0.8-0.3
		c-0.6-0.2-1.2-0.7-1.2-1.6c0-1,0.9-1.7,2.1-1.7c0.7,0,1.4,0.3,1.9,0.8l-0.7,0.8c-0.4-0.3-0.7-0.5-1.2-0.5c-0.5,0-0.7,0.2-0.7,0.5
		c0,0.4,0.4,0.5,0.9,0.7l0.8,0.3c0.7,0.3,1.2,0.8,1.2,1.6c0,1-0.8,1.8-2.2,1.8C367.9,31.7,367.1,31.4,366.5,30.8z"/>
	<path class="st1" d="M371.8,27.1h1.1l0.1,0.6h0c0.4-0.4,0.8-0.7,1.3-0.7c0.6,0,1,0.3,1.2,0.7c0.4-0.4,0.8-0.7,1.4-0.7
		c1,0,1.4,0.7,1.4,1.8v2.8h-1.3v-2.6c0-0.6-0.2-0.8-0.5-0.8c-0.2,0-0.5,0.1-0.8,0.4v3h-1.3v-2.6c0-0.6-0.2-0.8-0.5-0.8
		c-0.2,0-0.5,0.1-0.8,0.4v3h-1.3V27.1z"/>
	<path class="st1" d="M379.2,29.3c0-1.4,1-2.3,2.1-2.3c1.3,0,1.9,0.9,1.9,2.1c0,0.2,0,0.5-0.1,0.6h-2.7c0.1,0.6,0.6,0.9,1.2,0.9
		c0.3,0,0.6-0.1,1-0.3l0.4,0.8c-0.5,0.3-1.1,0.5-1.6,0.5C380.2,31.7,379.2,30.8,379.2,29.3z M382.1,28.8c0-0.5-0.2-0.8-0.7-0.8
		c-0.4,0-0.8,0.3-0.9,0.8H382.1z"/>
	<path class="st1" d="M384.2,30.2v-4.9h1.3v5c0,0.3,0.1,0.4,0.2,0.4c0.1,0,0.1,0,0.2,0l0.2,1c-0.1,0.1-0.4,0.1-0.7,0.1
		C384.5,31.7,384.2,31.1,384.2,30.2z"/>
	<path class="st1" d="M386.9,29.9v-1.8h-0.6v-1l0.7-0.1l0.2-1.2h1.1v1.2h1.1v1h-1.1v1.8c0,0.5,0.2,0.7,0.6,0.7c0.1,0,0.3,0,0.4-0.1
		l0.2,1c-0.2,0.1-0.6,0.2-1,0.2C387.4,31.7,386.9,31,386.9,29.9z"/>
	<path class="st1" d="M390.1,25.7c0-0.4,0.3-0.7,0.7-0.7s0.7,0.3,0.7,0.7c0,0.4-0.3,0.7-0.7,0.7S390.1,26.2,390.1,25.7z M390.2,27.1
		h1.3v4.5h-1.3V27.1z"/>
	<path class="st1" d="M392.7,27.1h1.1l0.1,0.6h0c0.4-0.4,0.8-0.7,1.4-0.7c1,0,1.4,0.7,1.4,1.8v2.8h-1.3v-2.6c0-0.6-0.2-0.8-0.5-0.8
		c-0.3,0-0.5,0.2-0.8,0.4v3h-1.3V27.1z"/>
	<path class="st1" d="M397.5,32.3c0-0.4,0.2-0.7,0.6-0.9v0c-0.2-0.2-0.4-0.4-0.4-0.8c0-0.3,0.2-0.6,0.5-0.8v0
		c-0.3-0.2-0.6-0.6-0.6-1.2c0-1.1,0.9-1.6,1.8-1.6c0.3,0,0.5,0,0.7,0.1h1.6v1h-0.7c0.1,0.1,0.1,0.4,0.1,0.6c0,1-0.8,1.5-1.8,1.5
		c-0.2,0-0.3,0-0.5-0.1c-0.1,0.1-0.2,0.2-0.2,0.3c0,0.2,0.2,0.3,0.7,0.3h0.7c1.1,0,1.7,0.3,1.7,1.1c0,0.9-1,1.6-2.5,1.6
		C398.4,33.4,397.5,33.1,397.5,32.3z M400.6,32.1c0-0.3-0.2-0.4-0.7-0.4h-0.5c-0.3,0-0.5,0-0.6-0.1c-0.2,0.1-0.2,0.3-0.2,0.4
		c0,0.3,0.4,0.5,1,0.5S400.6,32.4,400.6,32.1z M400.1,28.6c0-0.5-0.3-0.7-0.6-0.7c-0.3,0-0.6,0.2-0.6,0.7c0,0.5,0.3,0.7,0.6,0.7
		C399.9,29.3,400.1,29.1,400.1,28.6z"/>
</g>
<g>
	<path class="st1" d="M343.5,39.4c0-1.9,1.3-3.1,2.8-3.1c0.8,0,1.4,0.4,1.8,0.8l-0.7,0.8c-0.3-0.3-0.6-0.5-1-0.5
		c-0.8,0-1.4,0.7-1.4,1.9c0,1.2,0.6,1.9,1.4,1.9c0.5,0,0.9-0.2,1.1-0.5l0.7,0.8c-0.5,0.6-1.1,0.9-1.9,0.9
		C344.8,42.5,343.5,41.4,343.5,39.4z"/>
	<path class="st1" d="M348.7,40.1c0-1.5,1-2.3,2.2-2.3c1.1,0,2.2,0.9,2.2,2.3s-1,2.3-2.2,2.3C349.7,42.5,348.7,41.6,348.7,40.1z
		 M351.7,40.1c0-0.8-0.3-1.3-0.8-1.3c-0.6,0-0.8,0.5-0.8,1.3s0.3,1.3,0.8,1.3C351.4,41.4,351.7,40.9,351.7,40.1z"/>
	<path class="st1" d="M353.9,37.9h1.1l0.1,0.6h0c0.4-0.4,0.8-0.7,1.3-0.7c0.6,0,1,0.3,1.2,0.7c0.4-0.4,0.8-0.7,1.4-0.7
		c1,0,1.4,0.7,1.4,1.8v2.8h-1.3v-2.6c0-0.6-0.2-0.8-0.5-0.8c-0.2,0-0.5,0.1-0.8,0.4v3h-1.3v-2.6c0-0.6-0.2-0.8-0.5-0.8
		c-0.2,0-0.5,0.1-0.8,0.4v3h-1.3V37.9z"/>
	<path class="st1" d="M361.7,37.9h1.1l0.1,0.4h0c0.3-0.3,0.8-0.5,1.3-0.5c1.1,0,1.7,0.9,1.7,2.3c0,1.5-0.9,2.4-1.9,2.4
		c-0.4,0-0.7-0.2-1.1-0.5l0,0.7V44h-1.3V37.9z M364.5,40.1c0-0.8-0.2-1.2-0.8-1.2c-0.3,0-0.5,0.1-0.8,0.4v1.8
		c0.2,0.2,0.5,0.3,0.7,0.3C364.2,41.4,364.5,41,364.5,40.1z"/>
	<path class="st1" d="M366.8,41V36h1.3v5c0,0.3,0.1,0.4,0.2,0.4c0.1,0,0.1,0,0.2,0l0.2,1c-0.1,0.1-0.4,0.1-0.7,0.1
		C367.1,42.5,366.8,41.9,366.8,41z"/>
	<path class="st1" d="M369.1,40.1c0-1.4,1-2.3,2.1-2.3c1.3,0,1.9,0.9,1.9,2.1c0,0.2,0,0.5-0.1,0.6h-2.7c0.1,0.6,0.6,0.9,1.2,0.9
		c0.3,0,0.6-0.1,1-0.3l0.4,0.8c-0.5,0.3-1.1,0.5-1.6,0.5C370.1,42.5,369.1,41.6,369.1,40.1z M372,39.6c0-0.5-0.2-0.8-0.7-0.8
		c-0.4,0-0.8,0.3-0.9,0.8H372z"/>
	<path class="st1" d="M375,40l-1.3-2.1h1.4l0.4,0.7c0.1,0.3,0.3,0.5,0.4,0.8h0c0.1-0.3,0.2-0.5,0.3-0.8l0.3-0.7h1.4l-1.3,2.3
		l1.4,2.2h-1.4l-0.4-0.7c-0.1-0.3-0.3-0.5-0.4-0.8h0c-0.1,0.3-0.2,0.5-0.3,0.8l-0.4,0.7h-1.4L375,40z"/>
	<path class="st1" d="M380.5,39.8c0-1.6,0.4-2.9,1.2-4.1l0.8,0.3c-0.7,1.2-0.9,2.5-0.9,3.8s0.3,2.6,0.9,3.8l-0.8,0.3
		C381,42.7,380.5,41.4,380.5,39.8z"/>
	<path class="st1" d="M383.7,36.5h1.7c1.8,0,2.9,0.9,2.9,2.9s-1.2,3-2.9,3h-1.7V36.5z M385.3,41.3c1,0,1.7-0.5,1.7-1.9
		s-0.7-1.8-1.7-1.8H385v3.7H385.3z"/>
	<path class="st1" d="M389,41.6l0.8-0.9c0.4,0.4,1,0.6,1.4,0.6c0.6,0,0.8-0.2,0.8-0.6c0-0.4-0.3-0.5-0.8-0.7l-0.8-0.3
		c-0.6-0.2-1.2-0.7-1.2-1.6c0-1,0.9-1.7,2.1-1.7c0.7,0,1.4,0.3,1.9,0.8l-0.7,0.8c-0.4-0.3-0.7-0.5-1.2-0.5c-0.5,0-0.7,0.2-0.7,0.5
		c0,0.4,0.4,0.5,0.9,0.7l0.8,0.3c0.7,0.3,1.2,0.8,1.2,1.6c0,1-0.8,1.8-2.2,1.8C390.4,42.5,389.6,42.2,389,41.6z"/>
	<path class="st1" d="M394.1,39.4c0-1.9,1.3-3.1,2.8-3.1c0.8,0,1.4,0.4,1.8,0.8L398,38c-0.3-0.3-0.6-0.5-1-0.5
		c-0.8,0-1.4,0.7-1.4,1.9c0,1.2,0.6,1.9,1.4,1.9c0.5,0,0.9-0.2,1.1-0.5l0.7,0.8c-0.5,0.6-1.1,0.9-1.9,0.9
		C395.4,42.5,394.1,41.4,394.1,39.4z"/>
	<path class="st1" d="M399.4,43.6c0.7-1.2,1-2.5,1-3.8s-0.3-2.6-1-3.8l0.8-0.3c0.8,1.2,1.2,2.5,1.2,4.1c0,1.6-0.4,2.9-1.2,4.1
		L399.4,43.6z"/>
</g>
<g>
	<path class="st1" d="M482.3,26.8h-1.6v-1.1h4.6v1.1h-1.6v4.8h-1.3V26.8z"/>
	<path class="st1" d="M485.8,29.3c0-1.5,1-2.3,2.2-2.3c1.1,0,2.2,0.9,2.2,2.3s-1,2.3-2.2,2.3C486.9,31.7,485.8,30.8,485.8,29.3z
		 M488.8,29.3c0-0.8-0.3-1.3-0.8-1.3c-0.6,0-0.8,0.5-0.8,1.3s0.3,1.3,0.8,1.3C488.5,30.6,488.8,30.1,488.8,29.3z"/>
	<path class="st1" d="M491.3,29.9v-1.8h-0.6v-1l0.7-0.1l0.2-1.2h1.1v1.2h1.1v1h-1.1v1.8c0,0.5,0.2,0.7,0.6,0.7c0.1,0,0.3,0,0.4-0.1
		l0.2,1c-0.2,0.1-0.6,0.2-1,0.2C491.7,31.7,491.3,31,491.3,29.9z"/>
	<path class="st1" d="M494.3,30.3c0-0.9,0.7-1.4,2.5-1.6c0-0.4-0.2-0.6-0.7-0.6c-0.4,0-0.7,0.2-1.2,0.4l-0.5-0.9
		c0.6-0.3,1.2-0.6,1.9-0.6c1.1,0,1.8,0.6,1.8,2v2.6h-1.1l-0.1-0.5h0c-0.4,0.3-0.8,0.6-1.3,0.6C494.8,31.7,494.3,31.1,494.3,30.3z
		 M496.8,30.2v-0.8c-0.9,0.1-1.2,0.4-1.2,0.7c0,0.3,0.2,0.4,0.5,0.4C496.4,30.6,496.6,30.5,496.8,30.2z"/>
	<path class="st1" d="M499.3,30.2v-4.9h1.3v5c0,0.3,0.1,0.4,0.2,0.4c0.1,0,0.1,0,0.2,0l0.2,1c-0.1,0.1-0.4,0.1-0.7,0.1
		C499.6,31.7,499.3,31.1,499.3,30.2z"/>
</g>
<g>
	<path d="M8.9,48.8h1.7c1.2,0,1.9,0.4,1.9,1.6c0,0.9-0.6,1.5-1.5,1.6l1.6,2.8h-0.5L10.6,52H9.3v2.7H8.9V48.8z M10.5,51.7
		c1,0,1.6-0.4,1.6-1.3c0-0.9-0.6-1.2-1.6-1.2H9.3v2.5H10.5z"/>
	<path d="M13.4,52.6c0-1.4,0.9-2.3,1.9-2.3c1,0,1.7,0.7,1.7,2c0,0.1,0,0.2,0,0.3h-3.1c0,1.1,0.7,1.9,1.6,1.9c0.5,0,0.8-0.2,1.2-0.4
		l0.2,0.3c-0.3,0.2-0.7,0.4-1.4,0.4C14.3,54.9,13.4,54,13.4,52.6z M16.5,52.3c0-1.1-0.5-1.7-1.3-1.7c-0.7,0-1.4,0.6-1.5,1.7H16.5z"
		/>
	<path d="M18.2,50.8h-0.6v-0.3l0.6,0v-1c0-0.9,0.4-1.3,1.1-1.3c0.2,0,0.4,0.1,0.6,0.1l-0.1,0.3c-0.2-0.1-0.4-0.1-0.5-0.1
		c-0.5,0-0.7,0.4-0.7,1v0.9h1v0.3h-1v4h-0.4V50.8z"/>
	<path d="M20.3,49c0-0.2,0.1-0.4,0.3-0.4c0.2,0,0.3,0.1,0.3,0.4c0,0.2-0.1,0.4-0.3,0.4C20.5,49.4,20.3,49.3,20.3,49z M20.5,50.4h0.4
		v4.3h-0.4V50.4z"/>
	<path d="M22.5,50.4h0.3l0,0.7h0c0.4-0.4,0.9-0.8,1.5-0.8c0.9,0,1.3,0.5,1.3,1.7v2.8h-0.4V52c0-0.9-0.3-1.4-1-1.4
		c-0.5,0-0.9,0.3-1.4,0.8v3.3h-0.4V50.4z"/>
	<path d="M26.9,52.6c0-1.4,0.9-2.3,1.9-2.3c1,0,1.7,0.7,1.7,2c0,0.1,0,0.2,0,0.3h-3.1c0,1.1,0.7,1.9,1.6,1.9c0.5,0,0.8-0.2,1.2-0.4
		l0.2,0.3c-0.3,0.2-0.7,0.4-1.4,0.4C27.8,54.9,26.9,54,26.9,52.6z M30.1,52.3c0-1.1-0.5-1.7-1.3-1.7c-0.7,0-1.4,0.6-1.5,1.7H30.1z"
		/>
	<path d="M31.3,52.6c0-1.4,0.9-2.3,1.9-2.3c0.5,0,0.9,0.2,1.3,0.5l0-0.8v-1.8h0.4v6.5h-0.3l0-0.6h0c-0.4,0.4-0.8,0.7-1.4,0.7
		C32,54.9,31.3,54.1,31.3,52.6z M34.5,53.8v-2.6c-0.5-0.4-0.8-0.6-1.3-0.6c-0.9,0-1.5,0.8-1.5,1.9c0,1.1,0.5,1.9,1.4,1.9
		C33.6,54.5,34,54.3,34.5,53.8z"/>
	<path d="M38,54.5l3.4-5.3h-3.1v-0.4h3.6v0.2l-3.4,5.3h3.4v0.4h-4V54.5z"/>
	<path d="M43.1,49c0-0.2,0.1-0.4,0.3-0.4c0.2,0,0.3,0.1,0.3,0.4c0,0.2-0.1,0.4-0.3,0.4C43.2,49.4,43.1,49.3,43.1,49z M43.2,50.4h0.4
		v4.3h-0.4V50.4z"/>
	<path d="M45.3,50.4h0.3l0,0.7h0c0.4-0.4,0.9-0.8,1.5-0.8c0.9,0,1.3,0.5,1.3,1.7v2.8h-0.4V52c0-0.9-0.3-1.4-1-1.4
		c-0.5,0-0.9,0.3-1.4,0.8v3.3h-0.4V50.4z"/>
	<path d="M49.7,52.6c0-1.5,0.9-2.3,2-2.3c0.6,0,1,0.3,1.3,0.5l-0.2,0.3c-0.3-0.3-0.6-0.5-1-0.5c-0.9,0-1.6,0.8-1.6,1.9
		c0,1.1,0.6,1.9,1.6,1.9c0.5,0,0.9-0.2,1.2-0.5l0.2,0.3c-0.4,0.3-0.8,0.6-1.4,0.6C50.5,54.9,49.7,54,49.7,52.6z"/>
	<path d="M55.8,52.3c0-1.6,0.5-2.9,1.2-4.1l0.2,0.1c-0.7,1.1-1.1,2.5-1.1,3.9c0,1.4,0.4,2.8,1.1,3.9L57,56.3
		C56.3,55.1,55.8,53.8,55.8,52.3z"/>
	<path d="M58.4,48.8H59l1.2,3.5c0.2,0.4,0.3,0.9,0.5,1.3h0c0.2-0.4,0.3-0.9,0.5-1.3l1.2-3.5H63v5.9h-0.4v-3.9c0-0.5,0-1.1,0.1-1.6h0
		l-0.5,1.3l-1.3,3.5h-0.4l-1.3-3.5l-0.5-1.3h0c0,0.5,0.1,1.1,0.1,1.6v3.9h-0.4V48.8z"/>
	<path d="M66.1,49.2h-1.9v-0.4h4.2v0.4h-1.9v5.6h-0.4V49.2z"/>
	<path d="M68.9,56.2c0.7-1.1,1.1-2.5,1.1-3.9c0-1.4-0.4-2.8-1.1-3.9l0.2-0.1c0.7,1.2,1.2,2.5,1.2,4.1c0,1.6-0.5,2.9-1.2,4.1
		L68.9,56.2z"/>
</g>
<g>
	<path d="M176.6,53H174v-0.2l2.7-3.8h0.4v3.7h0.9V53H177v1.7h-0.4V53z M176.6,52.7v-2.1c0-0.3,0-0.7,0-1h0c-0.1,0.2-0.3,0.5-0.5,0.7
		l-1.7,2.4H176.6z"/>
	<path d="M178.5,55.9c0.4-0.2,0.7-0.6,0.7-1.1c0,0-0.1,0-0.1,0c-0.2,0-0.4-0.1-0.4-0.4s0.2-0.4,0.4-0.4c0.3,0,0.5,0.2,0.5,0.6
		c0,0.7-0.4,1.2-0.9,1.5L178.5,55.9z"/>
	<path d="M180.5,54.5c1.9-1.9,2.8-3,2.8-4c0-0.7-0.4-1.3-1.3-1.3c-0.5,0-1,0.3-1.3,0.8l-0.3-0.3c0.4-0.5,0.9-0.8,1.6-0.8
		c1,0,1.6,0.6,1.6,1.6c0,1.1-1,2.2-2.6,3.9c0.3,0,0.6,0,1,0h2v0.4h-3.5V54.5z"/>
	<path d="M187.2,53h-2.6v-0.2l2.7-3.8h0.4v3.7h0.9V53h-0.9v1.7h-0.4V53z M187.2,52.7v-2.1c0-0.3,0-0.7,0-1h0
		c-0.1,0.2-0.3,0.5-0.5,0.7l-1.7,2.4H187.2z"/>
	<path d="M189.1,55.9c0.4-0.2,0.7-0.6,0.7-1.1c0,0-0.1,0-0.1,0c-0.2,0-0.4-0.1-0.4-0.4s0.2-0.4,0.4-0.4c0.3,0,0.5,0.2,0.5,0.6
		c0,0.7-0.4,1.2-0.9,1.5L189.1,55.9z"/>
	<path d="M191,53.3c0-0.8,0.6-1.3,1.2-1.6v0c-0.4-0.3-0.8-0.7-0.8-1.3c0-0.8,0.7-1.4,1.5-1.4c1,0,1.6,0.6,1.6,1.5
		c0,0.6-0.5,1.2-0.8,1.5v0c0.5,0.3,1,0.7,1,1.5c0,0.8-0.7,1.5-1.7,1.5C191.8,54.9,191,54.2,191,53.3z M194.2,53.4
		c0-0.9-0.9-1.2-1.8-1.5c-0.6,0.3-1,0.8-1,1.5c0,0.7,0.6,1.3,1.4,1.3C193.7,54.5,194.2,54,194.2,53.4z M194,50.4
		c0-0.6-0.4-1.2-1.2-1.2c-0.6,0-1.1,0.5-1.1,1.1c0,0.8,0.8,1.1,1.5,1.4C193.8,51.4,194,50.9,194,50.4z"/>
	<path d="M195.4,51.9c0-1.9,0.6-3,1.7-3s1.7,1.1,1.7,3c0,1.9-0.6,3-1.7,3S195.4,53.8,195.4,51.9z M198.5,51.9c0-1.8-0.5-2.6-1.3-2.6
		c-0.8,0-1.3,0.9-1.3,2.6c0,1.8,0.5,2.7,1.3,2.7C197.9,54.5,198.5,53.6,198.5,51.9z"/>
	<path d="M199.6,54.1l0.2-0.3c0.3,0.4,0.8,0.7,1.6,0.7c0.8,0,1.3-0.5,1.3-1.3c0-0.8-0.6-1.3-2-1.3v-0.4c1.3,0,1.8-0.6,1.8-1.3
		c0-0.6-0.5-1.1-1.2-1.1c-0.5,0-1,0.3-1.3,0.6l-0.2-0.3c0.4-0.4,0.9-0.7,1.6-0.7c0.9,0,1.6,0.5,1.6,1.4c0,0.8-0.5,1.2-1.1,1.4v0
		c0.7,0.2,1.3,0.7,1.3,1.5c0,1-0.8,1.6-1.8,1.6C200.5,54.9,199.9,54.4,199.6,54.1z"/>
</g>
<g>
	<path d="M279.8,52.2c0-2.4,1-3.3,2.1-3.3c0.5,0,0.9,0.2,1.2,0.6l-0.2,0.3c-0.3-0.3-0.6-0.5-1-0.5c-0.9,0-1.7,0.7-1.7,2.8
		c0.4-0.5,0.9-0.8,1.4-0.8c1,0,1.6,0.6,1.6,1.8c0,1-0.7,1.8-1.6,1.8C280.5,54.9,279.8,53.9,279.8,52.2z M280.2,52.5
		c0.1,1.2,0.5,2,1.5,2c0.7,0,1.2-0.6,1.2-1.5s-0.4-1.4-1.2-1.4C281.2,51.6,280.7,51.9,280.2,52.5z"/>
	<path d="M287,49.4h-3V49h3.5v0.2c-1.4,1.8-1.7,3.3-1.8,5.5h-0.4C285.4,52.4,285.9,51,287,49.4z"/>
	<path d="M288.4,55.9c0.4-0.2,0.7-0.6,0.7-1.1c0,0-0.1,0-0.1,0c-0.2,0-0.4-0.1-0.4-0.4s0.2-0.4,0.4-0.4c0.3,0,0.5,0.2,0.5,0.6
		c0,0.7-0.4,1.2-0.9,1.5L288.4,55.9z"/>
	<path d="M290.4,54.3l0.2-0.3c0.3,0.3,0.6,0.5,1,0.5c0.9,0,1.7-0.7,1.7-2.8c-0.4,0.5-0.9,0.8-1.5,0.8c-1,0-1.6-0.6-1.6-1.8
		c0-1,0.7-1.8,1.6-1.8c1.1,0,1.9,1,1.9,2.7c0,2.4-1,3.3-2.1,3.3C291.1,54.9,290.7,54.6,290.4,54.3z M291.9,52.1c0.4,0,1-0.3,1.4-0.9
		c-0.1-1.2-0.5-2-1.5-2c-0.7,0-1.2,0.6-1.2,1.4C290.7,51.5,291,52.1,291.9,52.1z"/>
	<path d="M294.7,52.2c0-2.4,1-3.3,2.1-3.3c0.5,0,0.9,0.2,1.2,0.6l-0.2,0.3c-0.3-0.3-0.6-0.5-1-0.5c-0.9,0-1.7,0.7-1.7,2.8
		c0.4-0.5,0.9-0.8,1.4-0.8c1,0,1.6,0.6,1.6,1.8c0,1-0.7,1.8-1.6,1.8C295.4,54.9,294.7,53.9,294.7,52.2z M295.1,52.5
		c0.1,1.2,0.5,2,1.5,2c0.7,0,1.2-0.6,1.2-1.5s-0.4-1.4-1.2-1.4C296.1,51.6,295.6,51.9,295.1,52.5z"/>
	<path d="M298.9,53.3c0-0.8,0.6-1.3,1.2-1.6v0c-0.4-0.3-0.8-0.7-0.8-1.3c0-0.8,0.7-1.4,1.5-1.4c1,0,1.6,0.6,1.6,1.5
		c0,0.6-0.5,1.2-0.8,1.5v0c0.5,0.3,1,0.7,1,1.5c0,0.8-0.7,1.5-1.7,1.5C299.7,54.9,298.9,54.2,298.9,53.3z M302,53.4
		c0-0.9-0.9-1.2-1.8-1.5c-0.6,0.3-1,0.8-1,1.5c0,0.7,0.6,1.3,1.4,1.3C301.5,54.5,302,54,302,53.4z M301.9,50.4
		c0-0.6-0.4-1.2-1.2-1.2c-0.6,0-1.1,0.5-1.1,1.1c0,0.8,0.8,1.1,1.5,1.4C301.6,51.4,301.9,50.9,301.9,50.4z"/>
</g>
<g>
	<path d="M372.6,54.5c1.9-1.9,2.8-3,2.8-4c0-0.7-0.4-1.3-1.3-1.3c-0.5,0-1,0.3-1.3,0.8l-0.3-0.3c0.4-0.5,0.9-0.8,1.6-0.8
		c1,0,1.6,0.6,1.6,1.6c0,1.1-1,2.2-2.6,3.9c0.3,0,0.6,0,1,0h2v0.4h-3.5V54.5z"/>
	<path d="M377,55.9c0.4-0.2,0.7-0.6,0.7-1.1c0,0-0.1,0-0.1,0c-0.2,0-0.4-0.1-0.4-0.4s0.2-0.4,0.4-0.4c0.3,0,0.5,0.2,0.5,0.6
		c0,0.7-0.4,1.2-0.9,1.5L377,55.9z"/>
	<path d="M378.9,51.9c0-1.9,0.6-3,1.7-3s1.7,1.1,1.7,3c0,1.9-0.6,3-1.7,3S378.9,53.8,378.9,51.9z M382,51.9c0-1.8-0.5-2.6-1.3-2.6
		c-0.8,0-1.3,0.9-1.3,2.6c0,1.8,0.5,2.7,1.3,2.7C381.5,54.5,382,53.6,382,51.9z"/>
	<path d="M383.1,54.1l0.2-0.3c0.3,0.4,0.8,0.7,1.6,0.7c0.8,0,1.3-0.5,1.3-1.3c0-0.8-0.6-1.3-2-1.3v-0.4c1.3,0,1.8-0.6,1.8-1.3
		c0-0.6-0.5-1.1-1.2-1.1c-0.5,0-1,0.3-1.3,0.6l-0.2-0.3c0.4-0.4,0.9-0.7,1.6-0.7c0.9,0,1.6,0.5,1.6,1.4c0,0.8-0.5,1.2-1.1,1.4v0
		c0.7,0.2,1.3,0.7,1.3,1.5c0,1-0.8,1.6-1.8,1.6C384,54.9,383.5,54.4,383.1,54.1z"/>
	<path d="M387.6,55.9c0.4-0.2,0.7-0.6,0.7-1.1c0,0-0.1,0-0.1,0c-0.2,0-0.4-0.1-0.4-0.4s0.2-0.4,0.4-0.4c0.3,0,0.5,0.2,0.5,0.6
		c0,0.7-0.4,1.2-0.9,1.5L387.6,55.9z"/>
	<path d="M389.3,54.1l0.2-0.3c0.3,0.4,0.8,0.7,1.6,0.7c0.8,0,1.4-0.6,1.4-1.5c0-0.9-0.5-1.5-1.4-1.5c-0.4,0-0.7,0.2-1.1,0.4
		l-0.3-0.2L390,49h2.7v0.4h-2.3l-0.2,2.1c0.3-0.2,0.6-0.3,1-0.3c1,0,1.8,0.6,1.8,1.8c0,1.2-0.9,1.9-1.8,1.9
		C390.2,54.9,389.7,54.5,389.3,54.1z"/>
	<path d="M394.2,54.4h1.3v-4.8h-1v-0.3c0.5-0.1,0.8-0.2,1.1-0.4h0.3v5.4h1.3v0.4h-3V54.4z"/>
	<path d="M398.1,54.5c1.9-1.9,2.8-3,2.8-4c0-0.7-0.4-1.3-1.3-1.3c-0.5,0-1,0.3-1.3,0.8l-0.3-0.3c0.4-0.5,0.9-0.8,1.6-0.8
		c1,0,1.6,0.6,1.6,1.6c0,1.1-1,2.2-2.6,3.9c0.3,0,0.6,0,1,0h2v0.4h-3.5V54.5z"/>
</g>
<g>
	<path d="M467.7,52c0-2.1,1.1-3.1,2.3-3.1c0.8,0,1.3,0.3,1.7,0.7l-0.7,0.8c-0.2-0.2-0.6-0.4-0.9-0.4c-0.6,0-1.1,0.5-1.2,1.8
		c0.3-0.4,0.8-0.6,1.1-0.6c1,0,1.7,0.6,1.7,1.8c0,1.2-0.9,1.9-1.9,1.9C468.8,54.9,467.7,54,467.7,52z M469,52.7
		c0.1,0.9,0.5,1.2,0.9,1.2c0.4,0,0.7-0.3,0.7-0.9c0-0.6-0.3-0.8-0.7-0.8C469.5,52.1,469.2,52.3,469,52.7z"/>
	<path d="M472.5,55.8c0.7-0.2,1-0.6,1-1.1c0,0,0,0-0.1,0c-0.4,0-0.8-0.3-0.8-0.7c0-0.5,0.4-0.8,0.8-0.8c0.6,0,0.9,0.5,0.9,1.3
		c0,1-0.6,1.7-1.6,2.1L472.5,55.8z"/>
	<path d="M475.2,54.2l0.7-0.8c0.2,0.2,0.6,0.4,0.9,0.4c0.6,0,1.1-0.5,1.2-1.8c-0.3,0.4-0.8,0.6-1.1,0.6c-1,0-1.7-0.6-1.7-1.8
		c0-1.2,0.9-1.9,1.9-1.9c1.1,0,2.2,0.8,2.2,2.8c0,2.1-1.1,3.1-2.3,3.1C476.1,54.9,475.5,54.5,475.2,54.2z M477.1,51.7
		c0.3,0,0.6-0.2,0.9-0.6c-0.1-0.9-0.5-1.2-0.9-1.2c-0.4,0-0.7,0.3-0.7,0.9C476.3,51.5,476.6,51.7,477.1,51.7z"/>
	<path d="M479.9,52c0-2.1,1.1-3.1,2.3-3.1c0.8,0,1.3,0.3,1.7,0.7l-0.7,0.8c-0.2-0.2-0.6-0.4-0.9-0.4c-0.6,0-1.1,0.5-1.2,1.8
		c0.3-0.4,0.8-0.6,1.1-0.6c1,0,1.7,0.6,1.7,1.8c0,1.2-0.9,1.9-1.9,1.9C481,54.9,479.9,54,479.9,52z M481.2,52.7
		c0.1,0.9,0.5,1.2,0.9,1.2s0.7-0.3,0.7-0.9c0-0.6-0.3-0.8-0.7-0.8C481.7,52.1,481.4,52.3,481.2,52.7z"/>
	<path d="M484.7,55.8c0.7-0.2,1-0.6,1-1.1c0,0,0,0-0.1,0c-0.4,0-0.8-0.3-0.8-0.7c0-0.5,0.4-0.8,0.8-0.8c0.6,0,0.9,0.5,0.9,1.3
		c0,1-0.6,1.7-1.6,2.1L484.7,55.8z"/>
	<path d="M487.3,54c1.5-1.4,2.5-2.4,2.5-3.2c0-0.6-0.3-0.9-0.8-0.9c-0.4,0-0.7,0.3-1,0.6l-0.7-0.7c0.6-0.6,1.1-0.9,1.9-0.9
		c1.1,0,1.9,0.7,1.9,1.8c0,1-0.9,2-1.8,3c0.3,0,0.7-0.1,1-0.1h1.2v1.1h-4V54z"/>
	<path d="M492.1,53.3c0-0.7,0.4-1.1,1-1.4v0c-0.4-0.3-0.8-0.7-0.8-1.4c0-1,0.8-1.6,1.8-1.6c1,0,1.7,0.6,1.7,1.6c0,0.5-0.4,1-0.7,1.3
		v0c0.5,0.3,1,0.7,1,1.5c0,0.9-0.8,1.6-2,1.6C493,54.9,492.1,54.2,492.1,53.3z M494.9,53.2c0-0.5-0.5-0.7-1.2-1
		c-0.3,0.2-0.4,0.6-0.4,0.9c0,0.5,0.4,0.8,0.9,0.8C494.6,54,494.9,53.7,494.9,53.2z M494.8,50.6c0-0.4-0.3-0.7-0.7-0.7
		c-0.4,0-0.6,0.2-0.6,0.7c0,0.5,0.4,0.7,1,0.9C494.7,51.2,494.8,50.9,494.8,50.6z"/>
	<path d="M496.7,54.1l0.6-0.8c0.3,0.3,0.8,0.6,1.3,0.6c0.6,0,0.9-0.2,0.9-0.7c0-0.5-0.3-0.8-1.5-0.8v-0.9c1,0,1.4-0.3,1.4-0.8
		c0-0.4-0.3-0.6-0.7-0.6c-0.4,0-0.7,0.2-1.1,0.5l-0.7-0.8c0.5-0.5,1.1-0.7,1.8-0.7c1.2,0,2,0.6,2,1.6c0,0.6-0.3,1-1,1.3v0
		c0.7,0.2,1.1,0.7,1.1,1.4c0,1.1-1,1.7-2.1,1.7C497.8,54.9,497.1,54.5,496.7,54.1z"/>
</g>
<g>
	<path d="M8.9,61.3h3.2v0.4H9.3V64h2.4v0.4H9.3v2.9H8.9V61.3z"/>
	<path d="M14.1,64.8l-1.8-3.5h0.4l0.9,1.9c0.2,0.4,0.4,0.8,0.6,1.3h0c0.2-0.4,0.5-0.9,0.6-1.3l0.9-1.9h0.4l-1.8,3.5v2.4h-0.4V64.8z"
		/>
	<path d="M18.5,66.9c1.9-1.9,2.8-3,2.8-4c0-0.7-0.4-1.3-1.3-1.3c-0.5,0-1,0.3-1.3,0.8l-0.3-0.3c0.4-0.5,0.9-0.8,1.6-0.8
		c1,0,1.6,0.6,1.6,1.6c0,1.1-1,2.2-2.6,3.9c0.3,0,0.6,0,1,0h2v0.4h-3.5V66.9z"/>
	<path d="M22.9,64.3c0-1.9,0.6-3,1.7-3s1.7,1.1,1.7,3c0,1.9-0.6,3-1.7,3S22.9,66.2,22.9,64.3z M25.9,64.3c0-1.8-0.5-2.6-1.3-2.6
		c-0.8,0-1.3,0.9-1.3,2.6c0,1.8,0.5,2.7,1.3,2.7C25.4,67,25.9,66,25.9,64.3z"/>
	<path d="M27.5,66.8h1.4v-4.8h-1v-0.3c0.5-0.1,0.8-0.2,1.1-0.4h0.3v5.4h1.3v0.4h-3V66.8z"/>
	<path d="M31.4,65.7c0-0.8,0.6-1.3,1.2-1.6v0c-0.4-0.3-0.8-0.7-0.8-1.3c0-0.8,0.7-1.4,1.5-1.4c1,0,1.6,0.6,1.6,1.5
		c0,0.6-0.5,1.2-0.8,1.5v0c0.5,0.3,1,0.7,1,1.5c0,0.8-0.7,1.5-1.7,1.5C32.2,67.3,31.4,66.6,31.4,65.7z M34.6,65.8
		c0-0.9-0.9-1.2-1.8-1.5c-0.6,0.3-1,0.8-1,1.5c0,0.7,0.6,1.3,1.4,1.3C34.1,67,34.6,66.4,34.6,65.8z M34.4,62.8
		c0-0.6-0.4-1.2-1.2-1.2c-0.6,0-1.1,0.5-1.1,1.1c0,0.8,0.8,1.1,1.5,1.4C34.2,63.8,34.4,63.3,34.4,62.8z"/>
	<path d="M38,64.7c0-1.6,0.4-2.9,1.2-4.1l0.2,0.1c-0.7,1.1-1.1,2.5-1.1,3.9c0,1.4,0.4,2.8,1.1,3.9l-0.2,0.1
		C38.4,67.6,38,66.3,38,64.7z"/>
	<path d="M40.6,61.3h0.6l1.2,3.5c0.2,0.4,0.3,0.9,0.5,1.3h0c0.2-0.4,0.3-0.9,0.4-1.3l1.2-3.5h0.6v5.9h-0.4v-3.9c0-0.5,0-1.1,0.1-1.6
		h0L44.3,63l-1.3,3.5h-0.4L41.4,63l-0.5-1.3h0c0,0.5,0.1,1.1,0.1,1.6v3.9h-0.4V61.3z"/>
	<path d="M48.2,61.6h-1.9v-0.4h4.2v0.4h-1.9v5.6h-0.4V61.6z"/>
	<path d="M51.1,68.6c0.7-1.1,1.1-2.5,1.1-3.9c0-1.4-0.4-2.8-1.1-3.9l0.2-0.1c0.7,1.2,1.2,2.5,1.2,4.1c0,1.6-0.4,2.9-1.2,4.1
		L51.1,68.6z"/>
</g>
<g>
	<path d="M176.6,65.5h-2.6v-0.2l2.7-3.8h0.4v3.7h0.9v0.3H177v1.7h-0.4V65.5z M176.6,65.1V63c0-0.3,0-0.7,0-1h0
		c-0.1,0.2-0.3,0.5-0.5,0.7l-1.7,2.4H176.6z"/>
	<path d="M178.5,68.3c0.4-0.2,0.7-0.6,0.7-1.1c0,0-0.1,0-0.1,0c-0.2,0-0.4-0.1-0.4-0.4s0.2-0.4,0.4-0.4c0.3,0,0.5,0.2,0.5,0.6
		c0,0.7-0.4,1.2-0.9,1.5L178.5,68.3z"/>
	<path d="M180.6,66.7l0.2-0.3c0.3,0.3,0.6,0.5,1,0.5c0.9,0,1.7-0.7,1.7-2.8c-0.4,0.5-0.9,0.8-1.5,0.8c-1,0-1.6-0.6-1.6-1.8
		c0-1,0.7-1.8,1.6-1.8c1.1,0,1.9,1,1.9,2.7c0,2.4-1,3.3-2.1,3.3C181.3,67.3,180.9,67.1,180.6,66.7z M182.1,64.6c0.4,0,1-0.3,1.4-0.9
		c-0.1-1.2-0.5-2-1.5-2c-0.7,0-1.2,0.6-1.2,1.4C180.9,64,181.2,64.6,182.1,64.6z"/>
	<path d="M187.8,61.8h-3v-0.4h3.5v0.2c-1.4,1.8-1.7,3.3-1.8,5.5h-0.4C186.2,64.9,186.7,63.4,187.8,61.8z"/>
	<path d="M189.1,68.3c0.4-0.2,0.7-0.6,0.7-1.1c0,0-0.1,0-0.1,0c-0.2,0-0.4-0.1-0.4-0.4s0.2-0.4,0.4-0.4c0.3,0,0.5,0.2,0.5,0.6
		c0,0.7-0.4,1.2-0.9,1.5L189.1,68.3z"/>
	<path d="M191.1,64.3c0-1.9,0.6-3,1.7-3c1.1,0,1.7,1.1,1.7,3c0,1.9-0.6,3-1.7,3C191.7,67.3,191.1,66.2,191.1,64.3z M194.1,64.3
		c0-1.8-0.5-2.6-1.3-2.6c-0.8,0-1.3,0.9-1.3,2.6c0,1.8,0.5,2.7,1.3,2.7C193.6,67,194.1,66,194.1,64.3z"/>
	<path d="M197.8,65.5h-2.6v-0.2l2.7-3.8h0.4v3.7h0.9v0.3h-0.9v1.7h-0.4V65.5z M197.8,65.1V63c0-0.3,0-0.7,0-1h0
		c-0.1,0.2-0.3,0.5-0.5,0.7l-1.7,2.4H197.8z"/>
	<path d="M199.8,66.7l0.2-0.3c0.3,0.3,0.6,0.5,1,0.5c0.9,0,1.7-0.7,1.7-2.8c-0.4,0.5-0.9,0.8-1.5,0.8c-1,0-1.6-0.6-1.6-1.8
		c0-1,0.7-1.8,1.6-1.8c1.1,0,1.9,1,1.9,2.7c0,2.4-1,3.3-2.1,3.3C200.5,67.3,200.1,67.1,199.8,66.7z M201.3,64.6c0.4,0,1-0.3,1.4-0.9
		c-0.1-1.2-0.5-2-1.5-2c-0.7,0-1.2,0.6-1.2,1.4C200.1,64,200.5,64.6,201.3,64.6z"/>
</g>
<g>
	<path d="M282.7,61.8h-3v-0.4h3.5v0.2c-1.4,1.8-1.7,3.3-1.8,5.5H281C281.1,64.9,281.6,63.4,282.7,61.8z"/>
	<path d="M284.1,64.6c0-2.4,1-3.3,2.1-3.3c0.5,0,0.9,0.2,1.2,0.6l-0.2,0.3c-0.3-0.3-0.6-0.5-1-0.5c-0.9,0-1.7,0.7-1.7,2.8
		c0.4-0.5,0.9-0.8,1.4-0.8c1,0,1.6,0.6,1.6,1.8c0,1-0.7,1.8-1.6,1.8C284.8,67.3,284.1,66.3,284.1,64.6z M284.5,64.9
		c0.1,1.2,0.5,2,1.5,2c0.7,0,1.2-0.6,1.2-1.5s-0.4-1.4-1.2-1.4C285.5,64.1,285,64.3,284.5,64.9z"/>
	<path d="M288.4,68.3c0.4-0.2,0.7-0.6,0.7-1.1c0,0-0.1,0-0.1,0c-0.2,0-0.4-0.1-0.4-0.4s0.2-0.4,0.4-0.4c0.3,0,0.5,0.2,0.5,0.6
		c0,0.7-0.4,1.2-0.9,1.5L288.4,68.3z"/>
	<path d="M290.4,66.7l0.2-0.3c0.3,0.3,0.6,0.5,1,0.5c0.9,0,1.7-0.7,1.7-2.8c-0.4,0.5-0.9,0.8-1.5,0.8c-1,0-1.6-0.6-1.6-1.8
		c0-1,0.7-1.8,1.6-1.8c1.1,0,1.9,1,1.9,2.7c0,2.4-1,3.3-2.1,3.3C291.1,67.3,290.7,67.1,290.4,66.7z M291.9,64.6c0.4,0,1-0.3,1.4-0.9
		c-0.1-1.2-0.5-2-1.5-2c-0.7,0-1.2,0.6-1.2,1.4C290.7,64,291,64.6,291.9,64.6z"/>
	<path d="M297.6,61.8h-3v-0.4h3.5v0.2c-1.4,1.8-1.7,3.3-1.8,5.5h-0.4C296,64.9,296.5,63.4,297.6,61.8z"/>
	<path d="M299,66.7l0.2-0.3c0.3,0.3,0.6,0.5,1,0.5c0.9,0,1.7-0.7,1.7-2.8c-0.4,0.5-0.9,0.8-1.5,0.8c-1,0-1.6-0.6-1.6-1.8
		c0-1,0.7-1.8,1.6-1.8c1.1,0,1.9,1,1.9,2.7c0,2.4-1,3.3-2.1,3.3C299.7,67.3,299.3,67.1,299,66.7z M300.6,64.6c0.4,0,1-0.3,1.4-0.9
		c-0.1-1.2-0.5-2-1.5-2c-0.7,0-1.2,0.6-1.2,1.4C299.3,64,299.7,64.6,300.6,64.6z"/>
</g>
<g>
	<path d="M372.6,66.9c1.9-1.9,2.8-3,2.8-4c0-0.7-0.4-1.3-1.3-1.3c-0.5,0-1,0.3-1.3,0.8l-0.3-0.3c0.4-0.5,0.9-0.8,1.6-0.8
		c1,0,1.6,0.6,1.6,1.6c0,1.1-1,2.2-2.6,3.9c0.3,0,0.6,0,1,0h2v0.4h-3.5V66.9z"/>
	<path d="M377,68.3c0.4-0.2,0.7-0.6,0.7-1.1c0,0-0.1,0-0.1,0c-0.2,0-0.4-0.1-0.4-0.4s0.2-0.4,0.4-0.4c0.3,0,0.5,0.2,0.5,0.6
		c0,0.7-0.4,1.2-0.9,1.5L377,68.3z"/>
	<path d="M379.3,66.8h1.4v-4.8h-1v-0.3c0.5-0.1,0.8-0.2,1.1-0.4h0.3v5.4h1.3v0.4h-3V66.8z"/>
	<path d="M386.3,61.8h-3v-0.4h3.5v0.2c-1.4,1.8-1.7,3.3-1.8,5.5h-0.4C384.6,64.9,385.1,63.4,386.3,61.8z"/>
	<path d="M387.6,68.3c0.4-0.2,0.7-0.6,0.7-1.1c0,0-0.1,0-0.1,0c-0.2,0-0.4-0.1-0.4-0.4s0.2-0.4,0.4-0.4c0.3,0,0.5,0.2,0.5,0.6
		c0,0.7-0.4,1.2-0.9,1.5L387.6,68.3z"/>
	<path d="M391.9,65.5h-2.6v-0.2l2.7-3.8h0.4v3.7h0.9v0.3h-0.9v1.7h-0.4V65.5z M391.9,65.1V63c0-0.3,0-0.7,0-1h0
		c-0.1,0.2-0.3,0.5-0.5,0.7l-1.7,2.4H391.9z"/>
	<path d="M393.7,66.5l0.2-0.3c0.3,0.4,0.8,0.7,1.6,0.7c0.8,0,1.3-0.5,1.3-1.3c0-0.8-0.6-1.3-2-1.3V64c1.3,0,1.8-0.6,1.8-1.3
		c0-0.6-0.5-1.1-1.2-1.1c-0.5,0-1,0.3-1.3,0.6l-0.2-0.3c0.4-0.4,0.9-0.7,1.6-0.7c0.9,0,1.6,0.5,1.6,1.4c0,0.8-0.5,1.2-1.1,1.4v0
		c0.7,0.2,1.3,0.7,1.3,1.5c0,1-0.8,1.6-1.8,1.6C394.6,67.3,394,66.9,393.7,66.5z"/>
	<path d="M398,66.5l0.2-0.3c0.3,0.4,0.8,0.7,1.6,0.7c0.8,0,1.3-0.5,1.3-1.3c0-0.8-0.6-1.3-2-1.3V64c1.3,0,1.8-0.6,1.8-1.3
		c0-0.6-0.5-1.1-1.2-1.1c-0.5,0-1,0.3-1.3,0.6l-0.2-0.3c0.4-0.4,0.9-0.7,1.6-0.7c0.9,0,1.6,0.5,1.6,1.4c0,0.8-0.5,1.2-1.1,1.4v0
		c0.7,0.2,1.3,0.7,1.3,1.5c0,1-0.8,1.6-1.8,1.6C398.9,67.3,398.4,66.9,398,66.5z"/>
</g>
<g>
	<path d="M474.9,61.8h-3v-0.4h3.5v0.2c-1.4,1.8-1.7,3.3-1.8,5.5h-0.4C473.2,64.9,473.7,63.4,474.9,61.8z"/>
	<path d="M476.2,68.3c0.4-0.2,0.7-0.6,0.7-1.1c0,0-0.1,0-0.1,0c-0.2,0-0.4-0.1-0.4-0.4s0.2-0.4,0.4-0.4c0.3,0,0.5,0.2,0.5,0.6
		c0,0.7-0.4,1.2-0.9,1.5L476.2,68.3z"/>
	<path d="M478.2,66.7l0.2-0.3c0.3,0.3,0.6,0.5,1,0.5c0.9,0,1.7-0.7,1.7-2.8c-0.4,0.5-0.9,0.8-1.5,0.8c-1,0-1.6-0.6-1.6-1.8
		c0-1,0.7-1.8,1.6-1.8c1.1,0,1.9,1,1.9,2.7c0,2.4-1,3.3-2.1,3.3C478.9,67.3,478.5,67.1,478.2,66.7z M479.8,64.6c0.4,0,1-0.3,1.4-0.9
		c-0.1-1.2-0.5-2-1.5-2c-0.7,0-1.2,0.6-1.2,1.4C478.5,64,478.9,64.6,479.8,64.6z"/>
	<path d="M482.8,66.8h1.3v-4.8h-1v-0.3c0.5-0.1,0.8-0.2,1.1-0.4h0.3v5.4h1.3v0.4h-3V66.8z"/>
	<path d="M486.8,68.3c0.4-0.2,0.7-0.6,0.7-1.1c0,0-0.1,0-0.1,0c-0.2,0-0.4-0.1-0.4-0.4s0.2-0.4,0.4-0.4c0.3,0,0.5,0.2,0.5,0.6
		c0,0.7-0.4,1.2-0.9,1.5L486.8,68.3z"/>
	<path d="M491.1,65.5h-2.6v-0.2l2.7-3.8h0.4v3.7h0.9v0.3h-0.9v1.7h-0.4V65.5z M491.1,65.1V63c0-0.3,0-0.7,0-1h0
		c-0.1,0.2-0.3,0.5-0.5,0.7l-1.7,2.4H491.1z"/>
	<path d="M493.1,64.6c0-2.4,1-3.3,2.1-3.3c0.5,0,0.9,0.2,1.2,0.6l-0.2,0.3c-0.3-0.3-0.6-0.5-1-0.5c-0.9,0-1.7,0.7-1.7,2.8
		c0.4-0.5,0.9-0.8,1.4-0.8c1,0,1.6,0.6,1.6,1.8c0,1-0.7,1.8-1.6,1.8C493.8,67.3,493.1,66.3,493.1,64.6z M493.5,64.9
		c0.1,1.2,0.5,2,1.5,2c0.7,0,1.2-0.6,1.2-1.5s-0.4-1.4-1.2-1.4C494.5,64.1,494,64.3,493.5,64.9z"/>
	<path d="M497.7,66.8h1.4v-4.8h-1v-0.3c0.5-0.1,0.8-0.2,1.1-0.4h0.3v5.4h1.3v0.4h-3V66.8z"/>
</g>
<g>
	<path d="M8.9,73.7h1.7c1.2,0,1.9,0.4,1.9,1.6c0,0.9-0.6,1.5-1.5,1.6l1.6,2.8h-0.5l-1.6-2.7H9.3v2.7H8.9V73.7z M10.5,76.5
		c1,0,1.6-0.4,1.6-1.3c0-0.9-0.6-1.2-1.6-1.2H9.3v2.5H10.5z"/>
	<path d="M13.4,77.5c0-1.4,0.9-2.3,1.9-2.3c1,0,1.7,0.7,1.7,2c0,0.1,0,0.2,0,0.3h-3.1c0,1.1,0.7,1.9,1.6,1.9c0.5,0,0.8-0.2,1.2-0.4
		l0.2,0.3c-0.3,0.2-0.7,0.4-1.4,0.4C14.3,79.7,13.4,78.9,13.4,77.5z M16.5,77.2c0-1.1-0.5-1.7-1.3-1.7c-0.7,0-1.4,0.6-1.5,1.7H16.5z
		"/>
	<path d="M18.2,75.6h-0.6v-0.3l0.6,0v-1c0-0.9,0.4-1.3,1.1-1.3c0.2,0,0.4,0.1,0.6,0.1l-0.1,0.3c-0.2-0.1-0.4-0.1-0.5-0.1
		c-0.5,0-0.7,0.4-0.7,1v0.9h1v0.3h-1v4h-0.4V75.6z"/>
	<path d="M20.3,73.9c0-0.2,0.1-0.4,0.3-0.4c0.2,0,0.3,0.1,0.3,0.4c0,0.2-0.1,0.4-0.3,0.4C20.5,74.2,20.3,74.1,20.3,73.9z M20.5,75.3
		h0.4v4.3h-0.4V75.3z"/>
	<path d="M22.5,75.3h0.3l0,0.7h0c0.4-0.4,0.9-0.8,1.5-0.8c0.9,0,1.3,0.5,1.3,1.7v2.8h-0.4v-2.7c0-0.9-0.3-1.4-1-1.4
		c-0.5,0-0.9,0.3-1.4,0.8v3.3h-0.4V75.3z"/>
	<path d="M26.9,77.5c0-1.4,0.9-2.3,1.9-2.3c1,0,1.7,0.7,1.7,2c0,0.1,0,0.2,0,0.3h-3.1c0,1.1,0.7,1.9,1.6,1.9c0.5,0,0.8-0.2,1.2-0.4
		l0.2,0.3c-0.3,0.2-0.7,0.4-1.4,0.4C27.8,79.7,26.9,78.9,26.9,77.5z M30.1,77.2c0-1.1-0.5-1.7-1.3-1.7c-0.7,0-1.4,0.6-1.5,1.7H30.1z
		"/>
	<path d="M31.3,77.5c0-1.4,0.9-2.3,1.9-2.3c0.5,0,0.9,0.2,1.3,0.5l0-0.8v-1.8h0.4v6.5h-0.3l0-0.6h0c-0.4,0.4-0.8,0.7-1.4,0.7
		C32,79.7,31.3,78.9,31.3,77.5z M34.5,78.6v-2.6c-0.5-0.4-0.8-0.6-1.3-0.6c-0.9,0-1.5,0.8-1.5,1.9c0,1.1,0.5,1.9,1.4,1.9
		C33.6,79.4,34,79.1,34.5,78.6z"/>
	<path d="M38.4,73.7h0.4v5.6h2.7v0.4h-3.2V73.7z"/>
	<path d="M42.2,77.5c0-1.4,0.9-2.3,1.9-2.3c1,0,1.7,0.7,1.7,2c0,0.1,0,0.2,0,0.3h-3.1c0,1.1,0.7,1.9,1.6,1.9c0.5,0,0.8-0.2,1.2-0.4
		l0.2,0.3c-0.3,0.2-0.7,0.4-1.4,0.4C43.1,79.7,42.2,78.9,42.2,77.5z M45.4,77.2c0-1.1-0.5-1.7-1.3-1.7c-0.7,0-1.4,0.6-1.5,1.7H45.4z
		"/>
	<path d="M46.6,78.5c0-1,0.9-1.4,2.8-1.6c0-0.7-0.2-1.4-1-1.4c-0.6,0-1.1,0.3-1.4,0.5l-0.2-0.3c0.3-0.2,0.9-0.6,1.6-0.6
		c1,0,1.4,0.7,1.4,1.7v2.8h-0.3l0-0.6h0c-0.4,0.4-1,0.7-1.5,0.7C47.2,79.7,46.6,79.3,46.6,78.5z M49.4,78.7v-1.5
		c-1.8,0.2-2.4,0.6-2.4,1.3c0,0.6,0.4,0.9,0.9,0.9C48.4,79.4,48.8,79.1,49.4,78.7z"/>
	<path d="M51,77.5c0-1.4,0.9-2.3,1.9-2.3c0.5,0,0.9,0.2,1.3,0.5l0-0.8v-1.8h0.4v6.5h-0.3l0-0.6h0c-0.4,0.4-0.8,0.7-1.4,0.7
		C51.7,79.7,51,78.9,51,77.5z M54.2,78.6v-2.6c-0.5-0.4-0.8-0.6-1.3-0.6c-0.9,0-1.5,0.8-1.5,1.9c0,1.1,0.5,1.9,1.4,1.9
		C53.3,79.4,53.7,79.1,54.2,78.6z"/>
	<path d="M58,77.1c0-1.6,0.5-2.9,1.2-4.1l0.2,0.1c-0.7,1.1-1.1,2.5-1.1,3.9c0,1.4,0.4,2.8,1.1,3.9l-0.2,0.1C58.4,80,58,78.7,58,77.1
		z"/>
	<path d="M60.6,73.7h0.6l1.2,3.5c0.2,0.4,0.3,0.9,0.5,1.3h0c0.2-0.4,0.3-0.9,0.5-1.3l1.2-3.5h0.6v5.9h-0.4v-3.9c0-0.5,0-1.1,0.1-1.6
		h0l-0.5,1.3L63.1,79h-0.4l-1.3-3.5l-0.5-1.3h0c0,0.5,0.1,1.1,0.1,1.6v3.9h-0.4V73.7z"/>
	<path d="M68.2,74h-1.9v-0.4h4.2V74h-1.9v5.6h-0.4V74z"/>
	<path d="M71.1,81c0.7-1.1,1.1-2.5,1.1-3.9c0-1.4-0.4-2.8-1.1-3.9l0.2-0.1c0.7,1.2,1.2,2.5,1.2,4.1c0,1.6-0.5,2.9-1.2,4.1L71.1,81z"
		/>
</g>
<g>
	<path d="M180.4,78.1c0-0.8,0.6-1.3,1.2-1.6v0c-0.4-0.3-0.8-0.7-0.8-1.3c0-0.8,0.7-1.4,1.5-1.4c1,0,1.6,0.6,1.6,1.5
		c0,0.6-0.5,1.2-0.8,1.5v0c0.5,0.3,1,0.7,1,1.5c0,0.8-0.7,1.5-1.7,1.5C181.2,79.7,180.4,79,180.4,78.1z M183.6,78.2
		c0-0.9-0.9-1.2-1.8-1.5c-0.6,0.3-1,0.8-1,1.5c0,0.7,0.6,1.3,1.4,1.3C183.1,79.4,183.6,78.9,183.6,78.2z M183.5,75.3
		c0-0.6-0.4-1.2-1.2-1.2c-0.6,0-1.1,0.5-1.1,1.1c0,0.8,0.8,1.1,1.5,1.4C183.2,76.2,183.5,75.8,183.5,75.3z"/>
	<path d="M184.6,78.9l0.2-0.3c0.3,0.4,0.8,0.7,1.6,0.7c0.8,0,1.4-0.6,1.4-1.5c0-0.9-0.5-1.5-1.4-1.5c-0.4,0-0.7,0.2-1.1,0.4
		l-0.3-0.2l0.2-2.7h2.7v0.4h-2.3l-0.2,2.1c0.3-0.2,0.6-0.3,1-0.3c1,0,1.8,0.6,1.8,1.8c0,1.2-0.9,1.9-1.8,1.9
		C185.5,79.7,185,79.3,184.6,78.9z"/>
	<path d="M189.1,80.7c0.4-0.2,0.7-0.6,0.7-1.1c0,0-0.1,0-0.1,0c-0.2,0-0.4-0.1-0.4-0.4s0.2-0.4,0.4-0.4c0.3,0,0.5,0.2,0.5,0.6
		c0,0.7-0.4,1.2-0.9,1.5L189.1,80.7z"/>
	<path d="M191.2,79.2l0.2-0.3c0.3,0.3,0.6,0.5,1,0.5c0.9,0,1.7-0.7,1.7-2.8c-0.4,0.5-0.9,0.8-1.5,0.8c-1,0-1.6-0.6-1.6-1.8
		c0-1,0.7-1.8,1.6-1.8c1.1,0,1.9,1,1.9,2.7c0,2.4-1,3.3-2.1,3.3C191.9,79.7,191.5,79.5,191.2,79.2z M192.7,77c0.4,0,1-0.3,1.4-0.9
		c-0.1-1.2-0.5-2-1.5-2c-0.7,0-1.2,0.6-1.2,1.4C191.5,76.4,191.8,77,192.7,77z"/>
	<path d="M195.7,79.3h1.3v-4.8h-1v-0.3c0.5-0.1,0.8-0.2,1.1-0.4h0.3v5.4h1.3v0.4h-3V79.3z"/>
	<path d="M199.8,77c0-2.4,1-3.3,2.1-3.3c0.5,0,0.9,0.2,1.2,0.6l-0.2,0.3c-0.3-0.3-0.6-0.5-1-0.5c-0.9,0-1.7,0.7-1.7,2.8
		c0.4-0.5,0.9-0.8,1.4-0.8c1,0,1.6,0.6,1.6,1.8c0,1-0.7,1.8-1.6,1.8C200.5,79.7,199.8,78.7,199.8,77z M200.2,77.3
		c0.1,1.2,0.5,2,1.5,2c0.7,0,1.2-0.6,1.2-1.5s-0.4-1.4-1.2-1.4C201.2,76.5,200.7,76.7,200.2,77.3z"/>
</g>
<g>
	<path d="M373,79.3h1.3v-4.8h-1v-0.3c0.5-0.1,0.8-0.2,1.1-0.4h0.3v5.4h1.3v0.4h-3V79.3z"/>
	<path d="M377,80.7c0.4-0.2,0.7-0.6,0.7-1.1c0,0-0.1,0-0.1,0c-0.2,0-0.4-0.1-0.4-0.4s0.2-0.4,0.4-0.4c0.3,0,0.5,0.2,0.5,0.6
		c0,0.7-0.4,1.2-0.9,1.5L377,80.7z"/>
	<path d="M379.3,79.3h1.4v-4.8h-1v-0.3c0.5-0.1,0.8-0.2,1.1-0.4h0.3v5.4h1.3v0.4h-3V79.3z"/>
	<path d="M383.6,79.3h1.4v-4.8h-1v-0.3c0.5-0.1,0.8-0.2,1.1-0.4h0.3v5.4h1.3v0.4h-3V79.3z"/>
	<path d="M387.6,80.7c0.4-0.2,0.7-0.6,0.7-1.1c0,0-0.1,0-0.1,0c-0.2,0-0.4-0.1-0.4-0.4s0.2-0.4,0.4-0.4c0.3,0,0.5,0.2,0.5,0.6
		c0,0.7-0.4,1.2-0.9,1.5L387.6,80.7z"/>
	<path d="M389.6,79.2l0.2-0.3c0.3,0.3,0.6,0.5,1,0.5c0.9,0,1.7-0.7,1.7-2.8c-0.4,0.5-0.9,0.8-1.5,0.8c-1,0-1.6-0.6-1.6-1.8
		c0-1,0.7-1.8,1.6-1.8c1.1,0,1.9,1,1.9,2.7c0,2.4-1,3.3-2.1,3.3C390.3,79.7,389.9,79.5,389.6,79.2z M391.1,77c0.4,0,1-0.3,1.4-0.9
		c-0.1-1.2-0.5-2-1.5-2c-0.7,0-1.2,0.6-1.2,1.4C389.9,76.4,390.3,77,391.1,77z"/>
	<path d="M393.8,79.4c1.9-1.9,2.8-3,2.8-4c0-0.7-0.4-1.3-1.3-1.3c-0.5,0-1,0.3-1.3,0.8l-0.3-0.3c0.4-0.5,0.9-0.8,1.6-0.8
		c1,0,1.6,0.6,1.6,1.6c0,1.1-1,2.2-2.6,3.9c0.3,0,0.6,0,1,0h2v0.4h-3.5V79.4z"/>
	<path d="M398.1,79.4c1.9-1.9,2.8-3,2.8-4c0-0.7-0.4-1.3-1.3-1.3c-0.5,0-1,0.3-1.3,0.8l-0.3-0.3c0.4-0.5,0.9-0.8,1.6-0.8
		c1,0,1.6,0.6,1.6,1.6c0,1.1-1,2.2-2.6,3.9c0.3,0,0.6,0,1,0h2v0.4h-3.5V79.4z"/>
</g>
<g>
	<path d="M468,78.5h1.2v-3.3h-1.1v-0.8c0.6-0.1,1-0.3,1.4-0.5h1v4.6h1.1v1.1H468V78.5z"/>
	<path d="M472.5,80.6c0.7-0.2,1-0.6,1-1.1c0,0,0,0-0.1,0c-0.4,0-0.8-0.3-0.8-0.7c0-0.5,0.4-0.8,0.8-0.8c0.6,0,0.9,0.5,0.9,1.3
		c0,1-0.6,1.7-1.6,2.1L472.5,80.6z"/>
	<path d="M475.2,79l0.7-0.8c0.2,0.2,0.5,0.4,0.9,0.4c0.6,0,1.1-0.5,1.2-1.8c-0.3,0.4-0.8,0.6-1.1,0.6c-1,0-1.7-0.6-1.7-1.8
		c0-1.2,0.9-1.9,1.9-1.9c1.1,0,2.2,0.8,2.2,2.8c0,2.1-1.1,3.1-2.3,3.1C476.1,79.7,475.5,79.4,475.2,79z M477.1,76.5
		c0.3,0,0.6-0.2,0.9-0.6c-0.1-0.9-0.5-1.2-0.9-1.2c-0.4,0-0.7,0.3-0.7,0.9C476.3,76.3,476.6,76.5,477.1,76.5z"/>
	<path d="M482.5,75h-2.6v-1.1h4v0.8c-1.3,1.6-1.5,2.7-1.6,4.9H481C481.1,77.7,481.4,76.5,482.5,75z"/>
	<path d="M484.7,80.6c0.7-0.2,1-0.6,1-1.1c0,0,0,0-0.1,0c-0.4,0-0.8-0.3-0.8-0.7c0-0.5,0.4-0.8,0.8-0.8c0.6,0,0.9,0.5,0.9,1.3
		c0,1-0.6,1.7-1.6,2.1L484.7,80.6z"/>
	<path d="M487.4,78.1c0-0.7,0.4-1.1,1-1.4v0c-0.4-0.3-0.8-0.7-0.8-1.4c0-1,0.8-1.6,1.8-1.6c1,0,1.7,0.6,1.7,1.6c0,0.5-0.4,1-0.7,1.3
		v0c0.5,0.3,1,0.7,1,1.5c0,0.9-0.8,1.6-2,1.6C488.2,79.7,487.4,79.1,487.4,78.1z M490.2,78.1c0-0.5-0.5-0.7-1.2-1
		c-0.3,0.2-0.4,0.6-0.4,0.9c0,0.5,0.4,0.8,0.9,0.8C489.8,78.8,490.2,78.6,490.2,78.1z M490.1,75.4c0-0.4-0.3-0.7-0.7-0.7
		c-0.4,0-0.6,0.2-0.6,0.7c0,0.5,0.4,0.7,1,0.9C489.9,76,490.1,75.7,490.1,75.4z"/>
	<path d="M491.9,78.9l0.6-0.8c0.3,0.3,0.8,0.6,1.3,0.6c0.6,0,0.9-0.2,0.9-0.7c0-0.5-0.3-0.8-1.5-0.8v-0.9c1,0,1.3-0.3,1.3-0.8
		c0-0.4-0.3-0.6-0.7-0.6c-0.4,0-0.7,0.2-1.1,0.5l-0.7-0.8c0.5-0.5,1.1-0.7,1.8-0.7c1.2,0,2,0.6,2,1.6c0,0.6-0.3,1-1,1.3v0
		c0.7,0.2,1.1,0.7,1.1,1.4c0,1.1-1,1.7-2.1,1.7C493,79.7,492.4,79.4,491.9,78.9z"/>
	<path d="M496.9,78.1c0-0.7,0.4-1.1,1-1.4v0c-0.4-0.3-0.8-0.7-0.8-1.4c0-1,0.8-1.6,1.8-1.6c1,0,1.7,0.6,1.7,1.6c0,0.5-0.4,1-0.7,1.3
		v0c0.5,0.3,1,0.7,1,1.5c0,0.9-0.8,1.6-2,1.6C497.7,79.7,496.9,79.1,496.9,78.1z M499.7,78.1c0-0.5-0.5-0.7-1.2-1
		c-0.3,0.2-0.4,0.6-0.4,0.9c0,0.5,0.4,0.8,0.9,0.8C499.3,78.8,499.7,78.6,499.7,78.1z M499.6,75.4c0-0.4-0.3-0.7-0.7-0.7
		c-0.4,0-0.6,0.2-0.6,0.7c0,0.5,0.4,0.7,1,0.9C499.5,76,499.6,75.7,499.6,75.4z"/>
</g>
<g>
	<path d="M8.9,86.1h3.2v0.4H9.3v2.4h2.4v0.4H9.3V92H8.9V86.1z"/>
	<path d="M14.1,89.6l-1.8-3.5h0.4l0.9,1.9c0.2,0.4,0.4,0.8,0.6,1.3h0c0.2-0.4,0.5-0.9,0.6-1.3l0.9-1.9h0.4l-1.8,3.5V92h-0.4V89.6z"
		/>
	<path d="M18.5,91.8c1.9-1.9,2.8-3,2.8-4c0-0.7-0.4-1.3-1.3-1.3c-0.5,0-1,0.3-1.3,0.8L18.5,87c0.4-0.5,0.9-0.8,1.6-0.8
		c1,0,1.6,0.6,1.6,1.6c0,1.1-1,2.2-2.6,3.9c0.3,0,0.6,0,1,0h2V92h-3.5V91.8z"/>
	<path d="M22.9,89.1c0-1.9,0.6-3,1.7-3s1.7,1.1,1.7,3c0,1.9-0.6,3-1.7,3S22.9,91,22.9,89.1z M25.9,89.1c0-1.8-0.5-2.6-1.3-2.6
		c-0.8,0-1.3,0.9-1.3,2.6c0,1.8,0.5,2.7,1.3,2.7C25.4,91.8,25.9,90.9,25.9,89.1z"/>
	<path d="M27.5,91.7h1.4v-4.8h-1v-0.3c0.5-0.1,0.8-0.2,1.1-0.4h0.3v5.4h1.3V92h-3V91.7z"/>
	<path d="M31.4,90.5c0-0.8,0.6-1.3,1.2-1.6v0c-0.4-0.3-0.8-0.7-0.8-1.3c0-0.8,0.7-1.4,1.5-1.4c1,0,1.6,0.6,1.6,1.5
		c0,0.6-0.5,1.2-0.8,1.5v0c0.5,0.3,1,0.7,1,1.5c0,0.8-0.7,1.5-1.7,1.5C32.2,92.1,31.4,91.5,31.4,90.5z M34.6,90.6
		c0-0.9-0.9-1.2-1.8-1.5c-0.6,0.3-1,0.8-1,1.5c0,0.7,0.6,1.3,1.4,1.3C34.1,91.8,34.6,91.3,34.6,90.6z M34.4,87.7
		c0-0.6-0.4-1.2-1.2-1.2c-0.6,0-1.1,0.5-1.1,1.1c0,0.8,0.8,1.1,1.5,1.4C34.2,88.6,34.4,88.2,34.4,87.7z"/>
	<path d="M38,89.5c0-1.6,0.4-2.9,1.2-4.1l0.2,0.1c-0.7,1.1-1.1,2.5-1.1,3.9c0,1.4,0.4,2.8,1.1,3.9l-0.2,0.1
		C38.4,92.4,38,91.1,38,89.5z"/>
	<path d="M40.6,86.1h0.6l1.2,3.5c0.2,0.4,0.3,0.9,0.5,1.3h0c0.2-0.4,0.3-0.9,0.4-1.3l1.2-3.5h0.6V92h-0.4v-3.9c0-0.5,0-1.1,0.1-1.6
		h0l-0.5,1.3l-1.3,3.5h-0.4l-1.3-3.5l-0.5-1.3h0c0,0.5,0.1,1.1,0.1,1.6V92h-0.4V86.1z"/>
	<path d="M48.2,86.5h-1.9v-0.4h4.2v0.4h-1.9V92h-0.4V86.5z"/>
	<path d="M51.1,93.5c0.7-1.1,1.1-2.5,1.1-3.9c0-1.4-0.4-2.8-1.1-3.9l0.2-0.1c0.7,1.2,1.2,2.5,1.2,4.1c0,1.6-0.4,2.9-1.2,4.1
		L51.1,93.5z"/>
</g>
<g>
	<path d="M183.5,86.6h-3v-0.4h3.5v0.2c-1.4,1.8-1.7,3.3-1.8,5.5h-0.4C181.9,89.7,182.4,88.2,183.5,86.6z"/>
	<path d="M184.8,91.8c1.9-1.9,2.8-3,2.8-4c0-0.7-0.4-1.3-1.3-1.3c-0.5,0-1,0.3-1.3,0.8l-0.3-0.3c0.4-0.5,0.9-0.8,1.6-0.8
		c1,0,1.6,0.6,1.6,1.6c0,1.1-1,2.2-2.6,3.9c0.3,0,0.6,0,1,0h2V92h-3.5V91.8z"/>
	<path d="M189.1,93.1c0.4-0.2,0.7-0.6,0.7-1.1c0,0-0.1,0-0.1,0c-0.2,0-0.4-0.1-0.4-0.4s0.2-0.4,0.4-0.4c0.3,0,0.5,0.2,0.5,0.6
		c0,0.7-0.4,1.2-0.9,1.5L189.1,93.1z"/>
	<path d="M193.5,90.3h-2.6v-0.2l2.7-3.8h0.4V90h0.9v0.3h-0.9V92h-0.4V90.3z M193.5,90v-2.1c0-0.3,0-0.7,0-1h0
		c-0.1,0.2-0.3,0.5-0.5,0.7l-1.7,2.4H193.5z"/>
	<path d="M195.2,91.4l0.2-0.3c0.3,0.4,0.8,0.7,1.6,0.7c0.8,0,1.4-0.6,1.4-1.5c0-0.9-0.5-1.5-1.4-1.5c-0.4,0-0.7,0.2-1.1,0.4
		l-0.3-0.2l0.2-2.7h2.7v0.4h-2.3l-0.2,2.1c0.3-0.2,0.6-0.3,1-0.3c1,0,1.8,0.6,1.8,1.8c0,1.2-0.9,1.9-1.8,1.9
		C196.1,92.1,195.6,91.7,195.2,91.4z"/>
	<path d="M199.7,89.1c0-1.9,0.6-3,1.7-3s1.7,1.1,1.7,3c0,1.9-0.6,3-1.7,3S199.7,91,199.7,89.1z M202.8,89.1c0-1.8-0.5-2.6-1.3-2.6
		c-0.8,0-1.3,0.9-1.3,2.6c0,1.8,0.5,2.7,1.3,2.7C202.3,91.8,202.8,90.9,202.8,89.1z"/>
</g>
<g>
	<path d="M379,91.6l0.2-0.3c0.3,0.3,0.6,0.5,1,0.5c0.9,0,1.7-0.7,1.7-2.8c-0.4,0.5-0.9,0.8-1.5,0.8c-1,0-1.6-0.6-1.6-1.8
		c0-1,0.7-1.8,1.6-1.8c1.1,0,1.9,1,1.9,2.7c0,2.4-1,3.3-2.1,3.3C379.7,92.1,379.3,91.9,379,91.6z M380.5,89.4c0.4,0,1-0.3,1.4-0.9
		c-0.1-1.2-0.5-2-1.5-2c-0.7,0-1.2,0.6-1.2,1.4C379.3,88.8,379.7,89.4,380.5,89.4z"/>
	<path d="M383.1,91.4l0.2-0.3c0.3,0.4,0.8,0.7,1.6,0.7c0.8,0,1.4-0.6,1.4-1.5c0-0.9-0.5-1.5-1.4-1.5c-0.4,0-0.7,0.2-1.1,0.4
		l-0.3-0.2l0.2-2.7h2.7v0.4h-2.3l-0.2,2.1c0.3-0.2,0.6-0.3,1-0.3c1,0,1.8,0.6,1.8,1.8c0,1.2-0.9,1.9-1.8,1.9
		C383.9,92.1,383.4,91.7,383.1,91.4z"/>
	<path d="M387.6,93.1c0.4-0.2,0.7-0.6,0.7-1.1c0,0-0.1,0-0.1,0c-0.2,0-0.4-0.1-0.4-0.4s0.2-0.4,0.4-0.4c0.3,0,0.5,0.2,0.5,0.6
		c0,0.7-0.4,1.2-0.9,1.5L387.6,93.1z"/>
	<path d="M392.5,86.6h-3v-0.4h3.5v0.2c-1.4,1.8-1.7,3.3-1.8,5.5h-0.4C390.9,89.7,391.4,88.2,392.5,86.6z"/>
	<path d="M393.9,91.6l0.2-0.3c0.3,0.3,0.6,0.5,1,0.5c0.9,0,1.7-0.7,1.7-2.8c-0.4,0.5-0.9,0.8-1.5,0.8c-1,0-1.6-0.6-1.6-1.8
		c0-1,0.7-1.8,1.6-1.8c1.1,0,1.9,1,1.9,2.7c0,2.4-1,3.3-2.1,3.3C394.6,92.1,394.2,91.9,393.9,91.6z M395.5,89.4c0.4,0,1-0.3,1.4-0.9
		c-0.1-1.2-0.5-2-1.5-2c-0.7,0-1.2,0.6-1.2,1.4C394.2,88.8,394.6,89.4,395.5,89.4z"/>
	<path d="M401.2,86.6h-3v-0.4h3.5v0.2c-1.4,1.8-1.7,3.3-1.8,5.5h-0.4C399.5,89.7,400,88.2,401.2,86.6z"/>
</g>
<g>
	<path d="M472.2,91.7h1.4v-4.8h-1v-0.3c0.5-0.1,0.8-0.2,1.1-0.4h0.3v5.4h1.3V92h-3V91.7z"/>
	<path d="M476.2,93.1c0.4-0.2,0.7-0.6,0.7-1.1c0,0-0.1,0-0.1,0c-0.2,0-0.4-0.1-0.4-0.4s0.2-0.4,0.4-0.4c0.3,0,0.5,0.2,0.5,0.6
		c0,0.7-0.4,1.2-0.9,1.5L476.2,93.1z"/>
	<path d="M478.2,89.4c0-2.4,1-3.3,2.1-3.3c0.5,0,0.9,0.2,1.2,0.6l-0.2,0.3c-0.3-0.3-0.6-0.5-1-0.5c-0.9,0-1.7,0.7-1.7,2.8
		c0.4-0.5,0.9-0.8,1.4-0.8c1,0,1.6,0.6,1.6,1.8c0,1-0.7,1.8-1.6,1.8C478.9,92.1,478.2,91.2,478.2,89.4z M478.6,89.8
		c0.1,1.2,0.5,2,1.5,2c0.7,0,1.2-0.6,1.2-1.5s-0.4-1.4-1.2-1.4C479.6,88.9,479.1,89.1,478.6,89.8z"/>
	<path d="M482.4,90.5c0-0.8,0.6-1.3,1.2-1.6v0c-0.4-0.3-0.8-0.7-0.8-1.3c0-0.8,0.7-1.4,1.5-1.4c1,0,1.6,0.6,1.6,1.5
		c0,0.6-0.5,1.2-0.8,1.5v0c0.5,0.3,1,0.7,1,1.5c0,0.8-0.7,1.5-1.7,1.5C483.2,92.1,482.4,91.5,482.4,90.5z M485.6,90.6
		c0-0.9-0.9-1.2-1.8-1.5c-0.6,0.3-1,0.8-1,1.5c0,0.7,0.6,1.3,1.4,1.3C485,91.8,485.6,91.3,485.6,90.6z M485.4,87.7
		c0-0.6-0.4-1.2-1.2-1.2c-0.6,0-1.1,0.5-1.1,1.1c0,0.8,0.8,1.1,1.5,1.4C485.1,88.6,485.4,88.2,485.4,87.7z"/>
	<path d="M486.8,93.1c0.4-0.2,0.7-0.6,0.7-1.1c0,0-0.1,0-0.1,0c-0.2,0-0.4-0.1-0.4-0.4s0.2-0.4,0.4-0.4c0.3,0,0.5,0.2,0.5,0.6
		c0,0.7-0.4,1.2-0.9,1.5L486.8,93.1z"/>
	<path d="M488.7,91.8c1.9-1.9,2.8-3,2.8-4c0-0.7-0.4-1.3-1.3-1.3c-0.5,0-1,0.3-1.3,0.8l-0.3-0.3c0.4-0.5,0.9-0.8,1.6-0.8
		c1,0,1.6,0.6,1.6,1.6c0,1.1-1,2.2-2.6,3.9c0.3,0,0.6,0,1,0h2V92h-3.5V91.8z"/>
	<path d="M495.4,90.3h-2.6v-0.2l2.7-3.8h0.4V90h0.9v0.3h-0.9V92h-0.4V90.3z M495.4,90v-2.1c0-0.3,0-0.7,0-1h0
		c-0.1,0.2-0.3,0.5-0.5,0.7l-1.7,2.4H495.4z"/>
	<path d="M500.4,86.6h-3v-0.4h3.5v0.2c-1.4,1.8-1.7,3.3-1.8,5.5h-0.4C498.7,89.7,499.2,88.2,500.4,86.6z"/>
</g>
<g>
	<path d="M8.4,103.7l0.3-0.3c0.4,0.5,1.1,0.8,1.7,0.8c0.9,0,1.5-0.5,1.5-1.2c0-0.7-0.5-1-1.1-1.2l-0.9-0.4c-0.5-0.2-1.2-0.6-1.2-1.5
		c0-0.9,0.7-1.5,1.7-1.5c0.7,0,1.3,0.3,1.6,0.7l-0.2,0.3c-0.4-0.4-0.8-0.6-1.4-0.6c-0.8,0-1.3,0.4-1.3,1.1c0,0.7,0.6,0.9,1,1.1
		l0.9,0.4c0.7,0.3,1.3,0.7,1.3,1.6s-0.7,1.6-1.9,1.6C9.6,104.6,8.9,104.2,8.4,103.7z"/>
	<path d="M13.5,102.9v-2.8h0.4v2.7c0,0.9,0.3,1.4,1,1.4c0.5,0,0.9-0.3,1.4-0.9v-3.2h0.4v4.3h-0.3l0-0.7h0c-0.4,0.5-0.9,0.8-1.5,0.8
		C13.9,104.6,13.5,104,13.5,102.9z"/>
	<path d="M18.3,103.9V98h0.4v6c0,0.2,0.1,0.3,0.2,0.3c0,0,0.1,0,0.2,0l0.1,0.3c-0.1,0-0.2,0-0.3,0C18.5,104.6,18.3,104.3,18.3,103.9
		z"/>
	<path d="M20.4,100.1h0.3l0,0.5h0c0.4-0.3,0.9-0.6,1.5-0.6c1.2,0,1.7,0.9,1.7,2.2c0,1.5-0.9,2.3-1.9,2.3c-0.4,0-0.8-0.2-1.3-0.5v2.4
		h-0.4V100.1z M23.6,102.2c0-1.1-0.4-1.9-1.4-1.9c-0.4,0-0.9,0.3-1.4,0.7v2.6c0.5,0.4,0.9,0.6,1.3,0.6
		C23,104.2,23.6,103.4,23.6,102.2z"/>
	<path d="M25.3,98h0.4v2.8c0.4-0.5,0.9-0.8,1.5-0.8c0.9,0,1.3,0.5,1.3,1.7v2.8h-0.4v-2.7c0-0.9-0.3-1.4-1-1.4
		c-0.5,0-0.9,0.3-1.4,0.8v3.3h-0.4V98z"/>
	<path d="M30,102.9v-2.8h0.4v2.7c0,0.9,0.3,1.4,1,1.4c0.5,0,0.9-0.3,1.4-0.9v-3.2h0.4v4.3h-0.3l0-0.7h0c-0.4,0.5-0.9,0.8-1.5,0.8
		C30.4,104.6,30,104,30,102.9z"/>
	<path d="M34.8,100.1h0.3l0,0.8h0c0.3-0.5,0.7-0.9,1.2-0.9c0.2,0,0.3,0,0.4,0.1l-0.1,0.4c-0.1-0.1-0.2-0.1-0.4-0.1
		c-0.4,0-0.8,0.3-1.2,1.1v2.9h-0.4V100.1z"/>
	<path d="M37.6,98.7c0-0.2,0.1-0.4,0.3-0.4c0.2,0,0.3,0.1,0.3,0.4c0,0.2-0.1,0.4-0.3,0.4C37.7,99.1,37.6,98.9,37.6,98.7z
		 M37.7,100.1h0.4v4.3h-0.4V100.1z"/>
	<path d="M39.4,102.3c0-1.5,0.9-2.3,2-2.3c0.6,0,1,0.3,1.3,0.5l-0.2,0.3c-0.3-0.3-0.6-0.5-1-0.5c-0.9,0-1.6,0.8-1.6,1.9
		c0,1.1,0.6,1.9,1.6,1.9c0.5,0,0.9-0.2,1.2-0.5l0.2,0.3c-0.4,0.3-0.8,0.6-1.4,0.6C40.2,104.6,39.4,103.7,39.4,102.3z"/>
	<path d="M46.9,98.5h0.4l2.1,5.9H49l-0.7-2H46l-0.7,2h-0.4L46.9,98.5z M46.1,102.1h2.1l-0.4-1.1c-0.2-0.7-0.5-1.3-0.7-2.1h0
		c-0.2,0.7-0.4,1.4-0.7,2.1L46.1,102.1z"/>
	<path d="M50,102.3c0-1.5,0.9-2.3,2-2.3c0.6,0,1,0.3,1.3,0.5l-0.2,0.3c-0.3-0.3-0.6-0.5-1-0.5c-0.9,0-1.6,0.8-1.6,1.9
		c0,1.1,0.6,1.9,1.6,1.9c0.5,0,0.9-0.2,1.2-0.5l0.2,0.3c-0.4,0.3-0.8,0.6-1.4,0.6C50.8,104.6,50,103.7,50,102.3z"/>
	<path d="M54.2,98.7c0-0.2,0.1-0.4,0.3-0.4c0.2,0,0.3,0.1,0.3,0.4c0,0.2-0.1,0.4-0.3,0.4C54.4,99.1,54.2,98.9,54.2,98.7z
		 M54.4,100.1h0.4v4.3h-0.4V100.1z"/>
	<path d="M56.1,102.3c0-1.4,0.9-2.3,1.9-2.3c0.5,0,0.9,0.2,1.3,0.5l0-0.8V98h0.4v6.5h-0.3l0-0.6h0c-0.4,0.4-0.8,0.7-1.4,0.7
		C56.8,104.6,56.1,103.7,56.1,102.3z M59.3,103.5v-2.6c-0.5-0.4-0.8-0.6-1.3-0.6c-0.9,0-1.5,0.8-1.5,1.9c0,1.1,0.5,1.9,1.4,1.9
		C58.4,104.2,58.8,103.9,59.3,103.5z"/>
	<path d="M63.1,101.9c0-1.6,0.4-2.9,1.2-4.1l0.2,0.1c-0.7,1.1-1.1,2.5-1.1,3.9c0,1.4,0.4,2.8,1.1,3.9l-0.2,0.1
		C63.5,104.8,63.1,103.5,63.1,101.9z"/>
	<path d="M65.7,98.5h0.6l1.2,3.5c0.2,0.4,0.3,0.9,0.5,1.3h0c0.2-0.4,0.3-0.9,0.4-1.3l1.2-3.5h0.6v5.9h-0.4v-3.9c0-0.5,0-1.1,0.1-1.6
		h0l-0.5,1.3l-1.3,3.5h-0.4l-1.3-3.5l-0.5-1.3h0c0,0.5,0.1,1.1,0.1,1.6v3.9h-0.4V98.5z"/>
	<path d="M73.3,98.9h-1.9v-0.4h4.2v0.4h-1.9v5.6h-0.4V98.9z"/>
	<path d="M76.2,105.9c0.7-1.1,1.1-2.5,1.1-3.9c0-1.4-0.4-2.8-1.1-3.9l0.2-0.1c0.7,1.2,1.2,2.5,1.2,4.1c0,1.6-0.5,2.9-1.2,4.1
		L76.2,105.9z"/>
</g>
<g>
	<path d="M174,103.8l0.2-0.3c0.3,0.4,0.8,0.7,1.6,0.7c0.8,0,1.4-0.6,1.4-1.5c0-0.9-0.5-1.5-1.4-1.5c-0.4,0-0.7,0.2-1.1,0.4l-0.3-0.2
		l0.2-2.7h2.7V99h-2.3l-0.2,2.1c0.3-0.2,0.6-0.3,1-0.3c1,0,1.8,0.6,1.8,1.8c0,1.2-0.9,1.9-1.8,1.9
		C174.9,104.6,174.4,104.1,174,103.8z"/>
	<path d="M178.5,105.6c0.4-0.2,0.7-0.6,0.7-1.1c0,0-0.1,0-0.1,0c-0.2,0-0.4-0.1-0.4-0.4s0.2-0.4,0.4-0.4c0.3,0,0.5,0.2,0.5,0.6
		c0,0.7-0.4,1.2-0.9,1.5L178.5,105.6z"/>
	<path d="M180.3,103.8l0.2-0.3c0.3,0.4,0.8,0.7,1.6,0.7c0.8,0,1.4-0.6,1.4-1.5c0-0.9-0.5-1.5-1.4-1.5c-0.4,0-0.7,0.2-1.1,0.4
		l-0.3-0.2l0.2-2.7h2.7V99h-2.3l-0.2,2.1c0.3-0.2,0.6-0.3,1-0.3c1,0,1.8,0.6,1.8,1.8c0,1.2-0.9,1.9-1.8,1.9
		C181.2,104.6,180.7,104.1,180.3,103.8z"/>
	<path d="M184.8,104.2c1.9-1.9,2.8-3,2.8-4c0-0.7-0.4-1.3-1.3-1.3c-0.5,0-1,0.3-1.3,0.8l-0.3-0.3c0.4-0.5,0.9-0.8,1.6-0.8
		c1,0,1.6,0.6,1.6,1.6c0,1.1-1,2.2-2.6,3.9c0.3,0,0.6,0,1,0h2v0.4h-3.5V104.2z"/>
	<path d="M189.1,105.6c0.4-0.2,0.7-0.6,0.7-1.1c0,0-0.1,0-0.1,0c-0.2,0-0.4-0.1-0.4-0.4s0.2-0.4,0.4-0.4c0.3,0,0.5,0.2,0.5,0.6
		c0,0.7-0.4,1.2-0.9,1.5L189.1,105.6z"/>
	<path d="M191.1,101.8c0-2.4,1-3.3,2.1-3.3c0.5,0,0.9,0.2,1.2,0.6l-0.2,0.3c-0.3-0.3-0.6-0.5-1-0.5c-0.9,0-1.7,0.7-1.7,2.8
		c0.4-0.5,0.9-0.8,1.4-0.8c1,0,1.6,0.6,1.6,1.8c0,1-0.7,1.8-1.6,1.8C191.9,104.6,191.1,103.6,191.1,101.8z M191.6,102.2
		c0.1,1.2,0.5,2,1.5,2c0.7,0,1.2-0.6,1.2-1.5s-0.4-1.4-1.2-1.4C192.6,101.3,192,101.5,191.6,102.2z"/>
	<path d="M195.5,101.8c0-2.4,1-3.3,2.1-3.3c0.5,0,0.9,0.2,1.2,0.6l-0.2,0.3c-0.3-0.3-0.6-0.5-1-0.5c-0.9,0-1.7,0.7-1.7,2.8
		c0.4-0.5,0.9-0.8,1.4-0.8c1,0,1.6,0.6,1.6,1.8c0,1-0.7,1.8-1.6,1.8C196.2,104.6,195.5,103.6,195.5,101.8z M195.9,102.2
		c0.1,1.2,0.5,2,1.5,2c0.7,0,1.2-0.6,1.2-1.5s-0.4-1.4-1.2-1.4C196.9,101.3,196.3,101.5,195.9,102.2z"/>
	<path d="M199.7,101.5c0-1.9,0.6-3,1.7-3c1.1,0,1.7,1.1,1.7,3c0,1.9-0.6,3-1.7,3C200.4,104.6,199.7,103.5,199.7,101.5z M202.8,101.5
		c0-1.8-0.5-2.6-1.3-2.6c-0.8,0-1.3,0.9-1.3,2.6c0,1.8,0.5,2.7,1.3,2.7C202.3,104.2,202.8,103.3,202.8,101.5z"/>
</g>
<g>
	<path d="M273.4,104.2c1.9-1.9,2.8-3,2.8-4c0-0.7-0.4-1.3-1.3-1.3c-0.5,0-1,0.3-1.3,0.8l-0.3-0.3c0.4-0.5,0.9-0.8,1.6-0.8
		c1,0,1.6,0.6,1.6,1.6c0,1.1-1,2.2-2.6,3.9c0.3,0,0.6,0,1,0h2v0.4h-3.5V104.2z"/>
	<path d="M277.8,105.6c0.4-0.2,0.7-0.6,0.7-1.1c0,0-0.1,0-0.1,0c-0.2,0-0.4-0.1-0.4-0.4s0.2-0.4,0.4-0.4c0.3,0,0.5,0.2,0.5,0.6
		c0,0.7-0.4,1.2-0.9,1.5L277.8,105.6z"/>
	<path d="M279.5,103.8l0.2-0.3c0.3,0.4,0.8,0.7,1.6,0.7c0.8,0,1.4-0.6,1.4-1.5c0-0.9-0.5-1.5-1.4-1.5c-0.4,0-0.7,0.2-1.1,0.4
		l-0.3-0.2l0.2-2.7h2.7V99h-2.3l-0.2,2.1c0.3-0.2,0.6-0.3,1-0.3c1,0,1.8,0.6,1.8,1.8c0,1.2-0.9,1.9-1.8,1.9
		C280.4,104.6,279.9,104.1,279.5,103.8z"/>
	<path d="M283.9,103.7l0.2-0.3c0.3,0.4,0.8,0.7,1.6,0.7c0.8,0,1.3-0.5,1.3-1.3c0-0.8-0.6-1.3-2-1.3v-0.4c1.3,0,1.8-0.6,1.8-1.3
		c0-0.6-0.5-1.1-1.2-1.1c-0.5,0-1,0.3-1.3,0.6l-0.2-0.3c0.4-0.4,0.9-0.7,1.6-0.7c0.9,0,1.6,0.5,1.6,1.4c0,0.8-0.5,1.2-1.1,1.4v0
		c0.7,0.2,1.3,0.7,1.3,1.5c0,1-0.8,1.6-1.8,1.6C284.8,104.6,284.2,104.1,283.9,103.7z"/>
	<path d="M288.4,105.6c0.4-0.2,0.7-0.6,0.7-1.1c0,0-0.1,0-0.1,0c-0.2,0-0.4-0.1-0.4-0.4s0.2-0.4,0.4-0.4c0.3,0,0.5,0.2,0.5,0.6
		c0,0.7-0.4,1.2-0.9,1.5L288.4,105.6z"/>
	<path d="M290.2,103.7l0.2-0.3c0.3,0.4,0.8,0.7,1.6,0.7c0.8,0,1.3-0.5,1.3-1.3c0-0.8-0.6-1.3-2-1.3v-0.4c1.3,0,1.8-0.6,1.8-1.3
		c0-0.6-0.5-1.1-1.2-1.1c-0.5,0-1,0.3-1.3,0.6l-0.2-0.3c0.4-0.4,0.9-0.7,1.6-0.7c0.9,0,1.6,0.5,1.6,1.4c0,0.8-0.5,1.2-1.1,1.4v0
		c0.7,0.2,1.3,0.7,1.3,1.5c0,1-0.8,1.6-1.8,1.6C291.1,104.6,290.5,104.1,290.2,103.7z"/>
	<path d="M294.7,101.8c0-2.4,1-3.3,2.1-3.3c0.5,0,0.9,0.2,1.2,0.6l-0.2,0.3c-0.3-0.3-0.6-0.5-1-0.5c-0.9,0-1.7,0.7-1.7,2.8
		c0.4-0.5,0.9-0.8,1.4-0.8c1,0,1.6,0.6,1.6,1.8c0,1-0.7,1.8-1.6,1.8C295.4,104.6,294.7,103.6,294.7,101.8z M295.1,102.2
		c0.1,1.2,0.5,2,1.5,2c0.7,0,1.2-0.6,1.2-1.5s-0.4-1.4-1.2-1.4C296.1,101.3,295.6,101.5,295.1,102.2z"/>
	<path d="M298.9,104.2c1.9-1.9,2.8-3,2.8-4c0-0.7-0.4-1.3-1.3-1.3c-0.5,0-1,0.3-1.3,0.8l-0.3-0.3c0.4-0.5,0.9-0.8,1.6-0.8
		c1,0,1.6,0.6,1.6,1.6c0,1.1-1,2.2-2.6,3.9c0.3,0,0.6,0,1,0h2v0.4h-3.5V104.2z"/>
</g>
<g>
	<path d="M375,102.7h-2.6v-0.2l2.7-3.8h0.4v3.7h0.9v0.3h-0.9v1.7H375V102.7z M375,102.4v-2.1c0-0.3,0-0.7,0-1h0
		c-0.1,0.2-0.3,0.5-0.5,0.7l-1.7,2.4H375z"/>
	<path d="M377,105.6c0.4-0.2,0.7-0.6,0.7-1.1c0,0-0.1,0-0.1,0c-0.2,0-0.4-0.1-0.4-0.4s0.2-0.4,0.4-0.4c0.3,0,0.5,0.2,0.5,0.6
		c0,0.7-0.4,1.2-0.9,1.5L377,105.6z"/>
	<path d="M381.9,99h-3v-0.4h3.5v0.2c-1.4,1.8-1.7,3.3-1.8,5.5h-0.4C380.3,102.1,380.8,100.7,381.9,99z"/>
	<path d="M386.3,99h-3v-0.4h3.5v0.2c-1.4,1.8-1.7,3.3-1.8,5.5h-0.4C384.6,102.1,385.1,100.7,386.3,99z"/>
	<path d="M387.6,105.6c0.4-0.2,0.7-0.6,0.7-1.1c0,0-0.1,0-0.1,0c-0.2,0-0.4-0.1-0.4-0.4s0.2-0.4,0.4-0.4c0.3,0,0.5,0.2,0.5,0.6
		c0,0.7-0.4,1.2-0.9,1.5L387.6,105.6z"/>
	<path d="M389.5,104.2c1.9-1.9,2.8-3,2.8-4c0-0.7-0.4-1.3-1.3-1.3c-0.5,0-1,0.3-1.3,0.8l-0.3-0.3c0.4-0.5,0.9-0.8,1.6-0.8
		c1,0,1.6,0.6,1.6,1.6c0,1.1-1,2.2-2.6,3.9c0.3,0,0.6,0,1,0h2v0.4h-3.5V104.2z"/>
	<path d="M394.2,104.1h1.3v-4.8h-1V99c0.5-0.1,0.8-0.2,1.1-0.4h0.3v5.4h1.3v0.4h-3V104.1z"/>
	<path d="M401.2,99h-3v-0.4h3.5v0.2c-1.4,1.8-1.7,3.3-1.8,5.5h-0.4C399.5,102.1,400,100.7,401.2,99z"/>
</g>
<g>
	<path d="M463.2,103.4h1.2v-3.3h-1.1v-0.8c0.6-0.1,1-0.3,1.4-0.5h1v4.6h1.1v1.1h-3.6V103.4z"/>
	<path d="M467.7,103.7c1.5-1.4,2.5-2.4,2.5-3.2c0-0.6-0.3-0.9-0.8-0.9c-0.4,0-0.7,0.3-1,0.6l-0.7-0.7c0.6-0.6,1.1-0.9,1.9-0.9
		c1.1,0,1.9,0.7,1.9,1.8c0,1-0.9,2-1.8,3c0.3,0,0.7-0.1,1-0.1h1.2v1.1h-4V103.7z"/>
	<path d="M472.5,105.5c0.7-0.2,1-0.6,1-1.1c0,0,0,0-0.1,0c-0.4,0-0.8-0.3-0.8-0.7c0-0.5,0.4-0.8,0.8-0.8c0.6,0,0.9,0.5,0.9,1.3
		c0,1-0.6,1.7-1.6,2.1L472.5,105.5z"/>
	<path d="M475.2,103c0-0.7,0.4-1.1,1-1.4v0c-0.4-0.3-0.8-0.7-0.8-1.4c0-1,0.8-1.6,1.8-1.6c1,0,1.7,0.6,1.7,1.6c0,0.5-0.4,1-0.7,1.3
		v0c0.5,0.3,1,0.7,1,1.5c0,0.9-0.8,1.6-2,1.6C476,104.6,475.2,103.9,475.2,103z M478,102.9c0-0.5-0.5-0.7-1.2-1
		c-0.3,0.2-0.4,0.6-0.4,0.9c0,0.5,0.4,0.8,0.9,0.8C477.6,103.6,478,103.4,478,102.9z M477.9,100.3c0-0.4-0.3-0.7-0.7-0.7
		c-0.4,0-0.6,0.2-0.6,0.7c0,0.5,0.4,0.7,1,0.9C477.7,100.9,477.9,100.6,477.9,100.3z"/>
	<path d="M479.7,103.7l0.6-0.8c0.3,0.3,0.8,0.6,1.3,0.6c0.6,0,0.9-0.2,0.9-0.7c0-0.5-0.3-0.8-1.5-0.8V101c1,0,1.4-0.3,1.4-0.8
		c0-0.4-0.3-0.6-0.7-0.6c-0.4,0-0.7,0.2-1.1,0.5l-0.7-0.8c0.5-0.5,1.1-0.7,1.8-0.7c1.2,0,2,0.6,2,1.6c0,0.6-0.3,1-1,1.3v0
		c0.7,0.2,1.1,0.7,1.1,1.4c0,1.1-1,1.7-2.1,1.7C480.8,104.6,480.2,104.2,479.7,103.7z"/>
	<path d="M484.7,105.5c0.7-0.2,1-0.6,1-1.1c0,0,0,0-0.1,0c-0.4,0-0.8-0.3-0.8-0.7c0-0.5,0.4-0.8,0.8-0.8c0.6,0,0.9,0.5,0.9,1.3
		c0,1-0.6,1.7-1.6,2.1L484.7,105.5z"/>
	<path d="M487.3,103.7c1.5-1.4,2.5-2.4,2.5-3.2c0-0.6-0.3-0.9-0.8-0.9c-0.4,0-0.7,0.3-1,0.6l-0.7-0.7c0.6-0.6,1.1-0.9,1.9-0.9
		c1.1,0,1.9,0.7,1.9,1.8c0,1-0.9,2-1.8,3c0.3,0,0.7-0.1,1-0.1h1.2v1.1h-4V103.7z"/>
	<path d="M491.9,103.7l0.6-0.8c0.3,0.3,0.8,0.6,1.3,0.6c0.6,0,0.9-0.2,0.9-0.7c0-0.5-0.3-0.8-1.5-0.8V101c1,0,1.3-0.3,1.3-0.8
		c0-0.4-0.3-0.6-0.7-0.6c-0.4,0-0.7,0.2-1.1,0.5l-0.7-0.8c0.5-0.5,1.1-0.7,1.8-0.7c1.2,0,2,0.6,2,1.6c0,0.6-0.3,1-1,1.3v0
		c0.7,0.2,1.1,0.7,1.1,1.4c0,1.1-1,1.7-2.1,1.7C493,104.6,492.4,104.2,491.9,103.7z"/>
	<path d="M496.9,103.9l0.7-0.8c0.2,0.2,0.6,0.4,0.9,0.4c0.6,0,1.1-0.5,1.2-1.8c-0.3,0.4-0.8,0.6-1.1,0.6c-1,0-1.7-0.6-1.7-1.8
		c0-1.2,0.9-1.9,1.9-1.9c1.1,0,2.2,0.8,2.2,2.8c0,2.1-1.1,3.1-2.3,3.1C497.8,104.6,497.2,104.2,496.9,103.9z M498.8,101.4
		c0.3,0,0.6-0.2,0.9-0.6c-0.1-0.9-0.5-1.2-0.9-1.2c-0.4,0-0.7,0.3-0.7,0.9C498,101.1,498.3,101.4,498.8,101.4z"/>
</g>
<g>
	<path d="M8.9,110.9h3.2v0.4H9.3v2.4h2.4v0.4H9.3v2.9H8.9V110.9z"/>
	<path d="M14.1,114.5l-1.8-3.5h0.4l0.9,1.9c0.2,0.4,0.4,0.8,0.6,1.3h0c0.2-0.4,0.5-0.9,0.6-1.3l0.9-1.9h0.4l-1.8,3.5v2.4h-0.4V114.5
		z"/>
	<path d="M18.5,116.6c1.9-1.9,2.8-3,2.8-4c0-0.7-0.4-1.3-1.3-1.3c-0.5,0-1,0.3-1.3,0.8l-0.3-0.3c0.4-0.5,0.9-0.8,1.6-0.8
		c1,0,1.6,0.6,1.6,1.6c0,1.1-1,2.2-2.6,3.9c0.3,0,0.6,0,1,0h2v0.4h-3.5V116.6z"/>
	<path d="M22.9,114c0-1.9,0.6-3,1.7-3s1.7,1.1,1.7,3c0,1.9-0.6,3-1.7,3S22.9,115.9,22.9,114z M25.9,114c0-1.8-0.5-2.6-1.3-2.6
		c-0.8,0-1.3,0.9-1.3,2.6c0,1.8,0.5,2.7,1.3,2.7C25.4,116.6,25.9,115.7,25.9,114z"/>
	<path d="M27.5,116.5h1.4v-4.8h-1v-0.3c0.5-0.1,0.8-0.2,1.1-0.4h0.3v5.4h1.3v0.4h-3V116.5z"/>
	<path d="M31.4,115.4c0-0.8,0.6-1.3,1.2-1.6v0c-0.4-0.3-0.8-0.7-0.8-1.3c0-0.8,0.7-1.4,1.5-1.4c1,0,1.6,0.6,1.6,1.5
		c0,0.6-0.5,1.2-0.8,1.5v0c0.5,0.3,1,0.7,1,1.5c0,0.8-0.7,1.5-1.7,1.5C32.2,117,31.4,116.3,31.4,115.4z M34.6,115.5
		c0-0.9-0.9-1.2-1.8-1.5c-0.6,0.3-1,0.8-1,1.5c0,0.7,0.6,1.3,1.4,1.3C34.1,116.6,34.6,116.1,34.6,115.5z M34.4,112.5
		c0-0.6-0.4-1.2-1.2-1.2c-0.6,0-1.1,0.5-1.1,1.1c0,0.8,0.8,1.1,1.5,1.4C34.2,113.4,34.4,113,34.4,112.5z"/>
	<path d="M38,114.4c0-1.6,0.4-2.9,1.2-4.1l0.2,0.1c-0.7,1.1-1.1,2.5-1.1,3.9c0,1.4,0.4,2.8,1.1,3.9l-0.2,0.1
		C38.4,117.2,38,115.9,38,114.4z"/>
	<path d="M40.6,110.9h0.6l1.2,3.5c0.2,0.4,0.3,0.9,0.5,1.3h0c0.2-0.4,0.3-0.9,0.4-1.3l1.2-3.5h0.6v5.9h-0.4V113c0-0.5,0-1.1,0.1-1.6
		h0l-0.5,1.3l-1.3,3.5h-0.4l-1.3-3.5l-0.5-1.3h0c0,0.5,0.1,1.1,0.1,1.6v3.9h-0.4V110.9z"/>
	<path d="M48.2,111.3h-1.9v-0.4h4.2v0.4h-1.9v5.6h-0.4V111.3z"/>
	<path d="M51.1,118.3c0.7-1.1,1.1-2.5,1.1-3.9c0-1.4-0.4-2.8-1.1-3.9l0.2-0.1c0.7,1.2,1.2,2.5,1.2,4.1c0,1.6-0.4,2.9-1.2,4.1
		L51.1,118.3z"/>
</g>
<g>
	<path d="M174.3,114.3c0-2.4,1-3.3,2.1-3.3c0.5,0,0.9,0.2,1.2,0.6l-0.2,0.3c-0.3-0.3-0.6-0.5-1-0.5c-0.9,0-1.7,0.7-1.7,2.8
		c0.4-0.5,0.9-0.8,1.4-0.8c1,0,1.6,0.6,1.6,1.8c0,1-0.7,1.8-1.6,1.8C175,117,174.3,116,174.3,114.3z M174.7,114.6
		c0.1,1.2,0.5,2,1.5,2c0.7,0,1.2-0.6,1.2-1.5s-0.4-1.4-1.2-1.4C175.7,113.7,175.2,114,174.7,114.6z"/>
	<path d="M178.5,118c0.4-0.2,0.7-0.6,0.7-1.1c0,0-0.1,0-0.1,0c-0.2,0-0.4-0.1-0.4-0.4s0.2-0.4,0.4-0.4c0.3,0,0.5,0.2,0.5,0.6
		c0,0.7-0.4,1.2-0.9,1.5L178.5,118z"/>
	<path d="M180.8,116.5h1.4v-4.8h-1v-0.3c0.5-0.1,0.8-0.2,1.1-0.4h0.3v5.4h1.3v0.4h-3V116.5z"/>
	<path d="M184.6,116.2l0.2-0.3c0.3,0.4,0.8,0.7,1.6,0.7c0.8,0,1.4-0.6,1.4-1.5c0-0.9-0.5-1.5-1.4-1.5c-0.4,0-0.7,0.2-1.1,0.4
		l-0.3-0.2l0.2-2.7h2.7v0.4h-2.3l-0.2,2.1c0.3-0.2,0.6-0.3,1-0.3c1,0,1.8,0.6,1.8,1.8c0,1.2-0.9,1.9-1.8,1.9
		C185.5,117,185,116.6,184.6,116.2z"/>
	<path d="M189.1,118c0.4-0.2,0.7-0.6,0.7-1.1c0,0-0.1,0-0.1,0c-0.2,0-0.4-0.1-0.4-0.4s0.2-0.4,0.4-0.4c0.3,0,0.5,0.2,0.5,0.6
		c0,0.7-0.4,1.2-0.9,1.5L189.1,118z"/>
	<path d="M193.5,115.1h-2.6v-0.2l2.7-3.8h0.4v3.7h0.9v0.3h-0.9v1.7h-0.4V115.1z M193.5,114.8v-2.1c0-0.3,0-0.7,0-1h0
		c-0.1,0.2-0.3,0.5-0.5,0.7l-1.7,2.4H193.5z"/>
	<path d="M195.4,114c0-1.9,0.6-3,1.7-3c1.1,0,1.7,1.1,1.7,3c0,1.9-0.6,3-1.7,3C196,117,195.4,115.9,195.4,114z M198.5,114
		c0-1.8-0.5-2.6-1.3-2.6c-0.8,0-1.3,0.9-1.3,2.6c0,1.8,0.5,2.7,1.3,2.7C197.9,116.6,198.5,115.7,198.5,114z"/>
	<path d="M199.8,116.4l0.2-0.3c0.3,0.3,0.6,0.5,1,0.5c0.9,0,1.7-0.7,1.7-2.8c-0.4,0.5-0.9,0.8-1.5,0.8c-1,0-1.6-0.6-1.6-1.8
		c0-1,0.7-1.8,1.6-1.8c1.1,0,1.9,1,1.9,2.7c0,2.4-1,3.3-2.1,3.3C200.5,117,200.1,116.7,199.8,116.4z M201.3,114.2
		c0.4,0,1-0.3,1.4-0.9c-0.1-1.2-0.5-2-1.5-2c-0.7,0-1.2,0.6-1.2,1.4C200.1,113.6,200.5,114.2,201.3,114.2z"/>
</g>
<g>
	<path d="M273.4,116.6c1.9-1.9,2.8-3,2.8-4c0-0.7-0.4-1.3-1.3-1.3c-0.5,0-1,0.3-1.3,0.8l-0.3-0.3c0.4-0.5,0.9-0.8,1.6-0.8
		c1,0,1.6,0.6,1.6,1.6c0,1.1-1,2.2-2.6,3.9c0.3,0,0.6,0,1,0h2v0.4h-3.5V116.6z"/>
	<path d="M277.8,118c0.4-0.2,0.7-0.6,0.7-1.1c0,0-0.1,0-0.1,0c-0.2,0-0.4-0.1-0.4-0.4s0.2-0.4,0.4-0.4c0.3,0,0.5,0.2,0.5,0.6
		c0,0.7-0.4,1.2-0.9,1.5L277.8,118z"/>
	<path d="M282.7,111.5h-3v-0.4h3.5v0.2c-1.4,1.8-1.7,3.3-1.8,5.5H281C281.1,114.5,281.6,113.1,282.7,111.5z"/>
	<path d="M283.8,116.2l0.2-0.3c0.3,0.4,0.8,0.7,1.6,0.7c0.8,0,1.4-0.6,1.4-1.5c0-0.9-0.5-1.5-1.4-1.5c-0.4,0-0.7,0.2-1.1,0.4
		l-0.3-0.2l0.2-2.7h2.7v0.4h-2.3l-0.2,2.1c0.3-0.2,0.6-0.3,1-0.3c1,0,1.8,0.6,1.8,1.8c0,1.2-0.9,1.9-1.8,1.9
		C284.7,117,284.2,116.6,283.8,116.2z"/>
	<path d="M288.4,118c0.4-0.2,0.7-0.6,0.7-1.1c0,0-0.1,0-0.1,0c-0.2,0-0.4-0.1-0.4-0.4s0.2-0.4,0.4-0.4c0.3,0,0.5,0.2,0.5,0.6
		c0,0.7-0.4,1.2-0.9,1.5L288.4,118z"/>
	<path d="M293.3,111.5h-3v-0.4h3.5v0.2c-1.4,1.8-1.7,3.3-1.8,5.5h-0.4C291.7,114.5,292.2,113.1,293.3,111.5z"/>
	<path d="M297,115.1h-2.6v-0.2l2.7-3.8h0.4v3.7h0.9v0.3h-0.9v1.7H297V115.1z M297,114.8v-2.1c0-0.3,0-0.7,0-1h0
		c-0.1,0.2-0.3,0.5-0.5,0.7l-1.7,2.4H297z"/>
	<path d="M299.3,116.5h1.3v-4.8h-1v-0.3c0.5-0.1,0.8-0.2,1.1-0.4h0.3v5.4h1.3v0.4h-3V116.5z"/>
</g>
<g>
	<path d="M372.5,116.2l0.2-0.3c0.3,0.4,0.8,0.7,1.6,0.7c0.8,0,1.4-0.6,1.4-1.5c0-0.9-0.5-1.5-1.4-1.5c-0.4,0-0.7,0.2-1.1,0.4
		l-0.3-0.2l0.2-2.7h2.7v0.4h-2.3l-0.2,2.1c0.3-0.2,0.6-0.3,1-0.3c1,0,1.8,0.6,1.8,1.8c0,1.2-0.9,1.9-1.8,1.9
		C373.4,117,372.8,116.6,372.5,116.2z"/>
	<path d="M377,118c0.4-0.2,0.7-0.6,0.7-1.1c0,0-0.1,0-0.1,0c-0.2,0-0.4-0.1-0.4-0.4s0.2-0.4,0.4-0.4c0.3,0,0.5,0.2,0.5,0.6
		c0,0.7-0.4,1.2-0.9,1.5L377,118z"/>
	<path d="M379.3,116.5h1.4v-4.8h-1v-0.3c0.5-0.1,0.8-0.2,1.1-0.4h0.3v5.4h1.3v0.4h-3V116.5z"/>
	<path d="M383.2,116.6c1.9-1.9,2.8-3,2.8-4c0-0.7-0.4-1.3-1.3-1.3c-0.5,0-1,0.3-1.3,0.8l-0.3-0.3c0.4-0.5,0.9-0.8,1.6-0.8
		c1,0,1.6,0.6,1.6,1.6c0,1.1-1,2.2-2.6,3.9c0.3,0,0.6,0,1,0h2v0.4h-3.5V116.6z"/>
	<path d="M387.6,118c0.4-0.2,0.7-0.6,0.7-1.1c0,0-0.1,0-0.1,0c-0.2,0-0.4-0.1-0.4-0.4s0.2-0.4,0.4-0.4c0.3,0,0.5,0.2,0.5,0.6
		c0,0.7-0.4,1.2-0.9,1.5L387.6,118z"/>
	<path d="M389.6,116.4l0.2-0.3c0.3,0.3,0.6,0.5,1,0.5c0.9,0,1.7-0.7,1.7-2.8c-0.4,0.5-0.9,0.8-1.5,0.8c-1,0-1.6-0.6-1.6-1.8
		c0-1,0.7-1.8,1.6-1.8c1.1,0,1.9,1,1.9,2.7c0,2.4-1,3.3-2.1,3.3C390.3,117,389.9,116.7,389.6,116.4z M391.1,114.2
		c0.4,0,1-0.3,1.4-0.9c-0.1-1.2-0.5-2-1.5-2c-0.7,0-1.2,0.6-1.2,1.4C389.9,113.6,390.3,114.2,391.1,114.2z"/>
	<path d="M396.2,115.1h-2.6v-0.2l2.7-3.8h0.4v3.7h0.9v0.3h-0.9v1.7h-0.4V115.1z M396.2,114.8v-2.1c0-0.3,0-0.7,0-1h0
		c-0.1,0.2-0.3,0.5-0.5,0.7l-1.7,2.4H396.2z"/>
	<path d="M398,116.2l0.2-0.3c0.3,0.4,0.8,0.7,1.6,0.7c0.8,0,1.4-0.6,1.4-1.5c0-0.9-0.5-1.5-1.4-1.5c-0.4,0-0.7,0.2-1.1,0.4l-0.3-0.2
		l0.2-2.7h2.7v0.4H399l-0.2,2.1c0.3-0.2,0.6-0.3,1-0.3c1,0,1.8,0.6,1.8,1.8c0,1.2-0.9,1.9-1.8,1.9C398.9,117,398.3,116.6,398,116.2z
		"/>
</g>
<g>
	<path d="M467.9,116.5h1.4v-4.8h-1v-0.3c0.5-0.1,0.8-0.2,1.1-0.4h0.3v5.4h1.3v0.4h-3V116.5z"/>
	<path d="M474.2,115.1h-2.6v-0.2l2.7-3.8h0.4v3.7h0.9v0.3h-0.9v1.7h-0.4V115.1z M474.2,114.8v-2.1c0-0.3,0-0.7,0-1h0
		c-0.1,0.2-0.3,0.5-0.5,0.7l-1.7,2.4H474.2z"/>
	<path d="M476.2,118c0.4-0.2,0.7-0.6,0.7-1.1c0,0-0.1,0-0.1,0c-0.2,0-0.4-0.1-0.4-0.4s0.2-0.4,0.4-0.4c0.3,0,0.5,0.2,0.5,0.6
		c0,0.7-0.4,1.2-0.9,1.5L476.2,118z"/>
	<path d="M478.2,114c0-1.9,0.6-3,1.7-3c1.1,0,1.7,1.1,1.7,3c0,1.9-0.6,3-1.7,3C478.8,117,478.2,115.9,478.2,114z M481.2,114
		c0-1.8-0.5-2.6-1.3-2.6c-0.8,0-1.3,0.9-1.3,2.6c0,1.8,0.5,2.7,1.3,2.7C480.7,116.6,481.2,115.7,481.2,114z"/>
	<path d="M484.8,115.1h-2.6v-0.2l2.7-3.8h0.4v3.7h0.9v0.3h-0.9v1.7h-0.4V115.1z M484.8,114.8v-2.1c0-0.3,0-0.7,0-1h0
		c-0.1,0.2-0.3,0.5-0.5,0.7l-1.7,2.4H484.8z"/>
	<path d="M486.8,118c0.4-0.2,0.7-0.6,0.7-1.1c0,0-0.1,0-0.1,0c-0.2,0-0.4-0.1-0.4-0.4s0.2-0.4,0.4-0.4c0.3,0,0.5,0.2,0.5,0.6
		c0,0.7-0.4,1.2-0.9,1.5L486.8,118z"/>
	<path d="M488.8,114c0-1.9,0.6-3,1.7-3s1.7,1.1,1.7,3c0,1.9-0.6,3-1.7,3S488.8,115.9,488.8,114z M491.8,114c0-1.8-0.5-2.6-1.3-2.6
		c-0.8,0-1.3,0.9-1.3,2.6c0,1.8,0.5,2.7,1.3,2.7C491.3,116.6,491.8,115.7,491.8,114z"/>
	<path d="M493.1,116.4l0.2-0.3c0.3,0.3,0.6,0.5,1,0.5c0.9,0,1.7-0.7,1.7-2.8c-0.4,0.5-0.9,0.8-1.5,0.8c-1,0-1.6-0.6-1.6-1.8
		c0-1,0.7-1.8,1.6-1.8c1.1,0,1.9,1,1.9,2.7c0,2.4-1,3.3-2.1,3.3C493.8,117,493.4,116.7,493.1,116.4z M494.7,114.2
		c0.4,0,1-0.3,1.4-0.9c-0.1-1.2-0.5-2-1.5-2c-0.7,0-1.2,0.6-1.2,1.4C493.4,113.6,493.8,114.2,494.7,114.2z"/>
	<path d="M497.2,116.2l0.2-0.3c0.3,0.4,0.8,0.7,1.6,0.7c0.8,0,1.4-0.6,1.4-1.5c0-0.9-0.5-1.5-1.4-1.5c-0.4,0-0.7,0.2-1.1,0.4
		l-0.3-0.2l0.2-2.7h2.7v0.4h-2.3l-0.2,2.1c0.3-0.2,0.6-0.3,1-0.3c1,0,1.8,0.6,1.8,1.8c0,1.2-0.9,1.9-1.8,1.9
		C498.1,117,497.5,116.6,497.2,116.2z"/>
</g>
</svg>
