<?xml version="1.0" encoding="utf-8"?>
<!-- Generator: Adobe Illustrator 23.0.3, SVG Export Plug-In . SVG Version: 6.00 Build 0)  -->
<svg version="1.1" id="Layer_1" xmlns="http://www.w3.org/2000/svg" xmlns:xlink="http://www.w3.org/1999/xlink" x="0px" y="0px"
	 viewBox="0 0 498.1 164.3" style="enable-background:new 0 0 498.1 164.3;" xml:space="preserve">
<style type="text/css">
	.st0{fill:#FFFFFF;stroke:#000000;stroke-width:0.1;stroke-miterlimit:10;}
	.st1{fill:#00AE4D;}
	.st2{fill:#A3D4A0;}
	.st3{fill:none;stroke:#939598;stroke-width:0.5;stroke-miterlimit:10;}
	.st4{fill:none;stroke:#939598;stroke-width:0.499;stroke-miterlimit:10;}
	.st5{fill:#FFFFFF;}
</style>
<g>
	<rect x="-303.6" y="-15.1" class="st0" width="7" height="6.9"/>
	<rect x="-308.8" y="-12" class="st0" width="7.3" height="6.9"/>
</g>
<g>
	<g>
		<path class="st1" d="M1.8,1.4h1.6l1,2.9c0.1,0.4,0.3,0.8,0.4,1.2l0,0C4.9,5.1,5,4.7,5.2,4.3l1-2.9h1.6v6.5H6.5V5.5
			c0-0.6,0.1-1.6,0.2-2.2l0,0L6.2,4.8L5.3,7.3H4.4L3.5,4.8L3,3.3l0,0c0.1,0.6,0.2,1.6,0.2,2.2v2.4H1.9V1.4H1.8z"/>
		<path class="st1" d="M9.4,1.4h1.5v6.5H9.4V1.4z"/>
		<path class="st1" d="M12.4,1.4h1.5l1.7,3.2L16.2,6l0,0C16.1,5.3,16,4.4,16,3.6V1.4h1.4v6.5h-1.5l-1.7-3.2l-0.6-1.4l0,0
			c0.1,0.7,0.2,1.6,0.2,2.4V8h-1.4V1.4z"/>
		<path class="st1" d="M19.1,1.4h4.1v1.2h-2.6v1.3h2.2v1.2h-2.2v1.5h2.7v1.2h-4.2C19.1,7.8,19.1,1.4,19.1,1.4z"/>
		<path class="st1" d="M24.5,1.4h1.9c2,0,3.3,1,3.3,3.2s-1.3,3.3-3.2,3.3h-1.9L24.5,1.4L24.5,1.4z M26.3,6.7c1.1,0,1.8-0.5,1.8-2.1
			s-0.7-2-1.8-2H26v4.1H26.3z"/>
		<path class="st1" d="M32.9,1.4h1.6l1,2.9c0.1,0.4,0.3,0.8,0.4,1.2l0,0c0.1-0.4,0.2-0.8,0.4-1.2l1-2.9h1.6v6.5h-1.3V5.5
			c0-0.6,0.1-1.6,0.2-2.2l0,0l-0.5,1.5l-0.9,2.5h-0.8l-0.9-2.5l-0.5-1.5l0,0c0.1,0.6,0.2,1.6,0.2,2.2v2.4h-1.3V1.4H32.9z"/>
		<path class="st1" d="M40.5,1.4h4.1v1.2H42v1.3h2.2v1.2H42v1.5h2.7v1.2h-4.2V1.4z"/>
		<path class="st1" d="M47.3,2.6h-1.8V1.4h5.1v1.2h-1.8v5.3h-1.5V2.6z"/>
		<path class="st1" d="M52.8,1.4h1.8l2,6.5H55l-0.4-1.5h-2l-0.4,1.5h-1.5L52.8,1.4z M52.9,5.2h1.4l-0.2-0.6
			c-0.2-0.7-0.4-1.4-0.5-2.1l0,0c-0.2,0.7-0.3,1.4-0.5,2.1L52.9,5.2z"/>
		<path class="st1" d="M57.3,1.4h1.5v5.3h2.6v1.2h-4L57.3,1.4L57.3,1.4z"/>
		<path class="st1" d="M64.4,5.1c0-1.8,0.5-3.2,1.3-4.6l0.9,0.4c-0.7,1.3-1,2.8-1,4.2s0.3,2.9,1,4.2l-0.9,0.4
			C64.9,8.3,64.4,6.9,64.4,5.1z"/>
		<path class="st1" d="M67.9,1.4h1.6l1,2.9c0.1,0.4,0.3,0.8,0.4,1.2l0,0c0.1-0.4,0.2-0.8,0.4-1.2l1-2.9h1.6v6.5h-1.3V5.5
			c0-0.6,0.1-1.6,0.2-2.2l0,0l-0.5,1.5l-0.9,2.5h-0.8l-0.9-2.5l-0.5-1.5l0,0c0.1,0.6,0.2,1.6,0.2,2.2v2.4h-1.3V1.4H67.9z"/>
		<path class="st1" d="M76.8,2.6H75V1.4h5.1v1.2h-1.8v5.3h-1.5C76.8,7.9,76.8,2.6,76.8,2.6z"/>
		<path class="st1" d="M80.8,9.3c0.7-1.3,1.1-2.8,1.1-4.2s-0.3-2.9-1.1-4.2l0.9-0.4C82.5,1.9,83,3.3,83,5.1s-0.5,3.2-1.3,4.6
			L80.8,9.3z"/>
	</g>
	<rect x="417.7" y="17.7" class="st1" width="79.4" height="12.4"/>
	<path class="st2" d="M417.7,54.9h79.4v12.4h-79.4V54.9z M417.7,42.5h79.4v12.4h-79.4V42.5z M417.7,30.1h79.4v12.4h-79.4V30.1z"/>
	<line class="st3" x1="417.7" y1="30.1" x2="497.1" y2="30.1"/>
	<line class="st3" x1="1" y1="42.5" x2="100" y2="42.5"/>
	<line class="st3" x1="100.5" y1="42.5" x2="179.3" y2="42.5"/>
	<line class="st3" x1="179.8" y1="42.5" x2="258.7" y2="42.5"/>
	<line class="st3" x1="259.2" y1="42.5" x2="338.1" y2="42.5"/>
	<line class="st3" x1="338.6" y1="42.5" x2="417.4" y2="42.5"/>
	<line class="st3" x1="417.9" y1="42.5" x2="497.1" y2="42.5"/>
	<line class="st3" x1="338.3" y1="67.3" x2="417.7" y2="67.3"/>
	<line class="st3" x1="417.7" y1="67.3" x2="497.1" y2="67.3"/>
	<line class="st3" x1="100.5" y1="54.9" x2="179.3" y2="54.9"/>
	<line class="st3" x1="179.8" y1="54.9" x2="258.7" y2="54.9"/>
	<line class="st3" x1="259.2" y1="54.9" x2="338.1" y2="54.9"/>
	<line class="st3" x1="338.6" y1="54.9" x2="417.4" y2="54.9"/>
	<line class="st3" x1="417.9" y1="54.9" x2="497.1" y2="54.9"/>
	<line class="st3" x1="1" y1="67.3" x2="100.2" y2="67.3"/>
	<line class="st4" x1="417.7" y1="42.5" x2="417.7" y2="30.3"/>
	<line class="st4" x1="417.7" y1="54.9" x2="417.7" y2="42.5"/>
	<line class="st4" x1="417.7" y1="67.1" x2="417.7" y2="54.9"/>
	<line class="st3" x1="417.7" y1="17.7" x2="497.1" y2="17.7"/>
	<line class="st3" x1="1" y1="17.7" x2="100.2" y2="17.7"/>
	<line class="st3" x1="100.2" y1="17.7" x2="179.6" y2="17.7"/>
	<line class="st4" x1="100.2" y1="29.8" x2="100.2" y2="17.9"/>
	<line class="st3" x1="179.6" y1="17.7" x2="259" y2="17.7"/>
	<line class="st3" x1="259" y1="17.7" x2="338.3" y2="17.7"/>
	<line class="st4" x1="179.6" y1="29.8" x2="179.6" y2="17.9"/>
	<line class="st4" x1="259" y1="29.8" x2="259" y2="17.9"/>
	<line class="st4" x1="338.3" y1="29.8" x2="338.3" y2="17.9"/>
	<line class="st4" x1="417.7" y1="29.8" x2="417.7" y2="17.9"/>
	<line class="st3" x1="338.3" y1="17.7" x2="417.7" y2="17.7"/>
	<line class="st3" x1="338.3" y1="30.1" x2="417.7" y2="30.1"/>
	<line class="st3" x1="1" y1="54.9" x2="100" y2="54.9"/>
	<line class="st3" x1="100.2" y1="30.1" x2="179.6" y2="30.1"/>
	<line class="st3" x1="100.2" y1="67.3" x2="179.6" y2="67.3"/>
	<line class="st3" x1="179.6" y1="30.1" x2="259" y2="30.1"/>
	<line class="st3" x1="259" y1="30.1" x2="338.3" y2="30.1"/>
	<line class="st3" x1="179.6" y1="67.3" x2="259" y2="67.3"/>
	<line class="st3" x1="259" y1="67.3" x2="338.3" y2="67.3"/>
	<line class="st4" x1="179.6" y1="42.5" x2="179.6" y2="30.3"/>
	<line class="st4" x1="259" y1="42.5" x2="259" y2="30.3"/>
	<line class="st4" x1="338.3" y1="42.5" x2="338.3" y2="30.3"/>
	<line class="st4" x1="179.6" y1="54.9" x2="179.6" y2="42.5"/>
	<line class="st4" x1="259" y1="54.9" x2="259" y2="42.5"/>
	<line class="st4" x1="338.3" y1="54.9" x2="338.3" y2="42.5"/>
	<line class="st4" x1="179.6" y1="67.1" x2="179.6" y2="54.9"/>
	<line class="st4" x1="259" y1="67.1" x2="259" y2="54.9"/>
	<line class="st4" x1="338.3" y1="67.1" x2="338.3" y2="54.9"/>
	<line class="st3" x1="1" y1="30.1" x2="100.2" y2="30.1"/>
	<line class="st4" x1="100.2" y1="42.5" x2="100.2" y2="30.3"/>
	<line class="st4" x1="100.2" y1="54.9" x2="100.2" y2="42.5"/>
	<line class="st4" x1="100.2" y1="67.1" x2="100.2" y2="54.9"/>
	<g>
		<path d="M148.6,21.4h3.7v1.1h-2.4v1.4h2V25h-2v2.3h-1.3V21.4z"/>
		<path d="M154.3,25.2l-1.8-3.8h1.4l0.5,1.4c0.2,0.4,0.3,0.8,0.5,1.3l0,0c0.2-0.5,0.3-0.9,0.5-1.3l0.5-1.4h1.4l-1.8,3.8v2.1h-1.3
			v-2.1H154.3z"/>
		<path d="M159.5,26.5c1.5-1.4,2.5-2.4,2.5-3.2c0-0.6-0.3-0.9-0.8-0.9c-0.4,0-0.7,0.3-1,0.6l-0.7-0.7c0.6-0.6,1.1-0.9,1.9-0.9
			c1.1,0,1.9,0.7,1.9,1.8c0,1-0.9,2-1.8,3c0.3,0,0.7-0.1,1-0.1h1.2v1.1h-4v-0.7H159.5z"/>
		<path d="M164.2,24.4c0-1.9,0.8-2.9,2-2.9s2,1,2,2.9s-0.8,3-2,3S164.2,26.3,164.2,24.4z M167.1,24.4c0-1.6-0.3-1.9-0.8-1.9
			c-0.4,0-0.8,0.4-0.8,1.9c0,1.6,0.4,2,0.8,2C166.7,26.3,167.1,25.9,167.1,24.4z"/>
		<path d="M169.3,26.2h1.2v-3.3h-1.1v-0.8c0.6-0.1,1-0.3,1.4-0.5h1v4.6h1.1v1.1h-3.6L169.3,26.2L169.3,26.2z"/>
		<path d="M173.6,26.6l0.6-0.8c0.3,0.3,0.7,0.6,1.2,0.6c0.6,0,1-0.3,1-0.9c0-0.6-0.4-0.9-0.9-0.9c-0.3,0-0.5,0.1-0.8,0.3l-0.6-0.4
			l0.2-2.9h3.2v1.1h-2.1l-0.1,1.1c0.2-0.1,0.4-0.1,0.6-0.1c1,0,1.8,0.6,1.8,1.8c0,1.3-1,2-2.1,2C174.7,27.4,174.1,27,173.6,26.6z"/>
	</g>
	<g>
		<path d="M228,21.4h3.7v1.1h-2.4v1.4h2V25h-2v2.3H228V21.4z"/>
		<path d="M233.7,25.2l-1.8-3.8h1.4l0.5,1.4c0.2,0.4,0.3,0.8,0.5,1.3l0,0c0.2-0.5,0.3-0.9,0.5-1.3l0.6-1.4h1.4l-1.8,3.8v2.1h-1.3
			L233.7,25.2L233.7,25.2z"/>
		<path d="M238.9,26.5c1.5-1.4,2.5-2.4,2.5-3.2c0-0.6-0.3-0.9-0.8-0.9c-0.4,0-0.7,0.3-1,0.6l-0.7-0.7c0.6-0.6,1.1-0.9,1.9-0.9
			c1.1,0,1.9,0.7,1.9,1.8c0,1-0.9,2-1.8,3c0.3,0,0.7-0.1,1-0.1h1.2v1.1h-4v-0.7H238.9z"/>
		<path d="M243.6,24.4c0-1.9,0.8-2.9,2-2.9s2,1,2,2.9s-0.8,3-2,3S243.6,26.3,243.6,24.4z M246.5,24.4c0-1.6-0.3-1.9-0.8-1.9
			c-0.4,0-0.8,0.4-0.8,1.9c0,1.6,0.4,2,0.8,2C246.1,26.3,246.5,25.9,246.5,24.4z"/>
		<path d="M248.7,26.2h1.2v-3.3h-1.1v-0.8c0.6-0.1,1-0.3,1.4-0.5h1v4.6h1.1v1.1h-3.6V26.2z"/>
		<path d="M253.2,24.5c0-2.1,1.1-3.1,2.3-3.1c0.8,0,1.3,0.3,1.7,0.7l-0.7,0.8c-0.2-0.2-0.6-0.4-0.9-0.4c-0.6,0-1.1,0.4-1.2,1.8
			c0.3-0.4,0.8-0.6,1.1-0.6c1,0,1.7,0.6,1.7,1.8s-0.9,1.9-1.9,1.9C254.2,27.4,253.2,26.5,253.2,24.5z M254.4,25.2
			c0.1,0.9,0.5,1.2,0.9,1.2s0.7-0.3,0.7-0.9c0-0.6-0.3-0.8-0.7-0.8C255,24.6,254.6,24.8,254.4,25.2z"/>
	</g>
	<g>
		<path d="M307.4,21.4h3.7v1.1h-2.4v1.4h2V25h-2v2.3h-1.3V21.4z"/>
		<path d="M313.1,25.2l-1.8-3.8h1.4l0.5,1.4c0.2,0.4,0.3,0.8,0.5,1.3l0,0c0.2-0.5,0.3-0.9,0.5-1.3l0.5-1.4h1.4l-1.8,3.8v2.1H313
			L313.1,25.2L313.1,25.2z"/>
		<path d="M318.2,26.5c1.5-1.4,2.5-2.4,2.5-3.2c0-0.6-0.3-0.9-0.8-0.9c-0.4,0-0.7,0.3-1,0.6l-0.7-0.7c0.6-0.6,1.1-0.9,1.9-0.9
			c1.1,0,1.9,0.7,1.9,1.8c0,1-0.9,2-1.8,3c0.3,0,0.7-0.1,1-0.1h1.2v1.1h-4v-0.7H318.2z"/>
		<path d="M323,24.4c0-1.9,0.8-2.9,2-2.9s2,1,2,2.9s-0.8,3-2,3S323,26.3,323,24.4z M325.8,24.4c0-1.6-0.3-1.9-0.8-1.9
			c-0.4,0-0.8,0.4-0.8,1.9c0,1.6,0.4,2,0.8,2C325.5,26.3,325.8,25.9,325.8,24.4z"/>
		<path d="M328,26.2h1.2v-3.3h-1.1v-0.8c0.6-0.1,1-0.3,1.4-0.5h1v4.6h1.1v1.1H328V26.2z"/>
		<path d="M335.1,22.6h-2.6v-1.1h4v0.8c-1.3,1.6-1.5,2.7-1.6,4.9h-1.3C333.7,25.4,334,24.1,335.1,22.6z"/>
	</g>
	<g>
		<path d="M386.7,21.4h3.7v1.1H388v1.4h2V25h-2v2.3h-1.3L386.7,21.4L386.7,21.4z"/>
		<path d="M392.5,25.2l-1.8-3.8h1.4l0.5,1.4c0.2,0.4,0.3,0.8,0.5,1.3l0,0c0.2-0.5,0.3-0.9,0.5-1.3l0.5-1.4h1.4l-1.8,3.8v2.1h-1.3
			L392.5,25.2L392.5,25.2z"/>
		<path d="M397.6,26.5c1.5-1.4,2.5-2.4,2.5-3.2c0-0.6-0.3-0.9-0.8-0.9c-0.4,0-0.7,0.3-1,0.6l-0.7-0.7c0.6-0.6,1.1-0.9,1.9-0.9
			c1.1,0,1.9,0.7,1.9,1.8c0,1-0.9,2-1.8,3c0.3,0,0.7-0.1,1-0.1h1.2v1.1h-4v-0.7H397.6z"/>
		<path d="M402.4,24.4c0-1.9,0.8-2.9,2-2.9s2,1,2,2.9s-0.8,3-2,3S402.4,26.3,402.4,24.4z M405.2,24.4c0-1.6-0.3-1.9-0.8-1.9
			c-0.4,0-0.8,0.4-0.8,1.9c0,1.6,0.4,2,0.8,2C404.9,26.3,405.2,25.9,405.2,24.4z"/>
		<path d="M407.4,26.2h1.2v-3.3h-1.1v-0.8c0.6-0.1,1-0.3,1.4-0.5h1v4.6h1.1v1.1h-3.6V26.2z"/>
		<path d="M411.9,25.8c0-0.7,0.4-1.1,1-1.4l0,0c-0.4-0.3-0.8-0.7-0.8-1.4c0-1,0.8-1.6,1.8-1.6s1.7,0.6,1.7,1.6c0,0.5-0.4,1-0.7,1.3
			l0,0c0.5,0.3,1,0.7,1,1.5c0,0.9-0.8,1.6-2,1.6C412.8,27.4,411.9,26.7,411.9,25.8z M414.7,25.7c0-0.5-0.5-0.7-1.2-1
			c-0.3,0.2-0.4,0.6-0.4,0.9c0,0.5,0.4,0.8,0.9,0.8C414.4,26.4,414.7,26.2,414.7,25.7z M414.6,23.1c0-0.4-0.3-0.7-0.7-0.7
			c-0.4,0-0.6,0.2-0.6,0.7s0.4,0.7,1,0.9C414.5,23.7,414.6,23.4,414.6,23.1z"/>
	</g>
	<g>
		<path class="st5" d="M466.1,21.4h3.7v1.1h-2.4v1.4h2V25h-2v2.3h-1.3V21.4z"/>
		<path class="st5" d="M471.8,25.2l-1.8-3.8h1.4l0.5,1.4c0.2,0.4,0.3,0.8,0.5,1.3l0,0c0.2-0.5,0.3-0.9,0.5-1.3l0.5-1.4h1.4l-1.8,3.8
			v2.1h-1.3L471.8,25.2L471.8,25.2z"/>
		<path class="st5" d="M477,26.5c1.5-1.4,2.5-2.4,2.5-3.2c0-0.6-0.3-0.9-0.8-0.9c-0.4,0-0.7,0.3-1,0.6l-0.7-0.7
			c0.6-0.6,1.1-0.9,1.9-0.9c1.1,0,1.9,0.7,1.9,1.8c0,1-0.9,2-1.8,3c0.3,0,0.7-0.1,1-0.1h1.2v1.1h-4v-0.7H477z"/>
		<path class="st5" d="M481.7,24.4c0-1.9,0.8-2.9,2-2.9s2,1,2,2.9s-0.8,3-2,3C482.5,27.4,481.7,26.3,481.7,24.4z M484.6,24.4
			c0-1.6-0.3-1.9-0.8-1.9c-0.4,0-0.8,0.4-0.8,1.9c0,1.6,0.4,2,0.8,2C484.2,26.3,484.6,25.9,484.6,24.4z"/>
		<path class="st5" d="M486.8,26.2h1.2v-3.3h-1.1v-0.8c0.6-0.1,1-0.3,1.4-0.5h1v4.6h1.1v1.1h-3.6V26.2z"/>
		<path class="st5" d="M491.3,26.7l0.7-0.8c0.2,0.2,0.6,0.4,0.9,0.4c0.6,0,1.1-0.5,1.2-1.8c-0.3,0.4-0.8,0.6-1.1,0.6
			c-1,0-1.7-0.6-1.7-1.8s0.9-1.9,1.9-1.9c1.1,0,2.2,0.8,2.2,2.8c0,2.1-1.1,3.1-2.3,3.1C492.2,27.4,491.6,27,491.3,26.7z M493.2,24.2
			c0.3,0,0.6-0.2,0.9-0.6c-0.1-0.9-0.5-1.2-0.9-1.2s-0.7,0.3-0.7,0.9C492.4,23.9,492.7,24.2,493.2,24.2z"/>
	</g>
	<g>
		<path d="M2.9,39.4l3.4-5.3H3.2v-0.4h3.6v0.2l-3.4,5.4h3.4v0.4h-4v-0.3H2.9z"/>
		<path d="M8,33.9c0-0.2,0.1-0.4,0.3-0.4c0.2,0,0.3,0.1,0.3,0.4c0,0.2-0.1,0.4-0.3,0.4S8,34.2,8,33.9z M8.1,35.3h0.4v4.3H8.1V35.3z"
			/>
		<path d="M10.2,35.3h0.3V36l0,0c0.4-0.4,0.9-0.8,1.5-0.8c0.9,0,1.3,0.5,1.3,1.7v2.8h-0.4V37c0-0.9-0.3-1.4-1-1.4
			c-0.5,0-0.9,0.3-1.4,0.8v3.3h-0.4v-4.4H10.2z"/>
		<path d="M14.6,37.5c0-1.5,0.9-2.3,2-2.3c0.6,0,1,0.3,1.3,0.5L17.7,36c-0.3-0.3-0.6-0.5-1-0.5c-0.9,0-1.6,0.8-1.6,1.9
			c0,1.1,0.6,1.9,1.6,1.9c0.5,0,0.9-0.2,1.2-0.5l0.2,0.3c-0.4,0.3-0.8,0.6-1.4,0.6C15.4,39.8,14.6,38.9,14.6,37.5z"/>
	</g>
	<g>
		<path d="M153.8,34.3h-3v-0.4h3.5v0.2c-1.4,1.8-1.7,3.3-1.8,5.5h-0.4C152.1,37.3,152.6,35.9,153.8,34.3z"/>
		<path d="M158.1,34.3h-3v-0.4h3.5v0.2c-1.4,1.8-1.7,3.3-1.8,5.5h-0.4C156.4,37.3,156.9,35.9,158.1,34.3z"/>
		<path d="M161.7,37.9h-2.6v-0.2l2.7-3.8h0.4v3.7h0.9v0.3h-0.9v1.7h-0.4L161.7,37.9L161.7,37.9z M161.7,37.6v-2.1c0-0.3,0-0.7,0-1
			l0,0c-0.1,0.2-0.3,0.5-0.5,0.7l-1.7,2.4C159.5,37.6,161.7,37.6,161.7,37.6z"/>
		<path d="M163.7,40.8c0.4-0.2,0.7-0.6,0.7-1.1h-0.1c-0.2,0-0.4-0.1-0.4-0.4s0.2-0.4,0.4-0.4c0.3,0,0.5,0.2,0.5,0.6
			c0,0.7-0.4,1.2-0.9,1.5L163.7,40.8z"/>
		<path d="M165.5,39l0.2-0.3c0.3,0.4,0.8,0.7,1.6,0.7s1.3-0.5,1.3-1.3s-0.6-1.3-2-1.3v-0.4c1.3,0,1.8-0.6,1.8-1.3
			c0-0.6-0.5-1.1-1.2-1.1c-0.5,0-1,0.3-1.3,0.6l-0.2-0.3c0.4-0.4,0.9-0.7,1.6-0.7c0.9,0,1.6,0.5,1.6,1.4c0,0.8-0.5,1.2-1.1,1.4l0,0
			c0.7,0.2,1.3,0.7,1.3,1.5c0,1-0.8,1.6-1.8,1.6C166.4,39.8,165.9,39.4,165.5,39z"/>
		<path d="M169.8,39l0.2-0.3c0.3,0.4,0.8,0.7,1.6,0.7s1.3-0.5,1.3-1.3s-0.6-1.3-2-1.3v-0.4c1.3,0,1.8-0.6,1.8-1.3
			c0-0.6-0.5-1.1-1.2-1.1c-0.5,0-1,0.3-1.3,0.6l-0.2-0.3c0.4-0.4,0.9-0.7,1.6-0.7c0.9,0,1.6,0.5,1.6,1.4c0,0.8-0.5,1.2-1.1,1.4l0,0
			c0.7,0.2,1.3,0.7,1.3,1.5c0,1-0.8,1.6-1.8,1.6C170.7,39.8,170.2,39.4,169.8,39z"/>
		<path d="M174.3,36.8c0-1.9,0.6-3,1.7-3c1.1,0,1.7,1.1,1.7,3s-0.6,3-1.7,3S174.3,38.7,174.3,36.8z M177.3,36.8
			c0-1.8-0.5-2.6-1.3-2.6s-1.3,0.9-1.3,2.6c0,1.8,0.5,2.7,1.3,2.7C176.8,39.4,177.3,38.5,177.3,36.8z"/>
	</g>
	<g>
		<path d="M233.1,34.3h-3v-0.4h3.5v0.2c-1.4,1.8-1.7,3.3-1.8,5.5h-0.4C231.5,37.3,232,35.9,233.1,34.3z"/>
		<path d="M236.8,37.9h-2.6v-0.2l2.7-3.8h0.4v3.7h0.9v0.3h-0.9v1.7h-0.4L236.8,37.9L236.8,37.9z M236.8,37.6v-2.1c0-0.3,0-0.7,0-1
			l0,0c-0.1,0.2-0.3,0.5-0.5,0.7l-1.7,2.4C234.6,37.6,236.8,37.6,236.8,37.6z"/>
		<path d="M241.1,37.9h-2.6v-0.2l2.7-3.8h0.4v3.7h0.9v0.3h-0.9v1.7h-0.4L241.1,37.9L241.1,37.9z M241.1,37.6v-2.1c0-0.3,0-0.7,0-1
			l0,0c-0.1,0.2-0.3,0.5-0.5,0.7l-1.7,2.4C238.9,37.6,241.1,37.6,241.1,37.6z"/>
		<path d="M243.1,40.8c0.4-0.2,0.7-0.6,0.7-1.1h-0.1c-0.2,0-0.4-0.1-0.4-0.4s0.2-0.4,0.4-0.4c0.3,0,0.5,0.2,0.5,0.6
			c0,0.7-0.4,1.2-0.9,1.5L243.1,40.8z"/>
		<path d="M245,39.4c1.9-1.9,2.8-3,2.8-4c0-0.7-0.4-1.3-1.3-1.3c-0.5,0-1,0.3-1.3,0.8l-0.3-0.3c0.4-0.5,0.9-0.8,1.6-0.8
			c1,0,1.6,0.6,1.6,1.6c0,1.1-1,2.2-2.6,3.9c0.3,0,0.6,0,1,0h2v0.4H245V39.4z"/>
		<path d="M252.3,34.3h-3v-0.4h3.5v0.2c-1.4,1.8-1.7,3.3-1.8,5.5h-0.4C250.7,37.3,251.2,35.9,252.3,34.3z"/>
		<path d="M254,39.3h1.4v-4.8h-1v-0.3c0.5-0.1,0.8-0.2,1.1-0.4h0.3v5.4h1.3v0.4h-3L254,39.3L254,39.3z"/>
	</g>
	<g>
		<path d="M312.5,34.3h-3v-0.4h3.5v0.2c-1.4,1.8-1.7,3.3-1.8,5.5h-0.4C310.9,37.3,311.3,35.9,312.5,34.3z"/>
		<path d="M313.6,39l0.2-0.3c0.3,0.4,0.8,0.7,1.6,0.7c0.8,0,1.4-0.6,1.4-1.5s-0.5-1.5-1.4-1.5c-0.4,0-0.7,0.2-1.1,0.4l-0.3-0.2
			l0.2-2.7h2.7v0.4h-2.3l-0.2,2.1c0.3-0.2,0.6-0.3,1-0.3c1,0,1.8,0.6,1.8,1.8s-0.9,1.9-1.8,1.9C314.5,39.8,314,39.4,313.6,39z"/>
		<path d="M317.9,39l0.2-0.3c0.3,0.4,0.8,0.7,1.6,0.7c0.8,0,1.4-0.6,1.4-1.5s-0.5-1.5-1.4-1.5c-0.4,0-0.7,0.2-1.1,0.4l-0.3-0.2
			l0.2-2.7h2.7v0.4h-2.3l-0.2,2.1c0.3-0.2,0.6-0.3,1-0.3c1,0,1.8,0.6,1.8,1.8s-0.9,1.9-1.8,1.9C318.8,39.8,318.3,39.4,317.9,39z"/>
		<path d="M322.4,40.8c0.4-0.2,0.7-0.6,0.7-1.1H323c-0.2,0-0.4-0.1-0.4-0.4s0.2-0.4,0.4-0.4c0.3,0,0.5,0.2,0.5,0.6
			c0,0.7-0.4,1.2-0.9,1.5L322.4,40.8z"/>
		<path d="M324.5,39.2l0.2-0.3c0.3,0.3,0.6,0.5,1,0.5c0.9,0,1.7-0.7,1.7-2.8c-0.4,0.5-0.9,0.8-1.5,0.8c-1,0-1.6-0.6-1.6-1.8
			c0-1,0.7-1.8,1.6-1.8c1.1,0,1.9,1,1.9,2.7c0,2.4-1,3.3-2.1,3.3C325.2,39.8,324.8,39.6,324.5,39.2z M326,37c0.4,0,1-0.3,1.4-0.9
			c-0.1-1.2-0.5-2-1.5-2c-0.7,0-1.2,0.6-1.2,1.4C324.8,36.4,325.1,37,326,37z"/>
		<path d="M328.8,37.1c0-2.4,1-3.3,2.1-3.3c0.5,0,0.9,0.2,1.2,0.6l-0.2,0.3c-0.3-0.3-0.6-0.5-1-0.5c-0.9,0-1.7,0.7-1.7,2.8
			c0.4-0.5,0.9-0.8,1.4-0.8c1,0,1.6,0.6,1.6,1.8c0,1-0.7,1.8-1.6,1.8C329.5,39.8,328.8,38.8,328.8,37.1z M329.2,37.4
			c0.1,1.2,0.5,2,1.5,2c0.7,0,1.2-0.6,1.2-1.5s-0.4-1.4-1.2-1.4C330.2,36.5,329.6,36.8,329.2,37.4z"/>
		<path d="M335.4,37.9h-2.6v-0.2l2.7-3.8h0.4v3.7h0.9v0.3h-0.9v1.7h-0.5V37.9z M335.4,37.6v-2.1c0-0.3,0-0.7,0-1l0,0
			c-0.1,0.2-0.3,0.5-0.5,0.7l-1.7,2.4C333.2,37.6,335.4,37.6,335.4,37.6z"/>
	</g>
	<g>
		<path d="M391.9,34.3h-3v-0.4h3.5v0.2c-1.4,1.8-1.7,3.3-1.8,5.5h-0.4C390.2,37.3,390.7,35.9,391.9,34.3z"/>
		<path d="M396.2,34.3h-3v-0.4h3.5v0.2c-1.4,1.8-1.7,3.3-1.8,5.5h-0.5C394.5,37.3,395,35.9,396.2,34.3z"/>
		<path d="M397.3,39l0.2-0.3c0.3,0.4,0.8,0.7,1.6,0.7c0.8,0,1.3-0.5,1.3-1.3s-0.6-1.3-2-1.3v-0.4c1.3,0,1.8-0.6,1.8-1.3
			c0-0.6-0.5-1.1-1.2-1.1c-0.5,0-1,0.3-1.3,0.6l-0.2-0.3c0.4-0.4,0.9-0.7,1.6-0.7c0.9,0,1.6,0.5,1.6,1.4c0,0.8-0.5,1.2-1.1,1.4l0,0
			c0.7,0.2,1.3,0.7,1.3,1.5c0,1-0.8,1.6-1.8,1.6C398.2,39.8,397.7,39.4,397.3,39z"/>
		<path d="M401.8,40.8c0.4-0.2,0.7-0.6,0.7-1.1h-0.1c-0.2,0-0.4-0.1-0.4-0.4s0.2-0.4,0.4-0.4c0.3,0,0.5,0.2,0.5,0.6
			c0,0.7-0.4,1.2-0.9,1.5L401.8,40.8z"/>
		<path d="M403.8,36.8c0-1.9,0.6-3,1.7-3s1.7,1.1,1.7,3s-0.6,3-1.7,3S403.8,38.7,403.8,36.8z M406.8,36.8c0-1.8-0.5-2.6-1.3-2.6
			s-1.3,0.9-1.3,2.6c0,1.8,0.5,2.7,1.3,2.7C406.3,39.4,406.8,38.5,406.8,36.8z"/>
		<path d="M408.4,39.3h1.4v-4.8h-1v-0.3c0.5-0.1,0.8-0.2,1.1-0.4h0.3v5.4h1.3v0.4h-3L408.4,39.3L408.4,39.3z"/>
		<path d="M412.2,39l0.2-0.3c0.3,0.4,0.8,0.7,1.6,0.7c0.8,0,1.4-0.6,1.4-1.5s-0.5-1.5-1.4-1.5c-0.4,0-0.7,0.2-1.1,0.4l-0.3-0.2
			l0.2-2.7h2.7v0.4h-2.3l-0.2,2.1c0.3-0.2,0.6-0.3,1-0.3c1,0,1.8,0.6,1.8,1.8s-0.9,1.9-1.8,1.9C413.1,39.8,412.6,39.4,412.2,39z"/>
	</g>
	<g>
		<path d="M471.2,34.3h-3v-0.4h3.5v0.2c-1.4,1.8-1.7,3.3-1.8,5.5h-0.4C469.6,37.3,470.1,35.9,471.2,34.3z"/>
		<path d="M472.5,39.4c1.9-1.9,2.8-3,2.8-4c0-0.7-0.4-1.3-1.3-1.3c-0.5,0-1,0.3-1.3,0.8l-0.3-0.3c0.4-0.5,0.9-0.8,1.6-0.8
			c1,0,1.6,0.6,1.6,1.6c0,1.1-1,2.2-2.6,3.9c0.3,0,0.6,0,1,0h2v0.4h-3.5L472.5,39.4L472.5,39.4z"/>
		<path d="M476.8,38.2c0-0.8,0.6-1.3,1.2-1.6l0,0c-0.4-0.3-0.8-0.7-0.8-1.3c0-0.8,0.7-1.4,1.5-1.4c1,0,1.6,0.6,1.6,1.5
			c0,0.6-0.5,1.2-0.8,1.5l0,0c0.5,0.3,1,0.7,1,1.5s-0.7,1.5-1.7,1.5C477.6,39.8,476.8,39.1,476.8,38.2z M480,38.3
			c0-0.9-0.9-1.2-1.8-1.5c-0.6,0.3-1,0.8-1,1.5s0.6,1.3,1.4,1.3C479.4,39.4,480,38.9,480,38.3z M479.8,35.3c0-0.6-0.4-1.2-1.2-1.2
			c-0.6,0-1.1,0.5-1.1,1.1c0,0.8,0.8,1.1,1.5,1.4C479.5,36.3,479.8,35.8,479.8,35.3z"/>
		<path d="M481.2,40.8c0.4-0.2,0.7-0.6,0.7-1.1h-0.1c-0.2,0-0.4-0.1-0.4-0.4s0.2-0.4,0.4-0.4c0.3,0,0.5,0.2,0.5,0.6
			c0,0.7-0.4,1.2-0.9,1.5L481.2,40.8z"/>
		<path d="M485.5,37.9h-2.6v-0.2l2.7-3.8h0.4v3.7h0.9v0.3H486v1.7h-0.4v-1.7H485.5z M485.5,37.6v-2.1c0-0.3,0-0.7,0-1l0,0
			c-0.1,0.2-0.3,0.5-0.5,0.7l-1.7,2.4C483.3,37.6,485.5,37.6,485.5,37.6z"/>
		<path d="M487.5,39.2l0.2-0.3c0.3,0.3,0.6,0.5,1,0.5c0.9,0,1.7-0.7,1.7-2.8c-0.4,0.5-0.9,0.8-1.5,0.8c-1,0-1.6-0.6-1.6-1.8
			c0-1,0.7-1.8,1.6-1.8c1.1,0,1.9,1,1.9,2.7c0,2.4-1,3.3-2.1,3.3C488.2,39.8,487.8,39.6,487.5,39.2z M489.1,37c0.4,0,1-0.3,1.4-0.9
			c-0.1-1.2-0.5-2-1.5-2c-0.7,0-1.2,0.6-1.2,1.4C487.8,36.4,488.2,37,489.1,37z"/>
		<path d="M491.7,38.2c0-0.8,0.6-1.3,1.2-1.6l0,0c-0.4-0.3-0.8-0.7-0.8-1.3c0-0.8,0.7-1.4,1.5-1.4c1,0,1.6,0.6,1.6,1.5
			c0,0.6-0.5,1.2-0.8,1.5l0,0c0.5,0.3,1,0.7,1,1.5s-0.7,1.5-1.7,1.5C492.5,39.8,491.7,39.1,491.7,38.2z M494.9,38.3
			c0-0.9-0.9-1.2-1.8-1.5c-0.6,0.3-1,0.8-1,1.5s0.6,1.3,1.4,1.3C494.3,39.4,494.9,38.9,494.9,38.3z M494.7,35.3
			c0-0.6-0.4-1.2-1.2-1.2c-0.6,0-1.1,0.5-1.1,1.1c0,0.8,0.8,1.1,1.5,1.4C494.4,36.3,494.7,35.8,494.7,35.3z"/>
	</g>
	<g>
		<path d="M3.3,46.2h0.4v5.6h2.7v0.4H3.2L3.3,46.2L3.3,46.2z"/>
		<path d="M7.1,49.9c0-1.4,0.9-2.3,1.9-2.3s1.7,0.7,1.7,2c0,0.1,0,0.2,0,0.3H7.6c0,1.1,0.7,1.9,1.6,1.9c0.5,0,0.8-0.2,1.2-0.4
			l0.2,0.3c-0.3,0.2-0.7,0.4-1.4,0.4C8,52.2,7.1,51.4,7.1,49.9z M10.3,49.7c0-1.1-0.5-1.7-1.3-1.7c-0.7,0-1.4,0.6-1.5,1.7H10.3z"/>
		<path d="M11.5,51c0-1,0.9-1.4,2.8-1.6c0-0.7-0.2-1.4-1-1.4c-0.6,0-1.1,0.3-1.4,0.5l-0.2-0.3c0.3-0.2,0.9-0.6,1.6-0.6
			c1,0,1.4,0.7,1.4,1.7v2.8h-0.3v-0.6l0,0c-0.4,0.4-1,0.7-1.5,0.7C12.1,52.2,11.5,51.8,11.5,51z M14.3,51.2v-1.5
			c-1.8,0.2-2.4,0.6-2.4,1.3c0,0.6,0.4,0.9,0.9,0.9S13.7,51.6,14.3,51.2z"/>
		<path d="M15.9,49.9c0-1.4,0.9-2.3,1.9-2.3c0.5,0,0.9,0.2,1.3,0.5v-0.8v-1.8h0.4V52h-0.3v-0.6l0,0c-0.4,0.4-0.8,0.7-1.4,0.7
			C16.6,52.2,15.9,51.4,15.9,49.9z M19.1,51.1v-2.6c-0.5-0.4-0.8-0.6-1.3-0.6c-0.9,0-1.5,0.8-1.5,1.9c0,1.1,0.5,1.9,1.4,1.9
			C18.2,51.8,18.6,51.6,19.1,51.1z"/>
	</g>
	<g>
		<path d="M151.1,51.7h1.3v-4.8h-1v-0.3c0.5-0.1,0.8-0.2,1.1-0.4h0.3v5.4h1.3V52h-3L151.1,51.7L151.1,51.7z"/>
		<path d="M155.4,51.7h1.3v-4.8h-1v-0.3c0.5-0.1,0.8-0.2,1.1-0.4h0.3v5.4h1.3V52h-3L155.4,51.7L155.4,51.7z"/>
		<path d="M159.3,51.8c1.9-1.9,2.8-3,2.8-4c0-0.7-0.4-1.3-1.3-1.3c-0.5,0-1,0.3-1.3,0.8l-0.3-0.3c0.4-0.5,0.9-0.8,1.6-0.8
			c1,0,1.6,0.6,1.6,1.6c0,1.1-1,2.2-2.6,3.9c0.3,0,0.6,0,1,0h2v0.4h-3.5V51.8z"/>
		<path d="M163.7,53.2c0.4-0.2,0.7-0.6,0.7-1.1h-0.1c-0.2,0-0.4-0.1-0.4-0.4s0.2-0.4,0.4-0.4c0.3,0,0.5,0.2,0.5,0.6
			c0,0.7-0.4,1.2-0.9,1.5L163.7,53.2z"/>
		<path d="M168.7,46.7h-3v-0.4h3.5v0.2c-1.4,1.8-1.7,3.3-1.8,5.5H167C167,49.8,167.5,48.3,168.7,46.7z"/>
		<path d="M169.8,51.4l0.2-0.3c0.3,0.4,0.8,0.7,1.6,0.7s1.4-0.6,1.4-1.5s-0.5-1.5-1.4-1.5c-0.4,0-0.7,0.2-1.1,0.4l-0.3-0.2l0.2-2.7
			h2.7v0.4h-2.3l-0.2,2.1c0.3-0.2,0.6-0.3,1-0.3c1,0,1.8,0.6,1.8,1.8s-0.9,1.9-1.8,1.9C170.7,52.2,170.2,51.8,169.8,51.4z"/>
		<path d="M174.2,51.8c1.9-1.9,2.8-3,2.8-4c0-0.7-0.4-1.3-1.3-1.3c-0.5,0-1,0.3-1.3,0.8l-0.3-0.3c0.4-0.5,0.9-0.8,1.6-0.8
			c1,0,1.6,0.6,1.6,1.6c0,1.1-1,2.2-2.6,3.9c0.3,0,0.6,0,1,0h2v0.4h-3.5V51.8z"/>
	</g>
	<g>
		<path d="M230.5,51.7h1.4v-4.8h-1v-0.3c0.5-0.1,0.8-0.2,1.1-0.4h0.3v5.4h1.3V52h-3v-0.3H230.5z"/>
		<path d="M236.8,50.4h-2.6v-0.2l2.7-3.8h0.4v3.7h0.9v0.3h-0.9v1.7h-0.4L236.8,50.4L236.8,50.4z M236.8,50v-2.1c0-0.3,0-0.7,0-1l0,0
			c-0.1,0.2-0.3,0.5-0.5,0.7l-1.7,2.4C234.6,50,236.8,50,236.8,50z"/>
		<path d="M241.1,50.4h-2.6v-0.2l2.7-3.8h0.4v3.7h0.9v0.3h-0.9v1.7h-0.4L241.1,50.4L241.1,50.4z M241.1,50v-2.1c0-0.3,0-0.7,0-1l0,0
			c-0.1,0.2-0.3,0.5-0.5,0.7l-1.7,2.4C238.9,50,241.1,50,241.1,50z"/>
		<path d="M243.1,53.2c0.4-0.2,0.7-0.6,0.7-1.1h-0.1c-0.2,0-0.4-0.1-0.4-0.4s0.2-0.4,0.4-0.4c0.3,0,0.5,0.2,0.5,0.6
			c0,0.7-0.4,1.2-0.9,1.5L243.1,53.2z"/>
		<path d="M245.1,49.5c0-2.4,1-3.3,2.1-3.3c0.5,0,0.9,0.2,1.2,0.6l-0.2,0.3c-0.3-0.3-0.6-0.5-1-0.5c-0.9,0-1.7,0.7-1.7,2.8
			c0.4-0.5,0.9-0.8,1.4-0.8c1,0,1.6,0.6,1.6,1.8c0,1-0.7,1.8-1.6,1.8C245.8,52.2,245.1,51.2,245.1,49.5z M245.5,49.8
			c0.1,1.2,0.5,2,1.5,2c0.7,0,1.2-0.6,1.2-1.5s-0.4-1.4-1.2-1.4C246.5,49,246,49.2,245.5,49.8z"/>
		<path d="M249.2,51.4l0.2-0.3c0.3,0.4,0.8,0.7,1.6,0.7c0.8,0,1.4-0.6,1.4-1.5s-0.5-1.5-1.4-1.5c-0.4,0-0.7,0.2-1.1,0.4l-0.3-0.2
			l0.2-2.7h2.7v0.4h-2.3l-0.2,2.1c0.3-0.2,0.6-0.3,1-0.3c1,0,1.8,0.6,1.8,1.8s-0.9,1.9-1.8,1.9C250,52.2,249.5,51.8,249.2,51.4z"/>
		<path d="M253.5,51.4l0.2-0.3c0.3,0.4,0.8,0.7,1.6,0.7c0.8,0,1.3-0.5,1.3-1.3s-0.6-1.3-2-1.3v-0.4c1.3,0,1.8-0.6,1.8-1.3
			c0-0.6-0.5-1.1-1.2-1.1c-0.5,0-1,0.3-1.3,0.6l-0.2-0.3c0.4-0.4,0.9-0.7,1.6-0.7c0.9,0,1.6,0.5,1.6,1.4c0,0.8-0.5,1.2-1.1,1.4l0,0
			c0.7,0.2,1.3,0.7,1.3,1.5c0,1-0.8,1.6-1.8,1.6C254.4,52.2,253.9,51.8,253.5,51.4z"/>
	</g>
	<g>
		<path d="M309.8,51.7h1.3v-4.8h-1v-0.3c0.5-0.1,0.8-0.2,1.1-0.4h0.3v5.4h1.3V52h-3L309.8,51.7L309.8,51.7z"/>
		<path d="M313.6,51.4l0.2-0.3c0.3,0.4,0.8,0.7,1.6,0.7c0.8,0,1.4-0.6,1.4-1.5s-0.5-1.5-1.4-1.5c-0.4,0-0.7,0.2-1.1,0.4L314,49
			l0.2-2.7h2.7v0.4h-2.3l-0.2,2.1c0.3-0.2,0.6-0.3,1-0.3c1,0,1.8,0.6,1.8,1.8s-0.9,1.9-1.8,1.9C314.5,52.2,314,51.8,313.6,51.4z"/>
		<path d="M318.5,51.7h1.4v-4.8h-1v-0.3c0.5-0.1,0.8-0.2,1.1-0.4h0.3v5.4h1.3V52h-3L318.5,51.7L318.5,51.7z"/>
		<path d="M322.4,53.2c0.4-0.2,0.7-0.6,0.7-1.1H323c-0.2,0-0.4-0.1-0.4-0.4s0.2-0.4,0.4-0.4c0.3,0,0.5,0.2,0.5,0.6
			c0,0.7-0.4,1.2-0.9,1.5L322.4,53.2z"/>
		<path d="M324.4,49.2c0-1.9,0.6-3,1.7-3s1.7,1.1,1.7,3s-0.6,3-1.7,3S324.4,51.1,324.4,49.2z M327.4,49.2c0-1.8-0.5-2.6-1.3-2.6
			s-1.3,0.9-1.3,2.6c0,1.8,0.5,2.7,1.3,2.7S327.4,50.9,327.4,49.2z"/>
		<path d="M328.7,51.8c1.9-1.9,2.8-3,2.8-4c0-0.7-0.4-1.3-1.3-1.3c-0.5,0-1,0.3-1.3,0.8l-0.3-0.3c0.4-0.5,0.9-0.8,1.6-0.8
			c1,0,1.6,0.6,1.6,1.6c0,1.1-1,2.2-2.6,3.9c0.3,0,0.6,0,1,0h2v0.4h-3.5L328.7,51.8L328.7,51.8z"/>
		<path d="M333,49.2c0-1.9,0.6-3,1.7-3s1.7,1.1,1.7,3s-0.6,3-1.7,3C333.7,52.2,333,51.1,333,49.2z M336.1,49.2
			c0-1.8-0.5-2.6-1.3-2.6s-1.3,0.9-1.3,2.6c0,1.8,0.5,2.7,1.3,2.7S336.1,50.9,336.1,49.2z"/>
	</g>
	<g>
		<path d="M389.2,51.7h1.4v-4.8h-1v-0.3c0.5-0.1,0.8-0.2,1.1-0.4h0.3v5.4h1.3V52h-3L389.2,51.7L389.2,51.7z"/>
		<path d="M396.2,46.7h-3v-0.4h3.5v0.2c-1.4,1.8-1.7,3.3-1.8,5.5h-0.5C394.5,49.8,395,48.3,396.2,46.7z"/>
		<path d="M399.9,50.4h-2.6v-0.2l2.7-3.8h0.4v3.7h0.9v0.3h-0.9v1.7H400v-1.7H399.9z M399.9,50v-2.1c0-0.3,0-0.7,0-1l0,0
			c-0.1,0.2-0.3,0.5-0.5,0.7l-1.7,2.4C397.7,50,399.9,50,399.9,50z"/>
		<path d="M401.8,53.2c0.4-0.2,0.7-0.6,0.7-1.1h-0.1c-0.2,0-0.4-0.1-0.4-0.4s0.2-0.4,0.4-0.4c0.3,0,0.5,0.2,0.5,0.6
			c0,0.7-0.4,1.2-0.9,1.5L401.8,53.2z"/>
		<path d="M403.6,51.4l0.2-0.3c0.3,0.4,0.8,0.7,1.6,0.7c0.8,0,1.3-0.5,1.3-1.3s-0.6-1.3-2-1.3v-0.4c1.3,0,1.8-0.6,1.8-1.3
			c0-0.6-0.5-1.1-1.2-1.1c-0.5,0-1,0.3-1.3,0.6l-0.2-0.3c0.4-0.4,0.9-0.7,1.6-0.7c0.9,0,1.6,0.5,1.6,1.4c0,0.8-0.5,1.2-1.1,1.4l0,0
			c0.7,0.2,1.3,0.7,1.3,1.5c0,1-0.8,1.6-1.8,1.6C404.5,52.2,404,51.8,403.6,51.4z"/>
		<path d="M408.1,49.5c0-2.4,1-3.3,2.1-3.3c0.5,0,0.9,0.2,1.2,0.6l-0.2,0.3c-0.3-0.3-0.6-0.5-1-0.5c-0.9,0-1.7,0.7-1.7,2.8
			c0.4-0.5,0.9-0.8,1.4-0.8c1,0,1.6,0.6,1.6,1.8c0,1-0.7,1.8-1.6,1.8C408.9,52.2,408.1,51.2,408.1,49.5z M408.5,49.8
			c0.1,1.2,0.5,2,1.5,2c0.7,0,1.2-0.6,1.2-1.5s-0.4-1.4-1.2-1.4C409.5,49,409,49.2,408.5,49.8z"/>
		<path d="M412.3,50.6c0-0.8,0.6-1.3,1.2-1.6l0,0c-0.4-0.3-0.8-0.7-0.8-1.3c0-0.8,0.7-1.4,1.5-1.4c1,0,1.6,0.6,1.6,1.5
			c0,0.6-0.5,1.2-0.8,1.5l0,0c0.5,0.3,1,0.7,1,1.5s-0.7,1.5-1.7,1.5C413.1,52.2,412.3,51.5,412.3,50.6z M415.5,50.7
			c0-0.9-0.9-1.2-1.8-1.5c-0.6,0.3-1,0.8-1,1.5s0.6,1.3,1.4,1.3C415,51.9,415.5,51.3,415.5,50.7z M415.3,47.7c0-0.6-0.4-1.2-1.2-1.2
			c-0.6,0-1.1,0.5-1.1,1.1c0,0.8,0.8,1.1,1.5,1.4C415.1,48.7,415.3,48.2,415.3,47.7z"/>
	</g>
	<g>
		<path d="M468.2,51.8c1.9-1.9,2.8-3,2.8-4c0-0.7-0.4-1.3-1.3-1.3c-0.5,0-1,0.3-1.3,0.8l-0.3-0.3c0.4-0.5,0.9-0.8,1.6-0.8
			c1,0,1.6,0.6,1.6,1.6c0,1.1-1,2.2-2.6,3.9c0.3,0,0.6,0,1,0h2v0.4h-3.5L468.2,51.8L468.2,51.8z"/>
		<path d="M472.6,49.2c0-1.9,0.6-3,1.7-3s1.7,1.1,1.7,3s-0.6,3-1.7,3C473.2,52.2,472.6,51.1,472.6,49.2z M475.6,49.2
			c0-1.8-0.5-2.6-1.3-2.6s-1.3,0.9-1.3,2.6c0,1.8,0.5,2.7,1.3,2.7S475.6,50.9,475.6,49.2z"/>
		<path d="M479.9,46.7h-3v-0.4h3.5v0.2c-1.4,1.8-1.7,3.3-1.8,5.5h-0.4C478.2,49.8,478.7,48.3,479.9,46.7z"/>
		<path d="M481.2,53.2c0.4-0.2,0.7-0.6,0.7-1.1h-0.1c-0.2,0-0.4-0.1-0.4-0.4s0.2-0.4,0.4-0.4c0.3,0,0.5,0.2,0.5,0.6
			c0,0.7-0.4,1.2-0.9,1.5L481.2,53.2z"/>
		<path d="M483.5,51.7h1.4v-4.8h-1v-0.3c0.5-0.1,0.8-0.2,1.1-0.4h0.3v5.4h1.3V52h-3L483.5,51.7L483.5,51.7z"/>
		<path d="M487.5,51.6l0.2-0.3c0.3,0.3,0.6,0.5,1,0.5c0.9,0,1.7-0.7,1.7-2.8c-0.4,0.5-0.9,0.8-1.5,0.8c-1,0-1.6-0.6-1.6-1.8
			c0-1,0.7-1.8,1.6-1.8c1.1,0,1.9,1,1.9,2.7c0,2.4-1,3.3-2.1,3.3C488.2,52.2,487.8,52,487.5,51.6z M489.1,49.5c0.4,0,1-0.3,1.4-0.9
			c-0.1-1.2-0.5-2-1.5-2c-0.7,0-1.2,0.6-1.2,1.4C487.8,48.9,488.2,49.5,489.1,49.5z"/>
		<path d="M491.8,49.2c0-1.9,0.6-3,1.7-3s1.7,1.1,1.7,3s-0.6,3-1.7,3S491.8,51.1,491.8,49.2z M494.8,49.2c0-1.8-0.5-2.6-1.3-2.6
			s-1.3,0.9-1.3,2.6c0,1.8,0.5,2.7,1.3,2.7S494.8,50.9,494.8,49.2z"/>
	</g>
	<g>
		<path d="M4.3,59.8H2.7v-1.1h4.6v1.1H5.7v4.8H4.4L4.3,59.8L4.3,59.8z"/>
		<path d="M7.8,62.3c0-1.5,1-2.3,2.2-2.3c1.1,0,2.2,0.9,2.2,2.3s-1,2.3-2.2,2.3C8.8,64.6,7.8,63.8,7.8,62.3z M10.7,62.3
			c0-0.8-0.3-1.3-0.8-1.3s-0.8,0.5-0.8,1.3s0.3,1.3,0.8,1.3C10.5,63.5,10.7,63,10.7,62.3z"/>
		<path d="M13.2,62.9v-1.8h-0.6v-1l0.7-0.1l0.2-1.2h1.1V60h1.1v1h-1.1v1.8c0,0.5,0.2,0.7,0.6,0.7c0.1,0,0.3,0,0.4-0.1l0.2,1
			c-0.2,0.1-0.6,0.2-1,0.2C13.6,64.6,13.2,63.9,13.2,62.9z"/>
		<path d="M16.2,63.3c0-0.9,0.7-1.4,2.5-1.6c0-0.4-0.2-0.6-0.7-0.6c-0.4,0-0.7,0.2-1.2,0.4l-0.4-1c0.6-0.3,1.2-0.6,1.9-0.6
			c1.1,0,1.8,0.6,1.8,2v2.6H19L18.9,64l0,0c-0.4,0.3-0.8,0.6-1.3,0.6C16.8,64.6,16.2,64,16.2,63.3z M18.8,63.2v-0.8
			c-0.9,0.1-1.2,0.4-1.2,0.7c0,0.3,0.2,0.4,0.5,0.4C18.3,63.6,18.5,63.4,18.8,63.2z"/>
		<path d="M21.2,63.1v-4.9h1.3v5c0,0.3,0.1,0.4,0.2,0.4c0.1,0,0.1,0,0.2,0l0.2,1c-0.1,0.1-0.4,0.1-0.7,0.1
			C21.5,64.6,21.2,64,21.2,63.1z"/>
	</g>
	<g>
		<path d="M147.3,63c0-0.7,0.4-1.1,1-1.4l0,0c-0.4-0.3-0.8-0.7-0.8-1.4c0-1,0.8-1.6,1.8-1.6s1.7,0.6,1.7,1.6c0,0.5-0.4,1-0.7,1.3
			l0,0c0.5,0.3,1,0.7,1,1.5c0,0.9-0.8,1.6-2,1.6C148.2,64.6,147.3,64,147.3,63z M150.1,63c0-0.5-0.5-0.7-1.2-1
			c-0.3,0.2-0.4,0.6-0.4,0.9c0,0.5,0.4,0.8,0.9,0.8C149.8,63.7,150.1,63.5,150.1,63z M150,60.3c0-0.4-0.3-0.7-0.7-0.7
			s-0.6,0.2-0.6,0.7s0.4,0.7,1,0.9C149.9,60.9,150,60.6,150,60.3z"/>
		<path d="M152.1,63c0-0.7,0.4-1.1,1-1.4l0,0c-0.4-0.3-0.8-0.7-0.8-1.4c0-1,0.8-1.6,1.8-1.6s1.7,0.6,1.7,1.6c0,0.5-0.4,1-0.7,1.3
			l0,0c0.5,0.3,1,0.7,1,1.5c0,0.9-0.8,1.6-2,1.6S152.1,64,152.1,63z M154.9,63c0-0.5-0.5-0.7-1.2-1c-0.3,0.2-0.4,0.6-0.4,0.9
			c0,0.5,0.4,0.8,0.9,0.8C154.5,63.7,154.9,63.5,154.9,63z M154.8,60.3c0-0.4-0.3-0.7-0.7-0.7s-0.6,0.2-0.6,0.7s0.4,0.7,1,0.9
			C154.7,60.9,154.8,60.6,154.8,60.3z"/>
		<path d="M159.4,59.9h-2.6v-1.1h4v0.8c-1.3,1.6-1.5,2.7-1.6,4.9h-1.3C158,62.6,158.3,61.4,159.4,59.9z"/>
		<path d="M161.6,65.6c0.7-0.2,1-0.6,1-1.1c0,0,0,0-0.1,0c-0.4,0-0.8-0.3-0.8-0.7c0-0.5,0.4-0.8,0.8-0.8c0.6,0,0.9,0.5,0.9,1.3
			c0,1-0.6,1.7-1.6,2.1L161.6,65.6z"/>
		<path d="M164.2,61.6c0-1.9,0.8-2.9,2-2.9s2,1,2,2.9s-0.8,3-2,3C165.1,64.6,164.2,63.6,164.2,61.6z M167.1,61.6
			c0-1.6-0.3-1.9-0.8-1.9c-0.4,0-0.8,0.4-0.8,1.9c0,1.6,0.4,2,0.8,2S167.1,63.2,167.1,61.6z"/>
		<path d="M169,63c0-0.7,0.4-1.1,1-1.4l0,0c-0.4-0.3-0.8-0.7-0.8-1.4c0-1,0.8-1.6,1.8-1.6s1.7,0.6,1.7,1.6c0,0.5-0.4,1-0.7,1.3l0,0
			c0.5,0.3,1,0.7,1,1.5c0,0.9-0.8,1.6-2,1.6C169.9,64.6,169,64,169,63z M171.8,63c0-0.5-0.5-0.7-1.2-1c-0.3,0.2-0.4,0.6-0.4,0.9
			c0,0.5,0.4,0.8,0.9,0.8C171.5,63.7,171.8,63.5,171.8,63z M171.7,60.3c0-0.4-0.3-0.7-0.7-0.7s-0.6,0.2-0.6,0.7s0.4,0.7,1,0.9
			C171.6,60.9,171.7,60.6,171.7,60.3z"/>
		<path d="M173.8,63.8c1.5-1.4,2.5-2.4,2.5-3.2c0-0.6-0.3-0.9-0.8-0.9c-0.4,0-0.7,0.3-1,0.6l-0.7-0.7c0.6-0.6,1.1-0.9,1.9-0.9
			c1.1,0,1.9,0.7,1.9,1.8c0,1-0.9,2-1.8,3c0.3,0,0.7-0.1,1-0.1h1.2v1.1h-4v-0.7H173.8z"/>
	</g>
	<g>
		<path d="M226.7,63c0-0.7,0.4-1.1,1-1.4l0,0c-0.4-0.3-0.8-0.7-0.8-1.4c0-1,0.8-1.6,1.8-1.6s1.7,0.6,1.7,1.6c0,0.5-0.4,1-0.7,1.3
			l0,0c0.5,0.3,1,0.7,1,1.5c0,0.9-0.8,1.6-2,1.6C227.6,64.6,226.7,64,226.7,63z M229.5,63c0-0.5-0.5-0.7-1.2-1
			c-0.3,0.2-0.4,0.6-0.4,0.9c0,0.5,0.4,0.8,0.9,0.8C229.2,63.7,229.5,63.5,229.5,63z M229.4,60.3c0-0.4-0.3-0.7-0.7-0.7
			s-0.6,0.2-0.6,0.7s0.4,0.7,1,0.9C229.3,60.9,229.4,60.6,229.4,60.3z"/>
		<path d="M231.5,63c0-0.7,0.4-1.1,1-1.4l0,0c-0.4-0.3-0.8-0.7-0.8-1.4c0-1,0.8-1.6,1.8-1.6s1.7,0.6,1.7,1.6c0,0.5-0.4,1-0.7,1.3
			l0,0c0.5,0.3,1,0.7,1,1.5c0,0.9-0.8,1.6-2,1.6C232.3,64.6,231.5,64,231.5,63z M234.2,63c0-0.5-0.5-0.7-1.2-1
			c-0.3,0.2-0.4,0.6-0.4,0.9c0,0.5,0.4,0.8,0.9,0.8C233.9,63.7,234.2,63.5,234.2,63z M234.2,60.3c0-0.4-0.3-0.7-0.7-0.7
			s-0.6,0.2-0.6,0.7s0.4,0.7,1,0.9C234,60.9,234.2,60.6,234.2,60.3z"/>
		<path d="M236.2,63c0-0.7,0.4-1.1,1-1.4l0,0c-0.4-0.3-0.8-0.7-0.8-1.4c0-1,0.8-1.6,1.8-1.6s1.7,0.6,1.7,1.6c0,0.5-0.4,1-0.7,1.3
			l0,0c0.5,0.3,1,0.7,1,1.5c0,0.9-0.8,1.6-2,1.6C237.1,64.6,236.2,64,236.2,63z M239,63c0-0.5-0.5-0.7-1.2-1
			c-0.3,0.2-0.4,0.6-0.4,0.9c0,0.5,0.4,0.8,0.9,0.8C238.7,63.7,239,63.5,239,63z M238.9,60.3c0-0.4-0.3-0.7-0.7-0.7
			s-0.6,0.2-0.6,0.7s0.4,0.7,1,0.9C238.8,60.9,238.9,60.6,238.9,60.3z"/>
		<path d="M241,65.6c0.7-0.2,1-0.6,1-1.1c0,0,0,0-0.1,0c-0.4,0-0.8-0.3-0.8-0.7c0-0.5,0.4-0.8,0.8-0.8c0.6,0,0.9,0.5,0.9,1.3
			c0,1-0.6,1.7-1.6,2.1L241,65.6z"/>
		<path d="M243.7,63.9l0.7-0.8c0.2,0.2,0.5,0.4,0.9,0.4c0.6,0,1.1-0.5,1.2-1.8c-0.3,0.4-0.8,0.6-1.1,0.6c-1,0-1.7-0.6-1.7-1.8
			c0-1.2,0.9-1.9,1.9-1.9c1.1,0,2.2,0.8,2.2,2.8c0,2.1-1.1,3.1-2.3,3.1C244.6,64.6,244,64.3,243.7,63.9z M245.6,61.4
			c0.3,0,0.6-0.2,0.9-0.6c-0.1-0.9-0.5-1.2-0.9-1.2s-0.7,0.3-0.7,0.9C244.8,61.2,245.1,61.4,245.6,61.4z"/>
		<path d="M248.4,63.8c1.5-1.4,2.5-2.4,2.5-3.2c0-0.6-0.3-0.9-0.8-0.9c-0.4,0-0.7,0.3-1,0.6l-0.7-0.7c0.6-0.6,1.1-0.9,1.9-0.9
			c1.1,0,1.9,0.7,1.9,1.8c0,1-0.9,2-1.8,3c0.3,0,0.7-0.1,1-0.1h1.2v1.1h-4v-0.7H248.4z"/>
		<path d="M255.4,63.1h-2.5v-0.9l2.1-3.4h1.6v3.3h0.7v1h-0.7v1.4h-1.2V63.1z M255.4,62.1v-0.9c0-0.4,0-0.9,0.1-1.3l0,0
			c-0.1,0.3-0.3,0.6-0.5,1l-0.8,1.2C254.2,62.1,255.4,62.1,255.4,62.1z"/>
	</g>
	<g>
		<path d="M306.1,63.9l0.7-0.8c0.2,0.2,0.5,0.4,0.9,0.4c0.6,0,1.1-0.5,1.2-1.8c-0.3,0.4-0.8,0.6-1.1,0.6c-1,0-1.7-0.6-1.7-1.8
			c0-1.2,0.9-1.9,1.9-1.9c1.1,0,2.2,0.8,2.2,2.8c0,2.1-1.1,3.1-2.3,3.1C307,64.6,306.4,64.3,306.1,63.9z M308,61.4
			c0.3,0,0.6-0.2,0.9-0.6c-0.1-0.9-0.5-1.2-0.9-1.2s-0.7,0.3-0.7,0.9C307.2,61.2,307.5,61.4,308,61.4z"/>
		<path d="M310.8,61.6c0-1.9,0.8-2.9,2-2.9s2,1,2,2.9s-0.8,3-2,3S310.8,63.6,310.8,61.6z M313.6,61.6c0-1.6-0.3-1.9-0.8-1.9
			c-0.4,0-0.8,0.4-0.8,1.9c0,1.6,0.4,2,0.8,2C313.3,63.6,313.6,63.2,313.6,61.6z"/>
		<path d="M315.6,61.8c0-2.1,1.1-3.1,2.3-3.1c0.8,0,1.3,0.3,1.7,0.7l-0.7,0.8c-0.2-0.2-0.6-0.4-0.9-0.4c-0.6,0-1.1,0.4-1.2,1.8
			c0.3-0.4,0.8-0.6,1.1-0.6c1,0,1.7,0.6,1.7,1.8c0,1.2-0.9,1.9-1.9,1.9C316.6,64.6,315.6,63.8,315.6,61.8z M316.8,62.4
			c0.1,0.9,0.5,1.2,0.9,1.2s0.7-0.3,0.7-0.9s-0.3-0.8-0.7-0.8C317.4,61.9,317,62,316.8,62.4z"/>
		<path d="M320.4,65.6c0.7-0.2,1-0.6,1-1.1c0,0,0,0-0.1,0c-0.4,0-0.8-0.3-0.8-0.7c0-0.5,0.4-0.8,0.8-0.8c0.6,0,0.9,0.5,0.9,1.3
			c0,1-0.6,1.7-1.6,2.1L320.4,65.6z"/>
		<path d="M323,63.9l0.7-0.8c0.2,0.2,0.6,0.4,0.9,0.4c0.6,0,1.1-0.5,1.2-1.8c-0.3,0.4-0.8,0.6-1.1,0.6c-1,0-1.7-0.6-1.7-1.8
			c0-1.2,0.9-1.9,1.9-1.9c1.1,0,2.2,0.8,2.2,2.8c0,2.1-1.1,3.1-2.3,3.1C324,64.6,323.4,64.3,323,63.9z M324.9,61.4
			c0.3,0,0.6-0.2,0.9-0.6c-0.1-0.9-0.5-1.2-0.9-1.2s-0.7,0.3-0.7,0.9C324.2,61.2,324.5,61.4,324.9,61.4z"/>
		<path d="M327.8,63c0-0.7,0.4-1.1,1-1.4l0,0c-0.4-0.3-0.8-0.7-0.8-1.4c0-1,0.8-1.6,1.8-1.6s1.7,0.6,1.7,1.6c0,0.5-0.4,1-0.7,1.3
			l0,0c0.5,0.3,1,0.7,1,1.5c0,0.9-0.8,1.6-2,1.6C328.6,64.6,327.8,64,327.8,63z M330.6,63c0-0.5-0.5-0.7-1.2-1
			c-0.3,0.2-0.4,0.6-0.4,0.9c0,0.5,0.4,0.8,0.9,0.8C330.2,63.7,330.6,63.5,330.6,63z M330.5,60.3c0-0.4-0.3-0.7-0.7-0.7
			c-0.4,0-0.6,0.2-0.6,0.7s0.4,0.7,1,0.9C330.4,60.9,330.5,60.6,330.5,60.3z"/>
		<path d="M334.8,63.1h-2.5v-0.9l2.1-3.4h1.6v3.3h0.7v1H336v1.4h-1.2V63.1z M334.8,62.1v-0.9c0-0.4,0-0.9,0.1-1.3l0,0
			c-0.1,0.3-0.3,0.6-0.5,1l-0.8,1.2C333.6,62.1,334.8,62.1,334.8,62.1z"/>
	</g>
	<g>
		<path d="M385.5,63.9l0.7-0.8c0.2,0.2,0.6,0.4,0.9,0.4c0.6,0,1.1-0.5,1.2-1.8c-0.3,0.4-0.8,0.6-1.1,0.6c-1,0-1.7-0.6-1.7-1.8
			c0-1.2,0.9-1.9,1.9-1.9c1.1,0,2.2,0.8,2.2,2.8c0,2.1-1.1,3.1-2.3,3.1C386.4,64.6,385.8,64.3,385.5,63.9z M387.3,61.4
			c0.3,0,0.6-0.2,0.9-0.6c-0.1-0.9-0.5-1.2-0.9-1.2s-0.7,0.3-0.7,0.9C386.6,61.2,386.9,61.4,387.3,61.4z"/>
		<path d="M392.5,63.1H390v-0.9l2.1-3.4h1.6v3.3h0.7v1h-0.7v1.4h-1.2V63.1z M392.5,62.1v-0.9c0-0.4,0-0.9,0.1-1.3l0,0
			c-0.1,0.3-0.3,0.6-0.5,1l-0.8,1.2C391.3,62.1,392.5,62.1,392.5,62.1z"/>
		<path d="M397.5,59.9h-2.6v-1.1h4v0.8c-1.3,1.6-1.5,2.7-1.6,4.9H396C396.1,62.6,396.5,61.4,397.5,59.9z"/>
		<path d="M399.7,65.6c0.7-0.2,1-0.6,1-1.1c0,0,0,0-0.1,0c-0.4,0-0.8-0.3-0.8-0.7c0-0.5,0.4-0.8,0.8-0.8c0.6,0,0.9,0.5,0.9,1.3
			c0,1-0.6,1.7-1.6,2.1L399.7,65.6z"/>
		<path d="M402.2,63.8l0.6-0.8c0.3,0.3,0.8,0.6,1.3,0.6c0.6,0,0.9-0.2,0.9-0.7s-0.3-0.8-1.5-0.8v-0.9c1,0,1.4-0.3,1.4-0.8
			c0-0.4-0.3-0.6-0.7-0.6c-0.4,0-0.7,0.2-1.1,0.5l-0.7-0.9c0.5-0.5,1.1-0.7,1.8-0.7c1.2,0,2,0.6,2,1.6c0,0.6-0.3,1-1,1.3l0,0
			c0.7,0.2,1.1,0.7,1.1,1.4c0,1.1-1,1.7-2.1,1.7C403.3,64.6,402.6,64.3,402.2,63.8z"/>
		<path d="M407.2,63c0-0.7,0.4-1.1,1-1.4l0,0c-0.4-0.3-0.8-0.7-0.8-1.4c0-1,0.8-1.6,1.8-1.6s1.7,0.6,1.7,1.6c0,0.5-0.4,1-0.7,1.3
			l0,0c0.5,0.3,1,0.7,1,1.5c0,0.9-0.8,1.6-2,1.6C408,64.6,407.2,64,407.2,63z M409.9,63c0-0.5-0.5-0.7-1.2-1
			c-0.3,0.2-0.4,0.6-0.4,0.9c0,0.5,0.4,0.8,0.9,0.8C409.6,63.7,409.9,63.5,409.9,63z M409.9,60.3c0-0.4-0.3-0.7-0.7-0.7
			c-0.4,0-0.6,0.2-0.6,0.7s0.4,0.7,1,0.9C409.7,60.9,409.9,60.6,409.9,60.3z"/>
		<path d="M411.7,63.8l0.6-0.8c0.3,0.3,0.8,0.6,1.3,0.6c0.6,0,0.9-0.2,0.9-0.7s-0.3-0.8-1.5-0.8v-0.9c1,0,1.4-0.3,1.4-0.8
			c0-0.4-0.3-0.6-0.7-0.6c-0.4,0-0.7,0.2-1.1,0.5l-0.7-0.8c0.5-0.5,1.1-0.7,1.8-0.7c1.2,0,2,0.6,2,1.6c0,0.6-0.3,1-1,1.3l0,0
			c0.7,0.2,1.1,0.7,1.1,1.4c0,1.1-1,1.7-2.1,1.7C412.8,64.6,412.1,64.3,411.7,63.8z"/>
	</g>
	<g>
		<path d="M464.8,63.9l0.7-0.8c0.2,0.2,0.5,0.4,0.9,0.4c0.6,0,1.1-0.5,1.2-1.8c-0.3,0.4-0.8,0.6-1.1,0.6c-1,0-1.7-0.6-1.7-1.8
			c0-1.2,0.9-1.9,1.9-1.9c1.1,0,2.2,0.8,2.2,2.8c0,2.1-1.1,3.1-2.3,3.1C465.7,64.6,465.2,64.3,464.8,63.9z M466.7,61.4
			c0.3,0,0.6-0.2,0.9-0.6c-0.1-0.9-0.5-1.2-0.9-1.2s-0.7,0.3-0.7,0.9C466,61.2,466.3,61.4,466.7,61.4z"/>
		<path d="M469.4,63.8L470,63c0.3,0.3,0.8,0.6,1.3,0.6c0.6,0,0.9-0.2,0.9-0.7s-0.3-0.8-1.5-0.8v-0.9c1,0,1.4-0.3,1.4-0.8
			c0-0.4-0.3-0.6-0.7-0.6c-0.4,0-0.7,0.2-1.1,0.5l-0.7-0.8c0.5-0.5,1.1-0.7,1.8-0.7c1.2,0,2,0.6,2,1.6c0,0.6-0.3,1-1,1.3l0,0
			c0.7,0.2,1.1,0.7,1.1,1.4c0,1.1-1,1.7-2.1,1.7C470.5,64.6,469.8,64.3,469.4,63.8z"/>
		<path d="M474.2,63.8l0.6-0.8c0.3,0.3,0.7,0.6,1.2,0.6c0.6,0,1-0.3,1-0.9s-0.4-0.9-0.9-0.9c-0.3,0-0.5,0.1-0.8,0.3l-0.6-0.4
			l0.2-2.9h3.2v1.1H476l-0.1,1.1c0.2-0.1,0.4-0.1,0.6-0.1c1,0,1.8,0.6,1.8,1.8c0,1.3-1,2-2.1,2C475.2,64.6,474.6,64.3,474.2,63.8z"
			/>
		<path d="M479.1,65.6c0.7-0.2,1-0.6,1-1.1c0,0,0,0-0.1,0c-0.4,0-0.8-0.3-0.8-0.7c0-0.5,0.4-0.8,0.8-0.8c0.6,0,0.9,0.5,0.9,1.3
			c0,1-0.6,1.7-1.6,2.1L479.1,65.6z"/>
		<path d="M481.8,61.8c0-2.1,1.1-3.1,2.3-3.1c0.8,0,1.3,0.3,1.7,0.7l-0.7,0.8c-0.2-0.2-0.6-0.4-0.9-0.4c-0.6,0-1.1,0.4-1.2,1.8
			c0.3-0.4,0.8-0.6,1.1-0.6c1,0,1.7,0.6,1.7,1.8c0,1.2-0.9,1.9-1.9,1.9C482.8,64.6,481.8,63.8,481.8,61.8z M483,62.4
			c0.1,0.9,0.5,1.2,0.9,1.2s0.7-0.3,0.7-0.9s-0.3-0.8-0.7-0.8C483.6,61.9,483.2,62,483,62.4z"/>
		<path d="M486.5,63c0-0.7,0.4-1.1,1-1.4l0,0c-0.4-0.3-0.8-0.7-0.8-1.4c0-1,0.8-1.6,1.8-1.6s1.7,0.6,1.7,1.6c0,0.5-0.4,1-0.7,1.3
			l0,0c0.5,0.3,1,0.7,1,1.5c0,0.9-0.8,1.6-2,1.6C487.4,64.6,486.5,64,486.5,63z M489.3,63c0-0.5-0.5-0.7-1.2-1
			c-0.3,0.2-0.4,0.6-0.4,0.9c0,0.5,0.4,0.8,0.9,0.8C489,63.7,489.3,63.5,489.3,63z M489.2,60.3c0-0.4-0.3-0.7-0.7-0.7
			c-0.4,0-0.6,0.2-0.6,0.7s0.4,0.7,1,0.9C489.1,60.9,489.2,60.6,489.2,60.3z"/>
		<path d="M491.3,63c0-0.7,0.4-1.1,1-1.4l0,0c-0.4-0.3-0.8-0.7-0.8-1.4c0-1,0.8-1.6,1.8-1.6s1.7,0.6,1.7,1.6c0,0.5-0.4,1-0.7,1.3
			l0,0c0.5,0.3,1,0.7,1,1.5c0,0.9-0.8,1.6-2,1.6C492.1,64.6,491.3,64,491.3,63z M494.1,63c0-0.5-0.5-0.7-1.2-1
			c-0.3,0.2-0.4,0.6-0.4,0.9c0,0.5,0.4,0.8,0.9,0.8C493.7,63.7,494.1,63.5,494.1,63z M494,60.3c0-0.4-0.3-0.7-0.7-0.7
			c-0.4,0-0.6,0.2-0.6,0.7s0.4,0.7,1,0.9C493.9,60.9,494,60.6,494,60.3z"/>
	</g>
	<g>
		<path class="st1" d="M3,84.5H1.2v-1.2h5.1v1.2H4.5v5.3H3C3,89.8,3,84.5,3,84.5z"/>
		<path class="st1" d="M7,86.5c0-2.1,1.2-3.3,3-3.3s3,1.2,3,3.3c0,2.1-1.2,3.4-3,3.4C8.2,89.9,7,88.6,7,86.5z M11.4,86.5
			c0-1.3-0.6-2.1-1.4-2.1c-0.9,0-1.4,0.8-1.4,2.1c0,1.3,0.6,2.1,1.4,2.1C10.9,88.6,11.4,87.8,11.4,86.5z"/>
		<path class="st1" d="M15.4,84.5h-1.8v-1.2h5.1v1.2h-1.8v5.3h-1.5V84.5z"/>
		<path class="st1" d="M20.9,83.2h1.8l2,6.5h-1.6l-0.4-1.5h-2l-0.4,1.5h-1.5L20.9,83.2z M21.1,87.1h1.4l-0.2-0.6
			c-0.2-0.7-0.4-1.4-0.5-2.1l0,0c-0.2,0.7-0.3,1.4-0.5,2.1L21.1,87.1z"/>
		<path class="st1" d="M25.5,83.2H27v5.3h2.6v1.2h-4L25.5,83.2L25.5,83.2z"/>
		<path class="st1" d="M32.6,83.2h2.3c1.4,0,2.5,0.5,2.5,2c0,1-0.5,1.6-1.2,1.9l1.5,2.6h-1.6l-1.2-2.3h-0.8v2.3h-1.5V83.2z
			 M34.9,86.2c0.8,0,1.2-0.3,1.2-1s-0.5-0.8-1.2-0.8h-0.8v1.8H34.9z"/>
		<path class="st1" d="M38.8,83.2h4.1v1.2h-2.6v1.3h2.2v1.2h-2.2v1.5H43v1.2h-4.2V83.2z"/>
		<path class="st1" d="M44.3,83.2h4.1v1.2h-2.6v1.5h2.3v1.2h-2.3v2.5h-1.5V83.2z"/>
		<path class="st1" d="M49.5,83.2H51v6.5h-1.5V83.2z"/>
		<path class="st1" d="M52.5,83.2H54l1.7,3.2l0.6,1.4l0,0c-0.1-0.7-0.2-1.6-0.2-2.4v-2.3h1.4v6.5H56l-1.6-3.1l-0.6-1.4l0,0
			c0.1,0.7,0.2,1.6,0.2,2.4v2.3h-1.4v-6.6H52.5z"/>
		<path class="st1" d="M59.2,83.2h4.1v1.2h-2.6v1.3h2.2v1.2h-2.2v1.5h2.7v1.2h-4.2V83.2z"/>
		<path class="st1" d="M64.6,83.2h1.8c2,0,3.3,1,3.3,3.2s-1.3,3.3-3.2,3.3h-1.9C64.6,89.7,64.6,83.2,64.6,83.2z M66.4,88.6
			c1.1,0,1.8-0.5,1.8-2.1s-0.7-2-1.8-2h-0.3v4.1H66.4z"/>
		<path class="st1" d="M73,83.2h1.6l1,2.9c0.1,0.4,0.3,0.8,0.4,1.2l0,0c0.1-0.4,0.2-0.8,0.4-1.2l1-2.9H79v6.5h-1.3v-2.3
			c0-0.6,0.1-1.6,0.2-2.2l0,0l-0.5,1.5l-1,2.5h-0.8l-0.9-2.5l-0.5-1.5l0,0c0.1,0.6,0.2,1.6,0.2,2.2v2.4h-1.3L73,83.2L73,83.2z"/>
		<path class="st1" d="M80.6,83.2h4.1v1.2h-2.6v1.3h2.2v1.2h-2.2v1.5h2.7v1.2h-4.2V83.2z"/>
		<path class="st1" d="M87.4,84.5h-1.8v-1.2h5.1v1.2h-1.8v5.3h-1.5V84.5z"/>
		<path class="st1" d="M92.9,83.2h1.8l2,6.5h-1.6l-0.4-1.5h-2l-0.4,1.5h-1.5L92.9,83.2z M93,87.1h1.4l-0.2-0.6
			c-0.2-0.7-0.4-1.4-0.5-2.1l0,0c-0.2,0.7-0.3,1.4-0.5,2.1L93,87.1z"/>
		<path class="st1" d="M97.4,83.2h1.5v5.3h2.6v1.2h-4L97.4,83.2L97.4,83.2z"/>
		<path class="st1" d="M102.7,85.8l0.6-1l-1.1-0.5l0.2-0.7l1.2,0.2l0.1-1.2h0.8l0.1,1.2l1.2-0.3l0.2,0.7l-1.1,0.5l0.6,1l-0.6,0.4
			l-0.8-0.9l-0.8,0.9L102.7,85.8z"/>
		<path class="st1" d="M109.1,87c0-1.8,0.5-3.2,1.3-4.6l0.9,0.4c-0.7,1.3-1,2.8-1,4.2s0.3,2.9,1,4.2l-0.9,0.4
			C109.6,90.2,109.1,88.7,109.1,87z"/>
		<path class="st1" d="M112.6,83.2h1.6l1,2.9c0.1,0.4,0.3,0.8,0.4,1.2l0,0c0.1-0.4,0.2-0.8,0.4-1.2l1-2.9h1.6v6.5h-1.3v-2.3
			c0-0.6,0.1-1.6,0.2-2.2l0,0l-0.5,1.5l-0.9,2.5h-0.8l-0.9-2.5l-0.5-1.5l0,0c0.1,0.6,0.2,1.6,0.2,2.2v2.4h-1.3v-6.6H112.6z"/>
		<path class="st1" d="M121.5,84.5h-1.8v-1.2h5.1v1.2H123v5.3h-1.5V84.5z"/>
		<path class="st1" d="M125.5,91.2c0.7-1.3,1.1-2.8,1.1-4.2s-0.3-2.9-1.1-4.2l0.9-0.4c0.8,1.4,1.3,2.8,1.3,4.6s-0.5,3.2-1.3,4.6
			L125.5,91.2z"/>
	</g>
	<rect x="417.7" y="99.5" class="st1" width="79.4" height="12.4"/>
	<path class="st2" d="M417.7,136.8h79.4v12.4h-79.4V136.8z M417.7,124.4h79.4v12.4h-79.4V124.4z M417.7,111.9h79.4v12.5h-79.4V111.9
		z"/>
	<line class="st3" x1="417.7" y1="111.9" x2="497.1" y2="111.9"/>
	<line class="st3" x1="417.7" y1="136.8" x2="497.1" y2="136.8"/>
	<line class="st3" x1="1" y1="124.4" x2="100" y2="124.4"/>
	<line class="st3" x1="100.5" y1="124.4" x2="179.3" y2="124.4"/>
	<line class="st3" x1="179.8" y1="124.4" x2="258.7" y2="124.4"/>
	<line class="st3" x1="259.2" y1="124.4" x2="338.1" y2="124.4"/>
	<line class="st3" x1="338.6" y1="124.4" x2="417.4" y2="124.4"/>
	<line class="st3" x1="417.9" y1="124.4" x2="497.1" y2="124.4"/>
	<line class="st3" x1="1" y1="149.2" x2="100.2" y2="149.2"/>
	<line class="st3" x1="100.2" y1="149.2" x2="179.6" y2="149.2"/>
	<line class="st3" x1="179.6" y1="149.2" x2="259" y2="149.2"/>
	<line class="st3" x1="259" y1="149.2" x2="338.3" y2="149.2"/>
	<line class="st3" x1="338.3" y1="149.2" x2="417.7" y2="149.2"/>
	<line class="st3" x1="417.7" y1="149.2" x2="497.1" y2="149.2"/>
	<line class="st4" x1="417.7" y1="124.4" x2="417.7" y2="112.2"/>
	<line class="st4" x1="417.7" y1="136.5" x2="417.7" y2="124.4"/>
	<line class="st4" x1="417.7" y1="148.9" x2="417.7" y2="137"/>
	<line class="st3" x1="417.7" y1="99.5" x2="497.1" y2="99.5"/>
	<line class="st3" x1="1" y1="99.5" x2="100.2" y2="99.5"/>
	<line class="st3" x1="100.2" y1="99.5" x2="179.6" y2="99.5"/>
	<line class="st4" x1="100.2" y1="111.7" x2="100.2" y2="99.8"/>
	<line class="st3" x1="179.6" y1="99.5" x2="259" y2="99.5"/>
	<line class="st3" x1="259" y1="99.5" x2="338.3" y2="99.5"/>
	<line class="st4" x1="179.6" y1="111.7" x2="179.6" y2="99.8"/>
	<line class="st4" x1="259" y1="111.7" x2="259" y2="99.8"/>
	<line class="st4" x1="338.3" y1="111.7" x2="338.3" y2="99.8"/>
	<line class="st4" x1="417.7" y1="111.7" x2="417.7" y2="99.8"/>
	<line class="st3" x1="338.3" y1="99.5" x2="417.7" y2="99.5"/>
	<line class="st3" x1="338.3" y1="111.9" x2="417.7" y2="111.9"/>
	<line class="st3" x1="338.3" y1="136.8" x2="417.7" y2="136.8"/>
	<line class="st3" x1="100.2" y1="111.9" x2="179.6" y2="111.9"/>
	<line class="st3" x1="100.2" y1="136.8" x2="179.6" y2="136.8"/>
	<line class="st3" x1="179.6" y1="111.9" x2="259" y2="111.9"/>
	<line class="st3" x1="259" y1="111.9" x2="338.3" y2="111.9"/>
	<line class="st3" x1="179.6" y1="136.8" x2="259" y2="136.8"/>
	<line class="st3" x1="259" y1="136.8" x2="338.3" y2="136.8"/>
	<line class="st4" x1="179.6" y1="124.4" x2="179.6" y2="112.2"/>
	<line class="st4" x1="259" y1="124.4" x2="259" y2="112.2"/>
	<line class="st4" x1="338.3" y1="124.4" x2="338.3" y2="112.2"/>
	<line class="st4" x1="179.6" y1="136.5" x2="179.6" y2="124.4"/>
	<line class="st4" x1="259" y1="136.5" x2="259" y2="124.4"/>
	<line class="st4" x1="338.3" y1="136.5" x2="338.3" y2="124.4"/>
	<line class="st4" x1="179.6" y1="148.9" x2="179.6" y2="137"/>
	<line class="st4" x1="259" y1="148.9" x2="259" y2="137"/>
	<line class="st4" x1="338.3" y1="148.9" x2="338.3" y2="137"/>
	<line class="st3" x1="1" y1="111.9" x2="100.2" y2="111.9"/>
	<line class="st3" x1="1" y1="136.8" x2="100.2" y2="136.8"/>
	<line class="st4" x1="100.2" y1="124.4" x2="100.2" y2="112.2"/>
	<line class="st4" x1="100.2" y1="136.5" x2="100.2" y2="124.4"/>
	<line class="st4" x1="100.2" y1="148.9" x2="100.2" y2="137"/>
	<g>
		<path d="M148.6,103.2h3.7v1.1h-2.4v1.4h2v1.1h-2v2.3h-1.3V103.2z"/>
		<path d="M154.3,107l-1.8-3.8h1.4l0.5,1.4c0.2,0.4,0.3,0.8,0.5,1.3l0,0c0.2-0.5,0.3-0.9,0.5-1.3l0.5-1.4h1.4l-1.8,3.8v2.1h-1.3V107
			H154.3z"/>
		<path d="M159.5,108.3c1.5-1.4,2.5-2.4,2.5-3.2c0-0.6-0.3-0.9-0.8-0.9c-0.4,0-0.7,0.3-1,0.6l-0.7-0.7c0.6-0.6,1.1-0.9,1.9-0.9
			c1.1,0,1.9,0.7,1.9,1.8c0,1-0.9,2-1.8,3c0.3,0,0.7-0.1,1-0.1h1.2v1.1h-4v-0.7H159.5z"/>
		<path d="M164.2,106.2c0-1.9,0.8-2.9,2-2.9s2,1,2,2.9s-0.8,3-2,3S164.2,108.2,164.2,106.2z M167.1,106.2c0-1.6-0.3-1.9-0.8-1.9
			c-0.4,0-0.8,0.4-0.8,1.9c0,1.6,0.4,2,0.8,2S167.1,107.8,167.1,106.2z"/>
		<path d="M169.3,108h1.2v-3.3h-1.1v-0.8c0.6-0.1,1-0.3,1.4-0.5h1v4.6h1.1v1.1h-3.6L169.3,108L169.3,108z"/>
		<path d="M173.6,108.4l0.6-0.8c0.3,0.3,0.7,0.6,1.2,0.6c0.6,0,1-0.3,1-0.9s-0.4-0.9-0.9-0.9c-0.3,0-0.5,0.1-0.8,0.3l-0.6-0.4
			l0.2-2.9h3.2v1.1h-2.1l-0.1,1.1c0.2-0.1,0.4-0.1,0.6-0.1c1,0,1.8,0.6,1.8,1.8c0,1.3-1,2-2.1,2
			C174.7,109.2,174.1,108.9,173.6,108.4z"/>
	</g>
	<g>
		<path d="M228,103.2h3.7v1.1h-2.4v1.4h2v1.1h-2v2.3H228V103.2z"/>
		<path d="M233.7,107l-1.8-3.8h1.4l0.5,1.4c0.2,0.4,0.3,0.8,0.5,1.3l0,0c0.2-0.5,0.3-0.9,0.5-1.3l0.5-1.4h1.4l-1.8,3.8v2.1h-1.3V107
			H233.7z"/>
		<path d="M238.9,108.3c1.5-1.4,2.5-2.4,2.5-3.2c0-0.6-0.3-0.9-0.8-0.9c-0.4,0-0.7,0.3-1,0.6l-0.7-0.7c0.6-0.6,1.1-0.9,1.9-0.9
			c1.1,0,1.9,0.7,1.9,1.8c0,1-0.9,2-1.8,3c0.3,0,0.7-0.1,1-0.1h1.2v1.1h-4v-0.7H238.9z"/>
		<path d="M243.6,106.2c0-1.9,0.8-2.9,2-2.9s2,1,2,2.9s-0.8,3-2,3S243.6,108.2,243.6,106.2z M246.5,106.2c0-1.6-0.3-1.9-0.8-1.9
			c-0.4,0-0.8,0.4-0.8,1.9c0,1.6,0.4,2,0.8,2C246.1,108.2,246.5,107.8,246.5,106.2z"/>
		<path d="M248.7,108h1.2v-3.3h-1.1v-0.8c0.6-0.1,1-0.3,1.4-0.5h1v4.6h1.1v1.1h-3.6V108z"/>
		<path d="M253.2,106.4c0-2.1,1.1-3.1,2.3-3.1c0.8,0,1.3,0.3,1.7,0.7l-0.7,0.8c-0.2-0.2-0.6-0.4-0.9-0.4c-0.6,0-1.1,0.4-1.2,1.8
			c0.3-0.4,0.8-0.6,1.1-0.6c1,0,1.7,0.6,1.7,1.8c0,1.2-0.9,1.9-1.9,1.9C254.2,109.2,253.2,108.4,253.2,106.4z M254.4,107
			c0.1,0.9,0.5,1.2,0.9,1.2s0.7-0.3,0.7-0.9s-0.3-0.8-0.7-0.8C255,106.5,254.6,106.6,254.4,107z"/>
	</g>
	<g>
		<path d="M307.4,103.2h3.7v1.1h-2.4v1.4h2v1.1h-2v2.3h-1.3V103.2z"/>
		<path d="M313.1,107l-1.8-3.8h1.4l0.5,1.4c0.2,0.4,0.3,0.8,0.5,1.3l0,0c0.2-0.5,0.3-0.9,0.5-1.3l0.5-1.4h1.4l-1.8,3.8v2.1H313
			L313.1,107L313.1,107z"/>
		<path d="M318.2,108.3c1.5-1.4,2.5-2.4,2.5-3.2c0-0.6-0.3-0.9-0.8-0.9c-0.4,0-0.7,0.3-1,0.6l-0.7-0.7c0.6-0.6,1.1-0.9,1.9-0.9
			c1.1,0,1.9,0.7,1.9,1.8c0,1-0.9,2-1.8,3c0.3,0,0.7-0.1,1-0.1h1.2v1.1h-4v-0.7H318.2z"/>
		<path d="M323,106.2c0-1.9,0.8-2.9,2-2.9s2,1,2,2.9s-0.8,3-2,3S323,108.2,323,106.2z M325.8,106.2c0-1.6-0.3-1.9-0.8-1.9
			c-0.4,0-0.8,0.4-0.8,1.9c0,1.6,0.4,2,0.8,2C325.5,108.2,325.8,107.8,325.8,106.2z"/>
		<path d="M328,108h1.2v-3.3h-1.1v-0.8c0.6-0.1,1-0.3,1.4-0.5h1v4.6h1.1v1.1H328V108z"/>
		<path d="M335.1,104.5h-2.6v-1.1h4v0.8c-1.3,1.6-1.5,2.7-1.6,4.9h-1.3C333.7,107.2,334,106,335.1,104.5z"/>
	</g>
	<g>
		<path d="M386.7,103.2h3.7v1.1H388v1.4h2v1.1h-2v2.3h-1.3L386.7,103.2L386.7,103.2z"/>
		<path d="M392.5,107l-1.8-3.8h1.4l0.5,1.4c0.2,0.4,0.3,0.8,0.5,1.3l0,0c0.2-0.5,0.3-0.9,0.5-1.3l0.5-1.4h1.4l-1.8,3.8v2.1h-1.3
			L392.5,107L392.5,107z"/>
		<path d="M397.6,108.3c1.5-1.4,2.5-2.4,2.5-3.2c0-0.6-0.3-0.9-0.8-0.9c-0.4,0-0.7,0.3-1,0.6l-0.7-0.7c0.6-0.6,1.1-0.9,1.9-0.9
			c1.1,0,1.9,0.7,1.9,1.8c0,1-0.9,2-1.8,3c0.3,0,0.7-0.1,1-0.1h1.2v1.1h-4v-0.7H397.6z"/>
		<path d="M402.4,106.2c0-1.9,0.8-2.9,2-2.9s2,1,2,2.9s-0.8,3-2,3S402.4,108.2,402.4,106.2z M405.2,106.2c0-1.6-0.3-1.9-0.8-1.9
			c-0.4,0-0.8,0.4-0.8,1.9c0,1.6,0.4,2,0.8,2C404.9,108.2,405.2,107.8,405.2,106.2z"/>
		<path d="M407.4,108h1.2v-3.3h-1.1v-0.8c0.6-0.1,1-0.3,1.4-0.5h1v4.6h1.1v1.1h-3.6V108z"/>
		<path d="M411.9,107.6c0-0.7,0.4-1.1,1-1.4l0,0c-0.4-0.3-0.8-0.7-0.8-1.4c0-1,0.8-1.6,1.8-1.6s1.7,0.6,1.7,1.6c0,0.5-0.4,1-0.7,1.3
			l0,0c0.5,0.3,1,0.7,1,1.5c0,0.9-0.8,1.6-2,1.6C412.8,109.2,411.9,108.6,411.9,107.6z M414.7,107.6c0-0.5-0.5-0.7-1.2-1
			c-0.3,0.2-0.4,0.6-0.4,0.9c0,0.5,0.4,0.8,0.9,0.8C414.4,108.3,414.7,108.1,414.7,107.6z M414.6,104.9c0-0.4-0.3-0.7-0.7-0.7
			c-0.4,0-0.6,0.2-0.6,0.7s0.4,0.7,1,0.9C414.5,105.5,414.6,105.2,414.6,104.9z"/>
	</g>
	<g>
		<path class="st5" d="M466.1,103.2h3.7v1.1h-2.4v1.4h2v1.1h-2v2.3h-1.3V103.2z"/>
		<path class="st5" d="M471.8,107l-1.8-3.8h1.4l0.5,1.4c0.2,0.4,0.3,0.8,0.5,1.3l0,0c0.2-0.5,0.3-0.9,0.5-1.3l0.5-1.4h1.4L473,107
			v2.1h-1.3L471.8,107L471.8,107z"/>
		<path class="st5" d="M477,108.3c1.5-1.4,2.5-2.4,2.5-3.2c0-0.6-0.3-0.9-0.8-0.9c-0.4,0-0.7,0.3-1,0.6l-0.7-0.7
			c0.6-0.6,1.1-0.9,1.9-0.9c1.1,0,1.9,0.7,1.9,1.8c0,1-0.9,2-1.8,3c0.3,0,0.7-0.1,1-0.1h1.2v1.1h-4v-0.7H477z"/>
		<path class="st5" d="M481.7,106.2c0-1.9,0.8-2.9,2-2.9s2,1,2,2.9s-0.8,3-2,3C482.5,109.2,481.7,108.2,481.7,106.2z M484.6,106.2
			c0-1.6-0.3-1.9-0.8-1.9c-0.4,0-0.8,0.4-0.8,1.9c0,1.6,0.4,2,0.8,2C484.2,108.2,484.6,107.8,484.6,106.2z"/>
		<path class="st5" d="M486.8,108h1.2v-3.3h-1.1v-0.8c0.6-0.1,1-0.3,1.4-0.5h1v4.6h1.1v1.1h-3.6V108z"/>
		<path class="st5" d="M491.3,108.5l0.7-0.8c0.2,0.2,0.6,0.4,0.9,0.4c0.6,0,1.1-0.5,1.2-1.8c-0.3,0.4-0.8,0.6-1.1,0.6
			c-1,0-1.7-0.6-1.7-1.8c0-1.2,0.9-1.9,1.9-1.9c1.1,0,2.2,0.8,2.2,2.8c0,2.1-1.1,3.1-2.3,3.1C492.2,109.2,491.6,108.9,491.3,108.5z
			 M493.2,106c0.3,0,0.6-0.2,0.9-0.6c-0.1-0.9-0.5-1.2-0.9-1.2s-0.7,0.3-0.7,0.9C492.4,105.8,492.7,106,493.2,106z"/>
	</g>
	<g>
		<path d="M2.9,121.3l3.4-5.3H3.2v-0.4h3.6v0.2l-3.4,5.3h3.4v0.4h-4v-0.2H2.9z"/>
		<path d="M8,115.8c0-0.2,0.1-0.4,0.3-0.4c0.2,0,0.3,0.1,0.3,0.4c0,0.2-0.1,0.4-0.3,0.4S8,116,8,115.8z M8.1,117.2h0.4v4.3H8.1
			V117.2z"/>
		<path d="M10.2,117.2h0.3v0.7l0,0c0.4-0.4,0.9-0.8,1.5-0.8c0.9,0,1.3,0.5,1.3,1.7v2.8h-0.4v-2.7c0-0.9-0.3-1.4-1-1.4
			c-0.5,0-0.9,0.3-1.4,0.8v3.3h-0.4v-4.4H10.2z"/>
		<path d="M14.6,119.4c0-1.5,0.9-2.3,2-2.3c0.6,0,1,0.3,1.3,0.5l-0.2,0.3c-0.3-0.3-0.6-0.5-1-0.5c-0.9,0-1.6,0.8-1.6,1.9
			c0,1.1,0.6,1.9,1.6,1.9c0.5,0,0.9-0.2,1.2-0.5l0.2,0.3c-0.4,0.3-0.8,0.6-1.4,0.6C15.4,121.6,14.6,120.8,14.6,119.4z"/>
	</g>
	<g>
		<path d="M153.8,116.1h-3v-0.4h3.5v0.2c-1.4,1.8-1.7,3.3-1.8,5.5h-0.4C152.1,119.2,152.6,117.7,153.8,116.1z"/>
		<path d="M154.9,120.8l0.2-0.3c0.3,0.4,0.8,0.7,1.6,0.7s1.3-0.5,1.3-1.3s-0.6-1.3-2-1.3v-0.4c1.3,0,1.8-0.6,1.8-1.3
			c0-0.6-0.5-1.1-1.2-1.1c-0.5,0-1,0.3-1.3,0.6l-0.2-0.3c0.4-0.4,0.9-0.7,1.6-0.7c0.9,0,1.6,0.5,1.6,1.4c0,0.8-0.5,1.2-1.1,1.4l0,0
			c0.7,0.2,1.3,0.7,1.3,1.5c0,1-0.8,1.6-1.8,1.6C155.8,121.6,155.3,121.2,154.9,120.8z"/>
		<path d="M159.2,120.8l0.2-0.3c0.3,0.4,0.8,0.7,1.6,0.7s1.3-0.5,1.3-1.3s-0.6-1.3-2-1.3v-0.4c1.3,0,1.8-0.6,1.8-1.3
			c0-0.6-0.5-1.1-1.2-1.1c-0.5,0-1,0.3-1.3,0.6l-0.2-0.3c0.4-0.4,0.9-0.7,1.6-0.7c0.9,0,1.6,0.5,1.6,1.4c0,0.8-0.5,1.2-1.1,1.4l0,0
			c0.7,0.2,1.3,0.7,1.3,1.5c0,1-0.8,1.6-1.8,1.6C160.1,121.6,159.6,121.2,159.2,120.8z"/>
		<path d="M163.7,122.6c0.4-0.2,0.7-0.6,0.7-1.1h-0.1c-0.2,0-0.4-0.1-0.4-0.4s0.2-0.4,0.4-0.4c0.3,0,0.5,0.2,0.5,0.6
			c0,0.7-0.4,1.2-0.9,1.5L163.7,122.6z"/>
		<path d="M165.6,120c0-0.8,0.6-1.3,1.2-1.6l0,0c-0.4-0.3-0.8-0.7-0.8-1.3c0-0.8,0.7-1.4,1.5-1.4c1,0,1.6,0.6,1.6,1.5
			c0,0.6-0.5,1.2-0.8,1.5l0,0c0.5,0.3,1,0.7,1,1.5s-0.7,1.5-1.7,1.5C166.4,121.6,165.6,121,165.6,120z M168.8,120.1
			c0-0.9-0.9-1.2-1.8-1.5c-0.6,0.3-1,0.8-1,1.5s0.6,1.3,1.4,1.3C168.2,121.3,168.8,120.8,168.8,120.1z M168.6,117.2
			c0-0.6-0.4-1.2-1.2-1.2c-0.6,0-1.1,0.5-1.1,1.1c0,0.8,0.8,1.1,1.5,1.4C168.3,118.1,168.6,117.7,168.6,117.2z"/>
		<path d="M170,118.6c0-1.9,0.6-3,1.7-3c1.1,0,1.7,1.1,1.7,3c0,1.9-0.6,3-1.7,3C170.6,121.6,170,120.5,170,118.6z M173,118.6
			c0-1.8-0.5-2.6-1.3-2.6s-1.3,0.9-1.3,2.6c0,1.8,0.5,2.7,1.3,2.7S173,120.4,173,118.6z"/>
		<path d="M174.1,120.8l0.2-0.3c0.3,0.4,0.8,0.7,1.6,0.7s1.3-0.5,1.3-1.3s-0.6-1.3-2-1.3v-0.4c1.3,0,1.8-0.6,1.8-1.3
			c0-0.6-0.5-1.1-1.2-1.1c-0.5,0-1,0.3-1.3,0.6l-0.1,0c0.4-0.4,0.9-0.7,1.6-0.7c0.9,0,1.6,0.5,1.6,1.4c0,0.8-0.5,1.2-1.1,1.4l0,0
			c0.7,0.2,1.3,0.7,1.3,1.5c0,1-0.8,1.6-1.8,1.6C175,121.6,174.5,121.2,174.1,120.8z"/>
	</g>
	<g>
		<path d="M233.1,116.1h-3v-0.4h3.5v0.2c-1.4,1.8-1.7,3.3-1.8,5.5h-0.4C231.5,119.2,232,117.7,233.1,116.1z"/>
		<path d="M234.2,120.9l0.2-0.3c0.3,0.4,0.8,0.7,1.6,0.7s1.4-0.6,1.4-1.5s-0.5-1.5-1.4-1.5c-0.4,0-0.7,0.2-1.1,0.4l-0.3-0.2l0.2-2.7
			h2.7v0.4h-2.3l-0.2,2.1c0.3-0.2,0.6-0.3,1-0.3c1,0,1.8,0.6,1.8,1.8s-0.9,1.9-1.8,1.9C235.1,121.6,234.6,121.2,234.2,120.9z"/>
		<path d="M238.7,120c0-0.8,0.6-1.3,1.2-1.6l0,0c-0.4-0.3-0.8-0.7-0.8-1.3c0-0.8,0.7-1.4,1.5-1.4c1,0,1.6,0.6,1.6,1.5
			c0,0.6-0.5,1.2-0.8,1.5l0,0c0.5,0.3,1,0.7,1,1.5s-0.7,1.5-1.7,1.5C239.5,121.6,238.7,121,238.7,120z M241.9,120.1
			c0-0.9-0.9-1.2-1.8-1.5c-0.6,0.3-1,0.8-1,1.5s0.6,1.3,1.4,1.3C241.3,121.3,241.9,120.8,241.9,120.1z M241.7,117.2
			c0-0.6-0.4-1.2-1.2-1.2c-0.6,0-1.1,0.5-1.1,1.1c0,0.8,0.8,1.1,1.5,1.4C241.4,118.1,241.7,117.7,241.7,117.2z"/>
		<path d="M243.1,122.6c0.4-0.2,0.7-0.6,0.7-1.1h-0.1c-0.2,0-0.4-0.1-0.4-0.4s0.2-0.4,0.4-0.4c0.3,0,0.5,0.2,0.5,0.6
			c0,0.7-0.4,1.2-0.9,1.5L243.1,122.6z"/>
		<path d="M245.1,121.1l0.2-0.3c0.3,0.3,0.6,0.5,1,0.5c0.9,0,1.7-0.7,1.7-2.8c-0.4,0.5-0.9,0.8-1.5,0.8c-1,0-1.6-0.6-1.6-1.8
			c0-1,0.7-1.8,1.6-1.8c1.1,0,1.9,1,1.9,2.7c0,2.4-1,3.3-2.1,3.3C245.8,121.6,245.4,121.4,245.1,121.1z M246.6,118.9
			c0.4,0,1-0.3,1.4-0.9c-0.1-1.2-0.5-2-1.5-2c-0.7,0-1.2,0.6-1.2,1.4C245.4,118.3,245.8,118.9,246.6,118.9z"/>
		<path d="M249.2,120.8l0.2-0.3c0.3,0.4,0.8,0.7,1.6,0.7c0.8,0,1.3-0.5,1.3-1.3s-0.6-1.3-2-1.3v-0.4c1.3,0,1.8-0.6,1.8-1.3
			c0-0.6-0.5-1.1-1.2-1.1c-0.5,0-1,0.3-1.3,0.6l-0.2,0c0.4-0.4,0.9-0.7,1.6-0.7c0.9,0,1.6,0.5,1.6,1.4c0,0.8-0.5,1.2-1.1,1.4l0,0
			c0.7,0.2,1.3,0.7,1.3,1.5c0,1-0.8,1.6-1.8,1.6C250.1,121.6,249.6,121.2,249.2,120.8z"/>
		<path d="M253.6,120c0-0.8,0.6-1.3,1.2-1.6l0,0c-0.4-0.3-0.8-0.7-0.8-1.3c0-0.8,0.7-1.4,1.5-1.4c1,0,1.6,0.6,1.6,1.5
			c0,0.6-0.5,1.2-0.8,1.5l0,0c0.5,0.3,1,0.7,1,1.5s-0.7,1.5-1.7,1.5C254.4,121.6,253.6,121,253.6,120z M256.8,120.1
			c0-0.9-0.9-1.2-1.8-1.5c-0.6,0.3-1,0.8-1,1.5s0.6,1.3,1.4,1.3C256.2,121.3,256.8,120.8,256.8,120.1z M256.6,117.2
			c0-0.6-0.4-1.2-1.2-1.2c-0.6,0-1.1,0.5-1.1,1.1c0,0.8,0.8,1.1,1.5,1.4C256.3,118.1,256.6,117.7,256.6,117.2z"/>
	</g>
	<g>
		<path d="M309.5,118.9c0-2.4,1-3.3,2.1-3.3c0.5,0,0.9,0.2,1.2,0.6l-0.2,0.3c-0.3-0.3-0.6-0.5-1-0.5c-0.9,0-1.7,0.7-1.7,2.8
			c0.4-0.5,0.9-0.8,1.4-0.8c1,0,1.6,0.6,1.6,1.8c0,1-0.7,1.8-1.6,1.8C310.3,121.6,309.5,120.7,309.5,118.9z M310,119.2
			c0.1,1.2,0.5,2,1.5,2c0.7,0,1.2-0.6,1.2-1.5s-0.4-1.4-1.2-1.4C310.9,118.4,310.4,118.6,310,119.2z"/>
		<path d="M316.8,116.1h-3v-0.4h3.5v0.2c-1.4,1.8-1.7,3.3-1.8,5.5h-0.4C315.2,119.2,315.7,117.7,316.8,116.1z"/>
		<path d="M318.5,121.2h1.4v-4.8h-1v-0.3c0.5-0.1,0.8-0.2,1.1-0.4h0.3v5.4h1.3v0.4h-3L318.5,121.2L318.5,121.2z"/>
		<path d="M322.4,122.6c0.4-0.2,0.7-0.6,0.7-1.1H323c-0.2,0-0.4-0.1-0.4-0.4s0.2-0.4,0.4-0.4c0.3,0,0.5,0.2,0.5,0.6
			c0,0.7-0.4,1.2-0.9,1.5L322.4,122.6z"/>
		<path d="M324.5,121.1l0.2-0.3c0.3,0.3,0.6,0.5,1,0.5c0.9,0,1.7-0.7,1.7-2.8c-0.4,0.5-0.9,0.8-1.5,0.8c-1,0-1.6-0.6-1.6-1.8
			c0-1,0.7-1.8,1.6-1.8c1.1,0,1.9,1,1.9,2.7c0,2.4-1,3.3-2.1,3.3C325.2,121.6,324.8,121.4,324.5,121.1z M326,118.9
			c0.4,0,1-0.3,1.4-0.9c-0.1-1.2-0.5-2-1.5-2c-0.7,0-1.2,0.6-1.2,1.4C324.8,118.3,325.1,118.9,326,118.9z"/>
		<path d="M328.7,120c0-0.8,0.6-1.3,1.2-1.6l0,0c-0.4-0.3-0.8-0.7-0.8-1.3c0-0.8,0.7-1.4,1.5-1.4c1,0,1.6,0.6,1.6,1.5
			c0,0.6-0.5,1.2-0.8,1.5l0,0c0.5,0.3,1,0.7,1,1.5s-0.7,1.5-1.7,1.5C329.4,121.6,328.7,121,328.7,120z M331.8,120.1
			c0-0.9-0.9-1.2-1.8-1.5c-0.6,0.3-1,0.8-1,1.5s0.6,1.3,1.4,1.3C331.3,121.3,331.8,120.8,331.8,120.1z M331.7,117.2
			c0-0.6-0.4-1.2-1.2-1.2c-0.6,0-1.1,0.5-1.1,1.1c0,0.8,0.8,1.1,1.5,1.4C331.4,118.1,331.7,117.7,331.7,117.2z"/>
		<path d="M333,120c0-0.8,0.6-1.3,1.2-1.6l0,0c-0.4-0.3-0.8-0.7-0.8-1.3c0-0.8,0.7-1.4,1.5-1.4c1,0,1.6,0.6,1.6,1.5
			c0,0.6-0.5,1.2-0.8,1.5l0,0c0.5,0.3,1,0.7,1,1.5s-0.7,1.5-1.7,1.5C333.7,121.6,333,121,333,120z M336.1,120.1
			c0-0.9-0.9-1.2-1.8-1.5c-0.6,0.3-1,0.8-1,1.5s0.6,1.3,1.4,1.3C335.6,121.3,336.1,120.8,336.1,120.1z M336,117.2
			c0-0.6-0.4-1.2-1.2-1.2c-0.6,0-1.1,0.5-1.1,1.1c0,0.8,0.8,1.1,1.5,1.4C335.7,118.1,336,117.7,336,117.2z"/>
	</g>
	<g>
		<path d="M391.9,116.1h-3v-0.4h3.5v0.2c-1.4,1.8-1.7,3.3-1.8,5.5h-0.4C390.2,119.2,390.7,117.7,391.9,116.1z"/>
		<path d="M393.3,121.1l0.2-0.3c0.3,0.3,0.6,0.5,1,0.5c0.9,0,1.7-0.7,1.7-2.8c-0.4,0.5-0.9,0.8-1.5,0.8c-1,0-1.6-0.6-1.6-1.8
			c0-1,0.7-1.8,1.6-1.8c1.1,0,1.9,1,1.9,2.7c0,2.4-1,3.3-2.1,3.3C393.9,121.6,393.5,121.4,393.3,121.1z M394.8,118.9
			c0.4,0,1-0.3,1.4-0.9c-0.1-1.2-0.5-2-1.5-2c-0.7,0-1.2,0.6-1.2,1.4C393.5,118.3,393.9,118.9,394.8,118.9z"/>
		<path d="M397.8,121.2h1.3v-4.8h-1v-0.3c0.5-0.1,0.8-0.2,1.1-0.4h0.3v5.4h1.3v0.4h-3L397.8,121.2L397.8,121.2z"/>
		<path d="M401.8,122.6c0.4-0.2,0.7-0.6,0.7-1.1h-0.1c-0.2,0-0.4-0.1-0.4-0.4s0.2-0.4,0.4-0.4c0.3,0,0.5,0.2,0.5,0.6
			c0,0.7-0.4,1.2-0.9,1.5L401.8,122.6z"/>
		<path d="M406.1,119.8h-2.6v-0.2l2.7-3.8h0.4v3.7h0.9v0.3h-0.9v1.7h-0.4v-1.7H406.1z M406.1,119.5v-2.1c0-0.3,0-0.7,0-1l0,0
			c-0.1,0.2-0.3,0.5-0.5,0.7l-1.7,2.4L406.1,119.5L406.1,119.5z"/>
		<path d="M408.1,118.9c0-2.4,1-3.3,2.1-3.3c0.5,0,0.9,0.2,1.2,0.6l-0.2,0.3c-0.3-0.3-0.6-0.5-1-0.5c-0.9,0-1.7,0.7-1.7,2.8
			c0.4-0.5,0.9-0.8,1.4-0.8c1,0,1.6,0.6,1.6,1.8c0,1-0.7,1.8-1.6,1.8C408.9,121.6,408.1,120.7,408.1,118.9z M408.5,119.2
			c0.1,1.2,0.5,2,1.5,2c0.7,0,1.2-0.6,1.2-1.5s-0.4-1.4-1.2-1.4C409.5,118.4,409,118.6,408.5,119.2z"/>
		<path d="M412.7,121.2h1.4v-4.8h-1v-0.3c0.5-0.1,0.8-0.2,1.1-0.4h0.3v5.4h1.3v0.4h-3L412.7,121.2L412.7,121.2z"/>
	</g>
	<g>
		<path d="M468.3,118.9c0-2.4,1-3.3,2.1-3.3c0.5,0,0.9,0.2,1.2,0.6l-0.2,0.3c-0.3-0.3-0.6-0.5-1-0.5c-0.9,0-1.7,0.7-1.7,2.8
			c0.4-0.5,0.9-0.8,1.4-0.8c1,0,1.6,0.6,1.6,1.8c0,1-0.7,1.8-1.6,1.8C469,121.6,468.3,120.7,468.3,118.9z M468.7,119.2
			c0.1,1.2,0.5,2,1.5,2c0.7,0,1.2-0.6,1.2-1.5s-0.4-1.4-1.2-1.4C469.7,118.4,469.2,118.6,468.7,119.2z"/>
		<path d="M472.6,121.1l0.2-0.3c0.3,0.3,0.6,0.5,1,0.5c0.9,0,1.7-0.7,1.7-2.8c-0.4,0.5-0.9,0.8-1.5,0.8c-1,0-1.6-0.6-1.6-1.8
			c0-1,0.7-1.8,1.6-1.8c1.1,0,1.9,1,1.9,2.7c0,2.4-1,3.3-2.1,3.3C473.3,121.6,472.9,121.4,472.6,121.1z M474.2,118.9
			c0.4,0,1-0.3,1.4-0.9c-0.1-1.2-0.5-2-1.5-2c-0.7,0-1.2,0.6-1.2,1.4C472.9,118.3,473.3,118.9,474.2,118.9z"/>
		<path d="M476.9,118.9c0-2.4,1-3.3,2.1-3.3c0.5,0,0.9,0.2,1.2,0.6l-0.2,0.3c-0.3-0.3-0.6-0.5-1-0.5c-0.9,0-1.7,0.7-1.7,2.8
			c0.4-0.5,0.9-0.8,1.4-0.8c1,0,1.6,0.6,1.6,1.8c0,1-0.7,1.8-1.6,1.8C477.6,121.6,476.9,120.7,476.9,118.9z M477.3,119.2
			c0.1,1.2,0.5,2,1.5,2c0.7,0,1.2-0.6,1.2-1.5s-0.4-1.4-1.2-1.4C478.3,118.4,477.8,118.6,477.3,119.2z"/>
		<path d="M481.2,122.6c0.4-0.2,0.7-0.6,0.7-1.1h-0.1c-0.2,0-0.4-0.1-0.4-0.4s0.2-0.4,0.4-0.4c0.3,0,0.5,0.2,0.5,0.6
			c0,0.7-0.4,1.2-0.9,1.5L481.2,122.6z"/>
		<path d="M483.1,121.3c1.9-1.9,2.8-3,2.8-4c0-0.7-0.4-1.3-1.3-1.3c-0.5,0-1,0.3-1.3,0.8l-0.3-0.3c0.4-0.5,0.9-0.8,1.6-0.8
			c1,0,1.6,0.6,1.6,1.6c0,1.1-1,2.2-2.6,3.9c0.3,0,0.6,0,1,0h2v0.4h-3.5L483.1,121.3L483.1,121.3z"/>
		<path d="M487.4,120c0-0.8,0.6-1.3,1.2-1.6l0,0c-0.4-0.3-0.8-0.7-0.8-1.3c0-0.8,0.7-1.4,1.5-1.4c1,0,1.6,0.6,1.6,1.5
			c0,0.6-0.5,1.2-0.8,1.5l0,0c0.5,0.3,1,0.7,1,1.5s-0.7,1.5-1.7,1.5C488.2,121.6,487.4,121,487.4,120z M490.6,120.1
			c0-0.9-0.9-1.2-1.8-1.5c-0.6,0.3-1,0.8-1,1.5s0.6,1.3,1.4,1.3C490,121.3,490.6,120.8,490.6,120.1z M490.4,117.2
			c0-0.6-0.4-1.2-1.2-1.2c-0.6,0-1.1,0.5-1.1,1.1c0,0.8,0.8,1.1,1.5,1.4C490.1,118.1,490.4,117.7,490.4,117.2z"/>
		<path d="M491.6,120.8l0.2-0.3c0.3,0.4,0.8,0.7,1.6,0.7c0.8,0,1.3-0.5,1.3-1.3s-0.6-1.3-2-1.3v-0.4c1.3,0,1.8-0.6,1.8-1.3
			c0-0.6-0.5-1.1-1.2-1.1c-0.5,0-1,0.3-1.3,0.6l-0.2-0.3c0.4-0.4,0.9-0.7,1.6-0.7c0.9,0,1.6,0.5,1.6,1.4c0,0.8-0.5,1.2-1.1,1.4l0,0
			c0.7,0.2,1.3,0.7,1.3,1.5c0,1-0.8,1.6-1.8,1.6C492.5,121.6,492,121.2,491.6,120.8z"/>
	</g>
	<g>
		<path d="M3.3,128h0.4v5.6h2.7v0.4H3.2L3.3,128L3.3,128z"/>
		<path d="M7.1,131.8c0-1.4,0.9-2.3,1.9-2.3s1.7,0.7,1.7,2c0,0.1,0,0.2,0,0.3H7.6c0,1.1,0.7,1.9,1.6,1.9c0.5,0,0.8-0.2,1.2-0.4
			l0.2,0.3c-0.3,0.2-0.7,0.4-1.4,0.4C8,134,7.1,133.2,7.1,131.8z M10.3,131.5c0-1.1-0.5-1.7-1.3-1.7c-0.7,0-1.4,0.6-1.5,1.7H10.3z"
			/>
		<path d="M11.5,132.9c0-1,0.9-1.4,2.8-1.6c0-0.7-0.2-1.4-1-1.4c-0.6,0-1.1,0.3-1.4,0.5l-0.2-0.3c0.3-0.2,0.9-0.6,1.6-0.6
			c1,0,1.4,0.7,1.4,1.7v2.8h-0.3v-0.6l0,0c-0.4,0.4-1,0.7-1.5,0.7C12.1,134,11.5,133.7,11.5,132.9z M14.3,133v-1.5
			c-1.8,0.2-2.4,0.6-2.4,1.3c0,0.6,0.4,0.9,0.9,0.9S13.7,133.5,14.3,133z"/>
		<path d="M15.9,131.8c0-1.4,0.9-2.3,1.9-2.3c0.5,0,0.9,0.2,1.3,0.5v-0.8v-1.8h0.4v6.5h-0.3v-0.6l0,0c-0.4,0.4-0.8,0.7-1.4,0.7
			C16.6,134,15.9,133.2,15.9,131.8z M19.1,133v-2.6c-0.5-0.4-0.8-0.6-1.3-0.6c-0.9,0-1.5,0.8-1.5,1.9c0,1.1,0.5,1.9,1.4,1.9
			C18.2,133.7,18.6,133.4,19.1,133z"/>
	</g>
	<g>
		<path d="M151.1,133.6h1.3v-4.8h-1v-0.3c0.5-0.1,0.8-0.2,1.1-0.4h0.3v5.4h1.3v0.4h-3L151.1,133.6L151.1,133.6z"/>
		<path d="M154.9,133.2l0.2-0.3c0.3,0.4,0.8,0.7,1.6,0.7s1.3-0.5,1.3-1.3s-0.6-1.3-2-1.3v-0.4c1.3,0,1.8-0.6,1.8-1.3
			c0-0.6-0.5-1.1-1.2-1.1c-0.5,0-1,0.3-1.3,0.6l-0.2-0.3c0.4-0.4,0.9-0.7,1.6-0.7c0.9,0,1.6,0.5,1.6,1.4c0,0.8-0.5,1.2-1.1,1.4l0,0
			c0.7,0.2,1.3,0.7,1.3,1.5c0,1-0.8,1.6-1.8,1.6C155.8,134,155.3,133.6,154.9,133.2z"/>
		<path d="M161.7,132.2h-2.6V132l2.7-3.8h0.4v3.7h0.9v0.3h-0.9v1.7h-0.4L161.7,132.2L161.7,132.2z M161.7,131.9v-2.1
			c0-0.3,0-0.7,0-1l0,0c-0.1,0.2-0.3,0.5-0.5,0.7l-1.7,2.4L161.7,131.9L161.7,131.9z"/>
		<path d="M163.7,135.1c0.4-0.2,0.7-0.6,0.7-1.1h-0.1c-0.2,0-0.4-0.1-0.4-0.4s0.2-0.4,0.4-0.4c0.3,0,0.5,0.2,0.5,0.6
			c0,0.7-0.4,1.2-0.9,1.5L163.7,135.1z"/>
		<path d="M165.6,132.5c0-0.8,0.6-1.3,1.2-1.6l0,0c-0.4-0.3-0.8-0.7-0.8-1.3c0-0.8,0.7-1.4,1.5-1.4c1,0,1.6,0.6,1.6,1.5
			c0,0.6-0.5,1.2-0.8,1.5l0,0c0.5,0.3,1,0.7,1,1.5s-0.7,1.5-1.7,1.5C166.4,134,165.6,133.4,165.6,132.5z M168.8,132.5
			c0-0.9-0.9-1.2-1.8-1.5c-0.6,0.3-1,0.8-1,1.5s0.6,1.3,1.4,1.3C168.2,133.7,168.8,133.2,168.8,132.5z M168.6,129.6
			c0-0.6-0.4-1.2-1.2-1.2c-0.6,0-1.1,0.5-1.1,1.1c0,0.8,0.8,1.1,1.5,1.4C168.3,130.5,168.6,130.1,168.6,129.6z"/>
		<path d="M170.1,133.5l0.2-0.3c0.3,0.3,0.6,0.5,1,0.5c0.9,0,1.7-0.7,1.7-2.8c-0.4,0.5-0.9,0.8-1.5,0.8c-1,0-1.6-0.6-1.6-1.8
			c0-1,0.7-1.8,1.6-1.8c1.1,0,1.9,1,1.9,2.7c0,2.4-1,3.3-2.1,3.3C170.7,134,170.3,133.8,170.1,133.5z M171.6,131.3
			c0.4,0,1-0.3,1.4-0.9c-0.1-1.2-0.5-2-1.5-2c-0.7,0-1.2,0.6-1.2,1.4C170.3,130.7,170.7,131.3,171.6,131.3z"/>
		<path d="M174.2,132.5c0-0.8,0.6-1.3,1.2-1.6l0,0c-0.4-0.3-0.8-0.7-0.8-1.3c0-0.8,0.7-1.4,1.5-1.4c1,0,1.6,0.6,1.6,1.5
			c0,0.6-0.5,1.2-0.8,1.5l0,0c0.5,0.3,1,0.7,1,1.5s-0.7,1.5-1.7,1.5C175,134,174.2,133.4,174.2,132.5z M177.4,132.5
			c0-0.9-0.9-1.2-1.8-1.5c-0.6,0.3-1,0.8-1,1.5s0.6,1.3,1.4,1.3C176.9,133.7,177.4,133.2,177.4,132.5z M177.2,129.6
			c0-0.6-0.4-1.2-1.2-1.2c-0.6,0-1.1,0.5-1.1,1.1c0,0.8,0.8,1.1,1.5,1.4C177,130.5,177.2,130.1,177.2,129.6z"/>
	</g>
	<g>
		<path d="M230.5,133.6h1.4v-4.8h-1v-0.3c0.5-0.1,0.8-0.2,1.1-0.4h0.3v5.4h1.3v0.4h-3v-0.3H230.5z"/>
		<path d="M234.2,133.3l0.2-0.3c0.3,0.4,0.8,0.7,1.6,0.7s1.4-0.6,1.4-1.5s-0.5-1.5-1.4-1.5c-0.4,0-0.7,0.2-1.1,0.4l-0.3-0.2l0.2-2.7
			h2.7v0.4h-2.3l-0.2,2.1c0.3-0.2,0.6-0.3,1-0.3c1,0,1.8,0.6,1.8,1.8s-0.9,1.9-1.8,1.9C235.1,134,234.6,133.6,234.2,133.3z"/>
		<path d="M239.1,133.6h1.3v-4.8h-1v-0.3c0.5-0.1,0.8-0.2,1.1-0.4h0.3v5.4h1.3v0.4h-3L239.1,133.6L239.1,133.6z"/>
		<path d="M243.1,135.1c0.4-0.2,0.7-0.6,0.7-1.1h-0.1c-0.2,0-0.4-0.1-0.4-0.4s0.2-0.4,0.4-0.4c0.3,0,0.5,0.2,0.5,0.6
			c0,0.7-0.4,1.2-0.9,1.5L243.1,135.1z"/>
		<path d="M244.8,133.3l0.2-0.3c0.3,0.4,0.8,0.7,1.6,0.7s1.4-0.6,1.4-1.5s-0.5-1.5-1.4-1.5c-0.4,0-0.7,0.2-1.1,0.4l-0.3-0.2l0.2-2.7
			h2.7v0.4h-2.3l-0.2,2.1c0.3-0.2,0.6-0.3,1-0.3c1,0,1.8,0.6,1.8,1.8s-0.9,1.9-1.8,1.9C245.7,134,245.2,133.6,244.8,133.3z"/>
		<path d="M252.3,128.5h-3v-0.4h3.5v0.2c-1.4,1.8-1.7,3.3-1.8,5.5h-0.4C250.7,131.6,251.2,130.2,252.3,128.5z"/>
		<path d="M253.7,131.3c0-2.4,1-3.3,2.1-3.3c0.5,0,0.9,0.2,1.2,0.6l-0.2,0.3c-0.3-0.3-0.6-0.5-1-0.5c-0.9,0-1.7,0.7-1.7,2.8
			c0.4-0.5,0.9-0.8,1.4-0.8c1,0,1.6,0.6,1.6,1.8c0,1-0.7,1.8-1.6,1.8C254.4,134,253.7,133.1,253.7,131.3z M254.1,131.7
			c0.1,1.2,0.5,2,1.5,2c0.7,0,1.2-0.6,1.2-1.5s-0.4-1.4-1.2-1.4C255.1,130.8,254.6,131,254.1,131.7z"/>
	</g>
	<g>
		<path d="M309.8,133.6h1.3v-4.8h-1v-0.3c0.5-0.1,0.8-0.2,1.1-0.4h0.3v5.4h1.3v0.4h-3L309.8,133.6L309.8,133.6z"/>
		<path d="M316.2,132.2h-2.6V132l2.7-3.8h0.4v3.7h0.9v0.3h-0.9v1.7h-0.4v-1.7H316.2z M316.2,131.9v-2.1c0-0.3,0-0.7,0-1l0,0
			c-0.1,0.2-0.3,0.5-0.5,0.7l-1.7,2.4L316.2,131.9L316.2,131.9z"/>
		<path d="M320.5,132.2h-2.6V132l2.7-3.8h0.4v3.7h0.9v0.3H321v1.7h-0.4v-1.7H320.5z M320.5,131.9v-2.1c0-0.3,0-0.7,0-1l0,0
			c-0.1,0.2-0.3,0.5-0.5,0.7l-1.7,2.4L320.5,131.9L320.5,131.9z"/>
		<path d="M322.4,135.1c0.4-0.2,0.7-0.6,0.7-1.1H323c-0.2,0-0.4-0.1-0.4-0.4s0.2-0.4,0.4-0.4c0.3,0,0.5,0.2,0.5,0.6
			c0,0.7-0.4,1.2-0.9,1.5L322.4,135.1z"/>
		<path d="M324.3,133.7c1.9-1.9,2.8-3,2.8-4c0-0.7-0.4-1.3-1.3-1.3c-0.5,0-1,0.3-1.3,0.8l-0.3-0.3c0.4-0.5,0.9-0.8,1.6-0.8
			c1,0,1.6,0.6,1.6,1.6c0,1.1-1,2.2-2.6,3.9c0.3,0,0.6,0,1,0h2v0.4h-3.5L324.3,133.7L324.3,133.7z"/>
		<path d="M328.8,133.5l0.2-0.3c0.3,0.3,0.6,0.5,1,0.5c0.9,0,1.7-0.7,1.7-2.8c-0.4,0.5-0.9,0.8-1.5,0.8c-1,0-1.6-0.6-1.6-1.8
			c0-1,0.7-1.8,1.6-1.8c1.1,0,1.9,1,1.9,2.7c0,2.4-1,3.3-2.1,3.3C329.5,134,329.1,133.8,328.8,133.5z M330.3,131.3
			c0.4,0,1-0.3,1.4-0.9c-0.1-1.2-0.5-2-1.5-2c-0.7,0-1.2,0.6-1.2,1.4C329.1,130.7,329.4,131.3,330.3,131.3z"/>
		<path d="M335.4,132.2h-2.6V132l2.7-3.8h0.4v3.7h0.9v0.3h-0.9v1.7h-0.5V132.2z M335.4,131.9v-2.1c0-0.3,0-0.7,0-1l0,0
			c-0.1,0.2-0.3,0.5-0.5,0.7l-1.7,2.4L335.4,131.9L335.4,131.9z"/>
	</g>
	<g>
		<path d="M389.2,133.6h1.4v-4.8h-1v-0.3c0.5-0.1,0.8-0.2,1.1-0.4h0.3v5.4h1.3v0.4h-3L389.2,133.6L389.2,133.6z"/>
		<path d="M396.2,128.5h-3v-0.4h3.5v0.2c-1.4,1.8-1.7,3.3-1.8,5.5h-0.5C394.5,131.6,395,130.2,396.2,128.5z"/>
		<path d="M397.3,133.3l0.2-0.3c0.3,0.4,0.8,0.7,1.6,0.7c0.8,0,1.4-0.6,1.4-1.5s-0.5-1.5-1.4-1.5c-0.4,0-0.7,0.2-1.1,0.4l-0.3-0.2
			l0.2-2.7h2.7v0.4h-2.3l-0.2,2.1c0.3-0.2,0.6-0.3,1-0.3c1,0,1.8,0.6,1.8,1.8s-0.9,1.9-1.8,1.9C398.2,134,397.7,133.6,397.3,133.3z"
			/>
		<path d="M401.8,135.1c0.4-0.2,0.7-0.6,0.7-1.1h-0.1c-0.2,0-0.4-0.1-0.4-0.4s0.2-0.4,0.4-0.4c0.3,0,0.5,0.2,0.5,0.6
			c0,0.7-0.4,1.2-0.9,1.5L401.8,135.1z"/>
		<path d="M404.1,133.6h1.4v-4.8h-1v-0.3c0.5-0.1,0.8-0.2,1.1-0.4h0.3v5.4h1.3v0.4h-3L404.1,133.6L404.1,133.6z"/>
		<path d="M408.2,133.5l0.2-0.3c0.3,0.3,0.6,0.5,1,0.5c0.9,0,1.7-0.7,1.7-2.8c-0.4,0.5-0.9,0.8-1.5,0.8c-1,0-1.6-0.6-1.6-1.8
			c0-1,0.7-1.8,1.6-1.8c1.1,0,1.9,1,1.9,2.7c0,2.4-1,3.3-2.1,3.3C408.8,134,408.5,133.8,408.2,133.5z M409.7,131.3
			c0.4,0,1-0.3,1.4-0.9c-0.1-1.2-0.5-2-1.5-2c-0.7,0-1.2,0.6-1.2,1.4C408.4,130.7,408.8,131.3,409.7,131.3z"/>
		<path d="M412.2,133.2l0.2-0.3c0.3,0.4,0.8,0.7,1.6,0.7c0.8,0,1.3-0.5,1.3-1.3s-0.6-1.3-2-1.3v-0.4c1.3,0,1.8-0.6,1.8-1.3
			c0-0.6-0.5-1.1-1.2-1.1c-0.5,0-1,0.3-1.3,0.6l-0.2-0.3c0.4-0.4,0.9-0.7,1.6-0.7c0.9,0,1.6,0.5,1.6,1.4c0,0.8-0.5,1.2-1.1,1.4l0,0
			c0.7,0.2,1.3,0.7,1.3,1.5c0,1-0.8,1.6-1.8,1.6C413.1,134,412.6,133.6,412.2,133.2z"/>
	</g>
	<g>
		<path d="M468.2,133.7c1.9-1.9,2.8-3,2.8-4c0-0.7-0.4-1.3-1.3-1.3c-0.5,0-1,0.3-1.3,0.8l-0.3-0.3c0.4-0.5,0.9-0.8,1.6-0.8
			c1,0,1.6,0.6,1.6,1.6c0,1.1-1,2.2-2.6,3.9c0.3,0,0.6,0,1,0h2v0.4h-3.5L468.2,133.7L468.2,133.7z"/>
		<path d="M472.6,131c0-1.9,0.6-3,1.7-3s1.7,1.1,1.7,3s-0.6,3-1.7,3S472.6,133,472.6,131z M475.6,131c0-1.8-0.5-2.6-1.3-2.6
			s-1.3,0.9-1.3,2.6c0,1.8,0.5,2.7,1.3,2.7S475.6,132.8,475.6,131z"/>
		<path d="M479.2,132.2h-2.6V132l2.7-3.8h0.4v3.7h0.9v0.3h-0.9v1.7h-0.4v-1.7H479.2z M479.2,131.9v-2.1c0-0.3,0-0.7,0-1l0,0
			c-0.1,0.2-0.3,0.5-0.5,0.7l-1.7,2.4L479.2,131.9L479.2,131.9z"/>
		<path d="M481.2,135.1c0.4-0.2,0.7-0.6,0.7-1.1h-0.1c-0.2,0-0.4-0.1-0.4-0.4s0.2-0.4,0.4-0.4c0.3,0,0.5,0.2,0.5,0.6
			c0,0.7-0.4,1.2-0.9,1.5L481.2,135.1z"/>
		<path d="M483,133.2l0.2-0.3c0.3,0.4,0.8,0.7,1.6,0.7c0.8,0,1.3-0.5,1.3-1.3s-0.6-1.3-2-1.3v-0.4c1.3,0,1.8-0.6,1.8-1.3
			c0-0.6-0.5-1.1-1.2-1.1c-0.5,0-1,0.3-1.3,0.6l-0.2-0.3c0.4-0.4,0.9-0.7,1.6-0.7c0.9,0,1.6,0.5,1.6,1.4c0,0.8-0.5,1.2-1.1,1.4l0,0
			c0.7,0.2,1.3,0.7,1.3,1.5c0,1-0.8,1.6-1.8,1.6C483.9,134,483.3,133.6,483,133.2z"/>
		<path d="M490.5,128.5h-3v-0.4h3.5v0.2c-1.4,1.8-1.7,3.3-1.8,5.5h-0.4C488.8,131.6,489.3,130.2,490.5,128.5z"/>
		<path d="M491.7,133.7c1.9-1.9,2.8-3,2.8-4c0-0.7-0.4-1.3-1.3-1.3c-0.5,0-1,0.3-1.3,0.8l-0.3-0.3c0.4-0.5,0.9-0.8,1.6-0.8
			c1,0,1.6,0.6,1.6,1.6c0,1.1-1,2.2-2.6,3.9c0.3,0,0.6,0,1,0h2v0.4h-3.5L491.7,133.7L491.7,133.7z"/>
	</g>
	<g>
		<path d="M2.8,145.6l0.3-0.3c0.4,0.5,1.1,0.8,1.7,0.8c0.9,0,1.5-0.5,1.5-1.2s-0.5-1-1.1-1.2l-0.9-0.4c-0.5-0.2-1.2-0.6-1.2-1.5
			s0.7-1.5,1.7-1.5c0.7,0,1.3,0.3,1.6,0.7l-0.2,0.3c-0.3-0.4-0.8-0.6-1.4-0.6c-0.8,0-1.3,0.4-1.3,1.1c0,0.7,0.6,0.9,1,1.1l0.9,0.4
			c0.7,0.3,1.3,0.7,1.3,1.6s-0.7,1.6-1.9,1.6C4,146.5,3.3,146.1,2.8,145.6z"/>
		<path d="M7.8,140.6c0-0.2,0.1-0.4,0.3-0.4c0.2,0,0.3,0.1,0.3,0.4c0,0.2-0.1,0.4-0.3,0.4C8,141,7.8,140.8,7.8,140.6z M7.9,142h0.4
			v4.3H7.9V142z"/>
		<path d="M10,145.8v-5.9h0.4v6c0,0.2,0.1,0.3,0.2,0.3c0,0,0.1,0,0.2,0l0.1,0.3c-0.1,0-0.2,0-0.3,0C10.2,146.5,10,146.2,10,145.8z"
			/>
		<path d="M11.4,142h0.4l1,2.7c0.1,0.4,0.3,0.8,0.4,1.2l0,0c0.1-0.4,0.3-0.8,0.4-1.2l1-2.7H15l-1.6,4.3h-0.5L11.4,142z"/>
		<path d="M15.7,144.2c0-1.4,0.9-2.3,1.9-2.3s1.7,0.7,1.7,2c0,0.1,0,0.2,0,0.3h-3.1c0,1.1,0.7,1.9,1.6,1.9c0.5,0,0.8-0.2,1.2-0.4
			l0.2,0.3c-0.3,0.2-0.7,0.4-1.4,0.4C16.6,146.5,15.7,145.6,15.7,144.2z M18.8,143.9c0-1.1-0.5-1.7-1.3-1.7c-0.7,0-1.4,0.6-1.5,1.7
			H18.8z"/>
		<path d="M20.4,142h0.3v0.8l0,0c0.3-0.5,0.7-0.9,1.2-0.9c0.2,0,0.3,0,0.4,0.1l0.1,0.4c-0.1-0.1-0.2-0.1-0.4-0.1
			c-0.4,0-0.8,0.3-1.2,1.1v2.9h-0.4V142z"/>
	</g>
	<g>
		<path d="M165.5,145.7l0.2-0.3c0.3,0.4,0.8,0.7,1.6,0.7s1.3-0.5,1.3-1.3s-0.6-1.3-2-1.3v-0.4c1.3,0,1.8-0.6,1.8-1.3
			c0-0.6-0.5-1.1-1.2-1.1c-0.5,0-1,0.3-1.3,0.6l-0.2-0.3c0.4-0.4,0.9-0.7,1.6-0.7c0.9,0,1.6,0.5,1.6,1.4c0,0.8-0.5,1.2-1.1,1.4l0,0
			c0.7,0.2,1.3,0.7,1.3,1.5c0,1-0.8,1.6-1.8,1.6C166.4,146.5,165.9,146,165.5,145.7z"/>
		<path d="M170,143.7c0-2.4,1-3.3,2.1-3.3c0.5,0,0.9,0.2,1.2,0.6l-0.2,0.3c-0.3-0.3-0.6-0.5-1-0.5c-0.9,0-1.7,0.7-1.7,2.8
			c0.4-0.5,0.9-0.8,1.4-0.8c1,0,1.6,0.6,1.6,1.8c0,1-0.7,1.8-1.6,1.8C170.7,146.5,170,145.5,170,143.7z M170.4,144.1
			c0.1,1.2,0.5,2,1.5,2c0.7,0,1.2-0.6,1.2-1.5s-0.4-1.4-1.2-1.4C171.4,143.2,170.9,143.5,170.4,144.1z"/>
		<path d="M174.2,144.9c0-0.8,0.6-1.3,1.2-1.6l0,0c-0.4-0.3-0.8-0.7-0.8-1.3c0-0.8,0.7-1.4,1.5-1.4c1,0,1.6,0.6,1.6,1.5
			c0,0.6-0.5,1.2-0.8,1.5l0,0c0.5,0.3,1,0.7,1,1.5s-0.7,1.5-1.7,1.5C175,146.5,174.2,145.8,174.2,144.9z M177.4,145
			c0-0.9-0.9-1.2-1.8-1.5c-0.6,0.3-1,0.8-1,1.5s0.6,1.3,1.4,1.3C176.9,146.1,177.4,145.6,177.4,145z M177.2,142
			c0-0.6-0.4-1.2-1.2-1.2c-0.6,0-1.1,0.5-1.1,1.1c0,0.8,0.8,1.1,1.5,1.4C177,142.9,177.2,142.5,177.2,142z"/>
	</g>
	<g>
		<path d="M247.4,144.6h-2.6v-0.2l2.7-3.8h0.4v3.7h0.9v0.3h-0.9v1.7h-0.5V144.6z M247.4,144.3v-2.1c0-0.3,0-0.7,0-1l0,0
			c-0.1,0.2-0.3,0.5-0.5,0.7l-1.7,2.4L247.4,144.3L247.4,144.3z"/>
		<path d="M249.2,145.7l0.2-0.3c0.3,0.4,0.8,0.7,1.6,0.7c0.8,0,1.4-0.6,1.4-1.5s-0.5-1.5-1.4-1.5c-0.4,0-0.7,0.2-1.1,0.4l-0.3-0.2
			l0.2-2.7h2.7v0.4h-2.3l-0.2,2.1c0.3-0.2,0.6-0.3,1-0.3c1,0,1.8,0.6,1.8,1.8s-0.9,1.9-1.8,1.9C250,146.5,249.5,146.1,249.2,145.7z"
			/>
		<path d="M253.7,145.9l0.2-0.3c0.3,0.3,0.6,0.5,1,0.5c0.9,0,1.7-0.7,1.7-2.8c-0.4,0.5-0.9,0.8-1.5,0.8c-1,0-1.6-0.6-1.6-1.8
			c0-1,0.7-1.8,1.6-1.8c1.1,0,1.9,1,1.9,2.7c0,2.4-1,3.3-2.1,3.3C254.4,146.5,254,146.2,253.7,145.9z M255.3,143.7
			c0.4,0,1-0.3,1.4-0.9c-0.1-1.2-0.5-2-1.5-2c-0.7,0-1.2,0.6-1.2,1.4C254,143.1,254.4,143.7,255.3,143.7z"/>
	</g>
	<g>
		<path d="M326.8,144.6h-2.6v-0.2l2.7-3.8h0.4v3.7h0.9v0.3h-0.9v1.7h-0.4v-1.7H326.8z M326.8,144.3v-2.1c0-0.3,0-0.7,0-1l0,0
			c-0.1,0.2-0.3,0.5-0.5,0.7l-1.7,2.4L326.8,144.3L326.8,144.3z"/>
		<path d="M328.7,144.9c0-0.8,0.6-1.3,1.2-1.6l0,0c-0.4-0.3-0.8-0.7-0.8-1.3c0-0.8,0.7-1.4,1.5-1.4c1,0,1.6,0.6,1.6,1.5
			c0,0.6-0.5,1.2-0.8,1.5l0,0c0.5,0.3,1,0.7,1,1.5s-0.7,1.5-1.7,1.5C329.4,146.5,328.7,145.8,328.7,144.9z M331.8,145
			c0-0.9-0.9-1.2-1.8-1.5c-0.6,0.3-1,0.8-1,1.5s0.6,1.3,1.4,1.3C331.3,146.1,331.8,145.6,331.8,145z M331.7,142
			c0-0.6-0.4-1.2-1.2-1.2c-0.6,0-1.1,0.5-1.1,1.1c0,0.8,0.8,1.1,1.5,1.4C331.4,142.9,331.7,142.5,331.7,142z"/>
		<path d="M333,143.5c0-1.9,0.6-3,1.7-3s1.7,1.1,1.7,3s-0.6,3-1.7,3C333.7,146.5,333,145.4,333,143.5z M336.1,143.5
			c0-1.8-0.5-2.6-1.3-2.6s-1.3,0.9-1.3,2.6c0,1.8,0.5,2.7,1.3,2.7C335.6,146.1,336.1,145.2,336.1,143.5z"/>
	</g>
	<g>
		<path d="M403.6,145.7l0.2-0.3c0.3,0.4,0.8,0.7,1.6,0.7c0.8,0,1.4-0.6,1.4-1.5s-0.5-1.5-1.4-1.5c-0.4,0-0.7,0.2-1.1,0.4l-0.3-0.2
			l0.2-2.7h2.7v0.4h-2.3l-0.2,2.1c0.3-0.2,0.6-0.3,1-0.3c1,0,1.8,0.6,1.8,1.8s-0.9,1.9-1.8,1.9C404.5,146.5,404,146.1,403.6,145.7z"
			/>
		<path d="M408.2,145.9l0.2-0.3c0.3,0.3,0.6,0.5,1,0.5c0.9,0,1.7-0.7,1.7-2.8c-0.4,0.5-0.9,0.8-1.5,0.8c-1,0-1.6-0.6-1.6-1.8
			c0-1,0.7-1.8,1.6-1.8c1.1,0,1.9,1,1.9,2.7c0,2.4-1,3.3-2.1,3.3C408.8,146.5,408.5,146.2,408.2,145.9z M409.7,143.7
			c0.4,0,1-0.3,1.4-0.9c-0.1-1.2-0.5-2-1.5-2c-0.7,0-1.2,0.6-1.2,1.4C408.4,143.1,408.8,143.7,409.7,143.7z"/>
		<path d="M414.8,144.6h-2.6v-0.2l2.7-3.8h0.4v3.7h0.9v0.3h-0.9v1.7h-0.4v-1.7H414.8z M414.8,144.3v-2.1c0-0.3,0-0.7,0-1l0,0
			c-0.1,0.2-0.3,0.5-0.5,0.7l-1.7,2.4L414.8,144.3L414.8,144.3z"/>
	</g>
	<g>
		<path d="M486.1,141h-3v-0.4h3.5v0.2c-1.4,1.8-1.7,3.3-1.8,5.5h-0.4C484.5,144,485,142.6,486.1,141z"/>
		<path d="M487.8,146h1.3v-4.8h-1v-0.3c0.5-0.1,0.8-0.2,1.1-0.4h0.3v5.4h1.3v0.4h-3L487.8,146L487.8,146z"/>
		<path d="M491.6,145.7l0.2-0.3c0.3,0.4,0.8,0.7,1.6,0.7c0.8,0,1.3-0.5,1.3-1.3s-0.6-1.3-2-1.3v-0.4c1.3,0,1.8-0.6,1.8-1.3
			c0-0.6-0.5-1.1-1.2-1.1c-0.5,0-1,0.3-1.3,0.6l-0.2-0.3c0.4-0.4,0.9-0.7,1.6-0.7c0.9,0,1.6,0.5,1.6,1.4c0,0.8-0.5,1.2-1.1,1.4l0,0
			c0.7,0.2,1.3,0.7,1.3,1.5c0,1-0.8,1.6-1.8,1.6C492.5,146.5,492,146,491.6,145.7z"/>
	</g>
	<g>
		<path d="M1.7,159l0.4-0.6l-0.6-0.3l0.1-0.2l0.7,0.2v-0.7h0.2v0.7l0.7-0.2l0.1,0.2l-0.6,0.3l0.4,0.6l-0.2,0.1l-0.4-0.6L2,159.1
			L1.7,159z"/>
		<path d="M4.5,157.7h0.3v4.6H4.5V157.7z"/>
		<path d="M6.1,159h0.3v0.5l0,0c0.3-0.3,0.7-0.6,1.2-0.6c0.7,0,1,0.4,1,1.3v2.2H8.3v-2.1c0-0.7-0.2-1.1-0.8-1.1
			c-0.4,0-0.7,0.2-1.1,0.6v2.5H6.1C6.1,162.3,6.1,159,6.1,159z"/>
		<path d="M9.5,160.7c0-1.1,0.7-1.8,1.5-1.8c0.5,0,0.8,0.2,1,0.4l-0.2,0.2c-0.2-0.2-0.5-0.4-0.8-0.4c-0.7,0-1.2,0.6-1.2,1.5
			s0.5,1.5,1.2,1.5c0.4,0,0.7-0.2,0.9-0.4l0.2,0.2c-0.3,0.3-0.6,0.4-1.1,0.4C10.2,162.4,9.5,161.8,9.5,160.7z"/>
		<path d="M13,161.9v-4.6h0.3v4.6c0,0.1,0.1,0.2,0.1,0.2h0.1l0.1,0.3c-0.1,0-0.1,0-0.2,0C13.1,162.4,13,162.3,13,161.9z"/>
		<path d="M14.6,161.1v-2.2h0.3v2.1c0,0.7,0.2,1.1,0.8,1.1c0.4,0,0.7-0.2,1.1-0.7v-2.5h0.3v3.4h-0.3v-0.6l0,0
			c-0.3,0.4-0.7,0.6-1.1,0.6C14.9,162.4,14.6,162,14.6,161.1z"/>
		<path d="M18,160.7c0-1.1,0.7-1.8,1.5-1.8c0.4,0,0.7,0.2,1,0.4v-0.6v-1.4h0.3v5h-0.3v-0.4l0,0c-0.3,0.3-0.6,0.5-1.1,0.5
			C18.6,162.4,18,161.8,18,160.7z M20.5,161.6v-2c-0.4-0.3-0.7-0.4-1-0.4c-0.7,0-1.2,0.7-1.2,1.5c0,0.9,0.4,1.5,1.1,1.5
			C19.9,162.2,20.2,162,20.5,161.6z"/>
		<path d="M21.9,160.7c0-1.1,0.7-1.8,1.5-1.8s1.3,0.6,1.3,1.6c0,0.1,0,0.2,0,0.3h-2.4c0,0.8,0.5,1.5,1.3,1.5c0.4,0,0.7-0.1,0.9-0.3
			l0.1,0.2c-0.3,0.2-0.6,0.3-1.1,0.3C22.5,162.4,21.9,161.8,21.9,160.7z M24.3,160.5c0-0.9-0.4-1.3-1-1.3s-1.1,0.5-1.2,1.3H24.3z"/>
		<path d="M25.1,162l0.2-0.2c0.3,0.2,0.6,0.4,1.1,0.4s0.8-0.3,0.8-0.7s-0.4-0.6-0.8-0.7c-0.5-0.2-1-0.4-1-1c0-0.5,0.4-0.9,1.1-0.9
			c0.4,0,0.7,0.1,1,0.4l-0.2,0.2c-0.2-0.2-0.5-0.3-0.8-0.3c-0.5,0-0.8,0.3-0.8,0.6c0,0.4,0.4,0.5,0.8,0.7c0.5,0.2,1.1,0.4,1.1,1
			c0,0.5-0.4,0.9-1.1,0.9S25.4,162.2,25.1,162z"/>
		<path d="M29.5,160c0-1.5,0.8-2.4,2-2.4c0.5,0,1,0.3,1.2,0.6l-0.2,0.2c-0.3-0.3-0.6-0.5-1-0.5c-1,0-1.6,0.8-1.6,2.1
			s0.6,2.1,1.6,2.1c0.5,0,0.8-0.2,1.2-0.6l0.2,0.2c-0.4,0.4-0.8,0.7-1.4,0.7C30.3,162.4,29.5,161.5,29.5,160z"/>
		<path d="M33.5,161.5c0-0.7,0.7-1.1,2.2-1.3c0-0.5-0.1-1.1-0.8-1.1c-0.4,0-0.8,0.2-1.1,0.4l-0.1-0.2c0.2-0.2,0.7-0.4,1.3-0.4
			c0.8,0,1.1,0.6,1.1,1.3v2.2h-0.3V162l0,0c-0.3,0.3-0.8,0.5-1.2,0.5C33.9,162.4,33.5,162.1,33.5,161.5z M35.6,161.6v-1.1
			c-1.4,0.2-1.9,0.5-1.9,1s0.3,0.7,0.7,0.7S35.2,162,35.6,161.6z"/>
		<path d="M37.1,159h0.3v0.4l0,0c0.3-0.3,0.7-0.5,1.1-0.5c0.9,0,1.3,0.7,1.3,1.7c0,1.1-0.7,1.8-1.5,1.8c-0.3,0-0.7-0.2-1-0.4v1.8H37
			V159H37.1z M39.6,160.6c0-0.8-0.3-1.4-1.1-1.4c-0.3,0-0.7,0.2-1.1,0.6v2c0.4,0.3,0.7,0.4,1,0.4C39.1,162.2,39.6,161.5,39.6,160.6z
			"/>
		<path d="M41,161.4v-2.2h-0.5V159H41v-1h0.3v1h1v0.3h-1v2.2c0,0.4,0.1,0.7,0.6,0.7c0.1,0,0.3,0,0.4-0.1l0.1,0.3
			c-0.2,0.1-0.4,0.1-0.5,0.1C41.2,162.4,41,162,41,161.4z"/>
		<path d="M43,157.9c0-0.2,0.1-0.3,0.3-0.3s0.3,0.1,0.3,0.3s-0.1,0.3-0.3,0.3S43,158.1,43,157.9z M43.1,159h0.3v3.4h-0.3V159z"/>
		<path d="M44.2,159h0.3l0.8,2.1c0.1,0.3,0.2,0.7,0.3,1l0,0c0.1-0.3,0.2-0.6,0.3-1l0.8-2.1H47l-1.2,3.4h-0.4L44.2,159z"/>
		<path d="M47.5,160.7c0-1.1,0.7-1.8,1.5-1.8s1.3,0.6,1.3,1.6c0,0.1,0,0.2,0,0.3h-2.4c0,0.8,0.5,1.5,1.3,1.5c0.4,0,0.7-0.1,0.9-0.3
			l0.1,0.2c-0.3,0.2-0.6,0.3-1.1,0.3C48.2,162.4,47.5,161.8,47.5,160.7z M49.9,160.5c0-0.9-0.4-1.3-1-1.3s-1.1,0.5-1.2,1.3H49.9z"/>
		<path d="M52.3,160c0-1.5,0.8-2.4,2-2.4c0.5,0,1,0.3,1.2,0.6l-0.2,0.2c-0.3-0.3-0.6-0.5-1-0.5c-1,0-1.6,0.8-1.6,2.1
			s0.6,2.1,1.6,2.1c0.5,0,0.8-0.2,1.2-0.6l0.2,0.2c-0.4,0.4-0.8,0.7-1.4,0.7C53.1,162.4,52.3,161.5,52.3,160z"/>
		<path d="M56.2,160.7c0-1.1,0.7-1.8,1.5-1.8s1.5,0.6,1.5,1.8c0,1.1-0.7,1.8-1.5,1.8C56.9,162.4,56.2,161.8,56.2,160.7z M58.9,160.7
			c0-0.9-0.5-1.5-1.2-1.5s-1.2,0.6-1.2,1.5s0.5,1.5,1.2,1.5S58.9,161.6,58.9,160.7z"/>
		<path d="M60.2,159h0.3v0.5l0,0c0.3-0.3,0.7-0.6,1.2-0.6c0.7,0,1,0.4,1,1.3v2.2h-0.3v-2.1c0-0.7-0.2-1.1-0.8-1.1
			c-0.4,0-0.7,0.2-1.1,0.6v2.5h-0.3C60.2,162.3,60.2,159,60.2,159z"/>
		<path d="M63.5,162l0.2-0.2c0.3,0.2,0.6,0.4,1.1,0.4s0.8-0.3,0.8-0.7s-0.4-0.6-0.8-0.7c-0.5-0.2-1-0.4-1-1c0-0.5,0.4-0.9,1.1-0.9
			c0.4,0,0.7,0.1,1,0.4l-0.2,0.2c-0.2-0.2-0.5-0.3-0.8-0.3c-0.5,0-0.8,0.3-0.8,0.6c0,0.4,0.4,0.5,0.8,0.7c0.5,0.2,1.1,0.4,1.1,1
			c0,0.5-0.4,0.9-1.1,0.9C64.3,162.4,63.8,162.2,63.5,162z"/>
		<path d="M66.7,161.1v-2.2H67v2.1c0,0.7,0.2,1.1,0.8,1.1c0.4,0,0.7-0.2,1.1-0.7v-2.5h0.3v3.4h-0.3v-0.6l0,0
			c-0.3,0.4-0.7,0.6-1.1,0.6C67.1,162.4,66.7,162,66.7,161.1z"/>
		<path d="M70.5,159h0.3v0.5l0,0c0.3-0.3,0.7-0.6,1.1-0.6c0.5,0,0.8,0.3,0.9,0.7c0.4-0.4,0.8-0.7,1.1-0.7c0.7,0,1,0.4,1,1.3v2.2
			h-0.3v-2.1c0-0.7-0.2-1.1-0.8-1.1c-0.3,0-0.6,0.2-1,0.6v2.5h-0.3v-2.1c0-0.7-0.2-1.1-0.8-1.1c-0.3,0-0.6,0.2-1,0.6v2.5h-0.3V159
			H70.5z"/>
		<path d="M76.2,159h0.3v0.4l0,0c0.3-0.3,0.7-0.5,1.1-0.5c0.9,0,1.3,0.7,1.3,1.7c0,1.1-0.7,1.8-1.5,1.8c-0.3,0-0.7-0.2-1-0.4v1.8
			h-0.3L76.2,159L76.2,159z M78.7,160.6c0-0.8-0.3-1.4-1.1-1.4c-0.3,0-0.7,0.2-1.1,0.6v2c0.4,0.3,0.7,0.4,1,0.4
			C78.2,162.2,78.7,161.5,78.7,160.6z"/>
		<path d="M80.1,161.4v-2.2h-0.5V159h0.5v-1h0.3v1h1v0.3h-1v2.2c0,0.4,0.1,0.7,0.6,0.7c0.1,0,0.3,0,0.4-0.1l0.1,0.3
			c-0.2,0.1-0.4,0.1-0.5,0.1C80.3,162.4,80.1,162,80.1,161.4z"/>
		<path d="M82.1,157.9c0-0.2,0.1-0.3,0.3-0.3s0.3,0.1,0.3,0.3s-0.1,0.3-0.3,0.3S82.1,158.1,82.1,157.9z M82.2,159h0.3v3.4h-0.3V159z
			"/>
		<path d="M83.5,160.7c0-1.1,0.7-1.8,1.5-1.8s1.5,0.6,1.5,1.8c0,1.1-0.7,1.8-1.5,1.8C84.2,162.4,83.5,161.8,83.5,160.7z M86.2,160.7
			c0-0.9-0.5-1.5-1.2-1.5s-1.2,0.6-1.2,1.5s0.5,1.5,1.2,1.5S86.2,161.6,86.2,160.7z"/>
		<path d="M87.5,159h0.3v0.5l0,0c0.3-0.3,0.7-0.6,1.2-0.6c0.7,0,1,0.4,1,1.3v2.2h-0.3v-2.1c0-0.7-0.2-1.1-0.8-1.1
			c-0.4,0-0.7,0.2-1.1,0.6v2.5h-0.3C87.5,162.3,87.5,159,87.5,159z"/>
	</g>
</g>
</svg>
