<?xml version="1.0" encoding="utf-8"?>
<!-- Generator: Adobe Illustrator 23.0.3, SVG Export Plug-In . SVG Version: 6.00 Build 0)  -->
<svg version="1.1" id="Layer_1" xmlns="http://www.w3.org/2000/svg" xmlns:xlink="http://www.w3.org/1999/xlink" x="0px" y="0px"
	 viewBox="0 0 252 86" style="enable-background:new 0 0 252 86;" xml:space="preserve">
<style type="text/css">
	.st0{fill:#FFFFFF;}
	.st1{fill:#00AE4D;}
	.st2{fill:none;stroke:#939598;stroke-width:0.499;stroke-miterlimit:10;}
	.st3{fill:none;stroke:#FFFFFF;stroke-width:0.499;stroke-miterlimit:10;}
	.st4{fill:none;stroke:#939598;stroke-width:0.5;stroke-miterlimit:10;}
</style>
<path class="st0" d="M2.6,65.5h83.6v12.4H2.6V65.5z M2.6,53.1h83.6v12.4H2.6V53.1z M2.6,40.7h83.6v12.4H2.6V40.7z M2.6,6.7h83.6v34
	H2.6V6.7z"/>
<path class="st1" d="M165.3,6.7h79.1v34h-79.1V6.7z M86.3,6.7h79.1v34H86.3V6.7z"/>
<line class="st2" x1="165.3" y1="52.9" x2="165.3" y2="40.9"/>
<line class="st2" x1="165.3" y1="65.3" x2="165.3" y2="53.4"/>
<line class="st2" x1="165.3" y1="77.7" x2="165.3" y2="65.8"/>
<line class="st2" x1="86.3" y1="52.9" x2="86.3" y2="40.9"/>
<line class="st2" x1="86.3" y1="65.3" x2="86.3" y2="53.4"/>
<line class="st2" x1="86.3" y1="77.7" x2="86.3" y2="65.8"/>
<line class="st3" x1="86.3" y1="40.4" x2="86.3" y2="6.9"/>
<line class="st3" x1="165.3" y1="40.4" x2="165.3" y2="6.9"/>
<line class="st4" x1="2.6" y1="77.9" x2="86.3" y2="77.9"/>
<line class="st4" x1="86.3" y1="77.9" x2="165.3" y2="77.9"/>
<line class="st4" x1="165.3" y1="77.9" x2="244.4" y2="77.9"/>
<line class="st2" x1="2.6" y1="6.7" x2="86.3" y2="6.7"/>
<line class="st2" x1="86.3" y1="6.7" x2="165.3" y2="6.7"/>
<line class="st2" x1="165.3" y1="6.7" x2="244.4" y2="6.7"/>
<line class="st2" x1="2.6" y1="40.7" x2="86.3" y2="40.7"/>
<line class="st2" x1="86.3" y1="40.7" x2="165.3" y2="40.7"/>
<line class="st2" x1="165.3" y1="40.7" x2="244.4" y2="40.7"/>
<line class="st4" x1="2.6" y1="53.1" x2="86.3" y2="53.1"/>
<line class="st4" x1="86.3" y1="53.1" x2="165.3" y2="53.1"/>
<line class="st4" x1="165.3" y1="53.1" x2="244.4" y2="53.1"/>
<line class="st4" x1="2.6" y1="65.5" x2="86.3" y2="65.5"/>
<line class="st4" x1="86.3" y1="65.5" x2="165.3" y2="65.5"/>
<line class="st4" x1="165.3" y1="65.5" x2="244.4" y2="65.5"/>
<g>
	<path d="M4.4,15.5l0.7-0.9C5.5,15,6,15.2,6.4,15.2c0.5,0,0.8-0.2,0.8-0.6c0-0.4-0.3-0.5-0.8-0.7l-0.7-0.3c-0.6-0.2-1.1-0.7-1.1-1.6
		c0-1,0.8-1.7,2-1.7c0.6,0,1.3,0.3,1.8,0.8l-0.6,0.8c-0.4-0.3-0.7-0.5-1.2-0.5c-0.4,0-0.7,0.2-0.7,0.5c0,0.4,0.4,0.5,0.8,0.7
		l0.7,0.3c0.7,0.3,1.1,0.8,1.1,1.6c0,1-0.8,1.8-2.1,1.8C5.7,16.4,4.9,16.1,4.4,15.5z"/>
	<path d="M9.3,14.6v-2.8h1.3v2.6c0,0.6,0.2,0.8,0.5,0.8c0.3,0,0.5-0.1,0.8-0.5v-3h1.3v4.5h-1L12,15.6h0c-0.4,0.5-0.8,0.7-1.3,0.7
		C9.7,16.4,9.3,15.7,9.3,14.6z"/>
	<path d="M15.3,15.8L15.3,15.8l-0.1,0.5h-1V9.9h1.3v1.5l0,0.7c0.3-0.3,0.7-0.5,1.1-0.5c1,0,1.7,0.9,1.7,2.3c0,1.5-0.9,2.4-1.8,2.4
		C16.1,16.4,15.7,16.2,15.3,15.8z M16.9,14c0-0.8-0.2-1.2-0.7-1.2c-0.3,0-0.5,0.1-0.7,0.4V15c0.2,0.2,0.5,0.3,0.7,0.3
		C16.6,15.3,16.9,14.9,16.9,14z"/>
	<path d="M18.1,17.9l0.2-1c0.1,0,0.2,0.1,0.3,0.1c0.3,0,0.4-0.2,0.4-0.7v-4.5h1.3v4.4c0,1-0.4,1.8-1.5,1.8
		C18.5,18,18.3,18,18.1,17.9z M19.1,10.4c0-0.4,0.3-0.7,0.7-0.7s0.7,0.3,0.7,0.7c0,0.4-0.3,0.7-0.7,0.7S19.1,10.9,19.1,10.4z"/>
	<path d="M21.2,14c0-1.4,1-2.3,2-2.3c1.2,0,1.8,0.9,1.8,2.1c0,0.2,0,0.5-0.1,0.6h-2.5c0.1,0.6,0.5,0.9,1.1,0.9
		c0.3,0,0.6-0.1,0.9-0.3l0.4,0.8c-0.4,0.3-1,0.5-1.5,0.5C22.2,16.4,21.2,15.5,21.2,14z M24,13.5c0-0.5-0.2-0.8-0.7-0.8
		c-0.4,0-0.7,0.3-0.8,0.8H24z"/>
	<path d="M25.7,14c0-1.5,1-2.3,2.2-2.3c0.5,0,0.9,0.2,1.2,0.5L28.5,13c-0.2-0.2-0.4-0.3-0.6-0.3c-0.6,0-1,0.5-1,1.3s0.4,1.3,0.9,1.3
		c0.3,0,0.5-0.1,0.8-0.3l0.5,0.9c-0.4,0.4-0.9,0.5-1.4,0.5C26.6,16.4,25.7,15.5,25.7,14z"/>
	<path d="M30.1,14.6v-1.8h-0.6v-1l0.6-0.1l0.1-1.2h1v1.2h1v1h-1v1.8c0,0.5,0.2,0.7,0.5,0.7c0.1,0,0.3,0,0.4-0.1l0.2,1
		c-0.2,0.1-0.5,0.2-0.9,0.2C30.5,16.4,30.1,15.7,30.1,14.6z"/>
</g>
<g>
	<path class="st0" d="M140.4,15.5c1.4-1.4,2.4-2.4,2.4-3.2c0-0.6-0.3-0.9-0.8-0.9c-0.4,0-0.7,0.3-1,0.6l-0.7-0.7
		c0.5-0.6,1-0.9,1.8-0.9c1.1,0,1.8,0.7,1.8,1.8c0,1-0.9,2-1.7,3c0.3,0,0.6-0.1,0.9-0.1h1.1v1.1h-3.8V15.5z"/>
	<path class="st0" d="M144.9,13.4c0-1.9,0.8-2.9,1.9-2.9s1.9,1,1.9,2.9s-0.8,3-1.9,3S144.9,15.3,144.9,13.4z M147.6,13.4
		c0-1.6-0.3-1.9-0.8-1.9c-0.4,0-0.8,0.4-0.8,1.9c0,1.6,0.3,2,0.8,2C147.2,15.3,147.6,14.9,147.6,13.4z"/>
	<path class="st0" d="M149.7,15.2h1.2v-3.3h-1v-0.8c0.6-0.1,1-0.3,1.3-0.5h0.9v4.6h1v1.1h-3.5V15.2z"/>
	<path class="st0" d="M153.9,13.5c0-2.1,1.1-3.1,2.2-3.1c0.7,0,1.2,0.3,1.6,0.7l-0.7,0.8c-0.2-0.2-0.5-0.4-0.8-0.4
		c-0.6,0-1.1,0.5-1.1,1.8c0.3-0.4,0.8-0.6,1.1-0.6c0.9,0,1.6,0.6,1.6,1.8c0,1.2-0.8,1.9-1.8,1.9C154.9,16.4,153.9,15.5,153.9,13.5z
		 M155.1,14.2c0.1,0.9,0.5,1.2,0.8,1.2c0.4,0,0.7-0.3,0.7-0.9c0-0.6-0.3-0.8-0.7-0.8C155.7,13.6,155.3,13.8,155.1,14.2z"/>
	<path class="st0" d="M160.2,13.5h3.4v0.8h-3.4V13.5z"/>
</g>
<g>
	<path class="st0" d="M106.6,22.9c0-1.2,0.6-1.9,1.4-1.9s1.4,0.7,1.4,1.9c0,1.2-0.6,1.9-1.4,1.9S106.6,24.1,106.6,22.9z M108.5,22.9
		c0-0.8-0.2-1.1-0.5-1.1s-0.5,0.3-0.5,1.1c0,0.8,0.2,1.1,0.5,1.1S108.5,23.8,108.5,22.9z M111.2,21.1h0.7l-3,6.1h-0.7L111.2,21.1z
		 M110.7,25.3c0-1.2,0.6-1.9,1.4-1.9c0.8,0,1.4,0.7,1.4,1.9c0,1.2-0.6,1.9-1.4,1.9C111.3,27.2,110.7,26.5,110.7,25.3z M112.6,25.3
		c0-0.8-0.2-1.1-0.5-1.1c-0.3,0-0.5,0.3-0.5,1.1s0.2,1.1,0.5,1.1C112.4,26.4,112.6,26.1,112.6,25.3z"/>
	<path class="st0" d="M115.7,26.3l0.7-0.9c0.4,0.4,0.9,0.6,1.4,0.6c0.5,0,0.8-0.2,0.8-0.6c0-0.4-0.3-0.5-0.8-0.7l-0.7-0.3
		c-0.6-0.2-1.1-0.7-1.1-1.6c0-1,0.8-1.7,2-1.7c0.6,0,1.3,0.3,1.8,0.8l-0.6,0.8c-0.4-0.3-0.7-0.5-1.2-0.5c-0.4,0-0.7,0.2-0.7,0.5
		c0,0.4,0.4,0.5,0.8,0.7l0.7,0.3c0.7,0.3,1.1,0.8,1.1,1.6c0,1-0.8,1.8-2.1,1.8C117,27.2,116.3,26.9,115.7,26.3z"/>
	<path class="st0" d="M120.5,24.8c0-1.5,1-2.3,2.2-2.3c0.5,0,0.9,0.2,1.2,0.5l-0.6,0.9c-0.2-0.2-0.4-0.3-0.6-0.3c-0.6,0-1,0.5-1,1.3
		s0.4,1.3,0.9,1.3c0.3,0,0.5-0.1,0.8-0.3l0.5,0.9c-0.4,0.4-0.9,0.5-1.4,0.5C121.4,27.2,120.5,26.3,120.5,24.8z"/>
	<path class="st0" d="M124.7,20.7h1.3v1.5l-0.1,0.8c0.3-0.3,0.7-0.6,1.3-0.6c0.9,0,1.3,0.7,1.3,1.8V27h-1.3v-2.6
		c0-0.6-0.2-0.8-0.5-0.8c-0.3,0-0.5,0.2-0.8,0.4v3h-1.3V20.7z"/>
	<path class="st0" d="M129.3,24.8c0-1.5,1-2.3,2.1-2.3c1.1,0,2.1,0.9,2.1,2.3s-1,2.3-2.1,2.3C130.3,27.2,129.3,26.3,129.3,24.8z
		 M132.2,24.8c0-0.8-0.3-1.3-0.8-1.3c-0.5,0-0.8,0.5-0.8,1.3s0.3,1.3,0.8,1.3C131.9,26.1,132.2,25.6,132.2,24.8z"/>
	<path class="st0" d="M134.1,24.8c0-1.5,1-2.3,2.1-2.3c1.1,0,2.1,0.9,2.1,2.3s-1,2.3-2.1,2.3C135.1,27.2,134.1,26.3,134.1,24.8z
		 M136.9,24.8c0-0.8-0.3-1.3-0.8-1.3c-0.5,0-0.8,0.5-0.8,1.3s0.3,1.3,0.8,1.3C136.7,26.1,136.9,25.6,136.9,24.8z"/>
	<path class="st0" d="M139.1,25.7v-4.9h1.3v5c0,0.3,0.1,0.4,0.2,0.4c0.1,0,0.1,0,0.2,0l0.2,1c-0.1,0.1-0.4,0.1-0.6,0.1
		C139.4,27.2,139.1,26.6,139.1,25.7z"/>
	<path class="st0" d="M141.1,26.5l0.6-0.8c0.4,0.3,0.7,0.5,1.1,0.5c0.4,0,0.5-0.1,0.5-0.4c0-0.3-0.4-0.4-0.9-0.6
		c-0.5-0.2-1.1-0.6-1.1-1.3c0-0.8,0.6-1.4,1.6-1.4c0.7,0,1.1,0.3,1.5,0.6l-0.6,0.8c-0.3-0.2-0.6-0.4-0.9-0.4c-0.3,0-0.5,0.1-0.5,0.4
		c0,0.3,0.4,0.4,0.8,0.6c0.5,0.2,1.1,0.5,1.1,1.3c0,0.8-0.6,1.4-1.7,1.4C142.2,27.2,141.6,26.9,141.1,26.5z"/>
	<path class="st0" d="M146.6,21.2h1.3l0.4,2.7c0.1,0.6,0.2,1.2,0.2,1.9h0c0.1-0.6,0.2-1.2,0.3-1.9l0.6-2.7h1.1l0.6,2.7
		c0.1,0.6,0.2,1.2,0.3,1.9h0c0.1-0.6,0.2-1.3,0.2-1.9l0.4-2.7h1.2l-1,5.9h-1.6l-0.5-2.7c-0.1-0.5-0.2-0.9-0.2-1.4h0
		c-0.1,0.4-0.1,0.9-0.2,1.4l-0.5,2.7h-1.6L146.6,21.2z"/>
	<path class="st0" d="M153.9,21.2c0-0.4,0.3-0.7,0.7-0.7c0.4,0,0.7,0.3,0.7,0.7c0,0.4-0.3,0.7-0.7,0.7
		C154.2,21.9,153.9,21.7,153.9,21.2z M154,22.6h1.3V27H154V22.6z"/>
	<path class="st0" d="M156.5,25.4v-1.8h-0.6v-1l0.6-0.1l0.1-1.2h1v1.2h1v1h-1v1.8c0,0.5,0.2,0.7,0.5,0.7c0.1,0,0.3,0,0.4-0.1l0.2,1
		c-0.2,0.1-0.5,0.2-0.9,0.2C156.9,27.2,156.5,26.5,156.5,25.4z"/>
	<path class="st0" d="M159.6,20.7h1.3v1.5l-0.1,0.8c0.3-0.3,0.7-0.6,1.3-0.6c0.9,0,1.3,0.7,1.3,1.8V27h-1.3v-2.6
		c0-0.6-0.2-0.8-0.5-0.8c-0.3,0-0.5,0.2-0.8,0.4v3h-1.3V20.7z"/>
</g>
<g>
	<path class="st0" d="M105.3,35.8l1.5-0.5l1.2-0.4v0l-1.2-0.4l-1.5-0.5v-1.1l3.9,1.6v0.9l-3.9,1.6V35.8z"/>
	<path class="st0" d="M112.3,33.2h-2.4v-1.1h3.8v0.8c-1.3,1.6-1.4,2.7-1.5,4.9h-1.3C111,35.9,111.3,34.7,112.3,33.2z"/>
	<path class="st0" d="M114.4,35c0-1.9,0.8-2.9,1.9-2.9s1.9,1,1.9,2.9s-0.8,3-1.9,3S114.4,36.9,114.4,35z M117,35
		c0-1.6-0.3-1.9-0.8-1.9c-0.4,0-0.8,0.4-0.8,1.9c0,1.6,0.3,2,0.8,2C116.7,36.9,117,36.5,117,35z"/>
	<path class="st0" d="M118.8,33.7c0-1.2,0.6-1.9,1.4-1.9s1.4,0.7,1.4,1.9c0,1.2-0.6,1.9-1.4,1.9S118.8,34.9,118.8,33.7z M120.7,33.7
		c0-0.8-0.2-1.1-0.5-1.1s-0.5,0.3-0.5,1.1c0,0.8,0.2,1.1,0.5,1.1S120.7,34.6,120.7,33.7z M123.4,31.9h0.7l-3,6.1h-0.7L123.4,31.9z
		 M122.9,36.1c0-1.2,0.6-1.9,1.4-1.9c0.8,0,1.4,0.7,1.4,1.9c0,1.2-0.6,1.9-1.4,1.9C123.5,38,122.9,37.3,122.9,36.1z M124.8,36.1
		c0-0.8-0.2-1.1-0.5-1.1s-0.5,0.3-0.5,1.1s0.2,1.1,0.5,1.1S124.8,36.9,124.8,36.1z"/>
	<path class="st0" d="M128.2,32h1.9c1.2,0,2.2,0.5,2.2,1.9c0,1.4-1,2-2.2,2h-0.7v2h-1.3V32z M130.1,34.8c0.7,0,1-0.3,1-0.9
		s-0.4-0.8-1.1-0.8h-0.6v1.8H130.1z"/>
	<path class="st0" d="M133,36.6c0-0.9,0.7-1.4,2.4-1.6c0-0.4-0.2-0.6-0.7-0.6c-0.4,0-0.7,0.2-1.1,0.4l-0.5-0.9
		c0.5-0.3,1.1-0.6,1.8-0.6c1.1,0,1.7,0.6,1.7,2v2.6h-1l-0.1-0.5h0c-0.4,0.3-0.8,0.6-1.2,0.6C133.5,38,133,37.4,133,36.6z
		 M135.4,36.5v-0.8c-0.9,0.1-1.2,0.4-1.2,0.7c0,0.3,0.2,0.4,0.5,0.4C135,36.9,135.2,36.8,135.4,36.5z"/>
	<path class="st0" d="M137.4,37.3l0.6-0.8c0.4,0.3,0.7,0.5,1.1,0.5c0.4,0,0.5-0.1,0.5-0.4c0-0.3-0.4-0.4-0.9-0.6
		c-0.5-0.2-1.1-0.6-1.1-1.3c0-0.8,0.6-1.4,1.6-1.4c0.6,0,1.1,0.3,1.5,0.6l-0.6,0.8c-0.3-0.2-0.6-0.4-0.9-0.4c-0.3,0-0.5,0.1-0.5,0.4
		c0,0.3,0.4,0.4,0.8,0.6c0.5,0.2,1.1,0.5,1.1,1.3c0,0.8-0.6,1.4-1.7,1.4C138.4,38,137.8,37.7,137.4,37.3z"/>
	<path class="st0" d="M141.2,37.3l0.6-0.8c0.4,0.3,0.7,0.5,1.1,0.5c0.4,0,0.5-0.1,0.5-0.4c0-0.3-0.4-0.4-0.9-0.6
		c-0.5-0.2-1.1-0.6-1.1-1.3c0-0.8,0.6-1.4,1.6-1.4c0.7,0,1.1,0.3,1.5,0.6l-0.6,0.8c-0.3-0.2-0.6-0.4-0.9-0.4c-0.3,0-0.5,0.1-0.5,0.4
		c0,0.3,0.4,0.4,0.8,0.6c0.5,0.2,1.1,0.5,1.1,1.3c0,0.8-0.6,1.4-1.7,1.4C142.2,38,141.6,37.7,141.2,37.3z"/>
	<path class="st0" d="M147.1,32h2c1.2,0,2.1,0.4,2.1,1.8c0,0.9-0.4,1.4-1,1.7l1.3,2.3h-1.4l-1.1-2.1h-0.7v2.1h-1.3V32z M149,34.7
		c0.7,0,1-0.3,1-0.9s-0.4-0.8-1-0.8h-0.6v1.6H149z"/>
	<path class="st0" d="M152.1,36.6c0-0.9,0.7-1.4,2.4-1.6c0-0.4-0.2-0.6-0.7-0.6c-0.4,0-0.7,0.2-1.1,0.4l-0.5-0.9
		c0.5-0.3,1.1-0.6,1.8-0.6c1.1,0,1.7,0.6,1.7,2v2.6h-1l-0.1-0.5h0c-0.4,0.3-0.8,0.6-1.2,0.6C152.6,38,152.1,37.4,152.1,36.6z
		 M154.5,36.5v-0.8c-0.9,0.1-1.2,0.4-1.2,0.7c0,0.3,0.2,0.4,0.5,0.4C154,36.9,154.2,36.8,154.5,36.5z"/>
	<path class="st0" d="M156.9,36.2v-1.8h-0.6v-1l0.6-0.1l0.1-1.2h1v1.2h1v1h-1v1.8c0,0.5,0.2,0.7,0.5,0.7c0.1,0,0.3,0,0.4-0.1l0.2,1
		c-0.2,0.1-0.5,0.2-0.9,0.2C157.4,38,156.9,37.3,156.9,36.2z"/>
	<path class="st0" d="M159.8,35.6c0-1.4,1-2.3,2-2.3c1.2,0,1.8,0.9,1.8,2.1c0,0.2,0,0.5-0.1,0.6H161c0.1,0.6,0.5,0.9,1.1,0.9
		c0.3,0,0.6-0.1,0.9-0.3l0.4,0.8c-0.4,0.3-1,0.5-1.5,0.5C160.7,38,159.8,37.1,159.8,35.6z M162.5,35.1c0-0.5-0.2-0.8-0.7-0.8
		c-0.4,0-0.7,0.3-0.8,0.8H162.5z"/>
</g>
<g>
	<path class="st0" d="M219.4,15.5c1.4-1.4,2.4-2.4,2.4-3.2c0-0.6-0.3-0.9-0.8-0.9c-0.4,0-0.7,0.3-1,0.6l-0.7-0.7
		c0.5-0.6,1-0.9,1.8-0.9c1.1,0,1.8,0.7,1.8,1.8c0,1-0.9,2-1.7,3c0.3,0,0.6-0.1,0.9-0.1h1.1v1.1h-3.8V15.5z"/>
	<path class="st0" d="M224,13.4c0-1.9,0.8-2.9,1.9-2.9s1.9,1,1.9,2.9s-0.8,3-1.9,3S224,15.3,224,13.4z M226.7,13.4
		c0-1.6-0.3-1.9-0.8-1.9c-0.4,0-0.8,0.4-0.8,1.9c0,1.6,0.3,2,0.8,2C226.3,15.3,226.7,14.9,226.7,13.4z"/>
	<path class="st0" d="M228.8,15.2h1.2v-3.3h-1v-0.8c0.6-0.1,1-0.3,1.3-0.5h0.9v4.6h1v1.1h-3.5V15.2z"/>
	<path class="st0" d="M233,14.8c0-0.7,0.4-1.1,0.9-1.4v0c-0.4-0.3-0.7-0.7-0.7-1.4c0-1,0.7-1.6,1.7-1.6c1,0,1.6,0.6,1.6,1.6
		c0,0.5-0.3,1-0.7,1.3v0c0.5,0.3,0.9,0.7,0.9,1.5c0,0.9-0.8,1.6-1.9,1.6C233.8,16.4,233,15.7,233,14.8z M235.7,14.7
		c0-0.5-0.5-0.7-1.1-1c-0.2,0.2-0.4,0.6-0.4,0.9c0,0.5,0.4,0.8,0.8,0.8C235.4,15.4,235.7,15.2,235.7,14.7z M235.6,12.1
		c0-0.4-0.2-0.7-0.7-0.7c-0.3,0-0.6,0.2-0.6,0.7c0,0.5,0.4,0.7,0.9,0.9C235.5,12.7,235.6,12.4,235.6,12.1z"/>
	<path class="st0" d="M239.3,13.5h3.4v0.8h-3.4V13.5z"/>
</g>
<g>
	<path class="st0" d="M185.7,22.9c0-1.2,0.6-1.9,1.4-1.9s1.4,0.7,1.4,1.9c0,1.2-0.6,1.9-1.4,1.9S185.7,24.1,185.7,22.9z M187.6,22.9
		c0-0.8-0.2-1.1-0.5-1.1s-0.5,0.3-0.5,1.1c0,0.8,0.2,1.1,0.5,1.1S187.6,23.8,187.6,22.9z M190.2,21.1h0.7l-3,6.1h-0.7L190.2,21.1z
		 M189.8,25.3c0-1.2,0.6-1.9,1.4-1.9c0.8,0,1.4,0.7,1.4,1.9c0,1.2-0.6,1.9-1.4,1.9C190.3,27.2,189.8,26.5,189.8,25.3z M191.7,25.3
		c0-0.8-0.2-1.1-0.5-1.1c-0.3,0-0.5,0.3-0.5,1.1s0.2,1.1,0.5,1.1C191.4,26.4,191.7,26.1,191.7,25.3z"/>
	<path class="st0" d="M194.8,26.3l0.7-0.9c0.4,0.4,0.9,0.6,1.4,0.6c0.5,0,0.8-0.2,0.8-0.6c0-0.4-0.3-0.5-0.8-0.7l-0.7-0.3
		c-0.6-0.2-1.1-0.7-1.1-1.6c0-1,0.8-1.7,2-1.7c0.6,0,1.3,0.3,1.8,0.8l-0.6,0.8c-0.4-0.3-0.7-0.5-1.2-0.5c-0.4,0-0.7,0.2-0.7,0.5
		c0,0.4,0.4,0.5,0.8,0.7l0.7,0.3c0.7,0.3,1.1,0.8,1.1,1.6c0,1-0.8,1.8-2.1,1.8C196.1,27.2,195.3,26.9,194.8,26.3z"/>
	<path class="st0" d="M199.5,24.8c0-1.5,1-2.3,2.2-2.3c0.5,0,0.9,0.2,1.2,0.5l-0.6,0.9c-0.2-0.2-0.4-0.3-0.6-0.3c-0.6,0-1,0.5-1,1.3
		s0.4,1.3,0.9,1.3c0.3,0,0.5-0.1,0.8-0.3l0.5,0.9c-0.4,0.4-0.9,0.5-1.4,0.5C200.4,27.2,199.5,26.3,199.5,24.8z"/>
	<path class="st0" d="M203.8,20.7h1.3v1.5l-0.1,0.8c0.3-0.3,0.7-0.6,1.3-0.6c0.9,0,1.3,0.7,1.3,1.8V27h-1.3v-2.6
		c0-0.6-0.2-0.8-0.5-0.8c-0.3,0-0.5,0.2-0.8,0.4v3h-1.3V20.7z"/>
	<path class="st0" d="M208.4,24.8c0-1.5,1-2.3,2.1-2.3c1.1,0,2.1,0.9,2.1,2.3s-1,2.3-2.1,2.3C209.4,27.2,208.4,26.3,208.4,24.8z
		 M211.3,24.8c0-0.8-0.3-1.3-0.8-1.3c-0.5,0-0.8,0.5-0.8,1.3s0.3,1.3,0.8,1.3C211,26.1,211.3,25.6,211.3,24.8z"/>
	<path class="st0" d="M213.2,24.8c0-1.5,1-2.3,2.1-2.3c1.1,0,2.1,0.9,2.1,2.3s-1,2.3-2.1,2.3C214.1,27.2,213.2,26.3,213.2,24.8z
		 M216,24.8c0-0.8-0.3-1.3-0.8-1.3c-0.5,0-0.8,0.5-0.8,1.3s0.3,1.3,0.8,1.3C215.7,26.1,216,25.6,216,24.8z"/>
	<path class="st0" d="M218.1,25.7v-4.9h1.3v5c0,0.3,0.1,0.4,0.2,0.4c0.1,0,0.1,0,0.2,0l0.2,1c-0.1,0.1-0.4,0.1-0.6,0.1
		C218.4,27.2,218.1,26.6,218.1,25.7z"/>
	<path class="st0" d="M220.2,26.5l0.6-0.8c0.4,0.3,0.7,0.5,1.1,0.5c0.4,0,0.5-0.1,0.5-0.4c0-0.3-0.4-0.4-0.9-0.6
		c-0.5-0.2-1.1-0.6-1.1-1.3c0-0.8,0.6-1.4,1.6-1.4c0.7,0,1.1,0.3,1.5,0.6l-0.6,0.8c-0.3-0.2-0.6-0.4-0.9-0.4c-0.3,0-0.5,0.1-0.5,0.4
		c0,0.3,0.4,0.4,0.8,0.6c0.5,0.2,1.1,0.5,1.1,1.3c0,0.8-0.6,1.4-1.7,1.4C221.3,27.2,220.6,26.9,220.2,26.5z"/>
	<path class="st0" d="M225.7,21.2h1.3l0.4,2.7c0.1,0.6,0.2,1.2,0.2,1.9h0c0.1-0.6,0.2-1.2,0.3-1.9l0.6-2.7h1.1l0.6,2.7
		c0.1,0.6,0.2,1.2,0.3,1.9h0c0.1-0.6,0.2-1.3,0.2-1.9l0.4-2.7h1.2l-1,5.9h-1.6l-0.5-2.7c-0.1-0.5-0.2-0.9-0.2-1.4h0
		c-0.1,0.4-0.1,0.9-0.2,1.4l-0.5,2.7h-1.6L225.7,21.2z"/>
	<path class="st0" d="M233,21.2c0-0.4,0.3-0.7,0.7-0.7c0.4,0,0.7,0.3,0.7,0.7c0,0.4-0.3,0.7-0.7,0.7C233.2,21.9,233,21.7,233,21.2z
		 M233,22.6h1.3V27H233V22.6z"/>
	<path class="st0" d="M235.6,25.4v-1.8H235v-1l0.6-0.1l0.1-1.2h1v1.2h1v1h-1v1.8c0,0.5,0.2,0.7,0.5,0.7c0.1,0,0.3,0,0.4-0.1l0.2,1
		c-0.2,0.1-0.5,0.2-0.9,0.2C236,27.2,235.6,26.5,235.6,25.4z"/>
	<path class="st0" d="M238.7,20.7h1.3v1.5l-0.1,0.8c0.3-0.3,0.7-0.6,1.3-0.6c0.9,0,1.3,0.7,1.3,1.8V27h-1.3v-2.6
		c0-0.6-0.2-0.8-0.5-0.8c-0.3,0-0.5,0.2-0.8,0.4v3h-1.3V20.7z"/>
</g>
<g>
	<path class="st0" d="M184.4,35.8l1.5-0.5l1.2-0.4v0l-1.2-0.4l-1.5-0.5v-1.1l3.9,1.6v0.9l-3.9,1.6V35.8z"/>
	<path class="st0" d="M191.4,33.2H189v-1.1h3.8v0.8c-1.3,1.6-1.4,2.7-1.5,4.9H190C190.1,35.9,190.4,34.7,191.4,33.2z"/>
	<path class="st0" d="M193.4,35c0-1.9,0.8-2.9,1.9-2.9s1.9,1,1.9,2.9s-0.8,3-1.9,3S193.4,36.9,193.4,35z M196.1,35
		c0-1.6-0.3-1.9-0.8-1.9c-0.4,0-0.8,0.4-0.8,1.9c0,1.6,0.3,2,0.8,2C195.8,36.9,196.1,36.5,196.1,35z"/>
	<path class="st0" d="M197.9,33.7c0-1.2,0.6-1.9,1.4-1.9s1.4,0.7,1.4,1.9c0,1.2-0.6,1.9-1.4,1.9S197.9,34.9,197.9,33.7z M199.7,33.7
		c0-0.8-0.2-1.1-0.5-1.1s-0.5,0.3-0.5,1.1c0,0.8,0.2,1.1,0.5,1.1S199.7,34.6,199.7,33.7z M202.4,31.9h0.7l-3,6.1h-0.7L202.4,31.9z
		 M202,36.1c0-1.2,0.6-1.9,1.4-1.9c0.8,0,1.4,0.7,1.4,1.9c0,1.2-0.6,1.9-1.4,1.9C202.5,38,202,37.3,202,36.1z M203.9,36.1
		c0-0.8-0.2-1.1-0.5-1.1c-0.3,0-0.5,0.3-0.5,1.1s0.2,1.1,0.5,1.1C203.6,37.2,203.9,36.9,203.9,36.1z"/>
	<path class="st0" d="M207.3,32h1.9c1.2,0,2.2,0.5,2.2,1.9c0,1.4-1,2-2.2,2h-0.7v2h-1.3V32z M209.2,34.8c0.7,0,1-0.3,1-0.9
		s-0.4-0.8-1.1-0.8h-0.6v1.8H209.2z"/>
	<path class="st0" d="M212.1,36.6c0-0.9,0.7-1.4,2.4-1.6c0-0.4-0.2-0.6-0.7-0.6c-0.4,0-0.7,0.2-1.1,0.4l-0.5-0.9
		c0.5-0.3,1.1-0.6,1.8-0.6c1.1,0,1.7,0.6,1.7,2v2.6h-1l-0.1-0.5h0c-0.4,0.3-0.8,0.6-1.2,0.6C212.6,38,212.1,37.4,212.1,36.6z
		 M214.5,36.5v-0.8c-0.9,0.1-1.2,0.4-1.2,0.7c0,0.3,0.2,0.4,0.5,0.4C214.1,36.9,214.3,36.8,214.5,36.5z"/>
	<path class="st0" d="M216.4,37.3l0.6-0.8c0.4,0.3,0.7,0.5,1.1,0.5c0.4,0,0.5-0.1,0.5-0.4c0-0.3-0.4-0.4-0.9-0.6
		c-0.5-0.2-1.1-0.6-1.1-1.3c0-0.8,0.6-1.4,1.6-1.4c0.7,0,1.1,0.3,1.5,0.6l-0.6,0.8c-0.3-0.2-0.6-0.4-0.9-0.4c-0.3,0-0.5,0.1-0.5,0.4
		c0,0.3,0.4,0.4,0.8,0.6c0.5,0.2,1.1,0.5,1.1,1.3c0,0.8-0.6,1.4-1.7,1.4C217.5,38,216.9,37.7,216.4,37.3z"/>
	<path class="st0" d="M220.2,37.3l0.6-0.8c0.4,0.3,0.7,0.5,1.1,0.5c0.4,0,0.5-0.1,0.5-0.4c0-0.3-0.4-0.4-0.9-0.6
		c-0.5-0.2-1.1-0.6-1.1-1.3c0-0.8,0.6-1.4,1.6-1.4c0.6,0,1.1,0.3,1.5,0.6l-0.6,0.8c-0.3-0.2-0.6-0.4-0.9-0.4c-0.3,0-0.5,0.1-0.5,0.4
		c0,0.3,0.4,0.4,0.8,0.6c0.5,0.2,1.1,0.5,1.1,1.3c0,0.8-0.6,1.4-1.7,1.4C221.3,38,220.7,37.7,220.2,37.3z"/>
	<path class="st0" d="M226.2,32h2c1.2,0,2.1,0.4,2.1,1.8c0,0.9-0.4,1.4-1,1.7l1.3,2.3h-1.4l-1.1-2.1h-0.7v2.1h-1.3V32z M228.1,34.7
		c0.7,0,1-0.3,1-0.9s-0.4-0.8-1-0.8h-0.6v1.6H228.1z"/>
	<path class="st0" d="M231.2,36.6c0-0.9,0.7-1.4,2.4-1.6c0-0.4-0.2-0.6-0.7-0.6c-0.4,0-0.7,0.2-1.1,0.4l-0.5-0.9
		c0.5-0.3,1.1-0.6,1.8-0.6c1.1,0,1.7,0.6,1.7,2v2.6h-1l-0.1-0.5h0c-0.4,0.3-0.8,0.6-1.2,0.6C231.6,38,231.2,37.4,231.2,36.6z
		 M233.5,36.5v-0.8c-0.9,0.1-1.2,0.4-1.2,0.7c0,0.3,0.2,0.4,0.5,0.4C233.1,36.9,233.3,36.8,233.5,36.5z"/>
	<path class="st0" d="M236,36.2v-1.8h-0.6v-1l0.6-0.1l0.1-1.2h1v1.2h1v1h-1v1.8c0,0.5,0.2,0.7,0.5,0.7c0.1,0,0.3,0,0.4-0.1l0.2,1
		c-0.2,0.1-0.5,0.2-0.9,0.2C236.4,38,236,37.3,236,36.2z"/>
	<path class="st0" d="M238.9,35.6c0-1.4,1-2.3,2-2.3c1.2,0,1.8,0.9,1.8,2.1c0,0.2,0,0.5-0.1,0.6h-2.5c0.1,0.6,0.5,0.9,1.1,0.9
		c0.3,0,0.6-0.1,0.9-0.3l0.4,0.8c-0.4,0.3-1,0.5-1.5,0.5C239.8,38,238.9,37.1,238.9,35.6z M241.6,35.1c0-0.5-0.2-0.8-0.7-0.8
		c-0.4,0-0.7,0.3-0.8,0.8H241.6z"/>
</g>
<g>
	<path d="M4.4,49.5l0.3-0.3c0.4,0.5,1,0.8,1.6,0.8c0.9,0,1.4-0.5,1.4-1.2c0-0.7-0.5-1-1-1.2l-0.9-0.4c-0.5-0.2-1.1-0.6-1.1-1.5
		c0-0.9,0.7-1.5,1.6-1.5c0.7,0,1.2,0.3,1.6,0.7l-0.2,0.3c-0.3-0.4-0.8-0.6-1.3-0.6c-0.7,0-1.2,0.4-1.2,1.1c0,0.7,0.6,0.9,1,1.1
		L7,47.2c0.6,0.3,1.2,0.7,1.2,1.6s-0.7,1.6-1.8,1.6C5.5,50.4,4.9,50,4.4,49.5z"/>
	<path d="M9,48.1c0-1.4,0.9-2.3,1.9-2.3c0.6,0,0.9,0.3,1.2,0.5l-0.2,0.3c-0.3-0.3-0.6-0.5-1-0.5c-0.8,0-1.5,0.8-1.5,1.9
		c0,1.1,0.6,1.9,1.5,1.9c0.4,0,0.8-0.2,1.1-0.5l0.2,0.3c-0.3,0.3-0.8,0.6-1.3,0.6C9.8,50.4,9,49.5,9,48.1z"/>
	<path d="M13,44.5c0-0.2,0.1-0.4,0.3-0.4c0.2,0,0.3,0.1,0.3,0.4c0,0.2-0.1,0.4-0.3,0.4C13.1,44.9,13,44.8,13,44.5z M13.1,45.9h0.4
		v4.3h-0.4V45.9z"/>
	<path d="M14.8,48.1c0-1.4,0.9-2.3,1.8-2.3c1,0,1.6,0.7,1.6,2c0,0.1,0,0.2,0,0.3h-2.9c0,1.1,0.6,1.9,1.5,1.9c0.4,0,0.8-0.2,1.1-0.4
		l0.2,0.3c-0.3,0.2-0.7,0.4-1.3,0.4C15.6,50.4,14.8,49.5,14.8,48.1z M17.8,47.8c0-1.1-0.5-1.7-1.2-1.7c-0.7,0-1.3,0.6-1.4,1.7H17.8z
		"/>
	<path d="M19.2,45.9h0.3l0,0.7h0c0.4-0.4,0.8-0.8,1.4-0.8c0.8,0,1.2,0.5,1.2,1.7v2.8h-0.4v-2.7c0-0.9-0.3-1.4-0.9-1.4
		c-0.5,0-0.8,0.3-1.3,0.8v3.3h-0.4V45.9z"/>
	<path d="M23.4,48.1c0-1.4,0.9-2.3,1.9-2.3c0.6,0,0.9,0.3,1.2,0.5l-0.2,0.3c-0.3-0.3-0.6-0.5-1-0.5c-0.8,0-1.5,0.8-1.5,1.9
		c0,1.1,0.6,1.9,1.5,1.9c0.4,0,0.8-0.2,1.1-0.5l0.2,0.3c-0.4,0.3-0.8,0.6-1.3,0.6C24.2,50.4,23.4,49.5,23.4,48.1z"/>
	<path d="M27.3,48.1c0-1.4,0.9-2.3,1.8-2.3c1,0,1.6,0.7,1.6,2c0,0.1,0,0.2,0,0.3h-2.9c0,1.1,0.6,1.9,1.5,1.9c0.4,0,0.8-0.2,1.1-0.4
		l0.2,0.3c-0.3,0.2-0.7,0.4-1.3,0.4C28.1,50.4,27.3,49.5,27.3,48.1z M30.3,47.8c0-1.1-0.5-1.7-1.2-1.7c-0.7,0-1.3,0.6-1.4,1.7H30.3z
		"/>
</g>
<g>
	<path d="M159,44.9h-2.9v-0.4h3.4v0.2c-1.3,1.8-1.6,3.3-1.7,5.5h-0.4C157.4,47.9,157.9,46.5,159,44.9z"/>
	<path d="M160.3,47.7c0-2.4,1-3.3,2-3.3c0.5,0,0.9,0.2,1.2,0.6l-0.2,0.3c-0.2-0.3-0.6-0.5-0.9-0.5c-0.9,0-1.6,0.7-1.6,2.8
		c0.4-0.5,0.9-0.8,1.4-0.8c1,0,1.5,0.6,1.5,1.8c0,1-0.7,1.8-1.5,1.8C161,50.4,160.3,49.4,160.3,47.7z M160.7,48c0.1,1.2,0.5,2,1.4,2
		c0.6,0,1.1-0.6,1.1-1.5s-0.3-1.4-1.2-1.4C161.6,47.1,161.1,47.4,160.7,48z"/>
</g>
<g>
	<path d="M235.3,49.8l0.2-0.3c0.2,0.3,0.6,0.5,0.9,0.5c0.9,0,1.6-0.7,1.6-2.8c-0.4,0.5-0.9,0.8-1.4,0.8c-0.9,0-1.5-0.6-1.5-1.8
		c0-1,0.7-1.8,1.5-1.8c1.1,0,1.8,1,1.8,2.7c0,2.4-0.9,3.3-2,3.3C235.9,50.4,235.6,50.1,235.3,49.8z M236.7,47.6
		c0.4,0,0.9-0.3,1.3-0.9c-0.1-1.2-0.5-2-1.4-2c-0.6,0-1.1,0.6-1.1,1.4C235.6,47,235.9,47.6,236.7,47.6z"/>
	<path d="M239.4,49.8l0.2-0.3c0.2,0.3,0.6,0.5,0.9,0.5c0.9,0,1.6-0.7,1.6-2.8c-0.4,0.5-0.9,0.8-1.4,0.8c-0.9,0-1.5-0.6-1.5-1.8
		c0-1,0.7-1.8,1.5-1.8c1.1,0,1.8,1,1.8,2.7c0,2.4-0.9,3.3-2,3.3C240,50.4,239.7,50.1,239.4,49.8z M240.8,47.6c0.4,0,0.9-0.3,1.3-0.9
		c-0.1-1.2-0.5-2-1.4-2c-0.6,0-1.1,0.6-1.1,1.4C239.7,47,240,47.6,240.8,47.6z"/>
</g>
<g>
	<path d="M4.9,56.8h3.3v0.4H5.3v2.2h2.4v0.4H5.3v2.6h2.9v0.4H4.9V56.8z"/>
	<path d="M9.5,58.4h0.3l0,0.7h0c0.4-0.4,0.9-0.8,1.5-0.8c0.9,0,1.3,0.5,1.3,1.7v2.8h-0.4V60c0-0.9-0.3-1.4-1-1.4
		c-0.5,0-0.9,0.3-1.4,0.8v3.3H9.5V58.4z"/>
	<path d="M13.9,63.6c0-0.4,0.2-0.8,0.6-1v0c-0.2-0.1-0.4-0.4-0.4-0.7c0-0.4,0.3-0.7,0.5-0.8v0c-0.3-0.2-0.5-0.7-0.5-1.2
		c0-0.9,0.7-1.5,1.5-1.5c0.2,0,0.4,0.1,0.6,0.1h1.5v0.3h-1c0.3,0.2,0.5,0.6,0.5,1.1c0,0.9-0.7,1.5-1.5,1.5c-0.2,0-0.5-0.1-0.7-0.2
		c-0.2,0.2-0.4,0.3-0.4,0.6c0,0.3,0.2,0.6,0.8,0.6h0.9c1,0,1.4,0.3,1.4,1c0,0.7-0.8,1.5-2,1.5C14.6,64.8,13.9,64.3,13.9,63.6z
		 M17.4,63.4c0-0.5-0.4-0.7-1-0.7h-0.9c-0.1,0-0.3,0-0.5-0.1c-0.4,0.3-0.6,0.6-0.6,0.9c0,0.5,0.5,0.9,1.4,0.9
		C16.7,64.4,17.4,63.9,17.4,63.4z M16.8,59.8c0-0.7-0.5-1.2-1.1-1.2s-1.1,0.5-1.1,1.2c0,0.7,0.5,1.2,1.1,1.2
		C16.3,61,16.8,60.5,16.8,59.8z"/>
	<path d="M18.7,62.1v-5.9h0.4v6c0,0.2,0.1,0.3,0.2,0.3c0,0,0.1,0,0.2,0l0.1,0.3c-0.1,0-0.2,0-0.3,0C18.9,62.8,18.7,62.6,18.7,62.1z"
		/>
	<path d="M20.7,57c0-0.2,0.1-0.4,0.3-0.4s0.3,0.1,0.3,0.4c0,0.2-0.1,0.4-0.3,0.4S20.7,57.2,20.7,57z M20.8,58.4h0.4v4.3h-0.4V58.4z"
		/>
	<path d="M22.3,62.2l0.2-0.3c0.4,0.3,0.8,0.5,1.4,0.5c0.7,0,1-0.4,1-0.9c0-0.5-0.6-0.8-1.1-1c-0.7-0.2-1.3-0.5-1.3-1.2
		c0-0.6,0.5-1.2,1.4-1.2c0.5,0,0.9,0.2,1.2,0.5L25,59c-0.3-0.2-0.6-0.4-1-0.4c-0.7,0-1,0.4-1,0.8c0,0.5,0.5,0.7,1,0.9
		c0.7,0.3,1.4,0.5,1.4,1.3c0,0.6-0.5,1.2-1.5,1.2C23.3,62.8,22.7,62.5,22.3,62.2z"/>
	<path d="M26.5,56.2h0.4V59c0.5-0.5,0.9-0.8,1.5-0.8c0.9,0,1.3,0.5,1.3,1.7v2.8h-0.4V60c0-0.9-0.3-1.4-1-1.4c-0.5,0-0.9,0.3-1.4,0.8
		v3.3h-0.4V56.2z"/>
</g>
<g>
	<path d="M155.7,61.2c0-0.8,0.6-1.3,1.2-1.6v0c-0.4-0.3-0.8-0.7-0.8-1.3c0-0.8,0.7-1.4,1.5-1.4c1,0,1.6,0.6,1.6,1.5
		c0,0.6-0.5,1.2-0.8,1.5v0c0.5,0.3,1,0.7,1,1.5c0,0.8-0.7,1.5-1.7,1.5C156.4,62.8,155.7,62.1,155.7,61.2z M158.8,61.3
		c0-0.9-0.9-1.2-1.8-1.5c-0.6,0.3-1,0.8-1,1.5c0,0.7,0.6,1.3,1.4,1.3C158.3,62.5,158.8,61.9,158.8,61.3z M158.7,58.3
		c0-0.6-0.4-1.2-1.2-1.2c-0.6,0-1.1,0.5-1.1,1.1c0,0.8,0.8,1.1,1.5,1.4C158.4,59.3,158.7,58.8,158.7,58.3z"/>
	<path d="M160.1,60.1c0-2.4,1-3.3,2.1-3.3c0.5,0,0.9,0.2,1.2,0.6l-0.2,0.3c-0.3-0.3-0.6-0.5-1-0.5c-0.9,0-1.7,0.7-1.7,2.8
		c0.4-0.5,0.9-0.8,1.4-0.8c1,0,1.6,0.6,1.6,1.8c0,1-0.7,1.8-1.6,1.8C160.8,62.8,160.1,61.8,160.1,60.1z M160.5,60.4
		c0.1,1.2,0.5,2,1.5,2c0.7,0,1.2-0.6,1.2-1.5s-0.4-1.4-1.2-1.4C161.5,59.6,161,59.8,160.5,60.4z"/>
</g>
<g>
	<path d="M230.8,62.3h1.4v-4.8h-1v-0.3c0.5-0.1,0.8-0.2,1.1-0.4h0.3v5.4h1.3v0.4h-3V62.3z"/>
	<path d="M234.8,59.8c0-1.9,0.6-3,1.7-3c1.1,0,1.7,1.1,1.7,3c0,1.9-0.6,3-1.7,3C235.4,62.8,234.8,61.7,234.8,59.8z M237.8,59.8
		c0-1.8-0.5-2.6-1.3-2.6c-0.8,0-1.3,0.9-1.3,2.6c0,1.8,0.5,2.7,1.3,2.7C237.3,62.5,237.8,61.5,237.8,59.8z"/>
	<path d="M239.1,59.8c0-1.9,0.6-3,1.7-3c1.1,0,1.7,1.1,1.7,3c0,1.9-0.6,3-1.7,3C239.7,62.8,239.1,61.7,239.1,59.8z M242.2,59.8
		c0-1.8-0.5-2.6-1.3-2.6c-0.8,0-1.3,0.9-1.3,2.6c0,1.8,0.5,2.7,1.3,2.7C241.6,62.5,242.2,61.5,242.2,59.8z"/>
</g>
<g>
	<path d="M4.9,69.2h0.6l1.2,3.5c0.2,0.4,0.3,0.9,0.5,1.3h0c0.2-0.4,0.3-0.9,0.5-1.3l1.2-3.5h0.6v5.9H9.1v-3.9c0-0.5,0-1.1,0.1-1.6h0
		l-0.5,1.3l-1.3,3.5H7.1l-1.3-3.5l-0.5-1.3h0c0,0.5,0.1,1.1,0.1,1.6v3.9H4.9V69.2z"/>
	<path d="M10.9,74c0-1,0.9-1.4,2.8-1.6c0-0.7-0.2-1.4-1-1.4c-0.6,0-1.1,0.3-1.4,0.5l-0.2-0.3c0.3-0.2,0.9-0.6,1.6-0.6
		c1,0,1.4,0.7,1.4,1.7v2.8h-0.3l0-0.6h0c-0.4,0.4-1,0.7-1.5,0.7C11.5,75.2,10.9,74.8,10.9,74z M13.7,74.2v-1.5
		c-1.8,0.2-2.4,0.6-2.4,1.3c0,0.6,0.4,0.9,0.9,0.9S13.2,74.6,13.7,74.2z"/>
	<path d="M15.8,73.9v-2.8h-0.7v-0.3l0.7,0l0.1-1.3h0.3v1.3h1.3v0.3h-1.3v2.8c0,0.5,0.1,0.9,0.7,0.9c0.2,0,0.4-0.1,0.5-0.1l0.1,0.3
		c-0.3,0.1-0.5,0.2-0.7,0.2C16,75.2,15.8,74.7,15.8,73.9z"/>
	<path d="M18.5,68.6h0.4v2.8c0.5-0.5,0.9-0.8,1.5-0.8c0.9,0,1.3,0.5,1.3,1.7v2.8h-0.4v-2.7c0-0.9-0.3-1.4-1-1.4
		c-0.5,0-0.9,0.3-1.4,0.8v3.3h-0.4V68.6z"/>
	<path d="M22.7,74.6l0.2-0.3c0.4,0.3,0.8,0.5,1.4,0.5c0.7,0,1-0.4,1-0.9c0-0.5-0.6-0.8-1.1-1c-0.7-0.2-1.3-0.5-1.3-1.2
		c0-0.6,0.5-1.2,1.4-1.2c0.5,0,0.9,0.2,1.2,0.5l-0.2,0.3c-0.3-0.2-0.6-0.4-1-0.4c-0.7,0-1,0.4-1,0.8c0,0.5,0.5,0.7,1,0.9
		c0.7,0.3,1.4,0.5,1.4,1.3c0,0.6-0.5,1.2-1.5,1.2C23.6,75.2,23.1,74.9,22.7,74.6z"/>
</g>
<g>
	<path d="M155.8,72.5c0-2.4,1-3.3,2.1-3.3c0.5,0,0.9,0.2,1.2,0.6l-0.2,0.3c-0.3-0.3-0.6-0.5-1-0.5c-0.9,0-1.7,0.7-1.7,2.8
		c0.4-0.5,0.9-0.8,1.4-0.8c1,0,1.6,0.6,1.6,1.8c0,1-0.7,1.8-1.6,1.8C156.5,75.2,155.8,74.2,155.8,72.5z M156.2,72.8
		c0.1,1.2,0.5,2,1.5,2c0.7,0,1.2-0.6,1.2-1.5s-0.4-1.4-1.2-1.4C157.2,72,156.7,72.2,156.2,72.8z"/>
	<path d="M160,74.9c1.9-1.9,2.8-3,2.8-4c0-0.7-0.4-1.3-1.3-1.3c-0.5,0-1,0.3-1.3,0.8l-0.3-0.3c0.4-0.5,0.9-0.8,1.6-0.8
		c1,0,1.6,0.6,1.6,1.6c0,1.1-1,2.2-2.6,3.9c0.3,0,0.6,0,1,0h2v0.4H160V74.9z"/>
</g>
<g>
	<path d="M237.8,69.7h-3v-0.4h3.5v0.2c-1.4,1.8-1.7,3.3-1.8,5.5h-0.4C236.2,72.8,236.6,71.3,237.8,69.7z"/>
	<path d="M239.1,74.9c1.9-1.9,2.8-3,2.8-4c0-0.7-0.4-1.3-1.3-1.3c-0.5,0-1,0.3-1.3,0.8l-0.3-0.3c0.4-0.5,0.9-0.8,1.6-0.8
		c1,0,1.6,0.6,1.6,1.6c0,1.1-1,2.2-2.6,3.9c0.3,0,0.6,0,1,0h2v0.4h-3.5V74.9z"/>
</g>
</svg>
