<?xml version="1.0" encoding="utf-8"?>
<!-- Generator: Adobe Illustrator 23.0.3, SVG Export Plug-In . SVG Version: 6.00 Build 0)  -->
<svg version="1.1" id="Layer_1" xmlns="http://www.w3.org/2000/svg" xmlns:xlink="http://www.w3.org/1999/xlink" x="0px" y="0px"
	 viewBox="0 0 30 30" style="enable-background:new 0 0 30 30;" xml:space="preserve">
<style type="text/css">
	.st0{fill:#010101;}
</style>
<g>
	<path class="st0" d="M14.9,21.2h1.5c0.1-0.3,0.3-0.5,0.5-0.5s0.5,0.2,0.5,0.5h1.5c-0.1-1-0.9-1.7-2-1.7
		C15.8,19.4,14.9,20.2,14.9,21.2L14.9,21.2z"/>
	<path class="st0" d="M29.4,18.1l0.1-0.3l-5.4-1.1c0-0.1,0-0.3,0.1-0.5l2.9,0.3c0-0.1,0-0.2,0-0.3l-2.9-0.3c0-0.2,0-0.4,0-0.7h4
		c0-0.1,0-0.1,0-0.2s0-0.1,0-0.2h-4c0-0.2,0-0.4,0-0.6l2.9-0.3c0-0.1,0-0.2,0-0.3l-2.9,0.3c0-0.4-0.1-0.7-0.2-1l5.3-1.4l-0.1-0.3
		l-5.3,1.4c0-0.1-0.1-0.3-0.1-0.4l2.7-1c0-0.1-0.1-0.2-0.1-0.3l-2.7,1c-0.1-0.2-0.2-0.4-0.3-0.6L27,9.5c0-0.1-0.1-0.2-0.2-0.3
		L23.2,11c-0.1-0.2-0.2-0.4-0.3-0.5L25.3,9c-0.1-0.1-0.1-0.2-0.2-0.3l-2.4,1.5c-0.2-0.3-0.4-0.6-0.6-0.8l4.2-3.6l-0.2-0.3l-4.2,3.6
		c-0.1-0.1-0.2-0.3-0.4-0.4l2-2.1c-0.1-0.2-0.1-0.3-0.2-0.4l-2,2.1C21.1,8.2,21,8,20.8,7.9l2.4-3.2c-0.1-0.1-0.2-0.1-0.3-0.2
		l-2.4,3.2c-0.2-0.1-0.3-0.2-0.5-0.3l1.5-2.5c-0.1-0.1-0.2-0.1-0.3-0.2l-1.5,2.5c-0.3-0.2-0.6-0.4-0.9-0.5L21,1.6l-0.3-0.1l-2.2,5.1
		c-0.2-0.1-0.3-0.1-0.5-0.2l0.9-2.7c-0.1,0-0.2-0.1-0.3-0.1l-0.9,2.7c-0.2-0.1-0.4-0.1-0.6-0.2l0.8-4c-0.1,0-0.2,0-0.3-0.1l-0.8,4
		c-0.2,0-0.4-0.1-0.6-0.1l0.2-2.8c-0.1,0-0.2,0-0.3,0L15.8,6c-0.2,0-0.4,0-0.6,0V0.4h-0.4v5.5c-0.2,0-0.4,0-0.5,0L14,3
		c-0.1,0-0.2,0-0.3,0L14,5.9c-0.2,0-0.4,0.1-0.6,0.1l-0.8-4c-0.1,0-0.2,0-0.3,0.1l0.8,4c-0.2,0-0.4,0.1-0.6,0.2l-0.9-2.7
		c-0.1,0-0.2,0.1-0.3,0.1l0.9,2.7c-0.3,0.1-0.6,0.2-0.9,0.4L8.9,1.9L8.6,2.1L11,7c-0.2,0.1-0.3,0.2-0.5,0.3L8.9,4.7
		C8.8,4.8,8.7,4.8,8.6,4.9l1.5,2.5C9.9,7.5,9.7,7.6,9.6,7.8L7.1,4.6C7,4.7,6.9,4.7,6.8,4.8L9.3,8C9.1,8.1,9,8.3,8.8,8.4l-2-2.1
		C6.7,6.4,6.6,6.5,6.6,6.5l2,2.1C8.4,8.8,8.2,9.1,8,9.3L3.7,5.9L3.4,6.2l4.3,3.4C7.6,9.7,7.5,9.9,7.4,10L5,8.5
		C4.9,8.6,4.9,8.7,4.8,8.8l2.4,1.5c-0.1,0.2-0.2,0.4-0.3,0.6L3.3,9.1C3.2,9.2,3.2,9.3,3.1,9.4l3.6,1.8c-0.1,0.2-0.2,0.4-0.2,0.6
		l-2.7-1c0,0.1-0.1,0.2-0.1,0.3l2.7,1c-0.1,0.3-0.2,0.7-0.3,1L0.6,12l-0.1,0.3L6,13.4c0,0.2,0,0.3-0.1,0.5L3,13.6c0,0.1,0,0.2,0,0.3
		l2.9,0.3c0,0.2,0,0.4,0,0.7h-4c0,0.1,0,0.1,0,0.2s0,0.1,0,0.2h4c0,0.2,0,0.4,0,0.6L3,16.2c0,0.1,0,0.2,0,0.3l2.9-0.3
		c0,0.4,0.1,0.7,0.2,1l-5.3,1.4l0.1,0.3l5.3-1.4c0,0.1,0.1,0.3,0.1,0.4l-2.7,1c0,0.1,0.1,0.2,0.1,0.3l2.7-1c0.1,0.2,0.2,0.4,0.3,0.6
		l-3.6,1.9c0,0.1,0.1,0.2,0.2,0.3l3.6-1.8c0.1,0.2,0.2,0.4,0.3,0.5l-2.4,1.5c0.1,0.1,0.1,0.2,0.2,0.3L7.4,20
		c0.2,0.3,0.4,0.6,0.6,0.8l-4.2,3.6L4,24.7l4.2-3.6c0.1,0.1,0.2,0.3,0.4,0.4l-2,2.1c0.1,0.1,0.2,0.2,0.2,0.2l2-2.1
		C9,21.9,9.1,22,9.3,22.1l-2.5,3.2c0.1,0.1,0.2,0.1,0.3,0.2l2.5-3.2c0.2,0.1,0.3,0.2,0.5,0.3l-1.5,2.5c0.1,0.1,0.2,0.1,0.3,0.2
		l1.5-2.5c0.3,0.2,0.6,0.3,0.9,0.5l-2.2,5.1l0.3,0.1l2.2-5.1c0.2,0.1,0.3,0.1,0.5,0.2l-0.9,2.7c0.1,0,0.2,0.1,0.3,0.1l0.9-2.7
		c0.2,0.1,0.4,0.1,0.6,0.2l-0.8,4c0.1,0,0.2,0,0.3,0.1l0.8-4c0.2,0,0.4,0.1,0.6,0.1L13.5,27c0.1,0,0.2,0,0.3,0l0.3-2.9
		c0.2,0,0.4,0,0.6,0v5.5h0.4v-5.5c0.2,0,0.4,0,0.5,0l0.3,2.9c0.1,0,0.2,0,0.3,0l-0.3-2.9c0.2,0,0.4-0.1,0.6-0.1l0.8,4
		c0.1,0,0.2,0,0.3-0.1l-0.8-4c0.2,0,0.4-0.1,0.6-0.2l0.9,2.7c0.1,0,0.2-0.1,0.3-0.1l-0.9-2.7c0.3-0.1,0.6-0.2,0.9-0.4l2.4,4.9
		l0.3-0.2L18.9,23c0.2-0.1,0.3-0.2,0.5-0.3l1.5,2.4c0.1-0.1,0.2-0.1,0.3-0.2l-1.5-2.5c0.2-0.1,0.4-0.2,0.5-0.4l2.5,3.2
		c0.1-0.1,0.2-0.1,0.3-0.2l-2.5-3.2c0.2-0.1,0.3-0.3,0.5-0.4l2,2.1c0.1-0.1,0.2-0.2,0.2-0.2l-2-2.1c0.2-0.2,0.4-0.5,0.6-0.7l4.3,3.4
		l0.2-0.3l-4-3c0.1-0.1,0.2-0.3,0.3-0.4l2.4,1.5c0.1-0.1,0.1-0.2,0.2-0.3l-2.4-1.5c0.1-0.2,0.2-0.4,0.3-0.6l3.6,1.8
		c0.1-0.1,0.1-0.2,0.2-0.3L23.4,19c0.1-0.2,0.2-0.4,0.2-0.6l2.7,1c0-0.1,0.1-0.2,0.1-0.3l-2.7-1c0.1-0.3,0.2-0.7,0.3-1L29.4,18.1
		L29.4,18.1z M20.7,21.1V10h-1.6v4.5h-2l-0.7,1.6h2.8v5.1h1.5c-1.5,1.3-3.4,2.2-5.6,2.2c-2.1,0-4.1-0.8-5.6-2.2h1.4v-5.1h2.3
		l0.8-1.6h-3.1V10H9.4v11.1c-1.6-1.5-2.5-3.6-2.5-6c0-4.6,3.7-8.3,8.2-8.3s8.2,3.7,8.2,8.3C23.3,17.4,22.3,19.6,20.7,21.1L20.7,21.1
		z"/>
	<path class="st0" d="M16.9,9.2c-0.7,0.3-1,0.7-2,0.7c-0.9,0-1.8-0.4-2.6-1c0.2,1.7,0.9,2.4,2.2,2.5c0.9,0.1,1.5-0.3,2.1-0.6
		l-5.2,10.4h0.8H13h1.5v-1.5h-0.7l4.9-9.8C18.3,9.2,17.3,9,16.9,9.2L16.9,9.2z"/>
</g>
</svg>
