<?xml version="1.0" encoding="utf-8"?>
<!-- Generator: Adobe Illustrator 23.0.3, SVG Export Plug-In . SVG Version: 6.00 Build 0)  -->
<svg version="1.1" id="Layer_1" xmlns="http://www.w3.org/2000/svg" xmlns:xlink="http://www.w3.org/1999/xlink" x="0px" y="0px"
	 viewBox="0 0 1000 485" style="enable-background:new 0 0 1000 485;" xml:space="preserve">
<style type="text/css">
	.st0{fill:#ABD592;}
	.st1{fill:#54371E;}
	.st2{fill:#231F20;}
	.st3{fill:#231F20;stroke:#231F20;stroke-width:0.75;stroke-miterlimit:10;}
	.st4{fill:none;stroke:#231F20;stroke-width:2;}
	.st5{fill:none;stroke:#000000;stroke-width:2;}
</style>
<rect x="219.4" y="129.8" class="st0" width="686.3" height="36.9"/>
<rect x="219.4" y="199.5" class="st0" width="605.2" height="36.9"/>
<rect x="219.4" y="269.2" class="st0" width="524.5" height="36.9"/>
<rect x="219.4" y="338.9" class="st1" width="377" height="36.9"/>
<rect x="219.4" y="408.6" class="st0" width="255.9" height="36.9"/>
<g>
	<path class="st2" d="M4.3,31V4h6.1v21.8h10.7v5.1H4.3V31z"/>
	<path class="st2" d="M25.9,31V4h16.9v5.1h-11v5.4H41v5.2h-9.2v6.2H43V31H25.9z"/>
	<path class="st2" d="M45,31l8.4-27h7.3l8.4,27h-6.5l-1.7-6.4h-8.2L51.3,31H45z M54.8,17.4l-0.7,2.5h5.8l-0.7-2.5
		c-0.4-1.4-0.8-2.8-1.1-4.3c-0.4-1.5-0.7-3-1.1-4.4h-0.2c-0.3,1.4-0.7,2.9-1,4.4C55.5,14.6,55.2,16,54.8,17.4z"/>
	<path class="st2" d="M72.2,31V4h7.6c2.1,0,3.9,0.3,5.6,0.8s3.1,1.3,4.3,2.4c1.2,1.1,2.1,2.5,2.7,4.2s1,3.7,1,6s-0.3,4.3-1,6
		c-0.6,1.7-1.5,3.1-2.7,4.2c-1.2,1.1-2.5,2-4.2,2.5c-1.6,0.6-3.4,0.8-5.4,0.8L72.2,31L72.2,31z M78.3,26.1h1.2
		c1.2,0,2.2-0.2,3.1-0.5s1.7-0.8,2.4-1.5c0.7-0.7,1.2-1.6,1.6-2.7s0.6-2.5,0.6-4.1s-0.2-2.9-0.6-4s-0.9-2-1.6-2.6s-1.5-1.1-2.4-1.4
		c-0.9-0.3-2-0.4-3.1-0.4h-1.2V26.1z"/>
	<path class="st2" d="M98.4,31V4h6.1v27H98.4z"/>
	<path class="st2" d="M110.9,31V4h6.2l7,13.4l2.6,6h0.2c-0.1-1.4-0.3-3-0.5-4.8c-0.2-1.8-0.3-3.4-0.3-5V4.1h5.8v27h-6.2l-7-13.4
		l-2.6-5.9h-0.2c0.1,1.5,0.3,3.1,0.5,4.8s0.3,3.4,0.3,5v9.6h-5.8V31z"/>
	<path class="st2" d="M150.4,31.5c-1.8,0-3.6-0.3-5.2-0.9c-1.6-0.6-3-1.5-4.2-2.6s-2.1-2.6-2.8-4.3s-1-3.7-1-6c0-2.2,0.3-4.2,1-6
		s1.6-3.2,2.8-4.4s2.6-2.1,4.2-2.8c1.6-0.6,3.3-1,5.1-1c2,0,3.6,0.4,5,1.1s2.6,1.5,3.4,2.4l-3.2,3.9c-0.7-0.6-1.4-1.1-2.2-1.5
		s-1.7-0.6-2.9-0.6c-1,0-2,0.2-2.9,0.6c-0.9,0.4-1.6,1-2.3,1.7c-0.6,0.7-1.1,1.7-1.5,2.7c-0.3,1.1-0.5,2.3-0.5,3.6
		c0,2.8,0.6,4.9,1.9,6.5c1.3,1.5,3.2,2.3,5.7,2.3c0.6,0,1.1-0.1,1.6-0.2s1-0.3,1.3-0.6v-4.6h-4.5v-5h9.8v12.4
		c-0.9,0.9-2.2,1.7-3.7,2.3C153.9,31.2,152.3,31.5,150.4,31.5z"/>
	<path class="st2" d="M171.4,31v-3.7l11.9-18.2h-10.8v-5h18.3v3.6l-11.9,18.2h12V31H171.4z"/>
	<path class="st2" d="M195.4,31V4h6.1v27H195.4z"/>
	<path class="st2" d="M207.9,31V4h6.2l7,13.4l2.6,6h0.2c-0.1-1.4-0.3-3-0.5-4.8c-0.2-1.8-0.3-3.4-0.3-5V4.1h5.8v27h-6.2l-7-13.4
		l-2.6-5.9h-0.2c0.1,1.5,0.3,3.1,0.5,4.8s0.3,3.4,0.3,5v9.6h-5.8V31z"/>
	<path class="st2" d="M246.8,31.5c-1.7,0-3.3-0.3-4.8-0.9s-2.8-1.5-4-2.6c-1.1-1.2-2-2.6-2.7-4.3s-1-3.7-1-6c0-2.2,0.3-4.2,1-6
		s1.6-3.2,2.8-4.4s2.5-2.1,4.1-2.8c1.5-0.6,3.2-1,4.9-1s3.3,0.4,4.7,1.1s2.5,1.5,3.4,2.5L252,11c-0.7-0.6-1.4-1.2-2.2-1.6
		c-0.8-0.4-1.6-0.6-2.6-0.6c-0.9,0-1.8,0.2-2.6,0.6c-0.8,0.4-1.5,1-2.1,1.7s-1.1,1.7-1.4,2.7c-0.3,1.1-0.5,2.3-0.5,3.6
		c0,2.8,0.6,4.9,1.8,6.5c1.2,1.5,2.8,2.3,4.8,2.3c1.1,0,2.1-0.2,3-0.7s1.6-1.1,2.3-1.8l3.2,3.8C253.1,30.2,250.3,31.5,246.8,31.5z"
		/>
	<path class="st2" d="M266.5,22.7v-4.3h10.2v4.3H266.5z"/>
	<path class="st2" d="M289.9,31V4h6.1v21.8h10.7v5.1h-16.8L289.9,31L289.9,31z"/>
	<path class="st2" d="M311.3,31V4h16.9v5.1h-10.8v5.4h9.2v5.2h-9.2v6.2h11.2V31H311.3z"/>
	<path class="st2" d="M330.5,31l8.4-27h7.3l8.4,27h-6.4l-1.7-6.4h-8.2l-1.7,6.4H330.5z M340.3,17.4l-0.7,2.5h5.8l-0.6-2.5
		c-0.4-1.4-0.8-2.8-1.1-4.3c-0.4-1.5-0.7-3-1.1-4.4h-0.2c-0.3,1.4-0.7,2.9-1,4.4C341,14.6,340.6,16,340.3,17.4z"/>
	<path class="st2" d="M357.6,31V4h7.6c2.1,0,3.9,0.3,5.6,0.8s3.1,1.3,4.3,2.4c1.2,1.1,2.1,2.5,2.7,4.2s1,3.7,1,6s-0.3,4.3-1,6
		c-0.6,1.7-1.5,3.1-2.7,4.2c-1.2,1.1-2.5,2-4.2,2.5c-1.6,0.6-3.4,0.8-5.4,0.8L357.6,31L357.6,31z M363.8,26.1h1.2
		c1.2,0,2.2-0.2,3.1-0.5s1.7-0.8,2.4-1.5c0.7-0.7,1.2-1.6,1.6-2.7s0.6-2.5,0.6-4.1s-0.2-2.9-0.6-4s-0.9-2-1.6-2.6s-1.5-1.1-2.4-1.4
		c-0.9-0.3-2-0.4-3.1-0.4h-1.2V26.1z"/>
	<path class="st2" d="M400.5,31.5c-1.8,0-3.5-0.3-5.3-1c-1.8-0.6-3.3-1.6-4.7-2.9l3.5-4.2c1,0.8,2,1.5,3.2,2s2.3,0.8,3.5,0.8
		c1.3,0,2.2-0.2,2.8-0.7c0.6-0.5,0.9-1.1,0.9-1.9c0-0.4-0.1-0.8-0.3-1.1c-0.2-0.3-0.4-0.6-0.8-0.8c-0.3-0.2-0.8-0.5-1.2-0.7
		c-0.5-0.2-1-0.4-1.6-0.7l-3.5-1.5c-0.7-0.3-1.4-0.6-2-1.1c-0.6-0.4-1.2-1-1.7-1.6s-0.9-1.3-1.2-2.1c-0.3-0.8-0.5-1.7-0.5-2.7
		c0-1.1,0.2-2.1,0.7-3.1s1.1-1.8,2-2.6c0.9-0.7,1.9-1.3,3-1.7c1.2-0.4,2.5-0.6,3.9-0.6c1.6,0,3.1,0.3,4.7,0.9c1.5,0.6,2.9,1.5,4,2.6
		l-3.1,3.8c-0.9-0.7-1.8-1.2-2.6-1.6c-0.9-0.4-1.9-0.6-2.9-0.6s-1.9,0.2-2.5,0.6s-0.9,1-0.9,1.8c0,0.4,0.1,0.8,0.3,1.1
		s0.5,0.6,0.9,0.8s0.8,0.5,1.3,0.7s1,0.4,1.6,0.7l3.5,1.4c1.7,0.7,3,1.6,3.9,2.7s1.4,2.7,1.4,4.6c0,1.1-0.2,2.2-0.7,3.2
		s-1.1,1.9-2,2.6c-0.9,0.8-1.9,1.4-3.2,1.8C403.5,31.3,402,31.5,400.5,31.5z"/>
	<path class="st2" d="M415.1,31V4h6.7l4.3,12c0.3,0.8,0.5,1.6,0.8,2.5c0.2,0.8,0.5,1.7,0.8,2.5h0.2c0.3-0.8,0.5-1.7,0.8-2.5
		c0.2-0.8,0.5-1.7,0.8-2.5l4.3-12h6.6v27h-5.5v-9.9c0-0.7,0-1.4,0.1-2.2c0.1-0.8,0.1-1.6,0.2-2.4s0.2-1.6,0.2-2.4
		c0.1-0.8,0.2-1.5,0.2-2.2h-0.2l-2.2,6.4l-3.9,10.4H426l-3.8-10.3L420,12h-0.2c0.1,0.7,0.2,1.4,0.2,2.2c0.1,0.8,0.2,1.6,0.2,2.4
		c0.1,0.8,0.2,1.6,0.2,2.4c0.1,0.8,0.1,1.5,0.1,2.2v9.9h-5.3V31H415.1z"/>
	<path class="st2" d="M446.8,31V4h16.9v5.1h-10.8v5.4h9.2v5.2h-9.2v6.2h11.2V31H446.8z"/>
	<path class="st2" d="M469.5,31V4h6.1v21.8h10.7v5.1h-16.8L469.5,31L469.5,31z"/>
	<path class="st2" d="M491.1,31V9.2h-7.4V4.1h20.9v5.1h-7.4V31H491.1z"/>
	<path class="st2" d="M508.9,31V4h16.9v5.1H515v5.4h9.2v5.2H515v6.2h11.2V31H508.9z"/>
	<path class="st2" d="M531.5,31V4h9.7c1.4,0,2.8,0.1,4,0.4c1.3,0.3,2.4,0.7,3.3,1.4c0.9,0.6,1.7,1.5,2.2,2.6c0.6,1.1,0.8,2.4,0.8,4
		c0,2-0.4,3.6-1.3,4.9s-2,2.2-3.5,2.9l6.1,10.8H546l-5.2-9.7h-3.4V31H531.5z M537.7,16.5h3.1c1.6,0,2.8-0.3,3.7-1
		c0.8-0.7,1.3-1.7,1.3-3s-0.4-2.2-1.3-2.8c-0.8-0.5-2.1-0.8-3.7-0.8h-3.1V16.5z"/>
	<path class="st2" d="M564.7,31.5c-1.8,0-3.5-0.3-5.3-1c-1.8-0.6-3.3-1.6-4.7-2.9l3.5-4.2c1,0.8,2,1.5,3.2,2s2.3,0.8,3.5,0.8
		c1.3,0,2.2-0.2,2.8-0.7s0.9-1.1,0.9-1.9c0-0.4-0.1-0.8-0.3-1.1c-0.2-0.3-0.4-0.6-0.8-0.8c-0.3-0.2-0.8-0.5-1.2-0.7
		c-0.5-0.2-1-0.4-1.6-0.7l-3.5-1.5c-0.7-0.3-1.4-0.6-2-1.1c-0.6-0.4-1.2-1-1.7-1.6s-0.9-1.3-1.2-2.1s-0.5-1.7-0.5-2.7
		c0-1.1,0.2-2.1,0.7-3.1s1.1-1.8,2-2.6c0.9-0.7,1.9-1.3,3-1.7c1.2-0.4,2.5-0.6,3.9-0.6c1.6,0,3.1,0.3,4.7,0.9c1.5,0.6,2.9,1.5,4,2.6
		l-3.1,3.8c-0.9-0.7-1.8-1.2-2.6-1.6c-0.9-0.4-1.9-0.6-2.9-0.6S563.6,8.6,563,9s-0.9,1-0.9,1.8c0,0.4,0.1,0.8,0.3,1.1
		s0.5,0.6,0.9,0.8s0.8,0.5,1.3,0.7s1,0.4,1.6,0.7l3.5,1.4c1.7,0.7,3,1.6,3.9,2.7c1,1.2,1.4,2.7,1.4,4.6c0,1.1-0.2,2.2-0.7,3.2
		s-1.1,1.9-2,2.6c-0.9,0.8-1.9,1.4-3.2,1.8C567.7,31.3,566.3,31.5,564.7,31.5z"/>
</g>
<g>
	<path class="st3" d="M7.2,68.8c-1.1-1.8-2-3.7-2.6-5.7c-0.6-2-0.9-4.2-0.9-6.5c0-2.4,0.3-4.5,0.9-6.5s1.5-3.9,2.6-5.7l0.7,0.4
		c-1.1,1.7-1.9,3.6-2.4,5.6s-0.8,4.1-0.8,6.2c0,2.1,0.3,4.2,0.8,6.2s1.3,3.9,2.4,5.6L7.2,68.8z"/>
	<path class="st3" d="M11.3,64.1V46.4H13l3.7,10.4c0.2,0.6,0.5,1.3,0.7,1.9c0.2,0.7,0.5,1.3,0.7,2h0.2c0.2-0.7,0.5-1.3,0.7-2
		s0.4-1.3,0.7-1.9l3.6-10.4H25v17.7h-1.2V52.5c0-0.7,0-1.5,0.1-2.4c0-0.9,0.1-1.7,0.1-2.4h-0.1l-1.4,4l-3.8,10.5h-1.1l-3.9-10.5
		l-1.4-4h-0.1c0,0.8,0.1,1.6,0.1,2.4c0,0.9,0.1,1.6,0.1,2.4v11.6H11.3z"/>
	<path class="st3" d="M35,64.5c-0.8,0-1.6-0.2-2.3-0.5c-0.7-0.3-1.4-0.7-1.9-1.3s-1-1.3-1.3-2.1c-0.3-0.9-0.5-1.8-0.5-2.9
		s0.2-2,0.5-2.9c0.3-0.8,0.7-1.6,1.3-2.1c0.5-0.6,1.1-1,1.8-1.3s1.4-0.5,2.1-0.5c1.5,0,2.8,0.5,3.6,1.6s1.3,2.5,1.3,4.4
		c0,0.2,0,0.3,0,0.5s0,0.3-0.1,0.5h-9.3c0,0.8,0.1,1.6,0.4,2.2c0.2,0.7,0.6,1.3,1,1.8s0.9,0.9,1.5,1.2s1.3,0.4,2,0.4
		s1.3-0.1,1.9-0.3c0.6-0.2,1.1-0.5,1.6-0.8l0.5,0.9c-0.5,0.3-1.1,0.6-1.7,0.9C36.8,64.5,36,64.5,35,64.5z M30.3,56.9h8.2
		c0-1.7-0.3-2.9-1-3.7S35.9,52,34.7,52c-0.6,0-1.1,0.1-1.6,0.3s-1,0.6-1.4,1s-0.7,1-1,1.6C30.5,55.4,30.4,56.1,30.3,56.9z"/>
	<path class="st3" d="M46.5,64.5c-0.6,0-1.1-0.1-1.6-0.3c-0.4-0.2-0.7-0.5-1-0.8s-0.4-0.8-0.5-1.2c-0.1-0.5-0.1-1-0.1-1.6v-8.3h-2
		v-0.9l2-0.1l0.2-3.7h1v3.7h3.7v1h-3.7v8.4c0,0.4,0,0.8,0.1,1.1s0.2,0.6,0.3,0.9c0.2,0.2,0.4,0.4,0.7,0.6c0.3,0.1,0.6,0.2,1.1,0.2
		c0.3,0,0.5,0,0.8-0.1s0.6-0.2,0.8-0.3l0.3,1c-0.4,0.1-0.8,0.3-1.1,0.3C47,64.4,46.7,64.5,46.5,64.5z"/>
	<path class="st3" d="M53.5,64.5c-0.5,0-1-0.1-1.5-0.2c-0.4-0.1-0.8-0.4-1.2-0.6c-0.3-0.3-0.6-0.7-0.8-1.1s-0.3-1-0.3-1.6
		c0-1.4,0.7-2.5,2-3.3c1.3-0.7,3.4-1.3,6.3-1.6c0-0.5,0-1-0.1-1.5s-0.2-0.9-0.5-1.3s-0.5-0.7-0.9-0.9S55.6,52,55,52
		c-0.9,0-1.6,0.2-2.4,0.5c-0.7,0.3-1.3,0.7-1.7,1l-0.5-0.9c0.2-0.2,0.5-0.3,0.8-0.5s0.7-0.4,1.1-0.5c0.4-0.2,0.9-0.3,1.3-0.4
		c0.5-0.1,1-0.2,1.5-0.2c0.8,0,1.4,0.1,1.9,0.4s0.9,0.6,1.3,1.1c0.3,0.4,0.6,1,0.7,1.6c0.1,0.6,0.2,1.3,0.2,1.9v8.3h-1l0.1-1.8h-0.1
		c-0.7,0.5-1.4,1-2.1,1.4C55.3,64.3,54.5,64.5,53.5,64.5z M53.8,63.4c0.8,0,1.5-0.2,2.2-0.5c0.7-0.4,1.4-0.9,2.2-1.6v-4.4
		c-1.3,0.2-2.4,0.4-3.4,0.6c-0.9,0.2-1.6,0.5-2.2,0.8c-0.6,0.3-1,0.7-1.2,1.1c-0.2,0.4-0.4,0.9-0.4,1.4s0.1,0.9,0.2,1.2
		s0.3,0.6,0.6,0.8s0.5,0.4,0.9,0.5C53,63.4,53.3,63.4,53.8,63.4z"/>
	<path class="st3" d="M65.6,64.5c-1.1,0-1.6-0.7-1.6-2V44.8h1.2v17.8c0,0.3,0.1,0.5,0.2,0.6s0.2,0.2,0.4,0.2c0.1,0,0.1,0,0.2,0
		s0.2,0,0.3-0.1l0.2,1c-0.1,0-0.3,0.1-0.4,0.1C65.8,64.5,65.8,64.5,65.6,64.5z"/>
	<path class="st3" d="M75.7,70V51.2h1l0.1,1.6h0.1c0.6-0.5,1.3-1,2.1-1.3c0.7-0.4,1.5-0.6,2.3-0.6c1.7,0,3,0.6,3.9,1.8
		s1.3,2.8,1.3,4.8c0,1.1-0.2,2.1-0.5,2.9c-0.3,0.9-0.7,1.6-1.3,2.2c-0.5,0.6-1.1,1.1-1.8,1.4c-0.7,0.3-1.4,0.5-2.2,0.5
		c-0.6,0-1.2-0.1-1.9-0.4c-0.7-0.3-1.3-0.7-2-1.2V70H75.7z M80.7,63.4c0.6,0,1.2-0.1,1.8-0.4c0.6-0.3,1-0.7,1.4-1.2s0.7-1.1,0.9-1.9
		c0.2-0.7,0.3-1.5,0.3-2.4c0-0.8-0.1-1.5-0.2-2.2c-0.2-0.7-0.4-1.3-0.7-1.8c-0.3-0.5-0.7-0.9-1.3-1.2c-0.5-0.3-1.1-0.4-1.9-0.4
		c-0.6,0-1.3,0.2-2,0.6c-0.7,0.4-1.4,0.9-2.2,1.6v7.6c0.8,0.6,1.5,1,2.1,1.3S80.2,63.4,80.7,63.4z"/>
	<path class="st3" d="M90.3,64.1V51.2h1l0.1,2.4h0.1c0.4-0.8,1-1.5,1.6-2s1.3-0.8,2.1-0.8c0.3,0,0.5,0,0.7,0.1
		c0.2,0,0.4,0.1,0.6,0.2l-0.3,1.2c-0.2-0.1-0.4-0.1-0.6-0.2c-0.2,0-0.4,0-0.6,0c-0.6,0-1.2,0.2-1.8,0.7c-0.6,0.5-1.2,1.3-1.7,2.6
		v8.8L90.3,64.1L90.3,64.1z"/>
	<path class="st3" d="M103.3,64.5c-0.8,0-1.5-0.2-2.2-0.5c-0.7-0.3-1.3-0.7-1.8-1.3s-1-1.3-1.3-2.1s-0.5-1.8-0.5-2.9
		c0-1.1,0.2-2,0.5-2.9s0.7-1.6,1.3-2.1c0.5-0.6,1.1-1,1.8-1.3c0.7-0.3,1.4-0.5,2.2-0.5c0.8,0,1.5,0.2,2.2,0.5s1.3,0.7,1.9,1.3
		c0.5,0.6,1,1.3,1.3,2.1c0.3,0.9,0.5,1.8,0.5,2.9c0,1.1-0.2,2-0.5,2.9c-0.3,0.8-0.7,1.5-1.3,2.1c-0.5,0.6-1.1,1-1.9,1.3
		C104.8,64.3,104.1,64.5,103.3,64.5z M103.3,63.4c0.6,0,1.3-0.1,1.8-0.4c0.6-0.3,1-0.7,1.5-1.2s0.7-1.1,1-1.8
		c0.2-0.7,0.3-1.5,0.3-2.3c0-0.9-0.1-1.6-0.3-2.3c-0.2-0.7-0.6-1.3-1-1.8s-0.9-0.9-1.5-1.2s-1.2-0.4-1.8-0.4s-1.2,0.1-1.8,0.4
		c-0.6,0.3-1,0.7-1.4,1.2s-0.7,1.1-1,1.8c-0.2,0.7-0.3,1.5-0.3,2.3s0.1,1.6,0.3,2.3c0.2,0.7,0.6,1.3,1,1.8s0.9,0.9,1.4,1.2
		C102.1,63.3,102.7,63.4,103.3,63.4z"/>
	<path class="st3" d="M117.3,64.5c-1.6,0-2.9-0.6-3.9-1.7c-1-1.2-1.5-2.8-1.5-5c0-1,0.2-2,0.5-2.8s0.7-1.6,1.3-2.2
		c0.5-0.6,1.1-1,1.8-1.4c0.7-0.3,1.4-0.5,2.2-0.5c0.8,0,1.5,0.1,2.1,0.4s1.2,0.7,1.8,1.2l-0.1-2.4v-5.3h1.2v19.3h-1l-0.1-1.7h-0.1
		c-0.5,0.5-1.1,1-1.8,1.4C118.8,64.3,118.1,64.5,117.3,64.5z M117.3,63.4c0.7,0,1.4-0.2,2.1-0.6s1.3-0.9,2-1.6v-7.7
		c-0.7-0.6-1.3-1-1.9-1.3s-1.2-0.4-1.8-0.4c-0.6,0-1.2,0.1-1.8,0.4s-1,0.7-1.4,1.2s-0.7,1.1-1,1.8c-0.2,0.7-0.3,1.5-0.3,2.3
		c0,0.9,0.1,1.6,0.3,2.3c0.2,0.7,0.5,1.3,0.8,1.8s0.8,0.9,1.3,1.2C116.2,63.3,116.8,63.4,117.3,63.4z"/>
	<path class="st3" d="M131.4,64.5c-1.3,0-2.3-0.4-3-1.2c-0.6-0.8-0.9-2.1-0.9-3.7v-8.3h1.2v8.1c0,1.4,0.2,2.4,0.7,3.1s1.2,1,2.2,1
		c0.8,0,1.5-0.2,2.1-0.6s1.3-1.1,2.1-2v-9.5h1.2v12.9h-1l-0.1-2.2h-0.1c-0.6,0.8-1.3,1.4-2,1.8C132.9,64.2,132.1,64.5,131.4,64.5z"
		/>
	<path class="st3" d="M146.6,64.5c-0.8,0-1.6-0.2-2.3-0.5c-0.7-0.3-1.3-0.7-1.9-1.3c-0.5-0.6-0.9-1.3-1.2-2.1s-0.4-1.8-0.4-2.9
		c0-1.1,0.2-2,0.5-2.9s0.8-1.6,1.3-2.1c0.5-0.6,1.2-1,1.9-1.3s1.5-0.5,2.2-0.5c0.9,0,1.6,0.2,2.2,0.5s1.1,0.7,1.6,1.1l-0.7,0.8
		c-0.4-0.4-0.9-0.7-1.4-1s-1.1-0.4-1.7-0.4c-0.7,0-1.3,0.1-1.8,0.4c-0.6,0.3-1.1,0.7-1.5,1.2s-0.8,1.1-1,1.8s-0.4,1.5-0.4,2.3
		s0.1,1.6,0.3,2.3s0.5,1.3,0.9,1.8s0.9,0.9,1.5,1.2s1.2,0.4,1.9,0.4s1.3-0.1,1.9-0.4c0.6-0.3,1.1-0.6,1.5-1l0.6,0.8
		c-0.6,0.5-1.2,0.9-1.9,1.2C148.1,64.3,147.4,64.5,146.6,64.5z"/>
	<path class="st3" d="M157.1,64.5c-0.6,0-1.1-0.1-1.6-0.3c-0.4-0.2-0.7-0.5-1-0.8s-0.4-0.8-0.5-1.2c-0.1-0.5-0.1-1-0.1-1.6v-8.3h-2
		v-0.9l2-0.1l0.2-3.7h1v3.7h3.7v1h-3.7v8.4c0,0.4,0,0.8,0.1,1.1s0.2,0.6,0.3,0.9c0.2,0.2,0.4,0.4,0.7,0.6c0.3,0.1,0.6,0.2,1.1,0.2
		c0.3,0,0.5,0,0.8-0.1s0.6-0.2,0.8-0.3l0.3,1c-0.4,0.1-0.8,0.3-1.1,0.3S157.4,64.5,157.1,64.5z"/>
	<path class="st3" d="M162.6,48.1c-0.3,0-0.6-0.1-0.8-0.3s-0.3-0.4-0.3-0.8c0-0.3,0.1-0.6,0.3-0.8s0.5-0.3,0.8-0.3s0.6,0.1,0.8,0.3
		s0.3,0.5,0.3,0.8s-0.1,0.6-0.3,0.8C163.3,48,162.9,48.1,162.6,48.1z M162.1,64.1V51.2h1.2v12.9H162.1z"/>
	<path class="st3" d="M172.9,64.5c-0.8,0-1.5-0.2-2.2-0.5c-0.7-0.3-1.3-0.7-1.8-1.3s-1-1.3-1.3-2.1s-0.5-1.8-0.5-2.9
		c0-1.1,0.2-2,0.5-2.9s0.7-1.6,1.3-2.1c0.5-0.6,1.1-1,1.8-1.3s1.4-0.5,2.2-0.5s1.5,0.2,2.2,0.5s1.3,0.7,1.9,1.3
		c0.5,0.6,1,1.3,1.3,2.1c0.3,0.9,0.5,1.8,0.5,2.9c0,1.1-0.2,2-0.5,2.9c-0.3,0.8-0.7,1.5-1.3,2.1c-0.5,0.6-1.1,1-1.9,1.3
		C174.4,64.3,173.6,64.5,172.9,64.5z M172.9,63.4c0.6,0,1.3-0.1,1.8-0.4c0.6-0.3,1-0.7,1.5-1.2s0.7-1.1,1-1.8
		c0.2-0.7,0.3-1.5,0.3-2.3c0-0.9-0.1-1.6-0.3-2.3s-0.6-1.3-1-1.8s-0.9-0.9-1.5-1.2s-1.2-0.4-1.8-0.4s-1.2,0.1-1.8,0.4
		c-0.6,0.3-1,0.7-1.4,1.2s-0.7,1.1-1,1.8c-0.2,0.7-0.3,1.5-0.3,2.3s0.1,1.6,0.3,2.3s0.6,1.3,1,1.8s0.9,0.9,1.4,1.2
		C171.6,63.3,172.3,63.4,172.9,63.4z"/>
	<path class="st3" d="M182.6,64.1V51.2h1l0.1,2h0.1c0.7-0.7,1.3-1.2,2-1.7c0.7-0.4,1.5-0.7,2.4-0.7c1.3,0,2.3,0.4,3,1.2
		c0.6,0.8,0.9,2.1,0.9,3.7V64h-1.2v-8.1c0-1.4-0.2-2.4-0.7-3.1c-0.5-0.7-1.2-1-2.3-1c-0.8,0-1.5,0.2-2.1,0.6c-0.6,0.4-1.3,1-2.1,1.8
		v9.7h-1.1L182.6,64.1L182.6,64.1z"/>
	<path class="st3" d="M202.9,48.1c-0.3,0-0.6-0.1-0.8-0.3s-0.3-0.4-0.3-0.8c0-0.3,0.1-0.6,0.3-0.8s0.5-0.3,0.8-0.3s0.6,0.1,0.8,0.3
		s0.3,0.5,0.3,0.8s-0.1,0.6-0.3,0.8C203.4,48,203.1,48.1,202.9,48.1z M202.3,64.1V51.2h1.2v12.9H202.3z"/>
	<path class="st3" d="M208.4,64.1V51.2h1l0.1,2h0.1c0.7-0.7,1.3-1.2,2-1.7c0.7-0.4,1.5-0.7,2.4-0.7c1.3,0,2.3,0.4,3,1.2
		c0.6,0.8,0.9,2.1,0.9,3.7V64h-1.2v-8.1c0-1.4-0.2-2.4-0.7-3.1c-0.5-0.7-1.2-1-2.3-1c-0.8,0-1.5,0.2-2.1,0.6c-0.6,0.4-1.3,1-2.1,1.8
		v9.7h-1.1L208.4,64.1L208.4,64.1z"/>
	<path class="st3" d="M228.4,51.2c-0.4,0-0.6-0.2-0.9-0.5c-0.2-0.3-0.3-0.8-0.3-1.3c0-1,0.2-1.8,0.6-2.5c0.4-0.7,1-1.3,1.7-1.7
		l0.5,0.6c-0.6,0.5-1,1-1.3,1.5s-0.5,1.1-0.5,1.9c0,0,0.1,0,0.2,0c0.3,0,0.5,0.1,0.7,0.2c0.2,0.2,0.3,0.4,0.3,0.8s-0.1,0.6-0.3,0.8
		C228.9,51.1,228.6,51.2,228.4,51.2z"/>
	<path class="st3" d="M237.9,64.5c-1.6,0-2.9-0.8-3.8-2.3c-0.9-1.6-1.3-3.8-1.3-6.7s0.4-5.1,1.3-6.6c0.9-1.5,2.2-2.3,3.8-2.3
		s2.9,0.8,3.8,2.3c0.9,1.5,1.3,3.7,1.3,6.6c0,2.9-0.4,5.1-1.3,6.7C240.9,63.7,239.6,64.5,237.9,64.5z M237.9,63.4
		c1.2,0,2.2-0.7,2.9-2s1.1-3.3,1.1-6s-0.4-4.6-1.1-5.9c-0.7-1.3-1.7-1.9-2.9-1.9s-2.1,0.6-2.9,1.9c-0.7,1.3-1.1,3.3-1.1,5.9
		s0.4,4.6,1.1,6C235.9,62.8,236.8,63.4,237.9,63.4z"/>
	<path class="st3" d="M250.9,64.5c-1.6,0-2.9-0.8-3.8-2.3c-0.9-1.6-1.3-3.8-1.3-6.7s0.4-5.1,1.3-6.6c0.9-1.5,2.2-2.3,3.8-2.3
		s2.9,0.8,3.8,2.3s1.3,3.7,1.3,6.6c0,2.9-0.4,5.1-1.3,6.7C253.8,63.7,252.4,64.5,250.9,64.5z M250.9,63.4c1.2,0,2.2-0.7,2.9-2
		s1.1-3.3,1.1-6s-0.4-4.6-1.1-5.9c-0.7-1.3-1.7-1.9-2.9-1.9s-2.1,0.6-2.9,1.9c-0.7,1.3-1.1,3.3-1.1,5.9s0.4,4.6,1.1,6
		C248.8,62.8,249.6,63.4,250.9,63.4z"/>
	<path class="st3" d="M263.8,64.5c-1.6,0-2.9-0.8-3.8-2.3c-0.9-1.6-1.3-3.8-1.3-6.7s0.4-5.1,1.3-6.6s2.2-2.3,3.8-2.3
		c1.6,0,2.9,0.8,3.8,2.3s1.3,3.7,1.3,6.6c0,2.9-0.4,5.1-1.3,6.7C266.6,63.7,265.4,64.5,263.8,64.5z M263.8,63.4c1.2,0,2.2-0.7,2.9-2
		c0.7-1.3,1.1-3.3,1.1-6s-0.4-4.6-1.1-5.9c-0.7-1.3-1.7-1.9-2.9-1.9c-1.2,0-2.1,0.6-2.9,1.9c-0.7,1.3-1.1,3.3-1.1,5.9s0.4,4.6,1.1,6
		C261.5,62.8,262.5,63.4,263.8,63.4z"/>
	<path class="st3" d="M278.1,64.1V46.4h1.7l3.7,10.4c0.2,0.6,0.5,1.3,0.7,1.9c0.2,0.7,0.5,1.3,0.7,2h0.1c0.2-0.7,0.5-1.3,0.7-2
		s0.4-1.3,0.7-1.9l3.7-10.4h1.8v17.7h-1.2V52.5c0-0.7,0-1.5,0.1-2.4c0-0.9,0.1-1.7,0.1-2.4h-0.1l-1.4,4l-3.8,10.5h-1.1l-3.9-10.5
		l-1.4-4h-0.1c0,0.8,0.1,1.6,0.1,2.4c0,0.9,0.1,1.6,0.1,2.4v11.6H278.1z"/>
	<path class="st3" d="M301,64.1V47.5h-5.6v-1.1h12.5v1.1h-5.6v16.6H301z"/>
	<path class="st3" d="M310.3,68.8l-0.7-0.4c1.1-1.7,1.9-3.6,2.4-5.6s0.8-4.1,0.8-6.2c0-2.1-0.3-4.2-0.8-6.2s-1.3-3.9-2.4-5.6
		l0.7-0.4c1.1,1.8,2,3.7,2.6,5.7s1,4.2,1,6.5c0,2.4-0.3,4.5-1,6.5C312.1,65.2,311.4,67.1,310.3,68.8z"/>
</g>
<line class="st4" x1="0.8" y1="91.7" x2="999.3" y2="91.7"/>
<g>
	<path class="st2" d="M3.9,159.1V140h1.3v10.6h0.1l9.2-10.6h1.7l-6.1,7.1l6.9,12h-1.5l-6.3-11l-3.9,4.4v6.6H3.9z"/>
	<path class="st2" d="M25,159.5c-0.8,0-1.6-0.2-2.4-0.5s-1.4-0.8-2-1.4c-0.6-0.6-1-1.4-1.4-2.3c-0.3-0.9-0.5-1.9-0.5-3.1
		s0.2-2.2,0.5-3.1c0.3-0.9,0.8-1.7,1.4-2.3s1.2-1.1,2-1.4c0.8-0.3,1.5-0.5,2.4-0.5c0.8,0,1.6,0.2,2.4,0.5s1.4,0.8,2,1.4
		c0.6,0.6,1,1.4,1.4,2.3c0.3,0.9,0.5,2,0.5,3.1s-0.2,2.2-0.5,3.1c-0.3,0.9-0.8,1.7-1.4,2.3s-1.2,1.1-2,1.4
		C26.8,159.3,26,159.5,25,159.5z M25,158.3c0.7,0,1.3-0.1,2-0.4c0.6-0.3,1.1-0.7,1.6-1.3c0.4-0.5,0.8-1.2,1-1.9
		c0.3-0.8,0.4-1.6,0.4-2.5s-0.1-1.8-0.4-2.5s-0.6-1.4-1-2s-1-1-1.6-1.3s-1.3-0.4-2-0.4s-1.3,0.1-1.9,0.4c-0.6,0.3-1.1,0.7-1.5,1.3
		s-0.8,1.2-1,2s-0.4,1.6-0.4,2.5s0.1,1.7,0.4,2.5s0.6,1.4,1,1.9s1,1,1.5,1.3C23.8,158.2,24.4,158.3,25,158.3z"/>
	<path class="st2" d="M35.5,159.1v-13.9h1.1l0.1,2.6h0.1c0.5-0.9,1-1.6,1.7-2.1s1.4-0.8,2.2-0.8c0.3,0,0.5,0,0.7,0.1
		c0.2,0,0.4,0.1,0.7,0.2l-0.3,1.2c-0.2-0.1-0.4-0.2-0.6-0.2c-0.2,0-0.4,0-0.7,0c-0.6,0-1.3,0.3-2,0.8s-1.3,1.5-1.8,2.8v9.5h-1.2
		V159.1z"/>
	<path class="st2" d="M49.7,159.5c-0.9,0-1.7-0.2-2.5-0.5s-1.5-0.8-2-1.4c-0.6-0.6-1-1.4-1.4-2.3c-0.3-0.9-0.5-1.9-0.5-3.1
		c0-1.1,0.2-2.2,0.5-3.1c0.3-0.9,0.8-1.7,1.4-2.3c0.6-0.6,1.2-1.1,1.9-1.4c0.7-0.3,1.5-0.5,2.2-0.5c1.7,0,3,0.6,3.9,1.7
		c0.9,1.1,1.4,2.7,1.4,4.8c0,0.2,0,0.3,0,0.5s0,0.3-0.1,0.5h-10c0,0.9,0.2,1.7,0.4,2.4s0.6,1.4,1.1,1.9s1,0.9,1.6,1.2
		s1.4,0.4,2.1,0.4c0.8,0,1.4-0.1,2-0.3s1.2-0.5,1.7-0.9l0.5,1c-0.6,0.3-1.2,0.6-1.8,0.9C51.5,159.3,50.8,159.5,49.7,159.5z
		 M44.5,151.3h8.9c0-1.8-0.4-3.1-1.1-4c-0.7-0.9-1.7-1.3-3-1.3c-0.6,0-1.2,0.1-1.7,0.4c-0.5,0.2-1,0.6-1.5,1.1s-0.8,1-1.1,1.7
		C44.8,149.7,44.7,150.5,44.5,151.3z"/>
	<path class="st2" d="M61,159.5c-0.6,0-1.1-0.1-1.6-0.2c-0.5-0.2-0.9-0.4-1.3-0.7c-0.4-0.3-0.7-0.7-0.9-1.2s-0.3-1.1-0.3-1.7
		c0-1.5,0.7-2.7,2.2-3.5c1.4-0.8,3.7-1.4,6.8-1.7c0-0.5,0-1-0.1-1.6c-0.1-0.5-0.2-1-0.5-1.4s-0.6-0.8-1-1c-0.4-0.3-1-0.4-1.7-0.4
		c-0.9,0-1.8,0.2-2.5,0.6c-0.8,0.4-1.4,0.7-1.9,1.1l-0.6-1c0.3-0.2,0.6-0.4,0.9-0.6s0.8-0.4,1.2-0.6c0.4-0.2,0.9-0.3,1.4-0.4
		s1.1-0.2,1.6-0.2c0.8,0,1.5,0.1,2.1,0.4c0.6,0.3,1,0.7,1.4,1.1c0.3,0.5,0.6,1,0.8,1.7c0.2,0.6,0.2,1.3,0.2,2.1v8.9h-1.1l-0.1-1.8h0
		c-0.7,0.6-1.5,1.1-2.3,1.5C62.8,159.3,62,159.5,61,159.5z M61.3,158.4c0.8,0,1.6-0.2,2.3-0.6c0.7-0.4,1.5-0.9,2.4-1.7v-4.7
		c-1.4,0.2-2.6,0.4-3.6,0.6c-1,0.3-1.8,0.6-2.4,0.9s-1,0.7-1.3,1.2c-0.3,0.4-0.4,0.9-0.4,1.5c0,0.5,0.1,0.9,0.2,1.3
		c0.2,0.3,0.4,0.6,0.6,0.9c0.3,0.2,0.6,0.4,0.9,0.5C60.5,158.3,60.8,158.4,61.3,158.4z"/>
	<path class="st2" d="M76.8,159.1v-0.8l11-17.1h-10V140h11.7v0.8l-11,17.1h11.1v1.2H76.8z"/>
	<path class="st2" d="M94.3,141.9c-0.3,0-0.6-0.1-0.8-0.3c-0.2-0.2-0.3-0.5-0.3-0.8c0-0.4,0.1-0.7,0.3-0.9c0.2-0.2,0.5-0.3,0.8-0.3
		s0.6,0.1,0.8,0.3c0.2,0.2,0.3,0.5,0.3,0.9c0,0.3-0.1,0.6-0.3,0.8C94.8,141.8,94.7,141.9,94.3,141.9z M93.7,159.1v-13.9H95v13.9
		H93.7z"/>
	<path class="st2" d="M100.3,159.1v-13.9h1.1l0.1,2.1h0.1c0.7-0.7,1.4-1.3,2.2-1.8s1.6-0.7,2.6-0.7c1.4,0,2.5,0.4,3.2,1.3
		c0.7,0.9,1,2.2,1,4v8.9h-1.3v-8.7c0-1.5-0.2-2.6-0.7-3.3s-1.3-1.1-2.4-1.1c-0.8,0-1.6,0.2-2.3,0.7c-0.7,0.4-1.4,1.1-2.3,2v10.5
		H100.3z"/>
	<path class="st2" d="M120.8,159.5c-0.9,0-1.7-0.2-2.5-0.5s-1.4-0.8-2-1.4c-0.6-0.6-1-1.4-1.3-2.3c-0.3-0.9-0.5-1.9-0.5-3.1
		s0.2-2.2,0.5-3.1c0.3-0.9,0.8-1.7,1.4-2.3s1.3-1.1,2-1.4c0.8-0.3,1.6-0.5,2.4-0.5c1,0,1.8,0.2,2.4,0.5s1.2,0.7,1.7,1.2l-0.8,0.9
		c-0.4-0.4-0.9-0.8-1.5-1.1c-0.5-0.3-1.1-0.4-1.8-0.4c-0.7,0-1.4,0.1-2,0.4c-0.6,0.3-1.1,0.7-1.6,1.3s-0.8,1.2-1.1,2
		s-0.4,1.6-0.4,2.5s0.1,1.7,0.4,2.5c0.2,0.8,0.6,1.4,1,1.9s1,1,1.6,1.3s1.3,0.4,2.1,0.4c0.7,0,1.4-0.2,2-0.5s1.2-0.7,1.7-1.1
		l0.7,0.9c-0.6,0.5-1.3,1-2,1.3C122.6,159.3,121.7,159.5,120.8,159.5z"/>
	<path class="st2" d="M141.6,159.5c-1.2,0-2.4-0.2-3.4-0.7s-1.9-1.1-2.6-2c-0.7-0.9-1.3-1.9-1.7-3.1c-0.4-1.2-0.6-2.6-0.6-4.1
		s0.2-2.9,0.6-4.1c0.4-1.2,1-2.3,1.7-3.1c0.7-0.9,1.6-1.5,2.7-2c1-0.5,2.2-0.7,3.4-0.7c0.6,0,1.2,0.1,1.8,0.2c0.5,0.1,1,0.3,1.4,0.5
		s0.8,0.5,1.1,0.7c0.3,0.3,0.6,0.5,0.9,0.8l-0.8,0.9c-0.5-0.5-1.1-1-1.8-1.4s-1.6-0.6-2.6-0.6c-1.1,0-2.1,0.2-3,0.6
		c-0.9,0.4-1.6,1-2.2,1.7c-0.6,0.7-1.1,1.6-1.4,2.7c-0.3,1.1-0.5,2.3-0.5,3.6s0.2,2.5,0.5,3.6s0.8,2,1.3,2.7
		c0.6,0.8,1.3,1.3,2.2,1.8c0.9,0.4,1.8,0.6,2.9,0.6c0.9,0,1.7-0.1,2.4-0.4c0.8-0.3,1.4-0.6,1.8-1.1v-5.9H141v-1h5.9v7.6
		c-0.6,0.6-1.4,1.2-2.3,1.6C143.9,159.3,142.9,159.5,141.6,159.5z"/>
	<path class="st2" d="M151.9,159.1v-13.9h1.1l0.1,2.6h0.1c0.5-0.9,1-1.6,1.7-2.1s1.4-0.8,2.2-0.8c0.3,0,0.5,0,0.7,0.1
		c0.2,0,0.4,0.1,0.7,0.2l-0.3,1.2c-0.2-0.1-0.4-0.2-0.6-0.2c-0.2,0-0.4,0-0.7,0c-0.6,0-1.3,0.3-2,0.8s-1.3,1.5-1.8,2.8v9.5h-1.2
		V159.1z"/>
	<path class="st2" d="M165.9,159.5c-0.8,0-1.6-0.2-2.4-0.5s-1.4-0.8-2-1.4c-0.6-0.6-1-1.4-1.4-2.3c-0.3-0.9-0.5-1.9-0.5-3.1
		s0.2-2.2,0.5-3.1c0.3-0.9,0.8-1.7,1.4-2.3c0.6-0.6,1.2-1.1,2-1.4c0.8-0.3,1.5-0.5,2.4-0.5c0.8,0,1.6,0.2,2.4,0.5
		c0.8,0.3,1.4,0.8,2,1.4c0.6,0.6,1,1.4,1.4,2.3c0.3,0.9,0.5,2,0.5,3.1s-0.2,2.2-0.5,3.1c-0.3,0.9-0.8,1.7-1.4,2.3
		c-0.6,0.6-1.2,1.1-2,1.4C167.6,159.3,166.8,159.5,165.9,159.5z M165.9,158.3c0.7,0,1.3-0.1,2-0.4c0.6-0.3,1.1-0.7,1.6-1.3
		c0.4-0.5,0.8-1.2,1-1.9c0.3-0.8,0.4-1.6,0.4-2.5s-0.1-1.8-0.4-2.5s-0.6-1.4-1-2s-1-1-1.6-1.3s-1.3-0.4-2-0.4s-1.3,0.1-1.9,0.4
		c-0.6,0.3-1.1,0.7-1.5,1.3s-0.8,1.2-1,2s-0.4,1.6-0.4,2.5s0.1,1.7,0.4,2.5c0.3,0.8,0.6,1.4,1,1.9s1,1,1.5,1.3
		C164.6,158.2,165.3,158.3,165.9,158.3z"/>
	<path class="st2" d="M180.4,159.5c-1.4,0-2.5-0.4-3.2-1.3c-0.7-0.9-1-2.2-1-4v-8.9h1.3v8.7c0,1.5,0.2,2.6,0.7,3.3s1.3,1.1,2.4,1.1
		c0.8,0,1.6-0.2,2.3-0.7s1.4-1.2,2.2-2.2v-10.3h1.3v13.9h-1.1l-0.1-2.3H185c-0.7,0.8-1.4,1.5-2.1,1.9
		C182.1,159.2,181.4,159.5,180.4,159.5z"/>
	<path class="st2" d="M191.6,165.4v-20.2h1.1l0.1,1.7h0.1c0.7-0.5,1.4-1,2.2-1.4s1.6-0.6,2.5-0.6c1.9,0,3.2,0.6,4.2,1.9
		c0.9,1.3,1.4,3,1.4,5.2c0,1.2-0.2,2.2-0.5,3.2c-0.3,0.9-0.8,1.7-1.3,2.4c-0.6,0.6-1.2,1.1-2,1.5c-0.7,0.3-1.5,0.5-2.3,0.5
		c-0.7,0-1.3-0.1-2-0.4c-0.7-0.3-1.4-0.7-2.1-1.3v7.6L191.6,165.4L191.6,165.4z M197.1,158.3c0.7,0,1.3-0.2,1.9-0.5
		c0.6-0.3,1.1-0.7,1.5-1.3s0.8-1.2,1-2s0.4-1.6,0.4-2.6c0-0.8-0.1-1.6-0.2-2.4c-0.2-0.7-0.4-1.4-0.8-1.9c-0.3-0.5-0.8-0.9-1.4-1.2
		c-0.6-0.3-1.2-0.4-2-0.4c-0.7,0-1.4,0.2-2.2,0.6c-0.7,0.4-1.5,1-2.4,1.7v8.3c0.8,0.7,1.6,1.1,2.3,1.4
		C195.9,158.2,196.6,158.3,197.1,158.3z"/>
</g>
<g>
	<path class="st2" d="M10.9,229.2c-1.2,0-2.4-0.2-3.4-0.7s-1.9-1.1-2.6-2s-1.3-1.9-1.7-3.1c-0.4-1.2-0.6-2.6-0.6-4.1
		s0.2-2.9,0.6-4.1c0.4-1.2,1-2.3,1.7-3.1c0.7-0.9,1.6-1.5,2.7-2c1-0.5,2.2-0.7,3.4-0.7c0.6,0,1.2,0.1,1.8,0.2c0.5,0.1,1,0.3,1.4,0.5
		s0.8,0.5,1.1,0.7c0.3,0.3,0.6,0.5,0.9,0.8l-0.8,0.9c-0.5-0.5-1.1-1-1.8-1.4s-1.6-0.6-2.6-0.6c-1.1,0-2.1,0.2-3,0.6
		c-0.9,0.4-1.6,1-2.2,1.7s-1.1,1.6-1.4,2.7c-0.3,1.1-0.5,2.3-0.5,3.6s0.2,2.5,0.5,3.6s0.8,2,1.3,2.7c0.6,0.8,1.3,1.3,2.2,1.8
		c0.9,0.4,1.8,0.6,2.9,0.6c0.9,0,1.7-0.1,2.4-0.4c0.8-0.3,1.4-0.6,1.8-1.1v-5.9h-4.6v-1.1h5.9v7.6c-0.6,0.6-1.4,1.2-2.3,1.6
		C13.4,229,12.3,229.2,10.9,229.2z"/>
	<path class="st2" d="M23,229.2c-1.1,0-1.7-0.7-1.7-2.2v-19h1.3v19.1c0,0.3,0.1,0.5,0.2,0.7c0.1,0.1,0.3,0.2,0.4,0.2s0.1,0,0.2,0
		s0.2,0,0.3-0.1l0.2,1c-0.1,0-0.3,0.1-0.4,0.1C23.5,229.1,23.3,229.2,23,229.2z"/>
	<path class="st2" d="M33.5,229.2c-0.9,0-1.7-0.2-2.5-0.5s-1.5-0.8-2-1.4c-0.6-0.6-1-1.4-1.4-2.3c-0.3-0.9-0.5-1.9-0.5-3.1
		c0-1.1,0.2-2.2,0.5-3.1c0.3-0.9,0.8-1.7,1.4-2.3s1.2-1.1,1.9-1.4s1.5-0.5,2.2-0.5c1.7,0,3,0.6,3.9,1.7c0.9,1.1,1.4,2.7,1.4,4.8
		c0,0.2,0,0.3,0,0.5s0,0.3-0.1,0.5h-10c0,0.9,0.2,1.7,0.4,2.4c0.3,0.7,0.6,1.4,1.1,1.9s1,0.9,1.6,1.2s1.4,0.4,2.1,0.4
		c0.8,0,1.4-0.1,2-0.3s1.2-0.5,1.7-0.9l0.5,1c-0.6,0.3-1.2,0.6-1.8,0.9C35.3,229,34.5,229.2,33.5,229.2z M28.4,221h8.9
		c0-1.8-0.4-3.1-1.1-4c-0.7-0.9-1.7-1.3-3-1.3c-0.6,0-1.2,0.1-1.7,0.4c-0.5,0.2-1,0.6-1.5,1.1s-0.8,1-1.1,1.7
		C28.6,219.4,28.5,220.2,28.4,221z"/>
	<path class="st2" d="M42.3,228.8v-13.9h1.1l0.1,2.1h0.1c0.7-0.7,1.4-1.3,2.2-1.8s1.6-0.7,2.6-0.7c1.4,0,2.5,0.4,3.2,1.3
		c0.7,0.9,1,2.2,1,4v8.9h-1.3V220c0-1.5-0.2-2.6-0.7-3.3s-1.3-1.1-2.4-1.1c-0.8,0-1.6,0.2-2.3,0.7c-0.7,0.4-1.4,1.1-2.3,2v10.5
		L42.3,228.8L42.3,228.8z"/>
	<path class="st2" d="M62.8,229.2c-0.9,0-1.7-0.2-2.5-0.5s-1.4-0.8-2-1.4c-0.6-0.6-1-1.4-1.3-2.3c-0.3-0.9-0.5-1.9-0.5-3.1
		c0-1.2,0.2-2.2,0.5-3.1s0.8-1.7,1.4-2.3c0.6-0.6,1.3-1.1,2-1.4s1.6-0.5,2.4-0.5c1,0,1.8,0.2,2.4,0.5s1.2,0.7,1.7,1.2l-0.8,0.9
		c-0.4-0.4-0.9-0.8-1.5-1.1c-0.5-0.3-1.1-0.4-1.8-0.4s-1.4,0.2-2,0.4c-0.6,0.3-1.1,0.7-1.6,1.3s-0.8,1.2-1.1,2s-0.4,1.6-0.4,2.5
		s0.1,1.7,0.4,2.5c0.2,0.8,0.6,1.4,1,1.9s1,1,1.6,1.3s1.3,0.4,2.1,0.4c0.7,0,1.4-0.2,2-0.5c0.6-0.3,1.2-0.7,1.7-1.1l0.7,0.9
		c-0.6,0.5-1.3,1-2,1.3C64.4,229,63.7,229.2,62.8,229.2z"/>
	<path class="st2" d="M75.3,229.2c-0.8,0-1.6-0.2-2.4-0.5s-1.4-0.8-2-1.4c-0.6-0.6-1-1.4-1.4-2.3c-0.3-0.9-0.5-1.9-0.5-3.1
		c0-1.2,0.2-2.2,0.5-3.1c0.3-0.9,0.8-1.7,1.4-2.3s1.2-1.1,2-1.4s1.5-0.5,2.4-0.5c0.8,0,1.6,0.2,2.4,0.5s1.4,0.8,2,1.4
		c0.6,0.6,1,1.4,1.4,2.3c0.3,0.9,0.5,2,0.5,3.1c0,1.2-0.2,2.2-0.5,3.1c-0.3,0.9-0.8,1.7-1.4,2.3s-1.2,1.1-2,1.4
		C76.8,229,76.1,229.2,75.3,229.2z M75.3,228c0.7,0,1.3-0.1,2-0.4c0.6-0.3,1.1-0.7,1.6-1.3c0.4-0.5,0.8-1.2,1-1.9s0.4-1.6,0.4-2.5
		s-0.1-1.8-0.4-2.5s-0.6-1.4-1-2c-0.4-0.5-1-1-1.6-1.3s-1.3-0.4-2-0.4s-1.3,0.2-1.9,0.4c-0.6,0.3-1.1,0.7-1.5,1.3s-0.8,1.2-1,2
		s-0.4,1.6-0.4,2.5s0.1,1.7,0.4,2.5s0.6,1.4,1,1.9s1,1,1.5,1.3C73.9,227.9,74.6,228,75.3,228z"/>
	<path class="st2" d="M85.7,228.8v-13.9h1.1l0.1,2.6H87c0.5-0.9,1-1.6,1.7-2.1s1.4-0.8,2.2-0.8c0.3,0,0.5,0,0.7,0.1
		c0.2,0,0.4,0.1,0.7,0.2l-0.3,1.2c-0.2-0.1-0.4-0.2-0.6-0.2s-0.4,0-0.7,0c-0.6,0-1.3,0.3-2,0.8s-1.3,1.5-1.8,2.8v9.5h-1.2
		L85.7,228.8L85.7,228.8z"/>
	<path class="st2" d="M99.8,229.2c-0.9,0-1.7-0.2-2.5-0.5s-1.5-0.8-2-1.4c-0.6-0.6-1-1.4-1.4-2.3c-0.3-0.9-0.5-1.9-0.5-3.1
		c0-1.1,0.2-2.2,0.5-3.1c0.3-0.9,0.8-1.7,1.4-2.3s1.2-1.1,1.9-1.4s1.5-0.5,2.2-0.5c1.7,0,3,0.6,3.9,1.7c0.9,1.1,1.4,2.7,1.4,4.8
		c0,0.2,0,0.3,0,0.5s0,0.3-0.1,0.5h-10c0,0.9,0.2,1.7,0.4,2.4c0.3,0.7,0.6,1.4,1.1,1.9s1,0.9,1.6,1.2s1.4,0.4,2.1,0.4
		c0.8,0,1.4-0.1,2-0.3s1.2-0.5,1.7-0.9l0.5,1c-0.6,0.3-1.2,0.6-1.8,0.9C101.8,229,100.8,229.2,99.8,229.2z M94.8,221h8.9
		c0-1.8-0.4-3.1-1.1-4s-1.7-1.3-3-1.3c-0.6,0-1.2,0.1-1.7,0.4c-0.5,0.2-1,0.6-1.5,1.1s-0.8,1-1.1,1.7
		C94.9,219.4,94.8,220.2,94.8,221z"/>
</g>
<g>
	<path class="st2" d="M3.9,298.5v-19.1h1.4l8.1,13.5l2.1,3.8h0.1c0-0.9-0.1-1.9-0.1-2.8s-0.1-1.9-0.1-2.8v-11.7h1.3v19.1h-1.4
		l-8-13.5l-2-3.8H5.1c0,0.9,0.1,1.8,0.1,2.7c0,0.9,0.1,1.8,0.1,2.7v11.8L3.9,298.5L3.9,298.5z"/>
	<path class="st2" d="M21.8,304.8c-0.5,0-1-0.1-1.4-0.3l0.3-1.1c0.2,0.1,0.3,0.1,0.5,0.2c0.2,0,0.4,0.1,0.6,0.1c0.9,0,1.6-0.3,2.2-1
		s1-1.6,1.4-2.6l0.4-1.2L20,284.7h1.4l3.4,8.7c0.2,0.6,0.4,1.2,0.7,1.9c0.3,0.7,0.5,1.4,0.8,2h0.1c0.2-0.6,0.4-1.3,0.7-2
		c0.2-0.7,0.4-1.3,0.6-1.9l3-8.7H32l-5.5,15.6c-0.2,0.6-0.4,1.1-0.7,1.7c-0.3,0.6-0.6,1.1-1,1.5s-0.8,0.8-1.3,1
		S22.4,304.8,21.8,304.8z"/>
	<path class="st2" d="M34.8,298.5v-13.9h1.1l0.1,2.6h0.2c0.5-0.9,1-1.6,1.7-2.1s1.4-0.8,2.2-0.8c0.3,0,0.5,0,0.7,0.1
		c0.2,0,0.4,0.1,0.7,0.2l-0.3,1.1c-0.2-0.1-0.4-0.2-0.6-0.2c-0.2,0-0.4,0-0.7,0c-0.6,0-1.3,0.3-2,0.8s-1.3,1.5-1.8,2.8v9.5
		L34.8,298.5L34.8,298.5z"/>
	<path class="st2" d="M47.5,298.8c-1,0-2-0.2-2.9-0.6s-1.6-0.8-2.2-1.3l0.8-1c0.6,0.5,1.2,0.9,1.9,1.3c0.7,0.3,1.5,0.5,2.5,0.5
		c1.1,0,1.9-0.3,2.5-0.8c0.6-0.6,0.8-1.2,0.8-1.9c0-0.4-0.1-0.8-0.3-1.1c-0.2-0.3-0.5-0.6-0.8-0.8c-0.3-0.2-0.7-0.4-1.1-0.6
		c-0.4-0.2-0.8-0.3-1.2-0.5c-0.5-0.2-1-0.4-1.6-0.6c-0.5-0.2-1-0.5-1.4-0.8s-0.8-0.7-1-1.1c-0.3-0.4-0.4-0.9-0.4-1.5
		c0-0.5,0.1-1,0.3-1.4c0.2-0.5,0.5-0.8,0.9-1.2s0.9-0.6,1.4-0.8c0.6-0.2,1.2-0.3,1.9-0.3s1.5,0.1,2.2,0.4s1.3,0.6,1.8,1l-0.7,0.9
		c-0.5-0.3-1-0.6-1.5-0.9c-0.5-0.2-1.1-0.4-1.9-0.4c-0.5,0-1,0.1-1.4,0.2s-0.7,0.3-1,0.6c-0.3,0.2-0.5,0.5-0.6,0.8s-0.2,0.6-0.2,0.9
		c0,0.4,0.1,0.7,0.3,1s0.4,0.5,0.7,0.7s0.7,0.4,1.1,0.6c0.4,0.2,0.8,0.3,1.2,0.5c0.5,0.2,1.1,0.4,1.6,0.6s1,0.5,1.5,0.8
		c0.4,0.3,0.8,0.7,1.1,1.1s0.4,1,0.4,1.7c0,0.5-0.1,1-0.3,1.5s-0.5,0.9-0.9,1.2c-0.4,0.4-0.9,0.6-1.5,0.9
		C48.8,298.7,48.2,298.8,47.5,298.8z"/>
	<path class="st2" d="M59,298.8c-0.7,0-1.2-0.1-1.7-0.3c-0.4-0.2-0.8-0.5-1.1-0.9s-0.5-0.8-0.6-1.3s-0.2-1.1-0.2-1.7v-8.9h-2.2v-1
		l2.2-0.1l0.2-4h1.1v4h4v1.1h-4v9.1c0,0.4,0,0.8,0.1,1.2c0.1,0.4,0.2,0.7,0.4,0.9s0.4,0.5,0.7,0.6s0.7,0.2,1.2,0.2
		c0.3,0,0.6,0,0.9-0.1c0.3-0.1,0.6-0.2,0.9-0.3l0.3,1c-0.4,0.2-0.8,0.3-1.2,0.4C59.7,298.8,59.3,298.8,59,298.8z"/>
	<path class="st2" d="M66.7,298.8c-0.6,0-1.1-0.1-1.6-0.2c-0.5-0.2-0.9-0.4-1.3-0.7c-0.4-0.3-0.7-0.7-0.9-1.2s-0.3-1.1-0.3-1.7
		c0-1.5,0.7-2.7,2.2-3.5c1.4-0.8,3.7-1.4,6.8-1.7c0-0.5,0-1-0.1-1.6c-0.1-0.5-0.2-1-0.5-1.4s-0.6-0.8-1-1s-1-0.4-1.7-0.4
		c-0.9,0-1.8,0.2-2.5,0.6c-0.8,0.4-1.4,0.7-1.9,1.1l-0.6-1c0.3-0.2,0.6-0.4,0.9-0.6c0.4-0.2,0.8-0.4,1.2-0.6
		c0.4-0.2,0.9-0.3,1.4-0.4s1.1-0.2,1.6-0.2c0.8,0,1.5,0.1,2.1,0.4s1,0.7,1.4,1.1c0.3,0.5,0.6,1,0.8,1.7c0.2,0.6,0.2,1.3,0.2,2.1v8.9
		h-1.1l-0.1-1.8h-0.1c-0.7,0.6-1.5,1.1-2.3,1.5C68.4,298.6,67.7,298.8,66.7,298.8z M66.9,297.7c0.8,0,1.6-0.2,2.3-0.6
		c0.7-0.4,1.5-0.9,2.4-1.7v-4.7c-1.4,0.2-2.6,0.4-3.6,0.6c-1,0.3-1.8,0.6-2.4,0.9s-1,0.7-1.3,1.2c-0.3,0.4-0.4,0.9-0.4,1.5
		c0,0.5,0.1,0.9,0.2,1.3c0.2,0.3,0.4,0.6,0.6,0.9c0.3,0.2,0.6,0.4,0.9,0.5S66.6,297.7,66.9,297.7z"/>
	<path class="st2" d="M77.8,298.5v-13.9h1.1l0.1,2.6h0.1c0.5-0.9,1-1.6,1.7-2.1s1.4-0.8,2.2-0.8c0.3,0,0.5,0,0.7,0.1
		c0.2,0,0.4,0.1,0.7,0.2l-0.2,1.1c-0.2-0.1-0.4-0.2-0.6-0.2s-0.4,0-0.7,0c-0.6,0-1.3,0.3-2,0.8s-1.3,1.5-1.8,2.8v9.5L77.8,298.5
		L77.8,298.5z"/>
</g>
<g>
	<path class="st2" d="M3.4,368.2v-18.9h4.3v7.3h6.5v-7.3h4.3v18.9h-4.3v-7.9H7.6v7.9H3.4z"/>
	<path class="st2" d="M24.8,351.7c-0.7,0-1.3-0.2-1.8-0.6s-0.7-1-0.7-1.6c0-0.7,0.2-1.2,0.7-1.6s1.1-0.6,1.8-0.6
		c0.7,0,1.3,0.2,1.8,0.6s0.7,0.9,0.7,1.6s-0.2,1.2-0.7,1.6S25.5,351.7,24.8,351.7z M22.5,368.2v-14.4h4.3v14.4H22.5z"/>
	<path class="st2" d="M30.5,368.2v-14.4H34l0.3,1.8h0.1c0.6-0.6,1.3-1.1,2-1.5s1.6-0.7,2.6-0.7c1.6,0,2.7,0.5,3.4,1.5
		s1.1,2.4,1.1,4.3v8.9h-4.3v-8.4c0-1-0.1-1.8-0.4-2.1c-0.3-0.4-0.7-0.6-1.3-0.6c-0.5,0-1,0.1-1.4,0.4c-0.4,0.2-0.8,0.6-1.3,1v9.7
		h-4.3C30.5,368.1,30.5,368.2,30.5,368.2z"/>
	<path class="st2" d="M52.3,368.5c-0.9,0-1.7-0.2-2.4-0.5s-1.3-0.8-1.9-1.5c-0.5-0.6-0.9-1.4-1.2-2.4c-0.3-0.9-0.4-2-0.4-3.2
		s0.2-2.2,0.5-3.2c0.3-0.9,0.8-1.7,1.3-2.4c0.6-0.6,1.2-1.1,1.9-1.5s1.5-0.5,2.2-0.5c0.8,0,1.5,0.1,2,0.4s1,0.6,1.5,1.1l-0.2-2.2
		v-4.9h4.3V368h-3.5l-0.3-1.4H56c-0.5,0.5-1.1,0.9-1.8,1.3C53.7,368.4,53,368.5,52.3,368.5z M53.3,365.1c0.5,0,0.9-0.1,1.3-0.3
		c0.4-0.2,0.7-0.5,1.1-1v-5.9c-0.4-0.3-0.8-0.6-1.2-0.7s-0.8-0.2-1.2-0.2c-0.7,0-1.3,0.3-1.8,1s-0.8,1.7-0.8,3
		c0,1.4,0.2,2.5,0.7,3.1C52,364.7,52.5,365.1,53.3,365.1z"/>
	<path class="st2" d="M68.1,368.5c-1.6,0-2.7-0.5-3.4-1.5c-0.7-1-1.1-2.4-1.1-4.3v-8.9h4.3v8.4c0,1,0.1,1.8,0.4,2.1
		c0.3,0.4,0.7,0.6,1.4,0.6c0.5,0,1-0.1,1.4-0.4s0.8-0.7,1.2-1.2v-9.5h4.3v14.4h-3.5l-0.3-2h-0.1c-0.6,0.7-1.3,1.3-2,1.7
		C69.8,368.3,69.1,368.5,68.1,368.5z"/>
	<path class="st2" d="M84.4,368.5c-0.9,0-1.9-0.2-2.9-0.6s-1.9-0.8-2.6-1.4l1.9-2.7c0.7,0.5,1.3,0.9,1.9,1.1
		c0.6,0.3,1.2,0.4,1.8,0.4c0.6,0,1.1-0.1,1.4-0.3s0.4-0.5,0.4-0.9c0-0.2-0.1-0.4-0.2-0.6s-0.4-0.4-0.7-0.5c-0.3-0.2-0.6-0.3-0.9-0.4
		s-0.7-0.3-1.1-0.4c-0.4-0.2-0.9-0.4-1.3-0.6s-0.9-0.5-1.2-0.9s-0.7-0.7-0.9-1.2c-0.2-0.5-0.3-1-0.3-1.6c0-0.7,0.1-1.3,0.4-1.8
		c0.3-0.6,0.6-1,1.1-1.4s1.1-0.7,1.7-0.9c0.7-0.2,1.4-0.3,2.3-0.3c1.1,0,2.1,0.2,2.9,0.6s1.6,0.8,2.2,1.3l-1.9,2.5
		c-0.5-0.4-1-0.7-1.5-0.9c-0.5-0.2-1-0.3-1.5-0.3c-1.1,0-1.6,0.4-1.6,1.1c0,0.2,0.1,0.4,0.2,0.6c0.2,0.2,0.4,0.3,0.6,0.4
		c0.3,0.1,0.6,0.3,0.9,0.4s0.7,0.3,1.1,0.4c0.5,0.2,0.9,0.4,1.4,0.6s0.9,0.5,1.2,0.8c0.4,0.3,0.7,0.7,0.9,1.2c0.2,0.5,0.3,1,0.3,1.7
		s-0.1,1.3-0.4,1.8c-0.3,0.6-0.6,1-1.1,1.5c-0.5,0.4-1.1,0.7-1.9,1S85.3,368.5,84.4,368.5z"/>
	<path class="st2" d="M97.9,368.5c-0.9,0-1.6-0.1-2.3-0.4c-0.6-0.3-1.1-0.6-1.5-1.1s-0.7-1.1-0.9-1.8c-0.2-0.7-0.3-1.4-0.3-2.3v-5.8
		h-2v-3.2l2.2-0.2l0.5-3.8h3.6v3.8h3.4v3.3h-3.4v5.8c0,0.8,0.2,1.4,0.5,1.8s0.8,0.5,1.3,0.5c0.2,0,0.5,0,0.7-0.1s0.5-0.1,0.7-0.2
		l0.7,3.1c-0.4,0.1-0.8,0.2-1.4,0.3C99.3,368.5,98.7,368.5,97.9,368.5z"/>
	<path class="st2" d="M106.7,368.5c-0.7,0-1.3-0.1-1.8-0.3s-1-0.5-1.3-0.9c-0.4-0.4-0.7-0.9-0.9-1.4s-0.3-1.1-0.3-1.7
		c0-1.5,0.6-2.7,1.9-3.5s3.3-1.4,6.2-1.7c0-0.6-0.2-1.1-0.6-1.5c-0.3-0.4-0.9-0.6-1.7-0.6c-0.6,0-1.2,0.1-1.8,0.3
		c-0.6,0.2-1.3,0.6-2,1l-1.5-2.8c0.9-0.6,1.9-1,2.9-1.4s2.1-0.5,3.2-0.5c1.9,0,3.3,0.5,4.2,1.6c1,1.1,1.5,2.7,1.5,4.9v8.2h-3.5
		l-0.3-1.5h-0.1c-0.6,0.5-1.3,1-1.9,1.3C108.2,368.4,107.4,368.5,106.7,368.5z M108.1,365.2c0.5,0,0.9-0.1,1.2-0.3
		c0.3-0.2,0.7-0.5,1.1-0.9v-2.5c-1.5,0.2-2.5,0.5-3.1,0.9s-0.9,0.9-0.9,1.4s0.1,0.8,0.4,1C107.2,365.1,107.6,365.2,108.1,365.2z"/>
	<path class="st2" d="M118.3,368.2v-14.4h3.5l0.3,1.8h0.1c0.6-0.6,1.3-1.1,2-1.5s1.6-0.7,2.6-0.7c1.6,0,2.7,0.5,3.4,1.5
		s1.1,2.4,1.1,4.3v8.9H127v-8.4c0-1-0.1-1.8-0.4-2.1c-0.3-0.4-0.7-0.6-1.3-0.6c-0.5,0-1,0.1-1.4,0.4c-0.4,0.2-0.8,0.6-1.3,1v9.7
		h-4.3L118.3,368.2L118.3,368.2z"/>
	<path class="st2" d="M139.8,368.2v-2.6l8.3-12.7h-7.6v-3.6h12.8v2.6l-8.3,12.7h8.4v3.6H139.8z"/>
	<path class="st2" d="M158.4,351.7c-0.7,0-1.3-0.2-1.8-0.6s-0.7-1-0.7-1.6c0-0.7,0.2-1.2,0.7-1.6s1.1-0.6,1.8-0.6s1.3,0.2,1.8,0.6
		s0.7,0.9,0.7,1.6s-0.2,1.2-0.7,1.6C159.8,351.5,159.1,351.7,158.4,351.7z M156.3,368.2v-14.4h4.3v14.4H156.3z"/>
	<path class="st2" d="M164.3,368.2v-14.4h3.5l0.3,1.8h0.1c0.6-0.6,1.3-1.1,2-1.5s1.6-0.7,2.6-0.7c1.6,0,2.7,0.5,3.4,1.5
		s1.1,2.4,1.1,4.3v8.9H173v-8.4c0-1-0.1-1.8-0.4-2.1c-0.3-0.4-0.7-0.6-1.3-0.6c-0.5,0-1,0.1-1.4,0.4c-0.4,0.2-0.8,0.6-1.3,1v9.7
		h-4.3V368.2z"/>
	<path class="st2" d="M187.1,368.5c-1,0-1.9-0.2-2.8-0.5c-0.9-0.3-1.6-0.8-2.2-1.5c-0.6-0.6-1.1-1.4-1.5-2.4c-0.4-0.9-0.6-2-0.6-3.2
		s0.2-2.3,0.6-3.2c0.4-0.9,1-1.7,1.6-2.4c0.7-0.6,1.5-1.1,2.4-1.5s1.9-0.5,2.8-0.5c0.9,0,1.7,0.1,2.4,0.4s1.3,0.7,1.8,1.1l-2,2.8
		c-0.7-0.6-1.3-0.8-1.9-0.8c-1,0-1.9,0.4-2.5,1.1s-0.9,1.7-0.9,3s0.3,2.3,0.9,3c0.6,0.7,1.4,1.1,2.3,1.1c0.5,0,0.9-0.1,1.3-0.3
		s0.8-0.4,1.2-0.7l1.7,2.8c-0.7,0.6-1.5,1.1-2.3,1.3C188.8,368.4,187.9,368.5,187.1,368.5z"/>
	<path class="st2" d="M196.8,358.1l-1.8-1.3l1.7-3l-3.1-1.4l0.7-2.1l3.4,0.7l0.4-3.4h2.2l0.4,3.4l3.3-0.7l0.7,2.1l-3.1,1.4l1.7,3
		l-1.8,1.3l-2.3-2.6L196.8,358.1z"/>
</g>
<g>
	<path class="st2" d="M3.9,437.9v-19.1h1.4l8.1,13.5l2.1,3.8h0.1c0-0.9-0.1-1.9-0.1-2.8s-0.1-1.9-0.1-2.8v-11.7h1.3v19.1h-1.4
		l-8.1-13.5l-2-3.8H5.1c0,0.9,0.1,1.8,0.1,2.7c0,0.9,0.1,1.8,0.1,2.7v11.8L3.9,437.9L3.9,437.9z"/>
	<path class="st2" d="M27.5,438.2c-0.9,0-1.7-0.2-2.5-0.5s-1.5-0.8-2-1.4c-0.6-0.6-1-1.4-1.4-2.3c-0.3-0.9-0.5-1.9-0.5-3.1
		c0-1.1,0.2-2.2,0.5-3.1s0.8-1.7,1.4-2.3c0.6-0.6,1.2-1.1,1.9-1.4s1.5-0.5,2.2-0.5c1.7,0,3,0.6,3.9,1.7s1.4,2.7,1.4,4.8
		c0,0.2,0,0.3,0,0.5s0,0.3-0.1,0.5h-10c0,0.9,0.2,1.7,0.4,2.4c0.3,0.7,0.6,1.4,1.1,1.9s1,0.9,1.6,1.2c0.6,0.3,1.4,0.4,2.1,0.4
		c0.8,0,1.4-0.1,2-0.3c0.6-0.2,1.2-0.5,1.7-0.9l0.5,1c-0.6,0.3-1.2,0.6-1.8,0.9C29.5,438.1,28.5,438.2,27.5,438.2z M22.5,430.1h8.8
		c0-1.8-0.4-3.1-1.1-4s-1.7-1.3-3-1.3c-0.6,0-1.2,0.1-1.7,0.4c-0.5,0.2-1,0.6-1.5,1.1s-0.8,1-1.1,1.7
		C22.6,428.5,22.5,429.2,22.5,430.1z"/>
	<path class="st2" d="M34,437.9l4.7-7.3l-4.3-6.6h1.4l2.3,3.5c0.2,0.4,0.5,0.8,0.7,1.1c0.2,0.4,0.5,0.8,0.8,1.1h0.1
		c0.3-0.4,0.5-0.8,0.7-1.1c0.2-0.4,0.5-0.8,0.7-1.1l2.2-3.5h1.3l-4.3,6.7l4.7,7.2h-1.4l-2.5-3.8c-0.3-0.4-0.5-0.9-0.8-1.3
		s-0.6-0.8-0.8-1.2h-0.1c-0.3,0.4-0.5,0.8-0.8,1.2s-0.5,0.9-0.8,1.3l-2.4,3.8L34,437.9L34,437.9z"/>
	<path class="st2" d="M50.8,438.2c-0.6,0-1.1-0.1-1.6-0.2c-0.5-0.2-0.9-0.4-1.3-0.7c-0.4-0.3-0.7-0.7-0.9-1.2s-0.3-1.1-0.3-1.7
		c0-1.5,0.7-2.7,2.2-3.5c1.4-0.8,3.7-1.4,6.8-1.7c0-0.5,0-1-0.1-1.6c-0.1-0.5-0.2-1-0.5-1.4s-0.6-0.8-1-1s-1-0.4-1.7-0.4
		c-0.9,0-1.8,0.2-2.5,0.6c-0.8,0.4-1.4,0.7-1.9,1.1l-0.6-1c0.3-0.2,0.6-0.4,0.9-0.6c0.4-0.2,0.8-0.4,1.2-0.6s0.9-0.3,1.4-0.4
		s1.1-0.2,1.6-0.2c0.8,0,1.5,0.1,2.1,0.4s1,0.7,1.4,1.1c0.3,0.5,0.6,1,0.8,1.7c0.2,0.6,0.2,1.3,0.2,2.1v8.9h-1.1l-0.1-1.8h-0.1
		c-0.7,0.6-1.5,1.1-2.3,1.5C52.5,438,51.8,438.2,50.8,438.2z M51,437.1c0.8,0,1.6-0.2,2.3-0.6s1.5-0.9,2.4-1.7v-4.7
		c-1.4,0.2-2.6,0.4-3.6,0.6c-1,0.3-1.8,0.6-2.4,0.9s-1,0.7-1.3,1.2c-0.3,0.4-0.4,0.9-0.4,1.5c0,0.5,0.1,0.9,0.2,1.3
		c0.2,0.3,0.4,0.6,0.6,0.9c0.3,0.2,0.6,0.4,0.9,0.5S50.7,437.1,51,437.1z"/>
	<path class="st2" d="M67.9,437.9v-19.1h5.5c0.9,0,1.8,0.1,2.6,0.3c0.8,0.2,1.4,0.5,2,0.9s1,0.9,1.3,1.6c0.3,0.6,0.4,1.4,0.4,2.3
		c0,1.5-0.4,2.7-1.3,3.6s-2.1,1.4-3.6,1.6l5.3,8.9h-1.5l-5.2-8.8h-4.2v8.8L67.9,437.9L67.9,437.9z M69.3,428h3.8c1.7,0,3-0.3,3.9-1
		s1.3-1.7,1.3-3.1s-0.5-2.4-1.4-3S74.7,420,73,420h-3.7V428z"/>
	<path class="st2" d="M88.6,438.2c-0.9,0-1.7-0.2-2.5-0.5s-1.5-0.8-2-1.4c-0.6-0.6-1-1.4-1.4-2.3c-0.3-0.9-0.5-1.9-0.5-3.1
		c0-1.1,0.2-2.2,0.5-3.1s0.8-1.7,1.4-2.3c0.6-0.6,1.2-1.1,1.9-1.4s1.5-0.5,2.2-0.5c1.7,0,3,0.6,3.9,1.7s1.4,2.7,1.4,4.8
		c0,0.2,0,0.3,0,0.5s0,0.3-0.1,0.5h-10c0,0.9,0.2,1.7,0.4,2.4c0.3,0.7,0.6,1.4,1.1,1.9s1,0.9,1.6,1.2c0.6,0.3,1.4,0.4,2.1,0.4
		c0.8,0,1.4-0.1,2-0.3c0.6-0.2,1.2-0.5,1.7-0.9l0.5,1c-0.6,0.3-1.2,0.6-1.8,0.9C90.4,438.1,89.6,438.2,88.6,438.2z M83.4,430.1h8.8
		c0-1.8-0.4-3.1-1.1-4s-1.7-1.3-3-1.3c-0.6,0-1.2,0.1-1.7,0.4c-0.5,0.2-1,0.6-1.5,1.1s-0.8,1-1.1,1.7
		C83.7,428.5,83.4,429.2,83.4,430.1z"/>
	<path class="st2" d="M100.7,438.2c-1,0-2-0.2-2.9-0.6s-1.6-0.8-2.2-1.3l0.8-1c0.6,0.5,1.2,0.9,1.9,1.3c0.7,0.3,1.5,0.5,2.5,0.5
		c1.1,0,1.9-0.3,2.5-0.8c0.6-0.6,0.8-1.2,0.8-1.9c0-0.4-0.1-0.8-0.3-1.1c-0.2-0.3-0.5-0.6-0.8-0.8c-0.3-0.2-0.7-0.4-1.1-0.6
		s-0.8-0.3-1.2-0.5c-0.5-0.2-1-0.4-1.6-0.6c-0.5-0.2-1-0.5-1.4-0.8s-0.8-0.7-1-1.1c-0.3-0.4-0.4-0.9-0.4-1.5c0-0.5,0.1-1,0.3-1.4
		c0.2-0.5,0.5-0.8,0.9-1.2s0.9-0.6,1.4-0.8c0.6-0.2,1.2-0.3,1.9-0.3c0.7,0,1.5,0.1,2.2,0.4s1.3,0.6,1.8,1l-0.7,0.9
		c-0.5-0.3-1-0.6-1.5-0.9c-0.5-0.2-1.1-0.4-1.9-0.4c-0.5,0-1,0.1-1.4,0.2s-0.7,0.3-1,0.6c-0.3,0.2-0.5,0.5-0.6,0.8s-0.2,0.6-0.2,0.9
		c0,0.4,0.1,0.7,0.3,1c0.2,0.3,0.4,0.5,0.7,0.7c0.3,0.2,0.7,0.4,1.1,0.6s0.8,0.3,1.2,0.5c0.5,0.2,1.1,0.4,1.6,0.6s1,0.5,1.5,0.8
		c0.4,0.3,0.8,0.7,1.1,1.1s0.4,1,0.4,1.7c0,0.5-0.1,1-0.3,1.5c-0.2,0.5-0.5,0.9-0.9,1.2c-0.4,0.4-0.9,0.6-1.5,0.9
		C102.1,438.1,101.3,438.2,100.7,438.2z"/>
	<path class="st2" d="M114.1,438.2c-0.8,0-1.6-0.2-2.4-0.5s-1.4-0.8-2-1.4s-1-1.4-1.4-2.3c-0.3-0.9-0.5-1.9-0.5-3.1s0.2-2.2,0.5-3.1
		s0.8-1.7,1.4-2.3c0.6-0.6,1.2-1.1,2-1.4s1.5-0.5,2.4-0.5c0.8,0,1.6,0.2,2.4,0.5s1.4,0.8,2,1.4s1,1.4,1.4,2.3c0.3,0.9,0.5,2,0.5,3.1
		c0,1.2-0.2,2.2-0.5,3.1s-0.8,1.7-1.4,2.3c-0.6,0.6-1.2,1.1-2,1.4C115.7,438.1,114.8,438.2,114.1,438.2z M114.1,437.1
		c0.7,0,1.3-0.1,2-0.4c0.6-0.3,1.1-0.7,1.6-1.3c0.4-0.5,0.8-1.2,1-1.9s0.4-1.6,0.4-2.5s-0.1-1.8-0.4-2.5s-0.6-1.4-1-2
		c-0.4-0.5-1-1-1.6-1.3s-1.3-0.4-2-0.4s-1.3,0.2-1.9,0.4c-0.6,0.3-1.1,0.7-1.5,1.3c-0.4,0.6-0.8,1.2-1,2s-0.4,1.6-0.4,2.5
		s0.1,1.7,0.4,2.5s0.6,1.4,1,1.9s1,1,1.5,1.3C112.8,436.9,113.3,437.1,114.1,437.1z"/>
	<path class="st2" d="M128.4,438.2c-1.4,0-2.5-0.4-3.2-1.3s-1-2.2-1-4V424h1.3v8.7c0,1.5,0.2,2.6,0.7,3.3c0.5,0.7,1.3,1.1,2.4,1.1
		c0.8,0,1.6-0.2,2.3-0.7s1.4-1.2,2.2-2.2v-10.3h1.3v13.9h-1.1l-0.1-2.3h-0.1c-0.7,0.8-1.4,1.5-2.1,1.9
		C130.4,438,129.4,438.2,128.4,438.2z"/>
	<path class="st2" d="M139.9,437.9V424h1.1l0.1,2.6h0.1c0.5-0.9,1-1.6,1.7-2.1s1.4-0.8,2.2-0.8c0.3,0,0.5,0,0.7,0.1
		c0.2,0,0.4,0.1,0.7,0.2l-0.3,1.2c-0.2-0.1-0.4-0.2-0.6-0.2c-0.2,0-0.4,0-0.7,0c-0.6,0-1.3,0.3-2,0.8s-1.3,1.5-1.8,2.8v9.5h-1.2
		V437.9z"/>
	<path class="st2" d="M153.9,438.2c-0.9,0-1.7-0.2-2.5-0.5s-1.4-0.8-2-1.4s-1-1.4-1.3-2.3s-0.5-1.9-0.5-3.1s0.2-2.2,0.5-3.1
		s0.8-1.7,1.4-2.3c0.6-0.6,1.3-1.1,2-1.4s1.6-0.5,2.4-0.5c1,0,1.8,0.2,2.4,0.5c0.6,0.3,1.2,0.7,1.7,1.2l-0.8,0.9
		c-0.4-0.4-0.9-0.8-1.5-1.1c-0.5-0.3-1.1-0.4-1.8-0.4s-1.4,0.2-2,0.4c-0.6,0.3-1.1,0.7-1.6,1.3c-0.5,0.6-0.8,1.2-1.1,2
		s-0.4,1.6-0.4,2.5s0.1,1.7,0.4,2.5c0.2,0.8,0.6,1.4,1,1.9s1,1,1.6,1.3s1.3,0.4,2.1,0.4c0.7,0,1.4-0.2,2-0.5s1.2-0.7,1.7-1.1
		l0.7,0.9c-0.6,0.5-1.3,1-2,1.3C155.6,438,154.8,438.2,153.9,438.2z"/>
	<path class="st2" d="M166.6,438.2c-0.9,0-1.7-0.2-2.5-0.5s-1.5-0.8-2-1.4c-0.6-0.6-1-1.4-1.4-2.3c-0.3-0.9-0.5-1.9-0.5-3.1
		c0-1.1,0.2-2.2,0.5-3.1s0.8-1.7,1.4-2.3c0.6-0.6,1.2-1.1,1.9-1.4s1.5-0.5,2.2-0.5c1.7,0,3,0.6,3.9,1.7s1.4,2.7,1.4,4.8
		c0,0.2,0,0.3,0,0.5s0,0.3-0.1,0.5h-10c0,0.9,0.2,1.7,0.4,2.4c0.3,0.7,0.6,1.4,1.1,1.9s1,0.9,1.6,1.2c0.6,0.3,1.4,0.4,2.1,0.4
		c0.8,0,1.4-0.1,2-0.3c0.6-0.2,1.2-0.5,1.7-0.9l0.5,1c-0.6,0.3-1.2,0.6-1.8,0.9C168.4,438.1,167.6,438.2,166.6,438.2z M161.4,430.1
		h8.9c0-1.8-0.4-3.1-1.1-4c-0.7-0.9-1.7-1.3-3-1.3c-0.6,0-1.2,0.1-1.7,0.4c-0.5,0.2-1,0.6-1.5,1.1s-0.8,1-1.1,1.7
		C161.6,428.5,161.4,429.2,161.4,430.1z"/>
	<path class="st2" d="M178.6,438.2c-1,0-2-0.2-2.9-0.6s-1.6-0.8-2.2-1.3l0.8-1c0.6,0.5,1.2,0.9,1.9,1.3c0.7,0.3,1.5,0.5,2.5,0.5
		c1.1,0,1.9-0.3,2.5-0.8c0.6-0.6,0.8-1.2,0.8-1.9c0-0.4-0.1-0.8-0.3-1.1c-0.2-0.3-0.5-0.6-0.8-0.8c-0.3-0.2-0.7-0.4-1.1-0.6
		c-0.4-0.2-0.8-0.3-1.2-0.5c-0.5-0.2-1-0.4-1.6-0.6c-0.5-0.2-1-0.5-1.4-0.8s-0.8-0.7-1-1.1c-0.3-0.4-0.4-0.9-0.4-1.5
		c0-0.5,0.1-1,0.3-1.4c0.2-0.5,0.5-0.8,0.9-1.2s0.9-0.6,1.4-0.8c0.6-0.2,1.2-0.3,1.9-0.3s1.5,0.1,2.2,0.4s1.3,0.6,1.8,1L182,426
		c-0.5-0.3-1-0.6-1.5-0.9c-0.5-0.2-1.1-0.4-1.9-0.4c-0.5,0-1,0.1-1.4,0.2s-0.7,0.3-1,0.6c-0.3,0.2-0.5,0.5-0.6,0.8s-0.2,0.6-0.2,0.9
		c0,0.4,0.1,0.7,0.3,1s0.4,0.5,0.7,0.7s0.7,0.4,1.1,0.6c0.4,0.2,0.8,0.3,1.2,0.5c0.5,0.2,1.1,0.4,1.6,0.6s1,0.5,1.5,0.8
		c0.4,0.3,0.8,0.7,1.1,1.1s0.4,1,0.4,1.7c0,0.5-0.1,1-0.3,1.5s-0.5,0.9-0.9,1.2c-0.4,0.4-0.9,0.6-1.5,0.9
		C180.1,438.1,179.4,438.2,178.6,438.2z"/>
</g>
<g>
	<path class="st2" d="M931,160.7v-1.3h5v-17.5h-3.8v-1c0.9-0.2,1.6-0.3,2.3-0.6s1.3-0.5,1.8-0.8h1.2v19.9h4.6v1.3L931,160.7
		L931,160.7z"/>
	<path class="st2" d="M947.7,161.1c-0.4,0-0.7-0.1-1-0.4c-0.3-0.3-0.4-0.6-0.4-1.1s0.1-0.9,0.4-1.1c0.3-0.3,0.6-0.4,1-0.4
		s0.7,0.1,1,0.4c0.3,0.3,0.4,0.6,0.4,1.1s-0.1,0.8-0.4,1.1C948.3,160.9,948,161.1,947.7,161.1z"/>
	<path class="st2" d="M960,161.1c-2.1,0-3.8-0.9-5.1-2.6c-1.2-1.7-1.9-4.2-1.9-7.4c0-2.2,0.2-4.1,0.6-5.6c0.4-1.5,1-2.8,1.7-3.7
		s1.5-1.6,2.5-2c0.9-0.4,1.9-0.6,2.9-0.6s1.8,0.2,2.6,0.6c0.7,0.4,1.4,0.9,1.9,1.5l-0.9,1c-0.5-0.6-1-1-1.6-1.3s-1.3-0.4-2-0.4
		c-0.8,0-1.6,0.2-2.4,0.5c-0.8,0.4-1.4,1-2,1.8s-1,1.9-1.4,3.2c-0.3,1.3-0.5,3-0.5,4.9c0.7-0.9,1.5-1.6,2.5-2.2s1.9-0.8,2.9-0.8
		c1.9,0,3.3,0.6,4.4,1.7c1,1.1,1.5,2.7,1.5,4.9c0,1-0.2,1.9-0.5,2.7s-0.7,1.5-1.3,2.1c-0.5,0.6-1.1,1-1.8,1.4S960.8,161.1,960,161.1
		z M960,159.8c0.6,0,1.2-0.1,1.7-0.4c0.5-0.3,1-0.7,1.3-1.1c0.4-0.5,0.7-1.1,0.9-1.7c0.2-0.7,0.3-1.4,0.3-2.1c0-0.8-0.1-1.5-0.3-2.1
		c-0.2-0.7-0.4-1.2-0.8-1.7s-0.8-0.8-1.4-1.1c-0.6-0.3-1.3-0.4-2.1-0.4s-1.6,0.2-2.5,0.7s-1.8,1.3-2.6,2.5c0.1,1.1,0.2,2.1,0.5,3.1
		c0.3,0.9,0.6,1.7,1,2.4s1,1.2,1.6,1.5C958.3,159.6,959,159.8,960,159.8z"/>
	<path class="st2" d="M968.5,160.7v-1c1.7-1.8,3.3-3.3,4.6-4.8c1.3-1.4,2.4-2.7,3.3-3.8c0.9-1.2,1.5-2.2,2-3.2s0.6-1.9,0.6-2.9
		c0-1.3-0.4-2.4-1.1-3.3c-0.7-0.9-1.9-1.4-3.5-1.4c-1,0-1.9,0.3-2.7,0.8s-1.6,1.2-2.2,2l-1-0.9c0.8-0.9,1.7-1.6,2.6-2.2
		c1-0.6,2.1-0.9,3.4-0.9c1.9,0,3.4,0.5,4.4,1.6s1.6,2.5,1.6,4.3c0,1.1-0.2,2.1-0.7,3.2c-0.5,1-1.1,2.2-2,3.3
		c-0.8,1.2-1.9,2.4-3.1,3.7c-1.2,1.3-2.5,2.7-4,4.3c0.6,0,1.2-0.1,1.8-0.1s1.2,0,1.8,0h7.2v1.3L968.5,160.7L968.5,160.7z"/>
	<path class="st2" d="M991.7,161.1c-2.1,0-3.8-0.9-5.1-2.6c-1.2-1.7-1.9-4.2-1.9-7.4c0-2.2,0.2-4.1,0.6-5.6c0.4-1.5,1-2.8,1.7-3.7
		s1.5-1.6,2.5-2c0.9-0.4,1.9-0.6,2.9-0.6s1.8,0.2,2.6,0.6c0.7,0.4,1.4,0.9,1.9,1.5l-0.9,1c-0.5-0.6-1-1-1.6-1.3s-1.3-0.4-2-0.4
		c-0.8,0-1.6,0.2-2.4,0.5c-0.8,0.4-1.4,1-2,1.8s-1,1.9-1.4,3.2c-0.3,1.3-0.5,3-0.5,4.9c0.7-0.9,1.5-1.6,2.5-2.2s1.9-0.8,2.9-0.8
		c1.9,0,3.3,0.6,4.4,1.7c1,1.1,1.5,2.7,1.5,4.9c0,1-0.2,1.9-0.5,2.7s-0.7,1.5-1.3,2.1c-0.5,0.6-1.1,1-1.8,1.4
		S992.5,161.1,991.7,161.1z M991.7,159.8c0.6,0,1.2-0.1,1.7-0.4c0.5-0.3,1-0.7,1.3-1.1c0.4-0.5,0.7-1.1,0.9-1.7
		c0.2-0.7,0.3-1.4,0.3-2.1c0-0.8-0.1-1.5-0.3-2.1c-0.2-0.7-0.4-1.2-0.8-1.7s-0.8-0.8-1.4-1.1c-0.6-0.3-1.3-0.4-2.1-0.4
		s-1.6,0.2-2.5,0.7s-1.8,1.3-2.6,2.5c0.1,1.1,0.2,2.1,0.5,3.1c0.3,0.9,0.6,1.7,1,2.4s1,1.2,1.6,1.5
		C990,159.6,990.8,159.8,991.7,159.8z"/>
</g>
<g>
	<path class="st2" d="M931,230.4v-1.3h5v-17.5h-3.8v-1c0.9-0.2,1.6-0.3,2.3-0.6s1.3-0.5,1.8-0.8h1.2v19.9h4.6v1.3L931,230.4
		L931,230.4z"/>
	<path class="st2" d="M946,235.5l-0.5-1c0.8-0.4,1.4-0.9,1.9-1.6c0.5-0.7,0.7-1.5,0.7-2.4c-0.1,0-0.2,0-0.4,0c-0.4,0-0.7-0.1-1-0.4
		c-0.3-0.2-0.4-0.6-0.4-1s0.1-0.8,0.4-1c0.3-0.2,0.6-0.4,1-0.4c0.5,0,0.9,0.2,1.2,0.6c0.3,0.4,0.5,1,0.5,1.7c0,1.2-0.3,2.3-1,3.2
		C947.8,234.2,947,235,946,235.5z"/>
	<path class="st2" d="M961.5,230.4v-6.3h-9.7v-0.9l9.8-14h1.3v13.6h3.1v1.3h-3.1v6.3L961.5,230.4L961.5,230.4z M953.7,222.8h7.9
		v-7.7c0-0.5,0-1.1,0-1.8s0.1-1.3,0.1-1.8h-0.1c-0.3,0.4-0.5,0.9-0.8,1.3c-0.3,0.4-0.6,0.9-0.9,1.4L953.7,222.8z"/>
	<path class="st2" d="M974.8,230.8c-0.8,0-1.6-0.1-2.3-0.3s-1.3-0.4-1.8-0.7s-1-0.6-1.5-1c-0.4-0.4-0.8-0.7-1.1-1.1l0.9-1
		c0.3,0.4,0.7,0.7,1,1c0.4,0.3,0.8,0.6,1.3,0.9c0.5,0.3,1,0.5,1.6,0.6s1.2,0.2,2,0.2c0.7,0,1.4-0.1,2-0.3s1.1-0.5,1.6-0.9
		s0.8-0.9,1-1.5s0.4-1.2,0.4-1.9s-0.1-1.4-0.4-2c-0.3-0.6-0.7-1.1-1.3-1.5s-1.3-0.8-2.3-1c-0.9-0.2-2.1-0.4-3.4-0.4v-1.3
		c1.2,0,2.2-0.1,3.1-0.4c0.8-0.2,1.5-0.6,2.1-1c0.5-0.4,0.9-0.9,1.1-1.5c0.2-0.6,0.3-1.2,0.3-1.8c0-1.2-0.4-2.1-1.2-2.9
		c-0.8-0.7-1.8-1.1-3.1-1.1c-1,0-1.9,0.2-2.7,0.7s-1.5,1-2.2,1.6l-0.9-1c0.7-0.7,1.6-1.3,2.5-1.8s2-0.8,3.2-0.8
		c0.8,0,1.6,0.1,2.3,0.3s1.3,0.6,1.8,1s0.9,1,1.2,1.6s0.4,1.4,0.4,2.2c0,1.4-0.4,2.5-1.1,3.4c-0.8,0.8-1.7,1.5-2.9,1.9v0.1
		c0.7,0.1,1.3,0.4,1.9,0.7c0.6,0.3,1.1,0.7,1.5,1.2s0.8,1,1,1.6c0.3,0.6,0.4,1.3,0.4,2c0,0.9-0.2,1.8-0.5,2.5s-0.8,1.4-1.4,1.9
		c-0.6,0.5-1.3,0.9-2.1,1.2S975.8,230.8,974.8,230.8z"/>
	<path class="st2" d="M993.3,230.4v-6.3h-9.7v-0.9l9.8-14h1.3v13.6h3.1v1.3h-3.1v6.3L993.3,230.4L993.3,230.4z M985.3,222.8h7.9
		v-7.7c0-0.5,0-1.1,0-1.8s0.1-1.3,0.1-1.8h-0.1c-0.3,0.4-0.5,0.9-0.8,1.3c-0.3,0.4-0.6,0.9-0.9,1.4L985.3,222.8z"/>
</g>
<g>
	<path class="st2" d="M931,300v-1.3h5v-17.5h-3.8v-1c0.9-0.2,1.6-0.3,2.3-0.6s1.3-0.5,1.8-0.8h1.2v19.9h4.6v1.3H931z"/>
	<path class="st2" d="M946,305.2l-0.5-1c0.8-0.4,1.4-0.9,1.9-1.6s0.7-1.5,0.7-2.4c-0.1,0-0.2,0-0.4,0c-0.4,0-0.7-0.1-1-0.4
		c-0.3-0.2-0.4-0.6-0.4-1s0.1-0.8,0.4-1c0.3-0.2,0.6-0.4,1-0.4c0.5,0,0.9,0.2,1.2,0.6s0.5,1,0.5,1.7c0,1.2-0.3,2.3-1,3.2
		C947.8,303.9,947,304.7,946,305.2z"/>
	<path class="st2" d="M952.7,300v-0.9c1.7-1.8,3.3-3.3,4.6-4.8c1.3-1.4,2.4-2.7,3.3-3.8c0.9-1.2,1.5-2.2,2-3.2
		c0.4-1,0.6-1.9,0.6-2.9c0-1.3-0.4-2.4-1.1-3.3c-0.7-0.9-1.9-1.4-3.5-1.4c-1,0-1.9,0.3-2.7,0.8s-1.6,1.2-2.2,2l-1-0.9
		c0.8-0.9,1.7-1.6,2.6-2.2s2.1-0.9,3.4-0.9c1.9,0,3.4,0.5,4.4,1.6s1.6,2.5,1.6,4.3c0,1.1-0.2,2.1-0.7,3.2c-0.5,1-1.1,2.2-2,3.3
		c-0.8,1.2-1.9,2.4-3.1,3.7c-1.2,1.3-2.5,2.7-4,4.3c0.6,0,1.2-0.1,1.8-0.1s1.2,0,1.8,0h7.2v1.3h-13L952.7,300L952.7,300z"/>
	<path class="st2" d="M977.5,300v-6.3h-9.7v-0.9l9.8-14h1.3v13.6h3.1v1.3h-3.1v6.3H977.5z M969.5,292.5h7.9v-7.8c0-0.5,0-1.1,0-1.8
		c0-0.7,0.1-1.3,0.1-1.8h-0.1c-0.3,0.4-0.5,0.9-0.8,1.3s-0.6,0.9-0.9,1.4L969.5,292.5z"/>
	<path class="st2" d="M990.7,300.4c-0.8,0-1.6-0.1-2.3-0.3c-0.7-0.2-1.3-0.4-1.8-0.7c-0.5-0.3-1-0.6-1.5-1c-0.4-0.4-0.8-0.7-1.1-1.1
		l0.9-1c0.3,0.4,0.7,0.7,1,1c0.4,0.3,0.8,0.6,1.3,0.9s1,0.5,1.6,0.6s1.2,0.2,2,0.2c0.7,0,1.4-0.1,2-0.3c0.6-0.2,1.1-0.5,1.6-0.9
		s0.8-0.9,1-1.5s0.4-1.2,0.4-1.9c0-0.7-0.1-1.4-0.4-2c-0.3-0.6-0.7-1.1-1.3-1.5s-1.3-0.8-2.3-1c-0.9-0.2-2.1-0.4-3.4-0.4v-1.3
		c1.2,0,2.2-0.1,3.1-0.4c0.8-0.2,1.5-0.6,2.1-1c0.5-0.4,0.9-0.9,1.1-1.5c0.2-0.6,0.3-1.2,0.3-1.8c0-1.2-0.4-2.1-1.2-2.9
		c-0.8-0.7-1.8-1.1-3.1-1.1c-1,0-1.9,0.2-2.7,0.7s-1.5,1-2.2,1.6l-0.9-1c0.7-0.7,1.6-1.3,2.5-1.8s2-0.8,3.2-0.8
		c0.8,0,1.6,0.1,2.3,0.3c0.7,0.2,1.3,0.6,1.8,1s0.9,1,1.2,1.6s0.4,1.4,0.4,2.2c0,1.4-0.4,2.5-1.1,3.4c-0.8,0.8-1.7,1.5-2.9,1.9v0.1
		c0.7,0.1,1.3,0.4,1.9,0.7c0.6,0.3,1.1,0.7,1.5,1.2s0.8,1,1,1.6c0.3,0.6,0.4,1.3,0.4,2c0,0.9-0.2,1.8-0.5,2.5s-0.8,1.4-1.4,1.9
		c-0.6,0.5-1.3,0.9-2.1,1.2S991.5,300.4,990.7,300.4z"/>
</g>
<g>
	<path class="st2" d="M955.2,370.1c-1.1,0-2-0.1-2.9-0.4s-1.7-0.7-2.3-1.2c-0.7-0.5-1.2-1.1-1.5-1.8c-0.4-0.7-0.5-1.5-0.5-2.3
		c0-1.3,0.3-2.3,1-3.1c0.7-0.8,1.5-1.5,2.5-2v-0.1c-0.8-0.6-1.5-1.3-2-2.1c-0.5-0.8-0.8-1.7-0.8-2.9c0-0.9,0.2-1.7,0.5-2.4
		c0.3-0.7,0.8-1.3,1.4-1.8c0.6-0.5,1.3-0.9,2.1-1.2c0.8-0.3,1.7-0.4,2.7-0.4c0.9,0,1.8,0.1,2.6,0.4s1.5,0.7,2,1.2
		c0.6,0.5,1,1.1,1.3,1.8c0.3,0.7,0.5,1.5,0.5,2.4c0,1-0.3,1.9-0.8,2.7c-0.6,0.8-1.2,1.4-1.9,1.9v0.1c1,0.6,1.9,1.3,2.6,2.1
		c0.7,0.9,1.1,2,1.1,3.4c0,0.8-0.2,1.6-0.5,2.3c-0.4,0.7-0.9,1.3-1.5,1.8c-0.7,0.5-1.4,0.9-2.4,1.2S956.3,370.1,955.2,370.1z
		 M955.3,366.8c0.8,0,1.5-0.2,2-0.6s0.8-1.1,0.8-2c0-0.5-0.1-0.9-0.3-1.2c-0.2-0.3-0.5-0.6-0.9-0.9s-0.9-0.5-1.4-0.8
		c-0.5-0.2-1.1-0.5-1.8-0.8c-0.5,0.4-0.9,0.9-1.2,1.5s-0.5,1.2-0.5,1.8c0,0.9,0.3,1.6,1,2.2C953.5,366.5,954.3,366.8,955.3,366.8z
		 M956.5,357.5c0.9-1,1.3-2,1.3-3.1c0-0.8-0.2-1.5-0.7-2s-1.1-0.7-1.9-0.7c-0.6,0-1.2,0.2-1.7,0.6s-0.7,1-0.7,1.8c0,0.9,0.3,1.5,1,2
		S955.3,357.1,956.5,357.5z"/>
	<path class="st2" d="M971.5,370.1c-1.4,0-2.6-0.3-3.6-0.8s-1.9-1.1-2.5-1.8l2.6-2.9c0.4,0.4,0.8,0.7,1.4,1c0.6,0.3,1.2,0.4,1.8,0.4
		s1.1-0.1,1.7-0.3c0.5-0.2,1-0.6,1.3-1.1c0.4-0.5,0.7-1.2,0.9-2s0.4-1.9,0.4-3.1c-0.3,0.4-0.6,0.7-0.9,0.9c-0.4,0.3-0.7,0.5-1.1,0.7
		c-0.4,0.2-0.8,0.3-1.1,0.4c-0.4,0.1-0.7,0.1-1.1,0.1c-0.9,0-1.7-0.1-2.5-0.4s-1.4-0.7-2-1.2s-1-1.2-1.3-2s-0.5-1.8-0.5-2.9
		s0.2-2.1,0.6-2.9c0.4-0.9,0.9-1.6,1.5-2.2s1.4-1.1,2.2-1.4s1.7-0.5,2.7-0.5s2,0.2,3,0.6s1.8,1,2.5,1.9c0.7,0.8,1.3,1.9,1.8,3.2
		c0.5,1.3,0.7,2.9,0.7,4.8c0,2-0.2,3.7-0.7,5.1s-1.1,2.6-1.9,3.5c-0.8,0.9-1.7,1.6-2.7,2.1S972.5,370.1,971.5,370.1z M972.3,358.4
		c0.6,0,1.1-0.2,1.7-0.5c0.6-0.3,1.1-0.9,1.5-1.6c-0.2-1.7-0.6-2.8-1.2-3.4c-0.6-0.6-1.3-0.9-2-0.9s-1.3,0.3-1.9,0.8
		c-0.5,0.5-0.8,1.4-0.8,2.6c0,1.1,0.3,1.9,0.8,2.4S971.5,358.4,972.3,358.4z"/>
	<path class="st2" d="M991.2,369.7v-5h-9.1v-3.3l7.7-12.6h6v12.3h2.4v3.7h-2.4v5h-4.6L991.2,369.7L991.2,369.7z M986.7,361h4.4v-3.4
		c0-0.7,0-1.5,0.1-2.4c0-0.9,0.1-1.7,0.1-2.3h-0.1c-0.3,0.6-0.5,1.2-0.8,1.8c-0.3,0.6-0.6,1.2-0.9,1.8L986.7,361z"/>
</g>
<g>
	<path class="st2" d="M960,439.8c-2.1,0-3.8-0.9-5.1-2.6c-1.2-1.7-1.9-4.2-1.9-7.4c0-2.2,0.2-4.1,0.6-5.6c0.4-1.5,1-2.8,1.7-3.7
		c0.7-0.9,1.5-1.6,2.5-2c0.9-0.4,1.9-0.6,2.9-0.6s1.8,0.2,2.6,0.6s1.4,0.9,1.9,1.5l-0.9,1c-0.5-0.6-1-1-1.6-1.3s-1.3-0.4-2-0.4
		c-0.8,0-1.6,0.2-2.4,0.5c-0.8,0.4-1.4,1-2,1.8s-1,1.9-1.4,3.2c-0.3,1.3-0.5,3-0.5,4.9c0.7-0.9,1.5-1.6,2.5-2.2
		c0.9-0.5,1.9-0.8,2.9-0.8c1.9,0,3.3,0.6,4.4,1.7c1,1.1,1.5,2.7,1.5,4.9c0,1-0.2,1.9-0.5,2.7c-0.3,0.8-0.7,1.5-1.3,2.1
		c-0.5,0.6-1.1,1-1.8,1.4S960.8,439.8,960,439.8z M960,438.6c0.6,0,1.2-0.1,1.7-0.4s1-0.7,1.3-1.1s0.7-1.1,0.9-1.7
		c0.2-0.7,0.3-1.4,0.3-2.1s-0.1-1.5-0.3-2.1c-0.2-0.7-0.4-1.2-0.8-1.7c-0.4-0.5-0.8-0.8-1.4-1.1s-1.3-0.4-2.1-0.4s-1.6,0.2-2.5,0.7
		s-1.8,1.3-2.6,2.5c0.1,1.1,0.2,2.1,0.5,3.1s0.6,1.7,1,2.3c0.4,0.7,1,1.2,1.6,1.5C958.3,438.4,959,438.6,960,438.6z"/>
	<path class="st2" d="M975,439.8c-2,0-3.6-1-4.7-2.9c-1.1-1.9-1.6-4.6-1.6-8.2c0-3.5,0.5-6.2,1.6-8.1s2.7-2.8,4.7-2.8
		s3.6,0.9,4.7,2.8c1.1,1.9,1.6,4.6,1.6,8.1c0,3.6-0.5,6.3-1.6,8.2C978.7,438.9,977,439.8,975,439.8z M975,438.6
		c1.5,0,2.7-0.8,3.5-2.5c0.9-1.6,1.3-4.1,1.3-7.3c0-3.2-0.4-5.7-1.3-7.2s-2-2.4-3.5-2.4s-2.6,0.8-3.5,2.4s-1.3,4-1.3,7.2
		s0.4,5.7,1.3,7.3C972.5,437.7,973.5,438.6,975,438.6z"/>
	<path class="st2" d="M991,439.8c-1,0-1.9-0.1-2.7-0.4s-1.5-0.7-2.1-1.2s-1.1-1.1-1.4-1.8s-0.5-1.5-0.5-2.3c0-0.7,0.1-1.4,0.4-2
		c0.3-0.6,0.6-1.2,1-1.7s0.9-0.9,1.4-1.3s1-0.7,1.5-1V428c-0.4-0.3-0.8-0.6-1.1-0.9c-0.4-0.3-0.7-0.7-1-1.1s-0.5-0.8-0.7-1.3
		s-0.3-1-0.3-1.6c0-0.8,0.1-1.4,0.4-2.1c0.3-0.6,0.7-1.2,1.2-1.6c0.5-0.5,1.1-0.8,1.8-1.1c0.7-0.3,1.4-0.4,2.2-0.4
		c0.9,0,1.7,0.1,2.4,0.4s1.3,0.7,1.8,1.2s0.9,1.1,1.1,1.8c0.3,0.7,0.4,1.4,0.4,2.2c0,0.6-0.1,1.1-0.3,1.7c-0.2,0.5-0.4,1-0.7,1.5
		s-0.6,0.9-1,1.3s-0.7,0.7-1,0.9v0.1c0.5,0.3,0.9,0.6,1.4,0.9s0.8,0.7,1.2,1.1s0.6,0.9,0.8,1.5s0.3,1.2,0.3,1.9
		c0,0.8-0.2,1.5-0.5,2.2s-0.7,1.3-1.3,1.8s-1.2,0.9-2,1.2C992.8,439.7,992,439.8,991,439.8z M991,438.6c0.8,0,1.4-0.1,2-0.3
		c0.6-0.2,1.1-0.5,1.6-0.9c0.4-0.4,0.8-0.9,1-1.4s0.3-1.1,0.3-1.7c0-0.8-0.2-1.5-0.5-2.1c-0.4-0.6-0.8-1.1-1.5-1.5
		c-0.6-0.4-1.3-0.8-2.1-1.1c-0.8-0.3-1.6-0.6-2.4-1c-1.1,0.6-2,1.4-2.7,2.3s-1.1,1.9-1.1,3.1c0,0.7,0.1,1.3,0.4,1.8
		c0.3,0.6,0.6,1.1,1.1,1.5s1,0.8,1.7,1S990.3,438.6,991,438.6z M992.5,428.3c0.9-0.7,1.6-1.5,2.1-2.3s0.7-1.7,0.7-2.6
		c0-0.6-0.1-1.2-0.3-1.7s-0.5-1-0.8-1.4c-0.4-0.4-0.8-0.7-1.4-0.9c-0.5-0.2-1.2-0.3-1.8-0.3s-1.1,0.1-1.6,0.3
		c-0.5,0.2-0.9,0.5-1.3,0.8c-0.4,0.3-0.6,0.8-0.8,1.2c-0.2,0.5-0.3,1-0.3,1.6c0,0.8,0.2,1.4,0.5,1.9s0.7,1,1.3,1.4s1.1,0.8,1.8,1.1
		C991.3,427.8,991.8,428.1,992.5,428.3z"/>
</g>
<line class="st5" x1="0.8" y1="481.7" x2="999.3" y2="481.7"/>
</svg>
