<?xml version="1.0" encoding="utf-8"?>
<!-- Generator: Adobe Illustrator 23.0.3, SVG Export Plug-In . SVG Version: 6.00 Build 0)  -->
<svg version="1.1" id="Layer_1" xmlns="http://www.w3.org/2000/svg" xmlns:xlink="http://www.w3.org/1999/xlink" x="0px" y="0px"
	 viewBox="0 0 497.8 101.5" style="enable-background:new 0 0 497.8 101.5;" xml:space="preserve">
<style type="text/css">
	.st0{fill:#00AE4D;}
	.st1{fill:#FFFFFF;}
	.st2{fill:#A3D4A0;}
	.st3{fill:none;stroke:#939598;stroke-width:0.5;stroke-miterlimit:10;}
	.st4{fill:none;stroke:#939598;stroke-width:0.499;stroke-miterlimit:10;}
</style>
<g>
	<g>
		<path d="M1.8,1.2h1.5v5.3h2.6v1.2h-4L1.8,1.2L1.8,1.2z"/>
		<path d="M7,1.2h4.1v1.2H8.4v1.3h2.2v1.2H8.4v1.5h2.7v1.2H6.9L7,1.2L7,1.2z"/>
		<path d="M13.6,1.2h1.8l2,6.5h-1.6l-0.3-1.5h-2l-0.4,1.5h-1.5L13.6,1.2z M13.8,5h1.4L15,4.4c-0.2-0.7-0.4-1.4-0.5-2.1l0,0
			C14.3,3,14.2,3.7,14,4.4L13.8,5z"/>
		<path d="M18.2,1.2H20c2,0,3.3,1,3.3,3.2S22,7.7,20.1,7.7h-1.9V1.2z M19.9,6.5c1.1,0,1.8-0.5,1.8-2.1s-0.7-2-1.8-2h-0.3v4.1H19.9z"
			/>
		<path d="M26.5,1.2h1.9c2,0,3.3,1,3.3,3.2s-1.3,3.3-3.2,3.3h-1.9L26.5,1.2L26.5,1.2z M28.3,6.5c1.1,0,1.8-0.5,1.8-2.1s-0.7-2-1.8-2
			H28v4.1H28.3z"/>
		<path d="M32.9,1.2H37v1.2h-2.6v1.3h2.2v1.2h-2.2v1.5h2.7v1.2h-4.2V1.2z"/>
		<path d="M38.3,1.2h1.6l1,2.9c0.1,0.4,0.3,0.8,0.4,1.2l0,0c0.1-0.4,0.2-0.8,0.4-1.2l1-2.9h1.7v6.5h-1.3V5.3c0-0.6,0.1-1.6,0.2-2.2
			l0,0l-0.5,1.5l-0.9,2.5h-0.8l-0.9-2.5l-0.5-1.5l0,0c0.1,0.6,0.2,1.6,0.2,2.2v2.4h-1.3V1.2H38.3z"/>
		<path d="M47.2,1.2H49l2,6.5h-1.6L49,6.2h-2l-0.4,1.5h-1.5L47.2,1.2z M47.3,5h1.4l-0.2-0.6C48.3,3.7,48.1,3,48,2.3l0,0
			c-0.2,0.7-0.3,1.4-0.5,2.1L47.3,5z"/>
		<path d="M51.7,1.2h1.5l1.7,3.2l0.6,1.4l0,0c0-0.6-0.1-1.5-0.1-2.3V1.2h1.4v6.5h-1.5l-1.7-3.2L53,3.1l0,0c0.1,0.7,0.2,1.6,0.2,2.4
			v2.3h-1.4L51.7,1.2L51.7,1.2z"/>
		<path d="M58.3,1.2h1.8c2,0,3.3,1,3.3,3.2s-1.3,3.3-3.2,3.3h-1.9C58.3,7.7,58.3,1.2,58.3,1.2z M60.1,6.5c1.1,0,1.8-0.5,1.8-2.1
			s-0.7-2-1.8-2h-0.3v4.1H60.1z"/>
		<path d="M66.4,4.7h2.5v1h-2.5V4.7z"/>
		<path d="M71.6,6.9l0.8-1c0.5,0.4,1.1,0.7,1.6,0.7c0.6,0,0.9-0.2,0.9-0.6S74.5,5.5,74,5.2l-0.8-0.4C72.5,4.5,71.9,4,71.9,3
			c0-1.1,1-1.9,2.3-1.9c0.7,0,1.5,0.3,2.1,0.9l-0.8,0.9c-0.4-0.3-0.8-0.5-1.3-0.5S73.4,2.6,73.4,3s0.4,0.5,1,0.8l0.8,0.3
			c0.8,0.3,1.3,0.8,1.3,1.8c0,1.1-0.9,2-2.5,2C73.2,7.8,72.3,7.5,71.6,6.9z"/>
		<path d="M77.5,4.7V1.2H79v3.6c0,1.3,0.4,1.7,1.1,1.7s1.1-0.4,1.1-1.7V1.2h1.4v3.5c0,2.2-0.9,3.1-2.6,3.1
			C78.5,7.8,77.5,6.9,77.5,4.7z"/>
		<path d="M84.2,1.2h2.2c1.4,0,2.6,0.5,2.6,2.1c0,1.5-1.2,2.2-2.5,2.2h-0.8v2.2h-1.5C84.2,7.7,84.2,1.2,84.2,1.2z M86.4,4.3
			c0.8,0,1.2-0.4,1.2-1s-0.4-0.9-1.2-0.9h-0.7v2L86.4,4.3L86.4,4.3z"/>
		<path d="M90.2,1.2h2.2c1.4,0,2.6,0.5,2.6,2.1c0,1.5-1.2,2.2-2.5,2.2h-0.8v2.2h-1.5C90.2,7.7,90.2,1.2,90.2,1.2z M92.4,4.3
			c0.8,0,1.2-0.4,1.2-1s-0.4-0.9-1.2-0.9h-0.7v2L92.4,4.3L92.4,4.3z"/>
		<path d="M96.1,1.2h1.5v5.3h2.6v1.2h-4L96.1,1.2L96.1,1.2z"/>
		<path d="M101.6,5.4l-2-4.2h1.6l0.6,1.5c0.2,0.5,0.3,0.9,0.5,1.4l0,0c0.2-0.5,0.4-0.9,0.5-1.4l0.6-1.5h1.5l-2,4.2v2.3h-1.5V5.4
			H101.6z"/>
	</g>
	<path class="st0" d="M425.9,19.2h70.9v13.6h-70.9V19.2z M355.1,19.2H426v13.6h-70.9V19.2z M284.2,19.2h70.9v13.6h-70.9V19.2z
		 M213.3,19.2h70.9v13.6h-70.9L213.3,19.2L213.3,19.2z"/>
	<path class="st1" d="M284.2,86.9h70.9v13.6h-70.9V86.9z M213.3,86.9h70.9v13.6h-70.9L213.3,86.9L213.3,86.9z M1,86.9h212.3v13.6H1
		V86.9z M284.2,73.4h70.9V87h-70.9V73.4z M213.3,73.4h70.9V87h-70.9L213.3,73.4L213.3,73.4z M1,73.4h212.3V87H1V73.4z M284.2,59.8
		h70.9v13.6h-70.9V59.8z M213.3,59.8h70.9v13.6h-70.9L213.3,59.8L213.3,59.8z M1,59.8h212.3v13.6H1V59.8z M284.2,46.3h70.9v13.6
		h-70.9V46.3z M213.3,46.3h70.9v13.6h-70.9L213.3,46.3L213.3,46.3z M1,46.3h212.3v13.6H1V46.3z M284.2,32.7h70.9v13.6h-70.9V32.7z
		 M213.3,32.7h70.9v13.6h-70.9L213.3,32.7L213.3,32.7z M1,32.7h212.3v13.6H1V32.7z"/>
	<path class="st2" d="M355.1,86.9H426v13.6h-70.9V86.9z M355.1,73.4H426V87h-70.9V73.4z M355.1,59.8H426v13.6h-70.9V59.8z
		 M355.1,46.3H426v13.6h-70.9V46.3z M355.1,32.7H426v13.6h-70.9V32.7z"/>
	<line class="st3" x1="425.9" y1="32.7" x2="496.8" y2="32.7"/>
	<line class="st3" x1="1" y1="46.3" x2="213.1" y2="46.3"/>
	<line class="st3" x1="213.6" y1="46.3" x2="283.9" y2="46.3"/>
	<line class="st3" x1="284.4" y1="46.3" x2="354.8" y2="46.3"/>
	<line class="st3" x1="355.3" y1="46.3" x2="425.7" y2="46.3"/>
	<line class="st3" x1="426.2" y1="46.3" x2="496.8" y2="46.3"/>
	<line class="st3" x1="213.6" y1="59.8" x2="283.9" y2="59.8"/>
	<line class="st3" x1="284.4" y1="59.8" x2="354.8" y2="59.8"/>
	<line class="st3" x1="355.3" y1="59.8" x2="425.7" y2="59.8"/>
	<line class="st3" x1="426.2" y1="59.8" x2="496.8" y2="59.8"/>
	<line class="st3" x1="213.6" y1="73.4" x2="283.9" y2="73.4"/>
	<line class="st3" x1="284.4" y1="73.4" x2="354.8" y2="73.4"/>
	<line class="st3" x1="355.3" y1="73.4" x2="425.7" y2="73.4"/>
	<line class="st3" x1="426.2" y1="73.4" x2="496.8" y2="73.4"/>
	<line class="st3" x1="213.6" y1="86.9" x2="283.9" y2="86.9"/>
	<line class="st3" x1="284.4" y1="86.9" x2="354.8" y2="86.9"/>
	<line class="st3" x1="355.3" y1="86.9" x2="425.7" y2="86.9"/>
	<line class="st3" x1="426.2" y1="86.9" x2="496.8" y2="86.9"/>
	<line class="st3" x1="213.3" y1="100.5" x2="284.2" y2="100.5"/>
	<line class="st3" x1="284.2" y1="100.5" x2="355.1" y2="100.5"/>
	<line class="st3" x1="355.1" y1="100.5" x2="425.9" y2="100.5"/>
	<line class="st3" x1="425.9" y1="100.5" x2="496.8" y2="100.5"/>
	<line class="st4" x1="425.9" y1="100.2" x2="425.9" y2="86.9"/>
	<line class="st3" x1="425.9" y1="19.2" x2="496.8" y2="19.2"/>
	<line class="st3" x1="1" y1="19.2" x2="213.3" y2="19.2"/>
	<line class="st3" x1="213.3" y1="19.2" x2="284.2" y2="19.2"/>
	<line class="st3" x1="284.2" y1="19.2" x2="355.1" y2="19.2"/>
	<line class="st3" x1="355.1" y1="19.2" x2="425.9" y2="19.2"/>
	<line class="st4" x1="213.3" y1="32.5" x2="213.3" y2="19.4"/>
	<line class="st4" x1="284.2" y1="32.5" x2="284.2" y2="19.4"/>
	<line class="st4" x1="355.1" y1="32.5" x2="355.1" y2="19.4"/>
	<line class="st4" x1="425.9" y1="32.5" x2="425.9" y2="19.4"/>
	<line class="st3" x1="1" y1="59.8" x2="213.1" y2="59.8"/>
	<line class="st3" x1="1" y1="73.4" x2="213.1" y2="73.4"/>
	<line class="st3" x1="1" y1="86.9" x2="213.1" y2="86.9"/>
	<line class="st3" x1="213.3" y1="32.7" x2="284.2" y2="32.7"/>
	<line class="st3" x1="284.2" y1="32.7" x2="355.1" y2="32.7"/>
	<line class="st3" x1="355.1" y1="32.7" x2="425.9" y2="32.7"/>
	<line class="st4" x1="213.3" y1="46.3" x2="213.3" y2="33"/>
	<line class="st4" x1="284.2" y1="46.3" x2="284.2" y2="33"/>
	<line class="st4" x1="355.1" y1="46.3" x2="355.1" y2="33"/>
	<line class="st4" x1="425.9" y1="46.3" x2="425.9" y2="33"/>
	<line class="st4" x1="213.3" y1="59.8" x2="213.3" y2="46.3"/>
	<line class="st4" x1="284.2" y1="59.8" x2="284.2" y2="46.3"/>
	<line class="st4" x1="355.1" y1="59.8" x2="355.1" y2="46.3"/>
	<line class="st4" x1="425.9" y1="59.8" x2="425.9" y2="46.3"/>
	<line class="st4" x1="213.3" y1="73.4" x2="213.3" y2="59.8"/>
	<line class="st4" x1="284.2" y1="73.4" x2="284.2" y2="59.8"/>
	<line class="st4" x1="355.1" y1="73.4" x2="355.1" y2="59.8"/>
	<line class="st4" x1="425.9" y1="73.4" x2="425.9" y2="59.8"/>
	<line class="st4" x1="213.3" y1="86.9" x2="213.3" y2="73.4"/>
	<line class="st4" x1="284.2" y1="86.9" x2="284.2" y2="73.4"/>
	<line class="st4" x1="355.1" y1="86.9" x2="355.1" y2="73.4"/>
	<line class="st4" x1="425.9" y1="86.9" x2="425.9" y2="73.4"/>
	<line class="st4" x1="213.3" y1="100.2" x2="213.3" y2="86.9"/>
	<line class="st4" x1="284.2" y1="100.2" x2="284.2" y2="86.9"/>
	<line class="st4" x1="355.1" y1="100.2" x2="355.1" y2="86.9"/>
	<line class="st3" x1="1" y1="32.7" x2="213.3" y2="32.7"/>
	<line class="st3" x1="1" y1="100.5" x2="213.3" y2="100.5"/>
	<g>
		<path d="M3.1,23.5h1.3v4.7h2.3v1.1H3.1V23.5z"/>
		<path d="M7.4,27.1c0-1.4,1-2.3,2.1-2.3c1.3,0,1.9,0.9,1.9,2.1c0,0.2,0,0.5-0.1,0.6H8.6c0.1,0.6,0.6,0.9,1.2,0.9
			c0.3,0,0.6-0.1,1-0.3l0.4,0.8c-0.5,0.3-1.1,0.5-1.6,0.5C8.4,29.4,7.4,28.6,7.4,27.1z M10.3,26.6c0-0.5-0.2-0.8-0.7-0.8
			c-0.4,0-0.8,0.3-0.9,0.8H10.3z"/>
		<path d="M12.1,28.1c0-0.9,0.7-1.4,2.5-1.6c0-0.4-0.2-0.6-0.7-0.6c-0.4,0-0.7,0.2-1.2,0.4l-0.5-0.9c0.6-0.3,1.2-0.6,1.9-0.6
			c1.1,0,1.8,0.6,1.8,2v2.6h-1.1l-0.1-0.5l0,0c-0.4,0.3-0.8,0.6-1.3,0.6C12.6,29.4,12.1,28.8,12.1,28.1z M14.6,28v-0.8
			c-0.9,0.1-1.2,0.4-1.2,0.7s0.2,0.4,0.5,0.4C14.2,28.4,14.4,28.3,14.6,28z"/>
		<path d="M16.8,27.1c0-1.5,0.9-2.3,1.9-2.3c0.5,0,0.8,0.2,1.1,0.5l-0.1-0.7v-1.5H21v6.3h-1.1L19.8,29l0,0c-0.3,0.3-0.8,0.5-1.2,0.5
			C17.6,29.4,16.8,28.6,16.8,27.1z M19.7,28v-1.8c-0.2-0.2-0.5-0.3-0.7-0.3c-0.4,0-0.8,0.4-0.8,1.2c0,0.9,0.3,1.3,0.8,1.3
			C19.3,28.4,19.5,28.3,19.7,28z"/>
		<path d="M23.9,26.4c0-1.9,1.3-3.1,2.9-3.1c0.8,0,1.5,0.4,1.8,0.8l-0.7,0.8c-0.3-0.3-0.6-0.5-1.1-0.5c-0.9,0-1.5,0.7-1.5,1.9
			c0,1.2,0.5,1.9,1.6,1.9c0.2,0,0.5-0.1,0.6-0.2v-1h-1v-1.1h2.1v2.7c-0.4,0.4-1.1,0.7-1.9,0.7C25.1,29.4,23.9,28.4,23.9,26.4z"/>
		<path d="M29.8,27.9V23h1.3v5c0,0.3,0.1,0.4,0.2,0.4s0.1,0,0.2,0l0.2,1c-0.1,0.1-0.4,0.1-0.7,0.1C30.1,29.4,29.8,28.8,29.8,27.9z"
			/>
		<path d="M32.1,27.1c0-1.5,1-2.3,2.2-2.3c1.1,0,2.2,0.9,2.2,2.3s-1,2.3-2.2,2.3S32.1,28.6,32.1,27.1z M35.1,27.1
			c0-0.8-0.3-1.3-0.8-1.3s-0.8,0.5-0.8,1.3s0.3,1.3,0.8,1.3S35.1,27.9,35.1,27.1z"/>
		<path d="M38.5,28.9L38.5,28.9l-0.1,0.4h-1V23h1.3v1.5v0.7c0.3-0.3,0.8-0.5,1.2-0.5c1.1,0,1.8,0.9,1.8,2.3c0,1.5-0.9,2.4-1.9,2.4
			C39.3,29.4,38.9,29.2,38.5,28.9z M40.2,27c0-0.8-0.2-1.2-0.8-1.2c-0.3,0-0.5,0.1-0.8,0.4V28c0.2,0.2,0.5,0.3,0.7,0.3
			C39.8,28.4,40.2,28,40.2,27z"/>
		<path d="M42.3,28.1c0-0.9,0.7-1.4,2.5-1.6c0-0.4-0.2-0.6-0.7-0.6c-0.4,0-0.7,0.2-1.2,0.4l-0.5-1c0.6-0.3,1.2-0.6,1.9-0.6
			c1.1,0,1.8,0.6,1.8,2v2.6H45l-0.1-0.5l0,0c-0.4,0.3-0.8,0.6-1.3,0.6C42.8,29.4,42.3,28.8,42.3,28.1z M44.8,28v-0.8
			c-0.9,0.1-1.2,0.4-1.2,0.7s0.2,0.4,0.5,0.4C44.4,28.4,44.6,28.3,44.8,28z"/>
		<path d="M47.2,27.9V23h1.3v5c0,0.3,0.1,0.4,0.2,0.4c0.1,0,0.1,0,0.2,0l0.2,1c-0.1,0.1-0.4,0.1-0.7,0.1
			C47.5,29.4,47.2,28.8,47.2,27.9z"/>
		<path d="M51.7,23.5h2c1.2,0,2.2,0.3,2.2,1.5c0,0.5-0.3,1.1-0.8,1.3l0,0c0.6,0.2,1.1,0.6,1.1,1.4c0,1.2-1,1.7-2.3,1.7h-2.2V23.5z
			 M53.7,25.8c0.6,0,0.9-0.3,0.9-0.7c0-0.5-0.3-0.6-0.9-0.6h-0.6v1.3C53.1,25.8,53.7,25.8,53.7,25.8z M53.8,28.3
			c0.7,0,1.1-0.3,1.1-0.8s-0.4-0.7-1.1-0.7h-0.7v1.5H53.8z"/>
		<path d="M56.9,28.1c0-0.9,0.7-1.4,2.5-1.6c0-0.4-0.2-0.6-0.7-0.6c-0.4,0-0.7,0.2-1.2,0.4L57,25.4c0.6-0.3,1.2-0.6,1.9-0.6
			c1.1,0,1.8,0.6,1.8,2v2.6h-1.1l-0.1-0.5l0,0c-0.4,0.3-0.8,0.6-1.3,0.6C57.4,29.4,56.9,28.8,56.9,28.1z M59.4,28v-0.8
			c-0.9,0.1-1.2,0.4-1.2,0.7s0.2,0.4,0.5,0.4C58.9,28.4,59.1,28.3,59.4,28z"/>
		<path d="M61.8,27.9V23h1.3v5c0,0.3,0.1,0.4,0.2,0.4s0.1,0,0.2,0l0.2,1c-0.1,0.1-0.4,0.1-0.7,0.1C62.1,29.4,61.8,28.8,61.8,27.9z"
			/>
		<path d="M64.2,28.1c0-0.9,0.7-1.4,2.5-1.6c0-0.4-0.2-0.6-0.7-0.6c-0.4,0-0.7,0.2-1.2,0.4l-0.5-0.9c0.6-0.3,1.2-0.6,1.9-0.6
			c1.1,0,1.8,0.6,1.8,2v2.6h-1.1l-0.1-0.5l0,0c-0.4,0.3-0.8,0.6-1.3,0.6C64.7,29.4,64.2,28.8,64.2,28.1z M66.7,28v-0.8
			c-0.9,0.1-1.2,0.4-1.2,0.7s0.2,0.4,0.5,0.4C66.3,28.4,66.4,28.3,66.7,28z"/>
		<path d="M69.1,24.9h1.1l0.1,0.6l0,0c0.4-0.4,0.8-0.7,1.4-0.7c1,0,1.4,0.7,1.4,1.8v2.8h-1.3v-2.6c0-0.6-0.2-0.8-0.5-0.8
			s-0.5,0.2-0.8,0.4v3h-1.3L69.1,24.9L69.1,24.9z"/>
		<path d="M74,27.1c0-1.5,1.1-2.3,2.3-2.3c0.5,0,1,0.2,1.3,0.5L77,26.2c-0.2-0.2-0.4-0.3-0.6-0.3c-0.6,0-1,0.5-1,1.3s0.4,1.3,1,1.3
			c0.3,0,0.6-0.1,0.8-0.3l0.5,0.9c-0.4,0.4-1,0.5-1.5,0.5C75,29.4,74,28.6,74,27.1z"/>
		<path d="M78.2,27.1c0-1.4,1-2.3,2.1-2.3c1.3,0,1.9,0.9,1.9,2.1c0,0.2,0,0.5-0.1,0.6h-2.7c0.1,0.6,0.6,0.9,1.2,0.9
			c0.3,0,0.6-0.1,1-0.3l0.4,0.8c-0.5,0.3-1.1,0.5-1.6,0.5C79.2,29.4,78.2,28.6,78.2,27.1z M81.1,26.6c0-0.5-0.2-0.8-0.7-0.8
			c-0.4,0-0.8,0.3-0.9,0.8H81.1z"/>
		<path d="M84.8,23.5c0-0.4,0.3-0.7,0.7-0.7s0.7,0.3,0.7,0.7c0,0.4-0.3,0.7-0.7,0.7S84.8,23.9,84.8,23.5z M84.9,24.9h1.3v4.5h-1.3
			V24.9z"/>
		<path d="M87.4,24.9h1.1l0.1,0.6l0,0c0.4-0.4,0.8-0.7,1.4-0.7c1,0,1.4,0.7,1.4,1.8v2.8h-1.3v-2.6c0-0.6-0.2-0.8-0.5-0.8
			s-0.5,0.2-0.8,0.4v3h-1.4C87.4,29.4,87.4,24.9,87.4,24.9z"/>
		<path d="M94.5,23.5h1.3v2.4l0,0l1.7-2.4H99l-1.8,2.3l2.1,3.5h-1.5l-1.4-2.5l-0.7,0.9v1.6h-1.3L94.5,23.5L94.5,23.5z"/>
		<path d="M101.1,24.6h-1.6v-1.1h4.6v1.1h-1.6v4.8h-1.3L101.1,24.6L101.1,24.6z"/>
	</g>
	<g>
		<path class="st1" d="M252.4,26.4c0-1.9,1.3-3.1,2.8-3.1c0.8,0,1.4,0.4,1.8,0.8l-0.7,0.8c-0.3-0.3-0.6-0.5-1-0.5
			c-0.8,0-1.4,0.7-1.4,1.9c0,1.2,0.6,1.9,1.4,1.9c0.5,0,0.9-0.2,1.1-0.5l0.7,0.8c-0.5,0.6-1.1,0.9-1.9,0.9
			C253.7,29.4,252.4,28.4,252.4,26.4z"/>
		<path class="st1" d="M258.9,27.2l-1.8-3.8h1.4l0.5,1.4c0.2,0.4,0.3,0.8,0.5,1.3l0,0c0.2-0.5,0.3-0.9,0.5-1.3l0.5-1.4h1.4l-1.8,3.8
			v2.1h-1.3L258.9,27.2L258.9,27.2z"/>
		<path class="st1" d="M264.1,28.6c1.5-1.4,2.5-2.4,2.5-3.2c0-0.6-0.3-0.9-0.8-0.9c-0.4,0-0.7,0.3-1,0.6l-0.7-0.7
			c0.6-0.6,1.1-0.9,1.9-0.9c1.1,0,1.9,0.7,1.9,1.8c0,1-0.9,2-1.8,3c0.3,0,0.7-0.1,1-0.1h1.2v1.1h-4v-0.7
			C264.3,28.6,264.1,28.6,264.1,28.6z"/>
		<path class="st1" d="M268.8,26.5c0-1.9,0.8-2.9,2-2.9s2,1,2,2.9s-0.8,3-2,3S268.8,28.4,268.8,26.5z M271.7,26.5
			c0-1.6-0.3-1.9-0.8-1.9c-0.4,0-0.8,0.4-0.8,1.9c0,1.6,0.4,2,0.8,2C271.3,28.4,271.7,28,271.7,26.5z"/>
		<path class="st1" d="M273.9,28.3h1.2V25H274v-0.8c0.6-0.1,1-0.3,1.4-0.5h1v4.6h1.1v1.1h-3.6V28.3z"/>
		<path class="st1" d="M281,24.7h-2.6v-1.1h4v0.8c-1.3,1.6-1.5,2.7-1.6,4.9h-1.4C279.6,27.4,279.9,26.2,281,24.7z"/>
	</g>
	<g>
		<path class="st1" d="M323.3,26.4c0-1.9,1.3-3.1,2.8-3.1c0.8,0,1.4,0.4,1.8,0.8l-0.7,0.8c-0.3-0.3-0.6-0.5-1-0.5
			c-0.8,0-1.4,0.7-1.4,1.9c0,1.2,0.6,1.9,1.4,1.9c0.5,0,0.9-0.2,1.1-0.5l0.7,0.8c-0.5,0.6-1.1,0.9-1.9,0.9
			C324.5,29.4,323.3,28.4,323.3,26.4z"/>
		<path class="st1" d="M329.8,27.2l-1.8-3.8h1.4l0.5,1.4c0.2,0.4,0.3,0.8,0.5,1.3l0,0c0.2-0.5,0.3-0.9,0.5-1.3l0.5-1.4h1.4l-1.8,3.8
			v2.1h-1.3L329.8,27.2L329.8,27.2z"/>
		<path class="st1" d="M335,28.6c1.4-1.4,2.4-2.4,2.4-3.2c0-0.6-0.3-0.9-0.8-0.9c-0.4,0-0.7,0.3-1,0.6l-0.7-0.7
			c0.6-0.6,1.1-0.9,1.9-0.9c1.1,0,1.9,0.7,1.9,1.8c0,1-0.9,2-1.8,3c0.3,0,0.7-0.1,1-0.1h1.2v1.1h-4v-0.7
			C335.1,28.6,335,28.6,335,28.6z"/>
		<path class="st1" d="M339.7,26.5c0-1.9,0.8-2.9,2-2.9s2,1,2,2.9s-0.8,3-2,3C340.5,29.4,339.7,28.4,339.7,26.5z M342.5,26.5
			c0-1.6-0.3-1.9-0.8-1.9c-0.4,0-0.8,0.4-0.8,1.9c0,1.6,0.4,2,0.8,2C342.2,28.4,342.5,28,342.5,26.5z"/>
		<path class="st1" d="M344.8,28.3h1.2V25h-1.1v-0.8c0.6-0.1,1-0.3,1.4-0.5h1v4.6h1.1v1.1h-3.6V28.3z"/>
		<path class="st1" d="M349.3,27.9c0-0.7,0.4-1.1,1-1.4l0,0c-0.4-0.3-0.8-0.7-0.8-1.4c0-1,0.8-1.6,1.8-1.6s1.7,0.6,1.7,1.6
			c0,0.5-0.4,1-0.7,1.3l0,0c0.5,0.3,1,0.7,1,1.5c0,0.9-0.8,1.6-2,1.6C350.1,29.4,349.3,28.8,349.3,27.9z M352,27.8
			c0-0.5-0.5-0.7-1.2-1c-0.3,0.2-0.4,0.6-0.4,0.9c0,0.5,0.4,0.8,0.9,0.8C351.7,28.5,352,28.3,352,27.8z M352,25.2
			c0-0.4-0.3-0.7-0.7-0.7c-0.4,0-0.6,0.2-0.6,0.7s0.4,0.7,1,0.9C351.8,25.7,352,25.5,352,25.2z"/>
	</g>
	<g>
		<path class="st1" d="M387.4,26.4c0-1.9,1.3-3.1,2.8-3.1c0.8,0,1.4,0.4,1.8,0.8l-0.7,0.8c-0.3-0.3-0.6-0.5-1-0.5
			c-0.8,0-1.4,0.7-1.4,1.9c0,1.2,0.6,1.9,1.4,1.9c0.5,0,0.9-0.2,1.1-0.5l0.7,0.8c-0.5,0.6-1.1,0.9-1.9,0.9
			C388.7,29.4,387.4,28.4,387.4,26.4z"/>
		<path class="st1" d="M393.9,27.2l-1.8-3.8h1.4l0.5,1.4c0.2,0.4,0.3,0.8,0.5,1.3l0,0c0.2-0.5,0.3-0.9,0.5-1.3l0.5-1.4h1.4l-1.8,3.8
			v2.1h-1.3L393.9,27.2L393.9,27.2z"/>
		<path class="st1" d="M399.1,28.6c1.5-1.4,2.5-2.4,2.5-3.2c0-0.6-0.3-0.9-0.8-0.9c-0.4,0-0.7,0.3-1,0.6l-0.7-0.7
			c0.6-0.6,1.1-0.9,1.9-0.9c1.1,0,1.9,0.7,1.9,1.8c0,1-0.9,2-1.8,3c0.3,0,0.7-0.1,1-0.1h1.2v1.1h-4v-0.7
			C399.3,28.6,399.1,28.6,399.1,28.6z"/>
		<path class="st1" d="M403.8,26.5c0-1.9,0.8-2.9,2-2.9s2,1,2,2.9s-0.8,3-2,3S403.8,28.4,403.8,26.5z M406.7,26.5
			c0-1.6-0.3-1.9-0.8-1.9c-0.4,0-0.8,0.4-0.8,1.9c0,1.6,0.4,2,0.8,2C406.3,28.4,406.7,28,406.7,26.5z"/>
		<path class="st1" d="M408.9,28.3h1.2V25H409v-0.8c0.6-0.1,1-0.3,1.4-0.5h1v4.6h1.1v1.1h-3.6V28.3z"/>
		<path class="st1" d="M413.4,28.8l0.7-0.8c0.2,0.2,0.5,0.4,0.9,0.4c0.6,0,1.1-0.5,1.2-1.8c-0.3,0.4-0.8,0.6-1.1,0.6
			c-1,0-1.7-0.6-1.7-1.8s0.9-1.9,1.9-1.9c1.1,0,2.2,0.8,2.2,2.8c0,2.1-1.1,3.1-2.3,3.1C414.3,29.4,413.8,29.1,413.4,28.8z
			 M415.3,26.3c0.3,0,0.6-0.2,0.9-0.6c-0.1-0.9-0.5-1.2-0.9-1.2s-0.7,0.3-0.7,0.9C414.5,26,414.9,26.3,415.3,26.3z"/>
		<path class="st1" d="M420.3,23.5h3.7v1.1h-2.3v1.2h2v1.1h-2v1.3h2.4v1.1h-3.8L420.3,23.5L420.3,23.5z"/>
	</g>
	<g>
		<path class="st1" d="M458.3,26.4c0-1.9,1.3-3.1,2.8-3.1c0.8,0,1.4,0.4,1.8,0.8l-0.7,0.8c-0.3-0.3-0.6-0.5-1-0.5
			c-0.8,0-1.4,0.7-1.4,1.9c0,1.2,0.6,1.9,1.4,1.9c0.5,0,0.9-0.2,1.1-0.5l0.7,0.8c-0.5,0.6-1.1,0.9-1.9,0.9
			C459.5,29.4,458.3,28.4,458.3,26.4z"/>
		<path class="st1" d="M464.8,27.2l-1.8-3.8h1.4l0.5,1.4c0.2,0.4,0.3,0.8,0.5,1.3l0,0c0.2-0.5,0.3-0.9,0.5-1.3l0.5-1.4h1.4l-1.8,3.8
			v2.1h-1.3L464.8,27.2L464.8,27.2z"/>
		<path class="st1" d="M470,28.6c1.4-1.4,2.4-2.4,2.4-3.2c0-0.6-0.3-0.9-0.8-0.9c-0.4,0-0.7,0.3-1,0.6l-0.7-0.7
			c0.6-0.6,1.1-0.9,1.9-0.9c1.1,0,1.9,0.7,1.9,1.8c0,1-0.9,2-1.8,3c0.3,0,0.7-0.1,1-0.1h1.2v1.1h-4v-0.7
			C470.1,28.6,470,28.6,470,28.6z"/>
		<path class="st1" d="M474.7,26.5c0-1.9,0.8-2.9,2-2.9s2,1,2,2.9s-0.8,3-2,3C475.5,29.4,474.7,28.4,474.7,26.5z M477.5,26.5
			c0-1.6-0.3-1.9-0.8-1.9c-0.4,0-0.8,0.4-0.8,1.9c0,1.6,0.4,2,0.8,2C477.2,28.4,477.5,28,477.5,26.5z"/>
		<path class="st1" d="M479.5,28.6c1.5-1.4,2.5-2.4,2.5-3.2c0-0.6-0.3-0.9-0.8-0.9c-0.4,0-0.7,0.3-1,0.6l-0.7-0.7
			c0.6-0.6,1.1-0.9,1.9-0.9c1.1,0,1.9,0.7,1.9,1.8c0,1-0.9,2-1.8,3c0.3,0,0.7-0.1,1-0.1h1.2v1.1h-4v-0.7
			C479.7,28.6,479.5,28.6,479.5,28.6z"/>
		<path class="st1" d="M484.2,26.5c0-1.9,0.8-2.9,2-2.9s2,1,2,2.9s-0.8,3-2,3C485,29.4,484.2,28.4,484.2,26.5z M487.1,26.5
			c0-1.6-0.3-1.9-0.8-1.9c-0.4,0-0.8,0.4-0.8,1.9c0,1.6,0.4,2,0.8,2C486.7,28.4,487.1,28,487.1,26.5z"/>
		<path class="st1" d="M491.1,23.5h3.7v1.1h-2.3v1.2h2v1.1h-2v1.3h2.4v1.1h-3.8L491.1,23.5L491.1,23.5z"/>
	</g>
	<g>
		<path d="M3.3,37h0.6l1.2,3.5c0.2,0.4,0.3,0.9,0.5,1.3l0,0c0.2-0.4,0.3-0.9,0.5-1.3L7.3,37h0.6v5.9H7.5V39c0-0.5,0-1.1,0.1-1.6l0,0
			l-0.5,1.3l-1.3,3.5H5.4l-1.3-3.5l-0.5-1.3l0,0c0,0.5,0.1,1.1,0.1,1.6v3.9H3.3V37z"/>
		<path d="M9.5,37.2c0-0.2,0.1-0.4,0.3-0.4s0.3,0.1,0.3,0.4c0,0.2-0.1,0.4-0.3,0.4S9.5,37.4,9.5,37.2z M9.6,38.6H10v4.3H9.6V38.6z"
			/>
		<path d="M11.7,38.6H12v0.7l0,0c0.4-0.4,0.9-0.8,1.5-0.8c0.9,0,1.3,0.5,1.3,1.7V43h-0.4v-2.8c0-0.9-0.3-1.4-1-1.4
			c-0.5,0-0.9,0.3-1.4,0.8v3.3h-0.4L11.7,38.6L11.7,38.6z"/>
		<path d="M16.1,40.7c0-1.4,0.9-2.3,1.9-2.3s1.7,0.7,1.7,2c0,0.1,0,0.2,0,0.3h-3.1c0,1.1,0.7,1.9,1.6,1.9c0.5,0,0.8-0.2,1.2-0.4
			l0.2,0.3c-0.3,0.2-0.7,0.4-1.4,0.4C17,43,16.1,42.1,16.1,40.7z M19.3,40.5c0-1.1-0.5-1.7-1.3-1.7c-0.7,0-1.4,0.6-1.5,1.7H19.3z"/>
		<path d="M22.6,37h1.5c1.3,0,2.2,0.4,2.2,1.7c0,1.2-0.8,1.7-2.1,1.7h-1.1v2.5h-0.4V37H22.6z M24.1,40c1.2,0,1.8-0.4,1.8-1.4
			s-0.6-1.3-1.8-1.3h-1V40H24.1z"/>
		<path d="M27.5,38.6h0.3v0.8l0,0c0.3-0.5,0.7-0.9,1.2-0.9c0.2,0,0.3,0,0.4,0.1L29.3,39c-0.1-0.1-0.2-0.1-0.4-0.1
			c-0.4,0-0.8,0.3-1.2,1.1v2.9h-0.4v-4.3H27.5z"/>
		<path d="M30,40.7c0-1.4,0.9-2.3,1.9-2.3c1,0,1.9,0.8,1.9,2.3c0,1.4-0.9,2.3-1.9,2.3C30.9,43,30,42.2,30,40.7z M33.5,40.7
			c0-1.1-0.7-1.9-1.5-1.9c-0.9,0-1.5,0.8-1.5,1.9c0,1.1,0.6,1.9,1.5,1.9C32.8,42.6,33.5,41.9,33.5,40.7z"/>
		<path d="M34.8,40.7c0-1.4,0.9-2.3,1.9-2.3c0.5,0,0.9,0.2,1.3,0.5v-0.8v-1.8h0.4v6.5h-0.3v-0.6l0,0c-0.4,0.4-0.8,0.7-1.4,0.7
			C35.6,43,34.8,42.2,34.8,40.7z M38.1,41.9v-2.6c-0.5-0.4-0.8-0.6-1.3-0.6c-0.9,0-1.5,0.8-1.5,1.9c0,1.1,0.5,1.9,1.4,1.9
			C37.2,42.6,37.6,42.4,38.1,41.9z"/>
		<path d="M40,41.3v-2.8h0.4v2.7c0,0.9,0.3,1.4,1,1.4c0.5,0,0.9-0.3,1.4-0.9v-3.2h0.4v4.3h-0.3v-0.7l0,0c-0.4,0.5-0.9,0.8-1.5,0.8
			C40.5,43,40,42.5,40,41.3z"/>
		<path d="M44.5,40.7c0-1.4,0.9-2.3,2-2.3c0.6,0,1,0.3,1.3,0.5l-0.2,0.3c-0.3-0.3-0.6-0.5-1-0.5c-0.9,0-1.6,0.8-1.6,1.9
			c0,1.1,0.6,1.9,1.6,1.9c0.5,0,0.9-0.2,1.2-0.5l0.2,0.3c-0.4,0.3-0.8,0.6-1.4,0.6C45.4,43,44.5,42.2,44.5,40.7z"/>
		<path d="M49,41.7v-2.8h-0.7v-0.3H49l0.1-1.3h0.3v1.3h1.3v0.3h-1.3v2.8c0,0.5,0.1,0.9,0.7,0.9c0.2,0,0.4-0.1,0.5-0.1l0.1,0.3
			C50.4,42.9,50.2,43,50,43C49.2,43,49,42.5,49,41.7z"/>
		<path d="M51.6,37.2c0-0.2,0.1-0.4,0.3-0.4s0.3,0.1,0.3,0.4c0,0.2-0.1,0.4-0.3,0.4S51.6,37.4,51.6,37.2z M51.7,38.6h0.4v4.3h-0.4
			V38.6z"/>
		<path d="M53.4,40.7c0-1.4,0.9-2.3,1.9-2.3s1.9,0.8,1.9,2.3c0,1.4-0.9,2.3-1.9,2.3S53.4,42.2,53.4,40.7z M56.9,40.7
			c0-1.1-0.7-1.9-1.5-1.9c-0.9,0-1.5,0.8-1.5,1.9c0,1.1,0.6,1.9,1.5,1.9C56.2,42.6,56.9,41.9,56.9,40.7z"/>
		<path d="M58.6,38.6h0.3v0.7l0,0c0.4-0.4,0.9-0.8,1.5-0.8c0.9,0,1.3,0.5,1.3,1.7V43h-0.3v-2.8c0-0.9-0.3-1.4-1-1.4
			c-0.5,0-0.9,0.3-1.4,0.8v3.3h-0.4C58.6,42.9,58.6,38.6,58.6,38.6z"/>
	</g>
	<g>
		<path d="M263.8,42.2l0.2-0.3c0.3,0.4,0.8,0.7,1.6,0.7c0.8,0,1.4-0.6,1.4-1.5s-0.5-1.5-1.4-1.5c-0.4,0-0.7,0.2-1.1,0.4l-0.3-0.2
			l0.2-2.7h2.7v0.4h-2.3l-0.2,2.1c0.3-0.2,0.6-0.3,1-0.3c1,0,1.8,0.6,1.8,1.8s-0.9,1.9-1.8,1.9C264.7,43,264.2,42.6,263.8,42.2z"/>
		<path d="M268.3,44c0.4-0.2,0.7-0.6,0.7-1.1h-0.1c-0.2,0-0.4-0.1-0.4-0.4s0.2-0.4,0.4-0.4c0.3,0,0.5,0.2,0.5,0.6
			c0,0.7-0.4,1.2-0.9,1.5L268.3,44z"/>
		<path d="M270.2,42.6c1.9-1.9,2.8-3,2.8-4c0-0.7-0.4-1.3-1.3-1.3c-0.5,0-1,0.3-1.3,0.8l-0.3-0.3c0.4-0.5,0.9-0.8,1.6-0.8
			c1,0,1.6,0.6,1.6,1.6c0,1.1-1,2.2-2.6,3.9c0.3,0,0.6,0,1,0h2v0.4h-3.5L270.2,42.6L270.2,42.6z"/>
		<path d="M274.5,41.4c0-0.8,0.6-1.3,1.2-1.6l0,0c-0.4-0.3-0.8-0.7-0.8-1.3c0-0.8,0.7-1.4,1.5-1.4c1,0,1.6,0.6,1.6,1.5
			c0,0.6-0.5,1.2-0.8,1.5l0,0c0.5,0.3,1,0.7,1,1.5s-0.7,1.5-1.7,1.5C275.3,43,274.5,42.3,274.5,41.4z M277.7,41.5
			c0-0.9-0.9-1.2-1.8-1.5c-0.6,0.3-1,0.8-1,1.5s0.6,1.3,1.4,1.3C277.1,42.7,277.7,42.1,277.7,41.5z M277.5,38.5
			c0-0.6-0.4-1.2-1.2-1.2c-0.6,0-1.1,0.5-1.1,1.1c0,0.8,0.8,1.1,1.5,1.4C277.2,39.5,277.5,39,277.5,38.5z"/>
		<path d="M279.2,42.5h1.4v-4.8h-1v-0.3c0.5-0.1,0.8-0.2,1.1-0.4h0.3v5.4h1.3v0.4h-3L279.2,42.5L279.2,42.5z"/>
	</g>
	<g>
		<path d="M334.7,42.2l0.2-0.3c0.3,0.4,0.8,0.7,1.6,0.7c0.8,0,1.4-0.6,1.4-1.5s-0.5-1.5-1.4-1.5c-0.4,0-0.7,0.2-1.1,0.4l-0.3-0.2
			l0.2-2.7h2.7v0.4h-2.3l-0.2,2.1c0.3-0.2,0.6-0.3,1-0.3c1,0,1.8,0.6,1.8,1.8s-0.9,1.9-1.8,1.9C335.5,43,335,42.6,334.7,42.2z"/>
		<path d="M339.2,44c0.4-0.2,0.7-0.6,0.7-1.1h-0.1c-0.2,0-0.4-0.1-0.4-0.4s0.2-0.4,0.4-0.4c0.3,0,0.5,0.2,0.5,0.6
			c0,0.7-0.4,1.2-0.9,1.5L339.2,44z"/>
		<path d="M341.1,42.6c1.9-1.9,2.8-3,2.8-4c0-0.7-0.4-1.3-1.3-1.3c-0.5,0-1,0.3-1.3,0.8l-0.3-0.3c0.4-0.5,0.9-0.8,1.6-0.8
			c1,0,1.6,0.6,1.6,1.6c0,1.1-1,2.2-2.6,3.9c0.3,0,0.6,0,1,0h2v0.4h-3.5V42.6L341.1,42.6z"/>
		<path d="M345.8,42.5h1.4v-4.8h-1v-0.3c0.5-0.1,0.8-0.2,1.1-0.4h0.3v5.4h1.3v0.4h-3L345.8,42.5L345.8,42.5z"/>
		<path d="M352.8,37.5h-3v-0.4h3.5v0.2c-1.4,1.8-1.7,3.3-1.8,5.5h-0.4C351.1,40.6,351.6,39.1,352.8,37.5z"/>
	</g>
	<g>
		<path d="M405.5,42.2l0.2-0.3c0.3,0.4,0.8,0.7,1.6,0.7c0.8,0,1.4-0.6,1.4-1.5s-0.5-1.5-1.4-1.5c-0.4,0-0.7,0.2-1.1,0.4l-0.3-0.2
			l0.2-2.7h2.7v0.4h-2.3l-0.2,2.1c0.3-0.2,0.6-0.3,1-0.3c1,0,1.8,0.6,1.8,1.8s-0.9,1.9-1.8,1.9C406.4,43,405.9,42.6,405.5,42.2z"/>
		<path d="M410,44c0.4-0.2,0.7-0.6,0.7-1.1h-0.1c-0.2,0-0.4-0.1-0.4-0.4s0.2-0.4,0.4-0.4c0.3,0,0.5,0.2,0.5,0.6
			c0,0.7-0.4,1.2-0.9,1.5L410,44z"/>
		<path d="M414.4,41.2h-2.6V41l2.7-3.8h0.4v3.7h0.9v0.3h-0.9v1.7h-0.5V41.2z M414.4,40.8v-2.1c0-0.3,0-0.7,0-1l0,0
			c-0.1,0.2-0.3,0.5-0.5,0.7l-1.7,2.4C412.2,40.8,414.4,40.8,414.4,40.8z"/>
		<path d="M416.2,41.4c0-0.8,0.6-1.3,1.2-1.6l0,0c-0.4-0.3-0.8-0.7-0.8-1.3c0-0.8,0.7-1.4,1.5-1.4c1,0,1.6,0.6,1.6,1.5
			c0,0.6-0.5,1.2-0.8,1.5l0,0c0.5,0.3,1,0.7,1,1.5s-0.7,1.5-1.7,1.5C417,43,416.2,42.3,416.2,41.4z M419.4,41.5
			c0-0.9-0.9-1.2-1.8-1.5c-0.6,0.3-1,0.8-1,1.5s0.6,1.3,1.4,1.3C418.9,42.7,419.4,42.1,419.4,41.5z M419.2,38.5
			c0-0.6-0.4-1.2-1.2-1.2c-0.6,0-1.1,0.5-1.1,1.1c0,0.8,0.8,1.1,1.5,1.4C419,39.5,419.2,39,419.2,38.5z"/>
		<path d="M420.7,42.4l0.2-0.3c0.3,0.3,0.6,0.5,1,0.5c0.9,0,1.7-0.7,1.7-2.8c-0.4,0.5-0.9,0.8-1.5,0.8c-1,0-1.6-0.6-1.6-1.8
			c0-1,0.7-1.8,1.6-1.8c1.1,0,1.9,1,1.9,2.7c0,2.4-1,3.3-2.1,3.3C421.4,43,421,42.8,420.7,42.4z M422.2,40.3c0.4,0,1-0.3,1.4-0.9
			c-0.1-1.2-0.5-2-1.5-2c-0.7,0-1.2,0.6-1.2,1.4C421,39.7,421.3,40.3,422.2,40.3z"/>
	</g>
	<g>
		<path d="M476.4,42.2l0.2-0.3c0.3,0.4,0.8,0.7,1.6,0.7c0.8,0,1.4-0.6,1.4-1.5s-0.5-1.5-1.4-1.5c-0.4,0-0.7,0.2-1.1,0.4l-0.3-0.2
			l0.2-2.7h2.7v0.4h-2.3l-0.2,2.1c0.3-0.2,0.6-0.3,1-0.3c1,0,1.8,0.6,1.8,1.8s-0.9,1.9-1.8,1.9C477.3,43,476.8,42.6,476.4,42.2z"/>
		<path d="M480.9,44c0.4-0.2,0.7-0.6,0.7-1.1h-0.1c-0.2,0-0.4-0.1-0.4-0.4s0.2-0.4,0.4-0.4c0.3,0,0.5,0.2,0.5,0.6
			c0,0.7-0.4,1.2-0.9,1.5L480.9,44z"/>
		<path d="M482.9,40.3c0-2.4,1-3.3,2.1-3.3c0.5,0,0.9,0.2,1.2,0.6l-0.2,0.3c-0.3-0.3-0.6-0.5-1-0.5c-0.9,0-1.7,0.7-1.7,2.8
			c0.4-0.5,0.9-0.8,1.4-0.8c1,0,1.6,0.6,1.6,1.8c0,1-0.7,1.8-1.6,1.8C483.6,43,482.9,42,482.9,40.3z M483.3,40.6
			c0.1,1.2,0.5,2,1.5,2c0.7,0,1.2-0.6,1.2-1.5s-0.4-1.4-1.2-1.4C484.3,39.8,483.8,40,483.3,40.6z"/>
		<path d="M490.2,37.5h-3v-0.4h3.5v0.2c-1.4,1.8-1.7,3.3-1.8,5.5h-0.5C488.5,40.6,489,39.1,490.2,37.5z"/>
		<path d="M491.3,42.2l0.2-0.3c0.3,0.4,0.8,0.7,1.6,0.7c0.8,0,1.4-0.6,1.4-1.5s-0.5-1.5-1.4-1.5c-0.4,0-0.7,0.2-1.1,0.4l-0.3-0.2
			l0.2-2.7h2.7v0.4h-2.3l-0.2,2.1c0.3-0.2,0.6-0.3,1-0.3c1,0,1.8,0.6,1.8,1.8S494,43,493.1,43C492.2,43,491.7,42.6,491.3,42.2z"/>
	</g>
	<g>
		<path d="M3.3,50.5h1.5c1.3,0,2.2,0.4,2.2,1.7c0,1.2-0.8,1.7-2.1,1.7H3.7v2.5H3.3V50.5z M4.7,53.5c1.2,0,1.8-0.4,1.8-1.4
			s-0.6-1.3-1.8-1.3h-1v2.7H4.7z"/>
		<path d="M8.2,52.1h0.3v0.8l0,0C8.8,52.4,9.2,52,9.7,52c0.2,0,0.3,0,0.4,0.1L10,52.5c-0.1-0.1-0.2-0.1-0.4-0.1
			c-0.4,0-0.8,0.3-1.2,1.1v2.9H8v-4.3C8,52.1,8.2,52.1,8.2,52.1z"/>
		<path d="M10.7,54.3c0-1.4,0.9-2.3,1.9-2.3s1.9,0.8,1.9,2.3c0,1.4-0.9,2.3-1.9,2.3C11.6,56.5,10.7,55.7,10.7,54.3z M14.2,54.3
			c0-1.1-0.7-1.9-1.5-1.9c-0.9,0-1.5,0.8-1.5,1.9c0,1.1,0.6,1.9,1.5,1.9C13.5,56.2,14.2,55.4,14.2,54.3z"/>
		<path d="M15.5,54.3c0-1.4,0.9-2.3,1.9-2.3c0.5,0,0.9,0.2,1.3,0.5v-0.8v-1.8h0.4v6.5h-0.3v-0.6l0,0c-0.4,0.4-0.8,0.7-1.4,0.7
			C16.2,56.5,15.5,55.7,15.5,54.3z M18.7,55.5v-2.6c-0.5-0.4-0.8-0.6-1.3-0.6c-0.9,0-1.5,0.8-1.5,1.9c0,1.1,0.5,1.9,1.4,1.9
			C17.8,56.2,18.2,55.9,18.7,55.5z"/>
		<path d="M20.7,54.9v-2.8h0.4v2.7c0,0.9,0.3,1.4,1,1.4c0.5,0,0.9-0.3,1.4-0.9v-3.2h0.4v4.3h-0.3v-0.7l0,0c-0.4,0.5-0.9,0.8-1.5,0.8
			C21.1,56.5,20.7,56,20.7,54.9z"/>
		<path d="M25.2,54.3c0-1.4,0.9-2.3,2-2.3c0.6,0,1,0.3,1.3,0.5l-0.2,0.3c-0.3-0.3-0.6-0.5-1-0.5c-0.9,0-1.6,0.8-1.6,1.9
			c0,1.1,0.6,1.9,1.6,1.9c0.5,0,0.9-0.2,1.2-0.5l0.2,0.3c-0.4,0.3-0.8,0.6-1.4,0.6C26,56.5,25.2,55.7,25.2,54.3z"/>
		<path d="M29.7,55.2v-2.8H29v-0.2h0.7l0.1-1.3h0.3v1.3h1.3v0.3h-1.3v2.8c0,0.5,0.1,0.9,0.7,0.9c0.2,0,0.4-0.1,0.5-0.1l0.1,0.3
			c-0.3,0.1-0.5,0.2-0.7,0.2C29.9,56.5,29.7,56,29.7,55.2z"/>
		<path d="M32.2,50.7c0-0.2,0.1-0.4,0.3-0.4s0.3,0.1,0.3,0.4c0,0.2-0.1,0.4-0.3,0.4S32.2,50.9,32.2,50.7z M32.4,52.1h0.4v4.3h-0.4
			V52.1z"/>
		<path d="M34.1,54.3c0-1.4,0.9-2.3,1.9-2.3s1.9,0.8,1.9,2.3c0,1.4-0.9,2.3-1.9,2.3C35,56.5,34.1,55.7,34.1,54.3z M37.5,54.3
			c0-1.1-0.7-1.9-1.5-1.9c-0.9,0-1.5,0.8-1.5,1.9c0,1.1,0.6,1.9,1.5,1.9S37.5,55.4,37.5,54.3z"/>
		<path d="M39.2,52.1h0.3v0.7l0,0c0.4-0.4,0.9-0.8,1.5-0.8c0.9,0,1.3,0.5,1.3,1.7v2.8h-0.4v-2.7c0-0.9-0.3-1.4-1-1.4
			c-0.5,0-0.9,0.3-1.4,0.8v3.3h-0.4v-4.4C39.1,52.1,39.2,52.1,39.2,52.1z"/>
		<path d="M45.5,55.4c0-1,0.9-1.4,2.8-1.6c0-0.7-0.2-1.4-1-1.4c-0.6,0-1.1,0.3-1.4,0.5l-0.2-0.3c0.3-0.2,0.9-0.6,1.6-0.6
			c1,0,1.4,0.7,1.4,1.7v2.8h-0.3v-0.6l0,0c-0.4,0.4-1,0.7-1.5,0.7C46.1,56.5,45.5,56.2,45.5,55.4z M48.3,55.5V54
			c-1.8,0.2-2.4,0.6-2.4,1.3c0,0.6,0.4,0.9,0.9,0.9S47.8,56,48.3,55.5z"/>
		<path d="M50.3,55.2v-2.8h-0.7v-0.2h0.7l0.1-1.3h0.3v1.3H52v0.3h-1.3v2.8c0,0.5,0.1,0.9,0.7,0.9c0.2,0,0.4-0.1,0.5-0.1l0.1,0.3
			c-0.3,0.1-0.5,0.2-0.7,0.2C50.6,56.5,50.3,56,50.3,55.2z"/>
		<path d="M54.9,52.1h0.3v0.5l0,0c0.4-0.3,0.9-0.6,1.5-0.6c1.2,0,1.7,0.9,1.7,2.2c0,1.5-0.9,2.3-1.9,2.3c-0.4,0-0.8-0.2-1.3-0.5v2.4
			h-0.4v-6.3C54.8,52.1,54.9,52.1,54.9,52.1z M58,54.2c0-1.1-0.4-1.9-1.4-1.9c-0.4,0-0.9,0.3-1.4,0.7v2.6c0.5,0.4,0.9,0.6,1.3,0.6
			C57.4,56.2,58,55.4,58,54.2z"/>
		<path d="M59.8,52.1h0.3v0.8l0,0c0.3-0.5,0.7-0.9,1.2-0.9c0.2,0,0.3,0,0.4,0.1l-0.1,0.4c-0.1-0.1-0.2-0.1-0.4-0.1
			c-0.4,0-0.8,0.3-1.2,1.1v2.9h-0.4v-4.3H59.8z"/>
		<path d="M62.5,50.7c0-0.2,0.1-0.4,0.3-0.4s0.3,0.1,0.3,0.4c0,0.2-0.1,0.4-0.3,0.4S62.5,50.9,62.5,50.7z M62.6,52.1H63v4.3h-0.4
			V52.1z"/>
		<path d="M64.7,52.1H65v0.7l0,0c0.4-0.4,0.9-0.8,1.4-0.8c0.7,0,1,0.4,1.2,0.9c0.5-0.5,1-0.9,1.5-0.9c0.9,0,1.3,0.5,1.3,1.7v2.8H70
			v-2.7c0-0.9-0.3-1.4-1-1.4c-0.4,0-0.8,0.3-1.3,0.8v3.3h-0.4v-2.7c0-0.9-0.3-1.4-1-1.4c-0.4,0-0.8,0.3-1.3,0.8v3.3h-0.4v-4.4
			C64.6,52.1,64.7,52.1,64.7,52.1z"/>
		<path d="M71.7,55.4c0-1,0.9-1.4,2.8-1.6c0-0.7-0.2-1.4-1-1.4c-0.6,0-1.1,0.3-1.4,0.5l-0.2-0.3c0.3-0.2,0.9-0.6,1.6-0.6
			c1,0,1.4,0.7,1.4,1.7v2.8h-0.3v-0.6l0,0c-0.4,0.4-1,0.7-1.5,0.7C72.2,56.5,71.7,56.2,71.7,55.4z M74.5,55.5V54
			c-1.8,0.2-2.4,0.6-2.4,1.3c0,0.6,0.4,0.9,0.9,0.9S73.9,56,74.5,55.5z"/>
		<path d="M76.4,52.1h0.3v0.8l0,0c0.3-0.5,0.7-0.9,1.2-0.9c0.2,0,0.3,0,0.4,0.1l0.1,0.4c-0.1-0.1-0.2-0.1-0.4-0.1
			c-0.4,0-0.8,0.3-1.2,1.1v2.9h-0.4V52.1z"/>
		<path d="M78.6,58.3l0.1-0.4c0.1,0,0.2,0.1,0.4,0.1c0.5,0,0.9-0.5,1.1-1.1l0.1-0.4l-1.8-4.4h0.4l1,2.7c0.1,0.4,0.3,0.8,0.5,1.2l0,0
			c0.1-0.4,0.3-0.8,0.4-1.2l0.9-2.7h0.4L80.4,57c-0.2,0.7-0.7,1.4-1.4,1.4C78.9,58.4,78.8,58.4,78.6,58.3z"/>
		<path d="M84.4,56l0.2-0.3c0.4,0.3,0.8,0.5,1.4,0.5c0.7,0,1-0.4,1-0.9s-0.6-0.8-1.1-1c-0.5-0.1-1.2-0.4-1.2-1.1
			c0-0.6,0.5-1.2,1.4-1.2c0.5,0,0.9,0.2,1.2,0.5l-0.2,0.3c-0.3-0.2-0.6-0.4-1-0.4c-0.7,0-1,0.4-1,0.8c0,0.5,0.5,0.7,1,0.9
			c0.7,0.3,1.4,0.5,1.4,1.3c0,0.6-0.5,1.2-1.5,1.2C85.4,56.5,84.8,56.3,84.4,56z"/>
		<path d="M88.6,52.1h0.3v0.7l0,0c0.4-0.4,0.9-0.8,1.4-0.8c0.7,0,1,0.4,1.2,0.9c0.5-0.5,1-0.9,1.5-0.9c0.9,0,1.3,0.5,1.3,1.7v2.8
			h-0.4v-2.7c0-0.9-0.3-1.4-1-1.4c-0.4,0-0.8,0.3-1.3,0.8v3.3h-0.4v-2.7c0-0.9-0.3-1.4-1-1.4c-0.4,0-0.8,0.3-1.3,0.8v3.3h-0.4v-4.4
			C88.5,52.1,88.6,52.1,88.6,52.1z"/>
		<path d="M95.6,54.3c0-1.4,0.9-2.3,1.9-2.3s1.7,0.7,1.7,2c0,0.1,0,0.2,0,0.3h-3.1c0,1.1,0.7,1.9,1.6,1.9c0.5,0,0.8-0.2,1.2-0.4
			l0.2,0.3c-0.3,0.2-0.7,0.4-1.4,0.4C96.5,56.5,95.6,55.7,95.6,54.3z M98.7,54c0-1.1-0.5-1.7-1.3-1.7c-0.7,0-1.4,0.6-1.5,1.7H98.7z"
			/>
		<path d="M100.3,55.9V50h0.4v6c0,0.2,0.1,0.3,0.2,0.3c0,0,0.1,0,0.2,0l0.1,0.3c-0.1,0-0.2,0-0.3,0
			C100.5,56.5,100.3,56.3,100.3,55.9z"/>
		<path d="M102.5,55.2v-2.8h-0.7v-0.2h0.7l0.1-1.3h0.3v1.3h1.3v0.3h-1.3v2.8c0,0.5,0.1,0.9,0.7,0.9c0.2,0,0.4-0.1,0.5-0.1l0.1,0.3
			c-0.3,0.1-0.5,0.2-0.7,0.2C102.7,56.5,102.5,56,102.5,55.2z"/>
		<path d="M104.9,54.3c0-1.4,0.9-2.3,1.9-2.3s1.7,0.7,1.7,2c0,0.1,0,0.2,0,0.3h-3.1c0,1.1,0.7,1.9,1.6,1.9c0.5,0,0.8-0.2,1.2-0.4
			l0.2,0.3c-0.3,0.2-0.7,0.4-1.4,0.4C105.7,56.5,104.9,55.7,104.9,54.3z M108,54c0-1.1-0.5-1.7-1.3-1.7c-0.7,0-1.4,0.6-1.5,1.7H108z
			"/>
		<path d="M109.6,52.1h0.3v0.8l0,0c0.3-0.5,0.7-0.9,1.2-0.9c0.2,0,0.3,0,0.4,0.1l-0.1,0.4c-0.1-0.1-0.2-0.1-0.4-0.1
			c-0.4,0-0.8,0.3-1.2,1.1v2.9h-0.4v-4.3H109.6z"/>
		<path d="M111.9,56l0.2-0.3c0.4,0.3,0.8,0.5,1.4,0.5c0.7,0,1-0.4,1-0.9s-0.6-0.8-1.1-1c-0.7-0.2-1.3-0.5-1.3-1.2
			c0-0.6,0.5-1.2,1.4-1.2c0.5,0,0.9,0.2,1.2,0.5l-0.2,0.3c-0.3-0.2-0.6-0.4-1-0.4c-0.7,0-1,0.4-1,0.8c0,0.5,0.5,0.7,1,0.9
			c0.7,0.3,1.4,0.5,1.4,1.3c0,0.6-0.5,1.2-1.5,1.2C112.8,56.5,112.3,56.3,111.9,56z"/>
	</g>
	<g>
		<path d="M263.8,55.8l0.2-0.3c0.3,0.4,0.8,0.7,1.6,0.7c0.8,0,1.4-0.6,1.4-1.5s-0.5-1.5-1.4-1.5c-0.4,0-0.7,0.2-1.1,0.4l-0.3-0.2
			l0.2-2.7h2.7v0.4h-2.3l-0.2,2.1c0.3-0.2,0.6-0.3,1-0.3c1,0,1.8,0.6,1.8,1.8s-0.9,1.9-1.8,1.9C264.7,56.5,264.2,56.1,263.8,55.8z"
			/>
		<path d="M268.3,57.6c0.4-0.2,0.7-0.6,0.7-1.1h-0.1c-0.2,0-0.4-0.1-0.4-0.4s0.2-0.4,0.4-0.4c0.3,0,0.5,0.2,0.5,0.6
			c0,0.7-0.4,1.2-0.9,1.5L268.3,57.6z"/>
		<path d="M273.3,51h-3v-0.4h3.5v0.2c-1.4,1.8-1.7,3.3-1.8,5.5h-0.4C271.6,54.1,272.1,52.7,273.3,51z"/>
		<path d="M274.6,53.5c0-1.9,0.6-3,1.7-3s1.7,1.1,1.7,3s-0.6,3-1.7,3S274.6,55.5,274.6,53.5z M277.6,53.5c0-1.8-0.5-2.6-1.3-2.6
			s-1.3,0.9-1.3,2.6c0,1.8,0.5,2.7,1.3,2.7S277.6,55.3,277.6,53.5z"/>
		<path d="M278.7,55.8l0.2-0.3c0.3,0.4,0.8,0.7,1.6,0.7c0.8,0,1.4-0.6,1.4-1.5s-0.5-1.5-1.4-1.5c-0.4,0-0.7,0.2-1.1,0.4l-0.3-0.2
			l0.2-2.7h2.7v0.4h-2.3l-0.2,2.1c0.3-0.2,0.6-0.3,1-0.3c1,0,1.8,0.6,1.8,1.8s-0.9,1.9-1.8,1.9C279.6,56.5,279.1,56.1,278.7,55.8z"
			/>
	</g>
	<g>
		<path d="M334.7,55.8l0.2-0.3c0.3,0.4,0.8,0.7,1.6,0.7c0.8,0,1.4-0.6,1.4-1.5s-0.5-1.5-1.4-1.5c-0.4,0-0.7,0.2-1.1,0.4l-0.3-0.2
			l0.2-2.7h2.7v0.4h-2.3l-0.2,2.1c0.3-0.2,0.6-0.3,1-0.3c1,0,1.8,0.6,1.8,1.8s-0.9,1.9-1.8,1.9C335.5,56.5,335,56.1,334.7,55.8z"/>
		<path d="M339.2,57.6c0.4-0.2,0.7-0.6,0.7-1.1h-0.1c-0.2,0-0.4-0.1-0.4-0.4s0.2-0.4,0.4-0.4c0.3,0,0.5,0.2,0.5,0.6
			c0,0.7-0.4,1.2-0.9,1.5L339.2,57.6z"/>
		<path d="M344.1,51h-3v-0.4h3.5v0.2c-1.4,1.8-1.7,3.3-1.8,5.5h-0.4C342.5,54.1,343,52.7,344.1,51z"/>
		<path d="M345.5,53.8c0-2.4,1-3.3,2.1-3.3c0.5,0,0.9,0.2,1.2,0.6l-0.2,0.3c-0.3-0.3-0.6-0.5-1-0.5c-0.9,0-1.7,0.7-1.7,2.8
			c0.4-0.5,0.9-0.8,1.4-0.8c1,0,1.6,0.6,1.6,1.8c0,1-0.7,1.8-1.6,1.8C346.2,56.5,345.5,55.6,345.5,53.8z M345.9,54.2
			c0.1,1.2,0.5,2,1.5,2c0.7,0,1.2-0.6,1.2-1.5s-0.4-1.4-1.2-1.4C346.9,53.3,346.4,53.5,345.9,54.2z"/>
		<path d="M349.8,56l0.2-0.3c0.3,0.3,0.6,0.5,1,0.5c0.9,0,1.7-0.7,1.7-2.8c-0.4,0.5-0.9,0.8-1.5,0.8c-1,0-1.6-0.6-1.6-1.8
			c0-1,0.7-1.8,1.6-1.8c1.1,0,1.9,1,1.9,2.7c0,2.4-1,3.3-2.1,3.3C350.5,56.5,350.1,56.3,349.8,56z M351.4,53.8c0.4,0,1-0.3,1.4-0.9
			c-0.1-1.2-0.5-2-1.5-2c-0.7,0-1.2,0.6-1.2,1.4C350.1,53.2,350.5,53.8,351.4,53.8z"/>
	</g>
	<g>
		<path d="M405.5,55.8l0.2-0.3c0.3,0.4,0.8,0.7,1.6,0.7c0.8,0,1.4-0.6,1.4-1.5s-0.5-1.5-1.4-1.5c-0.4,0-0.7,0.2-1.1,0.4l-0.3-0.2
			l0.2-2.7h2.7v0.4h-2.3l-0.2,2.1c0.3-0.2,0.6-0.3,1-0.3c1,0,1.8,0.6,1.8,1.8s-0.9,1.9-1.8,1.9C406.4,56.5,405.9,56.1,405.5,55.8z"
			/>
		<path d="M410,57.6c0.4-0.2,0.7-0.6,0.7-1.1h-0.1c-0.2,0-0.4-0.1-0.4-0.4s0.2-0.4,0.4-0.4c0.3,0,0.5,0.2,0.5,0.6
			c0,0.7-0.4,1.2-0.9,1.5L410,57.6z"/>
		<path d="M412.1,56l0.2-0.3c0.3,0.3,0.6,0.5,1,0.5c0.9,0,1.7-0.7,1.7-2.8c-0.4,0.5-0.9,0.8-1.5,0.8c-1,0-1.6-0.6-1.6-1.8
			c0-1,0.7-1.8,1.6-1.8c1.1,0,1.9,1,1.9,2.7c0,2.4-1,3.3-2.1,3.3C412.8,56.5,412.4,56.3,412.1,56z M413.6,53.8c0.4,0,1-0.3,1.4-0.9
			c-0.1-1.2-0.5-2-1.5-2c-0.7,0-1.2,0.6-1.2,1.4C412.4,53.2,412.7,53.8,413.6,53.8z"/>
		<path d="M416.4,56l0.2-0.3c0.3,0.3,0.6,0.5,1,0.5c0.9,0,1.7-0.7,1.7-2.8c-0.4,0.5-0.9,0.8-1.5,0.8c-1,0-1.6-0.6-1.6-1.8
			c0-1,0.7-1.8,1.6-1.8c1.1,0,1.9,1,1.9,2.7c0,2.4-1,3.3-2.1,3.3C417.1,56.5,416.7,56.3,416.4,56z M417.9,53.8c0.4,0,1-0.3,1.4-0.9
			c-0.1-1.2-0.5-2-1.5-2c-0.7,0-1.2,0.6-1.2,1.4C416.7,53.2,417,53.8,417.9,53.8z"/>
		<path d="M423.6,51h-3v-0.4h3.5v0.2c-1.4,1.8-1.7,3.3-1.8,5.5h-0.4C422,54.1,422.5,52.7,423.6,51z"/>
	</g>
	<g>
		<path d="M476.6,53.8c0-2.4,1-3.3,2.1-3.3c0.5,0,0.9,0.2,1.2,0.6l-0.2,0.3c-0.3-0.3-0.6-0.5-1-0.5c-0.9,0-1.7,0.7-1.7,2.8
			c0.4-0.5,0.9-0.8,1.4-0.8c1,0,1.6,0.6,1.6,1.8c0,1-0.7,1.8-1.6,1.8C477.4,56.5,476.6,55.6,476.6,53.8z M477,54.2
			c0.1,1.2,0.5,2,1.5,2c0.7,0,1.2-0.6,1.2-1.5s-0.4-1.4-1.2-1.4C478,53.3,477.5,53.5,477,54.2z"/>
		<path d="M480.9,57.6c0.4-0.2,0.7-0.6,0.7-1.1h-0.1c-0.2,0-0.4-0.1-0.4-0.4s0.2-0.4,0.4-0.4c0.3,0,0.5,0.2,0.5,0.6
			c0,0.7-0.4,1.2-0.9,1.5L480.9,57.6z"/>
		<path d="M482.9,53.5c0-1.9,0.6-3,1.7-3s1.7,1.1,1.7,3s-0.6,3-1.7,3S482.9,55.5,482.9,53.5z M485.9,53.5c0-1.8-0.5-2.6-1.3-2.6
			s-1.3,0.9-1.3,2.6c0,1.8,0.5,2.7,1.3,2.7S485.9,55.3,485.9,53.5z"/>
		<path d="M487.2,53.8c0-2.4,1-3.3,2.1-3.3c0.5,0,0.9,0.2,1.2,0.6l-0.2,0.3c-0.3-0.3-0.6-0.5-1-0.5c-0.9,0-1.7,0.7-1.7,2.8
			c0.4-0.5,0.9-0.8,1.4-0.8c1,0,1.6,0.6,1.6,1.8c0,1-0.7,1.8-1.6,1.8C487.9,56.5,487.2,55.6,487.2,53.8z M487.6,54.2
			c0.1,1.2,0.5,2,1.5,2c0.7,0,1.2-0.6,1.2-1.5s-0.4-1.4-1.2-1.4C488.6,53.3,488.1,53.5,487.6,54.2z"/>
		<path d="M491.4,56.2c1.9-1.9,2.8-3,2.8-4c0-0.7-0.4-1.3-1.3-1.3c-0.5,0-1,0.3-1.3,0.8l-0.3-0.3c0.4-0.5,0.9-0.8,1.6-0.8
			c1,0,1.6,0.6,1.6,1.6c0,1.1-1,2.2-2.6,3.9c0.3,0,0.6,0,1,0h2v0.4h-3.5L491.4,56.2L491.4,56.2z"/>
	</g>
	<g>
		<path d="M3.3,64.1h1.5c1.3,0,2.2,0.4,2.2,1.7c0,1.2-0.8,1.7-2.1,1.7H3.7V70H3.3V64.1z M4.7,67.1c1.2,0,1.8-0.4,1.8-1.4
			s-0.6-1.3-1.8-1.3h-1v2.7C3.7,67.1,4.7,67.1,4.7,67.1z"/>
		<path d="M8.2,65.7h0.3v0.8l0,0c0.3-0.5,0.7-0.9,1.2-0.9c0.2,0,0.3,0,0.4,0.1L10,66.1C9.9,66,9.8,66,9.6,66c-0.4,0-0.8,0.3-1.2,1.1
			V70H8v-4.3H8.2z"/>
		<path d="M10.7,67.8c0-1.4,0.9-2.3,1.9-2.3s1.9,0.8,1.9,2.3c0,1.4-0.9,2.3-1.9,2.3S10.7,69.3,10.7,67.8z M14.2,67.8
			c0-1.1-0.7-1.9-1.5-1.9c-0.9,0-1.5,0.8-1.5,1.9s0.6,1.9,1.5,1.9C13.5,69.7,14.2,69,14.2,67.8z"/>
		<path d="M15.5,67.8c0-1.4,0.9-2.3,1.9-2.3c0.5,0,0.9,0.2,1.3,0.5v-0.8v-1.8h0.4v6.5h-0.3v-0.6l0,0C18.4,69.7,18,70,17.4,70
			C16.2,70.1,15.5,69.3,15.5,67.8z M18.7,69v-2.6c-0.5-0.4-0.8-0.6-1.3-0.6c-0.9,0-1.5,0.8-1.5,1.9s0.5,1.9,1.4,1.9
			C17.8,69.7,18.2,69.5,18.7,69z"/>
		<path d="M20.7,68.4v-2.8h0.4v2.7c0,0.9,0.3,1.4,1,1.4c0.5,0,0.9-0.3,1.4-0.9v-3.2h0.4v4.3h-0.3v-0.7l0,0c-0.4,0.5-0.9,0.8-1.5,0.8
			C21.1,70.1,20.7,69.6,20.7,68.4z"/>
		<path d="M25.2,67.8c0-1.4,0.9-2.3,2-2.3c0.6,0,1,0.3,1.3,0.5l-0.2,0.3c-0.3-0.3-0.6-0.5-1-0.5c-0.9,0-1.6,0.8-1.6,1.9
			s0.6,1.9,1.6,1.9c0.5,0,0.9-0.2,1.2-0.5l0.2,0.3c-0.4,0.3-0.8,0.6-1.4,0.6C26,70.1,25.2,69.3,25.2,67.8z"/>
		<path d="M29.7,68.8V66H29v-0.3h0.7l0.1-1.3h0.3v1.3h1.3V66h-1.3v2.8c0,0.5,0.1,0.9,0.7,0.9c0.2,0,0.4-0.1,0.5-0.1l0.1,0.3
			c-0.3,0.1-0.5,0.2-0.7,0.2C29.9,70.1,29.7,69.6,29.7,68.8z"/>
		<path d="M32.2,64.3c0-0.2,0.1-0.4,0.3-0.4s0.3,0.1,0.3,0.4c0,0.2-0.1,0.4-0.3,0.4S32.2,64.5,32.2,64.3z M32.4,65.7h0.4V70h-0.4
			V65.7z"/>
		<path d="M34.1,67.8c0-1.4,0.9-2.3,1.9-2.3s1.9,0.8,1.9,2.3c0,1.4-0.9,2.3-1.9,2.3S34.1,69.3,34.1,67.8z M37.5,67.8
			c0-1.1-0.7-1.9-1.5-1.9c-0.9,0-1.5,0.8-1.5,1.9s0.6,1.9,1.5,1.9S37.5,69,37.5,67.8z"/>
		<path d="M39.2,65.7h0.3v0.7l0,0c0.4-0.4,0.9-0.8,1.5-0.8c0.9,0,1.3,0.5,1.3,1.7v2.8h-0.4v-2.7c0-0.9-0.3-1.4-1-1.4
			c-0.5,0-0.9,0.3-1.4,0.8v3.3h-0.4v-4.4H39.2z"/>
		<path d="M45.5,68.9c0-1,0.9-1.4,2.8-1.6c0-0.7-0.2-1.4-1-1.4c-0.6,0-1.1,0.3-1.4,0.5l-0.2-0.3c0.3-0.2,0.9-0.6,1.6-0.6
			c1,0,1.4,0.7,1.4,1.7V70h-0.3v-0.6l0,0c-0.4,0.4-1,0.7-1.5,0.7C46.1,70.1,45.5,69.7,45.5,68.9z M48.3,69.1v-1.5
			c-1.8,0.2-2.4,0.6-2.4,1.3c0,0.6,0.4,0.9,0.9,0.9S47.8,69.5,48.3,69.1z"/>
		<path d="M50.3,68.8V66h-0.7v-0.3h0.7l0.1-1.3h0.3v1.3H52V66h-1.3v2.8c0,0.5,0.1,0.9,0.7,0.9c0.2,0,0.4-0.1,0.5-0.1l0.1,0.3
			c-0.3,0.1-0.5,0.2-0.7,0.2C50.6,70.1,50.3,69.6,50.3,68.8z"/>
		<path d="M54.3,69.5l0.2-0.3c0.4,0.3,0.8,0.5,1.4,0.5c0.7,0,1-0.4,1-0.9s-0.6-0.8-1.1-1c-0.7-0.2-1.3-0.5-1.3-1.2
			c0-0.6,0.5-1.2,1.4-1.2c0.5,0,0.9,0.2,1.2,0.5l-0.2,0.3c-0.3-0.2-0.6-0.4-1-0.4c-0.7,0-1,0.4-1,0.8c0,0.5,0.5,0.7,1,0.9
			c0.7,0.3,1.4,0.5,1.4,1.3c0,0.6-0.5,1.2-1.5,1.2C55.3,70.1,54.7,69.8,54.3,69.5z"/>
		<path d="M58.1,67.8c0-1.4,0.9-2.3,1.9-2.3s1.7,0.7,1.7,2c0,0.1,0,0.2,0,0.3h-3.1c0,1.1,0.7,1.9,1.6,1.9c0.5,0,0.8-0.2,1.2-0.4
			l0.2,0.3c-0.3,0.2-0.7,0.4-1.4,0.4C59,70.1,58.1,69.3,58.1,67.8z M61.3,67.6c0-1.1-0.5-1.7-1.3-1.7c-0.7,0-1.4,0.6-1.5,1.7H61.3z"
			/>
		<path d="M62.5,67.8c0-1.4,0.9-2.3,2-2.3c0.6,0,1,0.3,1.3,0.5l-0.2,0.3c-0.3-0.3-0.6-0.5-1-0.5c-0.9,0-1.6,0.8-1.6,1.9
			s0.6,1.9,1.6,1.9c0.5,0,0.9-0.2,1.2-0.5l0.2,0.3c-0.4,0.3-0.8,0.6-1.4,0.6C63.3,70.1,62.5,69.3,62.5,67.8z"/>
		<path d="M66.5,67.8c0-1.4,0.9-2.3,1.9-2.3s1.9,0.8,1.9,2.3c0,1.4-0.9,2.3-1.9,2.3S66.5,69.3,66.5,67.8z M70,67.8
			c0-1.1-0.7-1.9-1.5-1.9c-0.9,0-1.5,0.8-1.5,1.9s0.6,1.9,1.5,1.9C69.3,69.7,70,69,70,67.8z"/>
		<path d="M71.7,65.7H72v0.7l0,0c0.4-0.4,0.9-0.8,1.5-0.8c0.9,0,1.3,0.5,1.3,1.7v2.8h-0.4v-2.7c0-0.9-0.3-1.4-1-1.4
			c-0.5,0-0.9,0.3-1.4,0.8v3.3h-0.4L71.7,65.7L71.7,65.7z"/>
		<path d="M76.1,67.8c0-1.4,0.9-2.3,1.9-2.3c0.5,0,0.9,0.2,1.3,0.5v-0.8v-1.8h0.4v6.5h-0.3v-0.6l0,0C79,69.7,78.6,70,78,70
			C76.8,70.1,76.1,69.3,76.1,67.8z M79.3,69v-2.6c-0.5-0.4-0.8-0.6-1.3-0.6c-0.9,0-1.5,0.8-1.5,1.9s0.5,1.9,1.4,1.9
			C78.5,69.7,78.9,69.5,79.3,69z"/>
		<path d="M81.1,68.9c0-1,0.9-1.4,2.8-1.6c0-0.7-0.2-1.4-1-1.4c-0.6,0-1.1,0.3-1.4,0.5l-0.2-0.3c0.3-0.2,0.9-0.6,1.6-0.6
			c1,0,1.4,0.7,1.4,1.7V70H84v-0.6l0,0c-0.4,0.4-1,0.7-1.5,0.7C81.7,70.1,81.1,69.7,81.1,68.9z M83.9,69.1v-1.5
			c-1.8,0.2-2.4,0.6-2.4,1.3c0,0.6,0.4,0.9,0.9,0.9S83.3,69.5,83.9,69.1z"/>
		<path d="M85.8,65.7h0.3v0.8l0,0c0.3-0.5,0.7-0.9,1.2-0.9c0.2,0,0.3,0,0.4,0.1l-0.1,0.4C87.5,66,87.4,66,87.2,66
			c-0.4,0-0.8,0.3-1.2,1.1V70h-0.4v-4.3H85.8z"/>
		<path d="M88,71.9l0.1-0.4c0.1,0,0.2,0.1,0.4,0.1c0.5,0,0.9-0.5,1.1-1.1l0.1-0.4l-1.8-4.4h0.5l1,2.7c0.1,0.4,0.3,0.8,0.5,1.2l0,0
			c0.1-0.4,0.3-0.8,0.4-1.2l0.9-2.7h0.4l-1.7,4.9c-0.2,0.7-0.7,1.4-1.4,1.4C88.3,72,88.2,71.9,88,71.9z"/>
		<path d="M94.4,65.7h0.3v0.8l0,0c0.3-0.5,0.7-0.9,1.2-0.9c0.2,0,0.3,0,0.4,0.1l-0.1,0.4C96.1,66,96,66,95.8,66
			c-0.4,0-0.8,0.3-1.2,1.1V70h-0.2C94.4,70,94.4,65.7,94.4,65.7z"/>
		<path d="M96.9,67.8c0-1.4,0.9-2.3,1.9-2.3s1.7,0.7,1.7,2c0,0.1,0,0.2,0,0.3h-3.1c0,1.1,0.7,1.9,1.6,1.9c0.5,0,0.8-0.2,1.2-0.4
			l0.2,0.3c-0.3,0.2-0.7,0.4-1.4,0.4C97.8,70.1,96.9,69.3,96.9,67.8z M100,67.6c0-1.1-0.5-1.7-1.3-1.7c-0.7,0-1.4,0.6-1.5,1.7H100z"
			/>
		<path d="M101.6,66H101v-0.3h0.6v-1c0-0.9,0.4-1.3,1.1-1.3c0.2,0,0.4,0.1,0.6,0.1l-0.1,0.3c-0.2-0.1-0.4-0.1-0.5-0.1
			c-0.5,0-0.7,0.4-0.7,1v0.9h1v0.3h-1v4h-0.4V66z"/>
		<path d="M103.8,64.3c0-0.2,0.1-0.4,0.3-0.4s0.3,0.1,0.3,0.4c0,0.2-0.1,0.4-0.3,0.4S103.8,64.5,103.8,64.3z M104,65.7h0.4V70H104
			V65.7z"/>
		<path d="M106,65.7h0.3v0.7l0,0c0.4-0.4,0.9-0.8,1.5-0.8c0.9,0,1.3,0.5,1.3,1.7v2.8h-0.4v-2.7c0-0.9-0.3-1.4-1-1.4
			c-0.5,0-0.9,0.3-1.4,0.8v3.3h-0.4L106,65.7L106,65.7z"/>
		<path d="M110.4,67.8c0-1.4,0.9-2.3,1.9-2.3s1.7,0.7,1.7,2c0,0.1,0,0.2,0,0.3h-3.1c0,1.1,0.7,1.9,1.6,1.9c0.5,0,0.8-0.2,1.2-0.4
			l0.2,0.3c-0.3,0.2-0.7,0.4-1.4,0.4C111.3,70.1,110.4,69.3,110.4,67.8z M113.6,67.6c0-1.1-0.5-1.7-1.3-1.7c-0.7,0-1.4,0.6-1.5,1.7
			H113.6z"/>
		<path d="M115.1,65.7h0.3v0.8l0,0c0.3-0.5,0.7-0.9,1.2-0.9c0.2,0,0.3,0,0.4,0.1l-0.1,0.4c-0.1-0.1-0.2-0.1-0.4-0.1
			c-0.4,0-0.8,0.3-1.2,1.1V70h-0.4v-4.3H115.1z"/>
		<path d="M117.9,64.3c0-0.2,0.1-0.4,0.3-0.4s0.3,0.1,0.3,0.4c0,0.2-0.1,0.4-0.3,0.4S117.9,64.5,117.9,64.3z M118,65.7h0.4V70H118
			V65.7z"/>
		<path d="M119.7,67.8c0-1.4,0.9-2.3,1.9-2.3s1.7,0.7,1.7,2c0,0.1,0,0.2,0,0.3h-3.1c0,1.1,0.7,1.9,1.6,1.9c0.5,0,0.8-0.2,1.2-0.4
			l0.2,0.3c-0.3,0.2-0.7,0.4-1.4,0.4C120.6,70.1,119.7,69.3,119.7,67.8z M122.9,67.6c0-1.1-0.5-1.7-1.3-1.7c-0.7,0-1.4,0.6-1.5,1.7
			H122.9z"/>
		<path d="M123.9,69.5l0.2-0.3c0.4,0.3,0.8,0.5,1.4,0.5c0.7,0,1-0.4,1-0.9s-0.6-0.8-1.1-1c-0.7-0.2-1.3-0.5-1.3-1.2
			c0-0.6,0.5-1.2,1.4-1.2c0.5,0,0.9,0.2,1.2,0.5l-0.2,0.3c-0.3-0.2-0.6-0.4-1-0.4c-0.7,0-1,0.4-1,0.8c0,0.5,0.5,0.7,1,0.9
			c0.7,0.3,1.4,0.5,1.4,1.3c0,0.6-0.5,1.2-1.5,1.2C124.8,70.1,124.3,69.8,123.9,69.5z"/>
	</g>
	<g>
		<path d="M264,67.4c0-2.4,1-3.3,2.1-3.3c0.5,0,0.9,0.2,1.2,0.6l-0.2,0.3c-0.3-0.3-0.6-0.5-1-0.5c-0.9,0-1.7,0.7-1.7,2.8
			c0.4-0.5,0.9-0.8,1.4-0.8c1,0,1.6,0.6,1.6,1.8c0,1-0.7,1.8-1.6,1.8C264.8,70.1,264,69.1,264,67.4z M264.4,67.7
			c0.1,1.2,0.5,2,1.5,2c0.7,0,1.2-0.6,1.2-1.5s-0.4-1.4-1.2-1.4C265.4,66.9,264.9,67.1,264.4,67.7z"/>
		<path d="M268.3,71.1c0.4-0.2,0.7-0.6,0.7-1.1h-0.1c-0.2,0-0.4-0.1-0.4-0.4s0.2-0.4,0.4-0.4c0.3,0,0.5,0.2,0.5,0.6
			c0,0.7-0.4,1.2-0.9,1.5L268.3,71.1z"/>
		<path d="M270.3,67.4c0-2.4,1-3.3,2.1-3.3c0.5,0,0.9,0.2,1.2,0.6l-0.2,0.3c-0.3-0.3-0.6-0.5-1-0.5c-0.9,0-1.7,0.7-1.7,2.8
			c0.4-0.5,0.9-0.8,1.4-0.8c1,0,1.6,0.6,1.6,1.8c0,1-0.7,1.8-1.6,1.8C271,70.1,270.3,69.1,270.3,67.4z M270.7,67.7
			c0.1,1.2,0.5,2,1.5,2c0.7,0,1.2-0.6,1.2-1.5s-0.4-1.4-1.2-1.4C271.7,66.9,271.2,67.1,270.7,67.7z"/>
		<path d="M274.7,69.5l0.2-0.3c0.3,0.3,0.6,0.5,1,0.5c0.9,0,1.7-0.7,1.7-2.8c-0.4,0.5-0.9,0.8-1.5,0.8c-1,0-1.6-0.6-1.6-1.8
			c0-1,0.7-1.8,1.6-1.8c1.1,0,1.9,1,1.9,2.7c0,2.4-1,3.3-2.1,3.3C275.3,70.1,274.9,69.9,274.7,69.5z M276.2,67.4
			c0.4,0,1-0.3,1.4-0.9c-0.1-1.2-0.5-2-1.5-2c-0.7,0-1.2,0.6-1.2,1.4C274.9,66.8,275.3,67.4,276.2,67.4z"/>
		<path d="M278.9,67.4c0-2.4,1-3.3,2.1-3.3c0.5,0,0.9,0.2,1.2,0.6L282,65c-0.3-0.3-0.6-0.5-1-0.5c-0.9,0-1.7,0.7-1.7,2.8
			c0.4-0.5,0.9-0.8,1.4-0.8c1,0,1.6,0.6,1.6,1.8c0,1-0.7,1.8-1.6,1.8C279.7,70.1,278.9,69.1,278.9,67.4z M279.3,67.7
			c0.1,1.2,0.5,2,1.5,2c0.7,0,1.2-0.6,1.2-1.5s-0.4-1.4-1.2-1.4C280.3,66.9,279.8,67.1,279.3,67.7z"/>
	</g>
	<g>
		<path d="M334.9,67.4c0-2.4,1-3.3,2.1-3.3c0.5,0,0.9,0.2,1.2,0.6L338,65c-0.3-0.3-0.6-0.5-1-0.5c-0.9,0-1.7,0.7-1.7,2.8
			c0.4-0.5,0.9-0.8,1.4-0.8c1,0,1.6,0.6,1.6,1.8c0,1-0.7,1.8-1.6,1.8C335.6,70.1,334.9,69.1,334.9,67.4z M335.3,67.7
			c0.1,1.2,0.5,2,1.5,2c0.7,0,1.2-0.6,1.2-1.5s-0.4-1.4-1.2-1.4C336.3,66.9,335.8,67.1,335.3,67.7z"/>
		<path d="M339.2,71.1c0.4-0.2,0.7-0.6,0.7-1.1h-0.1c-0.2,0-0.4-0.1-0.4-0.4s0.2-0.4,0.4-0.4c0.3,0,0.5,0.2,0.5,0.6
			c0,0.7-0.4,1.2-0.9,1.5L339.2,71.1z"/>
		<path d="M341.2,69.5l0.2-0.3c0.3,0.3,0.6,0.5,1,0.5c0.9,0,1.7-0.7,1.7-2.8c-0.4,0.5-0.9,0.8-1.5,0.8c-1,0-1.6-0.6-1.6-1.8
			c0-1,0.7-1.8,1.6-1.8c1.1,0,1.9,1,1.9,2.7c0,2.4-1,3.3-2.1,3.3C341.9,70.1,341.5,69.9,341.2,69.5z M342.7,67.4
			c0.4,0,1-0.3,1.4-0.9c-0.1-1.2-0.5-2-1.5-2c-0.7,0-1.2,0.6-1.2,1.4C341.5,66.8,341.9,67.4,342.7,67.4z"/>
		<path d="M345.3,69.3l0.2-0.3c0.3,0.4,0.8,0.7,1.6,0.7c0.8,0,1.3-0.5,1.3-1.3s-0.6-1.3-2-1.3v-0.4c1.3,0,1.8-0.6,1.8-1.3
			c0-0.6-0.5-1.1-1.2-1.1c-0.5,0-1,0.3-1.3,0.6l-0.2-0.3c0.4-0.4,0.9-0.7,1.6-0.7c0.9,0,1.6,0.5,1.6,1.4c0,0.8-0.5,1.2-1.1,1.4l0,0
			c0.7,0.2,1.3,0.7,1.3,1.5c0,1-0.8,1.6-1.8,1.6C346.2,70.1,345.6,69.7,345.3,69.3z"/>
		<path d="M349.7,68.5c0-0.8,0.6-1.3,1.2-1.6l0,0c-0.4-0.3-0.8-0.7-0.8-1.3c0-0.8,0.7-1.4,1.5-1.4c1,0,1.6,0.6,1.6,1.5
			c0,0.6-0.5,1.2-0.8,1.5l0,0c0.5,0.3,1,0.7,1,1.5s-0.7,1.5-1.7,1.5C350.5,70.1,349.7,69.4,349.7,68.5z M352.9,68.6
			c0-0.9-0.9-1.2-1.8-1.5c-0.6,0.3-1,0.8-1,1.5s0.6,1.3,1.4,1.3C352.3,69.8,352.9,69.2,352.9,68.6z M352.7,65.6
			c0-0.6-0.4-1.2-1.2-1.2c-0.6,0-1.1,0.5-1.1,1.1c0,0.8,0.8,1.1,1.5,1.4C352.4,66.6,352.7,66.1,352.7,65.6z"/>
	</g>
	<g>
		<path d="M408.7,64.6h-3v-0.4h3.5v0.2c-1.4,1.8-1.7,3.3-1.8,5.5H407C407.1,67.7,407.6,66.2,408.7,64.6z"/>
		<path d="M410,71.1c0.4-0.2,0.7-0.6,0.7-1.1h-0.1c-0.2,0-0.4-0.1-0.4-0.4s0.2-0.4,0.4-0.4c0.3,0,0.5,0.2,0.5,0.6
			c0,0.7-0.4,1.2-0.9,1.5L410,71.1z"/>
		<path d="M412.3,69.6h1.4v-4.8h-1v-0.3c0.5-0.1,0.8-0.2,1.1-0.4h0.3v5.4h1.3v0.4h-3L412.3,69.6L412.3,69.6z"/>
		<path d="M419.3,64.6h-3v-0.4h3.5v0.2c-1.4,1.8-1.7,3.3-1.8,5.5h-0.4C417.7,67.7,418.1,66.2,419.3,64.6z"/>
		<path d="M420.7,69.5l0.2-0.3c0.3,0.3,0.6,0.5,1,0.5c0.9,0,1.7-0.7,1.7-2.8c-0.4,0.5-0.9,0.8-1.5,0.8c-1,0-1.6-0.6-1.6-1.8
			c0-1,0.7-1.8,1.6-1.8c1.1,0,1.9,1,1.9,2.7c0,2.4-1,3.3-2.1,3.3C421.4,70.1,421,69.9,420.7,69.5z M422.2,67.4c0.4,0,1-0.3,1.4-0.9
			c-0.1-1.2-0.5-2-1.5-2c-0.7,0-1.2,0.6-1.2,1.4C421,66.8,421.3,67.4,422.2,67.4z"/>
	</g>
	<g>
		<path d="M479.6,64.6h-3v-0.4h3.5v0.2c-1.4,1.8-1.7,3.3-1.8,5.5h-0.4C477.9,67.7,478.4,66.2,479.6,64.6z"/>
		<path d="M480.9,71.1c0.4-0.2,0.7-0.6,0.7-1.1h-0.1c-0.2,0-0.4-0.1-0.4-0.4s0.2-0.4,0.4-0.4c0.3,0,0.5,0.2,0.5,0.6
			c0,0.7-0.4,1.2-0.9,1.5L480.9,71.1z"/>
		<path d="M482.7,69.3l0.2-0.3c0.3,0.4,0.8,0.7,1.6,0.7c0.8,0,1.3-0.5,1.3-1.3s-0.6-1.3-2-1.3v-0.4c1.3,0,1.8-0.6,1.8-1.3
			c0-0.6-0.5-1.1-1.2-1.1c-0.5,0-1,0.3-1.3,0.6l-0.2-0.3c0.4-0.4,0.9-0.7,1.6-0.7c0.9,0,1.6,0.5,1.6,1.4c0,0.8-0.5,1.2-1.1,1.4l0,0
			c0.7,0.2,1.3,0.7,1.3,1.5c0,1-0.8,1.6-1.8,1.6C483.6,70.1,483.1,69.7,482.7,69.3z"/>
		<path d="M487.1,68.5c0-0.8,0.6-1.3,1.2-1.6l0,0c-0.4-0.3-0.8-0.7-0.8-1.3c0-0.8,0.7-1.4,1.5-1.4c1,0,1.6,0.6,1.6,1.5
			c0,0.6-0.5,1.2-0.8,1.5l0,0c0.5,0.3,1,0.7,1,1.5s-0.7,1.5-1.7,1.5C487.9,70.1,487.1,69.4,487.1,68.5z M490.3,68.6
			c0-0.9-0.9-1.2-1.8-1.5c-0.6,0.3-1,0.8-1,1.5s0.6,1.3,1.4,1.3C489.7,69.8,490.3,69.2,490.3,68.6z M490.1,65.6
			c0-0.6-0.4-1.2-1.2-1.2c-0.6,0-1.1,0.5-1.1,1.1c0,0.8,0.8,1.1,1.5,1.4C489.8,66.6,490.1,66.1,490.1,65.6z"/>
		<path d="M491.6,69.5l0.2-0.3c0.3,0.3,0.6,0.5,1,0.5c0.9,0,1.7-0.7,1.7-2.8c-0.4,0.5-0.9,0.8-1.5,0.8c-1,0-1.6-0.6-1.6-1.8
			c0-1,0.7-1.8,1.6-1.8c1.1,0,1.9,1,1.9,2.7c0,2.4-1,3.3-2.1,3.3C492.2,70.1,491.8,69.9,491.6,69.5z M493.1,67.4
			c0.4,0,1-0.3,1.4-0.9c-0.1-1.2-0.5-2-1.5-2c-0.7,0-1.2,0.6-1.2,1.4C491.8,66.8,492.2,67.4,493.1,67.4z"/>
	</g>
	<g>
		<path d="M3.3,77.6H5c1.2,0,1.9,0.4,1.9,1.6c0,0.9-0.6,1.5-1.5,1.6L7,83.6H6.5l-1.6-2.7H3.7v2.7H3.3V77.6z M4.9,80.5
			c1,0,1.6-0.4,1.6-1.3S5.9,78,4.9,78H3.7v2.5H4.9z"/>
		<path d="M7.8,81.4c0-1.4,0.9-2.3,1.9-2.3s1.7,0.7,1.7,2c0,0.1,0,0.2,0,0.3H8.3c0,1.1,0.7,1.9,1.6,1.9c0.5,0,0.8-0.2,1.2-0.4
			l0.2,0.3c-0.3,0.2-0.7,0.4-1.4,0.4C8.7,83.7,7.8,82.8,7.8,81.4z M10.9,81.1c0-1.1-0.5-1.7-1.3-1.7c-0.7,0-1.4,0.6-1.5,1.7H10.9z"
			/>
		<path d="M12.6,79.6H12v-0.3h0.6v-1c0-0.9,0.4-1.3,1.1-1.3c0.2,0,0.4,0.1,0.6,0.1l-0.1,0.3c-0.2-0.1-0.4-0.1-0.5-0.1
			c-0.5,0-0.7,0.4-0.7,1v0.9h1v0.3h-1v4h-0.4C12.6,83.5,12.6,79.6,12.6,79.6z"/>
		<path d="M14.7,77.8c0-0.2,0.1-0.4,0.3-0.4s0.3,0.1,0.3,0.4c0,0.2-0.1,0.4-0.3,0.4S14.7,78,14.7,77.8z M14.9,79.2h0.4v4.3h-0.4
			V79.2z"/>
		<path d="M16.9,79.2h0.3v0.7l0,0c0.4-0.4,0.9-0.8,1.5-0.8c0.9,0,1.3,0.5,1.3,1.7v2.8h-0.4v-2.7c0-0.9-0.3-1.4-1-1.4
			c-0.5,0-0.9,0.3-1.4,0.8v3.3h-0.4v-4.4H16.9z"/>
		<path d="M21.4,81.4c0-1.4,0.9-2.3,1.9-2.3s1.7,0.7,1.7,2c0,0.1,0,0.2,0,0.3h-3.1c0,1.1,0.7,1.9,1.6,1.9c0.5,0,0.8-0.2,1.2-0.4
			l0.2,0.3c-0.3,0.2-0.7,0.4-1.4,0.4C22.2,83.7,21.4,82.8,21.4,81.4z M24.5,81.1c0-1.1-0.5-1.7-1.3-1.7c-0.7,0-1.4,0.6-1.5,1.7H24.5
			z"/>
		<path d="M25.7,81.4c0-1.4,0.9-2.3,1.9-2.3c0.5,0,0.9,0.2,1.3,0.5v-0.8V77h0.4v6.5H29v-0.6l0,0c-0.4,0.4-0.8,0.7-1.4,0.7
			C26.4,83.7,25.7,82.9,25.7,81.4z M28.9,82.6V80c-0.5-0.4-0.8-0.6-1.3-0.6c-0.9,0-1.5,0.8-1.5,1.9s0.5,1.9,1.4,1.9
			C28,83.3,28.4,83,28.9,82.6z"/>
		<path d="M32.8,77.6h0.4v5.6h2.7v0.4h-3.2L32.8,77.6L32.8,77.6z"/>
		<path d="M36.6,81.4c0-1.4,0.9-2.3,1.9-2.3s1.7,0.7,1.7,2c0,0.1,0,0.2,0,0.3h-3.1c0,1.1,0.7,1.9,1.6,1.9c0.5,0,0.8-0.2,1.2-0.4
			l0.2,0.3c-0.3,0.2-0.7,0.4-1.4,0.4C37.5,83.7,36.6,82.8,36.6,81.4z M39.8,81.1c0-1.1-0.5-1.7-1.3-1.7c-0.7,0-1.4,0.6-1.5,1.7H39.8
			z"/>
		<path d="M41,82.5c0-1,0.9-1.4,2.8-1.6c0-0.7-0.2-1.4-1-1.4c-0.6,0-1.1,0.3-1.4,0.5l-0.2-0.3c0.3-0.2,0.9-0.6,1.6-0.6
			c1,0,1.4,0.7,1.4,1.7v2.8h-0.3V83l0,0c-0.4,0.4-1,0.7-1.5,0.7C41.6,83.7,41,83.3,41,82.5z M43.8,82.6v-1.5
			c-1.8,0.2-2.4,0.6-2.4,1.3c0,0.6,0.4,0.9,0.9,0.9S43.2,83.1,43.8,82.6z"/>
		<path d="M45.4,81.4c0-1.4,0.9-2.3,1.9-2.3c0.5,0,0.9,0.2,1.3,0.5v-0.8V77H49v6.5h-0.3v-0.6l0,0c-0.4,0.4-0.8,0.7-1.4,0.7
			C46.1,83.7,45.4,82.9,45.4,81.4z M48.6,82.6V80c-0.5-0.4-0.8-0.6-1.3-0.6c-0.9,0-1.5,0.8-1.5,1.9s0.5,1.9,1.4,1.9
			C47.7,83.3,48.1,83,48.6,82.6z"/>
		<path d="M52.4,79.2h0.3v0.5l0,0c0.4-0.3,0.9-0.6,1.5-0.6c1.2,0,1.7,0.9,1.7,2.2c0,1.5-0.9,2.3-1.9,2.3c-0.4,0-0.8-0.2-1.3-0.5v2.4
			h-0.3V79.2z M55.6,81.3c0-1.1-0.4-1.9-1.4-1.9c-0.4,0-0.9,0.3-1.4,0.7v2.6c0.5,0.4,0.9,0.6,1.3,0.6C55,83.3,55.6,82.5,55.6,81.3z"
			/>
		<path d="M57.3,79.2h0.3V80l0,0c0.3-0.5,0.7-0.9,1.2-0.9c0.2,0,0.3,0,0.4,0.1l-0.1,0.4c-0.1-0.1-0.2-0.1-0.4-0.1
			c-0.4,0-0.8,0.3-1.2,1.1v2.9h-0.4v-4.3H57.3z"/>
		<path d="M59.8,81.4c0-1.5,0.9-2.3,1.9-2.3s1.9,0.8,1.9,2.3c0,1.4-0.9,2.3-1.9,2.3S59.8,82.8,59.8,81.4z M63.3,81.4
			c0-1.1-0.7-1.9-1.5-1.9c-0.9,0-1.5,0.8-1.5,1.9s0.6,1.9,1.5,1.9C62.6,83.3,63.3,82.5,63.3,81.4z"/>
		<path d="M64.6,81.4c0-1.4,0.9-2.3,1.9-2.3c0.5,0,0.9,0.2,1.3,0.5v-0.8V77h0.4v6.5h-0.3v-0.6l0,0c-0.4,0.4-0.8,0.7-1.4,0.7
			C65.3,83.7,64.6,82.9,64.6,81.4z M67.8,82.6V80c-0.5-0.4-0.8-0.6-1.3-0.6c-0.9,0-1.5,0.8-1.5,1.9s0.5,1.9,1.4,1.9
			C66.9,83.3,67.4,83,67.8,82.6z"/>
		<path d="M69.8,82v-2.8h0.4v2.7c0,0.9,0.3,1.4,1,1.4c0.5,0,0.9-0.3,1.4-0.9v-3.2H73v4.3h-0.3v-0.7l0,0c-0.4,0.5-0.9,0.8-1.5,0.8
			C70.2,83.7,69.8,83.1,69.8,82z"/>
		<path d="M74.3,81.4c0-1.5,0.9-2.3,2-2.3c0.6,0,1,0.3,1.3,0.5l-0.2,0.3c-0.3-0.3-0.6-0.5-1-0.5c-0.9,0-1.6,0.8-1.6,1.9
			s0.6,1.9,1.6,1.9c0.5,0,0.9-0.2,1.2-0.5l0.2,0.3c-0.4,0.3-0.8,0.6-1.4,0.6C75.1,83.7,74.3,82.8,74.3,81.4z"/>
		<path d="M78.8,82.3v-2.8h-0.7v-0.3h0.7l0.1-1.3h0.3v1.3h1.2v0.3h-1.3v2.8c0,0.5,0.1,0.9,0.7,0.9c0.2,0,0.4-0.1,0.5-0.1l0.1,0.3
			c-0.3,0.1-0.5,0.2-0.7,0.2C79,83.7,78.8,83.1,78.8,82.3z"/>
		<path d="M81.4,77.8c0-0.2,0.1-0.4,0.3-0.4s0.3,0.1,0.3,0.4c0,0.2-0.1,0.4-0.3,0.4S81.4,78,81.4,77.8z M81.5,79.2h0.4v4.3h-0.4
			V79.2z"/>
		<path d="M83.2,81.4c0-1.5,0.9-2.3,1.9-2.3s1.9,0.8,1.9,2.3c0,1.4-0.9,2.3-1.9,2.3S83.2,82.8,83.2,81.4z M86.7,81.4
			c0-1.1-0.7-1.9-1.5-1.9c-0.9,0-1.5,0.8-1.5,1.9s0.6,1.9,1.5,1.9C86,83.3,86.7,82.5,86.7,81.4z"/>
		<path d="M88.4,79.2h0.3v0.7l0,0c0.4-0.4,0.9-0.8,1.5-0.8c0.9,0,1.3,0.5,1.3,1.7v2.8h-0.4v-2.7c0-0.9-0.3-1.4-1-1.4
			c-0.5,0-0.9,0.3-1.4,0.8v3.3h-0.3V79.2z"/>
	</g>
	<g>
		<path d="M260,83.2h1.4v-4.8h-1v-0.2c0.5-0.1,0.8-0.2,1.1-0.4h0.3v5.4h1.3v0.4h-3L260,83.2L260,83.2z"/>
		<path d="M263.9,83.3c1.9-1.9,2.8-3,2.8-4c0-0.7-0.4-1.3-1.3-1.3c-0.5,0-1,0.3-1.3,0.8l-0.3-0.3c0.4-0.5,0.9-0.8,1.6-0.8
			c1,0,1.6,0.6,1.6,1.6c0,1.1-1,2.2-2.6,3.9c0.3,0,0.6,0,1,0h2v0.4h-3.5L263.9,83.3L263.9,83.3z"/>
		<path d="M268.3,84.7c0.4-0.2,0.7-0.6,0.7-1.1h-0.1c-0.2,0-0.4-0.1-0.4-0.4s0.2-0.4,0.4-0.4c0.3,0,0.5,0.2,0.5,0.6
			c0,0.7-0.4,1.2-0.9,1.5L268.3,84.7z"/>
		<path d="M272.6,81.8H270v-0.2l2.7-3.8h0.4v3.7h0.9v0.3h-0.9v1.7h-0.4v-1.7H272.6z M272.6,81.5v-2.1c0-0.3,0-0.7,0-1l0,0
			c-0.1,0.2-0.3,0.5-0.5,0.7l-1.7,2.4H272.6z"/>
		<path d="M274.6,80.6c0-1.9,0.6-3,1.7-3s1.7,1.1,1.7,3s-0.6,3-1.7,3C275.2,83.7,274.6,82.6,274.6,80.6z M277.6,80.6
			c0-1.8-0.5-2.6-1.3-2.6s-1.3,0.9-1.3,2.6c0,1.8,0.5,2.7,1.3,2.7S277.6,82.4,277.6,80.6z"/>
		<path d="M278.8,83.3c1.9-1.9,2.8-3,2.8-4c0-0.7-0.4-1.3-1.3-1.3c-0.5,0-1,0.3-1.3,0.8l-0.3-0.3c0.4-0.5,0.9-0.8,1.6-0.8
			c1,0,1.6,0.6,1.6,1.6c0,1.1-1,2.2-2.6,3.9c0.3,0,0.6,0,1,0h2v0.4h-3.5L278.8,83.3L278.8,83.3z"/>
	</g>
	<g>
		<path d="M330.9,83.2h1.4v-4.8h-1v-0.2c0.5-0.1,0.8-0.2,1.1-0.4h0.3v5.4h1.3v0.4h-3L330.9,83.2L330.9,83.2z"/>
		<path d="M334.8,83.3c1.9-1.9,2.8-3,2.8-4c0-0.7-0.4-1.3-1.3-1.3c-0.5,0-1,0.3-1.3,0.8l-0.3-0.3c0.4-0.5,0.9-0.8,1.6-0.8
			c1,0,1.6,0.6,1.6,1.6c0,1.1-1,2.2-2.6,3.9c0.3,0,0.6,0,1,0h2v0.4h-3.5L334.8,83.3L334.8,83.3z"/>
		<path d="M339.2,84.7c0.4-0.2,0.7-0.6,0.7-1.1h-0.1c-0.2,0-0.4-0.1-0.4-0.4s0.2-0.4,0.4-0.4c0.3,0,0.5,0.2,0.5,0.6
			c0,0.7-0.4,1.2-0.9,1.5L339.2,84.7z"/>
		<path d="M344.1,78.1h-3v-0.4h3.5v0.2c-1.4,1.8-1.7,3.3-1.8,5.5h-0.4C342.5,81.2,343,79.8,344.1,78.1z"/>
		<path d="M345.4,80.6c0-1.9,0.6-3,1.7-3s1.7,1.1,1.7,3s-0.6,3-1.7,3C346.1,83.7,345.4,82.6,345.4,80.6z M348.5,80.6
			c0-1.8-0.5-2.6-1.3-2.6s-1.3,0.9-1.3,2.6c0,1.8,0.5,2.7,1.3,2.7S348.5,82.4,348.5,80.6z"/>
		<path d="M352.8,78.1h-3v-0.4h3.5v0.2c-1.4,1.8-1.7,3.3-1.8,5.5h-0.4C351.1,81.2,351.6,79.8,352.8,78.1z"/>
	</g>
	<g>
		<path d="M401.7,83.2h1.4v-4.8h-1v-0.2c0.5-0.1,0.8-0.2,1.1-0.4h0.3v5.4h1.3v0.4h-3L401.7,83.2L401.7,83.2z"/>
		<path d="M405.5,82.8l0.2-0.3c0.3,0.4,0.8,0.7,1.6,0.7c0.8,0,1.3-0.5,1.3-1.3s-0.6-1.3-2-1.3v-0.4c1.3,0,1.8-0.6,1.8-1.3
			c0-0.6-0.5-1.1-1.2-1.1c-0.5,0-1,0.3-1.3,0.6l-0.2-0.3c0.4-0.4,0.9-0.7,1.6-0.7c0.9,0,1.6,0.5,1.6,1.4c0,0.8-0.5,1.2-1.1,1.4l0,0
			c0.7,0.2,1.3,0.7,1.3,1.5c0,1-0.8,1.6-1.8,1.6C406.5,83.7,405.9,83.2,405.5,82.8z"/>
		<path d="M410,84.7c0.4-0.2,0.7-0.6,0.7-1.1h-0.1c-0.2,0-0.4-0.1-0.4-0.4s0.2-0.4,0.4-0.4c0.3,0,0.5,0.2,0.5,0.6
			c0,0.7-0.4,1.2-0.9,1.5L410,84.7z"/>
		<path d="M412.3,83.2h1.4v-4.8h-1v-0.2c0.5-0.1,0.8-0.2,1.1-0.4h0.3v5.4h1.3v0.4h-3L412.3,83.2L412.3,83.2z"/>
		<path d="M419.3,78.1h-3v-0.4h3.5v0.2c-1.4,1.8-1.7,3.3-1.8,5.5h-0.4C417.7,81.2,418.1,79.8,419.3,78.1z"/>
		<path d="M420.7,80.9c0-2.4,1-3.3,2.1-3.3c0.5,0,0.9,0.2,1.2,0.6l-0.2,0.3c-0.3-0.3-0.6-0.5-1-0.5c-0.9,0-1.7,0.7-1.7,2.8
			c0.4-0.5,0.9-0.8,1.4-0.8c1,0,1.6,0.6,1.6,1.8c0,1-0.7,1.8-1.6,1.8C421.4,83.7,420.7,82.7,420.7,80.9z M421.1,81.3
			c0.1,1.2,0.5,2,1.5,2c0.7,0,1.2-0.6,1.2-1.5s-0.4-1.4-1.2-1.4C422.1,80.4,421.5,80.6,421.1,81.3z"/>
	</g>
	<g>
		<path d="M472.6,83.2h1.4v-4.8h-1v-0.2c0.5-0.1,0.8-0.2,1.1-0.4h0.3v5.4h1.3v0.4h-3L472.6,83.2L472.6,83.2z"/>
		<path d="M476.4,82.8l0.2-0.3c0.3,0.4,0.8,0.7,1.6,0.7c0.8,0,1.3-0.5,1.3-1.3s-0.6-1.3-2-1.3v-0.4c1.3,0,1.8-0.6,1.8-1.3
			c0-0.6-0.5-1.1-1.2-1.1c-0.5,0-1,0.3-1.3,0.6l-0.2-0.3c0.4-0.4,0.9-0.7,1.6-0.7c0.9,0,1.6,0.5,1.6,1.4c0,0.8-0.5,1.2-1.1,1.4l0,0
			c0.7,0.2,1.3,0.7,1.3,1.5c0,1-0.8,1.6-1.8,1.6C477.3,83.7,476.8,83.2,476.4,82.8z"/>
		<path d="M480.9,84.7c0.4-0.2,0.7-0.6,0.7-1.1h-0.1c-0.2,0-0.4-0.1-0.4-0.4s0.2-0.4,0.4-0.4c0.3,0,0.5,0.2,0.5,0.6
			c0,0.7-0.4,1.2-0.9,1.5L480.9,84.7z"/>
		<path d="M485.2,81.8h-2.6v-0.2l2.7-3.8h0.4v3.7h0.9v0.3h-0.9v1.7h-0.4v-1.7H485.2z M485.2,81.5v-2.1c0-0.3,0-0.7,0-1l0,0
			c-0.1,0.2-0.3,0.5-0.5,0.7l-1.7,2.4H485.2z"/>
		<path d="M487,82.9l0.2-0.3c0.3,0.4,0.8,0.7,1.6,0.7c0.8,0,1.4-0.6,1.4-1.5s-0.5-1.5-1.4-1.5c-0.4,0-0.7,0.2-1.1,0.4l-0.3-0.2
			l0.2-2.7h2.7v0.4H488l-0.2,2.1c0.3-0.2,0.6-0.3,1-0.3c1,0,1.8,0.6,1.8,1.8c0,1.2-0.9,1.9-1.8,1.9S487.4,83.2,487,82.9z"/>
		<path d="M491.8,83.2h1.4v-4.8h-1v-0.2c0.5-0.1,0.8-0.2,1.1-0.4h0.3v5.4h1.3v0.4h-3L491.8,83.2L491.8,83.2z"/>
	</g>
	<g>
		<path d="M2.9,94.1c0-1.9,1-3.1,2.5-3.1c0.7,0,1.2,0.3,1.5,0.7L6.7,92c-0.3-0.4-0.8-0.6-1.3-0.6c-1.3,0-2.1,1-2.1,2.7
			s0.8,2.7,2.1,2.7c0.6,0,1.1-0.3,1.5-0.7l0.2,0.3c-0.5,0.5-1,0.8-1.8,0.8C3.9,97.2,2.9,96,2.9,94.1z"/>
		<path d="M8,94.9c0-1.5,0.9-2.3,1.9-2.3s1.9,0.8,1.9,2.3c0,1.4-0.9,2.3-1.9,2.3S8,96.4,8,94.9z M11.4,94.9c0-1.1-0.7-1.9-1.5-1.9
			c-0.9,0-1.5,0.8-1.5,1.9s0.6,1.9,1.5,1.9C10.8,96.9,11.4,96.1,11.4,94.9z"/>
		<path d="M13.1,92.8h0.3v0.7l0,0c0.4-0.4,0.9-0.8,1.5-0.8c0.9,0,1.3,0.5,1.3,1.7v2.8h-0.4v-2.7c0-0.9-0.3-1.4-1-1.4
			c-0.5,0-0.9,0.3-1.4,0.8v3.3H13v-4.4H13.1z"/>
		<path d="M17.4,96.6l0.2-0.3c0.4,0.3,0.8,0.5,1.4,0.5c0.7,0,1-0.4,1-0.9s-0.6-0.8-1.1-1c-0.7-0.2-1.3-0.5-1.3-1.2
			c0-0.6,0.5-1.2,1.4-1.2c0.5,0,0.9,0.2,1.2,0.5L20,93.3c-0.3-0.2-0.6-0.4-1-0.4c-0.7,0-1,0.4-1,0.8c0,0.5,0.5,0.7,1,0.9
			c0.7,0.3,1.4,0.5,1.4,1.3c0,0.6-0.5,1.2-1.5,1.2C18.3,97.2,17.8,96.9,17.4,96.6z"/>
		<path d="M21.5,95.5v-2.8h0.4v2.7c0,0.9,0.3,1.4,1,1.4c0.5,0,0.9-0.3,1.4-0.9v-3.2h0.4V97h-0.3v-0.7l0,0c-0.4,0.5-0.9,0.8-1.5,0.8
			C21.9,97.2,21.5,96.7,21.5,95.5z"/>
		<path d="M26.3,92.8h0.3v0.7l0,0c0.4-0.4,0.9-0.8,1.4-0.8c0.7,0,1,0.4,1.2,0.9c0.5-0.5,1-0.9,1.5-0.9c0.9,0,1.3,0.5,1.3,1.7v2.8
			h-0.4v-2.7c0-0.9-0.3-1.4-1-1.4c-0.4,0-0.8,0.3-1.3,0.8v3.3h-0.4v-2.7c0-0.9-0.3-1.4-1-1.4c-0.4,0-0.8,0.3-1.3,0.8v3.3h-0.4
			L26.3,92.8L26.3,92.8z"/>
		<path d="M33.6,92.8h0.3v0.5l0,0c0.4-0.3,0.9-0.6,1.5-0.6c1.2,0,1.7,0.9,1.7,2.2c0,1.5-0.9,2.3-1.9,2.3c-0.4,0-0.8-0.2-1.3-0.5v2.4
			h-0.4v-6.3H33.6z M36.8,94.9c0-1.1-0.4-1.9-1.4-1.9c-0.4,0-0.9,0.3-1.4,0.7v2.6c0.5,0.4,0.9,0.6,1.3,0.6
			C36.2,96.9,36.8,96,36.8,94.9z"/>
		<path d="M38.6,95.9v-2.8h-0.7v-0.3h0.7l0.1-1.3H39v1.3h1.3v0.3H39v2.8c0,0.5,0.1,0.9,0.7,0.9c0.2,0,0.4-0.1,0.5-0.1l0.1,0.3
			c-0.3,0.1-0.5,0.2-0.7,0.2C38.9,97.2,38.6,96.7,38.6,95.9z"/>
		<path d="M41.2,91.4c0-0.2,0.1-0.4,0.3-0.4s0.3,0.1,0.3,0.4c0,0.2-0.1,0.4-0.3,0.4S41.2,91.6,41.2,91.4z M41.3,92.8h0.4v4.3h-0.4
			V92.8z"/>
		<path d="M43,94.9c0-1.5,0.9-2.3,1.9-2.3s1.9,0.8,1.9,2.3c0,1.4-0.9,2.3-1.9,2.3S43,96.4,43,94.9z M46.5,94.9
			c0-1.1-0.7-1.9-1.5-1.9c-0.9,0-1.5,0.8-1.5,1.9s0.6,1.9,1.5,1.9C45.9,96.9,46.5,96.1,46.5,94.9z"/>
		<path d="M48.2,92.8h0.3v0.7l0,0c0.4-0.4,0.9-0.8,1.5-0.8c0.9,0,1.3,0.5,1.3,1.7v2.8h-0.4v-2.7c0-0.9-0.3-1.4-1-1.4
			c-0.5,0-0.9,0.3-1.4,0.8v3.3h-0.4v-4.4H48.2z"/>
	</g>
	<g>
		<path d="M260,96.7h1.4v-4.8h-1v-0.3c0.5-0.1,0.8-0.2,1.1-0.4h0.3v5.4h1.3V97h-3L260,96.7L260,96.7z"/>
		<path d="M263.9,96.8c1.9-1.9,2.8-3,2.8-4c0-0.7-0.4-1.3-1.3-1.3c-0.5,0-1,0.3-1.3,0.8l-0.3-0.3c0.4-0.5,0.9-0.8,1.6-0.8
			c1,0,1.6,0.6,1.6,1.6c0,1.1-1,2.2-2.6,3.9c0.3,0,0.6,0,1,0h2v0.4h-3.5L263.9,96.8L263.9,96.8z"/>
		<path d="M268.3,98.2c0.4-0.2,0.7-0.6,0.7-1.1h-0.1c-0.2,0-0.4-0.1-0.4-0.4s0.2-0.4,0.4-0.4c0.3,0,0.5,0.2,0.5,0.6
			c0,0.7-0.4,1.2-0.9,1.5L268.3,98.2z"/>
		<path d="M270.3,94.5c0-2.4,1-3.3,2.1-3.3c0.5,0,0.9,0.2,1.2,0.6l-0.2,0.3c-0.3-0.3-0.6-0.5-1-0.5c-0.9,0-1.7,0.7-1.7,2.8
			c0.4-0.5,0.9-0.8,1.4-0.8c1,0,1.6,0.6,1.6,1.8c0,1-0.7,1.8-1.6,1.8C271,97.2,270.3,96.2,270.3,94.5z M270.7,94.8
			c0.1,1.2,0.5,2,1.5,2c0.7,0,1.2-0.6,1.2-1.5s-0.4-1.4-1.2-1.4C271.7,94,271.2,94.2,270.7,94.8z"/>
		<path d="M274.5,95.6c0-0.8,0.6-1.3,1.2-1.6l0,0c-0.4-0.3-0.8-0.7-0.8-1.3c0-0.8,0.7-1.4,1.5-1.4c1,0,1.6,0.6,1.6,1.5
			c0,0.6-0.5,1.2-0.8,1.5l0,0c0.5,0.3,1,0.7,1,1.5s-0.7,1.5-1.7,1.5C275.3,97.2,274.5,96.5,274.5,95.6z M277.7,95.7
			c0-0.9-0.9-1.2-1.8-1.5c-0.6,0.3-1,0.8-1,1.5s0.6,1.3,1.4,1.3C277.1,96.9,277.7,96.4,277.7,95.7z M277.5,92.7
			c0-0.6-0.4-1.2-1.2-1.2c-0.6,0-1.1,0.5-1.1,1.1c0,0.8,0.8,1.1,1.5,1.4C277.2,93.7,277.5,93.2,277.5,92.7z"/>
		<path d="M279.2,96.7h1.4v-4.8h-1v-0.3c0.5-0.1,0.8-0.2,1.1-0.4h0.3v5.4h1.3V97h-3L279.2,96.7L279.2,96.7z"/>
	</g>
	<g>
		<path d="M330.9,96.7h1.4v-4.8h-1v-0.3c0.5-0.1,0.8-0.2,1.1-0.4h0.3v5.4h1.3V97h-3L330.9,96.7L330.9,96.7z"/>
		<path d="M334.8,96.8c1.9-1.9,2.8-3,2.8-4c0-0.7-0.4-1.3-1.3-1.3c-0.5,0-1,0.3-1.3,0.8l-0.3-0.3c0.4-0.5,0.9-0.8,1.6-0.8
			c1,0,1.6,0.6,1.6,1.6c0,1.1-1,2.2-2.6,3.9c0.3,0,0.6,0,1,0h2v0.4h-3.5L334.8,96.8L334.8,96.8z"/>
		<path d="M339.2,98.2c0.4-0.2,0.7-0.6,0.7-1.1h-0.1c-0.2,0-0.4-0.1-0.4-0.4s0.2-0.4,0.4-0.4c0.3,0,0.5,0.2,0.5,0.6
			c0,0.7-0.4,1.2-0.9,1.5L339.2,98.2z"/>
		<path d="M341.2,96.6l0.2-0.3c0.3,0.3,0.6,0.5,1,0.5c0.9,0,1.7-0.7,1.7-2.8c-0.4,0.5-0.9,0.8-1.5,0.8c-1,0-1.6-0.6-1.6-1.8
			c0-1,0.7-1.8,1.6-1.8c1.1,0,1.9,1,1.9,2.7c0,2.4-1,3.3-2.1,3.3C341.9,97.2,341.5,97,341.2,96.6z M342.7,94.5c0.4,0,1-0.3,1.4-0.9
			c-0.1-1.2-0.5-2-1.5-2c-0.7,0-1.2,0.6-1.2,1.4C341.5,93.9,341.9,94.5,342.7,94.5z"/>
		<path d="M345.3,96.4l0.2-0.3c0.3,0.4,0.8,0.7,1.6,0.7c0.8,0,1.3-0.5,1.3-1.3s-0.6-1.3-2-1.3v-0.4c1.3,0,1.8-0.6,1.8-1.3
			c0-0.6-0.5-1.1-1.2-1.1c-0.5,0-1,0.3-1.3,0.6l-0.2-0.3c0.4-0.4,0.9-0.7,1.6-0.7c0.9,0,1.6,0.5,1.6,1.4c0,0.8-0.5,1.2-1.1,1.4l0,0
			c0.7,0.2,1.3,0.7,1.3,1.5c0,1-0.8,1.6-1.8,1.6C346.2,97.2,345.6,96.8,345.3,96.4z"/>
		<path d="M349.6,96.4l0.2-0.3c0.3,0.4,0.8,0.7,1.6,0.7c0.8,0,1.4-0.6,1.4-1.5s-0.5-1.5-1.4-1.5c-0.4,0-0.7,0.2-1.1,0.4L350,94
			l0.2-2.7h2.7v0.4h-2.3l-0.2,2.1c0.3-0.2,0.6-0.3,1-0.3c1,0,1.8,0.6,1.8,1.8c0,1.2-0.9,1.9-1.8,1.9
			C350.5,97.2,349.9,96.8,349.6,96.4z"/>
	</g>
	<g>
		<path d="M401.7,96.7h1.4v-4.8h-1v-0.3c0.5-0.1,0.8-0.2,1.1-0.4h0.3v5.4h1.3V97h-3L401.7,96.7L401.7,96.7z"/>
		<path d="M405.5,96.4l0.2-0.3c0.3,0.4,0.8,0.7,1.6,0.7c0.8,0,1.3-0.5,1.3-1.3s-0.6-1.3-2-1.3v-0.4c1.3,0,1.8-0.6,1.8-1.3
			c0-0.6-0.5-1.1-1.2-1.1c-0.5,0-1,0.3-1.3,0.6l-0.2-0.3c0.4-0.4,0.9-0.7,1.6-0.7c0.9,0,1.6,0.5,1.6,1.4c0,0.8-0.5,1.2-1.1,1.4l0,0
			c0.7,0.2,1.3,0.7,1.3,1.5c0,1-0.8,1.6-1.8,1.6C406.5,97.2,405.9,96.8,405.5,96.4z"/>
		<path d="M410,98.2c0.4-0.2,0.7-0.6,0.7-1.1h-0.1c-0.2,0-0.4-0.1-0.4-0.4s0.2-0.4,0.4-0.4c0.3,0,0.5,0.2,0.5,0.6
			c0,0.7-0.4,1.2-0.9,1.5L410,98.2z"/>
		<path d="M411.9,96.8c1.9-1.9,2.8-3,2.8-4c0-0.7-0.4-1.3-1.3-1.3c-0.5,0-1,0.3-1.3,0.8l-0.3-0.3c0.4-0.5,0.9-0.8,1.6-0.8
			c1,0,1.6,0.6,1.6,1.6c0,1.1-1,2.2-2.6,3.9c0.3,0,0.6,0,1,0h2v0.4h-3.5L411.9,96.8L411.9,96.8z"/>
		<path d="M416.3,94.2c0-1.9,0.6-3,1.7-3s1.7,1.1,1.7,3s-0.6,3-1.7,3S416.3,96.1,416.3,94.2z M419.3,94.2c0-1.8-0.5-2.6-1.3-2.6
			s-1.3,0.9-1.3,2.6c0,1.8,0.5,2.7,1.3,2.7S419.3,96,419.3,94.2z"/>
		<path d="M423.6,91.7h-3v-0.4h3.5v0.2c-1.4,1.8-1.7,3.3-1.8,5.5h-0.4C422,94.8,422.5,93.3,423.6,91.7z"/>
	</g>
	<g>
		<path d="M472.6,96.7h1.4v-4.8h-1v-0.3c0.5-0.1,0.8-0.2,1.1-0.4h0.3v5.4h1.3V97h-3L472.6,96.7L472.6,96.7z"/>
		<path d="M476.4,96.4l0.2-0.3c0.3,0.4,0.8,0.7,1.6,0.7c0.8,0,1.3-0.5,1.3-1.3s-0.6-1.3-2-1.3v-0.4c1.3,0,1.8-0.6,1.8-1.3
			c0-0.6-0.5-1.1-1.2-1.1c-0.5,0-1,0.3-1.3,0.6l-0.2-0.3c0.4-0.4,0.9-0.7,1.6-0.7c0.9,0,1.6,0.5,1.6,1.4c0,0.8-0.5,1.2-1.1,1.4l0,0
			c0.7,0.2,1.3,0.7,1.3,1.5c0,1-0.8,1.6-1.8,1.6C477.3,97.2,476.8,96.8,476.4,96.4z"/>
		<path d="M480.9,98.2c0.4-0.2,0.7-0.6,0.7-1.1h-0.1c-0.2,0-0.4-0.1-0.4-0.4s0.2-0.4,0.4-0.4c0.3,0,0.5,0.2,0.5,0.6
			c0,0.7-0.4,1.2-0.9,1.5L480.9,98.2z"/>
		<path d="M485.2,95.4h-2.6v-0.2l2.7-3.8h0.4v3.7h0.9v0.3h-0.9v1.7h-0.4v-1.7H485.2z M485.2,95v-2.1c0-0.3,0-0.7,0-1l0,0
			c-0.1,0.2-0.3,0.5-0.5,0.7L483,95H485.2z"/>
		<path d="M487.1,96.8c1.9-1.9,2.8-3,2.8-4c0-0.7-0.4-1.3-1.3-1.3c-0.5,0-1,0.3-1.3,0.8L487,92c0.4-0.5,0.9-0.8,1.6-0.8
			c1,0,1.6,0.6,1.6,1.6c0,1.1-1,2.2-2.6,3.9c0.3,0,0.6,0,1,0h2v0.4h-3.5L487.1,96.8L487.1,96.8z"/>
		<path d="M491.6,96.6l0.2-0.3c0.3,0.3,0.6,0.5,1,0.5c0.9,0,1.7-0.7,1.7-2.8c-0.4,0.5-0.9,0.8-1.5,0.8c-1,0-1.6-0.6-1.6-1.8
			c0-1,0.7-1.8,1.6-1.8c1.1,0,1.9,1,1.9,2.7c0,2.4-1,3.3-2.1,3.3C492.2,97.2,491.9,97,491.6,96.6z M493.1,94.5c0.4,0,1-0.3,1.4-0.9
			c-0.1-1.2-0.5-2-1.5-2c-0.7,0-1.2,0.6-1.2,1.4C491.8,93.9,492.2,94.5,493.1,94.5z"/>
	</g>
</g>
</svg>
