<?xml version="1.0" encoding="utf-8"?>
<!-- Generator: Adobe Illustrator 23.0.3, SVG Export Plug-In . SVG Version: 6.00 Build 0)  -->
<svg version="1.1" id="Layer_1" xmlns="http://www.w3.org/2000/svg" xmlns:xlink="http://www.w3.org/1999/xlink" x="0px" y="0px"
	 viewBox="0 0 1000 485" style="enable-background:new 0 0 1000 485;" xml:space="preserve">
<style type="text/css">
	.st0{fill:#ABD592;}
	.st1{fill:#54371E;}
	.st2{fill:#231F20;}
	.st3{fill:#231F20;stroke:#000000;stroke-width:0.75;stroke-miterlimit:10;}
	.st4{fill:none;stroke:#000000;stroke-width:2;}
</style>
<rect x="219.8" y="130.3" class="st0" width="685.9" height="36.9"/>
<rect x="219.8" y="200" class="st1" width="448.5" height="36.9"/>
<rect x="219.8" y="269.6" class="st0" width="371.1" height="36.9"/>
<rect x="219.8" y="338.3" class="st0" width="173.4" height="36.9"/>
<rect x="219.8" y="408" class="st0" width="169" height="36.9"/>
<g>
	<path class="st2" d="M5.1,31.6v-27h6.1v21.8h10.7v5.1H5.1V31.6z"/>
	<path class="st2" d="M26.5,31.6v-27h16.9v5.1H32.5v5.4h9.2v5.2h-9.2v6.2h11.2v5.1H26.5z"/>
	<path class="st2" d="M45.7,31.6l8.4-27h7.3l8.4,27h-6.5l-1.7-6.4h-8.2l-1.7,6.4H45.7z M55.5,18l-0.7,2.5h5.7L59.9,18
		c-0.4-1.4-0.8-2.8-1.1-4.3c-0.4-1.5-0.7-3-1.1-4.4h-0.2c-0.3,1.4-0.7,2.9-1,4.4C56.2,15.2,55.9,16.6,55.5,18z"/>
	<path class="st2" d="M72.8,31.6v-27h7.6c2.1,0,3.9,0.3,5.6,0.8s3.1,1.3,4.3,2.4c1.2,1.1,2.1,2.5,2.7,4.2s1,3.7,1,6s-0.3,4.3-1,6
		c-0.6,1.7-1.5,3.1-2.7,4.2s-2.5,2-4.2,2.5c-1.6,0.6-3.4,0.8-5.4,0.8L72.8,31.6L72.8,31.6z M78.8,26.7H80c1.2,0,2.2-0.2,3.1-0.5
		s1.7-0.8,2.4-1.5c0.7-0.7,1.2-1.6,1.6-2.7s0.6-2.5,0.6-4.1s-0.2-2.9-0.6-4s-0.9-2-1.6-2.6s-1.5-1.1-2.4-1.4c-0.9-0.3-2-0.4-3.1-0.4
		h-1.2V26.7z"/>
	<path class="st2" d="M99,31.6v-27h6.1v27H99z"/>
	<path class="st2" d="M111.4,31.6v-27h6.2l7,13.4l2.6,6h0.2c-0.1-1.4-0.3-3-0.5-4.8s-0.3-3.4-0.3-5V4.7h5.8v27h-6.2l-7-13.4
		l-2.6-5.9h-0.2c0.1,1.5,0.3,3.1,0.5,4.8c0.2,1.7,0.3,3.4,0.3,5v9.6h-5.8V31.6z"/>
	<path class="st2" d="M150.9,32.1c-1.8,0-3.6-0.3-5.2-0.9c-1.6-0.6-3-1.5-4.2-2.6c-1.2-1.2-2.1-2.6-2.8-4.3s-1-3.7-1-6
		c0-2.2,0.3-4.2,1-6s1.6-3.2,2.8-4.4s2.6-2.1,4.2-2.8c1.6-0.6,3.3-1,5.1-1c2,0,3.6,0.4,5,1.1s2.5,1.5,3.4,2.4l-3.2,3.9
		c-0.7-0.6-1.4-1.1-2.2-1.5s-1.7-0.6-2.9-0.6c-1,0-2,0.2-2.9,0.6c-0.9,0.4-1.6,1-2.3,1.7c-0.6,0.7-1.1,1.7-1.5,2.7
		c-0.3,1.1-0.5,2.3-0.5,3.6c0,2.8,0.6,4.9,1.9,6.5c1.3,1.5,3.1,2.3,5.7,2.3c0.6,0,1.1-0.1,1.6-0.2s1-0.3,1.3-0.6v-4.6h-4.3v-5h9.8
		v12.4c-0.9,0.9-2.2,1.7-3.7,2.3C154.6,31.8,152.8,32.1,150.9,32.1z"/>
	<path class="st2" d="M171.9,31.6v-3.7l11.9-18.2H173v-5h18.3v3.6l-11.9,18.2h12v5.1H171.9z"/>
	<path class="st2" d="M196.1,31.6v-27h6.1v27H196.1z"/>
	<path class="st2" d="M208.4,31.6v-27h6.2l7,13.4l2.6,6h0.2c-0.1-1.4-0.3-3-0.5-4.8s-0.3-3.4-0.3-5V4.7h5.8v27h-6.2l-7-13.4
		l-2.6-5.9h-0.2c0.1,1.5,0.3,3.1,0.5,4.8c0.2,1.7,0.3,3.4,0.3,5v9.6h-5.8V31.6z"/>
	<path class="st2" d="M247.3,32.1c-1.7,0-3.3-0.3-4.8-0.9s-2.8-1.5-4-2.6c-1.1-1.2-2-2.6-2.7-4.3s-1-3.7-1-6c0-2.2,0.3-4.2,1-6
		s1.6-3.2,2.8-4.4s2.5-2.1,4.1-2.8c1.5-0.6,3.2-1,4.9-1s3.3,0.4,4.7,1.1s2.5,1.5,3.4,2.5l-3.2,3.9c-0.7-0.6-1.4-1.2-2.2-1.6
		c-0.8-0.4-1.6-0.6-2.6-0.6c-0.9,0-1.8,0.2-2.6,0.6c-0.8,0.4-1.5,1-2.1,1.7s-1.1,1.7-1.4,2.7c-0.3,1.1-0.5,2.3-0.5,3.6
		c0,2.8,0.6,4.9,1.8,6.5c1.2,1.5,2.8,2.3,4.8,2.3c1.1,0,2.1-0.2,3-0.7s1.6-1.1,2.3-1.8l3.2,3.8C253.6,30.8,250.8,32.1,247.3,32.1z"
		/>
	<path class="st2" d="M267,23.3V19h10.2v4.3H267z"/>
	<path class="st2" d="M290.4,31.6v-27h6.1v21.8h10.7v5.1h-16.8L290.4,31.6L290.4,31.6z"/>
	<path class="st2" d="M311.8,31.6v-27h16.9v5.1h-10.8v5.4h9.2v5.2h-9.2v6.2h11.2v5.1H311.8z"/>
	<path class="st2" d="M331,31.6l8.4-27h7.3l8.4,27h-6.5l-1.7-6.4h-8.2l-1.7,6.4H331z M340.8,18l-0.7,2.5h5.7l-0.6-2.5
		c-0.4-1.4-0.8-2.8-1.1-4.3c-0.4-1.5-0.7-3-1.1-4.4h-0.2c-0.3,1.4-0.7,2.9-1,4.4C341.5,15.2,341.2,16.6,340.8,18z"/>
	<path class="st2" d="M358.1,31.6v-27h7.6c2.1,0,3.9,0.3,5.6,0.8s3.1,1.3,4.3,2.4c1.2,1.1,2.1,2.5,2.7,4.2s1,3.7,1,6s-0.3,4.3-1,6
		c-0.6,1.7-1.5,3.1-2.7,4.2s-2.5,2-4.2,2.5c-1.6,0.6-3.4,0.8-5.4,0.8L358.1,31.6L358.1,31.6z M364.2,26.7h1.2c1.2,0,2.2-0.2,3.1-0.5
		s1.7-0.8,2.4-1.5c0.7-0.7,1.2-1.6,1.6-2.7s0.6-2.5,0.6-4.1s-0.2-2.9-0.6-4s-0.9-2-1.6-2.6s-1.5-1.1-2.4-1.4c-0.9-0.3-2-0.4-3.1-0.4
		h-1.2V26.7z"/>
	<path class="st2" d="M392.7,31.6v-27h6.7l4.3,12c0.3,0.8,0.5,1.6,0.8,2.5c0.2,0.8,0.5,1.7,0.8,2.5h0.2c0.3-0.8,0.5-1.7,0.8-2.5
		c0.2-0.8,0.5-1.7,0.8-2.5l4.3-12h6.6v27h-5.5v-9.9c0-0.7,0-1.4,0.1-2.2c0.1-0.8,0.1-1.6,0.2-2.4s0.2-1.6,0.2-2.4s0.2-1.5,0.2-2.2
		H413l-2.2,6.4l-3.9,10.4h-3.3L399.8,19l-2.2-6.4h-0.2c0.1,0.7,0.2,1.4,0.2,2.2c0.1,0.8,0.2,1.6,0.2,2.4c0.1,0.8,0.2,1.6,0.2,2.4
		c0.1,0.8,0.1,1.5,0.1,2.2v9.9h-5.4V31.6z"/>
	<path class="st2" d="M424.2,31.6v-27h6.1v27H424.2z"/>
	<path class="st2" d="M436.6,31.6v-27h6.2l7,13.4l2.6,6h0.2c-0.1-1.4-0.3-3-0.5-4.8s-0.3-3.4-0.3-5V4.7h5.8v27h-6.2l-7-13.4
		l-2.6-5.9h-0.2c0.1,1.5,0.3,3.1,0.5,4.8c0.2,1.7,0.3,3.4,0.3,5v9.6h-5.8V31.6z"/>
	<path class="st2" d="M464.1,31.6v-27H481v5.1h-10.8v5.4h9.2v5.2h-9.2v6.2h11.2v5.1H464.1z"/>
	<path class="st2" d="M486.8,31.6v-27h9.7c1.4,0,2.8,0.1,4,0.4c1.3,0.3,2.4,0.7,3.3,1.4c0.9,0.6,1.7,1.5,2.2,2.6s0.8,2.4,0.8,4
		c0,2-0.4,3.6-1.3,4.9s-2,2.2-3.5,2.9l6.1,10.8h-6.8l-5.2-9.7h-3.3v9.7C492.8,31.6,486.8,31.6,486.8,31.6z M492.9,17.1h3.1
		c1.6,0,2.8-0.3,3.7-1c0.8-0.7,1.3-1.7,1.3-3s-0.4-2.2-1.3-2.8c-0.8-0.5-2.1-0.8-3.7-0.8h-3.1V17.1z"/>
	<path class="st2" d="M519.8,32.1c-1.8,0-3.5-0.3-5.3-1c-1.8-0.6-3.3-1.6-4.7-2.9l3.5-4.2c1,0.8,2,1.5,3.2,2s2.3,0.8,3.5,0.8
		c1.3,0,2.2-0.2,2.8-0.7s0.9-1.1,0.9-1.9c0-0.4-0.1-0.8-0.3-1.1c-0.2-0.3-0.4-0.6-0.8-0.8c-0.3-0.2-0.8-0.5-1.2-0.7
		c-0.5-0.2-1-0.4-1.6-0.7l-3.5-1.5c-0.7-0.3-1.4-0.6-2-1.1c-0.6-0.4-1.2-1-1.7-1.6s-0.9-1.3-1.2-2.1c-0.3-0.8-0.5-1.7-0.5-2.7
		c0-1.1,0.2-2.1,0.7-3.1s1.1-1.8,2-2.6c0.9-0.7,1.9-1.3,3-1.7s2.5-0.6,3.9-0.6c1.6,0,3.1,0.3,4.7,0.9c1.5,0.6,2.9,1.5,4,2.6
		l-3.1,3.8c-0.9-0.7-1.8-1.2-2.6-1.6c-0.9-0.4-1.9-0.6-2.9-0.6s-1.9,0.2-2.5,0.6c-0.6,0.4-0.9,1-0.9,1.8c0,0.4,0.1,0.8,0.3,1.1
		s0.5,0.6,0.9,0.8s0.8,0.5,1.3,0.7s1,0.4,1.6,0.7l3.5,1.4c1.7,0.7,3,1.6,3.9,2.7c1,1.2,1.4,2.7,1.4,4.6c0,1.1-0.2,2.2-0.7,3.2
		s-1.1,1.9-2,2.6c-0.9,0.8-1.9,1.4-3.2,1.8C522.8,31.9,521.4,32.1,519.8,32.1z"/>
</g>
<g>
	<path class="st3" d="M7.8,69.4c-1.1-1.8-2-3.7-2.6-5.7c-0.6-2-0.9-4.2-0.9-6.5c0-2.4,0.3-4.5,0.9-6.5s1.5-3.9,2.6-5.7l0.7,0.4
		C7.3,47.1,6.6,49,6.1,51s-0.8,4.1-0.8,6.2s0.3,4.2,0.8,6.2s1.3,3.8,2.4,5.6L7.8,69.4z"/>
	<path class="st3" d="M11.9,64.7V47h1.7l3.7,10.4c0.2,0.6,0.5,1.3,0.7,1.9c0.2,0.7,0.5,1.3,0.7,2h0.1c0.2-0.7,0.5-1.3,0.7-2
		s0.4-1.3,0.7-1.9L24,47h1.8v17.7h-1.2V53.1c0-0.7,0-1.5,0.1-2.4c0-0.9,0.1-1.7,0.1-2.4h-0.1l-1.4,4l-3.8,10.5h-1.1l-3.8-10.5
		l-1.4-4H13c0,0.8,0.1,1.6,0.1,2.4c0,0.9,0.1,1.6,0.1,2.4v11.6H11.9z"/>
	<path class="st3" d="M31.4,48.7c-0.3,0-0.6-0.1-0.8-0.3c-0.2-0.2-0.3-0.4-0.3-0.8c0-0.3,0.1-0.6,0.3-0.8c0.2-0.2,0.5-0.3,0.8-0.3
		s0.6,0.1,0.8,0.3s0.3,0.5,0.3,0.8s-0.1,0.6-0.3,0.8C32,48.6,31.7,48.7,31.4,48.7z M30.8,64.7V51.8H32v12.9H30.8z"/>
	<path class="st3" d="M37,64.7V51.8h1l0.1,2h0.1c0.7-0.7,1.3-1.2,2-1.7c0.7-0.4,1.5-0.7,2.4-0.7c1.3,0,2.3,0.4,3,1.2
		c0.6,0.8,0.9,2.1,0.9,3.7v8.3h-1.2v-8.1c0-1.4-0.2-2.4-0.7-3.1c-0.5-0.7-1.2-1-2.3-1c-0.8,0-1.5,0.2-2.1,0.6
		c-0.6,0.4-1.3,1-2.1,1.8v9.7H37V64.7z"/>
	<path class="st3" d="M56.2,65c-0.8,0-1.6-0.2-2.3-0.5s-1.4-0.7-1.9-1.3s-1-1.3-1.3-2.1s-0.5-1.8-0.5-2.8c0-1.1,0.2-2,0.5-2.8
		s0.7-1.6,1.3-2.1c0.5-0.6,1.1-1,1.8-1.3s1.4-0.5,2.1-0.5c1.5,0,2.8,0.5,3.6,1.6s1.3,2.5,1.3,4.4c0,0.2,0,0.3,0,0.5s0,0.3-0.1,0.5
		h-9.3c0,0.8,0.1,1.6,0.4,2.2c0.2,0.7,0.6,1.3,1,1.8s0.9,0.9,1.5,1.2s1.3,0.4,2,0.4s1.3-0.1,1.9-0.3c0.6-0.2,1.1-0.5,1.6-0.8
		l0.5,0.9c-0.5,0.3-1.1,0.6-1.7,0.9C57.9,64.9,57,65,56.2,65z M51.4,57.5h8.2c0-1.7-0.3-2.9-1-3.7s-1.6-1.2-2.8-1.2
		c-0.6,0-1.1,0.1-1.6,0.3s-1,0.6-1.4,1s-0.7,1-1,1.6C51.7,56,51.5,56.7,51.4,57.5z"/>
	<path class="st3" d="M68.4,65c-1.6,0-2.9-0.6-3.9-1.7c-1-1.2-1.5-2.8-1.5-5c0-1,0.2-2,0.5-2.8s0.7-1.6,1.2-2.2s1.1-1,1.8-1.4
		c0.7-0.3,1.4-0.5,2.2-0.5c0.8,0,1.5,0.1,2.1,0.4c0.6,0.3,1.2,0.7,1.8,1.2l-0.1-2.4v-5.3h1.2v19.3h-1l-0.1-1.7h-0.1
		c-0.5,0.5-1.1,1-1.8,1.4C70.1,64.8,69.3,65,68.4,65z M68.6,64c0.7,0,1.4-0.2,2.1-0.6s1.3-0.9,2-1.6v-7.7c-0.7-0.6-1.3-1-1.9-1.3
		s-1.2-0.4-1.8-0.4c-0.6,0-1.2,0.1-1.8,0.4s-1,0.7-1.4,1.2s-0.7,1.1-1,1.8c-0.2,0.7-0.3,1.5-0.3,2.3c0,0.9,0.1,1.6,0.3,2.3
		c0.2,0.7,0.5,1.3,0.8,1.8c0.4,0.5,0.8,0.9,1.3,1.2C67.3,63.8,67.9,64,68.6,64z"/>
	<path class="st3" d="M84.3,64.7V51.8h1l0.1,2h0.1c0.6-0.7,1.2-1.2,1.9-1.7c0.7-0.4,1.4-0.7,2.1-0.7c1,0,1.8,0.2,2.4,0.7
		s0.9,1.1,1.2,1.9c0.8-0.8,1.5-1.4,2.2-1.9s1.4-0.7,2.2-0.7c2.6,0,3.9,1.6,3.9,4.9v8.3h-1.2v-8.1c0-1.4-0.2-2.4-0.7-3.1
		c-0.5-0.7-1.2-1-2.2-1c-1.2,0-2.5,0.8-3.9,2.4v9.7h-1.2v-8.1c0-1.4-0.2-2.4-0.7-3.1c-0.5-0.7-1.2-1-2.2-1c-1.2,0-2.5,0.8-3.9,2.4
		v9.7h-1.1C84.3,64.4,84.3,64.7,84.3,64.7z"/>
	<path class="st3" d="M110.9,65c-0.8,0-1.6-0.2-2.3-0.5c-0.7-0.3-1.4-0.7-1.9-1.3s-1-1.3-1.3-2.1s-0.5-1.8-0.5-2.8
		c0-1.1,0.2-2,0.5-2.8s0.7-1.6,1.3-2.1c0.5-0.6,1.1-1,1.8-1.3c0.7-0.3,1.4-0.5,2.1-0.5c1.5,0,2.8,0.5,3.6,1.6s1.3,2.5,1.3,4.4
		c0,0.2,0,0.3,0,0.5s0,0.3-0.1,0.5h-9.3c0,0.8,0.1,1.6,0.4,2.2c0.2,0.7,0.6,1.3,1,1.8s0.9,0.9,1.5,1.2s1.3,0.4,2,0.4
		s1.3-0.1,1.9-0.3s1.1-0.5,1.6-0.8L115,64c-0.5,0.3-1.1,0.6-1.7,0.9C112.6,64.9,111.8,65,110.9,65z M106.1,57.5h8.2
		c0-1.7-0.3-2.9-1-3.7s-1.6-1.2-2.8-1.2c-0.6,0-1.1,0.1-1.6,0.3s-1,0.6-1.4,1s-0.7,1-1,1.6C106.4,56,106.3,56.7,106.1,57.5z"/>
	<path class="st3" d="M122.3,65c-0.6,0-1.1-0.1-1.6-0.3c-0.4-0.2-0.7-0.5-1-0.8s-0.4-0.8-0.5-1.2c-0.1-0.5-0.1-1-0.1-1.6v-8.3h-2
		v-0.9l2-0.1l0.2-3.7h1v3.7h3.7v1h-3.7v8.4c0,0.4,0,0.8,0.1,1.1s0.2,0.6,0.3,0.9c0.2,0.2,0.4,0.4,0.7,0.6c0.3,0.1,0.6,0.2,1.1,0.2
		c0.3,0,0.5,0,0.8-0.1s0.6-0.2,0.8-0.3l0.3,1c-0.4,0.1-0.8,0.3-1.1,0.3C122.8,65,122.5,65,122.3,65z"/>
	<path class="st3" d="M129.4,65c-0.5,0-1-0.1-1.5-0.2c-0.4-0.1-0.8-0.4-1.2-0.6s-0.6-0.7-0.8-1.1c-0.2-0.4-0.3-1-0.3-1.6
		c0-1.4,0.7-2.5,2-3.3c1.3-0.7,3.4-1.3,6.3-1.6c0-0.5,0-1-0.1-1.5s-0.2-0.9-0.5-1.3c-0.2-0.4-0.5-0.7-0.9-0.9s-0.9-0.4-1.6-0.4
		c-0.9,0-1.6,0.2-2.4,0.5c-0.7,0.3-1.3,0.7-1.7,1l-0.5-0.9c0.2-0.2,0.5-0.3,0.8-0.5s0.7-0.4,1.1-0.5c0.4-0.2,0.9-0.3,1.3-0.4
		c0.5-0.1,1-0.2,1.5-0.2c0.8,0,1.4,0.1,1.9,0.4c0.5,0.3,0.9,0.6,1.3,1.1c0.3,0.4,0.6,1,0.7,1.6c0.1,0.6,0.2,1.3,0.2,1.9v8.3h-1
		l-0.1-1.7l0,0c-0.7,0.5-1.4,1-2.1,1.4S130.3,65,129.4,65z M129.6,64c0.8,0,1.5-0.2,2.2-0.5c0.7-0.4,1.4-0.9,2.2-1.6v-4.4
		c-1.3,0.2-2.4,0.4-3.4,0.6c-0.9,0.2-1.6,0.5-2.2,0.8c-0.6,0.3-1,0.7-1.2,1.1c-0.2,0.4-0.4,0.9-0.4,1.4s0.1,0.9,0.2,1.2
		s0.3,0.6,0.6,0.8c0.3,0.2,0.5,0.4,0.9,0.5C128.9,64,129.3,64,129.6,64z"/>
	<path class="st3" d="M141.3,65c-1.1,0-1.6-0.7-1.6-2V45.4h1.2v17.8c0,0.3,0.1,0.5,0.2,0.6c0.1,0.1,0.2,0.2,0.4,0.2
		c0.1,0,0.1,0,0.2,0c0.1,0,0.2,0,0.3-0.1l0.2,1c-0.1,0-0.3,0.1-0.4,0.1C141.8,65,141.6,65,141.3,65z"/>
	<path class="st3" d="M151.6,70.5V51.8h1l0.1,1.6h0.1c0.6-0.5,1.3-0.9,2.1-1.3c0.7-0.4,1.5-0.6,2.3-0.6c1.7,0,3,0.6,3.9,1.8
		s1.3,2.8,1.3,4.8c0,1.1-0.2,2.1-0.5,2.9c-0.3,0.9-0.7,1.6-1.3,2.2c-0.5,0.6-1.1,1.1-1.8,1.4s-1.4,0.5-2.2,0.5
		c-0.6,0-1.2-0.1-1.9-0.4c-0.6-0.3-1.3-0.7-2-1.2v7.1L151.6,70.5L151.6,70.5L151.6,70.5z M156.6,64c0.6,0,1.2-0.1,1.8-0.4
		s1-0.7,1.4-1.2s0.7-1.1,0.9-1.9c0.2-0.7,0.3-1.5,0.3-2.4c0-0.8-0.1-1.5-0.2-2.2c-0.2-0.7-0.4-1.3-0.7-1.8s-0.7-0.9-1.3-1.2
		c-0.5-0.3-1.1-0.4-1.9-0.4c-0.6,0-1.3,0.2-2,0.6c-0.7,0.4-1.4,0.9-2.2,1.6v7.6c0.8,0.6,1.5,1,2.1,1.3S156.1,64,156.6,64z"/>
	<path class="st3" d="M166.1,64.7V51.8h1l0.1,2.4h0.1c0.4-0.8,1-1.5,1.6-2s1.3-0.8,2.1-0.8c0.3,0,0.5,0,0.7,0.1
		c0.2,0,0.4,0.1,0.6,0.2l-0.3,1.1c-0.2-0.1-0.4-0.1-0.6-0.2s-0.4,0-0.6,0c-0.6,0-1.2,0.2-1.8,0.7s-1.2,1.3-1.7,2.6v8.8H166.1z"/>
	<path class="st3" d="M179.1,65c-0.8,0-1.5-0.2-2.2-0.5s-1.3-0.7-1.8-1.3s-1-1.3-1.3-2.1s-0.5-1.8-0.5-2.9s0.2-2,0.5-2.9
		s0.7-1.6,1.3-2.1c0.5-0.6,1.1-1,1.8-1.3s1.4-0.5,2.2-0.5s1.5,0.2,2.2,0.5s1.3,0.7,1.9,1.3c0.5,0.6,0.9,1.3,1.3,2.1
		c0.3,0.9,0.5,1.8,0.5,2.9s-0.2,2-0.5,2.9c-0.3,0.8-0.7,1.5-1.3,2.1c-0.5,0.6-1.1,1-1.9,1.3C180.6,64.9,179.9,65,179.1,65z
		 M179.1,64c0.6,0,1.3-0.1,1.8-0.4c0.6-0.3,1-0.7,1.5-1.2c0.4-0.5,0.7-1.1,1-1.8c0.2-0.7,0.3-1.5,0.3-2.3c0-0.9-0.1-1.6-0.3-2.3
		s-0.6-1.3-1-1.8s-0.9-0.9-1.5-1.2s-1.2-0.4-1.8-0.4s-1.2,0.1-1.8,0.4c-0.6,0.3-1,0.7-1.4,1.2s-0.7,1.1-1,1.8
		c-0.2,0.7-0.3,1.5-0.3,2.3s0.1,1.6,0.3,2.3s0.6,1.3,1,1.8s0.9,0.9,1.4,1.2C177.9,63.8,178.6,64,179.1,64z"/>
	<path class="st3" d="M193.1,65c-1.6,0-2.9-0.6-3.9-1.7c-1-1.2-1.5-2.8-1.5-5c0-1,0.2-2,0.5-2.8s0.7-1.6,1.2-2.2s1.1-1,1.8-1.4
		c0.7-0.3,1.4-0.5,2.2-0.5s1.5,0.1,2.1,0.4c0.6,0.3,1.2,0.7,1.8,1.2l-0.1-2.4v-5.3h1.2v19.3h-1l-0.1-1.7h-0.1
		c-0.5,0.5-1.1,1-1.8,1.4C194.8,64.8,193.9,65,193.1,65z M193.3,64c0.7,0,1.4-0.2,2.1-0.6c0.7-0.4,1.3-0.9,2-1.6v-7.7
		c-0.7-0.6-1.3-1-1.9-1.3c-0.6-0.3-1.2-0.4-1.8-0.4s-1.2,0.1-1.8,0.4s-1,0.7-1.4,1.2s-0.7,1.1-1,1.8c-0.2,0.7-0.3,1.5-0.3,2.3
		c0,0.9,0.1,1.6,0.3,2.3s0.5,1.3,0.8,1.8c0.4,0.5,0.8,0.9,1.3,1.2C191.9,63.8,192.6,64,193.3,64z"/>
	<path class="st3" d="M207.1,65c-1.3,0-2.3-0.4-3-1.2c-0.6-0.8-0.9-2.1-0.9-3.7v-8.3h1.2v8.1c0,1.4,0.2,2.4,0.7,3.1s1.2,1,2.2,1
		c0.8,0,1.5-0.2,2.1-0.6s1.3-1.1,2.1-2v-9.5h1.2v12.9h-1l-0.1-2.2h-0.1c-0.6,0.8-1.3,1.4-2,1.8S208.1,65,207.1,65z"/>
	<path class="st3" d="M222.4,65c-0.8,0-1.6-0.2-2.3-0.5s-1.3-0.7-1.9-1.3c-0.5-0.6-0.9-1.3-1.2-2.1s-0.4-1.8-0.4-2.9s0.2-2,0.5-2.9
		s0.8-1.6,1.3-2.1c0.5-0.6,1.2-1,1.9-1.3s1.5-0.5,2.2-0.5c0.9,0,1.6,0.2,2.2,0.5c0.6,0.3,1.1,0.7,1.6,1.1l-0.7,0.8
		c-0.4-0.4-0.9-0.7-1.4-1s-1.1-0.4-1.7-0.4c-0.7,0-1.3,0.1-1.8,0.4s-1.1,0.7-1.5,1.2s-0.8,1.1-1,1.8s-0.4,1.5-0.4,2.3
		s0.1,1.6,0.3,2.3s0.5,1.3,0.9,1.8s0.9,0.9,1.5,1.2s1.2,0.4,1.9,0.4s1.3-0.1,1.9-0.4c0.6-0.3,1.1-0.6,1.5-1l0.6,0.8
		c-0.6,0.5-1.2,0.9-1.9,1.2C224.1,64.9,223.3,65,222.4,65z"/>
	<path class="st3" d="M233.1,65c-0.6,0-1.1-0.1-1.6-0.3c-0.4-0.2-0.7-0.5-1-0.8s-0.4-0.8-0.5-1.2c-0.1-0.5-0.1-1-0.1-1.6v-8.3h-2
		v-0.9l2-0.1l0.2-3.7h1v3.7h3.7v1H231v8.4c0,0.4,0,0.8,0.1,1.1s0.2,0.6,0.3,0.9c0.2,0.2,0.4,0.4,0.7,0.6c0.3,0.1,0.6,0.2,1.1,0.2
		c0.3,0,0.5,0,0.8-0.1s0.6-0.2,0.8-0.3l0.3,1c-0.4,0.1-0.8,0.3-1.1,0.3C233.6,65,233.3,65,233.1,65z"/>
	<path class="st3" d="M238.6,48.7c-0.3,0-0.6-0.1-0.8-0.3s-0.3-0.4-0.3-0.8c0-0.3,0.1-0.6,0.3-0.8s0.5-0.3,0.8-0.3s0.6,0.1,0.8,0.3
		s0.3,0.5,0.3,0.8s-0.1,0.6-0.3,0.8C239.1,48.6,238.8,48.7,238.6,48.7z M237.8,64.7V51.8h1.2v12.9H237.8z"/>
	<path class="st3" d="M248.8,65c-0.8,0-1.5-0.2-2.2-0.5s-1.3-0.7-1.8-1.3s-1-1.3-1.3-2.1s-0.5-1.8-0.5-2.9s0.2-2,0.5-2.9
		s0.7-1.6,1.3-2.1c0.5-0.6,1.1-1,1.8-1.3s1.4-0.5,2.2-0.5s1.5,0.2,2.2,0.5s1.3,0.7,1.9,1.3c0.5,0.6,0.9,1.3,1.3,2.1
		c0.3,0.9,0.5,1.8,0.5,2.9s-0.2,2-0.5,2.9c-0.3,0.8-0.7,1.5-1.3,2.1c-0.5,0.6-1.1,1-1.9,1.3C250.3,64.9,249.6,65,248.8,65z
		 M248.8,64c0.6,0,1.3-0.1,1.8-0.4c0.6-0.3,1-0.7,1.5-1.2c0.4-0.5,0.7-1.1,1-1.8c0.2-0.7,0.3-1.5,0.3-2.3c0-0.9-0.1-1.6-0.3-2.3
		s-0.6-1.3-1-1.8s-0.9-0.9-1.5-1.2s-1.2-0.4-1.8-0.4s-1.2,0.1-1.8,0.4c-0.6,0.3-1,0.7-1.4,1.2s-0.7,1.1-1,1.8
		c-0.2,0.7-0.3,1.5-0.3,2.3s0.1,1.6,0.3,2.3s0.6,1.3,1,1.8s0.9,0.9,1.4,1.2C247.6,63.8,248.1,64,248.8,64z"/>
	<path class="st3" d="M258.5,64.7V51.8h1l0.1,2h0.1c0.7-0.7,1.3-1.2,2-1.7c0.7-0.4,1.5-0.7,2.4-0.7c1.3,0,2.3,0.4,3,1.2
		c0.6,0.8,0.9,2.1,0.9,3.7v8.3h-1.2v-8.1c0-1.4-0.2-2.4-0.7-3.1c-0.5-0.7-1.2-1-2.3-1c-0.8,0-1.5,0.2-2.1,0.6
		c-0.6,0.4-1.3,1-2.1,1.8v9.7h-1.1L258.5,64.7L258.5,64.7z"/>
	<path class="st3" d="M278.8,48.7c-0.3,0-0.6-0.1-0.8-0.3c-0.2-0.2-0.3-0.4-0.3-0.8c0-0.3,0.1-0.6,0.3-0.8c0.2-0.2,0.5-0.3,0.8-0.3
		s0.6,0.1,0.8,0.3c0.2,0.2,0.3,0.5,0.3,0.8s-0.1,0.6-0.3,0.8C279.3,48.6,279.1,48.7,278.8,48.7z M278.1,64.7V51.8h1.2v12.9H278.1z"
		/>
	<path class="st3" d="M284.3,64.7V51.8h1l0.1,2h0.1c0.7-0.7,1.3-1.2,2-1.7c0.7-0.4,1.5-0.7,2.4-0.7c1.3,0,2.3,0.4,3,1.2
		c0.6,0.8,0.9,2.1,0.9,3.7v8.3h-1.2v-8.1c0-1.4-0.2-2.4-0.7-3.1c-0.5-0.7-1.2-1-2.3-1c-0.8,0-1.5,0.2-2.1,0.6
		c-0.6,0.4-1.3,1-2.1,1.8v9.7h-1.1L284.3,64.7L284.3,64.7z"/>
	<path class="st3" d="M304.3,51.8c-0.4,0-0.6-0.2-0.9-0.5c-0.2-0.3-0.3-0.8-0.3-1.3c0-1,0.2-1.8,0.6-2.5s1-1.3,1.7-1.7l0.5,0.6
		c-0.6,0.5-1,1-1.3,1.5s-0.5,1.1-0.5,1.9c0,0,0.1,0,0.2,0c0.3,0,0.5,0.1,0.7,0.2c0.2,0.2,0.3,0.4,0.3,0.8c0,0.3-0.1,0.6-0.3,0.8
		C304.8,51.7,304.6,51.8,304.3,51.8z"/>
	<path class="st3" d="M313.8,65c-1.6,0-2.9-0.8-3.8-2.3c-0.9-1.5-1.3-3.8-1.3-6.7s0.4-5.1,1.3-6.6s2.2-2.3,3.8-2.3s2.9,0.8,3.8,2.3
		s1.3,3.7,1.3,6.6c0,2.9-0.4,5.1-1.3,6.7C316.7,64.3,315.5,65,313.8,65z M313.8,64c1.2,0,2.2-0.7,2.9-2c0.7-1.3,1.1-3.3,1.1-6
		s-0.4-4.6-1.1-5.9c-0.7-1.3-1.7-1.9-2.9-1.9c-1.2,0-2.1,0.6-2.8,1.9c-0.7,1.3-1.1,3.3-1.1,5.9s0.4,4.6,1.1,6
		C311.7,63.3,312.6,64,313.8,64z"/>
	<path class="st3" d="M326.7,65c-1.6,0-2.9-0.8-3.8-2.3c-0.9-1.5-1.3-3.8-1.3-6.7s0.4-5.1,1.3-6.6s2.2-2.3,3.8-2.3s2.9,0.8,3.8,2.3
		s1.3,3.7,1.3,6.6c0,2.9-0.4,5.1-1.3,6.7S328.3,65,326.7,65z M326.7,64c1.2,0,2.2-0.7,2.9-2c0.7-1.3,1.1-3.3,1.1-6s-0.4-4.6-1.1-5.9
		c-0.7-1.3-1.7-1.9-2.9-1.9c-1.2,0-2.1,0.6-2.8,1.9c-0.7,1.3-1.1,3.3-1.1,5.9s0.4,4.6,1.1,6C324.6,63.3,325.5,64,326.7,64z"/>
	<path class="st3" d="M339.6,65c-1.6,0-2.9-0.8-3.8-2.3c-0.9-1.5-1.3-3.8-1.3-6.7s0.4-5.1,1.3-6.6s2.2-2.3,3.8-2.3s2.9,0.8,3.8,2.3
		s1.3,3.7,1.3,6.6c0,2.9-0.4,5.1-1.3,6.7S341.2,65,339.6,65z M339.6,64c1.2,0,2.2-0.7,2.9-2c0.7-1.3,1.1-3.3,1.1-6s-0.4-4.6-1.1-5.9
		c-0.7-1.3-1.7-1.9-2.9-1.9c-1.2,0-2.1,0.6-2.8,1.9c-0.7,1.3-1.1,3.3-1.1,5.9s0.4,4.6,1.1,6C337.4,63.3,338.4,64,339.6,64z"/>
	<path class="st3" d="M354,64.7V47h1.7l3.7,10.4c0.2,0.6,0.5,1.3,0.7,1.9c0.2,0.7,0.5,1.3,0.7,2h0.1c0.2-0.7,0.5-1.3,0.7-2
		s0.4-1.3,0.7-1.9L366,47h1.8v17.7h-1.2V53.1c0-0.7,0-1.5,0.1-2.4c0-0.9,0.1-1.7,0.1-2.4h-0.1l-1.4,4l-3.8,10.5h-1.1l-3.8-10.5
		l-1.4-4H355c0,0.8,0.1,1.6,0.1,2.4c0,0.9,0.1,1.6,0.1,2.4v11.6H354z"/>
	<path class="st3" d="M376.8,64.7V48.1h-5.6V47h12.5v1.1H378v16.6H376.8z"/>
	<path class="st3" d="M386,69.4l-0.7-0.4c1.1-1.7,1.9-3.6,2.4-5.6s0.8-4.1,0.8-6.2s-0.3-4.2-0.8-6.2s-1.3-3.8-2.4-5.6L386,45
		c1.1,1.8,2,3.7,2.6,5.7s1,4.2,1,6.5c0,2.4-0.3,4.5-1,6.5C388,65.7,387.1,67.6,386,69.4z"/>
</g>
<line class="st4" x1="1" y1="92.3" x2="999" y2="92.3"/>
<g>
	<path class="st2" d="M11.6,160c-1.2,0-2.4-0.2-3.4-0.7s-1.9-1.1-2.6-2s-1.3-1.9-1.7-3.1s-0.6-2.6-0.6-4.1s0.2-2.9,0.6-4.1
		s1-2.3,1.7-3.1c0.7-0.9,1.6-1.5,2.7-2c1-0.5,2.2-0.7,3.4-0.7c0.6,0,1.2,0.1,1.8,0.2c0.5,0.1,1,0.3,1.4,0.5s0.8,0.5,1.1,0.7
		c0.3,0.3,0.6,0.5,0.9,0.8l-0.8,0.9c-0.5-0.5-1.1-1-1.8-1.4s-1.6-0.6-2.6-0.6c-1.1,0-2.1,0.2-3,0.6c-0.9,0.4-1.6,1-2.2,1.7
		s-1.1,1.6-1.4,2.7s-0.5,2.3-0.5,3.6s0.2,2.5,0.5,3.6s0.8,2,1.3,2.7c0.6,0.8,1.3,1.3,2.2,1.8s1.8,0.6,2.9,0.6c0.9,0,1.7-0.1,2.4-0.4
		s1.4-0.6,1.8-1.1v-5.9h-4.6v-0.9h5.8v7.6c-0.6,0.6-1.4,1.2-2.3,1.6C13.9,159.8,12.8,160,11.6,160z"/>
	<path class="st2" d="M23.8,160c-1.1,0-1.7-0.7-1.7-2.2v-19h1.3v19.1c0,0.3,0.1,0.5,0.2,0.7c0.1,0.1,0.3,0.2,0.4,0.2s0.1,0,0.2,0
		s0.2,0,0.3-0.1l0.2,1c-0.1,0-0.3,0.1-0.4,0.1C24.1,160,24,160,23.8,160z"/>
	<path class="st2" d="M34.2,160c-0.9,0-1.7-0.2-2.5-0.5s-1.5-0.8-2-1.4c-0.6-0.6-1-1.4-1.4-2.3c-0.3-0.9-0.5-1.9-0.5-3.1
		s0.2-2.2,0.5-3.1c0.3-0.9,0.8-1.7,1.4-2.3s1.2-1.1,1.9-1.4c0.7-0.3,1.5-0.5,2.2-0.5c1.7,0,3,0.6,3.9,1.7c0.9,1.1,1.4,2.7,1.4,4.7
		c0,0.2,0,0.3,0,0.5s0,0.3-0.1,0.5H29c0,0.9,0.2,1.7,0.4,2.4c0.3,0.7,0.6,1.4,1.1,1.9s1,0.9,1.6,1.2s1.4,0.4,2.1,0.4
		c0.8,0,1.4-0.1,2-0.3s1.2-0.5,1.7-0.9l0.5,1c-0.6,0.3-1.2,0.6-1.8,0.9S35.2,160,34.2,160z M29.1,151.8H38c0-1.8-0.4-3.1-1.1-4
		c-0.7-0.9-1.7-1.3-3-1.3c-0.6,0-1.2,0.1-1.7,0.4c-0.5,0.2-1,0.6-1.5,1.1s-0.8,1-1.1,1.7C29.3,150.2,29.1,151,29.1,151.8z"/>
	<path class="st2" d="M42.9,159.6v-13.9H44l0.1,2.1h0.1c0.7-0.7,1.4-1.3,2.2-1.8s1.6-0.7,2.6-0.7c1.4,0,2.5,0.4,3.2,1.3
		c0.7,0.9,1,2.2,1,4v8.9h-1.3v-8.7c0-1.5-0.2-2.6-0.7-3.3s-1.3-1.1-2.4-1.1c-0.8,0-1.6,0.2-2.3,0.7c-0.7,0.4-1.4,1.1-2.3,2v10.5
		H42.9z"/>
	<path class="st2" d="M63.4,160c-0.9,0-1.7-0.2-2.5-0.5s-1.4-0.8-2-1.4s-1-1.4-1.3-2.3c-0.3-0.9-0.5-1.9-0.5-3.1
		c0-1.2,0.2-2.2,0.5-3.1c0.3-0.9,0.8-1.7,1.4-2.3c0.6-0.6,1.2-1.1,2-1.4c0.8-0.3,1.6-0.5,2.4-0.5c1,0,1.8,0.2,2.4,0.5
		s1.2,0.7,1.7,1.2l-0.8,0.9c-0.4-0.4-0.9-0.8-1.5-1.1c-0.5-0.3-1.1-0.4-1.8-0.4s-1.4,0.1-2,0.4c-0.6,0.3-1.1,0.7-1.6,1.3
		c-0.5,0.5-0.8,1.2-1.1,2s-0.4,1.6-0.4,2.5s0.1,1.7,0.4,2.5c0.2,0.8,0.6,1.4,1,1.9s1,1,1.6,1.3s1.3,0.4,2.1,0.4c0.7,0,1.4-0.2,2-0.5
		s1.2-0.7,1.7-1.1l0.7,0.9c-0.6,0.5-1.3,1-2,1.3C65,159.8,64.3,160,63.4,160z"/>
	<path class="st2" d="M75.8,160c-0.8,0-1.6-0.2-2.4-0.5s-1.4-0.8-2-1.4c-0.6-0.6-1-1.4-1.4-2.3c-0.3-0.9-0.5-1.9-0.5-3.1
		c0-1.2,0.2-2.2,0.5-3.1c0.3-0.9,0.8-1.7,1.4-2.3s1.2-1.1,2-1.4s1.5-0.5,2.4-0.5s1.6,0.2,2.4,0.5s1.4,0.8,2,1.4
		c0.6,0.6,1,1.4,1.4,2.3c0.3,0.9,0.5,2,0.5,3.1c0,1.2-0.2,2.2-0.5,3.1c-0.3,0.9-0.8,1.7-1.4,2.3s-1.2,1.1-2,1.4
		C77.4,159.8,76.6,160,75.8,160z M75.8,158.9c0.7,0,1.3-0.1,2-0.4c0.6-0.3,1.1-0.7,1.6-1.3c0.4-0.5,0.8-1.2,1-1.9
		c0.3-0.8,0.4-1.6,0.4-2.5s-0.1-1.8-0.4-2.5c-0.3-0.8-0.6-1.4-1-2s-1-1-1.6-1.3s-1.3-0.4-2-0.4s-1.3,0.1-1.9,0.4
		c-0.6,0.3-1.1,0.7-1.5,1.3c-0.4,0.5-0.8,1.2-1,2c-0.3,0.8-0.4,1.6-0.4,2.5s0.1,1.7,0.4,2.5s0.6,1.4,1,1.9s1,1,1.5,1.3
		C74.5,158.7,75.1,158.9,75.8,158.9z"/>
	<path class="st2" d="M86.3,159.6v-13.9h1.1l0.1,2.6h0.1c0.5-0.9,1-1.6,1.7-2.1s1.4-0.8,2.2-0.8c0.3,0,0.5,0,0.7,0.1
		s0.4,0.1,0.7,0.2l-0.3,1.2c-0.2-0.1-0.4-0.2-0.6-0.2s-0.4,0-0.7,0c-0.6,0-1.3,0.3-2,0.8s-1.3,1.5-1.8,2.8v9.5h-1.2L86.3,159.6
		L86.3,159.6z"/>
	<path class="st2" d="M100.4,160c-0.9,0-1.7-0.2-2.5-0.5s-1.5-0.8-2-1.4c-0.6-0.6-1-1.4-1.4-2.3c-0.3-0.9-0.5-1.9-0.5-3.1
		s0.2-2.2,0.5-3.1c0.3-0.9,0.8-1.7,1.4-2.3s1.2-1.1,1.9-1.4c0.7-0.3,1.5-0.5,2.2-0.5c1.7,0,3,0.6,3.9,1.7c0.9,1.1,1.4,2.7,1.4,4.7
		c0,0.2,0,0.3,0,0.5s0,0.3-0.1,0.5h-10c0,0.9,0.2,1.7,0.4,2.4c0.3,0.7,0.6,1.4,1.1,1.9s1,0.9,1.6,1.2s1.4,0.4,2.1,0.4
		c0.8,0,1.4-0.1,2-0.3s1.2-0.5,1.7-0.9l0.5,1c-0.6,0.3-1.2,0.6-1.8,0.9S101.4,160,100.4,160z M95.3,151.8h8.9c0-1.8-0.4-3.1-1.1-4
		s-1.7-1.3-3-1.3c-0.6,0-1.2,0.1-1.7,0.4c-0.5,0.2-1,0.6-1.5,1.1s-0.8,1-1.1,1.7C95.5,150.2,95.3,151,95.3,151.8z"/>
</g>
<g>
	<path class="st2" d="M4.1,229.3v-18.9h4.3v7.3h6.5v-7.3h4.3v18.9h-4.3v-7.9H8.3v7.9H4.1z"/>
	<path class="st2" d="M25.4,212.8c-0.7,0-1.3-0.2-1.8-0.6c-0.5-0.4-0.7-1-0.7-1.6c0-0.7,0.2-1.2,0.7-1.6s1.1-0.6,1.8-0.6
		c0.7,0,1.3,0.2,1.8,0.6c0.5,0.4,0.7,0.9,0.7,1.6c0,0.7-0.2,1.2-0.7,1.6C26.7,212.6,26.1,212.8,25.4,212.8z M23.3,229.3v-14.4h4.3
		v14.4H23.3z"/>
	<path class="st2" d="M31.3,229.3v-14.4h3.5l0.3,1.8h0.1c0.6-0.6,1.3-1.1,2-1.5s1.6-0.7,2.6-0.7c1.6,0,2.7,0.5,3.4,1.5
		s1.1,2.4,1.1,4.3v8.9H40v-8.4c0-1-0.1-1.8-0.4-2.1c-0.3-0.4-0.7-0.6-1.3-0.6c-0.5,0-1,0.1-1.4,0.4c-0.4,0.2-0.8,0.6-1.3,1v9.7h-4.3
		C31.3,229.2,31.3,229.3,31.3,229.3z"/>
	<path class="st2" d="M52.9,229.6c-0.9,0-1.7-0.2-2.4-0.5s-1.3-0.8-1.9-1.5c-0.5-0.6-0.9-1.4-1.2-2.4c-0.3-0.9-0.4-2-0.4-3.2
		s0.2-2.2,0.5-3.2c0.3-0.9,0.8-1.7,1.3-2.4c0.5-0.6,1.2-1.1,1.9-1.5s1.5-0.5,2.2-0.5c0.8,0,1.5,0.1,2,0.4c0.5,0.3,1,0.6,1.5,1.1
		l-0.2-2.2v-4.9h4.3v20.5H57l-0.3-1.4h-0.1c-0.5,0.5-1.1,0.9-1.8,1.3C54.3,229.5,53.5,229.6,52.9,229.6z M54,226.2
		c0.5,0,0.9-0.1,1.3-0.3c0.4-0.2,0.7-0.5,1.1-1V219c-0.4-0.3-0.8-0.6-1.2-0.7s-0.8-0.2-1.2-0.2c-0.7,0-1.3,0.3-1.8,1
		c-0.5,0.6-0.8,1.7-0.8,3c0,1.4,0.2,2.5,0.7,3.1C52.5,225.8,53.2,226.2,54,226.2z"/>
	<path class="st2" d="M68.6,229.6c-1.6,0-2.7-0.5-3.4-1.5c-0.7-1-1.1-2.4-1.1-4.3v-8.9h4.3v8.4c0,1,0.1,1.8,0.4,2.1
		c0.3,0.4,0.7,0.6,1.4,0.6c0.5,0,1-0.1,1.4-0.4c0.4-0.3,0.8-0.7,1.2-1.2v-9.5h4.3v14.4h-3.5l-0.3-2h-0.1c-0.6,0.7-1.3,1.3-2,1.7
		C70.4,229.4,69.6,229.6,68.6,229.6z"/>
	<path class="st2" d="M85,229.6c-0.9,0-1.9-0.2-2.9-0.6c-1-0.4-1.9-0.8-2.6-1.4l1.9-2.7c0.7,0.5,1.3,0.9,1.9,1.1
		c0.6,0.3,1.2,0.4,1.8,0.4c0.6,0,1.1-0.1,1.4-0.3s0.4-0.5,0.4-0.9c0-0.2-0.1-0.4-0.2-0.6c-0.2-0.2-0.4-0.4-0.7-0.5s-0.6-0.3-0.9-0.4
		c-0.3-0.1-0.7-0.3-1.1-0.4c-0.4-0.2-0.9-0.4-1.3-0.6c-0.4-0.2-0.8-0.5-1.2-0.9s-0.7-0.7-0.9-1.2c-0.2-0.5-0.3-1-0.3-1.6
		c0-0.7,0.1-1.3,0.4-1.8c0.3-0.6,0.6-1,1.1-1.4s1.1-0.7,1.7-0.9c0.7-0.2,1.4-0.3,2.3-0.3c1.1,0,2.1,0.2,2.9,0.6
		c0.8,0.4,1.6,0.8,2.2,1.3L89,219c-0.5-0.4-1-0.7-1.5-0.9s-1-0.3-1.5-0.3c-1.1,0-1.6,0.4-1.6,1.1c0,0.2,0.1,0.4,0.2,0.6
		c0.2,0.2,0.4,0.3,0.6,0.4c0.3,0.1,0.6,0.3,0.9,0.4c0.3,0.1,0.7,0.3,1.1,0.4c0.5,0.2,0.9,0.4,1.4,0.6c0.5,0.2,0.9,0.5,1.2,0.8
		c0.4,0.3,0.7,0.7,0.9,1.2c0.2,0.5,0.3,1,0.3,1.7s-0.1,1.3-0.4,1.8c-0.3,0.6-0.6,1-1.1,1.5c-0.5,0.4-1.1,0.7-1.9,1
		C86.8,229.5,85.9,229.6,85,229.6z"/>
	<path class="st2" d="M98.5,229.6c-0.9,0-1.6-0.1-2.3-0.4c-0.6-0.3-1.1-0.6-1.5-1.1s-0.7-1.1-0.9-1.8c-0.2-0.7-0.3-1.4-0.3-2.3v-5.7
		h-2v-3.2l2.2-0.2l0.5-3.8h3.7v3.8h3.4v3.3h-3.4v5.8c0,0.8,0.2,1.4,0.5,1.8c0.3,0.4,0.8,0.5,1.3,0.5c0.2,0,0.5,0,0.7-0.1
		s0.5-0.1,0.7-0.2l0.7,3.1c-0.4,0.1-0.8,0.2-1.4,0.3C99.9,229.6,99.3,229.6,98.5,229.6z"/>
	<path class="st2" d="M107.3,229.6c-0.7,0-1.2-0.1-1.8-0.3s-1-0.5-1.3-0.9c-0.4-0.4-0.7-0.9-0.9-1.4c-0.2-0.5-0.3-1.1-0.3-1.7
		c0-1.5,0.6-2.7,1.9-3.5s3.3-1.4,6.2-1.7c0-0.6-0.2-1.1-0.6-1.5c-0.3-0.4-0.9-0.6-1.7-0.6c-0.6,0-1.2,0.1-1.8,0.3s-1.3,0.5-2,1
		l-1.5-2.8c0.9-0.6,1.9-1,2.9-1.4s2.1-0.5,3.2-0.5c1.9,0,3.3,0.5,4.2,1.6c1,1.1,1.5,2.7,1.5,4.9v8.2h-3.5l-0.3-1.5h-0.1
		c-0.6,0.5-1.3,1-1.9,1.3C108.8,229.5,108,229.6,107.3,229.6z M108.6,226.3c0.5,0,0.9-0.1,1.2-0.3c0.3-0.2,0.7-0.5,1.1-0.9v-2.5
		c-1.5,0.2-2.5,0.5-3.1,0.9s-0.9,0.9-0.9,1.4s0.1,0.8,0.4,1C107.8,226.2,108.1,226.3,108.6,226.3z"/>
	<path class="st2" d="M118.8,229.3v-14.4h3.5l0.3,1.8h0.1c0.6-0.6,1.3-1.1,2-1.5s1.6-0.7,2.6-0.7c1.6,0,2.7,0.5,3.4,1.5
		s1.1,2.4,1.1,4.3v8.9h-4.3v-8.4c0-1-0.1-1.8-0.4-2.1c-0.3-0.4-0.7-0.6-1.3-0.6c-0.5,0-1,0.1-1.4,0.4c-0.4,0.2-0.8,0.6-1.3,1v9.7
		h-4.3L118.8,229.3L118.8,229.3z"/>
	<path class="st2" d="M140.3,229.3v-2.6l8.3-12.7H141v-3.6h12.9v2.6l-8.3,12.7h8.4v3.6H140.3z"/>
	<path class="st2" d="M158.9,212.8c-0.7,0-1.3-0.2-1.8-0.6c-0.5-0.4-0.7-1-0.7-1.6c0-0.7,0.2-1.2,0.7-1.6s1.1-0.6,1.8-0.6
		s1.3,0.2,1.8,0.6c0.5,0.4,0.7,0.9,0.7,1.6c0,0.7-0.2,1.2-0.7,1.6C160.3,212.6,159.8,212.8,158.9,212.8z M156.8,229.3v-14.4h4.3
		v14.4H156.8z"/>
	<path class="st2" d="M164.8,229.3v-14.4h3.5l0.3,1.8h0.1c0.6-0.6,1.3-1.1,2-1.5s1.6-0.7,2.6-0.7c1.6,0,2.7,0.5,3.4,1.5
		s1.1,2.4,1.1,4.3v8.9h-4.3v-8.4c0-1-0.1-1.8-0.4-2.1c-0.3-0.4-0.7-0.6-1.3-0.6c-0.5,0-1,0.1-1.4,0.4c-0.4,0.2-0.8,0.6-1.3,1v9.7
		h-4.3L164.8,229.3L164.8,229.3z"/>
	<path class="st2" d="M187.6,229.6c-1,0-1.9-0.2-2.8-0.5c-0.9-0.3-1.6-0.8-2.2-1.5c-0.6-0.6-1.1-1.4-1.5-2.4c-0.4-0.9-0.6-2-0.6-3.2
		s0.2-2.3,0.6-3.2c0.4-0.9,1-1.7,1.6-2.4s1.5-1.1,2.4-1.5c0.9-0.3,1.9-0.5,2.8-0.5c0.9,0,1.7,0.1,2.4,0.4c0.7,0.3,1.3,0.7,1.8,1.1
		l-2,2.8c-0.7-0.6-1.3-0.8-1.9-0.8c-1,0-1.9,0.4-2.5,1.1c-0.6,0.7-0.9,1.7-0.9,3s0.3,2.2,0.9,3s1.4,1.1,2.3,1.1
		c0.5,0,0.9-0.1,1.3-0.3c0.4-0.2,0.8-0.4,1.2-0.7l1.7,2.8c-0.7,0.6-1.5,1.1-2.3,1.3C189.3,229.5,188.4,229.6,187.6,229.6z"/>
	<path class="st2" d="M197.3,219.2l-1.8-1.3l1.7-3l-3.1-1.4l0.7-2.1l3.4,0.7l0.4-3.4h2.2l0.4,3.4l3.3-0.7l0.7,2.1l-3.1,1.4l1.7,3
		l-1.8,1.3l-2.3-2.6L197.3,219.2z"/>
</g>
<g>
	<path class="st2" d="M8.8,298.9V281H2.7v-1.2h13.5v1.2h-6.1v17.9H8.8z"/>
	<path class="st2" d="M23.3,299.3c-0.9,0-1.7-0.2-2.5-0.5s-1.5-0.8-2-1.4c-0.6-0.6-1-1.4-1.4-2.3c-0.3-0.9-0.5-1.9-0.5-3.1
		c0-1.1,0.2-2.2,0.5-3.1s0.8-1.7,1.4-2.3c0.6-0.6,1.2-1.1,1.9-1.4c0.7-0.3,1.5-0.5,2.2-0.5c1.7,0,3,0.6,3.9,1.7s1.4,2.7,1.4,4.7
		c0,0.2,0,0.3,0,0.5s0,0.3-0.1,0.5H18c0,0.9,0.2,1.7,0.4,2.4c0.3,0.7,0.6,1.4,1.1,1.9s1,0.9,1.6,1.2c0.6,0.3,1.4,0.4,2.1,0.4
		c0.8,0,1.4-0.1,2-0.3c0.6-0.2,1.2-0.5,1.7-0.9l0.5,1c-0.6,0.3-1.2,0.6-1.8,0.9C25.1,299.1,24.3,299.3,23.3,299.3z M18.1,291.1H27
		c0-1.8-0.4-3.1-1.1-4s-1.7-1.3-3-1.3c-0.6,0-1.2,0.1-1.7,0.4c-0.5,0.2-1,0.6-1.5,1.1c-0.4,0.5-0.8,1-1.1,1.7
		C18.4,289.6,18.2,290.3,18.1,291.1z"/>
	<path class="st2" d="M37,299.3c-0.9,0-1.7-0.2-2.5-0.5s-1.4-0.8-2-1.4s-1-1.4-1.3-2.3s-0.5-1.9-0.5-3.1s0.2-2.2,0.5-3.1
		s0.8-1.7,1.4-2.3c0.6-0.6,1.2-1.1,2-1.4s1.6-0.5,2.4-0.5c1,0,1.8,0.2,2.4,0.5c0.6,0.3,1.2,0.7,1.7,1.2l-0.8,0.9
		c-0.4-0.4-0.9-0.8-1.5-1.1c-0.5-0.3-1.1-0.4-1.8-0.4s-1.4,0.1-2,0.4s-1.1,0.7-1.6,1.3c-0.5,0.6-0.8,1.2-1.1,2S32,291.1,32,292
		s0.1,1.7,0.4,2.5c0.2,0.8,0.6,1.4,1,1.9s1,1,1.6,1.3s1.3,0.4,2.1,0.4c0.7,0,1.4-0.2,2-0.5s1.2-0.7,1.7-1.1l0.7,0.9
		c-0.6,0.5-1.3,1-2,1.3S38,299.3,37,299.3z"/>
	<path class="st2" d="M45,298.9v-20.8h1.3v15.3h0.1l6.9-8.4h1.5l-4.5,5.5l5.3,8.4H54l-4.6-7.4l-3.1,3.6v3.8H45z"/>
</g>
<g>
	<path class="st2" d="M4.6,367.6v-19.1H6l8,13.5l2.1,3.8h0.1c0-0.9-0.1-1.9-0.1-2.8s-0.1-1.9-0.1-2.8v-11.7h1.3v19.1h-1.4l-8-13.5
		l-2.1-3.8h0c0,0.9,0.1,1.8,0.1,2.7c0,0.9,0.1,1.8,0.1,2.7v11.8L4.6,367.6L4.6,367.6z"/>
	<path class="st2" d="M28.2,368c-0.9,0-1.7-0.2-2.5-0.5s-1.5-0.8-2-1.4c-0.6-0.6-1-1.4-1.4-2.3c-0.3-0.9-0.5-1.9-0.5-3.1
		c0-1.1,0.2-2.2,0.5-3.1s0.8-1.7,1.4-2.3c0.6-0.6,1.2-1.1,1.9-1.4c0.7-0.3,1.5-0.5,2.2-0.5c1.7,0,3,0.6,3.9,1.7
		c0.9,1.1,1.4,2.7,1.4,4.7c0,0.2,0,0.3,0,0.5s0,0.3-0.1,0.5H23c0,0.9,0.2,1.7,0.4,2.4c0.3,0.7,0.6,1.4,1.1,1.9s1,0.9,1.6,1.2
		c0.6,0.3,1.4,0.4,2.1,0.4c0.8,0,1.4-0.1,2-0.3c0.6-0.2,1.2-0.5,1.7-0.9l0.5,1c-0.6,0.3-1.2,0.6-1.8,0.9
		C30.1,367.8,29.2,368,28.2,368z M23.1,359.8H32c0-1.8-0.4-3.1-1.1-4s-1.7-1.3-3-1.3c-0.6,0-1.2,0.1-1.7,0.4c-0.5,0.2-1,0.6-1.5,1.1
		c-0.4,0.5-0.8,1-1.1,1.7C23.3,358.2,23.2,359,23.1,359.8z"/>
	<path class="st2" d="M34.7,367.6l4.7-7.3l-4.3-6.6h1.4l2.3,3.5c0.2,0.4,0.5,0.8,0.7,1.1c0.2,0.4,0.5,0.8,0.8,1.1h0.1
		c0.3-0.4,0.5-0.8,0.7-1.1c0.2-0.4,0.5-0.8,0.7-1.1l2.2-3.5h1.3l-4.3,6.7l4.7,7.2h-1.4l-2.5-3.8c-0.3-0.4-0.5-0.9-0.8-1.3
		s-0.5-0.8-0.8-1.2H40c-0.3,0.4-0.5,0.8-0.8,1.2c-0.3,0.4-0.5,0.9-0.8,1.3l-2.4,3.8L34.7,367.6L34.7,367.6z"/>
	<path class="st2" d="M51.5,368c-0.6,0-1.1-0.1-1.6-0.2c-0.5-0.2-0.9-0.4-1.3-0.7s-0.7-0.7-0.9-1.2s-0.3-1.1-0.3-1.7
		c0-1.5,0.7-2.7,2.2-3.5s3.7-1.4,6.8-1.7c0-0.5,0-1-0.1-1.6c-0.1-0.5-0.2-1-0.5-1.4s-0.6-0.8-1-1s-1-0.4-1.7-0.4
		c-0.9,0-1.8,0.2-2.5,0.5c-0.8,0.4-1.4,0.7-1.9,1.1l-0.6-1c0.3-0.2,0.6-0.4,0.9-0.6c0.4-0.2,0.8-0.4,1.2-0.6s0.9-0.3,1.4-0.4
		s1.1-0.2,1.6-0.2c0.8,0,1.5,0.1,2.1,0.4s1,0.7,1.4,1.1c0.3,0.5,0.6,1,0.8,1.7c0.2,0.6,0.2,1.3,0.2,2.1v8.9h-1.1l-0.1-1.8h-0.1
		c-0.7,0.6-1.5,1.1-2.3,1.5C53.3,367.7,52.4,368,51.5,368z M51.7,366.9c0.8,0,1.6-0.2,2.3-0.6s1.5-0.9,2.4-1.7v-4.7
		c-1.4,0.2-2.6,0.4-3.6,0.6c-1,0.3-1.8,0.6-2.4,0.9c-0.6,0.3-1,0.7-1.3,1.2c-0.3,0.4-0.4,0.9-0.4,1.5c0,0.5,0.1,0.9,0.2,1.3
		c0.2,0.3,0.4,0.6,0.6,0.9c0.3,0.2,0.6,0.4,0.9,0.5C50.9,366.8,51.3,366.9,51.7,366.9z"/>
	<path class="st2" d="M68.5,367.6v-19.1H74c0.9,0,1.8,0.1,2.6,0.3s1.4,0.5,2,0.9c0.5,0.4,1,0.9,1.3,1.6c0.3,0.6,0.4,1.4,0.4,2.3
		c0,1.5-0.4,2.7-1.3,3.6s-2.1,1.4-3.6,1.6l5.3,8.9h-1.5l-5.2-8.8h-4v8.8L68.5,367.6L68.5,367.6z M69.8,357.7h3.8c1.7,0,3-0.3,3.9-1
		s1.3-1.7,1.3-3.1s-0.5-2.4-1.4-3s-2.2-0.9-3.9-0.9h-3.8L69.8,357.7L69.8,357.7z"/>
	<path class="st2" d="M89.1,368c-0.9,0-1.7-0.2-2.5-0.5s-1.5-0.8-2-1.4c-0.6-0.6-1-1.4-1.4-2.3c-0.3-0.9-0.5-1.9-0.5-3.1
		c0-1.1,0.2-2.2,0.5-3.1s0.8-1.7,1.4-2.3c0.6-0.6,1.2-1.1,1.9-1.4c0.7-0.3,1.5-0.5,2.2-0.5c1.7,0,3,0.6,3.9,1.7s1.4,2.7,1.4,4.7
		c0,0.2,0,0.3,0,0.5s0,0.3-0.1,0.5h-10c0,0.9,0.2,1.7,0.4,2.4c0.3,0.7,0.6,1.4,1.1,1.9s1,0.9,1.6,1.2c0.6,0.3,1.4,0.4,2.1,0.4
		c0.8,0,1.4-0.1,2-0.3c0.6-0.2,1.2-0.5,1.7-0.9l0.5,1c-0.6,0.3-1.2,0.6-1.8,0.9C91,367.8,90.1,368,89.1,368z M84,359.8h8.9
		c0-1.8-0.4-3.1-1.1-4s-1.7-1.3-3-1.3c-0.6,0-1.2,0.1-1.7,0.4c-0.5,0.2-1,0.6-1.5,1.1c-0.4,0.5-0.8,1-1.1,1.7
		C84.3,358.2,84.1,359,84,359.8z"/>
	<path class="st2" d="M101.3,368c-1,0-2-0.2-2.9-0.6s-1.6-0.8-2.2-1.3l0.8-1c0.6,0.5,1.2,0.9,1.9,1.3c0.7,0.3,1.5,0.5,2.5,0.5
		c1.1,0,1.9-0.3,2.5-0.8s0.8-1.2,0.8-1.9c0-0.4-0.1-0.8-0.3-1.1s-0.5-0.6-0.8-0.8c-0.3-0.2-0.7-0.4-1.1-0.6s-0.8-0.3-1.2-0.5
		c-0.5-0.2-1-0.4-1.6-0.6c-0.5-0.2-1-0.5-1.4-0.8s-0.8-0.7-1-1.1c-0.3-0.4-0.4-0.9-0.4-1.5c0-0.5,0.1-1,0.3-1.4
		c0.2-0.5,0.5-0.8,0.9-1.2c0.4-0.3,0.9-0.6,1.4-0.8c0.5-0.2,1.2-0.3,1.9-0.3s1.5,0.1,2.2,0.4s1.3,0.6,1.8,1l-0.7,0.9
		c-0.5-0.3-1-0.6-1.5-0.9s-1.1-0.4-1.9-0.4c-0.5,0-1,0.1-1.4,0.2s-0.7,0.3-1,0.6c-0.3,0.2-0.5,0.5-0.6,0.8s-0.2,0.6-0.2,0.9
		c0,0.4,0.1,0.7,0.3,1c0.2,0.3,0.4,0.5,0.7,0.7c0.3,0.2,0.7,0.4,1.1,0.6s0.8,0.3,1.2,0.5c0.5,0.2,1.1,0.4,1.6,0.6s1,0.5,1.5,0.8
		s0.8,0.7,1.1,1.1c0.3,0.5,0.4,1,0.4,1.7c0,0.5-0.1,1-0.3,1.5c-0.2,0.5-0.5,0.9-0.9,1.2c-0.4,0.4-0.9,0.6-1.5,0.9
		C102.6,367.8,101.9,368,101.3,368z"/>
	<path class="st2" d="M114.6,368c-0.8,0-1.6-0.2-2.4-0.5s-1.4-0.8-2-1.4s-1-1.4-1.4-2.3c-0.3-0.9-0.5-1.9-0.5-3.1s0.2-2.2,0.5-3.1
		s0.8-1.7,1.4-2.3c0.6-0.6,1.2-1.1,2-1.4s1.5-0.5,2.4-0.5s1.6,0.2,2.4,0.5s1.4,0.8,2,1.4s1,1.4,1.4,2.3c0.3,0.9,0.5,2,0.5,3.1
		c0,1.2-0.2,2.2-0.5,3.1s-0.8,1.7-1.4,2.3c-0.6,0.6-1.2,1.1-2,1.4C116.3,367.8,115.4,368,114.6,368z M114.6,366.8
		c0.7,0,1.3-0.1,2-0.4c0.6-0.3,1.1-0.7,1.6-1.3c0.4-0.5,0.8-1.2,1-1.9c0.3-0.8,0.4-1.6,0.4-2.5s-0.1-1.8-0.4-2.5
		c-0.3-0.8-0.6-1.4-1-2c-0.4-0.5-1-1-1.6-1.3s-1.3-0.4-2-0.4s-1.3,0.1-1.9,0.4s-1.1,0.7-1.5,1.3c-0.4,0.6-0.8,1.2-1,2
		c-0.3,0.8-0.4,1.6-0.4,2.5s0.1,1.7,0.4,2.5s0.6,1.4,1,1.9s1,1,1.5,1.3C113.3,366.7,113.9,366.8,114.6,366.8z"/>
	<path class="st2" d="M129.1,368c-1.4,0-2.5-0.4-3.2-1.3s-1-2.2-1-4v-8.9h1.3v8.7c0,1.5,0.2,2.6,0.7,3.3c0.5,0.7,1.3,1.1,2.4,1.1
		c0.8,0,1.6-0.2,2.3-0.7s1.4-1.2,2.2-2.2v-10.2h1.3v13.9H134l-0.1-2.3h-0.1c-0.7,0.8-1.4,1.5-2.1,1.9
		C130.9,367.7,130.1,368,129.1,368z"/>
	<path class="st2" d="M140.3,367.6v-13.9h1.1l0.1,2.6h0.1c0.5-0.9,1-1.6,1.7-2.1s1.4-0.8,2.2-0.8c0.3,0,0.5,0,0.7,0.1
		s0.4,0.1,0.7,0.2l-0.3,1.2c-0.2-0.1-0.4-0.2-0.6-0.2s-0.4,0-0.7,0c-0.6,0-1.3,0.3-2,0.8s-1.3,1.5-1.8,2.8v9.5h-1.2V367.6z"/>
	<path class="st2" d="M154.4,368c-0.9,0-1.7-0.2-2.5-0.5s-1.4-0.8-2-1.4s-1-1.4-1.3-2.3s-0.5-1.9-0.5-3.1s0.2-2.2,0.5-3.1
		s0.8-1.7,1.4-2.3c0.6-0.6,1.2-1.1,2-1.4s1.6-0.5,2.4-0.5c1,0,1.8,0.2,2.4,0.5c0.6,0.3,1.2,0.7,1.7,1.2l-0.8,0.9
		c-0.4-0.4-0.9-0.8-1.5-1.1c-0.5-0.3-1.1-0.4-1.8-0.4s-1.4,0.1-2,0.4s-1.1,0.7-1.6,1.3c-0.5,0.6-0.8,1.2-1.1,2s-0.4,1.6-0.4,2.5
		s0.1,1.7,0.4,2.5c0.2,0.8,0.6,1.4,1,1.9s1,1,1.6,1.3s1.3,0.4,2.1,0.4c0.7,0,1.4-0.2,2-0.5s1.2-0.7,1.7-1.1l0.7,0.9
		c-0.6,0.5-1.3,1-2,1.3S155.3,368,154.4,368z"/>
	<path class="st2" d="M167.1,368c-0.9,0-1.7-0.2-2.5-0.5s-1.5-0.8-2-1.4c-0.6-0.6-1-1.4-1.4-2.3c-0.3-0.9-0.5-1.9-0.5-3.1
		c0-1.1,0.2-2.2,0.5-3.1s0.8-1.7,1.4-2.3c0.6-0.6,1.2-1.1,1.9-1.4s1.5-0.5,2.2-0.5c1.7,0,3,0.6,3.9,1.7s1.4,2.7,1.4,4.7
		c0,0.2,0,0.3,0,0.5s0,0.3-0.1,0.5h-10c0,0.9,0.2,1.7,0.4,2.4c0.3,0.7,0.6,1.4,1.1,1.9s1,0.9,1.6,1.2c0.6,0.3,1.4,0.4,2.1,0.4
		c0.8,0,1.4-0.1,2-0.3c0.6-0.2,1.2-0.5,1.7-0.9l0.5,1c-0.6,0.3-1.2,0.6-1.8,0.9C168.9,367.8,168.1,368,167.1,368z M161.9,359.8h8.9
		c0-1.8-0.4-3.1-1.1-4c-0.7-0.9-1.7-1.3-3-1.3c-0.6,0-1.2,0.1-1.7,0.4c-0.5,0.2-1,0.6-1.5,1.1c-0.4,0.5-0.8,1-1.1,1.7
		C162.3,358.2,162.1,359,161.9,359.8z"/>
	<path class="st2" d="M179.1,368c-1,0-2-0.2-2.9-0.6s-1.6-0.8-2.2-1.3l0.8-1c0.6,0.5,1.2,0.9,1.9,1.3c0.7,0.3,1.5,0.5,2.5,0.5
		c1.1,0,1.9-0.3,2.5-0.8s0.8-1.2,0.8-1.9c0-0.4-0.1-0.8-0.3-1.1s-0.5-0.6-0.8-0.8c-0.3-0.2-0.7-0.4-1.1-0.6
		c-0.4-0.2-0.8-0.3-1.2-0.5c-0.5-0.2-1-0.4-1.6-0.6c-0.5-0.2-1-0.5-1.4-0.8s-0.8-0.7-1-1.1c-0.3-0.4-0.4-0.9-0.4-1.5
		c0-0.5,0.1-1,0.3-1.4c0.2-0.5,0.5-0.8,0.9-1.2c0.4-0.3,0.9-0.6,1.4-0.8c0.5-0.2,1.2-0.3,1.9-0.3s1.5,0.1,2.2,0.4s1.3,0.6,1.8,1
		l-0.7,0.9c-0.5-0.3-1-0.6-1.5-0.9s-1.1-0.4-1.9-0.4c-0.5,0-1,0.1-1.4,0.2s-0.7,0.3-1,0.6c-0.3,0.2-0.5,0.5-0.6,0.8
		s-0.2,0.6-0.2,0.9c0,0.4,0.1,0.7,0.3,1s0.4,0.5,0.7,0.7s0.7,0.4,1.1,0.6c0.4,0.2,0.8,0.3,1.2,0.5c0.5,0.2,1.1,0.4,1.6,0.6
		s1,0.5,1.5,0.8s0.8,0.7,1.1,1.1c0.3,0.5,0.4,1,0.4,1.7c0,0.5-0.1,1-0.3,1.5s-0.5,0.9-0.9,1.2c-0.4,0.4-0.9,0.6-1.5,0.9
		C180.6,367.8,179.9,368,179.1,368z"/>
</g>
<g>
	<path class="st2" d="M4.6,437.3v-19.1h5.2c1.9,0,3.5,0.4,4.6,1.1s1.7,1.9,1.7,3.5c0,1-0.3,1.9-0.8,2.6s-1.2,1.3-2.2,1.5v0.1
		c1.2,0.2,2.2,0.7,3,1.5c0.8,0.8,1.1,1.8,1.1,3.1c0,0.9-0.2,1.7-0.5,2.4c-0.3,0.7-0.8,1.3-1.4,1.7s-1.4,0.8-2.2,1
		c-0.9,0.2-1.8,0.3-2.9,0.3H4.6V437.3z M5.9,426.6h3.3c1.9,0,3.4-0.3,4.2-1c0.9-0.6,1.3-1.5,1.3-2.6c0-1.4-0.5-2.3-1.4-2.9
		c-0.9-0.5-2.2-0.8-4-0.8H5.9V426.6z M5.9,436.2h3.9c1.9,0,3.4-0.4,4.5-1.1s1.6-1.8,1.6-3.4c0-1.4-0.5-2.4-1.6-3.1s-2.6-1-4.5-1H5.9
		V436.2z"/>
	<path class="st2" d="M26.3,437.6c-0.8,0-1.6-0.2-2.4-0.5s-1.4-0.8-2-1.4s-1-1.4-1.4-2.3c-0.3-0.9-0.5-1.9-0.5-3.1s0.2-2.2,0.5-3.1
		s0.8-1.7,1.4-2.3c0.6-0.6,1.2-1.1,2-1.4s1.5-0.5,2.4-0.5s1.6,0.2,2.4,0.5s1.4,0.8,2,1.4s1,1.4,1.4,2.3c0.3,0.9,0.5,2,0.5,3.1
		c0,1.2-0.2,2.2-0.5,3.1s-0.8,1.7-1.4,2.3c-0.6,0.6-1.2,1.1-2,1.4C28,437.4,27.2,437.6,26.3,437.6z M26.3,436.5c0.7,0,1.3-0.1,2-0.4
		c0.6-0.3,1.1-0.7,1.6-1.3c0.4-0.5,0.8-1.2,1-1.9c0.3-0.8,0.4-1.6,0.4-2.5s-0.1-1.8-0.4-2.5c-0.3-0.8-0.6-1.4-1-2
		c-0.4-0.5-1-1-1.6-1.3s-1.3-0.4-2-0.4s-1.3,0.1-1.9,0.4s-1.1,0.7-1.5,1.3c-0.4,0.6-0.8,1.2-1,2c-0.3,0.8-0.4,1.6-0.4,2.5
		s0.1,1.7,0.4,2.5s0.6,1.4,1,1.9s1,1,1.5,1.3C25,436.3,25.6,436.5,26.3,436.5z"/>
	<path class="st2" d="M38.5,437.6c-1.1,0-1.7-0.7-1.7-2.2v-19H38v19.1c0,0.3,0.1,0.5,0.2,0.7c0.1,0.1,0.3,0.2,0.4,0.2
		c0.1,0,0.1,0,0.2,0c0.1,0,0.2,0,0.3-0.1l0.2,1c-0.1,0-0.3,0.1-0.4,0.1C38.9,437.6,38.7,437.6,38.5,437.6z"/>
	<path class="st2" d="M44.3,420c-0.3,0-0.6-0.1-0.8-0.3c-0.2-0.2-0.3-0.5-0.3-0.8c0-0.4,0.1-0.7,0.3-0.9c0.2-0.2,0.5-0.3,0.8-0.3
		s0.6,0.1,0.8,0.3c0.2,0.2,0.3,0.5,0.3,0.9c0,0.3-0.1,0.6-0.3,0.8C44.9,419.9,44.5,420,44.3,420z M43.5,437.3v-13.9h1.3v13.9H43.5z"
		/>
	<path class="st2" d="M54.8,437.6c-1.8,0-3.2-0.6-4.2-1.9c-1-1.2-1.6-3-1.6-5.4c0-1.1,0.2-2.1,0.5-3s0.8-1.7,1.3-2.3
		c0.6-0.6,1.2-1.1,2-1.5c0.7-0.3,1.5-0.5,2.4-0.5c0.8,0,1.6,0.1,2.2,0.4c0.6,0.3,1.3,0.7,2,1.3l-0.1-2.5v-5.7h1.3v20.8h-1.1
		l-0.1-1.8h-0.1c-0.6,0.6-1.2,1.1-2,1.5C56.5,437.4,55.8,437.6,54.8,437.6z M55,436.5c0.8,0,1.5-0.2,2.2-0.6s1.4-1,2.2-1.7v-8.3
		c-0.7-0.7-1.4-1.1-2.1-1.4c-0.6-0.3-1.3-0.4-2-0.4s-1.3,0.2-1.9,0.5c-0.6,0.3-1.1,0.8-1.5,1.3s-0.8,1.2-1,2
		c-0.3,0.8-0.4,1.6-0.4,2.4c0,0.9,0.1,1.8,0.3,2.5c0.2,0.8,0.5,1.4,0.9,1.9s0.9,0.9,1.4,1.2C53.5,436.3,54.3,436.5,55,436.5z"/>
	<path class="st2" d="M71.3,437.6c-0.9,0-1.7-0.2-2.5-0.5s-1.5-0.8-2-1.4c-0.6-0.6-1-1.4-1.4-2.3c-0.3-0.9-0.5-1.9-0.5-3.1
		c0-1.1,0.2-2.2,0.5-3.1s0.8-1.7,1.4-2.3c0.6-0.6,1.2-1.1,1.9-1.4c0.7-0.3,1.5-0.5,2.2-0.5c1.7,0,3,0.6,3.9,1.7s1.4,2.7,1.4,4.7
		c0,0.2,0,0.3,0,0.5s0,0.3-0.1,0.5h-10c0,0.9,0.2,1.7,0.4,2.4c0.3,0.7,0.6,1.4,1.1,1.9s1,0.9,1.6,1.2c0.6,0.3,1.4,0.4,2.1,0.4
		c0.8,0,1.4-0.1,2-0.3c0.6-0.2,1.2-0.5,1.7-0.9l0.5,1c-0.6,0.3-1.2,0.6-1.8,0.9C73,437.5,72.3,437.6,71.3,437.6z M66,429.4h8.9
		c0-1.8-0.4-3.1-1.1-4s-1.7-1.3-3-1.3c-0.6,0-1.2,0.1-1.7,0.4c-0.5,0.2-1,0.6-1.5,1.1c-0.4,0.5-0.8,1-1.1,1.7
		C66.3,427.9,66.1,428.6,66,429.4z"/>
	<path class="st2" d="M79.9,437.3v-13.9H81l0.1,2.1h0.1c0.7-0.7,1.4-1.3,2.2-1.8S85,423,86,423c1.4,0,2.5,0.4,3.2,1.3s1,2.2,1,4v8.9
		h-1.3v-8.7c0-1.5-0.2-2.6-0.7-3.3c-0.5-0.7-1.3-1.1-2.4-1.1c-0.8,0-1.6,0.2-2.3,0.7c-0.7,0.4-1.4,1.1-2.3,2v10.5H79.9z"/>
</g>
<g>
	<path class="st2" d="M931,160.2v-1.3h5v-17.5h-3.8v-1c0.9-0.2,1.6-0.3,2.3-0.6c0.7-0.2,1.3-0.5,1.8-0.8h1.2v19.9h4.6v1.3L931,160.2
		L931,160.2z"/>
	<path class="st2" d="M946.3,165.3l-0.5-1c0.8-0.4,1.4-0.9,1.9-1.6c0.5-0.7,0.7-1.5,0.7-2.4c-0.1,0-0.2,0-0.4,0
		c-0.4,0-0.7-0.1-1-0.4c-0.3-0.2-0.4-0.6-0.4-1s0.1-0.8,0.4-1c0.3-0.2,0.6-0.4,1-0.4c0.5,0,0.9,0.2,1.2,0.6c0.3,0.4,0.5,1,0.5,1.7
		c0,1.2-0.3,2.3-1,3.2S947.3,164.8,946.3,165.3z"/>
	<path class="st2" d="M961.7,160.2v-6.3H952V153l9.8-14h1.3v13.6h3.1v1.3H963v6.3L961.7,160.2L961.7,160.2z M953.8,152.6h7.9v-7.7
		c0-0.5,0-1.1,0-1.8s0.1-1.3,0.1-1.8h-0.1c-0.3,0.4-0.5,0.9-0.8,1.3c-0.3,0.4-0.6,0.9-0.9,1.4L953.8,152.6z"/>
	<path class="st2" d="M975,160.6c-0.8,0-1.6-0.1-2.3-0.3s-1.3-0.4-1.8-0.7s-1-0.6-1.5-1c-0.4-0.4-0.8-0.7-1.1-1.1l0.9-1
		c0.3,0.4,0.7,0.7,1,1c0.4,0.3,0.8,0.6,1.3,0.9c0.5,0.3,1,0.5,1.6,0.6c0.6,0.2,1.2,0.2,2,0.2c0.7,0,1.4-0.1,2-0.3s1.1-0.5,1.6-0.9
		c0.4-0.4,0.8-0.9,1-1.5s0.4-1.2,0.4-1.9s-0.1-1.4-0.4-2c-0.3-0.6-0.7-1.1-1.3-1.5s-1.3-0.8-2.3-1c-0.9-0.2-2.1-0.4-3.4-0.4v-1.3
		c1.2,0,2.2-0.1,3.1-0.4c0.8-0.2,1.5-0.6,2.1-1c0.5-0.4,0.9-0.9,1.1-1.5c0.2-0.6,0.3-1.2,0.3-1.8c0-1.2-0.4-2.1-1.2-2.9
		c-0.8-0.7-1.8-1.1-3.1-1.1c-1,0-1.9,0.2-2.7,0.7s-1.5,1-2.2,1.6l-0.9-1c0.7-0.7,1.6-1.3,2.5-1.8s2-0.8,3.2-0.8
		c0.8,0,1.6,0.1,2.3,0.3s1.3,0.6,1.8,1s0.9,1,1.2,1.6s0.4,1.4,0.4,2.2c0,1.4-0.4,2.5-1.1,3.4s-1.7,1.5-2.9,1.9v0.1
		c0.7,0.1,1.3,0.4,1.9,0.7c0.6,0.3,1.1,0.7,1.5,1.2s0.8,1,1,1.6c0.3,0.6,0.4,1.3,0.4,2c0,0.9-0.2,1.8-0.5,2.5s-0.8,1.4-1.4,1.9
		c-0.6,0.5-1.3,0.9-2.1,1.2S975.9,160.6,975,160.6z"/>
	<path class="st2" d="M991,160.6c-2,0-3.6-1-4.7-2.9c-1.1-1.9-1.6-4.6-1.6-8.2c0-3.5,0.5-6.2,1.6-8.1c1.1-1.9,2.7-2.8,4.7-2.8
		s3.6,0.9,4.7,2.8c1.1,1.9,1.6,4.6,1.6,8.1c0,3.6-0.5,6.3-1.6,8.2C994.5,159.6,993,160.6,991,160.6z M991,159.3
		c1.5,0,2.7-0.8,3.5-2.5c0.9-1.6,1.3-4.1,1.3-7.3s-0.4-5.7-1.3-7.2c-0.9-1.6-2-2.4-3.5-2.4s-2.6,0.8-3.5,2.4c-0.9,1.6-1.3,4-1.3,7.2
		s0.4,5.7,1.3,7.3C988.4,158.5,989.5,159.3,991,159.3z"/>
</g>
<g>
	<path class="st2" d="M954.2,230.3c-1.4,0-2.6-0.3-3.6-0.8s-1.9-1.1-2.5-1.8l2.6-2.9c0.4,0.4,0.8,0.7,1.4,1s1.2,0.4,1.8,0.4
		s1.1-0.1,1.7-0.3c0.5-0.2,1-0.6,1.3-1.1c0.4-0.5,0.7-1.2,0.9-2s0.4-1.9,0.4-3.1c-0.3,0.4-0.6,0.7-0.9,0.9c-0.4,0.3-0.7,0.5-1.1,0.7
		c-0.4,0.2-0.8,0.3-1.1,0.4c-0.4,0.1-0.7,0.1-1.1,0.1c-0.9,0-1.7-0.1-2.5-0.4c-0.8-0.3-1.4-0.7-2-1.2s-1-1.2-1.3-2s-0.5-1.8-0.5-2.9
		c0-1.1,0.2-2.1,0.6-2.9c0.4-0.9,0.9-1.6,1.5-2.2c0.6-0.6,1.4-1.1,2.2-1.4c0.8-0.3,1.7-0.5,2.7-0.5s2,0.2,3,0.6c1,0.4,1.8,1,2.5,1.9
		c0.7,0.8,1.3,1.9,1.8,3.2s0.7,2.9,0.7,4.7c0,2-0.2,3.7-0.7,5.1s-1.1,2.6-1.9,3.5c-0.8,0.9-1.7,1.6-2.7,2.1S955.3,230.3,954.2,230.3
		z M954.9,218.5c0.6,0,1.1-0.2,1.7-0.5c0.6-0.3,1.1-0.9,1.5-1.6c-0.2-1.7-0.6-2.8-1.2-3.4c-0.6-0.6-1.3-0.9-2-0.9s-1.3,0.3-1.9,0.8
		c-0.5,0.5-0.8,1.4-0.8,2.6c0,1.1,0.3,1.9,0.8,2.4C953.5,218.3,954,218.5,954.9,218.5z"/>
	<path class="st2" d="M972,230.3c-1.7,0-3.2-0.3-4.4-0.8s-2.2-1.3-2.9-2.2l2.3-3.1c0.6,0.6,1.3,1.1,2.1,1.5s1.6,0.6,2.5,0.6
		c1,0,1.9-0.2,2.5-0.6c0.6-0.4,0.9-1,0.9-1.8c0-0.5-0.1-0.9-0.2-1.3c-0.2-0.4-0.5-0.7-0.9-0.9c-0.4-0.3-1-0.5-1.7-0.6
		s-1.7-0.2-2.8-0.2v-3.4c0.9,0,1.7-0.1,2.4-0.2c0.6-0.1,1.1-0.3,1.5-0.6s0.7-0.6,0.8-0.9c0.2-0.3,0.2-0.7,0.2-1.1
		c0-0.7-0.2-1.3-0.7-1.7s-1.1-0.6-1.9-0.6c-0.8,0-1.4,0.2-2,0.5s-1.2,0.8-1.9,1.4l-2.4-3c1-0.8,2-1.5,3.1-2s2.3-0.7,3.6-0.7
		c1.1,0,2.1,0.1,3,0.4c0.9,0.3,1.7,0.6,2.3,1.1s1.1,1.1,1.5,1.8s0.5,1.5,0.5,2.4c0,1.1-0.3,2-0.9,2.8c-0.6,0.8-1.5,1.4-2.6,1.9v0.1
		c1.2,0.4,2.2,1,3,1.8s1.2,2,1.2,3.3c0,1-0.2,1.8-0.6,2.6c-0.4,0.8-1,1.4-1.7,1.9s-1.5,0.9-2.5,1.2S973.2,230.3,972,230.3z"/>
	<path class="st2" d="M990.8,230.3c-1,0-2-0.2-3-0.6c-1-0.4-1.8-1-2.5-1.9c-0.7-0.8-1.3-1.9-1.8-3.2c-0.4-1.3-0.7-2.9-0.7-4.7
		c0-2,0.2-3.7,0.7-5.1s1.1-2.6,1.9-3.5s1.7-1.6,2.7-2.1s2.1-0.7,3.2-0.7c1.4,0,2.6,0.2,3.6,0.7s1.9,1.1,2.5,1.8l-2.5,2.9
		c-0.4-0.4-0.9-0.7-1.5-1s-1.2-0.4-1.8-0.4s-1.1,0.1-1.6,0.3s-1,0.6-1.3,1.1c-0.4,0.5-0.7,1.2-0.9,2s-0.4,1.9-0.4,3.1
		c0.3-0.4,0.6-0.7,0.9-0.9s0.7-0.5,1.1-0.7c0.4-0.2,0.8-0.3,1.1-0.4s0.7-0.1,1.1-0.1c0.9,0,1.7,0.1,2.5,0.4s1.4,0.7,2,1.2
		s1,1.2,1.3,2s0.5,1.8,0.5,2.9c0,1.1-0.2,2.1-0.6,2.9c-0.4,0.9-0.9,1.6-1.5,2.2c-0.6,0.6-1.4,1.1-2.2,1.4
		C992.7,230.1,991.8,230.3,990.8,230.3z M990.7,226.6c0.7,0,1.4-0.3,1.9-0.8s0.8-1.4,0.8-2.6c0-1.1-0.3-1.9-0.8-2.4s-1.2-0.7-2-0.7
		c-0.6,0-1.1,0.2-1.7,0.5c-0.6,0.3-1.1,0.9-1.5,1.6c0.1,0.8,0.3,1.5,0.5,2.1s0.5,1,0.8,1.3s0.6,0.6,0.9,0.7S990.3,226.6,990.7,226.6
		z"/>
</g>
<g>
	<path class="st2" d="M957.7,299.5c0.1-2.1,0.3-4.1,0.5-5.9c0.3-1.8,0.7-3.5,1.2-5c0.5-1.6,1.1-3.1,1.9-4.5c0.8-1.4,1.7-2.9,2.7-4.4
		h-11.1v-1.3h13v0.9c-1.3,1.7-2.3,3.3-3.1,4.8s-1.5,3.1-2,4.7s-0.9,3.3-1.1,5c-0.2,1.7-0.4,3.7-0.5,5.7L957.7,299.5L957.7,299.5z"/>
	<path class="st2" d="M973.5,299.5c0.1-2.1,0.3-4.1,0.5-5.9c0.3-1.8,0.7-3.5,1.2-5c0.5-1.6,1.1-3.1,1.9-4.5c0.8-1.4,1.7-2.9,2.7-4.4
		h-11.1v-1.3h13v0.9c-1.3,1.7-2.3,3.3-3.1,4.8s-1.5,3.1-2,4.7s-0.9,3.3-1.1,5c-0.2,1.7-0.4,3.7-0.5,5.7L973.5,299.5L973.5,299.5z"/>
	<path class="st2" d="M990.7,299.9c-0.8,0-1.6-0.1-2.3-0.2c-0.7-0.2-1.3-0.4-1.8-0.7c-0.5-0.3-1-0.6-1.4-0.9s-0.8-0.7-1.1-1l0.8-1
		c0.3,0.3,0.7,0.7,1,1c0.4,0.3,0.8,0.6,1.3,0.8c0.5,0.2,1,0.4,1.6,0.6c0.6,0.1,1.2,0.2,2,0.2c0.7,0,1.4-0.1,2-0.4s1.2-0.7,1.7-1.2
		s0.9-1.1,1.1-1.8c0.3-0.7,0.4-1.5,0.4-2.3c0-1.7-0.5-3.1-1.4-4c-0.9-1-2.2-1.4-3.8-1.4c-0.8,0-1.5,0.1-2.1,0.4s-1.2,0.6-1.8,1
		l-1-0.6l0.8-9.9h9.8v1.3H988l-0.7,7.6c0.6-0.3,1.1-0.6,1.7-0.8c0.6-0.2,1.3-0.3,2.1-0.3c0.9,0,1.7,0.1,2.5,0.4s1.5,0.7,2.1,1.2
		s1,1.2,1.4,2.1c0.3,0.8,0.5,1.8,0.5,3c0,1.1-0.2,2.1-0.6,3c-0.4,0.9-0.9,1.6-1.5,2.2s-1.3,1.1-2.2,1.4
		C992.4,299.7,991.5,299.9,990.7,299.9z"/>
</g>
<g>
	<path class="st2" d="M959,369.6c-0.8,0-1.6-0.1-2.3-0.3c-0.7-0.2-1.3-0.4-1.8-0.7c-0.5-0.3-1-0.6-1.5-1c-0.4-0.4-0.8-0.7-1.1-1.1
		l0.9-1c0.3,0.4,0.7,0.7,1,1c0.4,0.3,0.8,0.6,1.3,0.9s1,0.5,1.6,0.6c0.6,0.2,1.2,0.2,2,0.2c0.7,0,1.4-0.1,2-0.3s1.1-0.5,1.6-0.9
		c0.4-0.4,0.8-0.9,1-1.5s0.4-1.2,0.4-1.9c0-0.7-0.1-1.4-0.4-2c-0.3-0.6-0.7-1.1-1.3-1.5s-1.3-0.8-2.3-1c-0.9-0.2-2.1-0.4-3.4-0.4
		v-1.3c1.2,0,2.2-0.1,3.1-0.4c0.8-0.2,1.5-0.6,2.1-1c0.5-0.4,0.9-0.9,1.1-1.5c0.2-0.6,0.3-1.2,0.3-1.8c0-1.2-0.4-2.1-1.2-2.9
		c-0.8-0.7-1.8-1.1-3.1-1.1c-1,0-1.9,0.2-2.7,0.7s-1.5,1-2.2,1.6l-0.9-1c0.7-0.7,1.6-1.3,2.5-1.8s2-0.8,3.2-0.8
		c0.8,0,1.6,0.1,2.3,0.3c0.7,0.2,1.3,0.6,1.8,1s0.9,1,1.2,1.6s0.4,1.4,0.4,2.2c0,1.4-0.4,2.5-1.1,3.4c-0.8,0.8-1.7,1.5-2.9,1.9v0.1
		c0.7,0.1,1.3,0.4,1.9,0.7c0.6,0.3,1.1,0.7,1.5,1.2s0.8,1,1,1.6c0.3,0.6,0.4,1.3,0.4,2c0,0.9-0.2,1.8-0.5,2.5s-0.8,1.4-1.4,1.9
		c-0.6,0.5-1.3,0.9-2.1,1.2S960,369.6,959,369.6z"/>
	<path class="st2" d="M975.9,369.6c-2.1,0-3.8-0.9-5.1-2.6c-1.2-1.7-1.9-4.2-1.9-7.4c0-2.2,0.2-4.1,0.6-5.6c0.4-1.5,1-2.8,1.7-3.7
		s1.5-1.6,2.5-2c0.9-0.4,1.9-0.6,2.9-0.6s1.8,0.2,2.6,0.6c0.7,0.4,1.4,0.9,1.9,1.5l-0.9,1c-0.5-0.6-1-1-1.6-1.3s-1.3-0.4-2-0.4
		c-0.8,0-1.6,0.2-2.4,0.5c-0.8,0.4-1.4,1-2,1.8s-1,1.9-1.4,3.2c-0.3,1.3-0.5,3-0.5,4.9c0.7-0.9,1.5-1.6,2.5-2.2s1.9-0.8,2.9-0.8
		c1.9,0,3.3,0.6,4.3,1.7s1.5,2.7,1.5,4.9c0,1-0.2,1.9-0.5,2.7c-0.3,0.8-0.7,1.5-1.3,2.1c-0.5,0.6-1.1,1-1.8,1.4
		C977.5,369.4,976.7,369.6,975.9,369.6z M976,368.3c0.6,0,1.2-0.1,1.7-0.4s1-0.7,1.3-1.1c0.4-0.5,0.7-1.1,0.9-1.7
		c0.2-0.7,0.3-1.4,0.3-2.1s-0.1-1.5-0.3-2.1s-0.4-1.2-0.8-1.7c-0.4-0.5-0.8-0.8-1.4-1.1c-0.6-0.3-1.3-0.4-2.1-0.4s-1.6,0.2-2.5,0.7
		s-1.8,1.3-2.6,2.5c0.1,1.1,0.2,2.1,0.5,3.1c0.3,0.9,0.6,1.7,1,2.3s1,1.2,1.6,1.5C974.4,368.1,975,368.3,976,368.3z"/>
	<path class="st2" d="M990.8,369.6c-0.8,0-1.6-0.1-2.3-0.3c-0.7-0.2-1.3-0.4-1.8-0.7c-0.5-0.3-1-0.6-1.5-1c-0.4-0.4-0.8-0.7-1.1-1.1
		l0.9-1c0.3,0.4,0.7,0.7,1,1c0.4,0.3,0.8,0.6,1.3,0.9s1,0.5,1.6,0.6c0.6,0.2,1.2,0.2,2,0.2c0.7,0,1.4-0.1,2-0.3s1.1-0.5,1.6-0.9
		c0.4-0.4,0.8-0.9,1-1.5s0.4-1.2,0.4-1.9c0-0.7-0.1-1.4-0.4-2c-0.3-0.6-0.7-1.1-1.3-1.5s-1.3-0.8-2.3-1c-0.9-0.2-2.1-0.4-3.4-0.4
		v-1.3c1.2,0,2.2-0.1,3.1-0.4c0.8-0.2,1.5-0.6,2.1-1c0.5-0.4,0.9-0.9,1.1-1.5c0.2-0.6,0.3-1.2,0.3-1.8c0-1.2-0.4-2.1-1.2-2.9
		c-0.8-0.7-1.8-1.1-3.1-1.1c-1,0-1.9,0.2-2.7,0.7s-1.5,1-2.2,1.6l-0.9-1c0.7-0.7,1.6-1.3,2.5-1.8s2-0.8,3.2-0.8
		c0.8,0,1.6,0.1,2.3,0.3c0.7,0.2,1.3,0.6,1.8,1s0.9,1,1.2,1.6s0.4,1.4,0.4,2.2c0,1.4-0.4,2.5-1.1,3.4c-0.8,0.8-1.7,1.5-2.9,1.9v0.1
		c0.7,0.1,1.3,0.4,1.9,0.7c0.6,0.3,1.1,0.7,1.5,1.2s0.8,1,1,1.6c0.3,0.6,0.4,1.3,0.4,2c0,0.9-0.2,1.8-0.5,2.5s-0.8,1.4-1.4,1.9
		c-0.6,0.5-1.3,0.9-2.1,1.2S991.7,369.6,990.8,369.6z"/>
</g>
<g>
	<path class="st2" d="M959,439.2c-0.8,0-1.6-0.1-2.3-0.3c-0.7-0.2-1.3-0.4-1.8-0.7c-0.5-0.3-1-0.6-1.5-1c-0.4-0.4-0.8-0.7-1.1-1.1
		l0.9-1c0.3,0.4,0.7,0.7,1,1c0.4,0.3,0.8,0.6,1.3,0.9s1,0.5,1.6,0.6c0.6,0.2,1.2,0.2,2,0.2c0.7,0,1.4-0.1,2-0.3s1.1-0.5,1.6-0.9
		c0.4-0.4,0.8-0.9,1-1.5s0.4-1.2,0.4-1.9c0-0.7-0.1-1.4-0.4-2c-0.3-0.6-0.7-1.1-1.3-1.5s-1.3-0.8-2.3-1c-0.9-0.2-2.1-0.4-3.4-0.4
		V427c1.2,0,2.2-0.1,3.1-0.4c0.8-0.2,1.5-0.6,2.1-1c0.5-0.4,0.9-0.9,1.1-1.5c0.2-0.6,0.3-1.2,0.3-1.8c0-1.2-0.4-2.1-1.2-2.9
		c-0.8-0.7-1.8-1.1-3.1-1.1c-1,0-1.9,0.2-2.7,0.7s-1.5,1-2.2,1.6l-0.9-1c0.7-0.7,1.6-1.3,2.5-1.8s2-0.8,3.2-0.8
		c0.8,0,1.6,0.1,2.3,0.3c0.7,0.2,1.3,0.6,1.8,1s0.9,1,1.2,1.6s0.4,1.4,0.4,2.2c0,1.4-0.4,2.5-1.1,3.4c-0.8,0.8-1.7,1.5-2.9,1.9v0.1
		c0.7,0.1,1.3,0.4,1.9,0.7c0.6,0.3,1.1,0.7,1.5,1.2s0.8,1,1,1.6c0.3,0.6,0.4,1.3,0.4,2c0,0.9-0.2,1.8-0.5,2.5s-0.8,1.4-1.4,1.9
		c-0.6,0.5-1.3,0.9-2.1,1.2S960,439.2,959,439.2z"/>
	<path class="st2" d="M974.8,439.2c-0.8,0-1.6-0.1-2.3-0.2c-0.7-0.2-1.3-0.4-1.8-0.7c-0.5-0.3-1-0.6-1.4-0.9s-0.8-0.7-1.1-1l0.8-1
		c0.3,0.3,0.7,0.7,1,1c0.4,0.3,0.8,0.6,1.3,0.8c0.5,0.2,1,0.4,1.6,0.6c0.6,0.1,1.2,0.2,2,0.2c0.7,0,1.4-0.1,2-0.4s1.2-0.7,1.7-1.2
		s0.9-1.1,1.1-1.8c0.3-0.7,0.4-1.5,0.4-2.3c0-1.7-0.5-3.1-1.4-4c-0.9-1-2.2-1.4-3.8-1.4c-0.8,0-1.5,0.1-2.1,0.4s-1.2,0.6-1.8,1
		l-1-0.6l0.8-9.9h9.8v1.3H972l-0.7,7.6c0.6-0.3,1.1-0.6,1.7-0.8c0.6-0.2,1.3-0.3,2.1-0.3c0.9,0,1.7,0.1,2.5,0.4s1.5,0.7,2.1,1.2
		s1,1.2,1.4,2.1c0.3,0.8,0.5,1.8,0.5,3c0,1.1-0.2,2.1-0.6,3c-0.4,0.9-0.9,1.6-1.5,2.2s-1.3,1.1-2.2,1.4
		C976.5,439.1,975.7,439.2,974.8,439.2z"/>
	<path class="st2" d="M993.4,438.8v-6.3h-9.7v-0.9l9.8-14h1.3v13.6h3.1v1.3h-3.1v6.3H993.4z M985.5,431.2h7.9v-7.7
		c0-0.5,0-1.1,0-1.8c0-0.7,0.1-1.3,0.1-1.8h-0.1c-0.3,0.4-0.5,0.9-0.8,1.3s-0.6,0.9-0.9,1.4L985.5,431.2z"/>
</g>
<line class="st4" x1="1" y1="481.1" x2="999" y2="481.1"/>
</svg>
