<?xml version="1.0" encoding="utf-8"?>
<!-- Generator: Adobe Illustrator 23.0.3, SVG Export Plug-In . SVG Version: 6.00 Build 0)  -->
<svg version="1.1" id="Layer_1" xmlns="http://www.w3.org/2000/svg" xmlns:xlink="http://www.w3.org/1999/xlink" x="0px" y="0px"
	 viewBox="0 0 394.5 166.7" style="enable-background:new 0 0 394.5 166.7;" xml:space="preserve">
<style type="text/css">
	.st0{enable-background:new    ;}
	.st1{fill:none;stroke:#000000;stroke-width:0.25;}
	.st2{fill:#ABD693;}
</style>
<g>
	<g class="st0">
		<path d="M1.8,1h1.5v5.3h2.6v1.2h-4L1.8,1L1.8,1z"/>
		<path d="M7,1h4.1v1.2H8.5v1.3h2.2v1.2H8.5v1.5h2.7v1.2H7V1z"/>
	</g>
	<g class="st0">
		<path d="M13.3,1h1.8l2,6.5h-1.6L15.1,6h-2l-0.4,1.5h-1.5L13.3,1z M13.5,4.8h1.4l-0.1-0.6c-0.2-0.7-0.4-1.4-0.5-2.1l0,0
			c-0.2,0.7-0.3,1.4-0.5,2.1L13.5,4.8z"/>
	</g>
	<g class="st0">
		<path d="M17.6,1h1.8c2,0,3.3,1,3.3,3.2s-1.3,3.3-3.2,3.3h-1.9C17.6,7.5,17.6,1,17.6,1z M19.4,6.3c1.1,0,1.8-0.5,1.8-2.1
			s-0.7-2-1.8-2h-0.3v4.1H19.4z"/>
		<path d="M26,1h2.2c1.4,0,2.6,0.5,2.6,2.1c0,1.5-1.2,2.2-2.5,2.2h-0.8v2.2H26V1z M28.2,4.1c0.8,0,1.2-0.4,1.2-1S29,2.2,28.2,2.2
			h-0.7v2L28.2,4.1L28.2,4.1z"/>
		<path d="M31.9,1h2.3c1.4,0,2.5,0.5,2.5,2c0,1-0.5,1.6-1.2,1.9L37,7.5h-1.6l-1.2-2.3h-0.8v2.3h-1.5V1z M34.2,4c0.8,0,1.2-0.3,1.2-1
			S35,2.1,34.2,2.1h-0.8v1.8h0.8V4z"/>
	</g>
	<g class="st0">
		<path d="M37.3,1h1.5v6.5h-1.5V1z"/>
	</g>
	<g class="st0">
		<path d="M39.8,4.3c0-2.2,1.4-3.4,3.1-3.4c0.8,0,1.5,0.4,2,0.8l-0.8,0.9c-0.3-0.3-0.7-0.5-1.1-0.5c-0.9,0-1.6,0.8-1.6,2.1
			S42,6.3,43,6.3c0.5,0,0.9-0.3,1.3-0.6l0.8,0.9c-0.5,0.6-1.3,1-2.1,1C41.2,7.6,39.8,6.5,39.8,4.3z"/>
		<path d="M45.9,1H50v1.2h-2.6v1.3h2.2v1.2h-2.2v1.5h2.7v1.2h-4.2V1z"/>
		<path d="M54.7,2.2h-1.8V1H58v1.2h-1.8v5.3h-1.5V2.2z"/>
		<path d="M59,1h2.3c1.4,0,2.5,0.5,2.5,2c0,1-0.5,1.6-1.2,1.9l1.5,2.6h-1.6l-1.2-2.3h-0.8v2.3H59V1z M61.2,4c0.8,0,1.2-0.3,1.2-1
			S62,2.1,61.2,2.1h-0.8v1.8h0.8V4z"/>
		<path d="M65.1,1h4.1v1.2h-2.6v1.3h2.2v1.2h-2.2v1.5h2.7v1.2h-4.2V1z"/>
	</g>
	<g class="st0">
		<path d="M69.4,1h1.5l1.7,3.2l0.6,1.4l0,0C73.1,4.9,73,4,73,3.2V1h1.4v6.5H73l-1.7-3.2l-0.6-1.4l0,0c0.1,0.7,0.2,1.6,0.2,2.4v2.3
			h-1.4L69.4,1L69.4,1z"/>
	</g>
	<g class="st0">
		<path d="M75.9,1h1.8c2,0,3.3,1,3.3,3.2s-1.3,3.3-3.2,3.3h-1.9C75.9,7.5,75.9,1,75.9,1z M77.7,6.3c1.1,0,1.8-0.5,1.8-2.1
			s-0.7-2-1.8-2h-0.3v4.1H77.7z"/>
	</g>
	<g class="st0">
		<path d="M81.6,6.7l0.8-1c0.5,0.4,1.1,0.7,1.6,0.7c0.6,0,0.9-0.2,0.9-0.6c0-0.4-0.4-0.5-0.9-0.8l-0.8-0.4c-0.7-0.3-1.3-0.8-1.3-1.8
			c0-1.1,1-1.9,2.3-1.9c0.7,0,1.5,0.3,2.1,0.9l-0.7,0.9c-0.4-0.3-0.8-0.5-1.3-0.5s-0.8,0.2-0.8,0.6c0,0.4,0.4,0.5,1,0.8l0.8,0.3
			c0.8,0.3,1.3,0.8,1.3,1.8c0,1.1-0.9,2-2.5,2C83.2,7.6,82.3,7.3,81.6,6.7z"/>
	</g>
	<g class="st0">
		<path d="M1.6,13.7c0-1.1,0.3-2.1,0.9-2.9l0.2,0.1c-0.5,0.8-0.8,1.8-0.8,2.8s0.3,2,0.8,2.8l-0.2,0.1C2,15.8,1.6,14.8,1.6,13.7z"/>
		<path d="M4.3,15.6c-0.4,0-0.8-0.3-1.1-0.5l0.2-0.2c0.2,0.2,0.6,0.5,1,0.5c0.5,0,0.8-0.3,0.8-0.8c0-1.3-1.9-0.9-1.9-2.2
			c0-0.5,0.4-0.9,0.9-1v-0.6h0.3v0.6c0.4,0,0.7,0.2,0.9,0.5l-0.2,0.2c-0.2-0.2-0.4-0.4-0.8-0.4c-0.4,0-0.8,0.3-0.8,0.7
			c0,1.1,1.9,0.8,1.9,2.2c0,0.6-0.4,1-1,1.1v0.6H4.3V15.6z"/>
		<path d="M7.5,16.5c0.5-0.8,0.8-1.8,0.8-2.8s-0.3-2-0.8-2.8l0.2-0.1c0.5,0.9,0.9,1.8,0.9,2.9s-0.3,2.1-0.9,2.9L7.5,16.5z"/>
	</g>
	<line class="st1" x1="1.1" y1="21" x2="393.3" y2="21"/>
	<g class="st0">
		<path d="M1.3,38c1.7-1.7,2.5-2.7,2.5-3.6c0-0.6-0.3-1.1-1.1-1.1c-0.5,0-0.9,0.3-1.2,0.7l-0.2-0.2C1.7,33.4,2.1,33,2.8,33
			c0.9,0,1.4,0.6,1.4,1.4c0,1-0.9,2-2.3,3.5c0.3,0,0.6,0,0.9,0h1.7v0.3H1.3V38z"/>
		<path d="M7.8,33.4H5.1v-0.3h3.1v0.2c-1.2,1.6-1.5,2.9-1.6,4.9H6.2C6.4,36.1,6.8,34.9,7.8,33.4z"/>
		<path d="M9,35.6c0-1.7,0.6-2.6,1.5-2.6c1,0,1.5,0.9,1.5,2.6c0,1.7-0.6,2.7-1.5,2.7S9,37.3,9,35.6z M11.7,35.6
			c0-1.6-0.5-2.3-1.2-2.3s-1.2,0.8-1.2,2.3c0,1.6,0.5,2.4,1.2,2.4C11.2,38,11.7,37.2,11.7,35.6z"/>
		<path d="M12.8,35.6c0-1.7,0.6-2.6,1.5-2.6c1,0,1.5,0.9,1.5,2.6c0,1.7-0.6,2.7-1.5,2.7S12.8,37.3,12.8,35.6z M15.5,35.6
			c0-1.6-0.5-2.3-1.2-2.3s-1.2,0.8-1.2,2.3c0,1.6,0.5,2.4,1.2,2.4C15.1,38,15.5,37.2,15.5,35.6z"/>
	</g>
	<g class="st0">
		<path d="M1.3,52.5C3,50.8,3.8,49.8,3.8,49c0-0.6-0.3-1.1-1.1-1.1c-0.5,0-0.9,0.3-1.2,0.7l-0.2-0.2c0.4-0.4,0.8-0.8,1.5-0.8
			c0.9,0,1.4,0.6,1.4,1.4c0,1-0.9,2-2.3,3.5c0.3,0,0.6,0,0.9,0h1.7v0.3H1.3V52.5z"/>
		<path d="M5.2,50.4c0-2.1,0.9-2.9,1.9-2.9c0.5,0,0.8,0.2,1.1,0.5L8,48.2c-0.2-0.3-0.5-0.4-0.9-0.4c-0.8,0-1.5,0.7-1.5,2.5
			c0.4-0.4,0.8-0.7,1.3-0.7c0.9,0,1.4,0.6,1.4,1.6c0,0.9-0.6,1.6-1.4,1.6C5.9,52.8,5.2,52,5.2,50.4z M5.6,50.7
			c0.1,1.1,0.5,1.8,1.3,1.8c0.6,0,1-0.6,1-1.3s-0.3-1.3-1.1-1.3C6.5,50,6,50.2,5.6,50.7z"/>
		<path d="M9,50.2c0-1.7,0.6-2.6,1.5-2.6c1,0,1.5,0.9,1.5,2.6c0,1.7-0.6,2.7-1.5,2.7C9.6,52.8,9,51.9,9,50.2z M11.7,50.2
			c0-1.6-0.5-2.3-1.2-2.3s-1.2,0.8-1.2,2.3c0,1.6,0.5,2.4,1.2,2.4C11.2,52.5,11.7,51.7,11.7,50.2z"/>
		<path d="M12.8,50.2c0-1.7,0.6-2.6,1.5-2.6c1,0,1.5,0.9,1.5,2.6c0,1.7-0.6,2.7-1.5,2.7C13.4,52.8,12.8,51.9,12.8,50.2z M15.5,50.2
			c0-1.6-0.5-2.3-1.2-2.3s-1.2,0.8-1.2,2.3c0,1.6,0.5,2.4,1.2,2.4C15.1,52.5,15.5,51.7,15.5,50.2z"/>
	</g>
	<g class="st0">
		<path d="M1.3,67.1c1.7-1.7,2.5-2.7,2.5-3.6c0-0.6-0.3-1.1-1.1-1.1c-0.5,0-0.9,0.3-1.2,0.7l-0.2-0.2c0.4-0.4,0.8-0.8,1.5-0.8
			c0.9,0,1.4,0.6,1.4,1.4c0,1-0.9,2-2.3,3.5c0.3,0,0.6,0,0.9,0h1.7v0.3H1.3V67.1z"/>
		<path d="M5,66.7l0.2-0.2c0.3,0.3,0.7,0.6,1.4,0.6s1.3-0.6,1.3-1.4s-0.5-1.3-1.2-1.3c-0.4,0-0.6,0.1-1,0.3l-0.2-0.2l0.2-2.4H8v0.3
			H6l-0.2,1.8c0.3-0.2,0.5-0.3,0.9-0.3c0.9,0,1.6,0.5,1.6,1.6s-0.8,1.7-1.6,1.7C5.8,67.4,5.3,67,5,66.7z"/>
		<path d="M9,64.7c0-1.7,0.6-2.6,1.5-2.6c1,0,1.5,0.9,1.5,2.6s-0.6,2.7-1.5,2.7S9,66.4,9,64.7z M11.7,64.7c0-1.6-0.5-2.3-1.2-2.3
			s-1.2,0.8-1.2,2.3c0,1.6,0.5,2.4,1.2,2.4C11.2,67.1,11.7,66.3,11.7,64.7z"/>
		<path d="M12.8,64.7c0-1.7,0.6-2.6,1.5-2.6c1,0,1.5,0.9,1.5,2.6s-0.6,2.7-1.5,2.7S12.8,66.4,12.8,64.7z M15.5,64.7
			c0-1.6-0.5-2.3-1.2-2.3s-1.2,0.8-1.2,2.3c0,1.6,0.5,2.4,1.2,2.4C15.1,67.1,15.5,66.3,15.5,64.7z"/>
	</g>
	<g class="st0">
		<path d="M1.3,81.6c1.7-1.7,2.5-2.7,2.5-3.5c0-0.6-0.3-1.1-1.1-1.1c-0.5,0-0.9,0.3-1.2,0.7l-0.2-0.3c0.4-0.4,0.8-0.8,1.5-0.8
			c0.9,0,1.4,0.6,1.4,1.4c0,1-0.9,2-2.3,3.5c0.3,0,0.6,0,0.9,0h1.7v0.3H1.3V81.6z"/>
		<path d="M7.3,80.3H4.9v-0.2l2.4-3.4h0.3V80h0.8v0.3H7.6v1.5H7.3C7.3,81.8,7.3,80.3,7.3,80.3z M7.3,80v-1.9c0-0.2,0-0.6,0-0.9l0,0
			c-0.1,0.2-0.3,0.4-0.4,0.6l-1.5,2.1h1.9V80z"/>
		<path d="M9,79.2c0-1.7,0.6-2.6,1.5-2.6c1,0,1.5,0.9,1.5,2.6s-0.6,2.7-1.5,2.7S9,81,9,79.2z M11.7,79.2c0-1.6-0.5-2.3-1.2-2.3
			s-1.2,0.8-1.2,2.3c0,1.6,0.5,2.4,1.2,2.4C11.2,81.6,11.7,80.8,11.7,79.2z"/>
		<path d="M12.8,79.2c0-1.7,0.6-2.6,1.5-2.6c1,0,1.5,0.9,1.5,2.6s-0.6,2.7-1.5,2.7S12.8,81,12.8,79.2z M15.5,79.2
			c0-1.6-0.5-2.3-1.2-2.3s-1.2,0.8-1.2,2.3c0,1.6,0.5,2.4,1.2,2.4C15.1,81.6,15.5,80.8,15.5,79.2z"/>
	</g>
	<g class="st0">
		<path d="M1.3,96.1c1.7-1.7,2.5-2.7,2.5-3.5c0-0.6-0.3-1.1-1.1-1.1c-0.5,0-0.9,0.3-1.2,0.7L1.3,92c0.4-0.4,0.8-0.8,1.5-0.8
			c0.9,0,1.4,0.6,1.4,1.4c0,1-0.9,2-2.3,3.5c0.3,0,0.6,0,0.9,0h1.7v0.3H1.3V96.1z"/>
		<path d="M5,95.7l0.2-0.2c0.3,0.3,0.7,0.7,1.4,0.7s1.2-0.4,1.2-1.1S7.3,93.9,6,93.9v-0.3c1.2,0,1.6-0.5,1.6-1.1s-0.4-1-1-1
			c-0.5,0-0.9,0.2-1.2,0.6l-0.2-0.2c0.4-0.3,0.8-0.6,1.4-0.6c0.8,0,1.4,0.4,1.4,1.2c0,0.7-0.4,1.1-1,1.3l0,0
			c0.6,0.1,1.2,0.6,1.2,1.3c0,0.9-0.7,1.4-1.6,1.4C5.8,96.5,5.4,96.1,5,95.7z"/>
		<path d="M9,93.8c0-1.7,0.6-2.6,1.5-2.6c1,0,1.5,0.9,1.5,2.6s-0.6,2.7-1.5,2.7S9,95.5,9,93.8z M11.7,93.8c0-1.6-0.5-2.3-1.2-2.3
			s-1.2,0.8-1.2,2.3c0,1.6,0.5,2.4,1.2,2.4S11.7,95.3,11.7,93.8z"/>
		<path d="M12.8,93.8c0-1.7,0.6-2.6,1.5-2.6c1,0,1.5,0.9,1.5,2.6s-0.6,2.7-1.5,2.7S12.8,95.5,12.8,93.8z M15.5,93.8
			c0-1.6-0.5-2.3-1.2-2.3s-1.2,0.8-1.2,2.3c0,1.6,0.5,2.4,1.2,2.4C15.1,96.2,15.5,95.3,15.5,93.8z"/>
	</g>
	<g class="st0">
		<path d="M1.3,110.7c1.7-1.7,2.5-2.7,2.5-3.5c0-0.6-0.3-1.1-1.1-1.1c-0.5,0-0.9,0.3-1.2,0.7l-0.2-0.4c0.4-0.4,0.8-0.8,1.5-0.8
			c0.9,0,1.4,0.6,1.4,1.4c0,1-0.9,2-2.3,3.5c0.3,0,0.6,0,0.9,0h1.7v0.3L1.3,110.7L1.3,110.7z"/>
		<path d="M5.1,110.7c1.7-1.7,2.5-2.7,2.5-3.5c0-0.6-0.3-1.1-1.1-1.1c-0.5,0-0.9,0.3-1.2,0.7l-0.2-0.2c0.4-0.4,0.8-0.8,1.5-0.8
			c0.9,0,1.4,0.6,1.4,1.4c0,1-0.9,2-2.3,3.5c0.3,0,0.6,0,0.9,0h1.7v0.3H5.2L5.1,110.7L5.1,110.7z"/>
		<path d="M9,108.3c0-1.7,0.6-2.6,1.5-2.6c1,0,1.5,0.9,1.5,2.6s-0.6,2.7-1.5,2.7S9,110,9,108.3z M11.7,108.3c0-1.6-0.5-2.3-1.2-2.3
			s-1.2,0.8-1.2,2.3c0,1.6,0.5,2.4,1.2,2.4S11.7,109.9,11.7,108.3z"/>
		<path d="M12.8,108.3c0-1.7,0.6-2.6,1.5-2.6c1,0,1.5,0.9,1.5,2.6s-0.6,2.7-1.5,2.7S12.8,110,12.8,108.3z M15.5,108.3
			c0-1.6-0.5-2.3-1.2-2.3s-1.2,0.8-1.2,2.3c0,1.6,0.5,2.4,1.2,2.4C15.1,110.7,15.5,109.9,15.5,108.3z"/>
	</g>
	<g class="st0">
		<path d="M1.3,125.2c1.7-1.7,2.5-2.7,2.5-3.5c0-0.6-0.3-1.1-1.1-1.1c-0.5,0-0.9,0.3-1.2,0.7l-0.2-0.2c0.4-0.4,0.8-0.8,1.5-0.8
			c0.9,0,1.4,0.6,1.4,1.4c0,1-0.9,2-2.3,3.5c0.3,0,0.6,0,0.9,0h1.7v0.3H1.3V125.2z"/>
		<path d="M5.5,125.1h1.2v-4.2H5.8v-0.2c0.4-0.1,0.7-0.2,1-0.3H7v4.8h1.1v0.3H5.4L5.5,125.1L5.5,125.1z"/>
		<path d="M9,122.9c0-1.7,0.6-2.6,1.5-2.6c1,0,1.5,0.9,1.5,2.6s-0.6,2.7-1.5,2.7C9.6,125.5,9,124.6,9,122.9z M11.7,122.9
			c0-1.6-0.5-2.3-1.2-2.3s-1.2,0.8-1.2,2.3c0,1.6,0.5,2.4,1.2,2.4C11.2,125.2,11.7,124.4,11.7,122.9z"/>
		<path d="M12.8,122.9c0-1.7,0.6-2.6,1.5-2.6c1,0,1.5,0.9,1.5,2.6s-0.6,2.7-1.5,2.7C13.4,125.5,12.8,124.6,12.8,122.9z M15.5,122.9
			c0-1.6-0.5-2.3-1.2-2.3s-1.2,0.8-1.2,2.3c0,1.6,0.5,2.4,1.2,2.4C15.1,125.2,15.5,124.4,15.5,122.9z"/>
	</g>
	<g class="st0">
		<path d="M1.3,139.8c1.7-1.7,2.5-2.7,2.5-3.5c0-0.6-0.3-1.1-1.1-1.1c-0.5,0-0.9,0.3-1.2,0.7l-0.2-0.2c0.4-0.4,0.8-0.8,1.5-0.8
			c0.9,0,1.4,0.6,1.4,1.4c0,1-0.9,2-2.3,3.5c0.3,0,0.6,0,0.9,0h1.7v0.3H1.3V139.8z"/>
		<path d="M5.2,137.4c0-1.7,0.6-2.6,1.5-2.6c1,0,1.5,0.9,1.5,2.6c0,1.7-0.6,2.7-1.5,2.7C5.7,140.1,5.2,139.1,5.2,137.4z M7.9,137.4
			c0-1.6-0.5-2.3-1.2-2.3s-1.2,0.8-1.2,2.3c0,1.6,0.5,2.4,1.2,2.4S7.9,139,7.9,137.4z"/>
		<path d="M9,137.4c0-1.7,0.6-2.6,1.5-2.6c1,0,1.5,0.9,1.5,2.6c0,1.7-0.6,2.7-1.5,2.7S9,139.1,9,137.4z M11.7,137.4
			c0-1.6-0.5-2.3-1.2-2.3s-1.2,0.8-1.2,2.3c0,1.6,0.5,2.4,1.2,2.4S11.7,139,11.7,137.4z"/>
		<path d="M12.8,137.4c0-1.7,0.6-2.6,1.5-2.6c1,0,1.5,0.9,1.5,2.6c0,1.7-0.6,2.7-1.5,2.7S12.8,139.1,12.8,137.4z M15.5,137.4
			c0-1.6-0.5-2.3-1.2-2.3s-1.2,0.8-1.2,2.3c0,1.6,0.5,2.4,1.2,2.4C15.1,139.8,15.5,139,15.5,137.4z"/>
	</g>
	<g class="st0">
		<path d="M1.6,154.2h1.2V150H1.9v-0.2c0.4-0.1,0.7-0.2,1-0.3h0.3v4.8h1.1v0.3H1.6V154.2z"/>
		<path d="M5.2,154.1l0.2-0.2c0.2,0.3,0.5,0.4,0.9,0.4c0.8,0,1.5-0.7,1.5-2.5c-0.4,0.4-0.8,0.7-1.3,0.7c-0.9,0-1.4-0.6-1.4-1.6
			c0-0.9,0.6-1.6,1.4-1.6c1,0,1.7,0.9,1.7,2.4c0,2.1-0.9,2.9-1.9,2.9C5.8,154.6,5.5,154.4,5.2,154.1z M6.6,152.2
			c0.4,0,0.8-0.2,1.2-0.8c-0.1-1.1-0.5-1.8-1.3-1.8c-0.6,0-1,0.6-1,1.3S5.8,152.2,6.6,152.2z"/>
		<path d="M9,151.9c0-1.7,0.6-2.6,1.5-2.6c1,0,1.5,0.9,1.5,2.6c0,1.7-0.6,2.7-1.5,2.7S9,153.6,9,151.9z M11.7,151.9
			c0-1.6-0.5-2.3-1.2-2.3s-1.2,0.8-1.2,2.3c0,1.6,0.5,2.4,1.2,2.4S11.7,153.5,11.7,151.9z"/>
		<path d="M12.8,151.9c0-1.7,0.6-2.6,1.5-2.6c1,0,1.5,0.9,1.5,2.6c0,1.7-0.6,2.7-1.5,2.7S12.8,153.6,12.8,151.9z M15.5,151.9
			c0-1.6-0.5-2.3-1.2-2.3s-1.2,0.8-1.2,2.3c0,1.6,0.5,2.4,1.2,2.4C15.1,154.3,15.5,153.5,15.5,151.9z"/>
	</g>
	<g class="st0">
		<path d="M19.8,163l0.3-0.2c0.3,0.4,0.6,0.6,1,0.6c0.6,0,0.9-0.4,0.9-1.2v-3.8h0.4v3.8c0,0.8-0.4,1.5-1.3,1.5
			C20.5,163.8,20.1,163.5,19.8,163z"/>
		<path d="M23.6,162.7c0-0.8,0.8-1.3,2.5-1.4c0-0.6-0.2-1.2-0.9-1.2c-0.5,0-1,0.3-1.2,0.4l-0.2-0.3c0.3-0.2,0.8-0.5,1.4-0.5
			c0.9,0,1.2,0.7,1.2,1.5v2.5h-0.3v-0.5l0,0c-0.4,0.3-0.9,0.6-1.4,0.6C24.1,163.8,23.6,163.4,23.6,162.7z M26.1,162.8v-1.3
			c-1.6,0.2-2.1,0.6-2.1,1.2c0,0.6,0.4,0.8,0.8,0.8C25.3,163.5,25.6,163.2,26.1,162.8z"/>
		<path d="M27.8,159.8h0.3v0.6l0,0c0.4-0.4,0.8-0.7,1.3-0.7c0.8,0,1.2,0.5,1.2,1.5v2.5h-0.4v-2.4c0-0.8-0.3-1.2-0.9-1.2
			c-0.5,0-0.8,0.2-1.3,0.7v2.9h-0.4v-3.9H27.8z"/>
		<path d="M31.7,161.5h1.8v0.3h-1.8V161.5z"/>
		<path d="M34.4,163.4h1.2v-4.2h-0.9V159c0.4-0.1,0.7-0.2,1-0.3H36v4.8h1.1v0.3h-2.7C34.4,163.8,34.4,163.4,34.4,163.4z"/>
		<path d="M37.9,162.4c0-0.7,0.5-1.2,1-1.4l0,0c-0.4-0.2-0.7-0.6-0.7-1.2c0-0.7,0.6-1.2,1.3-1.2c0.9,0,1.4,0.6,1.4,1.3
			c0,0.6-0.4,1.1-0.7,1.3l0,0c0.4,0.3,0.9,0.6,0.9,1.3s-0.6,1.3-1.6,1.3C38.6,163.8,37.9,163.2,37.9,162.4z M40.7,162.4
			c0-0.8-0.8-1.1-1.6-1.4c-0.5,0.3-0.9,0.7-0.9,1.3s0.5,1.1,1.3,1.1C40.2,163.5,40.7,163,40.7,162.4z M40.6,159.8c0-0.6-0.4-1-1-1
			s-1,0.4-1,1c0,0.7,0.7,1,1.4,1.3C40.3,160.6,40.6,160.2,40.6,159.8z"/>
	</g>
	<g class="st0">
		<path d="M45.3,158.4h2.9v0.3h-2.5v2.1h2.1v0.3h-2.1v2.5h-0.4V158.4z"/>
	</g>
	<g class="st0">
		<path d="M48.6,161.8c0-1.3,0.8-2,1.7-2s1.5,0.6,1.5,1.8c0,0.1,0,0.2,0,0.3H49c0,1,0.6,1.7,1.4,1.7c0.4,0,0.7-0.1,1-0.3l0.1,0.3
			c-0.3,0.2-0.6,0.4-1.2,0.4C49.4,163.8,48.6,163,48.6,161.8z M51.5,161.5c0-1-0.4-1.5-1.1-1.5c-0.7,0-1.2,0.6-1.3,1.5H51.5z"/>
	</g>
	<g class="st0">
		<path d="M53.2,163.3L53.2,163.3l-0.1,0.4h-0.3V158h0.4v1.7v0.8c0.4-0.3,0.9-0.6,1.3-0.6c1,0,1.5,0.8,1.5,2c0,1.3-0.8,2.1-1.7,2.1
			C54,163.8,53.6,163.6,53.2,163.3z M55.7,161.7c0-0.9-0.3-1.6-1.2-1.6c-0.4,0-0.8,0.2-1.3,0.6v2.3c0.4,0.4,0.8,0.5,1.1,0.5
			C55.1,163.5,55.7,162.7,55.7,161.7z"/>
	</g>
	<g class="st0">
		<path d="M56.8,161.5h1.8v0.3h-1.8V161.5z"/>
	</g>
	<g class="st0">
		<path d="M59.5,163.4h1.2v-4.2h-0.9V159c0.4-0.1,0.7-0.2,1-0.3h0.3v4.8h1.1v0.3h-2.7V163.4z"/>
	</g>
	<g class="st0">
		<path d="M63,162.4c0-0.7,0.5-1.2,1-1.4l0,0c-0.4-0.2-0.7-0.6-0.7-1.2c0-0.7,0.6-1.2,1.3-1.2c0.9,0,1.4,0.6,1.4,1.3
			c0,0.6-0.4,1.1-0.7,1.3l0,0c0.4,0.3,0.9,0.6,0.9,1.3s-0.6,1.3-1.6,1.3C63.6,163.8,63,163.2,63,162.4z M65.8,162.4
			c0-0.8-0.8-1.1-1.6-1.4c-0.5,0.3-0.9,0.7-0.9,1.3s0.5,1.1,1.3,1.1C65.3,163.5,65.8,163,65.8,162.4z M65.6,159.8c0-0.6-0.4-1-1-1
			s-1,0.4-1,1c0,0.7,0.7,1,1.4,1.3C65.4,160.6,65.6,160.2,65.6,159.8z"/>
	</g>
	<g class="st0">
		<path d="M70.4,158.4h0.5l1.1,3.1c0.1,0.4,0.3,0.8,0.4,1.2l0,0c0.1-0.4,0.3-0.8,0.4-1.2l1.1-3.1h0.5v5.3H74v-3.5c0-0.4,0-1,0-1.4
			l0,0l-0.4,1.2l-1.1,3.1h-0.3l-1.1-3.1l-0.4-1.2l0,0c0,0.4,0,1,0,1.4v3.5h-0.3C70.4,163.7,70.4,158.4,70.4,158.4z"/>
	</g>
	<g class="st0">
		<path d="M75.7,162.7c0-0.8,0.8-1.3,2.5-1.4c0-0.6-0.2-1.2-0.9-1.2c-0.5,0-1,0.3-1.2,0.4l-0.2-0.3c0.3-0.2,0.8-0.5,1.4-0.5
			c0.9,0,1.2,0.7,1.2,1.5v2.5h-0.3v-0.5l0,0c-0.4,0.3-0.9,0.6-1.4,0.6C76.2,163.8,75.7,163.4,75.7,162.7z M78.1,162.8v-1.3
			c-1.6,0.2-2.1,0.6-2.1,1.2c0,0.6,0.4,0.8,0.8,0.8S77.7,163.2,78.1,162.8z"/>
	</g>
	<g class="st0">
		<path d="M79.9,159.8h0.3v0.7l0,0c0.3-0.5,0.6-0.8,1.1-0.8c0.1,0,0.3,0,0.4,0.1l-0.1,0.3c-0.1,0-0.2-0.1-0.4-0.1
			c-0.3,0-0.8,0.3-1,1v2.6h-0.4L79.9,159.8L79.9,159.8z"/>
	</g>
	<g class="st0">
		<path d="M81.8,161.5h1.8v0.3h-1.8V161.5z"/>
	</g>
	<g class="st0">
		<path d="M84.6,163.4h1.2v-4.2h-0.9V159c0.4-0.1,0.7-0.2,1-0.3h0.3v4.8h1.1v0.3h-2.7V163.4z"/>
	</g>
	<g class="st0">
		<path d="M88,162.4c0-0.7,0.5-1.2,1-1.4l0,0c-0.4-0.2-0.7-0.6-0.7-1.2c0-0.7,0.6-1.2,1.3-1.2c0.9,0,1.4,0.6,1.4,1.3
			c0,0.6-0.4,1.1-0.7,1.3l0,0c0.4,0.3,0.9,0.6,0.9,1.3s-0.6,1.3-1.6,1.3C88.7,163.8,88,163.2,88,162.4z M90.8,162.4
			c0-0.8-0.8-1.1-1.6-1.4c-0.5,0.3-0.9,0.7-0.9,1.3s0.5,1.1,1.3,1.1C90.4,163.5,90.8,163,90.8,162.4z M90.7,159.8c0-0.6-0.4-1-1-1
			s-1,0.4-1,1c0,0.7,0.7,1,1.4,1.3C90.4,160.6,90.7,160.2,90.7,159.8z"/>
	</g>
	<g class="st0">
		<path d="M97,158.4h0.4l1.9,5.3h-0.4l-0.6-1.8h-2.1l-0.6,1.8h-0.4L97,158.4z M96.3,161.5h1.9l-0.3-1c-0.2-0.6-0.4-1.2-0.6-1.8l0,0
			c-0.2,0.6-0.4,1.2-0.6,1.8L96.3,161.5z"/>
		<path d="M100.1,159.8h0.3v0.5l0,0c0.4-0.3,0.8-0.6,1.3-0.6c1,0,1.5,0.8,1.5,2c0,1.3-0.8,2.1-1.7,2.1c-0.4,0-0.8-0.2-1.2-0.5v2.1
			h-0.4v-5.6H100.1z M102.9,161.7c0-0.9-0.3-1.6-1.2-1.6c-0.4,0-0.8,0.2-1.3,0.6v2.3c0.4,0.4,0.8,0.5,1.1,0.5
			C102.3,163.5,102.9,162.7,102.9,161.7z"/>
	</g>
	<g class="st0">
		<path d="M104.5,159.8h0.3v0.7l0,0c0.3-0.5,0.6-0.8,1.1-0.8c0.1,0,0.3,0,0.4,0.1l-0.1,0.3c-0.1,0-0.2-0.1-0.4-0.1
			c-0.3,0-0.8,0.3-1,1v2.6h-0.4L104.5,159.8L104.5,159.8z"/>
	</g>
	<g class="st0">
		<path d="M106.3,161.5h1.8v0.3h-1.8V161.5z"/>
		<path d="M109.1,163.4h1.2v-4.2h-0.9V159c0.4-0.1,0.7-0.2,1-0.3h0.3v4.8h1.1v0.3h-2.7V163.4z"/>
		<path d="M112.6,162.4c0-0.7,0.5-1.2,1-1.4l0,0c-0.4-0.2-0.7-0.6-0.7-1.2c0-0.7,0.6-1.2,1.3-1.2c0.9,0,1.4,0.6,1.4,1.3
			c0,0.6-0.4,1.1-0.7,1.3l0,0c0.4,0.3,0.9,0.6,0.9,1.3s-0.6,1.3-1.6,1.3C113.3,163.8,112.6,163.2,112.6,162.4z M115.4,162.4
			c0-0.8-0.8-1.1-1.6-1.4c-0.5,0.3-0.9,0.7-0.9,1.3s0.5,1.1,1.3,1.1C114.9,163.5,115.4,163,115.4,162.4z M115.2,159.8
			c0-0.6-0.4-1-1-1s-1,0.4-1,1c0,0.7,0.7,1,1.4,1.3C115,160.6,115.2,160.2,115.2,159.8z"/>
	</g>
	<g class="st0">
		<path d="M119.9,158.4h0.5l1.1,3.1c0.1,0.4,0.3,0.8,0.4,1.2l0,0c0.1-0.4,0.3-0.8,0.4-1.2l1.1-3.1h0.5v5.3h-0.4v-3.5
			c0-0.4,0-1,0-1.4l0,0l-0.4,1.2l-1.1,3.1h-0.3l-1.1-3.1l-0.4-1.2l0,0c0,0.4,0,1,0,1.4v3.5h-0.3L119.9,158.4L119.9,158.4z"/>
		<path d="M125.2,162.7c0-0.8,0.8-1.3,2.5-1.4c0-0.6-0.2-1.2-0.9-1.2c-0.5,0-1,0.3-1.2,0.4l-0.2-0.3c0.3-0.2,0.8-0.5,1.4-0.5
			c0.9,0,1.2,0.7,1.2,1.5v2.5h-0.3v-0.5l0,0c-0.4,0.3-0.9,0.6-1.4,0.6C125.7,163.8,125.2,163.4,125.2,162.7z M127.7,162.8v-1.3
			c-1.6,0.2-2.1,0.6-2.1,1.2c0,0.6,0.4,0.8,0.8,0.8C126.8,163.5,127.2,163.2,127.7,162.8z"/>
		<path d="M128.9,165.3l0.1-0.3c0.1,0,0.2,0.1,0.3,0.1c0.5,0,0.8-0.4,1-1l0.1-0.3l-1.6-3.9h0.4l0.9,2.4c0.1,0.3,0.3,0.7,0.4,1.1l0,0
			c0.1-0.3,0.2-0.8,0.4-1.1l0.8-2.4h0.4l-1.5,4.3c-0.2,0.6-0.6,1.3-1.3,1.3C129.1,165.4,129,165.4,128.9,165.3z"/>
		<path d="M132.5,161.5h1.8v0.3h-1.8V161.5z"/>
		<path d="M135.2,163.4h1.2v-4.2h-0.9V159c0.4-0.1,0.7-0.2,1-0.3h0.3v4.8h1.1v0.3h-2.7L135.2,163.4L135.2,163.4z"/>
		<path d="M138.7,162.4c0-0.7,0.5-1.2,1-1.4l0,0c-0.4-0.2-0.7-0.6-0.7-1.2c0-0.7,0.6-1.2,1.3-1.2c0.9,0,1.4,0.6,1.4,1.3
			c0,0.6-0.4,1.1-0.7,1.3l0,0c0.4,0.3,0.9,0.6,0.9,1.3s-0.6,1.3-1.6,1.3C139.4,163.8,138.7,163.2,138.7,162.4z M141.5,162.4
			c0-0.8-0.8-1.1-1.6-1.4c-0.5,0.3-0.9,0.7-0.9,1.3s0.5,1.1,1.3,1.1C141.1,163.5,141.5,163,141.5,162.4z M141.4,159.8
			c0-0.6-0.4-1-1-1s-1,0.4-1,1c0,0.7,0.7,1,1.4,1.3C141.1,160.6,141.4,160.2,141.4,159.8z"/>
	</g>
	<g class="st0">
		<path d="M144.9,163l0.3-0.2c0.3,0.4,0.6,0.6,1,0.6c0.6,0,0.9-0.4,0.9-1.2v-3.8h0.4v3.8c0,0.8-0.4,1.5-1.3,1.5
			C145.6,163.8,145.2,163.5,144.9,163z"/>
		<path d="M149,162.3v-2.5h0.4v2.4c0,0.8,0.3,1.2,0.9,1.2c0.5,0,0.8-0.2,1.2-0.8v-2.8h0.4v3.8h-0.3V163l0,0
			c-0.4,0.4-0.8,0.7-1.3,0.7C149.3,163.8,149,163.3,149,162.3z"/>
		<path d="M153.3,159.8h0.3v0.6l0,0c0.4-0.4,0.8-0.7,1.3-0.7c0.8,0,1.2,0.5,1.2,1.5v2.5h-0.4v-2.4c0-0.8-0.3-1.2-0.9-1.2
			c-0.5,0-0.8,0.2-1.3,0.7v2.9h-0.4v-3.9H153.3z"/>
		<path d="M157.1,161.5h1.8v0.3h-1.8V161.5z"/>
		<path d="M159.9,163.4h1.2v-4.2h-0.9V159c0.4-0.1,0.7-0.2,1-0.3h0.3v4.8h1.1v0.3h-2.7L159.9,163.4L159.9,163.4z"/>
		<path d="M163.3,162.4c0-0.7,0.5-1.2,1-1.4l0,0c-0.4-0.2-0.7-0.6-0.7-1.2c0-0.7,0.6-1.2,1.3-1.2c0.9,0,1.4,0.6,1.4,1.3
			c0,0.6-0.4,1.1-0.7,1.3l0,0c0.4,0.3,0.9,0.6,0.9,1.3s-0.6,1.3-1.6,1.3C164,163.8,163.3,163.2,163.3,162.4z M166.1,162.4
			c0-0.8-0.8-1.1-1.6-1.4c-0.5,0.3-0.9,0.7-0.9,1.3s0.5,1.1,1.3,1.1C165.7,163.5,166.1,163,166.1,162.4z M166,159.8c0-0.6-0.4-1-1-1
			s-1,0.4-1,1c0,0.7,0.7,1,1.4,1.3C165.8,160.6,166,160.2,166,159.8z"/>
	</g>
	<g class="st0">
		<path d="M171.2,163l0.3-0.2c0.3,0.4,0.6,0.6,1,0.6c0.6,0,0.9-0.4,0.9-1.2v-3.8h0.4v3.8c0,0.8-0.4,1.5-1.3,1.5
			C171.9,163.8,171.4,163.5,171.2,163z"/>
		<path d="M175.2,162.3v-2.5h0.4v2.4c0,0.8,0.3,1.2,0.9,1.2c0.5,0,0.8-0.2,1.2-0.8v-2.8h0.4v3.8h-0.3V163l0,0
			c-0.4,0.4-0.8,0.7-1.3,0.7C175.6,163.8,175.2,163.3,175.2,162.3z"/>
		<path d="M179.5,163.2V158h0.4v5.3c0,0.2,0.1,0.2,0.2,0.2h0.1l0.1,0.3c-0.1,0-0.1,0-0.3,0C179.7,163.8,179.5,163.6,179.5,163.2z"/>
		<path d="M181,161.5h1.8v0.3H181V161.5z"/>
		<path d="M183.7,163.4h1.2v-4.2H184V159c0.4-0.1,0.7-0.2,1-0.3h0.3v4.8h1.1v0.3h-2.7L183.7,163.4L183.7,163.4z"/>
		<path d="M187.2,162.4c0-0.7,0.5-1.2,1-1.4l0,0c-0.4-0.2-0.7-0.6-0.7-1.2c0-0.7,0.6-1.2,1.3-1.2c0.9,0,1.4,0.6,1.4,1.3
			c0,0.6-0.4,1.1-0.7,1.3l0,0c0.4,0.3,0.9,0.6,0.9,1.3s-0.6,1.3-1.6,1.3C187.9,163.8,187.2,163.2,187.2,162.4z M190,162.4
			c0-0.8-0.8-1.1-1.6-1.4c-0.5,0.3-0.9,0.7-0.9,1.3s0.5,1.1,1.3,1.1C189.6,163.5,190,163,190,162.4z M189.9,159.8c0-0.6-0.4-1-1-1
			s-1,0.4-1,1c0,0.7,0.7,1,1.4,1.3C189.6,160.6,189.9,160.2,189.9,159.8z"/>
	</g>
	<g class="st0">
		<path d="M196.6,158.4h0.4l1.9,5.3h-0.4l-0.6-1.8h-2.1l-0.6,1.8h-0.4L196.6,158.4z M195.8,161.5h1.9l-0.3-1
			c-0.2-0.6-0.4-1.2-0.6-1.8l0,0c-0.2,0.6-0.4,1.2-0.6,1.8L195.8,161.5z"/>
	</g>
	<g class="st0">
		<path d="M199.5,162.3v-2.5h0.4v2.4c0,0.8,0.3,1.2,0.9,1.2c0.5,0,0.8-0.2,1.2-0.8v-2.8h0.4v3.8H202V163l0,0
			c-0.4,0.4-0.8,0.7-1.3,0.7C199.8,163.8,199.5,163.3,199.5,162.3z"/>
		<path d="M203.4,164.5c0-0.3,0.2-0.7,0.6-0.9l0,0c-0.2-0.1-0.3-0.3-0.3-0.6s0.2-0.6,0.4-0.7l0,0c-0.2-0.2-0.5-0.6-0.5-1.1
			c0-0.8,0.6-1.4,1.4-1.4c0.2,0,0.4,0,0.5,0.1h1.3v0.3h-0.9c0.2,0.2,0.4,0.6,0.4,1c0,0.8-0.6,1.4-1.3,1.4c-0.2,0-0.5-0.1-0.6-0.2
			c-0.2,0.1-0.3,0.3-0.3,0.6s0.2,0.5,0.7,0.5h0.8c0.9,0,1.3,0.3,1.3,0.9c0,0.7-0.7,1.3-1.8,1.3C204,165.5,203.4,165.1,203.4,164.5z
			 M206.5,164.3c0-0.4-0.3-0.6-0.9-0.6h-0.8c-0.1,0-0.3,0-0.5-0.1c-0.4,0.2-0.5,0.5-0.5,0.8c0,0.5,0.5,0.8,1.3,0.8
			C205.9,165.2,206.5,164.7,206.5,164.3z M205.9,161.1c0-0.6-0.4-1.1-1-1.1s-1,0.4-1,1.1c0,0.6,0.5,1.1,1,1.1
			C205.5,162.2,205.9,161.7,205.9,161.1z"/>
		<path d="M207.2,161.5h1.8v0.3h-1.8V161.5z"/>
		<path d="M210,163.4h1.2v-4.2h-0.9V159c0.4-0.1,0.7-0.2,1-0.3h0.3v4.8h1.1v0.3H210V163.4z"/>
		<path d="M213.5,162.4c0-0.7,0.5-1.2,1-1.4l0,0c-0.4-0.2-0.7-0.6-0.7-1.2c0-0.7,0.6-1.2,1.3-1.2c0.9,0,1.4,0.6,1.4,1.3
			c0,0.6-0.4,1.1-0.7,1.3l0,0c0.4,0.3,0.9,0.6,0.9,1.3s-0.6,1.3-1.6,1.3C214.1,163.8,213.5,163.2,213.5,162.4z M216.3,162.4
			c0-0.8-0.8-1.1-1.6-1.4c-0.5,0.3-0.9,0.7-0.9,1.3s0.5,1.1,1.3,1.1C215.8,163.5,216.3,163,216.3,162.4z M216.1,159.8
			c0-0.6-0.4-1-1-1s-1,0.4-1,1c0,0.7,0.7,1,1.4,1.3C215.9,160.6,216.1,160.2,216.1,159.8z"/>
	</g>
	<g class="st0">
		<path d="M220,163l0.2-0.3c0.4,0.4,0.9,0.7,1.5,0.7c0.8,0,1.3-0.4,1.3-1.1c0-0.7-0.4-0.9-0.9-1.1l-0.8-0.4
			c-0.5-0.2-1.1-0.5-1.1-1.3s0.7-1.3,1.5-1.3c0.6,0,1.1,0.3,1.5,0.6L223,159c-0.3-0.3-0.7-0.5-1.3-0.5c-0.7,0-1.2,0.4-1.2,0.9
			c0,0.6,0.5,0.8,0.9,1l0.8,0.4c0.6,0.3,1.1,0.6,1.1,1.4s-0.7,1.4-1.7,1.4C221,163.8,220.4,163.4,220,163z"/>
		<path d="M224.2,161.8c0-1.3,0.8-2,1.7-2s1.5,0.6,1.5,1.8c0,0.1,0,0.2,0,0.3h-2.8c0,1,0.6,1.7,1.4,1.7c0.4,0,0.7-0.1,1-0.3l0.1,0.3
			c-0.3,0.2-0.6,0.4-1.2,0.4C225,163.8,224.2,163,224.2,161.8z M227,161.5c0-1-0.4-1.5-1.1-1.5c-0.7,0-1.2,0.6-1.3,1.5H227z"/>
	</g>
	<g class="st0">
		<path d="M228.4,159.8h0.3v0.5l0,0c0.4-0.3,0.8-0.6,1.3-0.6c1,0,1.5,0.8,1.5,2c0,1.3-0.8,2.1-1.7,2.1c-0.4,0-0.8-0.2-1.2-0.5v2.1
			h-0.4v-5.6H228.4z M231.2,161.7c0-0.9-0.3-1.6-1.2-1.6c-0.4,0-0.8,0.2-1.3,0.6v2.3c0.4,0.4,0.8,0.5,1.1,0.5
			C230.6,163.5,231.2,162.7,231.2,161.7z"/>
	</g>
	<g class="st0">
		<path d="M232.5,161.5h1.8v0.3h-1.8V161.5z"/>
		<path d="M235.2,163.4h1.2v-4.2h-0.9V159c0.4-0.1,0.7-0.2,1-0.3h0.3v4.8h1.1v0.3h-2.7L235.2,163.4L235.2,163.4z"/>
		<path d="M238.7,162.4c0-0.7,0.5-1.2,1-1.4l0,0c-0.4-0.2-0.7-0.6-0.7-1.2c0-0.7,0.6-1.2,1.3-1.2c0.9,0,1.4,0.6,1.4,1.3
			c0,0.6-0.4,1.1-0.7,1.3l0,0c0.4,0.3,0.9,0.6,0.9,1.3s-0.6,1.3-1.6,1.3C239.4,163.8,238.7,163.2,238.7,162.4z M241.5,162.4
			c0-0.8-0.8-1.1-1.6-1.4c-0.5,0.3-0.9,0.7-0.9,1.3s0.5,1.1,1.3,1.1C241,163.5,241.5,163,241.5,162.4z M241.4,159.8c0-0.6-0.4-1-1-1
			s-1,0.4-1,1c0,0.7,0.7,1,1.4,1.3C241.1,160.6,241.4,160.2,241.4,159.8z"/>
	</g>
	<g class="st0">
		<path d="M245.8,161c0-1.7,0.9-2.7,2.2-2.7s2.2,1,2.2,2.7s-0.9,2.8-2.2,2.8C246.7,163.8,245.8,162.7,245.8,161z M249.8,161
			c0-1.5-0.7-2.4-1.8-2.4s-1.8,0.9-1.8,2.4s0.7,2.4,1.8,2.4S249.8,162.5,249.8,161z"/>
	</g>
	<g class="st0">
		<path d="M251,161.8c0-1.3,0.8-2,1.8-2c0.5,0,0.9,0.2,1.1,0.5l-0.2,0.2c-0.2-0.2-0.5-0.4-0.9-0.4c-0.8,0-1.4,0.7-1.4,1.7
			s0.6,1.7,1.4,1.7c0.4,0,0.8-0.2,1-0.4l0.2,0.2c-0.3,0.3-0.7,0.5-1.2,0.5C251.8,163.8,251,163,251,161.8z"/>
	</g>
	<g class="st0">
		<path d="M254.9,162.6v-2.5h-0.6v-0.3h0.6v-1.1h0.3v1.1h1.1v0.3h-1.1v2.5c0,0.5,0.1,0.8,0.6,0.8c0.1,0,0.3-0.1,0.5-0.1l0.1,0.3
			c-0.2,0.1-0.5,0.1-0.6,0.1C255.1,163.8,254.9,163.3,254.9,162.6z"/>
	</g>
	<g class="st0">
		<path d="M256.8,161.5h1.8v0.3h-1.8V161.5z"/>
		<path d="M259.6,163.4h1.2v-4.2h-0.9V159c0.4-0.1,0.7-0.2,1-0.3h0.3v4.8h1.1v0.3h-2.7V163.4z"/>
		<path d="M263,162.4c0-0.7,0.5-1.2,1-1.4l0,0c-0.4-0.2-0.7-0.6-0.7-1.2c0-0.7,0.6-1.2,1.3-1.2c0.9,0,1.4,0.6,1.4,1.3
			c0,0.6-0.4,1.1-0.7,1.3l0,0c0.4,0.3,0.9,0.6,0.9,1.3s-0.6,1.3-1.6,1.3C263.7,163.8,263,163.2,263,162.4z M265.8,162.4
			c0-0.8-0.8-1.1-1.6-1.4c-0.5,0.3-0.9,0.7-0.9,1.3s0.5,1.1,1.3,1.1C265.4,163.5,265.8,163,265.8,162.4z M265.7,159.8
			c0-0.6-0.4-1-1-1s-1,0.4-1,1c0,0.7,0.7,1,1.4,1.3C265.5,160.6,265.7,160.2,265.7,159.8z"/>
	</g>
	<g class="st0">
		<path d="M270.3,158.4h0.4l2.2,3.7l0.6,1l0,0c0-0.5,0-1,0-1.5v-3.2h0.4v5.3h-0.4l-2.2-3.7l-0.6-1l0,0c0,0.5,0,1,0,1.5v3.3h-0.4
			V158.4z"/>
		<path d="M275.1,161.8c0-1.3,0.8-2,1.7-2c0.9,0,1.7,0.7,1.7,2s-0.8,2-1.7,2S275.1,163,275.1,161.8z M278.1,161.8
			c0-1-0.6-1.7-1.4-1.7s-1.4,0.7-1.4,1.7s0.6,1.7,1.4,1.7S278.1,162.8,278.1,161.8z"/>
		<path d="M279,159.8h0.4l0.9,2.4c0.1,0.4,0.3,0.8,0.4,1.1l0,0c0.1-0.4,0.3-0.7,0.4-1.1l0.9-2.4h0.4l-1.4,3.8h-0.4L279,159.8z"/>
		<path d="M282.7,161.5h1.8v0.3h-1.8V161.5z"/>
		<path d="M285.5,163.4h1.2v-4.2h-0.9V159c0.4-0.1,0.7-0.2,1-0.3h0.3v4.8h1.1v0.3h-2.7V163.4z"/>
		<path d="M288.9,162.4c0-0.7,0.5-1.2,1-1.4l0,0c-0.4-0.2-0.7-0.6-0.7-1.2c0-0.7,0.6-1.2,1.3-1.2c0.9,0,1.4,0.6,1.4,1.3
			c0,0.6-0.4,1.1-0.7,1.3l0,0c0.4,0.3,0.9,0.6,0.9,1.3s-0.6,1.3-1.6,1.3C289.6,163.8,288.9,163.2,288.9,162.4z M291.8,162.4
			c0-0.8-0.8-1.1-1.6-1.4c-0.5,0.3-0.9,0.7-0.9,1.3s0.5,1.1,1.3,1.1C291.3,163.5,291.8,163,291.8,162.4z M291.6,159.8
			c0-0.6-0.4-1-1-1s-1,0.4-1,1c0,0.7,0.7,1,1.4,1.3C291.4,160.6,291.6,160.2,291.6,159.8z"/>
	</g>
	<g class="st0">
		<path d="M295.7,158.4h1.2c1.6,0,2.4,1,2.4,2.6s-0.8,2.7-2.4,2.7h-1.2V158.4z M296.9,163.4c1.4,0,2-1,2-2.3c0-1.4-0.6-2.3-2-2.3
			h-0.8v4.6H296.9z"/>
		<path d="M300.2,161.8c0-1.3,0.8-2,1.7-2c0.9,0,1.5,0.6,1.5,1.8c0,0.1,0,0.2,0,0.3h-2.8c0,1,0.6,1.7,1.4,1.7c0.4,0,0.7-0.1,1-0.3
			l0.1,0.3c-0.3,0.2-0.6,0.4-1.2,0.4C301,163.8,300.2,163,300.2,161.8z M303,161.5c0-1-0.4-1.5-1.1-1.5s-1.2,0.6-1.3,1.5H303z"/>
	</g>
	<g class="st0">
		<path d="M304.1,161.8c0-1.3,0.8-2,1.8-2c0.5,0,0.9,0.2,1.1,0.5l-0.2,0.2c-0.2-0.2-0.5-0.4-0.9-0.4c-0.8,0-1.4,0.7-1.4,1.7
			s0.6,1.7,1.4,1.7c0.4,0,0.8-0.2,1-0.4l0.2,0.2c-0.3,0.3-0.7,0.5-1.2,0.5C304.8,163.8,304.1,163,304.1,161.8z"/>
	</g>
	<g class="st0">
		<path d="M307.5,161.5h1.8v0.3h-1.8V161.5z"/>
		<path d="M310.2,163.4h1.2v-4.2h-0.9V159c0.4-0.1,0.7-0.2,1-0.3h0.3v4.8h1.1v0.3h-2.7V163.4z"/>
		<path d="M313.7,162.4c0-0.7,0.5-1.2,1-1.4l0,0c-0.4-0.2-0.7-0.6-0.7-1.2c0-0.7,0.6-1.2,1.3-1.2c0.9,0,1.4,0.6,1.4,1.3
			c0,0.6-0.4,1.1-0.7,1.3l0,0c0.4,0.3,0.9,0.6,0.9,1.3s-0.6,1.3-1.6,1.3C314.4,163.8,313.7,163.2,313.7,162.4z M316.5,162.4
			c0-0.8-0.8-1.1-1.6-1.4c-0.5,0.3-0.9,0.7-0.9,1.3s0.5,1.1,1.3,1.1C316,163.5,316.5,163,316.5,162.4z M316.3,159.8c0-0.6-0.4-1-1-1
			s-1,0.4-1,1c0,0.7,0.7,1,1.4,1.3C316.1,160.6,316.3,160.2,316.3,159.8z"/>
	</g>
	<g class="st0">
		<path d="M320.5,163l0.3-0.2c0.3,0.4,0.6,0.6,1,0.6c0.6,0,0.9-0.4,0.9-1.2v-3.8h0.4v3.8c0,0.8-0.4,1.5-1.3,1.5
			C321.2,163.8,320.7,163.5,320.5,163z"/>
		<path d="M324.3,162.7c0-0.8,0.8-1.3,2.5-1.4c0-0.6-0.2-1.2-0.9-1.2c-0.5,0-1,0.3-1.2,0.4l-0.2-0.3c0.3-0.2,0.8-0.5,1.4-0.5
			c0.9,0,1.2,0.7,1.2,1.5v2.5h-0.3v-0.5l0,0c-0.4,0.3-0.9,0.6-1.4,0.6C324.8,163.8,324.3,163.4,324.3,162.7z M326.8,162.8v-1.3
			c-1.6,0.2-2.1,0.6-2.1,1.2c0,0.6,0.4,0.8,0.8,0.8C325.9,163.5,326.3,163.2,326.8,162.8z"/>
		<path d="M328.5,159.8h0.3v0.6l0,0c0.4-0.4,0.8-0.7,1.3-0.7c0.8,0,1.2,0.5,1.2,1.5v2.5H331v-2.4c0-0.8-0.3-1.2-0.9-1.2
			c-0.5,0-0.8,0.2-1.3,0.7v2.9h-0.4L328.5,159.8L328.5,159.8z"/>
		<path d="M332.4,161.5h1.8v0.3h-1.8V161.5z"/>
		<path d="M335.1,163.4h1.2v-4.2h-0.9V159c0.4-0.1,0.7-0.2,1-0.3h0.3v4.8h1.1v0.3h-2.7V163.4z"/>
		<path d="M338.7,163.3l0.2-0.2c0.2,0.3,0.5,0.4,0.9,0.4c0.8,0,1.5-0.7,1.5-2.5c-0.4,0.4-0.8,0.7-1.3,0.7c-0.9,0-1.4-0.6-1.4-1.6
			c0-0.9,0.6-1.6,1.4-1.6c1,0,1.7,0.9,1.7,2.4c0,2.1-0.9,2.9-1.9,2.9C339.3,163.8,339,163.6,338.7,163.3z M340.1,161.3
			c0.4,0,0.8-0.2,1.2-0.8c-0.1-1.1-0.5-1.8-1.3-1.8c-0.6,0-1,0.6-1,1.3C339,160.8,339.3,161.3,340.1,161.3z"/>
	</g>
	<g class="st0">
		<path d="M345.9,158.4h2.9v0.3h-2.5v2.1h2.1v0.3h-2.1v2.5h-0.4V158.4z"/>
	</g>
	<g class="st0">
		<path d="M349.3,161.8c0-1.3,0.8-2,1.7-2c0.9,0,1.5,0.6,1.5,1.8c0,0.1,0,0.2,0,0.3h-2.8c0,1,0.6,1.7,1.4,1.7c0.4,0,0.7-0.1,1-0.3
			l0.1,0.3c-0.3,0.2-0.6,0.4-1.2,0.4C350.1,163.8,349.3,163,349.3,161.8z M352.1,161.5c0-1-0.4-1.5-1.1-1.5s-1.2,0.6-1.3,1.5H352.1z
			"/>
	</g>
	<g class="st0">
		<path d="M353.8,163.3L353.8,163.3l-0.1,0.4h-0.3V158h0.4v1.7v0.8c0.4-0.3,0.9-0.6,1.3-0.6c1,0,1.5,0.8,1.5,2
			c0,1.3-0.8,2.1-1.7,2.1C354.6,163.8,354.2,163.6,353.8,163.3z M356.3,161.7c0-0.9-0.3-1.6-1.2-1.6c-0.4,0-0.8,0.2-1.3,0.6v2.3
			c0.4,0.4,0.8,0.5,1.1,0.5C355.7,163.5,356.3,162.7,356.3,161.7z"/>
	</g>
	<g class="st0">
		<path d="M357.5,161.5h1.8v0.3h-1.8V161.5z"/>
		<path d="M360.2,163.4h1.2v-4.2h-0.9V159c0.4-0.1,0.7-0.2,1-0.3h0.3v4.8h1.1v0.3h-2.7V163.4z"/>
		<path d="M363.8,163.3l0.2-0.2c0.2,0.3,0.5,0.4,0.9,0.4c0.8,0,1.5-0.7,1.5-2.5c-0.4,0.4-0.8,0.7-1.3,0.7c-0.9,0-1.4-0.6-1.4-1.6
			c0-0.9,0.6-1.6,1.4-1.6c1,0,1.7,0.9,1.7,2.4c0,2.1-0.9,2.9-1.9,2.9C364.4,163.8,364.1,163.6,363.8,163.3z M365.2,161.3
			c0.4,0,0.8-0.2,1.2-0.8c-0.1-1.1-0.5-1.8-1.3-1.8c-0.6,0-1,0.6-1,1.3C364.1,160.8,364.4,161.3,365.2,161.3z"/>
	</g>
	<g class="st0">
		<path d="M371,158.4h0.5l1.1,3.1c0.1,0.4,0.3,0.8,0.4,1.2l0,0c0.1-0.4,0.3-0.8,0.4-1.2l1.1-3.1h0.5v5.3h-0.4v-3.5c0-0.4,0-1,0-1.4
			l0,0l-0.4,1.2l-1.1,3.1h-0.3l-1.1-3.1l-0.4-1.2l0,0c0,0.4,0,1,0,1.4v3.5H371V158.4z"/>
		<path d="M376.3,162.7c0-0.8,0.8-1.3,2.5-1.4c0-0.6-0.2-1.2-0.9-1.2c-0.5,0-1,0.3-1.2,0.4l-0.2-0.3c0.3-0.2,0.8-0.5,1.4-0.5
			c0.9,0,1.2,0.7,1.2,1.5v2.5h-0.3v-0.5l0,0c-0.4,0.3-0.9,0.6-1.4,0.6C376.8,163.8,376.3,163.4,376.3,162.7z M378.8,162.8v-1.3
			c-1.6,0.2-2.1,0.6-2.1,1.2c0,0.6,0.4,0.8,0.8,0.8C378,163.5,378.3,163.2,378.8,162.8z"/>
	</g>
	<g class="st0">
		<path d="M380.6,159.8h0.3v0.7l0,0c0.3-0.5,0.6-0.8,1.1-0.8c0.1,0,0.3,0,0.4,0.1l-0.1,0.3c-0.1,0-0.2-0.1-0.4-0.1
			c-0.3,0-0.8,0.3-1,1v2.6h-0.4v-3.8H380.6z"/>
	</g>
	<g class="st0">
		<path d="M382.6,161.5h1.8v0.3h-1.8V161.5z"/>
		<path d="M385.3,163.4h1.2v-4.2h-0.9V159c0.4-0.1,0.7-0.2,1-0.3h0.3v4.8h1.1v0.3h-2.7V163.4z"/>
		<path d="M388.9,163.3l0.2-0.2c0.2,0.3,0.5,0.4,0.9,0.4c0.8,0,1.5-0.7,1.5-2.5c-0.4,0.4-0.8,0.7-1.3,0.7c-0.9,0-1.4-0.6-1.4-1.6
			c0-0.9,0.6-1.6,1.4-1.6c1,0,1.7,0.9,1.7,2.4c0,2.1-0.9,2.9-1.9,2.9C389.5,163.8,389.2,163.6,388.9,163.3z M390.3,161.3
			c0.4,0,0.8-0.2,1.2-0.8c-0.1-1.1-0.5-1.8-1.3-1.8c-0.6,0-1,0.6-1,1.3C389.2,160.8,389.5,161.3,390.3,161.3z"/>
	</g>
	<line class="st1" x1="21.4" y1="154.2" x2="21.4" y2="35.1"/>
	<line class="st1" x1="18.7" y1="35.2" x2="21.6" y2="35.2"/>
	<line class="st1" x1="18.7" y1="49.7" x2="21.6" y2="49.7"/>
	<line class="st1" x1="18.7" y1="64.3" x2="21.6" y2="64.3"/>
	<line class="st1" x1="18.7" y1="78.8" x2="21.6" y2="78.8"/>
	<line class="st1" x1="18.7" y1="93.4" x2="21.6" y2="93.4"/>
	<line class="st1" x1="18.7" y1="107.9" x2="21.6" y2="107.9"/>
	<line class="st1" x1="18.7" y1="122.4" x2="21.6" y2="122.4"/>
	<line class="st1" x1="18.7" y1="137" x2="21.6" y2="137"/>
	<line class="st1" x1="30.4" y1="151.4" x2="30.4" y2="154.2"/>
	<line class="st1" x1="55.5" y1="151.4" x2="55.5" y2="154.2"/>
	<line class="st1" x1="80.6" y1="151.4" x2="80.6" y2="154.2"/>
	<line class="st1" x1="105.6" y1="151.4" x2="105.6" y2="154.2"/>
	<line class="st1" x1="130.7" y1="151.4" x2="130.7" y2="154.2"/>
	<line class="st1" x1="155.7" y1="151.4" x2="155.7" y2="154.2"/>
	<line class="st1" x1="180.8" y1="151.4" x2="180.8" y2="154.2"/>
	<line class="st1" x1="205.8" y1="151.4" x2="205.8" y2="154.2"/>
	<line class="st1" x1="230.9" y1="151.4" x2="230.9" y2="154.2"/>
	<line class="st1" x1="256" y1="151.4" x2="256" y2="154.2"/>
	<line class="st1" x1="281" y1="151.4" x2="281" y2="154.2"/>
	<line class="st1" x1="306.1" y1="151.4" x2="306.1" y2="154.2"/>
	<line class="st1" x1="331.1" y1="151.4" x2="331.1" y2="154.2"/>
	<line class="st1" x1="356.2" y1="151.4" x2="356.2" y2="154.2"/>
	<line class="st1" x1="381.2" y1="151.4" x2="381.2" y2="154.2"/>
	<polygon class="st2" points="30.4,50.9 55.7,52 80.9,78.9 105.8,84.6 131.1,83.5 156.6,72.5 180.9,106.5 206,127.7 231,132.5 
		256.9,139.1 281.1,145.6 306.2,142.2 331.2,137.7 356.3,127.7 381.2,128.3 381.2,151.5 30.4,151.5 	"/>
	<line class="st1" x1="18.7" y1="151.5" x2="393.3" y2="151.5"/>
</g>
</svg>
