<?xml version="1.0" encoding="utf-8"?>
<!-- Generator: Adobe Illustrator 23.0.3, SVG Export Plug-In . SVG Version: 6.00 Build 0)  -->
<svg version="1.1" id="Layer_1" xmlns="http://www.w3.org/2000/svg" xmlns:xlink="http://www.w3.org/1999/xlink" x="0px" y="0px"
	 viewBox="0 0 85.3 47.3" style="enable-background:new 0 0 85.3 47.3;" xml:space="preserve">
<style type="text/css">
	.st0{fill:#FFFFFF;}
</style>
<g>
	<path class="st0" d="M82.3,42.1H84c0,0,0,0.1,0,0.2c0,0.1,0,0.1,0,0.2c0,1.1-0.2,1.9-0.7,2.4c-0.4,0.5-1.1,0.8-2,0.8
		c-0.4,0-0.8-0.1-1.1-0.2c-0.3-0.1-0.6-0.3-0.8-0.5c-0.3-0.3-0.5-0.8-0.7-1.3c-0.1-0.6-0.2-1.5-0.2-2.9c0-0.9,0-1.7,0.1-2.3
		c0.1-0.6,0.2-1,0.4-1.3c0.2-0.4,0.5-0.7,0.9-0.9c0.4-0.2,0.8-0.3,1.4-0.3c0.9,0,1.6,0.2,2,0.7c0.4,0.5,0.6,1.3,0.6,2.3h-1.7v-0.2
		c0-0.5-0.1-0.9-0.2-1.1c-0.2-0.2-0.4-0.4-0.7-0.4c-0.4,0-0.7,0.2-0.8,0.5c-0.1,0.3-0.2,1.3-0.2,2.8c0,1.7,0.1,2.7,0.2,3
		c0.1,0.4,0.4,0.5,0.8,0.5c0.4,0,0.6-0.1,0.8-0.4c0.1-0.3,0.2-0.8,0.2-1.6V42.1L82.3,42.1z M71.4,45.4v-9.2h1.8l2.4,6.4l0-6.4h1.6
		v9.2h-1.7L73,39l0,6.4H71.4L71.4,45.4z M68.2,36.2h1.7v9.2h-1.7V36.2L68.2,36.2z M61.9,45.4v-1.6l3.2-6.2H62v-1.4h4.9v1.4l-3.2,6.2
		H67v1.6H61.9L61.9,45.4z M52,45.4v-9.2h1.7l2.4,6.4l0-6.4h1.6v9.2H56L53.6,39l0,6.4H52L52,45.4z M44.7,45.4l2.1-9.2H49l2.1,9.2
		h-1.8l-0.4-2.3h-2l-0.4,2.3H44.7L44.7,45.4z M47.1,41.7h1.4l-0.7-3.9L47.1,41.7L47.1,41.7z M41.5,45.4v-7.7h-2v-1.5h5.6v1.5h-2v7.7
		H41.5L41.5,45.4z M33.3,42.2H35v0.6c0,0.6,0.1,1,0.2,1.2c0.1,0.2,0.4,0.3,0.7,0.3c0.4,0,0.6-0.1,0.8-0.3c0.2-0.2,0.3-0.5,0.3-0.8
		c0-0.3-0.1-0.5-0.2-0.7c-0.1-0.2-0.4-0.4-0.8-0.8l-0.9-0.6c-0.8-0.5-1.2-1-1.4-1.3c-0.2-0.3-0.3-0.8-0.3-1.3c0-0.8,0.2-1.4,0.7-1.8
		c0.5-0.4,1.1-0.7,1.9-0.7c0.8,0,1.5,0.2,1.9,0.7c0.5,0.5,0.7,1.1,0.7,2c0,0.1,0,0.2,0,0.2c0,0,0,0.1,0,0.1H37v-0.2
		c0-0.5-0.1-0.9-0.2-1.1c-0.2-0.2-0.4-0.3-0.8-0.3c-0.3,0-0.5,0.1-0.6,0.2c-0.2,0.2-0.2,0.4-0.2,0.7c0,0.4,0.3,0.8,1,1.3l0,0
		l0.9,0.6c0.7,0.4,1.1,0.9,1.4,1.3c0.2,0.4,0.4,0.9,0.4,1.5c0,0.8-0.2,1.5-0.7,1.9c-0.5,0.5-1.2,0.7-2,0.7c-0.9,0-1.6-0.2-2.1-0.7
		c-0.4-0.5-0.7-1.2-0.7-2.2C33.3,42.6,33.3,42.5,33.3,42.2L33.3,42.2L33.3,42.2z M26.2,36.2H28v6.2c0,0.7,0.1,1.2,0.3,1.4
		c0.2,0.3,0.5,0.4,0.9,0.4c0.4,0,0.7-0.1,0.9-0.4c0.2-0.3,0.3-0.7,0.3-1.5v-6.2H32v6.3c0,0.6,0,1.1-0.1,1.4
		c-0.1,0.3-0.2,0.5-0.3,0.7c-0.2,0.3-0.6,0.6-1,0.7c-0.4,0.2-0.9,0.2-1.4,0.2c-1,0-1.8-0.2-2.2-0.7c-0.4-0.5-0.6-1.2-0.6-2.4V36.2
		L26.2,36.2z M19.1,45.4v-9.2h2.7c0.6,0,1,0,1.3,0.1c0.3,0.1,0.6,0.3,0.8,0.5c0.3,0.3,0.5,0.7,0.7,1.2c0.1,0.5,0.2,1.2,0.2,2.2
		c0,1.3,0,2.2-0.1,2.8c-0.1,0.5-0.2,1-0.5,1.4c-0.2,0.4-0.5,0.6-0.9,0.8c-0.4,0.1-1,0.2-1.9,0.2H19.1L19.1,45.4z M20.8,44h0.8
		c0.4,0,0.7,0,0.8-0.1c0.2-0.1,0.3-0.2,0.4-0.3c0.2-0.2,0.3-0.6,0.3-1c0.1-0.4,0.1-1.1,0.1-2c0-0.9,0-1.5-0.1-1.9
		c-0.1-0.4-0.2-0.7-0.4-0.9c-0.1-0.1-0.2-0.2-0.4-0.2c-0.2,0-0.4-0.1-0.7-0.1h-0.7V44L20.8,44z M11.9,45.4v-9.2h1.8l2.4,6.4l0-6.4
		h1.6v9.2h-1.7L13.4,39l0,6.4H11.9L11.9,45.4z M8.6,36.2h1.7v9.2H8.6V36.2L8.6,36.2z M1.3,45.4v-9.2H3v3.6h2.3v-3.6H7v9.2H5.4v-4.2
		H3v4.2H1.3L1.3,45.4z"/>
	<g>
		<path class="st0" d="M42.5,22.5H44c0.1-0.3,0.3-0.5,0.5-0.5c0.2,0,0.5,0.2,0.5,0.5h1.5c-0.1-1-0.9-1.7-2-1.7
			C43.4,20.7,42.5,21.5,42.5,22.5L42.5,22.5z"/>
		<path class="st0" d="M57,19.4l0.1-0.3L51.7,18c0-0.1,0-0.3,0.1-0.5l2.9,0.3c0-0.1,0-0.2,0-0.3l-2.9-0.3c0-0.2,0-0.4,0-0.7l4,0
			c0-0.1,0-0.1,0-0.2c0-0.1,0-0.1,0-0.2l-4,0c0-0.2,0-0.4,0-0.6l2.9-0.3c0-0.1,0-0.2,0-0.3l-2.9,0.3c0-0.4-0.1-0.7-0.2-1l5.3-1.4
			l-0.1-0.3l-5.3,1.4c0-0.1-0.1-0.3-0.1-0.4l2.7-1c0-0.1-0.1-0.2-0.1-0.3l-2.7,1c-0.1-0.2-0.2-0.4-0.3-0.6l3.6-1.8
			c0-0.1-0.1-0.2-0.2-0.3l-3.6,1.8c-0.1-0.2-0.2-0.4-0.3-0.5l2.4-1.5c-0.1-0.1-0.1-0.2-0.2-0.3l-2.4,1.5c-0.2-0.3-0.4-0.6-0.6-0.8
			l4.2-3.6l-0.2-0.3l-4.2,3.6c-0.1-0.1-0.2-0.3-0.4-0.4l2-2.1C51,7.7,51,7.6,50.9,7.5l-2,2.1c-0.2-0.1-0.3-0.3-0.5-0.4L50.8,6
			c-0.1-0.1-0.2-0.1-0.3-0.2L48.1,9c-0.2-0.1-0.3-0.2-0.5-0.3l1.5-2.5C49,6.1,48.9,6.1,48.8,6l-1.5,2.5C47,8.3,46.7,8.1,46.4,8
			l2.2-5.1l-0.3-0.1l-2.2,5.1c-0.2-0.1-0.3-0.1-0.5-0.2l0.9-2.7c-0.1,0-0.2-0.1-0.3-0.1l-0.9,2.7c-0.2-0.1-0.4-0.1-0.6-0.2l0.8-4
			c-0.1,0-0.2,0-0.3-0.1l-0.8,4c-0.2,0-0.4-0.1-0.6-0.1L44,4.4c-0.1,0-0.2,0-0.3,0l-0.3,2.9c-0.2,0-0.4,0-0.6,0V1.7h-0.4v5.5
			c-0.2,0-0.4,0-0.5,0l-0.3-2.9c-0.1,0-0.2,0-0.3,0l0.3,2.9c-0.2,0-0.4,0.1-0.6,0.1l-0.8-4c-0.1,0-0.2,0-0.3,0.1l0.8,4
			c-0.2,0-0.4,0.1-0.6,0.2l-0.9-2.7c-0.1,0-0.2,0.1-0.3,0.1l0.9,2.7c-0.3,0.1-0.6,0.2-0.9,0.4l-2.4-4.9l-0.3,0.2l2.4,4.9
			c-0.2,0.1-0.3,0.2-0.5,0.3L36.5,6c-0.1,0.1-0.2,0.1-0.3,0.2l1.5,2.5c-0.2,0.1-0.4,0.2-0.5,0.4l-2.5-3.2c-0.1,0.1-0.2,0.1-0.3,0.2
			l2.5,3.2c-0.2,0.1-0.3,0.3-0.5,0.4l-2-2.1c-0.1,0.1-0.2,0.2-0.2,0.2l2,2.1c-0.2,0.2-0.4,0.5-0.6,0.7l-4.3-3.4L31,7.5l4.3,3.4
			c-0.1,0.1-0.2,0.3-0.3,0.4l-2.4-1.5c-0.1,0.1-0.1,0.2-0.2,0.3l2.4,1.5c-0.1,0.2-0.2,0.4-0.3,0.6l-3.6-1.8
			c-0.1,0.1-0.1,0.2-0.2,0.3l3.6,1.8c-0.1,0.2-0.2,0.4-0.2,0.6l-2.7-1c0,0.1-0.1,0.2-0.1,0.3l2.7,1c-0.1,0.3-0.2,0.7-0.3,1l-5.4-1.1
			l-0.1,0.3l5.4,1.1c0,0.2,0,0.3-0.1,0.5l-2.9-0.3c0,0.1,0,0.2,0,0.3l2.9,0.3c0,0.2,0,0.4,0,0.7l-4,0c0,0.1,0,0.1,0,0.2
			c0,0.1,0,0.1,0,0.2l4,0c0,0.2,0,0.4,0,0.6l-2.9,0.3c0,0.1,0,0.2,0,0.3l2.9-0.3c0,0.4,0.1,0.7,0.2,1l-5.3,1.4l0.1,0.3l5.3-1.4
			c0,0.1,0.1,0.3,0.1,0.4l-2.7,1c0,0.1,0.1,0.2,0.1,0.3l2.7-1c0.1,0.2,0.2,0.4,0.3,0.6L30.7,22c0,0.1,0.1,0.2,0.2,0.3l3.6-1.8
			c0.1,0.2,0.2,0.4,0.3,0.5l-2.4,1.5c0.1,0.1,0.1,0.2,0.2,0.3l2.4-1.5c0.2,0.3,0.4,0.6,0.6,0.8l-4.2,3.6l0.2,0.3l4.2-3.6
			c0.1,0.1,0.2,0.3,0.4,0.4l-2,2.1c0.1,0.1,0.2,0.2,0.2,0.2l2-2.1c0.2,0.2,0.3,0.3,0.5,0.4l-2.5,3.2c0.1,0.1,0.2,0.1,0.3,0.2
			l2.5-3.2c0.2,0.1,0.3,0.2,0.5,0.3l-1.5,2.5c0.1,0.1,0.2,0.1,0.3,0.2l1.5-2.5c0.3,0.2,0.6,0.3,0.9,0.5l-2.2,5.1l0.3,0.1l2.2-5.1
			c0.2,0.1,0.3,0.1,0.5,0.2l-0.9,2.7c0.1,0,0.2,0.1,0.3,0.1l0.9-2.7c0.2,0.1,0.4,0.1,0.6,0.2l-0.8,4c0.1,0,0.2,0,0.3,0.1l0.8-4
			c0.2,0,0.4,0.1,0.6,0.1l-0.3,2.9c0.1,0,0.2,0,0.3,0l0.3-2.9c0.2,0,0.4,0,0.6,0v5.5h0.4v-5.5c0.2,0,0.4,0,0.5,0l0.3,2.9
			c0.1,0,0.2,0,0.3,0l-0.3-2.9c0.2,0,0.4-0.1,0.6-0.1l0.8,4c0.1,0,0.2,0,0.3-0.1l-0.8-4c0.2,0,0.4-0.1,0.6-0.2l0.9,2.7
			c0.1,0,0.2-0.1,0.3-0.1l-0.9-2.7c0.3-0.1,0.6-0.2,0.9-0.4l2.4,4.9l0.3-0.2l-2.4-4.9c0.2-0.1,0.3-0.2,0.5-0.3l1.5,2.4
			c0.1-0.1,0.2-0.1,0.3-0.2l-1.5-2.5c0.2-0.1,0.4-0.2,0.5-0.4l2.5,3.2c0.1-0.1,0.2-0.1,0.3-0.2l-2.5-3.2c0.2-0.1,0.3-0.3,0.5-0.4
			l2,2.1c0.1-0.1,0.2-0.2,0.2-0.2l-2-2.1c0.2-0.2,0.4-0.5,0.6-0.7l4.3,3.4l0.2-0.3L50,21.9c0.1-0.1,0.2-0.3,0.3-0.4l2.4,1.5
			c0.1-0.1,0.1-0.2,0.2-0.3l-2.4-1.5c0.1-0.2,0.2-0.4,0.3-0.6l3.6,1.8c0.1-0.1,0.1-0.2,0.2-0.3l-3.6-1.8c0.1-0.2,0.2-0.4,0.2-0.6
			l2.7,1c0-0.1,0.1-0.2,0.1-0.3l-2.7-1c0.1-0.3,0.2-0.7,0.3-1L57,19.4L57,19.4z M48.3,22.4V11.3h-1.6v4.5h-2L44,17.4h2.8v5.1h1.5
			c-1.5,1.3-3.4,2.2-5.6,2.2c-2.1,0-4.1-0.8-5.6-2.2h1.4v-5.1h2.3l0.8-1.6h-3.1v-4.5H37v11.1c-1.6-1.5-2.5-3.6-2.5-6
			c0-4.6,3.7-8.3,8.2-8.3c4.5,0,8.2,3.7,8.2,8.3C50.9,18.7,49.9,20.9,48.3,22.4L48.3,22.4z"/>
		<path class="st0" d="M44.5,10.5c-0.7,0.3-1,0.7-2,0.7c-0.9,0-1.8-0.4-2.6-1c0.2,1.7,0.9,2.4,2.2,2.5c0.9,0.1,1.5-0.3,2.1-0.6
			l-5.2,10.4h0.8h0.8h1.5V21h-0.7l4.9-9.8C45.9,10.5,44.9,10.3,44.5,10.5L44.5,10.5z"/>
	</g>
</g>
</svg>
