<?xml version="1.0" encoding="utf-8"?>
<!-- Generator: Adobe Illustrator 23.0.3, SVG Export Plug-In . SVG Version: 6.00 Build 0)  -->
<svg version="1.1" id="Layer_1" xmlns="http://www.w3.org/2000/svg" xmlns:xlink="http://www.w3.org/1999/xlink" x="0px" y="0px"
	 viewBox="0 0 276.1 101" style="enable-background:new 0 0 276.1 101;" xml:space="preserve">
<style type="text/css">
	.st0{fill:#37B550;}
	.st1{fill:#FFFFFF;}
	.st2{fill:#00AE4D;}
	.st3{fill:none;stroke:#939598;stroke-width:0.5;stroke-miterlimit:10;}
	.st4{fill:none;stroke:#939598;stroke-width:0.499;stroke-miterlimit:10;}
	.st5{fill:none;stroke:#FFFFFF;stroke-width:0.499;stroke-miterlimit:10;}
</style>
<g>
	<g>
		<path class="st0" d="M1.8,1.1h1.6l1,2.9c0.1,0.4,0.3,0.8,0.4,1.2l0,0C4.9,4.8,5,4.4,5.2,4l1-2.9h1.6v6.5H6.5V5.2
			c0-0.6,0.1-1.6,0.2-2.2l0,0L6.2,4.5L5.2,7H4.4L3.5,4.5L2.9,3l0,0C3,3.6,3.1,4.6,3.1,5.2v2.4H1.8V1.1z"/>
		<path class="st0" d="M9.4,1.1h1.5v6.5H9.4V1.1z"/>
		<path class="st0" d="M12.4,1.1h1.5l1.7,3.2l0.6,1.4l0,0C16.1,5,16,4.1,16,3.3V1.1h1.4v6.5h-1.5l-1.7-3.2L13.6,3l0,0
			c0.1,0.7,0.2,1.6,0.2,2.4v2.3h-1.4C12.4,7.7,12.4,1.1,12.4,1.1z"/>
		<path class="st0" d="M19.1,1.1h1.5v6.5h-1.5V1.1z"/>
		<path class="st0" d="M22.1,1.1h1.5l1.7,3.2l0.6,1.4l0,0c-0.1-0.7-0.2-1.6-0.2-2.4V1.1h1.5v6.5h-1.5L24,4.4L23.4,3l0,0
			c0.1,0.7,0.2,1.6,0.2,2.4v2.3h-1.4V1.1H22.1z"/>
		<path class="st0" d="M28.4,4.4c0-2.2,1.4-3.4,3.2-3.4c0.9,0,1.6,0.4,2,0.8l-0.8,0.9c-0.3-0.3-0.7-0.5-1.2-0.5
			c-1,0-1.7,0.8-1.7,2.1s0.6,2.1,1.8,2.1c0.3,0,0.5-0.1,0.7-0.2V5.1h-1.1V3.9h2.4v3c-0.5,0.4-1.2,0.8-2.1,0.8
			C29.8,7.7,28.4,6.6,28.4,4.4z"/>
		<path class="st0" d="M37.1,1.1h1.5v6.5h-1.5V1.1z"/>
		<path class="st0" d="M40.1,1.1h1.5l1.7,3.2l0.6,1.4l0,0c-0.1-0.7-0.2-1.6-0.2-2.4V1.1h1.5v6.5h-1.5L42,4.4L41.4,3l0,0
			c0.1,0.7,0.2,1.6,0.2,2.4v2.3h-1.4L40.1,1.1L40.1,1.1z"/>
		<path class="st0" d="M48.8,1.1h1.4v2.5h2.2V1.1h1.5v6.5h-1.5V4.9h-2.2v2.7h-1.5L48.8,1.1L48.8,1.1z"/>
		<path class="st0" d="M55.1,6.7L58,2.3h-2.6V1.1h4.4V2l-2.9,4.4h2.9v1.2h-4.7C55.1,7.6,55.1,6.7,55.1,6.7z"/>
		<path class="st0" d="M60.9,1.1h1.5v5.3H65v1.2h-4L60.9,1.1L60.9,1.1z"/>
		<path class="st0" d="M67.7,4.6h2.5v1h-2.5V4.6z"/>
		<path class="st0" d="M74.6,1.1h1.8l2,6.5h-1.6l-0.4-1.5h-2L74,7.6h-1.5L74.6,1.1z M74.8,4.9h1.4L76,4.3c-0.2-0.7-0.4-1.4-0.5-2.1
			l0,0c-0.2,0.7-0.3,1.4-0.5,2.1L74.8,4.9z"/>
		<path class="st0" d="M79.1,1.1h1.5l1.7,3.2l0.6,1.4l0,0c-0.1-0.7-0.2-1.6-0.2-2.4V1.1h1.5v6.5h-1.5L81,4.4L80.4,3l0,0
			c0.1,0.7,0.2,1.6,0.2,2.4v2.3h-1.4L79.1,1.1L79.1,1.1z"/>
		<path class="st0" d="M87.5,4.3c0-2.1,1.2-3.3,3-3.3s3,1.2,3,3.3s-1.2,3.4-3,3.4S87.5,6.4,87.5,4.3z M91.9,4.3
			c0-1.3-0.6-2.1-1.4-2.1S89.1,3,89.1,4.3s0.6,2.1,1.4,2.1S91.9,5.6,91.9,4.3z"/>
		<path class="st0" d="M93.7,1.1h1.6l0.8,3c0.2,0.7,0.3,1.4,0.5,2.1l0,0c0.2-0.7,0.3-1.4,0.5-2.1l0.8-3h1.5l-2,6.5h-1.8L93.7,1.1z"
			/>
		<path class="st0" d="M100.1,1.1h4.1v1.2h-2.6v1.3h2.2v1.2h-2.2v1.5h2.7v1.2h-4.2V1.1z"/>
		<path class="st0" d="M105.6,1.1h2.3c1.4,0,2.5,0.5,2.5,2c0,1-0.5,1.6-1.2,1.9l1.5,2.6h-1.6l-1.3-2.3H107v2.3h-1.5L105.6,1.1
			L105.6,1.1z M107.8,4.1c0.8,0,1.2-0.3,1.2-1s-0.4-0.9-1.2-0.9H107V4L107.8,4.1L107.8,4.1z"/>
		<path class="st0" d="M110.7,1.1h1.6l0.8,3c0.2,0.7,0.3,1.4,0.5,2.1l0,0c0.2-0.7,0.3-1.4,0.5-2.1l0.8-3h1.5l-2,6.5h-1.8L110.7,1.1z
			"/>
		<path class="st0" d="M117.1,1.1h1.5v6.5h-1.5V1.1z"/>
		<path class="st0" d="M120.1,1.1h4.1v1.2h-2.6v1.3h2.2v1.2h-2.2v1.5h2.7v1.2h-4.2V1.1z"/>
		<path class="st0" d="M125,1.1h1.5l0.4,3c0.1,0.7,0.2,1.4,0.3,2.1l0,0c0.1-0.7,0.3-1.4,0.4-2.1l0.7-3h1.2l0.7,3
			c0.1,0.7,0.3,1.4,0.4,2.1l0,0c0.1-0.7,0.2-1.4,0.3-2.1l0.4-3h1.4l-1.2,6.5h-1.8l-0.6-3c-0.1-0.5-0.2-1-0.3-1.5l0,0
			c-0.1,0.5-0.2,1-0.3,1.5l-0.6,3h-1.7L125,1.1z"/>
	</g>
	<rect x="1" y="14.7" class="st1" width="36.4" height="23.2"/>
	<path class="st2" d="M185.3,14.7H275v23.2h-89.7V14.7L185.3,14.7z M37.4,14.7h148v23.2h-148C37.4,37.9,37.4,14.7,37.4,14.7z"/>
	<line class="st3" x1="1" y1="50.3" x2="37.1" y2="50.3"/>
	<line class="st3" x1="37.6" y1="50.3" x2="185.1" y2="50.3"/>
	<line class="st3" x1="185.6" y1="50.3" x2="275.1" y2="50.3"/>
	<line class="st3" x1="37.6" y1="62.8" x2="185.1" y2="62.8"/>
	<line class="st3" x1="185.6" y1="62.8" x2="275.1" y2="62.8"/>
	<line class="st3" x1="1" y1="75.2" x2="37.1" y2="75.2"/>
	<line class="st3" x1="37.4" y1="87.6" x2="185.1" y2="87.6"/>
	<line class="st3" x1="185.6" y1="87.6" x2="275.1" y2="87.6"/>
	<line class="st3" x1="1" y1="100" x2="37.4" y2="100"/>
	<line class="st3" x1="37.4" y1="100" x2="185.3" y2="100"/>
	<line class="st3" x1="185.3" y1="100" x2="275.1" y2="100"/>
	<line class="st4" x1="185.3" y1="87.6" x2="185.3" y2="75.4"/>
	<line class="st4" x1="37.4" y1="99.8" x2="37.4" y2="87.8"/>
	<line class="st4" x1="185.3" y1="99.8" x2="185.3" y2="87.6"/>
	<line class="st3" x1="1" y1="62.8" x2="37.1" y2="62.8"/>
	<line class="st3" x1="37.6" y1="75.2" x2="185.3" y2="75.2"/>
	<line class="st4" x1="185.3" y1="50.3" x2="185.3" y2="38.2"/>
	<line class="st4" x1="185.3" y1="62.8" x2="185.3" y2="50.3"/>
	<line class="st4" x1="185.3" y1="74.9" x2="185.3" y2="62.8"/>
	<line class="st3" x1="185.3" y1="75.2" x2="275.1" y2="75.2"/>
	<line class="st4" x1="37.4" y1="50.3" x2="37.4" y2="38.2"/>
	<line class="st4" x1="37.4" y1="62.8" x2="37.4" y2="50.3"/>
	<line class="st4" x1="37.4" y1="75.2" x2="37.4" y2="62.8"/>
	<line class="st4" x1="37.4" y1="87.3" x2="37.4" y2="75.2"/>
	<line class="st3" x1="1" y1="87.6" x2="37.4" y2="87.6"/>
	<line class="st5" x1="37.4" y1="37.7" x2="37.4" y2="14.9"/>
	<line class="st5" x1="185.3" y1="37.7" x2="185.3" y2="14.9"/>
	<line class="st4" x1="1" y1="14.7" x2="37.4" y2="14.7"/>
	<line class="st4" x1="37.4" y1="14.7" x2="185.3" y2="14.7"/>
	<line class="st4" x1="185.3" y1="14.7" x2="275.1" y2="14.7"/>
	<line class="st4" x1="1" y1="37.9" x2="37.4" y2="37.9"/>
	<line class="st4" x1="37.4" y1="37.9" x2="185.3" y2="37.9"/>
	<line class="st4" x1="185.3" y1="37.9" x2="275.1" y2="37.9"/>
	<g>
		<path d="M3,18.3h1.3l0.8,2.3c0.1,0.3,0.2,0.6,0.3,1l0,0c0.1-0.3,0.2-0.7,0.3-1l0.8-2.3h1.3v5.2H6.7v-1.9c0-0.5,0.1-1.3,0.2-1.8
			l0,0L6.5,21l-0.7,2H5.2l-0.7-2l-0.4-1.2l0,0c0.1,0.5,0.2,1.3,0.2,1.8v1.9H3V18.3z"/>
		<path d="M9,18.4c0-0.4,0.3-0.6,0.7-0.6s0.7,0.2,0.7,0.6S10.1,19,9.7,19S9,18.7,9,18.4z M9,19.6h1.2v4H9V19.6z"/>
		<path d="M11.2,19.6h1l0.1,0.5l0,0c0.3-0.3,0.7-0.6,1.3-0.6c0.9,0,1.2,0.6,1.2,1.6v2.5h-1.2v-2.3c0-0.6-0.2-0.8-0.5-0.8
			s-0.5,0.1-0.7,0.4v2.7h-1.2C11.2,23.6,11.2,19.6,11.2,19.6z"/>
		<path d="M15.6,21.5c0-1.3,0.9-2.1,1.9-2.1c1.1,0,1.7,0.8,1.7,1.9c0,0.2,0,0.4,0,0.5h-2.4c0.1,0.6,0.5,0.8,1,0.8
			c0.3,0,0.6-0.1,0.9-0.3l0.4,0.7c-0.4,0.3-0.9,0.4-1.4,0.4C16.5,23.6,15.6,22.9,15.6,21.5z M18.1,21.1c0-0.4-0.2-0.8-0.7-0.8
			c-0.4,0-0.7,0.2-0.8,0.8H18.1z"/>
	</g>
	<g>
		<path class="st1" d="M39.4,21.6v-3.2h1.3v3.3c0,1.2,0.4,1.5,1,1.5s1-0.4,1-1.5v-3.3H44v3.2c0,2-0.8,2.8-2.3,2.8
			C40.3,24.4,39.4,23.5,39.4,21.6z"/>
		<path class="st1" d="M45.4,19.8h1.1l0.1,0.6l0,0c0.4-0.4,0.8-0.7,1.4-0.7c1,0,1.4,0.7,1.4,1.8v2.8h-1.3v-2.6
			c0-0.6-0.2-0.8-0.5-0.8s-0.5,0.2-0.8,0.4v3h-1.3v-4.5C45.5,19.8,45.4,19.8,45.4,19.8z"/>
		<path class="st1" d="M50.3,22c0-1.5,0.9-2.3,1.9-2.3c0.5,0,0.8,0.2,1.1,0.5l-0.1-0.7V18h1.3v6.3h-1.1l-0.1-0.4l0,0
			c-0.3,0.3-0.8,0.5-1.2,0.5C51,24.4,50.3,23.5,50.3,22z M53.2,22.9v-1.8c-0.2-0.2-0.5-0.3-0.7-0.3c-0.4,0-0.8,0.4-0.8,1.2
			c0,0.9,0.3,1.3,0.8,1.3C52.7,23.3,53,23.2,53.2,22.9z"/>
		<path class="st1" d="M55.4,22c0-1.4,1-2.3,2.1-2.3c1.3,0,1.9,0.9,1.9,2.1c0,0.2,0,0.5-0.1,0.6h-2.7c0.1,0.6,0.6,0.9,1.2,0.9
			c0.3,0,0.6-0.1,1-0.3l0.4,0.8c-0.5,0.3-1.1,0.5-1.6,0.5C56.4,24.4,55.4,23.5,55.4,22z M58.3,21.6c0-0.5-0.2-0.8-0.7-0.8
			c-0.4,0-0.8,0.3-0.9,0.8H58.3z"/>
		<path class="st1" d="M60.3,19.8h1.1l0.1,0.8l0,0c0.3-0.6,0.8-0.9,1.3-0.9c0.3,0,0.4,0,0.5,0.1l-0.2,1.1c-0.2,0-0.3-0.1-0.5-0.1
			c-0.3,0-0.7,0.2-1,0.8v2.6h-1.3C60.3,24.2,60.3,19.8,60.3,19.8z"/>
		<path class="st1" d="M63.6,25c0-0.4,0.2-0.7,0.6-0.9l0,0c-0.2-0.2-0.4-0.4-0.4-0.8c0-0.3,0.2-0.6,0.5-0.8l0,0
			c-0.3-0.2-0.6-0.6-0.6-1.2c0-1.1,0.9-1.6,1.8-1.6c0.3,0,0.5,0,0.7,0.1h1.6v1h-0.6c0.1,0.1,0.1,0.4,0.1,0.6c0,1-0.8,1.5-1.8,1.5
			c-0.2,0-0.3,0-0.5-0.1c-0.1,0.1-0.2,0.2-0.2,0.3c0,0.2,0.2,0.3,0.7,0.3h0.7c1.1,0,1.7,0.3,1.7,1.1c0,0.9-1,1.6-2.5,1.6
			C64.5,26.2,63.6,25.8,63.6,25z M66.7,24.8c0-0.3-0.2-0.4-0.7-0.4h-0.5c-0.3,0-0.5,0-0.6-0.1c-0.2,0.1-0.2,0.3-0.2,0.4
			c0,0.3,0.4,0.5,1,0.5S66.7,25.1,66.7,24.8z M66.2,21.3c0-0.5-0.3-0.7-0.6-0.7c-0.4,0-0.6,0.2-0.6,0.7s0.3,0.7,0.6,0.7
			C66,22.1,66.2,21.8,66.2,21.3z"/>
		<path class="st1" d="M68.7,19.8h1.1l0.1,0.8l0,0c0.3-0.6,0.8-0.9,1.3-0.9c0.3,0,0.4,0,0.5,0.1l-0.2,1.1c-0.2,0-0.3-0.1-0.5-0.1
			c-0.3,0-0.7,0.2-1,0.8v2.6h-1.3V19.8z"/>
		<path class="st1" d="M72,22c0-1.5,1-2.3,2.2-2.3c1.1,0,2.2,0.9,2.2,2.3s-1,2.3-2.2,2.3C73.1,24.4,72,23.5,72,22z M75,22
			c0-0.8-0.3-1.3-0.8-1.3s-0.8,0.5-0.8,1.3s0.3,1.3,0.8,1.3C74.8,23.3,75,22.8,75,22z"/>
		<path class="st1" d="M77.2,22.6v-2.8h1.3v2.6c0,0.6,0.2,0.8,0.6,0.8c0.3,0,0.5-0.1,0.8-0.5v-3h1.3v4.5h-1l-0.1-0.6l0,0
			c-0.4,0.5-0.8,0.7-1.4,0.7C77.7,24.4,77.2,23.7,77.2,22.6z"/>
		<path class="st1" d="M82.4,19.8h1.1l0.1,0.6l0,0c0.4-0.4,0.8-0.7,1.4-0.7c1,0,1.4,0.7,1.4,1.8v2.8h-1.3v-2.6
			c0-0.6-0.2-0.8-0.5-0.8s-0.5,0.2-0.8,0.4v3h-1.3L82.4,19.8L82.4,19.8z"/>
		<path class="st1" d="M87.3,22c0-1.5,0.9-2.3,1.9-2.3c0.5,0,0.8,0.2,1.1,0.5l-0.1-0.7V18h1.3v6.3h-1.1l-0.1-0.4l0,0
			c-0.3,0.3-0.8,0.5-1.2,0.5C88,24.4,87.3,23.5,87.3,22z M90.2,22.9v-1.8c-0.2-0.2-0.5-0.3-0.7-0.3c-0.4,0-0.8,0.4-0.8,1.2
			c0,0.9,0.3,1.3,0.8,1.3C89.8,23.3,90,23.2,90.2,22.9z"/>
		<path class="st1" d="M94.6,18.4H96l0.9,2.6c0.1,0.3,0.2,0.7,0.3,1.1l0,0c0.1-0.4,0.2-0.7,0.3-1.1l0.9-2.6h1.4v5.9h-1.2v-2.2
			c0-0.6,0.1-1.4,0.2-2l0,0l-0.5,1.4l-0.8,2.2h-0.7L96,21.5l-0.5-1.4l0,0c0.1,0.6,0.2,1.4,0.2,2v2.2h-1.2L94.6,18.4L94.6,18.4z"/>
		<path class="st1" d="M101.3,18.5c0-0.4,0.3-0.7,0.7-0.7s0.7,0.3,0.7,0.7c0,0.4-0.3,0.7-0.7,0.7S101.3,18.9,101.3,18.5z
			 M101.4,19.8h1.3v4.5h-1.3V19.8z"/>
		<path class="st1" d="M103.9,19.8h1.1l0.1,0.6l0,0c0.4-0.4,0.8-0.7,1.4-0.7c1,0,1.4,0.7,1.4,1.8v2.8h-1.3v-2.6
			c0-0.6-0.2-0.8-0.5-0.8s-0.5,0.2-0.8,0.4v3H104L103.9,19.8L103.9,19.8z"/>
		<path class="st1" d="M108.9,18.5c0-0.4,0.3-0.7,0.7-0.7s0.7,0.3,0.7,0.7c0,0.4-0.3,0.7-0.7,0.7S108.9,18.9,108.9,18.5z M109,19.8
			h1.3v4.5H109V19.8z"/>
		<path class="st1" d="M111.5,19.8h1.1l0.1,0.6l0,0c0.4-0.4,0.8-0.7,1.4-0.7c1,0,1.4,0.7,1.4,1.8v2.8h-1.3v-2.6
			c0-0.6-0.2-0.8-0.5-0.8s-0.5,0.2-0.8,0.4v3h-1.3L111.5,19.8L111.5,19.8z"/>
		<path class="st1" d="M116.4,25c0-0.4,0.2-0.7,0.6-0.9l0,0c-0.2-0.2-0.4-0.4-0.4-0.8c0-0.3,0.2-0.6,0.5-0.8l0,0
			c-0.3-0.2-0.6-0.6-0.6-1.2c0-1.1,0.9-1.6,1.8-1.6c0.3,0,0.5,0,0.7,0.1h1.6v1h-0.7c0.1,0.1,0.1,0.4,0.1,0.6c0,1-0.8,1.5-1.8,1.5
			c-0.2,0-0.3,0-0.5-0.1c-0.1,0.1-0.2,0.2-0.2,0.3c0,0.2,0.2,0.3,0.7,0.3h0.7c1.1,0,1.7,0.3,1.7,1.1c0,0.9-1,1.6-2.5,1.6
			C117.2,26.2,116.4,25.8,116.4,25z M119.5,24.8c0-0.3-0.2-0.4-0.7-0.4h-0.5c-0.3,0-0.5,0-0.6-0.1c-0.2,0.1-0.2,0.3-0.2,0.4
			c0,0.3,0.4,0.5,1,0.5S119.5,25.1,119.5,24.8z M118.9,21.3c0-0.5-0.3-0.7-0.6-0.7c-0.4,0-0.6,0.2-0.6,0.7s0.3,0.7,0.6,0.7
			C118.7,22.1,118.9,21.8,118.9,21.3z"/>
		<path class="st1" d="M123.3,18.4h1.4l0.9,2.6c0.1,0.3,0.2,0.7,0.3,1.1l0,0c0.1-0.4,0.2-0.7,0.3-1.1l0.9-2.6h1.4v5.9h-1.2v-2.2
			c0-0.6,0.1-1.4,0.2-2l0,0l-0.5,1.4l-0.8,2.2h-0.7l-0.8-2.2l-0.5-1.4l0,0c0.1,0.6,0.2,1.4,0.2,2v2.2h-1.2L123.3,18.4L123.3,18.4z"
			/>
		<path class="st1" d="M129.8,22c0-1.4,1-2.3,2.1-2.3c1.3,0,1.9,0.9,1.9,2.1c0,0.2,0,0.5-0.1,0.6H131c0.1,0.6,0.6,0.9,1.2,0.9
			c0.3,0,0.6-0.1,1-0.3l0.4,0.8c-0.5,0.3-1.1,0.5-1.6,0.5C130.8,24.4,129.8,23.5,129.8,22z M132.7,21.6c0-0.5-0.2-0.8-0.7-0.8
			c-0.4,0-0.8,0.3-0.9,0.8H132.7z"/>
		<path class="st1" d="M134.9,22.7v-1.8h-0.6v-1l0.7-0.1l0.2-1.2h1.1v1.2h1.1v1h-1.1v1.8c0,0.5,0.2,0.7,0.6,0.7c0.1,0,0.3,0,0.4-0.1
			l0.2,1c-0.2,0.1-0.6,0.2-1,0.2C135.4,24.4,134.9,23.7,134.9,22.7z"/>
		<path class="st1" d="M138.2,18h1.3v1.5l-0.1,0.8c0.3-0.3,0.8-0.6,1.4-0.6c1,0,1.4,0.7,1.4,1.8v2.8h-1.3v-2.6
			c0-0.6-0.2-0.8-0.5-0.8s-0.5,0.2-0.8,0.4v3h-1.4L138.2,18L138.2,18z"/>
		<path class="st1" d="M143.1,22c0-1.5,1-2.3,2.2-2.3c1.1,0,2.2,0.9,2.2,2.3s-1,2.3-2.2,2.3C144.1,24.4,143.1,23.5,143.1,22z
			 M146.1,22c0-0.8-0.3-1.3-0.8-1.3s-0.8,0.5-0.8,1.3s0.3,1.3,0.8,1.3S146.1,22.8,146.1,22z"/>
		<path class="st1" d="M148.1,22c0-1.5,0.9-2.3,1.9-2.3c0.5,0,0.8,0.2,1.1,0.5l-0.1-0.7V18h1.3v6.3h-1.1l-0.1-0.4l0,0
			c-0.3,0.3-0.8,0.5-1.2,0.5C148.8,24.4,148.1,23.5,148.1,22z M151,22.9v-1.8c-0.2-0.2-0.5-0.3-0.7-0.3c-0.4,0-0.8,0.4-0.8,1.2
			c0,0.9,0.3,1.3,0.8,1.3C150.6,23.3,150.8,23.2,151,22.9z"/>
	</g>
	<g>
		<path class="st1" d="M196.2,18.4h2.1c1.2,0,2.3,0.4,2.3,1.8c0,0.9-0.4,1.4-1,1.7l1.3,2.3h-1.5l-1.1-2.1h-0.7v2.1h-1.4L196.2,18.4
			L196.2,18.4z M198.2,21.1c0.7,0,1.1-0.3,1.1-0.9s-0.4-0.8-1.1-0.8h-0.7V21L198.2,21.1L198.2,21.1z"/>
		<path class="st1" d="M201.4,22c0-1.4,1-2.3,2.1-2.3c1.3,0,1.9,0.9,1.9,2.1c0,0.2,0,0.5-0.1,0.6h-2.7c0.1,0.6,0.6,0.9,1.2,0.9
			c0.3,0,0.6-0.1,1-0.3l0.4,0.8c-0.5,0.3-1.1,0.5-1.6,0.5C202.4,24.4,201.4,23.5,201.4,22z M204.3,21.6c0-0.5-0.2-0.8-0.7-0.8
			c-0.4,0-0.8,0.3-0.9,0.8H204.3z"/>
		<path class="st1" d="M205.9,23.8l0.6-0.8c0.4,0.3,0.8,0.5,1.2,0.5s0.6-0.1,0.6-0.4s-0.5-0.4-0.9-0.6c-0.5-0.2-1.2-0.6-1.2-1.3
			c0-0.8,0.7-1.4,1.7-1.4c0.7,0,1.2,0.3,1.6,0.6l-0.6,0.8c-0.3-0.2-0.6-0.4-0.9-0.4c-0.3,0-0.5,0.1-0.5,0.4s0.4,0.4,0.9,0.6
			c0.6,0.2,1.2,0.5,1.2,1.3s-0.6,1.4-1.8,1.4C207,24.4,206.4,24.1,205.9,23.8z"/>
		<path class="st1" d="M210,22c0-1.4,1-2.3,2.1-2.3c1.3,0,1.9,0.9,1.9,2.1c0,0.2,0,0.5-0.1,0.6h-2.7c0.1,0.6,0.6,0.9,1.2,0.9
			c0.3,0,0.6-0.1,1-0.3l0.4,0.8c-0.5,0.3-1.1,0.5-1.6,0.5C211,24.4,210,23.5,210,22z M212.9,21.6c0-0.5-0.2-0.8-0.7-0.8
			c-0.4,0-0.8,0.3-0.9,0.8H212.9z"/>
		<path class="st1" d="M215,19.8h1.1l0.1,0.8l0,0c0.3-0.6,0.8-0.9,1.3-0.9c0.3,0,0.4,0,0.5,0.1l-0.2,1.1c-0.2,0-0.3-0.1-0.5-0.1
			c-0.3,0-0.7,0.2-1,0.8v2.6H215V19.8L215,19.8z"/>
		<path class="st1" d="M218.1,19.8h1.3l0.6,2.1c0.1,0.4,0.2,0.9,0.4,1.4l0,0c0.1-0.5,0.2-0.9,0.3-1.4l0.6-2.1h1.3l-1.5,4.5h-1.5
			L218.1,19.8z"/>
		<path class="st1" d="M223,22c0-1.4,1-2.3,2.1-2.3c1.3,0,1.9,0.9,1.9,2.1c0,0.2,0,0.5-0.1,0.6h-2.7c0.1,0.6,0.6,0.9,1.2,0.9
			c0.3,0,0.6-0.1,1-0.3l0.4,0.8c-0.5,0.3-1.1,0.5-1.6,0.5C224,24.4,223,23.5,223,22z M225.9,21.6c0-0.5-0.2-0.8-0.7-0.8
			c-0.4,0-0.8,0.3-0.9,0.8H225.9z"/>
		<path class="st1" d="M229.3,22.7c0-0.8,0.5-1.3,1.1-1.7c-0.2-0.4-0.4-0.8-0.4-1.2c0-0.8,0.6-1.5,1.6-1.5c0.9,0,1.4,0.5,1.4,1.3
			s-0.6,1.3-1.2,1.7c0.3,0.4,0.7,0.8,1.2,1.1c0.3-0.4,0.5-0.9,0.7-1.4h1.2c-0.2,0.7-0.5,1.4-1,2c0.4,0.2,0.7,0.3,1,0.4l-0.3,1.1
			c-0.5-0.1-1-0.3-1.5-0.6c-0.5,0.4-1.1,0.6-1.8,0.6C230,24.4,229.3,23.6,229.3,22.7z M231.5,23.4c0.2,0,0.5-0.1,0.7-0.2
			c-0.5-0.4-0.9-0.8-1.2-1.2c-0.2,0.2-0.4,0.4-0.4,0.7C230.6,23.1,230.9,23.4,231.5,23.4z M231.3,20.5c0.4-0.3,0.7-0.5,0.7-0.9
			c0-0.3-0.1-0.5-0.4-0.5c-0.3,0-0.5,0.3-0.5,0.7C231.1,20,231.2,20.3,231.3,20.5z"/>
		<path class="st1" d="M237.6,18.4h2.1c1.2,0,2.3,0.4,2.3,1.8c0,0.9-0.4,1.4-1,1.7l1.3,2.3h-1.5l-1.1-2.1H239v2.1h-1.3L237.6,18.4
			C237.7,18.4,237.6,18.4,237.6,18.4z M239.6,21.1c0.7,0,1.1-0.3,1.1-0.9s-0.4-0.8-1.1-0.8h-0.7V21L239.6,21.1L239.6,21.1z"/>
		<path class="st1" d="M242.8,22c0-1.4,1-2.3,2.1-2.3c1.3,0,1.9,0.9,1.9,2.1c0,0.2,0,0.5-0.1,0.6H244c0.1,0.6,0.6,0.9,1.2,0.9
			c0.3,0,0.6-0.1,1-0.3l0.4,0.8c-0.5,0.3-1.1,0.5-1.6,0.5C243.7,24.4,242.8,23.5,242.8,22z M245.6,21.6c0-0.5-0.2-0.8-0.7-0.8
			c-0.4,0-0.8,0.3-0.9,0.8H245.6z"/>
		<path class="st1" d="M247.3,23.8l0.6-0.8c0.4,0.3,0.8,0.5,1.2,0.5s0.6-0.1,0.6-0.4s-0.5-0.4-0.9-0.6c-0.5-0.2-1.2-0.6-1.2-1.3
			c0-0.8,0.7-1.4,1.7-1.4c0.7,0,1.2,0.3,1.6,0.6l-0.6,0.8c-0.3-0.2-0.6-0.4-0.9-0.4c-0.3,0-0.5,0.1-0.5,0.4s0.4,0.4,0.9,0.6
			c0.6,0.2,1.2,0.5,1.2,1.3s-0.6,1.4-1.8,1.4C248.4,24.4,247.7,24.1,247.3,23.8z"/>
		<path class="st1" d="M251.4,22c0-1.5,1-2.3,2.2-2.3c1.1,0,2.2,0.9,2.2,2.3s-1,2.3-2.2,2.3C252.5,24.4,251.4,23.5,251.4,22z
			 M254.4,22c0-0.8-0.3-1.3-0.8-1.3s-0.8,0.5-0.8,1.3s0.3,1.3,0.8,1.3C254.1,23.3,254.4,22.8,254.4,22z"/>
		<path class="st1" d="M256.6,22.6v-2.8h1.3v2.6c0,0.6,0.2,0.8,0.6,0.8c0.3,0,0.5-0.1,0.8-0.5v-3h1.3v4.5h-1.1l-0.1-0.6l0,0
			c-0.4,0.5-0.8,0.7-1.4,0.7C257,24.4,256.6,23.7,256.6,22.6z"/>
		<path class="st1" d="M261.8,19.8h1.1l0.1,0.8l0,0c0.3-0.6,0.8-0.9,1.3-0.9c0.3,0,0.4,0,0.5,0.1l-0.2,1.1c-0.2,0-0.3-0.1-0.5-0.1
			c-0.3,0-0.7,0.2-1,0.8v2.6h-1.3V19.8z"/>
		<path class="st1" d="M265.1,22c0-1.5,1.1-2.3,2.3-2.3c0.5,0,1,0.2,1.3,0.5l-0.6,0.9c-0.2-0.2-0.4-0.3-0.6-0.3c-0.6,0-1,0.5-1,1.3
			s0.4,1.3,1,1.3c0.3,0,0.6-0.1,0.8-0.3l0.5,0.9c-0.4,0.4-1,0.5-1.5,0.5C266.1,24.4,265.1,23.5,265.1,22z"/>
		<path class="st1" d="M269.3,22c0-1.4,1-2.3,2.1-2.3c1.3,0,1.9,0.9,1.9,2.1c0,0.2,0,0.5-0.1,0.6h-2.7c0.1,0.6,0.6,0.9,1.2,0.9
			c0.3,0,0.6-0.1,1-0.3l0.4,0.8c-0.5,0.3-1.1,0.5-1.6,0.5C270.3,24.4,269.3,23.5,269.3,22z M272.2,21.6c0-0.5-0.2-0.8-0.7-0.8
			c-0.4,0-0.8,0.3-0.9,0.8H272.2z"/>
	</g>
	<g>
		<path class="st1" d="M241.6,32.6c0-1.6,0.4-2.9,1.2-4.1l0.8,0.3c-0.7,1.2-0.9,2.5-0.9,3.8c0,1.3,0.3,2.6,0.9,3.8l-0.8,0.3
			C242,35.5,241.6,34.2,241.6,32.6z"/>
		<path class="st1" d="M244.6,30.6h1.1l0.1,0.6l0,0c0.4-0.4,0.8-0.7,1.3-0.7c0.6,0,1,0.3,1.2,0.7c0.4-0.4,0.8-0.7,1.4-0.7
			c1,0,1.4,0.7,1.4,1.8v2.8h-1.3v-2.6c0-0.6-0.2-0.8-0.5-0.8c-0.2,0-0.5,0.1-0.8,0.4v3h-1.3v-2.6c0-0.6-0.2-0.8-0.5-0.8
			c-0.2,0-0.5,0.1-0.8,0.4v3h-1.3L244.6,30.6L244.6,30.6z"/>
		<path class="st1" d="M252.3,30.6h1.1l0.1,0.6l0,0c0.4-0.4,0.8-0.7,1.4-0.7c1,0,1.4,0.7,1.4,1.8v2.8H255v-2.6
			c0-0.6-0.2-0.8-0.5-0.8s-0.5,0.2-0.8,0.4v3h-1.3L252.3,30.6C252.4,30.6,252.3,30.6,252.3,30.6z"/>
		<path class="st1" d="M259.4,29.2h1.4l0.9,2.6c0.1,0.3,0.2,0.7,0.3,1.1l0,0c0.1-0.4,0.2-0.7,0.3-1.1l0.9-2.6h1.4v5.9h-1.2v-2.2
			c0-0.6,0.1-1.4,0.2-2l0,0l-0.5,1.4l-0.8,2.2h-0.7l-0.8-2.2l-0.5-1.4l0,0c0.1,0.6,0.2,1.4,0.2,2v2.2h-1.2v-5.9
			C259.3,29.2,259.4,29.2,259.4,29.2z"/>
		<path class="st1" d="M267.4,30.3h-1.6v-1.1h4.6v1.1h-1.6v4.8h-1.3v-4.8H267.4z"/>
		<path class="st1" d="M271,36.3c0.7-1.2,1-2.5,1-3.8s-0.3-2.6-1-3.8l0.8-0.3c0.8,1.2,1.2,2.5,1.2,4.1s-0.4,2.9-1.2,4.1L271,36.3z"
			/>
	</g>
	<g>
		<path d="M3.3,41.6H5c1.2,0,1.9,0.4,1.9,1.6c0,0.9-0.6,1.5-1.5,1.6L7,47.6H6.5l-1.6-2.7H3.7v2.7H3.3V41.6z M4.9,44.4
			c1,0,1.6-0.4,1.6-1.3c0-0.9-0.6-1.2-1.6-1.2H3.7v2.5H4.9z"/>
		<path d="M9.5,41.6h0.4l2.1,5.9h-0.4l-0.7-2H8.6l-0.7,2H7.5L9.5,41.6z M8.6,45.1h2.1L10.4,44c-0.2-0.7-0.5-1.3-0.7-2.1l0,0
			C9.5,42.6,9.3,43.3,9,44L8.6,45.1z"/>
		<path d="M12.9,41.6h0.6l1.2,3.5c0.2,0.4,0.3,0.9,0.5,1.3l0,0c0.2-0.4,0.3-0.9,0.5-1.3l1.2-3.5h0.6v5.9h-0.4v-3.9
			c0-0.5,0-1.1,0.1-1.6l0,0l-0.5,1.3l-1.3,3.5H15l-1.3-3.5L13.3,42l0,0c0,0.5,0.1,1.1,0.1,1.6v3.9H13v-5.9H12.9z"/>
	</g>
	<g>
		<path d="M39.7,41.6h0.4v5.6h2.7v0.4h-3.2L39.7,41.6L39.7,41.6z"/>
		<path d="M43.5,45.3c0-1.4,0.9-2.3,1.9-2.3s1.9,0.8,1.9,2.3c0,1.4-0.9,2.3-1.9,2.3S43.5,46.8,43.5,45.3z M46.9,45.3
			c0-1.1-0.7-1.9-1.5-1.9c-0.9,0-1.5,0.8-1.5,1.9c0,1.1,0.6,1.9,1.5,1.9C46.3,47.3,46.9,46.5,46.9,45.3z"/>
		<path d="M48.6,43.2h0.3v0.7l0,0c0.4-0.4,0.9-0.8,1.5-0.8c0.9,0,1.3,0.5,1.3,1.7v2.8h-0.4v-2.7c0-0.9-0.3-1.4-1-1.4
			c-0.5,0-0.9,0.3-1.4,0.8v3.3h-0.4v-4.4C48.5,43.2,48.6,43.2,48.6,43.2z"/>
		<path d="M53.1,48.4c0-0.4,0.2-0.8,0.6-1l0,0c-0.2-0.1-0.4-0.4-0.4-0.7c0-0.4,0.3-0.7,0.5-0.8l0,0c-0.3-0.2-0.5-0.7-0.5-1.2
			c0-0.9,0.7-1.5,1.5-1.5c0.2,0,0.4,0.1,0.6,0.1h1.5v0.3h-1c0.3,0.2,0.5,0.6,0.5,1.1c0,0.9-0.7,1.5-1.5,1.5c-0.2,0-0.5-0.1-0.7-0.2
			c-0.2,0.2-0.4,0.3-0.4,0.6s0.2,0.6,0.8,0.6h0.9c1,0,1.4,0.3,1.4,1s-0.8,1.5-2,1.5C53.7,49.6,53.1,49.1,53.1,48.4z M56.5,48.2
			c0-0.5-0.4-0.7-1-0.7h-0.9c-0.1,0-0.3,0-0.5-0.1c-0.4,0.3-0.6,0.6-0.6,0.9c0,0.5,0.5,0.9,1.4,0.9C55.9,49.3,56.5,48.7,56.5,48.2z
			 M55.9,44.6c0-0.7-0.5-1.2-1.1-1.2s-1.1,0.5-1.1,1.2s0.5,1.2,1.1,1.2S55.9,45.3,55.9,44.6z"/>
		<path d="M59.6,41H60v2.8c0.5-0.5,0.9-0.8,1.5-0.8c0.9,0,1.3,0.5,1.3,1.7v2.8h-0.4v-2.7c0-0.9-0.3-1.4-1-1.4
			c-0.5,0-0.9,0.3-1.4,0.8v3.3h-0.4C59.6,47.5,59.6,41,59.6,41z"/>
		<path d="M64,45.3c0-1.4,0.9-2.3,1.9-2.3s1.9,0.8,1.9,2.3c0,1.4-0.9,2.3-1.9,2.3S64,46.8,64,45.3z M67.5,45.3
			c0-1.1-0.7-1.9-1.5-1.9c-0.9,0-1.5,0.8-1.5,1.9c0,1.1,0.6,1.9,1.5,1.9C66.8,47.3,67.5,46.5,67.5,45.3z"/>
		<path d="M69.2,46.9V41h0.4v6c0,0.2,0.1,0.3,0.2,0.3c0,0,0.1,0,0.2,0l0.1,0.3c-0.1,0-0.2,0-0.3,0C69.4,47.6,69.2,47.4,69.2,46.9z"
			/>
		<path d="M70.9,45.3c0-1.4,0.9-2.3,1.9-2.3s1.7,0.7,1.7,2c0,0.1,0,0.2,0,0.3h-3.1c0,1.1,0.7,1.9,1.6,1.9c0.5,0,0.8-0.2,1.2-0.4
			l0.2,0.3c-0.3,0.2-0.7,0.4-1.4,0.4C71.8,47.6,70.9,46.8,70.9,45.3z M74.1,45.1c0-1.1-0.5-1.7-1.3-1.7c-0.7,0-1.4,0.6-1.5,1.7H74.1
			z"/>
		<path d="M76.9,47l0.2-0.3c0.4,0.3,0.8,0.5,1.4,0.5c0.7,0,1-0.4,1-0.9s-0.6-0.8-1.1-1c-0.6-0.1-1.2-0.3-1.2-1.1
			c0-0.6,0.5-1.2,1.4-1.2c0.5,0,0.9,0.2,1.2,0.5l-0.2,0.3c-0.3-0.2-0.6-0.4-1-0.4c-0.7,0-1,0.4-1,0.8c0,0.5,0.5,0.7,1,0.9
			c0.7,0.3,1.4,0.5,1.4,1.3c0,0.6-0.5,1.2-1.5,1.2C77.9,47.6,77.3,47.3,76.9,47z"/>
		<path d="M81.2,46.3v-2.8h-0.7v-0.3h0.7l0.1-1.3h0.3v1.3h1.3v0.3h-1.3v2.8c0,0.5,0.1,0.9,0.7,0.9c0.2,0,0.4-0.1,0.5-0.1l0.1,0.3
			c-0.3,0.1-0.5,0.2-0.7,0.2C81.4,47.6,81.2,47.1,81.2,46.3z"/>
		<path d="M83.5,45.3c0-1.4,0.9-2.3,1.9-2.3s1.9,0.8,1.9,2.3c0,1.4-0.9,2.3-1.9,2.3S83.5,46.8,83.5,45.3z M87,45.3
			c0-1.1-0.7-1.9-1.5-1.9c-0.9,0-1.5,0.8-1.5,1.9c0,1.1,0.6,1.9,1.5,1.9C86.4,47.3,87,46.5,87,45.3z"/>
		<path d="M88.7,43.2H89v0.5l0,0c0.4-0.3,0.9-0.6,1.5-0.6c1.2,0,1.7,0.9,1.7,2.2c0,1.5-0.9,2.3-1.9,2.3c-0.4,0-0.8-0.2-1.3-0.5v2.4
			h-0.4v-6.3C88.6,43.2,88.7,43.2,88.7,43.2z M91.9,45.3c0-1.1-0.4-1.9-1.4-1.9c-0.4,0-0.9,0.3-1.4,0.7v2.6c0.5,0.4,0.9,0.6,1.3,0.6
			C91.3,47.3,91.9,46.4,91.9,45.3z"/>
		<path d="M93.5,41.8c0-0.2,0.1-0.4,0.3-0.4s0.3,0.1,0.3,0.4c0,0.2-0.1,0.4-0.3,0.4S93.5,42,93.5,41.8z M93.6,43.2H94v4.3h-0.4V43.2
			z"/>
		<path d="M95.7,43.2H96v0.7l0,0c0.4-0.4,0.9-0.8,1.5-0.8c0.9,0,1.3,0.5,1.3,1.7v2.8h-0.4v-2.7c0-0.9-0.3-1.4-1-1.4
			c-0.5,0-0.9,0.3-1.4,0.8v3.3h-0.4L95.7,43.2L95.7,43.2z"/>
		<path d="M100.1,48.4c0-0.4,0.2-0.8,0.6-1l0,0c-0.2-0.1-0.4-0.4-0.4-0.7c0-0.4,0.3-0.7,0.5-0.8l0,0c-0.3-0.2-0.5-0.7-0.5-1.2
			c0-0.9,0.7-1.5,1.5-1.5c0.2,0,0.4,0.1,0.6,0.1h1.5v0.3h-1c0.3,0.2,0.5,0.6,0.5,1.1c0,0.9-0.7,1.5-1.5,1.5c-0.2,0-0.5-0.1-0.7-0.2
			c-0.2,0.2-0.4,0.3-0.4,0.6s0.2,0.6,0.8,0.6h0.9c1,0,1.4,0.3,1.4,1s-0.8,1.5-2,1.5C100.8,49.6,100.1,49.1,100.1,48.4z M103.5,48.2
			c0-0.5-0.4-0.7-1-0.7h-0.9c-0.1,0-0.3,0-0.5-0.1c-0.4,0.3-0.6,0.6-0.6,0.9c0,0.5,0.5,0.9,1.4,0.9
			C102.9,49.3,103.5,48.7,103.5,48.2z M102.9,44.6c0-0.7-0.5-1.2-1.1-1.2s-1.1,0.5-1.1,1.2s0.5,1.2,1.1,1.2S102.9,45.3,102.9,44.6z"
			/>
		<path d="M106,43.2h0.4l0.8,2.8c0.1,0.4,0.2,0.8,0.3,1.2l0,0c0.1-0.4,0.2-0.8,0.3-1.2l0.8-2.8h0.5l0.8,2.8c0.1,0.4,0.2,0.8,0.3,1.2
			l0,0c0.1-0.4,0.2-0.8,0.3-1.2l0.8-2.8h0.4l-1.2,4.3H110l-0.8-2.7c-0.1-0.4-0.2-0.8-0.3-1.2l0,0c-0.1,0.4-0.2,0.8-0.3,1.3l-0.7,2.7
			h-0.5L106,43.2z"/>
		<path d="M112.7,41.8c0-0.2,0.1-0.4,0.3-0.4s0.3,0.1,0.3,0.4c0,0.2-0.1,0.4-0.3,0.4S112.7,42,112.7,41.8z M112.8,43.2h0.4v4.3h-0.4
			V43.2z"/>
		<path d="M115,46.3v-2.8h-0.7v-0.3h0.7l0.1-1.3h0.3v1.3h1.3v0.3h-1.3v2.8c0,0.5,0.1,0.9,0.7,0.9c0.2,0,0.4-0.1,0.5-0.1l0.1,0.3
			c-0.3,0.1-0.5,0.2-0.7,0.2C115.2,47.6,115,47.1,115,46.3z"/>
		<path d="M117.7,41h0.4v2.8c0.5-0.5,0.9-0.8,1.5-0.8c0.9,0,1.3,0.5,1.3,1.7v2.8h-0.4v-2.7c0-0.9-0.3-1.4-1-1.4
			c-0.5,0-0.9,0.3-1.4,0.8v3.3h-0.4V41z"/>
		<path d="M124.2,43.2h0.3v0.5l0,0c0.4-0.3,0.9-0.6,1.5-0.6c1.2,0,1.7,0.9,1.7,2.2c0,1.5-0.9,2.3-1.9,2.3c-0.4,0-0.8-0.2-1.3-0.5
			v2.4h-0.3C124.2,49.5,124.2,43.2,124.2,43.2z M127.4,45.3c0-1.1-0.4-1.9-1.4-1.9c-0.4,0-0.9,0.3-1.4,0.7v2.6
			c0.5,0.4,0.9,0.6,1.3,0.6C126.8,47.3,127.4,46.4,127.4,45.3z"/>
		<path d="M128.8,46.4c0-1,0.9-1.4,2.8-1.6c0-0.7-0.2-1.4-1-1.4c-0.6,0-1.1,0.3-1.4,0.5l-0.2-0.3c0.3-0.2,0.9-0.6,1.6-0.6
			c1,0,1.4,0.7,1.4,1.7v2.8h-0.3v-0.6l0,0c-0.4,0.4-1,0.7-1.5,0.7C129.4,47.6,128.8,47.2,128.8,46.4z M131.6,46.6v-1.5
			c-1.8,0.2-2.4,0.6-2.4,1.3c0,0.6,0.4,0.9,0.9,0.9S131.1,47,131.6,46.6z"/>
		<path d="M133,47l0.2-0.3c0.4,0.3,0.8,0.5,1.4,0.5c0.7,0,1-0.4,1-0.9s-0.6-0.8-1.1-1c-0.7-0.2-1.3-0.5-1.3-1.2
			c0-0.6,0.5-1.2,1.4-1.2c0.5,0,0.9,0.2,1.2,0.5l-0.2,0.3c-0.3-0.2-0.6-0.4-1-0.4c-0.7,0-1,0.4-1,0.8c0,0.5,0.5,0.7,1,0.9
			c0.7,0.3,1.4,0.5,1.4,1.3c0,0.6-0.5,1.2-1.5,1.2C134,47.6,133.4,47.3,133,47z"/>
		<path d="M137.3,46.3v-2.8h-0.7v-0.3h0.7l0.1-1.3h0.3v1.3h1.3v0.3h-1.3v2.8c0,0.5,0.1,0.9,0.7,0.9c0.2,0,0.4-0.1,0.5-0.1l0.1,0.3
			c-0.3,0.1-0.5,0.2-0.7,0.2C137.5,47.6,137.3,47.1,137.3,46.3z"/>
		<path d="M139.6,45.3c0-1.4,0.9-2.3,1.9-2.3s1.7,0.7,1.7,2c0,0.1,0,0.2,0,0.3h-3.1c0,1.1,0.7,1.9,1.6,1.9c0.5,0,0.8-0.2,1.2-0.4
			l0.2,0.3c-0.3,0.2-0.7,0.4-1.4,0.4C140.5,47.6,139.6,46.8,139.6,45.3z M142.8,45.1c0-1.1-0.5-1.7-1.3-1.7c-0.7,0-1.4,0.6-1.5,1.7
			H142.8z"/>
		<path d="M146.2,43.5h-0.6v-0.3h0.6v-1c0-0.9,0.4-1.3,1.1-1.3c0.2,0,0.4,0.1,0.6,0.1l-0.1,0.3c-0.2-0.1-0.4-0.1-0.5-0.1
			c-0.5,0-0.7,0.4-0.7,1v0.9h1v0.3h-1v4h-0.4L146.2,43.5L146.2,43.5z"/>
		<path d="M148.4,41.8c0-0.2,0.1-0.4,0.3-0.4s0.3,0.1,0.3,0.4c0,0.2-0.1,0.4-0.3,0.4S148.4,42,148.4,41.8z M148.5,43.2h0.4v4.3h-0.4
			V43.2z"/>
		<path d="M150.6,46.9V41h0.4v6c0,0.2,0.1,0.3,0.2,0.3c0,0,0.1,0,0.2,0l0.1,0.3c-0.1,0-0.2,0-0.3,0
			C150.8,47.6,150.6,47.4,150.6,46.9z"/>
		<path d="M152.7,46.9V41h0.4v6c0,0.2,0.1,0.3,0.2,0.3c0,0,0.1,0,0.2,0l0.1,0.3c-0.1,0-0.2,0-0.3,0
			C152.9,47.6,152.7,47.4,152.7,46.9z"/>
		<path d="M154.7,41.8c0-0.2,0.1-0.4,0.3-0.4s0.3,0.1,0.3,0.4c0,0.2-0.1,0.4-0.3,0.4S154.7,42,154.7,41.8z M154.8,43.2h0.4v4.3h-0.4
			V43.2z"/>
		<path d="M156.9,43.2h0.3v0.7l0,0c0.4-0.4,0.9-0.8,1.5-0.8c0.9,0,1.3,0.5,1.3,1.7v2.8h-0.4v-2.7c0-0.9-0.3-1.4-1-1.4
			c-0.5,0-0.9,0.3-1.4,0.8v3.3h-0.4L156.9,43.2L156.9,43.2z"/>
		<path d="M161.3,48.4c0-0.4,0.2-0.8,0.6-1l0,0c-0.2-0.1-0.4-0.4-0.4-0.7c0-0.4,0.3-0.7,0.5-0.8l0,0c-0.3-0.2-0.5-0.7-0.5-1.2
			c0-0.9,0.7-1.5,1.5-1.5c0.2,0,0.4,0.1,0.6,0.1h1.5v0.3h-1c0.3,0.2,0.5,0.6,0.5,1.1c0,0.9-0.7,1.5-1.5,1.5c-0.2,0-0.5-0.1-0.7-0.2
			c-0.2,0.2-0.4,0.3-0.4,0.6s0.2,0.6,0.8,0.6h0.9c1,0,1.4,0.3,1.4,1s-0.8,1.5-2,1.5C162,49.6,161.3,49.1,161.3,48.4z M164.7,48.2
			c0-0.5-0.4-0.7-1-0.7h-0.9c-0.1,0-0.3,0-0.5-0.1c-0.4,0.3-0.6,0.6-0.6,0.9c0,0.5,0.5,0.9,1.4,0.9
			C164.1,49.3,164.7,48.7,164.7,48.2z M164.2,44.6c0-0.7-0.5-1.2-1.1-1.2s-1.1,0.5-1.1,1.2s0.5,1.2,1.1,1.2
			C163.6,45.8,164.2,45.3,164.2,44.6z"/>
	</g>
	<g>
		<path d="M259.2,47l0.2-0.3c0.3,0.3,0.6,0.5,1,0.5c0.9,0,1.7-0.7,1.7-2.8c-0.4,0.5-0.9,0.8-1.5,0.8c-1,0-1.6-0.6-1.6-1.8
			c0-1,0.7-1.8,1.6-1.8c1.1,0,1.9,1,1.9,2.7c0,2.4-1,3.3-2.1,3.3C259.9,47.6,259.5,47.4,259.2,47z M260.8,44.9c0.4,0,1-0.3,1.4-0.9
			c-0.1-1.2-0.5-2-1.5-2c-0.7,0-1.2,0.6-1.2,1.4C259.5,44.3,259.9,44.9,260.8,44.9z"/>
		<path d="M263.5,44.6c0-1.9,0.6-3,1.7-3s1.7,1.1,1.7,3s-0.6,3-1.7,3S263.5,46.5,263.5,44.6z M266.5,44.6c0-1.8-0.5-2.6-1.3-2.6
			s-1.3,0.9-1.3,2.6c0,1.8,0.5,2.7,1.3,2.7S266.5,46.4,266.5,44.6z"/>
		<path d="M268,47.2c0-0.3,0.2-0.4,0.4-0.4s0.4,0.2,0.4,0.4c0,0.3-0.2,0.4-0.4,0.4S268,47.5,268,47.2z"/>
		<path d="M269.6,46.8l0.2-0.3c0.3,0.4,0.8,0.7,1.6,0.7c0.8,0,1.3-0.5,1.3-1.3s-0.6-1.3-2-1.3v-0.4c1.3,0,1.8-0.6,1.8-1.3
			c0-0.6-0.5-1.1-1.2-1.1c-0.5,0-1,0.3-1.3,0.6l-0.2-0.3c0.4-0.4,0.9-0.7,1.6-0.7c0.9,0,1.6,0.5,1.6,1.4c0,0.8-0.5,1.2-1.1,1.4l0,0
			c0.7,0.2,1.3,0.7,1.3,1.5c0,1-0.8,1.6-1.8,1.6C270.5,47.6,270,47.2,269.6,46.8z"/>
	</g>
	<g>
		<path d="M2.8,59.1l0.3-0.3c0.4,0.5,1.1,0.8,1.7,0.8c0.9,0,1.5-0.5,1.5-1.2s-0.5-1-1.1-1.2l-0.9-0.4c-0.5-0.2-1.1-0.6-1.1-1.5
			s0.7-1.5,1.7-1.5c0.7,0,1.3,0.3,1.6,0.7l-0.2,0.3c-0.4-0.4-0.8-0.6-1.4-0.6c-0.8,0-1.3,0.4-1.3,1.1c0,0.7,0.6,0.9,1,1.1l0.9,0.4
			c0.7,0.3,1.3,0.7,1.3,1.6S6,60,4.8,60C4,60,3.3,59.7,2.8,59.1z"/>
		<path d="M8,54h0.4v3.3l0,0l2.9-3.3h0.5l-1.9,2.2l2.2,3.7h-0.5l-2-3.4l-1.2,1.4v2H8V54z"/>
		<path d="M13,54h0.6l1.2,3.5c0.2,0.4,0.3,0.9,0.5,1.3l0,0c0.2-0.4,0.3-0.9,0.5-1.3L17,54h0.6v5.9h-0.4V56c0-0.5,0-1.1,0.1-1.6l0,0
			l-0.5,1.3l-1.3,3.5h-0.4l-1.3-3.5l-0.5-1.3l0,0c0,0.5,0.1,1.1,0.1,1.6v3.9H13V54z"/>
	</g>
	<g>
		<path d="M39.7,54h0.4v5.6h2.7V60h-3.2L39.7,54L39.7,54z"/>
		<path d="M43.5,57.8c0-1.5,0.9-2.3,1.9-2.3s1.9,0.8,1.9,2.3c0,1.4-0.9,2.3-1.9,2.3C44.4,60,43.5,59.2,43.5,57.8z M46.9,57.8
			c0-1.1-0.7-1.9-1.5-1.9c-0.9,0-1.5,0.8-1.5,1.9c0,1.1,0.6,1.9,1.5,1.9C46.3,59.7,46.9,58.9,46.9,57.8z"/>
		<path d="M48.6,55.6h0.3v0.7l0,0c0.4-0.4,0.9-0.8,1.5-0.8c0.9,0,1.3,0.5,1.3,1.7V60h-0.4v-2.7c0-0.9-0.3-1.4-1-1.4
			c-0.5,0-0.9,0.3-1.4,0.8V60h-0.4v-4.4H48.6z"/>
		<path d="M53.1,60.8c0-0.4,0.2-0.8,0.6-1l0,0c-0.2-0.1-0.4-0.4-0.4-0.7c0-0.4,0.3-0.7,0.5-0.8l0,0c-0.3-0.2-0.5-0.7-0.5-1.2
			c0-0.9,0.7-1.5,1.5-1.5c0.2,0,0.4,0.1,0.6,0.1h1.5V56h-1c0.3,0.2,0.5,0.6,0.5,1.1c0,0.9-0.7,1.5-1.5,1.5c-0.2,0-0.5-0.1-0.7-0.2
			c-0.2,0.2-0.4,0.3-0.4,0.6s0.2,0.6,0.8,0.6h0.9c1,0,1.4,0.3,1.4,1s-0.8,1.5-2,1.5C53.7,62,53.1,61.5,53.1,60.8z M56.5,60.6
			c0-0.5-0.4-0.7-1-0.7h-0.9c-0.1,0-0.3,0-0.5-0.1c-0.4,0.3-0.6,0.6-0.6,0.9c0,0.5,0.5,0.9,1.4,0.9C55.9,61.7,56.5,61.1,56.5,60.6z
			 M55.9,57c0-0.7-0.5-1.2-1.1-1.2s-1.1,0.5-1.1,1.2s0.5,1.2,1.1,1.2S55.9,57.7,55.9,57z"/>
		<path d="M59.6,53.4H60v2.8c0.5-0.5,0.9-0.8,1.5-0.8c0.9,0,1.3,0.5,1.3,1.7v2.8h-0.4v-2.7c0-0.9-0.3-1.4-1-1.4
			c-0.5,0-0.9,0.3-1.4,0.8v3.3h-0.4C59.6,59.9,59.6,53.4,59.6,53.4z"/>
		<path d="M64,57.8c0-1.5,0.9-2.3,1.9-2.3s1.9,0.8,1.9,2.3c0,1.4-0.9,2.3-1.9,2.3C64.9,60,64,59.2,64,57.8z M67.5,57.8
			c0-1.1-0.7-1.9-1.5-1.9c-0.9,0-1.5,0.8-1.5,1.9c0,1.1,0.6,1.9,1.5,1.9C66.8,59.7,67.5,58.9,67.5,57.8z"/>
		<path d="M69.2,59.3v-5.9h0.4v6c0,0.2,0.1,0.3,0.2,0.3c0,0,0.1,0,0.2,0l0.1,0.3c-0.1,0-0.2,0-0.3,0C69.4,60,69.2,59.8,69.2,59.3z"
			/>
		<path d="M70.9,57.8c0-1.4,0.9-2.3,1.9-2.3s1.7,0.7,1.7,2c0,0.1,0,0.2,0,0.3h-3.1c0,1.1,0.7,1.9,1.6,1.9c0.5,0,0.8-0.2,1.2-0.4
			l0.2,0.3C74.1,59.8,73.7,60,73,60C71.8,60,70.9,59.2,70.9,57.8z M74.1,57.5c0-1.1-0.5-1.7-1.3-1.7c-0.7,0-1.4,0.6-1.5,1.7H74.1z"
			/>
		<path d="M76.9,59.4l0.2-0.3c0.4,0.3,0.8,0.5,1.4,0.5c0.7,0,1-0.4,1-0.9s-0.6-0.8-1.1-1c-0.7-0.2-1.3-0.5-1.3-1.2
			c0-0.6,0.5-1.2,1.4-1.2c0.5,0,0.9,0.2,1.2,0.5l-0.2,0.3c-0.3-0.2-0.6-0.4-1-0.4c-0.7,0-1,0.4-1,0.8c0,0.5,0.5,0.7,1,0.9
			c0.7,0.3,1.4,0.5,1.4,1.3c0,0.6-0.5,1.2-1.5,1.2C77.9,60,77.3,59.8,76.9,59.4z"/>
		<path d="M81.2,58.7v-2.8h-0.7v-0.3h0.7l0.1-1.3h0.3v1.3h1.3v0.3h-1.3v2.8c0,0.5,0.1,0.9,0.7,0.9c0.2,0,0.4-0.1,0.5-0.1l0.1,0.3
			C82.7,60,82.5,60,82.3,60C81.4,60,81.2,59.5,81.2,58.7z"/>
		<path d="M83.5,57.8c0-1.5,0.9-2.3,1.9-2.3s1.9,0.8,1.9,2.3c0,1.4-0.9,2.3-1.9,2.3C84.4,60,83.5,59.2,83.5,57.8z M87,57.8
			c0-1.1-0.7-1.9-1.5-1.9c-0.9,0-1.5,0.8-1.5,1.9c0,1.1,0.6,1.9,1.5,1.9S87,58.9,87,57.8z"/>
		<path d="M88.7,55.6H89v0.5l0,0c0.4-0.3,0.9-0.6,1.5-0.6c1.2,0,1.7,0.9,1.7,2.2c0,1.5-0.9,2.3-1.9,2.3c-0.4,0-0.8-0.2-1.3-0.5v2.4
			h-0.4v-6.3C88.6,55.6,88.7,55.6,88.7,55.6z M91.9,57.7c0-1.1-0.4-1.9-1.4-1.9c-0.4,0-0.9,0.3-1.4,0.7v2.6c0.5,0.4,0.9,0.6,1.3,0.6
			C91.3,59.7,91.9,58.9,91.9,57.7z"/>
		<path d="M93.5,54.2c0-0.2,0.1-0.4,0.3-0.4s0.3,0.1,0.3,0.4c0,0.2-0.1,0.4-0.3,0.4S93.5,54.4,93.5,54.2z M93.6,55.6H94v4.3h-0.4
			V55.6z"/>
		<path d="M95.7,55.6H96v0.7l0,0c0.4-0.4,0.9-0.8,1.5-0.8c0.9,0,1.3,0.5,1.3,1.7V60h-0.4v-2.7c0-0.9-0.3-1.4-1-1.4
			c-0.5,0-0.9,0.3-1.4,0.8V60h-0.4L95.7,55.6L95.7,55.6z"/>
		<path d="M100.1,60.8c0-0.4,0.2-0.8,0.6-1l0,0c-0.2-0.1-0.4-0.4-0.4-0.7c0-0.4,0.3-0.7,0.5-0.8l0,0c-0.3-0.2-0.5-0.7-0.5-1.2
			c0-0.9,0.7-1.5,1.5-1.5c0.2,0,0.4,0.1,0.6,0.1h1.5V56h-1c0.3,0.2,0.5,0.6,0.5,1.1c0,0.9-0.7,1.5-1.5,1.5c-0.2,0-0.5-0.1-0.7-0.2
			c-0.2,0.2-0.4,0.3-0.4,0.6s0.2,0.6,0.8,0.6h0.9c1,0,1.4,0.3,1.4,1s-0.8,1.5-2,1.5C100.8,62,100.1,61.5,100.1,60.8z M103.5,60.6
			c0-0.5-0.4-0.7-1-0.7h-0.9c-0.1,0-0.3,0-0.5-0.1c-0.4,0.3-0.6,0.6-0.6,0.9c0,0.5,0.5,0.9,1.4,0.9
			C102.9,61.7,103.5,61.1,103.5,60.6z M102.9,57c0-0.7-0.5-1.2-1.1-1.2s-1.1,0.5-1.1,1.2s0.5,1.2,1.1,1.2S102.9,57.7,102.9,57z"/>
		<path d="M106,55.6h0.4l0.8,2.8c0.1,0.4,0.2,0.8,0.3,1.2l0,0c0.1-0.4,0.2-0.8,0.3-1.2l0.8-2.8h0.5l0.8,2.8c0.1,0.4,0.2,0.8,0.3,1.2
			l0,0c0.1-0.4,0.2-0.8,0.3-1.2l0.8-2.8h0.4l-1.2,4.3H110l-0.8-2.7c-0.1-0.4-0.2-0.8-0.3-1.2l0,0c-0.1,0.4-0.2,0.8-0.3,1.3l-0.7,2.7
			h-0.5L106,55.6z"/>
		<path d="M112.7,54.2c0-0.2,0.1-0.4,0.3-0.4s0.3,0.1,0.3,0.4c0,0.2-0.1,0.4-0.3,0.4S112.7,54.4,112.7,54.2z M112.8,55.6h0.4v4.3
			h-0.4V55.6z"/>
		<path d="M115,58.7v-2.8h-0.7v-0.3h0.7l0.1-1.3h0.3v1.3h1.3v0.3h-1.3v2.8c0,0.5,0.1,0.9,0.7,0.9c0.2,0,0.4-0.1,0.5-0.1l0.1,0.3
			c-0.3,0.1-0.5,0.2-0.7,0.2C115.2,60,115,59.5,115,58.7z"/>
		<path d="M117.7,53.4h0.4v2.8c0.5-0.5,0.9-0.8,1.5-0.8c0.9,0,1.3,0.5,1.3,1.7v2.8h-0.4v-2.7c0-0.9-0.3-1.4-1-1.4
			c-0.5,0-0.9,0.3-1.4,0.8v3.3h-0.4V53.4z"/>
		<path d="M124.2,55.6h0.3v0.5l0,0c0.4-0.3,0.9-0.6,1.5-0.6c1.2,0,1.7,0.9,1.7,2.2c0,1.5-0.9,2.3-1.9,2.3c-0.4,0-0.8-0.2-1.3-0.5
			v2.4h-0.3C124.2,61.9,124.2,55.6,124.2,55.6z M127.4,57.7c0-1.1-0.4-1.9-1.4-1.9c-0.4,0-0.9,0.3-1.4,0.7v2.6
			c0.5,0.4,0.9,0.6,1.3,0.6C126.8,59.7,127.4,58.9,127.4,57.7z"/>
		<path d="M128.8,58.8c0-1,0.9-1.4,2.8-1.6c0-0.7-0.2-1.4-1-1.4c-0.6,0-1.1,0.3-1.4,0.5L129,56c0.3-0.2,0.9-0.6,1.6-0.6
			c1,0,1.4,0.7,1.4,1.7v2.8h-0.3v-0.6l0,0c-0.4,0.4-1,0.7-1.5,0.7C129.4,60,128.8,59.7,128.8,58.8z M131.6,59v-1.5
			c-1.8,0.2-2.4,0.6-2.4,1.3c0,0.6,0.4,0.9,0.9,0.9S131.1,59.4,131.6,59z"/>
		<path d="M133,59.4l0.2-0.3c0.4,0.3,0.8,0.5,1.4,0.5c0.7,0,1-0.4,1-0.9s-0.6-0.8-1.1-1c-0.7-0.2-1.3-0.5-1.3-1.2
			c0-0.6,0.5-1.2,1.4-1.2c0.5,0,0.9,0.2,1.2,0.5l-0.2,0.3c-0.3-0.2-0.6-0.4-1-0.4c-0.7,0-1,0.4-1,0.8c0,0.5,0.5,0.7,1,0.9
			c0.7,0.3,1.4,0.5,1.4,1.3c0,0.6-0.5,1.2-1.5,1.2C134,60,133.4,59.8,133,59.4z"/>
		<path d="M137.3,58.7v-2.8h-0.7v-0.3h0.7l0.1-1.3h0.3v1.3h1.3v0.3h-1.3v2.8c0,0.5,0.1,0.9,0.7,0.9c0.2,0,0.4-0.1,0.5-0.1l0.1,0.3
			c-0.3,0.1-0.5,0.2-0.7,0.2C137.5,60,137.3,59.5,137.3,58.7z"/>
		<path d="M139.6,57.8c0-1.4,0.9-2.3,1.9-2.3s1.7,0.7,1.7,2c0,0.1,0,0.2,0,0.3h-3.1c0,1.1,0.7,1.9,1.6,1.9c0.5,0,0.8-0.2,1.2-0.4
			l0.2,0.3c-0.3,0.2-0.7,0.4-1.4,0.4C140.5,60,139.6,59.2,139.6,57.8z M142.8,57.5c0-1.1-0.5-1.7-1.3-1.7c-0.7,0-1.4,0.6-1.5,1.7
			H142.8z"/>
		<path d="M146.2,55.9h-0.6v-0.3h0.6v-1c0-0.9,0.4-1.3,1.1-1.3c0.2,0,0.4,0.1,0.6,0.1l-0.1,0.3c-0.2-0.1-0.4-0.1-0.5-0.1
			c-0.5,0-0.7,0.4-0.7,1v0.9h1v0.3h-1v4h-0.4L146.2,55.9L146.2,55.9z"/>
		<path d="M148.4,54.2c0-0.2,0.1-0.4,0.3-0.4s0.3,0.1,0.3,0.4c0,0.2-0.1,0.4-0.3,0.4S148.4,54.4,148.4,54.2z M148.5,55.6h0.4v4.3
			h-0.4V55.6z"/>
		<path d="M150.6,59.3v-5.9h0.4v6c0,0.2,0.1,0.3,0.2,0.3c0,0,0.1,0,0.2,0l0.1,0.3c-0.1,0-0.2,0-0.3,0
			C150.8,60,150.6,59.8,150.6,59.3z"/>
		<path d="M152.7,59.3v-5.9h0.4v6c0,0.2,0.1,0.3,0.2,0.3c0,0,0.1,0,0.2,0l0.1,0.3c-0.1,0-0.2,0-0.3,0
			C152.9,60,152.7,59.8,152.7,59.3z"/>
		<path d="M154.7,54.2c0-0.2,0.1-0.4,0.3-0.4s0.3,0.1,0.3,0.4c0,0.2-0.1,0.4-0.3,0.4S154.7,54.4,154.7,54.2z M154.8,55.6h0.4v4.3
			h-0.4V55.6z"/>
		<path d="M156.9,55.6h0.3v0.7l0,0c0.4-0.4,0.9-0.8,1.5-0.8c0.9,0,1.3,0.5,1.3,1.7V60h-0.4v-2.7c0-0.9-0.3-1.4-1-1.4
			c-0.5,0-0.9,0.3-1.4,0.8V60h-0.4L156.9,55.6L156.9,55.6z"/>
		<path d="M161.3,60.8c0-0.4,0.2-0.8,0.6-1l0,0c-0.2-0.1-0.4-0.4-0.4-0.7c0-0.4,0.3-0.7,0.5-0.8l0,0c-0.3-0.2-0.5-0.7-0.5-1.2
			c0-0.9,0.7-1.5,1.5-1.5c0.2,0,0.4,0.1,0.6,0.1h1.5V56h-1c0.3,0.2,0.5,0.6,0.5,1.1c0,0.9-0.7,1.5-1.5,1.5c-0.2,0-0.5-0.1-0.7-0.2
			c-0.2,0.2-0.4,0.3-0.4,0.6s0.2,0.6,0.8,0.6h0.9c1,0,1.4,0.3,1.4,1s-0.8,1.5-2,1.5C162,62,161.3,61.5,161.3,60.8z M164.7,60.6
			c0-0.5-0.4-0.7-1-0.7h-0.9c-0.1,0-0.3,0-0.5-0.1c-0.4,0.3-0.6,0.6-0.6,0.9c0,0.5,0.5,0.9,1.4,0.9
			C164.1,61.7,164.7,61.1,164.7,60.6z M164.2,57c0-0.7-0.5-1.2-1.1-1.2S162,56.3,162,57s0.5,1.2,1.1,1.2
			C163.6,58.2,164.2,57.7,164.2,57z"/>
	</g>
	<g>
		<path d="M255.2,59.6h1.4v-4.8h-1v-0.3c0.5-0.1,0.8-0.2,1.1-0.4h0.3v5.4h1.3v0.4h-3L255.2,59.6L255.2,59.6z"/>
		<path d="M259.5,59.6h1.4v-4.8h-1v-0.3c0.5-0.1,0.8-0.2,1.1-0.4h0.3v5.4h1.3v0.4h-3L259.5,59.6L259.5,59.6z"/>
		<path d="M263.3,59.2l0.2-0.3c0.3,0.4,0.8,0.7,1.6,0.7c0.8,0,1.3-0.5,1.3-1.3s-0.6-1.3-2-1.3v-0.4c1.3,0,1.8-0.6,1.8-1.3
			c0-0.6-0.5-1.1-1.2-1.1c-0.5,0-1,0.3-1.3,0.6l-0.2-0.3c0.4-0.4,0.9-0.7,1.6-0.7c0.9,0,1.6,0.5,1.6,1.4c0,0.8-0.5,1.2-1.1,1.4l0,0
			c0.7,0.2,1.3,0.7,1.3,1.5c0,1-0.8,1.6-1.8,1.6C264.2,60,263.7,59.6,263.3,59.2z"/>
		<path d="M268,59.6c0-0.3,0.2-0.4,0.4-0.4s0.4,0.2,0.4,0.4c0,0.3-0.2,0.4-0.4,0.4S268,59.9,268,59.6z"/>
		<path d="M269.8,57.3c0-2.4,1-3.3,2.1-3.3c0.5,0,0.9,0.2,1.2,0.6l-0.2,0.3c-0.3-0.3-0.6-0.5-1-0.5c-0.9,0-1.7,0.7-1.7,2.8
			c0.4-0.5,0.9-0.8,1.4-0.8c1,0,1.6,0.6,1.6,1.8c0,1-0.7,1.8-1.6,1.8C270.5,60,269.8,59.1,269.8,57.3z M270.2,57.6
			c0.1,1.2,0.5,2,1.5,2c0.7,0,1.2-0.6,1.2-1.5s-0.4-1.4-1.2-1.4C271.2,56.8,270.7,57,270.2,57.6z"/>
	</g>
	<g>
		<path d="M3.3,66.4H5c1.2,0,1.9,0.4,1.9,1.6c0,0.9-0.6,1.5-1.5,1.6L7,72.4H6.5l-1.6-2.7H3.7v2.7H3.3V66.4z M4.9,69.3
			c1,0,1.6-0.4,1.6-1.3s-0.6-1.2-1.6-1.2H3.7v2.5H4.9z"/>
		<path d="M8.2,66.4h1.4c1.8,0,2.7,1.2,2.7,2.9c0,1.8-0.9,3-2.7,3H8.2V66.4z M9.5,72c1.6,0,2.3-1.1,2.3-2.6s-0.7-2.6-2.3-2.6H8.6V72
			H9.5z"/>
		<path d="M13.6,66.4h0.6l1.2,3.5c0.2,0.4,0.3,0.9,0.5,1.3l0,0c0.2-0.4,0.3-0.9,0.5-1.3l1.2-3.5h0.6v5.9h-0.4v-3.9
			c0-0.5,0-1.1,0.1-1.6l0,0l-0.5,1.3l-1.3,3.5h-0.4l-1.3-3.5l-0.5-1.3l0,0c0,0.5,0.1,1.1,0.1,1.6v3.9h-0.4
			C13.6,72.3,13.6,66.4,13.6,66.4z"/>
	</g>
	<g>
		<path d="M39.7,66.4h1.6c1.2,0,2,0.5,2,1.4c0,0.6-0.3,1.1-0.9,1.3l0,0c0.8,0.1,1.3,0.6,1.3,1.4c0,1.1-0.9,1.7-2.2,1.7h-1.7
			L39.7,66.4L39.7,66.4z M41.1,69c1.2,0,1.7-0.4,1.7-1.1c0-0.8-0.6-1.1-1.7-1.1H40V69H41.1z M41.3,72c1.2,0,1.9-0.4,1.9-1.4
			c0-0.9-0.7-1.3-1.9-1.3h-1.2V72H41.3z"/>
		<path d="M44.8,71.8v-5.9h0.4v6c0,0.2,0.1,0.3,0.2,0.3c0,0,0.1,0,0.2,0l0.1,0.3c-0.1,0-0.2,0-0.3,0C45,72.4,44.8,72.2,44.8,71.8z"
			/>
		<path d="M46.6,71.3c0-1,0.9-1.4,2.8-1.6c0-0.7-0.2-1.4-1-1.4c-0.6,0-1.1,0.3-1.4,0.5l-0.2-0.3c0.3-0.2,0.9-0.6,1.6-0.6
			c1,0,1.4,0.7,1.4,1.7v2.8h-0.3v-0.6l0,0c-0.4,0.4-1,0.7-1.5,0.7C47.2,72.4,46.6,72.1,46.6,71.3z M49.4,71.4v-1.5
			c-1.8,0.2-2.4,0.6-2.4,1.3c0,0.6,0.4,0.9,0.9,0.9S48.9,71.9,49.4,71.4z"/>
		<path d="M50.8,71.8l0.2-0.3c0.4,0.3,0.8,0.5,1.4,0.5c0.7,0,1-0.4,1-0.9s-0.6-0.8-1.1-1c-0.7-0.2-1.3-0.5-1.3-1.2
			c0-0.6,0.5-1.2,1.4-1.2c0.5,0,0.9,0.2,1.2,0.5l-0.2,0.3c-0.3-0.2-0.6-0.4-1-0.4c-0.7,0-1,0.4-1,0.8c0,0.5,0.5,0.7,1,0.9
			c0.7,0.3,1.4,0.5,1.4,1.3c0,0.6-0.5,1.2-1.5,1.2C51.8,72.4,51.2,72.2,50.8,71.8z"/>
		<path d="M55.1,71.1v-2.8h-0.7V68h0.7l0.1-1.3h0.3V68h1.3v0.3h-1.3v2.8c0,0.5,0.1,0.9,0.7,0.9c0.2,0,0.4-0.1,0.5-0.1l0.1,0.3
			c-0.3,0.1-0.5,0.2-0.7,0.2C55.4,72.4,55.1,71.9,55.1,71.1z"/>
		<path d="M59.6,65.9H60v2.8c0.5-0.5,0.9-0.8,1.5-0.8c0.9,0,1.3,0.5,1.3,1.7v2.8h-0.4v-2.7c0-0.9-0.3-1.4-1-1.4
			c-0.5,0-0.9,0.3-1.4,0.8v3.3h-0.4C59.6,72.4,59.6,65.9,59.6,65.9z"/>
		<path d="M64,70.2c0-1.5,0.9-2.3,1.9-2.3s1.9,0.8,1.9,2.3c0,1.4-0.9,2.3-1.9,2.3C64.9,72.4,64,71.6,64,70.2z M67.5,70.2
			c0-1.1-0.7-1.9-1.5-1.9c-0.9,0-1.5,0.8-1.5,1.9s0.6,1.9,1.5,1.9C66.8,72.1,67.5,71.3,67.5,70.2z"/>
		<path d="M69.2,71.8v-5.9h0.4v6c0,0.2,0.1,0.3,0.2,0.3c0,0,0.1,0,0.2,0l0.1,0.3c-0.1,0-0.2,0-0.3,0C69.4,72.4,69.2,72.2,69.2,71.8z
			"/>
		<path d="M71,70.2c0-1.4,0.9-2.3,1.9-2.3s1.7,0.7,1.7,2c0,0.1,0,0.2,0,0.3h-3.1c0,1.1,0.7,1.9,1.6,1.9c0.5,0,0.8-0.2,1.2-0.4
			l0.2,0.3c-0.3,0.2-0.7,0.4-1.4,0.4C71.9,72.4,71,71.6,71,70.2z M74.1,69.9c0-1.1-0.5-1.7-1.3-1.7c-0.7,0-1.4,0.6-1.5,1.7H74.1z"/>
		<path d="M76.9,71.8l0.2-0.3c0.4,0.3,0.8,0.5,1.4,0.5c0.7,0,1-0.4,1-0.9s-0.6-0.8-1.1-1c-0.7-0.2-1.3-0.5-1.3-1.2
			c0-0.6,0.5-1.2,1.4-1.2c0.5,0,0.9,0.2,1.2,0.5l-0.2,0.3c-0.3-0.2-0.6-0.4-1-0.4c-0.7,0-1,0.4-1,0.8c0,0.5,0.5,0.7,1,0.9
			c0.7,0.3,1.4,0.5,1.4,1.3c0,0.6-0.5,1.2-1.5,1.2C77.9,72.4,77.3,72.2,76.9,71.8z"/>
		<path d="M81.2,71.1v-2.8h-0.7V68h0.7l0.1-1.3h0.3V68h1.3v0.3h-1.3v2.8c0,0.5,0.1,0.9,0.7,0.9c0.2,0,0.4-0.1,0.5-0.1l0.1,0.3
			c-0.3,0.1-0.5,0.2-0.7,0.2C81.5,72.4,81.2,71.9,81.2,71.1z"/>
		<path d="M83.6,70.2c0-1.5,0.9-2.3,1.9-2.3s1.9,0.8,1.9,2.3c0,1.4-0.9,2.3-1.9,2.3C84.5,72.4,83.6,71.6,83.6,70.2z M87,70.2
			c0-1.1-0.7-1.9-1.5-1.9c-0.9,0-1.5,0.8-1.5,1.9s0.6,1.9,1.5,1.9S87,71.3,87,70.2z"/>
		<path d="M88.7,68H89v0.5l0,0c0.4-0.3,0.9-0.6,1.5-0.6c1.2,0,1.7,0.9,1.7,2.2c0,1.5-0.9,2.3-1.9,2.3c-0.4,0-0.8-0.2-1.3-0.5v2.4
			h-0.4V68H88.7z M91.9,70.1c0-1.1-0.4-1.9-1.4-1.9c-0.4,0-0.9,0.3-1.4,0.7v2.6c0.5,0.4,0.9,0.6,1.3,0.6
			C91.3,72.1,91.9,71.3,91.9,70.1z"/>
		<path d="M93.5,66.6c0-0.2,0.1-0.4,0.3-0.4s0.3,0.1,0.3,0.4c0,0.2-0.1,0.4-0.3,0.4S93.5,66.8,93.5,66.6z M93.6,68H94v4.3h-0.4V68z"
			/>
		<path d="M95.7,68H96v0.7l0,0c0.4-0.4,0.9-0.8,1.5-0.8c0.9,0,1.3,0.5,1.3,1.7v2.8h-0.4v-2.7c0-0.9-0.3-1.4-1-1.4
			c-0.5,0-0.9,0.3-1.4,0.8v3.3h-0.4L95.7,68L95.7,68z"/>
		<path d="M100.1,73.2c0-0.4,0.2-0.8,0.6-1l0,0c-0.2-0.1-0.4-0.4-0.4-0.7c0-0.4,0.3-0.7,0.5-0.8l0,0c-0.3-0.2-0.5-0.7-0.5-1.2
			c0-0.9,0.7-1.5,1.5-1.5c0.2,0,0.4,0.1,0.6,0.1h1.5v0.3h-1c0.3,0.2,0.5,0.6,0.5,1.1c0,0.9-0.7,1.5-1.5,1.5c-0.2,0-0.5-0.1-0.7-0.2
			c-0.2,0.2-0.4,0.3-0.4,0.6c0,0.3,0.2,0.6,0.8,0.6h0.9c1,0,1.4,0.3,1.4,1s-0.8,1.5-2,1.5C100.8,74.4,100.1,73.9,100.1,73.2z
			 M103.5,73c0-0.5-0.4-0.7-1-0.7h-0.9c-0.1,0-0.3,0-0.5-0.1c-0.4,0.3-0.6,0.6-0.6,0.9c0,0.5,0.5,0.9,1.4,0.9
			C102.9,74.1,103.5,73.5,103.5,73z M103,69.4c0-0.7-0.5-1.2-1.1-1.2s-1.1,0.5-1.1,1.2s0.5,1.2,1.1,1.2
			C102.4,70.6,103,70.2,103,69.4z"/>
		<path d="M106.1,68h0.4l0.8,2.8c0.1,0.4,0.2,0.8,0.3,1.2l0,0c0.1-0.4,0.2-0.8,0.3-1.2l0.8-2.8h0.5l0.8,2.8c0.1,0.4,0.2,0.8,0.3,1.2
			l0,0c0.1-0.4,0.2-0.8,0.3-1.2l0.8-2.8h0.4l-1.2,4.3h-0.5l-0.8-2.7c-0.1-0.4-0.2-0.8-0.3-1.2l0,0c-0.1,0.4-0.2,0.8-0.3,1.3
			l-0.7,2.7h-0.5L106.1,68z"/>
		<path d="M112.7,66.6c0-0.2,0.1-0.4,0.3-0.4s0.3,0.1,0.3,0.4c0,0.2-0.1,0.4-0.3,0.4S112.7,66.8,112.7,66.6z M112.8,68h0.4v4.3h-0.4
			V68z"/>
		<path d="M115,71.1v-2.8h-0.7V68h0.7l0.1-1.3h0.3V68h1.3v0.3h-1.3v2.8c0,0.5,0.1,0.9,0.7,0.9c0.2,0,0.4-0.1,0.5-0.1l0.1,0.3
			c-0.3,0.1-0.5,0.2-0.7,0.2C115.2,72.4,115,71.9,115,71.1z"/>
		<path d="M117.7,65.9h0.4v2.8c0.5-0.5,0.9-0.8,1.5-0.8c0.9,0,1.3,0.5,1.3,1.7v2.8h-0.4v-2.7c0-0.9-0.3-1.4-1-1.4
			c-0.5,0-0.9,0.3-1.4,0.8v3.3h-0.4V65.9z"/>
		<path d="M124.3,65.9h0.4v2.8c0.5-0.5,0.9-0.8,1.5-0.8c0.9,0,1.3,0.5,1.3,1.7v2.8h-0.4v-2.7c0-0.9-0.3-1.4-1-1.4
			c-0.5,0-0.9,0.3-1.4,0.8v3.3h-0.4V65.9L124.3,65.9z"/>
		<path d="M128.4,74.2l0.1-0.4c0.1,0,0.2,0.1,0.4,0.1c0.5,0,0.9-0.5,1.1-1.1l0.1-0.4l-1.8-4.4h0.4l1,2.7c0.1,0.4,0.3,0.8,0.5,1.2
			l0,0c0.1-0.4,0.3-0.8,0.4-1.2l0.9-2.7h0.4l-1.7,4.9c-0.2,0.7-0.7,1.4-1.4,1.4C128.7,74.3,128.5,74.3,128.4,74.2z"/>
		<path d="M132.6,70.2c0-1.4,0.9-2.3,1.9-2.3c0.5,0,0.9,0.2,1.3,0.5v-0.8v-1.8h0.4v6.5h-0.3v-0.6l0,0c-0.4,0.4-0.8,0.7-1.4,0.7
			C133.3,72.4,132.6,71.6,132.6,70.2z M135.8,71.4v-2.6c-0.5-0.4-0.8-0.6-1.3-0.6c-0.9,0-1.5,0.8-1.5,1.9s0.5,1.9,1.4,1.9
			C134.9,72.1,135.3,71.8,135.8,71.4z"/>
		<path d="M137.8,68h0.3v0.8l0,0c0.3-0.5,0.7-0.9,1.2-0.9c0.2,0,0.3,0,0.4,0.1l-0.1,0.4c-0.1-0.1-0.2-0.1-0.4-0.1
			c-0.4,0-0.8,0.3-1.2,1.1v2.9h-0.4V68H137.8z"/>
		<path d="M140.4,71.3c0-1,0.9-1.4,2.8-1.6c0-0.7-0.2-1.4-1-1.4c-0.6,0-1.1,0.3-1.4,0.5l-0.2-0.3c0.3-0.2,0.9-0.6,1.6-0.6
			c1,0,1.4,0.7,1.4,1.7v2.8h-0.4v-0.6l0,0c-0.4,0.4-1,0.7-1.5,0.7C140.9,72.4,140.4,72.1,140.4,71.3z M143.2,71.4v-1.5
			c-1.8,0.2-2.4,0.6-2.4,1.3c0,0.6,0.4,0.9,0.9,0.9S142.6,71.9,143.2,71.4z"/>
		<path d="M145,70.8V68h0.4v2.7c0,0.9,0.3,1.4,1,1.4c0.5,0,0.9-0.3,1.4-0.9V68h0.4v4.3h-0.3v-0.7l0,0c-0.4,0.5-0.9,0.8-1.5,0.8
			C145.4,72.4,145,71.9,145,70.8z"/>
		<path d="M149.9,71.8v-5.9h0.4v6c0,0.2,0.1,0.3,0.2,0.3c0,0,0.1,0,0.2,0l0.1,0.3c-0.1,0-0.2,0-0.3,0
			C150,72.4,149.9,72.2,149.9,71.8z"/>
		<path d="M151.9,66.6c0-0.2,0.1-0.4,0.3-0.4s0.3,0.1,0.3,0.4c0,0.2-0.1,0.4-0.3,0.4S151.9,66.8,151.9,66.6z M152,68h0.4v4.3H152V68
			z"/>
		<path d="M153.7,70.2c0-1.5,0.9-2.3,2-2.3c0.6,0,1,0.3,1.3,0.5l-0.2,0.3c-0.3-0.3-0.6-0.5-1-0.5c-0.9,0-1.6,0.8-1.6,1.9
			s0.6,1.9,1.6,1.9c0.5,0,0.9-0.2,1.2-0.5l0.2,0.3c-0.4,0.3-0.8,0.6-1.4,0.6C154.5,72.4,153.7,71.6,153.7,70.2z"/>
		<path d="M160,68.4h-0.6V68h0.6v-1c0-0.9,0.4-1.3,1.1-1.3c0.2,0,0.4,0.1,0.6,0.1l-0.1,0.3c-0.2-0.1-0.4-0.1-0.5-0.1
			c-0.5,0-0.7,0.4-0.7,1v1h1v0.3h-1v4H160V68.4L160,68.4z"/>
		<path d="M162.1,66.6c0-0.2,0.1-0.4,0.3-0.4s0.3,0.1,0.3,0.4c0,0.2-0.1,0.4-0.3,0.4S162.1,66.8,162.1,66.6z M162.3,68h0.4v4.3h-0.4
			V68z"/>
		<path d="M164.3,71.8v-5.9h0.4v6c0,0.2,0.1,0.3,0.2,0.3c0,0,0.1,0,0.2,0l0.1,0.3c-0.1,0-0.2,0-0.3,0
			C164.5,72.4,164.3,72.2,164.3,71.8z"/>
		<path d="M166.5,71.8v-5.9h0.4v6c0,0.2,0.1,0.3,0.2,0.3c0,0,0.1,0,0.2,0l0.1,0.3c-0.1,0-0.2,0-0.3,0
			C166.6,72.4,166.5,72.2,166.5,71.8z"/>
		<path d="M168.5,66.6c0-0.2,0.1-0.4,0.3-0.4s0.3,0.1,0.3,0.4c0,0.2-0.1,0.4-0.3,0.4S168.5,66.8,168.5,66.6z M168.6,68h0.4v4.3h-0.4
			V68z"/>
		<path d="M170.6,68h0.3v0.7l0,0c0.4-0.4,0.9-0.8,1.5-0.8c0.9,0,1.3,0.5,1.3,1.7v2.8h-0.4v-2.7c0-0.9-0.3-1.4-1-1.4
			c-0.5,0-0.9,0.3-1.4,0.8v3.3h-0.4L170.6,68L170.6,68z"/>
		<path d="M175.1,73.2c0-0.4,0.2-0.8,0.6-1l0,0c-0.2-0.1-0.4-0.4-0.4-0.7c0-0.4,0.3-0.7,0.5-0.8l0,0c-0.3-0.2-0.5-0.7-0.5-1.2
			c0-0.9,0.7-1.5,1.5-1.5c0.2,0,0.4,0.1,0.6,0.1h1.5v0.3h-1c0.3,0.2,0.5,0.6,0.5,1.1c0,0.9-0.7,1.5-1.5,1.5c-0.2,0-0.5-0.1-0.7-0.2
			c-0.2,0.2-0.4,0.3-0.4,0.6c0,0.3,0.2,0.6,0.8,0.6h0.9c1,0,1.4,0.3,1.4,1s-0.8,1.5-2,1.5C175.8,74.4,175.1,73.9,175.1,73.2z
			 M178.5,73c0-0.5-0.4-0.7-1-0.7h-0.9c-0.1,0-0.3,0-0.5-0.1c-0.4,0.3-0.6,0.6-0.6,0.9c0,0.5,0.5,0.9,1.4,0.9
			C177.9,74.1,178.5,73.5,178.5,73z M177.9,69.4c0-0.7-0.5-1.2-1.1-1.2s-1.1,0.5-1.1,1.2s0.5,1.2,1.1,1.2S177.9,70.2,177.9,69.4z"/>
	</g>
	<g>
		<path d="M259,71.7l0.2-0.3c0.3,0.4,0.8,0.7,1.6,0.7c0.8,0,1.4-0.6,1.4-1.5s-0.5-1.5-1.4-1.5c-0.4,0-0.7,0.2-1.1,0.4l-0.3-0.2
			l0.2-2.7h2.7V67H260l-0.2,2.1c0.3-0.2,0.6-0.3,1-0.3c1,0,1.8,0.6,1.8,1.8c0,1.2-0.9,1.9-1.8,1.9C259.9,72.4,259.3,72,259,71.7z"/>
		<path d="M266.5,66.9h-3v-0.4h3.5v0.2c-1.4,1.8-1.7,3.3-1.8,5.5h-0.4C264.8,70,265.3,68.6,266.5,66.9z"/>
		<path d="M268,72c0-0.3,0.2-0.4,0.4-0.4s0.4,0.2,0.4,0.4c0,0.3-0.2,0.4-0.4,0.4S268,72.3,268,72z"/>
		<path d="M269.8,71.9l0.2-0.3c0.3,0.3,0.6,0.5,1,0.5c0.9,0,1.7-0.7,1.7-2.8c-0.4,0.5-0.9,0.8-1.5,0.8c-1,0-1.6-0.6-1.6-1.8
			c0-1,0.7-1.8,1.6-1.8c1.1,0,1.9,1,1.9,2.7c0,2.4-1,3.3-2.1,3.3C270.5,72.4,270.1,72.2,269.8,71.9z M271.4,69.7
			c0.4,0,1-0.3,1.4-0.9c-0.1-1.2-0.5-2-1.5-2c-0.7,0-1.2,0.6-1.2,1.4C270.1,69.1,270.5,69.7,271.4,69.7z"/>
	</g>
	<g>
		<path d="M2.9,84.5l3.4-5.3H3.2v-0.4h3.6V79l-3.4,5.3h3.4v0.4h-4L2.9,84.5L2.9,84.5z"/>
		<path d="M8.1,78.8h0.6l1.2,3.5c0.2,0.4,0.3,0.9,0.5,1.3l0,0c0.2-0.4,0.3-0.9,0.5-1.3l1.2-3.5h0.6v5.9h-0.4v-3.9
			c0-0.5,0-1.1,0.1-1.6l0,0l-0.5,1.3L10.6,84h-0.4l-1.3-3.5l-0.5-1.3l0,0c0,0.5,0.1,1.1,0.1,1.6v3.9H8.1V78.8z"/>
	</g>
	<g>
		<path d="M39.7,78.8h1.6c1.2,0,2,0.5,2,1.4c0,0.6-0.3,1.1-0.9,1.3l0,0c0.8,0.1,1.3,0.6,1.3,1.4c0,1.1-0.9,1.7-2.2,1.7h-1.7
			L39.7,78.8L39.7,78.8z M41.1,81.4c1.2,0,1.7-0.4,1.7-1.1c0-0.8-0.6-1.1-1.7-1.1H40v2.3h1.1V81.4z M41.3,84.4
			c1.2,0,1.9-0.4,1.9-1.4c0-0.9-0.7-1.3-1.9-1.3h-1.2v2.6h1.2V84.4z"/>
		<path d="M44.8,84.2v-5.9h0.4v6c0,0.2,0.1,0.3,0.2,0.3c0,0,0.1,0,0.2,0l0.1,0.3c-0.1,0-0.2,0-0.3,0C45,84.9,44.8,84.6,44.8,84.2z"
			/>
		<path d="M46.6,83.7c0-1,0.9-1.4,2.8-1.6c0-0.7-0.2-1.4-1-1.4c-0.6,0-1.1,0.3-1.4,0.5l-0.2-0.3c0.3-0.2,0.9-0.6,1.6-0.6
			c1,0,1.4,0.7,1.4,1.7v2.8h-0.3v-0.6l0,0c-0.4,0.4-1,0.7-1.5,0.7C47.2,84.9,46.6,84.5,46.6,83.7z M49.4,83.8v-1.5
			c-1.8,0.2-2.4,0.6-2.4,1.3c0,0.6,0.4,0.9,0.9,0.9S48.9,84.3,49.4,83.8z"/>
		<path d="M50.8,84.3L51,84c0.4,0.3,0.8,0.5,1.4,0.5c0.7,0,1-0.4,1-0.9s-0.6-0.8-1.1-1c-0.7-0.2-1.3-0.5-1.3-1.2
			c0-0.6,0.5-1.2,1.4-1.2c0.5,0,0.9,0.2,1.2,0.5L53.4,81c-0.3-0.2-0.6-0.4-1-0.4c-0.7,0-1,0.4-1,0.8c0,0.5,0.5,0.7,1,0.9
			c0.7,0.3,1.4,0.5,1.4,1.3c0,0.6-0.5,1.2-1.5,1.2C51.8,84.9,51.2,84.6,50.8,84.3z"/>
		<path d="M55.1,83.6v-2.8h-0.7v-0.3h0.7l0.1-1.3h0.3v1.3h1.3v0.3h-1.3v2.8c0,0.5,0.1,0.9,0.7,0.9c0.2,0,0.4-0.1,0.5-0.1l0.1,0.3
			c-0.3,0.1-0.5,0.2-0.7,0.2C55.4,84.9,55.1,84.3,55.1,83.6z"/>
		<path d="M59.6,78.3H60v2.8c0.5-0.5,0.9-0.8,1.5-0.8c0.9,0,1.3,0.5,1.3,1.7v2.8h-0.4V82c0-0.9-0.3-1.4-1-1.4
			c-0.5,0-0.9,0.3-1.4,0.8v3.3h-0.4C59.6,84.7,59.6,78.3,59.6,78.3z"/>
		<path d="M64,82.6c0-1.4,0.9-2.3,1.9-2.3s1.9,0.8,1.9,2.3c0,1.4-0.9,2.3-1.9,2.3S64,84,64,82.6z M67.5,82.6c0-1.1-0.7-1.9-1.5-1.9
			c-0.9,0-1.5,0.8-1.5,1.9s0.6,1.9,1.5,1.9C66.8,84.5,67.5,83.7,67.5,82.6z"/>
		<path d="M69.2,84.2v-5.9h0.4v6c0,0.2,0.1,0.3,0.2,0.3c0,0,0.1,0,0.2,0l0.1,0.3c-0.1,0-0.2,0-0.3,0C69.4,84.9,69.2,84.6,69.2,84.2z
			"/>
		<path d="M71,82.6c0-1.4,0.9-2.3,1.9-2.3s1.7,0.7,1.7,2c0,0.1,0,0.2,0,0.3h-3.1c0,1.1,0.7,1.9,1.6,1.9c0.5,0,0.8-0.2,1.2-0.4
			l0.2,0.3c-0.3,0.2-0.7,0.4-1.4,0.4C71.9,84.9,71,84,71,82.6z M74.1,82.3c0-1.1-0.5-1.7-1.3-1.7c-0.7,0-1.4,0.6-1.5,1.7H74.1z"/>
		<path d="M77.1,82.6c0-1.4,0.9-2.3,1.9-2.3s1.9,0.8,1.9,2.3c0,1.4-0.9,2.3-1.9,2.3S77.1,84,77.1,82.6z M80.6,82.6
			c0-1.1-0.7-1.9-1.5-1.9c-0.9,0-1.5,0.8-1.5,1.9s0.6,1.9,1.5,1.9C79.9,84.5,80.6,83.7,80.6,82.6z"/>
		<path d="M82.3,80.4h0.3v0.5l0,0c0.4-0.3,0.9-0.6,1.5-0.6c1.2,0,1.7,0.9,1.7,2.2c0,1.5-0.9,2.3-1.9,2.3c-0.4,0-0.8-0.2-1.3-0.5v2.4
			h-0.4v-6.3H82.3z M85.5,82.5c0-1.1-0.4-1.9-1.4-1.9c-0.4,0-0.9,0.3-1.4,0.7V84c0.5,0.4,0.9,0.6,1.3,0.6
			C84.8,84.5,85.5,83.7,85.5,82.5z"/>
		<path d="M86.8,82.6c0-1.4,0.9-2.3,1.9-2.3s1.7,0.7,1.7,2c0,0.1,0,0.2,0,0.3h-3.2c0,1.1,0.7,1.9,1.6,1.9c0.5,0,0.8-0.2,1.2-0.4
			l0.2,0.3c-0.3,0.2-0.7,0.4-1.4,0.4C87.7,84.9,86.8,84,86.8,82.6z M90,82.3c0-1.1-0.5-1.7-1.3-1.7c-0.7,0-1.4,0.6-1.5,1.7H90z"/>
		<path d="M91.5,80.4h0.3v0.7l0,0c0.4-0.4,0.9-0.8,1.5-0.8c0.9,0,1.3,0.5,1.3,1.7v2.8h-0.4V82c0-0.9-0.3-1.4-1-1.4
			c-0.5,0-0.9,0.3-1.4,0.8v3.3h-0.4L91.5,80.4L91.5,80.4z"/>
		<path d="M97.6,84.3l0.2-0.3c0.4,0.3,0.8,0.5,1.4,0.5c0.7,0,1-0.4,1-0.9s-0.6-0.8-1.1-1c-0.7-0.2-1.3-0.5-1.3-1.2
			c0-0.6,0.5-1.2,1.4-1.2c0.5,0,0.9,0.2,1.2,0.5l-0.2,0.3c-0.3-0.2-0.6-0.4-1-0.4c-0.7,0-1,0.4-1,0.8c0,0.5,0.5,0.7,1,0.9
			c0.7,0.3,1.4,0.5,1.4,1.3c0,0.6-0.5,1.2-1.5,1.2C98.5,84.9,98,84.6,97.6,84.3z"/>
		<path d="M101.9,83.6v-2.8h-0.7v-0.3h0.7l0.1-1.3h0.3v1.3h1.3v0.3h-1.3v2.8c0,0.5,0.1,0.9,0.7,0.9c0.2,0,0.4-0.1,0.5-0.1l0.1,0.3
			c-0.3,0.1-0.5,0.2-0.7,0.2C102.1,84.9,101.9,84.3,101.9,83.6z"/>
		<path d="M104.2,82.6c0-1.4,0.9-2.3,1.9-2.3s1.9,0.8,1.9,2.3c0,1.4-0.9,2.3-1.9,2.3S104.2,84,104.2,82.6z M107.7,82.6
			c0-1.1-0.7-1.9-1.5-1.9c-0.9,0-1.5,0.8-1.5,1.9s0.6,1.9,1.5,1.9C107,84.5,107.7,83.7,107.7,82.6z"/>
		<path d="M109.4,80.4h0.3v0.5l0,0c0.4-0.3,0.9-0.6,1.5-0.6c1.2,0,1.7,0.9,1.7,2.2c0,1.5-0.9,2.3-1.9,2.3c-0.4,0-0.8-0.2-1.3-0.5
			v2.4h-0.4v-6.3H109.4z M112.6,82.5c0-1.1-0.4-1.9-1.4-1.9c-0.4,0-0.9,0.3-1.4,0.7V84c0.5,0.4,0.9,0.6,1.3,0.6
			C111.9,84.5,112.6,83.7,112.6,82.5z"/>
		<path d="M114.1,79c0-0.2,0.1-0.4,0.3-0.4s0.3,0.1,0.3,0.4c0,0.2-0.1,0.4-0.3,0.4S114.1,79.2,114.1,79z M114.3,80.4h0.4v4.3h-0.4
			V80.4z"/>
		<path d="M116.3,80.4h0.3v0.7l0,0c0.4-0.4,0.9-0.8,1.5-0.8c0.9,0,1.3,0.5,1.3,1.7v2.8H119V82c0-0.9-0.3-1.4-1-1.4
			c-0.5,0-0.9,0.3-1.4,0.8v3.3h-0.4L116.3,80.4L116.3,80.4z"/>
		<path d="M120.8,85.6c0-0.4,0.2-0.8,0.6-1l0,0c-0.2-0.1-0.4-0.4-0.4-0.7c0-0.4,0.3-0.7,0.5-0.8l0,0c-0.3-0.2-0.5-0.7-0.5-1.2
			c0-0.9,0.7-1.5,1.5-1.5c0.2,0,0.4,0.1,0.6,0.1h1.5v0.3h-1c0.3,0.2,0.5,0.6,0.5,1.1c0,0.9-0.7,1.5-1.5,1.5c-0.2,0-0.5-0.1-0.7-0.2
			c-0.2,0.2-0.4,0.3-0.4,0.6c0,0.3,0.2,0.6,0.8,0.6h0.9c1,0,1.4,0.3,1.4,1s-0.8,1.5-2,1.5C121.5,86.8,120.8,86.4,120.8,85.6z
			 M124.2,85.4c0-0.5-0.4-0.7-1-0.7h-0.9c-0.1,0-0.3,0-0.5-0.1c-0.4,0.3-0.6,0.6-0.6,0.9c0,0.5,0.5,0.9,1.4,0.9
			C123.6,86.5,124.2,86,124.2,85.4z M123.6,81.8c0-0.7-0.5-1.2-1.1-1.2s-1.1,0.5-1.1,1.2s0.5,1.2,1.1,1.2
			C123.1,83.1,123.6,82.6,123.6,81.8z"/>
	</g>
	<g>
		<path d="M255.2,84.4h1.4v-4.8h-1v-0.3c0.5-0.1,0.8-0.2,1.1-0.4h0.3v5.4h1.3v0.4h-3L255.2,84.4L255.2,84.4z"/>
		<path d="M259.2,81.9c0-1.9,0.6-3,1.7-3s1.7,1.1,1.7,3s-0.6,3-1.7,3S259.2,83.8,259.2,81.9z M262.2,81.9c0-1.8-0.5-2.6-1.3-2.6
			s-1.3,0.9-1.3,2.6c0,1.8,0.5,2.7,1.3,2.7C261.7,84.5,262.2,83.6,262.2,81.9z"/>
		<path d="M263.3,84.1l0.2-0.3c0.3,0.4,0.8,0.7,1.6,0.7c0.8,0,1.4-0.6,1.4-1.5s-0.5-1.5-1.4-1.5c-0.4,0-0.7,0.2-1.1,0.4l-0.3-0.2
			l0.2-2.7h2.7v0.4h-2.3l-0.2,2.1c0.3-0.2,0.6-0.3,1-0.3c1,0,1.8,0.6,1.8,1.8c0,1.2-0.9,1.9-1.8,1.9
			C264.2,84.9,263.7,84.5,263.3,84.1z"/>
		<path d="M268,84.5c0-0.3,0.2-0.4,0.4-0.4s0.4,0.2,0.4,0.4c0,0.3-0.2,0.4-0.4,0.4S268,84.7,268,84.5z"/>
		<path d="M269.6,84.1l0.2-0.3c0.3,0.4,0.8,0.7,1.6,0.7c0.8,0,1.4-0.6,1.4-1.5s-0.5-1.5-1.4-1.5c-0.4,0-0.7,0.2-1.1,0.4l-0.3-0.2
			l0.2-2.7h2.7v0.4h-2.3l-0.2,2.1c0.3-0.2,0.6-0.3,1-0.3c1,0,1.8,0.6,1.8,1.8c0,1.2-0.9,1.9-1.8,1.9
			C270.5,84.9,269.9,84.5,269.6,84.1z"/>
	</g>
	<g>
		<path d="M3.3,91.2h0.4v3.3l0,0l2.9-3.3h0.5l-1.9,2.2l2.2,3.7H6.9l-2-3.4l-1.2,1.4v2H3.3V91.2z"/>
		<path d="M8.3,91.2h0.6l1.2,3.5c0.2,0.4,0.3,0.9,0.5,1.3l0,0c0.2-0.4,0.3-0.9,0.5-1.3l1.2-3.5h0.6v5.9h-0.4v-3.9
			c0-0.5,0-1.1,0.1-1.6l0,0l-0.5,1.3l-1.3,3.5h-0.4L9.2,93l-0.5-1.3l0,0c0,0.5,0.1,1.1,0.1,1.6v3.9H8.4L8.3,91.2L8.3,91.2z"/>
	</g>
	<g>
		<path d="M39.7,91.2h0.4v5.6h2.7v0.4h-3.2L39.7,91.2L39.7,91.2z"/>
		<path d="M43.5,95c0-1.5,0.9-2.3,1.9-2.3s1.9,0.8,1.9,2.3c0,1.4-0.9,2.3-1.9,2.3S43.5,96.5,43.5,95z M46.9,95
			c0-1.1-0.7-1.9-1.5-1.9c-0.9,0-1.5,0.8-1.5,1.9s0.6,1.9,1.5,1.9C46.3,96.9,46.9,96.2,46.9,95z"/>
		<path d="M48.6,92.9h0.3v0.7l0,0c0.4-0.4,0.9-0.8,1.5-0.8c0.9,0,1.3,0.5,1.3,1.7v2.8h-0.4v-2.7c0-0.9-0.3-1.4-1-1.4
			c-0.5,0-0.9,0.3-1.4,0.8v3.3h-0.4v-4.4H48.6z"/>
		<path d="M53.1,98.1c0-0.4,0.2-0.8,0.6-1l0,0c-0.2-0.1-0.4-0.4-0.4-0.7c0-0.4,0.3-0.7,0.5-0.8l0,0c-0.3-0.2-0.5-0.7-0.5-1.2
			c0-0.9,0.7-1.5,1.5-1.5c0.2,0,0.4,0.1,0.6,0.1h1.5v0.3h-1c0.3,0.2,0.5,0.6,0.5,1.1c0,0.9-0.7,1.5-1.5,1.5c-0.2,0-0.5-0.1-0.7-0.2
			c-0.2,0.2-0.4,0.3-0.4,0.6c0,0.3,0.2,0.6,0.8,0.6h0.9c1,0,1.4,0.3,1.4,1s-0.8,1.5-2,1.5C53.7,99.3,53.1,98.8,53.1,98.1z
			 M56.5,97.8c0-0.5-0.4-0.7-1-0.7h-0.9c-0.1,0-0.3,0-0.5-0.1c-0.4,0.3-0.6,0.6-0.6,0.9c0,0.5,0.5,0.9,1.4,0.9
			C55.9,98.9,56.5,98.4,56.5,97.8z M55.9,94.3c0-0.7-0.5-1.2-1.1-1.2s-1.1,0.5-1.1,1.2s0.5,1.2,1.1,1.2S55.9,95,55.9,94.3z"/>
		<path d="M59.6,90.7H60v2.8c0.5-0.5,0.9-0.8,1.5-0.8c0.9,0,1.3,0.5,1.3,1.7v2.8h-0.4v-2.7c0-0.9-0.3-1.4-1-1.4
			c-0.5,0-0.9,0.3-1.4,0.8v3.3h-0.4C59.6,97.2,59.6,90.7,59.6,90.7z"/>
		<path d="M64,95c0-1.5,0.9-2.3,1.9-2.3s1.9,0.8,1.9,2.3c0,1.4-0.9,2.3-1.9,2.3S64,96.5,64,95z M67.5,95c0-1.1-0.7-1.9-1.5-1.9
			c-0.9,0-1.5,0.8-1.5,1.9s0.6,1.9,1.5,1.9C66.8,96.9,67.5,96.2,67.5,95z"/>
		<path d="M69.2,96.6v-5.9h0.4v6c0,0.2,0.1,0.3,0.2,0.3c0,0,0.1,0,0.2,0l0.1,0.3c-0.1,0-0.2,0-0.3,0C69.4,97.3,69.2,97.1,69.2,96.6z
			"/>
		<path d="M70.9,95c0-1.4,0.9-2.3,1.9-2.3s1.7,0.7,1.7,2c0,0.1,0,0.2,0,0.3h-3.1c0,1.1,0.7,1.9,1.6,1.9c0.5,0,0.8-0.2,1.2-0.4
			l0.2,0.3c-0.3,0.2-0.7,0.4-1.4,0.4C71.8,97.3,70.9,96.4,70.9,95z M74.1,94.7c0-1.1-0.5-1.7-1.3-1.7c-0.7,0-1.4,0.6-1.5,1.7H74.1z"
			/>
		<path d="M77.1,95c0-1.5,0.9-2.3,1.9-2.3s1.9,0.8,1.9,2.3c0,1.4-0.9,2.3-1.9,2.3S77.1,96.5,77.1,95z M80.6,95
			c0-1.1-0.7-1.9-1.5-1.9c-0.9,0-1.5,0.8-1.5,1.9s0.6,1.9,1.5,1.9C79.9,96.9,80.6,96.2,80.6,95z"/>
		<path d="M82.3,92.9h0.3v0.5l0,0c0.4-0.3,0.9-0.6,1.5-0.6c1.2,0,1.7,0.9,1.7,2.2c0,1.5-0.9,2.3-1.9,2.3c-0.4,0-0.8-0.2-1.3-0.5v2.4
			h-0.4v-6.3H82.3z M85.4,94.9c0-1.1-0.4-1.9-1.4-1.9c-0.4,0-0.9,0.3-1.4,0.7v2.6c0.5,0.4,0.9,0.6,1.3,0.6
			C84.8,96.9,85.4,96.1,85.4,94.9z"/>
		<path d="M86.8,95c0-1.4,0.9-2.3,1.9-2.3s1.7,0.7,1.7,2c0,0.1,0,0.2,0,0.3h-3.2c0,1.1,0.7,1.9,1.6,1.9c0.5,0,0.8-0.2,1.2-0.4
			l0.2,0.3c-0.3,0.2-0.7,0.4-1.4,0.4C87.7,97.3,86.8,96.4,86.8,95z M90,94.7c0-1.1-0.5-1.7-1.3-1.7c-0.7,0-1.4,0.6-1.5,1.7H90z"/>
		<path d="M91.5,92.9h0.3v0.7l0,0c0.4-0.4,0.9-0.8,1.5-0.8c0.9,0,1.3,0.5,1.3,1.7v2.8h-0.4v-2.7c0-0.9-0.3-1.4-1-1.4
			c-0.5,0-0.9,0.3-1.4,0.8v3.3h-0.4L91.5,92.9L91.5,92.9z"/>
		<path d="M97.6,96.7l0.2-0.3c0.4,0.3,0.8,0.5,1.4,0.5c0.7,0,1-0.4,1-0.9s-0.6-0.8-1.1-1c-0.7-0.2-1.3-0.5-1.3-1.2
			c0-0.6,0.5-1.2,1.4-1.2c0.5,0,0.9,0.2,1.2,0.5l-0.2,0.3c-0.3-0.2-0.6-0.4-1-0.4c-0.7,0-1,0.4-1,0.8c0,0.5,0.5,0.7,1,0.9
			c0.7,0.3,1.4,0.5,1.4,1.3c0,0.6-0.5,1.2-1.5,1.2C98.5,97.3,97.9,97,97.6,96.7z"/>
		<path d="M101.8,96v-2.8h-0.6v-0.3h0.7l0.1-1.3h0.3v1.3h1.3v0.3h-1.4V96c0,0.5,0.1,0.9,0.7,0.9c0.2,0,0.4-0.1,0.5-0.1l0.1,0.3
			c-0.3,0.1-0.5,0.2-0.7,0.2C102.1,97.3,101.8,96.8,101.8,96z"/>
		<path d="M104.2,95c0-1.5,0.9-2.3,1.9-2.3s1.9,0.8,1.9,2.3c0,1.4-0.9,2.3-1.9,2.3S104.2,96.5,104.2,95z M107.7,95
			c0-1.1-0.7-1.9-1.5-1.9c-0.9,0-1.5,0.8-1.5,1.9s0.6,1.9,1.5,1.9C107,96.9,107.7,96.2,107.7,95z"/>
		<path d="M109.4,92.9h0.3v0.5l0,0c0.4-0.3,0.9-0.6,1.5-0.6c1.2,0,1.7,0.9,1.7,2.2c0,1.5-0.9,2.3-1.9,2.3c-0.4,0-0.8-0.2-1.3-0.5
			v2.4h-0.4v-6.3H109.4z M112.5,94.9c0-1.1-0.4-1.9-1.4-1.9c-0.4,0-0.9,0.3-1.4,0.7v2.6c0.5,0.4,0.9,0.6,1.3,0.6
			C111.9,96.9,112.5,96.1,112.5,94.9z"/>
		<path d="M114.1,91.4c0-0.2,0.1-0.4,0.3-0.4s0.3,0.1,0.3,0.4c0,0.2-0.1,0.4-0.3,0.4S114.1,91.7,114.1,91.4z M114.3,92.9h0.4v4.3
			h-0.4V92.9z"/>
		<path d="M116.3,92.9h0.3v0.7l0,0c0.4-0.4,0.9-0.8,1.5-0.8c0.9,0,1.3,0.5,1.3,1.7v2.8H119v-2.7c0-0.9-0.3-1.4-1-1.4
			c-0.5,0-0.9,0.3-1.4,0.8v3.3h-0.4L116.3,92.9L116.3,92.9z"/>
		<path d="M120.8,98.1c0-0.4,0.2-0.8,0.6-1l0,0c-0.2-0.1-0.4-0.4-0.4-0.7c0-0.4,0.3-0.7,0.5-0.8l0,0c-0.3-0.2-0.5-0.7-0.5-1.2
			c0-0.9,0.7-1.5,1.5-1.5c0.2,0,0.4,0.1,0.6,0.1h1.5v0.3h-1c0.3,0.2,0.5,0.6,0.5,1.1c0,0.9-0.7,1.5-1.5,1.5c-0.2,0-0.5-0.1-0.7-0.2
			c-0.2,0.2-0.4,0.3-0.4,0.6c0,0.3,0.2,0.6,0.8,0.6h0.9c1,0,1.4,0.3,1.4,1s-0.8,1.5-2,1.5C121.4,99.3,120.8,98.8,120.8,98.1z
			 M124.2,97.8c0-0.5-0.4-0.7-1-0.7h-1c-0.1,0-0.3,0-0.5-0.1c-0.4,0.3-0.6,0.6-0.6,0.9c0,0.5,0.5,0.9,1.4,0.9
			C123.5,98.9,124.2,98.4,124.2,97.8z M123.6,94.3c0-0.7-0.5-1.2-1.1-1.2s-1.1,0.5-1.1,1.2s0.5,1.2,1.1,1.2S123.6,95,123.6,94.3z"/>
		<path d="M126.7,92.9h0.4l0.8,2.8c0.1,0.4,0.2,0.8,0.3,1.2l0,0c0.1-0.4,0.2-0.8,0.3-1.2l0.8-2.8h0.5l0.8,2.8
			c0.1,0.4,0.2,0.8,0.3,1.2l0,0c0.1-0.4,0.2-0.8,0.3-1.2l0.8-2.8h0.4l-1.2,4.3h-0.5l-0.8-2.7c-0.1-0.4-0.2-0.8-0.3-1.2l0,0
			c-0.1,0.4-0.2,0.8-0.3,1.3l-0.7,2.7h-0.5L126.7,92.9z"/>
		<path d="M133.3,91.4c0-0.2,0.1-0.4,0.3-0.4s0.3,0.1,0.3,0.4c0,0.2-0.1,0.4-0.3,0.4S133.3,91.7,133.3,91.4z M133.5,92.9h0.4v4.3
			h-0.4V92.9z"/>
		<path d="M135.6,96v-2.8h-0.7v-0.3h0.7l0.1-1.3h0.3v1.3h1.3v0.3H136V96c0,0.5,0.1,0.9,0.7,0.9c0.2,0,0.4-0.1,0.5-0.1l0.1,0.3
			c-0.3,0.1-0.5,0.2-0.7,0.2C135.9,97.3,135.6,96.8,135.6,96z"/>
		<path d="M138.3,90.7h0.4v2.8c0.5-0.5,0.9-0.8,1.5-0.8c0.9,0,1.3,0.5,1.3,1.7v2.8h-0.4v-2.7c0-0.9-0.3-1.4-1-1.4
			c-0.5,0-0.9,0.3-1.4,0.8v3.3h-0.4L138.3,90.7L138.3,90.7z"/>
		<path d="M144.5,94.2c0-1.9,1-3.1,2.5-3.1c0.7,0,1.2,0.3,1.5,0.7l-0.2,0.3c-0.3-0.4-0.8-0.6-1.3-0.6c-1.3,0-2.1,1-2.1,2.7
			s0.8,2.7,2.1,2.7c0.6,0,1.1-0.3,1.5-0.7l0.2,0.3c-0.5,0.5-1,0.8-1.8,0.8C145.6,97.3,144.5,96.1,144.5,94.2z"/>
		<path d="M150,91.2h1.7c1.2,0,1.9,0.4,1.9,1.6c0,0.9-0.6,1.5-1.5,1.6l1.6,2.8h-0.5l-1.6-2.7h-1.3v2.7h-0.4v-6H150z M151.6,94.1
			c1,0,1.6-0.4,1.6-1.3s-0.6-1.2-1.6-1.2h-1.2v2.5H151.6z"/>
		<path d="M154.9,91.2h3.2v0.4h-2.8V94h2.4v0.4h-2.4v2.9h-0.4V91.2z"/>
	</g>
	<g>
		<path d="M266.5,91.8h-3v-0.4h3.5v0.2c-1.4,1.8-1.7,3.3-1.8,5.5h-0.4C264.8,94.9,265.3,93.4,266.5,91.8z"/>
		<path d="M268,96.9c0-0.3,0.2-0.4,0.4-0.4s0.4,0.2,0.4,0.4c0,0.3-0.2,0.4-0.4,0.4S268,97.1,268,96.9z"/>
		<path d="M272.8,91.8h-3v-0.4h3.5v0.2c-1.4,1.8-1.7,3.3-1.8,5.5h-0.4C271.1,94.9,271.6,93.4,272.8,91.8z"/>
	</g>
</g>
</svg>
