<?xml version="1.0" encoding="utf-8"?>
<!-- Generator: Adobe Illustrator 23.0.3, SVG Export Plug-In . SVG Version: 6.00 Build 0)  -->
<svg version="1.1" id="Layer_1" xmlns="http://www.w3.org/2000/svg" xmlns:xlink="http://www.w3.org/1999/xlink" x="0px" y="0px"
	 viewBox="0 0 244.3 114.1" style="enable-background:new 0 0 244.3 114.1;" xml:space="preserve">
<style type="text/css">
	.st0{enable-background:new    ;}
	.st1{fill:none;stroke:#000000;stroke-width:0.25;}
	.st2{fill:#55371E;}
	.st3{fill:#ABD693;}
</style>
<g>
	<g class="st0">
		<path d="M1.9,0.3h2.2c1.5,0,2.6,0.5,2.6,2.1c0,1.5-1.2,2.2-2.5,2.2H3.4v2.2H1.9V0.3z M4.1,3.4c0.8,0,1.2-0.4,1.2-1
			S4.9,1.5,4.1,1.5H3.4v2h0.7V3.4z"/>
	</g>
	<g class="st0">
		<path d="M8.6,0.3h1.8l2,6.5h-1.6l-0.4-1.5h-2L8,6.8H6.5L8.6,0.3z M8.8,4.1h1.4l-0.1-0.6C9.9,2.8,9.7,2.1,9.6,1.4l0,0
			C9.4,2.1,9.3,2.8,9.1,3.5L8.8,4.1z"/>
	</g>
	<g class="st0">
		<path d="M13.7,1.5h-1.8V0.3H17v1.2h-1.8v5.3h-1.5V1.5z"/>
	</g>
	<path d="M19.7,5c0-1.1,0.3-2.1,0.9-2.9l0.2,0.1C20.3,3,20,4,20,5s0.3,2,0.8,2.8l-0.2,0.1C20.1,7,19.7,6.1,19.7,5z M21.6,2.5h1.1
		c1,0,1.6,0.3,1.6,1.2c0,0.8-0.6,1.2-1.5,1.2H22v1.8h-0.3V2.5H21.6z M22.6,4.7c0.9,0,1.3-0.3,1.3-1s-0.4-0.9-1.3-0.9h-0.7v1.9H22.6z
		 M25.1,3.7h0.2v0.6l0,0c0.2-0.4,0.5-0.7,0.9-0.7c0.1,0,0.2,0,0.3,0.1L26.4,4c-0.1,0-0.2-0.1-0.3-0.1c-0.3,0-0.6,0.2-0.9,0.8v2.1
		h-0.3V3.7H25.1z M26.9,5.2c0-1,0.7-1.6,1.4-1.6c0.8,0,1.4,0.6,1.4,1.6S29,6.8,28.3,6.8C27.5,6.9,26.9,6.3,26.9,5.2z M29.4,5.2
		c0-0.8-0.5-1.4-1.1-1.4s-1.1,0.6-1.1,1.4c0,0.8,0.5,1.4,1.1,1.4S29.4,6,29.4,5.2z M30.7,3.9h-0.4V3.7h0.4V3c0-0.6,0.3-0.9,0.8-0.9
		c0.1,0,0.3,0,0.5,0.1l-0.1,0.2c-0.2-0.1-0.4-0.1-0.5-0.1c-0.3,0-0.5,0.3-0.5,0.7v0.7h0.8v0.2H31v2.9h-0.3V3.9z M32.2,2.6
		c0-0.2,0.1-0.3,0.3-0.3s0.2,0.2,0.2,0.3s-0.1,0.3-0.3,0.3S32.2,2.8,32.2,2.6z M32.3,3.7h0.3v3.1h-0.3V3.7z M33.9,5.9v-2h-0.5V3.7
		h0.5V2.8h0.2v0.9H35v0.2h-0.9v2c0,0.4,0.1,0.7,0.5,0.7c0.1,0,0.3,0,0.4-0.1l0.1,0.2c-0.2,0.1-0.4,0.1-0.5,0.1
		C34.1,6.9,33.9,6.5,33.9,5.9z M36.9,6c0-0.7,0.6-1,2-1.2c0-0.5-0.1-1-0.7-1c-0.4,0-0.8,0.2-1,0.4L37.1,4c0.2-0.2,0.7-0.4,1.2-0.4
		c0.7,0,1,0.5,1,1.2v2h-0.2V6.4l0,0c-0.3,0.3-0.7,0.5-1.1,0.5C37.3,6.9,36.9,6.6,36.9,6z M38.9,6.1V5c-1.3,0.1-1.7,0.4-1.7,0.9
		c0,0.4,0.3,0.6,0.7,0.6S38.5,6.4,38.9,6.1z M40.4,3.9H40V3.7h0.4V3c0-0.6,0.3-0.9,0.8-0.9c0.1,0,0.3,0,0.5,0.1l-0.1,0.2
		c-0.2-0.1-0.3-0.1-0.5-0.1c-0.3,0-0.4,0.2-0.4,0.7v0.7h1.2V2.8h0.2v0.9H43v0.2h-0.9v2c0,0.4,0.1,0.7,0.5,0.7c0.1,0,0.3,0,0.4-0.1
		l0.1,0.2c-0.2,0.1-0.4,0.1-0.5,0.1c-0.6,0-0.8-0.4-0.8-0.9v-2h-1.1v2.9h-0.3V3.9z M43.5,5.2c0-1,0.7-1.6,1.4-1.6s1.2,0.5,1.2,1.4
		c0,0.1,0,0.2,0,0.2h-2.2c0,0.8,0.5,1.4,1.2,1.4c0.3,0,0.6-0.1,0.8-0.3L46,6.5c-0.2,0.1-0.5,0.3-1,0.3C44.1,6.9,43.5,6.2,43.5,5.2z
		 M45.8,5c0-0.8-0.4-1.2-0.9-1.2s-1,0.4-1.1,1.2H45.8z M46.9,3.7h0.2v0.6l0,0c0.2-0.4,0.5-0.7,0.9-0.7c0.1,0,0.2,0,0.3,0.1L48.2,4
		c-0.1,0-0.2-0.1-0.3-0.1c-0.3,0-0.6,0.2-0.9,0.8v2.1h-0.3V3.7H46.9z M51.2,2.8h-1.4V2.5h3v0.3h-1.4v4h-0.3v-4H51.2z M52.9,6
		c0-0.7,0.6-1,2-1.2c0-0.5-0.1-1-0.7-1c-0.4,0-0.8,0.2-1,0.4L53.1,4c0.2-0.2,0.7-0.4,1.2-0.4c0.7,0,1,0.5,1,1.2v2h-0.2V6.4l0,0
		c-0.3,0.3-0.7,0.5-1.1,0.5C53.3,6.9,52.9,6.6,52.9,6z M55,6.1V5c-1.3,0.1-1.7,0.4-1.7,0.9c0,0.4,0.3,0.6,0.7,0.6S54.6,6.4,55,6.1z
		 M56.9,5.1l-1-1.5h0.3l0.5,0.8c0.1,0.2,0.2,0.3,0.3,0.5l0,0c0.1-0.2,0.2-0.3,0.3-0.5l0.5-0.8h0.3l-1,1.5l1.1,1.6h-0.3l-0.6-0.9
		c-0.1-0.2-0.2-0.4-0.4-0.6l0,0c-0.1,0.2-0.2,0.4-0.4,0.6L56,6.7h-0.3L56.9,5.1z M58.6,7.8C59.1,7,59.4,6,59.4,5s-0.3-2-0.8-2.8
		l0.2-0.1C59.3,3,59.7,3.9,59.7,5s-0.3,2.1-0.9,2.9L58.6,7.8z"/>
	<g class="st0">
		<path d="M1.7,13c0-1.1,0.3-2.1,0.9-2.9l0.2,0.1C2.3,11,2,12,2,13s0.3,2,0.8,2.8l-0.2,0.1C2,15,1.7,14.1,1.7,13z"/>
		<path d="M3.4,12.7h0.5c0.8,0,1.2-0.3,1.2-0.9H3.4v-0.2h0.4H5c-0.1-0.5-0.5-0.7-1.2-0.7H3.3v-0.2h2.4v0.2h-1
			C5,11,5.2,11.3,5.2,11.6h0.4v0.2H5.2c0,0.7-0.5,1.1-1.1,1.2l1.3,1.8H5L3.7,13H3.2v-0.3H3.4z"/>
		<path d="M7.9,10.6c0-0.1,0.1-0.3,0.2-0.3s0.2,0.1,0.2,0.3c0,0.2-0.1,0.3-0.2,0.3S7.9,10.8,7.9,10.6z M8,11.7h0.3v3.1H8V11.7z"/>
		<path d="M9.4,11.7h0.3v0.5l0,0c0.3-0.3,0.6-0.6,1.1-0.6c0.6,0,0.9,0.4,0.9,1.2v2h-0.3v-2c0-0.7-0.2-1-0.7-1c-0.4,0-0.6,0.2-1,0.6
			v2.4H9.4V11.7z"/>
		<path d="M14,12.6c0-1.4,0.7-2.2,1.8-2.2c0.5,0,0.9,0.2,1.1,0.5l-0.2,0.2c-0.2-0.3-0.5-0.4-0.9-0.4c-0.9,0-1.5,0.7-1.5,1.9
			s0.6,2,1.5,2c0.4,0,0.8-0.2,1.1-0.5l0.2,0.2c-0.3,0.4-0.7,0.6-1.3,0.6C14.7,14.9,14,14,14,12.6z"/>
	</g>
	<g class="st0">
		<path d="M17.8,11.7H18v0.6l0,0c0.2-0.4,0.5-0.7,0.9-0.7c0.1,0,0.2,0,0.3,0.1L19.1,12c-0.1,0-0.2-0.1-0.3-0.1
			c-0.3,0-0.6,0.2-0.9,0.8v2.1h-0.3v-3.1H17.8z"/>
	</g>
	<g class="st0">
		<path d="M19.6,13.2c0-1,0.7-1.6,1.4-1.6c0.8,0,1.4,0.6,1.4,1.6s-0.6,1.6-1.4,1.6C20.2,14.9,19.6,14.3,19.6,13.2z M22.1,13.2
			c0-0.8-0.5-1.4-1.1-1.4s-1.1,0.6-1.1,1.4s0.5,1.4,1.1,1.4S22.1,14,22.1,13.2z"/>
	</g>
	<g class="st0">
		<path d="M23.3,11.7h0.2v0.6l0,0c0.2-0.4,0.5-0.7,0.9-0.7c0.1,0,0.2,0,0.3,0.1L24.6,12c-0.1,0-0.2-0.1-0.3-0.1
			c-0.3,0-0.6,0.2-0.9,0.8v2.1h-0.3v-3.1H23.3z"/>
	</g>
	<g class="st0">
		<path d="M25.1,13.2c0-1,0.7-1.6,1.4-1.6s1.2,0.5,1.2,1.4c0,0.1,0,0.2,0,0.2h-2.2c0,0.8,0.5,1.4,1.2,1.4c0.3,0,0.6-0.1,0.8-0.3
			l0.1,0.2c-0.2,0.1-0.5,0.3-1,0.3C25.7,14.9,25.1,14.2,25.1,13.2z M27.4,13c0-0.8-0.4-1.2-0.9-1.2s-1,0.4-1.1,1.2H27.4z"/>
		<path d="M28.1,15.8c0.5-0.8,0.8-1.8,0.8-2.8s-0.3-2-0.8-2.8l0.2-0.1c0.5,0.9,0.9,1.8,0.9,2.9s-0.3,2.1-0.9,2.9L28.1,15.8z"/>
	</g>
	<line class="st1" x1="1.1" y1="23.3" x2="243.2" y2="23.3"/>
	<line class="st1" x1="1.1" y1="113.7" x2="243.2" y2="113.7"/>
	<g class="st0">
		<path d="M224.6,32.6h-2.3v-1h3.5v0.7c-1.2,1.4-1.3,2.4-1.4,4.4h-1.2C223.3,35,223.6,34,224.6,32.6z"/>
		<path d="M226.5,37.7c0.6-0.2,0.9-0.6,0.9-1c0,0,0,0-0.1,0c-0.4,0-0.7-0.2-0.7-0.7c0-0.4,0.3-0.7,0.7-0.7c0.5,0,0.8,0.4,0.8,1.1
			c0,0.9-0.5,1.5-1.4,1.8L226.5,37.7z"/>
		<path d="M228.9,36.2l0.6-0.7c0.2,0.2,0.5,0.4,0.8,0.4c0.6,0,1-0.4,1-1.6c-0.3,0.3-0.7,0.5-1,0.5c-0.9,0-1.5-0.5-1.5-1.6
			s0.8-1.7,1.7-1.7c1,0,1.9,0.7,1.9,2.5c0,1.9-1,2.8-2.1,2.8C229.7,36.8,229.2,36.5,228.9,36.2z M230.6,34c0.3,0,0.6-0.1,0.8-0.5
			c-0.1-0.8-0.4-1.1-0.8-1.1c-0.3,0-0.6,0.2-0.6,0.8C229.9,33.8,230.2,34,230.6,34z"/>
		<path d="M233,36.1l0.5-0.7c0.3,0.3,0.7,0.5,1.1,0.5c0.5,0,0.9-0.3,0.9-0.8s-0.3-0.8-0.8-0.8c-0.3,0-0.4,0.1-0.8,0.3l-0.5-0.3
			l0.1-2.6h2.9v1h-1.9l-0.1,1c0.2-0.1,0.4-0.1,0.6-0.1c0.9,0,1.6,0.5,1.6,1.6s-0.9,1.8-1.9,1.8C233.9,36.8,233.4,36.5,233,36.1z"/>
		<path d="M237.3,34.3c0-1.9,1-2.8,2.1-2.8c0.7,0,1.2,0.3,1.5,0.6l-0.6,0.7c-0.2-0.2-0.5-0.4-0.8-0.4c-0.6,0-1,0.4-1,1.6
			c0.3-0.3,0.7-0.5,1-0.5c0.9,0,1.5,0.5,1.5,1.6s-0.8,1.7-1.7,1.7C238.3,36.8,237.3,36.1,237.3,34.3z M238.4,34.9
			c0.1,0.8,0.4,1.1,0.8,1.1c0.4,0,0.6-0.2,0.6-0.8c0-0.5-0.3-0.7-0.7-0.7C238.9,34.4,238.7,34.5,238.4,34.9z"/>
	</g>
	<g class="st0">
		<path d="M224.6,53.2l0.2-0.2c0.2,0.3,0.5,0.4,0.9,0.4c0.8,0,1.5-0.7,1.5-2.5c-0.4,0.4-0.8,0.7-1.3,0.7c-0.9,0-1.4-0.6-1.4-1.6
			c0-0.9,0.6-1.6,1.4-1.6c1,0,1.7,0.9,1.7,2.4c0,2.1-0.9,2.9-1.9,2.9C225.2,53.7,224.9,53.5,224.6,53.2z M226,51.2
			c0.4,0,0.8-0.2,1.2-0.8c-0.1-1.1-0.5-1.8-1.3-1.8c-0.6,0-1,0.6-1,1.3C224.9,50.7,225.2,51.2,226,51.2z"/>
		<path d="M228.4,54.6c0.4-0.2,0.6-0.5,0.6-1h-0.1c-0.2,0-0.3-0.1-0.3-0.3s0.2-0.3,0.3-0.3c0.2,0,0.4,0.2,0.4,0.6
			c0,0.6-0.3,1-0.8,1.3L228.4,54.6z"/>
		<path d="M230.1,53.3c1.7-1.7,2.5-2.7,2.5-3.5c0-0.6-0.3-1.1-1.1-1.1c-0.5,0-0.9,0.3-1.2,0.7l-0.2-0.2c0.4-0.4,0.8-0.8,1.5-0.8
			c0.9,0,1.4,0.6,1.4,1.4c0,1-0.9,2-2.3,3.5c0.3,0,0.6,0,0.9,0h1.7v0.3h-3.1L230.1,53.3L230.1,53.3z"/>
		<path d="M236.6,48.8h-2.7v-0.3h3.1v0.2c-1.2,1.6-1.5,2.9-1.6,4.9H235C235.2,51.5,235.6,50.2,236.6,48.8z"/>
		<path d="M237.8,51.3c0-2.1,0.9-2.9,1.9-2.9c0.5,0,0.8,0.2,1.1,0.5l-0.2,0.2c-0.2-0.3-0.5-0.4-0.9-0.4c-0.8,0-1.5,0.7-1.5,2.5
			c0.4-0.4,0.8-0.7,1.3-0.7c0.9,0,1.4,0.6,1.4,1.6c0,0.9-0.6,1.6-1.4,1.6C238.5,53.7,237.8,52.8,237.8,51.3z M238.2,51.6
			c0.1,1.1,0.5,1.8,1.3,1.8c0.6,0,1-0.6,1-1.3s-0.3-1.3-1.1-1.3C239.1,50.8,238.6,51,238.2,51.6z"/>
	</g>
	<g class="st0">
		<path d="M224.5,69.1c0-0.7,0.5-1.2,1-1.4l0,0c-0.4-0.2-0.7-0.6-0.7-1.2c0-0.7,0.6-1.2,1.3-1.2c0.9,0,1.4,0.6,1.4,1.3
			c0,0.6-0.4,1.1-0.7,1.3l0,0c0.4,0.3,0.9,0.6,0.9,1.3c0,0.7-0.6,1.3-1.6,1.3C225.2,70.5,224.5,69.9,224.5,69.1z M227.3,69.2
			c0-0.8-0.8-1.1-1.6-1.4c-0.5,0.3-0.9,0.7-0.9,1.3c0,0.6,0.5,1.1,1.3,1.1C226.8,70.2,227.3,69.8,227.3,69.2z M227.1,66.6
			c0-0.6-0.4-1-1-1s-1,0.4-1,1c0,0.7,0.7,1,1.4,1.3C226.9,67.4,227.1,67,227.1,66.6z"/>
		<path d="M228.4,71.4c0.4-0.2,0.6-0.5,0.6-1h-0.1c-0.2,0-0.3-0.1-0.3-0.3s0.2-0.3,0.3-0.3c0.2,0,0.4,0.2,0.4,0.6
			c0,0.6-0.3,1-0.8,1.3L228.4,71.4z"/>
		<path d="M230,69.8l0.2-0.2c0.3,0.3,0.7,0.7,1.4,0.7s1.2-0.4,1.2-1.1S232.3,68,231,68v-0.3c1.2,0,1.6-0.5,1.6-1.1s-0.4-1-1-1
			c-0.5,0-0.9,0.2-1.2,0.6l-0.2-0.2c0.4-0.3,0.8-0.6,1.4-0.6c0.8,0,1.4,0.4,1.4,1.2c0,0.7-0.4,1.1-1,1.3l0,0
			c0.6,0.1,1.2,0.6,1.2,1.3c0,0.9-0.7,1.4-1.6,1.4C230.8,70.5,230.3,70.1,230,69.8z"/>
		<path d="M234.2,70.1h1.2v-4.2h-0.9v-0.2c0.4-0.1,0.7-0.2,1-0.3h0.3v4.8h1.1v0.3h-2.7L234.2,70.1L234.2,70.1z"/>
		<path d="M237.8,68.1c0-2.1,0.9-2.9,1.9-2.9c0.5,0,0.8,0.2,1.1,0.5l-0.2,0.2c-0.2-0.3-0.5-0.4-0.9-0.4c-0.8,0-1.5,0.7-1.5,2.5
			c0.4-0.4,0.8-0.7,1.3-0.7c0.9,0,1.4,0.6,1.4,1.6c0,0.9-0.6,1.6-1.4,1.6C238.5,70.5,237.8,69.6,237.8,68.1z M238.2,68.4
			c0.1,1.1,0.5,1.8,1.3,1.8c0.6,0,1-0.6,1-1.3s-0.3-1.3-1.1-1.3C239.1,67.6,238.6,67.8,238.2,68.4z"/>
	</g>
	<g class="st0">
		<path d="M224.5,85.9c0-0.7,0.5-1.2,1-1.4l0,0c-0.4-0.2-0.7-0.6-0.7-1.2c0-0.7,0.6-1.2,1.3-1.2c0.9,0,1.4,0.6,1.4,1.3
			c0,0.6-0.4,1.1-0.7,1.3l0,0c0.4,0.3,0.9,0.6,0.9,1.3c0,0.7-0.6,1.3-1.6,1.3C225.2,87.4,224.5,86.8,224.5,85.9z M227.3,86
			c0-0.8-0.8-1.1-1.6-1.4c-0.5,0.3-0.9,0.7-0.9,1.3c0,0.6,0.5,1.1,1.3,1.1C226.8,87.1,227.3,86.6,227.3,86z M227.1,83.4
			c0-0.6-0.4-1-1-1s-1,0.4-1,1c0,0.7,0.7,1,1.4,1.3C226.9,84.2,227.1,83.8,227.1,83.4z"/>
		<path d="M228.4,88.3c0.4-0.2,0.6-0.5,0.6-1h-0.1c-0.2,0-0.3-0.1-0.3-0.3s0.2-0.3,0.3-0.3c0.2,0,0.4,0.2,0.4,0.6
			c0,0.6-0.3,1-0.8,1.3L228.4,88.3z"/>
		<path d="M230.4,86.9h1.2v-4.2h-0.9v-0.2c0.4-0.1,0.7-0.2,1-0.3h0.3V87h1.1v0.3h-2.7L230.4,86.9L230.4,86.9z"/>
		<path d="M236.6,82.5h-2.7v-0.3h3.1v0.2c-1.2,1.6-1.5,2.9-1.6,4.9H235C235.2,85.2,235.6,83.9,236.6,82.5z"/>
		<path d="M237.6,86.7l0.2-0.2c0.3,0.3,0.7,0.6,1.4,0.6s1.3-0.6,1.3-1.4s-0.5-1.3-1.2-1.3c-0.4,0-0.6,0.1-1,0.3l-0.2-0.2l0.2-2.4
			h2.4v0.3h-2l-0.2,1.8c0.3-0.2,0.5-0.3,0.9-0.3c0.9,0,1.6,0.5,1.6,1.6s-0.8,1.7-1.6,1.7C238.4,87.4,237.9,87,237.6,86.7z"/>
	</g>
	<g class="st0">
		<path d="M224.5,102.8c0-0.7,0.5-1.2,1-1.4l0,0c-0.4-0.2-0.7-0.6-0.7-1.2c0-0.7,0.6-1.2,1.3-1.2c0.9,0,1.4,0.6,1.4,1.3
			c0,0.6-0.4,1.1-0.7,1.3l0,0c0.4,0.3,0.9,0.6,0.9,1.3c0,0.7-0.6,1.3-1.6,1.3C225.2,104.2,224.5,103.6,224.5,102.8z M227.3,102.9
			c0-0.8-0.8-1.1-1.6-1.4c-0.5,0.3-0.9,0.7-0.9,1.3c0,0.6,0.5,1.1,1.3,1.1C226.8,103.9,227.3,103.4,227.3,102.9z M227.1,100.2
			c0-0.6-0.4-1-1-1s-1,0.4-1,1c0,0.7,0.7,1,1.4,1.3C226.9,101.1,227.1,100.7,227.1,100.2z"/>
		<path d="M228.4,105.1c0.4-0.2,0.6-0.5,0.6-1h-0.1c-0.2,0-0.3-0.1-0.3-0.3s0.2-0.3,0.3-0.3c0.2,0,0.4,0.2,0.4,0.6
			c0,0.6-0.3,1-0.8,1.3L228.4,105.1z"/>
		<path d="M230.4,103.8h1.2v-4.2h-0.9v-0.3c0.4-0.1,0.7-0.2,1-0.3h0.3v4.8h1.1v0.3h-2.7L230.4,103.8L230.4,103.8z"/>
		<path d="M236.6,99.3h-2.7V99h3.1v0.2c-1.2,1.6-1.5,2.9-1.6,4.9H235C235.2,102,235.6,100.7,236.6,99.3z"/>
		<path d="M240.5,99.3h-2.7V99h3.1v0.2c-1.2,1.6-1.5,2.9-1.6,4.9h-0.4C239,102,239.4,100.7,240.5,99.3z"/>
	</g>
	<g class="st0">
		<path d="M4.1,31.5h3.3v1H5.3v1.2h1.8v1H5.3v2H4.1C4.1,36.7,4.1,31.5,4.1,31.5z"/>
	</g>
	<g class="st0">
		<path d="M9.1,34.9l-1.6-3.4h1.3l0.5,1.2c0.1,0.4,0.3,0.8,0.4,1.2l0,0c0.2-0.4,0.3-0.8,0.4-1.2l0.5-1.2h1.2l-1.6,3.4v1.9H9v-1.9
			H9.1z"/>
		<path d="M13.7,36.1c1.3-1.2,2.2-2.1,2.2-2.8c0-0.5-0.3-0.8-0.7-0.8c-0.4,0-0.6,0.2-0.9,0.5l-0.6-0.6c0.5-0.5,1-0.8,1.7-0.8
			c1,0,1.7,0.6,1.7,1.6c0,0.9-0.8,1.8-1.6,2.6c0.3,0,0.6-0.1,0.8-0.1h1v1h-3.6V36.1z"/>
		<path d="M17.9,34.2c0-1.7,0.7-2.6,1.8-2.6s1.8,0.9,1.8,2.6s-0.7,2.7-1.8,2.7S17.9,35.9,17.9,34.2z M20.4,34.2
			c0-1.4-0.3-1.7-0.7-1.7c-0.4,0-0.7,0.3-0.7,1.7s0.3,1.7,0.7,1.7C20.1,35.9,20.4,35.6,20.4,34.2z"/>
		<path d="M22.4,35.8h1.1v-2.9h-1v-0.7c0.6-0.1,0.9-0.2,1.3-0.5h0.9v4.1h1v1h-3.2L22.4,35.8L22.4,35.8z"/>
		<path d="M26.4,36.2l0.6-0.7c0.2,0.2,0.5,0.4,0.8,0.4c0.6,0,1-0.4,1-1.6c-0.3,0.3-0.7,0.5-1,0.5c-0.9,0-1.5-0.5-1.5-1.6
			s0.8-1.7,1.7-1.7c1,0,1.9,0.7,1.9,2.5c0,1.9-1,2.8-2.1,2.8C27.2,36.8,26.7,36.5,26.4,36.2z M28.1,34c0.3,0,0.6-0.1,0.8-0.5
			c-0.1-0.8-0.4-1.1-0.8-1.1c-0.3,0-0.6,0.2-0.6,0.8C27.4,33.8,27.7,34,28.1,34z"/>
	</g>
	<g class="st0">
		<path d="M6.6,48.3h2.9v0.3H7v2.1h2.1V51H7v2.5H6.6V48.3z"/>
	</g>
	<g class="st0">
		<path d="M11.3,51.4l-1.5-3.1h0.4l0.8,1.6c0.2,0.4,0.4,0.8,0.6,1.1l0,0c0.2-0.4,0.4-0.8,0.6-1.1l0.8-1.6h0.4l-1.7,3.1v2.1h-0.4
			V51.4z"/>
		<path d="M15.3,53.3c1.7-1.7,2.5-2.7,2.5-3.5c0-0.6-0.3-1.1-1.1-1.1c-0.5,0-0.9,0.3-1.2,0.7l-0.2-0.2c0.4-0.4,0.8-0.8,1.5-0.8
			c0.9,0,1.4,0.6,1.4,1.4c0,1-0.9,2-2.3,3.5c0.3,0,0.6,0,0.9,0h1.7v0.3h-3.1L15.3,53.3L15.3,53.3z"/>
		<path d="M19.1,51c0-1.7,0.6-2.6,1.5-2.6c1,0,1.5,0.9,1.5,2.6c0,1.7-0.6,2.7-1.5,2.7S19.1,52.7,19.1,51z M21.8,51
			c0-1.6-0.5-2.3-1.2-2.3s-1.2,0.8-1.2,2.3c0,1.6,0.5,2.4,1.2,2.4C21.4,53.4,21.8,52.6,21.8,51z"/>
		<path d="M23.3,53.3h1.2v-4.2h-0.9v-0.2c0.4-0.1,0.7-0.2,1-0.3h0.3v4.7H26v0.3h-2.7C23.3,53.6,23.3,53.3,23.3,53.3z"/>
		<path d="M26.7,52.3c0-0.7,0.5-1.2,1-1.4l0,0c-0.4-0.2-0.7-0.6-0.7-1.2c0-0.7,0.6-1.2,1.3-1.2c0.9,0,1.4,0.6,1.4,1.3
			c0,0.6-0.4,1.1-0.7,1.3l0,0c0.4,0.3,0.9,0.6,0.9,1.3s-0.6,1.3-1.6,1.3C27.4,53.7,26.7,53.1,26.7,52.3z M29.6,52.3
			c0-0.8-0.8-1.1-1.6-1.4c-0.5,0.3-0.9,0.7-0.9,1.3s0.5,1.1,1.3,1.1C29.1,53.4,29.6,52.9,29.6,52.3z M29.4,49.7c0-0.6-0.4-1-1-1
			s-1,0.4-1,1c0,0.7,0.7,1,1.4,1.3C29.2,50.5,29.4,50.2,29.4,49.7z"/>
	</g>
	<g class="st0">
		<path d="M6.6,65.1h2.9v0.3H7v2.1h2.1v0.3H7v2.5H6.6V65.1z"/>
	</g>
	<g class="st0">
		<path d="M11.3,68.3l-1.6-3.1h0.4l0.8,1.6c0.2,0.4,0.4,0.8,0.6,1.1l0,0c0.2-0.4,0.4-0.8,0.6-1.1l0.8-1.6h0.4l-1.6,3.1v2.1h-0.4
			V68.3z"/>
		<path d="M15.3,70.2c1.7-1.7,2.5-2.7,2.5-3.5c0-0.6-0.3-1.1-1.1-1.1c-0.5,0-0.9,0.3-1.2,0.7l-0.2-0.2c0.4-0.4,0.8-0.8,1.5-0.8
			c0.9,0,1.4,0.6,1.4,1.4c0,1-0.9,2-2.3,3.5c0.3,0,0.6,0,0.9,0h1.7v0.3h-3.1L15.3,70.2L15.3,70.2z"/>
		<path d="M19.1,67.8c0-1.7,0.6-2.6,1.5-2.6c1,0,1.5,0.9,1.5,2.6s-0.6,2.7-1.5,2.7S19.1,69.5,19.1,67.8z M21.8,67.8
			c0-1.6-0.5-2.3-1.2-2.3s-1.2,0.8-1.2,2.3c0,1.6,0.5,2.4,1.2,2.4C21.4,70.2,21.8,69.4,21.8,67.8z"/>
		<path d="M23.3,70.1h1.2v-4.2h-0.9v-0.2c0.4-0.1,0.7-0.2,1-0.3h0.3v4.8H26v0.3h-2.7C23.3,70.5,23.3,70.1,23.3,70.1z"/>
		<path d="M29.5,65.6h-2.7v-0.3h3.1v0.2c-1.2,1.6-1.5,2.9-1.6,4.9h-0.4C28,68.4,28.4,67.1,29.5,65.6z"/>
	</g>
	<g class="st0">
		<path d="M6.6,82h2.9v0.3H7v2.1h2.1v0.3H7v2.6H6.6V82z"/>
	</g>
	<g class="st0">
		<path d="M11.3,85.1L9.7,82h0.4l0.8,1.6c0.2,0.4,0.4,0.8,0.6,1.1l0,0c0.2-0.4,0.4-0.8,0.6-1.1l0.8-1.6h0.4l-1.6,3.1v2.2h-0.4V85.1z
			"/>
		<path d="M15.3,87c1.7-1.7,2.5-2.7,2.5-3.5c0-0.6-0.3-1.1-1.1-1.1c-0.5,0-0.9,0.3-1.2,0.7l-0.2-0.2c0.4-0.4,0.8-0.8,1.5-0.8
			c0.9,0,1.4,0.6,1.4,1.4c0,1-0.9,2-2.3,3.5c0.3,0,0.6,0,0.9,0h1.7v0.3h-3.1L15.3,87L15.3,87z"/>
		<path d="M19.1,84.7c0-1.7,0.6-2.6,1.5-2.6c1,0,1.5,0.9,1.5,2.6s-0.6,2.7-1.5,2.7S19.1,86.4,19.1,84.7z M21.8,84.7
			c0-1.6-0.5-2.3-1.2-2.3s-1.2,0.8-1.2,2.3c0,1.6,0.5,2.4,1.2,2.4C21.4,87,21.8,86.2,21.8,84.7z"/>
		<path d="M23.3,86.9h1.2v-4.2h-0.9v-0.2c0.4-0.1,0.7-0.2,1-0.3h0.3V87H26v0.3h-2.7C23.3,87.3,23.3,86.9,23.3,86.9z"/>
		<path d="M26.8,84.9c0-2.1,0.9-2.9,1.9-2.9c0.5,0,0.8,0.2,1.1,0.5l-0.2,0.2c-0.2-0.3-0.5-0.4-0.9-0.4c-0.8,0-1.5,0.7-1.5,2.5
			c0.4-0.4,0.8-0.7,1.3-0.7c0.9,0,1.4,0.6,1.4,1.6c0,0.9-0.6,1.6-1.4,1.6C27.5,87.4,26.8,86.5,26.8,84.9z M27.2,85.2
			c0.1,1.1,0.5,1.8,1.3,1.8c0.6,0,1-0.6,1-1.3s-0.3-1.3-1.1-1.3C28.1,84.5,27.6,84.7,27.2,85.2z"/>
	</g>
	<g class="st0">
		<path d="M6.6,98.8h2.9v0.3H7v2.1h2.1v0.3H7v2.5H6.6V98.8z"/>
	</g>
	<g class="st0">
		<path d="M11.3,102l-1.6-3.1h0.4l0.8,1.6c0.2,0.4,0.4,0.8,0.6,1.1l0,0c0.2-0.4,0.4-0.8,0.6-1.1l0.8-1.6h0.4l-1.6,3.1v2.1h-0.4
			C11.3,104.1,11.3,102,11.3,102z"/>
		<path d="M15.3,103.9c1.7-1.7,2.5-2.7,2.5-3.5c0-0.6-0.3-1.1-1.1-1.1c-0.5,0-0.9,0.3-1.2,0.7l-0.2-0.2c0.4-0.4,0.8-0.8,1.5-0.8
			c0.9,0,1.4,0.6,1.4,1.4c0,1-0.9,2-2.3,3.5c0.3,0,0.6,0,0.9,0h1.7v0.3h-3.1L15.3,103.9L15.3,103.9z"/>
		<path d="M19.1,101.5c0-1.7,0.6-2.6,1.5-2.6c1,0,1.5,0.9,1.5,2.6s-0.6,2.7-1.5,2.7C19.7,104.2,19.1,103.2,19.1,101.5z M21.8,101.5
			c0-1.6-0.5-2.3-1.2-2.3s-1.2,0.8-1.2,2.3c0,1.6,0.5,2.4,1.2,2.4C21.4,103.9,21.8,103.1,21.8,101.5z"/>
		<path d="M23.3,103.8h1.2v-4.2h-0.9v-0.3c0.4-0.1,0.7-0.2,1-0.3h0.3v4.8H26v0.3h-2.7C23.3,104.1,23.3,103.8,23.3,103.8z"/>
		<path d="M26.6,103.5l0.2-0.2c0.3,0.3,0.7,0.6,1.4,0.6s1.3-0.6,1.3-1.4s-0.5-1.3-1.2-1.3c-0.4,0-0.6,0.1-1,0.3l-0.2-0.2l0.2-2.4
			h2.4v0.3h-2l-0.2,1.8c0.3-0.2,0.5-0.3,0.9-0.3c0.9,0,1.6,0.5,1.6,1.6s-0.8,1.7-1.6,1.7C27.4,104.2,27,103.8,26.6,103.5z"/>
	</g>
	<rect x="34.5" y="29.3" class="st2" width="69.5" height="8.9"/>
	<rect x="34.5" y="46.1" class="st3" width="165.8" height="8.9"/>
	<rect x="34.5" y="63" class="st3" width="95.8" height="8.9"/>
	<rect x="34.5" y="79.8" class="st3" width="85.5" height="8.9"/>
	<rect x="34.5" y="96.6" class="st3" width="85.6" height="8.9"/>
</g>
</svg>
