<?xml version="1.0" encoding="utf-8"?>
<!-- Generator: Adobe Illustrator 23.0.3, SVG Export Plug-In . SVG Version: 6.00 Build 0)  -->
<svg version="1.1" id="Layer_1" xmlns="http://www.w3.org/2000/svg" xmlns:xlink="http://www.w3.org/1999/xlink" x="0px" y="0px"
	 viewBox="0 0 496.9 51.5" style="enable-background:new 0 0 496.9 51.5;" xml:space="preserve">
<style type="text/css">
	.st0{fill:#00AE4D;}
	.st1{fill:#FFFFFF;}
	.st2{fill:#A3D4A0;}
	.st3{fill:none;stroke:#939598;stroke-width:0.5;stroke-miterlimit:10;}
	.st4{fill:none;stroke:#939598;stroke-width:0.499;stroke-miterlimit:10;}
</style>
<g>
	<path class="st0" d="M425.5,0.9h70.9v12.4h-70.9V0.9z M354.7,0.9h70.9v12.4h-70.9V0.9z M283.8,0.9h70.9v12.4h-70.9V0.9z"/>
	<path class="st1" d="M0.6,38.2h283.2v12.4H0.6V38.2z M0.6,25.8h283.2v12.4H0.6V25.8z M0.6,13.4h283.2v12.4H0.6V13.4z"/>
	<path class="st2" d="M283.8,38.2h70.9v12.4h-70.9V38.2z M283.8,25.8h70.9v12.4h-70.9V25.8z M283.8,13.4h70.9v12.4h-70.9V13.4z"/>
	<line class="st3" x1="425.5" y1="13.4" x2="496.3" y2="13.4"/>
	<line class="st3" x1="0.6" y1="25.8" x2="283.5" y2="25.8"/>
	<line class="st3" x1="284" y1="25.8" x2="354.3" y2="25.8"/>
	<line class="st3" x1="354.8" y1="25.8" x2="425.3" y2="25.8"/>
	<line class="st3" x1="425.8" y1="25.8" x2="496.3" y2="25.8"/>
	<line class="st3" x1="284" y1="38.2" x2="354.3" y2="38.2"/>
	<line class="st3" x1="354.8" y1="38.2" x2="425.3" y2="38.2"/>
	<line class="st3" x1="425.8" y1="38.2" x2="496.3" y2="38.2"/>
	<line class="st3" x1="283.8" y1="50.6" x2="354.7" y2="50.6"/>
	<line class="st3" x1="354.7" y1="50.6" x2="425.5" y2="50.6"/>
	<line class="st3" x1="425.5" y1="50.6" x2="496.3" y2="50.6"/>
	<line class="st4" x1="425.5" y1="25.8" x2="425.5" y2="13.6"/>
	<line class="st4" x1="425.5" y1="38.2" x2="425.5" y2="25.8"/>
	<line class="st4" x1="425.5" y1="50.4" x2="425.5" y2="38.2"/>
	<line class="st3" x1="425.5" y1="0.9" x2="496.3" y2="0.9"/>
	<line class="st3" x1="0.6" y1="0.9" x2="283.8" y2="0.9"/>
	<line class="st3" x1="283.8" y1="0.9" x2="354.7" y2="0.9"/>
	<line class="st4" x1="283.8" y1="13.1" x2="283.8" y2="1.2"/>
	<line class="st3" x1="354.7" y1="0.9" x2="425.5" y2="0.9"/>
	<line class="st4" x1="354.7" y1="13.1" x2="354.7" y2="1.2"/>
	<line class="st4" x1="425.5" y1="13.1" x2="425.5" y2="1.2"/>
	<line class="st3" x1="354.7" y1="13.4" x2="425.5" y2="13.4"/>
	<line class="st3" x1="0.6" y1="38.2" x2="283.5" y2="38.2"/>
	<line class="st3" x1="283.8" y1="13.4" x2="354.7" y2="13.4"/>
	<line class="st4" x1="283.8" y1="25.8" x2="283.8" y2="13.6"/>
	<line class="st4" x1="354.7" y1="25.8" x2="354.7" y2="13.6"/>
	<line class="st4" x1="283.8" y1="38.2" x2="283.8" y2="25.8"/>
	<line class="st4" x1="354.7" y1="38.2" x2="354.7" y2="25.8"/>
	<line class="st4" x1="283.8" y1="50.4" x2="283.8" y2="38.2"/>
	<line class="st4" x1="354.7" y1="50.4" x2="354.7" y2="38.2"/>
	<line class="st3" x1="0.6" y1="13.4" x2="283.8" y2="13.4"/>
	<line class="st3" x1="0.6" y1="50.6" x2="283.8" y2="50.6"/>
	<g>
		<path class="st1" d="M323.7,4.7h3.7v1.1H325v1.4h2v1.1h-2v2.3h-1.3V4.7L323.7,4.7z"/>
		<path class="st1" d="M329.3,8.4l-1.8-3.8h1.4l0.5,1.4c0.2,0.4,0.3,0.8,0.5,1.3l0,0c0.2-0.5,0.3-0.9,0.5-1.3l0.5-1.4h1.4l-1.8,3.8
			v2.1h-1.3L329.3,8.4L329.3,8.4z"/>
		<path class="st1" d="M334.5,9.8c1.5-1.4,2.5-2.4,2.5-3.2c0-0.6-0.3-0.9-0.8-0.9c-0.4,0-0.7,0.3-1,0.6l-0.7-0.7
			c0.6-0.6,1.1-0.9,1.9-0.9c1.1,0,1.9,0.7,1.9,1.8c0,1-0.9,2-1.8,3c0.3,0,0.7-0.1,1-0.1h1.2v1.1h-4V9.8
			C334.8,9.8,334.5,9.8,334.5,9.8z"/>
		<path class="st1" d="M339.3,7.6c0-1.9,0.8-2.9,2-2.9s2,1,2,2.9s-0.8,3-2,3S339.3,9.6,339.3,7.6z M342,7.6c0-1.6-0.3-1.9-0.8-1.9
			c-0.4,0-0.8,0.4-0.8,1.9c0,1.6,0.4,2,0.8,2C341.8,9.6,342,9.2,342,7.6z"/>
		<path class="st1" d="M344.3,9.5h1.2V6.2h-1.1V5.4c0.6-0.1,1-0.3,1.4-0.5h1v4.6h1.1v1.1h-3.6V9.5z"/>
		<path class="st1" d="M348.8,10l0.7-0.8c0.2,0.2,0.6,0.4,0.9,0.4c0.6,0,1.1-0.5,1.2-1.8c-0.3,0.4-0.8,0.6-1.1,0.6
			c-1,0-1.7-0.6-1.7-1.8c0-1.2,0.9-1.9,1.9-1.9c1.1,0,2.2,0.8,2.2,2.8c0,2.1-1.1,3.1-2.3,3.1C349.8,10.6,349.2,10.3,348.8,10z
			 M350.8,7.4c0.3,0,0.6-0.2,0.9-0.6c-0.1-0.9-0.5-1.2-0.9-1.2c-0.4,0-0.7,0.3-0.7,0.9C350,7.2,350.3,7.4,350.8,7.4z"/>
	</g>
	<g>
		<path class="st1" d="M394.5,4.7h3.7v1.1h-2.4v1.4h2v1.1h-2v2.3h-1.3V4.7L394.5,4.7z"/>
		<path class="st1" d="M400.3,8.4l-1.8-3.8h1.4l0.5,1.4c0.2,0.4,0.3,0.8,0.5,1.3l0,0c0.2-0.5,0.3-0.9,0.5-1.3l0.5-1.4h1.4l-1.8,3.8
			v2.1h-1.3L400.3,8.4L400.3,8.4z"/>
		<path class="st1" d="M405.3,9.8c1.5-1.4,2.5-2.4,2.5-3.2c0-0.6-0.3-0.9-0.8-0.9c-0.4,0-0.7,0.3-1,0.6l-0.7-0.7
			c0.6-0.6,1.1-0.9,1.9-0.9c1.1,0,1.9,0.7,1.9,1.8c0,1-0.9,2-1.8,3c0.3,0,0.7-0.1,1-0.1h1.2v1.1h-4V9.8
			C405.5,9.8,405.3,9.8,405.3,9.8z"/>
		<path class="st1" d="M410.2,7.6c0-1.9,0.8-2.9,2-2.9s2,1,2,2.9s-0.8,3-2,3S410.2,9.6,410.2,7.6z M413,7.6c0-1.6-0.3-1.9-0.8-1.9
			c-0.4,0-0.8,0.4-0.8,1.9c0,1.6,0.4,2,0.8,2C412.7,9.6,413,9.2,413,7.6z"/>
		<path class="st1" d="M415.2,9.5h1.2V6.2h-1.1V5.4c0.6-0.1,1-0.3,1.4-0.5h1v4.6h1.1v1.1h-3.6V9.5z"/>
		<path class="st1" d="M419.7,9.1c0-0.7,0.4-1.1,1-1.4l0,0c-0.4-0.3-0.8-0.7-0.8-1.4c0-1,0.8-1.6,1.8-1.6s1.7,0.6,1.7,1.6
			c0,0.5-0.4,1-0.7,1.3l0,0c0.5,0.3,1,0.7,1,1.5c0,0.9-0.8,1.6-2,1.6C420.5,10.6,419.7,10,419.7,9.1z M422.5,9c0-0.5-0.5-0.7-1.2-1
			c-0.3,0.2-0.4,0.6-0.4,0.9c0,0.5,0.4,0.8,0.9,0.8C422.2,9.7,422.5,9.5,422.5,9z M422.3,6.4c0-0.4-0.3-0.7-0.7-0.7
			c-0.4,0-0.6,0.2-0.6,0.7s0.4,0.7,1,0.9C422.3,6.9,422.3,6.7,422.3,6.4z"/>
	</g>
	<g>
		<path class="st1" d="M457,6.4c0-1.2,0.6-1.9,1.5-1.9c0.9,0,1.5,0.7,1.5,1.9c0,1.2-0.6,1.9-1.5,1.9C457.5,8.3,457,7.6,457,6.4z
			 M459,6.4c0-0.8-0.2-1.1-0.5-1.1S458,5.6,458,6.4c0,0.8,0.2,1.1,0.5,1.1S459,7.2,459,6.4z M461.8,4.5h0.8l-3.2,6.1h-0.8L461.8,4.5
			z M461.3,8.8c0-1.2,0.6-1.9,1.5-1.9c0.9,0,1.5,0.7,1.5,1.9c0,1.2-0.6,1.9-1.5,1.9C461.9,10.7,461.3,9.9,461.3,8.8z M463.3,8.8
			c0-0.8-0.2-1.1-0.5-1.1s-0.5,0.3-0.5,1.1s0.2,1.1,0.5,1.1S463.3,9.6,463.3,8.8z"/>
		<path class="st1" d="M466.5,8.3c0-1.5,1.1-2.3,2.3-2.3c0.5,0,1,0.2,1.3,0.5l-0.6,0.9c-0.2-0.2-0.4-0.3-0.6-0.3c-0.6,0-1,0.5-1,1.3
			s0.4,1.3,1,1.3c0.3,0,0.6-0.1,0.8-0.3l0.5,0.9c-0.4,0.4-1,0.5-1.5,0.5C467.5,10.6,466.5,9.8,466.5,8.3z"/>
		<path class="st1" d="M471,4.2h1.3v1.5l-0.1,0.8c0.3-0.3,0.8-0.6,1.4-0.6c1,0,1.4,0.7,1.4,1.8v2.8h-1.3V7.9c0-0.6-0.2-0.8-0.5-0.8
			s-0.5,0.2-0.8,0.4v3h-1.3V4.2C471.2,4.2,471,4.2,471,4.2z"/>
		<path class="st1" d="M476,9.3c0-0.9,0.7-1.4,2.5-1.6c0-0.4-0.2-0.6-0.7-0.6c-0.4,0-0.7,0.2-1.2,0.4L476,6.6
			c0.6-0.3,1.2-0.6,1.9-0.6c1.1,0,1.8,0.6,1.8,2v2.6h-1.1l-0.1-0.5l0,0c-0.4,0.3-0.8,0.6-1.3,0.6C476.5,10.6,476,10,476,9.3z
			 M478.5,9.2V8.4c-0.9,0.1-1.2,0.4-1.2,0.7c0,0.3,0.2,0.4,0.5,0.4C478,9.6,478.3,9.5,478.5,9.2z"/>
		<path class="st1" d="M480.8,6.1h1.1l0.1,0.6l0,0c0.4-0.4,0.8-0.7,1.4-0.7c1,0,1.4,0.7,1.4,1.8v2.8h-1.3V8c0-0.6-0.2-0.8-0.6-0.8
			c-0.3,0-0.5,0.2-0.8,0.4v3h-1.3L480.8,6.1L480.8,6.1z"/>
		<path class="st1" d="M485.8,11.3c0-0.4,0.2-0.7,0.6-0.9l0,0c-0.2-0.2-0.4-0.4-0.4-0.8c0-0.3,0.2-0.6,0.5-0.8l0,0
			c-0.3-0.2-0.6-0.6-0.6-1.2c0-1.1,0.9-1.6,1.8-1.6c0.3,0,0.5,0,0.7,0.1h1.6v1h-0.7c0.1,0.1,0.1,0.4,0.1,0.6c0,1-0.8,1.5-1.8,1.5
			c-0.2,0-0.3,0-0.5-0.1c-0.1,0.1-0.2,0.2-0.2,0.3c0,0.2,0.2,0.3,0.7,0.3h0.7c1.1,0,1.7,0.3,1.7,1.1c0,0.9-1,1.6-2.5,1.6
			C486.5,12.4,485.8,12.1,485.8,11.3z M488.8,11c0-0.3-0.2-0.4-0.7-0.4h-0.5c-0.3,0-0.5,0-0.6-0.1c-0.2,0.1-0.2,0.3-0.2,0.4
			c0,0.3,0.4,0.5,1,0.5C488.4,11.4,488.8,11.4,488.8,11z M488.3,7.6c0-0.5-0.3-0.7-0.6-0.7s-0.6,0.2-0.6,0.7s0.3,0.7,0.6,0.7
			C488,8.3,488.3,8.1,488.3,7.6z"/>
		<path class="st1" d="M490.5,8.3c0-1.4,1-2.3,2.1-2.3c1.3,0,1.9,0.9,1.9,2.1c0,0.2,0,0.5-0.1,0.6h-2.7c0.1,0.6,0.6,0.9,1.2,0.9
			c0.3,0,0.6-0.1,1-0.3l0.4,0.8c-0.5,0.3-1.1,0.5-1.6,0.5C491.5,10.6,490.5,9.8,490.5,8.3z M493.5,7.8c0-0.5-0.2-0.8-0.7-0.8
			c-0.4,0-0.8,0.3-0.9,0.8H493.5z"/>
	</g>
	<g>
		<path d="M4.2,17h0.4l2.1,5.9H6.3l-0.7-2H3.3l-0.7,2H2.2L4.2,17z M3.3,20.6h2.1L5,19.5c-0.2-0.7-0.5-1.3-0.7-2.1l0,0
			c-0.2,0.7-0.4,1.4-0.7,2.1L3.3,20.6z"/>
		<path d="M6.9,18.6h0.4l1,2.7c0.1,0.4,0.3,0.8,0.4,1.2l0,0c0.1-0.4,0.3-0.8,0.4-1.2l1-2.7h0.4L9,22.9H8.5L6.9,18.6z"/>
		<path d="M11.1,20.8c0-1.4,0.9-2.3,1.9-2.3s1.7,0.7,1.7,2c0,0.1,0,0.2,0,0.3h-3.1c0,1.1,0.7,1.9,1.6,1.9c0.5,0,0.8-0.2,1.2-0.4
			l0.2,0.3c-0.3,0.2-0.7,0.4-1.4,0.4C12,23.1,11.1,22.2,11.1,20.8z M14.3,20.5c0-1.1-0.5-1.7-1.3-1.7c-0.7,0-1.4,0.6-1.5,1.7H14.3z"
			/>
		<path d="M15.8,18.6h0.3v0.8l0,0c0.3-0.5,0.7-0.9,1.2-0.9c0.2,0,0.3,0,0.4,0.1l0.1,0.4c-0.1-0.1-0.2-0.1-0.4-0.1
			c-0.4,0-0.8,0.3-1.2,1.1v2.9h-0.4C15.8,22.9,15.8,18.6,15.8,18.6z"/>
		<path d="M18.4,21.9c0-1,0.9-1.4,2.8-1.6c0-0.7-0.2-1.4-1-1.4c-0.6,0-1.1,0.3-1.4,0.5l-0.2-0.3c0.3-0.2,0.9-0.6,1.6-0.6
			c1,0,1.4,0.7,1.4,1.7V23h-0.3v-0.6l0,0c-0.4,0.4-1,0.7-1.5,0.7C19,23.1,18.4,22.7,18.4,21.9z M21.2,22v-1.5
			c-1.8,0.2-2.4,0.6-2.4,1.3c0,0.6,0.4,0.9,0.9,0.9S20.6,22.5,21.2,22z"/>
		<path d="M22.8,23.8c0-0.4,0.2-0.8,0.6-1l0,0c-0.2-0.1-0.4-0.4-0.4-0.7c0-0.4,0.3-0.7,0.5-0.8l0,0c-0.3-0.2-0.5-0.7-0.5-1.2
			c0-0.9,0.7-1.5,1.5-1.5c0.2,0,0.4,0.1,0.6,0.1h1.5V19h-1c0.3,0.2,0.5,0.6,0.5,1.1c0,0.9-0.7,1.5-1.5,1.5c-0.2,0-0.5-0.1-0.7-0.2
			c-0.2,0.2-0.4,0.3-0.4,0.6s0.2,0.6,0.8,0.6h0.9c1,0,1.4,0.3,1.4,1s-0.8,1.5-2,1.5C23.4,25,22.8,24.6,22.8,23.8z M26.2,23.6
			c0-0.5-0.4-0.7-1-0.7h-0.9c-0.1,0-0.3,0-0.5-0.1c-0.4,0.3-0.6,0.6-0.6,0.9c0,0.5,0.5,0.9,1.4,0.9C25.5,24.7,26.2,24.2,26.2,23.6z
			 M25.6,20c0-0.7-0.5-1.2-1.1-1.2s-1.1,0.5-1.1,1.2s0.5,1.2,1.1,1.2C25.1,21.3,25.6,20.8,25.6,20z"/>
		<path d="M27.1,20.8c0-1.4,0.9-2.3,1.9-2.3s1.7,0.7,1.7,2c0,0.1,0,0.2,0,0.3h-3.1c0,1.1,0.7,1.9,1.6,1.9c0.5,0,0.8-0.2,1.2-0.4
			l0.2,0.3c-0.3,0.2-0.7,0.4-1.4,0.4C28,23.1,27.1,22.2,27.1,20.8z M30.3,20.5c0-1.1-0.5-1.7-1.3-1.7c-0.7,0-1.4,0.6-1.5,1.7H30.3z"
			/>
		<path d="M33.1,22.7l2.6-3.8h-2.3v-0.3h2.8v0.2l-2.5,3.8h2.6V23h-3.2V22.7z"/>
		<path d="M37.1,17.2c0-0.2,0.1-0.4,0.3-0.4s0.3,0.1,0.3,0.4c0,0.2-0.1,0.4-0.3,0.4C37.3,17.6,37.1,17.4,37.1,17.2z M37.3,18.6h0.4
			v4.3h-0.4V18.6z"/>
		<path d="M39.3,18.6h0.3v0.7l0,0c0.4-0.4,0.9-0.8,1.5-0.8c0.9,0,1.3,0.5,1.3,1.7V23H42v-2.7c0-0.9-0.3-1.4-1-1.4
			c-0.5,0-0.9,0.3-1.4,0.8V23h-0.4v-4.4H39.3z"/>
		<path d="M43.8,20.8c0-1.4,0.9-2.3,2-2.3c0.6,0,1,0.3,1.3,0.5l-0.2,0.3c-0.3-0.3-0.6-0.5-1-0.5c-0.9,0-1.6,0.8-1.6,1.9
			s0.6,1.9,1.6,1.9c0.5,0,0.9-0.2,1.2-0.5l0.2,0.3c-0.4,0.3-0.8,0.6-1.4,0.6C44.6,23.1,43.8,22.2,43.8,20.8z"/>
		<path d="M50,17h0.4v5.6h2.7V23H50V17z"/>
		<path d="M54.2,17h0.6l1.2,3.5c0.2,0.4,0.3,0.9,0.5,1.3l0,0c0.2-0.4,0.3-0.9,0.5-1.3l1.2-3.5h0.6v5.9h-0.4V19c0-0.5,0-1.1,0.1-1.6
			l0,0l-0.5,1.4l-1.3,3.5h-0.4l-1.3-3.5l-0.5-1.3l0,0c0,0.5,0.1,1.1,0.1,1.6V23h-0.4C54.2,23,54.2,17,54.2,17z"/>
		<path d="M60.6,17h3.3v0.4H61v2.2h2.4V20H61v2.6h2.9V23h-3.3V17z"/>
		<path d="M66.6,20.8c0-1.4,0.9-2.3,2-2.3c0.6,0,1,0.3,1.3,0.5l-0.2,0.3c-0.3-0.3-0.6-0.5-1-0.5c-0.9,0-1.6,0.8-1.6,1.9
			s0.6,1.9,1.6,1.9c0.5,0,0.9-0.2,1.2-0.5l0.2,0.3c-0.4,0.3-0.8,0.6-1.4,0.6C67.4,23.1,66.6,22.2,66.6,20.8z"/>
		<path d="M70.7,21.9c0-1,0.9-1.4,2.8-1.6c0-0.7-0.2-1.4-1-1.4c-0.6,0-1.1,0.3-1.4,0.5l-0.2-0.3c0.3-0.2,0.9-0.6,1.6-0.6
			c1,0,1.4,0.7,1.4,1.7V23h-0.3v-0.6l0,0c-0.4,0.4-1,0.7-1.5,0.7C71.3,23.1,70.7,22.7,70.7,21.9z M73.5,22v-1.5
			c-1.8,0.2-2.4,0.6-2.4,1.3c0,0.6,0.4,0.9,0.9,0.9S72.9,22.5,73.5,22z"/>
		<path d="M74.9,22.5l0.2-0.3c0.4,0.3,0.8,0.5,1.4,0.5c0.7,0,1-0.4,1-0.9s-0.6-0.8-1.1-1c-0.7-0.2-1.3-0.5-1.3-1.2
			c0-0.6,0.5-1.2,1.4-1.2c0.5,0,0.9,0.2,1.2,0.5l-0.2,0.3c-0.3-0.2-0.6-0.4-1-0.4c-0.7,0-1,0.4-1,0.8c0,0.5,0.5,0.7,1,0.9
			c0.7,0.3,1.4,0.5,1.4,1.3c0,0.6-0.5,1.2-1.5,1.2C75.8,23.1,75.3,22.8,74.9,22.5z"/>
		<path d="M79.1,16.5h0.4v2.8c0.4-0.5,0.9-0.8,1.5-0.8c0.9,0,1.3,0.5,1.3,1.7V23h-0.4v-2.7c0-0.9-0.3-1.4-1-1.4
			c-0.5,0-0.9,0.3-1.4,0.8V23h-0.4V16.5z"/>
		<path d="M85.1,22.5l0.2-0.3c0.4,0.3,0.8,0.5,1.4,0.5c0.7,0,1-0.4,1-0.9s-0.6-0.8-1.1-1c-0.7-0.2-1.3-0.5-1.3-1.2
			c0-0.6,0.5-1.2,1.4-1.2c0.5,0,0.9,0.2,1.2,0.5l-0.2,0.3c-0.3-0.2-0.6-0.4-1-0.4c-0.7,0-1,0.4-1,0.8c0,0.5,0.5,0.7,1,0.9
			c0.7,0.3,1.4,0.5,1.4,1.3c0,0.6-0.5,1.2-1.5,1.2C86,23.1,85.5,22.8,85.1,22.5z"/>
		<path d="M88.9,20.8c0-1.4,0.9-2.3,1.9-2.3s1.7,0.7,1.7,2c0,0.1,0,0.2,0,0.3h-3.1c0,1.1,0.7,1.9,1.6,1.9c0.5,0,0.8-0.2,1.2-0.4
			l0.2,0.3C92.1,22.8,91.7,23,91,23C89.8,23.1,88.9,22.2,88.9,20.8z M92.1,20.5c0-1.1-0.5-1.7-1.3-1.7c-0.7,0-1.4,0.6-1.5,1.7H92.1z
			"/>
		<path d="M93.7,21.8V19H93v-0.3h0.7l0.1-1.3h0.3v1.3h1.3V19h-1.3v2.8c0,0.5,0.1,0.9,0.7,0.9c0.2,0,0.4-0.1,0.5-0.1l0.1,0.3
			c-0.3,0.1-0.5,0.2-0.7,0.2C93.9,23.1,93.7,22.5,93.7,21.8z"/>
		<path d="M96.5,21.8V19h-0.7v-0.3h0.7l0.1-1.3h0.3v1.3h1.3V19h-1.3v2.8c0,0.5,0.1,0.9,0.7,0.9c0.2,0,0.4-0.1,0.5-0.1l0.1,0.3
			c-0.3,0.1-0.5,0.2-0.7,0.2C96.8,23.1,96.5,22.5,96.5,21.8z"/>
		<path d="M99.2,22.4v-5.9h0.4v6c0,0.2,0.1,0.3,0.2,0.3c0,0,0.1,0,0.2,0V23c-0.1,0-0.2,0-0.3,0C99.4,23.1,99.2,22.8,99.2,22.4z"/>
		<path d="M101,20.8c0-1.4,0.9-2.3,1.9-2.3s1.7,0.7,1.7,2c0,0.1,0,0.2,0,0.3h-3.1c0,1.1,0.7,1.9,1.6,1.9c0.5,0,0.8-0.2,1.2-0.4
			l0.2,0.3c-0.3,0.2-0.7,0.4-1.4,0.4C101.9,23.1,101,22.2,101,20.8z M104.2,20.5c0-1.1-0.5-1.7-1.3-1.7c-0.7,0-1.4,0.6-1.5,1.7
			H104.2z"/>
		<path d="M105.7,18.6h0.3v0.7l0,0c0.4-0.4,0.9-0.8,1.4-0.8c0.7,0,1,0.4,1.2,0.9c0.5-0.5,1-0.9,1.5-0.9c0.9,0,1.3,0.5,1.3,1.7V23
			H111v-2.7c0-0.9-0.3-1.4-1-1.4c-0.4,0-0.8,0.3-1.3,0.8V23h-0.4v-2.7c0-0.9-0.3-1.4-1-1.4c-0.4,0-0.8,0.3-1.3,0.8V23h-0.4v-4.4
			H105.7z"/>
		<path d="M112.6,20.8c0-1.4,0.9-2.3,1.9-2.3s1.7,0.7,1.7,2c0,0.1,0,0.2,0,0.3h-3.1c0,1.1,0.7,1.9,1.6,1.9c0.5,0,0.8-0.2,1.2-0.4
			l0.2,0.3c-0.3,0.2-0.7,0.4-1.4,0.4C113.5,23.1,112.6,22.2,112.6,20.8z M115.8,20.5c0-1.1-0.5-1.7-1.3-1.7c-0.7,0-1.4,0.6-1.5,1.7
			H115.8z"/>
		<path d="M117.4,18.6h0.3v0.7l0,0c0.4-0.4,0.9-0.8,1.5-0.8c0.9,0,1.3,0.5,1.3,1.7V23h-0.4v-2.7c0-0.9-0.3-1.4-1-1.4
			c-0.5,0-0.9,0.3-1.4,0.8V23h-0.4L117.4,18.6L117.4,18.6z"/>
		<path d="M122.2,21.8V19h-0.7v-0.3h0.7l0.1-1.3h0.3v1.3h1.3V19h-1.3v2.8c0,0.5,0.1,0.9,0.7,0.9c0.2,0,0.4-0.1,0.5-0.1l0.1,0.3
			c-0.3,0.1-0.5,0.2-0.7,0.2C122.5,23.1,122.2,22.5,122.2,21.8z"/>
		<path d="M126.8,18.6h0.3v0.5l0,0c0.4-0.3,0.9-0.6,1.5-0.6c1.2,0,1.7,0.9,1.7,2.2c0,1.5-0.9,2.3-1.9,2.3c-0.4,0-0.8-0.2-1.3-0.5
			v2.4h-0.4L126.8,18.6L126.8,18.6z M129.9,20.7c0-1.1-0.4-1.9-1.4-1.9c-0.4,0-0.9,0.3-1.4,0.7v2.6c0.5,0.4,0.9,0.6,1.3,0.6
			C129.3,22.7,129.9,21.9,129.9,20.7z"/>
		<path d="M131.6,18.6h0.3v0.8l0,0c0.3-0.5,0.7-0.9,1.2-0.9c0.2,0,0.3,0,0.4,0.1l-0.1,0.4c-0.1-0.1-0.2-0.1-0.4-0.1
			c-0.4,0-0.8,0.3-1.2,1.1v2.9h-0.4v-4.3C131.4,18.6,131.6,18.6,131.6,18.6z"/>
		<path d="M134.4,17.2c0-0.2,0.1-0.4,0.3-0.4s0.3,0.1,0.3,0.4c0,0.2-0.1,0.4-0.3,0.4C134.4,17.6,134.4,17.4,134.4,17.2z M134.4,18.6
			h0.4v4.3h-0.4V18.6z"/>
		<path d="M136.2,20.8c0-1.4,0.9-2.3,2-2.3c0.6,0,1,0.3,1.3,0.5l-0.2,0.3c-0.3-0.3-0.6-0.5-1-0.5c-0.9,0-1.6,0.8-1.6,1.9
			s0.6,1.9,1.6,1.9c0.5,0,0.9-0.2,1.2-0.5l0.2,0.3c-0.4,0.3-0.8,0.6-1.4,0.6C136.9,23.1,136.2,22.2,136.2,20.8z"/>
		<path d="M140.2,20.8c0-1.4,0.9-2.3,1.9-2.3s1.7,0.7,1.7,2c0,0.1,0,0.2,0,0.3h-3.1c0,1.1,0.7,1.9,1.6,1.9c0.5,0,0.8-0.2,1.2-0.4
			l0.2,0.3c-0.3,0.2-0.7,0.4-1.4,0.4C141.1,23.1,140.2,22.2,140.2,20.8z M143.4,20.5c0-1.1-0.5-1.7-1.3-1.7c-0.7,0-1.4,0.6-1.5,1.7
			H143.4z"/>
		<path d="M144.4,22.5l0.2-0.3c0.4,0.3,0.8,0.5,1.4,0.5c0.7,0,1-0.4,1-0.9s-0.6-0.8-1.1-1c-0.7-0.2-1.3-0.5-1.3-1.2
			c0-0.6,0.5-1.2,1.4-1.2c0.5,0,0.9,0.2,1.2,0.5l-0.2,0.3c-0.3-0.2-0.6-0.4-1-0.4c-0.7,0-1,0.4-1,0.8c0,0.5,0.5,0.7,1,0.9
			c0.7,0.3,1.4,0.5,1.4,1.3c0,0.6-0.5,1.2-1.5,1.2C145.4,23.1,144.8,22.8,144.4,22.5z"/>
		<path d="M150.4,20.7V17h0.4v3.6c0,1.6,0.7,2.1,1.6,2.1c0.9,0,1.6-0.5,1.6-2.1V17h0.4v3.7c0,1.9-1,2.4-2,2.4
			C151.4,23.1,150.4,22.5,150.4,20.7z"/>
		<path d="M155.7,22.2l0.3-0.3c0.4,0.5,1.1,0.8,1.7,0.8c0.9,0,1.5-0.5,1.5-1.2s-0.5-1-1.1-1.2l-0.9-0.4c-0.5-0.2-1.2-0.6-1.2-1.5
			s0.7-1.5,1.7-1.5c0.7,0,1.3,0.3,1.6,0.7l-0.2,0.3c-0.4-0.4-0.8-0.6-1.4-0.6c-0.8,0-1.3,0.4-1.3,1.1s0.6,0.9,1,1.1l0.9,0.4
			c0.7,0.3,1.3,0.7,1.3,1.6c0,0.9-0.7,1.6-1.9,1.6C156.8,23.1,156.2,22.7,155.7,22.2z"/>
		<path d="M161.9,23c-0.6,0-1.2-0.4-1.5-0.7l0.2-0.3c0.3,0.3,0.8,0.6,1.4,0.6c0.8,0,1.2-0.5,1.2-1.1c0-1.8-2.6-1.3-2.6-3.1
			c0-0.8,0.5-1.3,1.3-1.4v-0.9h0.4V17c0.6,0,0.9,0.3,1.2,0.6l-0.2,0.3c-0.3-0.3-0.6-0.5-1.2-0.5c-0.6,0-1,0.4-1,1
			c0,1.6,2.6,1,2.6,3.1c0,0.9-0.6,1.4-1.4,1.5v0.9h-0.4V23z"/>
		<path d="M167.1,16.6h0.3l-2.7,7.8h-0.3L167.1,16.6z"/>
		<path d="M168.4,21.8V19h-0.7v-0.3h0.7l0.1-1.3h0.3v1.3h1.3V19h-1.3v2.8c0,0.5,0.1,0.9,0.7,0.9c0.2,0,0.4-0.1,0.5-0.1l0.1,0.3
			c-0.3,0.1-0.5,0.2-0.7,0.2C168.7,23.1,168.4,22.5,168.4,21.8z"/>
	</g>
	<g>
		<path d="M334.3,22.7c1.9-1.9,2.8-3,2.8-4c0-0.7-0.4-1.3-1.3-1.3c-0.5,0-1,0.3-1.3,0.8l-0.3-0.3c0.4-0.5,0.9-0.8,1.6-0.8
			c1,0,1.6,0.6,1.6,1.6c0,1.1-1,2.2-2.6,3.9c0.3,0,0.6,0,1,0h2V23h-3.5L334.3,22.7L334.3,22.7z"/>
		<path d="M338.8,24.1c0.4-0.2,0.7-0.6,0.7-1.1h-0.1c-0.2,0-0.4-0.1-0.4-0.4s0.2-0.4,0.4-0.4c0.3,0,0.5,0.2,0.5,0.6
			c0,0.7-0.4,1.2-0.9,1.5L338.8,24.1z"/>
		<path d="M343.7,17.5h-3v-0.4h3.5v0.2c-1.4,1.8-1.7,3.3-1.8,5.5H342C342,20.6,342.5,19.2,343.7,17.5z"/>
		<path d="M347.3,21.2h-2.6V21l2.7-3.8h0.4v3.7h0.9v0.3h-0.9v1.7h-0.4v-1.7H347.3z M347.3,20.9v-2.1c0-0.3,0-0.7,0-1l0,0
			c-0.1,0.2-0.3,0.5-0.5,0.7l-1.7,2.4C345.2,20.9,347.3,20.9,347.3,20.9z"/>
		<path d="M349.2,22.2l0.2-0.3c0.3,0.4,0.8,0.7,1.6,0.7s1.3-0.5,1.3-1.3s-0.6-1.3-2-1.3v-0.4c1.3,0,1.8-0.6,1.8-1.3
			c0-0.6-0.5-1.1-1.2-1.1c-0.5,0-1,0.3-1.3,0.6l-0.2-0.3c0.4-0.4,0.9-0.7,1.6-0.7c0.9,0,1.6,0.5,1.6,1.4c0,0.8-0.5,1.2-1.1,1.4l0,0
			c0.7,0.2,1.3,0.7,1.3,1.5c0,1-0.8,1.6-1.8,1.6C350,23.1,349.5,22.6,349.2,22.2z"/>
	</g>
	<g>
		<path d="M405,22.2l0.2-0.3c0.3,0.4,0.8,0.7,1.6,0.7c0.8,0,1.3-0.5,1.3-1.3s-0.6-1.3-2-1.3v-0.4c1.3,0,1.8-0.6,1.8-1.3
			c0-0.6-0.5-1.1-1.2-1.1c-0.5,0-1,0.3-1.3,0.6l-0.2-0.3c0.4-0.4,0.9-0.7,1.6-0.7c0.9,0,1.6,0.5,1.6,1.4c0,0.8-0.5,1.2-1.1,1.4l0,0
			c0.7,0.2,1.3,0.7,1.3,1.5c0,1-0.8,1.6-1.8,1.6C406,23.1,405.5,22.6,405,22.2z"/>
		<path d="M409.5,24.1c0.4-0.2,0.7-0.6,0.7-1.1h-0.1c-0.2,0-0.4-0.1-0.4-0.4s0.2-0.4,0.4-0.4c0.3,0,0.5,0.2,0.5,0.6
			c0,0.7-0.4,1.2-0.9,1.5L409.5,24.1z"/>
		<path d="M411.5,20c0-1.9,0.6-3,1.7-3c1.1,0,1.7,1.1,1.7,3c0,1.9-0.6,3-1.7,3C412.2,23.1,411.5,22,411.5,20z M414.5,20
			c0-1.8-0.5-2.6-1.3-2.6S412,18.3,412,20c0,1.8,0.5,2.7,1.3,2.7S414.5,21.8,414.5,20z"/>
		<path d="M415.7,22.3l0.2-0.3c0.3,0.4,0.8,0.7,1.6,0.7s1.4-0.6,1.4-1.5s-0.5-1.5-1.4-1.5c-0.4,0-0.7,0.2-1.1,0.4l-0.3-0.2l0.2-2.7
			h2.7v0.4h-2.3l-0.2,2.1c0.3-0.2,0.6-0.3,1-0.3c1,0,1.8,0.6,1.8,1.8s-0.9,1.9-1.8,1.9C416.5,23.1,416,22.7,415.7,22.3z"/>
		<path d="M423.2,17.5h-3v-0.4h3.5v0.2c-1.4,1.8-1.7,3.3-1.8,5.5h-0.4C421.5,20.6,422,19.2,423.2,17.5z"/>
	</g>
	<g>
		<path d="M476.8,20.5h2v0.4h-2V20.5z"/>
		<path d="M479.8,22.6h1.4v-4.8h-1v-0.3c0.5-0.1,0.8-0.2,1.1-0.4h0.3v5.4h1.3v0.4h-3L479.8,22.6L479.8,22.6z"/>
		<path d="M483.8,20c0-1.9,0.6-3,1.7-3c1.1,0,1.7,1.1,1.7,3c0,1.9-0.6,3-1.7,3C484.4,23,483.8,22,483.8,20z M486.8,20
			c0-1.8-0.5-2.6-1.3-2.6s-1.3,0.9-1.3,2.6c0,1.8,0.5,2.7,1.3,2.7S486.8,21.8,486.8,20z"/>
		<path d="M488,18.8c0-1.2,0.5-1.9,1.3-1.9s1.3,0.7,1.3,1.9s-0.5,1.9-1.3,1.9S488,20,488,18.8z M490.3,18.8c0-1-0.4-1.6-0.9-1.6
			c-0.6,0-0.9,0.6-0.9,1.6s0.4,1.6,0.9,1.6C489.8,20.3,490.3,19.8,490.3,18.8z M492.8,16.9h0.3l-3.3,6.1h-0.4L492.8,16.9z M492,21.2
			c0-1.2,0.5-1.9,1.3-1.9s1.3,0.7,1.3,1.9c0,1.2-0.5,1.9-1.3,1.9C492.5,23.1,492,22.4,492,21.2z M494.3,21.2c0-1-0.4-1.6-0.9-1.6
			c-0.6,0-0.9,0.6-0.9,1.6s0.4,1.6,0.9,1.6S494.3,22.2,494.3,21.2z"/>
	</g>
	<g>
		<path d="M4.2,29.4h0.4l2.1,5.9H6.3l-0.7-2H3.3l-0.7,2H2.2L4.2,29.4z M3.3,33h2.1L5,31.9c-0.2-0.7-0.5-1.3-0.7-2.1l0,0
			c-0.2,0.7-0.4,1.4-0.7,2.1L3.3,33z"/>
		<path d="M6.9,31h0.4l1,2.7c0.1,0.4,0.3,0.8,0.4,1.2l0,0c0.1-0.4,0.3-0.8,0.4-1.2l1-2.7h0.4L9,35.4H8.5L6.9,31z"/>
		<path d="M11.1,33.2c0-1.4,0.9-2.3,1.9-2.3s1.7,0.7,1.7,2c0,0.1,0,0.2,0,0.3h-3.1c0,1.1,0.7,1.9,1.6,1.9c0.5,0,0.8-0.2,1.2-0.4
			l0.2,0.3c-0.3,0.2-0.7,0.4-1.4,0.4C12,35.5,11.1,34.6,11.1,33.2z M14.3,32.9c0-1.1-0.5-1.7-1.3-1.7c-0.7,0-1.4,0.6-1.5,1.7H14.3z"
			/>
		<path d="M15.8,31h0.3v0.8l0,0c0.3-0.5,0.7-0.9,1.2-0.9c0.2,0,0.3,0,0.4,0.1l-0.1,0.4c-0.1-0.1-0.2-0.1-0.4-0.1
			c-0.4,0-0.8,0.3-1.2,1.1v2.9h-0.4V31H15.8z"/>
		<path d="M18.4,34.3c0-1,0.9-1.4,2.8-1.6c0-0.7-0.2-1.4-1-1.4c-0.6,0-1.1,0.3-1.4,0.5l-0.2-0.3c0.3-0.2,0.9-0.6,1.6-0.6
			c1,0,1.4,0.7,1.4,1.7v2.8h-0.3v-0.6l0,0c-0.4,0.4-1,0.7-1.5,0.7C19,35.5,18.4,35.1,18.4,34.3z M21.2,34.4V33
			c-1.8,0.2-2.4,0.6-2.4,1.3c0,0.6,0.4,0.9,0.9,0.9C20.2,35.1,20.6,34.9,21.2,34.4z"/>
		<path d="M22.8,36.2c0-0.4,0.2-0.8,0.6-1l0,0C23.2,35,23,34.8,23,34.5c0-0.4,0.3-0.7,0.5-0.8l0,0C23.2,33.5,23,33,23,32.5
			c0-0.9,0.7-1.5,1.5-1.5c0.2,0,0.4,0.1,0.6,0.1h1.5v0.3h-1c0.3,0.2,0.5,0.6,0.5,1.1c0,0.9-0.7,1.5-1.5,1.5c-0.2,0-0.5-0.1-0.7-0.2
			c-0.2,0.2-0.4,0.3-0.4,0.6s0.2,0.6,0.8,0.6h0.9c1,0,1.4,0.3,1.4,1s-0.8,1.5-2,1.5C23.4,37.4,22.8,37,22.8,36.2z M26.2,36
			c0-0.5-0.4-0.7-1-0.7h-0.9c-0.1,0-0.3,0-0.5-0.1c-0.4,0.3-0.6,0.6-0.6,0.9c0,0.5,0.5,0.9,1.4,0.9C25.5,37.1,26.2,36.6,26.2,36z
			 M25.6,32.5c0-0.7-0.5-1.2-1.1-1.2s-1.1,0.5-1.1,1.2s0.5,1.2,1.1,1.2S25.6,33.2,25.6,32.5z"/>
		<path d="M27.1,33.2c0-1.4,0.9-2.3,1.9-2.3s1.7,0.7,1.7,2c0,0.1,0,0.2,0,0.3h-3.1c0,1.1,0.7,1.9,1.6,1.9c0.5,0,0.8-0.2,1.2-0.4
			l0.2,0.3c-0.3,0.2-0.7,0.4-1.4,0.4C28,35.5,27.1,34.6,27.1,33.2z M30.3,32.9c0-1.1-0.5-1.7-1.3-1.7c-0.7,0-1.4,0.6-1.5,1.7H30.3z"
			/>
		<path d="M33.6,34.8v-5.9H34v6c0,0.2,0.1,0.3,0.2,0.3c0,0,0.1,0,0.2,0l0.1,0.3c-0.1,0-0.2,0-0.3,0C33.8,35.5,33.6,35.3,33.6,34.8z"
			/>
		<path d="M35.4,33.2c0-1.4,0.9-2.3,1.9-2.3s1.7,0.7,1.7,2c0,0.1,0,0.2,0,0.3h-3.1c0,1.1,0.7,1.9,1.6,1.9c0.5,0,0.8-0.2,1.2-0.4
			l0.2,0.3c-0.3,0.2-0.7,0.4-1.4,0.4C36.3,35.5,35.4,34.6,35.4,33.2z M38.6,32.9c0-1.1-0.5-1.7-1.3-1.7c-0.7,0-1.4,0.6-1.5,1.7H38.6
			z"/>
		<path d="M39.8,34.3c0-1,0.9-1.4,2.8-1.6c0-0.7-0.2-1.4-1-1.4c-0.6,0-1.1,0.3-1.4,0.5L40,31.5c0.3-0.2,0.9-0.6,1.6-0.6
			c1,0,1.4,0.7,1.4,1.7v2.8h-0.3v-0.6l0,0c-0.4,0.4-1,0.7-1.5,0.7C40.4,35.5,39.8,35.1,39.8,34.3z M42.6,34.4V33
			c-1.8,0.2-2.4,0.6-2.4,1.3c0,0.6,0.4,0.9,0.9,0.9C41.6,35.1,42.1,34.9,42.6,34.4z"/>
		<path d="M44.2,33.2c0-1.4,0.9-2.3,1.9-2.3c0.5,0,0.9,0.2,1.3,0.5v-0.8v-1.8h0.4v6.5h-0.3v-0.6l0,0c-0.4,0.4-0.8,0.7-1.4,0.7
			C44.9,35.5,44.2,34.7,44.2,33.2z M47.4,34.4v-2.6c-0.5-0.4-0.8-0.6-1.3-0.6c-0.9,0-1.5,0.8-1.5,1.9c0,1.1,0.5,1.9,1.4,1.9
			C46.5,35.1,46.9,34.9,47.4,34.4z"/>
		<path d="M51.3,29.4h0.4V35h2.7v0.4h-3.2L51.3,29.4L51.3,29.4z"/>
		<path d="M55.5,29.4h0.6l1.2,3.5c0.2,0.4,0.3,0.9,0.5,1.3l0,0c0.2-0.4,0.3-0.9,0.4-1.3l1.2-3.5H60v5.9h-0.4v-3.9
			c0-0.5,0-1.1,0.1-1.6l0,0l-0.5,1.3L58,34.7h-0.4l-1.3-3.5l-0.5-1.3l0,0c0,0.5,0.1,1.1,0.1,1.6v3.9h-0.4
			C55.5,35.4,55.5,29.4,55.5,29.4z"/>
		<path d="M61.8,29.4h3.3v0.4h-2.8V32h2.4v0.4h-2.4V35h2.9v0.4h-3.3L61.8,29.4L61.8,29.4z"/>
		<path d="M67.9,33.2c0-1.5,0.9-2.3,2-2.3c0.6,0,1,0.3,1.3,0.5L71,31.7c-0.3-0.3-0.6-0.5-1-0.5c-0.9,0-1.6,0.8-1.6,1.9
			c0,1.1,0.6,1.9,1.6,1.9c0.5,0,0.9-0.2,1.2-0.5l0.2,0.3c-0.4,0.3-0.8,0.6-1.4,0.6C68.7,35.5,67.9,34.6,67.9,33.2z"/>
		<path d="M72,34.3c0-1,0.9-1.4,2.8-1.6c0-0.7-0.2-1.4-1-1.4c-0.6,0-1.1,0.3-1.4,0.5l-0.2-0.3c0.3-0.2,0.9-0.6,1.6-0.6
			c1,0,1.4,0.7,1.4,1.7v2.8h-0.3v-0.6l0,0c-0.4,0.4-1,0.7-1.5,0.7C72.5,35.5,72,35.1,72,34.3z M74.8,34.4V33
			c-1.8,0.2-2.4,0.6-2.4,1.3c0,0.6,0.4,0.9,0.9,0.9C73.8,35.1,74.2,34.9,74.8,34.4z"/>
		<path d="M76.1,34.9l0.2-0.3c0.4,0.3,0.8,0.5,1.4,0.5c0.7,0,1-0.4,1-0.9s-0.6-0.8-1.1-1c-0.7-0.2-1.3-0.5-1.3-1.2
			c0-0.6,0.5-1.2,1.4-1.2c0.5,0,0.9,0.2,1.2,0.5l-0.2,0.3c-0.3-0.2-0.6-0.4-1-0.4c-0.7,0-1,0.4-1,0.8c0,0.5,0.5,0.7,1,0.9
			c0.7,0.3,1.4,0.5,1.4,1.3c0,0.6-0.5,1.2-1.5,1.2C77.1,35.5,76.5,35.2,76.1,34.9z"/>
		<path d="M80.3,28.9h0.4v2.8c0.5-0.5,0.9-0.8,1.5-0.8c0.9,0,1.3,0.5,1.3,1.7v2.8h-0.4v-2.7c0-0.9-0.3-1.4-1-1.4
			c-0.5,0-0.9,0.3-1.4,0.8v3.3h-0.4V28.9z"/>
		<path d="M86.3,34.9l0.2-0.3c0.4,0.3,0.8,0.5,1.4,0.5c0.7,0,1-0.4,1-0.9s-0.6-0.8-1.1-1c-0.7-0.2-1.3-0.5-1.3-1.2
			c0-0.6,0.5-1.2,1.4-1.2c0.5,0,0.9,0.2,1.2,0.5l-0.2,0.3c-0.3-0.2-0.6-0.4-1-0.4c-0.7,0-1,0.4-1,0.8c0,0.5,0.5,0.7,1,0.9
			c0.7,0.3,1.4,0.5,1.4,1.3c0,0.6-0.5,1.2-1.5,1.2C87.3,35.5,86.7,35.2,86.3,34.9z"/>
		<path d="M90.2,33.2c0-1.4,0.9-2.3,1.9-2.3s1.7,0.7,1.7,2c0,0.1,0,0.2,0,0.3h-3.1c0,1.1,0.7,1.9,1.6,1.9c0.5,0,0.8-0.2,1.2-0.4
			l0.2,0.3c-0.3,0.2-0.7,0.4-1.4,0.4C91.1,35.5,90.2,34.6,90.2,33.2z M93.3,32.9c0-1.1-0.5-1.7-1.3-1.7c-0.7,0-1.4,0.6-1.5,1.7H93.3
			z"/>
		<path d="M95,34.2v-2.8h-0.7v-0.3H95l0.1-1.3h0.3V31h1.3v0.3h-1.3v2.8c0,0.5,0.1,0.9,0.7,0.9c0.2,0,0.4-0.1,0.5-0.1l0.1,0.3
			c-0.3,0.1-0.5,0.2-0.7,0.2C95.2,35.5,95,34.9,95,34.2z"/>
		<path d="M97.8,34.2v-2.8h-0.7v-0.3h0.7l0.1-1.3h0.3V31h1.3v0.3h-1.3v2.8c0,0.5,0.1,0.9,0.7,0.9c0.2,0,0.4-0.1,0.5-0.1l0.1,0.3
			c-0.3,0.1-0.5,0.2-0.7,0.2C98,35.5,97.8,34.9,97.8,34.2z"/>
		<path d="M100.5,34.8v-5.9h0.4v6c0,0.2,0.1,0.3,0.2,0.3c0,0,0.1,0,0.2,0l0.1,0.3c-0.1,0-0.2,0-0.3,0
			C100.7,35.5,100.5,35.3,100.5,34.8z"/>
		<path d="M102.3,33.2c0-1.4,0.9-2.3,1.9-2.3s1.7,0.7,1.7,2c0,0.1,0,0.2,0,0.3h-3.1c0,1.1,0.7,1.9,1.6,1.9c0.5,0,0.8-0.2,1.2-0.4
			l0.2,0.3c-0.3,0.2-0.7,0.4-1.4,0.4C103.2,35.5,102.3,34.6,102.3,33.2z M105.4,32.9c0-1.1-0.5-1.7-1.3-1.7c-0.7,0-1.4,0.6-1.5,1.7
			H105.4z"/>
		<path d="M107,31h0.3v0.7l0,0c0.4-0.4,0.9-0.8,1.4-0.8c0.7,0,1,0.4,1.2,0.9c0.5-0.5,1-0.9,1.5-0.9c0.9,0,1.3,0.5,1.3,1.7v2.8h-0.4
			v-2.7c0-0.9-0.3-1.4-1-1.4c-0.4,0-0.8,0.3-1.3,0.8v3.3h-0.4v-2.7c0-0.9-0.3-1.4-1-1.4c-0.4,0-0.8,0.3-1.3,0.8v3.3h-0.3
			C106.9,35.4,106.9,31,107,31z"/>
		<path d="M113.9,33.2c0-1.4,0.9-2.3,1.9-2.3s1.7,0.7,1.7,2c0,0.1,0,0.2,0,0.3h-3.1c0,1.1,0.7,1.9,1.6,1.9c0.5,0,0.8-0.2,1.2-0.4
			l0.2,0.3c-0.3,0.2-0.7,0.4-1.4,0.4C114.8,35.5,113.9,34.6,113.9,33.2z M117.1,32.9c0-1.1-0.5-1.7-1.3-1.7c-0.7,0-1.4,0.6-1.5,1.7
			H117.1z"/>
		<path d="M118.6,31h0.3v0.7l0,0c0.4-0.4,0.9-0.8,1.5-0.8c0.9,0,1.3,0.5,1.3,1.7v2.8h-0.4v-2.7c0-0.9-0.3-1.4-1-1.4
			c-0.5,0-0.9,0.3-1.4,0.8v3.3h-0.4L118.6,31L118.6,31z"/>
		<path d="M123.5,34.2v-2.8h-0.7v-0.3h0.7l0.1-1.3h0.3V31h1.3v0.3h-1.3v2.8c0,0.5,0.1,0.9,0.7,0.9c0.2,0,0.4-0.1,0.5-0.1l0.1,0.3
			c-0.3,0.1-0.5,0.2-0.7,0.2C123.8,35.5,123.5,34.9,123.5,34.2z"/>
		<path d="M128,31h0.3v0.5l0,0c0.4-0.3,0.9-0.6,1.5-0.6c1.2,0,1.7,0.9,1.7,2.2c0,1.5-0.9,2.3-1.9,2.3c-0.4,0-0.8-0.2-1.3-0.5v2.4
			h-0.3C127.9,37.3,127.9,31,128,31z M131.2,33.1c0-1.1-0.4-1.9-1.4-1.9c-0.4,0-0.9,0.3-1.4,0.7v2.6c0.5,0.4,0.9,0.6,1.3,0.6
			C130.6,35.1,131.2,34.3,131.2,33.1z"/>
		<path d="M132.9,31h0.3v0.8l0,0c0.3-0.5,0.7-0.9,1.2-0.9c0.2,0,0.3,0,0.4,0.1l-0.1,0.4c-0.1-0.1-0.2-0.1-0.4-0.1
			c-0.4,0-0.8,0.3-1.2,1.1v2.9h-0.4V31H132.9z"/>
		<path d="M135.6,29.6c0-0.2,0.1-0.4,0.3-0.4s0.3,0.1,0.3,0.4c0,0.2-0.1,0.4-0.3,0.4C135.8,30,135.6,29.9,135.6,29.6z M135.8,31h0.4
			v4.3h-0.4V31z"/>
		<path d="M137.4,33.2c0-1.5,0.9-2.3,2-2.3c0.6,0,1,0.3,1.3,0.5l-0.2,0.3c-0.3-0.3-0.6-0.5-1-0.5c-0.9,0-1.6,0.8-1.6,1.9
			c0,1.1,0.6,1.9,1.6,1.9c0.5,0,0.9-0.2,1.2-0.5l0.2,0.3c-0.4,0.3-0.8,0.6-1.4,0.6C138.3,35.5,137.4,34.6,137.4,33.2z"/>
		<path d="M141.4,33.2c0-1.4,0.9-2.3,1.9-2.3s1.7,0.7,1.7,2c0,0.1,0,0.2,0,0.3h-3.1c0,1.1,0.7,1.9,1.6,1.9c0.5,0,0.8-0.2,1.2-0.4
			l0.2,0.3c-0.3,0.2-0.7,0.4-1.4,0.4C142.4,35.5,141.4,34.6,141.4,33.2z M144.7,32.9c0-1.1-0.5-1.7-1.3-1.7c-0.7,0-1.4,0.6-1.5,1.7
			H144.7z"/>
		<path d="M145.7,34.9l0.2-0.3c0.4,0.3,0.8,0.5,1.4,0.5c0.7,0,1-0.4,1-0.9s-0.6-0.8-1.1-1c-0.7-0.2-1.3-0.5-1.3-1.2
			c0-0.6,0.5-1.2,1.4-1.2c0.5,0,0.9,0.2,1.2,0.5l-0.2,0.3c-0.3-0.2-0.6-0.4-1-0.4c-0.7,0-1,0.4-1,0.8c0,0.5,0.5,0.7,1,0.9
			c0.7,0.3,1.4,0.5,1.4,1.3c0,0.6-0.5,1.2-1.5,1.2C146.6,35.5,146.1,35.2,145.7,34.9z"/>
		<path d="M151.7,33.1v-3.7h0.4V33c0,1.6,0.7,2.1,1.6,2.1c0.9,0,1.6-0.5,1.6-2.1v-3.6h0.4v3.7c0,1.9-1,2.4-2,2.4
			C152.7,35.5,151.7,34.9,151.7,33.1z"/>
		<path d="M156.9,34.6l0.3-0.3c0.4,0.5,1.1,0.8,1.7,0.8c0.9,0,1.5-0.5,1.5-1.2s-0.5-1-1.1-1.2l-0.9-0.4c-0.5-0.2-1.2-0.6-1.2-1.5
			s0.7-1.5,1.7-1.5c0.7,0,1.3,0.3,1.6,0.7l-0.2,0.3c-0.3-0.4-0.8-0.6-1.4-0.6c-0.8,0-1.3,0.4-1.3,1.1c0,0.7,0.6,0.9,1,1.1l0.9,0.4
			c0.7,0.3,1.3,0.7,1.3,1.6s-0.7,1.6-1.9,1.6C158.1,35.5,157.4,35.1,156.9,34.6z"/>
		<path d="M163.3,35.5c-0.6,0-1.2-0.4-1.5-0.7l0.2-0.3c0.3,0.3,0.8,0.6,1.4,0.6c0.8,0,1.2-0.5,1.2-1.1c0-1.8-2.6-1.3-2.6-3.1
			c0-0.8,0.5-1.3,1.3-1.4v-0.9h0.4v0.9c0.6,0,0.9,0.3,1.2,0.6l-0.2,0.3c-0.3-0.3-0.6-0.5-1.2-0.5c-0.6,0-1,0.4-1,1
			c0,1.6,2.6,1,2.6,3.1c0,0.9-0.6,1.4-1.4,1.5v0.9h-0.4V35.5z"/>
		<path d="M168.4,29h0.3l-2.7,7.8h-0.3L168.4,29z"/>
		<path d="M169.7,34.2v-2.8H169v-0.3h0.7l0.1-1.3h0.3V31h1.3v0.3h-1.3v2.8c0,0.5,0.1,0.9,0.7,0.9c0.2,0,0.4-0.1,0.5-0.1l0.1,0.3
			c-0.3,0.1-0.5,0.2-0.7,0.2C169.9,35.5,169.7,34.9,169.7,34.2z"/>
	</g>
	<g>
		<path d="M334.3,35.1c1.9-1.9,2.8-3,2.8-4c0-0.7-0.4-1.3-1.3-1.3c-0.5,0-1,0.3-1.3,0.8l-0.3-0.3c0.4-0.5,0.9-0.8,1.6-0.8
			c1,0,1.6,0.6,1.6,1.6c0,1.1-1,2.2-2.6,3.9c0.3,0,0.6,0,1,0h2v0.4h-3.5L334.3,35.1L334.3,35.1z"/>
		<path d="M338.8,36.5c0.4-0.2,0.7-0.6,0.7-1.1h-0.1c-0.2,0-0.4-0.1-0.4-0.4s0.2-0.4,0.4-0.4c0.3,0,0.5,0.2,0.5,0.6
			c0,0.7-0.4,1.2-0.9,1.5L338.8,36.5z"/>
		<path d="M341,35h1.4v-4.8h-1V30c0.5-0.1,0.8-0.2,1.1-0.4h0.3V35h1.3v0.4h-3L341,35L341,35z"/>
		<path d="M345,35.1c1.9-1.9,2.8-3,2.8-4c0-0.7-0.4-1.3-1.3-1.3c-0.5,0-1,0.3-1.3,0.8l-0.3-0.3c0.4-0.5,0.9-0.8,1.6-0.8
			c1,0,1.6,0.6,1.6,1.6c0,1.1-1,2.2-2.6,3.9c0.3,0,0.6,0,1,0h2v0.4H345V35.1L345,35.1z"/>
		<path d="M349.7,35h1.4v-4.8h-1V30c0.5-0.1,0.8-0.2,1.1-0.4h0.3V35h1.3v0.4h-3L349.7,35L349.7,35z"/>
	</g>
	<g>
		<path d="M405.3,35.1c1.9-1.9,2.8-3,2.8-4c0-0.7-0.4-1.3-1.3-1.3c-0.5,0-1,0.3-1.3,0.8l-0.3-0.3c0.4-0.5,0.9-0.8,1.6-0.8
			c1,0,1.6,0.6,1.6,1.6c0,1.1-1,2.2-2.6,3.9c0.3,0,0.6,0,1,0h2v0.4h-3.5L405.3,35.1L405.3,35.1z"/>
		<path d="M409.5,36.5c0.4-0.2,0.7-0.6,0.7-1.1h-0.1c-0.2,0-0.4-0.1-0.4-0.4s0.2-0.4,0.4-0.4c0.3,0,0.5,0.2,0.5,0.6
			c0,0.7-0.4,1.2-0.9,1.5L409.5,36.5z"/>
		<path d="M411.3,34.7l0.2-0.3c0.3,0.4,0.8,0.7,1.6,0.7c0.8,0,1.3-0.5,1.3-1.3s-0.6-1.3-2-1.3v-0.4c1.3,0,1.8-0.6,1.8-1.3
			c0-0.6-0.5-1.1-1.2-1.1c-0.5,0-1,0.3-1.3,0.6l-0.2-0.3c0.4-0.4,0.9-0.7,1.6-0.7c0.9,0,1.6,0.5,1.6,1.4c0,0.8-0.5,1.2-1.1,1.4l0,0
			c0.7,0.2,1.3,0.7,1.3,1.5c0,1-0.8,1.6-1.8,1.6C412.3,35.5,411.8,35.1,411.3,34.7z"/>
		<path d="M418.8,30h-3v-0.4h3.5v0.2c-1.4,1.8-1.7,3.3-1.8,5.5h-0.4C417.3,33,417.7,31.6,418.8,30z"/>
		<path d="M420.3,34.9l0.2-0.3c0.3,0.3,0.6,0.5,1,0.5c0.9,0,1.7-0.7,1.7-2.8c-0.4,0.5-0.9,0.8-1.5,0.8c-1,0-1.6-0.6-1.6-1.8
			c0-1,0.7-1.8,1.6-1.8c1.1,0,1.9,1,1.9,2.7c0,2.4-1,3.3-2.1,3.3C421,35.5,420.5,35.2,420.3,34.9z M421.8,32.7c0.4,0,1-0.3,1.4-0.9
			c-0.1-1.2-0.5-2-1.5-2c-0.7,0-1.2,0.6-1.2,1.4C420.5,32.1,420.8,32.7,421.8,32.7z"/>
	</g>
	<g>
		<path d="M476.8,32.9h2v0.4h-2V32.9z"/>
		<path d="M479.8,35h1.4v-4.8h-1V30c0.5-0.1,0.8-0.2,1.1-0.4h0.3V35h1.3v0.4h-3L479.8,35L479.8,35z"/>
		<path d="M484.2,35h1.4v-4.8h-1V30c0.5-0.1,0.8-0.2,1.1-0.4h0.3V35h1.3v0.4h-3L484.2,35L484.2,35z"/>
		<path d="M488,31.2c0-1.2,0.5-1.9,1.3-1.9s1.3,0.7,1.3,1.9s-0.5,1.9-1.3,1.9S488,32.4,488,31.2z M490.3,31.2c0-1-0.4-1.6-0.9-1.6
			c-0.6,0-0.9,0.6-0.9,1.6s0.4,1.6,0.9,1.6S490.3,32.2,490.3,31.2z M492.8,29.3h0.3l-3.3,6.1h-0.4L492.8,29.3z M492,33.6
			c0-1.2,0.5-1.9,1.3-1.9s1.3,0.7,1.3,1.9s-0.5,1.9-1.3,1.9S492,34.8,492,33.6z M494.3,33.6c0-1-0.4-1.6-0.9-1.6
			c-0.6,0-0.9,0.6-0.9,1.6s0.4,1.6,0.9,1.6C493.8,35.2,494.3,34.6,494.3,33.6z"/>
	</g>
	<g>
		<path d="M4.2,41.9h0.4l2.1,5.9H6.3l-0.7-2H3.3l-0.7,2H2.2L4.2,41.9z M3.3,45.4h2.1L5,44.3c-0.2-0.7-0.5-1.3-0.7-2.1l0,0
			c-0.2,0.7-0.4,1.4-0.7,2.1L3.3,45.4z"/>
		<path d="M6.9,43.5h0.4l1,2.7c0.1,0.4,0.3,0.8,0.4,1.2l0,0C8.8,47,9,46.6,9.1,46.2l1-2.7h0.4L9,47.8H8.5L6.9,43.5z"/>
		<path d="M11.1,45.6c0-1.4,0.9-2.3,1.9-2.3s1.7,0.7,1.7,2c0,0.1,0,0.2,0,0.3h-3.1c0,1.1,0.7,1.9,1.6,1.9c0.5,0,0.8-0.2,1.2-0.4
			l0.2,0.3c-0.3,0.2-0.7,0.4-1.4,0.4C12,47.9,11.1,47,11.1,45.6z M14.3,45.4c0-1.1-0.5-1.7-1.3-1.7c-0.7,0-1.4,0.6-1.5,1.7H14.3z"/>
		<path d="M15.8,43.5h0.3v0.8l0,0c0.3-0.5,0.7-0.9,1.2-0.9c0.2,0,0.3,0,0.4,0.1l-0.1,0.4c-0.1-0.1-0.2-0.1-0.4-0.1
			c-0.4,0-0.8,0.3-1.2,1.1v2.9h-0.4v-4.3H15.8z"/>
		<path d="M18.4,46.7c0-1,0.9-1.4,2.8-1.6c0-0.7-0.2-1.4-1-1.4c-0.6,0-1.1,0.3-1.4,0.5l-0.2-0.3c0.3-0.2,0.9-0.6,1.6-0.6
			c1,0,1.4,0.7,1.4,1.7v2.8h-0.3v-0.6l0,0c-0.4,0.4-1,0.7-1.5,0.7C19,47.9,18.4,47.5,18.4,46.7z M21.2,46.8v-1.5
			c-1.8,0.2-2.4,0.6-2.4,1.3c0,0.6,0.4,0.9,0.9,0.9C20.2,47.6,20.6,47.3,21.2,46.8z"/>
		<path d="M22.8,48.7c0-0.4,0.2-0.8,0.6-1l0,0C23.2,47.6,23,47.3,23,47c0-0.4,0.3-0.7,0.5-0.8l0,0C23.2,46,23,45.5,23,45
			c0-0.9,0.7-1.5,1.5-1.5c0.2,0,0.4,0.1,0.6,0.1h1.5v0.3h-1c0.3,0.2,0.5,0.6,0.5,1.1c0,0.9-0.7,1.5-1.5,1.5c-0.2,0-0.5-0.1-0.7-0.2
			c-0.2,0.2-0.4,0.3-0.4,0.6s0.2,0.6,0.8,0.6h0.9c1,0,1.4,0.3,1.4,1s-0.8,1.5-2,1.5C23.4,49.9,22.8,49.4,22.8,48.7z M26.2,48.5
			c0-0.5-0.4-0.7-1-0.7h-0.9c-0.1,0-0.3,0-0.5-0.1c-0.4,0.3-0.6,0.6-0.6,0.9c0,0.5,0.5,0.9,1.4,0.9C25.5,49.5,26.2,49,26.2,48.5z
			 M25.6,44.9c0-0.7-0.5-1.2-1.1-1.2s-1.1,0.5-1.1,1.2s0.5,1.2,1.1,1.2S25.6,45.6,25.6,44.9z"/>
		<path d="M27.1,45.6c0-1.4,0.9-2.3,1.9-2.3s1.7,0.7,1.7,2c0,0.1,0,0.2,0,0.3h-3.1c0,1.1,0.7,1.9,1.6,1.9c0.5,0,0.8-0.2,1.2-0.4
			l0.2,0.3c-0.3,0.2-0.7,0.4-1.4,0.4C28,47.9,27.1,47,27.1,45.6z M30.3,45.4c0-1.1-0.5-1.7-1.3-1.7c-0.7,0-1.4,0.6-1.5,1.7H30.3z"/>
		<path d="M33.1,47.3l0.2-0.3c0.4,0.3,0.8,0.5,1.4,0.5c0.7,0,1-0.4,1-0.9s-0.6-0.8-1.1-1c-0.7-0.2-1.3-0.5-1.3-1.2
			c0-0.6,0.5-1.2,1.4-1.2c0.5,0,0.9,0.2,1.2,0.5L35.7,44c-0.3-0.2-0.6-0.4-1-0.4c-0.7,0-1,0.4-1,0.8c0,0.5,0.5,0.7,1,0.9
			c0.7,0.3,1.4,0.5,1.4,1.3c0,0.6-0.5,1.2-1.5,1.2C34,47.9,33.5,47.6,33.1,47.3z"/>
		<path d="M37.2,42.1c0-0.2,0.1-0.4,0.3-0.4s0.3,0.1,0.3,0.4c0,0.2-0.1,0.4-0.3,0.4C37.3,42.4,37.2,42.3,37.2,42.1z M37.3,43.5h0.4
			v4.3h-0.4V43.5z"/>
		<path d="M39.3,47.2v-5.9h0.4v6c0,0.2,0.1,0.3,0.2,0.3c0,0,0.1,0,0.2,0l0.1,0.3c-0.1,0-0.2,0-0.3,0C39.5,47.9,39.3,47.7,39.3,47.2z
			"/>
		<path d="M40.8,43.5h0.4l1,2.7c0.1,0.4,0.3,0.8,0.4,1.2l0,0c0.1-0.4,0.3-0.8,0.4-1.2l1-2.7h0.4l-1.6,4.3h-0.5L40.8,43.5z"/>
		<path d="M45,45.6c0-1.4,0.9-2.3,1.9-2.3s1.7,0.7,1.7,2c0,0.1,0,0.2,0,0.3h-3.1c0,1.1,0.7,1.9,1.6,1.9c0.5,0,0.8-0.2,1.2-0.4
			l0.2,0.3c-0.3,0.2-0.7,0.4-1.4,0.4C45.9,47.9,45,47,45,45.6z M48.2,45.4c0-1.1-0.5-1.7-1.3-1.7c-0.7,0-1.4,0.6-1.5,1.7H48.2z"/>
		<path d="M49.7,43.5H50v0.8l0,0c0.3-0.5,0.7-0.9,1.2-0.9c0.2,0,0.3,0,0.4,0.1l-0.1,0.4c-0.1-0.1-0.2-0.1-0.4-0.1
			c-0.4,0-0.8,0.3-1.2,1.1v2.9h-0.4v-4.3H49.7z"/>
		<path d="M54.4,43.5h0.3V44l0,0c0.4-0.3,0.9-0.6,1.5-0.6c1.2,0,1.7,0.9,1.7,2.2c0,1.5-0.9,2.3-1.9,2.3c-0.4,0-0.8-0.2-1.3-0.5v2.4
			h-0.4v-6.3C54.3,43.5,54.4,43.5,54.4,43.5z M57.6,45.6c0-1.1-0.4-1.9-1.4-1.9c-0.4,0-0.9,0.3-1.4,0.7V47c0.5,0.4,0.9,0.6,1.3,0.6
			C56.9,47.5,57.6,46.7,57.6,45.6z"/>
		<path d="M59.3,43.5h0.3v0.8l0,0c0.3-0.5,0.7-0.9,1.2-0.9c0.2,0,0.3,0,0.4,0.1l-0.1,0.4c-0.1-0.1-0.2-0.1-0.4-0.1
			c-0.4,0-0.8,0.3-1.2,1.1v2.9h-0.4v-4.3C59.1,43.5,59.3,43.5,59.3,43.5z"/>
		<path d="M62,42.1c0-0.2,0.1-0.4,0.3-0.4s0.3,0.1,0.3,0.4c0,0.2-0.1,0.4-0.3,0.4C62.1,42.4,62,42.3,62,42.1z M62.1,43.5h0.4v4.3
			h-0.4V43.5z"/>
		<path d="M63.8,45.6c0-1.4,0.9-2.3,2-2.3c0.6,0,1,0.3,1.3,0.5l-0.2,0.3c-0.3-0.3-0.6-0.5-1-0.5c-0.9,0-1.6,0.8-1.6,1.9
			c0,1.1,0.6,1.9,1.6,1.9c0.5,0,0.9-0.2,1.2-0.5l0.2,0.3c-0.4,0.3-0.8,0.6-1.4,0.6C64.7,47.9,63.8,47.1,63.8,45.6z"/>
		<path d="M67.9,45.6c0-1.4,0.9-2.3,1.9-2.3s1.7,0.7,1.7,2c0,0.1,0,0.2,0,0.3h-3.1c0,1.1,0.7,1.9,1.6,1.9c0.5,0,0.8-0.2,1.2-0.4
			l0.2,0.3c-0.3,0.2-0.7,0.4-1.4,0.4C68.8,47.9,67.9,47,67.9,45.6z M71,45.4c0-1.1-0.5-1.7-1.3-1.7c-0.7,0-1.4,0.6-1.5,1.7H71z"/>
		<path d="M72,47.3l0.2-0.3c0.4,0.3,0.8,0.5,1.4,0.5c0.7,0,1-0.4,1-0.9s-0.6-0.8-1.1-1c-0.7-0.2-1.3-0.5-1.3-1.2
			c0-0.6,0.5-1.2,1.4-1.2c0.5,0,0.9,0.2,1.2,0.5L74.6,44c-0.3-0.2-0.6-0.4-1-0.4c-0.7,0-1,0.4-1,0.8c0,0.5,0.5,0.7,1,0.9
			c0.7,0.3,1.4,0.5,1.4,1.3c0,0.6-0.5,1.2-1.5,1.2C73,47.9,72.4,47.6,72,47.3z"/>
		<path d="M78.1,45.5v-3.7h0.4v3.6c0,1.6,0.7,2.1,1.6,2.1s1.6-0.5,1.6-2.1v-3.6h0.4v3.7c0,1.9-1,2.4-2,2.4
			C79,47.9,78.1,47.4,78.1,45.5z"/>
		<path d="M83.3,47l0.3-0.3c0.4,0.5,1.1,0.8,1.7,0.8c0.9,0,1.5-0.5,1.5-1.2s-0.5-1-1.1-1.2l-0.9-0.4c-0.5-0.2-1.2-0.6-1.2-1.5
			s0.7-1.5,1.7-1.5c0.7,0,1.3,0.3,1.6,0.7l-0.2,0.3c-0.4-0.4-0.8-0.6-1.4-0.6c-0.8,0-1.3,0.4-1.3,1.1c0,0.7,0.6,0.9,1,1.1l0.9,0.4
			c0.7,0.3,1.3,0.7,1.3,1.6s-0.7,1.6-1.9,1.6C84.5,47.9,83.8,47.5,83.3,47z"/>
		<path d="M89.6,47.9c-0.6,0-1.2-0.4-1.5-0.7l0.2-0.3c0.3,0.3,0.8,0.6,1.4,0.6c0.8,0,1.2-0.5,1.2-1.1c0-1.8-2.6-1.3-2.6-3.1
			c0-0.8,0.5-1.3,1.3-1.4V41H90v0.9c0.6,0,0.9,0.3,1.2,0.6L91,42.8c-0.3-0.3-0.6-0.5-1.2-0.5s-1,0.4-1,1c0,1.6,2.6,1,2.6,3.1
			c0,0.9-0.6,1.4-1.4,1.5v0.9h-0.4V47.9z"/>
		<path d="M94.7,41.4H95l-2.7,7.8H92L94.7,41.4z"/>
		<path d="M95.6,45.6c0-1.4,0.9-2.3,1.9-2.3s1.9,0.8,1.9,2.3c0,1.4-0.9,2.3-1.9,2.3S95.6,47.1,95.6,45.6z M99.1,45.6
			c0-1.1-0.7-1.9-1.5-1.9c-0.9,0-1.5,0.8-1.5,1.9c0,1.1,0.6,1.9,1.5,1.9C98.4,47.5,99.1,46.8,99.1,45.6z"/>
		<path d="M100.7,46.2v-2.8h0.4v2.7c0,0.9,0.3,1.4,1,1.4c0.5,0,0.9-0.3,1.4-0.9v-3.2h0.4v4.3h-0.3V47l0,0c-0.4,0.5-0.9,0.8-1.5,0.8
			C101.1,47.9,100.7,47.4,100.7,46.2z"/>
		<path d="M105.5,43.5h0.3v0.7l0,0c0.4-0.4,0.9-0.8,1.5-0.8c0.9,0,1.3,0.5,1.3,1.7v2.8h-0.4v-2.7c0-0.9-0.3-1.4-1-1.4
			c-0.5,0-0.9,0.3-1.4,0.8v3.3h-0.4L105.5,43.5L105.5,43.5z"/>
		<path d="M109.9,45.6c0-1.4,0.9-2.3,2-2.3c0.6,0,1,0.3,1.3,0.5l-0.2,0.3c-0.3-0.3-0.6-0.5-1-0.5c-0.9,0-1.6,0.8-1.6,1.9
			c0,1.1,0.6,1.9,1.6,1.9c0.5,0,0.9-0.2,1.2-0.5l0.2,0.3c-0.4,0.3-0.8,0.6-1.4,0.6C110.8,47.9,109.9,47.1,109.9,45.6z"/>
		<path d="M114,45.6c0-1.4,0.9-2.3,1.9-2.3s1.7,0.7,1.7,2c0,0.1,0,0.2,0,0.3h-3.1c0,1.1,0.7,1.9,1.6,1.9c0.5,0,0.8-0.2,1.2-0.4
			l0.2,0.3c-0.3,0.2-0.7,0.4-1.4,0.4C114.9,47.9,114,47,114,45.6z M117.2,45.4c0-1.1-0.5-1.7-1.3-1.7c-0.7,0-1.4,0.6-1.5,1.7H117.2z
			"/>
	</g>
	<g>
		<path d="M339,47.4h1.4v-4.8h-1v-0.3c0.5-0.1,0.8-0.2,1.1-0.4h0.3v5.4h1.3v0.4h-3L339,47.4L339,47.4z"/>
		<path d="M342.8,47.1l0.2-0.3c0.3,0.4,0.8,0.7,1.6,0.7c0.8,0,1.4-0.6,1.4-1.5s-0.5-1.5-1.4-1.5c-0.4,0-0.7,0.2-1.1,0.4l-0.3-0.2
			l0.2-2.7h2.7v0.4h-2.3l-0.2,2.1c0.3-0.2,0.6-0.3,1-0.3c1,0,1.8,0.6,1.8,1.8s-0.9,1.9-1.8,1.9S343.2,47.5,342.8,47.1z"/>
		<path d="M347.5,47.5c0-0.3,0.2-0.4,0.4-0.4s0.4,0.2,0.4,0.4c0,0.3-0.2,0.4-0.4,0.4C347.7,47.9,347.5,47.7,347.5,47.5z"/>
		<path d="M351.7,46.1H349v-0.2l2.7-3.8h0.4v3.7h0.9v0.3h-0.9v1.7h-0.4L351.7,46.1L351.7,46.1z M351.7,45.7v-2.1c0-0.3,0-0.7,0-1
			l0,0c-0.1,0.2-0.3,0.5-0.5,0.7l-1.7,2.4C349.5,45.7,351.7,45.7,351.7,45.7z"/>
	</g>
	<g>
		<path d="M410,47.4h1.3v-4.8h-1v-0.3c0.5-0.1,0.8-0.2,1.1-0.4h0.3v5.4h1.3v0.4h-3L410,47.4L410,47.4z"/>
		<path d="M414,45.2c0-2.4,1-3.3,2.1-3.3c0.5,0,0.9,0.2,1.2,0.6l-0.2,0.3c-0.3-0.3-0.6-0.5-1-0.5c-0.9,0-1.7,0.7-1.7,2.8
			c0.4-0.5,0.9-0.8,1.4-0.8c1,0,1.6,0.6,1.6,1.8c0,1-0.7,1.8-1.6,1.8C414.7,47.9,414,46.9,414,45.2z M414.3,45.5
			c0.1,1.2,0.5,2,1.5,2c0.7,0,1.2-0.6,1.2-1.5s-0.4-1.4-1.2-1.4C415.3,44.7,414.8,44.9,414.3,45.5z"/>
		<path d="M418.3,47.5c0-0.3,0.2-0.4,0.4-0.4s0.4,0.2,0.4,0.4c0,0.3-0.2,0.4-0.4,0.4C418.5,47.9,418.3,47.7,418.3,47.5z"/>
		<path d="M420.3,47.3l0.2-0.3c0.3,0.3,0.6,0.5,1,0.5c0.9,0,1.7-0.7,1.7-2.8c-0.4,0.5-0.9,0.8-1.5,0.8c-1,0-1.6-0.6-1.6-1.8
			c0-1,0.7-1.8,1.6-1.8c1.1,0,1.9,1,1.9,2.7c0,2.4-1,3.3-2.1,3.3C421,47.9,420.5,47.7,420.3,47.3z M421.8,45.2c0.4,0,1-0.3,1.4-0.9
			c-0.1-1.2-0.5-2-1.5-2c-0.7,0-1.2,0.6-1.2,1.4C420.5,44.6,420.8,45.2,421.8,45.2z"/>
	</g>
	<g>
		<path d="M481,45.4h2v0.4h-2V45.4z"/>
		<path d="M483.8,47.3L484,47c0.3,0.3,0.6,0.5,1,0.5c0.9,0,1.7-0.7,1.7-2.8c-0.4,0.5-0.9,0.8-1.5,0.8c-1,0-1.6-0.6-1.6-1.8
			c0-1,0.7-1.8,1.6-1.8c1.1,0,1.9,1,1.9,2.7c0,2.4-1,3.3-2.1,3.3C484.5,47.9,484.2,47.7,483.8,47.3z M485.3,45.2
			c0.4,0,1-0.3,1.4-0.9c-0.1-1.2-0.5-2-1.5-2c-0.7,0-1.2,0.6-1.2,1.4C484.2,44.6,484.5,45.2,485.3,45.2z"/>
		<path d="M488,43.6c0-1.2,0.5-1.9,1.3-1.9s1.3,0.7,1.3,1.9s-0.5,1.9-1.3,1.9S488,44.8,488,43.6z M490.3,43.6c0-1-0.4-1.6-0.9-1.6
			c-0.6,0-0.9,0.6-0.9,1.6s0.4,1.6,0.9,1.6C489.8,45.2,490.3,44.6,490.3,43.6z M492.8,41.7h0.3l-3.3,6.1h-0.4L492.8,41.7z M492,46
			c0-1.2,0.5-1.9,1.3-1.9s1.3,0.7,1.3,1.9s-0.5,1.9-1.3,1.9S492,47.2,492,46z M494.3,46c0-1-0.4-1.6-0.9-1.6c-0.6,0-0.9,0.6-0.9,1.6
			s0.4,1.6,0.9,1.6S494.3,47,494.3,46z"/>
	</g>
</g>
</svg>
