<?xml version="1.0" encoding="utf-8"?>
<!-- Generator: Adobe Illustrator 23.0.3, SVG Export Plug-In . SVG Version: 6.00 Build 0)  -->
<svg version="1.1" id="Layer_1" xmlns="http://www.w3.org/2000/svg" xmlns:xlink="http://www.w3.org/1999/xlink" x="0px" y="0px"
	 viewBox="0 0 395 166.6" style="enable-background:new 0 0 395 166.6;" xml:space="preserve">
<style type="text/css">
	.st0{fill:none;stroke:#000000;stroke-width:0.25;}
	.st1{fill:#ABD693;}
</style>
<g>
	<g>
		<path d="M1.7,6.7l0.8-1C3,6.1,3.6,6.4,4.1,6.4C4.7,6.4,5,6.2,5,5.8C5,5.4,4.6,5.3,4.1,5L3.3,4.6C2.6,4.3,2,3.8,2,2.8
			c0-1.1,1-1.9,2.3-1.9c0.7,0,1.5,0.3,2.1,0.9L5.6,2.7C5.2,2.3,4.8,2.1,4.3,2.1S3.5,2.4,3.5,2.7c0,0.4,0.4,0.5,1,0.8l0.8,0.3
			c0.8,0.3,1.3,0.8,1.3,1.8c0,1.1-0.9,2-2.5,2C3.3,7.6,2.4,7.3,1.7,6.7z"/>
		<path d="M7.5,1H9v6.5H7.5V1z"/>
		<path d="M10.3,1h1.5v5.3h2.6v1.2h-4V1H10.3z"/>
		<path d="M13.7,1h1.6l0.8,3c0.2,0.7,0.3,1.4,0.5,2.1l0,0c0.2-0.7,0.3-1.4,0.5-2.1l0.8-3h1.5l-2,6.5h-1.8L13.7,1z"/>
		<path d="M19.9,1H24v1.2h-2.6v1.3h2.2v1.2h-2.2v1.5h2.7v1.2h-4.2C19.9,7.4,19.9,1,19.9,1z"/>
		<path d="M25.2,1h2.3C28.9,1,30,1.5,30,3c0,1-0.5,1.6-1.2,1.9l1.5,2.6h-1.6l-1.2-2.3h-0.8v2.3h-1.5C25.2,7.5,25.2,1,25.2,1z
			 M27.4,4c0.8,0,1.2-0.3,1.2-1s-0.4-0.8-1.2-0.8h-0.8V4H27.4z"/>
		<path d="M32.9,1h2.2c1.4,0,2.6,0.5,2.6,2.1c0,1.5-1.2,2.2-2.5,2.2h-0.8v2.2h-1.5V1z M35.1,4.1c0.8,0,1.2-0.4,1.2-1
			s-0.4-0.9-1.2-0.9h-0.7v2h0.7V4.1z"/>
		<path d="M38.7,1H41c1.4,0,2.5,0.5,2.5,2c0,1-0.5,1.6-1.2,1.9l1.5,2.6h-1.6L41,5.2h-0.8v2.3h-1.5V1z M40.9,4c0.8,0,1.2-0.3,1.2-1
			s-0.4-0.8-1.2-0.8h-0.8V4H40.9z"/>
		<path d="M44.6,1h1.5v6.5h-1.5V1z"/>
		<path d="M47.1,4.3c0-2.2,1.4-3.4,3.1-3.4c0.8,0,1.5,0.4,2,0.8l-0.8,0.9c-0.3-0.3-0.7-0.5-1.1-0.5c-0.9,0-1.6,0.8-1.6,2.1
			s0.6,2.1,1.6,2.1c0.5,0,0.9-0.3,1.3-0.6l0.8,0.9c-0.5,0.6-1.3,1-2.1,1C48.5,7.6,47.1,6.5,47.1,4.3z"/>
		<path d="M53.1,1h4.1v1.2h-2.6v1.3h2.2v1.2h-2.2v1.5h2.7v1.2h-4.2V1z"/>
		<path d="M61.4,2.2h-1.8V1h5.1v1.2h-1.8v5.3h-1.5C61.4,7.5,61.4,2.2,61.4,2.2z"/>
		<path d="M65.5,1h2.3c1.4,0,2.5,0.5,2.5,2c0,1-0.5,1.6-1.2,1.9l1.5,2.6H69l-1.2-2.3H67v2.3h-1.5V1z M67.8,4C68.6,4,69,3.7,69,3
			s-0.5-0.8-1.2-0.8H67V4H67.8z"/>
		<path d="M71.5,1h4.1v1.2H73v1.3h2.2v1.2H73v1.5h2.7v1.2h-4.2V1z"/>
		<path d="M76.8,1h1.5L80,4.2l0.6,1.4l0,0c-0.1-0.7-0.2-1.6-0.2-2.4V1h1.4v6.5h-1.5l-1.7-3.2L78,2.9l0,0c0.1,0.7,0.2,1.6,0.2,2.4
			v2.3h-1.4V1z"/>
		<path d="M83.2,1H85c2,0,3.3,1,3.3,3.2S87,7.5,85.1,7.5h-1.9C83.2,7.5,83.2,1,83.2,1z M85,6.3c1.1,0,1.8-0.5,1.8-2.1s-0.7-2-1.8-2
			h-0.3v4.1H85z"/>
		<path d="M89,6.7l0.8-1c0.5,0.4,1.1,0.7,1.6,0.7c0.6,0,0.9-0.2,0.9-0.6c0-0.4-0.4-0.5-0.9-0.8l-0.8-0.4c-0.7-0.3-1.3-0.8-1.3-1.8
			c0-1.1,1-1.9,2.3-1.9c0.7,0,1.5,0.3,2.1,0.9l-0.8,0.9c-0.4-0.3-0.8-0.5-1.3-0.5s-0.8,0.2-0.8,0.6c0,0.4,0.4,0.5,1,0.8l0.8,0.3
			c0.8,0.3,1.3,0.8,1.3,1.8c0,1.1-0.9,2-2.5,2C90.5,7.6,89.6,7.3,89,6.7z"/>
	</g>
	<g>
		<path d="M1.9,13.7c0-1.1,0.3-2.1,0.9-2.9L3,10.9c-0.5,0.8-0.8,1.8-0.8,2.8s0.3,2,0.8,2.8l-0.2,0.2C2.3,15.8,1.9,14.9,1.9,13.7z"/>
		<path d="M4.6,15.6c-0.4,0-0.8-0.3-1.1-0.5l0.2-0.2c0.2,0.2,0.6,0.5,1,0.5c0.5,0,0.8-0.3,0.8-0.8c0-1.3-1.9-0.9-1.9-2.2
			c0-0.5,0.4-0.9,0.9-1v-0.6h0.3v0.6c0.4,0,0.7,0.2,0.9,0.5l-0.2,0.2c-0.2-0.2-0.4-0.4-0.8-0.4c-0.4,0-0.8,0.3-0.8,0.7
			c0,1.1,1.9,0.8,1.9,2.2c0,0.6-0.4,1-1,1.1v0.5H4.6V15.6z"/>
		<path d="M6.5,16.5c0.5-0.8,0.8-1.8,0.8-2.8s-0.3-2-0.8-2.8l0.2-0.1c0.5,0.9,0.9,1.8,0.9,2.9s-0.3,2.1-0.9,2.9L6.5,16.5z"/>
	</g>
	<line class="st0" x1="1.4" y1="21.1" x2="393.6" y2="21.1"/>
	<g>
		<path d="M4,37.9h1.2v-4.2H4.3v-0.2c0.4-0.1,0.7-0.2,1-0.3h0.3V38h1.1v0.2H4V37.9z"/>
		<path d="M10.2,33.4H7.5v-0.3h3.1v0.2c-1.2,1.6-1.5,2.9-1.6,4.9H8.6C8.8,36.2,9.2,34.9,10.2,33.4z"/>
		<path d="M11.5,38c0-0.2,0.2-0.4,0.3-0.4c0.2,0,0.3,0.1,0.3,0.4c0,0.2-0.2,0.4-0.3,0.4C11.7,38.3,11.5,38.2,11.5,38z"/>
		<path d="M13,37.7l0.2-0.2c0.3,0.3,0.7,0.6,1.4,0.6c0.7,0,1.3-0.6,1.3-1.4c0-0.8-0.5-1.3-1.2-1.3c-0.4,0-0.6,0.1-1,0.3l-0.2-0.2
			l0.2-2.4h2.4v0.3h-2l-0.2,1.8c0.3-0.2,0.5-0.3,0.9-0.3c0.9,0,1.6,0.5,1.6,1.6s-0.8,1.7-1.6,1.7C13.8,38.3,13.3,38,13,37.7z"/>
	</g>
	<g>
		<path d="M9.6,54.5h1.2v-4.2H9.9v-0.2c0.4-0.1,0.7-0.2,1-0.3h0.3v4.8h1.1v0.3H9.6V54.5z"/>
		<path d="M15.8,50.1h-2.7v-0.3h3.1V50c-1.2,1.6-1.5,2.9-1.6,4.9h-0.4C14.3,52.8,14.8,51.5,15.8,50.1z"/>
	</g>
	<g>
		<path d="M4,71.2h1.2V67H4.3v-0.2c0.4-0.1,0.7-0.2,1-0.3h0.3v4.7h1.1v0.3H4V71.2z"/>
		<path d="M7.6,69.2c0-2.1,0.9-2.9,1.9-2.9c0.5,0,0.8,0.2,1.1,0.5L10.4,67c-0.2-0.3-0.5-0.4-0.9-0.4c-0.8,0-1.5,0.7-1.5,2.5
			c0.4-0.4,0.8-0.7,1.3-0.7c0.9,0,1.4,0.6,1.4,1.6c0,0.9-0.6,1.6-1.4,1.6C8.2,71.6,7.6,70.7,7.6,69.2z M8,69.5
			c0.1,1.1,0.5,1.8,1.3,1.8c0.6,0,1-0.6,1-1.3s-0.3-1.3-1.1-1.3C8.8,68.7,8.4,68.9,8,69.5z"/>
		<path d="M11.5,71.2c0-0.2,0.2-0.4,0.3-0.4c0.2,0,0.3,0.1,0.3,0.4c0,0.2-0.2,0.4-0.3,0.4C11.7,71.6,11.5,71.4,11.5,71.2z"/>
		<path d="M13,70.9l0.2-0.2c0.3,0.3,0.7,0.6,1.4,0.6c0.7,0,1.3-0.6,1.3-1.4s-0.5-1.3-1.2-1.3c-0.4,0-0.6,0.1-1,0.3l-0.2-0.2l0.2-2.4
			h2.4v0.3h-2l-0.2,1.8c0.3-0.2,0.5-0.3,0.9-0.3c0.9,0,1.6,0.5,1.6,1.6s-0.8,1.7-1.6,1.7C13.8,71.6,13.3,71.2,13,70.9z"/>
	</g>
	<g>
		<path d="M9.6,87.8h1.2v-4.2H9.9v-0.2c0.4-0.1,0.7-0.2,1-0.3h0.3v4.8h1.1v0.3H9.6V87.8z"/>
		<path d="M13.2,85.8c0-2.1,0.9-2.9,1.9-2.9c0.5,0,0.8,0.2,1.1,0.5L16,83.6c-0.2-0.3-0.5-0.4-0.9-0.4c-0.8,0-1.5,0.7-1.5,2.5
			c0.4-0.4,0.8-0.7,1.3-0.7c0.9,0,1.4,0.6,1.4,1.6c0,0.9-0.6,1.6-1.4,1.6C13.8,88.2,13.2,87.3,13.2,85.8z M13.5,86.1
			c0.1,1.1,0.5,1.8,1.3,1.8c0.6,0,1-0.6,1-1.3c0-0.7-0.3-1.3-1.1-1.3C14.4,85.3,14,85.5,13.5,86.1z"/>
	</g>
	<g>
		<path d="M4,104.4h1.2v-4.2H4.3V100c0.4-0.1,0.7-0.2,1-0.3h0.3v4.8h1.1v0.3H4V104.4z"/>
		<path d="M7.4,104.1l0.2-0.2c0.3,0.3,0.7,0.6,1.4,0.6s1.3-0.6,1.3-1.4s-0.5-1.3-1.2-1.3c-0.4,0-0.6,0.1-1,0.3l-0.2-0.2l0.2-2.4h2.4
			v0.3h-2l-0.2,1.8c0.3-0.2,0.5-0.3,0.9-0.3c0.9,0,1.6,0.5,1.6,1.6s-0.8,1.7-1.6,1.7C8.2,104.8,7.7,104.4,7.4,104.1z"/>
		<path d="M11.5,104.4c0-0.2,0.2-0.4,0.3-0.4c0.2,0,0.3,0.1,0.3,0.4c0,0.2-0.2,0.4-0.3,0.4C11.7,104.8,11.5,104.7,11.5,104.4z"/>
		<path d="M13,104.1l0.2-0.2c0.3,0.3,0.7,0.6,1.4,0.6c0.7,0,1.3-0.6,1.3-1.4s-0.5-1.3-1.2-1.3c-0.4,0-0.6,0.1-1,0.3l-0.2-0.2
			l0.2-2.4h2.4v0.3h-2l-0.2,1.8c0.3-0.2,0.5-0.3,0.9-0.3c0.9,0,1.6,0.5,1.6,1.6s-0.8,1.7-1.6,1.7C13.8,104.8,13.3,104.4,13,104.1z"
			/>
	</g>
	<g>
		<path d="M9.6,121h1.2v-4.2H9.9v-0.2c0.4-0.1,0.7-0.2,1-0.3h0.3v4.8h1.1v0.3H9.6V121z"/>
		<path d="M13,120.7l0.2-0.2c0.3,0.3,0.7,0.6,1.4,0.6c0.7,0,1.3-0.6,1.3-1.4s-0.5-1.3-1.2-1.3c-0.4,0-0.6,0.1-1,0.3l-0.2-0.2
			l0.2-2.4h2.4v0.3h-2l-0.2,1.8c0.3-0.2,0.5-0.3,0.9-0.3c0.9,0,1.6,0.5,1.6,1.6s-0.8,1.7-1.6,1.7C13.8,121.4,13.3,121.1,13,120.7z"
			/>
	</g>
	<g>
		<path d="M4,137.6h1.2v-4.2H4.3v-0.2c0.4-0.1,0.7-0.2,1-0.3h0.3v4.8h1.1v0.3H4V137.6z"/>
		<path d="M9.6,136.4H7.2v-0.2l2.4-3.4h0.3v3.3h0.9v0.3H10v1.5H9.7L9.6,136.4L9.6,136.4z M9.6,136.1v-1.9c0-0.2,0-0.6,0-0.9l0,0
			c-0.1,0.2-0.3,0.4-0.4,0.6L7.7,136L9.6,136.1L9.6,136.1z"/>
		<path d="M11.5,137.7c0-0.2,0.2-0.4,0.3-0.4c0.2,0,0.3,0.1,0.3,0.4c0,0.2-0.2,0.4-0.3,0.4C11.7,138,11.5,137.9,11.5,137.7z"/>
		<path d="M13,137.3l0.2-0.2c0.3,0.3,0.7,0.6,1.4,0.6c0.7,0,1.3-0.6,1.3-1.4c0-0.8-0.5-1.3-1.2-1.3c-0.4,0-0.6,0.1-1,0.3l-0.2-0.2
			l0.2-2.4h2.4v0.3h-2l-0.2,1.8c0.3-0.2,0.5-0.3,0.9-0.3c0.9,0,1.6,0.5,1.6,1.6s-0.8,1.7-1.6,1.7C13.8,138,13.3,137.7,13,137.3z"/>
	</g>
	<g>
		<path d="M9.6,154.2h1.2V150H9.9v-0.2c0.4-0.1,0.7-0.2,1-0.3h0.3v4.8h1.1v0.3H9.6V154.2z"/>
		<path d="M15.2,153h-2.4v-0.2l2.4-3.4h0.3v3.3h0.8v0.3h-0.8v1.5h-0.3V153z M15.2,152.7v-1.9c0-0.2,0-0.6,0-0.9l0,0
			c-0.1,0.2-0.3,0.4-0.4,0.6l-1.5,2.1L15.2,152.7L15.2,152.7z"/>
	</g>
	<g>
		<path d="M20.1,163l0.3-0.2c0.3,0.4,0.6,0.6,1,0.6c0.6,0,0.9-0.4,0.9-1.2v-3.8h0.4v3.8c0,0.8-0.4,1.5-1.3,1.5
			C20.8,163.8,20.4,163.5,20.1,163z"/>
		<path d="M23.9,162.7c0-0.8,0.8-1.3,2.5-1.4c0-0.6-0.2-1.2-0.9-1.2c-0.5,0-1,0.3-1.2,0.4l-0.2-0.3c0.3-0.2,0.8-0.5,1.4-0.5
			c0.9,0,1.2,0.7,1.2,1.5v2.5h-0.3v-0.5l0,0c-0.4,0.3-0.9,0.6-1.4,0.6C24.4,163.8,23.9,163.5,23.9,162.7z M26.4,162.9v-1.3
			c-1.6,0.2-2.1,0.6-2.1,1.2c0,0.6,0.4,0.8,0.8,0.8C25.5,163.5,25.9,163.3,26.4,162.9z"/>
		<path d="M28.1,159.9h0.3v0.6l0,0c0.4-0.4,0.8-0.7,1.3-0.7c0.8,0,1.2,0.5,1.2,1.5v2.5h-0.4v-2.4c0-0.8-0.3-1.2-0.9-1.2
			c-0.5,0-0.8,0.2-1.3,0.7v2.9h-0.4v-3.9H28.1z"/>
		<path d="M32,161.6h1.8v0.3H32V161.6z"/>
		<path d="M34.7,163.4h1.2v-4.2H35V159c0.4-0.1,0.7-0.2,1-0.3h0.3v4.8h1.1v0.3h-2.7C34.7,163.8,34.7,163.4,34.7,163.4z"/>
		<path d="M38.2,162.4c0-0.7,0.5-1.2,1-1.4l0,0c-0.4-0.2-0.7-0.6-0.7-1.2c0-0.7,0.6-1.2,1.3-1.2c0.9,0,1.4,0.6,1.4,1.3
			c0,0.6-0.4,1.1-0.7,1.3l0,0c0.4,0.3,0.9,0.6,0.9,1.3s-0.6,1.3-1.6,1.3C38.9,163.8,38.2,163.2,38.2,162.4z M41,162.5
			c0-0.8-0.8-1.1-1.6-1.4c-0.5,0.3-0.9,0.7-0.9,1.3s0.5,1.1,1.3,1.1C40.5,163.5,41,163,41,162.5z M40.9,159.8c0-0.6-0.4-1-1-1
			s-1,0.4-1,1c0,0.7,0.7,1,1.4,1.3C40.6,160.7,40.9,160.3,40.9,159.8z"/>
	</g>
	<g>
		<path d="M45.6,158.4h2.9v0.3H46v2.1h2.1v0.3H46v2.5h-0.4V158.4z"/>
		<path d="M49,161.8c0-1.3,0.8-2,1.7-2s1.5,0.6,1.5,1.8c0,0.1,0,0.2,0,0.3h-2.8c0,1,0.6,1.7,1.4,1.7c0.4,0,0.7-0.1,1-0.3l0.1,0.3
			c-0.3,0.2-0.6,0.4-1.2,0.4C49.7,163.8,49,163,49,161.8z M51.8,161.5c0-1-0.4-1.5-1.1-1.5c-0.7,0-1.2,0.6-1.3,1.5H51.8z"/>
		<path d="M53.5,163.3L53.5,163.3l-0.1,0.4h-0.3V158h0.4v1.7v0.8c0.4-0.3,0.9-0.6,1.3-0.6c1,0,1.5,0.8,1.5,2c0,1.3-0.8,2.1-1.7,2.1
			C54.3,163.8,53.8,163.6,53.5,163.3z M55.9,161.7c0-0.9-0.3-1.6-1.2-1.6c-0.4,0-0.8,0.2-1.3,0.6v2.3c0.4,0.4,0.8,0.5,1.1,0.5
			C55.4,163.5,55.9,162.8,55.9,161.7z"/>
		<path d="M57.1,161.6h1.8v0.3h-1.8V161.6z"/>
		<path d="M59.8,163.4H61v-4.2h-0.9V159c0.4-0.1,0.7-0.2,1-0.3h0.3v4.8h1.1v0.3h-2.7V163.4z"/>
		<path d="M63.3,162.4c0-0.7,0.5-1.2,1-1.4l0,0c-0.4-0.2-0.7-0.6-0.7-1.2c0-0.7,0.6-1.2,1.3-1.2c0.9,0,1.4,0.6,1.4,1.3
			c0,0.6-0.4,1.1-0.7,1.3l0,0c0.4,0.3,0.9,0.6,0.9,1.3s-0.6,1.3-1.6,1.3C64,163.8,63.3,163.2,63.3,162.4z M66.1,162.5
			c0-0.8-0.8-1.1-1.6-1.4c-0.5,0.3-0.9,0.7-0.9,1.3s0.5,1.1,1.3,1.1C65.6,163.5,66.1,163,66.1,162.5z M65.9,159.8c0-0.6-0.4-1-1-1
			s-1,0.4-1,1c0,0.7,0.7,1,1.4,1.3C65.7,160.7,65.9,160.3,65.9,159.8z"/>
	</g>
	<g>
		<path d="M70.7,158.4h0.5l1.1,3.1c0.1,0.4,0.3,0.8,0.4,1.2l0,0c0.1-0.4,0.3-0.8,0.4-1.2l1.1-3.1h0.6v5.3h-0.4v-3.5c0-0.4,0-1,0-1.4
			l0,0L74,160l-1.1,3.1h-0.3l-1.1-3.1l-0.4-1.2l0,0c0,0.4,0,1,0,1.4v3.5h-0.3L70.7,158.4L70.7,158.4z"/>
		<path d="M76,162.7c0-0.8,0.8-1.3,2.5-1.4c0-0.6-0.2-1.2-0.9-1.2c-0.5,0-1,0.3-1.2,0.4l-0.2-0.3c0.3-0.2,0.8-0.5,1.4-0.5
			c0.9,0,1.2,0.7,1.2,1.5v2.5h-0.3v-0.5l0,0c-0.4,0.3-0.9,0.6-1.4,0.6C76.5,163.8,76,163.5,76,162.7z M78.5,162.9v-1.3
			c-1.6,0.2-2.1,0.6-2.1,1.2c0,0.6,0.4,0.8,0.8,0.8C77.6,163.5,78,163.3,78.5,162.9z"/>
		<path d="M80.2,159.9h0.3v0.7l0,0c0.3-0.5,0.6-0.8,1.1-0.8c0.1,0,0.3,0,0.4,0.1l-0.1,0.3c-0.1,0-0.2-0.1-0.4-0.1
			c-0.3,0-0.8,0.3-1,1v2.6h-0.4L80.2,159.9L80.2,159.9z"/>
		<path d="M82.1,161.6h1.8v0.3h-1.8V161.6z"/>
		<path d="M84.8,163.4H86v-4.2h-0.9V159c0.4-0.1,0.7-0.2,1-0.3h0.3v4.8h1.1v0.3h-2.7V163.4z"/>
		<path d="M88.3,162.4c0-0.7,0.5-1.2,1-1.4l0,0c-0.4-0.2-0.7-0.6-0.7-1.2c0-0.7,0.6-1.2,1.3-1.2c0.9,0,1.4,0.6,1.4,1.3
			c0,0.6-0.4,1.1-0.7,1.3l0,0c0.4,0.3,0.9,0.6,0.9,1.3s-0.6,1.3-1.6,1.3C89,163.8,88.3,163.2,88.3,162.4z M91.1,162.5
			c0-0.8-0.8-1.1-1.6-1.4c-0.5,0.3-0.9,0.7-0.9,1.3s0.5,1.1,1.3,1.1C90.7,163.5,91.1,163,91.1,162.5z M91,159.8c0-0.6-0.4-1-1-1
			s-1,0.4-1,1c0,0.7,0.7,1,1.4,1.3C90.7,160.7,91,160.3,91,159.8z"/>
	</g>
	<g>
		<path d="M97.3,158.4h0.4l1.9,5.3h-0.4l-0.6-1.8h-2.1l-0.6,1.8h-0.4L97.3,158.4z M96.6,161.6h1.9l-0.3-1c-0.2-0.6-0.4-1.2-0.6-1.8
			l0,0c-0.2,0.6-0.4,1.2-0.6,1.8L96.6,161.6z"/>
		<path d="M100.4,159.9h0.3v0.5l0,0c0.4-0.3,0.8-0.6,1.3-0.6c1,0,1.5,0.8,1.5,2c0,1.3-0.8,2.1-1.7,2.1c-0.4,0-0.8-0.2-1.2-0.5v2.1
			h-0.4v-5.6H100.4z M103.2,161.7c0-0.9-0.3-1.6-1.2-1.6c-0.4,0-0.8,0.2-1.3,0.6v2.3c0.4,0.4,0.8,0.5,1.1,0.5
			C102.6,163.5,103.2,162.8,103.2,161.7z"/>
		<path d="M104.7,159.9h0.3v0.7l0,0c0.3-0.5,0.6-0.8,1.1-0.8c0.1,0,0.3,0,0.4,0.1l-0.1,0.3c-0.1,0-0.2-0.1-0.4-0.1
			c-0.3,0-0.8,0.3-1,1v2.6h-0.4L104.7,159.9L104.7,159.9z"/>
		<path d="M106.7,161.6h1.8v0.3h-1.8V161.6z"/>
		<path d="M109.4,163.4h1.2v-4.2h-0.9V159c0.4-0.1,0.7-0.2,1-0.3h0.3v4.8h1.1v0.3h-2.7V163.4z"/>
		<path d="M112.9,162.4c0-0.7,0.5-1.2,1-1.4l0,0c-0.4-0.2-0.7-0.6-0.7-1.2c0-0.7,0.6-1.2,1.3-1.2c0.9,0,1.4,0.6,1.4,1.3
			c0,0.6-0.4,1.1-0.7,1.3l0,0c0.4,0.3,0.9,0.6,0.9,1.3s-0.6,1.3-1.6,1.3C113.6,163.8,112.9,163.2,112.9,162.4z M115.7,162.5
			c0-0.8-0.8-1.1-1.6-1.4c-0.5,0.3-0.9,0.7-0.9,1.3s0.5,1.1,1.3,1.1C115.2,163.5,115.7,163,115.7,162.5z M115.6,159.8
			c0-0.6-0.4-1-1-1s-1,0.4-1,1c0,0.7,0.7,1,1.4,1.3C115.3,160.7,115.6,160.3,115.6,159.8z"/>
	</g>
	<g>
		<path d="M120.2,158.4h0.5l1.1,3.1c0.1,0.4,0.3,0.8,0.4,1.2l0,0c0.1-0.4,0.3-0.8,0.4-1.2l1.1-3.1h0.5v5.3h-0.4v-3.5
			c0-0.4,0-1,0-1.4l0,0l-0.4,1.2l-1.1,3.1H122l-1.1-3.1l-0.4-1.2l0,0c0,0.4,0,1,0,1.4v3.5h-0.3L120.2,158.4L120.2,158.4z"/>
		<path d="M125.5,162.7c0-0.8,0.8-1.3,2.5-1.4c0-0.6-0.2-1.2-0.9-1.2c-0.5,0-1,0.3-1.2,0.4l-0.2-0.3c0.3-0.2,0.8-0.5,1.4-0.5
			c0.9,0,1.2,0.7,1.2,1.5v2.5H128v-0.5l0,0c-0.4,0.3-0.9,0.6-1.4,0.6C126,163.8,125.5,163.5,125.5,162.7z M128,162.9v-1.3
			c-1.6,0.2-2.1,0.6-2.1,1.2c0,0.6,0.4,0.8,0.8,0.8C127.1,163.5,127.5,163.3,128,162.9z"/>
		<path d="M129.2,165.4l0.1-0.3c0.1,0,0.2,0.1,0.3,0.1c0.5,0,0.8-0.4,1-1l0.1-0.3l-1.6-3.9h0.4l0.9,2.4c0.1,0.3,0.3,0.7,0.4,1.1l0,0
			c0.1-0.3,0.2-0.8,0.4-1.1l0.8-2.4h0.4l-1.5,4.3c-0.2,0.6-0.6,1.3-1.3,1.3C129.4,165.5,129.3,165.4,129.2,165.4z"/>
		<path d="M132.8,161.6h1.8v0.3h-1.8V161.6z"/>
		<path d="M135.5,163.4h1.2v-4.2h-0.9V159c0.4-0.1,0.7-0.2,1-0.3h0.3v4.8h1.1v0.3h-2.7L135.5,163.4L135.5,163.4z"/>
		<path d="M139,162.4c0-0.7,0.5-1.2,1-1.4l0,0c-0.4-0.2-0.7-0.6-0.7-1.2c0-0.7,0.6-1.2,1.3-1.2c0.9,0,1.4,0.6,1.4,1.3
			c0,0.6-0.4,1.1-0.7,1.3l0,0c0.4,0.3,0.9,0.6,0.9,1.3s-0.6,1.3-1.6,1.3C139.7,163.8,139,163.2,139,162.4z M141.8,162.5
			c0-0.8-0.8-1.1-1.6-1.4c-0.5,0.3-0.9,0.7-0.9,1.3s0.5,1.1,1.3,1.1C141.4,163.5,141.8,163,141.8,162.5z M141.7,159.8
			c0-0.6-0.4-1-1-1s-1,0.4-1,1c0,0.7,0.7,1,1.4,1.3C141.4,160.7,141.7,160.3,141.7,159.8z"/>
	</g>
	<g>
		<path d="M145.2,163l0.3-0.2c0.3,0.4,0.6,0.6,1,0.6c0.6,0,0.9-0.4,0.9-1.2v-3.8h0.4v3.8c0,0.8-0.4,1.5-1.3,1.5
			C145.9,163.8,145.5,163.5,145.2,163z"/>
		<path d="M149.3,162.3v-2.5h0.4v2.4c0,0.8,0.3,1.2,0.9,1.2c0.5,0,0.8-0.2,1.2-0.8v-2.8h0.4v3.8h-0.4V163l0,0
			c-0.4,0.4-0.8,0.7-1.3,0.7C149.6,163.8,149.3,163.3,149.3,162.3z"/>
		<path d="M153.6,159.9h0.3v0.6l0,0c0.4-0.4,0.8-0.7,1.3-0.7c0.8,0,1.2,0.5,1.2,1.5v2.5H156v-2.4c0-0.8-0.3-1.2-0.9-1.2
			c-0.5,0-0.8,0.2-1.3,0.7v2.9h-0.4v-3.9H153.6z"/>
		<path d="M157.4,161.6h1.8v0.3h-1.8V161.6z"/>
		<path d="M160.2,163.4h1.2v-4.2h-0.9V159c0.4-0.1,0.7-0.2,1-0.3h0.3v4.8h1.1v0.3h-2.7L160.2,163.4L160.2,163.4z"/>
		<path d="M163.6,162.4c0-0.7,0.5-1.2,1-1.4l0,0c-0.4-0.2-0.7-0.6-0.7-1.2c0-0.7,0.6-1.2,1.3-1.2c0.9,0,1.4,0.6,1.4,1.3
			c0,0.6-0.4,1.1-0.7,1.3l0,0c0.4,0.3,0.9,0.6,0.9,1.3s-0.6,1.3-1.6,1.3C164.3,163.8,163.6,163.2,163.6,162.4z M166.4,162.5
			c0-0.8-0.8-1.1-1.6-1.4c-0.5,0.3-0.9,0.7-0.9,1.3s0.5,1.1,1.3,1.1C166,163.5,166.4,163,166.4,162.5z M166.3,159.8c0-0.6-0.4-1-1-1
			s-1,0.4-1,1c0,0.7,0.7,1,1.4,1.3C166.1,160.7,166.3,160.3,166.3,159.8z"/>
	</g>
	<g>
		<path d="M171.5,163l0.3-0.2c0.3,0.4,0.6,0.6,1,0.6c0.6,0,0.9-0.4,0.9-1.2v-3.8h0.4v3.8c0,0.8-0.4,1.5-1.3,1.5
			C172.2,163.8,171.7,163.5,171.5,163z"/>
		<path d="M175.5,162.3v-2.5h0.4v2.4c0,0.8,0.3,1.2,0.9,1.2c0.5,0,0.8-0.2,1.2-0.8v-2.8h0.4v3.8h-0.3V163l0,0
			c-0.4,0.4-0.8,0.7-1.3,0.7C175.9,163.8,175.5,163.3,175.5,162.3z"/>
		<path d="M179.8,163.2V158h0.4v5.3c0,0.2,0.1,0.2,0.2,0.2h0.1l0.1,0.3c-0.1,0-0.1,0-0.3,0C180,163.8,179.8,163.6,179.8,163.2z"/>
		<path d="M181.3,161.6h1.8v0.3h-1.8V161.6z"/>
		<path d="M184,163.4h1.2v-4.2h-0.9V159c0.4-0.1,0.7-0.2,1-0.3h0.3v4.8h1.1v0.3H184L184,163.4L184,163.4z"/>
		<path d="M187.5,162.4c0-0.7,0.5-1.2,1-1.4l0,0c-0.4-0.2-0.7-0.6-0.7-1.2c0-0.7,0.6-1.2,1.3-1.2c0.9,0,1.4,0.6,1.4,1.3
			c0,0.6-0.4,1.1-0.7,1.3l0,0c0.4,0.3,0.9,0.6,0.9,1.3s-0.6,1.3-1.6,1.3C188.2,163.8,187.5,163.2,187.5,162.4z M190.3,162.5
			c0-0.8-0.8-1.1-1.6-1.4c-0.5,0.3-0.9,0.7-0.9,1.3s0.5,1.1,1.3,1.1C189.8,163.5,190.3,163,190.3,162.5z M190.2,159.8
			c0-0.6-0.4-1-1-1s-1,0.4-1,1c0,0.7,0.7,1,1.4,1.3C189.9,160.7,190.2,160.3,190.2,159.8z"/>
	</g>
	<g>
		<path d="M196.9,158.4h0.4l1.9,5.3h-0.4l-0.6-1.8h-2.1l-0.6,1.8h-0.4L196.9,158.4z M196.1,161.6h1.9l-0.3-1
			c-0.2-0.6-0.4-1.2-0.6-1.8l0,0c-0.2,0.6-0.4,1.2-0.6,1.8L196.1,161.6z"/>
		<path d="M199.8,162.3v-2.5h0.4v2.4c0,0.8,0.3,1.2,0.9,1.2c0.5,0,0.8-0.2,1.2-0.8v-2.8h0.4v3.8h-0.3V163l0,0
			c-0.4,0.4-0.8,0.7-1.3,0.7C200.2,163.8,199.8,163.3,199.8,162.3z"/>
		<path d="M203.8,164.5c0-0.3,0.2-0.7,0.6-0.9l0,0c-0.2-0.1-0.3-0.3-0.3-0.6s0.2-0.6,0.4-0.7l0,0c-0.2-0.2-0.5-0.6-0.5-1.1
			c0-0.8,0.6-1.4,1.4-1.4c0.2,0,0.4,0,0.5,0.1h1.3v0.3h-0.9c0.2,0.2,0.4,0.6,0.4,1c0,0.8-0.6,1.4-1.3,1.4c-0.2,0-0.5-0.1-0.6-0.2
			c-0.2,0.1-0.3,0.3-0.3,0.6s0.2,0.5,0.7,0.5h0.8c0.9,0,1.3,0.3,1.3,0.9c0,0.7-0.7,1.3-1.8,1.3C204.4,165.5,203.8,165.1,203.8,164.5
			z M206.8,164.3c0-0.4-0.3-0.6-0.9-0.6h-0.8c-0.1,0-0.3,0-0.5-0.1c-0.4,0.2-0.5,0.5-0.5,0.8c0,0.5,0.5,0.8,1.3,0.8
			C206.2,165.3,206.8,164.8,206.8,164.3z M206.3,161.1c0-0.6-0.4-1.1-1-1.1c-0.5,0-1,0.4-1,1.1c0,0.6,0.5,1.1,1,1.1
			S206.3,161.8,206.3,161.1z"/>
		<path d="M207.6,161.6h1.8v0.3h-1.8V161.6z"/>
		<path d="M210.3,163.4h1.2v-4.2h-0.9V159c0.4-0.1,0.7-0.2,1-0.3h0.3v4.8h1.1v0.3h-2.7L210.3,163.4L210.3,163.4z"/>
		<path d="M213.8,162.4c0-0.7,0.5-1.2,1-1.4l0,0c-0.4-0.2-0.7-0.6-0.7-1.2c0-0.7,0.6-1.2,1.3-1.2c0.9,0,1.4,0.6,1.4,1.3
			c0,0.6-0.4,1.1-0.7,1.3l0,0c0.4,0.3,0.9,0.6,0.9,1.3s-0.6,1.3-1.6,1.3C214.5,163.8,213.8,163.2,213.8,162.4z M216.6,162.5
			c0-0.8-0.8-1.1-1.6-1.4c-0.5,0.3-0.9,0.7-0.9,1.3s0.5,1.1,1.3,1.1C216.1,163.5,216.6,163,216.6,162.5z M216.5,159.8
			c0-0.6-0.4-1-1-1s-1,0.4-1,1c0,0.7,0.7,1,1.4,1.3C216.2,160.7,216.5,160.3,216.5,159.8z"/>
	</g>
	<g>
		<path d="M220.3,163l0.2-0.3c0.4,0.4,0.9,0.7,1.5,0.7c0.8,0,1.3-0.4,1.3-1.1c0-0.7-0.4-0.9-0.9-1.1l-0.8-0.4
			c-0.5-0.2-1.1-0.5-1.1-1.3s0.7-1.3,1.5-1.3c0.6,0,1.1,0.3,1.5,0.6l-0.2,0.2c-0.3-0.3-0.7-0.5-1.3-0.5c-0.7,0-1.2,0.4-1.2,0.9
			c0,0.6,0.5,0.8,0.9,1l0.8,0.4c0.6,0.3,1.1,0.6,1.1,1.4s-0.7,1.4-1.7,1.4C221.3,163.8,220.7,163.5,220.3,163z"/>
		<path d="M224.5,161.8c0-1.3,0.8-2,1.7-2s1.5,0.6,1.5,1.8c0,0.1,0,0.2,0,0.3h-2.8c0,1,0.6,1.7,1.4,1.7c0.4,0,0.7-0.1,1-0.3l0.1,0.3
			c-0.3,0.2-0.6,0.4-1.2,0.4C225.3,163.8,224.5,163,224.5,161.8z M227.3,161.5c0-1-0.4-1.5-1.1-1.5c-0.7,0-1.2,0.6-1.3,1.5H227.3z"
			/>
		<path d="M228.7,159.9h0.3v0.5l0,0c0.4-0.3,0.8-0.6,1.3-0.6c1,0,1.5,0.8,1.5,2c0,1.3-0.8,2.1-1.7,2.1c-0.4,0-0.8-0.2-1.2-0.5v2.1
			h-0.4v-5.6H228.7z M231.5,161.7c0-0.9-0.3-1.6-1.2-1.6c-0.4,0-0.8,0.2-1.3,0.6v2.3c0.4,0.4,0.8,0.5,1.1,0.5
			C231,163.5,231.5,162.8,231.5,161.7z"/>
		<path d="M232.7,161.6h1.8v0.3h-1.8V161.6z"/>
		<path d="M235.5,163.4h1.2v-4.2h-0.9V159c0.4-0.1,0.7-0.2,1-0.3h0.3v4.8h1.1v0.3h-2.7L235.5,163.4L235.5,163.4z"/>
		<path d="M238.9,162.4c0-0.7,0.5-1.2,1-1.4l0,0c-0.4-0.2-0.7-0.6-0.7-1.2c0-0.7,0.6-1.2,1.3-1.2c0.9,0,1.4,0.6,1.4,1.3
			c0,0.6-0.4,1.1-0.7,1.3l0,0c0.4,0.3,0.9,0.6,0.9,1.3s-0.6,1.3-1.6,1.3C239.6,163.8,238.9,163.2,238.9,162.4z M241.7,162.5
			c0-0.8-0.8-1.1-1.6-1.4c-0.5,0.3-0.9,0.7-0.9,1.3s0.5,1.1,1.3,1.1C241.3,163.5,241.7,163,241.7,162.5z M241.6,159.8
			c0-0.6-0.4-1-1-1s-1,0.4-1,1c0,0.7,0.7,1,1.4,1.3C241.4,160.7,241.6,160.3,241.6,159.8z"/>
	</g>
	<g>
		<path d="M246.1,161c0-1.7,0.9-2.7,2.2-2.7s2.2,1,2.2,2.7s-0.9,2.8-2.2,2.8S246.1,162.7,246.1,161z M250.1,161
			c0-1.5-0.7-2.4-1.8-2.4s-1.8,0.9-1.8,2.4s0.7,2.4,1.8,2.4S250.1,162.5,250.1,161z"/>
		<path d="M251.3,161.8c0-1.3,0.8-2,1.8-2c0.5,0,0.9,0.2,1.1,0.5l-0.2,0.2c-0.2-0.2-0.5-0.4-0.9-0.4c-0.8,0-1.4,0.7-1.4,1.7
			s0.6,1.7,1.4,1.7c0.4,0,0.8-0.2,1-0.4l0.2,0.2c-0.3,0.3-0.7,0.5-1.2,0.5C252.1,163.8,251.3,163.1,251.3,161.8z"/>
		<path d="M255.2,162.6v-2.4h-0.6v-0.3h0.6v-1.1h0.3v1.1h1.1v0.3h-1.1v2.5c0,0.5,0.1,0.8,0.6,0.8c0.1,0,0.3-0.1,0.5-0.1l0.1,0.3
			c-0.2,0.1-0.5,0.1-0.6,0.1C255.5,163.8,255.2,163.3,255.2,162.6z"/>
		<path d="M257.1,161.6h1.8v0.3h-1.8V161.6z"/>
		<path d="M259.8,163.4h1.2v-4.2h-0.9V159c0.4-0.1,0.7-0.2,1-0.3h0.3v4.8h1.1v0.3h-2.7V163.4z"/>
		<path d="M263.3,162.4c0-0.7,0.5-1.2,1-1.4l0,0c-0.4-0.2-0.7-0.6-0.7-1.2c0-0.7,0.6-1.2,1.3-1.2c0.9,0,1.4,0.6,1.4,1.3
			c0,0.6-0.4,1.1-0.7,1.3l0,0c0.4,0.3,0.9,0.6,0.9,1.3s-0.6,1.3-1.6,1.3C264,163.8,263.3,163.2,263.3,162.4z M266.1,162.5
			c0-0.8-0.8-1.1-1.6-1.4c-0.5,0.3-0.9,0.7-0.9,1.3s0.5,1.1,1.3,1.1C265.6,163.5,266.1,163,266.1,162.5z M266,159.8c0-0.6-0.4-1-1-1
			s-1,0.4-1,1c0,0.7,0.7,1,1.4,1.3C265.7,160.7,266,160.3,266,159.8z"/>
	</g>
	<g>
		<path d="M270.6,158.4h0.4l2.2,3.7l0.6,1l0,0c0-0.5,0-1,0-1.5v-3.2h0.4v5.3h-0.4l-2.2-3.7l-0.6-1l0,0c0,0.5,0,1,0,1.5v3.3h-0.4
			V158.4z"/>
		<path d="M275.4,161.8c0-1.3,0.8-2,1.7-2c0.9,0,1.7,0.7,1.7,2s-0.8,2-1.7,2S275.4,163.1,275.4,161.8z M278.4,161.8
			c0-1-0.6-1.7-1.4-1.7s-1.4,0.7-1.4,1.7s0.6,1.7,1.4,1.7S278.4,162.8,278.4,161.8z"/>
		<path d="M279.3,159.9h0.4l0.9,2.4c0.1,0.4,0.3,0.8,0.4,1.1l0,0c0.1-0.4,0.3-0.7,0.4-1.1l0.9-2.4h0.4l-1.4,3.8h-0.5L279.3,159.9z"
			/>
		<path d="M283,161.6h1.8v0.3H283V161.6z"/>
		<path d="M285.8,163.4h1.2v-4.2h-0.9V159c0.4-0.1,0.7-0.2,1-0.3h0.3v4.8h1.1v0.3h-2.7V163.4z"/>
		<path d="M289.2,162.4c0-0.7,0.5-1.2,1-1.4l0,0c-0.4-0.2-0.7-0.6-0.7-1.2c0-0.7,0.6-1.2,1.3-1.2c0.9,0,1.4,0.6,1.4,1.3
			c0,0.6-0.4,1.1-0.7,1.3l0,0c0.4,0.3,0.9,0.6,0.9,1.3s-0.6,1.3-1.6,1.3C289.9,163.8,289.2,163.2,289.2,162.4z M292.1,162.5
			c0-0.8-0.8-1.1-1.6-1.4c-0.5,0.3-0.9,0.7-0.9,1.3s0.5,1.1,1.3,1.1C291.6,163.5,292.1,163,292.1,162.5z M291.9,159.8
			c0-0.6-0.4-1-1-1s-1,0.4-1,1c0,0.7,0.7,1,1.4,1.3C291.7,160.7,291.9,160.3,291.9,159.8z"/>
	</g>
	<g>
		<path d="M296,158.4h1.2c1.6,0,2.4,1,2.4,2.6s-0.8,2.7-2.4,2.7H296V158.4z M297.2,163.4c1.4,0,2-1,2-2.3c0-1.4-0.6-2.3-2-2.3h-0.8
			v4.6H297.2z"/>
		<path d="M300.5,161.8c0-1.3,0.8-2,1.7-2c0.9,0,1.5,0.6,1.5,1.8c0,0.1,0,0.2,0,0.3h-2.9c0,1,0.6,1.7,1.4,1.7c0.4,0,0.7-0.1,1-0.3
			l0.1,0.3c-0.3,0.2-0.6,0.4-1.2,0.4C301.3,163.8,300.5,163,300.5,161.8z M303.3,161.5c0-1-0.4-1.5-1.1-1.5s-1.2,0.6-1.3,1.5H303.3z
			"/>
		<path d="M304.3,161.8c0-1.3,0.8-2,1.8-2c0.5,0,0.9,0.2,1.1,0.5l-0.2,0.2c-0.2-0.2-0.5-0.4-0.9-0.4c-0.8,0-1.4,0.7-1.4,1.7
			s0.6,1.7,1.4,1.7c0.4,0,0.8-0.2,1-0.4l0.2,0.2c-0.3,0.3-0.7,0.5-1.2,0.5C305.1,163.8,304.3,163.1,304.3,161.8z"/>
		<path d="M307.8,161.6h1.8v0.3h-1.8V161.6z"/>
		<path d="M310.5,163.4h1.2v-4.2h-0.9V159c0.4-0.1,0.7-0.2,1-0.3h0.3v4.8h1.1v0.3h-2.7L310.5,163.4L310.5,163.4z"/>
		<path d="M314,162.4c0-0.7,0.5-1.2,1-1.4l0,0c-0.4-0.2-0.7-0.6-0.7-1.2c0-0.7,0.6-1.2,1.3-1.2c0.9,0,1.4,0.6,1.4,1.3
			c0,0.6-0.4,1.1-0.7,1.3l0,0c0.4,0.3,0.9,0.6,0.9,1.3s-0.6,1.3-1.6,1.3C314.7,163.8,314,163.2,314,162.4z M316.8,162.5
			c0-0.8-0.8-1.1-1.6-1.4c-0.5,0.3-0.9,0.7-0.9,1.3s0.5,1.1,1.3,1.1C316.3,163.5,316.8,163,316.8,162.5z M316.7,159.8
			c0-0.6-0.4-1-1-1s-1,0.4-1,1c0,0.7,0.7,1,1.4,1.3C316.4,160.7,316.7,160.3,316.7,159.8z"/>
	</g>
	<g>
		<path d="M320.8,163l0.3-0.2c0.3,0.4,0.6,0.6,1,0.6c0.6,0,0.9-0.4,0.9-1.2v-3.8h0.4v3.8c0,0.8-0.4,1.5-1.3,1.5
			C321.5,163.8,321,163.5,320.8,163z"/>
		<path d="M324.6,162.7c0-0.8,0.8-1.3,2.5-1.4c0-0.6-0.2-1.2-0.9-1.2c-0.5,0-1,0.3-1.2,0.4l-0.2-0.3c0.3-0.2,0.8-0.5,1.4-0.5
			c0.9,0,1.2,0.7,1.2,1.5v2.5h-0.3v-0.5l0,0c-0.4,0.3-0.9,0.6-1.4,0.6C325.1,163.8,324.6,163.5,324.6,162.7z M327.1,162.9v-1.3
			c-1.6,0.2-2.1,0.6-2.1,1.2c0,0.6,0.4,0.8,0.8,0.8C326.2,163.5,326.6,163.3,327.1,162.9z"/>
		<path d="M328.8,159.9h0.3v0.6l0,0c0.4-0.4,0.8-0.7,1.3-0.7c0.8,0,1.2,0.5,1.2,1.5v2.5h-0.4v-2.4c0-0.8-0.3-1.2-0.9-1.2
			c-0.5,0-0.8,0.2-1.3,0.7v2.9h-0.2V159.9z"/>
		<path d="M332.6,161.6h1.8v0.3h-1.8V161.6z"/>
		<path d="M335.4,163.4h1.2v-4.2h-0.9V159c0.4-0.1,0.7-0.2,1-0.3h0.3v4.8h1.1v0.3h-2.7V163.4z"/>
		<path d="M339,163.3l0.2-0.2c0.2,0.3,0.5,0.4,0.9,0.4c0.8,0,1.5-0.7,1.5-2.5c-0.4,0.4-0.8,0.7-1.3,0.7c-0.9,0-1.4-0.6-1.4-1.6
			c0-0.9,0.6-1.6,1.4-1.6c1,0,1.7,0.9,1.7,2.4c0,2.1-0.9,2.9-1.9,2.9C339.6,163.8,339.3,163.6,339,163.3z M340.4,161.4
			c0.4,0,0.8-0.2,1.2-0.8c-0.1-1.1-0.5-1.8-1.3-1.8c-0.6,0-1,0.6-1,1.3C339.2,160.8,339.6,161.4,340.4,161.4z"/>
	</g>
	<g>
		<path d="M346.2,158.4h2.9v0.3h-2.5v2.1h2.1v0.3h-2.1v2.5h-0.4V158.4z"/>
		<path d="M349.6,161.8c0-1.3,0.8-2,1.7-2c0.9,0,1.5,0.6,1.5,1.8c0,0.1,0,0.2,0,0.3H350c0,1,0.6,1.7,1.4,1.7c0.4,0,0.7-0.1,1-0.3
			l0.1,0.3c-0.3,0.2-0.6,0.4-1.2,0.4C350.4,163.8,349.6,163,349.6,161.8z M352.4,161.5c0-1-0.4-1.5-1.1-1.5s-1.2,0.6-1.3,1.5H352.4z
			"/>
		<path d="M354.1,163.3L354.1,163.3l-0.1,0.4h-0.2V158h0.4v1.7v0.8c0.4-0.3,0.9-0.6,1.3-0.6c1,0,1.5,0.8,1.5,2
			c0,1.3-0.8,2.1-1.7,2.1C354.9,163.8,354.5,163.6,354.1,163.3z M356.6,161.7c0-0.9-0.3-1.6-1.2-1.6c-0.4,0-0.8,0.2-1.3,0.6v2.3
			c0.4,0.4,0.8,0.5,1.1,0.5C356,163.5,356.6,162.8,356.6,161.7z"/>
		<path d="M357.8,161.6h1.8v0.3h-1.8V161.6z"/>
		<path d="M360.5,163.4h1.2v-4.2h-0.9V159c0.4-0.1,0.7-0.2,1-0.3h0.3v4.8h1.1v0.3h-2.7L360.5,163.4L360.5,163.4z"/>
		<path d="M364.1,163.3l0.2-0.2c0.2,0.3,0.5,0.4,0.9,0.4c0.8,0,1.5-0.7,1.5-2.5c-0.4,0.4-0.8,0.7-1.3,0.7c-0.9,0-1.4-0.6-1.4-1.6
			c0-0.9,0.6-1.6,1.4-1.6c1,0,1.7,0.9,1.7,2.4c0,2.1-0.9,2.9-1.9,2.9C364.7,163.8,364.4,163.6,364.1,163.3z M365.5,161.4
			c0.4,0,0.8-0.2,1.2-0.8c-0.1-1.1-0.5-1.8-1.3-1.8c-0.6,0-1,0.6-1,1.3C364.4,160.8,364.7,161.4,365.5,161.4z"/>
	</g>
	<g>
		<path d="M371.3,158.4h0.5l1.1,3.1c0.1,0.4,0.3,0.8,0.4,1.2l0,0c0.1-0.4,0.3-0.8,0.4-1.2l1.1-3.1h0.5v5.3h-0.4v-3.5
			c0-0.4,0-1,0-1.4l0,0l-0.4,1.2l-1.1,3.1h-0.3L372,160l-0.4-1.2l0,0c0,0.4,0,1,0,1.4v3.5h-0.3L371.3,158.4L371.3,158.4z"/>
		<path d="M376.6,162.7c0-0.8,0.8-1.3,2.5-1.4c0-0.6-0.2-1.2-0.9-1.2c-0.5,0-1,0.3-1.2,0.4l-0.2-0.3c0.3-0.2,0.8-0.5,1.4-0.5
			c0.9,0,1.2,0.7,1.2,1.5v2.5h-0.3v-0.5l0,0c-0.4,0.3-0.9,0.6-1.4,0.6C377.1,163.8,376.6,163.5,376.6,162.7z M379.1,162.9v-1.3
			c-1.6,0.2-2.1,0.6-2.1,1.2c0,0.6,0.4,0.8,0.8,0.8C378.3,163.5,378.6,163.3,379.1,162.9z"/>
		<path d="M380.8,159.9h0.3v0.7l0,0c0.3-0.5,0.6-0.8,1.1-0.8c0.1,0,0.3,0,0.4,0.1l-0.1,0.3c-0.1,0-0.2-0.1-0.4-0.1
			c-0.3,0-0.8,0.3-1,1v2.6h-0.3V159.9z"/>
		<path d="M382.8,161.6h1.8v0.3h-1.8V161.6z"/>
		<path d="M385.5,163.4h1.2v-4.2h-0.9V159c0.4-0.1,0.7-0.2,1-0.3h0.3v4.8h1.1v0.3h-2.7L385.5,163.4L385.5,163.4z"/>
		<path d="M389.2,163.3l0.2-0.2c0.2,0.3,0.5,0.4,0.9,0.4c0.8,0,1.5-0.7,1.5-2.5c-0.4,0.4-0.8,0.7-1.3,0.7c-0.9,0-1.4-0.6-1.4-1.6
			c0-0.9,0.6-1.6,1.4-1.6c1,0,1.7,0.9,1.7,2.4c0,2.1-0.9,2.9-1.9,2.9C389.8,163.8,389.4,163.6,389.2,163.3z M390.5,161.4
			c0.4,0,0.8-0.2,1.2-0.8c-0.1-1.1-0.5-1.8-1.3-1.8c-0.6,0-1,0.6-1,1.3C389.4,160.8,389.7,161.4,390.5,161.4z"/>
	</g>
	<line class="st0" x1="21.7" y1="154.3" x2="21.7" y2="35.1"/>
	<line class="st0" x1="19" y1="35.2" x2="21.9" y2="35.2"/>
	<line class="st0" x1="19" y1="51.9" x2="21.9" y2="51.9"/>
	<line class="st0" x1="19" y1="68.5" x2="21.9" y2="68.5"/>
	<line class="st0" x1="19" y1="85.1" x2="21.9" y2="85.1"/>
	<line class="st0" x1="19" y1="101.7" x2="21.9" y2="101.7"/>
	<line class="st0" x1="19" y1="118.3" x2="21.9" y2="118.3"/>
	<line class="st0" x1="19" y1="134.9" x2="21.9" y2="134.9"/>
	<line class="st0" x1="30.7" y1="151.4" x2="30.7" y2="154.3"/>
	<line class="st0" x1="55.8" y1="151.4" x2="55.8" y2="154.3"/>
	<line class="st0" x1="80.9" y1="151.4" x2="80.9" y2="154.3"/>
	<line class="st0" x1="105.9" y1="151.4" x2="105.9" y2="154.3"/>
	<line class="st0" x1="131" y1="151.4" x2="131" y2="154.3"/>
	<line class="st0" x1="156" y1="151.4" x2="156" y2="154.3"/>
	<line class="st0" x1="181.1" y1="151.4" x2="181.1" y2="154.3"/>
	<line class="st0" x1="206.1" y1="151.4" x2="206.1" y2="154.3"/>
	<line class="st0" x1="231.2" y1="151.4" x2="231.2" y2="154.3"/>
	<line class="st0" x1="256.2" y1="151.4" x2="256.2" y2="154.3"/>
	<line class="st0" x1="281.3" y1="151.4" x2="281.3" y2="154.3"/>
	<line class="st0" x1="306.4" y1="151.4" x2="306.4" y2="154.3"/>
	<line class="st0" x1="331.4" y1="151.4" x2="331.4" y2="154.3"/>
	<line class="st0" x1="356.5" y1="151.4" x2="356.5" y2="154.3"/>
	<line class="st0" x1="381.5" y1="151.4" x2="381.5" y2="154.3"/>
	<path class="st1" d="M30.7,45.9l25,17L81,70l25.3-5.7l24.8,4.9l25.1-2L181.3,94l25.1,24.5l25,23.2l25.1-9.9l25.1,7.3l25.1-10.7
		c0,0,23.7-29.5,25.1-29.5s27-8.2,26-7.1s23.9,15.6,23.9,15.6v44.1h-351V45.9z"/>
	<line class="st0" x1="19" y1="151.5" x2="393.6" y2="151.5"/>
</g>
</svg>
