<?xml version="1.0" encoding="utf-8"?>
<!-- Generator: Adobe Illustrator 23.0.3, SVG Export Plug-In . SVG Version: 6.00 Build 0)  -->
<svg version="1.1" id="Layer_1" xmlns="http://www.w3.org/2000/svg" xmlns:xlink="http://www.w3.org/1999/xlink" x="0px" y="0px"
	 viewBox="0 0 497 72.8" style="enable-background:new 0 0 497 72.8;" xml:space="preserve">
<style type="text/css">
	.st0{fill:#00AE4D;}
	.st1{fill:#FFFFFF;}
	.st2{fill:#A3D4A0;}
	.st3{fill:none;stroke:#939598;stroke-width:0.5;stroke-miterlimit:10;}
	.st4{fill:none;stroke:#939598;stroke-width:0.499;stroke-miterlimit:10;}
</style>
<path class="st0" d="M425.5,18.2h70.9v13.5h-70.9V18.2z M354.7,18.2h70.9v13.5h-70.9V18.2z M283.8,18.2h70.9v13.5h-70.9V18.2z
	 M212.9,18.2h70.9v13.5h-70.9V18.2z"/>
<path class="st1" d="M283.8,58.8h70.9v13.6h-70.9V58.8z M212.9,58.8h70.9v13.6h-70.9V58.8z M0.6,58.8h212.3v13.6H0.6V58.8z
	 M283.8,45.3h70.9v13.6h-70.9V45.3z M212.9,45.3h70.9v13.6h-70.9V45.3z M0.6,45.3h212.3v13.6H0.6V45.3z M283.8,31.7h70.9v13.6h-70.9
	V31.7z M212.9,31.7h70.9v13.6h-70.9V31.7z M0.6,31.7h212.3v13.6H0.6V31.7z"/>
<path class="st2" d="M354.7,58.8h70.9v13.6h-70.9V58.8z M354.7,45.3h70.9v13.6h-70.9V45.3z M354.7,31.7h70.9v13.6h-70.9V31.7z"/>
<line class="st3" x1="425.5" y1="31.7" x2="496.4" y2="31.7"/>
<line class="st3" x1="0.6" y1="45.3" x2="212.7" y2="45.3"/>
<line class="st3" x1="213.2" y1="45.3" x2="283.5" y2="45.3"/>
<line class="st3" x1="284" y1="45.3" x2="354.4" y2="45.3"/>
<line class="st3" x1="354.9" y1="45.3" x2="425.3" y2="45.3"/>
<line class="st3" x1="425.8" y1="45.3" x2="496.4" y2="45.3"/>
<line class="st3" x1="213.2" y1="58.8" x2="283.5" y2="58.8"/>
<line class="st3" x1="284" y1="58.8" x2="354.4" y2="58.8"/>
<line class="st3" x1="354.9" y1="58.8" x2="425.3" y2="58.8"/>
<line class="st3" x1="425.8" y1="58.8" x2="496.4" y2="58.8"/>
<line class="st3" x1="212.9" y1="72.4" x2="283.8" y2="72.4"/>
<line class="st3" x1="283.8" y1="72.4" x2="354.7" y2="72.4"/>
<line class="st3" x1="354.7" y1="72.4" x2="425.5" y2="72.4"/>
<line class="st3" x1="425.5" y1="72.4" x2="496.4" y2="72.4"/>
<line class="st3" x1="425.5" y1="18.2" x2="496.4" y2="18.2"/>
<line class="st3" x1="0.6" y1="18.2" x2="212.9" y2="18.2"/>
<line class="st3" x1="212.9" y1="18.2" x2="283.8" y2="18.2"/>
<line class="st3" x1="283.8" y1="18.2" x2="354.7" y2="18.2"/>
<line class="st3" x1="354.7" y1="18.2" x2="425.5" y2="18.2"/>
<line class="st4" x1="212.9" y1="31.5" x2="212.9" y2="18.4"/>
<line class="st4" x1="283.8" y1="31.5" x2="283.8" y2="18.4"/>
<line class="st4" x1="354.7" y1="31.5" x2="354.7" y2="18.4"/>
<line class="st4" x1="425.5" y1="31.5" x2="425.5" y2="18.4"/>
<line class="st3" x1="0.6" y1="58.8" x2="212.7" y2="58.8"/>
<line class="st3" x1="0.6" y1="72.4" x2="212.9" y2="72.4"/>
<line class="st3" x1="212.9" y1="31.7" x2="283.8" y2="31.7"/>
<line class="st3" x1="283.8" y1="31.7" x2="354.7" y2="31.7"/>
<line class="st3" x1="354.7" y1="31.7" x2="425.5" y2="31.7"/>
<line class="st4" x1="212.9" y1="45.3" x2="212.9" y2="32"/>
<line class="st4" x1="283.8" y1="45.3" x2="283.8" y2="32"/>
<line class="st4" x1="354.7" y1="45.3" x2="354.7" y2="32"/>
<line class="st4" x1="425.5" y1="45.3" x2="425.5" y2="32"/>
<line class="st4" x1="212.9" y1="58.8" x2="212.9" y2="45.3"/>
<line class="st4" x1="283.8" y1="58.8" x2="283.8" y2="45.3"/>
<line class="st4" x1="354.7" y1="58.8" x2="354.7" y2="45.3"/>
<line class="st4" x1="425.5" y1="58.8" x2="425.5" y2="45.3"/>
<line class="st4" x1="212.9" y1="72.1" x2="212.9" y2="58.8"/>
<line class="st4" x1="283.8" y1="72.1" x2="283.8" y2="58.8"/>
<line class="st4" x1="354.7" y1="72.1" x2="354.7" y2="58.8"/>
<line class="st4" x1="425.5" y1="72.1" x2="425.5" y2="58.8"/>
<line class="st3" x1="0.6" y1="31.7" x2="212.9" y2="31.7"/>
<g>
	<path class="st1" d="M252,25.4c0-1.9,1.3-3.1,2.8-3.1c0.8,0,1.4,0.4,1.8,0.8l-0.7,0.8c-0.3-0.3-0.6-0.5-1-0.5
		c-0.8,0-1.4,0.7-1.4,1.9c0,1.2,0.6,1.9,1.4,1.9c0.5,0,0.9-0.2,1.1-0.5l0.7,0.8c-0.5,0.6-1.1,0.9-1.9,0.9
		C253.3,28.4,252,27.4,252,25.4z"/>
	<path class="st1" d="M258.5,26.2l-1.8-3.8h1.4l0.5,1.4c0.2,0.4,0.3,0.8,0.5,1.3l0,0c0.2-0.5,0.3-0.9,0.5-1.3l0.5-1.4h1.4l-1.8,3.8
		v2.1h-1.3L258.5,26.2L258.5,26.2z"/>
	<path class="st1" d="M263.7,27.6c1.5-1.4,2.5-2.4,2.5-3.2c0-0.6-0.3-0.9-0.8-0.9c-0.4,0-0.7,0.3-1,0.6l-0.7-0.7
		c0.6-0.6,1.1-0.9,1.9-0.9c1.1,0,1.9,0.7,1.9,1.8c0,1-0.9,2-1.8,3c0.3,0,0.7-0.1,1-0.1h1.2v1.1h-4v-0.7
		C263.9,27.6,263.7,27.6,263.7,27.6z"/>
	<path class="st1" d="M268.4,25.5c0-1.9,0.8-2.9,2-2.9s2,1,2,2.9s-0.8,3-2,3S268.4,27.4,268.4,25.5z M271.3,25.5
		c0-1.6-0.3-1.9-0.8-1.9c-0.4,0-0.8,0.4-0.8,1.9c0,1.6,0.4,2,0.8,2C270.9,27.4,271.3,27,271.3,25.5z"/>
	<path class="st1" d="M273.5,27.3h1.2V24h-1.1v-0.8c0.6-0.1,1-0.3,1.4-0.5h1v4.6h1.1v1.1h-3.6V27.3z"/>
	<path class="st1" d="M280.6,23.7H278v-1.1h4v0.8c-1.3,1.6-1.5,2.7-1.6,4.9H279C279.2,26.4,279.5,25.2,280.6,23.7z"/>
</g>
<g>
	<path class="st1" d="M322.9,25.4c0-1.9,1.3-3.1,2.8-3.1c0.8,0,1.4,0.4,1.8,0.8l-0.7,0.8c-0.3-0.3-0.6-0.5-1-0.5
		c-0.8,0-1.4,0.7-1.4,1.9c0,1.2,0.6,1.9,1.4,1.9c0.5,0,0.9-0.2,1.1-0.5l0.7,0.8c-0.5,0.6-1.1,0.9-1.9,0.9
		C324.1,28.4,322.9,27.4,322.9,25.4z"/>
	<path class="st1" d="M329.4,26.2l-1.8-3.8h1.4l0.5,1.4c0.2,0.4,0.3,0.8,0.5,1.3l0,0c0.2-0.5,0.3-0.9,0.5-1.3l0.5-1.4h1.4l-1.8,3.8
		v2.1h-1.3L329.4,26.2L329.4,26.2z"/>
	<path class="st1" d="M334.6,27.6c1.5-1.4,2.5-2.4,2.5-3.2c0-0.6-0.3-0.9-0.8-0.9c-0.4,0-0.7,0.3-1,0.6l-0.7-0.7
		c0.6-0.6,1.1-0.9,1.9-0.9c1.1,0,1.9,0.7,1.9,1.8c0,1-0.9,2-1.8,3c0.3,0,0.7-0.1,1-0.1h1.2v1.1h-4v-0.7
		C334.8,27.6,334.6,27.6,334.6,27.6z"/>
	<path class="st1" d="M339.3,25.5c0-1.9,0.8-2.9,2-2.9s2,1,2,2.9s-0.8,3-2,3C340.1,28.4,339.3,27.4,339.3,25.5z M342.1,25.5
		c0-1.6-0.3-1.9-0.8-1.9c-0.4,0-0.8,0.4-0.8,1.9c0,1.6,0.4,2,0.8,2C341.8,27.4,342.1,27,342.1,25.5z"/>
	<path class="st1" d="M344.4,27.3h1.2V24h-1.1v-0.8c0.6-0.1,1-0.3,1.4-0.5h1v4.6h1.1v1.1h-3.6V27.3z"/>
	<path class="st1" d="M348.9,26.9c0-0.7,0.4-1.1,1-1.4l0,0c-0.4-0.3-0.8-0.7-0.8-1.4c0-1,0.8-1.6,1.8-1.6s1.7,0.6,1.7,1.6
		c0,0.5-0.4,1-0.7,1.3l0,0c0.5,0.3,1,0.7,1,1.5c0,0.9-0.8,1.6-2,1.6C349.7,28.4,348.9,27.8,348.9,26.9z M351.6,26.8
		c0-0.5-0.5-0.7-1.2-1c-0.3,0.2-0.4,0.6-0.4,0.9c0,0.5,0.4,0.8,0.9,0.8C351.3,27.5,351.6,27.3,351.6,26.8z M351.6,24.2
		c0-0.4-0.3-0.7-0.7-0.7c-0.4,0-0.6,0.2-0.6,0.7s0.4,0.7,1,0.9C351.4,24.7,351.6,24.5,351.6,24.2z"/>
</g>
<g>
	<path class="st1" d="M387,25.4c0-1.9,1.3-3.1,2.8-3.1c0.8,0,1.4,0.4,1.8,0.8l-0.7,0.8c-0.3-0.3-0.6-0.5-1-0.5
		c-0.8,0-1.4,0.7-1.4,1.9c0,1.2,0.6,1.9,1.4,1.9c0.5,0,0.9-0.2,1.1-0.5l0.7,0.8c-0.5,0.6-1.1,0.9-1.9,0.9
		C388.3,28.4,387,27.4,387,25.4z"/>
	<path class="st1" d="M393.5,26.2l-1.8-3.8h1.4l0.5,1.4c0.2,0.4,0.3,0.8,0.5,1.3l0,0c0.2-0.5,0.3-0.9,0.5-1.3l0.5-1.4h1.4l-1.8,3.8
		v2.1h-1.3L393.5,26.2L393.5,26.2z"/>
	<path class="st1" d="M398.7,27.6c1.5-1.4,2.5-2.4,2.5-3.2c0-0.6-0.3-0.9-0.8-0.9c-0.4,0-0.7,0.3-1,0.6l-0.7-0.7
		c0.6-0.6,1.1-0.9,1.9-0.9c1.1,0,1.9,0.7,1.9,1.8c0,1-0.9,2-1.8,3c0.3,0,0.7-0.1,1-0.1h1.2v1.1h-4v-0.7
		C398.9,27.6,398.7,27.6,398.7,27.6z"/>
	<path class="st1" d="M403.4,25.5c0-1.9,0.8-2.9,2-2.9s2,1,2,2.9s-0.8,3-2,3S403.4,27.4,403.4,25.5z M406.3,25.5
		c0-1.6-0.3-1.9-0.8-1.9c-0.4,0-0.8,0.4-0.8,1.9c0,1.6,0.4,2,0.8,2C405.9,27.4,406.3,27,406.3,25.5z"/>
	<path class="st1" d="M408.5,27.3h1.2V24h-1.1v-0.8c0.6-0.1,1-0.3,1.4-0.5h1v4.6h1.1v1.1h-3.6V27.3z"/>
	<path class="st1" d="M413,27.8l0.7-0.8c0.2,0.2,0.5,0.4,0.9,0.4c0.6,0,1.1-0.5,1.2-1.8c-0.3,0.4-0.8,0.6-1.1,0.6
		c-1,0-1.7-0.6-1.7-1.8c0-1.2,0.9-1.9,1.9-1.9c1.1,0,2.2,0.8,2.2,2.8c0,2.1-1.1,3.1-2.3,3.1C413.9,28.4,413.4,28.1,413,27.8z
		 M414.9,25.3c0.3,0,0.6-0.2,0.9-0.6c-0.1-0.9-0.5-1.2-0.9-1.2s-0.7,0.3-0.7,0.9C414.1,25,414.5,25.3,414.9,25.3z"/>
	<path class="st1" d="M419.9,22.5h3.7v1.1h-2.3v1.2h2v1.1h-2v1.4h2.4v1.1h-3.8L419.9,22.5L419.9,22.5z"/>
</g>
<g>
	<path class="st1" d="M457.9,25.4c0-1.9,1.3-3.1,2.8-3.1c0.8,0,1.4,0.4,1.8,0.8l-0.7,0.8c-0.3-0.3-0.6-0.5-1-0.5
		c-0.8,0-1.4,0.7-1.4,1.9c0,1.2,0.6,1.9,1.4,1.9c0.5,0,0.9-0.2,1.1-0.5l0.7,0.8c-0.5,0.6-1.1,0.9-1.9,0.9
		C459.1,28.4,457.9,27.4,457.9,25.4z"/>
	<path class="st1" d="M464.4,26.2l-1.8-3.8h1.4l0.5,1.4c0.2,0.4,0.3,0.8,0.5,1.3l0,0c0.2-0.5,0.3-0.9,0.5-1.3l0.5-1.4h1.4l-1.8,3.8
		v2.1h-1.3L464.4,26.2L464.4,26.2z"/>
	<path class="st1" d="M469.6,27.6c1.5-1.4,2.5-2.4,2.5-3.2c0-0.6-0.3-0.9-0.8-0.9c-0.4,0-0.7,0.3-1,0.6l-0.7-0.7
		c0.6-0.6,1.1-0.9,1.9-0.9c1.1,0,1.9,0.7,1.9,1.8c0,1-0.9,2-1.8,3c0.3,0,0.7-0.1,1-0.1h1.2v1.1h-4v-0.7
		C469.8,27.6,469.6,27.6,469.6,27.6z"/>
	<path class="st1" d="M474.3,25.5c0-1.9,0.8-2.9,2-2.9s2,1,2,2.9s-0.8,3-2,3C475.1,28.4,474.3,27.4,474.3,25.5z M477.1,25.5
		c0-1.6-0.3-1.9-0.8-1.9c-0.4,0-0.8,0.4-0.8,1.9c0,1.6,0.4,2,0.8,2C476.8,27.4,477.1,27,477.1,25.5z"/>
	<path class="st1" d="M479.1,27.6c1.5-1.4,2.5-2.4,2.5-3.2c0-0.6-0.3-0.9-0.8-0.9c-0.4,0-0.7,0.3-1,0.6l-0.7-0.7
		c0.6-0.6,1.1-0.9,1.9-0.9c1.1,0,1.9,0.7,1.9,1.8c0,1-0.9,2-1.8,3c0.3,0,0.7-0.1,1-0.1h1.2v1.1h-4v-0.7
		C479.3,27.6,479.1,27.6,479.1,27.6z"/>
	<path class="st1" d="M483.8,25.5c0-1.9,0.8-2.9,2-2.9s2,1,2,2.9s-0.8,3-2,3C484.6,28.4,483.8,27.4,483.8,25.5z M486.7,25.5
		c0-1.6-0.3-1.9-0.8-1.9c-0.4,0-0.8,0.4-0.8,1.9c0,1.6,0.4,2,0.8,2C486.3,27.4,486.7,27,486.7,25.5z"/>
	<path class="st1" d="M490.7,22.5h3.7v1.1h-2.3v1.2h2v1.1h-2v1.4h2.4v1.1h-3.8L490.7,22.5L490.7,22.5z"/>
</g>
<g>
	<path d="M2.9,36h0.6l1.2,3.5c0.2,0.4,0.3,0.9,0.5,1.3l0,0c0.2-0.4,0.3-0.9,0.5-1.3L6.9,36h0.6v5.9H7.1V38c0-0.5,0-1.1,0.1-1.6l0,0
		l-0.5,1.3l-1.3,3.5H5l-1.3-3.5l-0.5-1.3l0,0c0,0.5,0.1,1.1,0.1,1.6v3.9H2.9V36z"/>
	<path d="M9.1,36.2c0-0.2,0.1-0.4,0.3-0.4s0.3,0.1,0.3,0.4c0,0.2-0.1,0.4-0.3,0.4S9.1,36.4,9.1,36.2z M9.2,37.6h0.4v4.3H9.2V37.6z"
		/>
	<path d="M11.3,37.6h0.3v0.7l0,0c0.4-0.4,0.9-0.8,1.5-0.8c0.9,0,1.3,0.5,1.3,1.7V42H14v-2.7c0-0.9-0.3-1.4-1-1.4
		c-0.5,0-0.9,0.3-1.4,0.8V42h-0.4L11.3,37.6L11.3,37.6z"/>
	<path d="M15.7,39.7c0-1.4,0.9-2.3,1.9-2.3s1.7,0.7,1.7,2c0,0.1,0,0.2,0,0.3h-3.1c0,1.1,0.7,1.9,1.6,1.9c0.5,0,0.8-0.2,1.2-0.4
		l0.2,0.3c-0.3,0.2-0.7,0.4-1.4,0.4C16.6,42,15.7,41.2,15.7,39.7z M18.9,39.5c0-1.1-0.5-1.7-1.3-1.7c-0.7,0-1.4,0.6-1.5,1.7H18.9z"
		/>
	<path d="M22.2,37.6h0.3v0.5l0,0c0.4-0.3,0.9-0.6,1.5-0.6c1.2,0,1.7,0.9,1.7,2.2c0,1.5-0.9,2.3-1.9,2.3c-0.4,0-0.8-0.2-1.3-0.5v2.4
		h-0.4L22.2,37.6L22.2,37.6z M25.4,39.7c0-1.1-0.4-1.9-1.4-1.9c-0.4,0-0.9,0.3-1.4,0.7v2.6c0.5,0.4,0.9,0.6,1.3,0.6
		C24.7,41.6,25.4,40.8,25.4,39.7z"/>
	<path d="M27.1,37.6h0.3v0.8l0,0c0.3-0.5,0.7-0.9,1.2-0.9c0.2,0,0.3,0,0.4,0.1L28.9,38c-0.1-0.1-0.2-0.1-0.4-0.1
		c-0.4,0-0.8,0.3-1.2,1.1v2.9h-0.4v-4.3C26.9,37.6,27.1,37.6,27.1,37.6z"/>
	<path d="M29.6,39.7c0-1.5,0.9-2.3,1.9-2.3s1.9,0.8,1.9,2.3c0,1.4-0.9,2.3-1.9,2.3S29.6,41.2,29.6,39.7z M33.1,39.7
		c0-1.1-0.7-1.9-1.5-1.9c-0.9,0-1.5,0.8-1.5,1.9c0,1.1,0.6,1.9,1.5,1.9C32.4,41.6,33.1,40.9,33.1,39.7z"/>
	<path d="M34.4,39.7c0-1.4,0.9-2.3,1.9-2.3c0.5,0,0.9,0.2,1.3,0.5v-0.8v-1.8H38v6.5h-0.3v-0.6l0,0c-0.4,0.4-0.8,0.7-1.4,0.7
		C35.1,42,34.4,41.2,34.4,39.7z M37.6,40.9v-2.6c-0.5-0.4-0.8-0.6-1.3-0.6c-0.9,0-1.5,0.8-1.5,1.9c0,1.1,0.5,1.9,1.4,1.9
		C36.7,41.6,37.2,41.4,37.6,40.9z"/>
	<path d="M39.6,40.3v-2.8H40v2.7c0,0.9,0.3,1.4,1,1.4c0.5,0,0.9-0.3,1.4-0.9v-3.2h0.4v4.3h-0.3v-0.7l0,0c-0.4,0.5-0.9,0.8-1.5,0.8
		C40,42,39.6,41.5,39.6,40.3z"/>
	<path d="M44.1,39.7c0-1.5,0.9-2.3,2-2.3c0.6,0,1,0.3,1.3,0.5l-0.2,0.3c-0.3-0.3-0.6-0.5-1-0.5c-0.9,0-1.6,0.8-1.6,1.9
		c0,1.1,0.6,1.9,1.6,1.9c0.5,0,0.9-0.2,1.2-0.5l0.2,0.3c-0.4,0.3-0.8,0.6-1.4,0.6C44.9,42,44.1,41.2,44.1,39.7z"/>
	<path d="M48.6,40.7v-2.8h-0.7v-0.3h0.7l0.1-1.3H49v1.3h1.3v0.3H49v2.8c0,0.5,0.1,0.9,0.7,0.9c0.2,0,0.4-0.1,0.5-0.1l0.1,0.3
		C50,41.9,49.8,42,49.6,42C48.8,42,48.6,41.5,48.6,40.7z"/>
	<path d="M51.1,36.2c0-0.2,0.1-0.4,0.3-0.4s0.3,0.1,0.3,0.4c0,0.2-0.1,0.4-0.3,0.4S51.1,36.4,51.1,36.2z M51.3,37.6h0.4v4.3h-0.4
		V37.6z"/>
	<path d="M53,39.7c0-1.5,0.9-2.3,1.9-2.3s1.9,0.8,1.9,2.3c0,1.4-0.9,2.3-1.9,2.3S53,41.2,53,39.7z M56.4,39.7c0-1.1-0.7-1.9-1.5-1.9
		c-0.9,0-1.5,0.8-1.5,1.9c0,1.1,0.6,1.9,1.5,1.9C55.8,41.6,56.4,40.9,56.4,39.7z"/>
	<path d="M58.1,37.6h0.3v0.7l0,0c0.4-0.4,0.9-0.8,1.5-0.8c0.9,0,1.3,0.5,1.3,1.7V42h-0.4v-2.7c0-0.9-0.3-1.4-1-1.4
		c-0.5,0-0.9,0.3-1.4,0.8V42H58L58.1,37.6L58.1,37.6z"/>
	<path d="M62.5,43c0.4-0.2,0.7-0.6,0.7-1.1h-0.1c-0.2,0-0.4-0.1-0.4-0.4s0.2-0.4,0.4-0.4c0.3,0,0.5,0.2,0.5,0.6
		c0,0.7-0.4,1.2-0.9,1.5L62.5,43z"/>
	<path d="M66.8,36h0.6l1.2,3.5c0.2,0.4,0.3,0.9,0.5,1.3l0,0c0.2-0.4,0.3-0.9,0.5-1.3l1.2-3.5h0.6v5.9H71V38c0-0.5,0-1.1,0.1-1.6l0,0
		l-0.6,1.3l-1.3,3.5h-0.4l-1.2-3.5l-0.5-1.3l0,0c0,0.5,0.1,1.1,0.1,1.6v3.9h-0.4C66.8,41.9,66.8,36,66.8,36z"/>
	<path d="M72.7,39.7c0-1.5,0.9-2.3,1.9-2.3s1.9,0.8,1.9,2.3c0,1.4-0.9,2.3-1.9,2.3S72.7,41.2,72.7,39.7z M76.2,39.7
		c0-1.1-0.7-1.9-1.5-1.9c-0.9,0-1.5,0.8-1.5,1.9c0,1.1,0.6,1.9,1.5,1.9C75.5,41.6,76.2,40.9,76.2,39.7z"/>
	<path d="M77.3,41.7l2.6-3.8h-2.3v-0.3h2.8v0.2l-2.5,3.8h2.6V42h-3.2V41.7z"/>
</g>
<g>
	<path d="M263.5,40.4c0-0.8,0.6-1.3,1.2-1.6l0,0c-0.4-0.3-0.8-0.7-0.8-1.3c0-0.8,0.7-1.4,1.5-1.4c1,0,1.6,0.6,1.6,1.5
		c0,0.6-0.5,1.2-0.8,1.5l0,0c0.5,0.3,1,0.7,1,1.5s-0.7,1.5-1.7,1.5C264.3,42,263.5,41.3,263.5,40.4z M266.7,40.5
		c0-0.9-0.9-1.2-1.8-1.5c-0.6,0.3-1,0.8-1,1.5s0.6,1.3,1.4,1.3C266.2,41.7,266.7,41.1,266.7,40.5z M266.5,37.5
		c0-0.6-0.4-1.2-1.2-1.2c-0.6,0-1.1,0.5-1.1,1.1c0,0.8,0.8,1.1,1.5,1.4C266.3,38.5,266.5,38,266.5,37.5z"/>
	<path d="M267.7,41.2l0.2-0.3c0.3,0.4,0.8,0.7,1.6,0.7c0.8,0,1.3-0.5,1.3-1.3s-0.6-1.3-2-1.3v-0.3c1.3,0,1.8-0.6,1.8-1.3
		c0-0.6-0.5-1.1-1.2-1.1c-0.5,0-1,0.3-1.3,0.6l-0.1-0.2c0.4-0.4,0.9-0.7,1.6-0.7c0.9,0,1.6,0.5,1.6,1.4c0,0.8-0.5,1.2-1.1,1.4l0,0
		c0.7,0.2,1.3,0.7,1.3,1.5c0,1-0.8,1.6-1.8,1.6C268.6,42,268.1,41.6,267.7,41.2z"/>
	<path d="M272.1,41.6c1.9-1.9,2.8-3,2.8-4c0-0.7-0.4-1.3-1.3-1.3c-0.5,0-1,0.3-1.3,0.8l-0.3-0.3c0.4-0.5,0.9-0.8,1.6-0.8
		c1,0,1.6,0.6,1.6,1.6c0,1.1-1,2.2-2.6,3.9c0.3,0,0.6,0,1,0h2v0.4h-3.5L272.1,41.6L272.1,41.6z"/>
	<path d="M276.7,41.6c0-0.3,0.2-0.4,0.4-0.4s0.4,0.2,0.4,0.4c0,0.3-0.2,0.4-0.4,0.4S276.7,41.8,276.7,41.6z"/>
	<path d="M278.4,40.4c0-0.8,0.6-1.3,1.2-1.6l0,0c-0.4-0.3-0.8-0.7-0.8-1.3c0-0.8,0.7-1.4,1.5-1.4c1,0,1.6,0.6,1.6,1.5
		c0,0.6-0.5,1.2-0.8,1.5l0,0c0.5,0.3,1,0.7,1,1.5s-0.7,1.5-1.7,1.5C279.2,42,278.4,41.3,278.4,40.4z M281.6,40.5
		c0-0.9-0.9-1.2-1.8-1.5c-0.6,0.3-1,0.8-1,1.5s0.6,1.3,1.4,1.3C281.1,41.7,281.6,41.1,281.6,40.5z M281.4,37.5
		c0-0.6-0.4-1.2-1.2-1.2c-0.6,0-1.1,0.5-1.1,1.1c0,0.8,0.8,1.1,1.5,1.4C281.2,38.5,281.4,38,281.4,37.5z"/>
</g>
<g>
	<path d="M334.4,40.4c0-0.8,0.6-1.3,1.2-1.6l0,0c-0.4-0.3-0.8-0.7-0.8-1.3c0-0.8,0.7-1.4,1.5-1.4c1,0,1.6,0.6,1.6,1.5
		c0,0.6-0.5,1.2-0.8,1.5l0,0c0.5,0.3,1,0.7,1,1.5s-0.7,1.5-1.7,1.5C335.2,42,334.4,41.3,334.4,40.4z M337.6,40.5
		c0-0.9-0.9-1.2-1.8-1.5c-0.6,0.3-1,0.8-1,1.5s0.6,1.3,1.4,1.3C337,41.7,337.6,41.1,337.6,40.5z M337.4,37.5c0-0.6-0.4-1.2-1.2-1.2
		c-0.6,0-1.1,0.5-1.1,1.1c0,0.8,0.8,1.1,1.5,1.4C337.1,38.5,337.4,38,337.4,37.5z"/>
	<path d="M338.6,41.2l0.2-0.3c0.3,0.4,0.8,0.7,1.6,0.7c0.8,0,1.3-0.5,1.3-1.3s-0.6-1.3-2-1.3v-0.3c1.3,0,1.8-0.6,1.8-1.3
		c0-0.6-0.5-1.1-1.2-1.1c-0.5,0-1,0.3-1.3,0.6l-0.2-0.3c0.4-0.4,0.9-0.7,1.6-0.7c0.9,0,1.6,0.5,1.6,1.4c0,0.8-0.5,1.2-1.1,1.4l0,0
		c0.7,0.2,1.3,0.7,1.3,1.5c0,1-0.8,1.6-1.8,1.6C339.5,42,339,41.6,338.6,41.2z"/>
	<path d="M343.1,41.4l0.2-0.3c0.3,0.3,0.6,0.5,1,0.5c0.9,0,1.7-0.7,1.7-2.8c-0.4,0.5-0.9,0.8-1.5,0.8c-1,0-1.6-0.6-1.6-1.8
		c0-1,0.7-1.8,1.6-1.8c1.1,0,1.9,1,1.9,2.7c0,2.4-1,3.3-2.1,3.3C343.8,42,343.4,41.8,343.1,41.4z M344.7,39.3c0.4,0,1-0.3,1.4-0.9
		c-0.1-1.2-0.5-2-1.5-2c-0.7,0-1.2,0.6-1.2,1.4C343.4,38.7,343.8,39.3,344.7,39.3z"/>
	<path d="M347.6,41.6c0-0.3,0.2-0.4,0.4-0.4s0.4,0.2,0.4,0.4c0,0.3-0.2,0.4-0.4,0.4S347.6,41.8,347.6,41.6z"/>
	<path d="M349.2,41.2l0.2-0.3c0.3,0.4,0.8,0.7,1.6,0.7c0.8,0,1.3-0.5,1.3-1.3s-0.6-1.3-2-1.3v-0.3c1.3,0,1.8-0.6,1.8-1.3
		c0-0.6-0.5-1.1-1.2-1.1c-0.5,0-1,0.3-1.3,0.6l-0.2-0.3c0.4-0.4,0.9-0.7,1.6-0.7c0.9,0,1.6,0.5,1.6,1.4c0,0.8-0.5,1.2-1.1,1.4l0,0
		c0.7,0.2,1.3,0.7,1.3,1.5c0,1-0.8,1.6-1.8,1.6C350.1,42,349.6,41.6,349.2,41.2z"/>
</g>
<g>
	<path d="M405.2,40.4c0-0.8,0.6-1.3,1.2-1.6l0,0c-0.4-0.3-0.8-0.7-0.8-1.3c0-0.8,0.7-1.4,1.5-1.4c1,0,1.6,0.6,1.6,1.5
		c0,0.6-0.5,1.2-0.8,1.5l0,0c0.5,0.3,1,0.7,1,1.5s-0.7,1.5-1.7,1.5C406,42,405.2,41.3,405.2,40.4z M408.4,40.5
		c0-0.9-0.9-1.2-1.8-1.5c-0.6,0.3-1,0.8-1,1.5s0.6,1.3,1.4,1.3C407.9,41.7,408.4,41.1,408.4,40.5z M408.3,37.5
		c0-0.6-0.4-1.2-1.2-1.2c-0.6,0-1.1,0.5-1.1,1.1c0,0.8,0.8,1.1,1.5,1.4C408,38.5,408.3,38,408.3,37.5z"/>
	<path d="M409.7,39.3c0-2.4,1-3.3,2.1-3.3c0.5,0,0.9,0.2,1.2,0.6l-0.2,0.3c-0.3-0.3-0.6-0.5-1-0.5c-0.9,0-1.7,0.7-1.7,2.8
		c0.4-0.5,0.9-0.8,1.4-0.8c1,0,1.6,0.6,1.6,1.8c0,1-0.7,1.8-1.6,1.8C410.4,42,409.7,41,409.7,39.3z M410.1,39.6c0.1,1.2,0.5,2,1.5,2
		c0.7,0,1.2-0.6,1.2-1.5s-0.4-1.4-1.2-1.4C411.1,38.8,410.5,39,410.1,39.6z"/>
	<path d="M413.9,41.6c1.9-1.9,2.8-3,2.8-4c0-0.7-0.4-1.3-1.3-1.3c-0.5,0-1,0.3-1.3,0.8l-0.3-0.3c0.4-0.5,0.9-0.8,1.6-0.8
		c1,0,1.6,0.6,1.6,1.6c0,1.1-1,2.2-2.6,3.9c0.3,0,0.6,0,1,0h2v0.4h-3.5L413.9,41.6L413.9,41.6z"/>
	<path d="M418.4,41.6c0-0.3,0.2-0.4,0.4-0.4s0.4,0.2,0.4,0.4c0,0.3-0.2,0.4-0.4,0.4S418.4,41.8,418.4,41.6z"/>
	<path d="M420.2,40.4c0-0.8,0.6-1.3,1.2-1.6l0,0c-0.4-0.3-0.8-0.7-0.8-1.3c0-0.8,0.7-1.4,1.5-1.4c1,0,1.6,0.6,1.6,1.5
		c0,0.6-0.5,1.2-0.8,1.5l0,0c0.5,0.3,1,0.7,1,1.5s-0.7,1.5-1.7,1.5C420.9,42,420.2,41.3,420.2,40.4z M423.3,40.5
		c0-0.9-0.9-1.2-1.8-1.5c-0.6,0.3-1,0.8-1,1.5s0.6,1.3,1.4,1.3C422.8,41.7,423.3,41.1,423.3,40.5z M423.2,37.5
		c0-0.6-0.4-1.2-1.2-1.2c-0.6,0-1.1,0.5-1.1,1.1c0,0.8,0.8,1.1,1.5,1.4C422.9,38.5,423.2,38,423.2,37.5z"/>
</g>
<g>
	<path d="M476.1,40.4c0-0.8,0.6-1.3,1.2-1.6l0,0c-0.4-0.3-0.8-0.7-0.8-1.3c0-0.8,0.7-1.4,1.5-1.4c1,0,1.6,0.6,1.6,1.5
		c0,0.6-0.5,1.2-0.8,1.5l0,0c0.5,0.3,1,0.7,1,1.5s-0.7,1.5-1.7,1.5C476.9,42,476.1,41.3,476.1,40.4z M479.3,40.5
		c0-0.9-0.9-1.2-1.8-1.5c-0.6,0.3-1,0.8-1,1.5s0.6,1.3,1.4,1.3C478.8,41.7,479.3,41.1,479.3,40.5z M479.1,37.5
		c0-0.6-0.4-1.2-1.2-1.2c-0.6,0-1.1,0.5-1.1,1.1c0,0.8,0.8,1.1,1.5,1.4C478.9,38.5,479.1,38,479.1,37.5z"/>
	<path d="M480.6,41.4l0.2-0.3c0.3,0.3,0.6,0.5,1,0.5c0.9,0,1.7-0.7,1.7-2.8c-0.4,0.5-0.9,0.8-1.5,0.8c-1,0-1.6-0.6-1.6-1.8
		c0-1,0.7-1.8,1.6-1.8c1.1,0,1.9,1,1.9,2.7c0,2.4-1,3.3-2.1,3.3C481.3,42,480.9,41.8,480.6,41.4z M482.1,39.3c0.4,0,1-0.3,1.4-0.9
		c-0.1-1.2-0.5-2-1.5-2c-0.7,0-1.2,0.6-1.2,1.4C480.8,38.7,481.2,39.3,482.1,39.3z"/>
	<path d="M484.8,39c0-1.9,0.6-3,1.7-3s1.7,1.1,1.7,3s-0.6,3-1.7,3S484.8,40.9,484.8,39z M487.8,39c0-1.8-0.5-2.6-1.3-2.6
		s-1.3,0.9-1.3,2.6c0,1.8,0.5,2.7,1.3,2.7S487.8,40.7,487.8,39z"/>
	<path d="M489.3,41.6c0-0.3,0.2-0.4,0.4-0.4s0.4,0.2,0.4,0.4c0,0.3-0.2,0.4-0.4,0.4S489.3,41.8,489.3,41.6z"/>
	<path d="M491,41.6c1.9-1.9,2.8-3,2.8-4c0-0.7-0.4-1.3-1.3-1.3c-0.5,0-1,0.3-1.3,0.8l-0.3-0.3c0.4-0.5,0.9-0.8,1.6-0.8
		c1,0,1.6,0.6,1.6,1.6c0,1.1-1,2.2-2.6,3.9c0.3,0,0.6,0,1,0h2v0.4H491V41.6z"/>
</g>
<g>
	<path d="M4.2,49.9H2.3v-0.4h4.2v0.4H4.6v5.6H4.2V49.9z"/>
	<path d="M7.2,53.3c0-1.4,0.9-2.3,1.9-2.3s1.9,0.8,1.9,2.3c0,1.4-0.9,2.3-1.9,2.3S7.2,54.7,7.2,53.3z M10.7,53.3
		c0-1.1-0.7-1.9-1.5-1.9c-0.9,0-1.5,0.8-1.5,1.9c0,1.1,0.6,1.9,1.5,1.9C10,55.2,10.7,54.4,10.7,53.3z"/>
	<path d="M12.5,54.2v-2.8h-0.7v-0.3h0.7l0.1-1.3h0.3v1.3h1.3v0.3h-1.3v2.8c0,0.5,0.1,0.9,0.7,0.9c0.2,0,0.4-0.1,0.5-0.1l0.1,0.3
		c-0.3,0.1-0.5,0.2-0.7,0.2C12.7,55.6,12.5,55,12.5,54.2z"/>
	<path d="M14.9,54.4c0-1,0.9-1.4,2.8-1.6c0-0.7-0.2-1.4-1-1.4c-0.6,0-1.1,0.3-1.4,0.5l-0.2-0.3c0.3-0.2,0.9-0.6,1.6-0.6
		c1,0,1.4,0.7,1.4,1.7v2.8h-0.3v-0.6l0,0c-0.4,0.4-1,0.7-1.5,0.7C15.5,55.6,14.9,55.2,14.9,54.4z M17.7,54.5V53
		c-1.8,0.2-2.4,0.6-2.4,1.3c0,0.6,0.4,0.9,0.9,0.9S17.1,55,17.7,54.5z"/>
	<path d="M19.6,54.9V49H20v6c0,0.2,0.1,0.3,0.2,0.3c0,0,0.1,0,0.2,0l0.1,0.3c-0.1,0-0.2,0-0.3,0C19.8,55.6,19.6,55.3,19.6,54.9z"/>
	<path d="M23.2,53.3c0-1.4,0.9-2.3,1.9-2.3c0.5,0,0.9,0.2,1.3,0.5v-0.8v-1.8h0.4v6.5h-0.3v-0.6l0,0c-0.4,0.4-0.8,0.7-1.4,0.7
		C23.9,55.6,23.2,54.8,23.2,53.3z M26.4,54.5v-2.6c-0.5-0.4-0.8-0.6-1.3-0.6c-0.9,0-1.5,0.8-1.5,1.9c0,1.1,0.5,1.9,1.4,1.9
		C25.5,55.2,25.9,54.9,26.4,54.5z"/>
	<path d="M28.1,53.3c0-1.4,0.9-2.3,1.9-2.3s1.7,0.7,1.7,2c0,0.1,0,0.2,0,0.3h-3.1c0,1.1,0.7,1.9,1.6,1.9c0.5,0,0.8-0.2,1.2-0.4
		l0.2,0.3c-0.3,0.2-0.7,0.4-1.4,0.4C29,55.6,28.1,54.7,28.1,53.3z M31.2,53c0-1.1-0.5-1.7-1.3-1.7c-0.7,0-1.4,0.6-1.5,1.7H31.2z"/>
	<path d="M32.8,51.1h0.3v0.7l0,0c0.4-0.4,0.9-0.8,1.4-0.8c0.7,0,1,0.4,1.2,0.9c0.5-0.5,1-0.9,1.5-0.9c0.9,0,1.3,0.5,1.3,1.7v2.8
		h-0.4v-2.8c0-0.9-0.3-1.4-1-1.4c-0.4,0-0.8,0.3-1.3,0.8v3.3h-0.4v-2.7c0-0.9-0.3-1.4-1-1.4c-0.4,0-0.8,0.3-1.3,0.8v3.3h-0.4v-4.3
		C32.7,51.1,32.8,51.1,32.8,51.1z"/>
	<path d="M39.8,54.4c0-1,0.9-1.4,2.8-1.6c0-0.7-0.2-1.4-1-1.4c-0.6,0-1.1,0.3-1.4,0.5L40,51.6c0.3-0.2,0.9-0.6,1.6-0.6
		c1,0,1.4,0.7,1.4,1.7v2.8h-0.3v-0.6l0,0c-0.4,0.4-1,0.7-1.5,0.7C40.4,55.6,39.8,55.2,39.8,54.4z M42.6,54.5V53
		c-1.8,0.2-2.4,0.6-2.4,1.3c0,0.6,0.4,0.9,0.9,0.9S42,55,42.6,54.5z"/>
	<path d="M44.5,51.1h0.3v0.7l0,0c0.4-0.4,0.9-0.8,1.5-0.8c0.9,0,1.3,0.5,1.3,1.7v2.8h-0.4v-2.8c0-0.9-0.3-1.4-1-1.4
		c-0.5,0-0.9,0.3-1.4,0.8v3.3h-0.4v-4.3H44.5z"/>
	<path d="M48.9,53.3c0-1.4,0.9-2.3,1.9-2.3c0.5,0,0.9,0.2,1.3,0.5v-0.8v-1.8h0.4v6.5h-0.3v-0.6l0,0c-0.4,0.4-0.8,0.7-1.4,0.7
		C49.6,55.6,48.9,54.8,48.9,53.3z M52.1,54.5v-2.6c-0.5-0.4-0.8-0.6-1.3-0.6c-0.9,0-1.5,0.8-1.5,1.9c0,1.1,0.5,1.9,1.4,1.9
		C51.3,55.2,51.7,54.9,52.1,54.5z"/>
	<path d="M53.8,56.6c0.4-0.2,0.7-0.6,0.7-1.1h-0.1c-0.2,0-0.4-0.1-0.4-0.4s0.2-0.4,0.4-0.4c0.3,0,0.5,0.2,0.5,0.6
		c0,0.7-0.4,1.2-0.9,1.5L53.8,56.6z"/>
	<path d="M58,49.5h0.6l1.2,3.5c0.2,0.4,0.3,0.9,0.5,1.3l0,0c0.2-0.4,0.3-0.9,0.5-1.3l1.2-3.5h0.6v5.9h-0.4v-3.9c0-0.5,0-1.1,0.1-1.6
		l0,0l-0.5,1.3l-1.3,3.5h-0.4l-1.3-3.5l-0.5-1.3l0,0c0,0.5,0.1,1.1,0.1,1.6v3.9H58V49.5z"/>
	<path d="M64,53.3c0-1.4,0.9-2.3,1.9-2.3s1.9,0.8,1.9,2.3c0,1.4-0.9,2.3-1.9,2.3S64,54.7,64,53.3z M67.4,53.3c0-1.1-0.7-1.9-1.5-1.9
		c-0.9,0-1.5,0.8-1.5,1.9c0,1.1,0.6,1.9,1.5,1.9S67.4,54.4,67.4,53.3z"/>
	<path d="M68.6,55.2l2.6-3.8h-2.3v-0.3h2.8v0.2l-2.5,3.8h2.6v0.4h-3.2V55.2z"/>
</g>
<g>
	<path d="M263.7,55l0.2-0.3c0.3,0.3,0.6,0.5,1,0.5c0.9,0,1.7-0.7,1.7-2.8c-0.4,0.5-0.9,0.8-1.5,0.8c-1,0-1.6-0.6-1.6-1.8
		c0-1,0.7-1.8,1.6-1.8c1.1,0,1.9,1,1.9,2.7c0,2.4-1,3.3-2.1,3.3C264.3,55.6,263.9,55.3,263.7,55z M265.2,52.8c0.4,0,1-0.3,1.4-0.9
		c-0.1-1.2-0.5-2-1.5-2c-0.7,0-1.2,0.6-1.2,1.4C263.9,52.2,264.3,52.8,265.2,52.8z"/>
	<path d="M267.7,54.8l0.2-0.3c0.3,0.4,0.8,0.7,1.6,0.7c0.8,0,1.4-0.6,1.4-1.5s-0.5-1.5-1.4-1.5c-0.4,0-0.7,0.2-1.1,0.4l-0.3-0.2
		l0.2-2.7h2.7v0.4h-2.3l-0.2,2.1c0.3-0.2,0.6-0.3,1-0.3c1,0,1.8,0.6,1.8,1.8s-0.9,1.9-1.8,1.9C268.6,55.6,268.1,55.1,267.7,54.8z"/>
	<path d="M272,54.7l0.2-0.3c0.3,0.4,0.8,0.7,1.6,0.7c0.8,0,1.3-0.5,1.3-1.3s-0.6-1.3-2-1.3v-0.4c1.3,0,1.8-0.6,1.8-1.3
		c0-0.6-0.5-1.1-1.2-1.1c-0.5,0-1,0.3-1.3,0.6l-0.2-0.3c0.4-0.4,0.9-0.7,1.6-0.7c0.9,0,1.6,0.5,1.6,1.4c0,0.8-0.5,1.2-1.1,1.4l0,0
		c0.7,0.2,1.3,0.7,1.3,1.5c0,1-0.8,1.6-1.8,1.6C272.9,55.6,272.4,55.1,272,54.7z"/>
	<path d="M276.7,55.1c0-0.3,0.2-0.4,0.4-0.4s0.4,0.2,0.4,0.4c0,0.3-0.2,0.4-0.4,0.4S276.7,55.4,276.7,55.1z"/>
	<path d="M278.3,54.7l0.2-0.3c0.3,0.4,0.8,0.7,1.6,0.7c0.8,0,1.3-0.5,1.3-1.3s-0.6-1.3-2-1.3v-0.4c1.3,0,1.8-0.6,1.8-1.3
		c0-0.6-0.5-1.1-1.2-1.1c-0.5,0-1,0.3-1.3,0.6l-0.2-0.3c0.4-0.4,0.9-0.7,1.6-0.7c0.9,0,1.6,0.5,1.6,1.4c0,0.8-0.5,1.2-1.1,1.4l0,0
		c0.7,0.2,1.3,0.7,1.3,1.5c0,1-0.8,1.6-1.8,1.6C279.2,55.6,278.7,55.1,278.3,54.7z"/>
</g>
<g>
	<path d="M334.5,55l0.2-0.3c0.3,0.3,0.6,0.5,1,0.5c0.9,0,1.7-0.7,1.7-2.8c-0.4,0.5-0.9,0.8-1.5,0.8c-1,0-1.6-0.6-1.6-1.8
		c0-1,0.7-1.8,1.6-1.8c1.1,0,1.9,1,1.9,2.7c0,2.4-1,3.3-2.1,3.3C335.2,55.6,334.8,55.3,334.5,55z M336.1,52.8c0.4,0,1-0.3,1.4-0.9
		c-0.1-1.2-0.5-2-1.5-2c-0.7,0-1.2,0.6-1.2,1.4C334.8,52.2,335.2,52.8,336.1,52.8z"/>
	<path d="M341.8,50h-3v-0.3h3.5v0.2c-1.4,1.8-1.7,3.3-1.8,5.5H340C340.1,53.1,340.6,51.7,341.8,50z"/>
	<path d="M343.1,52.5c0-1.9,0.6-3,1.7-3s1.7,1.1,1.7,3s-0.6,3-1.7,3C343.7,55.6,343.1,54.5,343.1,52.5z M346.1,52.5
		c0-1.8-0.5-2.6-1.3-2.6s-1.3,0.9-1.3,2.6c0,1.8,0.5,2.7,1.3,2.7S346.1,54.3,346.1,52.5z"/>
	<path d="M347.6,55.1c0-0.3,0.2-0.4,0.4-0.4s0.4,0.2,0.4,0.4c0,0.3-0.2,0.4-0.4,0.4S347.6,55.4,347.6,55.1z"/>
	<path d="M349.2,54.8l0.2-0.3c0.3,0.4,0.8,0.7,1.6,0.7c0.8,0,1.4-0.6,1.4-1.5s-0.5-1.5-1.4-1.5c-0.4,0-0.7,0.2-1.1,0.4l-0.3-0.2
		l0.2-2.7h2.7v0.4h-2.3l-0.2,2.1c0.3-0.2,0.6-0.3,1-0.3c1,0,1.8,0.6,1.8,1.8s-0.9,1.9-1.8,1.9C350,55.6,349.5,55.1,349.2,54.8z"/>
</g>
<g>
	<path d="M405.4,55l0.2-0.3c0.3,0.3,0.6,0.5,1,0.5c0.9,0,1.7-0.7,1.7-2.8c-0.4,0.5-0.9,0.8-1.5,0.8c-1,0-1.6-0.6-1.6-1.8
		c0-1,0.7-1.8,1.6-1.8c1.1,0,1.9,1,1.9,2.7c0,2.4-1,3.3-2.1,3.3C406.1,55.6,405.7,55.3,405.4,55z M406.9,52.8c0.4,0,1-0.3,1.4-0.9
		c-0.1-1.2-0.5-2-1.5-2c-0.7,0-1.2,0.6-1.2,1.4C405.7,52.2,406,52.8,406.9,52.8z"/>
	<path d="M409.6,54c0-0.8,0.6-1.3,1.2-1.6l0,0c-0.4-0.3-0.8-0.7-0.8-1.3c0-0.8,0.7-1.4,1.5-1.4c1,0,1.6,0.6,1.6,1.5
		c0,0.6-0.5,1.2-0.8,1.5l0,0c0.5,0.3,1,0.7,1,1.5s-0.7,1.5-1.7,1.5C410.3,55.6,409.6,54.9,409.6,54z M412.7,54
		c0-0.9-0.9-1.2-1.8-1.5c-0.6,0.3-1,0.8-1,1.5s0.6,1.3,1.4,1.3C412.2,55.2,412.7,54.7,412.7,54z M412.6,51.1c0-0.6-0.4-1.2-1.2-1.2
		c-0.6,0-1.1,0.5-1.1,1.1c0,0.8,0.8,1.1,1.5,1.4C412.3,52,412.6,51.6,412.6,51.1z"/>
	<path d="M413.9,54c0-0.8,0.6-1.3,1.2-1.6l0,0c-0.4-0.3-0.8-0.7-0.8-1.3c0-0.8,0.7-1.4,1.5-1.4c1,0,1.6,0.6,1.6,1.5
		c0,0.6-0.5,1.2-0.8,1.5l0,0c0.5,0.3,1,0.7,1,1.5s-0.7,1.5-1.7,1.5C414.6,55.6,413.9,54.9,413.9,54z M417,54c0-0.9-0.9-1.2-1.8-1.5
		c-0.6,0.3-1,0.8-1,1.5s0.6,1.3,1.4,1.3C416.5,55.2,417,54.7,417,54z M416.9,51.1c0-0.6-0.4-1.2-1.2-1.2c-0.6,0-1.1,0.5-1.1,1.1
		c0,0.8,0.8,1.1,1.5,1.4C416.6,52,416.9,51.6,416.9,51.1z"/>
	<path d="M418.4,55.1c0-0.3,0.2-0.4,0.4-0.4s0.4,0.2,0.4,0.4c0,0.3-0.2,0.4-0.4,0.4S418.4,55.4,418.4,55.1z"/>
	<path d="M420.3,55l0.2-0.3c0.3,0.3,0.6,0.5,1,0.5c0.9,0,1.7-0.7,1.7-2.8c-0.4,0.5-0.9,0.8-1.5,0.8c-1,0-1.6-0.6-1.6-1.8
		c0-1,0.7-1.8,1.6-1.8c1.1,0,1.9,1,1.9,2.7c0,2.4-1,3.3-2.1,3.3C421,55.6,420.6,55.3,420.3,55z M421.8,52.8c0.4,0,1-0.3,1.4-0.9
		c-0.1-1.2-0.5-2-1.5-2c-0.7,0-1.2,0.6-1.2,1.4C420.6,52.2,420.9,52.8,421.8,52.8z"/>
</g>
<g>
	<path d="M476.3,55l0.2-0.3c0.3,0.3,0.6,0.5,1,0.5c0.9,0,1.7-0.7,1.7-2.8c-0.4,0.5-0.9,0.8-1.5,0.8c-1,0-1.6-0.6-1.6-1.8
		c0-1,0.7-1.8,1.6-1.8c1.1,0,1.9,1,1.9,2.7c0,2.4-1,3.3-2.1,3.3C476.9,55.6,476.5,55.3,476.3,55z M477.8,52.8c0.4,0,1-0.3,1.4-0.9
		c-0.1-1.2-0.5-2-1.5-2c-0.7,0-1.2,0.6-1.2,1.4C476.5,52.2,476.9,52.8,477.8,52.8z"/>
	<path d="M480.4,54c0-0.8,0.6-1.3,1.2-1.6l0,0c-0.4-0.3-0.8-0.7-0.8-1.3c0-0.8,0.7-1.4,1.5-1.4c1,0,1.6,0.6,1.6,1.5
		c0,0.6-0.5,1.2-0.8,1.5l0,0c0.5,0.3,1,0.7,1,1.5s-0.7,1.5-1.7,1.5C481.2,55.6,480.4,54.9,480.4,54z M483.6,54
		c0-0.9-0.9-1.2-1.8-1.5c-0.6,0.3-1,0.8-1,1.5s0.6,1.3,1.4,1.3C483.1,55.2,483.6,54.7,483.6,54z M483.4,51.1c0-0.6-0.4-1.2-1.2-1.2
		c-0.6,0-1.1,0.5-1.1,1.1c0,0.8,0.8,1.1,1.5,1.4C483.2,52,483.4,51.6,483.4,51.1z"/>
	<path d="M484.7,54c0-0.8,0.6-1.3,1.2-1.6l0,0c-0.4-0.3-0.8-0.7-0.8-1.3c0-0.8,0.7-1.4,1.5-1.4c1,0,1.6,0.6,1.6,1.5
		c0,0.6-0.5,1.2-0.8,1.5l0,0c0.5,0.3,1,0.7,1,1.5s-0.7,1.5-1.7,1.5C485.5,55.6,484.7,54.9,484.7,54z M487.9,54
		c0-0.9-0.9-1.2-1.8-1.5c-0.6,0.3-1,0.8-1,1.5s0.6,1.3,1.4,1.3C487.4,55.2,487.9,54.7,487.9,54z M487.7,51.1c0-0.6-0.4-1.2-1.2-1.2
		c-0.6,0-1.1,0.5-1.1,1.1c0,0.8,0.8,1.1,1.5,1.4C487.5,52,487.7,51.6,487.7,51.1z"/>
	<path d="M489.3,55.1c0-0.3,0.2-0.4,0.4-0.4s0.4,0.2,0.4,0.4c0,0.3-0.2,0.4-0.4,0.4S489.3,55.4,489.3,55.1z"/>
	<path d="M491,55.2c1.9-1.9,2.8-3,2.8-4c0-0.7-0.4-1.3-1.3-1.3c-0.5,0-1,0.3-1.3,0.8l-0.3-0.3c0.4-0.5,0.9-0.8,1.6-0.8
		c1,0,1.6,0.6,1.6,1.6c0,1.1-1,2.2-2.6,3.9c0.3,0,0.6,0,1,0h2v0.4H491V55.2z"/>
</g>
<g>
	<path d="M2.9,63.1h0.6l1.2,3.5C4.9,67,5,67.5,5.2,67.9l0,0c0.2-0.4,0.3-0.9,0.5-1.3l1.2-3.5h0.6V69H7.1v-3.9c0-0.5,0-1.1,0.1-1.6
		l0,0l-0.5,1.3l-1.3,3.5H5l-1.3-3.5l-0.5-1.3l0,0c0,0.5,0.1,1.1,0.1,1.6V69H2.9V63.1z"/>
	<path d="M8.9,67.9c0-1,0.9-1.4,2.8-1.6c0-0.7-0.2-1.4-1-1.4c-0.6,0-1.1,0.3-1.4,0.5l-0.2-0.3c0.3-0.2,0.9-0.6,1.6-0.6
		c1,0,1.4,0.7,1.4,1.7V69h-0.3v-0.6l0,0c-0.4,0.4-1,0.7-1.5,0.7C9.5,69.1,8.9,68.7,8.9,67.9z M11.7,68.1v-1.5
		c-1.8,0.2-2.4,0.6-2.4,1.3c0,0.6,0.4,0.9,0.9,0.9S11.2,68.5,11.7,68.1z"/>
	<path d="M13.6,64.7H14v0.8l0,0c0.3-0.5,0.7-0.9,1.2-0.9c0.2,0,0.3,0,0.4,0.1l-0.1,0.4C15.4,65,15.3,65,15.1,65
		c-0.4,0-0.8,0.3-1.2,1.1V69h-0.4L13.6,64.7L13.6,64.7z"/>
	<path d="M16.5,62.5h0.4v4.8l0,0l2.1-2.6h0.5l-1.4,1.7l1.6,2.6h-0.4l-1.5-2.3l-1,1.1V69h-0.4L16.5,62.5L16.5,62.5z"/>
	<path d="M20.3,66.8c0-1.4,0.9-2.3,1.9-2.3s1.7,0.7,1.7,2c0,0.1,0,0.2,0,0.3h-3.1c0,1.1,0.7,1.9,1.6,1.9c0.5,0,0.8-0.2,1.2-0.4
		l0.2,0.3c-0.3,0.2-0.7,0.4-1.4,0.4C21.2,69.1,20.3,68.3,20.3,66.8z M23.5,66.6c0-1.1-0.5-1.7-1.3-1.7c-0.7,0-1.4,0.6-1.5,1.7H23.5z
		"/>
	<path d="M25.1,67.8V65h-0.7v-0.3h0.7l0.1-1.3h0.3v1.3h1.3V65h-1.3v2.8c0,0.5,0.1,0.9,0.7,0.9c0.2,0,0.4-0.1,0.5-0.1l0.1,0.3
		c-0.3,0.1-0.5,0.2-0.7,0.2C25.3,69.1,25.1,68.6,25.1,67.8z"/>
	<path d="M30,68.6L30,68.6L29.9,69h-0.3v-6.5H30v1.9v0.8c0.4-0.4,1-0.7,1.5-0.7c1.2,0,1.7,0.9,1.7,2.2c0,1.5-0.9,2.3-1.9,2.3
		C30.9,69.1,30.4,68.9,30,68.6z M32.8,66.8c0-1.1-0.4-1.9-1.4-1.9c-0.4,0-0.9,0.3-1.4,0.7v2.6c0.5,0.4,0.9,0.6,1.3,0.6
		C32.2,68.8,32.8,67.9,32.8,66.8z"/>
	<path d="M34.2,67.9c0-1,0.9-1.4,2.8-1.6c0-0.7-0.2-1.4-1-1.4c-0.6,0-1.1,0.3-1.4,0.5l-0.2-0.3c0.3-0.2,0.9-0.6,1.6-0.6
		c1,0,1.4,0.7,1.4,1.7V69H37v-0.6l0,0c-0.4,0.4-1,0.7-1.5,0.7C34.7,69.1,34.2,68.7,34.2,67.9z M37,68.1v-1.5
		c-1.8,0.2-2.4,0.6-2.4,1.3c0,0.6,0.4,0.9,0.9,0.9S36.4,68.5,37,68.1z"/>
	<path d="M38.9,68.4v-5.9h0.4v6c0,0.2,0.1,0.3,0.2,0.3c0,0,0.1,0,0.2,0l0.1,0.3c-0.1,0-0.2,0-0.3,0C39.1,69.1,38.9,68.9,38.9,68.4z"
		/>
	<path d="M40.7,67.9c0-1,0.9-1.4,2.8-1.6c0-0.7-0.2-1.4-1-1.4c-0.6,0-1.1,0.3-1.4,0.5l-0.2-0.3c0.3-0.2,0.9-0.6,1.6-0.6
		c1,0,1.4,0.7,1.4,1.7V69h-0.3v-0.6l0,0c-0.4,0.4-1,0.7-1.5,0.7C41.3,69.1,40.7,68.7,40.7,67.9z M43.5,68.1v-1.5
		c-1.8,0.2-2.4,0.6-2.4,1.3c0,0.6,0.4,0.9,0.9,0.9S43,68.5,43.5,68.1z"/>
	<path d="M45.5,64.7h0.3v0.7l0,0c0.4-0.4,0.9-0.8,1.5-0.8c0.9,0,1.3,0.5,1.3,1.7v2.8h-0.4v-2.7c0-0.9-0.3-1.4-1-1.4
		c-0.5,0-0.9,0.3-1.4,0.8v3.3h-0.4v-4.4H45.5z"/>
	<path d="M49.9,66.8c0-1.4,0.9-2.3,2-2.3c0.6,0,1,0.3,1.3,0.5L53,65.3c-0.3-0.3-0.6-0.5-1-0.5c-0.9,0-1.6,0.8-1.6,1.9
		s0.6,1.9,1.6,1.9c0.5,0,0.9-0.2,1.2-0.5l0.2,0.3C53,68.7,52.6,69,52,69C50.7,69.1,49.9,68.3,49.9,66.8z"/>
	<path d="M53.9,66.8c0-1.4,0.9-2.3,1.9-2.3s1.7,0.7,1.7,2c0,0.1,0,0.2,0,0.3h-3.1c0,1.1,0.7,1.9,1.6,1.9c0.5,0,0.8-0.2,1.2-0.4
		l0.2,0.3C57.1,68.8,56.7,69,56,69C54.8,69.1,53.9,68.3,53.9,66.8z M57.1,66.6c0-1.1-0.5-1.7-1.3-1.7c-0.7,0-1.4,0.6-1.5,1.7H57.1z"
		/>
	<path d="M58.2,70.1c0.4-0.2,0.7-0.6,0.7-1.1h-0.1c-0.2,0-0.4-0.1-0.4-0.4s0.2-0.4,0.4-0.4c0.3,0,0.5,0.2,0.5,0.6
		c0,0.7-0.4,1.2-0.9,1.5L58.2,70.1z"/>
	<path d="M62.4,63.1H63l1.2,3.5c0.2,0.4,0.3,0.9,0.5,1.3l0,0c0.2-0.4,0.3-0.9,0.5-1.3l1.2-3.5H67V69h-0.4v-3.9c0-0.5,0-1.1,0.1-1.6
		l0,0l-0.5,1.3l-1.3,3.5h-0.4l-1.3-3.5l-0.5-1.3l0,0c0,0.5,0.1,1.1,0.1,1.6V69h-0.4L62.4,63.1L62.4,63.1z"/>
	<path d="M68.4,66.8c0-1.4,0.9-2.3,1.9-2.3s1.9,0.8,1.9,2.3c0,1.4-0.9,2.3-1.9,2.3S68.4,68.3,68.4,66.8z M71.9,66.8
		c0-1.1-0.7-1.9-1.5-1.9c-0.9,0-1.5,0.8-1.5,1.9s0.6,1.9,1.5,1.9C71.2,68.8,71.9,68,71.9,66.8z"/>
	<path d="M73,68.8l2.6-3.8h-2.3v-0.3h2.8v0.2l-2.5,3.8h2.6v0.4H73V68.8z"/>
</g>
<g>
	<path d="M270.3,67.3h-2.6v-0.2l2.7-3.8h0.4V67h0.9v0.3h-0.9V69h-0.4v-1.7H270.3z M270.3,66.9v-2.1c0-0.3,0-0.7,0-1l0,0
		c-0.1,0.2-0.3,0.5-0.5,0.7l-1.7,2.4H270.3z"/>
	<path d="M272,68.3l0.2-0.3c0.3,0.4,0.8,0.7,1.6,0.7c0.8,0,1.4-0.6,1.4-1.5s-0.5-1.5-1.4-1.5c-0.4,0-0.7,0.2-1.1,0.4l-0.3-0.2
		l0.2-2.7h2.7v0.4H273l-0.2,2.1c0.3-0.2,0.6-0.3,1-0.3c1,0,1.8,0.6,1.8,1.8c0,1.2-0.9,1.9-1.8,1.9C272.9,69.1,272.4,68.7,272,68.3z"
		/>
	<path d="M276.7,68.7c0-0.3,0.2-0.4,0.4-0.4s0.4,0.2,0.4,0.4c0,0.3-0.2,0.4-0.4,0.4S276.7,69,276.7,68.7z"/>
	<path d="M278.3,68.3l0.2-0.3c0.3,0.4,0.8,0.7,1.6,0.7c0.8,0,1.4-0.6,1.4-1.5s-0.5-1.5-1.4-1.5c-0.4,0-0.7,0.2-1.1,0.4l-0.3-0.2
		l0.2-2.7h2.7v0.4h-2.3l-0.2,2.1c0.3-0.2,0.6-0.3,1-0.3c1,0,1.8,0.6,1.8,1.8c0,1.2-0.9,1.9-1.8,1.9
		C279.2,69.1,278.7,68.7,278.3,68.3z"/>
</g>
<g>
	<path d="M338.6,68.3l0.2-0.3c0.3,0.4,0.8,0.7,1.6,0.7c0.8,0,1.3-0.5,1.3-1.3s-0.6-1.3-2-1.3v-0.4c1.3,0,1.8-0.6,1.8-1.3
		c0-0.6-0.5-1.1-1.2-1.1c-0.5,0-1,0.3-1.3,0.6l-0.2-0.3c0.4-0.4,0.9-0.7,1.6-0.7c0.9,0,1.6,0.5,1.6,1.4c0,0.8-0.5,1.2-1.1,1.4l0,0
		c0.7,0.2,1.3,0.7,1.3,1.5c0,1-0.8,1.6-1.8,1.6C339.5,69.1,339,68.7,338.6,68.3z"/>
	<path d="M342.9,68.3l0.2-0.3c0.3,0.4,0.8,0.7,1.6,0.7c0.8,0,1.3-0.5,1.3-1.3s-0.6-1.3-2-1.3v-0.4c1.3,0,1.8-0.6,1.8-1.3
		c0-0.6-0.5-1.1-1.2-1.1c-0.5,0-1,0.3-1.3,0.6l-0.2-0.3c0.4-0.4,0.9-0.7,1.6-0.7c0.9,0,1.6,0.5,1.6,1.4c0,0.8-0.5,1.2-1.1,1.4l0,0
		c0.7,0.2,1.3,0.7,1.3,1.5c0,1-0.8,1.6-1.8,1.6C343.8,69.1,343.3,68.7,342.9,68.3z"/>
	<path d="M347.6,68.7c0-0.3,0.2-0.4,0.4-0.4s0.4,0.2,0.4,0.4c0,0.3-0.2,0.4-0.4,0.4S347.6,69,347.6,68.7z"/>
	<path d="M349.4,68.5l0.2-0.3c0.3,0.3,0.6,0.5,1,0.5c0.9,0,1.7-0.7,1.7-2.8c-0.4,0.5-0.9,0.8-1.5,0.8c-1,0-1.6-0.6-1.6-1.8
		c0-1,0.7-1.8,1.6-1.8c1.1,0,1.9,1,1.9,2.7c0,2.4-1,3.3-2.1,3.3C350.1,69.1,349.7,68.9,349.4,68.5z M351,66.4c0.4,0,1-0.3,1.4-0.9
		c-0.1-1.2-0.5-2-1.5-2c-0.7,0-1.2,0.6-1.2,1.4C349.7,65.8,350.1,66.4,351,66.4z"/>
</g>
<g>
	<path d="M412,67.3h-2.6v-0.2l2.7-3.8h0.4V67h0.9v0.3h-0.9V69H412V67.3z M412,66.9v-2.1c0-0.3,0-0.7,0-1l0,0
		c-0.1,0.2-0.3,0.5-0.5,0.7l-1.7,2.4H412z"/>
	<path d="M414,68.5l0.2-0.3c0.3,0.3,0.6,0.5,1,0.5c0.9,0,1.7-0.7,1.7-2.8c-0.4,0.5-0.9,0.8-1.5,0.8c-1,0-1.6-0.6-1.6-1.8
		c0-1,0.7-1.8,1.6-1.8c1.1,0,1.9,1,1.9,2.7c0,2.4-1,3.3-2.1,3.3C414.7,69.1,414.3,68.9,414,68.5z M415.5,66.4c0.4,0,1-0.3,1.4-0.9
		c-0.1-1.2-0.5-2-1.5-2c-0.7,0-1.2,0.6-1.2,1.4C414.3,65.8,414.7,66.4,415.5,66.4z"/>
	<path d="M418.4,68.7c0-0.3,0.2-0.4,0.4-0.4s0.4,0.2,0.4,0.4c0,0.3-0.2,0.4-0.4,0.4S418.4,69,418.4,68.7z"/>
	<path d="M420,68.3l0.2-0.3c0.3,0.4,0.8,0.7,1.6,0.7c0.8,0,1.4-0.6,1.4-1.5s-0.5-1.5-1.4-1.5c-0.4,0-0.7,0.2-1.1,0.4l-0.3-0.2
		l0.2-2.7h2.7v0.4H421l-0.2,2.1c0.3-0.2,0.6-0.3,1-0.3c1,0,1.8,0.6,1.8,1.8c0,1.2-0.9,1.9-1.8,1.9C420.9,69.1,420.4,68.7,420,68.3z"
		/>
</g>
<g>
	<path d="M480.4,67.5c0-0.8,0.6-1.3,1.2-1.6l0,0c-0.4-0.3-0.8-0.7-0.8-1.3c0-0.8,0.7-1.4,1.5-1.4c1,0,1.6,0.6,1.6,1.5
		c0,0.6-0.5,1.2-0.8,1.5l0,0c0.5,0.3,1,0.7,1,1.5s-0.7,1.5-1.7,1.5C481.2,69.1,480.4,68.4,480.4,67.5z M483.6,67.6
		c0-0.9-0.9-1.2-1.8-1.5c-0.6,0.3-1,0.8-1,1.5s0.6,1.3,1.4,1.3C483.1,68.8,483.6,68.2,483.6,67.6z M483.4,64.6
		c0-0.6-0.4-1.2-1.2-1.2c-0.6,0-1.1,0.5-1.1,1.1c0,0.8,0.8,1.1,1.5,1.4C483.2,65.6,483.4,65.1,483.4,64.6z"/>
	<path d="M485.1,68.6h1.4v-4.8h-1v-0.3c0.5-0.1,0.8-0.2,1.1-0.4h0.3v5.4h1.3v0.4h-3L485.1,68.6L485.1,68.6z"/>
	<path d="M489.3,68.7c0-0.3,0.2-0.4,0.4-0.4s0.4,0.2,0.4,0.4c0,0.3-0.2,0.4-0.4,0.4S489.3,69,489.3,68.7z"/>
	<path d="M491,68.7c1.9-1.9,2.8-3,2.8-4c0-0.7-0.4-1.3-1.3-1.3c-0.5,0-1,0.3-1.3,0.8l-0.3-0.3c0.4-0.5,0.9-0.8,1.6-0.8
		c1,0,1.6,0.6,1.6,1.6c0,1.1-1,2.2-2.6,3.9c0.3,0,0.6,0,1,0h2V69H491V68.7z"/>
</g>
<g>
	<path d="M1,6.8l0.8-1c0.5,0.4,1.1,0.7,1.6,0.7c0.6,0,0.9-0.2,0.9-0.6S3.9,5.4,3.4,5.1L2.5,4.7C1.8,4.4,1.2,3.9,1.2,2.9
		c0-1.1,1-1.9,2.3-1.9C4.2,1,5,1.3,5.6,1.9L4.9,2.7C4.5,2.4,4.1,2.2,3.6,2.2C3,2.2,2.7,2.4,2.7,2.8s0.4,0.5,1,0.8l0.8,0.3
		c0.8,0.3,1.3,0.8,1.3,1.8c0,1.1-0.9,2-2.5,2C2.5,7.7,1.6,7.4,1,6.8z"/>
	<path d="M6.9,1.1h1.5v6.5H6.9V1.1z"/>
	<path d="M9.9,1.1h1.5v5.3H14v1.2h-4V1.1H9.9z"/>
	<path d="M13.5,1.1h1.6l0.8,3c0.2,0.7,0.3,1.4,0.5,2.1l0,0c0.2-0.7,0.3-1.4,0.5-2.1l0.8-3h1.5l-2,6.5h-1.8L13.5,1.1z"/>
	<path d="M19.9,1.1H24v1.2h-2.6v1.3h2.2v1.2h-2.2v1.5h2.7v1.2h-4.2C19.9,7.5,19.9,1.1,19.9,1.1z"/>
	<path d="M25.4,1.1h2.3c1.4,0,2.5,0.5,2.5,2c0,1-0.5,1.6-1.2,1.9l1.5,2.6h-1.6l-1.3-2.3h-0.8v2.3h-1.5L25.4,1.1L25.4,1.1z M27.6,4.1
		c0.8,0,1.2-0.3,1.2-1s-0.4-0.9-1.2-0.9h-0.8V4L27.6,4.1L27.6,4.1z"/>
	<path d="M33.2,4.5h2.5v1h-2.5V4.5z"/>
	<path d="M38.8,1.1h1.8c2,0,3.3,1,3.3,3.2s-1.3,3.3-3.2,3.3h-1.9C38.8,7.6,38.8,1.1,38.8,1.1z M40.6,6.4c1.1,0,1.8-0.5,1.8-2.1
		s-0.7-2-1.8-2h-0.3v4.1H40.6z"/>
	<path d="M45.2,1.1h4.1v1.2h-2.6v1.3h2.2v1.2h-2.2v1.5h2.7v1.2h-4.2V1.1z"/>
	<path d="M50.7,1.1h1.6l1,2.9c0.1,0.4,0.3,0.8,0.4,1.2l0,0c0.1-0.4,0.2-0.8,0.4-1.2l1-2.9h1.6v6.5h-1.3V5.2c0-0.6,0.1-1.6,0.2-2.2
		l0,0L55,4.5L54.1,7h-0.8l-0.9-2.5L51.9,3l0,0c0.1,0.6,0.2,1.6,0.2,2.2v2.4h-1.3L50.7,1.1L50.7,1.1z"/>
	<path d="M59.5,1.1h1.8l2,6.5h-1.6l-0.4-1.5h-2L59,7.6h-1.5L59.5,1.1z M59.7,4.9H61l-0.2-0.6c-0.2-0.7-0.4-1.4-0.5-2.1l0,0
		c-0.2,0.7-0.3,1.4-0.5,2.1L59.7,4.9z"/>
	<path d="M64,1.1h1.5l1.7,3.2l0.6,1.4l0,0c-0.1-0.7-0.2-1.6-0.2-2.4V1.1H69v6.5h-1.5l-1.7-3.2L65.2,3l0,0c0.1,0.7,0.2,1.6,0.2,2.4
		v2.3H64V1.1z"/>
	<path d="M70.7,1.1h1.8c2,0,3.3,1,3.3,3.2s-1.3,3.3-3.2,3.3h-1.9C70.7,7.6,70.7,1.1,70.7,1.1z M72.4,6.4c1.1,0,1.8-0.5,1.8-2.1
		s-0.7-2-1.8-2h-0.3v4.1H72.4z"/>
	<path d="M78.6,6.8l0.8-1c0.5,0.4,1.1,0.7,1.6,0.7c0.6,0,0.9-0.2,0.9-0.6S81.5,5.4,81,5.1l-0.8-0.4c-0.7-0.3-1.3-0.8-1.3-1.8
		c0-1.1,1-1.9,2.3-1.9c0.7,0,1.5,0.3,2.1,0.9l-0.8,0.8c-0.4-0.3-0.8-0.5-1.3-0.5s-0.8,0.2-0.8,0.6s0.4,0.5,1,0.8l0.8,0.3
		c0.8,0.3,1.3,0.8,1.3,1.8c0,1.1-0.9,2-2.5,2C80.2,7.7,79.3,7.4,78.6,6.8z"/>
	<path d="M84.5,4.6V1.1H86v3.6c0,1.3,0.4,1.7,1.1,1.7s1.1-0.4,1.1-1.7V1.1h1.4v3.5c0,2.2-0.9,3.1-2.6,3.1
		C85.5,7.7,84.5,6.8,84.5,4.6z"/>
	<path d="M91.2,1.1h2.2c1.4,0,2.6,0.5,2.6,2.1c0,1.5-1.2,2.2-2.5,2.2h-0.8v2.2h-1.5C91.2,7.6,91.2,1.1,91.2,1.1z M93.4,4.2
		c0.8,0,1.2-0.4,1.2-1s-0.4-0.9-1.2-0.9h-0.7v2L93.4,4.2L93.4,4.2z"/>
	<path d="M97.2,1.1h2.2c1.4,0,2.6,0.5,2.6,2.1c0,1.5-1.2,2.2-2.5,2.2h-0.8v2.2h-1.5C97.2,7.6,97.2,1.1,97.2,1.1z M99.4,4.2
		c0.8,0,1.2-0.4,1.2-1s-0.4-0.9-1.2-0.9h-0.7v2L99.4,4.2L99.4,4.2z"/>
	<path d="M103.1,1.1h1.5v5.3h2.6v1.2h-4L103.1,1.1L103.1,1.1z"/>
	<path d="M108.6,5.3l-2-4.2h1.6l0.6,1.5c0.2,0.5,0.3,0.9,0.5,1.4l0,0c0.2-0.5,0.4-0.9,0.5-1.4l0.6-1.5h1.5l-2,4.2v2.3h-1.5V5.3
		H108.6z"/>
</g>
</svg>
