<?xml version="1.0" encoding="utf-8"?>
<!-- Generator: Adobe Illustrator 23.0.3, SVG Export Plug-In . SVG Version: 6.00 Build 0)  -->
<svg version="1.1" id="Layer_1" xmlns="http://www.w3.org/2000/svg" xmlns:xlink="http://www.w3.org/1999/xlink" x="0px" y="0px"
	 viewBox="0 0 499 78.5" style="enable-background:new 0 0 499 78.5;" xml:space="preserve">
<style type="text/css">
	.st0{fill:#00AE4D;}
	.st1{fill:#FFFFFF;}
	.st2{fill:#A3D4A0;}
	.st3{fill:none;stroke:#939598;stroke-width:0.5;stroke-miterlimit:10;}
	.st4{fill:none;stroke:#939598;stroke-width:0.499;stroke-miterlimit:10;}
</style>
<g>
	<g>
		<path d="M2,6.6l2.8-4.4H2.2V0.9h4.4v0.9L3.8,6.2h2.9v1.2H2V6.6z"/>
		<path d="M7.8,0.9h1.5v6.5H7.8V0.9z"/>
		<path d="M10.8,0.9h1.5L14,4.2l0.6,1.4l0,0c-0.1-0.7-0.2-1.6-0.2-2.4V0.9h1.4v6.5h-1.5l-1.6-3.2l-0.6-1.4l0,0
			c0.1,0.7,0.2,1.6,0.2,2.4v2.3h-1.4L10.8,0.9L10.8,0.9z"/>
		<path d="M17.1,4.2c0-2.2,1.4-3.4,3.1-3.4c0.8,0,1.5,0.4,2,0.8l-0.8,0.9C21.1,2.2,20.7,2,20.3,2c-0.9,0-1.6,0.8-1.6,2.1
			s0.6,2.1,1.6,2.1c0.5,0,0.9-0.3,1.3-0.6l0.8,0.9c-0.5,0.6-1.3,1-2.1,1C18.5,7.6,17.1,6.4,17.1,4.2z"/>
		<path d="M25.3,0.9h1.8c2,0,3.3,1,3.3,3.2s-1.3,3.3-3.2,3.3h-1.9C25.3,7.4,25.3,0.9,25.3,0.9z M27,6.3c1.1,0,1.8-0.5,1.8-2.1
			s-0.7-2-1.8-2h-0.3v4.1H27z"/>
		<path d="M31.6,0.9h4.1v1.3h-2.6v1.3h2.2v1.2h-2.2v1.5h2.7v1.2h-4.2C31.6,7.4,31.6,0.9,31.6,0.9z"/>
		<path d="M37.1,0.9h1.6l1,2.9C39.8,4.2,40,4.7,40.1,5l0,0c0.1-0.4,0.2-0.8,0.4-1.2l1-2.9h1.6v6.5h-1.3V5.1c0-0.6,0.1-1.6,0.2-2.2
			l0,0l-0.5,1.5l-0.9,2.5h-0.8l-0.9-2.5l-0.5-1.5l0,0c0.1,0.6,0.2,1.6,0.2,2.2v2.4h-1.3V0.9H37.1z"/>
		<path d="M45.9,0.9h1.8l2,6.5h-1.6l-0.4-1.5h-2l-0.4,1.5h-1.5L45.9,0.9z M46.1,4.8h1.4l-0.2-0.6c-0.2-0.7-0.4-1.4-0.5-2.1l0,0
			c-0.2,0.7-0.3,1.4-0.5,2.1L46.1,4.8z"/>
		<path d="M50.4,0.9H52l1.7,3.2l0.6,1.4l0,0c-0.1-0.7-0.2-1.6-0.2-2.4V0.9h1.4v6.5H54l-1.7-3.2l-0.6-1.4l0,0
			c0.1,0.7,0.2,1.6,0.2,2.4v2.3h-1.4L50.4,0.9L50.4,0.9z"/>
		<path d="M57.1,0.9h1.8c2,0,3.3,1,3.3,3.2S60.9,7.4,59,7.4h-1.9V0.9z M58.8,6.3c1.1,0,1.8-0.5,1.8-2.1s-0.7-2-1.8-2h-0.3v4.1H58.8z
			"/>
		<path d="M65.1,4.4h2.5v1h-2.5V4.4z"/>
		<path d="M70.3,6.6l0.8-1c0.5,0.4,1.1,0.7,1.6,0.7c0.6,0,0.9-0.2,0.9-0.6s-0.4-0.5-0.9-0.8l-0.8-0.4c-0.7-0.3-1.3-0.8-1.3-1.8
			c0-1.1,1-1.9,2.3-1.9c0.7,0,1.5,0.3,2.1,0.9l-0.8,0.9c-0.4-0.3-0.8-0.5-1.3-0.5s-0.8,0.2-0.8,0.6s0.4,0.5,1,0.8l0.8,0.3
			c0.8,0.3,1.3,0.8,1.3,1.8c0,1.1-0.9,2-2.5,2C71.9,7.6,71,7.3,70.3,6.6z"/>
		<path d="M76.3,4.4V0.9h1.5v3.6c0,1.3,0.4,1.7,1.1,1.7S80,5.8,80,4.5V0.9h1.4v3.5c0,2.2-0.9,3.1-2.6,3.1
			C77.2,7.6,76.3,6.6,76.3,4.4z"/>
		<path d="M83,0.9h2.2c1.4,0,2.6,0.5,2.6,2.1c0,1.5-1.2,2.2-2.5,2.2h-0.8v2.2H83V0.9z M85.2,4.1c0.8,0,1.2-0.4,1.2-1
			S86,2.2,85.2,2.2h-0.7v2L85.2,4.1L85.2,4.1z"/>
		<path d="M88.9,0.9h2.2c1.4,0,2.6,0.5,2.6,2.1c0,1.5-1.2,2.2-2.5,2.2h-0.8v2.2h-1.5C88.9,7.4,88.9,0.9,88.9,0.9z M91.1,4.1
			c0.8,0,1.2-0.4,1.2-1s-0.4-0.9-1.2-0.9h-0.7v2L91.1,4.1L91.1,4.1z"/>
		<path d="M94.9,0.9h1.5v5.3H99v1.2h-4L94.9,0.9L94.9,0.9z"/>
		<path d="M100.3,5.1l-2-4.2h1.6l0.6,1.5c0.2,0.5,0.3,0.9,0.5,1.4l0,0c0.2-0.5,0.4-0.9,0.5-1.4l0.6-1.5h1.5l-2,4.2v2.3h-1.5V5.1
			H100.3z"/>
	</g>
	<path class="st0" d="M426.5,16.5h70.9v15.3h-70.9V16.5z M355.7,16.5h70.9v15.3h-70.9V16.5z M284.8,16.5h70.9v15.3h-70.9V16.5z
		 M213.9,16.5h70.9v15.3h-70.9V16.5z"/>
	<path class="st1" d="M284.8,62.3h70.9v15.3h-70.9V62.3z M213.9,62.3h70.9v15.3h-70.9V62.3z M1.6,62.3h212.3v15.3H1.6V62.3z
		 M284.8,47.2h70.9v15.3h-70.9V47.2z M213.9,47.2h70.9v15.3h-70.9V47.2z M1.6,47.2h212.3v15.3H1.6V47.2z M284.8,31.8h70.9v15.3
		h-70.9V31.8z M213.9,31.8h70.9v15.3h-70.9V31.8z M1.6,31.8h212.3v15.3H1.6V31.8z"/>
	<path class="st2" d="M355.7,62.3h70.9v15.3h-70.9V62.3z M355.7,47.2h70.9v15.3h-70.9V47.2z M355.7,31.8h70.9v15.3h-70.9V31.8z"/>
	<line class="st3" x1="426.5" y1="31.8" x2="497.4" y2="31.8"/>
	<line class="st3" x1="1.6" y1="47.2" x2="213.7" y2="47.2"/>
	<line class="st3" x1="214.2" y1="47.2" x2="284.5" y2="47.2"/>
	<line class="st3" x1="285" y1="47.2" x2="355.4" y2="47.2"/>
	<line class="st3" x1="355.9" y1="47.2" x2="426.3" y2="47.2"/>
	<line class="st3" x1="426.8" y1="47.2" x2="497.4" y2="47.2"/>
	<line class="st3" x1="214.2" y1="62.3" x2="284.5" y2="62.3"/>
	<line class="st3" x1="285" y1="62.3" x2="355.4" y2="62.3"/>
	<line class="st3" x1="355.9" y1="62.3" x2="426.3" y2="62.3"/>
	<line class="st3" x1="426.8" y1="62.3" x2="497.4" y2="62.3"/>
	<line class="st3" x1="213.9" y1="77.7" x2="284.8" y2="77.7"/>
	<line class="st3" x1="284.8" y1="77.7" x2="355.7" y2="77.7"/>
	<line class="st3" x1="355.7" y1="77.7" x2="426.5" y2="77.7"/>
	<line class="st3" x1="426.5" y1="77.7" x2="497.4" y2="77.7"/>
	<line class="st4" x1="426.5" y1="77.3" x2="426.5" y2="62.3"/>
	<line class="st3" x1="426.5" y1="16.5" x2="497.4" y2="16.5"/>
	<line class="st3" x1="1.6" y1="16.5" x2="213.9" y2="16.5"/>
	<line class="st3" x1="213.9" y1="16.5" x2="284.8" y2="16.5"/>
	<line class="st3" x1="284.8" y1="16.5" x2="355.7" y2="16.5"/>
	<line class="st3" x1="355.7" y1="16.5" x2="426.5" y2="16.5"/>
	<line class="st4" x1="213.9" y1="31.7" x2="213.9" y2="16.9"/>
	<line class="st4" x1="284.8" y1="31.7" x2="284.8" y2="16.9"/>
	<line class="st4" x1="355.7" y1="31.7" x2="355.7" y2="16.9"/>
	<line class="st4" x1="426.5" y1="31.7" x2="426.5" y2="16.9"/>
	<line class="st3" x1="1.6" y1="62.3" x2="213.7" y2="62.3"/>
	<line class="st3" x1="213.9" y1="31.8" x2="284.8" y2="31.8"/>
	<line class="st3" x1="284.8" y1="31.8" x2="355.7" y2="31.8"/>
	<line class="st3" x1="355.7" y1="31.8" x2="426.5" y2="31.8"/>
	<line class="st4" x1="213.9" y1="47.2" x2="213.9" y2="32.2"/>
	<line class="st4" x1="284.8" y1="47.2" x2="284.8" y2="32.2"/>
	<line class="st4" x1="355.7" y1="47.2" x2="355.7" y2="32.2"/>
	<line class="st4" x1="426.5" y1="47.2" x2="426.5" y2="32.2"/>
	<line class="st4" x1="213.9" y1="62.3" x2="213.9" y2="47.2"/>
	<line class="st4" x1="284.8" y1="62.3" x2="284.8" y2="47.2"/>
	<line class="st4" x1="355.7" y1="62.3" x2="355.7" y2="47.2"/>
	<line class="st4" x1="426.5" y1="62.3" x2="426.5" y2="47.2"/>
	<line class="st4" x1="213.9" y1="77.3" x2="213.9" y2="62.3"/>
	<line class="st4" x1="284.8" y1="77.3" x2="284.8" y2="62.3"/>
	<line class="st4" x1="355.7" y1="77.3" x2="355.7" y2="62.3"/>
	<line class="st3" x1="1.6" y1="31.8" x2="213.9" y2="31.8"/>
	<line class="st3" x1="1.6" y1="77.7" x2="213.9" y2="77.7"/>
	<g>
		<path d="M3.3,26.8l2.6-4H3.6v-1.1h4v0.8l-2.6,4h2.6v1.1H3.4L3.3,26.8L3.3,26.8z"/>
		<path d="M8.4,21.8c0-0.4,0.3-0.7,0.7-0.7s0.7,0.3,0.7,0.7c0,0.4-0.3,0.7-0.7,0.7S8.4,22.3,8.4,21.8z M8.5,23.1h1.3v4.5H8.5V23.1z"
			/>
		<path d="M11,23.1h1l0.1,0.6l0,0c0.4-0.4,0.8-0.7,1.4-0.7c1,0,1.4,0.7,1.4,1.8v2.8h-1.3V25c0-0.6-0.2-0.8-0.5-0.8s-0.5,0.2-0.8,0.4
			v3H11V23.1z"/>
		<path d="M15.8,25.3c0-1.5,1.1-2.3,2.3-2.3c0.5,0,1,0.2,1.3,0.5l-0.6,0.9c-0.2-0.2-0.4-0.3-0.6-0.3c-0.6,0-1,0.5-1,1.3
			s0.4,1.3,1,1.3c0.3,0,0.6-0.1,0.8-0.3l0.5,0.9c-0.4,0.4-1,0.5-1.5,0.5C16.8,27.8,15.8,26.8,15.8,25.3z"/>
		<path d="M21.9,24.6c0-1.9,1.3-3.1,2.9-3.1c0.8,0,1.5,0.4,1.8,0.8l-0.6,1c-0.3-0.3-0.6-0.5-1.1-0.5c-0.9,0-1.5,0.7-1.5,1.9
			s0.5,1.9,1.6,1.9c0.2,0,0.5-0.1,0.6-0.2v-1h-1v-1.1h2.1V27c-0.4,0.4-1.1,0.7-1.9,0.7C23.2,27.8,21.9,26.7,21.9,24.6z"/>
		<path d="M27.9,26.3v-5h1.3v5c0,0.3,0.1,0.4,0.2,0.4s0.1,0,0.2,0l0.2,1c-0.1,0.1-0.4,0.1-0.7,0.1C28.2,27.8,27.9,27.2,27.9,26.3z"
			/>
		<path d="M30.2,25.3c0-1.5,1-2.3,2.2-2.3c1.1,0,2.2,0.9,2.2,2.3s-1,2.3-2.2,2.3C31.2,27.8,30.2,26.8,30.2,25.3z M33.2,25.3
			c0-0.8-0.3-1.3-0.8-1.3s-0.8,0.5-0.8,1.3s0.3,1.3,0.8,1.3C32.9,26.7,33.2,26.2,33.2,25.3z"/>
		<path d="M36.6,27.2L36.6,27.2l-0.1,0.5h-1v-6.4h1.3v1.5v0.7c0.3-0.3,0.8-0.5,1.2-0.5c1.1,0,1.8,0.9,1.8,2.3c0,1.5-0.9,2.4-1.9,2.4
			C37.4,27.8,37,27.5,36.6,27.2z M38.3,25.3c0-0.8-0.2-1.2-0.8-1.2c-0.3,0-0.5,0.1-0.8,0.4v1.8c0.2,0.2,0.5,0.3,0.7,0.3
			C37.9,26.7,38.3,26.3,38.3,25.3z"/>
		<path d="M40.4,26.3c0-0.9,0.7-1.4,2.5-1.6c0-0.4-0.2-0.6-0.7-0.6c-0.4,0-0.7,0.2-1.2,0.4l-0.5-0.9c0.6-0.3,1.2-0.6,1.9-0.6
			c1.1,0,1.8,0.6,1.8,2v2.6h-1.1L43,27.2l0,0c-0.4,0.3-0.8,0.6-1.3,0.6C40.9,27.8,40.4,27.2,40.4,26.3z M42.9,26.3v-0.8
			c-0.9,0.1-1.2,0.4-1.2,0.7s0.2,0.4,0.5,0.4S42.7,26.5,42.9,26.3z"/>
		<path d="M45.3,26.3v-5h1.3v5c0,0.3,0.1,0.4,0.2,0.4c0.1,0,0.1,0,0.2,0l0.2,1c-0.1,0.1-0.4,0.1-0.7,0.1
			C45.6,27.8,45.3,27.2,45.3,26.3z"/>
		<path d="M49.8,21.8h2c1.2,0,2.2,0.3,2.2,1.5c0,0.5-0.3,1.1-0.8,1.3l0,0c0.6,0.2,1.1,0.6,1.1,1.4c0,1.2-1,1.7-2.3,1.7h-2.2V21.8z
			 M51.7,24c0.6,0,0.9-0.3,0.9-0.7c0-0.5-0.3-0.6-0.9-0.6h-0.6V24C51.1,24,51.7,24,51.7,24z M51.9,26.5c0.7,0,1.1-0.3,1.1-0.8
			S52.6,25,51.9,25h-0.7v1.5H51.9z"/>
		<path d="M54.9,26.3c0-0.9,0.7-1.4,2.5-1.6c0-0.4-0.2-0.6-0.7-0.6c-0.4,0-0.7,0.2-1.2,0.4L55,23.6c0.6-0.3,1.2-0.6,1.9-0.6
			c1.1,0,1.8,0.6,1.8,2v2.6h-1.1l-0.1-0.5l0,0c-0.4,0.3-0.8,0.6-1.3,0.6C55.4,27.8,54.9,27.2,54.9,26.3z M57.4,26.3v-0.8
			c-0.9,0.1-1.2,0.4-1.2,0.7s0.2,0.4,0.5,0.4C57,26.7,57.2,26.5,57.4,26.3z"/>
		<path d="M59.9,26.3v-5h1.3v5c0,0.3,0.1,0.4,0.2,0.4s0.1,0,0.2,0l0.2,1c-0.1,0.1-0.4,0.1-0.7,0.1C60.2,27.8,59.9,27.2,59.9,26.3z"
			/>
		<path d="M62.3,26.3c0-0.9,0.7-1.4,2.5-1.6c0-0.4-0.2-0.6-0.7-0.6c-0.4,0-0.7,0.2-1.2,0.4l-0.5-0.9c0.6-0.3,1.2-0.6,1.9-0.6
			c1.1,0,1.8,0.6,1.8,2v2.6H65l-0.1-0.5l0,0c-0.4,0.3-0.8,0.6-1.3,0.6C62.8,27.8,62.3,27.2,62.3,26.3z M64.8,26.3v-0.8
			c-0.9,0.1-1.2,0.4-1.2,0.7s0.2,0.4,0.5,0.4C64.3,26.7,64.5,26.5,64.8,26.3z"/>
		<path d="M67.2,23.1h1.1l0.1,0.6l0,0c0.4-0.4,0.8-0.7,1.4-0.7c1,0,1.4,0.7,1.4,1.8v2.8h-1.3V25c0-0.6-0.2-0.8-0.5-0.8
			s-0.5,0.2-0.8,0.4v3h-1.3L67.2,23.1L67.2,23.1z"/>
		<path d="M72.1,25.3c0-1.5,1.1-2.3,2.3-2.3c0.5,0,1,0.2,1.3,0.5l-0.6,0.9c-0.2-0.2-0.4-0.3-0.6-0.3c-0.6,0-1,0.5-1,1.3
			s0.4,1.3,1,1.3c0.3,0,0.6-0.1,0.8-0.3l0.5,0.9c-0.4,0.4-1,0.5-1.5,0.5C73.1,27.8,72.1,26.8,72.1,25.3z"/>
		<path d="M76.3,25.3c0-1.4,1-2.3,2.1-2.3c1.3,0,1.9,0.9,1.9,2.1c0,0.2,0,0.5-0.1,0.6h-2.7c0.1,0.6,0.6,0.9,1.2,0.9
			c0.3,0,0.6-0.1,1-0.3l0.4,0.8c-0.5,0.3-1.1,0.5-1.6,0.5C77.3,27.8,76.3,26.8,76.3,25.3z M79.2,24.9c0-0.5-0.2-0.8-0.7-0.8
			c-0.4,0-0.8,0.3-0.9,0.8H79.2z"/>
		<path d="M82.9,21.8c0-0.4,0.3-0.7,0.7-0.7s0.7,0.3,0.7,0.7c0,0.4-0.3,0.7-0.7,0.7S82.9,22.3,82.9,21.8z M83,23.1h1.3v4.5H83V23.1z
			"/>
		<path d="M85.5,23.1h1.1l0.1,0.6l0,0c0.4-0.4,0.8-0.7,1.4-0.7c1,0,1.4,0.7,1.4,1.8v2.8h-1.3V25c0-0.6-0.2-0.8-0.5-0.8
			s-0.5,0.2-0.8,0.4v3h-1.3L85.5,23.1L85.5,23.1z"/>
		<path d="M92.6,21.8h1.3v2.4l0,0l1.7-2.4h1.5L95.3,24l2.1,3.5H96L94.6,25l-0.7,1v1.6h-1.3V21.8z"/>
		<path d="M99.2,22.9h-1.6v-1.1h4.6v1.1h-1.6v4.8h-1.3L99.2,22.9L99.2,22.9z"/>
	</g>
	<g>
		<path class="st1" d="M253,24.6c0-1.9,1.3-3.1,2.8-3.1c0.8,0,1.4,0.4,1.8,0.8l-0.7,0.8c-0.3-0.3-0.6-0.5-1-0.5
			c-0.8,0-1.4,0.7-1.4,1.9s0.6,1.9,1.4,1.9c0.5,0,0.9-0.2,1.1-0.5l0.7,0.8c-0.5,0.6-1.1,0.9-1.9,0.9C254.3,27.8,253,26.7,253,24.6z"
			/>
		<path class="st1" d="M259.5,25.5l-1.8-3.8h1.4l0.5,1.4c0.2,0.4,0.3,0.8,0.5,1.3l0,0c0.2-0.5,0.3-0.9,0.5-1.3l0.5-1.4h1.4l-1.8,3.8
			v2.1h-1.3L259.5,25.5L259.5,25.5z"/>
		<path class="st1" d="M264.7,26.8c1.5-1.4,2.5-2.4,2.5-3.2c0-0.6-0.3-0.9-0.8-0.9c-0.4,0-0.7,0.3-1,0.6l-0.7-0.7
			c0.6-0.6,1.1-0.9,1.9-0.9c1.1,0,1.9,0.7,1.9,1.8c0,1-0.9,2-1.8,3c0.3,0,0.7-0.1,1-0.1h1.2v1.1h-4v-0.7
			C264.9,26.8,264.7,26.8,264.7,26.8z"/>
		<path class="st1" d="M269.4,24.8c0-1.9,0.8-2.9,2-2.9s2,1,2,2.9s-0.8,3-2,3S269.4,26.7,269.4,24.8z M272.3,24.8
			c0-1.6-0.3-1.9-0.8-1.9c-0.4,0-0.8,0.4-0.8,1.9c0,1.6,0.4,2,0.8,2C271.9,26.7,272.3,26.3,272.3,24.8z"/>
		<path class="st1" d="M274.5,26.5h1.2v-3.3h-1.1v-0.8c0.6-0.1,1-0.3,1.4-0.5h1v4.6h1.1v1.1h-3.6V26.5z"/>
		<path class="st1" d="M281.6,23H279v-1.1h4v0.8c-1.3,1.6-1.5,2.7-1.6,4.9H280C280.2,25.7,280.5,24.5,281.6,23z"/>
	</g>
	<g>
		<path class="st1" d="M323.9,24.6c0-1.9,1.3-3.1,2.8-3.1c0.8,0,1.4,0.4,1.8,0.8l-0.7,0.8c-0.3-0.3-0.6-0.5-1-0.5
			c-0.8,0-1.4,0.7-1.4,1.9s0.6,1.9,1.4,1.9c0.5,0,0.9-0.2,1.1-0.5l0.7,0.8c-0.5,0.6-1.1,0.9-1.9,0.9
			C325.1,27.8,323.9,26.7,323.9,24.6z"/>
		<path class="st1" d="M330.4,25.5l-1.8-3.8h1.4l0.5,1.4c0.2,0.4,0.3,0.8,0.5,1.3l0,0c0.2-0.5,0.3-0.9,0.5-1.3l0.5-1.4h1.4l-1.8,3.8
			v2.1h-1.3L330.4,25.5L330.4,25.5z"/>
		<path class="st1" d="M335.6,26.8c1.5-1.4,2.5-2.4,2.5-3.2c0-0.6-0.3-0.9-0.8-0.9c-0.4,0-0.7,0.3-1,0.6l-0.7-0.7
			c0.6-0.6,1.1-0.9,1.9-0.9c1.1,0,1.9,0.7,1.9,1.8c0,1-0.9,2-1.8,3c0.3,0,0.7-0.1,1-0.1h1.2v1.1h-4v-0.7
			C335.8,26.8,335.6,26.8,335.6,26.8z"/>
		<path class="st1" d="M340.3,24.8c0-1.9,0.8-2.9,2-2.9s2,1,2,2.9s-0.8,3-2,3C341.1,27.8,340.3,26.7,340.3,24.8z M343.1,24.8
			c0-1.6-0.3-1.9-0.8-1.9c-0.4,0-0.8,0.4-0.8,1.9c0,1.6,0.4,2,0.8,2C342.8,26.7,343.1,26.3,343.1,24.8z"/>
		<path class="st1" d="M345.4,26.5h1.2v-3.3h-1.1v-0.8c0.6-0.1,1-0.3,1.4-0.5h1v4.6h1.1v1.1h-3.6V26.5z"/>
		<path class="st1" d="M349.9,26.2c0-0.7,0.4-1.1,1-1.4l0,0c-0.4-0.3-0.8-0.7-0.8-1.4c0-1,0.8-1.6,1.8-1.6s1.7,0.6,1.7,1.6
			c0,0.5-0.4,1-0.7,1.3l0,0c0.5,0.3,1,0.7,1,1.5c0,0.9-0.8,1.6-2,1.6C350.7,27.8,349.9,27,349.9,26.2z M352.6,26
			c0-0.5-0.5-0.7-1.2-1c-0.3,0.2-0.4,0.6-0.4,0.9c0,0.5,0.4,0.8,0.9,0.8C352.3,26.8,352.6,26.5,352.6,26z M352.6,23.5
			c0-0.4-0.3-0.7-0.7-0.7c-0.4,0-0.6,0.2-0.6,0.7s0.4,0.7,1,0.9C352.4,24,352.6,23.8,352.6,23.5z"/>
	</g>
	<g>
		<path class="st1" d="M388,24.6c0-1.9,1.3-3.1,2.8-3.1c0.8,0,1.4,0.4,1.8,0.8l-0.7,0.8c-0.3-0.3-0.6-0.5-1-0.5
			c-0.8,0-1.4,0.7-1.4,1.9s0.6,1.9,1.4,1.9c0.5,0,0.9-0.2,1.1-0.5l0.7,0.8c-0.5,0.6-1.1,0.9-1.9,0.9C389.3,27.8,388,26.7,388,24.6z"
			/>
		<path class="st1" d="M394.5,25.5l-1.8-3.8h1.4l0.5,1.4c0.2,0.4,0.3,0.8,0.5,1.3l0,0c0.2-0.5,0.3-0.9,0.5-1.3l0.5-1.4h1.4l-1.8,3.8
			v2.1h-1.3L394.5,25.5L394.5,25.5z"/>
		<path class="st1" d="M399.7,26.8c1.5-1.4,2.5-2.4,2.5-3.2c0-0.6-0.3-0.9-0.8-0.9c-0.4,0-0.7,0.3-1,0.6l-0.7-0.7
			c0.6-0.6,1.1-0.9,1.9-0.9c1.1,0,1.9,0.7,1.9,1.8c0,1-0.9,2-1.8,3c0.3,0,0.7-0.1,1-0.1h1.2v1.1h-4v-0.7
			C399.9,26.8,399.7,26.8,399.7,26.8z"/>
		<path class="st1" d="M404.4,24.8c0-1.9,0.8-2.9,2-2.9s2,1,2,2.9s-0.8,3-2,3S404.4,26.7,404.4,24.8z M407.3,24.8
			c0-1.6-0.3-1.9-0.8-1.9c-0.4,0-0.8,0.4-0.8,1.9c0,1.6,0.4,2,0.8,2C406.9,26.7,407.3,26.3,407.3,24.8z"/>
		<path class="st1" d="M409.5,26.5h1.2v-3.3h-1.1v-0.8c0.6-0.1,1-0.3,1.4-0.5h1v4.6h1.1v1.1h-3.6V26.5z"/>
		<path class="st1" d="M414,27l0.7-0.8c0.2,0.2,0.5,0.4,0.9,0.4c0.6,0,1.1-0.5,1.2-1.8c-0.3,0.4-0.8,0.6-1.1,0.6
			c-1,0-1.7-0.6-1.7-1.8c0-1.2,0.9-1.9,1.9-1.9c1.1,0,2.2,0.8,2.2,2.8c0,2.1-1.1,3.1-2.3,3.1C414.9,27.8,414.4,27.3,414,27z
			 M415.9,24.5c0.3,0,0.6-0.2,0.9-0.6c-0.1-0.9-0.5-1.2-0.9-1.2s-0.7,0.3-0.7,0.9C415.1,24.3,415.5,24.5,415.9,24.5z"/>
		<path class="st1" d="M420.9,21.8h3.7v1.1h-2.3v1.2h2v1.1h-2v1.4h2.4v1.1h-3.8L420.9,21.8L420.9,21.8z"/>
	</g>
	<g>
		<path class="st1" d="M458.9,24.6c0-1.9,1.3-3.1,2.8-3.1c0.8,0,1.4,0.4,1.8,0.8l-0.7,0.8c-0.3-0.3-0.6-0.5-1-0.5
			c-0.8,0-1.4,0.7-1.4,1.9s0.6,1.9,1.4,1.9c0.5,0,0.9-0.2,1.1-0.5l0.7,0.8c-0.5,0.6-1.1,0.9-1.9,0.9
			C460.1,27.8,458.9,26.7,458.9,24.6z"/>
		<path class="st1" d="M465.4,25.5l-1.8-3.8h1.4l0.5,1.4c0.2,0.4,0.3,0.8,0.5,1.3l0,0c0.2-0.5,0.3-0.9,0.5-1.3l0.5-1.4h1.4l-1.8,3.8
			v2.1h-1.3L465.4,25.5L465.4,25.5z"/>
		<path class="st1" d="M470.6,26.8c1.5-1.4,2.5-2.4,2.5-3.2c0-0.6-0.3-0.9-0.8-0.9c-0.4,0-0.7,0.3-1,0.6l-0.7-0.7
			c0.6-0.6,1.1-0.9,1.9-0.9c1.1,0,1.9,0.7,1.9,1.8c0,1-0.9,2-1.8,3c0.3,0,0.7-0.1,1-0.1h1.2v1.1h-4v-0.7
			C470.8,26.8,470.6,26.8,470.6,26.8z"/>
		<path class="st1" d="M475.3,24.8c0-1.9,0.8-2.9,2-2.9s2,1,2,2.9s-0.8,3-2,3C476.1,27.8,475.3,26.7,475.3,24.8z M478.1,24.8
			c0-1.6-0.3-1.9-0.8-1.9c-0.4,0-0.8,0.4-0.8,1.9c0,1.6,0.4,2,0.8,2C477.8,26.7,478.1,26.3,478.1,24.8z"/>
		<path class="st1" d="M480.1,26.8c1.5-1.4,2.5-2.4,2.5-3.2c0-0.6-0.3-0.9-0.8-0.9c-0.4,0-0.7,0.3-1,0.6l-0.7-0.7
			c0.6-0.6,1.1-0.9,1.9-0.9c1.1,0,1.9,0.7,1.9,1.8c0,1-0.9,2-1.8,3c0.3,0,0.7-0.1,1-0.1h1.2v1.1h-4v-0.7
			C480.3,26.8,480.1,26.8,480.1,26.8z"/>
		<path class="st1" d="M484.8,24.8c0-1.9,0.8-2.9,2-2.9s2,1,2,2.9s-0.8,3-2,3C485.6,27.8,484.8,26.7,484.8,24.8z M487.7,24.8
			c0-1.6-0.3-1.9-0.8-1.9c-0.4,0-0.8,0.4-0.8,1.9c0,1.6,0.4,2,0.8,2C487.3,26.7,487.7,26.3,487.7,24.8z"/>
		<path class="st1" d="M491.7,21.8h3.7v1.1h-2.3v1.2h2v1.1h-2v1.4h2.4v1.1h-3.8L491.7,21.8L491.7,21.8z"/>
	</g>
	<g>
		<path d="M3.9,37h0.6l1.2,3.5c0.2,0.4,0.3,0.9,0.5,1.3l0,0c0.2-0.4,0.3-0.9,0.5-1.3L7.9,37h0.6v5.9H8.1V39c0-0.5,0-1.1,0.1-1.6l0,0
			l-0.5,1.3l-1.3,3.6H6l-1.3-3.5l-0.5-1.3l0,0c0,0.5,0.1,1.1,0.1,1.6V43H3.9V37z"/>
		<path d="M10.1,37.2c0-0.2,0.1-0.4,0.3-0.4s0.3,0.1,0.3,0.4c0,0.2-0.1,0.4-0.3,0.4S10.1,37.3,10.1,37.2z M10.2,38.5h0.4v4.3h-0.4
			V38.5z"/>
		<path d="M12.3,38.5h0.3v0.7l0,0c0.4-0.4,0.9-0.8,1.5-0.8c0.9,0,1.3,0.5,1.3,1.7V43H15v-2.7c0-0.9-0.3-1.4-1-1.4
			c-0.5,0-0.9,0.3-1.4,0.8V43h-0.4L12.3,38.5L12.3,38.5L12.3,38.5z"/>
		<path d="M16.7,40.8c0-1.4,0.9-2.3,1.9-2.3s1.7,0.7,1.7,2c0,0.1,0,0.2,0,0.3h-3.1c0,1.1,0.7,1.9,1.6,1.9c0.5,0,0.8-0.2,1.2-0.4
			l0.2,0.3c-0.3,0.2-0.7,0.4-1.4,0.4C17.6,43,16.7,42.2,16.7,40.8z M19.9,40.5c0-1.1-0.5-1.7-1.3-1.7c-0.7,0-1.4,0.6-1.5,1.7H19.9z"
			/>
		<path d="M23.2,37h1.5c1.3,0,2.2,0.4,2.2,1.7c0,1.2-0.8,1.7-2.1,1.7h-1.1v2.5h-0.4V37H23.2z M24.7,40c1.2,0,1.8-0.4,1.8-1.4
			s-0.6-1.3-1.8-1.3h-1V40H24.7z"/>
		<path d="M28.1,38.5h0.3v0.8l0,0c0.3-0.5,0.7-0.9,1.2-0.9c0.2,0,0.3,0,0.4,0.1l-0.1,0.4c-0.1-0.1-0.2-0.1-0.4-0.1
			c-0.4,0-0.8,0.3-1.2,1.1v2.9h-0.4v-4.3H28.1z"/>
		<path d="M30.6,40.8c0-1.4,0.9-2.3,1.9-2.3s1.9,0.8,1.9,2.3c0,1.4-0.9,2.3-1.9,2.3C31.5,43,30.6,42.2,30.6,40.8z M34.1,40.8
			c0-1.1-0.7-1.9-1.5-1.9c-0.9,0-1.5,0.8-1.5,1.9c0,1.1,0.6,1.9,1.5,1.9C33.4,42.7,34.1,41.8,34.1,40.8z"/>
		<path d="M35.4,40.8c0-1.4,0.9-2.3,1.9-2.3c0.5,0,0.9,0.2,1.3,0.5v-0.8v-1.8H39v6.5h-0.3v-0.6l0,0c-0.4,0.4-0.8,0.7-1.4,0.7
			C36.2,43,35.4,42.2,35.4,40.8z M38.7,41.8v-2.6c-0.5-0.4-0.8-0.6-1.3-0.6c-0.9,0-1.5,0.8-1.5,1.9c0,1.1,0.5,1.9,1.4,1.9
			C37.8,42.7,38.2,42.3,38.7,41.8z"/>
		<path d="M40.6,41.3v-2.8H41v2.7c0,0.9,0.3,1.4,1,1.4c0.5,0,0.9-0.3,1.4-0.9v-3.2h0.4v4.3h-0.3v-0.7l0,0c-0.4,0.5-0.9,0.8-1.5,0.8
			C41.1,43,40.6,42.5,40.6,41.3z"/>
		<path d="M45.1,40.8c0-1.4,0.9-2.3,2-2.3c0.6,0,1,0.3,1.3,0.5l-0.3,0.3c-0.3-0.3-0.6-0.5-1-0.5c-0.9,0-1.6,0.8-1.6,1.9
			c0,1.1,0.6,1.9,1.6,1.9c0.5,0,0.9-0.2,1.2-0.5l0.2,0.3c-0.4,0.3-0.8,0.6-1.4,0.6C46,43,45.1,42.2,45.1,40.8z"/>
		<path d="M49.6,41.7v-2.8h-0.7v-0.3h0.7l0.1-1.3H50v1.3h1.3v0.3H50v2.8c0,0.5,0.1,0.9,0.7,0.9c0.2,0,0.4-0.1,0.5-0.1l0.1,0.3
			C51,42.9,50.8,43,50.6,43C49.8,43,49.6,42.5,49.6,41.7z"/>
		<path d="M52.2,37.2c0-0.2,0.1-0.4,0.3-0.4s0.3,0.1,0.3,0.4c0,0.2-0.1,0.4-0.3,0.4S52.2,37.3,52.2,37.2z M52.3,38.5h0.4v4.3h-0.4
			V38.5z"/>
		<path d="M54,40.8c0-1.4,0.9-2.3,1.9-2.3s1.9,0.8,1.9,2.3c0,1.4-0.9,2.3-1.9,2.3C54.9,43,54,42.2,54,40.8z M57.5,40.8
			c0-1.1-0.7-1.9-1.5-1.9c-0.9,0-1.5,0.8-1.5,1.9c0,1.1,0.6,1.9,1.5,1.9C56.8,42.7,57.5,41.8,57.5,40.8z"/>
		<path d="M59.2,38.5h0.3v0.7l0,0c0.4-0.4,0.9-0.8,1.5-0.8c0.9,0,1.3,0.5,1.3,1.7V43H62v-2.7c0-0.9-0.3-1.4-1-1.4
			c-0.5,0-0.9,0.3-1.4,0.8V43h-0.4C59.2,43,59.2,38.5,59.2,38.5z"/>
	</g>
	<g>
		<path d="M260.6,42.5h1.4v-4.8h-1v-0.3c0.5-0.1,0.8-0.2,1.1-0.4h0.3v5.4h1.3v0.4h-3L260.6,42.5L260.6,42.5z"/>
		<path d="M264.5,42.5c1.9-1.9,2.8-3,2.8-4c0-0.7-0.4-1.3-1.3-1.3c-0.5,0-1,0.3-1.3,0.8l-0.3-0.3c0.4-0.5,0.9-0.8,1.6-0.8
			c1,0,1.6,0.6,1.6,1.6c0,1.1-1,2.2-2.6,3.9c0.3,0,0.6,0,1,0h2v0.4h-3.5L264.5,42.5L264.5,42.5z"/>
		<path d="M268.9,44c0.4-0.2,0.7-0.6,0.7-1.1h-0.1c-0.2,0-0.4-0.1-0.4-0.4s0.2-0.4,0.4-0.4c0.3,0,0.5,0.2,0.5,0.6
			c0,0.7-0.4,1.2-0.9,1.5L268.9,44z"/>
		<path d="M270.9,40.3c0-2.4,1-3.3,2.1-3.3c0.5,0,0.9,0.2,1.2,0.6l-0.2,0.3c-0.3-0.3-0.6-0.5-1-0.5c-0.9,0-1.7,0.7-1.7,2.8
			c0.4-0.5,0.9-0.8,1.4-0.8c1,0,1.6,0.6,1.6,1.8c0,1-0.7,1.8-1.6,1.8C271.6,43,270.9,42,270.9,40.3z M271.3,40.5
			c0.1,1.2,0.5,2,1.5,2c0.7,0,1.2-0.6,1.2-1.5s-0.4-1.4-1.2-1.4C272.3,39.8,271.8,40,271.3,40.5z"/>
		<path d="M275,42.2l0.2-0.3c0.3,0.4,0.8,0.7,1.6,0.7c0.8,0,1.3-0.5,1.3-1.3s-0.6-1.3-2-1.3v-0.4c1.3,0,1.8-0.6,1.8-1.3
			c0-0.6-0.5-1.1-1.2-1.1c-0.5,0-1,0.3-1.3,0.6l-0.2-0.3c0.4-0.4,0.9-0.7,1.6-0.7c0.9,0,1.6,0.5,1.6,1.4c0,0.8-0.5,1.2-1.1,1.4l0,0
			c0.7,0.2,1.3,0.7,1.3,1.5c0,1-0.8,1.6-1.8,1.6C275.9,43,275.4,42.5,275,42.2z"/>
		<path d="M279.3,42.2l0.2-0.3c0.3,0.4,0.8,0.7,1.6,0.7c0.8,0,1.4-0.6,1.4-1.5s-0.5-1.5-1.4-1.5c-0.4,0-0.7,0.2-1.1,0.4l-0.3-0.2
			l0.2-2.7h2.7v0.4h-2.3l-0.2,2.1c0.3-0.2,0.6-0.3,1-0.3c1,0,1.8,0.6,1.8,1.8S282,43,281.1,43S279.7,42.5,279.3,42.2z"/>
	</g>
	<g>
		<path d="M331.5,42.5h1.4v-4.8h-1v-0.3c0.5-0.1,0.8-0.2,1.1-0.4h0.3v5.4h1.3v0.4h-3L331.5,42.5L331.5,42.5z"/>
		<path d="M335.4,42.5c1.9-1.9,2.8-3,2.8-4c0-0.7-0.4-1.3-1.3-1.3c-0.5,0-1,0.3-1.3,0.8l-0.3-0.3c0.4-0.5,0.9-0.8,1.6-0.8
			c1,0,1.6,0.6,1.6,1.6c0,1.1-1,2.2-2.6,3.9c0.3,0,0.6,0,1,0h2v0.4h-3.5L335.4,42.5L335.4,42.5z"/>
		<path d="M339.8,44c0.4-0.2,0.7-0.6,0.7-1.1h-0.1c-0.2,0-0.4-0.1-0.4-0.4s0.2-0.4,0.4-0.4c0.3,0,0.5,0.2,0.5,0.6
			c0,0.7-0.4,1.2-0.9,1.5L339.8,44z"/>
		<path d="M341.8,42.5l0.2-0.3c0.3,0.3,0.6,0.5,1,0.5c0.9,0,1.7-0.7,1.7-2.8c-0.4,0.5-0.9,0.8-1.5,0.8c-1,0-1.6-0.6-1.6-1.8
			c0-1,0.7-1.8,1.6-1.8c1.1,0,1.9,1,1.9,2.7c0,2.4-1,3.3-2.1,3.3C342.5,43,342.1,42.8,341.8,42.5z M343.3,40.3c0.4,0,1-0.3,1.4-0.9
			c-0.1-1.2-0.5-2-1.5-2c-0.7,0-1.2,0.6-1.2,1.4C342.1,39.7,342.5,40.3,343.3,40.3z"/>
		<path d="M345.8,42.2l0.2-0.3c0.3,0.4,0.8,0.7,1.6,0.7c0.8,0,1.4-0.6,1.4-1.5s-0.5-1.5-1.4-1.5c-0.4,0-0.7,0.2-1.1,0.4l-0.3-0.2
			l0.2-2.7h2.7v0.4h-2.3l-0.2,2.1c0.3-0.2,0.6-0.3,1-0.3c1,0,1.8,0.6,1.8,1.8s-0.9,1.9-1.8,1.9C346.7,43,346.2,42.5,345.8,42.2z"/>
		<path d="M350.2,42.2l0.2-0.3c0.3,0.4,0.8,0.7,1.6,0.7c0.8,0,1.3-0.5,1.3-1.3s-0.6-1.3-2-1.3v-0.4c1.3,0,1.8-0.6,1.8-1.3
			c0-0.6-0.5-1.1-1.2-1.1c-0.5,0-1,0.3-1.3,0.6l-0.2-0.3c0.4-0.4,0.9-0.7,1.6-0.7c0.9,0,1.6,0.5,1.6,1.4c0,0.8-0.5,1.2-1.1,1.4l0,0
			c0.7,0.2,1.3,0.7,1.3,1.5c0,1-0.8,1.6-1.8,1.6C351.1,43,350.6,42.5,350.2,42.2z"/>
	</g>
	<g>
		<path d="M402.3,42.5h1.4v-4.8h-1v-0.3c0.5-0.1,0.8-0.2,1.1-0.4h0.3v5.4h1.3v0.4h-3L402.3,42.5L402.3,42.5z"/>
		<path d="M406.1,42.2l0.2-0.3c0.3,0.4,0.8,0.7,1.6,0.7c0.8,0,1.3-0.5,1.3-1.3s-0.6-1.3-2-1.3v-0.4c1.3,0,1.8-0.6,1.8-1.3
			c0-0.6-0.5-1.1-1.2-1.1c-0.5,0-1,0.3-1.3,0.6l-0.2-0.3c0.4-0.4,0.9-0.7,1.6-0.7c0.9,0,1.6,0.5,1.6,1.4c0,0.8-0.5,1.2-1.1,1.4l0,0
			c0.7,0.2,1.3,0.7,1.3,1.5c0,1-0.8,1.6-1.8,1.6C407.1,43,406.5,42.5,406.1,42.2z"/>
		<path d="M410.6,44c0.4-0.2,0.7-0.6,0.7-1.1h-0.1c-0.2,0-0.4-0.1-0.4-0.4s0.2-0.4,0.4-0.4c0.3,0,0.5,0.2,0.5,0.6
			c0,0.7-0.4,1.2-0.9,1.5L410.6,44z"/>
		<path d="M412.7,42.5l0.2-0.3c0.3,0.3,0.6,0.5,1,0.5c0.9,0,1.7-0.7,1.7-2.8c-0.4,0.5-0.9,0.8-1.5,0.8c-1,0-1.6-0.6-1.6-1.8
			c0-1,0.7-1.8,1.6-1.8c1.1,0,1.9,1,1.9,2.7c0,2.4-1,3.3-2.1,3.3C413.4,43,413,42.8,412.7,42.5z M414.2,40.3c0.4,0,1-0.3,1.4-0.9
			c-0.1-1.2-0.5-2-1.5-2c-0.7,0-1.2,0.6-1.2,1.4C413,39.7,413.3,40.3,414.2,40.3z"/>
		<path d="M419.3,41.2h-2.6V41l2.7-3.8h0.4v3.7h0.9v0.3h-0.9v1.7h-0.4v-1.7H419.3z M419.3,40.8v-2.1c0-0.3,0-0.7,0-1l0,0
			c-0.1,0.2-0.3,0.5-0.5,0.7l-1.7,2.4C417.1,40.8,419.3,40.8,419.3,40.8z"/>
		<path d="M421.5,42.5h1.4v-4.8h-1v-0.3c0.5-0.1,0.8-0.2,1.1-0.4h0.3v5.4h1.3v0.4h-3L421.5,42.5L421.5,42.5z"/>
	</g>
	<g>
		<path d="M473.2,42.5h1.4v-4.8h-1v-0.3c0.5-0.1,0.8-0.2,1.1-0.4h0.3v5.4h1.3v0.4h-3L473.2,42.5L473.2,42.5z"/>
		<path d="M477,42.2l0.2-0.3c0.3,0.4,0.8,0.7,1.6,0.7c0.8,0,1.4-0.6,1.4-1.5s-0.5-1.5-1.4-1.5c-0.4,0-0.7,0.2-1.1,0.4l-0.3-0.2
			l0.2-2.7h2.7v0.4H478l-0.2,2.1c0.3-0.2,0.6-0.3,1-0.3c1,0,1.8,0.6,1.8,1.8s-0.9,1.9-1.8,1.9C477.9,43,477.4,42.5,477,42.2z"/>
		<path d="M481.5,44c0.4-0.2,0.7-0.6,0.7-1.1h-0.1c-0.2,0-0.4-0.1-0.4-0.4s0.2-0.4,0.4-0.4c0.3,0,0.5,0.2,0.5,0.6
			c0,0.7-0.4,1.2-0.9,1.5L481.5,44z"/>
		<path d="M483.5,40c0-1.9,0.6-3,1.7-3s1.7,1.1,1.7,3s-0.6,3-1.7,3S483.5,41.8,483.5,40z M486.5,40c0-1.8-0.5-2.6-1.3-2.6
			s-1.3,0.9-1.3,2.6c0,1.8,0.5,2.7,1.3,2.7S486.5,41.8,486.5,40z"/>
		<path d="M490.8,37.5h-3V37h3.5v0.2c-1.4,1.8-1.7,3.3-1.8,5.5H489C489.1,40.5,489.6,39,490.8,37.5z"/>
		<path d="M491.9,42.2l0.2-0.3c0.3,0.4,0.8,0.7,1.6,0.7c0.8,0,1.4-0.6,1.4-1.5s-0.5-1.5-1.4-1.5c-0.4,0-0.7,0.2-1.1,0.4l-0.3-0.2
			l0.2-2.7h2.7v0.4h-2.3l-0.2,2.1c0.3-0.2,0.6-0.3,1-0.3c1,0,1.8,0.6,1.8,1.8s-0.9,1.9-1.8,1.9C492.8,43,492.3,42.5,491.9,42.2z"/>
	</g>
	<g>
		<path d="M3.4,57.3L3.7,57c0.4,0.5,1.1,0.8,1.7,0.8c0.9,0,1.5-0.5,1.5-1.2s-0.5-1-1.1-1.2L5,55c-0.5-0.2-1.2-0.6-1.2-1.5
			S4.5,52,5.5,52c0.7,0,1.3,0.3,1.6,0.7L6.9,53c-0.4-0.4-0.8-0.6-1.4-0.6c-0.8,0-1.3,0.4-1.3,1.1c0,0.7,0.6,0.9,1,1.1L6.1,55
			c0.7,0.3,1.3,0.7,1.3,1.6s-0.8,1.6-2,1.6C4.6,58.3,3.9,57.8,3.4,57.3z"/>
		<path d="M8.5,53.8h0.3v0.7l0,0c0.4-0.4,0.9-0.8,1.4-0.8c0.7,0,1,0.4,1.2,0.9c0.5-0.5,1-0.9,1.5-0.9c0.9,0,1.3,0.5,1.3,1.7v2.8
			h-0.4v-2.7c0-0.9-0.3-1.4-1-1.4c-0.4,0-0.8,0.3-1.3,0.8v3.3h-0.4v-2.7c0-0.9-0.3-1.4-1-1.4c-0.4,0-0.8,0.3-1.3,0.8v3.3H8.4
			L8.5,53.8L8.5,53.8z"/>
		<path d="M15.5,56c0-1.4,0.9-2.3,1.9-2.3s1.7,0.7,1.7,2c0,0.1,0,0.2,0,0.3H16c0,1.1,0.7,1.9,1.6,1.9c0.5,0,0.8-0.2,1.2-0.4l0.2,0.3
			c-0.3,0.2-0.7,0.4-1.4,0.4C16.4,58.3,15.5,57.3,15.5,56z M18.6,55.7c0-1.1-0.5-1.7-1.3-1.7c-0.7,0-1.4,0.6-1.5,1.7H18.6z"/>
		<path d="M20.2,57.6v-5.9h0.4v6c0,0.2,0.1,0.3,0.2,0.3c0,0,0.1,0,0.2,0l0.1,0.3c-0.1,0-0.2,0-0.3,0C20.4,58.3,20.2,57.9,20.2,57.6z
			"/>
		<path d="M22.4,57v-2.8h-0.7v-0.3h0.7l0.1-1.3h0.3v1.3h1.3v0.3h-1.3V57c0,0.5,0.1,0.9,0.7,0.9c0.2,0,0.4-0.1,0.5-0.1l0.1,0.3
			c-0.1,0.1-0.4,0.2-0.6,0.2C22.7,58.3,22.4,57.7,22.4,57z"/>
		<path d="M24.8,56c0-1.4,0.9-2.3,1.9-2.3s1.7,0.7,1.7,2c0,0.1,0,0.2,0,0.3h-3.1c0,1.1,0.7,1.9,1.6,1.9c0.5,0,0.8-0.2,1.2-0.4
			l0.2,0.3c-0.3,0.2-0.7,0.4-1.4,0.4C25.7,58.3,24.8,57.3,24.8,56z M27.9,55.7c0-1.1-0.5-1.7-1.3-1.7c-0.7,0-1.4,0.6-1.5,1.7H27.9z"
			/>
		<path d="M29.5,53.8h0.3v0.8l0,0c0.3-0.5,0.7-0.9,1.2-0.9c0.2,0,0.3,0,0.4,0.1l-0.1,0.4C31.2,54,31.1,54,30.9,54
			c-0.4,0-0.8,0.3-1.2,1.1V58h-0.4v-4.3L29.5,53.8L29.5,53.8z"/>
		<path d="M34.2,52.2h1.5c1.3,0,2.2,0.4,2.2,1.7c0,1.2-0.8,1.7-2.1,1.7h-1.1v2.5h-0.4v-5.9H34.2z M35.6,55.3c1.2,0,1.8-0.4,1.8-1.4
			s-0.6-1.3-1.8-1.3h-1v2.7H35.6z"/>
		<path d="M39.1,53.8h0.3v0.8l0,0c0.3-0.5,0.7-0.9,1.2-0.9c0.2,0,0.3,0,0.4,0.1v0.4c-0.1-0.1-0.2-0.1-0.4-0.1
			c-0.4,0-0.8,0.3-1.2,1.1v2.9H39L39.1,53.8L39.1,53.8z"/>
		<path d="M41.6,56c0-1.4,0.9-2.3,1.9-2.3s1.9,0.8,1.9,2.3c0,1.4-0.9,2.3-1.9,2.3S41.6,57.3,41.6,56z M45,56c0-1.1-0.7-1.9-1.5-1.9
			C42.6,54,42,54.8,42,56c0,1.1,0.6,1.9,1.5,1.9S45,57,45,56z"/>
		<path d="M46.4,56c0-1.4,0.9-2.3,1.9-2.3c0.5,0,0.9,0.2,1.3,0.5v-0.8v-1.8H50v6.5h-0.3v-0.6l0,0c-0.4,0.4-0.8,0.7-1.4,0.7
			C47.1,58.3,46.4,57.4,46.4,56z M49.6,57.2v-2.6c-0.5-0.4-0.8-0.6-1.3-0.6c-0.9,0-1.5,0.8-1.5,1.9c0,1.1,0.5,1.9,1.4,1.9
			C48.7,57.8,49.1,57.7,49.6,57.2z"/>
		<path d="M51.6,56.5v-2.8H52v2.7c0,0.9,0.3,1.4,1,1.4c0.5,0,0.9-0.3,1.4-0.9v-3.2h0.4V58h-0.3v-0.7l0,0c-0.4,0.5-0.9,0.8-1.5,0.8
			C52,58.3,51.6,57.7,51.6,56.5z"/>
		<path d="M56,56c0-1.4,0.9-2.3,2-2.3c0.6,0,1,0.3,1.3,0.5L59,54.5c-0.3-0.3-0.6-0.5-1-0.5c-0.9,0-1.6,0.8-1.6,1.9
			c0,1.1,0.6,1.9,1.6,1.9c0.5,0,0.9-0.2,1.2-0.5l0.2,0.3C59,58,58.6,58.3,58,58.3C56.9,58.3,56,57.3,56,56z"/>
		<path d="M60.5,57v-2.8h-0.7v-0.3h0.7l0.1-1.3h0.3v1.3h1.3v0.3h-1.3V57c0,0.5,0.1,0.9,0.7,0.9c0.2,0,0.4-0.1,0.5-0.1l0.1,0.3
			c-0.3,0.1-0.5,0.2-0.7,0.2C60.8,58.3,60.5,57.7,60.5,57z"/>
		<path d="M63.1,52.3c0-0.2,0.1-0.4,0.3-0.4s0.3,0.1,0.3,0.4c0,0.2-0.1,0.4-0.3,0.4S63.1,52.5,63.1,52.3z M63.3,53.8h0.4v4.3h-0.4
			V53.8z"/>
		<path d="M65,56c0-1.4,0.9-2.3,1.9-2.3s1.9,0.8,1.9,2.3c0,1.4-0.9,2.3-1.9,2.3S65,57.3,65,56z M68.4,56c0-1.1-0.7-1.9-1.5-1.9
			c-0.9,0-1.5,0.8-1.5,1.9c0,1.1,0.6,1.9,1.5,1.9S68.4,57,68.4,56z"/>
		<path d="M70.1,53.8h0.3v0.7l0,0c0.4-0.4,0.9-0.8,1.5-0.8c0.9,0,1.3,0.5,1.3,1.7v2.8h-0.4v-2.7c0-0.9-0.3-1.4-1-1.4
			c-0.5,0-0.9,0.3-1.4,0.8v3.3H70L70.1,53.8L70.1,53.8z"/>
	</g>
	<g>
		<path d="M260.6,57.8h1.4V53h-1v-0.3c0.5-0.1,0.8-0.2,1.1-0.4h0.3v5.4h1.3v0.4h-3L260.6,57.8L260.6,57.8z"/>
		<path d="M264.4,57.4l0.2-0.3c0.3,0.4,0.8,0.7,1.6,0.7c0.8,0,1.3-0.5,1.3-1.3s-0.6-1.3-2-1.3v-0.4c1.3,0,1.8-0.6,1.8-1.3
			c0-0.6-0.5-1.1-1.2-1.1c-0.5,0-1,0.3-1.3,0.6l-0.2-0.3c0.4-0.4,0.9-0.7,1.6-0.7c0.9,0,1.6,0.5,1.6,1.4c0,0.8-0.5,1.2-1.1,1.4l0,0
			c0.7,0.2,1.3,0.7,1.3,1.5c0,1-0.8,1.6-1.8,1.6C265.3,58.3,264.8,57.8,264.4,57.4z"/>
		<path d="M268.9,59.3c0.4-0.2,0.7-0.6,0.7-1.1h-0.1c-0.2,0-0.4-0.1-0.4-0.4s0.2-0.4,0.4-0.4c0.3,0,0.5,0.2,0.5,0.6
			c0,0.7-0.4,1.2-0.9,1.5L268.9,59.3z"/>
		<path d="M270.7,57.4l0.2-0.3c0.3,0.4,0.8,0.7,1.6,0.7c0.8,0,1.4-0.6,1.4-1.5s-0.5-1.5-1.4-1.5c-0.4,0-0.7,0.2-1.1,0.4l-0.3-0.2
			l0.2-2.7h2.7v0.4h-2.3l-0.2,2.1c0.3-0.2,0.6-0.3,1-0.3c1,0,1.8,0.6,1.8,1.8s-0.9,1.9-1.8,1.9C271.6,58.3,271,57.8,270.7,57.4z"/>
		<path d="M275.1,57.8c1.9-1.9,2.8-3,2.8-4c0-0.7-0.4-1.3-1.3-1.3c-0.5,0-1,0.3-1.3,0.8L275,53c0.4-0.5,0.9-0.8,1.6-0.8
			c1,0,1.6,0.6,1.6,1.6c0,1.1-1,2.2-2.6,3.9c0.3,0,0.6,0,1,0h2v0.4h-3.5V57.8L275.1,57.8z"/>
		<path d="M279.5,55.3c0-1.9,0.6-3,1.7-3s1.7,1.1,1.7,3s-0.6,3-1.7,3S279.5,57.2,279.5,55.3z M282.5,55.3c0-1.8-0.5-2.6-1.3-2.6
			s-1.3,0.9-1.3,2.6c0,1.8,0.5,2.7,1.3,2.7C282,57.8,282.5,57,282.5,55.3z"/>
	</g>
	<g>
		<path d="M331.5,57.8h1.4V53h-1v-0.3c0.5-0.1,0.8-0.2,1.1-0.4h0.3v5.4h1.3v0.4h-3L331.5,57.8L331.5,57.8z"/>
		<path d="M335.3,57.4l0.2-0.3c0.3,0.4,0.8,0.7,1.6,0.7c0.8,0,1.3-0.5,1.3-1.3s-0.6-1.3-2-1.3v-0.4c1.3,0,1.8-0.6,1.8-1.3
			c0-0.6-0.5-1.1-1.2-1.1c-0.5,0-1,0.3-1.3,0.6l-0.2-0.3c0.4-0.4,0.9-0.7,1.6-0.7c0.9,0,1.6,0.5,1.6,1.4c0,0.8-0.5,1.2-1.1,1.4l0,0
			c0.7,0.2,1.3,0.7,1.3,1.5c0,1-0.8,1.6-1.8,1.6C336.2,58.3,335.7,57.8,335.3,57.4z"/>
		<path d="M339.8,59.3c0.4-0.2,0.7-0.6,0.7-1.1h-0.1c-0.2,0-0.4-0.1-0.4-0.4s0.2-0.4,0.4-0.4c0.3,0,0.5,0.2,0.5,0.6
			c0,0.7-0.4,1.2-0.9,1.5L339.8,59.3z"/>
		<path d="M342.1,57.8h1.4V53h-1v-0.3c0.5-0.1,0.8-0.2,1.1-0.4h0.3v5.4h1.3v0.4h-3L342.1,57.8L342.1,57.8z"/>
		<path d="M346,56.7c0-0.8,0.6-1.3,1.2-1.6l0,0c-0.4-0.3-0.8-0.7-0.8-1.3c0-0.8,0.7-1.4,1.5-1.4c1,0,1.6,0.6,1.6,1.5
			c0,0.6-0.5,1.2-0.8,1.5l0,0c0.5,0.3,1,0.7,1,1.5s-0.7,1.5-1.7,1.5C346.7,58.3,346,57.6,346,56.7z M349.1,56.8
			c0-0.9-0.9-1.2-1.8-1.5c-0.6,0.3-1,0.8-1,1.5s0.6,1.3,1.4,1.3C348.6,57.8,349.1,57.3,349.1,56.8z M349,53.8c0-0.6-0.4-1.2-1.2-1.2
			c-0.6,0-1.1,0.5-1.1,1.1c0,0.8,0.8,1.1,1.5,1.4C348.7,54.7,349,54.3,349,53.8z"/>
		<path d="M350.2,57.4l0.2-0.3c0.3,0.4,0.8,0.7,1.6,0.7c0.8,0,1.3-0.5,1.3-1.3s-0.6-1.3-2-1.3v-0.4c1.3,0,1.8-0.6,1.8-1.3
			c0-0.6-0.5-1.1-1.2-1.1c-0.5,0-1,0.3-1.3,0.6l-0.2-0.3c0.4-0.4,0.9-0.7,1.6-0.7c0.9,0,1.6,0.5,1.6,1.4c0,0.8-0.5,1.2-1.1,1.4l0,0
			c0.7,0.2,1.3,0.7,1.3,1.5c0,1-0.8,1.6-1.8,1.6C351.1,58.3,350.6,57.8,350.2,57.4z"/>
	</g>
	<g>
		<path d="M402.3,57.8h1.4V53h-1v-0.3c0.5-0.1,0.8-0.2,1.1-0.4h0.3v5.4h1.3v0.4h-3L402.3,57.8L402.3,57.8z"/>
		<path d="M408.7,56.3H406v-0.2l2.7-3.8h0.4V56h0.9v0.3h-0.9V58h-0.4V56.3z M408.7,56v-2c0-0.3,0-0.7,0-1l0,0
			c-0.1,0.2-0.3,0.5-0.5,0.7l-1.7,2.4C406.5,56.1,408.7,56.1,408.7,56z"/>
		<path d="M410.6,59.3c0.4-0.2,0.7-0.6,0.7-1.1h-0.1c-0.2,0-0.4-0.1-0.4-0.4s0.2-0.4,0.4-0.4c0.3,0,0.5,0.2,0.5,0.6
			c0,0.7-0.4,1.2-0.9,1.5L410.6,59.3z"/>
		<path d="M412.6,55.3c0-1.9,0.6-3,1.7-3s1.7,1.1,1.7,3s-0.6,3-1.7,3S412.6,57.2,412.6,55.3z M415.6,55.3c0-1.8-0.5-2.6-1.3-2.6
			s-1.3,0.9-1.3,2.6c0,1.8,0.5,2.7,1.3,2.7C415.1,57.8,415.6,57,415.6,55.3z"/>
		<path d="M416.8,57.8c1.9-1.9,2.8-3,2.8-4c0-0.7-0.4-1.3-1.3-1.3c-0.5,0-1,0.3-1.3,0.8l-0.3-0.3c0.4-0.5,0.9-0.8,1.6-0.8
			c1,0,1.6,0.6,1.6,1.6c0,1.1-1,2.2-2.6,3.9c0.3,0,0.6,0,1,0h2v0.4h-3.5L416.8,57.8L416.8,57.8z"/>
		<path d="M424.2,52.8h-3v-0.4h3.5v0.2c-1.4,1.8-1.7,3.3-1.8,5.5h-0.4C422.6,55.8,423.1,54.3,424.2,52.8z"/>
	</g>
	<g>
		<path d="M473.2,57.8h1.4V53h-1v-0.3c0.5-0.1,0.8-0.2,1.1-0.4h0.3v5.4h1.3v0.4h-3L473.2,57.8L473.2,57.8z"/>
		<path d="M479.5,56.3h-2.6v-0.2l2.7-3.8h0.4V56h0.9v0.3H480V58h-0.4v-1.7H479.5z M479.5,56v-2c0-0.3,0-0.7,0-1l0,0
			c-0.1,0.2-0.3,0.5-0.5,0.7l-1.7,2.4C477.3,56.1,479.5,56.1,479.5,56z"/>
		<path d="M481.5,59.3c0.4-0.2,0.7-0.6,0.7-1.1h-0.1c-0.2,0-0.4-0.1-0.4-0.4s0.2-0.4,0.4-0.4c0.3,0,0.5,0.2,0.5,0.6
			c0,0.7-0.4,1.2-0.9,1.5L481.5,59.3z"/>
		<path d="M483.4,56.7c0-0.8,0.6-1.3,1.2-1.6l0,0c-0.4-0.3-0.8-0.7-0.8-1.3c0-0.8,0.7-1.4,1.5-1.4c1,0,1.6,0.6,1.6,1.5
			c0,0.6-0.5,1.2-0.8,1.5l0,0c0.5,0.3,1,0.7,1,1.5s-0.7,1.5-1.7,1.5C484.2,58.3,483.4,57.6,483.4,56.7z M486.6,56.8
			c0-0.9-0.9-1.2-1.8-1.5c-0.6,0.3-1,0.8-1,1.5s0.6,1.3,1.4,1.3C486,57.8,486.6,57.3,486.6,56.8z M486.4,53.8c0-0.6-0.4-1.2-1.2-1.2
			c-0.6,0-1.1,0.5-1.1,1.1c0,0.8,0.8,1.1,1.5,1.4C486.1,54.7,486.4,54.3,486.4,53.8z"/>
		<path d="M490.1,56.3h-2.6v-0.2l2.7-3.8h0.4V56h0.9v0.3h-0.9V58h-0.4v-1.7H490.1z M490.1,56v-2c0-0.3,0-0.7,0-1l0,0
			c-0.1,0.2-0.3,0.5-0.5,0.7l-1.7,2.4C487.9,56.1,490.1,56.1,490.1,56z"/>
		<path d="M492.2,57.7l0.2-0.3c0.3,0.3,0.6,0.5,1,0.5c0.9,0,1.7-0.7,1.7-2.8c-0.4,0.5-0.9,0.8-1.5,0.8c-1,0-1.6-0.6-1.6-1.8
			c0-1,0.7-1.8,1.6-1.8c1.1,0,1.9,1,1.9,2.7c0,2.4-1,3.3-2.1,3.3C492.8,58.3,492.5,57.9,492.2,57.7z M493.7,55.5
			c0.4,0,1-0.3,1.4-0.9c-0.1-1.2-0.5-2-1.5-2c-0.7,0-1.2,0.6-1.2,1.4C492.4,54.8,492.8,55.5,493.7,55.5z"/>
	</g>
	<g>
		<path d="M3.5,70.3c0-1.9,1-3.1,2.5-3.1c0.7,0,1.2,0.3,1.5,0.7l-0.2,0.3C7,67.8,6.5,67.7,6,67.7c-1.3,0-2.1,1-2.1,2.7S4.7,73,6,73
			c0.6,0,1.1-0.3,1.5-0.7l0.2,0.3c-0.5,0.5-1,0.8-1.8,0.8C4.5,73.4,3.5,72.3,3.5,70.3z"/>
		<path d="M8.6,71.3c0-1.4,0.9-2.3,1.9-2.3s1.9,0.8,1.9,2.3c0,1.4-0.9,2.3-1.9,2.3C9.5,73.4,8.6,72.7,8.6,71.3z M12,71.3
			c0-1.1-0.7-1.9-1.5-1.9C9.6,69.3,9,70.1,9,71.3c0,1.1,0.6,1.9,1.5,1.9S12,72.3,12,71.3z"/>
		<path d="M13.7,69.1H14v0.7l0,0c0.4-0.4,0.9-0.8,1.5-0.8c0.9,0,1.3,0.5,1.3,1.7v2.8h-0.4v-2.7c0-0.9-0.3-1.4-1-1.4
			c-0.5,0-0.9,0.3-1.4,0.8v3.3h-0.4L13.7,69.1L13.7,69.1z"/>
		<path d="M18,72.8l0.2-0.3c0.4,0.3,0.8,0.5,1.4,0.5c0.7,0,1-0.4,1-0.9s-0.6-0.8-1.1-1c-0.7-0.2-1.3-0.5-1.3-1.2
			c0-0.6,0.5-1.2,1.4-1.2c0.5,0,0.9,0.2,1.2,0.5l-0.2,0.3c-0.3-0.2-0.6-0.4-1-0.4c-0.7,0-1,0.4-1,0.8c0,0.5,0.5,0.7,1,0.9
			c0.7,0.3,1.4,0.5,1.4,1.3c0,0.6-0.5,1.2-1.5,1.2C18.9,73.4,18.4,73.2,18,72.8z"/>
		<path d="M22.1,71.8V69h0.4v2.7c0,0.9,0.3,1.4,1,1.4c0.5,0,0.9-0.3,1.4-0.9V69h0.4v4.3H25v-0.7l0,0c-0.4,0.5-0.9,0.8-1.5,0.8
			C22.5,73.4,22.1,72.9,22.1,71.8z"/>
		<path d="M26.9,69.1h0.3v0.7l0,0c0.4-0.4,0.9-0.8,1.4-0.8c0.7,0,1,0.4,1.2,0.9c0.5-0.5,1-0.9,1.5-0.9c0.9,0,1.3,0.5,1.3,1.7v2.8
			h-0.4v-2.7c0-0.9-0.3-1.4-1-1.4c-0.4,0-0.8,0.3-1.3,0.8v3.3h-0.4v-2.7c0-0.9-0.3-1.4-1-1.4c-0.4,0-0.8,0.3-1.3,0.8v3.3h-0.4v-4.4
			C26.8,69.1,26.9,69.1,26.9,69.1z"/>
		<path d="M34.2,69.1h0.3v0.5l0,0c0.4-0.3,0.9-0.6,1.5-0.6c1.2,0,1.7,0.9,1.7,2.2c0,1.5-0.9,2.3-1.9,2.3c-0.4,0-0.8-0.2-1.3-0.5v2.4
			h-0.4v-6.3H34.2z M37.4,71.2c0-1.1-0.4-1.9-1.4-1.9c-0.4,0-0.9,0.3-1.4,0.7v2.6c0.5,0.4,0.9,0.6,1.3,0.6
			C36.8,73.2,37.4,72.3,37.4,71.2z"/>
		<path d="M39.2,72.2v-2.8h-0.7V69h0.7l0.1-1.3h0.3V69h1.3v0.3h-1.3v2.8c0,0.5,0.1,0.9,0.7,0.9c0.2,0,0.4-0.1,0.5-0.1l0.1,0.3
			c-0.3,0.1-0.5,0.2-0.7,0.2C39.5,73.4,39.2,72.9,39.2,72.2z"/>
		<path d="M41.8,67.7c0-0.2,0.1-0.4,0.3-0.4s0.3,0.1,0.3,0.4c0,0.2-0.1,0.4-0.3,0.4S41.8,67.8,41.8,67.7z M41.9,69.1h0.4v4.3h-0.4
			V69.1z"/>
		<path d="M43.6,71.3c0-1.4,0.9-2.3,1.9-2.3s1.9,0.8,1.9,2.3c0,1.4-0.9,2.3-1.9,2.3C44.5,73.4,43.6,72.7,43.6,71.3z M47.1,71.3
			c0-1.1-0.7-1.9-1.5-1.9c-0.9,0-1.5,0.8-1.5,1.9s0.6,1.9,1.5,1.9S47.1,72.3,47.1,71.3z"/>
		<path d="M48.8,69.1h0.3v0.7l0,0c0.4-0.4,0.9-0.8,1.5-0.8c0.9,0,1.3,0.5,1.3,1.7v2.8h-0.4v-2.7c0-0.9-0.3-1.4-1-1.4
			c-0.5,0-0.9,0.3-1.4,0.8v3.3h-0.4v-4.4H48.8z"/>
	</g>
	<g>
		<path d="M260.6,73.1h1.4v-4.8h-1V68c0.5-0.1,0.8-0.2,1.1-0.4h0.3V73h1.3v0.4h-3L260.6,73.1L260.6,73.1z"/>
		<path d="M266.9,71.7h-2.6v-0.2l2.7-3.8h0.4v3.6h0.9v0.3h-0.9v1.7H267v-1.6H266.9z M266.9,71.3v-2.1c0-0.3,0-0.7,0-1l0,0
			c-0.1,0.2-0.3,0.5-0.5,0.7l-1.7,2.4H266.9z"/>
		<path d="M268.9,74.4c0.4-0.2,0.7-0.6,0.7-1.1h-0.1c-0.2,0-0.4-0.1-0.4-0.4s0.2-0.4,0.4-0.4c0.3,0,0.5,0.2,0.5,0.6
			c0,0.7-0.4,1.2-0.9,1.5L268.9,74.4z"/>
		<path d="M270.8,73.2c1.9-1.9,2.8-3,2.8-4c0-0.7-0.4-1.3-1.3-1.3c-0.5,0-1,0.3-1.3,0.8l-0.3-0.3c0.4-0.5,0.9-0.8,1.6-0.8
			c1,0,1.6,0.6,1.6,1.6c0,1.1-1,2.2-2.6,3.9c0.3,0,0.6,0,1,0h2v0.4h-3.5L270.8,73.2L270.8,73.2z"/>
		<path d="M275,72.7l0.2-0.3c0.3,0.4,0.8,0.7,1.6,0.7c0.8,0,1.3-0.5,1.3-1.3s-0.6-1.3-2-1.3V70c1.3,0,1.8-0.6,1.8-1.3
			c0-0.6-0.5-1.1-1.2-1.1c-0.5,0-1,0.3-1.3,0.6l-0.2-0.3c0.4-0.4,0.9-0.7,1.6-0.7c0.9,0,1.6,0.5,1.6,1.4c0,0.8-0.5,1.2-1.1,1.4l0,0
			c0.7,0.2,1.3,0.7,1.3,1.5c0,1-0.8,1.6-1.8,1.6C275.9,73.4,275.4,73.1,275,72.7z"/>
		<path d="M279.4,73.2c1.9-1.9,2.8-3,2.8-4c0-0.7-0.4-1.3-1.3-1.3c-0.5,0-1,0.3-1.3,0.8l-0.3-0.3c0.4-0.5,0.9-0.8,1.6-0.8
			c1,0,1.6,0.6,1.6,1.6c0,1.1-1,2.2-2.6,3.9c0.3,0,0.6,0,1,0h2v0.4h-3.5L279.4,73.2L279.4,73.2z"/>
	</g>
	<g>
		<path d="M331.5,73.1h1.4v-4.8h-1V68c0.5-0.1,0.8-0.2,1.1-0.4h0.3V73h1.3v0.4h-3L331.5,73.1L331.5,73.1z"/>
		<path d="M337.8,71.7h-2.6v-0.2l2.7-3.8h0.4v3.6h0.9v0.3h-0.9v1.7h-0.4v-1.6H337.8z M337.8,71.3v-2.1c0-0.3,0-0.7,0-1l0,0
			c-0.1,0.2-0.3,0.5-0.5,0.7l-1.7,2.4H337.8z"/>
		<path d="M339.8,74.4c0.4-0.2,0.7-0.6,0.7-1.1h-0.1c-0.2,0-0.4-0.1-0.4-0.4s0.2-0.4,0.4-0.4c0.3,0,0.5,0.2,0.5,0.6
			c0,0.7-0.4,1.2-0.9,1.5L339.8,74.4z"/>
		<path d="M341.6,72.7l0.2-0.3c0.3,0.4,0.8,0.7,1.6,0.7c0.8,0,1.3-0.5,1.3-1.3s-0.6-1.3-2-1.3V70c1.3,0,1.8-0.6,1.8-1.3
			c0-0.6-0.5-1.1-1.2-1.1c-0.5,0-1,0.3-1.3,0.6l-0.2-0.3c0.4-0.4,0.9-0.7,1.6-0.7c0.9,0,1.6,0.5,1.6,1.4c0,0.8-0.5,1.2-1.1,1.4l0,0
			c0.7,0.2,1.3,0.7,1.3,1.5c0,1-0.8,1.6-1.8,1.6C342.5,73.4,341.9,73.1,341.6,72.7z"/>
		<path d="M346,73.2c1.9-1.9,2.8-3,2.8-4c0-0.7-0.4-1.3-1.3-1.3c-0.5,0-1,0.3-1.3,0.8l-0.3-0.3c0.4-0.5,0.9-0.8,1.6-0.8
			c1,0,1.6,0.6,1.6,1.6c0,1.1-1,2.2-2.6,3.9c0.3,0,0.6,0,1,0h2v0.4H346V73.2z"/>
		<path d="M350.3,73.2c1.9-1.9,2.8-3,2.8-4c0-0.7-0.4-1.3-1.3-1.3c-0.5,0-1,0.3-1.3,0.8l-0.3-0.3c0.4-0.5,0.9-0.8,1.6-0.8
			c1,0,1.6,0.6,1.6,1.6c0,1.1-1,2.2-2.6,3.9c0.3,0,0.6,0,1,0h2v0.4h-3.5L350.3,73.2L350.3,73.2z"/>
	</g>
	<g>
		<path d="M402.3,73.1h1.4v-4.8h-1V68c0.5-0.1,0.8-0.2,1.1-0.4h0.3V73h1.3v0.4h-3L402.3,73.1L402.3,73.1z"/>
		<path d="M408.7,71.7H406v-0.2l2.7-3.8h0.4v3.6h0.9v0.3h-0.9v1.7h-0.4V71.7z M408.7,71.3v-2.1c0-0.3,0-0.7,0-1l0,0
			c-0.1,0.2-0.3,0.5-0.5,0.7l-1.7,2.4H408.7z"/>
		<path d="M410.6,74.4c0.4-0.2,0.7-0.6,0.7-1.1h-0.1c-0.2,0-0.4-0.1-0.4-0.4s0.2-0.4,0.4-0.4c0.3,0,0.5,0.2,0.5,0.6
			c0,0.7-0.4,1.2-0.9,1.5L410.6,74.4z"/>
		<path d="M412.4,72.7l0.2-0.3c0.3,0.4,0.8,0.7,1.6,0.7c0.8,0,1.4-0.6,1.4-1.5s-0.5-1.5-1.4-1.5c-0.4,0-0.7,0.2-1.1,0.4l-0.3-0.2
			l0.2-2.7h2.7V68h-2.3l-0.2,2.1c0.3-0.2,0.6-0.3,1-0.3c1,0,1.8,0.6,1.8,1.8c0,1.2-0.9,1.9-1.8,1.9
			C413.3,73.4,412.8,73.1,412.4,72.7z"/>
		<path d="M416.7,72.7l0.2-0.3c0.3,0.4,0.8,0.7,1.6,0.7c0.8,0,1.3-0.5,1.3-1.3s-0.6-1.3-2-1.3V70c1.3,0,1.8-0.6,1.8-1.3
			c0-0.6-0.5-1.1-1.2-1.1c-0.5,0-1,0.3-1.3,0.6H417c0.4-0.4,0.9-0.7,1.6-0.7c0.9,0,1.6,0.5,1.6,1.4c0,0.8-0.5,1.2-1.1,1.4l0,0
			c0.7,0.2,1.3,0.7,1.3,1.5c0,1-0.8,1.6-1.8,1.6C417.7,73.4,417.1,73.1,416.7,72.7z"/>
		<path d="M421.5,73.1h1.4v-4.8h-1V68c0.5-0.1,0.8-0.2,1.1-0.4h0.3V73h1.3v0.4h-3L421.5,73.1L421.5,73.1z"/>
	</g>
	<g>
		<path d="M473.2,73.1h1.4v-4.8h-1V68c0.5-0.1,0.8-0.2,1.1-0.4h0.3V73h1.3v0.4h-3L473.2,73.1L473.2,73.1z"/>
		<path d="M479.5,71.7h-2.6v-0.2l2.7-3.8h0.4v3.6h0.9v0.3H480v1.7h-0.4v-1.6H479.5z M479.5,71.3v-2.1c0-0.3,0-0.7,0-1l0,0
			c-0.1,0.2-0.3,0.5-0.5,0.7l-1.7,2.4H479.5z"/>
		<path d="M481.5,74.4c0.4-0.2,0.7-0.6,0.7-1.1h-0.1c-0.2,0-0.4-0.1-0.4-0.4s0.2-0.4,0.4-0.4c0.3,0,0.5,0.2,0.5,0.6
			c0,0.7-0.4,1.2-0.9,1.5L481.5,74.4z"/>
		<path d="M483.4,71.8c0-0.8,0.6-1.3,1.2-1.6l0,0c-0.4-0.3-0.8-0.7-0.8-1.3c0-0.8,0.7-1.4,1.5-1.4c1,0,1.6,0.6,1.6,1.5
			c0,0.6-0.5,1.2-0.8,1.5l0,0c0.5,0.3,1,0.7,1,1.5s-0.7,1.5-1.7,1.5C484.2,73.4,483.4,72.8,483.4,71.8z M486.6,71.9
			c0-0.9-0.9-1.2-1.8-1.5c-0.6,0.3-1,0.8-1,1.5s0.6,1.3,1.4,1.3C486,73.2,486.6,72.7,486.6,71.9z M486.4,69.1c0-0.6-0.4-1.2-1.2-1.2
			c-0.6,0-1.1,0.5-1.1,1.1c0,0.8,0.8,1.1,1.5,1.4C486.1,69.9,486.4,69.6,486.4,69.1z"/>
		<path d="M487.8,70.4c0-1.9,0.6-3,1.7-3s1.7,1.1,1.7,3s-0.6,3-1.7,3S487.8,72.3,487.8,70.4z M490.8,70.4c0-1.8-0.5-2.6-1.3-2.6
			s-1.3,0.9-1.3,2.6c0,1.8,0.5,2.7,1.3,2.7C490.3,73.2,490.8,72.3,490.8,70.4z"/>
		<path d="M492.4,73.1h1.4v-4.8h-1V68c0.5-0.1,0.8-0.2,1.1-0.4h0.3V73h1.3v0.4h-3L492.4,73.1L492.4,73.1z"/>
	</g>
</g>
</svg>
