<?xml version="1.0" encoding="utf-8"?>
<!-- Generator: Adobe Illustrator 23.0.3, SVG Export Plug-In . SVG Version: 6.00 Build 0)  -->
<svg version="1.1" id="Layer_1" xmlns="http://www.w3.org/2000/svg" xmlns:xlink="http://www.w3.org/1999/xlink" x="0px" y="0px"
	 viewBox="0 0 1000 591" style="enable-background:new 0 0 1000 591;" xml:space="preserve">
<style type="text/css">
	.st0{fill:#231F20;}
	.st1{fill:#231F20;stroke:#000000;stroke-miterlimit:10;}
	.st2{fill:none;stroke:#000000;stroke-width:2;}
	.st3{fill:none;stroke:#231F20;stroke-width:2;}
	.st4{fill:#231F20;stroke:#231F20;stroke-width:0.75;stroke-miterlimit:10;}
	.st5{fill:#231F20;stroke:#000000;stroke-width:0.75;stroke-miterlimit:10;}
	.st6{fill:none;stroke:#231F20;stroke-width:0.75;}
	.st7{fill:none;stroke:#231F20;stroke-width:0.25;}
	.st8{fill:#D3E8C5;}
	.st9{fill:#ABD592;}
</style>
<g>
	<g>
		<path class="st0" d="M3.6,29.3v-3.5c1.7-1.6,3.2-3,4.6-4.4s2.6-2.6,3.6-3.8c1-1.2,1.8-2.3,2.3-3.3c0.6-1,0.8-2,0.8-2.9
			c0-1.3-0.3-2.3-1-2.9c-0.7-0.7-1.6-1-2.7-1c-1,0-1.8,0.3-2.5,0.8c-0.8,0.4-1.5,1-2.1,1.7L3.3,6.8c1.3-1.4,2.6-2.4,3.9-3.1
			s2.9-1,4.8-1c1.3,0,2.5,0.2,3.5,0.6c1.1,0.4,2,1,2.7,1.7s1.4,1.6,1.8,2.6s0.6,2.2,0.6,3.4c0,1.1-0.2,2.2-0.7,3.3s-1.1,2.3-1.9,3.4
			s-1.7,2.3-2.7,3.4s-2,2.3-3.1,3.3c0.7-0.1,1.4-0.2,2.2-0.2c0.8-0.1,1.5-0.1,2.2-0.1h5.3v5.1C21.9,29.2,3.6,29.2,3.6,29.3z"/>
		<path class="st0" d="M33.8,29.8c-1.4,0-2.7-0.3-3.8-0.9s-2.1-1.5-2.9-2.6s-1.4-2.6-1.9-4.3s-0.7-3.7-0.7-5.9s0.2-4.2,0.7-5.8
			c0.4-1.7,1-3.1,1.8-4.2s1.8-2,2.9-2.5C31,3,32.3,2.8,33.7,2.8s2.7,0.3,3.8,0.8c1.1,0.6,2.1,1.4,2.9,2.5c0.8,1.1,1.4,2.5,1.9,4.2
			S43,13.8,43,16s-0.2,4.2-0.7,5.9s-1.1,3.1-1.9,4.3s-1.8,2-2.9,2.6C36.4,29.4,35.2,29.8,33.8,29.8z M33.8,25c0.5,0,1-0.1,1.4-0.4
			s0.8-0.7,1.1-1.4c0.3-0.7,0.6-1.6,0.8-2.8c0.2-1.1,0.3-2.6,0.3-4.4s-0.1-3.2-0.3-4.4c-0.2-1.1-0.4-2-0.8-2.7
			c-0.3-0.6-0.7-1.1-1.1-1.3c-0.4-0.2-0.9-0.4-1.4-0.4s-1,0.1-1.4,0.4C32,7.9,31.6,8.4,31.3,9c-0.3,0.6-0.6,1.5-0.8,2.7
			c-0.2,1.1-0.3,2.6-0.3,4.4s0.1,3.2,0.3,4.4c0.2,1.1,0.5,2.1,0.8,2.8c0.3,0.7,0.7,1.2,1.1,1.4C32.8,24.9,33.3,25,33.8,25z"/>
		<path class="st0" d="M46.7,29.3v-4.9h5.7V9.2h-4.9V5.5c1.4-0.3,2.6-0.6,3.6-1S53,3.7,54,3.1h4.4v21.2h4.9v4.9L46.7,29.3L46.7,29.3
			z"/>
		<path class="st0" d="M74.1,29.8c-1.7,0-3.2-0.3-4.5-0.9s-2.3-1.4-3.1-2.2l3.2-3.6c0.4,0.5,1,0.9,1.8,1.3S73,25,73.8,25
			c0.7,0,1.4-0.1,2.1-0.4c0.6-0.3,1.2-0.7,1.7-1.4c0.5-0.6,0.9-1.5,1.1-2.5s0.5-2.3,0.5-3.8c-0.3,0.4-0.7,0.8-1.2,1.2
			c-0.4,0.3-0.9,0.6-1.4,0.9c-0.5,0.2-0.9,0.4-1.4,0.5s-0.9,0.2-1.3,0.2c-1.1,0-2.2-0.2-3.1-0.5s-1.8-0.8-2.4-1.5
			c-0.7-0.7-1.2-1.5-1.6-2.5s-0.6-2.2-0.6-3.6c0-1.3,0.2-2.6,0.7-3.6c0.5-1.1,1.1-2,1.9-2.8s1.7-1.3,2.8-1.7
			c1.1-0.4,2.2-0.6,3.3-0.6c1.3,0,2.5,0.2,3.7,0.7c1,0.3,2.1,1.1,3,2.2c0.9,1,1.7,2.4,2.2,4c0.6,1.6,0.8,3.6,0.8,5.9
			c0,2.4-0.3,4.5-0.9,6.3s-1.4,3.2-2.3,4.4c-1,1.2-2.1,2-3.4,2.6S75.5,29.8,74.1,29.8z M75,15.1c0.7,0,1.4-0.2,2.1-0.6
			c0.7-0.4,1.3-1.1,1.8-2c-0.3-2.1-0.8-3.5-1.5-4.3c-0.7-0.7-1.6-1.1-2.5-1.1s-1.6,0.3-2.3,1c-0.7,0.7-1,1.7-1,3.2
			c0,1.4,0.3,2.4,1,2.9C73.2,14.9,74.1,15.1,75,15.1z"/>
		<path class="st0" d="M94.5,29.3v-3.7l11.8-18H95.6V2.4h18.2v3.7l-11.8,18h12v5.1L94.5,29.3L94.5,29.3z"/>
		<path class="st0" d="M117.6,29.3V2.4h6v26.8C123.6,29.2,117.6,29.2,117.6,29.3z"/>
		<path class="st0" d="M129.2,29.3V2.4h6.2l7,13.3l2.6,5.9h0.2c-0.1-1.4-0.3-3-0.5-4.8s-0.3-3.4-0.3-5V2.4h5.8v26.8H144l-7-13.3
			l-2.6-5.8h-0.2c0.1,1.5,0.3,3.1,0.5,4.8s0.3,3.3,0.3,4.9v9.5H129.2L129.2,29.3z"/>
		<path class="st0" d="M166.8,29.8c-1.7,0-3.3-0.3-4.8-0.9s-2.8-1.5-4-2.6c-1.1-1.1-2-2.6-2.7-4.3s-1-3.7-1-5.9s0.3-4.2,1-5.9
			s1.6-3.2,2.8-4.4c1.1-1.2,2.5-2.1,4-2.8c1.5-0.6,3.1-0.9,4.8-0.9s3.3,0.3,4.6,1c1.4,0.7,2.5,1.5,3.4,2.4l-3.2,3.9
			c-0.7-0.6-1.4-1.1-2.2-1.5c-0.8-0.4-1.6-0.6-2.6-0.6c-0.9,0-1.8,0.2-2.6,0.6c-0.8,0.4-1.5,1-2.1,1.7s-1.1,1.6-1.4,2.7
			c-0.3,1.1-0.5,2.3-0.5,3.6c0,2.8,0.6,4.9,1.8,6.4s2.8,2.3,4.7,2.3c1.1,0,2.1-0.2,2.9-0.7c0.9-0.5,1.6-1.1,2.3-1.8l3.2,3.8
			C173.3,28.4,170.4,29.8,166.8,29.8z"/>
		<path class="st0" d="M197.4,29.8c-1.7,0-3.3-0.3-4.8-0.9s-2.8-1.5-4-2.6c-1.1-1.1-2-2.6-2.7-4.3s-1-3.7-1-5.9s0.3-4.2,1-5.9
			s1.6-3.2,2.8-4.4c1.1-1.2,2.5-2.1,4-2.8c1.5-0.6,3.1-0.9,4.8-0.9s3.3,0.3,4.6,1c1.4,0.7,2.5,1.5,3.4,2.4l-3.2,3.9
			c-0.7-0.6-1.4-1.1-2.2-1.5c-0.8-0.4-1.6-0.6-2.6-0.6c-0.9,0-1.8,0.2-2.6,0.6c-0.8,0.4-1.5,1-2.1,1.7s-1.1,1.6-1.4,2.7
			c-0.3,1.1-0.5,2.3-0.5,3.6c0,2.8,0.6,4.9,1.8,6.4s2.8,2.3,4.7,2.3c1.1,0,2.1-0.2,2.9-0.7c0.9-0.5,1.6-1.1,2.3-1.8l3.2,3.8
			C203.8,28.4,200.9,29.8,197.4,29.8z"/>
		<path class="st0" d="M218.7,29.8c-1.8,0-3.5-0.3-4.9-1c-1.5-0.6-2.8-1.6-3.8-2.8c-1.1-1.2-1.9-2.7-2.5-4.4s-0.9-3.7-0.9-5.9
			s0.3-4.1,0.9-5.9c0.6-1.7,1.4-3.1,2.5-4.3s2.3-2.1,3.8-2.7s3.1-0.9,4.9-0.9c1.8,0,3.5,0.3,4.9,0.9c1.5,0.6,2.8,1.5,3.8,2.7
			s1.9,2.6,2.5,4.3s0.9,3.6,0.9,5.8s-0.3,4.1-0.9,5.9s-1.4,3.2-2.5,4.4c-1.1,1.2-2.3,2.1-3.8,2.8C222.1,29.4,220.5,29.8,218.7,29.8z
			 M218.7,24.5c1.8,0,3.3-0.8,4.4-2.4c1.1-1.6,1.6-3.7,1.6-6.4s-0.5-4.8-1.6-6.3s-2.5-2.3-4.4-2.3c-1.8,0-3.3,0.8-4.4,2.3
			c-1.1,1.5-1.6,3.6-1.6,6.3s0.5,4.9,1.6,6.4C215.4,23.8,216.8,24.5,218.7,24.5z"/>
		<path class="st0" d="M243.3,29.8c-1.8,0-3.5-0.3-5.2-1c-1.7-0.6-3.3-1.6-4.7-2.9l3.5-4.1c1,0.8,2,1.5,3.2,2s2.3,0.8,3.4,0.8
			c1.3,0,2.2-0.2,2.8-0.7s0.9-1.1,0.9-1.9c0-0.4-0.1-0.8-0.3-1.1c-0.2-0.3-0.4-0.6-0.8-0.8c-0.3-0.2-0.8-0.5-1.2-0.7
			c-0.5-0.2-1-0.4-1.6-0.7l-3.5-1.5c-0.7-0.3-1.3-0.6-2-1.1c-0.6-0.4-1.2-1-1.7-1.5c-0.5-0.6-0.9-1.3-1.2-2.1s-0.5-1.7-0.5-2.6
			c0-1.1,0.2-2.1,0.7-3.1s1.1-1.8,2-2.5c0.8-0.7,1.9-1.3,3-1.7c1.2-0.4,2.4-0.6,3.8-0.6c1.6,0,3.1,0.3,4.6,0.9s2.9,1.5,4,2.6
			l-3.1,3.8c-0.9-0.7-1.8-1.2-2.6-1.6C245.9,7.2,245,7,243.9,7c-1,0-1.9,0.2-2.5,0.6s-0.9,1-0.9,1.8c0,0.4,0.1,0.8,0.3,1
			c0.2,0.3,0.5,0.5,0.9,0.8c0.4,0.2,0.8,0.5,1.3,0.7s1,0.4,1.6,0.7l3.5,1.4c1.6,0.7,2.9,1.6,3.9,2.7c0.9,1.2,1.4,2.7,1.4,4.6
			c0,1.1-0.2,2.2-0.7,3.2s-1.1,1.9-2,2.6c-0.9,0.8-1.9,1.4-3.2,1.8C246.3,29.5,244.9,29.8,243.3,29.8z"/>
		<path class="st0" d="M261.6,29.3V7.5h-7.4V2.4H275v5.1h-7.4v21.7L261.6,29.3L261.6,29.3z"/>
		<path class="st0" d="M296.9,29.8c-1.7,0-3.3-0.3-4.8-0.9s-2.8-1.5-4-2.6c-1.1-1.1-2-2.6-2.7-4.3s-1-3.7-1-5.9s0.3-4.2,1-5.9
			s1.6-3.2,2.8-4.4c1.1-1.2,2.5-2.1,4-2.8c1.5-0.6,3.1-0.9,4.8-0.9c1.7,0,3.3,0.3,4.6,1c1.4,0.7,2.5,1.5,3.4,2.4l-3.2,3.9
			c-0.7-0.6-1.4-1.1-2.2-1.5c-0.8-0.4-1.6-0.6-2.6-0.6c-0.9,0-1.8,0.2-2.6,0.6c-0.8,0.4-1.5,1-2.1,1.7s-1.1,1.6-1.4,2.7
			s-0.5,2.3-0.5,3.6c0,2.8,0.6,4.9,1.8,6.4c1.2,1.5,2.8,2.3,4.7,2.3c1.1,0,2.1-0.2,2.9-0.7c0.9-0.5,1.6-1.1,2.3-1.8l3.2,3.8
			C303.4,28.4,300.5,29.8,296.9,29.8z"/>
		<path class="st0" d="M318.7,29.8c-3.5,0-6.1-1-8-3.1c-1.8-2.1-2.8-5.3-2.8-9.8V2.4h6.1v15c0,2.6,0.4,4.5,1.2,5.5
			c0.8,1,1.9,1.6,3.5,1.6c1.5,0,2.7-0.5,3.5-1.6c0.8-1,1.2-2.9,1.2-5.5v-15h5.8v14.4c0,4.5-0.9,7.8-2.7,9.8S322.1,29.8,318.7,29.8z"
			/>
		<path class="st0" d="M334.6,29.3V2.4h9.7c1.4,0,2.8,0.1,4,0.4s2.3,0.7,3.3,1.4c0.9,0.6,1.7,1.5,2.2,2.6s0.8,2.4,0.8,4
			c0,2-0.4,3.6-1.3,4.9s-2,2.2-3.5,2.9l6.1,10.7h-6.8l-5.1-9.7h-3.3v9.7H334.6L334.6,29.3L334.6,29.3z M340.7,14.7h3.1
			c1.6,0,2.8-0.3,3.6-1c0.8-0.7,1.3-1.7,1.3-3s-0.4-2.2-1.3-2.8c-0.8-0.5-2-0.8-3.6-0.8h-3.1V14.7z"/>
		<path class="st0" d="M363.1,29.3L355,2.5h6.4l3.2,12.5c0.4,1.5,0.8,2.9,1.1,4.3c0.3,1.4,0.7,2.8,1.1,4.3h0.2
			c0.4-1.5,0.7-2.9,1.1-4.3c0.3-1.4,0.7-2.8,1.1-4.3l3.2-12.5h6.2l-8.1,26.8C370.5,29.3,363.1,29.3,363.1,29.3z"/>
		<path class="st0" d="M380.5,29.3V2.4h16.8v5.1h-10.7v5.4h9.1V18h-9.1v6.1h11.1v5.1L380.5,29.3L380.5,29.3z"/>
		<path class="st0" d="M402.2,37.2L401,34c1.5-0.5,2.7-1.3,3.5-2.1c0.8-0.9,1.2-1.8,1.1-2.9h-0.3c-1,0-1.8-0.3-2.5-0.9
			s-1.1-1.4-1.1-2.5c0-1,0.4-1.9,1.1-2.5s1.6-0.9,2.7-0.9c1.4,0,2.4,0.5,3.1,1.5s1.1,2.4,1.1,4.2c0,2.3-0.6,4.2-1.9,5.9
			C406.4,35.3,404.6,36.4,402.2,37.2z"/>
		<path class="st0" d="M421.2,29.3V2.4h9.7c1.4,0,2.8,0.1,4,0.4s2.3,0.7,3.3,1.4c0.9,0.6,1.7,1.5,2.2,2.6s0.8,2.4,0.8,4
			c0,2-0.4,3.6-1.3,4.9s-2,2.2-3.5,2.9l6.1,10.7h-6.8l-5.1-9.7h-3.3v9.7H421.2L421.2,29.3L421.2,29.3z M427.2,14.7h3.1
			c1.6,0,2.8-0.3,3.6-1c0.8-0.7,1.3-1.7,1.3-3s-0.4-2.2-1.3-2.8c-0.8-0.5-2-0.8-3.6-0.8h-3.1V14.7z"/>
		<path class="st0" d="M441.8,29.3l8.4-26.8h7.3l8.4,26.8h-6.4l-1.6-6.4h-8.3l-1.6,6.4H441.8z M451.5,15.6l-0.7,2.5h5.7l-0.6-2.5
			c-0.4-1.3-0.8-2.8-1.1-4.3c-0.4-1.5-0.7-3-1.1-4.4h-0.1c-0.3,1.4-0.7,2.9-1,4.4C452.3,12.9,451.9,14.3,451.5,15.6z"/>
		<path class="st0" d="M468,29.3V2.4h6.2l7,13.3l2.6,5.9h0.2c-0.1-1.4-0.3-3-0.5-4.8s-0.3-3.4-0.3-5V2.4h5.8v26.8h-6.2l-7-13.3
			l-2.6-5.8H473c0.1,1.5,0.3,3.1,0.5,4.8s0.3,3.3,0.3,4.9v9.5H468L468,29.3z"/>
		<path class="st0" d="M494.5,29.3V2.4h6v11h0.2l8-11h6.7l-8.2,10.7l9.6,16.1h-6.6l-6.6-11.3l-3.1,4.1v7.2
			C500.5,29.2,494.5,29.2,494.5,29.3z"/>
		<path class="st0" d="M518.9,29.3V2.4h16.7v5.1h-10.7v5.4h9.1V18h-9.1v6.1H536v5.1L518.9,29.3L518.9,29.3z"/>
		<path class="st0" d="M540.6,29.3V2.4h7.6c2.1,0,3.9,0.3,5.5,0.8s3.1,1.3,4.2,2.4c1.2,1.1,2.1,2.5,2.7,4.1c0.6,1.7,0.9,3.7,0.9,6
			s-0.3,4.3-0.9,6c-0.6,1.7-1.5,3.1-2.7,4.2s-2.5,1.9-4.1,2.5c-1.6,0.5-3.4,0.8-5.4,0.8C548.4,29.2,540.6,29.2,540.6,29.3z
			 M546.6,24.4h1.1c1.2,0,2.2-0.1,3.1-0.5c0.9-0.3,1.7-0.8,2.4-1.5s1.2-1.6,1.5-2.6c0.4-1.1,0.6-2.5,0.6-4.1s-0.2-2.9-0.6-4
			c-0.4-1.1-0.9-1.9-1.5-2.6c-0.7-0.6-1.5-1.1-2.4-1.4s-2-0.4-3.1-0.4h-1.1V24.4z"/>
		<path class="st0" d="M573.3,29.3V2.4h9.2c1.4,0,2.7,0.1,3.9,0.3s2.2,0.6,3.1,1.1c0.9,0.5,1.6,1.2,2.1,2.1c0.5,0.8,0.8,1.9,0.8,3.2
			c0,0.6-0.1,1.2-0.2,1.8c-0.2,0.6-0.4,1.2-0.7,1.7s-0.7,1-1.1,1.4c-0.4,0.4-0.9,0.7-1.5,0.9v0.2c0.7,0.2,1.3,0.4,1.9,0.8
			c0.6,0.3,1.1,0.8,1.5,1.3s0.8,1.1,1,1.8c0.2,0.7,0.4,1.5,0.4,2.4c0,1.4-0.3,2.5-0.8,3.5s-1.3,1.8-2.2,2.4s-2,1.1-3.3,1.4
			s-2.6,0.5-4.1,0.5C583.3,29.2,573.3,29.2,573.3,29.3z M579.3,13.1h2.8c1.5,0,2.6-0.3,3.2-0.9c0.7-0.6,1-1.3,1-2.3s-0.3-1.8-1-2.2
			c-0.6-0.4-1.7-0.6-3.1-0.6h-2.9V13.1L579.3,13.1z M579.3,24.5h3.4c3.3,0,5-1.2,5-3.6c0-1.2-0.4-2-1.2-2.5s-2.1-0.8-3.7-0.8h-3.4
			L579.3,24.5L579.3,24.5z"/>
		<path class="st0" d="M601.2,29.3v-9.5l-8.1-17.3h6.5l2.4,6.2c0.4,1,0.7,2,1.1,2.9c0.3,0.9,0.7,1.9,1.1,3h0.2c0.4-1,0.8-2,1.1-3
			c0.4-0.9,0.7-1.9,1.1-2.9l2.4-6.2h6.3l-8.1,17.3v9.5H601.2z"/>
		<path class="st0" d="M635.9,29.8c-1.7,0-3.3-0.3-4.8-0.9s-2.8-1.5-4-2.6s-2-2.6-2.7-4.3s-1-3.7-1-5.9s0.3-4.2,1-5.9
			s1.6-3.2,2.8-4.4s2.5-2.1,4-2.8c1.5-0.6,3.1-0.9,4.8-0.9s3.3,0.3,4.6,1c1.4,0.7,2.5,1.5,3.4,2.4l-3.2,3.9
			c-0.7-0.6-1.4-1.1-2.2-1.5c-0.8-0.4-1.6-0.6-2.6-0.6c-0.9,0-1.8,0.2-2.6,0.6c-0.8,0.4-1.5,1-2.1,1.7s-1.1,1.6-1.4,2.7
			c-0.3,1.1-0.5,2.3-0.5,3.6c0,2.8,0.6,4.9,1.8,6.4s2.8,2.3,4.7,2.3c1.1,0,2.1-0.2,2.9-0.7c0.9-0.5,1.6-1.1,2.3-1.8l3.2,3.8
			C642.3,28.4,639.5,29.8,635.9,29.8z"/>
		<path class="st0" d="M647.6,29.3v-4.9h5.7V9.2h-4.9V5.5c1.4-0.3,2.6-0.6,3.6-1s1.9-0.8,2.9-1.4h4.4v21.2h4.9v4.9L647.6,29.3
			L647.6,29.3z"/>
		<path class="st0" d="M668.7,37.2l-1.2-3.2c1.5-0.5,2.7-1.3,3.5-2.1c0.8-0.9,1.2-1.8,1.2-2.9h-0.3c-1,0-1.8-0.3-2.5-0.9
			s-1.1-1.4-1.1-2.5c0-1,0.4-1.9,1.1-2.5c0.7-0.6,1.6-0.9,2.7-0.9c1.4,0,2.4,0.5,3.1,1.5c0.7,1,1.1,2.4,1.1,4.2
			c0,2.3-0.6,4.2-1.9,5.9C672.9,35.3,671.1,36.4,668.7,37.2z"/>
		<path class="st0" d="M698.9,29.8c-1.7,0-3.3-0.3-4.8-0.9s-2.8-1.5-4-2.6s-2-2.6-2.7-4.3s-1-3.7-1-5.9s0.3-4.2,1-5.9
			s1.6-3.2,2.8-4.4s2.5-2.1,4-2.8c1.5-0.6,3.1-0.9,4.8-0.9s3.3,0.3,4.6,1c1.4,0.7,2.5,1.5,3.4,2.4l-3.2,3.9
			c-0.7-0.6-1.4-1.1-2.2-1.5c-0.8-0.4-1.6-0.6-2.6-0.6c-0.9,0-1.8,0.2-2.6,0.6c-0.8,0.4-1.5,1-2.1,1.7s-1.1,1.6-1.4,2.7
			c-0.3,1.1-0.5,2.3-0.5,3.6c0,2.8,0.6,4.9,1.8,6.4s2.8,2.3,4.7,2.3c1.1,0,2.1-0.2,2.9-0.7c0.9-0.5,1.6-1.1,2.3-1.8l3.2,3.8
			C705.3,28.4,702.4,29.8,698.9,29.8z"/>
		<path class="st0" d="M720.2,29.8c-1.8,0-3.5-0.3-4.9-1c-1.5-0.6-2.8-1.6-3.8-2.8c-1.1-1.2-1.9-2.7-2.5-4.4s-0.9-3.7-0.9-5.9
			s0.3-4.1,0.9-5.9c0.6-1.7,1.4-3.1,2.5-4.3s2.3-2.1,3.8-2.7s3.1-0.9,4.9-0.9s3.5,0.3,4.9,0.9c1.5,0.6,2.8,1.5,3.8,2.7
			s1.9,2.6,2.5,4.3s0.9,3.6,0.9,5.8s-0.3,4.1-0.9,5.9c-0.6,1.7-1.4,3.2-2.5,4.4c-1.1,1.2-2.3,2.1-3.8,2.8S722,29.8,720.2,29.8z
			 M720.2,24.5c1.8,0,3.3-0.8,4.4-2.4c1.1-1.6,1.6-3.7,1.6-6.4s-0.5-4.8-1.6-6.3s-2.5-2.3-4.4-2.3c-1.8,0-3.3,0.8-4.4,2.3
			c-1.1,1.5-1.6,3.6-1.6,6.3s0.5,4.9,1.6,6.4C716.9,23.8,718.4,24.5,720.2,24.5z"/>
		<path class="st0" d="M736.6,29.3V2.4h6.6l4.3,11.9c0.3,0.8,0.5,1.6,0.8,2.4c0.2,0.8,0.5,1.7,0.8,2.5h0.2c0.3-0.8,0.5-1.6,0.8-2.5
			c0.2-0.8,0.5-1.6,0.8-2.4l4.2-11.9h6.6v26.8h-5.5v-9.8c0-0.7,0-1.4,0.1-2.2c0.1-0.8,0.1-1.6,0.2-2.4c0.1-0.8,0.2-1.6,0.2-2.4
			c0.1-0.8,0.2-1.5,0.2-2.2h-0.2l-2.2,6.4l-3.8,10.2h-3.3l-3.8-10.2l-2.1-6.4h-0.2c0.1,0.7,0.2,1.4,0.2,2.2s0.2,1.6,0.2,2.4
			c0.1,0.8,0.2,1.6,0.2,2.4c0.1,0.8,0.1,1.5,0.1,2.2v9.8C742,29.3,736.6,29.3,736.6,29.3z"/>
		<path class="st0" d="M767.2,29.3V2.4h9.2c1.5,0,2.9,0.1,4.1,0.4c1.3,0.3,2.4,0.8,3.4,1.4c1,0.7,1.7,1.6,2.3,2.7S787,9.4,787,11
			s-0.3,2.9-0.8,4.1c-0.6,1.1-1.3,2.1-2.3,2.8c-1,0.7-2.1,1.3-3.3,1.6c-1.3,0.4-2.6,0.5-4,0.5h-3.3v9.1h-6.1L767.2,29.3L767.2,29.3z
			 M773.2,15.3h3c3.3,0,4.9-1.4,4.9-4.3c0-1.4-0.4-2.4-1.3-3c-0.9-0.6-2.1-0.9-3.8-0.9h-2.8L773.2,15.3L773.2,15.3z"/>
		<path class="st0" d="M801.7,29.8c-1.8,0-3.5-0.3-4.9-1c-1.5-0.6-2.8-1.6-3.8-2.8c-1.1-1.2-1.9-2.7-2.5-4.4s-0.9-3.7-0.9-5.9
			s0.3-4.1,0.9-5.9c0.6-1.7,1.4-3.1,2.5-4.3s2.3-2.1,3.8-2.7s3.1-0.9,4.9-0.9s3.5,0.3,4.9,0.9c1.5,0.6,2.8,1.5,3.8,2.7
			s1.9,2.6,2.5,4.3s0.9,3.6,0.9,5.8s-0.3,4.1-0.9,5.9c-0.6,1.7-1.4,3.2-2.5,4.4c-1.1,1.2-2.3,2.1-3.8,2.8S803.5,29.8,801.7,29.8z
			 M801.7,24.5c1.8,0,3.3-0.8,4.4-2.4c1.1-1.6,1.6-3.7,1.6-6.4s-0.5-4.8-1.6-6.3s-2.5-2.3-4.4-2.3c-1.8,0-3.3,0.8-4.4,2.3
			c-1.1,1.5-1.6,3.6-1.6,6.3s0.5,4.9,1.6,6.4C798.5,23.8,799.9,24.5,801.7,24.5z"/>
		<path class="st0" d="M826.3,29.8c-1.8,0-3.5-0.3-5.2-1c-1.7-0.6-3.3-1.6-4.7-2.9l3.5-4.1c1,0.8,2,1.5,3.2,2s2.3,0.8,3.4,0.8
			c1.3,0,2.2-0.2,2.8-0.7s0.9-1.1,0.9-1.9c0-0.4-0.1-0.8-0.3-1.1c-0.2-0.3-0.4-0.6-0.8-0.8c-0.3-0.2-0.8-0.5-1.2-0.7
			c-0.5-0.2-1-0.4-1.6-0.7l-3.5-1.5c-0.7-0.3-1.3-0.6-2-1.1c-0.6-0.4-1.2-1-1.7-1.5c-0.5-0.6-0.9-1.3-1.2-2.1s-0.5-1.7-0.5-2.6
			c0-1.1,0.2-2.1,0.7-3.1s1.1-1.8,2-2.5c0.8-0.7,1.9-1.3,3-1.7c1.2-0.4,2.4-0.6,3.8-0.6c1.6,0,3.1,0.3,4.6,0.9s2.9,1.5,4,2.6
			l-2.9,3.9c-0.9-0.7-1.8-1.2-2.6-1.6s-1.9-0.6-3-0.6c-1,0-1.9,0.2-2.5,0.6s-0.9,1-0.9,1.8c0,0.4,0.1,0.8,0.3,1
			c0.2,0.3,0.5,0.5,0.9,0.8c0.4,0.2,0.8,0.5,1.3,0.7s1,0.4,1.6,0.7l3.5,1.4c1.6,0.7,2.9,1.6,3.9,2.7c0.9,1.2,1.4,2.7,1.4,4.6
			c0,1.1-0.2,2.2-0.7,3.2s-1.1,1.9-2,2.6c-0.9,0.8-1.9,1.4-3.2,1.8C829.4,29.5,827.9,29.8,826.3,29.8z"/>
		<path class="st0" d="M840.2,29.3V2.4h6v26.8C846.2,29.2,840.2,29.2,840.2,29.3z"/>
		<path class="st0" d="M856.9,29.3V7.5h-7.3V2.4h20.8v5.1H863v21.7L856.9,29.3L856.9,29.3z"/>
		<path class="st0" d="M873.7,29.3V2.4h16.8v5.1h-10.7v5.4h9.1V18h-9.1v6.1h11.1v5.1L873.7,29.3L873.7,29.3z"/>
		<path class="st0" d="M914.1,29.8c-1.7,0-3.3-0.3-4.8-0.9s-2.8-1.5-4-2.6s-2-2.6-2.7-4.3s-1-3.7-1-5.9s0.3-4.2,1-5.9
			s1.6-3.2,2.8-4.4s2.5-2.1,4-2.8c1.5-0.6,3.1-0.9,4.8-0.9s3.3,0.3,4.6,1c1.4,0.7,2.5,1.5,3.4,2.4L919,9.3c-0.7-0.6-1.4-1.1-2.2-1.5
			c-0.8-0.4-1.6-0.6-2.6-0.6c-0.9,0-1.8,0.2-2.6,0.6c-0.8,0.4-1.5,1-2.1,1.7s-1.1,1.6-1.4,2.7c-0.3,1.1-0.5,2.3-0.5,3.6
			c0,2.8,0.6,4.9,1.8,6.4s2.8,2.3,4.7,2.3c1.1,0,2.1-0.2,2.9-0.7c0.9-0.5,1.6-1.1,2.3-1.8l3.2,3.8C920.5,28.4,917.6,29.8,914.1,29.8
			z"/>
		<path class="st0" d="M935.4,29.8c-1.8,0-3.5-0.3-4.9-1c-1.5-0.6-2.8-1.6-3.8-2.8c-1.1-1.2-1.9-2.7-2.5-4.4s-0.9-3.7-0.9-5.9
			s0.3-4.1,0.9-5.9c0.6-1.7,1.4-3.1,2.5-4.3s2.3-2.1,3.8-2.7s3.1-0.9,4.9-0.9s3.5,0.3,4.9,0.9c1.5,0.6,2.8,1.5,3.8,2.7
			s1.9,2.6,2.5,4.3s0.9,3.6,0.9,5.8s-0.3,4.1-0.9,5.9c-0.6,1.7-1.4,3.2-2.5,4.4c-1.1,1.2-2.3,2.1-3.8,2.8S937.2,29.8,935.4,29.8z
			 M935.4,24.5c1.8,0,3.3-0.8,4.4-2.4c1.1-1.6,1.6-3.7,1.6-6.4s-0.5-4.8-1.6-6.3s-2.5-2.3-4.4-2.3c-1.8,0-3.3,0.8-4.4,2.3
			c-1.1,1.5-1.6,3.6-1.6,6.3s0.5,4.9,1.6,6.4C932.1,23.8,933.6,24.5,935.4,24.5z"/>
		<path class="st0" d="M960,29.8c-1.8,0-3.5-0.3-5.2-1c-1.7-0.6-3.3-1.6-4.7-2.9l3.5-4.1c1,0.8,2,1.5,3.2,2s2.3,0.8,3.4,0.8
			c1.3,0,2.2-0.2,2.8-0.7s0.9-1.1,0.9-1.9c0-0.4-0.1-0.8-0.3-1.1c-0.2-0.3-0.4-0.6-0.8-0.8c-0.3-0.2-0.8-0.5-1.2-0.7
			c-0.5-0.2-1-0.4-1.6-0.7l-3.5-1.5c-0.7-0.3-1.3-0.6-2-1.1c-0.6-0.4-1.2-1-1.7-1.5c-0.5-0.6-0.9-1.3-1.2-2.1s-0.5-1.7-0.5-2.6
			c0-1.1,0.2-2.1,0.7-3.1s1.1-1.8,2-2.5c0.8-0.7,1.9-1.3,3-1.7c1.2-0.4,2.4-0.6,3.8-0.6c1.6,0,3.1,0.3,4.6,0.9s2.9,1.5,4,2.6
			l-3.1,3.8c-0.9-0.7-1.8-1.2-2.6-1.6s-1.7-0.5-2.8-0.5c-1,0-1.9,0.2-2.5,0.6c-0.6,0.4-0.9,1-0.9,1.8c0,0.4,0.1,0.8,0.3,1
			c0.2,0.3,0.5,0.5,0.9,0.8c0.4,0.2,0.8,0.5,1.3,0.7s1,0.4,1.6,0.7l3.5,1.4c1.6,0.7,2.9,1.6,3.9,2.7c0.9,1.2,1.4,2.7,1.4,4.6
			c0,1.1-0.2,2.2-0.7,3.2s-1.1,1.9-2,2.6c-0.9,0.8-1.9,1.4-3.2,1.8C963,29.5,961.6,29.8,960,29.8z"/>
		<path class="st0" d="M978.2,29.3V7.5h-7.4V2.4h20.8v5.1h-7.4v21.7L978.2,29.3L978.2,29.3z"/>
	</g>
	<g>
		<path class="st1" d="M11.1,62.4c-1.1,0-2.2-0.2-3.1-0.6c-0.9-0.4-1.7-1-2.4-1.8c-0.7-0.9-1.2-1.9-1.5-3s-0.5-2.4-0.5-3.8
			c0-1.4,0.2-2.6,0.6-3.8c0.4-1.1,0.9-2.1,1.6-2.9c0.7-0.8,1.5-1.4,2.5-1.8c1-0.4,2-0.6,3.2-0.6c0.6,0,1.1,0.1,1.6,0.2
			c0.5,0.1,0.9,0.3,1.3,0.5c0.4,0.2,0.7,0.4,1.1,0.7c0.3,0.2,0.6,0.5,0.8,0.7l-0.9,0.9c-0.5-0.5-1-0.9-1.7-1.3
			c-0.6-0.4-1.4-0.5-2.4-0.5s-1.9,0.2-2.7,0.6c-0.8,0.4-1.5,0.9-2,1.6C6,48.2,5.6,49,5.3,50s-0.5,2.1-0.5,3.3s0.1,2.3,0.4,3.3
			s0.7,1.8,1.2,2.5s1.2,1.2,2,1.6c0.8,0.4,1.7,0.6,2.7,0.6c0.8,0,1.6-0.1,2.3-0.3s1.3-0.6,1.7-1v-5.5h-4.2v-1h5.4v7
			c-0.6,0.6-1.3,1.1-2.1,1.4C13.3,62.2,12.2,62.4,11.1,62.4z"/>
		<path class="st1" d="M20.7,62V49.2h1l0.1,2.4h0.1c0.4-0.8,0.9-1.5,1.6-1.9c0.6-0.5,1.3-0.7,2.1-0.7c0.2,0,0.5,0,0.7,0.1
			c0.2,0,0.4,0.1,0.6,0.2l-0.3,1.1c-0.2-0.1-0.4-0.1-0.6-0.2c-0.2,0-0.4,0-0.6,0c-0.6,0-1.2,0.2-1.8,0.7c-0.6,0.5-1.2,1.3-1.7,2.5
			v8.7L20.7,62L20.7,62z"/>
		<path class="st1" d="M33.6,62.4c-0.8,0-1.5-0.2-2.2-0.5s-1.3-0.7-1.8-1.3s-0.9-1.3-1.3-2.1s-0.5-1.8-0.5-2.8c0-1.1,0.2-2,0.5-2.9
			s0.7-1.6,1.3-2.1s1.1-1,1.8-1.3c0.7-0.3,1.4-0.5,2.2-0.5s1.5,0.2,2.2,0.5s1.3,0.7,1.8,1.3s0.9,1.3,1.3,2.1s0.5,1.8,0.5,2.9
			c0,1.1-0.2,2-0.5,2.8s-0.7,1.5-1.3,2.1c-0.5,0.6-1.1,1-1.8,1.3S34.3,62.4,33.6,62.4z M33.6,61.3c0.6,0,1.2-0.1,1.8-0.4
			c0.6-0.3,1-0.7,1.4-1.2s0.7-1.1,0.9-1.8s0.3-1.5,0.3-2.3c0-0.9-0.1-1.6-0.3-2.3s-0.5-1.3-0.9-1.8s-0.9-0.9-1.4-1.2
			c-0.6-0.3-1.2-0.4-1.8-0.4s-1.2,0.1-1.8,0.4c-0.6,0.3-1,0.7-1.4,1.2s-0.7,1.1-0.9,1.8c-0.2,0.7-0.3,1.5-0.3,2.3s0.1,1.6,0.3,2.3
			s0.5,1.3,0.9,1.8s0.9,0.9,1.4,1.2S32.9,61.3,33.6,61.3z"/>
		<path class="st1" d="M46.9,62.4c-1.3,0-2.3-0.4-2.9-1.2c-0.6-0.8-0.9-2-0.9-3.7v-8.2h1.2v8.1c0,1.4,0.2,2.4,0.7,3s1.2,1,2.2,1
			c0.8,0,1.5-0.2,2.1-0.6c0.6-0.4,1.3-1.1,2.1-2v-9.5h1.2v12.8h-1L51.5,60h-0.1c-0.6,0.7-1.3,1.3-2,1.8
			C48.5,62.1,47.7,62.4,46.9,62.4z"/>
		<path class="st1" d="M57.3,67.8V49.2h1l0.1,1.6h0.1c0.6-0.5,1.3-0.9,2-1.3c0.7-0.4,1.5-0.6,2.3-0.6c1.7,0,3,0.6,3.8,1.8
			c0.9,1.2,1.3,2.8,1.3,4.8c0,1.1-0.2,2.1-0.5,2.9c-0.3,0.9-0.7,1.6-1.2,2.2s-1.1,1.1-1.8,1.4c-0.7,0.3-1.4,0.5-2.1,0.5
			c-0.6,0-1.2-0.1-1.9-0.4c-0.6-0.3-1.3-0.7-2-1.2v7L57.3,67.8C57.3,67.9,57.3,67.8,57.3,67.8z M62.3,61.3c0.6,0,1.2-0.1,1.8-0.4
			c0.6-0.3,1-0.7,1.4-1.2s0.7-1.1,0.9-1.9c0.2-0.7,0.3-1.5,0.3-2.4c0-0.8-0.1-1.5-0.2-2.2c-0.2-0.7-0.4-1.3-0.7-1.7
			c-0.3-0.5-0.7-0.9-1.3-1.1C64,50.1,63.4,50,62.6,50c-0.6,0-1.3,0.2-2,0.5c-0.7,0.4-1.4,0.9-2.2,1.6v7.6c0.7,0.6,1.4,1,2.1,1.3
			C61.2,61.2,61.8,61.3,62.3,61.3z"/>
		<path class="st1" d="M76.7,62.4c-0.8,0-1.6-0.2-2.3-0.5c-0.7-0.3-1.3-0.7-1.9-1.3c-0.5-0.6-1-1.3-1.3-2.1s-0.5-1.8-0.5-2.8
			s0.2-2,0.5-2.8s0.7-1.5,1.3-2.1s1.1-1,1.8-1.3s1.4-0.5,2.1-0.5c1.5,0,2.7,0.5,3.6,1.5s1.3,2.5,1.3,4.4c0,0.2,0,0.3,0,0.5
			s0,0.3-0.1,0.5H72c0,0.8,0.1,1.5,0.4,2.2s0.6,1.3,1,1.8s0.9,0.9,1.5,1.1s1.2,0.4,2,0.4c0.7,0,1.3-0.1,1.9-0.3s1.1-0.5,1.6-0.8
			l0.5,0.9c-0.5,0.3-1.1,0.6-1.7,0.9C78.4,62.2,77.6,62.4,76.7,62.4z M71.9,54.8h8.2c0-1.7-0.3-2.9-1-3.7s-1.6-1.2-2.8-1.2
			c-0.6,0-1.1,0.1-1.6,0.3s-0.9,0.5-1.3,1c-0.4,0.4-0.7,0.9-1,1.5C72.2,53.4,72,54.1,71.9,54.8z"/>
		<path class="st1" d="M89,62.4c-1.6,0-2.9-0.6-3.9-1.7c-1-1.1-1.4-2.8-1.4-5c0-1,0.2-2,0.5-2.8s0.7-1.5,1.2-2.1s1.1-1,1.8-1.3
			c0.7-0.3,1.4-0.5,2.2-0.5c0.8,0,1.5,0.1,2,0.4c0.6,0.3,1.2,0.7,1.8,1.2l-0.1-2.5v-5.3h1.2V62h-1l-0.1-1.7h-0.1
			c-0.5,0.5-1.1,1-1.8,1.4S89.8,62.4,89,62.4z M89.1,61.3c0.7,0,1.4-0.2,2-0.5c0.6-0.4,1.3-0.9,2-1.6v-7.6c-0.7-0.6-1.3-1-1.9-1.3
			C90.6,50.2,90,50,89.4,50s-1.2,0.1-1.8,0.4c-0.6,0.3-1,0.7-1.4,1.2s-0.7,1.1-0.9,1.8c-0.2,0.7-0.3,1.5-0.3,2.3
			c0,0.9,0.1,1.6,0.3,2.3c0.2,0.7,0.5,1.3,0.8,1.8c0.4,0.5,0.8,0.9,1.3,1.1C87.8,61.2,88.4,61.3,89.1,61.3z"/>
		<path class="st1" d="M109.6,62.4c-0.6,0-1.3-0.1-1.9-0.4c-0.7-0.3-1.3-0.7-1.9-1.2h-0.1l-0.1,1.3h-1V42.9h1.2v5.6l-0.1,2.5
			c0.7-0.6,1.4-1,2.1-1.4s1.5-0.6,2.3-0.6c1.7,0,3,0.6,3.8,1.8c0.9,1.2,1.3,2.8,1.3,4.8c0,1.1-0.2,2.1-0.5,2.9
			c-0.3,0.9-0.7,1.6-1.2,2.2s-1.1,1.1-1.8,1.4C111.1,62.2,110.3,62.4,109.6,62.4z M109.5,61.3c0.6,0,1.2-0.1,1.8-0.4s1-0.7,1.4-1.2
			s0.7-1.1,0.9-1.9c0.2-0.7,0.3-1.5,0.3-2.4c0-0.8-0.1-1.5-0.2-2.2c-0.2-0.7-0.4-1.3-0.7-1.7c-0.3-0.5-0.7-0.9-1.3-1.1
			c-0.5-0.3-1.1-0.4-1.9-0.4c-0.6,0-1.3,0.2-2,0.5c-0.7,0.4-1.4,0.9-2.2,1.6v7.6c0.7,0.6,1.4,1,2.1,1.3
			C108.5,61.2,109,61.3,109.5,61.3z"/>
		<path class="st1" d="M118.5,68c-0.5,0-0.9-0.1-1.3-0.3l0.3-1c0.1,0.1,0.3,0.1,0.5,0.1s0.4,0.1,0.6,0.1c0.8,0,1.5-0.3,2-1
			c0.5-0.6,1-1.5,1.3-2.4l0.3-1.1l-5.3-13.1h1.3l3.1,8.1c0.2,0.5,0.4,1.1,0.7,1.8s0.5,1.2,0.7,1.8h0.1c0.2-0.6,0.4-1.2,0.6-1.8
			s0.4-1.2,0.6-1.8l2.8-8.1h1.2l-5.1,14.4c-0.2,0.5-0.4,1.1-0.7,1.6c-0.3,0.5-0.6,1-0.9,1.4s-0.7,0.7-1.2,0.9S119.1,68,118.5,68z"/>
		<path class="st1" d="M142.4,62.4c-1.1,0-2.1-0.2-3-0.6s-1.7-1-2.3-1.8s-1.2-1.8-1.5-2.9c-0.4-1.1-0.5-2.4-0.5-3.8
			c0-1.4,0.2-2.6,0.5-3.8c0.4-1.1,0.9-2.1,1.5-2.9c0.7-0.8,1.4-1.4,2.4-1.8c0.9-0.4,1.9-0.6,3.1-0.6c1,0,1.9,0.2,2.7,0.6
			c0.8,0.4,1.4,0.9,1.9,1.5l-0.7,0.8c-0.5-0.6-1-1-1.7-1.3c-0.6-0.3-1.4-0.5-2.2-0.5c-1,0-1.8,0.2-2.6,0.6c-0.8,0.4-1.4,0.9-2,1.6
			c-0.5,0.7-1,1.5-1.2,2.5c-0.3,1-0.4,2.1-0.4,3.3s0.1,2.3,0.4,3.3c0.3,1,0.7,1.8,1.2,2.5s1.2,1.2,1.9,1.6c0.8,0.4,1.6,0.6,2.5,0.6
			s1.7-0.2,2.4-0.5s1.4-0.9,2-1.6l0.7,0.8c-0.7,0.8-1.4,1.4-2.3,1.8C144.5,62.1,143.5,62.4,142.4,62.4z"/>
		<path class="st1" d="M155.8,62.4c-0.8,0-1.5-0.2-2.2-0.5s-1.3-0.7-1.8-1.3s-0.9-1.3-1.3-2.1s-0.5-1.8-0.5-2.8c0-1.1,0.2-2,0.5-2.9
			s0.7-1.6,1.3-2.1s1.1-1,1.8-1.3s1.4-0.5,2.2-0.5s1.5,0.2,2.2,0.5s1.3,0.7,1.8,1.3s0.9,1.3,1.3,2.1s0.5,1.8,0.5,2.9
			c0,1.1-0.2,2-0.5,2.8s-0.7,1.5-1.3,2.1c-0.5,0.6-1.1,1-1.8,1.3S156.5,62.4,155.8,62.4z M155.8,61.3c0.6,0,1.2-0.1,1.8-0.4
			c0.6-0.3,1-0.7,1.4-1.2s0.7-1.1,0.9-1.8s0.3-1.5,0.3-2.3c0-0.9-0.1-1.6-0.3-2.3s-0.5-1.3-0.9-1.8s-0.9-0.9-1.4-1.2
			c-0.6-0.3-1.2-0.4-1.8-0.4s-1.2,0.1-1.8,0.4c-0.6,0.3-1,0.7-1.4,1.2s-0.7,1.1-0.9,1.8s-0.3,1.5-0.3,2.3s0.1,1.6,0.3,2.3
			s0.5,1.3,0.9,1.8s0.9,0.9,1.4,1.2S155.1,61.3,155.8,61.3z"/>
		<path class="st1" d="M165.4,62V49.2h1l0.1,2h0.1c0.6-0.7,1.2-1.2,1.9-1.6c0.7-0.4,1.4-0.7,2.1-0.7c1,0,1.8,0.2,2.4,0.7
			s0.9,1.1,1.2,1.9c0.7-0.8,1.5-1.4,2.2-1.9s1.4-0.7,2.2-0.7c2.6,0,3.8,1.6,3.8,4.9V62h-1.2v-8c0-1.4-0.2-2.4-0.7-3s-1.2-1-2.2-1
			c-1.2,0-2.4,0.8-3.8,2.4v9.7h-1.2V54c0-1.4-0.2-2.4-0.7-3s-1.2-1-2.2-1c-1.2,0-2.4,0.8-3.8,2.4v9.7
			C166.6,62.1,165.4,62.1,165.4,62z"/>
		<path class="st1" d="M187,67.8V49.2h1l0.1,1.6h0.1c0.6-0.5,1.3-0.9,2-1.3c0.7-0.4,1.5-0.6,2.3-0.6c1.7,0,3,0.6,3.8,1.8
			c0.9,1.2,1.3,2.8,1.3,4.8c0,1.1-0.2,2.1-0.5,2.9c-0.3,0.9-0.7,1.6-1.2,2.2s-1.1,1.1-1.8,1.4c-0.7,0.3-1.4,0.5-2.1,0.5
			c-0.6,0-1.2-0.1-1.9-0.4c-0.6-0.3-1.3-0.7-2-1.2v7L187,67.8L187,67.8z M192,61.3c0.6,0,1.2-0.1,1.8-0.4s1-0.7,1.4-1.2
			s0.7-1.1,0.9-1.9c0.2-0.7,0.3-1.5,0.3-2.4c0-0.8-0.1-1.5-0.2-2.2c-0.2-0.7-0.4-1.3-0.7-1.7c-0.3-0.5-0.7-0.9-1.3-1.1
			c-0.5-0.3-1.1-0.4-1.9-0.4c-0.6,0-1.3,0.2-2,0.5c-0.7,0.4-1.4,0.9-2.2,1.6v7.6c0.7,0.6,1.4,1,2.1,1.3
			C190.9,61.2,191.5,61.3,192,61.3z"/>
		<path class="st1" d="M204,62.4c-0.5,0-1-0.1-1.4-0.2c-0.4-0.1-0.8-0.4-1.2-0.6c-0.3-0.3-0.6-0.6-0.8-1.1c-0.2-0.4-0.3-1-0.3-1.6
			c0-1.4,0.7-2.5,2-3.2s3.4-1.3,6.3-1.6c0-0.5,0-1-0.1-1.5s-0.2-0.9-0.5-1.3c-0.2-0.4-0.5-0.7-0.9-0.9s-0.9-0.4-1.5-0.4
			c-0.9,0-1.6,0.2-2.3,0.5s-1.3,0.7-1.7,1l-0.5-0.9c0.2-0.2,0.5-0.3,0.8-0.5s0.7-0.4,1.1-0.5c0.4-0.2,0.9-0.3,1.3-0.4
			c0.5-0.1,1-0.2,1.5-0.2c0.7,0,1.4,0.1,1.9,0.4c0.5,0.3,0.9,0.6,1.3,1.1c0.3,0.4,0.6,1,0.7,1.6c0.1,0.6,0.2,1.2,0.2,1.9v8.2h-1
			l-0.1-1.7h-0.1c-0.7,0.5-1.4,1-2.1,1.4S204.9,62.4,204,62.4z M204.2,61.4c0.7,0,1.5-0.2,2.1-0.5c0.7-0.4,1.4-0.9,2.2-1.5V55
			c-1.3,0.2-2.4,0.4-3.3,0.6s-1.6,0.5-2.2,0.8c-0.6,0.3-0.9,0.7-1.2,1.1c-0.2,0.4-0.4,0.9-0.4,1.4s0.1,0.9,0.2,1.2s0.3,0.6,0.6,0.8
			c0.2,0.2,0.5,0.4,0.9,0.5C203.5,61.3,203.8,61.4,204.2,61.4z"/>
		<path class="st1" d="M214.3,62V49.2h1l0.1,2h0.1c0.7-0.7,1.3-1.2,2-1.6c0.7-0.4,1.5-0.7,2.4-0.7c1.3,0,2.3,0.4,2.9,1.2
			c0.6,0.8,0.9,2,0.9,3.7V62h-1.1v-8c0-1.4-0.2-2.4-0.7-3s-1.2-1-2.3-1c-0.8,0-1.5,0.2-2.1,0.6s-1.3,1-2.1,1.8V62H214.3z"/>
		<path class="st1" d="M228,68c-0.5,0-0.9-0.1-1.3-0.3l0.3-1c0.1,0.1,0.3,0.1,0.5,0.1s0.4,0.1,0.6,0.1c0.8,0,1.5-0.3,2-1
			c0.5-0.6,1-1.5,1.3-2.4l0.3-1.1l-5.3-13.1h1.3l3.1,8.1c0.2,0.5,0.4,1.1,0.7,1.8s0.5,1.2,0.7,1.8h0.1c0.2-0.6,0.4-1.2,0.6-1.8
			c0.2-0.6,0.4-1.2,0.6-1.8l2.8-8.1h1.2l-5.1,14.4c-0.2,0.5-0.4,1.1-0.7,1.6s-0.6,1-0.9,1.4c-0.3,0.4-0.7,0.7-1.2,0.9
			C229.1,67.8,228.6,68,228,68z"/>
		<path class="st1" d="M246.1,46.1c-0.3,0-0.6-0.1-0.8-0.3s-0.3-0.4-0.3-0.7s0.1-0.6,0.3-0.8s0.5-0.3,0.8-0.3s0.6,0.1,0.8,0.3
			s0.3,0.4,0.3,0.8c0,0.3-0.1,0.6-0.3,0.7C246.7,46,246.4,46.1,246.1,46.1z M245.5,62V49.2h1.2V62H245.5z"/>
		<path class="st1" d="M251.6,62V49.2h1l0.1,2h0.1c0.7-0.7,1.3-1.2,2-1.6c0.7-0.4,1.5-0.7,2.4-0.7c1.3,0,2.3,0.4,2.9,1.2
			s0.9,2,0.9,3.7V62h-1.2v-8c0-1.4-0.2-2.4-0.7-3s-1.2-1-2.3-1c-0.8,0-1.5,0.2-2.1,0.6s-1.3,1-2.1,1.8V62H251.6z"/>
		<path class="st1" d="M275.9,62.4c-1.3,0-2.4-0.2-3.4-0.7s-1.8-1.1-2.5-1.9l0.8-0.9c0.6,0.7,1.4,1.3,2.3,1.7s1.8,0.6,2.9,0.6
			c1.4,0,2.4-0.3,3.2-1c0.8-0.6,1.2-1.5,1.2-2.5c0-0.6-0.1-1-0.3-1.4c-0.2-0.4-0.4-0.7-0.7-1c-0.3-0.3-0.6-0.5-1-0.7
			s-0.8-0.4-1.2-0.6l-2.7-1.2c-0.4-0.2-0.8-0.4-1.2-0.6c-0.4-0.2-0.8-0.5-1.2-0.9c-0.3-0.3-0.6-0.8-0.9-1.2c-0.2-0.5-0.3-1-0.3-1.7
			c0-0.6,0.1-1.2,0.4-1.7s0.6-1,1.1-1.4s1-0.7,1.6-0.9s1.3-0.3,2-0.3c1.1,0,2,0.2,2.8,0.6c0.8,0.4,1.5,0.9,2,1.5l-0.7,0.8
			c-0.5-0.5-1.1-1-1.8-1.3c-0.7-0.3-1.5-0.5-2.4-0.5c-1.2,0-2.1,0.3-2.8,0.9c-0.7,0.6-1.1,1.3-1.1,2.3c0,0.5,0.1,1,0.3,1.3
			c0.2,0.4,0.4,0.7,0.7,0.9c0.3,0.3,0.6,0.5,1,0.7s0.7,0.4,1,0.5l2.7,1.2c0.5,0.2,1,0.5,1.4,0.7c0.4,0.3,0.8,0.6,1.2,0.9
			c0.3,0.4,0.6,0.8,0.8,1.3c0.2,0.5,0.3,1.1,0.3,1.7c0,0.7-0.1,1.3-0.4,1.9c-0.3,0.6-0.6,1.1-1.1,1.5s-1.1,0.7-1.8,1
			S276.7,62.4,275.9,62.4z"/>
		<path class="st1" d="M282.8,66.3l8.1-23.2h1l-8.1,23.2H282.8z"/>
		<path class="st1" d="M298.5,62.4c-0.6,0-1.1-0.1-1.5-0.3s-0.7-0.4-1-0.8c-0.2-0.3-0.4-0.7-0.5-1.2s-0.1-1-0.1-1.6v-8.3h-2v-0.9
			l2-0.1l0.2-3.7h1v3.7h3.7v1h-3.7v8.4c0,0.4,0,0.8,0.1,1.1s0.2,0.6,0.3,0.9c0.2,0.2,0.4,0.4,0.7,0.6c0.3,0.1,0.6,0.2,1.1,0.2
			c0.2,0,0.5,0,0.8-0.1s0.6-0.2,0.8-0.3l0.3,1c-0.4,0.1-0.7,0.3-1.1,0.3C299.1,62.3,298.8,62.4,298.5,62.4z"/>
		<path class="st1" d="M312.1,66.8c-1.1-1.8-2-3.7-2.6-5.6c-0.6-2-0.9-4.1-0.9-6.5s0.3-4.5,0.9-6.5s1.5-3.8,2.6-5.6l0.7,0.4
			c-1.1,1.7-1.9,3.5-2.4,5.5s-0.8,4-0.8,6.2c0,2.1,0.3,4.2,0.8,6.2s1.3,3.8,2.4,5.5L312.1,66.8z"/>
		<path class="st1" d="M318.5,62l-4-17.6h1.3l2.2,10.4c0.2,1,0.4,1.9,0.6,2.9s0.4,1.9,0.6,2.9h0.1c0.2-1,0.4-1.9,0.7-2.9
			c0.2-1,0.5-1.9,0.7-2.9l2.8-10.4h1.3l2.8,10.4c0.2,1,0.5,1.9,0.7,2.9s0.5,1.9,0.7,2.9h0.1c0.2-1,0.4-1.9,0.6-2.9s0.4-1.9,0.6-2.9
			l2.2-10.4h1.2L329.8,62h-1.4l-3.2-12c-0.2-0.7-0.3-1.4-0.5-2s-0.3-1.3-0.5-2h-0.1c-0.1,0.7-0.3,1.4-0.5,2s-0.3,1.3-0.5,2l-3.2,12
			H318.5z"/>
		<path class="st1" d="M336.9,62V44.5h1.7l3.7,10.3c0.2,0.6,0.5,1.3,0.7,1.9c0.2,0.7,0.5,1.3,0.7,2h0.1c0.2-0.7,0.5-1.3,0.7-2
			c0.2-0.6,0.4-1.3,0.7-1.9l3.7-10.3h1.8v17.6h-1.2V50.5c0-0.7,0-1.5,0.1-2.4c0-0.8,0.1-1.6,0.1-2.4h-0.1l-1.4,3.9l-4,10.5h-1.1
			l-3.8-10.5l-1.4-3.9h-0.1c0,0.7,0.1,1.5,0.1,2.4c0,0.8,0.1,1.6,0.1,2.4v11.6L336.9,62L336.9,62z"/>
		<path class="st1" d="M354.2,62v-0.7c1.4-1.4,2.6-2.7,3.7-3.8c1-1.1,1.9-2.2,2.6-3.1c0.7-0.9,1.2-1.8,1.6-2.6
			c0.3-0.8,0.5-1.6,0.5-2.3c0-1.1-0.3-2-0.9-2.7s-1.5-1.1-2.8-1.1c-0.8,0-1.5,0.2-2.2,0.6c-0.7,0.4-1.3,1-1.8,1.6l-0.8-0.7
			c0.6-0.7,1.3-1.3,2.1-1.8c0.8-0.5,1.7-0.7,2.7-0.7c1.5,0,2.7,0.4,3.6,1.3c0.8,0.9,1.3,2,1.3,3.5c0,0.9-0.2,1.7-0.6,2.5
			s-0.9,1.7-1.6,2.7c-0.7,0.9-1.5,1.9-2.5,3s-2,2.2-3.2,3.5c0.5,0,0.9-0.1,1.4-0.1s1,0,1.4,0h5.8v1.1h-10.3L354.2,62L354.2,62z"/>
		<path class="st1" d="M372.3,62.4c-1.6,0-2.9-0.8-3.8-2.3s-1.3-3.7-1.3-6.6c0-2.8,0.4-5,1.3-6.5s2.1-2.3,3.8-2.3s2.9,0.8,3.8,2.3
			s1.3,3.7,1.3,6.5c0,2.9-0.4,5.1-1.3,6.6S373.9,62.4,372.3,62.4z M372.3,61.4c1.2,0,2.1-0.7,2.8-2c0.7-1.3,1.1-3.3,1.1-5.9
			c0-2.6-0.4-4.6-1.1-5.8c-0.7-1.3-1.7-1.9-2.8-1.9c-1.2,0-2.1,0.6-2.8,1.9c-0.7,1.3-1.1,3.2-1.1,5.8s0.4,4.6,1.1,5.9
			C370.2,60.7,371.1,61.4,372.3,61.4z"/>
		<path class="st1" d="M380.9,62v-1h4V46.9h-3v-0.8c0.7-0.1,1.3-0.3,1.9-0.5c0.5-0.2,1-0.4,1.4-0.6h1v16h3.7v1
			C389.9,62,380.9,62,380.9,62z"/>
		<path class="st1" d="M396.6,62.4c-0.8,0-1.5-0.2-2.1-0.5s-1.1-0.7-1.5-1.2l0.7-0.8c0.4,0.5,0.8,0.8,1.3,1.1c0.5,0.2,1,0.4,1.6,0.4
			c0.7,0,1.3-0.1,1.9-0.4c0.6-0.3,1.2-0.8,1.6-1.4c0.5-0.7,0.8-1.5,1.1-2.6c0.3-1.1,0.4-2.4,0.4-3.9c-0.6,0.7-1.3,1.3-2,1.7
			s-1.5,0.6-2.3,0.6c-1.5,0-2.7-0.4-3.5-1.3c-0.8-0.9-1.2-2.2-1.2-3.9c0-0.8,0.1-1.5,0.4-2.1c0.2-0.7,0.6-1.2,1-1.7s0.9-0.8,1.5-1.1
			s1.2-0.4,1.8-0.4c1.7,0,3.1,0.7,4.1,2.1c1,1.4,1.5,3.4,1.5,6c0,1.8-0.2,3.3-0.5,4.5s-0.8,2.2-1.4,3s-1.2,1.3-2,1.6
			S397.4,62.4,396.6,62.4z M397.5,54.3c0.6,0,1.3-0.2,2.1-0.6s1.4-1.1,2.1-2c-0.1-0.9-0.2-1.7-0.4-2.5c-0.2-0.7-0.5-1.4-0.9-1.9
			s-0.8-0.9-1.3-1.2s-1.1-0.4-1.8-0.4c-0.5,0-0.9,0.1-1.4,0.3c-0.4,0.2-0.8,0.5-1.1,0.9c-0.3,0.4-0.5,0.8-0.7,1.4
			c-0.2,0.5-0.3,1.1-0.3,1.7c0,0.6,0.1,1.2,0.2,1.7s0.4,1,0.7,1.4c0.3,0.4,0.7,0.7,1.1,0.9C396.3,54.2,396.9,54.3,397.5,54.3z"/>
		<path class="st1" d="M423.5,66.3c-0.7,0-1.4-0.1-2-0.3c-0.6-0.2-1.2-0.5-1.7-0.8s-0.9-0.8-1.3-1.2c-0.4-0.5-0.7-1-0.9-1.5
			c-1-0.1-1.8-0.4-2.6-0.8c-0.8-0.5-1.5-1.1-2.1-1.9c-0.6-0.8-1-1.7-1.3-2.8s-0.5-2.3-0.5-3.6c0-1.4,0.2-2.6,0.5-3.8
			c0.4-1.1,0.9-2.1,1.5-2.9c0.6-0.8,1.4-1.4,2.3-1.8c0.9-0.4,1.9-0.6,2.9-0.6c1.1,0,2,0.2,2.9,0.6c0.9,0.4,1.7,1,2.3,1.8
			c0.6,0.8,1.1,1.7,1.5,2.9c0.4,1.1,0.5,2.4,0.5,3.8c0,1.3-0.2,2.5-0.5,3.6s-0.8,2-1.3,2.8c-0.6,0.8-1.3,1.4-2.1,1.9
			c-0.8,0.5-1.7,0.8-2.7,0.8c0.4,0.9,1,1.6,1.8,2c0.8,0.5,1.7,0.7,2.8,0.7c0.4,0,0.8,0,1-0.1c0.3,0,0.5-0.1,0.8-0.1l0.3,1
			c-0.2,0.1-0.5,0.1-0.9,0.2S423.9,66.3,423.5,66.3z M418.3,61.3c0.9,0,1.7-0.2,2.4-0.6s1.4-0.9,1.9-1.6s0.9-1.6,1.2-2.6
			c0.3-1,0.4-2.1,0.4-3.4c0-1.2-0.1-2.3-0.4-3.3s-0.7-1.8-1.2-2.5s-1.2-1.2-1.9-1.6c-0.7-0.4-1.5-0.6-2.4-0.6s-1.7,0.2-2.4,0.6
			c-0.7,0.4-1.4,0.9-1.9,1.6c-0.5,0.7-0.9,1.5-1.2,2.5c-0.3,1-0.4,2.1-0.4,3.3s0.1,2.3,0.4,3.4c0.3,1,0.7,1.9,1.2,2.6
			s1.1,1.3,1.9,1.6S417.4,61.3,418.3,61.3z"/>
		<path class="st1" d="M429.3,62v-1h4V46.9h-3v-0.8c0.7-0.1,1.3-0.3,1.9-0.5c0.5-0.2,1-0.4,1.4-0.6h1v16h3.7v1
			C438.3,62,429.3,62,429.3,62z"/>
		<path class="st1" d="M446.2,55.9v-1h5.9v1H446.2z"/>
		<path class="st1" d="M458.7,62l6.2-17.6h1.2l6.2,17.6H471l-2.1-6h-7l-2.1,6H458.7z M463.5,51.7l-1.1,3.3h6.2l-1.1-3.3
			c-0.4-1-0.7-2.1-1-3c-0.3-1-0.6-2-0.9-3.1h-0.1c-0.3,1.1-0.6,2.1-0.9,3.1C464.2,49.6,463.8,50.6,463.5,51.7z"/>
		<path class="st1" d="M476.5,62.4c-1.1,0-1.6-0.7-1.6-2V42.9h1.2v17.6c0,0.3,0.1,0.5,0.2,0.6s0.2,0.2,0.4,0.2c0.1,0,0.1,0,0.2,0
			s0.2,0,0.3-0.1l0.2,1c-0.1,0-0.2,0.1-0.4,0.1C476.9,62.4,476.7,62.4,476.5,62.4z"/>
		<path class="st1" d="M482.9,62.4c-1.1,0-1.6-0.7-1.6-2V42.9h1.2v17.6c0,0.3,0.1,0.5,0.2,0.6s0.2,0.2,0.4,0.2c0.1,0,0.1,0,0.2,0
			s0.2,0,0.3-0.1l0.2,1c-0.1,0-0.2,0.1-0.4,0.1C483.2,62.4,483.1,62.4,482.9,62.4z"/>
		<path class="st1" d="M493.1,62V44.5h1.7l3.7,10.3c0.2,0.6,0.5,1.3,0.7,1.9c0.2,0.7,0.5,1.3,0.7,2h0.1c0.2-0.7,0.5-1.3,0.7-2
			c0.2-0.6,0.4-1.3,0.7-1.9l3.7-10.3h1.8v17.6h-1.3V50.5c0-0.7,0-1.5,0.1-2.4s0.1-1.6,0.1-2.4h-0.2l-1.4,3.9l-3.7,10.5h-1.1
			l-3.8-10.4l-1.4-3.9h-0.1c0,0.7,0.1,1.5,0.1,2.4c0,0.8,0.1,1.6,0.1,2.4v11.6h-1.2L493.1,62L493.1,62z"/>
		<path class="st1" d="M512.4,46.1c-0.3,0-0.6-0.1-0.8-0.3s-0.3-0.4-0.3-0.7s0.1-0.6,0.3-0.8c0.2-0.2,0.5-0.3,0.8-0.3
			s0.6,0.1,0.8,0.3s0.3,0.4,0.3,0.8c0,0.3-0.1,0.6-0.3,0.7C513,46,512.7,46.1,512.4,46.1z M511.8,62V49.2h1.2V62H511.8z"/>
		<path class="st1" d="M517.9,62V49.2h1l0.1,2h0.1c0.7-0.7,1.3-1.2,2-1.6c0.7-0.4,1.5-0.7,2.4-0.7c1.3,0,2.3,0.4,2.9,1.2
			c0.6,0.8,0.9,2,0.9,3.7V62h-1.2v-8c0-1.4-0.2-2.4-0.7-3s-1.2-1-2.3-1c-0.8,0-1.5,0.2-2.1,0.6s-1.3,1-2.1,1.8V62H517.9z"/>
		<path class="st1" d="M537,62.4c-0.8,0-1.6-0.2-2.3-0.5s-1.3-0.7-1.9-1.3c-0.5-0.6-1-1.3-1.3-2.1s-0.5-1.8-0.5-2.8s0.2-2,0.5-2.8
			s0.7-1.5,1.3-2.1c0.5-0.6,1.1-1,1.8-1.3s1.4-0.5,2.1-0.5c1.5,0,2.7,0.5,3.6,1.5c0.9,1,1.3,2.5,1.3,4.4c0,0.2,0,0.3,0,0.5
			s0,0.3-0.1,0.5h-9.2c0,0.8,0.1,1.5,0.4,2.2c0.2,0.7,0.6,1.3,1,1.8s0.9,0.9,1.5,1.1c0.6,0.3,1.2,0.4,2,0.4c0.7,0,1.3-0.1,1.9-0.3
			s1.1-0.5,1.6-0.8l0.5,0.9c-0.5,0.3-1.1,0.6-1.7,0.9C538.7,62.2,537.9,62.4,537,62.4z M532.3,54.8h8.2c0-1.7-0.3-2.9-1-3.7
			s-1.6-1.2-2.8-1.2c-0.6,0-1.1,0.1-1.6,0.3s-0.9,0.5-1.3,1s-0.7,0.9-1,1.5C532.5,53.4,532.3,54.1,532.3,54.8z"/>
		<path class="st1" d="M548.1,62.4c-1,0-1.8-0.2-2.6-0.5s-1.5-0.8-2.1-1.2l0.7-0.9c0.6,0.5,1.1,0.9,1.8,1.2c0.6,0.3,1.4,0.5,2.3,0.5
			c1,0,1.8-0.3,2.3-0.8s0.8-1.1,0.8-1.8c0-0.4-0.1-0.7-0.3-1s-0.4-0.6-0.7-0.8s-0.6-0.4-1-0.6s-0.7-0.3-1.1-0.5
			c-0.5-0.2-1-0.4-1.5-0.6c-0.5-0.2-0.9-0.4-1.3-0.7c-0.4-0.3-0.7-0.6-0.9-1s-0.4-0.8-0.4-1.4c0-0.5,0.1-0.9,0.3-1.3
			c0.2-0.4,0.4-0.8,0.8-1.1c0.4-0.3,0.8-0.6,1.3-0.7c0.5-0.2,1.1-0.3,1.8-0.3s1.3,0.1,2,0.4c0.6,0.2,1.2,0.6,1.7,1l-0.6,0.8
			c-0.4-0.3-0.9-0.6-1.4-0.8s-1-0.3-1.7-0.3c-0.5,0-0.9,0.1-1.3,0.2c-0.4,0.1-0.7,0.3-0.9,0.5s-0.4,0.5-0.5,0.7
			c-0.1,0.3-0.2,0.6-0.2,0.9c0,0.4,0.1,0.7,0.3,0.9c0.2,0.3,0.4,0.5,0.7,0.7s0.6,0.4,1,0.5c0.4,0.2,0.7,0.3,1.1,0.4
			c0.5,0.2,1,0.4,1.5,0.6c0.5,0.2,0.9,0.4,1.3,0.7s0.7,0.6,1,1.1c0.2,0.4,0.4,0.9,0.4,1.6c0,0.5-0.1,0.9-0.3,1.4
			c-0.2,0.4-0.5,0.8-0.8,1.1c-0.4,0.3-0.8,0.6-1.4,0.8C549.4,62.3,548.8,62.4,548.1,62.4z"/>
		<path class="st1" d="M555,66.8l-0.7-0.4c1.1-1.7,1.9-3.5,2.4-5.5s0.8-4,0.8-6.2c0-2.1-0.3-4.2-0.8-6.2s-1.3-3.8-2.4-5.5l0.7-0.4
			c1.1,1.8,1.9,3.7,2.6,5.6c0.6,2,0.9,4.1,0.9,6.5s-0.3,4.5-0.9,6.5C556.9,63.1,556,65,555,66.8z"/>
	</g>
	<line class="st2" x1="2.1" y1="85" x2="998.3" y2="85"/>
	<line class="st3" x1="1.7" y1="589.2" x2="998.3" y2="589.2"/>
	<g>
		<path class="st4" d="M33.8,145.1v-0.6c1.1-1.1,2-2.1,2.8-2.9c0.8-0.9,1.5-1.7,2-2.4s0.9-1.4,1.2-2s0.4-1.2,0.4-1.8
			c0-0.8-0.2-1.5-0.7-2.1s-1.2-0.8-2.2-0.8c-0.6,0-1.2,0.2-1.7,0.5s-1,0.7-1.4,1.2l-0.6-0.6c0.5-0.5,1-1,1.6-1.4s1.3-0.6,2.1-0.6
			c1.2,0,2.1,0.3,2.7,1c0.6,0.7,1,1.6,1,2.7c0,0.7-0.1,1.3-0.4,2s-0.7,1.3-1.2,2.1c-0.5,0.7-1.2,1.5-1.9,2.3s-1.6,1.7-2.5,2.7
			c0.4,0,0.7-0.1,1.1-0.1c0.4,0,0.7,0,1.1,0h4.5v0.8L33.8,145.1L33.8,145.1z"/>
		<path class="st4" d="M47.7,145.4c-1.3,0-2.2-0.6-2.9-1.8s-1-2.9-1-5.1c0-2.2,0.3-3.9,1-5c0.7-1.2,1.6-1.7,2.9-1.7
			c1.3,0,2.2,0.6,2.9,1.7c0.7,1.2,1,2.8,1,5s-0.3,3.9-1,5.1S48.9,145.4,47.7,145.4z M47.7,144.6c0.9,0,1.6-0.5,2.2-1.5
			s0.8-2.5,0.8-4.5s-0.3-3.5-0.8-4.5s-1.3-1.5-2.2-1.5s-1.6,0.5-2.2,1.5c-0.5,1-0.8,2.5-0.8,4.5s0.3,3.5,0.8,4.5
			S46.8,144.6,47.7,144.6z"/>
		<path class="st4" d="M57.5,145.4c-1.3,0-2.2-0.6-2.9-1.8s-1-2.9-1-5.1c0-2.2,0.3-3.9,1-5c0.7-1.2,1.6-1.7,2.9-1.7
			c1.3,0,2.2,0.6,2.9,1.7c0.7,1.2,1,2.8,1,5s-0.3,3.9-1,5.1S58.8,145.4,57.5,145.4z M57.5,144.6c0.9,0,1.6-0.5,2.2-1.5
			s0.8-2.5,0.8-4.5s-0.3-3.5-0.8-4.5s-1.3-1.5-2.2-1.5s-1.6,0.5-2.2,1.5c-0.5,1-0.8,2.5-0.8,4.5s0.3,3.5,0.8,4.5
			C55.9,144.1,56.6,144.6,57.5,144.6z"/>
		<path class="st4" d="M67.3,145.4c-1.3,0-2.2-0.6-2.9-1.8c-0.7-1.2-1-2.9-1-5.1c0-2.2,0.3-3.9,1-5c0.7-1.2,1.6-1.7,2.9-1.7
			s2.2,0.6,2.9,1.7c0.7,1.2,1,2.8,1,5s-0.3,3.9-1,5.1C69.6,144.8,68.6,145.4,67.3,145.4z M67.3,144.6c0.9,0,1.6-0.5,2.2-1.5
			s0.8-2.5,0.8-4.5s-0.3-3.5-0.8-4.5s-1.3-1.5-2.2-1.5c-0.9,0-1.6,0.5-2.2,1.5c-0.5,1-0.8,2.5-0.8,4.5s0.3,3.5,0.8,4.5
			C65.7,144.1,66.4,144.6,67.3,144.6z"/>
	</g>
	<g>
		<path class="st4" d="M34.6,178.3v-0.8h3.1v-10.9h-2.3V166c0.5-0.1,1-0.2,1.4-0.3s0.8-0.3,1.1-0.5h0.7v12.3h2.9v0.8H34.6z"/>
		<path class="st4" d="M47.7,178.5c-0.6,0-1.2-0.1-1.7-0.3s-0.9-0.4-1.3-0.8s-0.7-0.7-0.9-1.1c-0.2-0.4-0.3-0.9-0.3-1.4
			c0-0.4,0.1-0.8,0.2-1.2c0.2-0.4,0.4-0.7,0.6-1s0.5-0.6,0.8-0.8s0.6-0.4,0.9-0.6v-0.2c-0.2-0.2-0.5-0.3-0.7-0.5s-0.4-0.4-0.6-0.7
			c-0.2-0.3-0.3-0.5-0.4-0.8c-0.1-0.3-0.2-0.6-0.2-1c0-0.5,0.1-0.9,0.3-1.3c0.2-0.4,0.4-0.7,0.7-1s0.7-0.5,1.1-0.7
			c0.4-0.2,0.9-0.2,1.3-0.2c0.6,0,1.1,0.1,1.5,0.3s0.8,0.4,1.1,0.7s0.5,0.7,0.7,1.1c0.2,0.4,0.2,0.9,0.2,1.4c0,0.4-0.1,0.7-0.2,1
			c-0.1,0.3-0.3,0.6-0.5,0.9c-0.2,0.3-0.4,0.5-0.6,0.8c-0.2,0.2-0.4,0.4-0.6,0.6v0.1c0.3,0.2,0.6,0.4,0.8,0.6
			c0.3,0.2,0.5,0.4,0.7,0.7s0.4,0.6,0.5,0.9s0.2,0.7,0.2,1.2s-0.1,0.9-0.3,1.3c-0.2,0.4-0.5,0.8-0.8,1.1s-0.8,0.6-1.3,0.7
			C48.9,178.4,48.3,178.5,47.7,178.5z M47.7,177.8c0.5,0,0.9-0.1,1.3-0.2c0.4-0.1,0.7-0.3,1-0.6c0.3-0.2,0.5-0.5,0.6-0.9
			c0.1-0.3,0.2-0.7,0.2-1c0-0.5-0.1-0.9-0.3-1.3s-0.5-0.7-0.9-0.9s-0.8-0.5-1.3-0.7s-1-0.4-1.5-0.6c-0.7,0.4-1.2,0.9-1.7,1.4
			c-0.4,0.5-0.7,1.2-0.7,1.9c0,0.4,0.1,0.8,0.2,1.1c0.2,0.3,0.4,0.7,0.7,0.9c0.3,0.3,0.6,0.5,1,0.6
			C46.8,177.6,47.3,177.8,47.7,177.8z M48.7,171.3c0.6-0.5,1-0.9,1.3-1.4s0.4-1,0.4-1.6c0-0.4-0.1-0.7-0.2-1
			c-0.1-0.3-0.3-0.6-0.5-0.9c-0.2-0.2-0.5-0.4-0.8-0.6c-0.3-0.1-0.7-0.2-1.1-0.2c-0.4,0-0.7,0.1-1,0.2s-0.6,0.3-0.8,0.5
			s-0.4,0.5-0.5,0.8s-0.2,0.6-0.2,1c0,0.5,0.1,0.9,0.3,1.2s0.5,0.6,0.8,0.9s0.7,0.5,1.1,0.7C47.8,171,48.3,171.3,48.7,171.3z"/>
		<path class="st4" d="M57.5,178.5c-1.3,0-2.2-0.6-2.9-1.8s-1-2.9-1-5.1c0-2.2,0.3-3.9,1-5c0.7-1.2,1.6-1.7,2.9-1.7
			c1.3,0,2.2,0.6,2.9,1.7c0.7,1.2,1,2.8,1,5s-0.3,3.9-1,5.1C59.7,177.9,58.8,178.5,57.5,178.5z M57.5,177.8c0.9,0,1.6-0.5,2.2-1.5
			s0.8-2.5,0.8-4.5s-0.3-3.5-0.8-4.5s-1.3-1.5-2.2-1.5s-1.6,0.5-2.2,1.5c-0.5,1-0.8,2.5-0.8,4.5s0.3,3.5,0.8,4.5
			C55.9,177.3,56.6,177.8,57.5,177.8z"/>
		<path class="st4" d="M67.3,178.5c-1.3,0-2.2-0.6-2.9-1.8c-0.7-1.2-1-2.9-1-5.1c0-2.2,0.3-3.9,1-5c0.7-1.2,1.6-1.7,2.9-1.7
			s2.2,0.6,2.9,1.7c0.7,1.2,1,2.8,1,5s-0.3,3.9-1,5.1C69.6,177.9,68.6,178.5,67.3,178.5z M67.3,177.8c0.9,0,1.6-0.5,2.2-1.5
			s0.8-2.5,0.8-4.5s-0.3-3.5-0.8-4.5s-1.3-1.5-2.2-1.5c-0.9,0-1.6,0.5-2.2,1.5c-0.5,1-0.8,2.5-0.8,4.5s0.3,3.5,0.8,4.5
			C65.7,177.3,66.4,177.8,67.3,177.8z"/>
	</g>
	<g>
		<path class="st4" d="M34.6,211.3v-0.8h3.1v-10.9h-2.3V199c0.5-0.1,1-0.2,1.4-0.3s0.8-0.3,1.1-0.5h0.7v12.3h2.9v0.8H34.6z"/>
		<path class="st4" d="M48.1,211.6c-1.3,0-2.4-0.5-3.1-1.6c-0.8-1.1-1.2-2.6-1.2-4.6c0-1.4,0.1-2.5,0.4-3.5c0.3-0.9,0.6-1.7,1.1-2.3
			c0.4-0.6,1-1,1.5-1.3c0.6-0.3,1.2-0.4,1.8-0.4s1.1,0.1,1.6,0.3c0.4,0.2,0.8,0.5,1.2,0.9l-0.6,0.6c-0.3-0.4-0.6-0.6-1-0.8
			s-0.8-0.3-1.2-0.3c-0.5,0-1,0.1-1.5,0.3s-0.9,0.6-1.2,1.1c-0.4,0.5-0.6,1.2-0.9,2c-0.2,0.8-0.3,1.8-0.3,3c0.5-0.6,1-1,1.5-1.3
			c0.6-0.3,1.2-0.5,1.8-0.5c1.2,0,2.1,0.3,2.7,1c0.6,0.7,1,1.7,1,3c0,0.6-0.1,1.2-0.3,1.7s-0.5,0.9-0.8,1.3
			c-0.3,0.4-0.7,0.6-1.1,0.9C49.1,211.5,48.6,211.6,48.1,211.6z M48.1,210.8c0.4,0,0.7-0.1,1.1-0.3s0.6-0.4,0.8-0.7s0.4-0.7,0.6-1.1
			c0.1-0.4,0.2-0.8,0.2-1.3s-0.1-0.9-0.2-1.3c-0.1-0.4-0.3-0.8-0.5-1c-0.2-0.3-0.5-0.5-0.9-0.7s-0.8-0.2-1.3-0.2s-1,0.1-1.5,0.4
			c-0.6,0.3-1.1,0.8-1.6,1.5c0,0.7,0.1,1.3,0.3,1.9c0.2,0.6,0.4,1.1,0.6,1.5c0.3,0.4,0.6,0.7,1,0.9
			C47.1,210.8,47.6,210.8,48.1,210.8z"/>
		<path class="st4" d="M57.5,211.6c-1.3,0-2.2-0.6-2.9-1.8s-1-2.9-1-5.1c0-2.2,0.3-3.9,1-5c0.7-1.2,1.6-1.7,2.9-1.7
			c1.3,0,2.2,0.6,2.9,1.7c0.7,1.2,1,2.8,1,5s-0.3,3.9-1,5.1C59.7,211,58.8,211.6,57.5,211.6z M57.5,210.8c0.9,0,1.6-0.5,2.2-1.5
			s0.8-2.5,0.8-4.5s-0.3-3.5-0.8-4.5s-1.3-1.5-2.2-1.5s-1.6,0.5-2.2,1.5c-0.5,1-0.8,2.5-0.8,4.5s0.3,3.5,0.8,4.5
			C55.9,210.3,56.6,210.8,57.5,210.8z"/>
		<path class="st4" d="M67.3,211.6c-1.3,0-2.2-0.6-2.9-1.8c-0.7-1.2-1-2.9-1-5.1c0-2.2,0.3-3.9,1-5c0.7-1.2,1.6-1.7,2.9-1.7
			s2.2,0.6,2.9,1.7c0.7,1.2,1,2.8,1,5s-0.3,3.9-1,5.1C69.6,211,68.6,211.6,67.3,211.6z M67.3,210.8c0.9,0,1.6-0.5,2.2-1.5
			s0.8-2.5,0.8-4.5s-0.3-3.5-0.8-4.5s-1.3-1.5-2.2-1.5c-0.9,0-1.6,0.5-2.2,1.5c-0.5,1-0.8,2.5-0.8,4.5s0.3,3.5,0.8,4.5
			C65.7,210.3,66.4,210.8,67.3,210.8z"/>
	</g>
	<g>
		<path class="st4" d="M34.6,310.6v-0.8h3.1V299h-2.3v-0.6c0.5-0.1,1-0.2,1.4-0.3c0.4-0.1,0.8-0.3,1.1-0.5h0.7v12.3h2.9v0.8
			L34.6,310.6L34.6,310.6z"/>
		<path class="st4" d="M47.7,310.9c-1.3,0-2.2-0.6-2.9-1.8c-0.7-1.2-1-2.9-1-5.1s0.3-3.9,1-5c0.7-1.2,1.6-1.7,2.9-1.7
			c1.3,0,2.2,0.6,2.9,1.7c0.7,1.2,1,2.8,1,5s-0.3,3.9-1,5.1C49.9,310.3,48.9,310.9,47.7,310.9z M47.7,310.1c0.9,0,1.6-0.5,2.2-1.5
			s0.8-2.5,0.8-4.5s-0.3-3.5-0.8-4.5s-1.3-1.5-2.2-1.5s-1.6,0.5-2.2,1.5c-0.5,1-0.8,2.5-0.8,4.5s0.3,3.5,0.8,4.5
			C46,309.5,46.8,310.1,47.7,310.1z"/>
		<path class="st4" d="M57.5,310.9c-1.3,0-2.2-0.6-2.9-1.8c-0.7-1.2-1-2.9-1-5.1s0.3-3.9,1-5c0.7-1.2,1.6-1.7,2.9-1.7
			c1.3,0,2.2,0.6,2.9,1.7c0.7,1.2,1,2.8,1,5s-0.3,3.9-1,5.1C59.7,310.3,58.8,310.9,57.5,310.9z M57.5,310.1c0.9,0,1.6-0.5,2.2-1.5
			s0.8-2.5,0.8-4.5s-0.3-3.5-0.8-4.5s-1.3-1.5-2.2-1.5s-1.6,0.5-2.2,1.5c-0.5,1-0.8,2.5-0.8,4.5s0.3,3.5,0.8,4.5
			C55.9,309.5,56.6,310.1,57.5,310.1z"/>
		<path class="st4" d="M67.3,310.9c-1.3,0-2.2-0.6-2.9-1.8c-0.7-1.2-1-2.9-1-5.1s0.3-3.9,1-5c0.7-1.2,1.6-1.7,2.9-1.7
			s2.2,0.6,2.9,1.7c0.7,1.2,1,2.8,1,5s-0.3,3.9-1,5.1C69.6,310.3,68.6,310.9,67.3,310.9z M67.3,310.1c0.9,0,1.6-0.5,2.2-1.5
			s0.8-2.5,0.8-4.5s-0.3-3.5-0.8-4.5s-1.3-1.5-2.2-1.5c-0.9,0-1.6,0.5-2.2,1.5c-0.5,1-0.8,2.5-0.8,4.5s0.3,3.5,0.8,4.5
			C65.7,309.5,66.4,310.1,67.3,310.1z"/>
	</g>
	<g>
		<path class="st4" d="M34.6,277.5v-0.8h3.1v-10.9h-2.3v-0.6c0.5-0.1,1-0.2,1.4-0.3c0.4-0.1,0.8-0.3,1.1-0.5h0.7v12.3h2.9v0.8H34.6z
			"/>
		<path class="st4" d="M43.6,277.5v-0.6c1.1-1.1,2-2.1,2.8-2.9c0.8-0.9,1.5-1.7,2-2.4c0.5-0.7,0.9-1.4,1.2-2s0.4-1.2,0.4-1.8
			c0-0.8-0.2-1.5-0.7-2.1s-1.2-0.8-2.2-0.8c-0.6,0-1.2,0.2-1.7,0.5s-1,0.7-1.4,1.2l-0.4-0.5c0.5-0.5,1-1,1.6-1.4s1.3-0.6,2.1-0.6
			c1.2,0,2.1,0.3,2.7,1c0.6,0.7,1,1.6,1,2.7c0,0.7-0.1,1.3-0.4,2s-0.7,1.3-1.2,2.1c-0.5,0.7-1.2,1.5-1.9,2.3S45.9,276,45,277
			c0.4,0,0.7-0.1,1.1-0.1c0.4,0,0.7,0,1.1,0h4.4v0.8h-8V277.5z"/>
		<path class="st4" d="M57.5,277.8c-1.3,0-2.2-0.6-2.9-1.8c-0.7-1.2-1-2.9-1-5.1s0.3-3.9,1-5c0.7-1.2,1.6-1.7,2.9-1.7
			c1.3,0,2.2,0.6,2.9,1.7c0.7,1.2,1,2.8,1,5s-0.3,3.9-1,5.1C59.7,277.3,58.8,277.8,57.5,277.8z M57.5,277c0.9,0,1.6-0.5,2.2-1.5
			s0.8-2.5,0.8-4.5s-0.3-3.5-0.8-4.5s-1.3-1.5-2.2-1.5s-1.6,0.5-2.2,1.5c-0.5,1-0.8,2.5-0.8,4.5s0.3,3.5,0.8,4.5
			C55.9,276.5,56.6,277,57.5,277z"/>
		<path class="st4" d="M67.3,277.8c-1.3,0-2.2-0.6-2.9-1.8c-0.7-1.2-1-2.9-1-5.1s0.3-3.9,1-5c0.7-1.2,1.6-1.7,2.9-1.7
			s2.2,0.6,2.9,1.7c0.7,1.2,1,2.8,1,5s-0.3,3.9-1,5.1C69.6,277.3,68.6,277.8,67.3,277.8z M67.3,277c0.9,0,1.6-0.5,2.2-1.5
			s0.8-2.5,0.8-4.5s-0.3-3.5-0.8-4.5s-1.3-1.5-2.2-1.5c-0.9,0-1.6,0.5-2.2,1.5c-0.5,1-0.8,2.5-0.8,4.5s0.3,3.5,0.8,4.5
			C65.7,276.5,66.4,277,67.3,277z"/>
	</g>
	<g>
		<path class="st4" d="M34.6,244.4v-0.8h3.1v-10.9h-2.3v-0.6c0.5-0.1,1-0.2,1.4-0.3s0.8-0.3,1.1-0.5h0.7v12.3h2.9v0.8H34.6z"/>
		<path class="st4" d="M49.1,244.4v-3.9h-6V240l6.1-8.7H50v8.4h2v0.8h-2v3.9H49.1z M44.2,239.8h4.9V235c0-0.3,0-0.7,0-1.1
			c0-0.5,0-0.8,0.1-1.1h-0.1c-0.2,0.3-0.3,0.5-0.5,0.8s-0.4,0.5-0.6,0.8L44.2,239.8z"/>
		<path class="st4" d="M57.5,244.8c-1.3,0-2.2-0.6-2.9-1.8s-1-2.9-1-5.1c0-2.2,0.3-3.9,1-5c0.7-1.2,1.6-1.7,2.9-1.7
			c1.3,0,2.2,0.6,2.9,1.7c0.7,1.2,1,2.8,1,5s-0.3,3.9-1,5.1C59.7,244.1,58.8,244.8,57.5,244.8z M57.5,243.9c0.9,0,1.6-0.5,2.2-1.5
			s0.8-2.5,0.8-4.5s-0.3-3.5-0.8-4.5s-1.3-1.5-2.2-1.5s-1.6,0.5-2.2,1.5c-0.5,1-0.8,2.5-0.8,4.5s0.3,3.5,0.8,4.5
			C55.9,243.4,56.6,243.9,57.5,243.9z"/>
		<path class="st4" d="M67.3,244.8c-1.3,0-2.2-0.6-2.9-1.8c-0.7-1.2-1-2.9-1-5.1c0-2.2,0.3-3.9,1-5c0.7-1.2,1.6-1.7,2.9-1.7
			s2.2,0.6,2.9,1.7c0.7,1.2,1,2.8,1,5s-0.3,3.9-1,5.1C69.6,244.1,68.6,244.8,67.3,244.8z M67.3,243.9c0.9,0,1.6-0.5,2.2-1.5
			s0.8-2.5,0.8-4.5s-0.3-3.5-0.8-4.5s-1.3-1.5-2.2-1.5c-0.9,0-1.6,0.5-2.2,1.5c-0.5,1-0.8,2.5-0.8,4.5s0.3,3.5,0.8,4.5
			C65.7,243.4,66.4,243.9,67.3,243.9z"/>
	</g>
	<g>
		<path class="st4" d="M47.7,343.9c-0.6,0-1.2-0.1-1.7-0.3c-0.5-0.2-0.9-0.4-1.3-0.8c-0.4-0.3-0.7-0.7-0.9-1.1s-0.3-0.9-0.3-1.4
			c0-0.4,0.1-0.8,0.2-1.2c0.2-0.4,0.4-0.7,0.6-1c0.3-0.3,0.5-0.6,0.8-0.8c0.3-0.2,0.6-0.4,0.9-0.6v-0.1c-0.2-0.2-0.5-0.3-0.7-0.5
			s-0.4-0.4-0.6-0.7c-0.2-0.3-0.3-0.5-0.4-0.8c-0.1-0.3-0.2-0.6-0.2-1c0-0.5,0.1-0.9,0.3-1.3s0.4-0.7,0.7-1s0.7-0.5,1.1-0.7
			c0.4-0.2,0.9-0.2,1.3-0.2c0.6,0,1.1,0.1,1.5,0.3s0.8,0.4,1.1,0.7s0.5,0.7,0.7,1.1s0.2,0.9,0.2,1.4c0,0.4-0.1,0.7-0.2,1
			c-0.1,0.3-0.3,0.6-0.5,0.9s-0.4,0.5-0.6,0.8c-0.2,0.2-0.4,0.4-0.6,0.6v0.1c0.3,0.2,0.6,0.4,0.8,0.6s0.5,0.4,0.7,0.7
			c0.2,0.3,0.4,0.6,0.5,0.9s0.2,0.7,0.2,1.2s-0.1,0.9-0.3,1.3s-0.5,0.8-0.8,1.1c-0.3,0.3-0.8,0.6-1.3,0.7
			C48.9,343.9,48.3,343.9,47.7,343.9z M47.7,343.3c0.5,0,0.9-0.1,1.3-0.2c0.4-0.1,0.7-0.3,1-0.6c0.3-0.2,0.5-0.5,0.6-0.9
			c0.1-0.3,0.2-0.7,0.2-1c0-0.5-0.1-0.9-0.3-1.3c-0.2-0.3-0.5-0.7-0.9-0.9c-0.4-0.3-0.8-0.5-1.3-0.7s-1-0.4-1.5-0.6
			c-0.7,0.4-1.2,0.9-1.7,1.4c-0.4,0.5-0.7,1.2-0.7,1.9c0,0.4,0.1,0.8,0.2,1.1c0.2,0.3,0.4,0.7,0.7,0.9s0.6,0.5,1,0.6
			C46.8,343.1,47.3,343.3,47.7,343.3z M48.7,336.9c0.6-0.5,1-0.9,1.3-1.4s0.4-1,0.4-1.6c0-0.4-0.1-0.7-0.2-1
			c-0.1-0.3-0.3-0.6-0.5-0.9c-0.2-0.2-0.5-0.4-0.8-0.6s-0.7-0.2-1.1-0.2c-0.4,0-0.7,0.1-1,0.2s-0.6,0.3-0.8,0.5s-0.4,0.5-0.5,0.8
			s-0.2,0.6-0.2,1c0,0.5,0.1,0.9,0.3,1.2c0.2,0.3,0.5,0.6,0.8,0.9s0.7,0.5,1.1,0.7C47.8,336.5,48.3,336.6,48.7,336.9z"/>
		<path class="st4" d="M57.5,343.9c-1.3,0-2.2-0.6-2.9-1.8c-0.7-1.2-1-2.9-1-5.1s0.3-3.9,1-5c0.7-1.2,1.6-1.7,2.9-1.7
			c1.3,0,2.2,0.6,2.9,1.7c0.7,1.2,1,2.8,1,5s-0.3,3.9-1,5.1C59.7,343.4,58.8,343.9,57.5,343.9z M57.5,343.1c0.9,0,1.6-0.5,2.2-1.5
			c0.5-1,0.8-2.5,0.8-4.5s-0.3-3.5-0.8-4.5s-1.3-1.5-2.2-1.5s-1.6,0.5-2.2,1.5c-0.5,1-0.8,2.5-0.8,4.5s0.3,3.5,0.8,4.5
			C55.9,342.6,56.6,343.1,57.5,343.1z"/>
		<path class="st4" d="M67.3,343.9c-1.3,0-2.2-0.6-2.9-1.8c-0.7-1.2-1-2.9-1-5.1s0.3-3.9,1-5c0.7-1.2,1.6-1.7,2.9-1.7
			s2.2,0.6,2.9,1.7c0.7,1.2,1,2.8,1,5s-0.3,3.9-1,5.1C69.6,343.4,68.6,343.9,67.3,343.9z M67.3,343.1c0.9,0,1.6-0.5,2.2-1.5
			c0.5-1,0.8-2.5,0.8-4.5s-0.3-3.5-0.8-4.5s-1.3-1.5-2.2-1.5c-0.9,0-1.6,0.5-2.2,1.5c-0.5,1-0.8,2.5-0.8,4.5s0.3,3.5,0.8,4.5
			C65.7,342.6,66.4,343.1,67.3,343.1z"/>
	</g>
	<g>
		<path class="st4" d="M48.1,377c-1.3,0-2.4-0.5-3.1-1.6c-0.8-1.1-1.2-2.6-1.2-4.6c0-1.4,0.1-2.5,0.4-3.5c0.3-0.9,0.6-1.7,1.1-2.3
			c0.4-0.6,1-1,1.5-1.3c0.6-0.3,1.2-0.4,1.8-0.4s1.1,0.1,1.6,0.3c0.4,0.2,0.8,0.5,1.2,0.9l-0.6,0.6c-0.3-0.4-0.6-0.6-1-0.8
			S49,364,48.6,364c-0.5,0-1,0.1-1.5,0.3c-0.5,0.2-0.9,0.6-1.2,1.1c-0.4,0.5-0.6,1.2-0.9,2c-0.2,0.8-0.3,1.8-0.3,3
			c0.5-0.6,1-1,1.5-1.3c0.6-0.3,1.2-0.5,1.8-0.5c1.2,0,2.1,0.3,2.7,1s1,1.7,1,3c0,0.6-0.1,1.2-0.3,1.7s-0.5,0.9-0.8,1.3
			s-0.7,0.6-1.1,0.9S48.6,377,48.1,377z M48.1,376.3c0.4,0,0.7-0.1,1.1-0.3c0.3-0.2,0.6-0.4,0.8-0.7c0.2-0.3,0.4-0.7,0.6-1.1
			c0.1-0.4,0.2-0.8,0.2-1.3s-0.1-0.9-0.2-1.3c-0.1-0.4-0.3-0.8-0.5-1c-0.2-0.3-0.5-0.5-0.9-0.7s-0.8-0.2-1.3-0.2s-1,0.1-1.5,0.4
			c-0.6,0.3-1.1,0.8-1.6,1.5c0,0.7,0.1,1.3,0.3,1.9s0.4,1.1,0.6,1.5c0.3,0.4,0.6,0.7,1,0.9C47.1,376.1,47.6,376.3,48.1,376.3z"/>
		<path class="st4" d="M57.5,377c-1.3,0-2.2-0.6-2.9-1.8c-0.7-1.2-1-2.9-1-5.1s0.3-3.9,1-5c0.7-1.2,1.6-1.7,2.9-1.7
			c1.3,0,2.2,0.6,2.9,1.7c0.7,1.2,1,2.8,1,5s-0.3,3.9-1,5.1C59.7,376.4,58.8,377,57.5,377z M57.5,376.3c0.9,0,1.6-0.5,2.2-1.5
			c0.5-1,0.8-2.5,0.8-4.5s-0.3-3.5-0.8-4.5s-1.3-1.5-2.2-1.5s-1.6,0.5-2.2,1.5c-0.5,1-0.8,2.5-0.8,4.5s0.3,3.5,0.8,4.5
			C55.9,375.8,56.6,376.3,57.5,376.3z"/>
		<path class="st4" d="M67.3,377c-1.3,0-2.2-0.6-2.9-1.8c-0.7-1.2-1-2.9-1-5.1s0.3-3.9,1-5c0.7-1.2,1.6-1.7,2.9-1.7s2.2,0.6,2.9,1.7
			c0.7,1.2,1,2.8,1,5s-0.3,3.9-1,5.1C69.6,376.4,68.6,377,67.3,377z M67.3,376.3c0.9,0,1.6-0.5,2.2-1.5c0.5-1,0.8-2.5,0.8-4.5
			s-0.3-3.5-0.8-4.5s-1.3-1.5-2.2-1.5c-0.9,0-1.6,0.5-2.2,1.5c-0.5,1-0.8,2.5-0.8,4.5s0.3,3.5,0.8,4.5
			C65.7,375.8,66.4,376.3,67.3,376.3z"/>
	</g>
	<g>
		<path class="st4" d="M49.1,409.9V406h-6v-0.5l6.1-8.7H50v8.4h2v0.8h-2v3.9L49.1,409.9L49.1,409.9z M44.2,405.3h4.9v-4.8
			c0-0.3,0-0.7,0-1.1s0-0.8,0.1-1.1h-0.1c-0.2,0.3-0.3,0.5-0.5,0.8s-0.4,0.5-0.6,0.8L44.2,405.3z"/>
		<path class="st4" d="M57.5,410.1c-1.3,0-2.2-0.6-2.9-1.8c-0.7-1.2-1-2.9-1-5.1s0.3-3.9,1-5c0.7-1.2,1.6-1.7,2.9-1.7
			c1.3,0,2.2,0.6,2.9,1.7c0.7,1.2,1,2.8,1,5s-0.3,3.9-1,5.1C59.7,409.5,58.8,410.1,57.5,410.1z M57.5,409.4c0.9,0,1.6-0.5,2.2-1.5
			c0.5-1,0.8-2.5,0.8-4.5s-0.3-3.5-0.8-4.5s-1.3-1.5-2.2-1.5s-1.6,0.5-2.2,1.5c-0.5,1-0.8,2.5-0.8,4.5s0.3,3.5,0.8,4.5
			C55.9,408.9,56.6,409.4,57.5,409.4z"/>
		<path class="st4" d="M67.3,410.1c-1.3,0-2.2-0.6-2.9-1.8c-0.7-1.2-1-2.9-1-5.1s0.3-3.9,1-5c0.7-1.2,1.6-1.7,2.9-1.7
			s2.2,0.6,2.9,1.7c0.7,1.2,1,2.8,1,5s-0.3,3.9-1,5.1C69.6,409.5,68.6,410.1,67.3,410.1z M67.3,409.4c0.9,0,1.6-0.5,2.2-1.5
			c0.5-1,0.8-2.5,0.8-4.5s-0.3-3.5-0.8-4.5s-1.3-1.5-2.2-1.5c-0.9,0-1.6,0.5-2.2,1.5c-0.5,1-0.8,2.5-0.8,4.5s0.3,3.5,0.8,4.5
			C65.7,408.9,66.4,409.4,67.3,409.4z"/>
	</g>
	<g>
		<path class="st4" d="M43.6,443v-0.6c1.1-1.1,2-2.1,2.8-2.9c0.8-0.9,1.5-1.7,2-2.4c0.5-0.7,0.9-1.4,1.2-2s0.4-1.2,0.4-1.8
			c0-0.8-0.2-1.5-0.7-2.1s-1.2-0.8-2.2-0.8c-0.6,0-1.2,0.2-1.7,0.5s-1,0.7-1.4,1.2l-0.6-0.6c0.5-0.5,1-1,1.6-1.4s1.3-0.6,2.1-0.6
			c1.2,0,2.1,0.3,2.7,1c0.6,0.7,1,1.6,1,2.7c0,0.7-0.1,1.3-0.4,2s-0.7,1.3-1.2,2.1c-0.5,0.7-1.2,1.5-1.9,2.3s-1.6,1.7-2.5,2.7
			c0.4,0,0.7-0.1,1.1-0.1c0.4,0,0.7,0,1.1,0h4.6v0.8L43.6,443L43.6,443z"/>
		<path class="st4" d="M57.5,443.3c-1.3,0-2.2-0.6-2.9-1.8c-0.7-1.2-1-2.9-1-5.1s0.3-3.9,1-5c0.7-1.2,1.6-1.7,2.9-1.7
			c1.3,0,2.2,0.6,2.9,1.7c0.7,1.2,1,2.8,1,5s-0.3,3.9-1,5.1C59.7,442.6,58.8,443.3,57.5,443.3z M57.5,442.4c0.9,0,1.6-0.5,2.2-1.5
			c0.5-1,0.8-2.5,0.8-4.5s-0.3-3.5-0.8-4.5s-1.3-1.5-2.2-1.5s-1.6,0.5-2.2,1.5c-0.5,1-0.8,2.5-0.8,4.5s0.3,3.5,0.8,4.5
			C55.9,441.9,56.6,442.4,57.5,442.4z"/>
		<path class="st4" d="M67.3,443.3c-1.3,0-2.2-0.6-2.9-1.8c-0.7-1.2-1-2.9-1-5.1s0.3-3.9,1-5c0.7-1.2,1.6-1.7,2.9-1.7
			s2.2,0.6,2.9,1.7c0.7,1.2,1,2.8,1,5s-0.3,3.9-1,5.1C69.6,442.6,68.6,443.3,67.3,443.3z M67.3,442.4c0.9,0,1.6-0.5,2.2-1.5
			c0.5-1,0.8-2.5,0.8-4.5s-0.3-3.5-0.8-4.5s-1.3-1.5-2.2-1.5c-0.9,0-1.6,0.5-2.2,1.5c-0.5,1-0.8,2.5-0.8,4.5s0.3,3.5,0.8,4.5
			C65.7,441.9,66.4,442.4,67.3,442.4z"/>
	</g>
	<g>
		<path class="st4" d="M67.3,476.4c-1.3,0-2.2-0.6-2.9-1.8c-0.7-1.2-1-2.9-1-5.1s0.3-3.9,1-5c0.7-1.2,1.6-1.7,2.9-1.7
			s2.2,0.6,2.9,1.7c0.7,1.2,1,2.8,1,5s-0.3,3.9-1,5.1C69.6,475.8,68.6,476.4,67.3,476.4z M67.3,475.5c0.9,0,1.6-0.5,2.2-1.5
			c0.5-1,0.8-2.5,0.8-4.5S70,466,69.5,465s-1.3-1.5-2.2-1.5c-0.9,0-1.6,0.5-2.2,1.5c-0.5,1-0.8,2.5-0.8,4.5s0.3,3.5,0.8,4.5
			C65.7,475,66.4,475.5,67.3,475.5z"/>
	</g>
	<g>
		<path class="st5" d="M96.4,504.6c-1.5,0-2.7-0.7-3.5-2.1s-1.2-3.5-1.2-6.1s0.4-4.6,1.2-6c0.8-1.4,2-2.1,3.5-2.1s2.7,0.7,3.5,2.1
			s1.2,3.4,1.2,6s-0.4,4.7-1.2,6.1C99.1,503.9,97.9,504.6,96.4,504.6z M96.4,503.8c1.1,0,2-0.6,2.6-1.8c0.6-1.2,1-3,1-5.5
			s-0.3-4.2-1-5.4c-0.6-1.2-1.5-1.8-2.6-1.8s-2,0.6-2.6,1.8c-0.7,1.2-1,3-1,5.4s0.3,4.2,1,5.5C94.4,503.1,95.3,503.8,96.4,503.8z"/>
	</g>
	<g>
		<path class="st5" d="M243.8,504.4v-0.7c1.3-1.3,2.4-2.5,3.4-3.5s1.8-2,2.4-2.9c0.6-0.9,1.1-1.7,1.5-2.4c0.3-0.7,0.5-1.4,0.5-2.1
			c0-1-0.3-1.8-0.8-2.5c-0.6-0.7-1.4-1-2.6-1c-0.7,0-1.4,0.2-2,0.6s-1.2,0.9-1.7,1.5l-0.7-0.7c0.6-0.7,1.2-1.2,2-1.7
			c0.7-0.4,1.6-0.7,2.5-0.7c1.4,0,2.5,0.4,3.3,1.2c0.8,0.8,1.2,1.9,1.2,3.2c0,0.8-0.2,1.6-0.5,2.4s-0.8,1.6-1.5,2.5
			c-0.6,0.9-1.4,1.8-2.3,2.8s-1.9,2-3,3.2c0.4,0,0.9-0.1,1.3-0.1c0.5,0,0.9,0,1.3,0h5.4v1L243.8,504.4L243.8,504.4z"/>
		<path class="st5" d="M256.1,508.3l-0.3-0.7c0.6-0.3,1-0.7,1.4-1.2c0.3-0.5,0.5-1.1,0.5-1.8c-0.1,0-0.2,0-0.3,0
			c-0.3,0-0.5-0.1-0.7-0.3c-0.2-0.2-0.3-0.4-0.3-0.8c0-0.3,0.1-0.6,0.3-0.8c0.2-0.2,0.5-0.3,0.7-0.3c0.4,0,0.7,0.2,0.9,0.5
			s0.3,0.7,0.3,1.3c0,0.9-0.2,1.7-0.7,2.4S256.9,507.9,256.1,508.3z"/>
		<path class="st5" d="M265.9,504.6c-1.5,0-2.7-0.7-3.5-2.1s-1.2-3.5-1.2-6.1s0.4-4.6,1.2-6c0.8-1.4,2-2.1,3.5-2.1s2.7,0.7,3.5,2.1
			s1.2,3.4,1.2,6s-0.4,4.7-1.2,6.1C268.6,503.9,267.4,504.6,265.9,504.6z M265.9,503.8c1.1,0,2-0.6,2.6-1.8c0.6-1.2,1-3,1-5.5
			s-0.3-4.2-1-5.4c-0.6-1.2-1.5-1.8-2.6-1.8s-2,0.6-2.6,1.8c-0.7,1.2-1,3-1,5.4s0.3,4.2,1,5.5C263.9,503.1,264.8,503.8,265.9,503.8z
			"/>
		<path class="st5" d="M277.7,504.6c-1.5,0-2.7-0.7-3.5-2.1s-1.2-3.5-1.2-6.1s0.4-4.6,1.2-6c0.8-1.4,2-2.1,3.5-2.1s2.7,0.7,3.5,2.1
			s1.2,3.4,1.2,6s-0.4,4.7-1.2,6.1S279.2,504.6,277.7,504.6z M277.7,503.8c1.1,0,2-0.6,2.6-1.8c0.6-1.2,1-3,1-5.5s-0.3-4.2-1-5.4
			c-0.6-1.2-1.5-1.8-2.6-1.8s-2,0.6-2.6,1.8c-0.7,1.2-1,3-1,5.4s0.3,4.2,1,5.5C275.7,503.1,276.6,503.8,277.7,503.8z"/>
		<path class="st5" d="M289.5,504.6c-1.5,0-2.7-0.7-3.5-2.1s-1.2-3.5-1.2-6.1s0.4-4.6,1.2-6c0.8-1.4,2-2.1,3.5-2.1s2.7,0.7,3.5,2.1
			s1.2,3.4,1.2,6s-0.4,4.7-1.2,6.1C292.2,503.9,291,504.6,289.5,504.6z M289.5,503.8c1.1,0,2-0.6,2.6-1.8c0.6-1.2,1-3,1-5.5
			s-0.3-4.2-1-5.4c-0.6-1.2-1.5-1.8-2.6-1.8s-2,0.6-2.6,1.8c-0.7,1.2-1,3-1,5.4s0.3,4.2,1,5.5C287.5,503.1,288.4,503.8,289.5,503.8z
			"/>
	</g>
	<g>
		<path class="st5" d="M423.1,504.4v-4.7h-7.2V499l7.3-10.4h1v10.1h2.3v0.9h-2.3v4.7L423.1,504.4L423.1,504.4z M417.2,498.8h5.9V493
			c0-0.4,0-0.8,0-1.4c0-0.5,0-1,0.1-1.4h-0.1c-0.2,0.3-0.4,0.6-0.6,1c-0.2,0.3-0.4,0.6-0.7,1L417.2,498.8z"/>
		<path class="st5" d="M428.8,508.3l-0.3-0.7c0.6-0.3,1-0.7,1.4-1.2c0.3-0.5,0.5-1.1,0.5-1.8c-0.1,0-0.2,0-0.3,0
			c-0.3,0-0.5-0.1-0.7-0.3c-0.2-0.2-0.3-0.4-0.3-0.8c0-0.3,0.1-0.6,0.3-0.8c0.2-0.2,0.5-0.3,0.7-0.3c0.4,0,0.7,0.2,0.9,0.5
			s0.3,0.7,0.3,1.3c0,0.9-0.2,1.7-0.7,2.4S429.5,507.9,428.8,508.3z"/>
		<path class="st5" d="M438.6,504.6c-1.5,0-2.7-0.7-3.5-2.1s-1.2-3.5-1.2-6.1s0.4-4.6,1.2-6c0.8-1.4,2-2.1,3.5-2.1s2.7,0.7,3.5,2.1
			s1.2,3.4,1.2,6s-0.4,4.7-1.2,6.1C441.2,503.9,440.1,504.6,438.6,504.6z M438.6,503.8c1.1,0,2-0.6,2.6-1.8c0.6-1.2,1-3,1-5.5
			s-0.3-4.2-1-5.4c-0.6-1.2-1.5-1.8-2.6-1.8s-2,0.6-2.6,1.8c-0.7,1.2-1,3-1,5.4s0.3,4.2,1,5.5C436.6,503.1,437.5,503.8,438.6,503.8z
			"/>
		<path class="st5" d="M450.4,504.6c-1.5,0-2.7-0.7-3.5-2.1s-1.2-3.5-1.2-6.1s0.4-4.6,1.2-6c0.8-1.4,2-2.1,3.5-2.1s2.7,0.7,3.5,2.1
			s1.2,3.4,1.2,6s-0.4,4.7-1.2,6.1C453,503.9,451.9,504.6,450.4,504.6z M450.4,503.8c1.1,0,2-0.6,2.6-1.8c0.6-1.2,1-3,1-5.5
			s-0.3-4.2-1-5.4c-0.6-1.2-1.5-1.8-2.6-1.8s-2,0.6-2.6,1.8c-0.7,1.2-1,3-1,5.4s0.3,4.2,1,5.5C448.4,503.1,449.3,503.8,450.4,503.8z
			"/>
		<path class="st5" d="M462.2,504.6c-1.5,0-2.7-0.7-3.5-2.1s-1.2-3.5-1.2-6.1s0.4-4.6,1.2-6c0.8-1.4,2-2.1,3.5-2.1s2.7,0.7,3.5,2.1
			s1.2,3.4,1.2,6s-0.4,4.7-1.2,6.1S463.7,504.6,462.2,504.6z M462.2,503.8c1.1,0,2-0.6,2.6-1.8c0.6-1.2,1-3,1-5.5s-0.3-4.2-1-5.4
			c-0.6-1.2-1.5-1.8-2.6-1.8s-2,0.6-2.6,1.8c-0.7,1.2-1,3-1,5.4s0.3,4.2,1,5.5C460.2,503.1,461.1,503.8,462.2,503.8z"/>
	</g>
	<g>
		<path class="st5" d="M766.8,504.6c-0.7,0-1.4-0.1-2-0.3c-0.6-0.2-1.1-0.5-1.6-0.9c-0.4-0.4-0.8-0.8-1-1.4
			c-0.3-0.5-0.4-1.1-0.4-1.7c0-0.5,0.1-1,0.3-1.5s0.4-0.9,0.7-1.2c0.3-0.4,0.6-0.7,1-1s0.7-0.5,1.1-0.7v-0.1
			c-0.3-0.2-0.6-0.4-0.9-0.7s-0.5-0.5-0.7-0.8s-0.4-0.6-0.5-1s-0.2-0.7-0.2-1.2c0-0.6,0.1-1.1,0.3-1.6s0.5-0.9,0.9-1.2
			s0.8-0.6,1.3-0.8c0.5-0.2,1-0.3,1.6-0.3c0.7,0,1.3,0.1,1.8,0.3c0.5,0.2,1,0.5,1.3,0.9c0.4,0.4,0.6,0.8,0.8,1.3s0.3,1,0.3,1.6
			c0,0.4-0.1,0.8-0.2,1.2c-0.1,0.4-0.3,0.8-0.6,1.1c-0.2,0.3-0.5,0.7-0.7,0.9s-0.5,0.5-0.7,0.7v0.1c0.3,0.2,0.7,0.4,1,0.7
			c0.3,0.2,0.6,0.5,0.9,0.8c0.3,0.3,0.5,0.7,0.6,1.1s0.2,0.9,0.2,1.4c0,0.6-0.1,1.1-0.3,1.6s-0.6,0.9-1,1.3s-0.9,0.7-1.5,0.9
			C768.2,504.5,767.5,504.6,766.8,504.6z M766.8,503.8c0.6,0,1.1-0.1,1.5-0.2c0.5-0.2,0.8-0.4,1.2-0.7s0.6-0.6,0.7-1
			c0.2-0.4,0.3-0.8,0.3-1.3c0-0.6-0.1-1.1-0.4-1.5c-0.3-0.4-0.6-0.8-1.1-1.1s-1-0.6-1.5-0.8c-0.6-0.2-1.2-0.5-1.8-0.7
			c-0.8,0.5-1.5,1-2,1.7c-0.5,0.6-0.8,1.4-0.8,2.3c0,0.5,0.1,0.9,0.3,1.4s0.5,0.8,0.8,1.1c0.3,0.3,0.8,0.6,1.2,0.7
			C765.7,503.6,766.3,503.8,766.8,503.8z M768,496.1c0.7-0.5,1.2-1.1,1.5-1.7s0.5-1.2,0.5-1.9c0-0.4-0.1-0.9-0.2-1.2
			c-0.1-0.4-0.4-0.7-0.6-1c-0.3-0.3-0.6-0.5-1-0.7s-0.9-0.3-1.4-0.3c-0.4,0-0.9,0.1-1.2,0.2c-0.4,0.1-0.7,0.3-1,0.6
			s-0.5,0.6-0.6,0.9c-0.1,0.4-0.2,0.8-0.2,1.2c0,0.6,0.1,1,0.4,1.4c0.2,0.4,0.6,0.8,0.9,1.1c0.4,0.3,0.8,0.6,1.3,0.8
			C767,495.8,767.5,495.9,768,496.1z"/>
		<path class="st5" d="M774.2,508.3l-0.3-0.7c0.6-0.3,1-0.7,1.4-1.2c0.3-0.5,0.5-1.1,0.5-1.8c-0.1,0-0.2,0-0.3,0
			c-0.3,0-0.5-0.1-0.7-0.3s-0.3-0.4-0.3-0.8c0-0.3,0.1-0.6,0.3-0.8c0.2-0.2,0.5-0.3,0.7-0.3c0.4,0,0.7,0.2,0.9,0.5s0.3,0.7,0.3,1.3
			c0,0.9-0.2,1.7-0.7,2.4S774.9,507.9,774.2,508.3z"/>
		<path class="st5" d="M783.9,504.6c-1.5,0-2.7-0.7-3.5-2.1s-1.2-3.5-1.2-6.1s0.4-4.6,1.2-6s2-2.1,3.5-2.1s2.7,0.7,3.5,2.1
			s1.2,3.4,1.2,6s-0.4,4.7-1.2,6.1S785.4,504.6,783.9,504.6z M783.9,503.8c1.1,0,2-0.6,2.6-1.8s1-3,1-5.5s-0.3-4.2-1-5.4
			s-1.5-1.8-2.6-1.8s-2,0.6-2.6,1.8s-1,3-1,5.4s0.3,4.2,1,5.5S782.9,503.8,783.9,503.8z"/>
		<path class="st5" d="M795.7,504.6c-1.5,0-2.7-0.7-3.5-2.1s-1.2-3.5-1.2-6.1s0.4-4.6,1.2-6s2-2.1,3.5-2.1s2.7,0.7,3.5,2.1
			s1.2,3.4,1.2,6s-0.4,4.7-1.2,6.1S797.3,504.6,795.7,504.6z M795.7,503.8c1.1,0,2-0.6,2.6-1.8s1-3,1-5.5s-0.3-4.2-1-5.4
			s-1.5-1.8-2.6-1.8s-2,0.6-2.6,1.8s-1,3-1,5.4s0.3,4.2,1,5.5S794.7,503.8,795.7,503.8z"/>
		<path class="st5" d="M807.5,504.6c-1.5,0-2.7-0.7-3.5-2.1s-1.2-3.5-1.2-6.1s0.4-4.6,1.2-6s2-2.1,3.5-2.1s2.7,0.7,3.5,2.1
			s1.2,3.4,1.2,6s-0.4,4.7-1.2,6.1S809.1,504.6,807.5,504.6z M807.5,503.8c1.1,0,2-0.6,2.6-1.8s1-3,1-5.5s-0.3-4.2-1-5.4
			s-1.5-1.8-2.6-1.8s-2,0.6-2.6,1.8s-1,3-1,5.4s0.3,4.2,1,5.5S806.5,503.8,807.5,503.8z"/>
	</g>
	<g>
		<path class="st5" d="M594.6,504.6c-1.6,0-2.9-0.6-3.8-1.9c-0.9-1.3-1.4-3.1-1.4-5.5c0-1.6,0.2-3,0.5-4.2c0.3-1.1,0.7-2.1,1.3-2.8
			c0.5-0.7,1.1-1.2,1.8-1.5s1.4-0.5,2.2-0.5c0.7,0,1.4,0.1,1.9,0.4s1,0.6,1.4,1.1l-0.7,0.7c-0.3-0.4-0.7-0.8-1.2-1s-0.9-0.3-1.5-0.3
			s-1.2,0.1-1.8,0.4s-1.1,0.7-1.5,1.3c-0.4,0.6-0.8,1.4-1,2.4c-0.3,1-0.4,2.2-0.4,3.6c0.5-0.7,1.2-1.2,1.8-1.6
			c0.7-0.4,1.4-0.6,2.1-0.6c1.4,0,2.5,0.4,3.2,1.2c0.8,0.8,1.1,2,1.1,3.6c0,0.7-0.1,1.4-0.3,2s-0.5,1.1-0.9,1.6s-0.9,0.8-1.4,1
			C595.7,504.5,595.2,504.6,594.6,504.6z M594.6,503.8c0.5,0,0.9-0.1,1.3-0.3c0.4-0.2,0.7-0.5,1-0.8s0.5-0.8,0.7-1.3s0.2-1,0.2-1.6
			s-0.1-1.1-0.2-1.6c-0.1-0.5-0.3-0.9-0.6-1.3s-0.6-0.6-1.1-0.8c-0.4-0.2-0.9-0.3-1.5-0.3s-1.2,0.2-1.8,0.5c-0.7,0.4-1.3,1-2,1.8
			c0,0.8,0.2,1.6,0.4,2.3s0.4,1.3,0.8,1.8c0.3,0.5,0.7,0.9,1.2,1.1C593.4,503.6,594,503.8,594.6,503.8z"/>
		<path class="st5" d="M601.5,508.3l-0.3-0.7c0.6-0.3,1-0.7,1.4-1.2c0.3-0.5,0.5-1.1,0.5-1.8c-0.1,0-0.2,0-0.3,0
			c-0.3,0-0.5-0.1-0.7-0.3s-0.3-0.4-0.3-0.8c0-0.3,0.1-0.6,0.3-0.8c0.2-0.2,0.5-0.3,0.7-0.3c0.4,0,0.7,0.2,0.9,0.5s0.3,0.7,0.3,1.3
			c0,0.9-0.2,1.7-0.7,2.4S602.2,507.9,601.5,508.3z"/>
		<path class="st5" d="M611.3,504.6c-1.5,0-2.7-0.7-3.5-2.1s-1.2-3.5-1.2-6.1s0.4-4.6,1.2-6s2-2.1,3.5-2.1s2.7,0.7,3.5,2.1
			s1.2,3.4,1.2,6s-0.4,4.7-1.2,6.1C613.9,503.9,612.8,504.6,611.3,504.6z M611.3,503.8c1.1,0,2-0.6,2.6-1.8s1-3,1-5.5
			s-0.3-4.2-1-5.4s-1.5-1.8-2.6-1.8s-2,0.6-2.6,1.8s-1,3-1,5.4s0.3,4.2,1,5.5S610.2,503.8,611.3,503.8z"/>
		<path class="st5" d="M623.1,504.6c-1.5,0-2.7-0.7-3.5-2.1s-1.2-3.5-1.2-6.1s0.4-4.6,1.2-6s2-2.1,3.5-2.1s2.7,0.7,3.5,2.1
			s1.2,3.4,1.2,6s-0.4,4.7-1.2,6.1C625.7,503.9,624.6,504.6,623.1,504.6z M623.1,503.8c1.1,0,2-0.6,2.6-1.8s1-3,1-5.5
			s-0.3-4.2-1-5.4s-1.5-1.8-2.6-1.8s-2,0.6-2.6,1.8s-1,3-1,5.4s0.3,4.2,1,5.5S622,503.8,623.1,503.8z"/>
		<path class="st5" d="M634.9,504.6c-1.5,0-2.7-0.7-3.5-2.1s-1.2-3.5-1.2-6.1s0.4-4.6,1.2-6s2-2.1,3.5-2.1s2.7,0.7,3.5,2.1
			s1.2,3.4,1.2,6s-0.4,4.7-1.2,6.1C637.5,503.9,636.4,504.6,634.9,504.6z M634.9,503.8c1.1,0,2-0.6,2.6-1.8s1-3,1-5.5
			s-0.3-4.2-1-5.4s-1.5-1.8-2.6-1.8s-2,0.6-2.6,1.8s-1,3-1,5.4s0.3,4.2,1,5.5S633.8,503.8,634.9,503.8z"/>
	</g>
	<g>
		<path class="st5" d="M929.7,504.4v-1h3.7v-13.1h-2.8v-0.7c0.6-0.1,1.2-0.3,1.7-0.4c0.5-0.2,0.9-0.4,1.3-0.6h0.9v14.8h3.4v1
			L929.7,504.4L929.7,504.4z"/>
		<path class="st5" d="M945.3,504.6c-1.5,0-2.7-0.7-3.5-2.1s-1.2-3.5-1.2-6.1s0.4-4.6,1.2-6s2-2.1,3.5-2.1s2.7,0.7,3.5,2.1
			s1.2,3.4,1.2,6s-0.4,4.7-1.2,6.1S946.8,504.6,945.3,504.6z M945.3,503.8c1.1,0,2-0.6,2.6-1.8s1-3,1-5.5s-0.3-4.2-1-5.4
			s-1.5-1.8-2.6-1.8s-2,0.6-2.6,1.8s-1,3-1,5.4s0.3,4.2,1,5.5S944.2,503.8,945.3,503.8z"/>
		<path class="st5" d="M952.8,508.3l-0.3-0.7c0.6-0.3,1-0.7,1.4-1.2c0.3-0.5,0.5-1.1,0.5-1.8c-0.1,0-0.2,0-0.3,0
			c-0.3,0-0.5-0.1-0.7-0.3s-0.3-0.4-0.3-0.8c0-0.3,0.1-0.6,0.3-0.8c0.2-0.2,0.5-0.3,0.7-0.3c0.4,0,0.7,0.2,0.9,0.5s0.3,0.7,0.3,1.3
			c0,0.9-0.2,1.7-0.7,2.4S953.5,507.9,952.8,508.3z"/>
		<path class="st5" d="M962.5,504.6c-1.5,0-2.7-0.7-3.5-2.1s-1.2-3.5-1.2-6.1s0.4-4.6,1.2-6s2-2.1,3.5-2.1s2.7,0.7,3.5,2.1
			s1.2,3.4,1.2,6s-0.4,4.7-1.2,6.1S964,504.6,962.5,504.6z M962.5,503.8c1.1,0,2-0.6,2.6-1.8s1-3,1-5.5s-0.3-4.2-1-5.4
			s-1.5-1.8-2.6-1.8s-2,0.6-2.6,1.8s-1,3-1,5.4s0.3,4.2,1,5.5S961.4,503.8,962.5,503.8z"/>
		<path class="st5" d="M974.3,504.6c-1.5,0-2.7-0.7-3.5-2.1s-1.2-3.5-1.2-6.1s0.4-4.6,1.2-6s2-2.1,3.5-2.1s2.7,0.7,3.5,2.1
			s1.2,3.4,1.2,6s-0.4,4.7-1.2,6.1S975.8,504.6,974.3,504.6z M974.3,503.8c1.1,0,2-0.6,2.6-1.8s1-3,1-5.5s-0.3-4.2-1-5.4
			s-1.5-1.8-2.6-1.8s-2,0.6-2.6,1.8s-1,3-1,5.4s0.3,4.2,1,5.5S973.2,503.8,974.3,503.8z"/>
		<path class="st5" d="M986.1,504.6c-1.5,0-2.7-0.7-3.5-2.1s-1.2-3.5-1.2-6.1s0.4-4.6,1.2-6s2-2.1,3.5-2.1s2.7,0.7,3.5,2.1
			s1.2,3.4,1.2,6s-0.4,4.7-1.2,6.1S987.6,504.6,986.1,504.6z M986.1,503.8c1.1,0,2-0.6,2.6-1.8s1-3,1-5.5s-0.3-4.2-1-5.4
			s-1.5-1.8-2.6-1.8s-2,0.6-2.6,1.8s-1,3-1,5.4s0.3,4.2,1,5.5S985,503.8,986.1,503.8z"/>
	</g>
	<g>
		<path class="st4" d="M414.8,553.5c-0.8,0-1.6-0.2-2.3-0.5c-0.7-0.3-1.3-0.8-1.8-1.4c-0.5-0.6-0.9-1.3-1.2-2.2
			c-0.3-0.9-0.4-1.8-0.4-2.9c0-1.1,0.1-2,0.4-2.9s0.7-1.6,1.2-2.2c0.5-0.6,1.1-1.1,1.8-1.4c0.7-0.3,1.5-0.5,2.4-0.5
			c0.8,0,1.5,0.2,2.1,0.5s1.1,0.7,1.4,1.1l-0.6,0.6c-0.4-0.4-0.8-0.8-1.3-1c-0.5-0.3-1-0.4-1.7-0.4s-1.4,0.1-2,0.4
			c-0.6,0.3-1.1,0.7-1.5,1.2s-0.7,1.2-1,1.9c-0.2,0.8-0.3,1.6-0.3,2.5s0.1,1.8,0.3,2.6c0.2,0.8,0.5,1.4,0.9,1.9s0.9,0.9,1.5,1.2
			s1.2,0.4,2,0.4c0.7,0,1.3-0.1,1.9-0.4c0.5-0.3,1.1-0.7,1.6-1.2l0.6,0.6c-0.5,0.6-1.1,1.1-1.7,1.4
			C416.4,553.3,415.7,553.5,414.8,553.5z"/>
		<path class="st4" d="M424.1,553.5c-1,0-1.8-0.3-2.3-0.9s-0.7-1.6-0.7-2.9v-6.3h0.9v6.2c0,1.1,0.2,1.8,0.5,2.3s0.9,0.7,1.7,0.7
			c0.6,0,1.1-0.2,1.6-0.5s1-0.8,1.6-1.5v-7.3h0.9v9.9h-0.7l-0.1-1.6l0,0c-0.5,0.6-1,1-1.5,1.4C425.4,553.3,424.8,553.5,424.1,553.5z
			"/>
		<path class="st4" d="M432.2,553.3v-9.9h0.8l0.1,1.5h0.1c0.4-0.5,0.9-0.9,1.5-1.3c0.5-0.3,1.1-0.5,1.6-0.5c0.8,0,1.4,0.2,1.8,0.5
			c0.4,0.4,0.7,0.9,0.9,1.5c0.6-0.6,1.1-1.1,1.7-1.5c0.5-0.4,1.1-0.5,1.7-0.5c2,0,3,1.3,3,3.8v6.3h-0.9V547c0-1.1-0.2-1.8-0.5-2.3
			s-0.9-0.8-1.7-0.8c-0.9,0-1.9,0.6-3,1.8v7.4h-0.9v-6.2c0-1.1-0.2-1.8-0.5-2.3s-0.9-0.8-1.7-0.8c-0.9,0-1.9,0.6-3,1.8v7.4h-1V553.3
			z"/>
		<path class="st4" d="M451.7,553.5c-1,0-1.8-0.3-2.3-0.9s-0.7-1.6-0.7-2.9v-6.3h0.9v6.2c0,1.1,0.2,1.8,0.5,2.3s0.9,0.7,1.7,0.7
			c0.6,0,1.1-0.2,1.6-0.5s1-0.8,1.6-1.5v-7.3h0.9v9.9h-0.8l-0.1-1.6l0,0c-0.5,0.6-1,1-1.5,1.4C453,553.3,452.4,553.5,451.7,553.5z"
			/>
		<path class="st4" d="M460.9,553.5c-0.8,0-1.2-0.5-1.2-1.6v-13.5h0.9V552c0,0.2,0,0.4,0.1,0.5s0.2,0.2,0.3,0.2h0.1c0,0,0.1,0,0.2,0
			l0.2,0.7c-0.1,0-0.2,0.1-0.3,0.1S461.1,553.5,460.9,553.5z"/>
		<path class="st4" d="M466.7,553.5c-0.4,0-0.8-0.1-1.1-0.2c-0.3-0.1-0.6-0.3-0.9-0.5s-0.5-0.5-0.6-0.8c-0.2-0.3-0.2-0.7-0.2-1.2
			c0-1.1,0.5-1.9,1.5-2.5s2.6-1,4.8-1.2c0-0.4,0-0.7-0.1-1.1c-0.1-0.4-0.2-0.7-0.3-1c-0.2-0.3-0.4-0.5-0.7-0.7s-0.7-0.3-1.2-0.3
			c-0.7,0-1.3,0.1-1.8,0.4c-0.5,0.3-1,0.5-1.3,0.8l-0.4-0.7c0.2-0.1,0.4-0.3,0.6-0.4c0.3-0.2,0.5-0.3,0.9-0.4c0.3-0.1,0.7-0.2,1-0.3
			c0.4-0.1,0.8-0.1,1.2-0.1c0.6,0,1.1,0.1,1.5,0.3s0.7,0.5,1,0.8c0.2,0.3,0.4,0.7,0.5,1.2s0.2,1,0.2,1.5v6.3h-0.8l-0.1-1.3h-0.1
			c-0.5,0.4-1.1,0.8-1.6,1.1C468,553.4,467.4,553.5,466.7,553.5z M466.9,552.7c0.6,0,1.1-0.1,1.6-0.4c0.5-0.3,1.1-0.7,1.7-1.2v-3.3
			c-1,0.1-1.9,0.3-2.6,0.5s-1.3,0.4-1.7,0.6c-0.4,0.2-0.7,0.5-0.9,0.8c-0.2,0.3-0.3,0.7-0.3,1c0,0.4,0.1,0.7,0.2,0.9
			s0.3,0.4,0.5,0.6c0.2,0.2,0.4,0.3,0.7,0.3S466.6,552.7,466.9,552.7z"/>
		<path class="st4" d="M477.1,553.5c-0.5,0-0.9-0.1-1.2-0.2c-0.3-0.1-0.6-0.3-0.8-0.6c-0.2-0.3-0.3-0.6-0.4-0.9
			c-0.1-0.4-0.1-0.8-0.1-1.2v-6.4h-1.5v-0.7l1.6-0.1l0.1-2.9h0.8v2.9h2.9v0.8h-2.9v6.4c0,0.3,0,0.6,0.1,0.9s0.1,0.5,0.3,0.7
			s0.3,0.3,0.5,0.4c0.2,0.1,0.5,0.2,0.8,0.2c0.2,0,0.4,0,0.6-0.1s0.4-0.1,0.6-0.2l0.2,0.7c-0.3,0.1-0.6,0.2-0.9,0.3
			S477.3,553.5,477.1,553.5z"/>
		<path class="st4" d="M481.3,541c-0.2,0-0.4-0.1-0.6-0.2c-0.2-0.2-0.2-0.3-0.2-0.6s0.1-0.5,0.2-0.6s0.4-0.2,0.6-0.2
			s0.4,0.1,0.6,0.2c0.2,0.1,0.2,0.3,0.2,0.6c0,0.2-0.1,0.4-0.2,0.6C481.8,540.9,481.6,541,481.3,541z M480.9,553.3v-9.9h0.9v9.9
			H480.9z"/>
		<path class="st4" d="M487.6,553.3l-3.7-9.9h1l2.2,6.2c0.2,0.5,0.3,1,0.5,1.4c0.2,0.5,0.3,0.9,0.5,1.4h0.1c0.2-0.5,0.3-0.9,0.5-1.4
			s0.3-1,0.5-1.4l2.2-6.2h0.9l-3.7,9.9H487.6z"/>
		<path class="st4" d="M498.2,553.5c-0.6,0-1.2-0.1-1.8-0.3c-0.6-0.2-1-0.6-1.4-1s-0.7-1-1-1.6s-0.4-1.4-0.4-2.2s0.1-1.5,0.4-2.2
			c0.2-0.6,0.6-1.2,1-1.6c0.4-0.4,0.9-0.8,1.4-1s1-0.4,1.6-0.4c1.2,0,2.1,0.4,2.8,1.2s1,1.9,1,3.4c0,0.1,0,0.2,0,0.4s0,0.2,0,0.4
			h-7.2c0,0.6,0.1,1.2,0.3,1.7c0.2,0.5,0.4,1,0.7,1.4s0.7,0.7,1.2,0.9s1,0.3,1.5,0.3s1-0.1,1.4-0.2c0.4-0.2,0.8-0.4,1.2-0.6l0.4,0.7
			c-0.4,0.2-0.8,0.5-1.3,0.7C499.5,553.4,498.9,553.5,498.2,553.5z M494.6,547.7h6.3c0-1.3-0.3-2.2-0.8-2.8s-1.2-0.9-2.1-0.9
			c-0.4,0-0.8,0.1-1.2,0.3s-0.7,0.4-1,0.8c-0.3,0.3-0.6,0.7-0.8,1.2C494.8,546.6,494.6,547.1,494.6,547.7z"/>
		<path class="st4" d="M508.6,553.3v-13.5h3.4c0.8,0,1.5,0.1,2.1,0.2c0.6,0.1,1.1,0.3,1.5,0.6s0.7,0.7,1,1.2
			c0.2,0.5,0.3,1.1,0.3,1.8c0,1.3-0.4,2.3-1.3,3c-0.8,0.7-2,1-3.6,1h-2.5v5.8L508.6,553.3L508.6,553.3z M509.5,546.6h2.3
			c1.4,0,2.4-0.2,3.1-0.7s1-1.3,1-2.4c0-1.1-0.3-1.9-1-2.3c-0.7-0.4-1.7-0.6-3.1-0.6h-2.2L509.5,546.6L509.5,546.6z"/>
		<path class="st4" d="M519.8,553.3v-9.9h0.8l0.1,1.8h0.1c0.3-0.6,0.7-1.1,1.2-1.5s1-0.6,1.6-0.6c0.2,0,0.4,0,0.5,0s0.3,0.1,0.5,0.2
			l-0.2,0.8c-0.2-0.1-0.3-0.1-0.4-0.1s-0.3,0-0.5,0c-0.4,0-0.9,0.2-1.4,0.6c-0.5,0.4-0.9,1-1.3,2v6.7H519.8z"/>
		<path class="st4" d="M529.7,553.5c-0.6,0-1.2-0.1-1.7-0.3s-1-0.6-1.4-1s-0.7-1-1-1.6c-0.2-0.6-0.4-1.4-0.4-2.2s0.1-1.6,0.4-2.2
			c0.2-0.7,0.6-1.2,1-1.6c0.4-0.4,0.9-0.8,1.4-1s1.1-0.3,1.7-0.3s1.2,0.1,1.7,0.3s1,0.6,1.4,1s0.7,1,1,1.6c0.2,0.7,0.4,1.4,0.4,2.2
			s-0.1,1.5-0.4,2.2c-0.2,0.6-0.6,1.2-1,1.6c-0.4,0.4-0.9,0.8-1.4,1S530.3,553.5,529.7,553.5z M529.7,552.7c0.5,0,1-0.1,1.4-0.3
			s0.8-0.5,1.1-0.9s0.6-0.8,0.7-1.4c0.2-0.5,0.3-1.1,0.3-1.8s-0.1-1.3-0.3-1.8s-0.4-1-0.7-1.4s-0.7-0.7-1.1-0.9
			c-0.4-0.2-0.9-0.3-1.4-0.3s-1,0.1-1.4,0.3s-0.8,0.5-1.1,0.9s-0.6,0.9-0.7,1.4s-0.3,1.1-0.3,1.8c0,0.6,0.1,1.2,0.3,1.8
			c0.2,0.5,0.4,1,0.7,1.4s0.7,0.7,1.1,0.9C528.7,552.6,529.2,552.7,529.7,552.7z"/>
		<path class="st4" d="M540.3,553.5c-1.2,0-2.2-0.4-3-1.3s-1.1-2.2-1.1-3.8c0-0.8,0.1-1.5,0.3-2.2c0.2-0.6,0.6-1.2,1-1.6
			c0.4-0.5,0.9-0.8,1.4-1s1.1-0.4,1.7-0.4c0.6,0,1.1,0.1,1.6,0.3c0.4,0.2,0.9,0.5,1.4,0.9v-1.8v-4.1h0.9v14.8h-0.8l-0.1-1.3h-0.1
			c-0.4,0.4-0.9,0.8-1.4,1.1C541.6,553.4,541,553.5,540.3,553.5z M540.5,552.7c0.5,0,1.1-0.1,1.6-0.4c0.5-0.3,1-0.7,1.5-1.2v-5.9
			c-0.5-0.5-1-0.8-1.5-1s-0.9-0.3-1.4-0.3s-1,0.1-1.4,0.3s-0.8,0.5-1.1,0.9s-0.6,0.9-0.7,1.4s-0.3,1.1-0.3,1.7
			c0,0.7,0.1,1.3,0.2,1.8c0.1,0.5,0.4,1,0.6,1.4c0.3,0.4,0.6,0.7,1,0.9C539.5,552.6,539.9,552.7,540.5,552.7z"/>
		<path class="st4" d="M551.1,553.5c-1,0-1.8-0.3-2.3-0.9c-0.5-0.6-0.7-1.6-0.7-2.9v-6.3h0.9v6.2c0,1.1,0.2,1.8,0.5,2.3
			s0.9,0.7,1.7,0.7c0.6,0,1.1-0.2,1.6-0.5s1-0.8,1.6-1.5v-7.3h0.9v9.9h-0.7l-0.1-1.6l0,0c-0.5,0.6-1,1-1.5,1.4
			C552.4,553.3,551.8,553.5,551.1,553.5z"/>
		<path class="st4" d="M562.8,553.5c-0.6,0-1.2-0.1-1.8-0.3s-1-0.6-1.4-1s-0.7-1-0.9-1.6s-0.3-1.4-0.3-2.2s0.1-1.6,0.4-2.2
			c0.2-0.7,0.6-1.2,1-1.6c0.4-0.4,0.9-0.8,1.4-1s1.1-0.3,1.7-0.3c0.7,0,1.3,0.1,1.7,0.4c0.5,0.2,0.8,0.5,1.2,0.8l-0.5,0.6
			c-0.3-0.3-0.7-0.6-1-0.8c-0.4-0.2-0.8-0.3-1.3-0.3s-1,0.1-1.4,0.3s-0.8,0.5-1.1,0.9s-0.6,0.9-0.8,1.4s-0.3,1.1-0.3,1.8
			c0,0.6,0.1,1.2,0.3,1.8c0.2,0.5,0.4,1,0.7,1.4s0.7,0.7,1.1,0.9c0.4,0.2,0.9,0.3,1.5,0.3c0.5,0,1-0.1,1.4-0.3s0.8-0.5,1.2-0.8
			l0.5,0.6c-0.4,0.4-0.9,0.7-1.4,0.9C564,553.4,563.4,553.5,562.8,553.5z"/>
		<path class="st4" d="M570.8,553.5c-0.5,0-0.9-0.1-1.2-0.2c-0.3-0.1-0.6-0.3-0.8-0.6s-0.3-0.6-0.4-0.9c-0.1-0.4-0.1-0.8-0.1-1.2
			v-6.4h-1.5v-0.7l1.6-0.1l0.1-2.9h0.8v2.9h2.9v0.8h-2.9v6.4c0,0.3,0,0.6,0.1,0.9s0.1,0.5,0.3,0.7s0.3,0.3,0.5,0.4
			c0.2,0.1,0.5,0.2,0.8,0.2c0.2,0,0.4,0,0.6-0.1c0.2-0.1,0.4-0.1,0.6-0.2l0.2,0.7c-0.3,0.1-0.6,0.2-0.9,0.3
			C571.3,553.5,571,553.5,570.8,553.5z"/>
		<path class="st4" d="M575,541c-0.2,0-0.4-0.1-0.6-0.2c-0.2-0.2-0.2-0.3-0.2-0.6s0.1-0.5,0.2-0.6s0.4-0.2,0.6-0.2
			c0.2,0,0.4,0.1,0.6,0.2s0.2,0.3,0.2,0.6c0,0.2-0.1,0.4-0.2,0.6C575.4,540.9,575.3,541,575,541z M574.5,553.3v-9.9h0.9v9.9H574.5z"
			/>
		<path class="st4" d="M582.8,553.5c-0.6,0-1.2-0.1-1.7-0.3s-1-0.6-1.4-1s-0.7-1-1-1.6c-0.2-0.6-0.4-1.4-0.4-2.2s0.1-1.6,0.4-2.2
			c0.2-0.7,0.6-1.2,1-1.6c0.4-0.4,0.9-0.8,1.4-1s1.1-0.3,1.7-0.3s1.2,0.1,1.7,0.3s1,0.6,1.4,1s0.7,1,1,1.6c0.2,0.7,0.4,1.4,0.4,2.2
			s-0.1,1.5-0.4,2.2c-0.2,0.6-0.6,1.2-1,1.6c-0.4,0.4-0.9,0.8-1.4,1S583.4,553.5,582.8,553.5z M582.8,552.7c0.5,0,1-0.1,1.4-0.3
			s0.8-0.5,1.1-0.9s0.6-0.8,0.7-1.4c0.2-0.5,0.3-1.1,0.3-1.8s-0.1-1.3-0.3-1.8s-0.4-1-0.7-1.4s-0.7-0.7-1.1-0.9
			c-0.4-0.2-0.9-0.3-1.4-0.3s-1,0.1-1.4,0.3s-0.8,0.5-1.1,0.9s-0.6,0.9-0.7,1.4s-0.3,1.1-0.3,1.8c0,0.6,0.1,1.2,0.3,1.8
			c0.2,0.5,0.4,1,0.7,1.4s0.7,0.7,1.1,0.9C581.9,552.6,582.3,552.7,582.8,552.7z"/>
		<path class="st4" d="M590.2,553.3v-9.9h0.8l0.1,1.5h0.1c0.5-0.5,1-0.9,1.6-1.3c0.5-0.3,1.1-0.5,1.8-0.5c1,0,1.8,0.3,2.3,0.9
			c0.5,0.6,0.7,1.6,0.7,2.9v6.3h-1V547c0-1.1-0.2-1.8-0.5-2.3s-0.9-0.8-1.7-0.8c-0.6,0-1.1,0.2-1.6,0.5s-1,0.8-1.6,1.4v7.4
			L590.2,553.3L590.2,553.3z"/>
		<path class="st4" d="M605.4,553.3v-13.5h3.4c0.8,0,1.5,0.1,2.1,0.2c0.6,0.1,1.1,0.3,1.5,0.6s0.7,0.7,1,1.2
			c0.2,0.5,0.3,1.1,0.3,1.8c0,1.3-0.4,2.3-1.3,3c-0.8,0.7-2,1-3.6,1h-2.5v5.8L605.4,553.3L605.4,553.3z M606.3,546.6h2.3
			c1.4,0,2.4-0.2,3.1-0.7s1-1.3,1-2.4c0-1.1-0.3-1.9-1-2.3c-0.7-0.4-1.7-0.6-3.1-0.6h-2.2L606.3,546.6L606.3,546.6z"/>
		<path class="st4" d="M617.7,553.5c-0.4,0-0.8-0.1-1.1-0.2c-0.3-0.1-0.6-0.3-0.9-0.5c-0.3-0.2-0.5-0.5-0.6-0.8
			c-0.2-0.3-0.2-0.7-0.2-1.2c0-1.1,0.5-1.9,1.5-2.5s2.6-1,4.8-1.2c0-0.4,0-0.7-0.1-1.1c-0.1-0.4-0.2-0.7-0.3-1
			c-0.2-0.3-0.4-0.5-0.7-0.7s-0.7-0.3-1.2-0.3c-0.7,0-1.3,0.1-1.8,0.4s-1,0.5-1.3,0.8l-0.4-0.7c0.2-0.1,0.4-0.3,0.6-0.4
			c0.3-0.2,0.5-0.3,0.9-0.4c0.3-0.1,0.7-0.2,1-0.3c0.4-0.1,0.8-0.1,1.2-0.1c0.6,0,1.1,0.1,1.5,0.3s0.7,0.5,1,0.8
			c0.2,0.3,0.4,0.7,0.5,1.2s0.2,1,0.2,1.5v6.3h-0.8l-0.1-1.3h-0.1c-0.5,0.4-1.1,0.8-1.6,1.1C619,553.4,618.4,553.5,617.7,553.5z
			 M617.9,552.7c0.6,0,1.1-0.1,1.6-0.4c0.5-0.3,1.1-0.7,1.7-1.2v-3.3c-1,0.1-1.9,0.3-2.6,0.5c-0.7,0.2-1.3,0.4-1.7,0.6
			c-0.4,0.2-0.7,0.5-0.9,0.8s-0.3,0.7-0.3,1c0,0.4,0.1,0.7,0.2,0.9c0.1,0.2,0.3,0.4,0.5,0.6s0.4,0.3,0.7,0.3
			C617.3,552.7,617.6,552.7,617.9,552.7z"/>
		<path class="st4" d="M626.1,541c-0.2,0-0.4-0.1-0.6-0.2c-0.2-0.2-0.2-0.3-0.2-0.6s0.1-0.5,0.2-0.6s0.4-0.2,0.6-0.2
			c0.2,0,0.4,0.1,0.6,0.2s0.2,0.3,0.2,0.6c0,0.2-0.1,0.4-0.2,0.6C626.5,540.9,626.3,541,626.1,541z M625.6,553.3v-9.9h0.9v9.9H625.6
			z"/>
		<path class="st4" d="M633.6,553.5c-1.2,0-2.2-0.4-3-1.3s-1.1-2.2-1.1-3.8c0-0.8,0.1-1.5,0.3-2.2c0.2-0.6,0.6-1.2,1-1.6
			c0.4-0.5,0.9-0.8,1.4-1s1.1-0.4,1.7-0.4c0.6,0,1.1,0.1,1.6,0.3c0.4,0.2,0.9,0.5,1.4,0.9v-1.8v-4.1h0.9v14.8H637l-0.1-1.3h-0.1
			c-0.4,0.4-0.9,0.8-1.4,1.1S634.3,553.5,633.6,553.5z M633.7,552.7c0.5,0,1.1-0.1,1.6-0.4c0.5-0.3,1-0.7,1.5-1.2v-5.9
			c-0.5-0.5-1-0.8-1.5-1s-0.9-0.3-1.4-0.3s-1,0.1-1.4,0.3s-0.8,0.5-1.1,0.9s-0.6,0.9-0.7,1.4s-0.3,1.1-0.3,1.7
			c0,0.7,0.1,1.3,0.2,1.8c0.1,0.5,0.4,1,0.6,1.4c0.3,0.4,0.6,0.7,1,0.9C632.8,552.6,633.2,552.7,633.7,552.7z"/>
		<path class="st4" d="M644.8,553.3v-0.6l7.8-12.2h-7.1v-0.8h8.3v0.6l-7.8,12.2h7.9v0.8H644.8z"/>
		<path class="st4" d="M656.7,553.3v-9.9h0.8l0.1,1.5h0.1c0.5-0.5,1-0.9,1.6-1.3c0.5-0.3,1.1-0.5,1.8-0.5c1,0,1.8,0.3,2.3,0.9
			c0.5,0.6,0.7,1.6,0.7,2.9v6.3h-0.9V547c0-1.1-0.2-1.8-0.5-2.3s-0.9-0.8-1.7-0.8c-0.6,0-1.1,0.2-1.6,0.5s-1,0.8-1.6,1.4v7.4
			L656.7,553.3L656.7,553.3z"/>
		<path class="st4" d="M671.8,553.3v-13.5h0.9v7.5l0,0l6.6-7.5h1.1l-4.3,5l4.9,8.5h-1.1l-4.5-7.8l-2.8,3.1v4.7H671.8z"/>
		<path class="st4" d="M685.4,553.5c-0.5,0-0.9-0.1-1.2-0.2c-0.3-0.1-0.6-0.3-0.8-0.6s-0.3-0.6-0.4-0.9c-0.1-0.4-0.1-0.8-0.1-1.2
			v-6.4h-1.5v-0.7l1.6-0.1l0.1-2.9h0.8v2.9h2.9v0.8h-2.9v6.4c0,0.3,0,0.6,0.1,0.9s0.1,0.5,0.3,0.7s0.3,0.3,0.5,0.4
			c0.2,0.1,0.5,0.2,0.8,0.2c0.2,0,0.4,0,0.6-0.1c0.2-0.1,0.4-0.1,0.6-0.2l0.2,0.7c-0.3,0.1-0.6,0.2-0.9,0.3
			C685.9,553.5,685.6,553.5,685.4,553.5z"/>
	</g>
	<g>
		<path class="st4" d="M17.3,367.9c0,0.8-0.2,1.6-0.5,2.3s-0.8,1.3-1.4,1.8s-1.3,0.9-2.2,1.2c-0.9,0.3-1.8,0.4-2.9,0.4
			s-2-0.1-2.9-0.4s-1.6-0.7-2.2-1.2s-1.1-1.1-1.4-1.8c-0.3-0.7-0.5-1.5-0.5-2.4c0-0.8,0.2-1.5,0.5-2.1s0.7-1.1,1.1-1.4l0.6,0.6
			c-0.4,0.4-0.8,0.8-1,1.3s-0.4,1-0.4,1.7s0.1,1.4,0.4,2s0.7,1.1,1.2,1.5s1.2,0.7,1.9,1c0.8,0.2,1.6,0.3,2.5,0.3s1.8-0.1,2.6-0.3
			c0.8-0.2,1.4-0.5,1.9-0.9s0.9-0.9,1.2-1.5s0.4-1.2,0.4-2c0-0.7-0.1-1.3-0.4-1.9c-0.3-0.5-0.7-1.1-1.2-1.6l0.6-0.6
			c0.6,0.5,1.1,1.1,1.4,1.7C17.1,366.4,17.3,367.1,17.3,367.9z"/>
		<path class="st4" d="M17.3,357.8c0,0.6-0.1,1.2-0.3,1.7c-0.2,0.5-0.6,1-1,1.4s-1,0.7-1.6,1c-0.6,0.2-1.4,0.4-2.2,0.4
			s-1.6-0.1-2.2-0.4c-0.7-0.2-1.2-0.6-1.6-1c-0.4-0.4-0.8-0.9-1-1.4s-0.3-1.1-0.3-1.7s0.1-1.2,0.3-1.7c0.2-0.5,0.6-1,1-1.4
			c0.4-0.4,1-0.7,1.6-1c0.7-0.2,1.4-0.4,2.2-0.4s1.6,0.1,2.2,0.4c0.6,0.2,1.2,0.6,1.6,1c0.4,0.4,0.8,0.9,1,1.4
			C17.2,356.5,17.3,357.1,17.3,357.8z M16.5,357.8c0-0.5-0.1-1-0.3-1.4c-0.2-0.4-0.5-0.8-0.9-1.1c-0.4-0.3-0.8-0.6-1.4-0.7
			c-0.5-0.2-1.1-0.3-1.8-0.3s-1.3,0.1-1.8,0.3s-1,0.4-1.4,0.7c-0.4,0.3-0.7,0.7-0.9,1.1s-0.3,0.9-0.3,1.4s0.1,1,0.3,1.4
			c0.2,0.4,0.5,0.8,0.9,1.1s0.9,0.6,1.4,0.7s1.1,0.3,1.8,0.3c0.6,0,1.2-0.1,1.8-0.3c0.5-0.2,1-0.4,1.4-0.7s0.7-0.7,0.9-1.1
			C16.4,358.6,16.5,358.3,16.5,357.8z"/>
		<path class="st4" d="M17.3,347.9c0,0.7-0.1,1.4-0.4,2s-0.6,1.1-1,1.6l-0.7-0.5c0.4-0.4,0.7-0.9,0.9-1.4s0.4-1.1,0.4-1.8
			c0-0.8-0.2-1.4-0.6-1.8s-0.8-0.6-1.4-0.6c-0.3,0-0.6,0.1-0.8,0.2s-0.4,0.3-0.6,0.6c-0.2,0.2-0.3,0.5-0.4,0.8
			c-0.1,0.3-0.2,0.6-0.3,0.9c-0.1,0.4-0.3,0.7-0.4,1.1c-0.2,0.4-0.3,0.7-0.5,1s-0.5,0.5-0.8,0.7S10,351,9.6,351
			c-0.4,0-0.7-0.1-1-0.2s-0.6-0.3-0.8-0.6c-0.2-0.3-0.4-0.6-0.6-1c-0.1-0.4-0.2-0.8-0.2-1.4s0.1-1,0.3-1.5c0.2-0.5,0.4-0.9,0.7-1.3
			l0.6,0.5c-0.2,0.3-0.5,0.7-0.6,1c-0.2,0.4-0.3,0.8-0.3,1.3c0,0.4,0.1,0.7,0.2,1s0.2,0.5,0.4,0.7s0.4,0.3,0.6,0.4
			c0.2,0.1,0.4,0.1,0.7,0.1s0.5-0.1,0.7-0.2s0.4-0.3,0.5-0.5c0.2-0.2,0.3-0.5,0.4-0.8c0.1-0.3,0.2-0.6,0.3-0.9
			c0.2-0.4,0.3-0.8,0.5-1.1c0.2-0.4,0.3-0.7,0.6-1c0.2-0.3,0.5-0.6,0.8-0.8c0.3-0.2,0.7-0.3,1.2-0.3c0.4,0,0.7,0.1,1.1,0.2
			c0.3,0.1,0.6,0.4,0.9,0.6c0.3,0.3,0.5,0.6,0.6,1C17.2,346.9,17.3,347.4,17.3,347.9z"/>
		<path class="st4" d="M17.3,339.8c0,0.5-0.1,0.9-0.2,1.2c-0.1,0.3-0.3,0.6-0.6,0.8c-0.3,0.2-0.6,0.3-0.9,0.4
			c-0.4,0.1-0.8,0.1-1.2,0.1H8v1.5H7.3l-0.1-1.6L4.3,342v-0.8h2.9v-2.9H8v2.9h6.4c0.3,0,0.6,0,0.9-0.1s0.5-0.1,0.7-0.3
			c0.2-0.1,0.3-0.3,0.4-0.5s0.2-0.5,0.2-0.8c0-0.2,0-0.4-0.1-0.6s-0.1-0.4-0.2-0.6l0.7-0.2c0.1,0.3,0.2,0.6,0.3,0.9
			C17.3,339.3,17.3,339.5,17.3,339.8z"/>
		<path class="st4" d="M20.7,329.3c-1.4,0.8-2.8,1.5-4.3,2s-3.2,0.7-5,0.7s-3.5-0.2-5-0.7s-3-1.1-4.3-2l0.3-0.6
			c1.3,0.8,2.7,1.4,4.2,1.8s3.1,0.6,4.7,0.6s3.2-0.2,4.7-0.6s2.9-1,4.2-1.8L20.7,329.3z"/>
		<path class="st4" d="M17.3,322.5c0,1-0.2,1.9-0.6,2.6s-0.9,1.4-1.5,2l-0.7-0.6c0.6-0.5,1-1.1,1.3-1.8c0.3-0.7,0.5-1.4,0.5-2.2
			c0-1-0.2-1.9-0.7-2.5c-0.5-0.6-1.2-0.9-2-0.9c-0.4,0-0.8,0.1-1.1,0.2s-0.5,0.3-0.8,0.5s-0.4,0.5-0.5,0.8c-0.2,0.3-0.3,0.6-0.5,0.9
			l-0.9,2.1c-0.1,0.3-0.3,0.6-0.5,0.9s-0.4,0.6-0.7,0.9s-0.6,0.5-0.9,0.7s-0.8,0.3-1.3,0.3s-0.9-0.1-1.3-0.3c-0.4-0.2-0.8-0.5-1-0.8
			c-0.3-0.3-0.5-0.8-0.7-1.3s-0.2-1-0.2-1.6c0-0.8,0.2-1.6,0.5-2.2s0.7-1.2,1.1-1.6l0.6,0.5c-0.4,0.4-0.7,0.9-1,1.4S4,321.6,4,322.3
			c0,0.9,0.2,1.6,0.7,2.2c0.4,0.5,1,0.8,1.8,0.8c0.4,0,0.7-0.1,1-0.2s0.5-0.3,0.7-0.6c0.2-0.2,0.4-0.5,0.5-0.8s0.3-0.5,0.4-0.8
			l0.9-2.1c0.2-0.4,0.3-0.7,0.6-1.1c0.2-0.3,0.4-0.6,0.7-0.9s0.6-0.5,1-0.6c0.4-0.2,0.8-0.2,1.3-0.2s1,0.1,1.4,0.3
			c0.4,0.2,0.8,0.5,1.2,0.9c0.3,0.4,0.6,0.8,0.8,1.4C17.2,321.3,17.3,321.9,17.3,322.5z"/>
		<path class="st4" d="M20.3,317.1l-17.9-6.3v-0.7l17.9,6.3V317.1z"/>
		<path class="st4" d="M17.3,305.1c0,0.5-0.1,0.9-0.2,1.2c-0.1,0.3-0.3,0.6-0.6,0.8c-0.3,0.2-0.6,0.3-0.9,0.4
			c-0.4,0.1-0.8,0.1-1.2,0.1H8v1.5H7.3l-0.1-1.6l-2.9-0.1v-0.8h2.9v-2.9H8v2.9h6.4c0.3,0,0.6,0,0.9-0.1s0.5-0.1,0.7-0.3
			c0.2-0.1,0.3-0.3,0.4-0.5s0.2-0.5,0.2-0.8c0-0.2,0-0.4-0.1-0.6s-0.1-0.4-0.2-0.6l0.7-0.2c0.1,0.3,0.2,0.6,0.3,0.9
			S17.3,304.9,17.3,305.1z"/>
		<path class="st4" d="M17.1,297.1H3.5v-3.4c0-0.8,0.1-1.5,0.2-2.1s0.3-1.1,0.6-1.5s0.7-0.7,1.2-1c0.5-0.2,1.1-0.3,1.8-0.3
			c1.3,0,2.3,0.4,3,1.3c0.7,0.8,1,2,1,3.6v2.5h5.8V297.1z M10.4,296.3V294c0-1.4-0.2-2.4-0.7-3.1s-1.3-1-2.4-1s-1.9,0.3-2.3,1
			s-0.6,1.7-0.6,3.1v2.2L10.4,296.3L10.4,296.3z"/>
		<path class="st4" d="M17.3,284.9c0,0.4-0.1,0.8-0.2,1.1c-0.1,0.3-0.3,0.6-0.5,0.9s-0.5,0.5-0.8,0.6c-0.3,0.2-0.7,0.2-1.2,0.2
			c-1.1,0-1.9-0.5-2.5-1.5s-1-2.6-1.2-4.8c-0.4,0-0.7,0-1.1,0.1c-0.4,0.1-0.7,0.2-1,0.3c-0.3,0.2-0.5,0.4-0.7,0.7
			c-0.2,0.3-0.3,0.7-0.3,1.2c0,0.7,0.1,1.3,0.4,1.8c0.3,0.5,0.5,1,0.8,1.3l-0.7,0.4c-0.1-0.2-0.3-0.4-0.4-0.6
			c-0.2-0.3-0.3-0.5-0.4-0.9c-0.1-0.3-0.2-0.7-0.3-1c-0.1-0.4-0.1-0.8-0.1-1.2c0-0.6,0.1-1.1,0.3-1.5s0.5-0.7,0.8-1
			c0.3-0.2,0.7-0.4,1.2-0.5s1-0.2,1.5-0.2h6.3v0.8l-1.3,0.1v0.1c0.4,0.5,0.7,1.1,1.1,1.6C17.2,283.5,17.3,284.1,17.3,284.9z
			 M16.5,284.6c0-0.6-0.1-1.1-0.4-1.6c-0.3-0.5-0.7-1.1-1.2-1.7h-3.3c0.1,1,0.3,1.9,0.5,2.6s0.4,1.3,0.6,1.7
			c0.2,0.4,0.5,0.7,0.8,0.9c0.3,0.2,0.7,0.3,1,0.3c0.4,0,0.7-0.1,0.9-0.2s0.4-0.3,0.6-0.5c0.2-0.2,0.3-0.4,0.3-0.7
			C16.5,285.3,16.5,284.9,16.5,284.6z"/>
		<path class="st4" d="M4.8,276.4c0,0.2-0.1,0.4-0.2,0.6c-0.2,0.2-0.3,0.2-0.6,0.2s-0.5-0.1-0.6-0.2c-0.1-0.2-0.2-0.4-0.2-0.6
			s0.1-0.4,0.2-0.6c0.1-0.2,0.3-0.2,0.6-0.2c0.2,0,0.4,0.1,0.6,0.2C4.7,276,4.8,276.3,4.8,276.4z M17.1,276.9H7.2V276h9.9
			C17.1,276,17.1,276.9,17.1,276.9z"/>
		<path class="st4" d="M17.3,268.9c0,1.2-0.4,2.2-1.3,3c-0.9,0.7-2.2,1.1-3.8,1.1c-0.8,0-1.5-0.1-2.2-0.3s-1.2-0.6-1.6-1
			s-0.8-0.9-1-1.4s-0.4-1-0.4-1.7s0.1-1.1,0.3-1.6c0.2-0.4,0.5-0.9,0.9-1.4H6.4H2.3v-0.9h14.8v0.8l-1.3,0.1v0.1
			c0.4,0.4,0.7,0.9,1.1,1.4C17.2,267.8,17.3,268.4,17.3,268.9z M16.5,268.9c0-0.5-0.1-1.1-0.4-1.6c-0.3-0.5-0.7-1-1.2-1.5H9
			c-0.5,0.5-0.8,1-1,1.5s-0.3,0.9-0.3,1.4s0.1,1,0.3,1.4c0.2,0.4,0.5,0.8,0.9,1.1s0.9,0.6,1.4,0.7c0.5,0.2,1.1,0.3,1.7,0.3
			c0.7,0,1.3-0.1,1.8-0.2s1-0.4,1.4-0.6c0.4-0.3,0.7-0.6,0.9-1C16.4,269.9,16.5,269.4,16.5,268.9z"/>
		<path class="st4" d="M17.1,257.9h-0.6l-12.2-7.8v7.1H3.5v-8.3h0.6l12.2,7.8v-7.9h0.8C17.1,248.8,17.1,257.9,17.1,257.9z"/>
		<path class="st4" d="M17.1,245.8H7.2v-0.7l1.5-0.1v-0.1c-0.5-0.5-0.9-1-1.3-1.6c-0.3-0.5-0.5-1.1-0.5-1.8c0-1,0.3-1.8,0.9-2.3
			s1.6-0.7,2.9-0.7H17v0.9h-6.2c-1.1,0-1.8,0.2-2.3,0.5s-0.8,0.9-0.8,1.7c0,0.6,0.2,1.1,0.5,1.6s0.8,1,1.4,1.6H17L17.1,245.8
			L17.1,245.8z"/>
		<path class="st4" d="M20.7,235.6l-0.3,0.6c-1.3-0.8-2.7-1.4-4.2-1.8c-1.5-0.4-3.1-0.6-4.7-0.6s-3.2,0.2-4.7,0.6
			c-1.5,0.4-2.9,1-4.2,1.8l-0.3-0.6c1.4-0.8,2.8-1.5,4.3-2s3.2-0.7,5-0.7s3.5,0.2,5,0.7C17.8,234.1,19.3,234.8,20.7,235.6z"/>
	</g>
	<line class="st6" x1="85.3" y1="137.4" x2="96.9" y2="137.4"/>
	<line class="st6" x1="85.3" y1="203.6" x2="96.9" y2="203.6"/>
	<line class="st6" x1="85.3" y1="170.5" x2="96.9" y2="170.5"/>
	<line class="st6" x1="85.3" y1="236.8" x2="96.9" y2="236.8"/>
	<line class="st6" x1="85.3" y1="269.9" x2="96.9" y2="269.9"/>
	<line class="st6" x1="85.3" y1="302.9" x2="96.9" y2="302.9"/>
	<line class="st6" x1="85.3" y1="336" x2="96.9" y2="336"/>
	<line class="st6" x1="85.3" y1="369.1" x2="96.9" y2="369.1"/>
	<line class="st6" x1="85.3" y1="402.3" x2="96.9" y2="402.3"/>
	<line class="st6" x1="85.3" y1="435.4" x2="96.9" y2="435.4"/>
	<line class="st7" x1="269.1" y1="468.4" x2="269.1" y2="480"/>
	<line class="st7" x1="441.8" y1="468.4" x2="441.8" y2="480"/>
	<line class="st7" x1="614.5" y1="468.4" x2="614.5" y2="480"/>
	<line class="st7" x1="959.8" y1="468.4" x2="959.8" y2="480"/>
	<line class="st7" x1="787.2" y1="468.4" x2="787.2" y2="480"/>
	<g>
		<path class="st5" d="M197.1,147c-1,0-1.9-0.2-2.8-0.6c-0.8-0.4-1.6-1-2.2-1.7c-0.6-0.7-1.1-1.6-1.4-2.7c-0.3-1-0.5-2.2-0.5-3.5
			s0.2-2.4,0.5-3.5c0.3-1,0.8-1.9,1.4-2.6c0.6-0.7,1.3-1.3,2.2-1.7c0.8-0.4,1.8-0.6,2.8-0.6s1.8,0.2,2.5,0.6
			c0.7,0.4,1.3,0.8,1.7,1.4l-0.7,0.8c-0.4-0.5-1-0.9-1.6-1.2s-1.3-0.5-2-0.5c-0.9,0-1.7,0.2-2.4,0.5s-1.3,0.8-1.8,1.5
			c-0.5,0.6-0.9,1.4-1.1,2.3s-0.4,1.9-0.4,3.1c0,1.1,0.1,2.2,0.4,3.1c0.3,0.9,0.6,1.7,1.1,2.3s1.1,1.1,1.8,1.5s1.5,0.5,2.4,0.5
			c0.8,0,1.6-0.2,2.2-0.5c0.7-0.3,1.3-0.8,1.9-1.5l0.7,0.7c-0.6,0.7-1.3,1.3-2.1,1.7C199,146.8,198.1,147,197.1,147z"/>
		<path class="st5" d="M204.9,146.8v-1h3.7v-13.1h-2.8V132c0.6-0.1,1.2-0.3,1.7-0.4c0.5-0.2,0.9-0.4,1.3-0.6h0.9v14.8h3.4v1H204.9z"
			/>
	</g>
	<rect x="138.3" y="128.8" class="st8" width="34.9" height="17.5"/>
	<polygon class="st9" points="96.4,383.1 107.3,383.1 107.3,381 112.4,381 112.4,377.3 123.3,377.3 123.3,354 127.1,354 
		127.1,348.4 129.2,348.4 129.2,344.4 131.1,344.4 131.1,336 137.6,336 137.6,328.9 215.6,328.9 215.6,323.4 261,323.4 261,316.8 
		265,316.8 265,314.6 270.5,314.6 270.5,311.5 276.9,311.5 276.9,308.9 280.1,308.9 280.1,294.9 283.5,294.9 283.5,287.9 
		286.4,287.9 286.4,284.3 288.6,284.3 288.6,282.3 297.2,282.3 297.2,275.5 306.2,275.5 306.2,272.9 317.1,272.9 317.1,270.9 
		330.9,270.9 330.9,266.4 342.3,266.4 342.3,262.9 348.6,262.9 348.6,257.1 351.5,257.1 351.5,251 377.9,251 377.9,248.1 
		381.4,248.1 381.4,246.4 392.8,246.4 392.8,243.3 397.1,243.3 397.1,238.1 504.3,238.1 504.3,232.6 513.7,232.6 513.7,228.8 
		518.6,228.8 518.6,225.3 529.3,225.3 529.3,221.8 553,221.8 672.2,221.8 684.1,221.8 684.1,219.3 698.7,219.3 698.7,215.9 
		728.5,215.9 728.5,212.5 751.5,212.5 751.5,208.5 779,208.5 779,206.8 798.7,206.8 798.7,203.3 800.1,203.3 800.1,199.8 
		804.2,199.8 804.2,194.8 816.5,194.8 816.5,192.5 830.9,192.5 844.1,192.5 844.1,188.6 846.9,188.6 846.9,186.9 851.3,186.9 
		851.3,181.8 868.4,181.8 868.4,178.8 886.6,178.8 886.6,174.4 901.2,174.4 901.2,170.6 917,170.6 917,169.4 926.7,169.4 926.7,167 
		929.6,167 929.6,160.3 932.5,160.3 932.5,149.8 939.9,149.8 939.9,140.9 946.3,140.9 946.3,137.5 951.3,137.5 998.3,137.5 
		998.3,468.4 96.4,468.4 	"/>
	<rect x="137.3" y="328.8" class="st8" width="78.2" height="139.7"/>
	<g>
		<path class="st0" d="M171.8,443.8h-13.4v-3h5.2v-4.6h-5.2v-3h13.4v3h-5.6v4.6h5.6V443.8z"/>
		<path class="st0" d="M160.1,428.6c0,0.5-0.1,0.9-0.4,1.3c-0.3,0.3-0.7,0.5-1.1,0.5c-0.5,0-0.8-0.2-1.1-0.5s-0.4-0.7-0.4-1.3
			c0-0.5,0.1-0.9,0.4-1.3c0.3-0.3,0.7-0.5,1.1-0.5c0.5,0,0.8,0.2,1.1,0.5C160,427.6,160.1,428,160.1,428.6z M171.8,430.1h-10.2v-3
			h10.2V430.1z"/>
		<path class="st0" d="M171.8,424.4h-10.2v-2.5l1.3-0.2v-0.1c-0.4-0.4-0.8-0.9-1.1-1.4s-0.5-1.1-0.5-1.8c0-1.1,0.4-1.9,1.1-2.4
			c0.7-0.5,1.7-0.8,3-0.8h6.3v3h-5.9c-0.7,0-1.2,0.1-1.5,0.3s-0.4,0.5-0.4,1c0,0.4,0.1,0.7,0.3,1s0.4,0.6,0.7,0.9h6.9L171.8,424.4
			L171.8,424.4z"/>
		<path class="st0" d="M172.1,409c0,0.6-0.1,1.2-0.4,1.7c-0.2,0.5-0.6,1-1.1,1.3c-0.5,0.4-1,0.6-1.7,0.8c-0.7,0.2-1.4,0.3-2.2,0.3
			s-1.6-0.1-2.2-0.4s-1.2-0.6-1.7-0.9c-0.5-0.4-0.8-0.8-1.1-1.4c-0.2-0.5-0.4-1-0.4-1.6s0.1-1,0.3-1.4s0.5-0.7,0.8-1.1l-1.6,0.1
			h-3.5v-3h14.4v2.5l-1,0.2v0.1c0.4,0.4,0.7,0.8,0.9,1.3C171.9,408,172.1,408.5,172.1,409z M169.6,408.3c0-0.3-0.1-0.6-0.2-0.9
			c-0.1-0.3-0.4-0.5-0.7-0.8h-4.2c-0.2,0.3-0.4,0.6-0.5,0.8c-0.1,0.3-0.1,0.6-0.1,0.8c0,0.5,0.2,0.9,0.7,1.3s1.2,0.6,2.1,0.6
			c1,0,1.8-0.2,2.2-0.5C169.4,409.4,169.6,408.9,169.6,408.3z"/>
		<path class="st0" d="M172.1,397.9c0,1.1-0.4,1.9-1.1,2.4c-0.7,0.5-1.7,0.7-3,0.7h-6.4v-3h5.9c0.7,0,1.2-0.1,1.5-0.3
			c0.3-0.2,0.4-0.5,0.4-1c0-0.4-0.1-0.7-0.3-1s-0.5-0.5-0.9-0.8h-6.6v-3h10.2v2.5l-1.4,0.2v0.1c0.5,0.4,0.9,0.9,1.2,1.4
			C171.9,396.5,172.1,397.1,172.1,397.9z"/>
		<path class="st0" d="M172.1,386.3c0,0.7-0.1,1.4-0.4,2.1c-0.3,0.7-0.6,1.3-1,1.8l-1.9-1.4c0.4-0.5,0.6-0.9,0.8-1.3
			s0.3-0.9,0.3-1.3c0-0.5-0.1-0.8-0.2-1c-0.2-0.2-0.4-0.3-0.6-0.3c-0.2,0-0.3,0.1-0.4,0.2c-0.1,0.1-0.2,0.3-0.4,0.5
			c-0.1,0.2-0.2,0.4-0.3,0.7c-0.1,0.2-0.2,0.5-0.3,0.8s-0.3,0.6-0.4,0.9c-0.2,0.3-0.4,0.6-0.6,0.9c-0.2,0.3-0.5,0.5-0.8,0.6
			s-0.7,0.2-1.1,0.2c-0.5,0-0.9-0.1-1.3-0.3c-0.4-0.2-0.7-0.4-1-0.8c-0.3-0.3-0.5-0.8-0.6-1.2c-0.2-0.5-0.2-1-0.2-1.6
			c0-0.8,0.1-1.5,0.4-2.1s0.6-1.1,0.9-1.5l1.8,1.4c-0.3,0.4-0.5,0.7-0.6,1.1c-0.2,0.4-0.2,0.7-0.2,1.1c0,0.8,0.3,1.1,0.8,1.1
			c0.2,0,0.3-0.1,0.4-0.2c0.1-0.1,0.2-0.3,0.3-0.4c0.1-0.2,0.2-0.4,0.3-0.6s0.2-0.5,0.3-0.8s0.3-0.7,0.4-1c0.2-0.3,0.4-0.6,0.6-0.9
			c0.2-0.3,0.5-0.5,0.9-0.6c0.3-0.2,0.7-0.2,1.2-0.2s0.9,0.1,1.3,0.3s0.7,0.4,1,0.8s0.5,0.8,0.7,1.3S172.1,385.5,172.1,386.3z"/>
		<path class="st0" d="M172.1,376.6c0,0.6-0.1,1.2-0.3,1.6s-0.5,0.8-0.8,1.1c-0.3,0.3-0.8,0.5-1.2,0.6s-1,0.2-1.6,0.2h-4.1v1.4h-2.2
			l-0.1-1.6l-2.7-0.3v-2.5h2.7v-2.4h2.4v2.4h4.1c0.6,0,1-0.1,1.2-0.4s0.4-0.6,0.4-1c0-0.2,0-0.3-0.1-0.5c0-0.2-0.1-0.3-0.1-0.5
			l2.2-0.5c0.1,0.3,0.2,0.6,0.2,1C172,375.8,172.1,376.1,172.1,376.6z"/>
		<path class="st0" d="M172.1,370.5c0,0.5-0.1,0.9-0.2,1.3c-0.2,0.4-0.4,0.7-0.7,1s-0.6,0.5-1,0.6s-0.8,0.2-1.2,0.2
			c-1.1,0-1.9-0.5-2.5-1.4s-1-2.4-1.2-4.4c-0.5,0-0.8,0.2-1.1,0.4c-0.3,0.2-0.4,0.6-0.4,1.2c0,0.4,0.1,0.9,0.2,1.3
			c0.2,0.4,0.4,0.9,0.7,1.4l-2,1.1c-0.4-0.7-0.7-1.3-1-2.1s-0.4-1.5-0.4-2.3c0-1.3,0.4-2.3,1.1-3c0.7-0.7,1.9-1,3.5-1h5.8v2.5
			l-1,0.2v0.1c0.4,0.4,0.7,0.9,0.9,1.4C171.9,369.4,172.1,369.9,172.1,370.5z M169.7,369.5c0-0.3-0.1-0.6-0.2-0.9
			c-0.2-0.2-0.4-0.5-0.6-0.8h-1.8c0.2,1.1,0.4,1.8,0.7,2.2c0.3,0.4,0.6,0.6,1,0.6c0.3,0,0.6-0.1,0.7-0.3
			C169.6,370.1,169.7,369.9,169.7,369.5z"/>
		<path class="st0" d="M171.8,362.4h-10.2v-2.5l1.3-0.2v-0.1c-0.4-0.4-0.8-0.9-1.1-1.4s-0.5-1.1-0.5-1.8c0-1.1,0.4-1.9,1.1-2.4
			c0.7-0.5,1.7-0.8,3-0.8h6.3v3h-5.9c-0.7,0-1.2,0.1-1.5,0.3s-0.4,0.5-0.4,1c0,0.4,0.1,0.7,0.3,1s0.4,0.6,0.7,0.9h6.9L171.8,362.4
			L171.8,362.4z"/>
	</g>
	<g>
		<path class="st0" d="M196.5,416.9h-1.9l-9-5.9v5.4h-2.5v-9.1h1.8l9,5.9v-6h2.5L196.5,416.9L196.5,416.9z"/>
		<path class="st0" d="M184.8,403.6c0,0.5-0.1,0.9-0.4,1.3c-0.3,0.3-0.7,0.5-1.1,0.5c-0.5,0-0.8-0.2-1.1-0.5s-0.4-0.7-0.4-1.3
			c0-0.5,0.1-0.9,0.4-1.3c0.3-0.3,0.7-0.5,1.1-0.5c0.5,0,0.8,0.2,1.1,0.5C184.6,402.8,184.8,403.1,184.8,403.6z M196.5,405.1h-10.2
			v-3h10.2V405.1z"/>
		<path class="st0" d="M196.5,399.5h-10.2V397l1.3-0.2v-0.1c-0.4-0.4-0.8-0.9-1.1-1.4s-0.5-1.1-0.5-1.8c0-1.1,0.4-1.9,1.1-2.4
			c0.7-0.5,1.7-0.8,3-0.8h6.3v3h-5.9c-0.7,0-1.2,0.1-1.5,0.3s-0.4,0.5-0.4,1c0,0.4,0.1,0.7,0.3,1s0.4,0.6,0.7,0.9h6.9L196.5,399.5
			L196.5,399.5z"/>
		<path class="st0" d="M196.7,383.4c0,0.7-0.1,1.4-0.4,2c-0.2,0.6-0.6,1.1-1,1.6c-0.5,0.5-1,0.8-1.7,1.1c-0.7,0.3-1.4,0.4-2.3,0.4
			c-0.8,0-1.6-0.1-2.3-0.4s-1.2-0.7-1.7-1.2s-0.8-1.1-1-1.7s-0.4-1.3-0.4-2c0-0.6,0.1-1.2,0.3-1.7s0.5-0.9,0.8-1.3l2,1.4
			c-0.4,0.5-0.6,0.9-0.6,1.4c0,0.7,0.3,1.3,0.8,1.7c0.5,0.4,1.2,0.6,2.1,0.6s1.6-0.2,2.1-0.6s0.8-1,0.8-1.6c0-0.3-0.1-0.6-0.2-1
			c-0.1-0.3-0.3-0.6-0.5-0.9l2-1.2c0.4,0.5,0.7,1.1,0.9,1.6C196.6,382.3,196.7,382.8,196.7,383.4z"/>
	</g>
	<line class="st6" x1="85.3" y1="468.4" x2="998.3" y2="468.4"/>
	<line class="st6" x1="96.4" y1="480" x2="96.4" y2="136.9"/>
</g>
</svg>
