<?xml version="1.0" encoding="utf-8"?>
<!-- Generator: Adobe Illustrator 23.0.3, SVG Export Plug-In . SVG Version: 6.00 Build 0)  -->
<svg version="1.1" id="Layer_1" xmlns="http://www.w3.org/2000/svg" xmlns:xlink="http://www.w3.org/1999/xlink" x="0px" y="0px"
	 viewBox="0 0 236 190" style="enable-background:new 0 0 236 190;" xml:space="preserve">
<style type="text/css">
	.st0{fill:#ABD693;}
	.st1{fill:#FFFFFF;}
	.st2{fill:none;stroke:#4D4D4F;stroke-width:0.354;}
</style>
<polygon class="st0" points="93.1,8.4 7.3,181.3 178.9,181.3 "/>
<path class="st1" d="M99.2,26.6c0,0-10,0-10,10V39c0,0,0,10,10,10h121.2c0,0,10,0,10-10v-2.3c0,0,0-10-10-10H99.2z"/>
<path class="st2" d="M99.2,26.6c0,0-10,0-10,10V39c0,0,0,10,10,10h121.2c0,0,10,0,10-10v-2.3c0,0,0-10-10-10H99.2z"/>
<path class="st1" d="M99.2,54c0,0-10,0-10,10v2.3c0,0,0,10,10,10h121c0,0,10,0,10-10V64c0,0,0-10-10-10H99.2z"/>
<path class="st2" d="M99.2,54c0,0-10,0-10,10v2.3c0,0,0,10,10,10h121c0,0,10,0,10-10V64c0,0,0-10-10-10H99.2z"/>
<path class="st1" d="M97.2,80.7c0,0-8,0-8,8v4c0,0,0,8,8,8h125.2c0,0,8,0,8-8v-4c0,0,0-8-8-8H97.2z"/>
<path class="st2" d="M97.2,80.7c0,0-8,0-8,8v4c0,0,0,8,8,8h125.2c0,0,8,0,8-8v-4c0,0,0-8-8-8H97.2z"/>
<path class="st1" d="M100.2,106.7c0,0-11,0-11,11v3.1c0,0,0,11,11,11h119.2c0,0,11,0,11-11v-3.1c0,0,0-11-11-11H100.2z"/>
<path class="st2" d="M100.2,106.7c0,0-11,0-11,11v3.1c0,0,0,11,11,11h119.2c0,0,11,0,11-11v-3.1c0,0,0-11-11-11H100.2z"/>
<path class="st1" d="M101.2,137.8c0,0-12,0-12,12v10.8c0,0,0,12,12,12h117.2c0,0,12,0,12-12v-10.8c0,0,0-12-12-12H101.2z"/>
<path class="st2" d="M101.2,137.8c0,0-12,0-12,12v10.8c0,0,0,12,12,12h117.2c0,0,12,0,12-12v-10.8c0,0,0-12-12-12H101.2z"/>
<g>
	<path d="M97.5,35.7h0.3v2.2h2.7v-2.2h0.3v4.9h-0.3v-2.5h-2.7v2.5h-0.3V35.7z"/>
	<path d="M101.9,40l0.2-0.2c0.4,0.4,0.9,0.7,1.4,0.7c0.8,0,1.2-0.4,1.2-1c0-0.6-0.4-0.8-0.9-1l-0.8-0.3c-0.4-0.2-1-0.5-1-1.2
		c0-0.7,0.6-1.2,1.4-1.2c0.6,0,1.1,0.3,1.4,0.6l-0.2,0.2c-0.3-0.3-0.7-0.5-1.2-0.5c-0.7,0-1.1,0.3-1.1,0.9c0,0.6,0.5,0.8,0.9,1
		l0.8,0.3c0.6,0.2,1,0.6,1,1.3c0,0.8-0.6,1.3-1.6,1.3C102.9,40.7,102.3,40.4,101.9,40z"/>
	<path d="M106.2,35.7h2.7V36h-2.4v1.9h2v0.3h-2v2.2h2.4v0.3h-2.8V35.7z"/>
	<path d="M111.6,35.7h1.2c1.1,0,1.8,0.4,1.8,1.4c0,1-0.7,1.4-1.8,1.4h-0.9v2.1h-0.3V35.7z M112.8,38.2c1,0,1.5-0.3,1.5-1.1
		c0-0.8-0.5-1.1-1.5-1.1h-0.8v2.2H112.8z"/>
	<path d="M115.2,38.8c0-1.2,0.8-1.9,1.6-1.9c0.9,0,1.6,0.7,1.6,1.9c0,1.2-0.8,1.9-1.6,1.9C115.9,40.7,115.2,40,115.2,38.8z
		 M118.1,38.8c0-1-0.5-1.6-1.3-1.6c-0.7,0-1.3,0.7-1.3,1.6c0,0.9,0.5,1.6,1.3,1.6C117.5,40.4,118.1,39.8,118.1,38.8z"/>
	<path d="M119.5,40.1v-4.9h0.3v5c0,0.2,0.1,0.2,0.2,0.2c0,0,0.1,0,0.1,0l0.1,0.3c-0.1,0-0.1,0-0.2,0
		C119.6,40.7,119.5,40.5,119.5,40.1z"/>
	<path d="M121.1,35.8c0-0.2,0.1-0.3,0.3-0.3s0.3,0.1,0.3,0.3c0,0.2-0.1,0.3-0.3,0.3S121.1,36,121.1,35.8z M121.3,37h0.3v3.6h-0.3V37
		z"/>
	<path d="M122.7,38.8c0-1.2,0.8-1.9,1.6-1.9c0.5,0,0.8,0.2,1.1,0.4l-0.2,0.2c-0.2-0.2-0.5-0.4-0.9-0.4c-0.7,0-1.3,0.7-1.3,1.6
		c0,0.9,0.5,1.6,1.3,1.6c0.4,0,0.7-0.2,1-0.4l0.2,0.2c-0.3,0.3-0.7,0.5-1.1,0.5C123.4,40.7,122.7,40,122.7,38.8z"/>
	<path d="M125.9,42.2l0.1-0.3c0.1,0,0.2,0.1,0.3,0.1c0.4,0,0.7-0.4,0.9-1l0.1-0.3l-1.5-3.7h0.4l0.9,2.3c0.1,0.3,0.3,0.7,0.4,1h0
		c0.1-0.3,0.2-0.7,0.3-1l0.8-2.3h0.3l-1.4,4.1c-0.2,0.6-0.6,1.2-1.2,1.2C126.1,42.3,126,42.2,125.9,42.2z"/>
	<path d="M130.9,39.7c0-0.8,0.7-1.2,2.3-1.4c0-0.5-0.1-1.1-0.9-1.1c-0.5,0-0.9,0.2-1.1,0.4l-0.1-0.2c0.3-0.2,0.8-0.5,1.3-0.5
		c0.8,0,1.1,0.6,1.1,1.4v2.3h-0.3l0-0.5h0c-0.4,0.3-0.8,0.6-1.3,0.6C131.4,40.7,130.9,40.4,130.9,39.7z M133.2,39.8v-1.2
		c-1.5,0.2-2,0.5-2,1.1c0,0.5,0.4,0.7,0.8,0.7S132.8,40.2,133.2,39.8z"/>
	<path d="M134.8,37h0.3l0,0.6h0c0.4-0.4,0.7-0.6,1.2-0.6c0.7,0,1.1,0.5,1.1,1.4v2.3h-0.3v-2.3c0-0.8-0.2-1.1-0.8-1.1
		c-0.4,0-0.7,0.2-1.2,0.7v2.7h-0.3V37z"/>
	<path d="M138.5,38.8c0-1.2,0.7-1.9,1.6-1.9c0.4,0,0.7,0.2,1.1,0.4l0-0.7v-1.5h0.3v5.4h-0.3l0-0.5h0c-0.3,0.3-0.7,0.6-1.2,0.6
		C139.1,40.7,138.5,40,138.5,38.8z M141.2,39.8v-2.1c-0.4-0.3-0.7-0.5-1.1-0.5c-0.7,0-1.3,0.7-1.3,1.6c0,1,0.4,1.6,1.2,1.6
		C140.5,40.4,140.8,40.2,141.2,39.8z"/>
	<path d="M144.5,35.7h1.2c1.1,0,1.8,0.4,1.8,1.4c0,1-0.7,1.4-1.8,1.4h-0.9v2.1h-0.3V35.7z M145.7,38.2c1,0,1.5-0.3,1.5-1.1
		c0-0.8-0.5-1.1-1.5-1.1h-0.8v2.2H145.7z"/>
	<path d="M148.5,37h0.3l0,0.7h0c0.2-0.4,0.6-0.8,1-0.8c0.1,0,0.2,0,0.4,0.1l-0.1,0.3c-0.1,0-0.2-0.1-0.3-0.1c-0.3,0-0.7,0.2-1,0.9
		v2.5h-0.3V37z"/>
	<path d="M150.8,35.8c0-0.2,0.1-0.3,0.3-0.3s0.3,0.1,0.3,0.3c0,0.2-0.1,0.3-0.3,0.3S150.8,36,150.8,35.8z M150.9,37h0.3v3.6h-0.3V37
		z"/>
	<path d="M152.6,37h0.3l0,0.6h0c0.4-0.4,0.7-0.6,1.2-0.6c0.7,0,1.1,0.5,1.1,1.4v2.3H155v-2.3c0-0.8-0.2-1.1-0.8-1.1
		c-0.4,0-0.7,0.2-1.2,0.7v2.7h-0.3V37z"/>
	<path d="M156.3,38.8c0-1.2,0.8-1.9,1.6-1.9c0.5,0,0.8,0.2,1.1,0.4l-0.2,0.2c-0.2-0.2-0.5-0.4-0.9-0.4c-0.7,0-1.3,0.7-1.3,1.6
		c0,0.9,0.5,1.6,1.3,1.6c0.4,0,0.7-0.2,1-0.4l0.2,0.2c-0.3,0.3-0.7,0.5-1.1,0.5C157,40.7,156.3,40,156.3,38.8z"/>
	<path d="M159.9,35.8c0-0.2,0.1-0.3,0.3-0.3s0.3,0.1,0.3,0.3c0,0.2-0.1,0.3-0.3,0.3S159.9,36,159.9,35.8z M160,37h0.3v3.6H160V37z"
		/>
	<path d="M161.7,37h0.3l0,0.5h0c0.4-0.3,0.8-0.5,1.2-0.5c1,0,1.4,0.7,1.4,1.8c0,1.2-0.7,1.9-1.6,1.9c-0.3,0-0.7-0.2-1.1-0.4v2h-0.3
		V37z M164.4,38.8c0-0.9-0.3-1.5-1.1-1.5c-0.4,0-0.7,0.2-1.2,0.6v2.1c0.4,0.3,0.8,0.5,1.1,0.5C163.8,40.4,164.4,39.7,164.4,38.8z"/>
	<path d="M165.8,40.1v-4.9h0.3v5c0,0.2,0.1,0.2,0.2,0.2c0,0,0.1,0,0.1,0l0.1,0.3c-0.1,0-0.1,0-0.2,0
		C165.9,40.7,165.8,40.5,165.8,40.1z"/>
	<path d="M167.3,38.8c0-1.2,0.8-1.9,1.6-1.9c0.9,0,1.4,0.6,1.4,1.7c0,0.1,0,0.2,0,0.3h-2.6c0,0.9,0.5,1.6,1.4,1.6
		c0.4,0,0.7-0.1,1-0.3l0.1,0.3c-0.3,0.2-0.6,0.4-1.1,0.4C168,40.7,167.3,40,167.3,38.8z M169.9,38.6c0-0.9-0.4-1.4-1.1-1.4
		c-0.6,0-1.2,0.5-1.2,1.4H169.9z"/>
	<path d="M170.7,40.2l0.2-0.2c0.3,0.3,0.6,0.5,1.1,0.5c0.6,0,0.9-0.3,0.9-0.7c0-0.5-0.5-0.6-0.9-0.8c-0.5-0.2-1.1-0.4-1.1-1
		c0-0.5,0.4-1,1.2-1c0.4,0,0.8,0.2,1,0.4l-0.2,0.2c-0.2-0.2-0.5-0.3-0.9-0.3c-0.6,0-0.8,0.3-0.8,0.7c0,0.4,0.4,0.6,0.8,0.7
		c0.6,0.2,1.2,0.4,1.2,1.1c0,0.5-0.4,1-1.2,1C171.5,40.7,171.1,40.5,170.7,40.2z"/>
</g>
<g>
	<path d="M97.2,65.5c0-1.6,0.9-2.6,2.1-2.6c0.6,0,1,0.3,1.3,0.6l-0.2,0.2c-0.3-0.3-0.6-0.5-1.1-0.5c-1.1,0-1.8,0.9-1.8,2.2
		c0,1.4,0.7,2.3,1.7,2.3c0.5,0,0.9-0.2,1.3-0.6l0.2,0.2c-0.4,0.4-0.8,0.7-1.5,0.7C98,68,97.2,67,97.2,65.5z"/>
	<path d="M101.4,66.2c0-1.2,0.8-1.9,1.6-1.9c0.9,0,1.6,0.7,1.6,1.9c0,1.2-0.8,1.9-1.6,1.9C102.1,68,101.4,67.4,101.4,66.2z
		 M104.3,66.2c0-1-0.5-1.6-1.3-1.6c-0.7,0-1.3,0.7-1.3,1.6c0,0.9,0.5,1.6,1.3,1.6C103.7,67.8,104.3,67.1,104.3,66.2z"/>
	<path d="M105.7,64.4h0.3l0,0.7h0c0.2-0.4,0.6-0.8,1-0.8c0.1,0,0.2,0,0.4,0.1l-0.1,0.3c-0.1,0-0.2-0.1-0.3-0.1c-0.3,0-0.7,0.2-1,0.9
		V68h-0.3V64.4z"/>
	<path d="M108.1,64.4h0.3l0,0.5h0c0.4-0.3,0.8-0.5,1.2-0.5c1,0,1.4,0.7,1.4,1.8c0,1.2-0.7,1.9-1.6,1.9c-0.3,0-0.7-0.2-1.1-0.4v2
		h-0.3V64.4z M110.7,66.1c0-0.9-0.3-1.5-1.1-1.5c-0.4,0-0.7,0.2-1.2,0.6v2.1c0.4,0.3,0.8,0.5,1.1,0.5
		C110.2,67.8,110.7,67.1,110.7,66.1z"/>
	<path d="M111.9,66.2c0-1.2,0.8-1.9,1.6-1.9c0.9,0,1.6,0.7,1.6,1.9c0,1.2-0.8,1.9-1.6,1.9C112.6,68,111.9,67.4,111.9,66.2z
		 M114.8,66.2c0-1-0.5-1.6-1.3-1.6c-0.7,0-1.3,0.7-1.3,1.6c0,0.9,0.5,1.6,1.3,1.6C114.2,67.8,114.8,67.1,114.8,66.2z"/>
	<path d="M116.2,64.4h0.3l0,0.7h0c0.2-0.4,0.6-0.8,1-0.8c0.1,0,0.2,0,0.4,0.1l-0.1,0.3c-0.1,0-0.2-0.1-0.3-0.1c-0.3,0-0.7,0.2-1,0.9
		V68h-0.3V64.4z"/>
	<path d="M118.2,67.1c0-0.8,0.7-1.2,2.3-1.4c0-0.5-0.1-1.1-0.9-1.1c-0.5,0-0.9,0.2-1.1,0.4l-0.1-0.2c0.3-0.2,0.8-0.5,1.3-0.5
		c0.8,0,1.1,0.6,1.1,1.4V68h-0.3l0-0.5h0c-0.4,0.3-0.8,0.6-1.3,0.6C118.6,68,118.2,67.7,118.2,67.1z M120.5,67.2V66
		c-1.5,0.2-2,0.5-2,1.1c0,0.5,0.4,0.7,0.8,0.7S120,67.6,120.5,67.2z"/>
	<path d="M122.1,67v-2.3h-0.6v-0.3l0.6,0l0-1h0.3v1h1v0.3h-1V67c0,0.5,0.1,0.8,0.6,0.8c0.1,0,0.3-0.1,0.5-0.1l0.1,0.3
		c-0.2,0.1-0.4,0.1-0.6,0.1C122.3,68,122.1,67.6,122.1,67z"/>
	<path d="M124,66.2c0-1.2,0.8-1.9,1.6-1.9c0.9,0,1.4,0.6,1.4,1.7c0,0.1,0,0.2,0,0.3h-2.6c0,0.9,0.5,1.6,1.4,1.6c0.4,0,0.7-0.1,1-0.3
		l0.1,0.3c-0.3,0.2-0.6,0.4-1.1,0.4C124.7,68,124,67.3,124,66.2z M126.6,65.9c0-0.9-0.4-1.4-1.1-1.4c-0.6,0-1.2,0.5-1.2,1.4H126.6z"
		/>
	<path d="M129.1,67.3l0.2-0.2c0.4,0.4,0.9,0.7,1.4,0.7c0.8,0,1.2-0.4,1.2-1c0-0.6-0.4-0.8-0.9-1l-0.8-0.3c-0.4-0.2-1-0.5-1-1.2
		c0-0.7,0.6-1.2,1.4-1.2c0.6,0,1.1,0.3,1.4,0.6l-0.2,0.2c-0.3-0.3-0.7-0.5-1.2-0.5c-0.7,0-1.1,0.3-1.1,0.9c0,0.6,0.5,0.8,0.9,1
		l0.8,0.3c0.6,0.2,1,0.6,1,1.3c0,0.8-0.6,1.3-1.6,1.3C130,68,129.4,67.7,129.1,67.3z"/>
	<path d="M133.1,67.1c0-0.8,0.7-1.2,2.3-1.4c0-0.5-0.1-1.1-0.9-1.1c-0.5,0-0.9,0.2-1.1,0.4l-0.1-0.2c0.3-0.2,0.8-0.5,1.3-0.5
		c0.8,0,1.1,0.6,1.1,1.4V68h-0.3l0-0.5h0c-0.4,0.3-0.8,0.6-1.3,0.6C133.5,68,133.1,67.7,133.1,67.1z M135.4,67.2V66
		c-1.5,0.2-2,0.5-2,1.1c0,0.5,0.4,0.7,0.8,0.7S134.9,67.6,135.4,67.2z"/>
	<path d="M137,64.6h-0.5v-0.3l0.5,0v-0.8c0-0.7,0.3-1.1,0.9-1.1c0.2,0,0.4,0,0.5,0.1l-0.1,0.3c-0.2-0.1-0.3-0.1-0.4-0.1
		c-0.4,0-0.6,0.3-0.6,0.8v0.8h0.8v0.3h-0.8V68H137V64.6z"/>
	<path d="M138.6,66.2c0-1.2,0.8-1.9,1.6-1.9c0.9,0,1.4,0.6,1.4,1.7c0,0.1,0,0.2,0,0.3h-2.6c0,0.9,0.5,1.6,1.4,1.6
		c0.4,0,0.7-0.1,1-0.3l0.1,0.3c-0.3,0.2-0.6,0.4-1.1,0.4C139.3,68,138.6,67.3,138.6,66.2z M141.2,65.9c0-0.9-0.4-1.4-1.1-1.4
		c-0.6,0-1.2,0.5-1.2,1.4H141.2z"/>
	<path d="M142.5,67v-2.3H142v-0.3l0.6,0l0-1h0.3v1h1v0.3h-1V67c0,0.5,0.1,0.8,0.6,0.8c0.1,0,0.3-0.1,0.5-0.1l0.1,0.3
		c-0.2,0.1-0.4,0.1-0.6,0.1C142.7,68,142.5,67.6,142.5,67z"/>
	<path d="M144.3,69.5l0.1-0.3c0.1,0,0.2,0.1,0.3,0.1c0.4,0,0.7-0.4,0.9-1l0.1-0.3l-1.5-3.7h0.4l0.9,2.3c0.1,0.3,0.3,0.7,0.4,1h0
		c0.1-0.3,0.2-0.7,0.3-1l0.8-2.3h0.3l-1.4,4.1c-0.2,0.6-0.6,1.2-1.2,1.2C144.5,69.6,144.4,69.6,144.3,69.5z"/>
	<path d="M149.3,65.5c0-1.6,0.9-2.6,2.1-2.6c0.6,0,1,0.3,1.3,0.6l-0.2,0.2c-0.3-0.3-0.6-0.5-1.1-0.5c-1.1,0-1.8,0.9-1.8,2.2
		c0,1.4,0.7,2.3,1.7,2.3c0.5,0,0.9-0.2,1.3-0.6l0.2,0.2c-0.4,0.4-0.8,0.7-1.5,0.7C150.1,68,149.3,67,149.3,65.5z"/>
	<path d="M153.5,66.2c0-1.2,0.8-1.9,1.6-1.9c0.9,0,1.6,0.7,1.6,1.9c0,1.2-0.8,1.9-1.6,1.9C154.2,68,153.5,67.4,153.5,66.2z
		 M156.4,66.2c0-1-0.5-1.6-1.3-1.6c-0.7,0-1.3,0.7-1.3,1.6c0,0.9,0.5,1.6,1.3,1.6C155.8,67.8,156.4,67.1,156.4,66.2z"/>
	<path d="M157.8,66.7v-2.3h0.3v2.3c0,0.8,0.2,1.1,0.8,1.1c0.4,0,0.7-0.2,1.2-0.7v-2.7h0.3V68h-0.3l0-0.6h0c-0.4,0.4-0.7,0.7-1.2,0.7
		C158.1,68,157.8,67.6,157.8,66.7z"/>
	<path d="M161.8,64.4h0.3l0,0.6h0c0.4-0.4,0.7-0.6,1.2-0.6c0.7,0,1.1,0.5,1.1,1.4V68h-0.3v-2.3c0-0.8-0.2-1.1-0.8-1.1
		c-0.4,0-0.7,0.2-1.2,0.7V68h-0.3V64.4z"/>
	<path d="M165.5,66.2c0-1.2,0.8-1.9,1.6-1.9c0.5,0,0.8,0.2,1.1,0.4l-0.2,0.2c-0.2-0.2-0.5-0.4-0.9-0.4c-0.7,0-1.3,0.7-1.3,1.6
		c0,0.9,0.5,1.6,1.3,1.6c0.4,0,0.7-0.2,1-0.4l0.2,0.2c-0.3,0.3-0.7,0.5-1.1,0.5C166.2,68,165.5,67.4,165.5,66.2z"/>
	<path d="M169,63.2c0-0.2,0.1-0.3,0.3-0.3s0.3,0.1,0.3,0.3c0,0.2-0.1,0.3-0.3,0.3S169,63.4,169,63.2z M169.1,64.4h0.3V68h-0.3V64.4z
		"/>
	<path d="M170.8,67.5v-4.9h0.3v5c0,0.2,0.1,0.2,0.2,0.2c0,0,0.1,0,0.1,0l0.1,0.3c-0.1,0-0.1,0-0.2,0C171,68,170.8,67.9,170.8,67.5z"
		/>
	<path d="M172.2,65.9h1.7v0.3h-1.7V65.9z"/>
	<path d="M176.1,66.2c0-1.2,0.8-1.9,1.6-1.9c0.5,0,0.8,0.2,1.1,0.4l-0.2,0.2c-0.2-0.2-0.5-0.4-0.9-0.4c-0.7,0-1.3,0.7-1.3,1.6
		c0,0.9,0.5,1.6,1.3,1.6c0.4,0,0.7-0.2,1-0.4l0.2,0.2c-0.3,0.3-0.7,0.5-1.1,0.5C176.8,68,176.1,67.4,176.1,66.2z"/>
	<path d="M179.7,62.6h0.3v2.4c0.4-0.4,0.8-0.7,1.2-0.7c0.7,0,1.1,0.5,1.1,1.4V68h-0.3v-2.3c0-0.8-0.2-1.1-0.8-1.1
		c-0.4,0-0.7,0.2-1.2,0.7V68h-0.3V62.6z"/>
	<path d="M183.4,67.1c0-0.8,0.7-1.2,2.3-1.4c0-0.5-0.1-1.1-0.9-1.1c-0.5,0-0.9,0.2-1.1,0.4l-0.1-0.2c0.3-0.2,0.8-0.5,1.3-0.5
		c0.8,0,1.1,0.6,1.1,1.4V68h-0.3l0-0.5h0c-0.4,0.3-0.8,0.6-1.3,0.6C183.9,68,183.4,67.7,183.4,67.1z M185.8,67.2V66
		c-1.5,0.2-2,0.5-2,1.1c0,0.5,0.4,0.7,0.8,0.7S185.3,67.6,185.8,67.2z"/>
	<path d="M187.3,63.2c0-0.2,0.1-0.3,0.3-0.3s0.3,0.1,0.3,0.3c0,0.2-0.1,0.3-0.3,0.3S187.3,63.4,187.3,63.2z M187.4,64.4h0.3V68h-0.3
		V64.4z"/>
	<path d="M189.1,64.4h0.3l0,0.7h0c0.2-0.4,0.6-0.8,1-0.8c0.1,0,0.2,0,0.4,0.1l-0.1,0.3c-0.1,0-0.2-0.1-0.3-0.1c-0.3,0-0.7,0.2-1,0.9
		V68h-0.3V64.4z"/>
	<path d="M191.1,66.2c0-1.2,0.8-1.9,1.6-1.9c0.9,0,1.4,0.6,1.4,1.7c0,0.1,0,0.2,0,0.3h-2.6c0,0.9,0.5,1.6,1.4,1.6
		c0.4,0,0.7-0.1,1-0.3l0.1,0.3c-0.3,0.2-0.6,0.4-1.1,0.4C191.8,68,191.1,67.3,191.1,66.2z M193.7,65.9c0-0.9-0.4-1.4-1.1-1.4
		c-0.6,0-1.2,0.5-1.2,1.4H193.7z"/>
	<path d="M194.7,66.2c0-1.2,0.7-1.9,1.6-1.9c0.4,0,0.7,0.2,1.1,0.4l0-0.7v-1.5h0.3V68h-0.3l0-0.5h0c-0.3,0.3-0.7,0.6-1.2,0.6
		C195.3,68,194.7,67.4,194.7,66.2z M197.4,67.2V65c-0.4-0.3-0.7-0.5-1.1-0.5c-0.7,0-1.3,0.7-1.3,1.6c0,1,0.4,1.6,1.2,1.6
		C196.7,67.8,197,67.5,197.4,67.2z"/>
	<path d="M200.9,67.6L200.9,67.6l-0.1,0.4h-0.3v-5.4h0.3v1.6l0,0.7c0.4-0.3,0.8-0.6,1.2-0.6c1,0,1.4,0.7,1.4,1.8
		c0,1.2-0.7,1.9-1.6,1.9C201.7,68,201.3,67.9,200.9,67.6z M203.3,66.1c0-0.9-0.3-1.5-1.1-1.5c-0.4,0-0.8,0.2-1.2,0.6v2.1
		c0.4,0.3,0.8,0.5,1.1,0.5C202.7,67.8,203.3,67.1,203.3,66.1z"/>
	<path d="M204.2,69.5l0.1-0.3c0.1,0,0.2,0.1,0.3,0.1c0.4,0,0.7-0.4,0.9-1l0.1-0.3l-1.5-3.7h0.4l0.9,2.3c0.1,0.3,0.3,0.7,0.4,1h0
		c0.1-0.3,0.2-0.7,0.3-1l0.8-2.3h0.3l-1.4,4.1c-0.2,0.6-0.6,1.2-1.2,1.2C204.4,69.6,204.3,69.6,204.2,69.5z"/>
	<path d="M209.2,65.5c0-1.6,0.9-2.6,2.1-2.6c0.6,0,1,0.3,1.3,0.6l-0.2,0.2c-0.3-0.3-0.6-0.5-1.1-0.5c-1.1,0-1.8,0.9-1.8,2.2
		c0,1.4,0.7,2.3,1.7,2.3c0.5,0,0.9-0.2,1.3-0.6l0.2,0.2c-0.4,0.4-0.8,0.7-1.5,0.7C210,68,209.2,67,209.2,65.5z"/>
	<path d="M213.7,63h2.7v0.3h-2.4v1.9h2v0.3h-2v2.2h2.4V68h-2.8V63z"/>
	<path d="M217.3,65.5c0-1.6,0.8-2.5,2-2.5c1.2,0,2,1,2,2.5c0,1.6-0.8,2.6-2,2.6C218.1,68,217.3,67,217.3,65.5z M221,65.5
		c0-1.4-0.7-2.2-1.7-2.2s-1.7,0.9-1.7,2.2c0,1.4,0.7,2.3,1.7,2.3S221,66.8,221,65.5z"/>
</g>
<g>
	<path d="M97.5,88.6H98l1,2.9c0.1,0.4,0.3,0.7,0.4,1.1h0c0.1-0.4,0.2-0.7,0.4-1.1l1-2.9h0.5v4.9H101v-3.3c0-0.4,0-0.9,0-1.3h0
		l-0.4,1.1L99.6,93h-0.3l-1.1-2.9L97.8,89h0c0,0.4,0,0.9,0,1.3v3.3h-0.3V88.6z"/>
	<path d="M102.5,91.8c0-1.2,0.8-1.9,1.6-1.9c0.9,0,1.6,0.7,1.6,1.9c0,1.2-0.8,1.9-1.6,1.9C103.2,93.6,102.5,92.9,102.5,91.8z
		 M105.4,91.8c0-1-0.5-1.6-1.3-1.6c-0.7,0-1.3,0.7-1.3,1.6c0,0.9,0.5,1.6,1.3,1.6C104.8,93.3,105.4,92.7,105.4,91.8z"/>
	<path d="M106.8,89.9h0.3l0,0.6h0c0.4-0.4,0.7-0.6,1.2-0.6c0.7,0,1.1,0.5,1.1,1.4v2.3h-0.3v-2.3c0-0.8-0.2-1.1-0.8-1.1
		c-0.4,0-0.7,0.2-1.2,0.7v2.7h-0.3V89.9z"/>
	<path d="M110.8,92.6v-2.3h-0.6V90l0.6,0l0-1h0.3v1h1v0.3h-1v2.3c0,0.5,0.1,0.8,0.6,0.8c0.1,0,0.3-0.1,0.5-0.1l0.1,0.3
		c-0.2,0.1-0.4,0.1-0.6,0.1C111.1,93.6,110.8,93.2,110.8,92.6z"/>
	<path d="M113.1,88.2h0.3v2.4c0.4-0.4,0.8-0.7,1.2-0.7c0.7,0,1.1,0.5,1.1,1.4v2.3h-0.3v-2.3c0-0.8-0.2-1.1-0.8-1.1
		c-0.4,0-0.7,0.2-1.2,0.7v2.7h-0.3V88.2z"/>
	<path d="M117.1,93.1v-4.9h0.3v5c0,0.2,0.1,0.2,0.2,0.2c0,0,0.1,0,0.1,0l0.1,0.3c-0.1,0-0.1,0-0.2,0
		C117.2,93.6,117.1,93.5,117.1,93.1z"/>
	<path d="M118.3,95.1l0.1-0.3c0.1,0,0.2,0.1,0.3,0.1c0.4,0,0.7-0.4,0.9-1l0.1-0.3l-1.5-3.7h0.4l0.9,2.3c0.1,0.3,0.3,0.7,0.4,1h0
		c0.1-0.3,0.2-0.7,0.3-1l0.8-2.3h0.3l-1.4,4.1c-0.2,0.6-0.6,1.2-1.2,1.2C118.6,95.2,118.4,95.2,118.3,95.1z"/>
	<path d="M123.7,88.6h2.7v0.3H124v1.9h2v0.3h-2v2.2h2.4v0.3h-2.8V88.6z"/>
	<path d="M128,91.7l-1.1-1.7h0.4l0.6,0.9c0.1,0.2,0.2,0.4,0.4,0.6h0c0.1-0.2,0.2-0.4,0.4-0.6l0.6-0.9h0.3l-1.1,1.7l1.2,1.9h-0.4
		l-0.6-1c-0.1-0.2-0.3-0.5-0.4-0.7h0c-0.1,0.2-0.3,0.4-0.4,0.7l-0.6,1h-0.4L128,91.7z"/>
	<path d="M130,91.8c0-1.2,0.8-1.9,1.6-1.9c0.5,0,0.8,0.2,1.1,0.4l-0.2,0.2c-0.2-0.2-0.5-0.4-0.9-0.4c-0.7,0-1.3,0.7-1.3,1.6
		c0,0.9,0.5,1.6,1.3,1.6c0.4,0,0.7-0.2,1-0.4l0.2,0.2c-0.3,0.3-0.7,0.5-1.1,0.5C130.7,93.6,130,92.9,130,91.8z"/>
	<path d="M133.2,91.8c0-1.2,0.8-1.9,1.6-1.9c0.9,0,1.6,0.7,1.6,1.9c0,1.2-0.8,1.9-1.6,1.9C134,93.6,133.2,92.9,133.2,91.8z
		 M136.1,91.8c0-1-0.5-1.6-1.3-1.6c-0.7,0-1.3,0.7-1.3,1.6c0,0.9,0.5,1.6,1.3,1.6C135.6,93.3,136.1,92.7,136.1,91.8z"/>
	<path d="M139,89.9h0.3l0,0.6h0c0.3-0.4,0.7-0.6,1.1-0.6c0.6,0,0.9,0.3,1,0.7c0.4-0.5,0.8-0.7,1.2-0.7c0.7,0,1.1,0.5,1.1,1.4v2.3
		h-0.3v-2.3c0-0.8-0.3-1.1-0.8-1.1c-0.3,0-0.7,0.2-1.1,0.7v2.7h-0.3v-2.3c0-0.8-0.3-1.1-0.8-1.1c-0.3,0-0.7,0.2-1.1,0.7v2.7H139
		V89.9z"/>
	<path d="M144.8,91.8c0-1.2,0.8-1.9,1.6-1.9c0.9,0,1.4,0.6,1.4,1.7c0,0.1,0,0.2,0,0.3h-2.6c0,0.9,0.5,1.6,1.4,1.6
		c0.4,0,0.7-0.1,1-0.3l0.1,0.3c-0.3,0.2-0.6,0.4-1.1,0.4C145.6,93.6,144.8,92.9,144.8,91.8z M147.5,91.5c0-0.9-0.4-1.4-1.1-1.4
		c-0.6,0-1.2,0.5-1.2,1.4H147.5z"/>
	<path d="M148.7,89.9h0.3l0,0.6h0c0.3-0.4,0.7-0.6,1.1-0.6c0.6,0,0.9,0.3,1,0.7c0.4-0.5,0.8-0.7,1.2-0.7c0.7,0,1.1,0.5,1.1,1.4v2.3
		h-0.3v-2.3c0-0.8-0.3-1.1-0.8-1.1c-0.3,0-0.7,0.2-1.1,0.7v2.7H151v-2.3c0-0.8-0.3-1.1-0.8-1.1c-0.3,0-0.7,0.2-1.1,0.7v2.7h-0.3
		V89.9z"/>
	<path d="M155.2,93.2L155.2,93.2l-0.1,0.4h-0.3v-5.4h0.3v1.6l0,0.7c0.4-0.3,0.8-0.6,1.2-0.6c1,0,1.4,0.7,1.4,1.8
		c0,1.2-0.7,1.9-1.6,1.9C155.9,93.6,155.5,93.5,155.2,93.2z M157.5,91.7c0-0.9-0.3-1.5-1.1-1.5c-0.4,0-0.8,0.2-1.2,0.6v2.1
		c0.4,0.3,0.8,0.5,1.1,0.5C157,93.3,157.5,92.7,157.5,91.7z"/>
	<path d="M158.6,91.8c0-1.2,0.8-1.9,1.6-1.9c0.9,0,1.4,0.6,1.4,1.7c0,0.1,0,0.2,0,0.3h-2.6c0,0.9,0.5,1.6,1.4,1.6
		c0.4,0,0.7-0.1,1-0.3l0.1,0.3c-0.3,0.2-0.6,0.4-1.1,0.4C159.3,93.6,158.6,92.9,158.6,91.8z M161.2,91.5c0-0.9-0.4-1.4-1.1-1.4
		c-0.6,0-1.2,0.5-1.2,1.4H161.2z"/>
	<path d="M162.5,89.9h0.3l0,0.7h0c0.2-0.4,0.6-0.8,1-0.8c0.1,0,0.2,0,0.4,0.1l-0.1,0.3c-0.1,0-0.2-0.1-0.3-0.1c-0.3,0-0.7,0.2-1,0.9
		v2.5h-0.3V89.9z"/>
	<path d="M166,93.1l0.2-0.2c0.3,0.3,0.6,0.5,1.1,0.5c0.6,0,0.9-0.3,0.9-0.7c0-0.5-0.5-0.6-0.9-0.8c-0.5-0.2-1.1-0.4-1.1-1
		c0-0.5,0.4-1,1.2-1c0.4,0,0.8,0.2,1,0.4l-0.2,0.2c-0.2-0.2-0.5-0.3-0.9-0.3c-0.6,0-0.8,0.3-0.8,0.7c0,0.4,0.4,0.6,0.8,0.7
		c0.6,0.2,1.2,0.4,1.2,1.1c0,0.5-0.4,1-1.2,1C166.7,93.6,166.3,93.4,166,93.1z"/>
	<path d="M169.3,88.8c0-0.2,0.1-0.3,0.3-0.3s0.3,0.1,0.3,0.3c0,0.2-0.1,0.3-0.3,0.3S169.3,89,169.3,88.8z M169.4,89.9h0.3v3.6h-0.3
		V89.9z"/>
	<path d="M171.2,92.6v-2.3h-0.6V90l0.6,0l0-1h0.3v1h1v0.3h-1v2.3c0,0.5,0.1,0.8,0.6,0.8c0.1,0,0.3-0.1,0.5-0.1l0.1,0.3
		c-0.2,0.1-0.4,0.1-0.6,0.1C171.4,93.6,171.2,93.2,171.2,92.6z"/>
	<path d="M173.1,91.8c0-1.2,0.8-1.9,1.6-1.9c0.9,0,1.4,0.6,1.4,1.7c0,0.1,0,0.2,0,0.3h-2.6c0,0.9,0.5,1.6,1.4,1.6
		c0.4,0,0.7-0.1,1-0.3l0.1,0.3c-0.3,0.2-0.6,0.4-1.1,0.4C173.9,93.6,173.1,92.9,173.1,91.8z M175.8,91.5c0-0.9-0.4-1.4-1.1-1.4
		c-0.6,0-1.2,0.5-1.2,1.4H175.8z"/>
	<path d="M177.9,89.9h0.4l0.8,2.3c0.1,0.3,0.2,0.7,0.4,1h0c0.1-0.3,0.2-0.7,0.4-1l0.8-2.3h0.3l-1.3,3.6h-0.4L177.9,89.9z"/>
	<path d="M181.7,88.8c0-0.2,0.1-0.3,0.3-0.3s0.3,0.1,0.3,0.3c0,0.2-0.1,0.3-0.3,0.3S181.7,89,181.7,88.8z M181.8,89.9h0.3v3.6h-0.3
		V89.9z"/>
	<path d="M183.1,93.1l0.2-0.2c0.3,0.3,0.6,0.5,1.1,0.5c0.6,0,0.9-0.3,0.9-0.7c0-0.5-0.5-0.6-0.9-0.8c-0.5-0.2-1.1-0.4-1.1-1
		c0-0.5,0.4-1,1.2-1c0.4,0,0.8,0.2,1,0.4l-0.2,0.2c-0.2-0.2-0.5-0.3-0.9-0.3c-0.6,0-0.8,0.3-0.8,0.7c0,0.4,0.4,0.6,0.8,0.7
		c0.6,0.2,1.2,0.4,1.2,1.1c0,0.5-0.4,1-1.2,1C183.9,93.6,183.4,93.4,183.1,93.1z"/>
	<path d="M186.4,88.8c0-0.2,0.1-0.3,0.3-0.3s0.3,0.1,0.3,0.3c0,0.2-0.1,0.3-0.3,0.3S186.4,89,186.4,88.8z M186.6,89.9h0.3v3.6h-0.3
		V89.9z"/>
	<path d="M188.4,92.6v-2.3h-0.6V90l0.6,0l0-1h0.3v1h1v0.3h-1v2.3c0,0.5,0.1,0.8,0.6,0.8c0.1,0,0.3-0.1,0.5-0.1l0.1,0.3
		c-0.2,0.1-0.4,0.1-0.6,0.1C188.6,93.6,188.4,93.2,188.4,92.6z"/>
	<path d="M190.1,93.1l0.2-0.2c0.3,0.3,0.6,0.5,1.1,0.5c0.6,0,0.9-0.3,0.9-0.7c0-0.5-0.5-0.6-0.9-0.8c-0.5-0.2-1.1-0.4-1.1-1
		c0-0.5,0.4-1,1.2-1c0.4,0,0.8,0.2,1,0.4l-0.2,0.2c-0.2-0.2-0.5-0.3-0.9-0.3c-0.6,0-0.8,0.3-0.8,0.7c0,0.4,0.4,0.6,0.8,0.7
		c0.6,0.2,1.2,0.4,1.2,1.1c0,0.5-0.4,1-1.2,1C190.9,93.6,190.4,93.4,190.1,93.1z"/>
</g>
<g>
	<path d="M97.2,115.1c0-1.6,0.9-2.6,2.1-2.6c0.6,0,1,0.3,1.3,0.6l-0.2,0.2c-0.3-0.3-0.6-0.5-1.1-0.5c-1.1,0-1.8,0.9-1.8,2.2
		c0,1.4,0.7,2.3,1.7,2.3c0.5,0,0.9-0.2,1.3-0.6l0.2,0.2c-0.4,0.4-0.8,0.7-1.5,0.7C98,117.6,97.2,116.6,97.2,115.1z"/>
	<path d="M101.7,114h0.3l0,0.7h0c0.2-0.4,0.6-0.8,1-0.8c0.1,0,0.2,0,0.4,0.1l-0.1,0.3c-0.1,0-0.2-0.1-0.3-0.1c-0.3,0-0.7,0.2-1,0.9
		v2.5h-0.3V114z"/>
	<path d="M104,112.8c0-0.2,0.1-0.3,0.3-0.3s0.3,0.1,0.3,0.3c0,0.2-0.1,0.3-0.3,0.3S104,113,104,112.8z M104.1,114h0.3v3.6h-0.3V114z
		"/>
	<path d="M105.9,116.6v-2.3h-0.6V114l0.6,0l0-1h0.3v1h1v0.3h-1v2.3c0,0.5,0.1,0.8,0.6,0.8c0.1,0,0.3-0.1,0.5-0.1l0.1,0.3
		c-0.2,0.1-0.4,0.1-0.6,0.1C106.1,117.6,105.9,117.2,105.9,116.6z"/>
	<path d="M108,112.8c0-0.2,0.1-0.3,0.3-0.3s0.3,0.1,0.3,0.3c0,0.2-0.1,0.3-0.3,0.3S108,113,108,112.8z M108.1,114h0.3v3.6h-0.3V114z
		"/>
	<path d="M109.6,115.8c0-1.2,0.8-1.9,1.6-1.9c0.5,0,0.8,0.2,1.1,0.4l-0.2,0.2c-0.2-0.2-0.5-0.4-0.9-0.4c-0.7,0-1.3,0.7-1.3,1.6
		c0,0.9,0.5,1.6,1.3,1.6c0.4,0,0.7-0.2,1-0.4l0.2,0.2c-0.3,0.3-0.7,0.5-1.1,0.5C110.3,117.6,109.6,117,109.6,115.8z"/>
	<path d="M112.9,116.7c0-0.8,0.7-1.2,2.3-1.4c0-0.5-0.1-1.1-0.9-1.1c-0.5,0-0.9,0.2-1.1,0.4l-0.1-0.2c0.3-0.2,0.8-0.5,1.3-0.5
		c0.8,0,1.1,0.6,1.1,1.4v2.3h-0.3l0-0.5h0c-0.4,0.3-0.8,0.6-1.3,0.6C113.4,117.6,112.9,117.3,112.9,116.7z M115.2,116.8v-1.2
		c-1.5,0.2-2,0.5-2,1.1c0,0.5,0.4,0.7,0.8,0.7S114.8,117.2,115.2,116.8z"/>
	<path d="M116.8,117.1v-4.9h0.3v5c0,0.2,0.1,0.2,0.2,0.2c0,0,0.1,0,0.1,0l0.1,0.3c-0.1,0-0.1,0-0.2,0
		C117,117.6,116.8,117.5,116.8,117.1z"/>
	<path d="M119.8,115.8c0-1.2,0.8-1.9,1.6-1.9c0.5,0,0.8,0.2,1.1,0.4l-0.2,0.2c-0.2-0.2-0.5-0.4-0.9-0.4c-0.7,0-1.3,0.7-1.3,1.6
		c0,0.9,0.5,1.6,1.3,1.6c0.4,0,0.7-0.2,1-0.4l0.2,0.2c-0.3,0.3-0.7,0.5-1.1,0.5C120.5,117.6,119.8,117,119.8,115.8z"/>
	<path d="M123.1,115.8c0-1.2,0.8-1.9,1.6-1.9c0.9,0,1.6,0.7,1.6,1.9c0,1.2-0.8,1.9-1.6,1.9C123.8,117.6,123.1,117,123.1,115.8z
		 M125.9,115.8c0-1-0.5-1.6-1.3-1.6c-0.7,0-1.3,0.7-1.3,1.6c0,0.9,0.5,1.6,1.3,1.6C125.4,117.4,125.9,116.7,125.9,115.8z"/>
	<path d="M127.4,114h0.3l0,0.6h0c0.4-0.4,0.7-0.6,1.2-0.6c0.7,0,1.1,0.5,1.1,1.4v2.3h-0.3v-2.3c0-0.8-0.2-1.1-0.8-1.1
		c-0.4,0-0.7,0.2-1.2,0.7v2.7h-0.3V114z"/>
	<path d="M131.4,116.6v-2.3h-0.6V114l0.6,0l0-1h0.3v1h1v0.3h-1v2.3c0,0.5,0.1,0.8,0.6,0.8c0.1,0,0.3-0.1,0.5-0.1l0.1,0.3
		c-0.2,0.1-0.4,0.1-0.6,0.1C131.6,117.6,131.4,117.2,131.4,116.6z"/>
	<path d="M133.3,115.8c0-1.2,0.8-1.9,1.6-1.9c0.9,0,1.6,0.7,1.6,1.9c0,1.2-0.8,1.9-1.6,1.9C134.1,117.6,133.3,117,133.3,115.8z
		 M136.2,115.8c0-1-0.5-1.6-1.3-1.6c-0.7,0-1.3,0.7-1.3,1.6c0,0.9,0.5,1.6,1.3,1.6C135.7,117.4,136.2,116.7,136.2,115.8z"/>
	<path d="M137.6,117.1v-4.9h0.3v5c0,0.2,0.1,0.2,0.2,0.2c0,0,0.1,0,0.1,0l0.1,0.3c-0.1,0-0.1,0-0.2,0
		C137.8,117.6,137.6,117.5,137.6,117.1z"/>
	<path d="M140.9,114h0.3l0,0.6h0c0.3-0.4,0.7-0.6,1.1-0.6c0.6,0,0.9,0.3,1,0.7c0.4-0.5,0.8-0.7,1.2-0.7c0.7,0,1.1,0.5,1.1,1.4v2.3
		h-0.3v-2.3c0-0.8-0.3-1.1-0.8-1.1c-0.3,0-0.7,0.2-1.1,0.7v2.7h-0.3v-2.3c0-0.8-0.3-1.1-0.8-1.1c-0.3,0-0.7,0.2-1.1,0.7v2.7h-0.3
		V114z"/>
	<path d="M146.8,116.7c0-0.8,0.7-1.2,2.3-1.4c0-0.5-0.1-1.1-0.9-1.1c-0.5,0-0.9,0.2-1.1,0.4l-0.1-0.2c0.3-0.2,0.8-0.5,1.3-0.5
		c0.8,0,1.1,0.6,1.1,1.4v2.3h-0.3l0-0.5h0c-0.4,0.3-0.8,0.6-1.3,0.6C147.2,117.6,146.8,117.3,146.8,116.7z M149.1,116.8v-1.2
		c-1.5,0.2-2,0.5-2,1.1c0,0.5,0.4,0.7,0.8,0.7S148.6,117.2,149.1,116.8z"/>
	<path d="M150.7,114h0.3l0,0.6h0c0.4-0.4,0.7-0.6,1.2-0.6c0.7,0,1.1,0.5,1.1,1.4v2.3H153v-2.3c0-0.8-0.2-1.1-0.8-1.1
		c-0.4,0-0.7,0.2-1.2,0.7v2.7h-0.3V114z"/>
	<path d="M154.4,116.7c0-0.8,0.7-1.2,2.3-1.4c0-0.5-0.1-1.1-0.9-1.1c-0.5,0-0.9,0.2-1.1,0.4l-0.1-0.2c0.3-0.2,0.8-0.5,1.3-0.5
		c0.8,0,1.1,0.6,1.1,1.4v2.3h-0.3l0-0.5h0c-0.4,0.3-0.8,0.6-1.3,0.6C154.9,117.6,154.4,117.3,154.4,116.7z M156.8,116.8v-1.2
		c-1.5,0.2-2,0.5-2,1.1c0,0.5,0.4,0.7,0.8,0.7S156.3,117.2,156.8,116.8z"/>
	<path d="M158.1,118.3c0-0.3,0.2-0.6,0.5-0.9v0c-0.2-0.1-0.3-0.3-0.3-0.6c0-0.3,0.2-0.5,0.4-0.7v0c-0.2-0.2-0.5-0.6-0.5-1
		c0-0.7,0.6-1.3,1.3-1.3c0.2,0,0.4,0,0.5,0.1h1.2v0.3h-0.8c0.2,0.2,0.4,0.5,0.4,0.9c0,0.7-0.5,1.3-1.3,1.3c-0.2,0-0.4-0.1-0.6-0.2
		c-0.2,0.1-0.3,0.3-0.3,0.5c0,0.3,0.1,0.5,0.7,0.5h0.8c0.8,0,1.2,0.3,1.2,0.8c0,0.6-0.7,1.2-1.7,1.2
		C158.6,119.3,158.1,118.9,158.1,118.3z M160.9,118.1c0-0.4-0.3-0.5-0.8-0.5h-0.8c-0.1,0-0.3,0-0.5-0.1c-0.3,0.2-0.5,0.5-0.5,0.8
		c0,0.5,0.4,0.8,1.2,0.8C160.4,119,160.9,118.6,160.9,118.1z M160.4,115.1c0-0.6-0.4-1-0.9-1c-0.5,0-0.9,0.4-0.9,1
		c0,0.6,0.4,1,0.9,1C160,116.1,160.4,115.7,160.4,115.1z"/>
	<path d="M161.6,115.8c0-1.2,0.8-1.9,1.6-1.9c0.9,0,1.4,0.6,1.4,1.7c0,0.1,0,0.2,0,0.3H162c0,0.9,0.5,1.6,1.4,1.6
		c0.4,0,0.7-0.1,1-0.3l0.1,0.3c-0.3,0.2-0.6,0.4-1.1,0.4C162.4,117.6,161.6,116.9,161.6,115.8z M164.3,115.5c0-0.9-0.4-1.4-1.1-1.4
		c-0.6,0-1.2,0.5-1.2,1.4H164.3z"/>
	<path d="M165.6,114h0.3l0,0.6h0c0.3-0.4,0.7-0.6,1.1-0.6c0.6,0,0.9,0.3,1,0.7c0.4-0.5,0.8-0.7,1.2-0.7c0.7,0,1.1,0.5,1.1,1.4v2.3
		H170v-2.3c0-0.8-0.3-1.1-0.8-1.1c-0.3,0-0.7,0.2-1.1,0.7v2.7h-0.3v-2.3c0-0.8-0.3-1.1-0.8-1.1c-0.3,0-0.7,0.2-1.1,0.7v2.7h-0.3V114
		z"/>
	<path d="M171.3,115.8c0-1.2,0.8-1.9,1.6-1.9c0.9,0,1.4,0.6,1.4,1.7c0,0.1,0,0.2,0,0.3h-2.6c0,0.9,0.5,1.6,1.4,1.6
		c0.4,0,0.7-0.1,1-0.3l0.1,0.3c-0.3,0.2-0.6,0.4-1.1,0.4C172.1,117.6,171.3,116.9,171.3,115.8z M174,115.5c0-0.9-0.4-1.4-1.1-1.4
		c-0.6,0-1.2,0.5-1.2,1.4H174z"/>
	<path d="M175.3,114h0.3l0,0.6h0c0.4-0.4,0.7-0.6,1.2-0.6c0.7,0,1.1,0.5,1.1,1.4v2.3h-0.3v-2.3c0-0.8-0.2-1.1-0.8-1.1
		c-0.4,0-0.7,0.2-1.2,0.7v2.7h-0.3V114z"/>
	<path d="M179.3,116.6v-2.3h-0.6V114l0.6,0l0-1h0.3v1h1v0.3h-1v2.3c0,0.5,0.1,0.8,0.6,0.8c0.1,0,0.3-0.1,0.5-0.1l0.1,0.3
		c-0.2,0.1-0.4,0.1-0.6,0.1C179.5,117.6,179.3,117.2,179.3,116.6z"/>
	<path d="M183.2,116.6v-2.3h-0.6V114l0.6,0l0-1h0.3v1h1v0.3h-1v2.3c0,0.5,0.1,0.8,0.6,0.8c0.1,0,0.3-0.1,0.5-0.1l0.1,0.3
		c-0.2,0.1-0.4,0.1-0.6,0.1C183.4,117.6,183.2,117.2,183.2,116.6z"/>
	<path d="M185.4,112.2h0.3v2.4c0.4-0.4,0.8-0.7,1.2-0.7c0.7,0,1.1,0.5,1.1,1.4v2.3h-0.3v-2.3c0-0.8-0.2-1.1-0.8-1.1
		c-0.4,0-0.7,0.2-1.2,0.7v2.7h-0.3V112.2z"/>
	<path d="M189.4,114h0.3l0,0.7h0c0.2-0.4,0.6-0.8,1-0.8c0.1,0,0.2,0,0.4,0.1l-0.1,0.3c-0.1,0-0.2-0.1-0.3-0.1c-0.3,0-0.7,0.2-1,0.9
		v2.5h-0.3V114z"/>
	<path d="M191.4,115.8c0-1.2,0.8-1.9,1.6-1.9c0.9,0,1.6,0.7,1.6,1.9c0,1.2-0.8,1.9-1.6,1.9C192.2,117.6,191.4,117,191.4,115.8z
		 M194.3,115.8c0-1-0.5-1.6-1.3-1.6c-0.7,0-1.3,0.7-1.3,1.6c0,0.9,0.5,1.6,1.3,1.6C193.7,117.4,194.3,116.7,194.3,115.8z"/>
	<path d="M195.7,116.3V114h0.3v2.3c0,0.8,0.2,1.1,0.8,1.1c0.4,0,0.7-0.2,1.2-0.7V114h0.3v3.6H198l0-0.6h0c-0.4,0.4-0.7,0.7-1.2,0.7
		C196,117.6,195.7,117.2,195.7,116.3z"/>
	<path d="M199.4,118.3c0-0.3,0.2-0.6,0.5-0.9v0c-0.2-0.1-0.3-0.3-0.3-0.6c0-0.3,0.2-0.5,0.4-0.7v0c-0.2-0.2-0.5-0.6-0.5-1
		c0-0.7,0.6-1.3,1.3-1.3c0.2,0,0.4,0,0.5,0.1h1.2v0.3h-0.8c0.2,0.2,0.4,0.5,0.4,0.9c0,0.7-0.5,1.3-1.3,1.3c-0.2,0-0.4-0.1-0.6-0.2
		c-0.2,0.1-0.3,0.3-0.3,0.5c0,0.3,0.1,0.5,0.7,0.5h0.8c0.8,0,1.2,0.3,1.2,0.8c0,0.6-0.7,1.2-1.7,1.2
		C200,119.3,199.4,118.9,199.4,118.3z M202.2,118.1c0-0.4-0.3-0.5-0.8-0.5h-0.8c-0.1,0-0.3,0-0.5-0.1c-0.3,0.2-0.5,0.5-0.5,0.8
		c0,0.5,0.4,0.8,1.2,0.8C201.7,119,202.2,118.6,202.2,118.1z M201.7,115.1c0-0.6-0.4-1-0.9-1c-0.5,0-0.9,0.4-0.9,1
		c0,0.6,0.4,1,0.9,1C201.3,116.1,201.7,115.7,201.7,115.1z"/>
	<path d="M203.3,112.2h0.3v2.4c0.4-0.4,0.8-0.7,1.2-0.7c0.7,0,1.1,0.5,1.1,1.4v2.3h-0.3v-2.3c0-0.8-0.2-1.1-0.8-1.1
		c-0.4,0-0.7,0.2-1.2,0.7v2.7h-0.3V112.2z"/>
</g>
<g>
	<path d="M97.2,124.4c0-2,0.8-2.7,1.8-2.7c0.5,0,0.8,0.2,1,0.5l-0.2,0.2c-0.2-0.3-0.5-0.4-0.8-0.4c-0.8,0-1.4,0.6-1.4,2.4
		c0.3-0.4,0.8-0.7,1.2-0.7c0.8,0,1.3,0.5,1.3,1.5c0,0.9-0.6,1.5-1.3,1.5C97.8,126.6,97.2,125.8,97.2,124.4z M97.5,124.7
		c0.1,1,0.5,1.7,1.2,1.7c0.6,0,1-0.5,1-1.2c0-0.7-0.3-1.2-1-1.2C98.3,123.9,97.9,124.1,97.5,124.7z"/>
	<path d="M102.1,126.1l0.2-0.2c0.3,0.3,0.6,0.5,1.1,0.5c0.6,0,0.9-0.3,0.9-0.7c0-0.5-0.5-0.6-0.9-0.8c-0.5-0.2-1.1-0.4-1.1-1
		c0-0.5,0.4-1,1.2-1c0.4,0,0.8,0.2,1,0.4l-0.2,0.2c-0.2-0.2-0.5-0.3-0.9-0.3c-0.6,0-0.8,0.3-0.8,0.7c0,0.4,0.4,0.6,0.8,0.7
		c0.6,0.2,1.2,0.4,1.2,1.1c0,0.5-0.4,1-1.2,1C102.9,126.6,102.4,126.4,102.1,126.1z"/>
	<path d="M105.5,125.3V123h0.3v2.3c0,0.8,0.2,1.1,0.8,1.1c0.4,0,0.7-0.2,1.2-0.7V123h0.3v3.6h-0.3l0-0.6h0c-0.4,0.4-0.7,0.7-1.2,0.7
		C105.9,126.6,105.5,126.2,105.5,125.3z"/>
	<path d="M109.9,126.2L109.9,126.2l-0.1,0.4h-0.3v-5.4h0.3v1.6l0,0.7c0.4-0.3,0.8-0.6,1.2-0.6c1,0,1.4,0.7,1.4,1.8
		c0,1.2-0.7,1.9-1.6,1.9C110.6,126.6,110.2,126.5,109.9,126.2z M112.2,124.7c0-0.9-0.3-1.5-1.1-1.5c-0.4,0-0.8,0.2-1.2,0.6v2.1
		c0.4,0.3,0.8,0.5,1.1,0.5C111.7,126.4,112.2,125.7,112.2,124.7z"/>
	<path d="M113.3,124.5h1.7v0.3h-1.7V124.5z"/>
	<path d="M115.6,124.8c0-1.2,0.8-1.9,1.6-1.9c0.5,0,0.8,0.2,1.1,0.4l-0.2,0.2c-0.2-0.2-0.5-0.4-0.9-0.4c-0.7,0-1.3,0.7-1.3,1.6
		c0,0.9,0.5,1.6,1.3,1.6c0.4,0,0.7-0.2,1-0.4l0.2,0.2c-0.3,0.3-0.7,0.5-1.1,0.5C116.3,126.6,115.6,126,115.6,124.8z"/>
	<path d="M118.9,124.8c0-1.2,0.8-1.9,1.6-1.9c0.9,0,1.6,0.7,1.6,1.9c0,1.2-0.8,1.9-1.6,1.9C119.6,126.6,118.9,126,118.9,124.8z
		 M121.8,124.8c0-1-0.5-1.6-1.3-1.6c-0.7,0-1.3,0.7-1.3,1.6c0,0.9,0.5,1.6,1.3,1.6C121.2,126.4,121.8,125.7,121.8,124.8z"/>
	<path d="M123.2,123h0.3l0,0.6h0c0.3-0.4,0.7-0.6,1.1-0.6c0.6,0,0.9,0.3,1,0.7c0.4-0.5,0.8-0.7,1.2-0.7c0.7,0,1.1,0.5,1.1,1.4v2.3
		h-0.3v-2.3c0-0.8-0.3-1.1-0.8-1.1c-0.3,0-0.7,0.2-1.1,0.7v2.7h-0.3v-2.3c0-0.8-0.3-1.1-0.8-1.1c-0.3,0-0.7,0.2-1.1,0.7v2.7h-0.3
		V123z"/>
	<path d="M129.3,123h0.3l0,0.6h0c0.3-0.4,0.7-0.6,1.1-0.6c0.6,0,0.9,0.3,1,0.7c0.4-0.5,0.8-0.7,1.2-0.7c0.7,0,1.1,0.5,1.1,1.4v2.3
		h-0.3v-2.3c0-0.8-0.3-1.1-0.8-1.1c-0.3,0-0.7,0.2-1.1,0.7v2.7h-0.3v-2.3c0-0.8-0.3-1.1-0.8-1.1c-0.3,0-0.7,0.2-1.1,0.7v2.7h-0.3
		V123z"/>
	<path d="M135.3,121.8c0-0.2,0.1-0.3,0.3-0.3s0.3,0.1,0.3,0.3c0,0.2-0.1,0.3-0.3,0.3S135.3,122,135.3,121.8z M135.4,123h0.3v3.6
		h-0.3V123z"/>
	<path d="M137.2,125.6v-2.3h-0.6V123l0.6,0l0-1h0.3v1h1v0.3h-1v2.3c0,0.5,0.1,0.8,0.6,0.8c0.1,0,0.3-0.1,0.5-0.1l0.1,0.3
		c-0.2,0.1-0.4,0.1-0.6,0.1C137.4,126.6,137.2,126.2,137.2,125.6z"/>
	<path d="M139.4,125.6v-2.3h-0.6V123l0.6,0l0-1h0.3v1h1v0.3h-1v2.3c0,0.5,0.1,0.8,0.6,0.8c0.1,0,0.3-0.1,0.5-0.1l0.1,0.3
		c-0.2,0.1-0.4,0.1-0.6,0.1C139.6,126.6,139.4,126.2,139.4,125.6z"/>
	<path d="M141.2,124.8c0-1.2,0.8-1.9,1.6-1.9c0.9,0,1.4,0.6,1.4,1.7c0,0.1,0,0.2,0,0.3h-2.6c0,0.9,0.5,1.6,1.4,1.6
		c0.4,0,0.7-0.1,1-0.3l0.1,0.3c-0.3,0.2-0.6,0.4-1.1,0.4C142,126.6,141.2,125.9,141.2,124.8z M143.9,124.5c0-0.9-0.4-1.4-1.1-1.4
		c-0.6,0-1.2,0.5-1.2,1.4H143.9z"/>
	<path d="M144.9,124.8c0-1.2,0.8-1.9,1.6-1.9c0.9,0,1.4,0.6,1.4,1.7c0,0.1,0,0.2,0,0.3h-2.6c0,0.9,0.5,1.6,1.4,1.6
		c0.4,0,0.7-0.1,1-0.3l0.1,0.3c-0.3,0.2-0.6,0.4-1.1,0.4C145.6,126.6,144.9,125.9,144.9,124.8z M147.5,124.5c0-0.9-0.4-1.4-1.1-1.4
		c-0.6,0-1.2,0.5-1.2,1.4H147.5z"/>
	<path d="M148.3,126.1l0.2-0.2c0.3,0.3,0.6,0.5,1.1,0.5c0.6,0,0.9-0.3,0.9-0.7c0-0.5-0.5-0.6-0.9-0.8c-0.5-0.2-1.1-0.4-1.1-1
		c0-0.5,0.4-1,1.2-1c0.4,0,0.8,0.2,1,0.4l-0.2,0.2c-0.2-0.2-0.5-0.3-0.9-0.3c-0.6,0-0.8,0.3-0.8,0.7c0,0.4,0.4,0.6,0.8,0.7
		c0.6,0.2,1.2,0.4,1.2,1.1c0,0.5-0.4,1-1.2,1C149.1,126.6,148.7,126.4,148.3,126.1z"/>
</g>
<g>
	<path d="M97,144h0.4l0.6,2.9c0.1,0.5,0.2,1.1,0.3,1.6h0c0.1-0.5,0.2-1.1,0.4-1.6l0.8-2.9h0.4l0.8,2.9c0.1,0.5,0.3,1.1,0.4,1.6h0
		c0.1-0.5,0.2-1.1,0.3-1.6l0.6-2.9h0.3l-1.1,4.9h-0.4l-0.9-3.4c-0.1-0.4-0.2-0.7-0.3-1.1h0c-0.1,0.4-0.2,0.7-0.3,1.1l-0.9,3.4h-0.4
		L97,144z"/>
	<path d="M102.9,147.2c0-1.2,0.8-1.9,1.6-1.9c0.9,0,1.6,0.7,1.6,1.9c0,1.2-0.8,1.9-1.6,1.9C103.7,149.1,102.9,148.4,102.9,147.2z
		 M105.8,147.2c0-1-0.5-1.6-1.3-1.6c-0.7,0-1.3,0.7-1.3,1.6c0,0.9,0.5,1.6,1.3,1.6C105.3,148.8,105.8,148.1,105.8,147.2z"/>
	<path d="M107.3,145.4h0.3l0,0.7h0c0.2-0.4,0.6-0.8,1-0.8c0.1,0,0.2,0,0.4,0.1l-0.1,0.3c-0.1,0-0.2-0.1-0.3-0.1
		c-0.3,0-0.7,0.2-1,0.9v2.5h-0.3V145.4z"/>
	<path d="M109.6,143.6h0.3v4h0l1.8-2.2h0.4l-1.2,1.4l1.4,2.2H112l-1.2-1.9L110,148v1h-0.3V143.6z"/>
	<path d="M114.6,145.4h0.3l0,0.5h0c0.4-0.3,0.8-0.5,1.2-0.5c1,0,1.4,0.7,1.4,1.8c0,1.2-0.7,1.9-1.6,1.9c-0.3,0-0.7-0.2-1.1-0.4v2
		h-0.3V145.4z M117.3,147.1c0-0.9-0.3-1.5-1.1-1.5c-0.4,0-0.7,0.2-1.2,0.6v2.1c0.4,0.3,0.8,0.5,1.1,0.5
		C116.7,148.8,117.3,148.1,117.3,147.1z"/>
	<path d="M118.7,148.5v-4.9h0.3v5c0,0.2,0.1,0.2,0.2,0.2c0,0,0.1,0,0.1,0l0.1,0.3c-0.1,0-0.1,0-0.2,0
		C118.8,149.1,118.7,148.9,118.7,148.5z"/>
	<path d="M120.2,148.1c0-0.8,0.7-1.2,2.3-1.4c0-0.5-0.1-1.1-0.9-1.1c-0.5,0-0.9,0.2-1.1,0.4l-0.1-0.2c0.3-0.2,0.8-0.5,1.3-0.5
		c0.8,0,1.1,0.6,1.1,1.4v2.3h-0.3l0-0.5h0c-0.4,0.3-0.8,0.6-1.3,0.6C120.7,149.1,120.2,148.7,120.2,148.1z M122.5,148.2V147
		c-1.5,0.2-2,0.5-2,1.1c0,0.5,0.4,0.7,0.8,0.7S122.1,148.6,122.5,148.2z"/>
	<path d="M123.9,147.2c0-1.2,0.8-1.9,1.6-1.9c0.5,0,0.8,0.2,1.1,0.4l-0.2,0.2c-0.2-0.2-0.5-0.4-0.9-0.4c-0.7,0-1.3,0.7-1.3,1.6
		c0,0.9,0.5,1.6,1.3,1.6c0.4,0,0.7-0.2,1-0.4l0.2,0.2c-0.3,0.3-0.7,0.5-1.1,0.5C124.6,149.1,123.9,148.4,123.9,147.2z"/>
	<path d="M127.1,147.2c0-1.2,0.8-1.9,1.6-1.9c0.9,0,1.4,0.6,1.4,1.7c0,0.1,0,0.2,0,0.3h-2.6c0,0.9,0.5,1.6,1.4,1.6
		c0.4,0,0.7-0.1,1-0.3l0.1,0.3c-0.3,0.2-0.6,0.4-1.1,0.4C127.8,149.1,127.1,148.4,127.1,147.2z M129.7,146.9c0-0.9-0.4-1.4-1.1-1.4
		c-0.6,0-1.2,0.5-1.2,1.4H129.7z"/>
	<path d="M132.2,148.3l0.2-0.2c0.4,0.4,0.9,0.7,1.4,0.7c0.8,0,1.2-0.4,1.2-1c0-0.6-0.4-0.8-0.9-1l-0.8-0.3c-0.4-0.2-1-0.5-1-1.2
		c0-0.7,0.6-1.2,1.4-1.2c0.6,0,1.1,0.3,1.4,0.6l-0.2,0.2c-0.3-0.3-0.7-0.5-1.2-0.5c-0.7,0-1.1,0.3-1.1,0.9c0,0.6,0.5,0.8,0.9,1
		l0.8,0.3c0.6,0.2,1,0.6,1,1.3c0,0.8-0.6,1.3-1.6,1.3C133.1,149.1,132.6,148.7,132.2,148.3z"/>
	<path d="M136.2,148.1c0-0.8,0.7-1.2,2.3-1.4c0-0.5-0.1-1.1-0.9-1.1c-0.5,0-0.9,0.2-1.1,0.4l-0.1-0.2c0.3-0.2,0.8-0.5,1.3-0.5
		c0.8,0,1.1,0.6,1.1,1.4v2.3h-0.3l0-0.5h0c-0.4,0.3-0.8,0.6-1.3,0.6C136.6,149.1,136.2,148.7,136.2,148.1z M138.5,148.2V147
		c-1.5,0.2-2,0.5-2,1.1c0,0.5,0.4,0.7,0.8,0.7S138.1,148.6,138.5,148.2z"/>
	<path d="M140.2,145.6h-0.5v-0.3l0.5,0v-0.8c0-0.7,0.3-1.1,0.9-1.1c0.2,0,0.4,0,0.5,0.1l-0.1,0.3c-0.2-0.1-0.3-0.1-0.4-0.1
		c-0.4,0-0.6,0.3-0.6,0.8v0.8h0.8v0.3h-0.8v3.3h-0.3V145.6z"/>
	<path d="M141.7,147.2c0-1.2,0.8-1.9,1.6-1.9c0.9,0,1.4,0.6,1.4,1.7c0,0.1,0,0.2,0,0.3h-2.6c0,0.9,0.5,1.6,1.4,1.6
		c0.4,0,0.7-0.1,1-0.3l0.1,0.3c-0.3,0.2-0.6,0.4-1.1,0.4C142.5,149.1,141.7,148.4,141.7,147.2z M144.4,146.9c0-0.9-0.4-1.4-1.1-1.4
		c-0.6,0-1.2,0.5-1.2,1.4H144.4z"/>
	<path d="M145.7,148v-2.3h-0.6v-0.3l0.6,0l0-1h0.3v1h1v0.3h-1v2.3c0,0.5,0.1,0.8,0.6,0.8c0.1,0,0.3-0.1,0.5-0.1l0.1,0.3
		c-0.2,0.1-0.4,0.1-0.6,0.1C145.9,149.1,145.7,148.6,145.7,148z"/>
	<path d="M147.4,150.5l0.1-0.3c0.1,0,0.2,0.1,0.3,0.1c0.4,0,0.7-0.4,0.9-1l0.1-0.3l-1.5-3.7h0.4l0.9,2.3c0.1,0.3,0.3,0.7,0.4,1h0
		c0.1-0.3,0.2-0.7,0.3-1l0.8-2.3h0.3l-1.4,4.1c-0.2,0.6-0.6,1.2-1.2,1.2C147.6,150.6,147.5,150.6,147.4,150.5z"/>
	<path d="M152.3,148.3l0.2-0.2c0.4,0.4,0.9,0.7,1.4,0.7c0.8,0,1.2-0.4,1.2-1c0-0.6-0.4-0.8-0.9-1l-0.8-0.3c-0.4-0.2-1-0.5-1-1.2
		c0-0.7,0.6-1.2,1.4-1.2c0.6,0,1.1,0.3,1.4,0.6l-0.2,0.2c-0.3-0.3-0.7-0.5-1.2-0.5c-0.7,0-1.1,0.3-1.1,0.9c0,0.6,0.5,0.8,0.9,1
		l0.8,0.3c0.6,0.2,1,0.6,1,1.3c0,0.8-0.6,1.3-1.6,1.3C153.3,149.1,152.7,148.7,152.3,148.3z"/>
	<path d="M156.5,148v-2.3H156v-0.3l0.6,0l0-1h0.3v1h1v0.3h-1v2.3c0,0.5,0.1,0.8,0.6,0.8c0.1,0,0.3-0.1,0.5-0.1l0.1,0.3
		c-0.2,0.1-0.4,0.1-0.6,0.1C156.7,149.1,156.5,148.6,156.5,148z"/>
	<path d="M158.4,148.1c0-0.8,0.7-1.2,2.3-1.4c0-0.5-0.1-1.1-0.9-1.1c-0.5,0-0.9,0.2-1.1,0.4l-0.1-0.2c0.3-0.2,0.8-0.5,1.3-0.5
		c0.8,0,1.1,0.6,1.1,1.4v2.3h-0.3l0-0.5h0c-0.4,0.3-0.8,0.6-1.3,0.6C158.8,149.1,158.4,148.7,158.4,148.1z M160.7,148.2V147
		c-1.5,0.2-2,0.5-2,1.1c0,0.5,0.4,0.7,0.8,0.7S160.2,148.6,160.7,148.2z"/>
	<path d="M162.3,145.4h0.3l0,0.6h0c0.4-0.4,0.7-0.6,1.2-0.6c0.7,0,1.1,0.5,1.1,1.4v2.3h-0.3v-2.3c0-0.8-0.2-1.1-0.8-1.1
		c-0.4,0-0.7,0.2-1.2,0.7v2.7h-0.3V145.4z"/>
	<path d="M166,147.2c0-1.2,0.7-1.9,1.6-1.9c0.4,0,0.7,0.2,1.1,0.4l0-0.7v-1.5h0.3v5.4h-0.3l0-0.5h0c-0.3,0.3-0.7,0.6-1.2,0.6
		C166.6,149.1,166,148.4,166,147.2z M168.7,148.2V146c-0.4-0.3-0.7-0.5-1.1-0.5c-0.7,0-1.3,0.7-1.3,1.6c0,1,0.4,1.6,1.2,1.6
		C167.9,148.8,168.3,148.6,168.7,148.2z"/>
	<path d="M170.1,148.1c0-0.8,0.7-1.2,2.3-1.4c0-0.5-0.1-1.1-0.9-1.1c-0.5,0-0.9,0.2-1.1,0.4l-0.1-0.2c0.3-0.2,0.8-0.5,1.3-0.5
		c0.8,0,1.1,0.6,1.1,1.4v2.3h-0.3l0-0.5h0c-0.4,0.3-0.8,0.6-1.3,0.6C170.6,149.1,170.1,148.7,170.1,148.1z M172.4,148.2V147
		c-1.5,0.2-2,0.5-2,1.1c0,0.5,0.4,0.7,0.8,0.7S172,148.6,172.4,148.2z"/>
	<path d="M174.1,145.4h0.3l0,0.7h0c0.2-0.4,0.6-0.8,1-0.8c0.1,0,0.2,0,0.4,0.1l-0.1,0.3c-0.1,0-0.2-0.1-0.3-0.1
		c-0.3,0-0.7,0.2-1,0.9v2.5h-0.3V145.4z"/>
	<path d="M176.1,147.2c0-1.2,0.7-1.9,1.6-1.9c0.4,0,0.7,0.2,1.1,0.4l0-0.7v-1.5h0.3v5.4h-0.3l0-0.5h0c-0.3,0.3-0.7,0.6-1.2,0.6
		C176.6,149.1,176.1,148.4,176.1,147.2z M178.7,148.2V146c-0.4-0.3-0.7-0.5-1.1-0.5c-0.7,0-1.3,0.7-1.3,1.6c0,1,0.4,1.6,1.2,1.6
		C178,148.8,178.3,148.6,178.7,148.2z"/>
	<path d="M180,148.6l0.2-0.2c0.3,0.3,0.6,0.5,1.1,0.5c0.6,0,0.9-0.3,0.9-0.7c0-0.5-0.5-0.6-0.9-0.8c-0.5-0.2-1.1-0.4-1.1-1
		c0-0.5,0.4-1,1.2-1c0.4,0,0.8,0.2,1,0.4l-0.2,0.2c-0.2-0.2-0.5-0.3-0.9-0.3c-0.6,0-0.8,0.3-0.8,0.7c0,0.4,0.4,0.6,0.8,0.7
		c0.6,0.2,1.2,0.4,1.2,1.1c0,0.5-0.4,1-1.2,1C180.8,149.1,180.3,148.8,180,148.6z"/>
	<path d="M183.1,149.9c0.3-0.2,0.6-0.5,0.6-0.9c0,0-0.1,0-0.1,0c-0.2,0-0.3-0.1-0.3-0.3c0-0.2,0.2-0.3,0.3-0.3
		c0.2,0,0.4,0.2,0.4,0.5c0,0.5-0.3,1-0.8,1.2L183.1,149.9z"/>
	<path d="M186.3,148.3l0.2-0.2c0.4,0.4,0.9,0.7,1.4,0.7c0.8,0,1.2-0.4,1.2-1c0-0.6-0.4-0.8-0.9-1l-0.8-0.3c-0.4-0.2-1-0.5-1-1.2
		c0-0.7,0.6-1.2,1.4-1.2c0.6,0,1.1,0.3,1.4,0.6l-0.2,0.2c-0.3-0.3-0.7-0.5-1.2-0.5c-0.7,0-1.1,0.3-1.1,0.9c0,0.6,0.5,0.8,0.9,1
		l0.8,0.3c0.6,0.2,1,0.6,1,1.3c0,0.8-0.6,1.3-1.6,1.3C187.2,149.1,186.7,148.7,186.3,148.3z"/>
	<path d="M190.3,148.1c0-0.8,0.7-1.2,2.3-1.4c0-0.5-0.1-1.1-0.9-1.1c-0.5,0-0.9,0.2-1.1,0.4l-0.1-0.2c0.3-0.2,0.8-0.5,1.3-0.5
		c0.8,0,1.1,0.6,1.1,1.4v2.3h-0.3l0-0.5h0c-0.4,0.3-0.8,0.6-1.3,0.6C190.7,149.1,190.3,148.7,190.3,148.1z M192.6,148.2V147
		c-1.5,0.2-2,0.5-2,1.1c0,0.5,0.4,0.7,0.8,0.7S192.1,148.6,192.6,148.2z"/>
	<path d="M194.3,145.6h-0.5v-0.3l0.5,0v-0.8c0-0.7,0.3-1.1,0.9-1.1c0.2,0,0.4,0,0.5,0.1l-0.1,0.3c-0.2-0.1-0.3-0.1-0.4-0.1
		c-0.4,0-0.6,0.3-0.6,0.8v0.8h0.8v0.3h-0.8v3.3h-0.3V145.6z"/>
	<path d="M195.8,147.2c0-1.2,0.8-1.9,1.6-1.9c0.9,0,1.4,0.6,1.4,1.7c0,0.1,0,0.2,0,0.3h-2.6c0,0.9,0.5,1.6,1.4,1.6
		c0.4,0,0.7-0.1,1-0.3l0.1,0.3c-0.3,0.2-0.6,0.4-1.1,0.4C196.6,149.1,195.8,148.4,195.8,147.2z M198.4,146.9c0-0.9-0.4-1.4-1.1-1.4
		c-0.6,0-1.2,0.5-1.2,1.4H198.4z"/>
</g>
<g>
	<path d="M97.2,155.5c0-1.6,0.8-2.5,2-2.5c1.2,0,2,1,2,2.5c0,1.6-0.8,2.6-2,2.6C98,158.1,97.2,157,97.2,155.5z M100.9,155.5
		c0-1.4-0.7-2.2-1.7-2.2s-1.7,0.9-1.7,2.2c0,1.4,0.7,2.3,1.7,2.3S100.9,156.8,100.9,155.5z"/>
	<path d="M102.4,154.4h0.3l0,0.5h0c0.4-0.3,0.8-0.5,1.2-0.5c1,0,1.4,0.7,1.4,1.8c0,1.2-0.7,1.9-1.6,1.9c-0.3,0-0.7-0.2-1.1-0.4v2
		h-0.3V154.4z M105,156.1c0-0.9-0.3-1.5-1.1-1.5c-0.4,0-0.7,0.2-1.2,0.6v2.1c0.4,0.3,0.8,0.5,1.1,0.5
		C104.5,157.8,105,157.1,105,156.1z"/>
	<path d="M106.1,156.2c0-1.2,0.8-1.9,1.6-1.9c0.9,0,1.4,0.6,1.4,1.7c0,0.1,0,0.2,0,0.3h-2.6c0,0.9,0.5,1.6,1.4,1.6
		c0.4,0,0.7-0.1,1-0.3l0.1,0.3c-0.3,0.2-0.6,0.4-1.1,0.4C106.9,158.1,106.1,157.4,106.1,156.2z M108.8,155.9c0-0.9-0.4-1.4-1.1-1.4
		c-0.6,0-1.2,0.5-1.2,1.4H108.8z"/>
	<path d="M110.1,154.4h0.3l0,0.7h0c0.2-0.4,0.6-0.8,1-0.8c0.1,0,0.2,0,0.4,0.1l-0.1,0.3c-0.1,0-0.2-0.1-0.3-0.1
		c-0.3,0-0.7,0.2-1,0.9v2.5h-0.3V154.4z"/>
	<path d="M112,157.1c0-0.8,0.7-1.2,2.3-1.4c0-0.5-0.1-1.1-0.9-1.1c-0.5,0-0.9,0.2-1.1,0.4l-0.1-0.2c0.3-0.2,0.8-0.5,1.3-0.5
		c0.8,0,1.1,0.6,1.1,1.4v2.3h-0.3l0-0.5h0c-0.4,0.3-0.8,0.6-1.3,0.6C112.5,158.1,112,157.7,112,157.1z M114.4,157.2V156
		c-1.5,0.2-2,0.5-2,1.1c0,0.5,0.4,0.7,0.8,0.7S113.9,157.6,114.4,157.2z"/>
	<path d="M116,157v-2.3h-0.6v-0.3l0.6,0l0-1h0.3v1h1v0.3h-1v2.3c0,0.5,0.1,0.8,0.6,0.8c0.1,0,0.3-0.1,0.5-0.1l0.1,0.3
		c-0.2,0.1-0.4,0.1-0.6,0.1C116.2,158.1,116,157.6,116,157z"/>
	<path d="M118.1,153.2c0-0.2,0.1-0.3,0.3-0.3s0.3,0.1,0.3,0.3c0,0.2-0.1,0.3-0.3,0.3S118.1,153.4,118.1,153.2z M118.2,154.4h0.3v3.6
		h-0.3V154.4z"/>
	<path d="M119.9,154.4h0.3l0,0.6h0c0.4-0.4,0.7-0.6,1.2-0.6c0.7,0,1.1,0.5,1.1,1.4v2.3h-0.3v-2.3c0-0.8-0.2-1.1-0.8-1.1
		c-0.4,0-0.7,0.2-1.2,0.7v2.7h-0.3V154.4z"/>
	<path d="M123.6,158.7c0-0.3,0.2-0.6,0.5-0.9v0c-0.2-0.1-0.3-0.3-0.3-0.6c0-0.3,0.2-0.5,0.4-0.7v0c-0.2-0.2-0.5-0.6-0.5-1
		c0-0.7,0.6-1.3,1.3-1.3c0.2,0,0.4,0,0.5,0.1h1.2v0.3h-0.8c0.2,0.2,0.4,0.5,0.4,0.9c0,0.7-0.5,1.3-1.3,1.3c-0.2,0-0.4-0.1-0.6-0.2
		c-0.2,0.1-0.3,0.3-0.3,0.5c0,0.3,0.1,0.5,0.7,0.5h0.8c0.8,0,1.2,0.3,1.2,0.8c0,0.6-0.7,1.2-1.7,1.2
		C124.2,159.7,123.6,159.3,123.6,158.7z M126.5,158.5c0-0.4-0.3-0.5-0.8-0.5h-0.8c-0.1,0-0.3,0-0.5-0.1c-0.3,0.2-0.5,0.5-0.5,0.8
		c0,0.5,0.4,0.8,1.2,0.8C126,159.4,126.5,159,126.5,158.5z M126,155.5c0-0.6-0.4-1-0.9-1c-0.5,0-0.9,0.4-0.9,1c0,0.6,0.4,1,0.9,1
		C125.6,156.6,126,156.1,126,155.5z"/>
	<path d="M129.1,153h1.2c1.1,0,1.8,0.4,1.8,1.4c0,1-0.7,1.4-1.8,1.4h-0.9v2.1h-0.3V153z M130.3,155.5c1,0,1.5-0.3,1.5-1.1
		c0-0.8-0.5-1.1-1.5-1.1h-0.8v2.2H130.3z"/>
	<path d="M133.2,154.4h0.3l0,0.7h0c0.2-0.4,0.6-0.8,1-0.8c0.1,0,0.2,0,0.4,0.1l-0.1,0.3c-0.1,0-0.2-0.1-0.3-0.1
		c-0.3,0-0.7,0.2-1,0.9v2.5h-0.3V154.4z"/>
	<path d="M135.2,156.2c0-1.2,0.8-1.9,1.6-1.9c0.9,0,1.6,0.7,1.6,1.9c0,1.2-0.8,1.9-1.6,1.9C136,158.1,135.2,157.4,135.2,156.2z
		 M138.1,156.2c0-1-0.5-1.6-1.3-1.6c-0.7,0-1.3,0.7-1.3,1.6c0,0.9,0.5,1.6,1.3,1.6C137.6,157.8,138.1,157.1,138.1,156.2z"/>
	<path d="M139.2,156.2c0-1.2,0.8-1.9,1.6-1.9c0.5,0,0.8,0.2,1.1,0.4l-0.2,0.2c-0.2-0.2-0.5-0.4-0.9-0.4c-0.7,0-1.3,0.7-1.3,1.6
		c0,0.9,0.5,1.6,1.3,1.6c0.4,0,0.7-0.2,1-0.4l0.2,0.2c-0.3,0.3-0.7,0.5-1.1,0.5C139.9,158.1,139.2,157.4,139.2,156.2z"/>
	<path d="M142.5,156.2c0-1.2,0.8-1.9,1.6-1.9c0.9,0,1.4,0.6,1.4,1.7c0,0.1,0,0.2,0,0.3h-2.6c0,0.9,0.5,1.6,1.4,1.6
		c0.4,0,0.7-0.1,1-0.3l0.1,0.3c-0.3,0.2-0.6,0.4-1.1,0.4C143.2,158.1,142.5,157.4,142.5,156.2z M145.1,155.9c0-0.9-0.4-1.4-1.1-1.4
		c-0.6,0-1.2,0.5-1.2,1.4H145.1z"/>
	<path d="M146.1,156.2c0-1.2,0.7-1.9,1.6-1.9c0.4,0,0.7,0.2,1.1,0.4l0-0.7v-1.5h0.3v5.4h-0.3l0-0.5h0c-0.3,0.3-0.7,0.6-1.2,0.6
		C146.7,158.1,146.1,157.4,146.1,156.2z M148.8,157.2V155c-0.4-0.3-0.7-0.5-1.1-0.5c-0.7,0-1.3,0.7-1.3,1.6c0,1,0.4,1.6,1.2,1.6
		C148,157.8,148.4,157.6,148.8,157.2z"/>
	<path d="M150.4,156.7v-2.3h0.3v2.3c0,0.8,0.2,1.1,0.8,1.1c0.4,0,0.7-0.2,1.2-0.7v-2.7h0.3v3.6h-0.3l0-0.6h0
		c-0.4,0.4-0.7,0.7-1.2,0.7C150.8,158.1,150.4,157.6,150.4,156.7z"/>
	<path d="M154.4,154.4h0.3l0,0.7h0c0.2-0.4,0.6-0.8,1-0.8c0.1,0,0.2,0,0.4,0.1l-0.1,0.3c-0.1,0-0.2-0.1-0.3-0.1
		c-0.3,0-0.7,0.2-1,0.9v2.5h-0.3V154.4z"/>
	<path d="M156.5,156.2c0-1.2,0.8-1.9,1.6-1.9c0.9,0,1.4,0.6,1.4,1.7c0,0.1,0,0.2,0,0.3h-2.6c0,0.9,0.5,1.6,1.4,1.6
		c0.4,0,0.7-0.1,1-0.3l0.1,0.3c-0.3,0.2-0.6,0.4-1.1,0.4C157.2,158.1,156.5,157.4,156.5,156.2z M159.1,155.9c0-0.9-0.4-1.4-1.1-1.4
		c-0.6,0-1.2,0.5-1.2,1.4H159.1z"/>
	<path d="M160,158.9c0.3-0.2,0.6-0.5,0.6-0.9c0,0-0.1,0-0.1,0c-0.2,0-0.3-0.1-0.3-0.3c0-0.2,0.2-0.3,0.3-0.3c0.2,0,0.4,0.2,0.4,0.5
		c0,0.5-0.3,1-0.8,1.2L160,158.9z"/>
	<path d="M163,153h0.4l0.6,2.9c0.1,0.5,0.2,1.1,0.3,1.6h0c0.1-0.5,0.2-1.1,0.4-1.6l0.8-2.9h0.4l0.8,2.9c0.1,0.5,0.3,1.1,0.4,1.6h0
		c0.1-0.5,0.2-1.1,0.3-1.6l0.6-2.9h0.3l-1.1,4.9h-0.4l-0.9-3.4c-0.1-0.4-0.2-0.7-0.3-1.1h0c-0.1,0.4-0.2,0.7-0.3,1.1l-0.9,3.4h-0.4
		L163,153z"/>
	<path d="M169,156.2c0-1.2,0.8-1.9,1.6-1.9c0.9,0,1.6,0.7,1.6,1.9c0,1.2-0.8,1.9-1.6,1.9C169.7,158.1,169,157.4,169,156.2z
		 M171.9,156.2c0-1-0.5-1.6-1.3-1.6c-0.7,0-1.3,0.7-1.3,1.6c0,0.9,0.5,1.6,1.3,1.6C171.3,157.8,171.9,157.1,171.9,156.2z"/>
	<path d="M173.3,154.4h0.3l0,0.7h0c0.2-0.4,0.6-0.8,1-0.8c0.1,0,0.2,0,0.4,0.1l-0.1,0.3c-0.1,0-0.2-0.1-0.3-0.1
		c-0.3,0-0.7,0.2-1,0.9v2.5h-0.3V154.4z"/>
	<path d="M175.7,152.6h0.3v4h0l1.8-2.2h0.4l-1.2,1.4l1.4,2.2H178l-1.2-1.9L176,157v1h-0.3V152.6z"/>
	<path d="M180.7,154.4h0.3l0,0.5h0c0.4-0.3,0.8-0.5,1.2-0.5c1,0,1.4,0.7,1.4,1.8c0,1.2-0.7,1.9-1.6,1.9c-0.3,0-0.7-0.2-1.1-0.4v2
		h-0.3V154.4z M183.3,156.1c0-0.9-0.3-1.5-1.1-1.5c-0.4,0-0.7,0.2-1.2,0.6v2.1c0.4,0.3,0.8,0.5,1.1,0.5
		C182.8,157.8,183.3,157.1,183.3,156.1z"/>
	<path d="M184.4,156.2c0-1.2,0.8-1.9,1.6-1.9c0.9,0,1.4,0.6,1.4,1.7c0,0.1,0,0.2,0,0.3h-2.6c0,0.9,0.5,1.6,1.4,1.6
		c0.4,0,0.7-0.1,1-0.3l0.1,0.3c-0.3,0.2-0.6,0.4-1.1,0.4C185.2,158.1,184.4,157.4,184.4,156.2z M187.1,155.9c0-0.9-0.4-1.4-1.1-1.4
		c-0.6,0-1.2,0.5-1.2,1.4H187.1z"/>
	<path d="M188.4,154.4h0.3l0,0.7h0c0.2-0.4,0.6-0.8,1-0.8c0.1,0,0.2,0,0.4,0.1l-0.1,0.3c-0.1,0-0.2-0.1-0.3-0.1
		c-0.3,0-0.7,0.2-1,0.9v2.5h-0.3V154.4z"/>
	<path d="M190.7,154.4h0.3l0,0.6h0c0.3-0.4,0.7-0.6,1.1-0.6c0.6,0,0.9,0.3,1,0.7c0.4-0.5,0.8-0.7,1.2-0.7c0.7,0,1.1,0.5,1.1,1.4v2.3
		h-0.3v-2.3c0-0.8-0.3-1.1-0.8-1.1c-0.3,0-0.7,0.2-1.1,0.7v2.7H193v-2.3c0-0.8-0.3-1.1-0.8-1.1c-0.3,0-0.7,0.2-1.1,0.7v2.7h-0.3
		V154.4z"/>
	<path d="M196.7,153.2c0-0.2,0.1-0.3,0.3-0.3s0.3,0.1,0.3,0.3c0,0.2-0.1,0.3-0.3,0.3S196.7,153.4,196.7,153.2z M196.8,154.4h0.3v3.6
		h-0.3V154.4z"/>
	<path d="M198.6,157v-2.3h-0.6v-0.3l0.6,0l0-1h0.3v1h1v0.3h-1v2.3c0,0.5,0.1,0.8,0.6,0.8c0.1,0,0.3-0.1,0.5-0.1l0.1,0.3
		c-0.2,0.1-0.4,0.1-0.6,0.1C198.8,158.1,198.6,157.6,198.6,157z"/>
	<path d="M202,157.3l0.2-0.2c0.4,0.4,0.9,0.7,1.4,0.7c0.8,0,1.2-0.4,1.2-1c0-0.6-0.4-0.8-0.9-1l-0.8-0.3c-0.4-0.2-1-0.5-1-1.2
		c0-0.7,0.6-1.2,1.4-1.2c0.6,0,1.1,0.3,1.4,0.6l-0.2,0.2c-0.3-0.3-0.7-0.5-1.2-0.5c-0.7,0-1.1,0.3-1.1,0.9c0,0.6,0.5,0.8,0.9,1
		l0.8,0.3c0.6,0.2,1,0.6,1,1.3c0,0.8-0.6,1.3-1.6,1.3C203,158.1,202.4,157.7,202,157.3z"/>
	<path d="M205.8,159.5l0.1-0.3c0.1,0,0.2,0.1,0.3,0.1c0.4,0,0.7-0.4,0.9-1l0.1-0.3l-1.5-3.7h0.4l0.9,2.3c0.1,0.3,0.3,0.7,0.4,1h0
		c0.1-0.3,0.2-0.7,0.3-1l0.8-2.3h0.3l-1.4,4.1c-0.2,0.6-0.6,1.2-1.2,1.2C206,159.6,205.9,159.6,205.8,159.5z"/>
	<path d="M209.1,157.6l0.2-0.2c0.3,0.3,0.6,0.5,1.1,0.5c0.6,0,0.9-0.3,0.9-0.7c0-0.5-0.5-0.6-0.9-0.8c-0.5-0.2-1.1-0.4-1.1-1
		c0-0.5,0.4-1,1.2-1c0.4,0,0.8,0.2,1,0.4l-0.2,0.2c-0.2-0.2-0.5-0.3-0.9-0.3c-0.6,0-0.8,0.3-0.8,0.7c0,0.4,0.4,0.6,0.8,0.7
		c0.6,0.2,1.2,0.4,1.2,1.1c0,0.5-0.4,1-1.2,1C209.9,158.1,209.4,157.8,209.1,157.6z"/>
	<path d="M212.5,157v-2.3H212v-0.3l0.6,0l0-1h0.3v1h1v0.3h-1v2.3c0,0.5,0.1,0.8,0.6,0.8c0.1,0,0.3-0.1,0.5-0.1l0.1,0.3
		c-0.2,0.1-0.4,0.1-0.6,0.1C212.8,158.1,212.5,157.6,212.5,157z"/>
	<path d="M214.4,156.2c0-1.2,0.8-1.9,1.6-1.9c0.9,0,1.4,0.6,1.4,1.7c0,0.1,0,0.2,0,0.3h-2.6c0,0.9,0.5,1.6,1.4,1.6
		c0.4,0,0.7-0.1,1-0.3l0.1,0.3c-0.3,0.2-0.6,0.4-1.1,0.4C215.2,158.1,214.4,157.4,214.4,156.2z M217.1,155.9c0-0.9-0.4-1.4-1.1-1.4
		c-0.6,0-1.2,0.5-1.2,1.4H217.1z"/>
	<path d="M218.3,154.4h0.3l0,0.6h0c0.3-0.4,0.7-0.6,1.1-0.6c0.6,0,0.9,0.3,1,0.7c0.4-0.5,0.8-0.7,1.2-0.7c0.7,0,1.1,0.5,1.1,1.4v2.3
		h-0.3v-2.3c0-0.8-0.3-1.1-0.8-1.1c-0.3,0-0.7,0.2-1.1,0.7v2.7h-0.3v-2.3c0-0.8-0.3-1.1-0.8-1.1c-0.3,0-0.7,0.2-1.1,0.7v2.7h-0.3
		V154.4z"/>
	<path d="M224.1,158.9c0.3-0.2,0.6-0.5,0.6-0.9c0,0-0.1,0-0.1,0c-0.2,0-0.3-0.1-0.3-0.3c0-0.2,0.2-0.3,0.3-0.3
		c0.2,0,0.4,0.2,0.4,0.5c0,0.5-0.3,1-0.8,1.2L224.1,158.9z"/>
</g>
<g>
	<path d="M97.1,166.3l0.2-0.2c0.4,0.4,0.9,0.7,1.4,0.7c0.8,0,1.2-0.4,1.2-1c0-0.6-0.4-0.8-0.9-1l-0.8-0.3c-0.4-0.2-1-0.5-1-1.2
		c0-0.7,0.6-1.2,1.4-1.2c0.6,0,1.1,0.3,1.4,0.6l-0.2,0.2c-0.3-0.3-0.7-0.5-1.2-0.5c-0.7,0-1.1,0.3-1.1,0.9c0,0.6,0.5,0.8,0.9,1
		l0.8,0.3c0.6,0.2,1,0.6,1,1.3c0,0.8-0.6,1.3-1.6,1.3C98.1,167.1,97.5,166.7,97.1,166.3z"/>
	<path d="M101.1,166.1c0-0.8,0.7-1.2,2.3-1.4c0-0.5-0.1-1.1-0.9-1.1c-0.5,0-0.9,0.2-1.1,0.4l-0.1-0.2c0.3-0.2,0.8-0.5,1.3-0.5
		c0.8,0,1.1,0.6,1.1,1.4v2.3h-0.3l0-0.5h0c-0.4,0.3-0.8,0.6-1.3,0.6C101.6,167.1,101.1,166.7,101.1,166.1z M103.4,166.2V165
		c-1.5,0.2-2,0.5-2,1.1c0,0.5,0.4,0.7,0.8,0.7S103,166.6,103.4,166.2z"/>
	<path d="M105.1,163.6h-0.5v-0.3l0.5,0v-0.8c0-0.7,0.3-1.1,0.9-1.1c0.2,0,0.4,0,0.5,0.1l-0.1,0.3c-0.2-0.1-0.3-0.1-0.4-0.1
		c-0.4,0-0.6,0.3-0.6,0.8v0.8h0.8v0.3h-0.8v3.3h-0.3V163.6z"/>
	<path d="M106.7,165.2c0-1.2,0.8-1.9,1.6-1.9c0.9,0,1.4,0.6,1.4,1.7c0,0.1,0,0.2,0,0.3H107c0,0.9,0.5,1.6,1.4,1.6
		c0.4,0,0.7-0.1,1-0.3l0.1,0.3c-0.3,0.2-0.6,0.4-1.1,0.4C107.4,167.1,106.7,166.4,106.7,165.2z M109.3,164.9c0-0.9-0.4-1.4-1.1-1.4
		c-0.6,0-1.2,0.5-1.2,1.4H109.3z"/>
	<path d="M110.6,166v-2.3H110v-0.3l0.6,0l0-1h0.3v1h1v0.3h-1v2.3c0,0.5,0.1,0.8,0.6,0.8c0.1,0,0.3-0.1,0.5-0.1l0.1,0.3
		c-0.2,0.1-0.4,0.1-0.6,0.1C110.8,167.1,110.6,166.6,110.6,166z"/>
	<path d="M112.3,168.5l0.1-0.3c0.1,0,0.2,0.1,0.3,0.1c0.4,0,0.7-0.4,0.9-1l0.1-0.3l-1.5-3.7h0.4l0.9,2.3c0.1,0.3,0.3,0.7,0.4,1h0
		c0.1-0.3,0.2-0.7,0.3-1l0.8-2.3h0.3l-1.4,4.1c-0.2,0.6-0.6,1.2-1.2,1.2C112.6,168.6,112.4,168.6,112.3,168.5z"/>
	<path d="M117.7,162h0.3v4.9h-0.3V162z"/>
	<path d="M119.4,163.4h0.3l0,0.6h0c0.4-0.4,0.7-0.6,1.2-0.6c0.7,0,1.1,0.5,1.1,1.4v2.3h-0.3v-2.3c0-0.8-0.2-1.1-0.8-1.1
		c-0.4,0-0.7,0.2-1.2,0.7v2.7h-0.3V163.4z"/>
	<path d="M123,166.6l0.2-0.2c0.3,0.3,0.6,0.5,1.1,0.5c0.6,0,0.9-0.3,0.9-0.7c0-0.5-0.5-0.6-0.9-0.8c-0.5-0.2-1.1-0.4-1.1-1
		c0-0.5,0.4-1,1.2-1c0.4,0,0.8,0.2,1,0.4l-0.2,0.2c-0.2-0.2-0.5-0.3-0.9-0.3c-0.6,0-0.8,0.3-0.8,0.7c0,0.4,0.4,0.6,0.8,0.7
		c0.6,0.2,1.2,0.4,1.2,1.1c0,0.5-0.4,1-1.2,1C123.8,167.1,123.3,166.8,123,166.6z"/>
	<path d="M126.4,166v-2.3h-0.6v-0.3l0.6,0l0-1h0.3v1h1v0.3h-1v2.3c0,0.5,0.1,0.8,0.6,0.8c0.1,0,0.3-0.1,0.5-0.1l0.1,0.3
		c-0.2,0.1-0.4,0.1-0.6,0.1C126.6,167.1,126.4,166.6,126.4,166z"/>
	<path d="M128.7,163.4h0.3l0,0.7h0c0.2-0.4,0.6-0.8,1-0.8c0.1,0,0.2,0,0.4,0.1l-0.1,0.3c-0.1,0-0.2-0.1-0.3-0.1
		c-0.3,0-0.7,0.2-1,0.9v2.5h-0.3V163.4z"/>
	<path d="M131,165.7v-2.3h0.3v2.3c0,0.8,0.2,1.1,0.8,1.1c0.4,0,0.7-0.2,1.2-0.7v-2.7h0.3v3.6h-0.3l0-0.6h0c-0.4,0.4-0.7,0.7-1.2,0.7
		C131.3,167.1,131,166.6,131,165.7z"/>
	<path d="M134.7,165.2c0-1.2,0.8-1.9,1.6-1.9c0.5,0,0.8,0.2,1.1,0.4l-0.2,0.2c-0.2-0.2-0.5-0.4-0.9-0.4c-0.7,0-1.3,0.7-1.3,1.6
		c0,0.9,0.5,1.6,1.3,1.6c0.4,0,0.7-0.2,1-0.4l0.2,0.2c-0.3,0.3-0.7,0.5-1.1,0.5C135.4,167.1,134.7,166.4,134.7,165.2z"/>
	<path d="M138.4,166v-2.3h-0.6v-0.3l0.6,0l0-1h0.3v1h1v0.3h-1v2.3c0,0.5,0.1,0.8,0.6,0.8c0.1,0,0.3-0.1,0.5-0.1l0.1,0.3
		c-0.2,0.1-0.4,0.1-0.6,0.1C138.6,167.1,138.4,166.6,138.4,166z"/>
	<path d="M140.5,162.2c0-0.2,0.1-0.3,0.3-0.3s0.3,0.1,0.3,0.3c0,0.2-0.1,0.3-0.3,0.3S140.5,162.4,140.5,162.2z M140.6,163.4h0.3v3.6
		h-0.3V163.4z"/>
	<path d="M142.1,165.2c0-1.2,0.8-1.9,1.6-1.9c0.9,0,1.6,0.7,1.6,1.9c0,1.2-0.8,1.9-1.6,1.9C142.8,167.1,142.1,166.4,142.1,165.2z
		 M144.9,165.2c0-1-0.5-1.6-1.3-1.6c-0.7,0-1.3,0.7-1.3,1.6c0,0.9,0.5,1.6,1.3,1.6C144.4,166.8,144.9,166.1,144.9,165.2z"/>
	<path d="M146.4,163.4h0.3l0,0.6h0c0.4-0.4,0.7-0.6,1.2-0.6c0.7,0,1.1,0.5,1.1,1.4v2.3h-0.3v-2.3c0-0.8-0.2-1.1-0.8-1.1
		c-0.4,0-0.7,0.2-1.2,0.7v2.7h-0.3V163.4z"/>
	<path d="M149.9,166.6l0.2-0.2c0.3,0.3,0.6,0.5,1.1,0.5c0.6,0,0.9-0.3,0.9-0.7c0-0.5-0.5-0.6-0.9-0.8c-0.5-0.2-1.1-0.4-1.1-1
		c0-0.5,0.4-1,1.2-1c0.4,0,0.8,0.2,1,0.4l-0.2,0.2c-0.2-0.2-0.5-0.3-0.9-0.3c-0.6,0-0.8,0.3-0.8,0.7c0,0.4,0.4,0.6,0.8,0.7
		c0.6,0.2,1.2,0.4,1.2,1.1c0,0.5-0.4,1-1.2,1C150.7,167.1,150.2,166.8,149.9,166.6z"/>
</g>
</svg>
