<?xml version="1.0" encoding="utf-8"?>
<!-- Generator: Adobe Illustrator 23.0.3, SVG Export Plug-In . SVG Version: 6.00 Build 0)  -->
<svg version="1.1" id="Layer_1" xmlns="http://www.w3.org/2000/svg" xmlns:xlink="http://www.w3.org/1999/xlink" x="0px" y="0px"
	 viewBox="0 0 252 94" style="enable-background:new 0 0 252 94;" xml:space="preserve">
<style type="text/css">
	.st0{fill:none;stroke:#000000;stroke-width:0.25;}
	.st1{fill:#ABD693;}
	.st2{fill:#55371E;}
</style>
<g>
	<path d="M6.5,11.1C6.5,9.1,7.8,8,9.3,8c0.8,0,1.5,0.4,1.8,0.8l-0.7,0.8c-0.3-0.3-0.6-0.5-1.1-0.5c-0.9,0-1.5,0.7-1.5,1.9
		c0,1.2,0.5,1.9,1.6,1.9c0.2,0,0.5-0.1,0.6-0.2v-1h-1v-1.1h2.1v2.7c-0.4,0.4-1.1,0.7-1.9,0.7C7.7,14.1,6.5,13.1,6.5,11.1z"/>
	<path d="M12.5,8.1h1.3v2.3h2V8.1h1.3V14h-1.3v-2.4h-2V14h-1.3V8.1z"/>
	<path d="M18.3,11.1c0-1.9,1.3-3.1,2.9-3.1C22,8,22.6,8.4,23,8.8l-0.7,0.8c-0.3-0.3-0.6-0.5-1.1-0.5c-0.9,0-1.5,0.7-1.5,1.9
		c0,1.2,0.5,1.9,1.6,1.9c0.2,0,0.5-0.1,0.6-0.2v-1h-1v-1.1h2.1v2.7c-0.4,0.4-1.1,0.7-1.9,0.7C19.5,14.1,18.3,13.1,18.3,11.1z"/>
	<path d="M26.1,8.1h3.7v1.1h-2.3v1.2h2v1.1h-2v1.4h2.4V14h-3.8V8.1z"/>
	<path d="M31,8.1h1.4l0.9,2.6c0.1,0.3,0.2,0.7,0.3,1.1h0c0.1-0.4,0.2-0.7,0.3-1.1l0.9-2.6h1.4V14h-1.2v-2.2c0-0.6,0.1-1.4,0.2-2h0
		L35,11.2l-0.8,2.2h-0.7l-0.8-2.2l-0.5-1.4h0c0.1,0.6,0.2,1.4,0.2,2V14H31V8.1z"/>
	<path d="M37.9,8.1h1.3V14h-1.3V8.1z"/>
	<path d="M40.2,13.2l0.8-0.9c0.4,0.4,1,0.6,1.4,0.6c0.5,0,0.8-0.2,0.8-0.6c0-0.4-0.3-0.5-0.8-0.7l-0.8-0.3c-0.6-0.2-1.2-0.7-1.2-1.6
		c0-1,0.9-1.7,2.1-1.7c0.7,0,1.4,0.3,1.9,0.8l-0.7,0.8c-0.4-0.3-0.7-0.5-1.2-0.5c-0.5,0-0.7,0.2-0.7,0.5c0,0.4,0.4,0.5,0.9,0.7
		l0.8,0.3c0.7,0.3,1.2,0.8,1.2,1.6c0,1-0.8,1.8-2.2,1.8C41.6,14.1,40.8,13.8,40.2,13.2z"/>
	<path d="M45.1,13.2l0.8-0.9c0.4,0.4,1,0.6,1.4,0.6c0.5,0,0.8-0.2,0.8-0.6c0-0.4-0.3-0.5-0.8-0.7l-0.8-0.3c-0.6-0.2-1.2-0.7-1.2-1.6
		c0-1,0.9-1.7,2.1-1.7c0.7,0,1.4,0.3,1.9,0.8l-0.7,0.8c-0.4-0.3-0.7-0.5-1.2-0.5c-0.5,0-0.7,0.2-0.7,0.5c0,0.4,0.4,0.5,0.9,0.7
		l0.8,0.3c0.7,0.3,1.2,0.8,1.2,1.6c0,1-0.8,1.8-2.2,1.8C46.5,14.1,45.7,13.8,45.1,13.2z"/>
	<path d="M50.5,8.1h1.3V14h-1.3V8.1z"/>
	<path d="M52.9,11c0-1.9,1.1-3,2.7-3c1.6,0,2.7,1.1,2.7,3c0,1.9-1.1,3.1-2.7,3.1C54,14.1,52.9,12.9,52.9,11z M56.9,11
		c0-1.2-0.5-1.9-1.3-1.9c-0.8,0-1.3,0.7-1.3,1.9c0,1.2,0.5,1.9,1.3,1.9C56.3,13,56.9,12.2,56.9,11z"/>
	<path d="M59.3,8.1h1.4l1.5,2.9l0.6,1.3h0c-0.1-0.6-0.2-1.4-0.2-2.1V8.1h1.3V14h-1.4L61,11.1l-0.6-1.3h0c0.1,0.6,0.2,1.4,0.2,2.1V14
		h-1.3V8.1z"/>
	<path d="M67.1,11.5c0-1.6,0.4-2.9,1.2-4.1l0.8,0.3c-0.7,1.2-0.9,2.5-0.9,3.8s0.3,2.6,0.9,3.8l-0.8,0.3
		C67.5,14.4,67.1,13.1,67.1,11.5z"/>
	<path d="M69.8,13.2l0.8-0.9c0.4,0.4,1,0.6,1.4,0.6c0.5,0,0.8-0.2,0.8-0.6c0-0.4-0.3-0.5-0.8-0.7l-0.8-0.3c-0.6-0.2-1.2-0.7-1.2-1.6
		c0-1,0.9-1.7,2.1-1.7c0.7,0,1.4,0.3,1.9,0.8l-0.7,0.8c-0.4-0.3-0.7-0.5-1.2-0.5c-0.5,0-0.7,0.2-0.7,0.5c0,0.4,0.4,0.5,0.9,0.7
		l0.8,0.3c0.7,0.3,1.2,0.8,1.2,1.6c0,1-0.8,1.8-2.2,1.8C71.2,14.1,70.4,13.8,69.8,13.2z"/>
	<path d="M74.9,11.1c0-1.9,1.3-3.1,2.8-3.1c0.8,0,1.4,0.4,1.8,0.8l-0.7,0.8c-0.3-0.3-0.6-0.5-1-0.5c-0.8,0-1.4,0.7-1.4,1.9
		c0,1.2,0.6,1.9,1.4,1.9c0.5,0,0.9-0.2,1.1-0.5l0.7,0.8c-0.5,0.6-1.1,0.9-1.9,0.9C76.2,14.1,74.9,13.1,74.9,11.1z"/>
	<path d="M79.8,11c0-1.9,1.1-3,2.7-3c1.6,0,2.7,1.1,2.7,3c0,1.9-1.1,3.1-2.7,3.1C80.9,14.1,79.8,12.9,79.8,11z M83.8,11
		c0-1.2-0.5-1.9-1.3-1.9c-0.8,0-1.3,0.7-1.3,1.9c0,1.2,0.5,1.9,1.3,1.9C83.3,13,83.8,12.2,83.8,11z"/>
	<path d="M86.3,8.1h2c1.3,0,2.3,0.5,2.3,1.9c0,1.4-1.1,2-2.3,2h-0.7v2h-1.3V8.1z M88.2,10.9c0.7,0,1.1-0.3,1.1-0.9s-0.4-0.8-1.1-0.8
		h-0.6v1.8H88.2z"/>
	<path d="M91.6,8.1h3.7v1.1H93v1.2h2v1.1h-2v1.4h2.4V14h-3.8V8.1z"/>
	<path d="M96.3,11.2h2.2v0.9h-2.2V11.2z"/>
	<path d="M99.5,12.9h1.2V9.6h-1.1V8.8c0.6-0.1,1-0.3,1.4-0.5h1v4.6h1.1V14h-3.6V12.9z"/>
	<path d="M105.6,12.4c0-0.8,0.5-1.3,1.1-1.7c-0.2-0.4-0.4-0.8-0.4-1.2c0-0.8,0.6-1.5,1.6-1.5c0.9,0,1.4,0.5,1.4,1.3
		c0,0.8-0.6,1.3-1.2,1.7c0.3,0.4,0.7,0.8,1.2,1.1c0.3-0.4,0.5-0.9,0.7-1.4h1.2c-0.2,0.7-0.5,1.4-1,2c0.4,0.2,0.7,0.3,1,0.4l-0.3,1.1
		c-0.5-0.1-1-0.3-1.5-0.6c-0.5,0.4-1.1,0.6-1.8,0.6C106.3,14.1,105.6,13.3,105.6,12.4z M107.8,13.1c0.2,0,0.5-0.1,0.7-0.2
		c-0.5-0.4-0.9-0.8-1.2-1.2c-0.2,0.2-0.4,0.4-0.4,0.7C106.9,12.8,107.2,13.1,107.8,13.1z M107.6,10.2c0.4-0.3,0.7-0.5,0.7-0.9
		c0-0.3-0.1-0.5-0.4-0.5c-0.3,0-0.5,0.3-0.5,0.7C107.4,9.8,107.5,10,107.6,10.2z"/>
	<path d="M113.5,13.2l0.8-0.9c0.4,0.4,1,0.6,1.4,0.6c0.5,0,0.8-0.2,0.8-0.6c0-0.4-0.3-0.5-0.8-0.7l-0.8-0.3
		c-0.6-0.2-1.2-0.7-1.2-1.6c0-1,0.9-1.7,2.1-1.7c0.7,0,1.4,0.3,1.9,0.8l-0.7,0.8c-0.4-0.3-0.7-0.5-1.2-0.5c-0.5,0-0.7,0.2-0.7,0.5
		c0,0.4,0.4,0.5,0.9,0.7l0.8,0.3c0.7,0.3,1.2,0.8,1.2,1.6c0,1-0.8,1.8-2.2,1.8C114.9,14.1,114.1,13.8,113.5,13.2z"/>
	<path d="M118.6,11.1c0-1.9,1.3-3.1,2.8-3.1c0.8,0,1.4,0.4,1.8,0.8l-0.7,0.8c-0.3-0.3-0.6-0.5-1-0.5c-0.8,0-1.4,0.7-1.4,1.9
		c0,1.2,0.6,1.9,1.4,1.9c0.5,0,0.9-0.2,1.1-0.5l0.7,0.8c-0.5,0.6-1.1,0.9-1.9,0.9C119.9,14.1,118.6,13.1,118.6,11.1z"/>
	<path d="M123.5,11c0-1.9,1.1-3,2.7-3c1.6,0,2.7,1.1,2.7,3c0,1.9-1.1,3.1-2.7,3.1C124.6,14.1,123.5,12.9,123.5,11z M127.5,11
		c0-1.2-0.5-1.9-1.3-1.9c-0.8,0-1.3,0.7-1.3,1.9c0,1.2,0.5,1.9,1.3,1.9C127,13,127.5,12.2,127.5,11z"/>
	<path d="M130,8.1h2c1.3,0,2.3,0.5,2.3,1.9c0,1.4-1.1,2-2.3,2h-0.7v2H130V8.1z M132,10.9c0.7,0,1.1-0.3,1.1-0.9s-0.4-0.8-1.1-0.8
		h-0.6v1.8H132z"/>
	<path d="M135.3,8.1h3.7v1.1h-2.3v1.2h2v1.1h-2v1.4h2.4V14h-3.8V8.1z"/>
	<path d="M140,11.2h2.2v0.9H140V11.2z"/>
	<path d="M142.9,13.2c1.5-1.4,2.5-2.4,2.5-3.2c0-0.6-0.3-0.9-0.8-0.9c-0.4,0-0.7,0.3-1,0.6l-0.7-0.7c0.6-0.6,1.1-0.9,1.9-0.9
		c1.1,0,1.9,0.7,1.9,1.8c0,1-0.9,2-1.8,3c0.3,0,0.7-0.1,1-0.1h1.2V14h-4V13.2z"/>
	<path d="M147.8,15.3c0.7-1.2,1-2.5,1-3.8s-0.3-2.6-1-3.8l0.8-0.3c0.8,1.2,1.2,2.5,1.2,4.1c0,1.6-0.4,2.9-1.2,4.1L147.8,15.3z"/>
	<path d="M152.9,8.1h1.3V14h-1.3V8.1z"/>
	<path d="M155.6,8.1h1.4l1.5,2.9l0.6,1.3h0c-0.1-0.6-0.2-1.4-0.2-2.1V8.1h1.3V14h-1.4l-1.5-2.9l-0.6-1.3h0c0.1,0.6,0.2,1.4,0.2,2.1
		V14h-1.3V8.1z"/>
	<path d="M162.8,9.2h-1.6V8.1h4.6v1.1h-1.6V14h-1.3V9.2z"/>
	<path d="M166.6,8.1h3.7v1.1h-2.3v1.2h2v1.1h-2v1.4h2.4V14h-3.8V8.1z"/>
	<path d="M171.5,8.1h1.4l1.5,2.9l0.6,1.3h0c-0.1-0.6-0.2-1.4-0.2-2.1V8.1h1.3V14h-1.4l-1.5-2.9l-0.6-1.3h0c0.1,0.6,0.2,1.4,0.2,2.1
		V14h-1.3V8.1z"/>
	<path d="M177.2,13.2l0.8-0.9c0.4,0.4,1,0.6,1.4,0.6c0.5,0,0.8-0.2,0.8-0.6c0-0.4-0.3-0.5-0.8-0.7l-0.8-0.3
		c-0.6-0.2-1.2-0.7-1.2-1.6c0-1,0.9-1.7,2.1-1.7c0.7,0,1.4,0.3,1.9,0.8l-0.7,0.8c-0.4-0.3-0.7-0.5-1.2-0.5c-0.5,0-0.7,0.2-0.7,0.5
		c0,0.4,0.4,0.5,0.9,0.7l0.8,0.3c0.7,0.3,1.2,0.8,1.2,1.6c0,1-0.8,1.8-2.2,1.8C178.6,14.1,177.7,13.8,177.2,13.2z"/>
	<path d="M182.5,8.1h1.3V14h-1.3V8.1z"/>
	<path d="M186.4,9.2h-1.6V8.1h4.6v1.1h-1.6V14h-1.3V9.2z"/>
	<path d="M191.1,11.9l-1.8-3.8h1.4l0.5,1.4c0.2,0.4,0.3,0.8,0.5,1.3h0c0.2-0.5,0.3-0.9,0.5-1.3l0.5-1.4h1.4l-1.8,3.8V14h-1.3V11.9z"
		/>
</g>
<g>
	<path d="M6.6,20.2c0-1.1,0.3-2.1,0.9-2.9l0.2,0.1c-0.5,0.8-0.8,1.8-0.8,2.8c0,1,0.3,2,0.8,2.8l-0.2,0.1C7,22.3,6.6,21.3,6.6,20.2z"
		/>
	<path d="M8.5,21.1v-2H8.1v-0.2l0.5,0l0-0.9h0.2v0.9h0.9v0.2H8.8v2c0,0.4,0.1,0.7,0.5,0.7c0.1,0,0.3,0,0.4-0.1l0.1,0.2
		c-0.2,0.1-0.4,0.1-0.5,0.1C8.7,22.1,8.5,21.7,8.5,21.1z"/>
	<path d="M10.3,19.8c0-1.4,0.7-2.2,1.8-2.2c0.5,0,0.9,0.2,1.1,0.5L13,18.3c-0.2-0.3-0.5-0.4-0.9-0.4c-0.9,0-1.5,0.7-1.5,1.9
		s0.6,2,1.5,2c0.4,0,0.8-0.2,1.1-0.5l0.2,0.2c-0.3,0.4-0.7,0.6-1.3,0.6C11,22.1,10.3,21.2,10.3,19.8z"/>
	<path d="M13.8,19.8c0-1.4,0.7-2.2,1.8-2.2c1,0,1.8,0.9,1.8,2.2c0,1.4-0.7,2.2-1.8,2.2C14.5,22.1,13.8,21.2,13.8,19.8z M17,19.8
		c0-1.2-0.6-1.9-1.4-1.9s-1.4,0.7-1.4,1.9c0,1.2,0.6,2,1.4,2S17,21,17,19.8z"/>
</g>
<g>
	<path d="M17.8,24c0.8-0.8,1.2-1.3,1.2-1.7c0-0.3-0.2-0.5-0.5-0.5c-0.2,0-0.4,0.1-0.6,0.3L17.8,22c0.2-0.2,0.4-0.4,0.7-0.4
		c0.4,0,0.7,0.3,0.7,0.7c0,0.5-0.4,0.9-1.1,1.7c0.1,0,0.3,0,0.4,0h0.8v0.2h-1.5V24z"/>
</g>
<g>
	<path d="M21.8,17.4h0.2l-2,5.7h-0.2L21.8,17.4z"/>
	<path d="M22.7,17.7h0.4l0.9,2.5c0.1,0.3,0.2,0.6,0.3,0.9h0c0.1-0.3,0.2-0.6,0.3-0.9l0.9-2.5H26V22h-0.3v-2.8c0-0.4,0-0.8,0-1.2h0
		l-0.3,1l-0.9,2.5h-0.3L23.3,19L23,18h0c0,0.4,0,0.8,0,1.2V22h-0.3V17.7z"/>
	<path d="M28.2,18h-1.4v-0.3h3V18h-1.4v4h-0.3V18z"/>
	<path d="M30.3,23c0.5-0.8,0.8-1.8,0.8-2.8c0-1-0.3-2-0.8-2.8l0.2-0.1c0.5,0.9,0.9,1.8,0.9,2.9c0,1.1-0.3,2.1-0.9,2.9L30.3,23z"/>
</g>
<line class="st0" x1="6.1" y1="28.2" x2="247.7" y2="28.2"/>
<line class="st0" x1="6.1" y1="87.6" x2="248" y2="87.6"/>
<g>
	<path d="M218.7,43l0.5-0.7c0.3,0.3,0.7,0.5,1.1,0.5c0.5,0,0.9-0.3,0.9-0.8c0-0.5-0.3-0.8-0.8-0.8c-0.3,0-0.4,0.1-0.8,0.3l-0.5-0.3
		l0.1-2.6h2.9v1h-1.9l-0.1,1c0.2-0.1,0.4-0.1,0.6-0.1c0.9,0,1.6,0.5,1.6,1.6c0,1.1-0.9,1.8-1.9,1.8C219.7,43.7,219.1,43.4,218.7,43z
		"/>
	<path d="M223.2,43c0-0.4,0.3-0.7,0.7-0.7c0.4,0,0.7,0.3,0.7,0.7c0,0.4-0.3,0.7-0.7,0.7C223.5,43.7,223.2,43.4,223.2,43z"/>
	<path d="M227.5,42.4h-2.2v-0.8l1.9-3.1h1.4v3h0.6v0.9h-0.6v1.2h-1.1V42.4z M227.5,41.5v-0.8c0-0.3,0-0.8,0-1.1h0
		c-0.1,0.3-0.3,0.6-0.4,0.9l-0.7,1.1H227.5z"/>
	<path d="M231.7,42.4h-2.2v-0.8l1.9-3.1h1.4v3h0.6v0.9h-0.6v1.2h-1.1V42.4z M231.7,41.5v-0.8c0-0.3,0-0.8,0-1.1h0
		c-0.1,0.3-0.3,0.6-0.4,0.9l-0.7,1.1H231.7z"/>
</g>
<g>
	<path d="M220.5,59.8l0.2-0.2c0.3,0.3,0.7,0.6,1.4,0.6c0.7,0,1.3-0.6,1.3-1.4c0-0.8-0.5-1.3-1.2-1.3c-0.4,0-0.6,0.1-1,0.3l-0.2-0.2
		l0.2-2.4h2.4v0.3h-2l-0.2,1.8c0.3-0.2,0.5-0.3,0.9-0.3c0.9,0,1.6,0.5,1.6,1.6c0,1.1-0.8,1.7-1.6,1.7
		C221.3,60.5,220.9,60.2,220.5,59.8z"/>
	<path d="M224.7,60.2c0-0.2,0.2-0.4,0.3-0.4c0.2,0,0.3,0.1,0.3,0.4c0,0.2-0.2,0.4-0.3,0.4C224.9,60.5,224.7,60.4,224.7,60.2z"/>
	<path d="M226.6,60.1h1.2v-4.2h-0.9v-0.2c0.4-0.1,0.7-0.2,1-0.3h0.3v4.8h1.1v0.3h-2.7V60.1z"/>
	<path d="M230.2,60l0.2-0.2c0.2,0.3,0.5,0.4,0.9,0.4c0.8,0,1.5-0.7,1.5-2.5c-0.4,0.4-0.8,0.7-1.3,0.7c-0.9,0-1.4-0.6-1.4-1.6
		c0-0.9,0.6-1.6,1.4-1.6c1,0,1.7,0.9,1.7,2.4c0,2.1-0.9,2.9-1.9,2.9C230.8,60.5,230.5,60.3,230.2,60z M231.6,58.1
		c0.4,0,0.8-0.2,1.2-0.8c-0.1-1.1-0.5-1.8-1.3-1.8c-0.6,0-1,0.6-1,1.3C230.5,57.6,230.8,58.1,231.6,58.1z"/>
</g>
<g>
	<path d="M220.5,76.7l0.2-0.2c0.3,0.3,0.7,0.6,1.4,0.6c0.7,0,1.3-0.6,1.3-1.4c0-0.8-0.5-1.3-1.2-1.3c-0.4,0-0.6,0.1-1,0.3l-0.2-0.2
		l0.2-2.4h2.4v0.3h-2l-0.2,1.8c0.3-0.2,0.5-0.3,0.9-0.3c0.9,0,1.6,0.5,1.6,1.6c0,1.1-0.8,1.7-1.6,1.7
		C221.3,77.4,220.9,77,220.5,76.7z"/>
	<path d="M224.7,77c0-0.2,0.2-0.4,0.3-0.4c0.2,0,0.3,0.1,0.3,0.4c0,0.2-0.2,0.4-0.3,0.4C224.9,77.4,224.7,77.2,224.7,77z"/>
	<path d="M226.2,76.7l0.2-0.2c0.3,0.3,0.7,0.7,1.4,0.7c0.7,0,1.2-0.4,1.2-1.1c0-0.7-0.5-1.2-1.8-1.2v-0.3c1.2,0,1.6-0.5,1.6-1.1
		c0-0.6-0.4-1-1-1c-0.5,0-0.9,0.2-1.2,0.6l-0.2-0.2c0.4-0.3,0.8-0.6,1.4-0.6c0.8,0,1.4,0.4,1.4,1.2c0,0.7-0.4,1.1-1,1.3v0
		c0.6,0.1,1.2,0.6,1.2,1.3c0,0.9-0.7,1.4-1.6,1.4C227,77.4,226.5,77,226.2,76.7z"/>
	<path d="M230.2,76.9l0.2-0.2c0.2,0.3,0.5,0.4,0.9,0.4c0.8,0,1.5-0.7,1.5-2.5c-0.4,0.4-0.8,0.7-1.3,0.7c-0.9,0-1.4-0.6-1.4-1.6
		c0-0.9,0.6-1.6,1.4-1.6c1,0,1.7,0.9,1.7,2.4c0,2.1-0.9,2.9-1.9,2.9C230.8,77.4,230.5,77.2,230.2,76.9z M231.6,75
		c0.4,0,0.8-0.2,1.2-0.8c-0.1-1.1-0.5-1.8-1.3-1.8c-0.6,0-1,0.6-1,1.3C230.5,74.4,230.8,75,231.6,75z"/>
</g>
<g>
	<path d="M8.5,38.4h3.3v1H9.7v1.2h1.8v1H9.7v2H8.5V38.4z"/>
	<path d="M13.5,41.7l-1.6-3.4h1.3l0.5,1.2c0.1,0.4,0.3,0.8,0.4,1.2h0c0.2-0.4,0.3-0.8,0.4-1.2l0.5-1.2h1.2l-1.6,3.4v1.9h-1.2V41.7z"
		/>
	<path d="M18.1,42.9c1.3-1.2,2.2-2.1,2.2-2.8c0-0.5-0.3-0.8-0.7-0.8c-0.4,0-0.6,0.2-0.9,0.5L18,39.2c0.5-0.5,1-0.8,1.7-0.8
		c1,0,1.7,0.6,1.7,1.6c0,0.9-0.8,1.8-1.6,2.6c0.3,0,0.6-0.1,0.8-0.1h1v1h-3.6V42.9z"/>
	<path d="M22.3,41c0-1.7,0.7-2.6,1.8-2.6c1.1,0,1.8,0.9,1.8,2.6s-0.7,2.7-1.8,2.7C23.1,43.7,22.3,42.8,22.3,41z M24.8,41
		c0-1.4-0.3-1.7-0.7-1.7c-0.4,0-0.7,0.3-0.7,1.7c0,1.4,0.3,1.7,0.7,1.7C24.5,42.8,24.8,42.4,24.8,41z"/>
	<path d="M26.8,42.6h1.1v-2.9h-1V39c0.6-0.1,0.9-0.2,1.3-0.5h0.9v4.1h1v1h-3.2V42.6z"/>
	<path d="M30.8,43.1l0.6-0.7c0.2,0.2,0.5,0.4,0.8,0.4c0.6,0,1-0.4,1-1.6c-0.3,0.3-0.7,0.5-1,0.5c-0.9,0-1.5-0.5-1.5-1.6
		c0-1.1,0.8-1.7,1.7-1.7c1,0,1.9,0.7,1.9,2.5c0,1.9-1,2.8-2.1,2.8C31.6,43.7,31.1,43.4,30.8,43.1z M32.5,40.9c0.3,0,0.6-0.1,0.8-0.5
		c-0.1-0.8-0.4-1.1-0.8-1.1c-0.3,0-0.6,0.2-0.6,0.8C31.8,40.7,32.1,40.9,32.5,40.9z"/>
</g>
<g>
	<path d="M11.1,55.2h2.9v0.3h-2.5v2.1h2.1v0.3h-2.1v2.5h-0.4V55.2z"/>
	<path d="M15.8,58.3l-1.6-3.1h0.4l0.8,1.6c0.2,0.4,0.4,0.8,0.6,1.1h0c0.2-0.4,0.4-0.8,0.6-1.1l0.8-1.6h0.4l-1.6,3.1v2.1h-0.4V58.3z"
		/>
	<path d="M19.7,60.2c1.7-1.7,2.5-2.7,2.5-3.5c0-0.6-0.3-1.1-1.1-1.1c-0.5,0-0.9,0.3-1.2,0.7L19.7,56c0.4-0.4,0.8-0.8,1.5-0.8
		c0.9,0,1.4,0.6,1.4,1.4c0,1-0.9,2-2.3,3.5c0.3,0,0.6,0,0.9,0h1.7v0.3h-3.1V60.2z"/>
	<path d="M23.6,57.9c0-1.7,0.6-2.6,1.5-2.6s1.5,0.9,1.5,2.6c0,1.7-0.6,2.7-1.5,2.7S23.6,59.6,23.6,57.9z M26.3,57.9
		c0-1.6-0.5-2.3-1.2-2.3c-0.7,0-1.2,0.8-1.2,2.3c0,1.6,0.5,2.4,1.2,2.4C25.8,60.2,26.3,59.4,26.3,57.9z"/>
	<path d="M27.7,60.1h1.2v-4.2H28v-0.2c0.4-0.1,0.7-0.2,1-0.3h0.3v4.8h1.1v0.3h-2.7V60.1z"/>
	<path d="M31.2,59.1c0-0.7,0.5-1.2,1-1.4v0c-0.4-0.2-0.7-0.6-0.7-1.2c0-0.7,0.6-1.2,1.3-1.2c0.9,0,1.4,0.6,1.4,1.3
		c0,0.6-0.4,1.1-0.7,1.3v0c0.4,0.3,0.9,0.6,0.9,1.3c0,0.7-0.6,1.3-1.6,1.3C31.9,60.5,31.2,59.9,31.2,59.1z M34,59.2
		c0-0.8-0.8-1.1-1.6-1.4c-0.5,0.3-0.9,0.7-0.9,1.3c0,0.6,0.5,1.1,1.3,1.1C33.5,60.2,34,59.8,34,59.2z M33.9,56.6c0-0.6-0.4-1-1-1
		c-0.6,0-1,0.4-1,1c0,0.7,0.7,1,1.4,1.3C33.6,57.4,33.9,57,33.9,56.6z"/>
</g>
<g>
	<path d="M11.1,72h2.9v0.3h-2.5v2.1h2.1v0.3h-2.1v2.5h-0.4V72z"/>
	<path d="M15.8,75.1L14.2,72h0.4l0.8,1.6c0.2,0.4,0.4,0.8,0.6,1.1h0c0.2-0.4,0.4-0.8,0.6-1.1l0.8-1.6h0.4l-1.6,3.1v2.1h-0.4V75.1z"
		/>
	<path d="M19.7,77.1c1.7-1.7,2.5-2.7,2.5-3.5c0-0.6-0.3-1.1-1.1-1.1c-0.5,0-0.9,0.3-1.2,0.7l-0.2-0.2c0.4-0.4,0.8-0.8,1.5-0.8
		c0.9,0,1.4,0.6,1.4,1.4c0,1-0.9,2-2.3,3.5c0.3,0,0.6,0,0.9,0h1.7v0.3h-3.1V77.1z"/>
	<path d="M23.6,74.7c0-1.7,0.6-2.6,1.5-2.6s1.5,0.9,1.5,2.6c0,1.7-0.6,2.7-1.5,2.7S23.6,76.4,23.6,74.7z M26.3,74.7
		c0-1.6-0.5-2.3-1.2-2.3c-0.7,0-1.2,0.8-1.2,2.3c0,1.6,0.5,2.4,1.2,2.4C25.8,77.1,26.3,76.3,26.3,74.7z"/>
	<path d="M27.7,77h1.2v-4.2H28v-0.2c0.4-0.1,0.7-0.2,1-0.3h0.3V77h1.1v0.3h-2.7V77z"/>
	<path d="M33.9,72.5h-2.7v-0.3h3.1v0.2c-1.2,1.6-1.5,2.9-1.6,4.9h-0.4C32.4,75.2,32.9,73.9,33.9,72.5z"/>
</g>
<rect x="39" y="69.8" class="st1" width="144.5" height="8.9"/>
<rect x="39" y="53" class="st1" width="93.3" height="8.9"/>
<rect x="39" y="36.1" class="st2" width="165.8" height="8.9"/>
</svg>
