<?xml version="1.0" encoding="utf-8"?>
<!-- Generator: Adobe Illustrator 23.0.3, SVG Export Plug-In . SVG Version: 6.00 Build 0)  -->
<svg version="1.1" id="Layer_1" xmlns="http://www.w3.org/2000/svg" xmlns:xlink="http://www.w3.org/1999/xlink" x="0px" y="0px"
	 viewBox="0 0 240 163" style="enable-background:new 0 0 240 163;" xml:space="preserve">
<style type="text/css">
	.st0{fill:none;stroke:#000000;stroke-width:0.25;}
	.st1{fill:#ABD693;}
	.st2{fill:#55371E;}
	.st3{fill:none;stroke:#939598;stroke-width:0.499;}
	.st4{fill:#939598;}
</style>
<g>
	<path d="M4.3,5.3h1.3V10h2.3v1.1H4.3V5.3z"/>
	<path d="M9,6.4H7.4V5.3H12v1.1h-1.6v4.8H9V6.4z"/>
	<path d="M12.9,5.3h1.3v5.9h-1.3V5.3z"/>
	<path d="M15.6,5.3h3.7v1.1h-2.4v1.4h2v1.1h-2v2.3h-1.3V5.3z"/>
	<path d="M20.3,5.3h2.1c1.2,0,2.3,0.4,2.3,1.8c0,0.9-0.4,1.4-1,1.7l1.3,2.3h-1.5L22.4,9h-0.7v2.1h-1.3V5.3z M22.3,8
		c0.7,0,1.1-0.3,1.1-0.9S23,6.3,22.3,6.3h-0.7V8H22.3z"/>
	<path d="M25.8,7.6l0.5-0.9l-1-0.4l0.2-0.6l1,0.2l0.1-1.1h0.7l0.1,1.1l1-0.2l0.2,0.6l-1,0.4l0.5,0.9L27.8,8l-0.7-0.8L26.4,8
		L25.8,7.6z"/>
	<path d="M32.8,6.4h-1.6V5.3h4.6v1.1h-1.6v4.8h-1.3V6.4z"/>
	<path d="M36.2,6.7h1.1l0.1,0.8h0c0.3-0.6,0.8-0.9,1.3-0.9c0.3,0,0.4,0,0.5,0.1L39,7.8c-0.2,0-0.3-0.1-0.5-0.1c-0.3,0-0.7,0.2-1,0.8
		v2.6h-1.3V6.7z"/>
	<path d="M39.4,8.9c0-1.4,1-2.3,2.1-2.3c1.3,0,1.9,0.9,1.9,2.1c0,0.2,0,0.5-0.1,0.6h-2.7c0.1,0.6,0.6,0.9,1.2,0.9
		c0.3,0,0.6-0.1,1-0.3l0.4,0.8c-0.5,0.3-1.1,0.5-1.6,0.5C40.4,11.3,39.4,10.4,39.4,8.9z M42.3,8.4c0-0.5-0.2-0.8-0.7-0.8
		c-0.4,0-0.8,0.3-0.9,0.8H42.3z"/>
	<path d="M44.4,6.7h1.1l0.1,0.6h0c0.4-0.4,0.8-0.7,1.4-0.7c1,0,1.4,0.7,1.4,1.8v2.8h-1.3V8.5c0-0.6-0.2-0.8-0.6-0.8
		c-0.3,0-0.5,0.2-0.8,0.4v3h-1.3V6.7z"/>
	<path d="M49.3,8.9c0-1.5,0.9-2.3,1.9-2.3c0.5,0,0.8,0.2,1.1,0.5l-0.1-0.7V4.8h1.3v6.3h-1.1l-0.1-0.4h0c-0.3,0.3-0.8,0.5-1.2,0.5
		C50,11.3,49.3,10.4,49.3,8.9z M52.2,9.8V7.9c-0.2-0.2-0.5-0.3-0.7-0.3c-0.4,0-0.8,0.4-0.8,1.2c0,0.9,0.3,1.3,0.8,1.3
		C51.7,10.2,52,10.1,52.2,9.8z"/>
</g>
<line class="st0" x1="3.6" y1="17.3" x2="231.9" y2="17.3"/>
<line class="st0" x1="3.6" y1="139.5" x2="231.9" y2="139.5"/>
<g>
	<path d="M11.2,30.8c0-1.7,0.6-2.6,1.5-2.6c1,0,1.5,0.9,1.5,2.6c0,1.7-0.6,2.7-1.5,2.7C11.7,33.5,11.2,32.5,11.2,30.8z M13.9,30.8
		c0-1.6-0.5-2.3-1.2-2.3c-0.7,0-1.2,0.8-1.2,2.3c0,1.6,0.5,2.4,1.2,2.4C13.4,33.2,13.9,32.4,13.9,30.8z"/>
	<path d="M15.2,33.1c0-0.2,0.2-0.4,0.3-0.4s0.3,0.1,0.3,0.4c0,0.2-0.2,0.4-0.3,0.4S15.2,33.3,15.2,33.1z"/>
	<path d="M16.7,32.1c0-0.7,0.5-1.2,1-1.4v0C17.4,30.3,17,30,17,29.4c0-0.7,0.6-1.2,1.3-1.2c0.9,0,1.4,0.6,1.4,1.3
		c0,0.6-0.4,1.1-0.7,1.3v0c0.4,0.3,0.9,0.6,0.9,1.3c0,0.7-0.6,1.3-1.6,1.3C17.4,33.5,16.7,32.9,16.7,32.1z M19.5,32.1
		c0-0.8-0.8-1.1-1.6-1.4c-0.5,0.3-0.9,0.7-0.9,1.3c0,0.6,0.5,1.1,1.3,1.1C19,33.2,19.5,32.7,19.5,32.1z M19.4,29.5c0-0.6-0.4-1-1-1
		c-0.6,0-1,0.4-1,1c0,0.7,0.7,1,1.4,1.3C19.1,30.3,19.4,30,19.4,29.5z"/>
	<path d="M20.4,32.8l0.2-0.2c0.3,0.3,0.7,0.6,1.4,0.6c0.7,0,1.3-0.6,1.3-1.4c0-0.8-0.5-1.3-1.2-1.3c-0.4,0-0.6,0.1-1,0.3l-0.2-0.2
		l0.2-2.4h2.4v0.3h-2l-0.2,1.8c0.3-0.2,0.5-0.3,0.9-0.3c0.9,0,1.6,0.5,1.6,1.6c0,1.1-0.8,1.7-1.6,1.7C21.2,33.5,20.8,33.1,20.4,32.8
		z"/>
</g>
<g>
	<path d="M9.2,130h1.2v-4.2H9.5v-0.2c0.4-0.1,0.7-0.2,1-0.3h0.3v4.8h1.1v0.3H9.2V130z"/>
	<path d="M14.9,128.8h-2.3v-0.2l2.4-3.4h0.3v3.3H16v0.3h-0.8v1.5h-0.3V128.8z M14.9,128.5v-1.9c0-0.2,0-0.6,0-0.9h0
		c-0.1,0.2-0.3,0.4-0.4,0.6l-1.5,2.1H14.9z"/>
	<path d="M16.5,128.1h1.8v0.3h-1.8V128.1z"/>
	<path d="M19.3,130h1.2v-4.2h-0.9v-0.2c0.4-0.1,0.7-0.2,1-0.3h0.3v4.8H22v0.3h-2.7V130z"/>
	<path d="M22.7,129.7l0.2-0.2c0.3,0.3,0.7,0.6,1.4,0.6c0.7,0,1.3-0.6,1.3-1.4c0-0.8-0.5-1.3-1.2-1.3c-0.4,0-0.6,0.1-1,0.3l-0.2-0.2
		l0.2-2.4h2.4v0.3h-2l-0.2,1.8c0.3-0.2,0.5-0.3,0.9-0.3c0.9,0,1.6,0.5,1.6,1.6c0,1.1-0.8,1.7-1.6,1.7C23.4,130.4,23,130,22.7,129.7z
		"/>
</g>
<rect x="13" y="37.3" class="st1" width="8.9" height="84.2"/>
<g>
	<path d="M50.5,30.8c0-1.7,0.6-2.6,1.5-2.6c1,0,1.5,0.9,1.5,2.6c0,1.7-0.6,2.7-1.5,2.7C51.1,33.5,50.5,32.5,50.5,30.8z M53.2,30.8
		c0-1.6-0.5-2.3-1.2-2.3c-0.7,0-1.2,0.8-1.2,2.3c0,1.6,0.5,2.4,1.2,2.4C52.8,33.2,53.2,32.4,53.2,30.8z"/>
	<path d="M54.5,33.1c0-0.2,0.2-0.4,0.3-0.4c0.2,0,0.3,0.1,0.3,0.4c0,0.2-0.2,0.4-0.3,0.4C54.7,33.5,54.5,33.3,54.5,33.1z"/>
	<path d="M56,32.8l0.2-0.2c0.3,0.3,0.7,0.6,1.4,0.6c0.7,0,1.3-0.6,1.3-1.4c0-0.8-0.5-1.3-1.2-1.3c-0.4,0-0.6,0.1-1,0.3l-0.2-0.2
		l0.2-2.4h2.4v0.3h-2l-0.2,1.8c0.3-0.2,0.5-0.3,0.9-0.3c0.9,0,1.6,0.5,1.6,1.6c0,1.1-0.8,1.7-1.6,1.7C56.7,33.5,56.3,33.1,56,32.8z"
		/>
	<path d="M60,30.8c0-1.7,0.6-2.6,1.5-2.6c1,0,1.5,0.9,1.5,2.6c0,1.7-0.6,2.7-1.5,2.7C60.5,33.5,60,32.5,60,30.8z M62.7,30.8
		c0-1.6-0.5-2.3-1.2-2.3c-0.7,0-1.2,0.8-1.2,2.3c0,1.6,0.5,2.4,1.2,2.4C62.2,33.2,62.7,32.4,62.7,30.8z"/>
</g>
<g>
	<path d="M48.6,130h1.2v-4.2h-0.9v-0.2c0.4-0.1,0.7-0.2,1-0.3h0.3v4.8h1.1v0.3h-2.7V130z"/>
	<path d="M52,129.7l0.2-0.2c0.3,0.3,0.7,0.6,1.4,0.6c0.7,0,1.3-0.6,1.3-1.4c0-0.8-0.5-1.3-1.2-1.3c-0.4,0-0.6,0.1-1,0.3l-0.2-0.2
		l0.2-2.4h2.4v0.3h-2l-0.2,1.8c0.3-0.2,0.5-0.3,0.9-0.3c0.9,0,1.6,0.5,1.6,1.6c0,1.1-0.8,1.7-1.6,1.7C52.8,130.4,52.3,130,52,129.7z
		"/>
	<path d="M55.9,128.1h1.8v0.3h-1.8V128.1z"/>
	<path d="M58.7,130h1.2v-4.2h-0.9v-0.2c0.4-0.1,0.7-0.2,1-0.3h0.3v4.8h1.1v0.3h-2.7V130z"/>
	<path d="M62.2,128c0-2.1,0.9-2.9,1.9-2.9c0.5,0,0.8,0.2,1.1,0.5l-0.2,0.2c-0.2-0.3-0.5-0.4-0.9-0.4c-0.8,0-1.5,0.7-1.5,2.5
		c0.4-0.4,0.8-0.7,1.3-0.7c0.9,0,1.4,0.6,1.4,1.6c0,0.9-0.6,1.6-1.4,1.6C62.9,130.4,62.2,129.5,62.2,128z M62.6,128.3
		c0.1,1.1,0.5,1.8,1.3,1.8c0.6,0,1-0.6,1-1.3s-0.3-1.3-1.1-1.3C63.5,127.5,63,127.7,62.6,128.3z"/>
</g>
<rect x="52.3" y="72" class="st1" width="8.9" height="49.5"/>
<g>
	<path d="M167.6,30.8c0-1.7,0.7-2.6,1.8-2.6c1.1,0,1.8,0.9,1.8,2.6s-0.7,2.7-1.8,2.7C168.4,33.5,167.6,32.5,167.6,30.8z M170.1,30.8
		c0-1.4-0.3-1.7-0.7-1.7c-0.4,0-0.7,0.3-0.7,1.7c0,1.4,0.3,1.7,0.7,1.7C169.8,32.6,170.1,32.2,170.1,30.8z"/>
	<path d="M172,32.7c0-0.4,0.3-0.7,0.7-0.7c0.4,0,0.7,0.3,0.7,0.7c0,0.4-0.3,0.7-0.7,0.7C172.3,33.5,172,33.2,172,32.7z"/>
	<path d="M174.3,31c0-1.9,1-2.8,2.1-2.8c0.7,0,1.2,0.3,1.5,0.6l-0.6,0.7c-0.2-0.2-0.5-0.4-0.8-0.4c-0.6,0-1,0.4-1,1.6
		c0.3-0.3,0.7-0.5,1-0.5c0.9,0,1.5,0.5,1.5,1.6c0,1.1-0.8,1.7-1.7,1.7C175.2,33.5,174.3,32.7,174.3,31z M175.4,31.5
		c0.1,0.8,0.4,1.1,0.8,1.1s0.6-0.2,0.6-0.8c0-0.5-0.3-0.7-0.7-0.7C175.9,31,175.6,31.2,175.4,31.5z"/>
	<path d="M178.4,32.8l0.5-0.7c0.3,0.3,0.7,0.5,1.1,0.5c0.5,0,0.8-0.2,0.8-0.6c0-0.4-0.3-0.7-1.4-0.7v-0.8c0.9,0,1.2-0.3,1.2-0.7
		c0-0.4-0.2-0.6-0.6-0.6c-0.4,0-0.6,0.2-1,0.4l-0.6-0.7c0.5-0.4,1-0.6,1.6-0.6c1,0,1.8,0.5,1.8,1.4c0,0.5-0.3,0.9-0.8,1.1v0
		c0.6,0.2,1,0.6,1,1.2c0,0.9-0.9,1.5-1.9,1.5C179.3,33.5,178.7,33.2,178.4,32.8z"/>
</g>
<g>
	<path d="M165.7,129.3h1.1v-2.9h-1v-0.7c0.6-0.1,0.9-0.2,1.3-0.5h0.9v4.1h1v1h-3.2V129.3z"/>
	<path d="M169.7,129c0-0.6,0.4-1,0.9-1.2v0c-0.4-0.3-0.7-0.7-0.7-1.2c0-0.9,0.7-1.4,1.6-1.4c0.9,0,1.5,0.6,1.5,1.4
		c0,0.5-0.3,0.9-0.7,1.1v0c0.5,0.3,0.9,0.7,0.9,1.3c0,0.8-0.7,1.4-1.8,1.4C170.4,130.4,169.7,129.8,169.7,129z M172.1,128.9
		c0-0.4-0.4-0.6-1.1-0.9c-0.2,0.2-0.4,0.5-0.4,0.8c0,0.4,0.4,0.7,0.8,0.7C171.8,129.6,172.1,129.4,172.1,128.9z M172,126.6
		c0-0.4-0.2-0.7-0.6-0.7c-0.3,0-0.6,0.2-0.6,0.6c0,0.4,0.4,0.6,0.9,0.8C171.9,127.1,172,126.9,172,126.6z"/>
	<path d="M173.9,127.9h2v0.8h-2V127.9z"/>
	<path d="M176.8,129.3h1.1v-2.9h-1v-0.7c0.6-0.1,0.9-0.2,1.3-0.5h0.9v4.1h1v1h-3.2V129.3z"/>
	<path d="M180.8,129.8l0.6-0.7c0.2,0.2,0.5,0.4,0.8,0.4c0.6,0,1-0.4,1-1.6c-0.3,0.3-0.7,0.5-1,0.5c-0.9,0-1.5-0.5-1.5-1.6
		c0-1.1,0.8-1.7,1.7-1.7c1,0,1.9,0.7,1.9,2.5c0,1.9-1,2.8-2.1,2.8C181.6,130.4,181.1,130.1,180.8,129.8z M182.4,127.6
		c0.3,0,0.6-0.1,0.8-0.5c-0.1-0.8-0.4-1.1-0.8-1.1c-0.3,0-0.6,0.2-0.6,0.8C181.8,127.4,182.1,127.6,182.4,127.6z"/>
</g>
<rect x="170.4" y="59" class="st2" width="8.9" height="62.4"/>
<g>
	<path d="M89.9,30.8c0-1.7,0.6-2.6,1.5-2.6c1,0,1.5,0.9,1.5,2.6c0,1.7-0.6,2.7-1.5,2.7C90.5,33.5,89.9,32.5,89.9,30.8z M92.6,30.8
		c0-1.6-0.5-2.3-1.2-2.3c-0.7,0-1.2,0.8-1.2,2.3c0,1.6,0.5,2.4,1.2,2.4C92.1,33.2,92.6,32.4,92.6,30.8z"/>
	<path d="M93.9,33.1c0-0.2,0.2-0.4,0.3-0.4s0.3,0.1,0.3,0.4c0,0.2-0.2,0.4-0.3,0.4S93.9,33.3,93.9,33.1z"/>
	<path d="M95.3,32.8l0.2-0.2c0.3,0.3,0.7,0.7,1.4,0.7c0.7,0,1.2-0.4,1.2-1.1c0-0.7-0.5-1.2-1.8-1.2v-0.3c1.2,0,1.6-0.5,1.6-1.1
		c0-0.6-0.4-1-1-1c-0.5,0-0.9,0.2-1.2,0.6l-0.2-0.2c0.4-0.3,0.8-0.6,1.4-0.6c0.8,0,1.4,0.4,1.4,1.2c0,0.7-0.4,1.1-1,1.3v0
		c0.6,0.1,1.2,0.6,1.2,1.3c0,0.9-0.7,1.4-1.6,1.4C96.1,33.5,95.7,33.1,95.3,32.8z"/>
	<path d="M99.3,30.8c0-1.7,0.6-2.6,1.5-2.6c1,0,1.5,0.9,1.5,2.6c0,1.7-0.6,2.7-1.5,2.7C99.9,33.5,99.3,32.5,99.3,30.8z M102,30.8
		c0-1.6-0.5-2.3-1.2-2.3c-0.7,0-1.2,0.8-1.2,2.3c0,1.6,0.5,2.4,1.2,2.4C101.6,33.2,102,32.4,102,30.8z"/>
</g>
<g>
	<path d="M88,130h1.2v-4.2h-0.9v-0.2c0.4-0.1,0.7-0.2,1-0.3h0.3v4.8h1.1v0.3H88V130z"/>
	<path d="M91.5,128c0-2.1,0.9-2.9,1.9-2.9c0.5,0,0.8,0.2,1.1,0.5l-0.2,0.2c-0.2-0.3-0.5-0.4-0.9-0.4c-0.8,0-1.5,0.7-1.5,2.5
		c0.4-0.4,0.8-0.7,1.3-0.7c0.9,0,1.4,0.6,1.4,1.6c0,0.9-0.6,1.6-1.4,1.6C92.2,130.4,91.5,129.5,91.5,128z M91.9,128.3
		c0.1,1.1,0.5,1.8,1.3,1.8c0.6,0,1-0.6,1-1.3s-0.3-1.3-1.1-1.3C92.8,127.5,92.3,127.7,91.9,128.3z"/>
	<path d="M95.3,128.1H97v0.3h-1.8V128.1z"/>
	<path d="M98,130h1.2v-4.2h-0.9v-0.2c0.4-0.1,0.7-0.2,1-0.3h0.3v4.8h1.1v0.3H98V130z"/>
	<path d="M104.2,125.5h-2.7v-0.3h3.1v0.2c-1.2,1.6-1.5,2.9-1.6,4.9h-0.4C102.8,128.2,103.2,126.9,104.2,125.5z"/>
</g>
<rect x="91.7" y="91.8" class="st1" width="8.9" height="29.7"/>
<g>
	<path d="M129.3,30.8c0-1.7,0.6-2.6,1.5-2.6c1,0,1.5,0.9,1.5,2.6c0,1.7-0.6,2.7-1.5,2.7C129.8,33.5,129.3,32.5,129.3,30.8z
		 M132,30.8c0-1.6-0.5-2.3-1.2-2.3c-0.7,0-1.2,0.8-1.2,2.3c0,1.6,0.5,2.4,1.2,2.4C131.5,33.2,132,32.4,132,30.8z"/>
	<path d="M133.3,33.1c0-0.2,0.2-0.4,0.3-0.4c0.2,0,0.3,0.1,0.3,0.4c0,0.2-0.2,0.4-0.3,0.4C133.4,33.5,133.3,33.3,133.3,33.1z"/>
	<path d="M134.8,33.2c1.7-1.7,2.5-2.7,2.5-3.5c0-0.6-0.3-1.1-1.1-1.1c-0.5,0-0.9,0.3-1.2,0.7l-0.2-0.2c0.4-0.4,0.8-0.8,1.5-0.8
		c0.9,0,1.4,0.6,1.4,1.4c0,1-0.9,2-2.3,3.5c0.3,0,0.6,0,0.9,0h1.7v0.3h-3.1V33.2z"/>
	<path d="M141.3,28.6h-2.7v-0.3h3.1v0.2c-1.2,1.6-1.5,2.9-1.6,4.9h-0.4C139.9,31.3,140.3,30,141.3,28.6z"/>
</g>
<g>
	<path d="M127.3,130h1.2v-4.2h-0.9v-0.2c0.4-0.1,0.7-0.2,1-0.3h0.3v4.8h1.1v0.3h-2.7V130z"/>
	<path d="M133.5,125.5h-2.7v-0.3h3.1v0.2c-1.2,1.6-1.5,2.9-1.6,4.9H132C132.1,128.2,132.5,126.9,133.5,125.5z"/>
	<path d="M134.6,128.1h1.8v0.3h-1.8V128.1z"/>
	<path d="M137.4,130h1.2v-4.2h-0.9v-0.2c0.4-0.1,0.7-0.2,1-0.3h0.3v4.8h1.1v0.3h-2.7V130z"/>
	<path d="M140.8,129c0-0.7,0.5-1.2,1-1.4v0c-0.4-0.2-0.7-0.6-0.7-1.2c0-0.7,0.6-1.2,1.3-1.2c0.9,0,1.4,0.6,1.4,1.3
		c0,0.6-0.4,1.1-0.7,1.3v0c0.4,0.3,0.9,0.6,0.9,1.3c0,0.7-0.6,1.3-1.6,1.3C141.5,130.4,140.8,129.8,140.8,129z M143.7,129.1
		c0-0.8-0.8-1.1-1.6-1.4c-0.5,0.3-0.9,0.7-0.9,1.3c0,0.6,0.5,1.1,1.3,1.1C143.2,130.1,143.7,129.6,143.7,129.1z M143.5,126.4
		c0-0.6-0.4-1-1-1c-0.6,0-1,0.4-1,1c0,0.7,0.7,1,1.4,1.3C143.3,127.3,143.5,126.9,143.5,126.4z"/>
</g>
<rect x="131" y="94.8" class="st1" width="8.9" height="26.7"/>
<line class="st3" x1="174.1" y1="81.6" x2="17.4" y2="51.4"/>
<path class="st4" d="M173.1,81.6c0-0.6,0.4-1,1-1c0.6,0,1,0.4,1,1c0,0.6-0.4,1-1,1C173.5,82.6,173.1,82.1,173.1,81.6"/>
<path class="st4" d="M16.4,51.4c0-0.6,0.4-1,1-1c0.6,0,1,0.4,1,1c0,0.6-0.4,1-1,1C16.8,52.4,16.4,52,16.4,51.4"/>
<g>
	<path d="M4.4,153.5l0.5-0.8l-0.8-0.3l0.1-0.4l0.8,0.2l0.1-0.9h0.4l0.1,0.9l0.8-0.2l0.1,0.4l-0.8,0.3l0.4,0.8l-0.3,0.2l-0.6-0.7
		l-0.6,0.7L4.4,153.5z"/>
	<path d="M7.3,155.2c0-1.3,0.8-2,1.8-2c1,0,1.8,0.7,1.8,2c0,1.3-0.8,2-1.8,2C8.2,157.2,7.3,156.5,7.3,155.2z M10.2,155.2
		c0-0.9-0.4-1.5-1.1-1.5c-0.7,0-1.1,0.6-1.1,1.5c0,0.9,0.5,1.5,1.1,1.5C9.8,156.6,10.2,156,10.2,155.2z"/>
	<path d="M11.9,153.2h0.5l0.1,0.6h0c0.4-0.4,0.8-0.7,1.3-0.7c0.8,0,1.2,0.5,1.2,1.5v2.5h-0.7v-2.4c0-0.7-0.2-1-0.7-1
		c-0.4,0-0.7,0.2-1.1,0.6v2.8h-0.7V153.2z"/>
	<path d="M16,155.2c0-1.3,0.9-2,1.7-2c1,0,1.6,0.7,1.6,1.8c0,0.1,0,0.3,0,0.4h-2.6c0,0.8,0.6,1.4,1.3,1.4c0.4,0,0.7-0.1,1-0.3
		l0.2,0.4c-0.3,0.2-0.8,0.4-1.3,0.4C16.9,157.2,16,156.4,16,155.2z M18.7,154.8c0-0.8-0.4-1.2-1-1.2c-0.5,0-1,0.4-1.1,1.2H18.7z"/>
	<path d="M21.9,153.2h0.5l0.1,0.6h0c0.3-0.4,0.7-0.7,1.2-0.7c0.6,0,0.9,0.3,1.1,0.7c0.4-0.4,0.8-0.7,1.3-0.7c0.8,0,1.2,0.5,1.2,1.5
		v2.5h-0.7v-2.4c0-0.7-0.2-1-0.7-1c-0.3,0-0.6,0.2-1,0.6v2.8h-0.7v-2.4c0-0.7-0.2-1-0.7-1c-0.3,0-0.6,0.2-1,0.6v2.8h-0.7V153.2z"/>
	<path d="M28.4,152c0-0.3,0.2-0.4,0.4-0.4s0.4,0.2,0.4,0.4c0,0.3-0.2,0.4-0.4,0.4S28.4,152.2,28.4,152z M28.5,153.2h0.7v3.9h-0.7
		V153.2z"/>
	<path d="M30.5,156.3v-4.9h0.7v5c0,0.2,0.1,0.3,0.2,0.3c0,0,0.1,0,0.1,0l0.1,0.5c-0.1,0-0.2,0.1-0.4,0.1
		C30.7,157.2,30.5,156.9,30.5,156.3z"/>
	<path d="M32.5,156.3v-4.9h0.7v5c0,0.2,0.1,0.3,0.2,0.3c0,0,0.1,0,0.1,0l0.1,0.5c-0.1,0-0.2,0.1-0.4,0.1
		C32.7,157.2,32.5,156.9,32.5,156.3z"/>
	<path d="M34.5,152c0-0.3,0.2-0.4,0.4-0.4s0.4,0.2,0.4,0.4c0,0.3-0.2,0.4-0.4,0.4S34.5,152.2,34.5,152z M34.6,153.2h0.7v3.9h-0.7
		V153.2z"/>
	<path d="M36.2,155.2c0-1.3,0.8-2,1.8-2c1,0,1.8,0.7,1.8,2c0,1.3-0.8,2-1.8,2C37.1,157.2,36.2,156.5,36.2,155.2z M39.2,155.2
		c0-0.9-0.4-1.5-1.1-1.5c-0.7,0-1.1,0.6-1.1,1.5c0,0.9,0.5,1.5,1.1,1.5C38.7,156.6,39.2,156,39.2,155.2z"/>
	<path d="M40.9,153.2h0.5l0.1,0.6h0c0.4-0.4,0.8-0.7,1.3-0.7c0.8,0,1.2,0.5,1.2,1.5v2.5h-0.7v-2.4c0-0.7-0.2-1-0.7-1
		c-0.4,0-0.7,0.2-1.1,0.6v2.8h-0.7V153.2z"/>
	<path d="M46.8,153.2h0.5l0.1,0.6h0c0.3-0.4,0.7-0.7,1.2-0.7c0.6,0,0.9,0.3,1.1,0.7c0.4-0.4,0.8-0.7,1.3-0.7c0.8,0,1.2,0.5,1.2,1.5
		v2.5h-0.7v-2.4c0-0.7-0.2-1-0.7-1c-0.3,0-0.6,0.2-1,0.6v2.8h-0.7v-2.4c0-0.7-0.2-1-0.7-1c-0.3,0-0.6,0.2-1,0.6v2.8h-0.7V153.2z"/>
	<path d="M53.2,156.1c0-0.8,0.7-1.3,2.4-1.5c0-0.5-0.2-1-0.8-1c-0.4,0-0.9,0.2-1.2,0.4l-0.3-0.5c0.4-0.2,0.9-0.5,1.5-0.5
		c1,0,1.4,0.6,1.4,1.6v2.4h-0.5l-0.1-0.5h0c-0.4,0.3-0.8,0.6-1.3,0.6C53.7,157.2,53.2,156.8,53.2,156.1z M55.6,156.1v-1.1
		c-1.3,0.2-1.7,0.5-1.7,1c0,0.4,0.3,0.6,0.7,0.6C54.9,156.7,55.2,156.5,55.6,156.1z"/>
	<path d="M57.5,153.2h0.5l0.1,0.6h0c0.4-0.4,0.8-0.7,1.3-0.7c0.8,0,1.2,0.5,1.2,1.5v2.5H60v-2.4c0-0.7-0.2-1-0.7-1
		c-0.4,0-0.7,0.2-1.1,0.6v2.8h-0.7V153.2z"/>
	<path d="M61.6,154.8h1.8v0.5h-1.8V154.8z"/>
	<path d="M64.4,151.4H65v1.6l0,0.8c0.4-0.4,0.8-0.6,1.3-0.6c0.8,0,1.2,0.5,1.2,1.5v2.5h-0.7v-2.4c0-0.7-0.2-1-0.7-1
		c-0.4,0-0.7,0.2-1.1,0.6v2.8h-0.7V151.4z"/>
	<path d="M68.4,155.2c0-1.3,0.8-2,1.8-2c1,0,1.8,0.7,1.8,2c0,1.3-0.8,2-1.8,2C69.3,157.2,68.4,156.5,68.4,155.2z M71.4,155.2
		c0-0.9-0.4-1.5-1.1-1.5c-0.7,0-1.1,0.6-1.1,1.5c0,0.9,0.5,1.5,1.1,1.5C70.9,156.6,71.4,156,71.4,155.2z"/>
	<path d="M73,155.7v-2.5h0.7v2.4c0,0.7,0.2,1,0.7,1c0.4,0,0.7-0.2,1-0.7v-2.8h0.7v3.9h-0.5l-0.1-0.6h0c-0.4,0.4-0.7,0.7-1.3,0.7
		C73.4,157.2,73,156.7,73,155.7z"/>
	<path d="M77.4,153.2H78l0.1,0.7h0c0.3-0.5,0.7-0.8,1.1-0.8c0.2,0,0.3,0,0.4,0.1l-0.1,0.6c-0.1,0-0.2-0.1-0.4-0.1
		c-0.3,0-0.7,0.2-1,0.9v2.5h-0.7V153.2z"/>
	<path d="M79.7,156.7l0.3-0.4c0.3,0.3,0.7,0.5,1.1,0.5c0.5,0,0.8-0.3,0.8-0.6c0-0.4-0.5-0.6-0.9-0.7c-0.6-0.2-1.1-0.5-1.1-1.1
		c0-0.6,0.5-1.1,1.3-1.1c0.5,0,0.9,0.2,1.2,0.4l-0.3,0.4c-0.3-0.2-0.5-0.3-0.9-0.3c-0.5,0-0.7,0.3-0.7,0.6c0,0.4,0.4,0.5,0.8,0.7
		c0.6,0.2,1.2,0.4,1.2,1.2c0,0.6-0.5,1.2-1.4,1.2C80.6,157.2,80.1,157,79.7,156.7z"/>
	<path d="M84.8,156.1c0-0.8,0.7-1.3,2.4-1.5c0-0.5-0.2-1-0.8-1c-0.4,0-0.9,0.2-1.2,0.4l-0.3-0.5c0.4-0.2,0.9-0.5,1.5-0.5
		c1,0,1.4,0.6,1.4,1.6v2.4h-0.5l-0.1-0.5h0c-0.4,0.3-0.8,0.6-1.3,0.6C85.3,157.2,84.8,156.8,84.8,156.1z M87.2,156.1v-1.1
		c-1.3,0.2-1.7,0.5-1.7,1c0,0.4,0.3,0.6,0.7,0.6C86.5,156.7,86.8,156.5,87.2,156.1z"/>
	<path d="M89.1,153.2h0.5l0.1,0.6h0c0.4-0.4,0.8-0.7,1.3-0.7c0.8,0,1.2,0.5,1.2,1.5v2.5h-0.7v-2.4c0-0.7-0.2-1-0.7-1
		c-0.4,0-0.7,0.2-1.1,0.6v2.8h-0.7V153.2z"/>
	<path d="M93.2,155.2c0-1.3,0.8-2,1.7-2c0.4,0,0.7,0.2,1.1,0.4l0-0.7v-1.5h0.7v5.7h-0.5l-0.1-0.5h0c-0.3,0.3-0.7,0.6-1.2,0.6
		C93.8,157.2,93.2,156.5,93.2,155.2z M95.9,156.1v-2c-0.3-0.3-0.6-0.4-0.9-0.4c-0.6,0-1.1,0.6-1.1,1.5c0,0.9,0.4,1.5,1.1,1.5
		C95.3,156.6,95.6,156.5,95.9,156.1z"/>
	<path d="M99.4,152c0-0.3,0.2-0.4,0.4-0.4s0.4,0.2,0.4,0.4c0,0.3-0.2,0.4-0.4,0.4S99.4,152.2,99.4,152z M99.5,153.2h0.7v3.9h-0.7
		V153.2z"/>
	<path d="M101.5,153.2h0.5l0.1,0.6h0c0.4-0.4,0.8-0.7,1.3-0.7c0.8,0,1.2,0.5,1.2,1.5v2.5h-0.7v-2.4c0-0.7-0.2-1-0.7-1
		c-0.4,0-0.7,0.2-1.1,0.6v2.8h-0.7V153.2z"/>
	<path d="M105.6,155.2c0-1.3,0.9-2,1.9-2c0.5,0,0.9,0.2,1.1,0.5l-0.3,0.4c-0.2-0.2-0.5-0.3-0.8-0.3c-0.7,0-1.2,0.6-1.2,1.5
		c0,0.9,0.5,1.5,1.2,1.5c0.4,0,0.7-0.2,0.9-0.4l0.3,0.4c-0.4,0.3-0.8,0.5-1.3,0.5C106.4,157.2,105.6,156.5,105.6,155.2z"/>
	<path d="M109.4,152c0-0.3,0.2-0.4,0.4-0.4s0.4,0.2,0.4,0.4c0,0.3-0.2,0.4-0.4,0.4S109.4,152.2,109.4,152z M109.5,153.2h0.7v3.9
		h-0.7V153.2z"/>
	<path d="M111.2,155.2c0-1.3,0.8-2,1.7-2c0.4,0,0.7,0.2,1.1,0.4l0-0.7v-1.5h0.7v5.7h-0.5l-0.1-0.5h0c-0.3,0.3-0.7,0.6-1.2,0.6
		C111.8,157.2,111.2,156.5,111.2,155.2z M113.9,156.1v-2c-0.3-0.3-0.6-0.4-0.9-0.4c-0.6,0-1.1,0.6-1.1,1.5c0,0.9,0.4,1.5,1.1,1.5
		C113.3,156.6,113.6,156.5,113.9,156.1z"/>
	<path d="M115.6,155.2c0-1.3,0.9-2,1.7-2c1,0,1.6,0.7,1.6,1.8c0,0.1,0,0.3,0,0.4h-2.6c0,0.8,0.6,1.4,1.3,1.4c0.4,0,0.7-0.1,1-0.3
		l0.2,0.4c-0.3,0.2-0.8,0.4-1.3,0.4C116.5,157.2,115.6,156.4,115.6,155.2z M118.3,154.8c0-0.8-0.4-1.2-1-1.2c-0.5,0-1,0.4-1.1,1.2
		H118.3z"/>
	<path d="M119.9,153.2h0.5l0.1,0.6h0c0.4-0.4,0.8-0.7,1.3-0.7c0.8,0,1.2,0.5,1.2,1.5v2.5h-0.7v-2.4c0-0.7-0.2-1-0.7-1
		c-0.4,0-0.7,0.2-1.1,0.6v2.8h-0.7V153.2z"/>
	<path d="M124.4,155.9v-2.2h-0.6v-0.5l0.6,0l0.1-1.1h0.6v1.1h1v0.5h-1v2.2c0,0.5,0.2,0.8,0.6,0.8c0.1,0,0.3-0.1,0.4-0.1l0.1,0.5
		c-0.2,0.1-0.5,0.1-0.7,0.1C124.7,157.2,124.4,156.7,124.4,155.9z"/>
	<path d="M128.6,153.2h0.5l0.1,0.7h0c0.3-0.5,0.7-0.8,1.1-0.8c0.2,0,0.3,0,0.4,0.1l-0.1,0.6c-0.1,0-0.2-0.1-0.4-0.1
		c-0.3,0-0.7,0.2-1,0.9v2.5h-0.7V153.2z"/>
	<path d="M131,155.2c0-1.3,0.9-2,1.7-2c1,0,1.6,0.7,1.6,1.8c0,0.1,0,0.3,0,0.4h-2.6c0,0.8,0.6,1.4,1.3,1.4c0.4,0,0.7-0.1,1-0.3
		l0.2,0.4c-0.3,0.2-0.8,0.4-1.3,0.4C131.8,157.2,131,156.4,131,155.2z M133.7,154.8c0-0.8-0.4-1.2-1-1.2c-0.5,0-1,0.4-1.1,1.2H133.7
		z"/>
	<path d="M135.2,153.2h0.5l0.1,0.4h0c0.4-0.3,0.8-0.5,1.2-0.5c1,0,1.5,0.8,1.5,2c0,1.3-0.8,2.1-1.7,2.1c-0.4,0-0.7-0.2-1.1-0.4
		l0,0.7v1.3h-0.7V153.2z M137.9,155.1c0-0.9-0.3-1.4-1-1.4c-0.3,0-0.7,0.2-1,0.5v2c0.4,0.3,0.7,0.4,1,0.4
		C137.5,156.6,137.9,156.1,137.9,155.1z"/>
	<path d="M139.4,155.2c0-1.3,0.8-2,1.8-2s1.8,0.7,1.8,2c0,1.3-0.8,2-1.8,2S139.4,156.5,139.4,155.2z M142.3,155.2
		c0-0.9-0.4-1.5-1.1-1.5c-0.7,0-1.1,0.6-1.1,1.5c0,0.9,0.5,1.5,1.1,1.5C141.8,156.6,142.3,156,142.3,155.2z"/>
	<path d="M144,153.2h0.5l0.1,0.7h0c0.3-0.5,0.7-0.8,1.1-0.8c0.2,0,0.3,0,0.4,0.1l-0.1,0.6c-0.1,0-0.2-0.1-0.4-0.1
		c-0.3,0-0.7,0.2-1,0.9v2.5H144V153.2z"/>
	<path d="M146.9,155.9v-2.2h-0.6v-0.5l0.6,0l0.1-1.1h0.6v1.1h1v0.5h-1v2.2c0,0.5,0.2,0.8,0.6,0.8c0.1,0,0.3-0.1,0.4-0.1l0.1,0.5
		c-0.2,0.1-0.5,0.1-0.7,0.1C147.2,157.2,146.9,156.7,146.9,155.9z"/>
	<path d="M149.4,152c0-0.3,0.2-0.4,0.4-0.4s0.4,0.2,0.4,0.4c0,0.3-0.2,0.4-0.4,0.4S149.4,152.2,149.4,152z M149.5,153.2h0.7v3.9
		h-0.7V153.2z"/>
	<path d="M151.5,153.2h0.5l0.1,0.6h0c0.4-0.4,0.8-0.7,1.3-0.7c0.8,0,1.2,0.5,1.2,1.5v2.5h-0.7v-2.4c0-0.7-0.2-1-0.7-1
		c-0.4,0-0.7,0.2-1.1,0.6v2.8h-0.7V153.2z"/>
	<path d="M155.5,157.8c0-0.3,0.2-0.6,0.6-0.9v0c-0.2-0.1-0.3-0.3-0.3-0.6c0-0.3,0.2-0.6,0.4-0.7v0c-0.3-0.2-0.5-0.6-0.5-1
		c0-0.8,0.7-1.4,1.5-1.4c0.2,0,0.4,0,0.6,0.1h1.4v0.5h-0.8c0.2,0.2,0.3,0.5,0.3,0.8c0,0.8-0.6,1.4-1.4,1.4c-0.2,0-0.4,0-0.6-0.1
		c-0.1,0.1-0.2,0.2-0.2,0.5c0,0.2,0.2,0.4,0.7,0.4h0.8c0.9,0,1.4,0.3,1.4,0.9c0,0.7-0.8,1.3-2,1.3
		C156.2,158.9,155.5,158.5,155.5,157.8z M158.5,157.6c0-0.4-0.3-0.5-0.8-0.5H157c-0.2,0-0.3,0-0.5-0.1c-0.3,0.2-0.4,0.4-0.4,0.7
		c0,0.4,0.4,0.7,1.1,0.7C158,158.4,158.5,158,158.5,157.6z M158,154.5c0-0.6-0.4-0.9-0.8-0.9c-0.5,0-0.8,0.3-0.8,0.9
		s0.4,0.9,0.8,0.9S158,155.1,158,154.5z"/>
	<path d="M161.2,156.1c0-0.8,0.7-1.3,2.4-1.5c0-0.5-0.2-1-0.8-1c-0.4,0-0.9,0.2-1.2,0.4l-0.3-0.5c0.4-0.2,0.9-0.5,1.5-0.5
		c1,0,1.4,0.6,1.4,1.6v2.4h-0.5l-0.1-0.5h0c-0.4,0.3-0.8,0.6-1.3,0.6C161.7,157.2,161.2,156.8,161.2,156.1z M163.6,156.1v-1.1
		c-1.3,0.2-1.7,0.5-1.7,1c0,0.4,0.3,0.6,0.7,0.6C162.9,156.7,163.2,156.5,163.6,156.1z"/>
	<path d="M165.1,156.7l0.3-0.4c0.3,0.3,0.7,0.5,1.1,0.5c0.5,0,0.8-0.3,0.8-0.6c0-0.4-0.5-0.6-0.9-0.7c-0.6-0.2-1.1-0.5-1.1-1.1
		c0-0.6,0.5-1.1,1.3-1.1c0.5,0,0.9,0.2,1.2,0.4l-0.3,0.4c-0.3-0.2-0.5-0.3-0.9-0.3c-0.5,0-0.7,0.3-0.7,0.6c0,0.4,0.4,0.5,0.8,0.7
		c0.6,0.2,1.2,0.4,1.2,1.2c0,0.6-0.5,1.2-1.4,1.2C166,157.2,165.4,157,165.1,156.7z"/>
	<path d="M170.4,153.2h0.5l0.1,0.4h0c0.4-0.3,0.8-0.5,1.2-0.5c1,0,1.5,0.8,1.5,2c0,1.3-0.8,2.1-1.7,2.1c-0.4,0-0.7-0.2-1.1-0.4
		l0,0.7v1.3h-0.7V153.2z M173.2,155.1c0-0.9-0.3-1.4-1-1.4c-0.3,0-0.7,0.2-1,0.5v2c0.4,0.3,0.7,0.4,1,0.4
		C172.7,156.6,173.2,156.1,173.2,155.1z"/>
	<path d="M174.6,155.2c0-1.3,0.9-2,1.7-2c1,0,1.6,0.7,1.6,1.8c0,0.1,0,0.3,0,0.4h-2.6c0,0.8,0.6,1.4,1.3,1.4c0.4,0,0.7-0.1,1-0.3
		l0.2,0.4c-0.3,0.2-0.8,0.4-1.3,0.4C175.4,157.2,174.6,156.4,174.6,155.2z M177.3,154.8c0-0.8-0.4-1.2-1-1.2c-0.5,0-1,0.4-1.1,1.2
		H177.3z"/>
	<path d="M178.8,153.2h0.5l0.1,0.7h0c0.3-0.5,0.7-0.8,1.1-0.8c0.2,0,0.3,0,0.4,0.1l-0.1,0.6c-0.1,0-0.2-0.1-0.4-0.1
		c-0.3,0-0.7,0.2-1,0.9v2.5h-0.7V153.2z"/>
	<path d="M183.3,151.9h0.7v5.2h-0.7V151.9z"/>
	<path d="M185.1,154.5c0-1.7,1-2.7,2.3-2.7c0.6,0,1.1,0.3,1.4,0.6l-0.4,0.4c-0.3-0.3-0.6-0.5-1.1-0.5c-1,0-1.6,0.8-1.6,2.1
		c0,1.3,0.6,2.2,1.6,2.2c0.5,0,0.9-0.2,1.2-0.6l0.4,0.4c-0.4,0.5-0.9,0.8-1.6,0.8C186.1,157.2,185.1,156.2,185.1,154.5z"/>
	<path d="M190,151.9h0.8l1,2.8c0.1,0.4,0.2,0.7,0.4,1.1h0c0.1-0.4,0.2-0.7,0.4-1.1l1-2.8h0.8v5.2h-0.6v-2.9c0-0.5,0.1-1.1,0.1-1.6h0
		l-0.4,1.2l-1,2.7h-0.4l-1-2.7l-0.4-1.2h0c0,0.5,0.1,1.1,0.1,1.6v2.9H190V151.9z"/>
	<path d="M195.8,151.9h0.8l1,2.8c0.1,0.4,0.2,0.7,0.4,1.1h0c0.1-0.4,0.2-0.7,0.4-1.1l1-2.8h0.8v5.2h-0.6v-2.9c0-0.5,0.1-1.1,0.1-1.6
		h0l-0.4,1.2l-1,2.7h-0.4l-1-2.7l-0.4-1.2h0c0,0.5,0.1,1.1,0.1,1.6v2.9h-0.6V151.9z"/>
	<path d="M202.8,157.8c0-0.3,0.2-0.6,0.6-0.9v0c-0.2-0.1-0.3-0.3-0.3-0.6c0-0.3,0.2-0.6,0.4-0.7v0c-0.3-0.2-0.5-0.6-0.5-1
		c0-0.8,0.7-1.4,1.5-1.4c0.2,0,0.4,0,0.6,0.1h1.4v0.5h-0.8c0.2,0.2,0.3,0.5,0.3,0.8c0,0.8-0.6,1.4-1.4,1.4c-0.2,0-0.4,0-0.6-0.1
		c-0.1,0.1-0.2,0.2-0.2,0.5c0,0.2,0.2,0.4,0.7,0.4h0.8c0.9,0,1.4,0.3,1.4,0.9c0,0.7-0.8,1.3-2,1.3
		C203.5,158.9,202.8,158.5,202.8,157.8z M205.8,157.6c0-0.4-0.3-0.5-0.8-0.5h-0.7c-0.2,0-0.3,0-0.5-0.1c-0.3,0.2-0.4,0.4-0.4,0.7
		c0,0.4,0.4,0.7,1.1,0.7C205.3,158.4,205.8,158,205.8,157.6z M205.3,154.5c0-0.6-0.4-0.9-0.8-0.9c-0.5,0-0.8,0.3-0.8,0.9
		s0.4,0.9,0.8,0.9S205.3,155.1,205.3,154.5z"/>
	<path d="M207.1,155.7v-2.5h0.7v2.4c0,0.7,0.2,1,0.7,1c0.4,0,0.7-0.2,1-0.7v-2.8h0.7v3.9h-0.5l-0.1-0.6h0c-0.4,0.4-0.7,0.7-1.3,0.7
		C207.5,157.2,207.1,156.7,207.1,155.7z"/>
	<path d="M211.4,152c0-0.3,0.2-0.4,0.4-0.4s0.4,0.2,0.4,0.4c0,0.3-0.2,0.4-0.4,0.4S211.4,152.2,211.4,152z M211.5,153.2h0.7v3.9
		h-0.7V153.2z"/>
	<path d="M213.2,155.2c0-1.3,0.8-2,1.7-2c0.4,0,0.7,0.2,1.1,0.4l0-0.7v-1.5h0.7v5.7h-0.5l-0.1-0.5h0c-0.3,0.3-0.7,0.6-1.2,0.6
		C213.8,157.2,213.2,156.5,213.2,155.2z M215.9,156.1v-2c-0.3-0.3-0.6-0.4-0.9-0.4c-0.6,0-1.1,0.6-1.1,1.5c0,0.9,0.4,1.5,1.1,1.5
		C215.3,156.6,215.6,156.5,215.9,156.1z"/>
	<path d="M217.6,155.2c0-1.3,0.9-2,1.7-2c1,0,1.6,0.7,1.6,1.8c0,0.1,0,0.3,0,0.4h-2.6c0,0.8,0.6,1.4,1.3,1.4c0.4,0,0.7-0.1,1-0.3
		l0.2,0.4c-0.3,0.2-0.8,0.4-1.3,0.4C218.5,157.2,217.6,156.4,217.6,155.2z M220.4,154.8c0-0.8-0.4-1.2-1-1.2c-0.5,0-1,0.4-1.1,1.2
		H220.4z"/>
	<path d="M221.9,156.3v-4.9h0.7v5c0,0.2,0.1,0.3,0.2,0.3c0,0,0.1,0,0.1,0l0.1,0.5c-0.1,0-0.2,0.1-0.4,0.1
		C222.1,157.2,221.9,156.9,221.9,156.3z"/>
	<path d="M223.8,152c0-0.3,0.2-0.4,0.4-0.4s0.4,0.2,0.4,0.4c0,0.3-0.2,0.4-0.4,0.4S223.8,152.2,223.8,152z M223.9,153.2h0.7v3.9
		h-0.7V153.2z"/>
	<path d="M225.9,153.2h0.5l0.1,0.6h0c0.4-0.4,0.8-0.7,1.3-0.7c0.8,0,1.2,0.5,1.2,1.5v2.5h-0.7v-2.4c0-0.7-0.2-1-0.7-1
		c-0.4,0-0.7,0.2-1.1,0.6v2.8h-0.7V153.2z"/>
	<path d="M230,155.2c0-1.3,0.9-2,1.7-2c1,0,1.6,0.7,1.6,1.8c0,0.1,0,0.3,0,0.4h-2.6c0,0.8,0.6,1.4,1.3,1.4c0.4,0,0.7-0.1,1-0.3
		l0.2,0.4c-0.3,0.2-0.8,0.4-1.3,0.4C230.8,157.2,230,156.4,230,155.2z M232.7,154.8c0-0.8-0.4-1.2-1-1.2c-0.5,0-1,0.4-1.1,1.2H232.7
		z"/>
	<path d="M233.8,156.7l0.3-0.4c0.3,0.3,0.7,0.5,1.1,0.5c0.5,0,0.8-0.3,0.8-0.6c0-0.4-0.5-0.6-0.9-0.7c-0.6-0.2-1.1-0.5-1.1-1.1
		c0-0.6,0.5-1.1,1.3-1.1c0.5,0,0.9,0.2,1.2,0.4l-0.3,0.4c-0.3-0.2-0.5-0.3-0.9-0.3c-0.5,0-0.7,0.3-0.7,0.6c0,0.4,0.4,0.5,0.8,0.7
		c0.6,0.2,1.2,0.4,1.2,1.2c0,0.6-0.5,1.2-1.4,1.2C234.7,157.2,234.2,157,233.8,156.7z"/>
</g>
</svg>
