<?xml version="1.0" encoding="utf-8"?>
<!-- Generator: Adobe Illustrator 23.0.3, SVG Export Plug-In . SVG Version: 6.00 Build 0)  -->
<svg version="1.1" id="Layer_1" xmlns="http://www.w3.org/2000/svg" xmlns:xlink="http://www.w3.org/1999/xlink" x="0px" y="0px"
	 viewBox="0 0 246 100" style="enable-background:new 0 0 246 100;" xml:space="preserve">
<style type="text/css">
	.st0{fill:#FFFFFF;}
	.st1{fill:#00AE4D;}
	.st2{fill:none;stroke:#939598;stroke-width:0.5;stroke-miterlimit:10;}
	.st3{fill:none;stroke:#939598;stroke-width:0.499;stroke-miterlimit:10;}
	.st4{fill:none;stroke:#FFFFFF;stroke-width:0.499;stroke-miterlimit:10;}
</style>
<g>
	<path d="M4.9,13.4l0.8-0.9c0.4,0.4,1,0.6,1.4,0.6c0.5,0,0.8-0.2,0.8-0.6c0-0.4-0.3-0.5-0.8-0.7l-0.8-0.3c-0.6-0.2-1.2-0.7-1.2-1.6
		c0-1,0.9-1.7,2.1-1.7c0.7,0,1.4,0.3,1.9,0.8L8.5,9.7C8.1,9.4,7.7,9.3,7.2,9.3c-0.5,0-0.7,0.2-0.7,0.5c0,0.4,0.4,0.5,0.9,0.7
		l0.8,0.3c0.7,0.3,1.2,0.8,1.2,1.6c0,1-0.8,1.8-2.2,1.8C6.3,14.2,5.5,13.9,4.9,13.4z"/>
	<path d="M11.4,8.2H13l1.8,5.9h-1.4l-0.4-1.4h-1.8l-0.4,1.4H9.6L11.4,8.2z M11.5,11.7h1.3l-0.1-0.5c-0.2-0.6-0.3-1.3-0.5-1.9h0
		c-0.1,0.6-0.3,1.3-0.5,1.9L11.5,11.7z"/>
	<path d="M15.5,8.2h3.7v1.1h-2.4v1.4h2v1.1h-2v2.3h-1.3V8.2z"/>
	<path d="M20.2,8.2h3.7v1.1h-2.3v1.2h2v1.1h-2V13h2.4v1.1h-3.8V8.2z"/>
	<path d="M26.3,9.3h-1.6V8.2h4.6v1.1h-1.6v4.8h-1.3V9.3z"/>
	<path d="M31,12l-1.8-3.8h1.4l0.5,1.4c0.2,0.4,0.3,0.8,0.5,1.3h0c0.2-0.5,0.3-0.9,0.5-1.3l0.5-1.4h1.4L32.3,12v2.1H31V12z"/>
	<path d="M36.5,8.2h2c1.2,0,2.2,0.3,2.2,1.5c0,0.5-0.3,1.1-0.8,1.3v0c0.6,0.2,1.1,0.6,1.1,1.4c0,1.2-1,1.7-2.3,1.7h-2.2V8.2z
		 M38.4,10.6c0.6,0,0.9-0.3,0.9-0.7c0-0.5-0.3-0.6-0.9-0.6h-0.6v1.3H38.4z M38.5,13.1c0.7,0,1.1-0.3,1.1-0.8c0-0.5-0.4-0.7-1.1-0.7
		h-0.7v1.5H38.5z"/>
	<path d="M41.9,8.2h3.7v1.1h-2.3v1.2h2v1.1h-2V13h2.4v1.1h-3.8V8.2z"/>
	<path d="M46.9,8.2h1.4l1.5,2.9l0.6,1.3h0c-0.1-0.6-0.2-1.4-0.2-2.1V8.2h1.3v5.9h-1.4l-1.5-2.9L48,9.9h0c0.1,0.6,0.2,1.4,0.2,2.1
		v2.1h-1.3V8.2z"/>
	<path d="M52.6,11.2c0-1.9,1.3-3.1,2.8-3.1c0.8,0,1.4,0.4,1.8,0.8l-0.7,0.8c-0.3-0.3-0.6-0.5-1-0.5c-0.8,0-1.4,0.7-1.4,1.9
		c0,1.2,0.6,1.9,1.4,1.9c0.5,0,0.9-0.2,1.1-0.5l0.7,0.8c-0.5,0.6-1.1,0.9-1.9,0.9C53.8,14.2,52.6,13.2,52.6,11.2z"/>
	<path d="M58.1,8.2h1.3v2.3h2V8.2h1.3v5.9h-1.3v-2.4h-2v2.4h-1.3V8.2z"/>
	<path d="M64.1,8.2h1.4l0.9,2.6c0.1,0.3,0.2,0.7,0.3,1.1h0c0.1-0.4,0.2-0.7,0.3-1.1l0.9-2.6h1.4v5.9h-1.2v-2.2c0-0.6,0.1-1.4,0.2-2
		h0l-0.5,1.4l-0.8,2.2h-0.7l-0.8-2.2l-0.5-1.4h0c0.1,0.6,0.2,1.4,0.2,2v2.2h-1.2V8.2z"/>
	<path d="M72.1,8.2h1.6l1.8,5.9h-1.4l-0.4-1.4H72l-0.4,1.4h-1.3L72.1,8.2z M72.2,11.7h1.3l-0.1-0.5c-0.2-0.6-0.3-1.3-0.5-1.9h0
		c-0.1,0.6-0.3,1.3-0.5,1.9L72.2,11.7z"/>
	<path d="M76.2,8.2h2.1c1.2,0,2.3,0.4,2.3,1.8c0,0.9-0.4,1.4-1,1.7l1.3,2.3h-1.5L78.2,12h-0.7v2.1h-1.3V8.2z M78.2,10.9
		c0.7,0,1.1-0.3,1.1-0.9s-0.4-0.8-1.1-0.8h-0.7v1.6H78.2z"/>
	<path d="M81.7,8.2H83v2.4h0l1.7-2.4h1.5l-1.8,2.3l2.1,3.5h-1.4l-1.4-2.5L83,12.5v1.6h-1.3V8.2z"/>
	<path d="M87.2,8.2h1.3v5.9h-1.3V8.2z"/>
	<path d="M89.9,8.2h1.4l1.5,2.9l0.6,1.3h0c-0.1-0.6-0.2-1.4-0.2-2.1V8.2h1.3v5.9h-1.4l-1.5-2.9L91,9.9h0c0.1,0.6,0.2,1.4,0.2,2.1
		v2.1h-1.3V8.2z"/>
	<path d="M95.6,11.2c0-1.9,1.3-3.1,2.9-3.1c0.8,0,1.5,0.4,1.8,0.8l-0.7,0.8c-0.3-0.3-0.6-0.5-1.1-0.5c-0.9,0-1.5,0.7-1.5,1.9
		c0,1.2,0.5,1.9,1.6,1.9c0.2,0,0.5-0.1,0.6-0.2v-1h-1v-1.1h2.1v2.7c-0.4,0.4-1.1,0.7-1.9,0.7C96.9,14.2,95.6,13.2,95.6,11.2z"/>
	<path d="M102.9,8.2h1.4l0.4,2.7c0.1,0.6,0.2,1.2,0.2,1.9h0c0.1-0.6,0.2-1.2,0.4-1.9l0.6-2.7h1.1l0.6,2.7c0.1,0.6,0.2,1.2,0.4,1.9h0
		c0.1-0.6,0.2-1.3,0.2-1.9l0.4-2.7h1.3l-1,5.9h-1.7l-0.6-2.7c-0.1-0.5-0.2-0.9-0.2-1.4h0c-0.1,0.4-0.1,0.9-0.2,1.4l-0.6,2.7H104
		L102.9,8.2z"/>
	<path d="M110.8,8.2h1.3v5.9h-1.3V8.2z"/>
	<path d="M114.6,9.3H113V8.2h4.6v1.1h-1.6v4.8h-1.3V9.3z"/>
	<path d="M118.5,8.2h1.3v2.3h2V8.2h1.3v5.9h-1.3v-2.4h-2v2.4h-1.3V8.2z"/>
	<path d="M126.1,11.2c0-1.9,1.3-3.1,2.9-3.1c0.8,0,1.5,0.4,1.8,0.8l-0.7,0.8c-0.3-0.3-0.6-0.5-1.1-0.5c-0.9,0-1.5,0.7-1.5,1.9
		c0,1.2,0.5,1.9,1.6,1.9c0.2,0,0.5-0.1,0.6-0.2v-1h-1v-1.1h2.1v2.7c-0.4,0.4-1.1,0.7-1.9,0.7C127.3,14.2,126.1,13.2,126.1,11.2z"/>
	<path d="M132.1,8.2h1.3V13h2.3v1.1h-3.6V8.2z"/>
	<path d="M136.1,11.1c0-1.9,1.1-3,2.7-3s2.7,1.1,2.7,3c0,1.9-1.1,3.1-2.7,3.1S136.1,13.1,136.1,11.1z M140.1,11.1
		c0-1.2-0.5-1.9-1.3-1.9s-1.3,0.7-1.3,1.9c0,1.2,0.5,1.9,1.3,1.9S140.1,12.3,140.1,11.1z"/>
	<path d="M142.6,8.2h2c1.2,0,2.2,0.3,2.2,1.5c0,0.5-0.3,1.1-0.8,1.3v0c0.6,0.2,1.1,0.6,1.1,1.4c0,1.2-1,1.7-2.3,1.7h-2.2V8.2z
		 M144.5,10.6c0.6,0,0.9-0.3,0.9-0.7c0-0.5-0.3-0.6-0.9-0.6h-0.6v1.3H144.5z M144.6,13.1c0.7,0,1.1-0.3,1.1-0.8
		c0-0.5-0.4-0.7-1.1-0.7h-0.7v1.5H144.6z"/>
	<path d="M149.1,8.2h1.6l1.8,5.9h-1.4l-0.4-1.4H149l-0.4,1.4h-1.3L149.1,8.2z M149.2,11.7h1.3l-0.1-0.5c-0.2-0.6-0.3-1.3-0.5-1.9h0
		c-0.1,0.6-0.3,1.3-0.5,1.9L149.2,11.7z"/>
	<path d="M153.2,8.2h1.3V13h2.3v1.1h-3.6V8.2z"/>
	<path d="M159.6,8.2h2c1.3,0,2.3,0.5,2.3,1.9c0,1.4-1.1,2-2.3,2H161v2h-1.3V8.2z M161.6,11.1c0.7,0,1.1-0.3,1.1-0.9
		s-0.4-0.8-1.1-0.8H161v1.8H161.6z"/>
	<path d="M165,8.2h3.7v1.1h-2.3v1.2h2v1.1h-2V13h2.4v1.1H165V8.2z"/>
	<path d="M169.9,8.2h3.7v1.1h-2.3v1.2h2v1.1h-2V13h2.4v1.1h-3.8V8.2z"/>
	<path d="M174.9,8.2h2.1c1.2,0,2.3,0.4,2.3,1.8c0,0.9-0.4,1.4-1,1.7l1.3,2.3H178l-1.1-2.1h-0.7v2.1h-1.3V8.2z M176.9,10.9
		c0.7,0,1.1-0.3,1.1-0.9s-0.4-0.8-1.1-0.8h-0.7v1.6H176.9z"/>
	<path d="M179.9,13.4l0.8-0.9c0.4,0.4,1,0.6,1.4,0.6c0.6,0,0.8-0.2,0.8-0.6c0-0.4-0.3-0.5-0.8-0.7l-0.8-0.3
		c-0.6-0.2-1.2-0.7-1.2-1.6c0-1,0.9-1.7,2.1-1.7c0.7,0,1.4,0.3,1.9,0.8l-0.7,0.8c-0.4-0.3-0.7-0.5-1.2-0.5c-0.5,0-0.7,0.2-0.7,0.5
		c0,0.4,0.4,0.5,0.9,0.7l0.8,0.3c0.7,0.3,1.2,0.8,1.2,1.6c0,1-0.8,1.8-2.2,1.8C181.3,14.2,180.5,13.9,179.9,13.4z"/>
</g>
<g>
	<path d="M5.7,88.7l0.5-0.8l-0.8-0.3l0.1-0.4l0.8,0.2l0.1-0.9h0.4l0.1,0.9l0.8-0.2l0.1,0.4L7,87.9l0.4,0.8l-0.3,0.2l-0.6-0.7L6,88.9
		L5.7,88.7z"/>
	<path d="M9,87h3v0.6H9.7v1.8h2v0.6h-2v2.4H9V87z"/>
	<path d="M13.8,90.2L12.2,87h0.7l0.7,1.5c0.2,0.4,0.3,0.8,0.5,1.1h0c0.2-0.4,0.4-0.8,0.5-1.1l0.7-1.5H16l-1.6,3.2v2h-0.7V90.2z"/>
	<path d="M18,91.9c1.5-1.5,2.4-2.4,2.4-3.3c0-0.6-0.3-1-1-1c-0.4,0-0.8,0.3-1.1,0.6l-0.4-0.4c0.4-0.5,0.9-0.8,1.5-0.8
		c0.9,0,1.5,0.6,1.5,1.5c0,1-0.9,1.9-2.1,3.2c0.3,0,0.6,0,0.9,0h1.5v0.6H18V91.9z"/>
	<path d="M22,89.7c0-1.7,0.6-2.6,1.6-2.6c1,0,1.6,0.9,1.6,2.6s-0.6,2.7-1.6,2.7C22.6,92.4,22,91.4,22,89.7z M24.6,89.7
		c0-1.5-0.4-2.1-1-2.1c-0.6,0-1,0.6-1,2.1s0.4,2.1,1,2.1C24.2,91.8,24.6,91.2,24.6,89.7z"/>
	<path d="M26.2,91.7h1.2V88h-0.9v-0.4c0.5-0.1,0.8-0.2,1.1-0.4H28v4.6h1.1v0.5h-2.9V91.7z"/>
	<path d="M30,91.8l0.4-0.4c0.2,0.2,0.5,0.4,0.8,0.4c0.7,0,1.3-0.6,1.4-2.2c-0.3,0.4-0.8,0.7-1.2,0.7c-0.9,0-1.4-0.5-1.4-1.6
		c0-1,0.7-1.6,1.5-1.6c1,0,1.8,0.8,1.8,2.5c0,2-0.9,2.8-1.9,2.8C30.7,92.4,30.2,92.1,30,91.8z M31.4,89.8c0.3,0,0.7-0.2,1.1-0.7
		c-0.1-1-0.5-1.5-1.1-1.5c-0.5,0-0.9,0.4-0.9,1.1C30.5,89.4,30.8,89.8,31.4,89.8z"/>
	<path d="M35.5,90.3c0-1.3,0.8-2,1.7-2c0.4,0,0.7,0.2,1.1,0.4l0-0.7v-1.5h0.7v5.7h-0.5l-0.1-0.5h0c-0.3,0.3-0.7,0.6-1.2,0.6
		C36.1,92.4,35.5,91.6,35.5,90.3z M38.3,91.3v-2c-0.3-0.3-0.6-0.4-0.9-0.4c-0.6,0-1.1,0.6-1.1,1.5c0,0.9,0.4,1.5,1.1,1.5
		C37.6,91.8,37.9,91.6,38.3,91.3z"/>
	<path d="M40,91.3c0-0.8,0.7-1.3,2.4-1.5c0-0.5-0.2-1-0.8-1c-0.4,0-0.9,0.2-1.2,0.4l-0.3-0.5c0.4-0.2,0.9-0.5,1.5-0.5
		c1,0,1.4,0.6,1.4,1.6v2.4h-0.5l-0.1-0.5h0c-0.4,0.3-0.8,0.6-1.3,0.6C40.5,92.4,40,92,40,91.3z M42.4,91.3v-1.1
		c-1.3,0.2-1.7,0.5-1.7,1c0,0.4,0.3,0.6,0.7,0.6C41.7,91.8,42,91.7,42.4,91.3z"/>
	<path d="M44.4,91.1v-2.2h-0.6v-0.5l0.6,0l0.1-1.1H45v1.1h1v0.5h-1v2.2c0,0.5,0.2,0.8,0.6,0.8c0.1,0,0.3-0.1,0.4-0.1l0.1,0.5
		c-0.2,0.1-0.5,0.1-0.7,0.1C44.7,92.4,44.4,91.8,44.4,91.1z"/>
	<path d="M46.6,91.3c0-0.8,0.7-1.3,2.4-1.5c0-0.5-0.2-1-0.8-1c-0.4,0-0.9,0.2-1.2,0.4l-0.3-0.5c0.4-0.2,0.9-0.5,1.5-0.5
		c1,0,1.4,0.6,1.4,1.6v2.4h-0.5l-0.1-0.5h0c-0.4,0.3-0.8,0.6-1.3,0.6C47.1,92.4,46.6,92,46.6,91.3z M49,91.3v-1.1
		c-1.3,0.2-1.7,0.5-1.7,1c0,0.4,0.3,0.6,0.7,0.6C48.4,91.8,48.7,91.7,49,91.3z"/>
	<path d="M50.8,91.9c0-0.3,0.2-0.5,0.5-0.5c0.3,0,0.5,0.2,0.5,0.5c0,0.3-0.2,0.5-0.5,0.5C51,92.4,50.8,92.2,50.8,91.9z"/>
	<path d="M54.3,89.7c0-1.7,1-2.7,2.3-2.7c0.6,0,1.1,0.3,1.4,0.6L57.7,88c-0.3-0.3-0.6-0.5-1.1-0.5c-1,0-1.6,0.8-1.6,2.1
		c0,1.3,0.6,2.2,1.6,2.2c0.5,0,0.9-0.2,1.2-0.6l0.4,0.4c-0.4,0.5-0.9,0.8-1.6,0.8C55.2,92.4,54.3,91.4,54.3,89.7z"/>
	<path d="M58.8,90.3c0-1.3,0.8-2,1.8-2c1,0,1.8,0.7,1.8,2c0,1.3-0.8,2-1.8,2C59.6,92.4,58.8,91.6,58.8,90.3z M61.7,90.3
		c0-0.9-0.4-1.5-1.1-1.5c-0.7,0-1.1,0.6-1.1,1.5c0,0.9,0.5,1.5,1.1,1.5C61.3,91.8,61.7,91.2,61.7,90.3z"/>
	<path d="M63.4,88.4H64L64,89h0c0.3-0.4,0.7-0.7,1.2-0.7c0.6,0,0.9,0.3,1.1,0.7c0.4-0.4,0.8-0.7,1.3-0.7c0.8,0,1.2,0.5,1.2,1.5v2.5
		h-0.7v-2.4c0-0.7-0.2-1-0.7-1c-0.3,0-0.6,0.2-1,0.6v2.8h-0.7v-2.4c0-0.7-0.2-1-0.7-1c-0.3,0-0.6,0.2-1,0.6v2.8h-0.7V88.4z"/>
	<path d="M70,88.4h0.5l0.1,0.4h0c0.4-0.3,0.8-0.5,1.2-0.5c1,0,1.5,0.8,1.5,2c0,1.3-0.8,2.1-1.7,2.1c-0.4,0-0.7-0.2-1.1-0.4l0,0.7
		v1.3H70V88.4z M72.8,90.3c0-0.9-0.3-1.4-1-1.4c-0.3,0-0.7,0.2-1,0.5v2c0.4,0.3,0.7,0.4,1,0.4C72.3,91.8,72.8,91.2,72.8,90.3z"/>
	<path d="M74.2,91.3c0-0.8,0.7-1.3,2.4-1.5c0-0.5-0.2-1-0.8-1c-0.4,0-0.9,0.2-1.2,0.4l-0.3-0.5c0.4-0.2,0.9-0.5,1.5-0.5
		c1,0,1.4,0.6,1.4,1.6v2.4h-0.5l-0.1-0.5h0c-0.4,0.3-0.8,0.6-1.3,0.6C74.7,92.4,74.2,92,74.2,91.3z M76.6,91.3v-1.1
		c-1.3,0.2-1.7,0.5-1.7,1c0,0.4,0.3,0.6,0.7,0.6C76,91.8,76.3,91.7,76.6,91.3z"/>
	<path d="M78.5,88.4h0.5l0.1,0.6h0c0.4-0.4,0.8-0.7,1.3-0.7c0.8,0,1.2,0.5,1.2,1.5v2.5H81v-2.4c0-0.7-0.2-1-0.7-1
		c-0.4,0-0.7,0.2-1.1,0.6v2.8h-0.7V88.4z"/>
	<path d="M82.5,93.9l0.1-0.5c0.1,0,0.2,0.1,0.3,0.1c0.4,0,0.7-0.4,0.9-0.8l0.1-0.3l-1.6-3.9H83l0.8,2.2c0.1,0.3,0.3,0.7,0.4,1.1h0
		c0.1-0.4,0.2-0.8,0.3-1.1l0.7-2.2h0.6l-1.5,4.2c-0.3,0.8-0.7,1.4-1.5,1.4C82.8,93.9,82.6,93.9,82.5,93.9z"/>
	<path d="M88,90.3c0-1.3,0.8-2,1.7-2c0.4,0,0.7,0.2,1.1,0.4l0-0.7v-1.5h0.7v5.7h-0.5l-0.1-0.5h0c-0.3,0.3-0.7,0.6-1.2,0.6
		C88.6,92.4,88,91.6,88,90.3z M90.7,91.3v-2c-0.3-0.3-0.6-0.4-0.9-0.4c-0.6,0-1.1,0.6-1.1,1.5c0,0.9,0.4,1.5,1.1,1.5
		C90.1,91.8,90.4,91.6,90.7,91.3z"/>
	<path d="M92.4,91.3c0-0.8,0.7-1.3,2.4-1.5c0-0.5-0.2-1-0.8-1c-0.4,0-0.9,0.2-1.2,0.4l-0.3-0.5c0.4-0.2,0.9-0.5,1.5-0.5
		c1,0,1.4,0.6,1.4,1.6v2.4h-0.5l-0.1-0.5h0c-0.4,0.3-0.8,0.6-1.3,0.6C92.9,92.4,92.4,92,92.4,91.3z M94.8,91.3v-1.1
		c-1.3,0.2-1.7,0.5-1.7,1c0,0.4,0.3,0.6,0.7,0.6C94.1,91.8,94.4,91.7,94.8,91.3z"/>
	<path d="M96.8,91.1v-2.2h-0.6v-0.5l0.6,0l0.1-1.1h0.6v1.1h1v0.5h-1v2.2c0,0.5,0.2,0.8,0.6,0.8c0.1,0,0.3-0.1,0.4-0.1l0.1,0.5
		c-0.2,0.1-0.5,0.1-0.7,0.1C97.1,92.4,96.8,91.8,96.8,91.1z"/>
	<path d="M99,90.3c0-1.3,0.9-2,1.7-2c1,0,1.6,0.7,1.6,1.8c0,0.1,0,0.3,0,0.4h-2.6c0,0.8,0.6,1.4,1.3,1.4c0.4,0,0.7-0.1,1-0.3
		l0.2,0.4c-0.3,0.2-0.8,0.4-1.3,0.4C99.9,92.4,99,91.6,99,90.3z M101.8,90c0-0.8-0.4-1.2-1-1.2c-0.5,0-1,0.4-1.1,1.2H101.8z"/>
	<path d="M105,88.9h-0.5v-0.5l0.5,0v-0.6c0-0.8,0.4-1.3,1.1-1.3c0.2,0,0.5,0.1,0.6,0.1l-0.1,0.5c-0.1-0.1-0.3-0.1-0.4-0.1
		c-0.4,0-0.5,0.3-0.5,0.8v0.6h0.8v0.5h-0.8v3.4H105V88.9z"/>
	<path d="M106.9,90.3c0-1.3,0.8-2,1.8-2s1.8,0.7,1.8,2c0,1.3-0.8,2-1.8,2S106.9,91.6,106.9,90.3z M109.8,90.3c0-0.9-0.4-1.5-1.1-1.5
		c-0.7,0-1.1,0.6-1.1,1.5c0,0.9,0.5,1.5,1.1,1.5C109.3,91.8,109.8,91.2,109.8,90.3z"/>
	<path d="M111.5,88.4h0.5l0.1,0.7h0c0.3-0.5,0.7-0.8,1.1-0.8c0.2,0,0.3,0,0.4,0.1l-0.1,0.6c-0.1,0-0.2-0.1-0.4-0.1
		c-0.3,0-0.7,0.2-1,0.9v2.5h-0.7V88.4z"/>
	<path d="M115.9,88.4h0.5l0.1,0.4h0c0.4-0.3,0.8-0.5,1.2-0.5c1,0,1.5,0.8,1.5,2c0,1.3-0.8,2.1-1.7,2.1c-0.4,0-0.7-0.2-1.1-0.4l0,0.7
		v1.3h-0.7V88.4z M118.6,90.3c0-0.9-0.3-1.4-1-1.4c-0.3,0-0.7,0.2-1,0.5v2c0.4,0.3,0.7,0.4,1,0.4C118.1,91.8,118.6,91.2,118.6,90.3z
		"/>
	<path d="M120,90.3c0-1.3,0.9-2,1.7-2c1,0,1.6,0.7,1.6,1.8c0,0.1,0,0.3,0,0.4h-2.6c0,0.8,0.6,1.4,1.3,1.4c0.4,0,0.7-0.1,1-0.3
		l0.2,0.4c-0.3,0.2-0.8,0.4-1.3,0.4C120.8,92.4,120,91.6,120,90.3z M122.7,90c0-0.8-0.4-1.2-1-1.2c-0.5,0-1,0.4-1.1,1.2H122.7z"/>
	<path d="M124,90.3c0-1.3,0.9-2,1.7-2c1,0,1.6,0.7,1.6,1.8c0,0.1,0,0.3,0,0.4h-2.6c0,0.8,0.6,1.4,1.3,1.4c0.4,0,0.7-0.1,1-0.3
		l0.2,0.4c-0.3,0.2-0.8,0.4-1.3,0.4C124.8,92.4,124,91.6,124,90.3z M126.7,90c0-0.8-0.4-1.2-1-1.2c-0.5,0-1,0.4-1.1,1.2H126.7z"/>
	<path d="M128.2,88.4h0.5l0.1,0.7h0c0.3-0.5,0.7-0.8,1.1-0.8c0.2,0,0.3,0,0.4,0.1l-0.1,0.6c-0.1,0-0.2-0.1-0.4-0.1
		c-0.3,0-0.7,0.2-1,0.9v2.5h-0.7V88.4z"/>
	<path d="M130.5,91.8l0.3-0.4c0.3,0.3,0.7,0.5,1.1,0.5c0.5,0,0.8-0.3,0.8-0.6c0-0.4-0.5-0.6-0.9-0.7c-0.6-0.2-1.1-0.5-1.1-1.1
		c0-0.6,0.5-1.1,1.3-1.1c0.5,0,0.9,0.2,1.2,0.4l-0.3,0.4c-0.3-0.2-0.5-0.3-0.9-0.3c-0.5,0-0.7,0.3-0.7,0.6c0,0.4,0.4,0.5,0.8,0.7
		c0.6,0.2,1.2,0.4,1.2,1.2c0,0.6-0.5,1.2-1.4,1.2C131.4,92.4,130.9,92.1,130.5,91.8z"/>
</g>
<rect x="4.6" y="22.9" class="st0" width="48.2" height="11.7"/>
<path class="st1" d="M208.4,22.9h31.1v11.7h-31.1V22.9z M177.3,22.9h31.1v11.7h-31.1V22.9z M146.1,22.9h31.1v11.7h-31.1V22.9z
	 M115,22.9h31.1v11.7H115V22.9z M83.9,22.9H115v11.7H83.9V22.9z M52.8,22.9h31.1v11.7H52.8V22.9z"/>
<line class="st2" x1="4.6" y1="65.4" x2="52.5" y2="65.4"/>
<line class="st2" x1="53" y1="65.4" x2="83.7" y2="65.4"/>
<line class="st2" x1="84.2" y1="65.4" x2="114.8" y2="65.4"/>
<line class="st2" x1="115.3" y1="65.4" x2="145.9" y2="65.4"/>
<line class="st2" x1="146.4" y1="65.4" x2="177" y2="65.4"/>
<line class="st2" x1="177.5" y1="65.4" x2="208.1" y2="65.4"/>
<line class="st2" x1="208.6" y1="65.4" x2="239.5" y2="65.4"/>
<line class="st2" x1="52.8" y1="77.9" x2="83.9" y2="77.9"/>
<line class="st2" x1="83.9" y1="77.9" x2="115" y2="77.9"/>
<line class="st2" x1="115" y1="77.9" x2="146.1" y2="77.9"/>
<line class="st2" x1="146.1" y1="77.9" x2="177.3" y2="77.9"/>
<line class="st2" x1="177.3" y1="77.9" x2="208.4" y2="77.9"/>
<line class="st2" x1="208.4" y1="77.9" x2="239.5" y2="77.9"/>
<line class="st3" x1="208.4" y1="65.4" x2="208.4" y2="34.8"/>
<line class="st3" x1="208.4" y1="77.6" x2="208.4" y2="65.4"/>
<line class="st3" x1="83.9" y1="65.4" x2="83.9" y2="34.8"/>
<line class="st3" x1="115" y1="65.4" x2="115" y2="34.8"/>
<line class="st3" x1="146.1" y1="65.4" x2="146.1" y2="34.8"/>
<line class="st3" x1="177.3" y1="65.4" x2="177.3" y2="34.8"/>
<line class="st3" x1="83.9" y1="77.6" x2="83.9" y2="65.4"/>
<line class="st3" x1="115" y1="77.6" x2="115" y2="65.4"/>
<line class="st3" x1="146.1" y1="77.6" x2="146.1" y2="65.4"/>
<line class="st3" x1="177.3" y1="77.6" x2="177.3" y2="65.4"/>
<line class="st3" x1="52.8" y1="65.4" x2="52.8" y2="34.8"/>
<line class="st3" x1="52.8" y1="77.6" x2="52.8" y2="65.4"/>
<line class="st2" x1="4.6" y1="77.9" x2="52.8" y2="77.9"/>
<line class="st4" x1="52.8" y1="34.3" x2="52.8" y2="23.1"/>
<line class="st4" x1="83.9" y1="34.3" x2="83.9" y2="23.1"/>
<line class="st4" x1="115" y1="34.3" x2="115" y2="23.1"/>
<line class="st4" x1="146.1" y1="34.3" x2="146.1" y2="23.1"/>
<line class="st4" x1="177.3" y1="34.3" x2="177.3" y2="23.1"/>
<line class="st4" x1="208.4" y1="34.3" x2="208.4" y2="23.1"/>
<line class="st3" x1="4.6" y1="22.9" x2="52.8" y2="22.9"/>
<line class="st3" x1="52.8" y1="22.9" x2="83.9" y2="22.9"/>
<line class="st3" x1="83.9" y1="22.9" x2="115" y2="22.9"/>
<line class="st3" x1="115" y1="22.9" x2="146.1" y2="22.9"/>
<line class="st3" x1="146.1" y1="22.9" x2="177.3" y2="22.9"/>
<line class="st3" x1="177.3" y1="22.9" x2="208.4" y2="22.9"/>
<line class="st3" x1="208.4" y1="22.9" x2="239.5" y2="22.9"/>
<line class="st3" x1="4.6" y1="34.6" x2="52.8" y2="34.6"/>
<line class="st3" x1="52.8" y1="34.6" x2="83.9" y2="34.6"/>
<line class="st3" x1="83.9" y1="34.6" x2="115" y2="34.6"/>
<line class="st3" x1="115" y1="34.6" x2="146.1" y2="34.6"/>
<line class="st3" x1="146.1" y1="34.6" x2="177.3" y2="34.6"/>
<line class="st3" x1="177.3" y1="34.6" x2="208.4" y2="34.6"/>
<line class="st3" x1="208.4" y1="34.6" x2="239.5" y2="34.6"/>
<g>
	<path class="st0" d="M65.6,26.5h1.2v2h1.8v-2h1.2v5.2h-1.2v-2.2h-1.8v2.2h-1.2V26.5z"/>
	<path class="st0" d="M70.7,31l2.3-3.5h-2.1v-1h3.5v0.7l-2.3,3.5h2.3v1h-3.8V31z"/>
	<path class="st0" d="M75.3,26.5h1.2v4.2h2.1v1h-3.2V26.5z"/>
	<path class="st0" d="M79.5,28.6l0.5-0.8l-0.9-0.4l0.2-0.6l0.9,0.2l0.1-0.9H81l0.1,1l0.9-0.2l0.2,0.6l-0.9,0.4l0.5,0.8l-0.5,0.4
		l-0.6-0.7L80,28.9L79.5,28.6z"/>
</g>
<g>
	<path class="st0" d="M92.2,26.5H94c1.1,0,2.1,0.4,2.1,1.7c0,1.2-0.9,1.8-2,1.8h-0.6v1.8h-1.2V26.5z M93.9,29c0.6,0,1-0.3,1-0.8
		s-0.4-0.7-1-0.7h-0.5V29H93.9z"/>
	<path class="st0" d="M96.6,29.7c0-1.3,0.9-2.1,1.9-2.1c1.1,0,1.7,0.8,1.7,1.9c0,0.2,0,0.4,0,0.5h-2.4c0.1,0.6,0.5,0.8,1,0.8
		c0.3,0,0.6-0.1,0.9-0.3l0.4,0.7c-0.4,0.3-0.9,0.4-1.4,0.4C97.5,31.8,96.6,31.1,96.6,29.7z M99.2,29.3c0-0.4-0.2-0.8-0.7-0.8
		c-0.4,0-0.7,0.2-0.8,0.8H99.2z"/>
	<path class="st0" d="M100.7,29.7c0-1.3,0.9-2.1,1.9-2.1c1.1,0,1.7,0.8,1.7,1.9c0,0.2,0,0.4,0,0.5h-2.4c0.1,0.6,0.5,0.8,1,0.8
		c0.3,0,0.6-0.1,0.9-0.3l0.4,0.7c-0.4,0.3-0.9,0.4-1.4,0.4C101.6,31.8,100.7,31.1,100.7,29.7z M103.3,29.3c0-0.4-0.2-0.8-0.7-0.8
		c-0.4,0-0.7,0.2-0.8,0.8H103.3z"/>
	<path class="st0" d="M105.1,27.8h1l0.1,0.7h0c0.3-0.5,0.7-0.8,1.1-0.8c0.2,0,0.4,0,0.5,0.1l-0.2,1c-0.1,0-0.3-0.1-0.4-0.1
		c-0.3,0-0.7,0.2-0.9,0.7v2.3h-1.2V27.8z"/>
	<path class="st0" d="M109.9,30.8h1.1v-2.9h-1v-0.7c0.6-0.1,0.9-0.2,1.3-0.5h0.9v4.1h1v1h-3.2V30.8z"/>
</g>
<g>
	<path class="st0" d="M123.3,26.5h1.8c1.1,0,2.1,0.4,2.1,1.7c0,1.2-0.9,1.8-2,1.8h-0.6v1.8h-1.2V26.5z M125,29c0.6,0,1-0.3,1-0.8
		s-0.4-0.7-1-0.7h-0.5V29H125z"/>
	<path class="st0" d="M127.7,29.7c0-1.3,0.9-2.1,1.9-2.1c1.1,0,1.7,0.8,1.7,1.9c0,0.2,0,0.4,0,0.5h-2.4c0.1,0.6,0.5,0.8,1,0.8
		c0.3,0,0.6-0.1,0.9-0.3l0.4,0.7c-0.4,0.3-0.9,0.4-1.4,0.4C128.6,31.8,127.7,31.1,127.7,29.7z M130.3,29.3c0-0.4-0.2-0.8-0.7-0.8
		c-0.4,0-0.7,0.2-0.8,0.8H130.3z"/>
	<path class="st0" d="M131.9,29.7c0-1.3,0.9-2.1,1.9-2.1c1.1,0,1.7,0.8,1.7,1.9c0,0.2,0,0.4,0,0.5H133c0.1,0.6,0.5,0.8,1,0.8
		c0.3,0,0.6-0.1,0.9-0.3l0.4,0.7c-0.4,0.3-0.9,0.4-1.4,0.4C132.7,31.8,131.9,31.1,131.9,29.7z M134.4,29.3c0-0.4-0.2-0.8-0.7-0.8
		c-0.4,0-0.7,0.2-0.8,0.8H134.4z"/>
	<path class="st0" d="M136.2,27.8h1l0.1,0.7h0c0.3-0.5,0.7-0.8,1.1-0.8c0.2,0,0.4,0,0.5,0.1l-0.2,1c-0.1,0-0.3-0.1-0.4-0.1
		c-0.3,0-0.7,0.2-0.9,0.7v2.3h-1.2V27.8z"/>
	<path class="st0" d="M140.8,31.1c1.3-1.2,2.2-2.1,2.2-2.8c0-0.5-0.3-0.8-0.7-0.8c-0.4,0-0.6,0.2-0.9,0.5l-0.6-0.6
		c0.5-0.5,1-0.8,1.7-0.8c1,0,1.7,0.6,1.7,1.6c0,0.9-0.8,1.8-1.6,2.6c0.3,0,0.6-0.1,0.8-0.1h1v1h-3.6V31.1z"/>
</g>
<g>
	<path class="st0" d="M154.4,26.5h1.8c1.1,0,2.1,0.4,2.1,1.7c0,1.2-0.9,1.8-2,1.8h-0.6v1.8h-1.2V26.5z M156.1,29c0.6,0,1-0.3,1-0.8
		s-0.4-0.7-1-0.7h-0.5V29H156.1z"/>
	<path class="st0" d="M158.8,29.7c0-1.3,0.9-2.1,1.9-2.1c1.1,0,1.7,0.8,1.7,1.9c0,0.2,0,0.4,0,0.5H160c0.1,0.6,0.5,0.8,1,0.8
		c0.3,0,0.6-0.1,0.9-0.3l0.4,0.7c-0.4,0.3-0.9,0.4-1.4,0.4C159.7,31.8,158.8,31.1,158.8,29.7z M161.4,29.3c0-0.4-0.2-0.8-0.7-0.8
		c-0.4,0-0.7,0.2-0.8,0.8H161.4z"/>
	<path class="st0" d="M163,29.7c0-1.3,0.9-2.1,1.9-2.1c1.1,0,1.7,0.8,1.7,1.9c0,0.2,0,0.4,0,0.5h-2.4c0.1,0.6,0.5,0.8,1,0.8
		c0.3,0,0.6-0.1,0.9-0.3l0.4,0.7c-0.4,0.3-0.9,0.4-1.4,0.4C163.9,31.8,163,31.1,163,29.7z M165.5,29.3c0-0.4-0.2-0.8-0.7-0.8
		c-0.4,0-0.7,0.2-0.8,0.8H165.5z"/>
	<path class="st0" d="M167.4,27.8h1l0.1,0.7h0c0.3-0.5,0.7-0.8,1.1-0.8c0.2,0,0.4,0,0.5,0.1l-0.2,1c-0.1,0-0.3-0.1-0.4-0.1
		c-0.3,0-0.7,0.2-0.9,0.7v2.3h-1.2V27.8z"/>
	<path class="st0" d="M171.8,31.1l0.5-0.7c0.3,0.3,0.7,0.5,1.1,0.5c0.5,0,0.8-0.2,0.8-0.6c0-0.4-0.3-0.7-1.4-0.7v-0.8
		c0.9,0,1.2-0.3,1.2-0.7c0-0.4-0.2-0.6-0.6-0.6c-0.4,0-0.6,0.2-1,0.4l-0.6-0.7c0.5-0.4,1-0.6,1.6-0.6c1,0,1.8,0.5,1.8,1.4
		c0,0.5-0.3,0.9-0.8,1.1v0c0.6,0.2,1,0.6,1,1.2c0,0.9-0.9,1.5-1.9,1.5C172.7,31.8,172.2,31.5,171.8,31.1z"/>
</g>
<g>
	<path class="st0" d="M185.5,26.5h1.8c1.1,0,2.1,0.4,2.1,1.7c0,1.2-0.9,1.8-2,1.8h-0.6v1.8h-1.2V26.5z M187.3,29c0.6,0,1-0.3,1-0.8
		s-0.4-0.7-1-0.7h-0.5V29H187.3z"/>
	<path class="st0" d="M190,29.7c0-1.3,0.9-2.1,1.9-2.1c1.1,0,1.7,0.8,1.7,1.9c0,0.2,0,0.4,0,0.5h-2.4c0.1,0.6,0.5,0.8,1,0.8
		c0.3,0,0.6-0.1,0.9-0.3l0.4,0.7c-0.4,0.3-0.9,0.4-1.4,0.4C190.8,31.8,190,31.1,190,29.7z M192.5,29.3c0-0.4-0.2-0.8-0.7-0.8
		c-0.4,0-0.7,0.2-0.8,0.8H192.5z"/>
	<path class="st0" d="M194.1,29.7c0-1.3,0.9-2.1,1.9-2.1c1.1,0,1.7,0.8,1.7,1.9c0,0.2,0,0.4,0,0.5h-2.4c0.1,0.6,0.5,0.8,1,0.8
		c0.3,0,0.6-0.1,0.9-0.3l0.4,0.7c-0.4,0.3-0.9,0.4-1.4,0.4C195,31.8,194.1,31.1,194.1,29.7z M196.7,29.3c0-0.4-0.2-0.8-0.7-0.8
		c-0.4,0-0.7,0.2-0.8,0.8H196.7z"/>
	<path class="st0" d="M198.5,27.8h1l0.1,0.7h0c0.3-0.5,0.7-0.8,1.1-0.8c0.2,0,0.4,0,0.5,0.1l-0.2,1c-0.1,0-0.3-0.1-0.4-0.1
		c-0.3,0-0.7,0.2-0.9,0.7v2.3h-1.2V27.8z"/>
	<path class="st0" d="M205.1,30.5h-2.2v-0.8l1.9-3.1h1.4v3h0.6v0.9h-0.6v1.2h-1.1V30.5z M205.1,29.6v-0.8c0-0.3,0-0.8,0-1.1h0
		c-0.1,0.3-0.3,0.6-0.4,0.9l-0.7,1.1H205.1z"/>
</g>
<g>
	<path class="st0" d="M216.6,26.5h1.8c1.1,0,2.1,0.4,2.1,1.7c0,1.2-0.9,1.8-2,1.8h-0.6v1.8h-1.2V26.5z M218.4,29c0.6,0,1-0.3,1-0.8
		s-0.4-0.7-1-0.7h-0.5V29H218.4z"/>
	<path class="st0" d="M221.1,29.7c0-1.3,0.9-2.1,1.9-2.1c1.1,0,1.7,0.8,1.7,1.9c0,0.2,0,0.4,0,0.5h-2.4c0.1,0.6,0.5,0.8,1,0.8
		c0.3,0,0.6-0.1,0.9-0.3l0.4,0.7c-0.4,0.3-0.9,0.4-1.4,0.4C221.9,31.8,221.1,31.1,221.1,29.7z M223.6,29.3c0-0.4-0.2-0.8-0.7-0.8
		c-0.4,0-0.7,0.2-0.8,0.8H223.6z"/>
	<path class="st0" d="M225.2,29.7c0-1.3,0.9-2.1,1.9-2.1c1.1,0,1.7,0.8,1.7,1.9c0,0.2,0,0.4,0,0.5h-2.4c0.1,0.6,0.5,0.8,1,0.8
		c0.3,0,0.6-0.1,0.9-0.3l0.4,0.7c-0.4,0.3-0.9,0.4-1.4,0.4C226.1,31.8,225.2,31.1,225.2,29.7z M227.8,29.3c0-0.4-0.2-0.8-0.7-0.8
		c-0.4,0-0.7,0.2-0.8,0.8H227.8z"/>
	<path class="st0" d="M229.6,27.8h1l0.1,0.7h0c0.3-0.5,0.7-0.8,1.1-0.8c0.2,0,0.4,0,0.5,0.1l-0.2,1c-0.1,0-0.3-0.1-0.4-0.1
		c-0.3,0-0.7,0.2-0.9,0.7v2.3h-1.2V27.8z"/>
	<path class="st0" d="M234,31.1l0.5-0.7c0.3,0.3,0.7,0.5,1.1,0.5c0.5,0,0.9-0.3,0.9-0.8c0-0.5-0.3-0.8-0.8-0.8
		c-0.3,0-0.4,0.1-0.8,0.3l-0.5-0.3l0.1-2.6h2.9v1h-1.9l-0.1,1c0.2-0.1,0.4-0.1,0.6-0.1c0.9,0,1.6,0.5,1.6,1.6c0,1.1-0.9,1.8-1.9,1.8
		C235,31.8,234.4,31.5,234,31.1z"/>
</g>
<g>
	<path d="M6.8,38.1h0.4v4.9h2.4v0.3H6.8V38.1z"/>
	<path d="M11.7,38.5H10v-0.3h3.7v0.3H12v4.9h-0.4V38.5z"/>
	<path d="M14.7,38.1h0.4v5.3h-0.4V38.1z"/>
	<path d="M16.6,38.1h2.9v0.3H17v2.1h2.1v0.3H17v2.5h-0.4V38.1z"/>
	<path d="M20.5,38.1H22c1,0,1.7,0.4,1.7,1.4c0,0.8-0.5,1.3-1.4,1.4l1.5,2.4h-0.4L21.9,41h-1.1v2.4h-0.4V38.1z M21.9,40.7
		c0.9,0,1.4-0.4,1.4-1.2c0-0.8-0.5-1.1-1.4-1.1h-1v2.2H21.9z"/>
	<path d="M26,43.2c1.7-1.7,2.5-2.7,2.5-3.5c0-0.6-0.3-1.1-1.1-1.1c-0.5,0-0.9,0.3-1.2,0.7l-0.2-0.2c0.4-0.4,0.8-0.8,1.5-0.8
		c0.9,0,1.4,0.6,1.4,1.4c0,1-0.9,2-2.3,3.5c0.3,0,0.6,0,0.9,0h1.7v0.3H26V43.2z"/>
	<path d="M29.9,40.8c0-1.7,0.6-2.6,1.5-2.6c1,0,1.5,0.9,1.5,2.6c0,1.7-0.6,2.7-1.5,2.7C30.4,43.5,29.9,42.5,29.9,40.8z M32.5,40.8
		c0-1.6-0.5-2.3-1.2-2.3c-0.7,0-1.2,0.8-1.2,2.3c0,1.6,0.5,2.4,1.2,2.4C32.1,43.2,32.5,42.4,32.5,40.8z"/>
	<path d="M34,43.1h1.2v-4.2h-0.9v-0.2c0.4-0.1,0.7-0.2,1-0.3h0.3v4.8h1.1v0.3H34V43.1z"/>
	<path d="M37.5,42.1c0-0.7,0.5-1.2,1-1.4v0c-0.4-0.2-0.7-0.6-0.7-1.2c0-0.7,0.6-1.2,1.3-1.2c0.9,0,1.4,0.6,1.4,1.3
		c0,0.6-0.4,1.1-0.7,1.3v0c0.4,0.3,0.9,0.6,0.9,1.3c0,0.7-0.6,1.3-1.6,1.3C38.1,43.5,37.5,42.9,37.5,42.1z M40.3,42.2
		c0-0.8-0.8-1.1-1.6-1.4c-0.5,0.3-0.9,0.7-0.9,1.3c0,0.6,0.5,1.1,1.3,1.1C39.8,43.2,40.3,42.7,40.3,42.2z M40.1,39.5
		c0-0.6-0.4-1-1-1c-0.6,0-1,0.4-1,1c0,0.7,0.7,1,1.4,1.3C39.9,40.4,40.1,40,40.1,39.5z"/>
</g>
<g>
	<path d="M69.6,40.8c0-1.7,0.6-2.6,1.5-2.6c1,0,1.5,0.9,1.5,2.6c0,1.7-0.6,2.7-1.5,2.7C70.2,43.5,69.6,42.5,69.6,40.8z M72.3,40.8
		c0-1.6-0.5-2.3-1.2-2.3c-0.7,0-1.2,0.8-1.2,2.3c0,1.6,0.5,2.4,1.2,2.4C71.9,43.2,72.3,42.4,72.3,40.8z"/>
	<path d="M73.6,43.1c0-0.2,0.2-0.4,0.3-0.4c0.2,0,0.3,0.1,0.3,0.4c0,0.2-0.2,0.4-0.3,0.4C73.8,43.5,73.6,43.4,73.6,43.1z"/>
	<path d="M75.2,41.1c0-2.1,0.9-2.9,1.9-2.9c0.5,0,0.8,0.2,1.1,0.5L78,38.9c-0.2-0.3-0.5-0.4-0.9-0.4c-0.8,0-1.5,0.7-1.5,2.5
		c0.4-0.4,0.8-0.7,1.3-0.7c0.9,0,1.4,0.6,1.4,1.6c0,0.9-0.6,1.6-1.4,1.6C75.9,43.5,75.2,42.6,75.2,41.1z M75.6,41.4
		c0.1,1.1,0.5,1.8,1.3,1.8c0.6,0,1-0.6,1-1.3s-0.3-1.3-1.1-1.3C76.5,40.6,76,40.8,75.6,41.4z"/>
	<path d="M78.9,42.8l0.2-0.2c0.3,0.3,0.7,0.7,1.4,0.7c0.7,0,1.2-0.4,1.2-1.1c0-0.7-0.5-1.2-1.8-1.2v-0.3c1.2,0,1.6-0.5,1.6-1.1
		c0-0.6-0.4-1-1-1c-0.5,0-0.9,0.2-1.2,0.6l-0.2-0.2c0.4-0.3,0.8-0.6,1.4-0.6c0.8,0,1.4,0.4,1.4,1.2c0,0.7-0.4,1.1-1,1.3v0
		c0.6,0.1,1.2,0.6,1.2,1.3c0,0.9-0.7,1.4-1.6,1.4C79.7,43.5,79.2,43.1,78.9,42.8z"/>
</g>
<g>
	<path d="M100.7,40.8c0-1.7,0.6-2.6,1.5-2.6c1,0,1.5,0.9,1.5,2.6c0,1.7-0.6,2.7-1.5,2.7C101.3,43.5,100.7,42.5,100.7,40.8z
		 M103.4,40.8c0-1.6-0.5-2.3-1.2-2.3c-0.7,0-1.2,0.8-1.2,2.3c0,1.6,0.5,2.4,1.2,2.4C103,43.2,103.4,42.4,103.4,40.8z"/>
	<path d="M104.7,43.1c0-0.2,0.2-0.4,0.3-0.4c0.2,0,0.3,0.1,0.3,0.4c0,0.2-0.2,0.4-0.3,0.4C104.9,43.5,104.7,43.4,104.7,43.1z"/>
	<path d="M108.4,41.9h-2.3v-0.2l2.4-3.4h0.3v3.3h0.8v0.3h-0.8v1.5h-0.3V41.9z M108.4,41.6v-1.9c0-0.2,0-0.6,0-0.9h0
		c-0.1,0.2-0.3,0.4-0.4,0.6l-1.5,2.1H108.4z"/>
	<path d="M112.8,38.6h-2.7v-0.3h3.1v0.2c-1.2,1.6-1.5,2.9-1.6,4.9h-0.4C111.4,41.3,111.8,40,112.8,38.6z"/>
</g>
<g>
	<path d="M132.2,43.1h1.2v-4.2h-0.9v-0.2c0.4-0.1,0.7-0.2,1-0.3h0.3v4.8h1.1v0.3h-2.7V43.1z"/>
	<path d="M135.8,43.1c0-0.2,0.2-0.4,0.3-0.4s0.3,0.1,0.3,0.4c0,0.2-0.2,0.4-0.3,0.4S135.8,43.4,135.8,43.1z"/>
	<path d="M137.4,40.8c0-1.7,0.6-2.6,1.5-2.6c1,0,1.5,0.9,1.5,2.6c0,1.7-0.6,2.7-1.5,2.7C138,43.5,137.4,42.5,137.4,40.8z
		 M140.1,40.8c0-1.6-0.5-2.3-1.2-2.3c-0.7,0-1.2,0.8-1.2,2.3c0,1.6,0.5,2.4,1.2,2.4C139.7,43.2,140.1,42.4,140.1,40.8z"/>
	<path d="M141.3,41.1c0-2.1,0.9-2.9,1.9-2.9c0.5,0,0.8,0.2,1.1,0.5l-0.2,0.2c-0.2-0.3-0.5-0.4-0.9-0.4c-0.8,0-1.5,0.7-1.5,2.5
		c0.4-0.4,0.8-0.7,1.3-0.7c0.9,0,1.4,0.6,1.4,1.6c0,0.9-0.6,1.6-1.4,1.6C142,43.5,141.3,42.6,141.3,41.1z M141.7,41.4
		c0.1,1.1,0.5,1.8,1.3,1.8c0.6,0,1-0.6,1-1.3s-0.3-1.3-1.1-1.3C142.6,40.6,142.1,40.8,141.7,41.4z"/>
</g>
<g>
	<path d="M163.3,43.1h1.2v-4.2h-0.9v-0.2c0.4-0.1,0.7-0.2,1-0.3h0.3v4.8h1.1v0.3h-2.7V43.1z"/>
	<path d="M167,43.1c0-0.2,0.2-0.4,0.3-0.4s0.3,0.1,0.3,0.4c0,0.2-0.2,0.4-0.3,0.4S167,43.4,167,43.1z"/>
	<path d="M168.4,42.8l0.2-0.2c0.3,0.3,0.7,0.7,1.4,0.7c0.7,0,1.2-0.4,1.2-1.1c0-0.7-0.5-1.2-1.8-1.2v-0.3c1.2,0,1.6-0.5,1.6-1.1
		c0-0.6-0.4-1-1-1c-0.5,0-0.9,0.2-1.2,0.6l-0.2-0.2c0.4-0.3,0.8-0.6,1.4-0.6c0.8,0,1.4,0.4,1.4,1.2c0,0.7-0.4,1.1-1,1.3v0
		c0.6,0.1,1.2,0.6,1.2,1.3c0,0.9-0.7,1.4-1.6,1.4C169.2,43.5,168.7,43.1,168.4,42.8z"/>
	<path d="M172.2,42.8l0.2-0.2c0.3,0.3,0.7,0.6,1.4,0.6c0.7,0,1.3-0.6,1.3-1.4c0-0.8-0.5-1.3-1.2-1.3c-0.4,0-0.6,0.1-1,0.3l-0.2-0.2
		l0.2-2.4h2.4v0.3h-2l-0.2,1.8c0.3-0.2,0.5-0.3,0.9-0.3c0.9,0,1.6,0.5,1.6,1.6c0,1.1-0.8,1.7-1.6,1.7
		C173,43.5,172.5,43.1,172.2,42.8z"/>
</g>
<g>
	<path d="M198.4,38.1h0.4l2.2,3.7l0.6,1h0c0-0.5,0-1,0-1.5v-3.2h0.4v5.3h-0.4l-2.2-3.7l-0.6-1h0c0,0.5,0,1,0,1.5v3.3h-0.4V38.1z"/>
	<path d="M203.1,41.5c0-1.3,0.8-2,1.7-2c0.9,0,1.7,0.7,1.7,2c0,1.3-0.8,2-1.7,2C203.9,43.5,203.1,42.8,203.1,41.5z M206.2,41.5
		c0-1-0.6-1.7-1.4-1.7s-1.4,0.7-1.4,1.7c0,1,0.6,1.7,1.4,1.7S206.2,42.5,206.2,41.5z"/>
</g>
<g>
	<path d="M189.8,52.5v-5.2h0.4v5.3c0,0.2,0.1,0.2,0.2,0.2c0,0,0.1,0,0.1,0l0.1,0.3c-0.1,0-0.1,0-0.3,0
		C189.9,53.1,189.8,52.9,189.8,52.5z"/>
	<path d="M191.4,52c0-0.8,0.8-1.3,2.5-1.4c0-0.6-0.2-1.2-0.9-1.2c-0.5,0-1,0.3-1.2,0.4l-0.2-0.3c0.3-0.2,0.8-0.5,1.4-0.5
		c0.9,0,1.2,0.7,1.2,1.5V53h-0.3l0-0.5h0c-0.4,0.3-0.9,0.6-1.4,0.6C191.9,53.1,191.4,52.8,191.4,52z M193.9,52.2v-1.3
		c-1.6,0.2-2.1,0.6-2.1,1.2c0,0.6,0.4,0.8,0.8,0.8C193,52.8,193.4,52.6,193.9,52.2z"/>
	<path d="M195.7,51.9v-2.5h-0.6v-0.3l0.6,0l0-1.1h0.3v1.1h1.1v0.3H196V52c0,0.5,0.1,0.8,0.6,0.8c0.1,0,0.3-0.1,0.5-0.1l0.1,0.3
		c-0.2,0.1-0.5,0.1-0.6,0.1C195.9,53.1,195.7,52.6,195.7,51.9z"/>
	<path d="M197.8,51.1c0-1.3,0.8-2,1.7-2c0.9,0,1.5,0.6,1.5,1.8c0,0.1,0,0.2,0,0.3h-2.8c0,1,0.6,1.7,1.4,1.7c0.4,0,0.7-0.1,1-0.3
		l0.1,0.3c-0.3,0.2-0.6,0.4-1.2,0.4C198.6,53.1,197.8,52.3,197.8,51.1z M200.6,50.8c0-1-0.4-1.5-1.1-1.5c-0.7,0-1.2,0.6-1.3,1.5
		H200.6z"/>
	<path d="M201.5,52.6l0.2-0.3c0.3,0.3,0.7,0.5,1.2,0.5c0.6,0,0.9-0.4,0.9-0.8c0-0.5-0.5-0.7-0.9-0.8c-0.6-0.2-1.2-0.4-1.2-1.1
		c0-0.6,0.4-1,1.2-1c0.4,0,0.8,0.2,1.1,0.4l-0.2,0.2c-0.3-0.2-0.5-0.3-0.9-0.3c-0.6,0-0.9,0.3-0.9,0.7c0,0.4,0.4,0.6,0.9,0.8
		c0.6,0.2,1.3,0.4,1.3,1.2c0,0.6-0.5,1.1-1.3,1.1C202.3,53.1,201.8,52.9,201.5,52.6z"/>
	<path d="M205.3,51.9v-2.5h-0.6v-0.3l0.6,0l0-1.1h0.3v1.1h1.1v0.3h-1.1V52c0,0.5,0.1,0.8,0.6,0.8c0.1,0,0.3-0.1,0.5-0.1l0.1,0.3
		c-0.2,0.1-0.5,0.1-0.6,0.1C205.5,53.1,205.3,52.6,205.3,51.9z"/>
</g>
<g>
	<path d="M187.6,58.8h0.3l0,0.7h0c0.3-0.5,0.6-0.8,1.1-0.8c0.1,0,0.3,0,0.4,0.1l-0.1,0.3c-0.1,0-0.2-0.1-0.4-0.1c-0.3,0-0.8,0.3-1,1
		v2.6h-0.4V58.8z"/>
	<path d="M189.8,60.7c0-1.3,0.8-2,1.7-2c0.9,0,1.5,0.6,1.5,1.8c0,0.1,0,0.2,0,0.3h-2.8c0,1,0.6,1.7,1.4,1.7c0.4,0,0.7-0.1,1-0.3
		l0.1,0.3c-0.3,0.2-0.6,0.4-1.2,0.4C190.6,62.7,189.8,61.9,189.8,60.7z M192.7,60.4c0-1-0.4-1.5-1.1-1.5c-0.7,0-1.2,0.6-1.3,1.5
		H192.7z"/>
	<path d="M194,58.8h0.3l0,0.5h0c0.4-0.3,0.8-0.6,1.3-0.6c1,0,1.5,0.8,1.5,2c0,1.3-0.8,2.1-1.7,2.1c-0.4,0-0.8-0.2-1.2-0.5v2.1H194
		V58.8z M196.9,60.6c0-0.9-0.3-1.6-1.2-1.6c-0.4,0-0.8,0.2-1.3,0.6v2.3c0.4,0.4,0.8,0.5,1.1,0.5C196.3,62.4,196.9,61.7,196.9,60.6z"
		/>
	<path d="M198.1,60.7c0-1.3,0.8-2,1.7-2c0.9,0,1.7,0.7,1.7,2c0,1.3-0.8,2-1.7,2C198.9,62.7,198.1,62,198.1,60.7z M201.1,60.7
		c0-1-0.6-1.7-1.4-1.7s-1.4,0.7-1.4,1.7c0,1,0.6,1.7,1.4,1.7S201.1,61.7,201.1,60.7z"/>
	<path d="M202.7,58.8h0.3l0,0.7h0c0.3-0.5,0.6-0.8,1.1-0.8c0.1,0,0.3,0,0.4,0.1l-0.1,0.3c-0.1,0-0.2-0.1-0.4-0.1c-0.3,0-0.8,0.3-1,1
		v2.6h-0.4V58.8z"/>
	<path d="M205.3,61.5v-2.5h-0.6v-0.3l0.6,0l0-1.1h0.3v1.1h1.1v0.3h-1.1v2.5c0,0.5,0.1,0.8,0.6,0.8c0.1,0,0.3-0.1,0.5-0.1l0.1,0.3
		c-0.2,0.1-0.5,0.1-0.6,0.1C205.5,62.7,205.3,62.2,205.3,61.5z"/>
</g>
<g>
	<path d="M225.5,43.1h1.2v-4.2h-0.9v-0.2c0.4-0.1,0.7-0.2,1-0.3h0.3v4.8h1.1v0.3h-2.7V43.1z"/>
	<path d="M229.2,43.1c0-0.2,0.2-0.4,0.3-0.4c0.2,0,0.3,0.1,0.3,0.4c0,0.2-0.2,0.4-0.3,0.4C229.4,43.5,229.2,43.4,229.2,43.1z"/>
	<path d="M230.8,41.1c0-2.1,0.9-2.9,1.9-2.9c0.5,0,0.8,0.2,1.1,0.5l-0.2,0.2c-0.2-0.3-0.5-0.4-0.9-0.4c-0.8,0-1.5,0.7-1.5,2.5
		c0.4-0.4,0.8-0.7,1.3-0.7c0.9,0,1.4,0.6,1.4,1.6c0,0.9-0.6,1.6-1.4,1.6C231.5,43.5,230.8,42.6,230.8,41.1z M231.2,41.4
		c0.1,1.1,0.5,1.8,1.3,1.8c0.6,0,1-0.6,1-1.3s-0.3-1.3-1.1-1.3C232.1,40.6,231.6,40.8,231.2,41.4z"/>
	<path d="M234.5,42.8l0.2-0.2c0.3,0.3,0.7,0.7,1.4,0.7c0.7,0,1.2-0.4,1.2-1.1c0-0.7-0.5-1.2-1.8-1.2v-0.3c1.2,0,1.6-0.5,1.6-1.1
		c0-0.6-0.4-1-1-1c-0.5,0-0.9,0.2-1.2,0.6l-0.2-0.2c0.4-0.3,0.8-0.6,1.4-0.6c0.8,0,1.4,0.4,1.4,1.2c0,0.7-0.4,1.1-1,1.3v0
		c0.6,0.1,1.2,0.6,1.2,1.3c0,0.9-0.7,1.4-1.6,1.4C235.3,43.5,234.8,43.1,234.5,42.8z"/>
</g>
<g>
	<path d="M6.8,69h0.4v4.9h2.4v0.3H6.8V69z"/>
	<path d="M11.7,69.3H10V69h3.7v0.3H12v4.9h-0.4V69.3z"/>
	<path d="M14.7,69h0.4v5.3h-0.4V69z"/>
	<path d="M16.6,69h2.9v0.3H17v2.1h2.1v0.3H17v2.5h-0.4V69z"/>
	<path d="M20.5,69H22c1,0,1.7,0.4,1.7,1.4c0,0.8-0.5,1.3-1.4,1.4l1.5,2.4h-0.4l-1.4-2.4h-1.1v2.4h-0.4V69z M21.9,71.5
		c0.9,0,1.4-0.4,1.4-1.2c0-0.8-0.5-1.1-1.4-1.1h-1v2.2H21.9z"/>
	<path d="M26,74c1.7-1.7,2.5-2.7,2.5-3.5c0-0.6-0.3-1.1-1.1-1.1c-0.5,0-0.9,0.3-1.2,0.7l-0.2-0.2c0.4-0.4,0.8-0.8,1.5-0.8
		c0.9,0,1.4,0.6,1.4,1.4c0,1-0.9,2-2.3,3.5c0.3,0,0.6,0,0.9,0h1.7v0.3H26V74z"/>
	<path d="M29.9,71.7c0-1.7,0.6-2.6,1.5-2.6c1,0,1.5,0.9,1.5,2.6c0,1.7-0.6,2.7-1.5,2.7C30.4,74.4,29.9,73.4,29.9,71.7z M32.5,71.7
		c0-1.6-0.5-2.3-1.2-2.3c-0.7,0-1.2,0.8-1.2,2.3c0,1.6,0.5,2.4,1.2,2.4C32.1,74.1,32.5,73.3,32.5,71.7z"/>
	<path d="M34,74h1.2v-4.2h-0.9v-0.2c0.4-0.1,0.7-0.2,1-0.3h0.3V74h1.1v0.3H34V74z"/>
	<path d="M40.2,69.5h-2.7v-0.3h3.1v0.2c-1.2,1.6-1.5,2.9-1.6,4.9h-0.4C38.7,72.2,39.1,70.9,40.2,69.5z"/>
</g>
<g>
	<path d="M69.6,71.7c0-1.7,0.6-2.6,1.5-2.6c1,0,1.5,0.9,1.5,2.6c0,1.7-0.6,2.7-1.5,2.7C70.2,74.4,69.6,73.4,69.6,71.7z M72.3,71.7
		c0-1.6-0.5-2.3-1.2-2.3c-0.7,0-1.2,0.8-1.2,2.3c0,1.6,0.5,2.4,1.2,2.4C71.9,74.1,72.3,73.3,72.3,71.7z"/>
	<path d="M73.6,74c0-0.2,0.2-0.4,0.3-0.4c0.2,0,0.3,0.1,0.3,0.4c0,0.2-0.2,0.4-0.3,0.4C73.8,74.4,73.6,74.2,73.6,74z"/>
	<path d="M75.2,74c1.7-1.7,2.5-2.7,2.5-3.5c0-0.6-0.3-1.1-1.1-1.1c-0.5,0-0.9,0.3-1.2,0.7l-0.2-0.2c0.4-0.4,0.8-0.8,1.5-0.8
		c0.9,0,1.4,0.6,1.4,1.4c0,1-0.9,2-2.3,3.5c0.3,0,0.6,0,0.9,0h1.7v0.3h-3.1V74z"/>
	<path d="M81.7,69.5H79v-0.3h3.1v0.2c-1.2,1.6-1.5,2.9-1.6,4.9h-0.4C80.2,72.2,80.7,70.9,81.7,69.5z"/>
</g>
<g>
	<path d="M100.7,71.7c0-1.7,0.6-2.6,1.5-2.6c1,0,1.5,0.9,1.5,2.6c0,1.7-0.6,2.7-1.5,2.7C101.3,74.4,100.7,73.4,100.7,71.7z
		 M103.4,71.7c0-1.6-0.5-2.3-1.2-2.3c-0.7,0-1.2,0.8-1.2,2.3c0,1.6,0.5,2.4,1.2,2.4C103,74.1,103.4,73.3,103.4,71.7z"/>
	<path d="M104.7,74c0-0.2,0.2-0.4,0.3-0.4c0.2,0,0.3,0.1,0.3,0.4c0,0.2-0.2,0.4-0.3,0.4C104.9,74.4,104.7,74.2,104.7,74z"/>
	<path d="M106.2,73.6l0.2-0.2c0.3,0.3,0.7,0.7,1.4,0.7c0.7,0,1.2-0.4,1.2-1.1c0-0.7-0.5-1.2-1.8-1.2v-0.3c1.2,0,1.6-0.5,1.6-1.1
		c0-0.6-0.4-1-1-1c-0.5,0-0.9,0.2-1.2,0.6l-0.2-0.2c0.4-0.3,0.8-0.6,1.4-0.6c0.8,0,1.4,0.4,1.4,1.2c0,0.7-0.4,1.1-1,1.3v0
		c0.6,0.1,1.2,0.6,1.2,1.3c0,0.9-0.7,1.4-1.6,1.4C107,74.4,106.5,74,106.2,73.6z"/>
	<path d="M112.3,72.7h-2.3v-0.2l2.4-3.4h0.3v3.3h0.8v0.3h-0.8v1.5h-0.3V72.7z M112.3,72.4v-1.9c0-0.2,0-0.6,0-0.9h0
		c-0.1,0.2-0.3,0.4-0.4,0.6l-1.5,2.1H112.3z"/>
</g>
<g>
	<path d="M132.2,74h1.2v-4.2h-0.9v-0.2c0.4-0.1,0.7-0.2,1-0.3h0.3V74h1.1v0.3h-2.7V74z"/>
	<path d="M135.8,74c0-0.2,0.2-0.4,0.3-0.4s0.3,0.1,0.3,0.4c0,0.2-0.2,0.4-0.3,0.4S135.8,74.2,135.8,74z"/>
	<path d="M137.4,71.7c0-1.7,0.6-2.6,1.5-2.6c1,0,1.5,0.9,1.5,2.6c0,1.7-0.6,2.7-1.5,2.7C138,74.4,137.4,73.4,137.4,71.7z
		 M140.1,71.7c0-1.6-0.5-2.3-1.2-2.3c-0.7,0-1.2,0.8-1.2,2.3c0,1.6,0.5,2.4,1.2,2.4C139.7,74.1,140.1,73.3,140.1,71.7z"/>
	<path d="M141.2,74c1.7-1.7,2.5-2.7,2.5-3.5c0-0.6-0.3-1.1-1.1-1.1c-0.5,0-0.9,0.3-1.2,0.7l-0.2-0.2c0.4-0.4,0.8-0.8,1.5-0.8
		c0.9,0,1.4,0.6,1.4,1.4c0,1-0.9,2-2.3,3.5c0.3,0,0.6,0,0.9,0h1.7v0.3h-3.1V74z"/>
</g>
<g>
	<path d="M163.3,74h1.2v-4.2h-0.9v-0.2c0.4-0.1,0.7-0.2,1-0.3h0.3V74h1.1v0.3h-2.7V74z"/>
	<path d="M167,74c0-0.2,0.2-0.4,0.3-0.4s0.3,0.1,0.3,0.4c0,0.2-0.2,0.4-0.3,0.4S167,74.2,167,74z"/>
	<path d="M168.5,74c1.7-1.7,2.5-2.7,2.5-3.5c0-0.6-0.3-1.1-1.1-1.1c-0.5,0-0.9,0.3-1.2,0.7l-0.2-0.2c0.4-0.4,0.8-0.8,1.5-0.8
		c0.9,0,1.4,0.6,1.4,1.4c0,1-0.9,2-2.3,3.5c0.3,0,0.6,0,0.9,0h1.7v0.3h-3.1V74z"/>
	<path d="M172.2,73.7l0.2-0.2c0.3,0.3,0.7,0.6,1.4,0.6c0.7,0,1.3-0.6,1.3-1.4c0-0.8-0.5-1.3-1.2-1.3c-0.4,0-0.6,0.1-1,0.3l-0.2-0.2
		l0.2-2.4h2.4v0.3h-2l-0.2,1.8c0.3-0.2,0.5-0.3,0.9-0.3c0.9,0,1.6,0.5,1.6,1.6c0,1.1-0.8,1.7-1.6,1.7C173,74.4,172.5,74,172.2,73.7z
		"/>
</g>
<g>
	<path d="M194.1,71.7c0-1.7,0.6-2.6,1.5-2.6c1,0,1.5,0.9,1.5,2.6c0,1.7-0.6,2.7-1.5,2.7C194.7,74.4,194.1,73.4,194.1,71.7z
		 M196.8,71.7c0-1.6-0.5-2.3-1.2-2.3c-0.7,0-1.2,0.8-1.2,2.3c0,1.6,0.5,2.4,1.2,2.4C196.3,74.1,196.8,73.3,196.8,71.7z"/>
	<path d="M198.1,74c0-0.2,0.2-0.4,0.3-0.4s0.3,0.1,0.3,0.4c0,0.2-0.2,0.4-0.3,0.4S198.1,74.2,198.1,74z"/>
	<path d="M199.5,73.7l0.2-0.2c0.3,0.3,0.7,0.6,1.4,0.6c0.7,0,1.3-0.6,1.3-1.4c0-0.8-0.5-1.3-1.2-1.3c-0.4,0-0.6,0.1-1,0.3l-0.2-0.2
		l0.2-2.4h2.4v0.3h-2l-0.2,1.8c0.3-0.2,0.5-0.3,0.9-0.3c0.9,0,1.6,0.5,1.6,1.6c0,1.1-0.8,1.7-1.6,1.7
		C200.3,74.4,199.8,74,199.5,73.7z"/>
	<path d="M203.3,73.7l0.2-0.2c0.3,0.3,0.7,0.6,1.4,0.6c0.7,0,1.3-0.6,1.3-1.4c0-0.8-0.5-1.3-1.2-1.3c-0.4,0-0.6,0.1-1,0.3l-0.2-0.2
		l0.2-2.4h2.4v0.3h-2l-0.2,1.8c0.3-0.2,0.5-0.3,0.9-0.3c0.9,0,1.6,0.5,1.6,1.6c0,1.1-0.8,1.7-1.6,1.7
		C204.1,74.4,203.7,74,203.3,73.7z"/>
</g>
<g>
	<path d="M225.5,74h1.2v-4.2h-0.9v-0.2c0.4-0.1,0.7-0.2,1-0.3h0.3V74h1.1v0.3h-2.7V74z"/>
	<path d="M229.2,74c0-0.2,0.2-0.4,0.3-0.4c0.2,0,0.3,0.1,0.3,0.4c0,0.2-0.2,0.4-0.3,0.4C229.4,74.4,229.2,74.2,229.2,74z"/>
	<path d="M230.8,72c0-2.1,0.9-2.9,1.9-2.9c0.5,0,0.8,0.2,1.1,0.5l-0.2,0.2c-0.2-0.3-0.5-0.4-0.9-0.4c-0.8,0-1.5,0.7-1.5,2.5
		c0.4-0.4,0.8-0.7,1.3-0.7c0.9,0,1.4,0.6,1.4,1.6c0,0.9-0.6,1.6-1.4,1.6C231.5,74.4,230.8,73.5,230.8,72z M231.2,72.3
		c0.1,1.1,0.5,1.8,1.3,1.8c0.6,0,1-0.6,1-1.3s-0.3-1.3-1.1-1.3C232.1,71.5,231.6,71.7,231.2,72.3z"/>
	<path d="M234.6,73c0-0.7,0.5-1.2,1-1.4v0c-0.4-0.2-0.7-0.6-0.7-1.2c0-0.7,0.6-1.2,1.3-1.2c0.9,0,1.4,0.6,1.4,1.3
		c0,0.6-0.4,1.1-0.7,1.3v0c0.4,0.3,0.9,0.6,0.9,1.3c0,0.7-0.6,1.3-1.6,1.3C235.3,74.4,234.6,73.8,234.6,73z M237.4,73
		c0-0.8-0.8-1.1-1.6-1.4c-0.5,0.3-0.9,0.7-0.9,1.3c0,0.6,0.5,1.1,1.3,1.1C236.9,74.1,237.4,73.6,237.4,73z M237.2,70.4
		c0-0.6-0.4-1-1-1c-0.6,0-1,0.4-1,1c0,0.7,0.7,1,1.4,1.3C237,71.2,237.2,70.8,237.2,70.4z"/>
</g>
</svg>
