<?xml version="1.0" encoding="utf-8"?>
<!-- Generator: Adobe Illustrator 23.0.3, SVG Export Plug-In . SVG Version: 6.00 Build 0)  -->
<svg version="1.1" id="Layer_1" xmlns="http://www.w3.org/2000/svg" xmlns:xlink="http://www.w3.org/1999/xlink" x="0px" y="0px"
	 viewBox="0 0 256 142" style="enable-background:new 0 0 256 142;" xml:space="preserve">
<style type="text/css">
	.st0{fill:none;stroke:#000000;stroke-width:0.25;}
	.st1{fill:#ABD693;}
	.st2{fill:#55371E;}
</style>
<g>
	<path d="M5,12.2l0.8-0.9c0.4,0.4,1,0.6,1.4,0.6c0.5,0,0.8-0.2,0.8-0.6c0-0.4-0.3-0.5-0.8-0.7l-0.8-0.3c-0.6-0.2-1.2-0.7-1.2-1.6
		c0-1,0.9-1.7,2.1-1.7C8,7,8.7,7.3,9.2,7.8L8.5,8.6C8.1,8.3,7.7,8.1,7.3,8.1c-0.5,0-0.7,0.2-0.7,0.5c0,0.4,0.4,0.5,0.9,0.7l0.8,0.3
		c0.7,0.3,1.2,0.8,1.2,1.6c0,1-0.8,1.8-2.2,1.8C6.4,13.1,5.5,12.8,5,12.2z"/>
	<path d="M10.3,7.1h2c1.3,0,2.3,0.5,2.3,1.9c0,1.4-1.1,2-2.3,2h-0.7v2h-1.3V7.1z M12.3,9.9c0.7,0,1.1-0.3,1.1-0.9S13,8.2,12.3,8.2
		h-0.6v1.8H12.3z"/>
	<path d="M15.7,7.1h3.7v1.1H17v1.2h2v1.1h-2v1.4h2.4V13h-3.8V7.1z"/>
	<path d="M20.4,10.1c0-1.9,1.3-3.1,2.8-3.1c0.8,0,1.4,0.4,1.8,0.8l-0.7,0.8c-0.3-0.3-0.6-0.5-1-0.5c-0.8,0-1.4,0.7-1.4,1.9
		c0,1.2,0.6,1.9,1.4,1.9c0.5,0,0.9-0.2,1.1-0.5l0.7,0.8c-0.5,0.6-1.1,0.9-1.9,0.9C21.6,13.1,20.4,12.1,20.4,10.1z"/>
	<path d="M25.9,7.1h1.3V13h-1.3V7.1z"/>
	<path d="M28.6,7.1h3.7v1.1h-2.4v1.4h2v1.1h-2V13h-1.3V7.1z"/>
	<path d="M33.3,7.1h1.3V13h-1.3V7.1z"/>
	<path d="M35.7,10.1C35.7,8.1,37,7,38.5,7c0.8,0,1.4,0.4,1.8,0.8l-0.7,0.8c-0.3-0.3-0.6-0.5-1-0.5c-0.8,0-1.4,0.7-1.4,1.9
		c0,1.2,0.6,1.9,1.4,1.9c0.5,0,0.9-0.2,1.1-0.5l0.7,0.8c-0.5,0.6-1.1,0.9-1.9,0.9C37,13.1,35.7,12.1,35.7,10.1z"/>
	<path d="M42.5,7.1h1.4l0.4,2.7c0.1,0.6,0.2,1.2,0.2,1.9h0c0.1-0.6,0.2-1.2,0.4-1.9l0.6-2.7h1.1l0.6,2.7c0.1,0.6,0.2,1.2,0.4,1.9h0
		c0.1-0.6,0.2-1.3,0.2-1.9l0.4-2.7h1.3l-1,5.9h-1.7l-0.6-2.7C46.2,9.9,46.1,9.4,46,9h0c-0.1,0.4-0.1,0.9-0.2,1.4L45.2,13h-1.6
		L42.5,7.1z"/>
	<path d="M51.4,7.1H53l1.8,5.9h-1.4l-0.4-1.4h-1.8L51,13h-1.3L51.4,7.1z M51.6,10.5h1.3L52.7,10c-0.2-0.6-0.3-1.3-0.5-1.9h0
		C52,8.7,51.9,9.4,51.7,10L51.6,10.5z"/>
	<path d="M56,8.2h-1.6V7.1h4.6v1.1h-1.6V13H56V8.2z"/>
	<path d="M59.9,7.1h3.7v1.1h-2.3v1.2h2v1.1h-2v1.4h2.4V13h-3.8V7.1z"/>
	<path d="M64.8,7.1h2.1c1.2,0,2.3,0.4,2.3,1.8c0,0.9-0.4,1.4-1,1.7l1.3,2.3H68l-1.1-2.1h-0.7V13h-1.3V7.1z M66.8,9.8
		c0.7,0,1.1-0.3,1.1-0.9s-0.4-0.8-1.1-0.8h-0.7v1.6H66.8z"/>
	<path d="M71.8,10.1c0-1.9,1.3-3.1,2.8-3.1c0.8,0,1.4,0.4,1.8,0.8l-0.7,0.8c-0.3-0.3-0.6-0.5-1-0.5c-0.8,0-1.4,0.7-1.4,1.9
		c0,1.2,0.6,1.9,1.4,1.9c0.5,0,0.9-0.2,1.1-0.5l0.7,0.8c-0.5,0.6-1.1,0.9-1.9,0.9C73.1,13.1,71.8,12.1,71.8,10.1z"/>
	<path d="M76.7,10c0-1.9,1.1-3,2.7-3c1.6,0,2.7,1.1,2.7,3c0,1.9-1.1,3.1-2.7,3.1C77.8,13.1,76.7,11.9,76.7,10z M80.7,10
		c0-1.2-0.5-1.9-1.3-1.9c-0.8,0-1.3,0.7-1.3,1.9c0,1.2,0.5,1.9,1.3,1.9C80.2,11.9,80.7,11.2,80.7,10z"/>
	<path d="M83.2,7.1h1.4l1.5,2.9l0.6,1.3h0c-0.1-0.6-0.2-1.4-0.2-2.1V7.1h1.3V13h-1.4l-1.5-2.9l-0.6-1.3h0c0.1,0.6,0.2,1.4,0.2,2.1
		V13h-1.3V7.1z"/>
	<path d="M88.8,12.2l0.8-0.9c0.4,0.4,1,0.6,1.4,0.6c0.5,0,0.8-0.2,0.8-0.6c0-0.4-0.3-0.5-0.8-0.7l-0.8-0.3C89.6,10.1,89,9.6,89,8.7
		c0-1,0.9-1.7,2.1-1.7c0.7,0,1.4,0.3,1.9,0.8l-0.7,0.8c-0.4-0.3-0.7-0.5-1.2-0.5c-0.5,0-0.7,0.2-0.7,0.5c0,0.4,0.4,0.5,0.9,0.7
		L92,9.7c0.7,0.3,1.2,0.8,1.2,1.6c0,1-0.8,1.8-2.2,1.8C90.2,13.1,89.4,12.8,88.8,12.2z"/>
	<path d="M94.1,10.3V7.1h1.3v3.3c0,1.2,0.4,1.5,1,1.5s1-0.4,1-1.5V7.1h1.3v3.2c0,2-0.8,2.8-2.3,2.8C95,13.1,94.1,12.2,94.1,10.3z"/>
	<path d="M100.2,7.1h1.4l0.9,2.6c0.1,0.3,0.2,0.7,0.3,1.1h0c0.1-0.4,0.2-0.7,0.3-1.1l0.9-2.6h1.4V13h-1.2v-2.2c0-0.6,0.1-1.4,0.2-2
		h0l-0.5,1.4l-0.8,2.2h-0.7l-0.8-2.2l-0.5-1.4h0c0.1,0.6,0.2,1.4,0.2,2V13h-1.2V7.1z"/>
	<path d="M107,7.1h2c1.3,0,2.3,0.5,2.3,1.9c0,1.4-1.1,2-2.3,2h-0.7v2H107V7.1z M109,9.9c0.7,0,1.1-0.3,1.1-0.9s-0.4-0.8-1.1-0.8
		h-0.6v1.8H109z"/>
	<path d="M113.4,8.2h-1.6V7.1h4.6v1.1h-1.6V13h-1.3V8.2z"/>
	<path d="M117.3,7.1h1.3V13h-1.3V7.1z"/>
	<path d="M119.7,10c0-1.9,1.1-3,2.7-3c1.6,0,2.7,1.1,2.7,3c0,1.9-1.1,3.1-2.7,3.1C120.8,13.1,119.7,11.9,119.7,10z M123.7,10
		c0-1.2-0.5-1.9-1.3-1.9c-0.8,0-1.3,0.7-1.3,1.9c0,1.2,0.5,1.9,1.3,1.9C123.2,11.9,123.7,11.2,123.7,10z"/>
	<path d="M126.1,7.1h1.4L129,10l0.6,1.3h0c-0.1-0.6-0.2-1.4-0.2-2.1V7.1h1.3V13h-1.4l-1.5-2.9l-0.6-1.3h0c0.1,0.6,0.2,1.4,0.2,2.1
		V13h-1.3V7.1z"/>
</g>
<g>
	<path d="M5.2,19.2c0-1.1,0.3-2.1,0.9-2.9l0.2,0.1c-0.5,0.8-0.8,1.8-0.8,2.8c0,1,0.3,2,0.8,2.8l-0.2,0.1C5.5,21.3,5.2,20.3,5.2,19.2
		z"/>
	<path d="M7,17.9h0.2l0,0.5h0c0.3-0.3,0.6-0.6,1-0.6c0.5,0,0.8,0.3,0.9,0.6c0.4-0.4,0.7-0.6,1.1-0.6c0.6,0,0.9,0.4,0.9,1.2v2h-0.3
		v-2c0-0.7-0.2-1-0.7-1c-0.3,0-0.6,0.2-0.9,0.6V21H9v-2c0-0.7-0.2-1-0.7-1c-0.3,0-0.6,0.2-0.9,0.6V21H7V17.9z"/>
</g>
<g>
	<path d="M11.8,18.5l0.1-0.1c0.1,0.2,0.3,0.3,0.7,0.3c0.3,0,0.6-0.2,0.6-0.5c0-0.3-0.2-0.6-0.8-0.6v-0.1c0.6,0,0.8-0.2,0.8-0.5
		c0-0.3-0.2-0.5-0.5-0.5c-0.2,0-0.4,0.1-0.6,0.3l-0.1-0.1c0.2-0.2,0.4-0.3,0.7-0.3c0.4,0,0.7,0.2,0.7,0.6c0,0.3-0.2,0.5-0.5,0.6v0
		c0.3,0.1,0.5,0.3,0.5,0.6c0,0.4-0.3,0.7-0.7,0.7C12.2,18.9,12,18.7,11.8,18.5z"/>
</g>
<g>
	<path d="M15.6,16.4h0.2l-2,5.7h-0.2L15.6,16.4z"/>
	<path d="M16.5,16.7h0.4l0.9,2.5c0.1,0.3,0.2,0.6,0.3,0.9h0c0.1-0.3,0.2-0.6,0.3-0.9l0.9-2.5h0.4V21h-0.3v-2.8c0-0.4,0-0.8,0-1.2h0
		l-0.3,1l-0.9,2.5H18L17.1,18l-0.3-1h0c0,0.4,0,0.8,0,1.2V21h-0.3V16.7z"/>
	<path d="M22,17h-1.4v-0.3h3V17h-1.4v4H22V17z"/>
	<path d="M24.1,22c0.5-0.8,0.8-1.8,0.8-2.8c0-1-0.3-2-0.8-2.8l0.2-0.1c0.5,0.9,0.9,1.8,0.9,2.9c0,1.1-0.3,2.1-0.9,2.9L24.1,22z"/>
</g>
<line class="st0" x1="4.6" y1="27.2" x2="247" y2="27.2"/>
<line class="st0" x1="4.6" y1="135.4" x2="247" y2="135.4"/>
<g>
	<path d="M214.8,88.2h1.2V84h-0.9v-0.2c0.4-0.1,0.7-0.2,1-0.3h0.3v4.8h1.1v0.3h-2.7V88.2z"/>
	<path d="M218.2,87.9l0.2-0.2c0.3,0.3,0.7,0.6,1.4,0.6c0.7,0,1.3-0.6,1.3-1.4c0-0.8-0.5-1.3-1.2-1.3c-0.4,0-0.6,0.1-1,0.3l-0.2-0.2
		l0.2-2.4h2.4v0.3h-2l-0.2,1.8c0.3-0.2,0.5-0.3,0.9-0.3c0.9,0,1.6,0.5,1.6,1.6c0,1.1-0.8,1.7-1.6,1.7
		C218.9,88.6,218.5,88.2,218.2,87.9z"/>
	<path d="M222.3,88.2c0-0.2,0.2-0.4,0.3-0.4c0.2,0,0.3,0.1,0.3,0.4c0,0.2-0.2,0.4-0.3,0.4C222.5,88.6,222.3,88.5,222.3,88.2z"/>
	<path d="M223.9,85.9c0-1.7,0.6-2.6,1.5-2.6s1.5,0.9,1.5,2.6c0,1.7-0.6,2.7-1.5,2.7S223.9,87.6,223.9,85.9z M226.6,85.9
		c0-1.6-0.5-2.3-1.2-2.3c-0.7,0-1.2,0.8-1.2,2.3c0,1.6,0.5,2.4,1.2,2.4C226.2,88.3,226.6,87.5,226.6,85.9z"/>
	<path d="M227.7,87.2c0-0.7,0.5-1.2,1-1.4v0c-0.4-0.2-0.7-0.6-0.7-1.2c0-0.7,0.6-1.2,1.3-1.2c0.9,0,1.4,0.6,1.4,1.3
		c0,0.6-0.4,1.1-0.7,1.3v0c0.4,0.3,0.9,0.6,0.9,1.3c0,0.7-0.6,1.3-1.6,1.3C228.4,88.6,227.7,88,227.7,87.2z M230.5,87.3
		c0-0.8-0.8-1.1-1.6-1.4c-0.5,0.3-0.9,0.7-0.9,1.3c0,0.6,0.5,1.1,1.3,1.1C230,88.3,230.5,87.8,230.5,87.3z M230.4,84.6
		c0-0.6-0.4-1-1-1c-0.6,0-1,0.4-1,1c0,0.7,0.7,1,1.4,1.3C230.1,85.5,230.4,85.1,230.4,84.6z"/>
</g>
<g>
	<path d="M214.8,97.1h1.2v-4.2h-0.9v-0.2c0.4-0.1,0.7-0.2,1-0.3h0.3v4.8h1.1v0.3h-2.7V97.1z"/>
	<path d="M218.3,97.2c1.7-1.7,2.5-2.7,2.5-3.5c0-0.6-0.3-1.1-1.1-1.1c-0.5,0-0.9,0.3-1.2,0.7l-0.2-0.2c0.4-0.4,0.8-0.8,1.5-0.8
		c0.9,0,1.4,0.6,1.4,1.4c0,1-0.9,2-2.3,3.5c0.3,0,0.6,0,0.9,0h1.7v0.3h-3.1V97.2z"/>
	<path d="M222.3,97.2c0-0.2,0.2-0.4,0.3-0.4c0.2,0,0.3,0.1,0.3,0.4c0,0.2-0.2,0.4-0.3,0.4C222.5,97.5,222.3,97.4,222.3,97.2z"/>
	<path d="M226,95.9h-2.4v-0.2l2.4-3.4h0.3v3.3h0.8v0.3h-0.8v1.5H226V95.9z M226,95.6v-1.9c0-0.2,0-0.6,0-0.9h0
		c-0.1,0.2-0.3,0.4-0.4,0.6l-1.5,2.1H226z"/>
	<path d="M227.8,95.1c0-2.1,0.9-2.9,1.9-2.9c0.5,0,0.8,0.2,1.1,0.5l-0.2,0.2c-0.2-0.3-0.5-0.4-0.9-0.4c-0.8,0-1.5,0.7-1.5,2.5
		c0.4-0.4,0.8-0.7,1.3-0.7c0.9,0,1.4,0.6,1.4,1.6c0,0.9-0.6,1.6-1.4,1.6C228.4,97.5,227.8,96.7,227.8,95.1z M228.1,95.4
		c0.1,1.1,0.5,1.8,1.3,1.8c0.6,0,1-0.6,1-1.3c0-0.7-0.3-1.3-1.1-1.3C229,94.7,228.6,94.9,228.1,95.4z"/>
</g>
<g>
	<path d="M9.9,87.7h2.9V88h-2.5v2.1h2.1v0.3h-2.1V93H9.9V87.7z"/>
	<path d="M14.7,90.8l-1.6-3.1h0.4l0.8,1.6c0.2,0.4,0.4,0.8,0.6,1.1h0c0.2-0.4,0.4-0.8,0.6-1.1l0.8-1.6h0.4L15,90.8V93h-0.4V90.8z"/>
	<path d="M18.6,92.7c1.7-1.7,2.5-2.7,2.5-3.5c0-0.6-0.3-1.1-1.1-1.1c-0.5,0-0.9,0.3-1.2,0.7l-0.2-0.2c0.4-0.4,0.8-0.8,1.5-0.8
		c0.9,0,1.4,0.6,1.4,1.4c0,1-0.9,2-2.3,3.5c0.3,0,0.6,0,0.9,0h1.7V93h-3.1V92.7z"/>
	<path d="M22.5,90.4c0-1.7,0.6-2.6,1.5-2.6s1.5,0.9,1.5,2.6c0,1.7-0.6,2.7-1.5,2.7S22.5,92.1,22.5,90.4z M25.2,90.4
		c0-1.6-0.5-2.3-1.2-2.3c-0.7,0-1.2,0.8-1.2,2.3c0,1.6,0.5,2.4,1.2,2.4C24.7,92.8,25.2,92,25.2,90.4z"/>
	<path d="M26.6,92.7h1.2v-4.2h-0.9v-0.2c0.4-0.1,0.7-0.2,1-0.3h0.3v4.8h1.1V93h-2.7V92.7z"/>
	<path d="M30.1,91.7c0-0.7,0.5-1.2,1-1.4v0c-0.4-0.2-0.7-0.6-0.7-1.2c0-0.7,0.6-1.2,1.3-1.2c0.9,0,1.4,0.6,1.4,1.3
		c0,0.6-0.4,1.1-0.7,1.3v0c0.4,0.3,0.9,0.6,0.9,1.3c0,0.7-0.6,1.3-1.6,1.3C30.8,93.1,30.1,92.5,30.1,91.7z M32.9,91.7
		c0-0.8-0.8-1.1-1.6-1.4c-0.5,0.3-0.9,0.7-0.9,1.3c0,0.6,0.5,1.1,1.3,1.1C32.4,92.8,32.9,92.3,32.9,91.7z M32.7,89.1
		c0-0.6-0.4-1-1-1c-0.6,0-1,0.4-1,1c0,0.7,0.7,1,1.4,1.3C32.5,89.9,32.7,89.6,32.7,89.1z"/>
</g>
<rect x="37.8" y="90" class="st1" width="132.7" height="8.9"/>
<rect x="37.8" y="81.1" class="st2" width="158.9" height="8.9"/>
<g>
	<path d="M214.8,115.2h1.2V111h-0.9v-0.2c0.4-0.1,0.7-0.2,1-0.3h0.3v4.8h1.1v0.3h-2.7V115.2z"/>
	<path d="M220.4,114h-2.4v-0.2l2.4-3.4h0.3v3.3h0.8v0.3h-0.8v1.5h-0.3V114z M220.4,113.7v-1.9c0-0.2,0-0.6,0-0.9h0
		c-0.1,0.2-0.3,0.4-0.4,0.6l-1.5,2.1H220.4z"/>
	<path d="M222.3,115.2c0-0.2,0.2-0.4,0.3-0.4c0.2,0,0.3,0.1,0.3,0.4c0,0.2-0.2,0.4-0.3,0.4C222.5,115.6,222.3,115.5,222.3,115.2z"/>
	<path d="M224,113.2c0-2.1,0.9-2.9,1.9-2.9c0.5,0,0.8,0.2,1.1,0.5l-0.2,0.2c-0.2-0.3-0.5-0.4-0.9-0.4c-0.8,0-1.5,0.7-1.5,2.5
		c0.4-0.4,0.8-0.7,1.3-0.7c0.9,0,1.4,0.6,1.4,1.6c0,0.9-0.6,1.6-1.4,1.6C224.6,115.6,224,114.7,224,113.2z M224.3,113.5
		c0.1,1.1,0.5,1.8,1.3,1.8c0.6,0,1-0.6,1-1.3c0-0.7-0.3-1.3-1.1-1.3C225.2,112.7,224.7,112.9,224.3,113.5z"/>
	<path d="M228,115.2h1.2V111h-0.9v-0.2c0.4-0.1,0.7-0.2,1-0.3h0.3v4.8h1.1v0.3H228V115.2z"/>
</g>
<g>
	<path d="M214.8,124.2h1.2v-4.2h-0.9v-0.2c0.4-0.1,0.7-0.2,1-0.3h0.3v4.8h1.1v0.3h-2.7V124.2z"/>
	<path d="M218.3,124.2c1.7-1.7,2.5-2.7,2.5-3.5c0-0.6-0.3-1.1-1.1-1.1c-0.5,0-0.9,0.3-1.2,0.7l-0.2-0.2c0.4-0.4,0.8-0.8,1.5-0.8
		c0.9,0,1.4,0.6,1.4,1.4c0,1-0.9,2-2.3,3.5c0.3,0,0.6,0,0.9,0h1.7v0.3h-3.1V124.2z"/>
	<path d="M222.3,124.2c0-0.2,0.2-0.4,0.3-0.4c0.2,0,0.3,0.1,0.3,0.4c0,0.2-0.2,0.4-0.3,0.4C222.5,124.6,222.3,124.4,222.3,124.2z"/>
	<path d="M226.6,119.7h-2.7v-0.3h3.1v0.2c-1.2,1.6-1.5,2.9-1.6,4.9H225C225.1,122.4,225.5,121.1,226.6,119.7z"/>
	<path d="M227.7,124.2c1.7-1.7,2.5-2.7,2.5-3.5c0-0.6-0.3-1.1-1.1-1.1c-0.5,0-0.9,0.3-1.2,0.7l-0.2-0.2c0.4-0.4,0.8-0.8,1.5-0.8
		c0.9,0,1.4,0.6,1.4,1.4c0,1-0.9,2-2.3,3.5c0.3,0,0.6,0,0.9,0h1.7v0.3h-3.1V124.2z"/>
</g>
<g>
	<path d="M9.9,114.7h2.9v0.3h-2.5v2.1h2.1v0.3h-2.1v2.5H9.9V114.7z"/>
	<path d="M14.7,117.9l-1.6-3.1h0.4l0.8,1.6c0.2,0.4,0.4,0.8,0.6,1.1h0c0.2-0.4,0.4-0.8,0.6-1.1l0.8-1.6h0.4l-1.6,3.1v2.1h-0.4V117.9
		z"/>
	<path d="M18.6,119.8c1.7-1.7,2.5-2.7,2.5-3.5c0-0.6-0.3-1.1-1.1-1.1c-0.5,0-0.9,0.3-1.2,0.7l-0.2-0.2c0.4-0.4,0.8-0.8,1.5-0.8
		c0.9,0,1.4,0.6,1.4,1.4c0,1-0.9,2-2.3,3.5c0.3,0,0.6,0,0.9,0h1.7v0.3h-3.1V119.8z"/>
	<path d="M22.5,117.4c0-1.7,0.6-2.6,1.5-2.6s1.5,0.9,1.5,2.6c0,1.7-0.6,2.7-1.5,2.7S22.5,119.1,22.5,117.4z M25.2,117.4
		c0-1.6-0.5-2.3-1.2-2.3c-0.7,0-1.2,0.8-1.2,2.3c0,1.6,0.5,2.4,1.2,2.4C24.7,119.8,25.2,119,25.2,117.4z"/>
	<path d="M26.6,119.7h1.2v-4.2h-0.9v-0.2c0.4-0.1,0.7-0.2,1-0.3h0.3v4.8h1.1v0.3h-2.7V119.7z"/>
	<path d="M32.8,115.2h-2.7v-0.3h3.1v0.2c-1.2,1.6-1.5,2.9-1.6,4.9h-0.4C31.3,117.9,31.8,116.6,32.8,115.2z"/>
</g>
<rect x="37.8" y="117" class="st1" width="135.8" height="8.9"/>
<rect x="37.8" y="108" class="st2" width="154" height="8.9"/>
<g>
	<path d="M212.5,60.6h1.1v-2.9h-1v-0.7c0.6-0.1,0.9-0.2,1.3-0.5h0.9v4.1h1v1h-3.2V60.6z"/>
	<path d="M216.3,60.9l0.5-0.7c0.3,0.3,0.7,0.5,1.1,0.5c0.5,0,0.9-0.3,0.9-0.8c0-0.5-0.3-0.8-0.8-0.8c-0.3,0-0.4,0.1-0.8,0.3
		l-0.5-0.3l0.1-2.6h2.9v1h-1.9l-0.1,1c0.2-0.1,0.4-0.1,0.6-0.1c0.9,0,1.6,0.5,1.6,1.6c0,1.1-0.9,1.8-1.9,1.8
		C217.3,61.6,216.7,61.3,216.3,60.9z"/>
	<path d="M220.8,60.9c0-0.4,0.3-0.7,0.7-0.7c0.4,0,0.7,0.3,0.7,0.7c0,0.4-0.3,0.7-0.7,0.7C221.1,61.6,220.8,61.3,220.8,60.9z"/>
	<path d="M225.4,57.4h-2.3v-1h3.5v0.7c-1.2,1.4-1.3,2.4-1.4,4.4H224C224.1,59.8,224.4,58.7,225.4,57.4z"/>
	<path d="M227.1,60.9l0.5-0.7c0.3,0.3,0.7,0.5,1.1,0.5c0.5,0,0.8-0.2,0.8-0.6c0-0.4-0.3-0.7-1.4-0.7v-0.8c0.9,0,1.2-0.3,1.2-0.7
		c0-0.4-0.2-0.6-0.6-0.6c-0.4,0-0.6,0.2-1,0.4l-0.6-0.7c0.5-0.4,1-0.6,1.6-0.6c1,0,1.8,0.5,1.8,1.4c0,0.5-0.3,0.9-0.8,1.1v0
		c0.6,0.2,1,0.6,1,1.2c0,0.9-0.9,1.5-1.9,1.5C228.1,61.6,227.5,61.3,227.1,60.9z"/>
</g>
<g>
	<path d="M212.5,69.5h1.1v-2.9h-1v-0.7c0.6-0.1,0.9-0.2,1.3-0.5h0.9v4.1h1v1h-3.2V69.5z"/>
	<path d="M216.4,69.7c1.3-1.2,2.2-2.1,2.2-2.8c0-0.5-0.3-0.8-0.7-0.8c-0.4,0-0.6,0.2-0.9,0.5l-0.6-0.6c0.5-0.5,1-0.8,1.7-0.8
		c1,0,1.7,0.6,1.7,1.6c0,0.9-0.8,1.8-1.6,2.6c0.3,0,0.6-0.1,0.8-0.1h1v1h-3.6V69.7z"/>
	<path d="M220.8,69.8c0-0.4,0.3-0.7,0.7-0.7c0.4,0,0.7,0.3,0.7,0.7c0,0.4-0.3,0.7-0.7,0.7C221.1,70.5,220.8,70.2,220.8,69.8z"/>
	<path d="M222.9,69.8l0.5-0.7c0.3,0.3,0.7,0.5,1.1,0.5c0.5,0,0.8-0.2,0.8-0.6c0-0.4-0.3-0.7-1.4-0.7v-0.8c0.9,0,1.2-0.3,1.2-0.7
		c0-0.4-0.2-0.6-0.6-0.6c-0.4,0-0.6,0.2-1,0.4l-0.6-0.7c0.5-0.4,1-0.6,1.6-0.6c1,0,1.8,0.5,1.8,1.4c0,0.5-0.3,0.9-0.8,1.1v0
		c0.6,0.2,1,0.6,1,1.2c0,0.9-0.9,1.5-1.9,1.5C223.9,70.5,223.3,70.2,222.9,69.8z"/>
	<path d="M227.5,69.5h1.1v-2.9h-1v-0.7c0.6-0.1,0.9-0.2,1.3-0.5h0.9v4.1h1v1h-3.2V69.5z"/>
</g>
<g>
	<path d="M7.4,60.7h3.3v1H8.6v1.2h1.8v1H8.6v2H7.4V60.7z"/>
	<path d="M12.4,64.1l-1.6-3.4h1.3l0.5,1.2c0.1,0.4,0.3,0.8,0.4,1.2h0c0.2-0.4,0.3-0.8,0.4-1.2l0.5-1.2h1.2l-1.6,3.4V66h-1.2V64.1z"
		/>
	<path d="M17,65.3c1.3-1.2,2.2-2.1,2.2-2.8c0-0.5-0.3-0.8-0.7-0.8c-0.4,0-0.6,0.2-0.9,0.5l-0.6-0.6c0.5-0.5,1-0.8,1.7-0.8
		c1,0,1.7,0.6,1.7,1.6c0,0.9-0.8,1.8-1.6,2.6c0.3,0,0.6-0.1,0.8-0.1h1v1H17V65.3z"/>
	<path d="M21.2,63.4c0-1.7,0.7-2.6,1.8-2.6c1.1,0,1.8,0.9,1.8,2.6s-0.7,2.7-1.8,2.7C21.9,66.1,21.2,65.1,21.2,63.4z M23.7,63.4
		c0-1.4-0.3-1.7-0.7-1.7c-0.4,0-0.7,0.3-0.7,1.7c0,1.4,0.3,1.7,0.7,1.7C23.4,65.1,23.7,64.8,23.7,63.4z"/>
	<path d="M25.7,65h1.1v-2.9h-1v-0.7c0.6-0.1,0.9-0.2,1.3-0.5H28V65h1v1h-3.2V65z"/>
	<path d="M29.7,65.4l0.6-0.7c0.2,0.2,0.5,0.4,0.8,0.4c0.6,0,1-0.4,1-1.6c-0.3,0.3-0.7,0.5-1,0.5c-0.9,0-1.5-0.5-1.5-1.6
		c0-1.1,0.8-1.7,1.7-1.7c1,0,1.9,0.7,1.9,2.5c0,1.9-1,2.8-2.1,2.8C30.5,66.1,30,65.8,29.7,65.4z M31.4,63.2c0.3,0,0.6-0.1,0.8-0.5
		c-0.1-0.8-0.4-1.1-0.8-1.1c-0.3,0-0.6,0.2-0.6,0.8C30.7,63,31,63.2,31.4,63.2z"/>
</g>
<rect x="37.8" y="62.9" class="st1" width="129.7" height="8.9"/>
<rect x="37.8" y="54" class="st2" width="165.8" height="8.9"/>
<rect x="93" y="37.4" class="st2" width="5.7" height="5.7"/>
<rect x="169" y="37.4" class="st1" width="5.7" height="5.7"/>
<g>
	<path d="M104,37.9h0.4l0.7,3.1c0.1,0.6,0.2,1.2,0.4,1.7h0c0.1-0.6,0.3-1.1,0.4-1.7l0.8-3.1h0.4l0.8,3.1c0.1,0.6,0.3,1.1,0.4,1.7h0
		c0.1-0.6,0.2-1.1,0.3-1.7l0.7-3.1h0.4l-1.2,5.3h-0.4l-1-3.6c-0.1-0.4-0.2-0.8-0.3-1.2h0c-0.1,0.4-0.2,0.8-0.3,1.2l-0.9,3.6h-0.4
		L104,37.9z"/>
	<path d="M110.6,38.1c0-0.2,0.1-0.3,0.3-0.3c0.2,0,0.3,0.1,0.3,0.3c0,0.2-0.1,0.3-0.3,0.3C110.7,38.4,110.6,38.3,110.6,38.1z
		 M110.7,39.4h0.4v3.8h-0.4V39.4z"/>
	<path d="M112.6,42.1v-2.5H112v-0.3l0.6,0l0-1.1h0.3v1.1h1.1v0.3H113v2.5c0,0.5,0.1,0.8,0.6,0.8c0.1,0,0.3-0.1,0.5-0.1l0.1,0.3
		c-0.2,0.1-0.5,0.1-0.6,0.1C112.8,43.3,112.6,42.8,112.6,42.1z"/>
	<path d="M115,37.5h0.4V40c0.4-0.4,0.8-0.7,1.3-0.7c0.8,0,1.2,0.5,1.2,1.5v2.5h-0.4v-2.4c0-0.8-0.3-1.2-0.9-1.2
		c-0.5,0-0.8,0.2-1.3,0.7v2.9H115V37.5z"/>
	<path d="M120.5,42.5l0.2-0.3c0.4,0.4,0.9,0.7,1.5,0.7c0.8,0,1.3-0.4,1.3-1.1c0-0.7-0.4-0.9-0.9-1.1l-0.8-0.4
		c-0.5-0.2-1.1-0.5-1.1-1.3c0-0.8,0.7-1.3,1.5-1.3c0.6,0,1.1,0.3,1.5,0.6l-0.2,0.2c-0.3-0.3-0.7-0.5-1.3-0.5c-0.7,0-1.2,0.4-1.2,0.9
		c0,0.6,0.5,0.8,0.9,1l0.8,0.4c0.6,0.3,1.1,0.6,1.1,1.4s-0.7,1.4-1.7,1.4C121.5,43.3,120.9,43,120.5,42.5z"/>
	<path d="M126,38.3h-1.7v-0.3h3.7v0.3h-1.7v4.9H126V38.3z"/>
	<path d="M129.1,37.9h1.3c1.2,0,1.9,0.4,1.9,1.5c0,1-0.7,1.5-1.9,1.5h-1v2.3h-0.4V37.9z M130.4,40.6c1.1,0,1.6-0.4,1.6-1.2
		c0-0.9-0.5-1.2-1.6-1.2h-0.9v2.4H130.4z"/>
	<path d="M134.5,39.4h0.4l0.7,2.5c0.1,0.4,0.2,0.7,0.3,1h0c0.1-0.3,0.2-0.7,0.3-1l0.7-2.5h0.4l0.7,2.5c0.1,0.4,0.2,0.7,0.3,1h0
		c0.1-0.3,0.2-0.7,0.3-1l0.7-2.5h0.4l-1.1,3.8H138l-0.7-2.4c-0.1-0.4-0.2-0.7-0.3-1.1h0c-0.1,0.4-0.2,0.7-0.3,1.1l-0.7,2.4h-0.4
		L134.5,39.4z"/>
	<path d="M140.2,42.2c0-0.8,0.8-1.3,2.5-1.4c0-0.6-0.2-1.2-0.9-1.2c-0.5,0-1,0.3-1.2,0.4l-0.2-0.3c0.3-0.2,0.8-0.5,1.4-0.5
		c0.9,0,1.2,0.7,1.2,1.5v2.5h-0.3l0-0.5h0c-0.4,0.3-0.9,0.6-1.4,0.6C140.7,43.3,140.2,43,140.2,42.2z M142.7,42.4v-1.3
		c-1.6,0.2-2.1,0.6-2.1,1.2c0,0.6,0.4,0.8,0.8,0.8C141.8,43,142.2,42.8,142.7,42.4z"/>
	<path d="M144.4,42.1v-2.5h-0.6v-0.3l0.6,0l0-1.1h0.3v1.1h1.1v0.3h-1.1v2.5c0,0.5,0.1,0.8,0.6,0.8c0.1,0,0.3-0.1,0.5-0.1l0.1,0.3
		c-0.2,0.1-0.5,0.1-0.6,0.1C144.6,43.3,144.4,42.8,144.4,42.1z"/>
	<path d="M146.4,41.3c0-1.3,0.8-2,1.7-2c0.9,0,1.5,0.6,1.5,1.8c0,0.1,0,0.2,0,0.3h-2.8c0,1,0.6,1.7,1.4,1.7c0.4,0,0.7-0.1,1-0.3
		l0.1,0.3c-0.3,0.2-0.6,0.4-1.2,0.4C147.2,43.3,146.4,42.5,146.4,41.3z M149.2,41c0-1-0.4-1.5-1.1-1.5c-0.7,0-1.2,0.6-1.3,1.5H149.2
		z"/>
	<path d="M150.6,39.4h0.3l0,0.7h0c0.3-0.5,0.6-0.8,1.1-0.8c0.1,0,0.3,0,0.4,0.1l-0.1,0.3c-0.1,0-0.2-0.1-0.4-0.1c-0.3,0-0.8,0.3-1,1
		v2.6h-0.4V39.4z"/>
</g>
<g>
	<path d="M179.6,40.6c0-1.7,0.9-2.7,2.2-2.7c1.3,0,2.2,1,2.2,2.7c0,1.7-0.9,2.8-2.2,2.8C180.5,43.3,179.6,42.2,179.6,40.6z
		 M183.6,40.6c0-1.5-0.7-2.4-1.8-2.4s-1.8,0.9-1.8,2.4c0,1.5,0.7,2.4,1.8,2.4S183.6,42,183.6,40.6z"/>
	<path d="M185.2,39.4h0.3l0,0.6h0c0.4-0.4,0.8-0.7,1.3-0.7c0.8,0,1.2,0.5,1.2,1.5v2.5h-0.4v-2.4c0-0.8-0.3-1.2-0.9-1.2
		c-0.5,0-0.8,0.2-1.3,0.7v2.9h-0.4V39.4z"/>
	<path d="M189.4,42.7v-5.2h0.4v5.3c0,0.2,0.1,0.2,0.2,0.2c0,0,0.1,0,0.1,0l0.1,0.3c-0.1,0-0.1,0-0.3,0
		C189.6,43.3,189.4,43.1,189.4,42.7z"/>
	<path d="M190.8,44.9l0.1-0.3c0.1,0,0.2,0.1,0.3,0.1c0.5,0,0.8-0.4,1-1l0.1-0.3l-1.6-3.9h0.4l0.9,2.4c0.1,0.3,0.3,0.7,0.4,1.1h0
		c0.1-0.3,0.2-0.8,0.4-1.1l0.8-2.4h0.4l-1.5,4.3c-0.2,0.6-0.6,1.3-1.3,1.3C191,45,190.9,44.9,190.8,44.9z"/>
	<path d="M196.5,39.7h-0.5v-0.3l0.5,0v-0.9c0-0.8,0.3-1.2,1-1.2c0.2,0,0.4,0,0.6,0.1l-0.1,0.3c-0.2-0.1-0.3-0.1-0.5-0.1
		c-0.4,0-0.6,0.3-0.6,0.9v0.8h0.9v0.3h-0.9v3.5h-0.4V39.7z"/>
	<path d="M198.5,39.4h0.3l0,0.7h0c0.3-0.5,0.6-0.8,1.1-0.8c0.1,0,0.3,0,0.4,0.1l-0.1,0.3c-0.1,0-0.2-0.1-0.4-0.1c-0.3,0-0.8,0.3-1,1
		v2.6h-0.4V39.4z"/>
	<path d="M200.6,41.3c0-1.3,0.8-2,1.7-2c0.9,0,1.5,0.6,1.5,1.8c0,0.1,0,0.2,0,0.3H201c0,1,0.6,1.7,1.4,1.7c0.4,0,0.7-0.1,1-0.3
		l0.1,0.3c-0.3,0.2-0.6,0.4-1.2,0.4C201.4,43.3,200.6,42.5,200.6,41.3z M203.4,41c0-1-0.4-1.5-1.1-1.5c-0.7,0-1.2,0.6-1.3,1.5H203.4
		z"/>
	<path d="M204.3,42.8l0.2-0.3c0.3,0.3,0.7,0.5,1.2,0.5c0.6,0,0.9-0.4,0.9-0.8c0-0.5-0.5-0.7-0.9-0.8c-0.6-0.2-1.2-0.4-1.2-1.1
		c0-0.6,0.4-1,1.2-1c0.4,0,0.8,0.2,1.1,0.4l-0.2,0.2c-0.3-0.2-0.5-0.3-0.9-0.3c-0.6,0-0.9,0.3-0.9,0.7c0,0.4,0.4,0.6,0.9,0.8
		c0.6,0.2,1.3,0.4,1.3,1.2c0,0.6-0.5,1.1-1.3,1.1C205.2,43.3,204.7,43.1,204.3,42.8z"/>
	<path d="M208.1,37.5h0.4V40c0.4-0.4,0.8-0.7,1.3-0.7c0.8,0,1.2,0.5,1.2,1.5v2.5h-0.4v-2.4c0-0.8-0.3-1.2-0.9-1.2
		c-0.5,0-0.8,0.2-1.3,0.7v2.9h-0.4V37.5z"/>
	<path d="M213.3,39.4h0.4l0.7,2.5c0.1,0.4,0.2,0.7,0.3,1h0c0.1-0.3,0.2-0.7,0.3-1l0.7-2.5h0.4l0.7,2.5c0.1,0.4,0.2,0.7,0.3,1h0
		c0.1-0.3,0.2-0.7,0.3-1l0.7-2.5h0.4l-1.1,3.8h-0.5l-0.7-2.4c-0.1-0.4-0.2-0.7-0.3-1.1h0c-0.1,0.4-0.2,0.7-0.3,1.1l-0.7,2.4h-0.4
		L213.3,39.4z"/>
	<path d="M219,42.2c0-0.8,0.8-1.3,2.5-1.4c0-0.6-0.2-1.2-0.9-1.2c-0.5,0-1,0.3-1.2,0.4l-0.2-0.3c0.3-0.2,0.8-0.5,1.4-0.5
		c0.9,0,1.2,0.7,1.2,1.5v2.5h-0.3l0-0.5h0c-0.4,0.3-0.9,0.6-1.4,0.6C219.5,43.3,219,43,219,42.2z M221.5,42.4v-1.3
		c-1.6,0.2-2.1,0.6-2.1,1.2c0,0.6,0.4,0.8,0.8,0.8C220.6,43,221,42.8,221.5,42.4z"/>
	<path d="M223.2,42.1v-2.5h-0.6v-0.3l0.6,0l0-1.1h0.3v1.1h1.1v0.3h-1.1v2.5c0,0.5,0.1,0.8,0.6,0.8c0.1,0,0.3-0.1,0.5-0.1l0.1,0.3
		c-0.2,0.1-0.5,0.1-0.6,0.1C223.4,43.3,223.2,42.8,223.2,42.1z"/>
	<path d="M225.2,41.3c0-1.3,0.8-2,1.7-2c0.9,0,1.5,0.6,1.5,1.8c0,0.1,0,0.2,0,0.3h-2.8c0,1,0.6,1.7,1.4,1.7c0.4,0,0.7-0.1,1-0.3
		l0.1,0.3c-0.3,0.2-0.6,0.4-1.2,0.4C226,43.3,225.2,42.5,225.2,41.3z M228,41c0-1-0.4-1.5-1.1-1.5c-0.7,0-1.2,0.6-1.3,1.5H228z"/>
	<path d="M229.4,39.4h0.3l0,0.7h0c0.3-0.5,0.6-0.8,1.1-0.8c0.1,0,0.3,0,0.4,0.1l-0.1,0.3c-0.1,0-0.2-0.1-0.4-0.1c-0.3,0-0.8,0.3-1,1
		v2.6h-0.4V39.4z"/>
</g>
</svg>
