<?xml version="1.0" encoding="utf-8"?>
<!-- Generator: Adobe Illustrator 23.0.3, SVG Export Plug-In . SVG Version: 6.00 Build 0)  -->
<svg version="1.1" id="Layer_1" xmlns="http://www.w3.org/2000/svg" xmlns:xlink="http://www.w3.org/1999/xlink" x="0px" y="0px"
	 viewBox="0 0 252 94" style="enable-background:new 0 0 252 94;" xml:space="preserve">
<style type="text/css">
	.st0{fill:none;stroke:#000000;stroke-width:0.25;}
	.st1{fill:#ABD693;}
	.st2{fill:#55371E;}
</style>
<g>
	<path d="M6.8,12.5l0.8-0.9C8,12,8.5,12.2,9,12.2c0.5,0,0.8-0.2,0.8-0.6c0-0.4-0.3-0.5-0.8-0.7l-0.8-0.3C7.6,10.4,7,9.9,7,9
		c0-1,0.9-1.7,2.1-1.7c0.7,0,1.4,0.3,1.9,0.8l-0.7,0.8C10,8.6,9.6,8.4,9.1,8.4C8.7,8.4,8.4,8.6,8.4,9c0,0.4,0.4,0.5,0.9,0.7L10,10
		c0.7,0.3,1.2,0.8,1.2,1.6c0,1-0.8,1.8-2.2,1.8C8.2,13.4,7.4,13.1,6.8,12.5z"/>
	<path d="M12.2,7.4h2c1.3,0,2.3,0.5,2.3,1.9c0,1.4-1.1,2-2.3,2h-0.7v2h-1.3V7.4z M14.2,10.2c0.7,0,1.1-0.3,1.1-0.9s-0.4-0.8-1.1-0.8
		h-0.6v1.8H14.2z"/>
	<path d="M17.5,7.4h3.7v1.1h-2.3v1.2h2v1.1h-2v1.4h2.4v1.1h-3.8V7.4z"/>
	<path d="M22.2,10.4c0-1.9,1.3-3.1,2.8-3.1c0.8,0,1.4,0.4,1.8,0.8L26,8.9c-0.3-0.3-0.6-0.5-1-0.5c-0.8,0-1.4,0.7-1.4,1.9
		c0,1.2,0.6,1.9,1.4,1.9c0.5,0,0.9-0.2,1.1-0.5l0.7,0.8c-0.5,0.6-1.1,0.9-1.9,0.9C23.4,13.4,22.2,12.3,22.2,10.4z"/>
	<path d="M27.7,7.4H29v5.9h-1.3V7.4z"/>
	<path d="M30.4,7.4h3.7v1.1h-2.4v1.4h2V11h-2v2.3h-1.3V7.4z"/>
	<path d="M35.1,7.4h1.3v5.9h-1.3V7.4z"/>
	<path d="M37.6,10.4c0-1.9,1.3-3.1,2.8-3.1c0.8,0,1.4,0.4,1.8,0.8l-0.7,0.8c-0.3-0.3-0.6-0.5-1-0.5c-0.8,0-1.4,0.7-1.4,1.9
		c0,1.2,0.6,1.9,1.4,1.9c0.5,0,0.9-0.2,1.1-0.5l0.7,0.8c-0.5,0.6-1.1,0.9-1.9,0.9C38.8,13.4,37.6,12.3,37.6,10.4z"/>
	<path d="M44.9,7.4h3.7v1.1h-2.3v1.2h2v1.1h-2v1.4h2.4v1.1h-3.8V7.4z"/>
	<path d="M49.8,7.4h1.4l1.5,2.9l0.6,1.3h0c-0.1-0.6-0.2-1.4-0.2-2.1V7.4h1.3v5.9h-1.4l-1.5-2.9L51,9.1h0c0.1,0.6,0.2,1.4,0.2,2.1
		v2.1h-1.3V7.4z"/>
	<path d="M55.8,7.4h3.7v1.1h-2.3v1.2h2v1.1h-2v1.4h2.4v1.1h-3.8V7.4z"/>
	<path d="M60.7,7.4h2.1c1.2,0,2.3,0.4,2.3,1.8c0,0.9-0.4,1.4-1,1.7l1.3,2.3h-1.5l-1.1-2.1h-0.7v2.1h-1.3V7.4z M62.7,10.1
		c0.7,0,1.1-0.3,1.1-0.9s-0.4-0.8-1.1-0.8h-0.7v1.6H62.7z"/>
	<path d="M66,10.4c0-1.9,1.3-3.1,2.9-3.1c0.8,0,1.5,0.4,1.8,0.8L70,8.9c-0.3-0.3-0.6-0.5-1.1-0.5c-0.9,0-1.5,0.7-1.5,1.9
		c0,1.2,0.5,1.9,1.6,1.9c0.2,0,0.5-0.1,0.6-0.2v-1h-1V10h2.1v2.7c-0.4,0.4-1.1,0.7-1.9,0.7C67.2,13.4,66,12.3,66,10.4z"/>
	<path d="M73,11.2l-1.8-3.8h1.4l0.5,1.4c0.2,0.4,0.3,0.8,0.5,1.3h0c0.2-0.5,0.3-0.9,0.5-1.3l0.5-1.4h1.4l-1.8,3.8v2.1H73V11.2z"/>
	<path d="M78.2,10.4c0-1.9,1.3-3.1,2.8-3.1c0.8,0,1.4,0.4,1.8,0.8l-0.7,0.8c-0.3-0.3-0.6-0.5-1-0.5c-0.8,0-1.4,0.7-1.4,1.9
		c0,1.2,0.6,1.9,1.4,1.9c0.5,0,0.9-0.2,1.1-0.5l0.7,0.8c-0.5,0.6-1.1,0.9-1.9,0.9C79.5,13.4,78.2,12.3,78.2,10.4z"/>
	<path d="M83.1,10.3c0-1.9,1.1-3,2.7-3c1.6,0,2.7,1.1,2.7,3c0,1.9-1.1,3.1-2.7,3.1C84.2,13.4,83.1,12.2,83.1,10.3z M87.1,10.3
		c0-1.2-0.5-1.9-1.3-1.9c-0.8,0-1.3,0.7-1.3,1.9c0,1.2,0.5,1.9,1.3,1.9C86.6,12.2,87.1,11.5,87.1,10.3z"/>
	<path d="M89.6,7.4h1.4l1.5,2.9l0.6,1.3h0c-0.1-0.6-0.2-1.4-0.2-2.1V7.4h1.3v5.9h-1.4l-1.5-2.9l-0.6-1.3h0c0.1,0.6,0.2,1.4,0.2,2.1
		v2.1h-1.3V7.4z"/>
	<path d="M95.2,12.5l0.8-0.9c0.4,0.4,1,0.6,1.4,0.6c0.5,0,0.8-0.2,0.8-0.6c0-0.4-0.3-0.5-0.8-0.7l-0.8-0.3C96,10.4,95.4,9.9,95.4,9
		c0-1,0.9-1.7,2.1-1.7c0.7,0,1.4,0.3,1.9,0.8l-0.7,0.8c-0.4-0.3-0.7-0.5-1.2-0.5c-0.5,0-0.7,0.2-0.7,0.5c0,0.4,0.4,0.5,0.9,0.7
		l0.8,0.3c0.7,0.3,1.2,0.8,1.2,1.6c0,1-0.8,1.8-2.2,1.8C96.6,13.4,95.8,13.1,95.2,12.5z"/>
	<path d="M100.5,10.6V7.4h1.3v3.3c0,1.2,0.4,1.5,1,1.5s1-0.4,1-1.5V7.4h1.3v3.2c0,2-0.8,2.8-2.3,2.8
		C101.4,13.4,100.5,12.5,100.5,10.6z"/>
	<path d="M106.6,7.4h1.4l0.9,2.6c0.1,0.3,0.2,0.7,0.3,1.1h0c0.1-0.4,0.2-0.7,0.3-1.1l0.9-2.6h1.4v5.9h-1.2v-2.2c0-0.6,0.1-1.4,0.2-2
		h0l-0.5,1.4l-0.8,2.2h-0.7l-0.8-2.2l-0.5-1.4h0c0.1,0.6,0.2,1.4,0.2,2v2.2h-1.2V7.4z"/>
	<path d="M113.4,7.4h2c1.3,0,2.3,0.5,2.3,1.9c0,1.4-1.1,2-2.3,2h-0.7v2h-1.3V7.4z M115.4,10.2c0.7,0,1.1-0.3,1.1-0.9
		s-0.4-0.8-1.1-0.8h-0.6v1.8H115.4z"/>
	<path d="M119.8,8.5h-1.6V7.4h4.6v1.1h-1.6v4.8h-1.3V8.5z"/>
	<path d="M123.7,7.4h1.3v5.9h-1.3V7.4z"/>
	<path d="M126.1,10.3c0-1.9,1.1-3,2.7-3c1.6,0,2.7,1.1,2.7,3c0,1.9-1.1,3.1-2.7,3.1C127.2,13.4,126.1,12.2,126.1,10.3z M130.1,10.3
		c0-1.2-0.5-1.9-1.3-1.9c-0.8,0-1.3,0.7-1.3,1.9c0,1.2,0.5,1.9,1.3,1.9C129.5,12.2,130.1,11.5,130.1,10.3z"/>
	<path d="M132.5,7.4h1.4l1.5,2.9l0.6,1.3h0c-0.1-0.6-0.2-1.4-0.2-2.1V7.4h1.3v5.9h-1.4l-1.5-2.9l-0.6-1.3h0c0.1,0.6,0.2,1.4,0.2,2.1
		v2.1h-1.3V7.4z"/>
</g>
<g>
	<path d="M7.1,19.5c0-1.1,0.3-2.1,0.9-2.9l0.2,0.1c-0.5,0.8-0.8,1.8-0.8,2.8c0,1,0.3,2,0.8,2.8l-0.2,0.1C7.4,21.5,7.1,20.6,7.1,19.5
		z"/>
	<path d="M8.7,19.1c0-1.4,0.8-2.2,1.9-2.2c0.6,0,0.9,0.3,1.2,0.5l-0.2,0.2c-0.2-0.2-0.5-0.4-1-0.4c-1,0-1.6,0.7-1.6,1.9s0.6,2,1.5,2
		c0.4,0,0.8-0.1,1-0.3v-1.3h-1v-0.3h1.3v1.7c-0.3,0.3-0.7,0.5-1.3,0.5C9.4,21.4,8.7,20.5,8.7,19.1z"/>
	<path d="M12.5,20.7l0.2-0.1c0.2,0.4,0.5,0.5,0.8,0.5c0.5,0,0.8-0.3,0.8-1V17h0.3v3.1c0,0.7-0.3,1.2-1.1,1.2
		C13.1,21.4,12.7,21.1,12.5,20.7z"/>
	<path d="M17.3,16.7h0.2l-2,5.7h-0.2L17.3,16.7z"/>
	<path d="M18.2,17h0.4l0.9,2.5c0.1,0.3,0.2,0.6,0.3,0.9h0c0.1-0.3,0.2-0.6,0.3-0.9l0.9-2.5h0.4v4.3h-0.3v-2.8c0-0.4,0-0.8,0-1.2h0
		l-0.3,1L20,20.8h-0.3l-0.9-2.5l-0.3-1h0c0,0.4,0,0.8,0,1.2v2.8h-0.3V17z"/>
	<path d="M23.7,17.2h-1.4V17h3v0.3H24v4h-0.3V17.2z"/>
	<path d="M25.8,22.3c0.5-0.8,0.8-1.8,0.8-2.8c0-1-0.3-2-0.8-2.8l0.2-0.1c0.5,0.9,0.9,1.8,0.9,2.9c0,1.1-0.3,2.1-0.9,2.9L25.8,22.3z"
		/>
</g>
<line class="st0" x1="6.5" y1="27.5" x2="247.7" y2="27.5"/>
<line class="st0" x1="6.5" y1="86.9" x2="248.2" y2="86.9"/>
<g>
	<path d="M215,42.2c1.3-1.2,2.2-2.1,2.2-2.8c0-0.5-0.3-0.8-0.7-0.8c-0.4,0-0.6,0.2-0.9,0.5l-0.6-0.6c0.5-0.5,1-0.8,1.7-0.8
		c1,0,1.7,0.6,1.7,1.6c0,0.9-0.8,1.8-1.6,2.6c0.3,0,0.6-0.1,0.8-0.1h1v1H215V42.2z"/>
	<path d="M219.2,40.3c0-1.7,0.7-2.6,1.8-2.6c1.1,0,1.8,0.9,1.8,2.6S222.1,43,221,43C220,43,219.2,42.1,219.2,40.3z M221.8,40.3
		c0-1.4-0.3-1.7-0.7-1.7c-0.4,0-0.7,0.3-0.7,1.7c0,1.4,0.3,1.7,0.7,1.7C221.4,42.1,221.8,41.7,221.8,40.3z"/>
	<path d="M223.6,42.2c0-0.4,0.3-0.7,0.7-0.7c0.4,0,0.7,0.3,0.7,0.7c0,0.4-0.3,0.7-0.7,0.7C224,43,223.6,42.7,223.6,42.2z"/>
	<path d="M227.9,41.7h-2.2v-0.8l1.9-3.1h1.4v3h0.6v0.9H229v1.2h-1.1V41.7z M227.9,40.8V40c0-0.3,0-0.8,0-1.1h0
		c-0.1,0.3-0.3,0.6-0.4,0.9l-0.7,1.1H227.9z"/>
	<path d="M232.4,38.8h-2.3v-1h3.5v0.7c-1.2,1.4-1.3,2.4-1.4,4.4h-1.2C231.2,41.2,231.5,40.1,232.4,38.8z"/>
</g>
<g>
	<path d="M217.3,59.5c1.7-1.7,2.5-2.7,2.5-3.5c0-0.6-0.3-1.1-1.1-1.1c-0.5,0-0.9,0.3-1.2,0.7l-0.2-0.2c0.4-0.4,0.8-0.8,1.5-0.8
		c0.9,0,1.4,0.6,1.4,1.4c0,1-0.9,2-2.3,3.5c0.3,0,0.6,0,0.9,0h1.7v0.3h-3.1V59.5z"/>
	<path d="M221.1,57.2c0-1.7,0.6-2.6,1.5-2.6s1.5,0.9,1.5,2.6c0,1.7-0.6,2.7-1.5,2.7S221.1,58.9,221.1,57.2z M223.8,57.2
		c0-1.6-0.5-2.3-1.2-2.3c-0.7,0-1.2,0.8-1.2,2.3c0,1.6,0.5,2.4,1.2,2.4C223.4,59.5,223.8,58.7,223.8,57.2z"/>
	<path d="M225.1,59.5c0-0.2,0.2-0.4,0.3-0.4c0.2,0,0.3,0.1,0.3,0.4c0,0.2-0.2,0.4-0.3,0.4C225.3,59.8,225.1,59.7,225.1,59.5z"/>
	<path d="M226.6,59.1l0.2-0.2c0.3,0.3,0.7,0.6,1.4,0.6c0.7,0,1.3-0.6,1.3-1.4c0-0.8-0.5-1.3-1.2-1.3c-0.4,0-0.6,0.1-1,0.3L227,57
		l0.2-2.4h2.4v0.3h-2l-0.2,1.8c0.3-0.2,0.5-0.3,0.9-0.3c0.9,0,1.6,0.5,1.6,1.6c0,1.1-0.8,1.7-1.6,1.7
		C227.3,59.8,226.9,59.5,226.6,59.1z"/>
	<path d="M230.5,59.5c1.7-1.7,2.5-2.7,2.5-3.5c0-0.6-0.3-1.1-1.1-1.1c-0.5,0-0.9,0.3-1.2,0.7l-0.2-0.2c0.4-0.4,0.8-0.8,1.5-0.8
		c0.9,0,1.4,0.6,1.4,1.4c0,1-0.9,2-2.3,3.5c0.3,0,0.6,0,0.9,0h1.7v0.3h-3.1V59.5z"/>
</g>
<g>
	<path d="M217.3,76.3c1.7-1.7,2.5-2.7,2.5-3.5c0-0.6-0.3-1.1-1.1-1.1c-0.5,0-0.9,0.3-1.2,0.7l-0.2-0.2c0.4-0.4,0.8-0.8,1.5-0.8
		c0.9,0,1.4,0.6,1.4,1.4c0,1-0.9,2-2.3,3.5c0.3,0,0.6,0,0.9,0h1.7v0.3h-3.1V76.3z"/>
	<path d="M221.1,76.3c1.7-1.7,2.5-2.7,2.5-3.5c0-0.6-0.3-1.1-1.1-1.1c-0.5,0-0.9,0.3-1.2,0.7l-0.2-0.2c0.4-0.4,0.8-0.8,1.5-0.8
		c0.9,0,1.4,0.6,1.4,1.4c0,1-0.9,2-2.3,3.5c0.3,0,0.6,0,0.9,0h1.7v0.3h-3.1V76.3z"/>
	<path d="M225.1,76.3c0-0.2,0.2-0.4,0.3-0.4c0.2,0,0.3,0.1,0.3,0.4c0,0.2-0.2,0.4-0.3,0.4C225.3,76.7,225.1,76.5,225.1,76.3z"/>
	<path d="M226.8,74.3c0-2.1,0.9-2.9,1.9-2.9c0.5,0,0.8,0.2,1.1,0.5l-0.2,0.2c-0.2-0.3-0.5-0.4-0.9-0.4c-0.8,0-1.5,0.7-1.5,2.5
		c0.4-0.4,0.8-0.7,1.3-0.7c0.9,0,1.4,0.6,1.4,1.6c0,0.9-0.6,1.6-1.4,1.6C227.4,76.7,226.8,75.8,226.8,74.3z M227.1,74.6
		c0.1,1.1,0.5,1.8,1.3,1.8c0.6,0,1-0.6,1-1.3c0-0.7-0.3-1.3-1.1-1.3C228,73.8,227.5,74,227.1,74.6z"/>
	<path d="M230.9,76.3h1.2V72h-0.9v-0.2c0.4-0.1,0.7-0.2,1-0.3h0.3v4.8h1.1v0.3h-2.7V76.3z"/>
</g>
<g>
	<path d="M9,37.7h3.3v1h-2.1v1.2h1.8v1h-1.8v2H9V37.7z"/>
	<path d="M13.9,41l-1.6-3.4h1.3l0.5,1.2c0.1,0.4,0.3,0.8,0.4,1.2h0c0.2-0.4,0.3-0.8,0.4-1.2l0.5-1.2h1.2L15.1,41v1.9h-1.2V41z"/>
	<path d="M18.5,42.2c1.3-1.2,2.2-2.1,2.2-2.8c0-0.5-0.3-0.8-0.7-0.8c-0.4,0-0.6,0.2-0.9,0.5l-0.6-0.6c0.5-0.5,1-0.8,1.7-0.8
		c1,0,1.7,0.6,1.7,1.6c0,0.9-0.8,1.8-1.6,2.6c0.3,0,0.6-0.1,0.8-0.1h1v1h-3.6V42.2z"/>
	<path d="M22.8,40.3c0-1.7,0.7-2.6,1.8-2.6c1.1,0,1.8,0.9,1.8,2.6S25.7,43,24.6,43C23.5,43,22.8,42.1,22.8,40.3z M25.3,40.3
		c0-1.4-0.3-1.7-0.7-1.7c-0.4,0-0.7,0.3-0.7,1.7c0,1.4,0.3,1.7,0.7,1.7C25,42.1,25.3,41.7,25.3,40.3z"/>
	<path d="M27.2,41.9h1.1V39h-1v-0.7c0.6-0.1,0.9-0.2,1.3-0.5h0.9v4.1h1v1h-3.2V41.9z"/>
	<path d="M31.2,42.4l0.6-0.7c0.2,0.2,0.5,0.4,0.8,0.4c0.6,0,1-0.4,1-1.6c-0.3,0.3-0.7,0.5-1,0.5c-0.9,0-1.5-0.5-1.5-1.6
		c0-1.1,0.8-1.7,1.7-1.7c1,0,1.9,0.7,1.9,2.5c0,1.9-1,2.8-2.1,2.8C32.1,43,31.6,42.7,31.2,42.4z M32.9,40.2c0.3,0,0.6-0.1,0.8-0.5
		c-0.1-0.8-0.4-1.1-0.8-1.1c-0.3,0-0.6,0.2-0.6,0.8C32.2,40,32.5,40.2,32.9,40.2z"/>
</g>
<g>
	<path d="M11.5,54.5h2.9v0.3h-2.5v2.1H14v0.3h-2.1v2.5h-0.4V54.5z"/>
	<path d="M16.2,57.6l-1.6-3.1H15l0.8,1.6c0.2,0.4,0.4,0.8,0.6,1.1h0c0.2-0.4,0.4-0.8,0.6-1.1l0.8-1.6h0.4l-1.6,3.1v2.1h-0.4V57.6z"
		/>
	<path d="M20.1,59.5c1.7-1.7,2.5-2.7,2.5-3.5c0-0.6-0.3-1.1-1.1-1.1c-0.5,0-0.9,0.3-1.2,0.7l-0.2-0.2c0.4-0.4,0.8-0.8,1.5-0.8
		c0.9,0,1.4,0.6,1.4,1.4c0,1-0.9,2-2.3,3.5c0.3,0,0.6,0,0.9,0h1.7v0.3h-3.1V59.5z"/>
	<path d="M24,57.2c0-1.7,0.6-2.6,1.5-2.6s1.5,0.9,1.5,2.6c0,1.7-0.6,2.7-1.5,2.7S24,58.9,24,57.2z M26.7,57.2c0-1.6-0.5-2.3-1.2-2.3
		c-0.7,0-1.2,0.8-1.2,2.3c0,1.6,0.5,2.4,1.2,2.4C26.2,59.5,26.7,58.7,26.7,57.2z"/>
	<path d="M28.1,59.4h1.2v-4.2h-0.9v-0.2c0.4-0.1,0.7-0.2,1-0.3h0.3v4.8h1.1v0.3h-2.7V59.4z"/>
	<path d="M31.6,58.4c0-0.7,0.5-1.2,1-1.4v0c-0.4-0.2-0.7-0.6-0.7-1.2c0-0.7,0.6-1.2,1.3-1.2c0.9,0,1.4,0.6,1.4,1.3
		c0,0.6-0.4,1.1-0.7,1.3v0c0.4,0.3,0.9,0.6,0.9,1.3c0,0.7-0.6,1.3-1.6,1.3C32.3,59.8,31.6,59.2,31.6,58.4z M34.4,58.5
		c0-0.8-0.8-1.1-1.6-1.4c-0.5,0.3-0.9,0.7-0.9,1.3c0,0.6,0.5,1.1,1.3,1.1C33.9,59.5,34.4,59.1,34.4,58.5z M34.3,55.9
		c0-0.6-0.4-1-1-1c-0.6,0-1,0.4-1,1c0,0.7,0.7,1,1.4,1.3C34,56.7,34.3,56.3,34.3,55.9z"/>
</g>
<g>
	<path d="M11.5,71.3h2.9v0.3h-2.5v2.1H14V74h-2.1v2.5h-0.4V71.3z"/>
	<path d="M16.2,74.4l-1.6-3.1H15l0.8,1.6c0.2,0.4,0.4,0.8,0.6,1.1h0c0.2-0.4,0.4-0.8,0.6-1.1l0.8-1.6h0.4l-1.6,3.1v2.1h-0.4V74.4z"
		/>
	<path d="M20.1,76.3c1.7-1.7,2.5-2.7,2.5-3.5c0-0.6-0.3-1.1-1.1-1.1c-0.5,0-0.9,0.3-1.2,0.7l-0.2-0.2c0.4-0.4,0.8-0.8,1.5-0.8
		c0.9,0,1.4,0.6,1.4,1.4c0,1-0.9,2-2.3,3.5c0.3,0,0.6,0,0.9,0h1.7v0.3h-3.1V76.3z"/>
	<path d="M24,74c0-1.7,0.6-2.6,1.5-2.6s1.5,0.9,1.5,2.6c0,1.7-0.6,2.7-1.5,2.7S24,75.7,24,74z M26.7,74c0-1.6-0.5-2.3-1.2-2.3
		c-0.7,0-1.2,0.8-1.2,2.3c0,1.6,0.5,2.4,1.2,2.4C26.2,76.4,26.7,75.6,26.7,74z"/>
	<path d="M28.1,76.3h1.2V72h-0.9v-0.2c0.4-0.1,0.7-0.2,1-0.3h0.3v4.8h1.1v0.3h-2.7V76.3z"/>
	<path d="M34.3,71.8h-2.7v-0.3h3.1v0.2c-1.2,1.6-1.5,2.9-1.6,4.9h-0.4C32.9,74.5,33.3,73.2,34.3,71.8z"/>
</g>
<rect x="39.4" y="69.1" class="st1" width="165.8" height="8.9"/>
<rect x="39.4" y="52.3" class="st1" width="120.7" height="8.9"/>
<rect x="39.4" y="35.4" class="st2" width="118.4" height="8.9"/>
</svg>
