<?xml version="1.0" encoding="utf-8"?>
<!-- Generator: Adobe Illustrator 23.0.3, SVG Export Plug-In . SVG Version: 6.00 Build 0)  -->
<svg version="1.1" id="Layer_1" xmlns="http://www.w3.org/2000/svg" xmlns:xlink="http://www.w3.org/1999/xlink" x="0px" y="0px"
	 viewBox="0 0 242.1 115.4" style="enable-background:new 0 0 242.1 115.4;" xml:space="preserve">
<style type="text/css">
	.st0{enable-background:new    ;}
	.st1{fill:none;stroke:#000000;stroke-width:0.25;}
	.st2{fill:#55371E;}
	.st3{fill:#ABD693;}
</style>
<g>
	<g class="st0">
		<path d="M0.5,4.6c0-2.2,1.4-3.4,3.1-3.4c0.8,0,1.5,0.4,2,0.8L4.8,2.9C4.5,2.6,4.1,2.4,3.7,2.4c-0.9,0-1.6,0.8-1.6,2.1
			s0.6,2.1,1.6,2.1C4.2,6.6,4.6,6.3,5,6l0.8,0.9c-0.5,0.6-1.3,1-2.1,1C1.9,7.9,0.5,6.7,0.5,4.6z"/>
		<path d="M7.8,1.3h1.8l2,6.5H10L9.6,6.3h-2L7.2,7.8H5.7L7.8,1.3z M8,5.1h1.4L9.2,4.5C9,3.8,8.8,3.1,8.7,2.4l0,0
			C8.5,3.1,8.3,3.8,8.2,4.5L8,5.1z"/>
		<path d="M11.9,7l0.8-1c0.5,0.4,1.1,0.7,1.6,0.7c0.6,0,0.9-0.2,0.9-0.6c0-0.4-0.4-0.5-0.9-0.8l-0.8-0.4c-0.7-0.3-1.3-0.9-1.3-1.8
			c0-1.1,1-2,2.3-2c0.8,0,1.5,0.3,2.1,0.9l-0.8,0.9c-0.4-0.3-0.8-0.5-1.3-0.5S13.7,2.6,13.7,3c0,0.4,0.4,0.5,1,0.8l0.8,0.3
			c0.8,0.3,1.3,0.8,1.3,1.8c0,1.1-0.9,2-2.5,2C13.5,7.9,12.6,7.6,11.9,7z"/>
		<path d="M17.9,1.3h1.5v2.5h2.2V1.3h1.5v6.5h-1.5V5.1h-2.2v2.7h-1.5V1.3z"/>
		<path d="M26.1,6c0-0.9,0.5-1.4,1.2-1.8c-0.3-0.5-0.4-0.9-0.4-1.3c0-0.9,0.7-1.7,1.8-1.7c1,0,1.6,0.6,1.6,1.5
			c0,0.8-0.7,1.4-1.4,1.8c0.4,0.4,0.8,0.8,1.3,1.2c0.3-0.4,0.6-0.9,0.8-1.6h1.3c-0.2,0.8-0.6,1.5-1.1,2.2c0.4,0.2,0.8,0.4,1.1,0.4
			L32,7.9c-0.5-0.1-1.1-0.3-1.7-0.7c-0.5,0.4-1.2,0.7-2,0.7C26.9,7.9,26.1,7,26.1,6z M28.5,6.8c0.3,0,0.5-0.1,0.8-0.3
			c-0.5-0.4-1-0.9-1.3-1.3c-0.3,0.2-0.4,0.5-0.4,0.8C27.5,6.4,27.9,6.8,28.5,6.8z M28.3,3.6c0.5-0.3,0.9-0.5,0.9-1
			c0-0.3-0.2-0.5-0.5-0.5s-0.6,0.3-0.6,0.7C28.1,3.1,28.2,3.3,28.3,3.6z"/>
		<path d="M35.3,1.3h4.1v1.2h-2.6v1.3H39V5h-2.2v1.5h2.7v1.2h-4.2V1.3z"/>
		<path d="M42.8,7.8c-1.4-0.3-2.3-1.5-2.3-3.3c0-2.1,1.2-3.3,3-3.3s3,1.2,3,3.3c0,1.7-0.8,2.9-2.1,3.3c0.3,0.5,0.9,0.6,1.4,0.6
			c0.3,0,0.5,0,0.7-0.1l0.3,1.1c-0.2,0.1-0.6,0.2-1.1,0.2C44.2,9.6,43.2,8.8,42.8,7.8z M44.9,4.5c0-1.3-0.6-2.1-1.4-2.1
			c-0.9,0-1.4,0.8-1.4,2.1c0,1.4,0.6,2.2,1.4,2.2C44.3,6.7,44.9,5.9,44.9,4.5z"/>
		<path d="M47.6,4.8V1.3h1.5v3.6c0,1.3,0.4,1.7,1.1,1.7c0.7,0,1.1-0.4,1.1-1.7V1.3h1.4v3.5c0,2.2-0.9,3.1-2.6,3.1
			C48.5,7.9,47.6,6.9,47.6,4.8z"/>
		<path d="M54.3,1.3h1.5v6.5h-1.5V1.3z"/>
	</g>
	<g class="st0">
		<path d="M56.5,1.3h1.6l0.8,3c0.2,0.7,0.3,1.4,0.5,2.1l0,0c0.2-0.7,0.3-1.4,0.5-2.1l0.8-3h1.5l-2,6.5h-1.8L56.5,1.3z"/>
	</g>
	<g class="st0">
		<path d="M63.9,1.3h1.8l2,6.5h-1.5l-0.4-1.5h-2l-0.4,1.5h-1.5L63.9,1.3z M64.1,5.1h1.4l-0.1-0.6c-0.2-0.7-0.4-1.4-0.5-2.1l0,0
			c-0.3,0.7-0.5,1.4-0.7,2.1L64.1,5.1z"/>
		<path d="M68.4,1.3h1.5v5.3h2.6v1.2h-4L68.4,1.3L68.4,1.3z"/>
		<path d="M73.6,1.3h4.1v1.2h-2.6v1.3h2.2V5h-2.2v1.5h2.7v1.2h-4.2V1.3z"/>
		<path d="M79.1,1.3h1.5l1.7,3.2l0.6,1.4l0,0c-0.1-0.7-0.2-1.6-0.2-2.4V1.3h1.5v6.5h-1.5L81,4.6l-0.6-1.5l0,0
			c0.1,0.7,0.2,1.6,0.2,2.4v2.3h-1.4L79.1,1.3L79.1,1.3z"/>
	</g>
	<g class="st0">
		<path d="M87,2.5h-1.8V1.3h5v1.2h-1.8v5.3h-1.5V2.5H87z"/>
	</g>
	<g class="st0">
		<path d="M90.6,7l0.8-1c0.5,0.4,1.1,0.7,1.6,0.7c0.6,0,0.9-0.2,0.9-0.6c0-0.4-0.4-0.5-0.9-0.8l-0.8-0.4c-0.7-0.3-1.3-0.8-1.3-1.8
			c0-1.1,1-1.9,2.3-1.9c0.7,0,1.5,0.3,2.1,0.9L94.6,3c-0.4-0.3-0.8-0.5-1.3-0.5s-0.8,0.2-0.8,0.6c0,0.4,0.4,0.5,1,0.8l0.7,0.2
			c0.8,0.3,1.3,0.8,1.3,1.8c0,1.1-0.9,2-2.5,2C92.1,7.9,91.2,7.6,90.6,7z"/>
	</g>
	<g class="st0">
		<path d="M96.6,3.8l0.6-1l-1.1-0.5l0.2-0.7l1.2,0.2l0.1-1.2h0.8l0.1,1.2l1.1-0.3l0.2,0.7l-1.1,0.5l0.6,1l-0.6,0.4l-0.8-0.9
			l-0.8,0.9L96.6,3.8z"/>
		<path d="M101.1,3.8l0.6-1l-1.1-0.5l0.2-0.7l1.2,0.2l0.1-1.2h0.8l0.1,1.2l1.1-0.3l0.2,0.7l-1.1,0.5l0.6,1l-0.6,0.4l-0.8-0.9
			l-0.8,0.9L101.1,3.8z"/>
	</g>
	<g class="st0">
		<path d="M0.6,14c0-1.1,0.3-2.1,0.9-2.9l0.2,0.1C1.2,12,0.9,13,0.9,14s0.3,2,0.8,2.8l-0.2,0.1C0.9,16,0.6,15.1,0.6,14z"/>
		<path d="M2.3,13.7h0.5c0.8,0,1.2-0.3,1.2-0.9H2.3v-0.2h0.4h1.2c-0.1-0.5-0.5-0.7-1.2-0.7H2.2v-0.2h2.4v0.2h-1
			c0.3,0.1,0.5,0.4,0.5,0.7h0.4v0.2H4.1c0,0.7-0.5,1.1-1.1,1.2l1.3,1.8H3.9L2.6,14H2.1v-0.3H2.3z"/>
		<path d="M6.8,11.6c0-0.1,0.1-0.3,0.2-0.3c0.1,0,0.2,0.1,0.2,0.3c0,0.2-0.1,0.3-0.2,0.3C6.9,11.9,6.8,11.8,6.8,11.6z M6.9,12.7h0.3
			v3.1H6.9V12.7z"/>
		<path d="M8.3,12.7h0.2v0.5l0,0c0.3-0.3,0.6-0.6,1.1-0.6c0.6,0,0.9,0.4,0.9,1.2v2h-0.3v-2c0-0.7-0.2-1-0.7-1c-0.4,0-0.6,0.2-1,0.6
			v2.4H8.2L8.3,12.7L8.3,12.7z"/>
		<path d="M12.9,13.6c0-1.4,0.7-2.2,1.8-2.2c0.5,0,0.9,0.2,1.1,0.5l-0.2,0.2c-0.2-0.3-0.5-0.4-0.9-0.4c-0.9,0-1.5,0.7-1.5,1.9
			s0.6,2,1.5,2c0.4,0,0.8-0.2,1.1-0.5l0.2,0.2c-0.3,0.4-0.7,0.6-1.3,0.6C13.6,15.9,12.9,15,12.9,13.6z"/>
	</g>
	<g class="st0">
		<path d="M16.7,12.7h0.2v0.6l0,0c0.2-0.4,0.5-0.7,0.9-0.7c0.1,0,0.2,0,0.3,0.1l0.1,0.2c-0.1,0-0.2-0.1-0.3-0.1
			c-0.3,0-0.6,0.2-0.9,0.8v2.1h-0.3C16.7,15.7,16.7,12.7,16.7,12.7z"/>
	</g>
	<g class="st0">
		<path d="M18.5,14.2c0-1,0.7-1.6,1.4-1.6c0.8,0,1.4,0.6,1.4,1.6s-0.6,1.6-1.4,1.6C19.1,15.9,18.5,15.3,18.5,14.2z M21,14.2
			c0-0.8-0.5-1.4-1.1-1.4c-0.6,0-1.1,0.6-1.1,1.4s0.5,1.4,1.1,1.4C20.5,15.6,21,15,21,14.2z"/>
	</g>
	<g class="st0">
		<path d="M22.2,12.7h0.2v0.6l0,0c0.2-0.4,0.5-0.7,0.9-0.7c0.1,0,0.2,0,0.3,0.1L23.5,13c-0.1,0-0.2-0.1-0.3-0.1
			c-0.3,0-0.6,0.2-0.9,0.8v2.1h-0.1V12.7z"/>
	</g>
	<g class="st0">
		<path d="M24,14.2c0-1,0.7-1.6,1.4-1.6s1.2,0.5,1.2,1.4c0,0.1,0,0.2,0,0.2h-2.2c0,0.8,0.5,1.4,1.2,1.4c0.3,0,0.6-0.1,0.8-0.3
			l0.1,0.2c-0.2,0.1-0.5,0.3-1,0.3C24.6,15.9,24,15.2,24,14.2z M26.3,14c0-0.8-0.4-1.2-0.9-1.2s-1,0.4-1.1,1.2H26.3z"/>
		<path d="M27,16.8c0.5-0.8,0.8-1.8,0.8-2.8s-0.3-2-0.8-2.8l0.2-0.1c0.5,0.9,0.9,1.8,0.9,2.9s-0.3,2.1-0.9,2.9L27,16.8z"/>
	</g>
	<line class="st1" x1="0" y1="24.3" x2="242.1" y2="24.3"/>
	<line class="st1" x1="0" y1="114.7" x2="242.1" y2="114.7"/>
	<g class="st0">
		<path d="M217.2,36.8h1.1v-2.9h-1v-0.8c0.6-0.1,0.9-0.2,1.3-0.5h0.9v4.1h1v1h-3.3V36.8z"/>
		<path d="M221.2,35.3c0-1.9,1-2.8,2.1-2.8c0.7,0,1.2,0.3,1.5,0.6l-0.6,0.7c-0.2-0.2-0.5-0.4-0.8-0.4c-0.6,0-1,0.4-1,1.6
			c0.3-0.3,0.7-0.5,1-0.5c0.9,0,1.5,0.5,1.5,1.6s-0.8,1.7-1.7,1.7C222.1,37.8,221.2,37.1,221.2,35.3z M222.3,35.9
			c0.1,0.8,0.4,1.1,0.8,1.1c0.4,0,0.6-0.2,0.6-0.8c0-0.5-0.3-0.7-0.7-0.7C222.8,35.4,222.5,35.5,222.3,35.9z"/>
		<path d="M225.4,38.7c0.6-0.2,0.9-0.6,0.9-1c0,0,0,0-0.1,0c-0.4,0-0.7-0.2-0.7-0.7c0-0.4,0.3-0.7,0.7-0.7c0.5,0,0.8,0.4,0.8,1.1
			c0,0.9-0.5,1.5-1.4,1.8L225.4,38.7z"/>
		<path d="M227.8,37.2l0.6-0.7c0.2,0.2,0.5,0.4,0.8,0.4c0.6,0,1-0.4,1-1.6c-0.3,0.3-0.7,0.5-1,0.5c-0.9,0-1.5-0.5-1.5-1.6
			s0.8-1.7,1.7-1.7c1,0,1.9,0.7,1.9,2.5c0,1.9-1,2.8-2.1,2.8C228.6,37.8,228.1,37.5,227.8,37.2z M229.5,35c0.3,0,0.6-0.1,0.8-0.5
			c-0.1-0.8-0.4-1.1-0.8-1.1c-0.3,0-0.6,0.2-0.6,0.8C228.8,34.8,229.1,35,229.5,35z"/>
		<path d="M231.9,37.1l0.5-0.7c0.3,0.3,0.7,0.5,1.1,0.5c0.5,0,0.9-0.3,0.9-0.8s-0.3-0.8-0.8-0.8c-0.3,0-0.4,0.1-0.8,0.3l-0.5-0.3
			l0.1-2.6h2.9v1h-1.9l-0.1,1c0.2-0.1,0.4-0.1,0.6-0.1c0.9,0,1.6,0.5,1.6,1.6s-0.9,1.8-1.9,1.8C232.8,37.8,232.3,37.5,231.9,37.1z"
			/>
		<path d="M236.2,37.1c1.3-1.2,2.2-2.1,2.2-2.8c0-0.5-0.3-0.8-0.7-0.8s-0.6,0.2-0.9,0.5l-0.6-0.6c0.5-0.5,1-0.8,1.7-0.8
			c1,0,1.7,0.6,1.7,1.6c0,0.9-0.8,1.8-1.6,2.6c0.3,0,0.6-0.1,0.8-0.1h1v1h-3.6V37.1z"/>
	</g>
	<g class="st0">
		<path d="M210.1,54.4c1.7-1.7,2.5-2.7,2.5-3.5c0-0.6-0.3-1.1-1.1-1.1c-0.5,0-0.9,0.3-1.2,0.7l-0.2-0.2c0.4-0.4,0.8-0.8,1.5-0.8
			c0.9,0,1.4,0.6,1.4,1.4c0,1-0.9,2-2.3,3.5c0.3,0,0.6,0,0.9,0h1.7v0.3h-3.1L210.1,54.4L210.1,54.4z"/>
		<path d="M214,52c0-1.7,0.6-2.6,1.5-2.6c1,0,1.5,0.9,1.5,2.6c0,1.7-0.6,2.7-1.5,2.7C214.5,54.7,214,53.7,214,52z M216.7,52
			c0-1.6-0.5-2.3-1.2-2.3s-1.2,0.8-1.2,2.3c0,1.6,0.5,2.4,1.2,2.4C216.2,54.4,216.7,53.6,216.7,52z"/>
		<path d="M217.8,55.6c0.4-0.2,0.6-0.5,0.6-1h-0.1c-0.2,0-0.3-0.1-0.3-0.3s0.2-0.3,0.3-0.3c0.2,0,0.4,0.2,0.4,0.6
			c0,0.6-0.3,1-0.8,1.3L217.8,55.6z"/>
		<path d="M219.4,53.9l0.2-0.2c0.3,0.3,0.7,0.7,1.4,0.7s1.2-0.4,1.2-1.1c0-0.7-0.5-1.2-1.8-1.2v-0.3c1.2,0,1.6-0.5,1.6-1.1
			s-0.4-1-1-1c-0.5,0-0.9,0.2-1.2,0.6l-0.2-0.2c0.4-0.3,0.8-0.6,1.4-0.6c0.8,0,1.4,0.4,1.4,1.2c0,0.7-0.4,1.1-1,1.3l0,0
			c0.6,0.1,1.2,0.6,1.2,1.3c0,0.9-0.7,1.4-1.6,1.4C220.2,54.7,219.7,54.3,219.4,53.9z"/>
		<path d="M223.4,54.2l0.2-0.2c0.2,0.3,0.5,0.4,0.9,0.4c0.8,0,1.5-0.7,1.5-2.5c-0.4,0.4-0.8,0.7-1.3,0.7c-0.9,0-1.4-0.6-1.4-1.6
			c0-0.9,0.6-1.6,1.4-1.6c1,0,1.7,0.9,1.7,2.4c0,2.1-0.9,2.9-1.9,2.9C224,54.7,223.7,54.5,223.4,54.2z M224.8,52.2
			c0.4,0,0.8-0.2,1.2-0.8c-0.1-1.1-0.5-1.8-1.3-1.8c-0.6,0-1,0.6-1,1.3C223.7,51.7,224,52.2,224.8,52.2z"/>
		<path d="M227,54l0.2-0.2c0.3,0.3,0.7,0.6,1.4,0.6s1.3-0.6,1.3-1.4c0-0.8-0.5-1.3-1.2-1.3c-0.4,0-0.6,0.1-1,0.3l-0.2-0.2l0.2-2.4
			h2.4v0.3h-2l-0.2,1.8c0.3-0.2,0.5-0.3,0.9-0.3c0.9,0,1.6,0.5,1.6,1.6s-0.8,1.7-1.6,1.7C227.8,54.7,227.4,54.3,227,54z"/>
		<path d="M231.5,50.7l0.4-0.7l-0.7-0.3l0.1-0.2l0.8,0.2l0.1-0.8h0.3l0.1,0.8l0.8-0.2l0.1,0.2l-0.7,0.3l0.4,0.7l-0.2,0.2l-0.5-0.7
			l-0.5,0.7L231.5,50.7z"/>
		<path d="M234.7,50.7l0.4-0.7l-0.7-0.3l0.1-0.2l0.8,0.2l0.1-0.8h0.3l0.1,0.8l0.8-0.2l0.1,0.2L236,50l0.4,0.7l-0.2,0.2l-0.5-0.7
			l-0.5,0.7L234.7,50.7z"/>
		<path d="M237.8,50.7l0.4-0.7l-0.7-0.3l0.1-0.2l0.8,0.2l0.1-0.8h0.3l0.1,0.8l0.8-0.2l0.1,0.2l-0.7,0.3l0.4,0.7l-0.2,0.2l-0.5-0.7
			l-0.5,0.7L237.8,50.7z"/>
	</g>
	<g class="st0">
		<path d="M210.4,71.1h1.2v-4.2h-0.9v-0.2c0.4-0.1,0.7-0.2,1-0.3h0.3v4.7h1.1v0.3h-2.7L210.4,71.1L210.4,71.1z"/>
		<path d="M214,69.1c0-2.1,0.9-2.9,1.9-2.9c0.5,0,0.8,0.2,1.1,0.5l-0.2,0.2c-0.2-0.3-0.5-0.4-0.9-0.4c-0.8,0-1.5,0.7-1.5,2.5
			c0.4-0.4,0.8-0.7,1.3-0.7c0.9,0,1.4,0.6,1.4,1.6c0,0.9-0.6,1.6-1.4,1.6C214.6,71.5,214,70.6,214,69.1z M214.4,69.4
			c0.1,1.1,0.5,1.8,1.3,1.8c0.6,0,1-0.6,1-1.3s-0.3-1.3-1.1-1.3C215.2,68.6,214.8,68.8,214.4,69.4z"/>
		<path d="M217.8,72.4c0.4-0.2,0.6-0.5,0.6-1h-0.1c-0.2,0-0.3-0.1-0.3-0.3s0.2-0.3,0.3-0.3c0.2,0,0.4,0.2,0.4,0.6
			c0,0.6-0.3,1-0.8,1.3L217.8,72.4z"/>
		<path d="M219.5,68.8c0-1.7,0.6-2.6,1.5-2.6c1,0,1.5,0.9,1.5,2.6s-0.6,2.7-1.5,2.7C220.1,71.5,219.5,70.5,219.5,68.8z M222.2,68.8
			c0-1.6-0.5-2.3-1.2-2.3s-1.2,0.8-1.2,2.3c0,1.6,0.5,2.4,1.2,2.4C221.8,71.2,222.2,70.4,222.2,68.8z"/>
		<path d="M223.4,69.1c0-2.1,0.9-2.9,1.9-2.9c0.5,0,0.8,0.2,1.1,0.5l-0.2,0.2c-0.2-0.3-0.5-0.4-0.9-0.4c-0.8,0-1.5,0.7-1.5,2.5
			c0.4-0.4,0.8-0.7,1.3-0.7c0.9,0,1.4,0.6,1.4,1.6c0,0.9-0.6,1.6-1.4,1.6C224.1,71.5,223.4,70.6,223.4,69.1z M223.8,69.4
			c0.1,1.1,0.5,1.8,1.3,1.8c0.6,0,1-0.6,1-1.3s-0.3-1.3-1.1-1.3C224.7,68.6,224.2,68.8,223.8,69.4z"/>
		<path d="M227,70.8l0.2-0.2c0.3,0.3,0.7,0.6,1.4,0.6s1.3-0.6,1.3-1.4s-0.5-1.3-1.2-1.3c-0.4,0-0.6,0.1-1,0.3l-0.2-0.2l0.2-2.4h2.4
			v0.3h-2l-0.2,1.8c0.3-0.2,0.5-0.3,0.9-0.3c0.9,0,1.6,0.5,1.6,1.6s-0.8,1.7-1.6,1.7C227.8,71.5,227.4,71.2,227,70.8z"/>
		<path d="M231.5,67.6l0.4-0.7l-0.7-0.3l0.1-0.2l0.8,0.2l0.1-0.8h0.3l0.1,0.8l0.8-0.2l0.1,0.2l-0.7,0.3l0.4,0.7l-0.2,0.2l-0.8-0.7
			l-0.5,0.7L231.5,67.6z"/>
		<path d="M234.7,67.6l0.4-0.7l-0.7-0.3l0.1-0.2l0.8,0.2l0.1-0.8h0.3l0.1,0.8l0.8-0.2l0.1,0.2l-0.7,0.3l0.4,0.7l-0.2,0.2l-0.5-0.7
			l-0.5,0.7L234.7,67.6z"/>
		<path d="M237.8,67.6l0.4-0.7l-0.7-0.3l0.1-0.2l0.8,0.2l0.1-0.8h0.3l0.1,0.8l0.8-0.2l0.1,0.2l-0.7,0.3l0.4,0.7l-0.2,0.2l-0.5-0.7
			l-0.5,0.7L237.8,67.6z"/>
	</g>
	<g class="st0">
		<path d="M210,87.6l0.2-0.2c0.3,0.3,0.7,0.7,1.4,0.7s1.2-0.4,1.2-1.1s-0.5-1.2-1.8-1.2v-0.3c1.2,0,1.6-0.5,1.6-1.1s-0.4-1-1-1
			c-0.5,0-0.9,0.2-1.2,0.6l-0.2-0.2c0.4-0.3,0.8-0.6,1.4-0.6c0.8,0,1.4,0.4,1.4,1.2c0,0.7-0.4,1.1-1,1.3l0,0
			c0.6,0.1,1.2,0.6,1.2,1.3c0,0.9-0.7,1.4-1.6,1.4C210.8,88.4,210.3,88,210,87.6z"/>
		<path d="M213.8,87.7l0.2-0.2c0.3,0.3,0.7,0.6,1.4,0.6s1.3-0.6,1.3-1.4s-0.5-1.3-1.2-1.3c-0.4,0-0.6,0.1-1,0.3l-0.2-0.2l0.2-2.4
			h2.4v0.3h-2l-0.2,1.8c0.3-0.2,0.5-0.3,0.9-0.3c0.9,0,1.6,0.5,1.6,1.6s-0.8,1.7-1.6,1.7C214.6,88.4,214.1,88,213.8,87.7z"/>
		<path d="M217.8,89.3c0.4-0.2,0.6-0.5,0.6-1h-0.1c-0.2,0-0.3-0.1-0.3-0.3s0.2-0.3,0.3-0.3c0.2,0,0.4,0.2,0.4,0.6
			c0,0.6-0.3,1-0.8,1.3L217.8,89.3z"/>
		<path d="M219.5,88c1.7-1.7,2.5-2.7,2.5-3.5c0-0.6-0.3-1.1-1.1-1.1c-0.5,0-0.9,0.3-1.2,0.7l-0.2-0.2c0.4-0.4,0.8-0.8,1.5-0.8
			c0.9,0,1.4,0.6,1.4,1.4c0,1-0.9,2-2.3,3.5c0.3,0,0.6,0,0.9,0h1.7v0.3h-3.1L219.5,88L219.5,88z"/>
		<path d="M226,83.5h-2.7v-0.4h3.1v0.2c-1.2,1.6-1.5,2.9-1.6,4.9h-0.4C224.6,86.2,225,84.9,226,83.5z"/>
		<path d="M227.2,88c1.7-1.7,2.5-2.7,2.5-3.5c0-0.6-0.3-1.1-1.1-1.1c-0.5,0-0.9,0.3-1.2,0.7l-0.2-0.2c0.4-0.4,0.8-0.8,1.5-0.8
			c0.9,0,1.4,0.6,1.4,1.4c0,1-0.9,2-2.3,3.5c0.3,0,0.6,0,0.9,0h1.7v0.3h-3.2V88z"/>
		<path d="M231.5,84.4l0.4-0.7l-0.7-0.3l0.1-0.2l0.8,0.2l0.1-0.8h0.3l0.1,0.8l0.8-0.2l0.1,0.2l-0.7,0.3l0.4,0.7l-0.2,0.2l-0.5-0.7
			l-0.5,0.7L231.5,84.4z"/>
		<path d="M234.7,84.4l0.4-0.7l-0.7-0.3l0.1-0.2l0.8,0.2l0.1-0.8h0.3l0.1,0.8l0.8-0.2l0.1,0.2l-0.7,0.3l0.4,0.7l-0.2,0.2l-0.5-0.7
			l-0.5,0.7L234.7,84.4z"/>
		<path d="M237.8,84.4l0.4-0.7l-0.7-0.3l0.1-0.2l0.8,0.2l0.1-0.8h0.3l0.1,0.8l0.8-0.2l0.1,0.2l-0.7,0.3l0.4,0.7l-0.2,0.2l-0.5-0.7
			l-0.5,0.7L237.8,84.4z"/>
	</g>
	<g class="st0">
		<path d="M219.5,104.5l0.2-0.2c0.3,0.3,0.7,0.7,1.4,0.7s1.2-0.4,1.2-1.1s-0.5-1.2-1.8-1.2v-0.3c1.2,0,1.6-0.5,1.6-1.1s-0.4-1-1-1
			c-0.5,0-0.9,0.2-1.2,0.6l-0.2-0.2c0.4-0.3,0.8-0.6,1.4-0.6c0.8,0,1.4,0.4,1.4,1.2c0,0.7-0.4,1.1-1,1.3l0,0
			c0.6,0.1,1.2,0.6,1.2,1.3c0,0.9-0.7,1.4-1.6,1.4C220.3,105.2,219.8,104.8,219.5,104.5z"/>
		<path d="M223.4,102.5c0-1.7,0.6-2.6,1.5-2.6c1,0,1.5,0.9,1.5,2.6s-0.6,2.7-1.5,2.7S223.4,104.2,223.4,102.5z M226.1,102.5
			c0-1.6-0.5-2.3-1.2-2.3s-1.2,0.8-1.2,2.3c0,1.6,0.5,2.4,1.2,2.4C225.7,104.9,226.1,104.1,226.1,102.5z"/>
		<path d="M227.3,106.1c0.4-0.2,0.6-0.5,0.6-1h-0.1c-0.2,0-0.3-0.1-0.3-0.3s0.2-0.3,0.3-0.3c0.2,0,0.4,0.2,0.4,0.6
			c0,0.6-0.3,1-0.8,1.3L227.3,106.1z"/>
		<path d="M229,103.8c0-0.7,0.5-1.2,1-1.4l0,0c-0.4-0.2-0.7-0.6-0.7-1.2c0-0.7,0.6-1.2,1.3-1.2c0.9,0,1.4,0.6,1.4,1.3
			c0,0.6-0.4,1.1-0.7,1.3l0,0c0.4,0.3,0.9,0.6,0.9,1.3c0,0.7-0.6,1.3-1.6,1.3C229.6,105.2,229,104.6,229,103.8z M231.8,103.9
			c0-0.8-0.8-1.1-1.6-1.4c-0.5,0.3-0.9,0.7-0.9,1.3c0,0.6,0.5,1.1,1.3,1.1C231.3,104.9,231.8,104.4,231.8,103.9z M231.6,101.2
			c0-0.6-0.4-1-1-1s-1,0.4-1,1c0,0.7,0.7,1,1.4,1.3C231.4,102.1,231.6,101.7,231.6,101.2z"/>
		<path d="M232.9,104.7l0.2-0.2c0.2,0.3,0.5,0.4,0.9,0.4c0.8,0,1.5-0.7,1.5-2.5c-0.4,0.4-0.8,0.7-1.3,0.7c-0.9,0-1.4-0.6-1.4-1.6
			c0-0.9,0.6-1.6,1.4-1.6c1,0,1.7,0.9,1.7,2.4c0,2.1-0.9,2.9-1.9,2.9C233.5,105.2,233.2,105,232.9,104.7z M234.3,102.8
			c0.4,0,0.8-0.2,1.2-0.8c-0.1-1.1-0.5-1.8-1.3-1.8c-0.6,0-1,0.6-1,1.3S233.5,102.8,234.3,102.8z"/>
		<path d="M236.6,103.8c0-0.7,0.5-1.2,1-1.4l0,0c-0.4-0.2-0.7-0.6-0.7-1.2c0-0.7,0.6-1.2,1.3-1.2c0.9,0,1.4,0.6,1.4,1.3
			c0,0.6-0.4,1.1-0.7,1.3l0,0c0.4,0.3,0.9,0.6,0.9,1.3c0,0.7-0.6,1.3-1.6,1.3C237.3,105.2,236.6,104.6,236.6,103.8z M239.4,103.9
			c0-0.8-0.8-1.1-1.6-1.4c-0.5,0.3-0.9,0.7-0.9,1.3c0,0.6,0.5,1.1,1.3,1.1S239.4,104.4,239.4,103.9z M239.3,101.2c0-0.6-0.4-1-1-1
			s-1,0.4-1,1c0,0.7,0.7,1,1.4,1.3C239.1,102.1,239.3,101.7,239.3,101.2z"/>
	</g>
	<g class="st0">
		<path d="M3,32.5h3.3v1H4.2v1.2H6v1H4.2v2H3V32.5z"/>
	</g>
	<g class="st0">
		<path d="M8,35.9l-1.6-3.4h1.3l0.5,1.2c0.1,0.4,0.3,0.8,0.4,1.2l0,0c0.2-0.4,0.3-0.8,0.4-1.2l0.5-1.2h1.2l-1.5,3.4v1.9H8V35.9z"/>
		<path d="M12.6,37.1c1.3-1.2,2.2-2.1,2.2-2.8c0-0.5-0.3-0.8-0.7-0.8c-0.4,0-0.6,0.2-0.9,0.5l-0.6-0.6c0.5-0.5,1-0.8,1.7-0.8
			c1,0,1.7,0.6,1.7,1.6c0,0.9-0.8,1.8-1.6,2.6c0.3,0,0.6-0.1,0.8-0.1h1v1h-3.6V37.1z"/>
		<path d="M16.8,35.2c0-1.7,0.7-2.6,1.8-2.6s1.8,0.9,1.8,2.6s-0.7,2.7-1.8,2.7S16.8,36.9,16.8,35.2z M19.3,35.2
			c0-1.4-0.3-1.7-0.7-1.7c-0.4,0-0.7,0.3-0.7,1.7s0.3,1.7,0.7,1.7S19.3,36.6,19.3,35.2z"/>
		<path d="M21.3,36.8h1.1v-2.9h-1v-0.8c0.6-0.1,0.9-0.2,1.3-0.5h0.9v4.1h1v1h-3.2v-0.9H21.3z"/>
		<path d="M25.3,37.2l0.6-0.7c0.2,0.2,0.5,0.4,0.8,0.4c0.6,0,1-0.4,1-1.6c-0.3,0.3-0.7,0.5-1,0.5c-0.9,0-1.5-0.5-1.5-1.6
			s0.8-1.7,1.7-1.7c1,0,1.9,0.7,1.9,2.5c0,1.9-1,2.8-2.1,2.8C26.1,37.8,25.6,37.5,25.3,37.2z M27,35c0.3,0,0.6-0.1,0.8-0.5
			c-0.1-0.8-0.4-1.1-0.8-1.1c-0.3,0-0.6,0.2-0.6,0.8C26.3,34.8,26.6,35,27,35z"/>
	</g>
	<g class="st0">
		<path d="M5.5,49.3h2.9v0.3H5.9v2.1H8V52H5.9v2.5H5.5C5.5,54.5,5.5,49.3,5.5,49.3z"/>
	</g>
	<g class="st0">
		<path d="M10.2,52.4l-1.6-3.1H9l0.8,1.6c0.2,0.4,0.4,0.8,0.6,1.1l0,0c0.2-0.4,0.4-0.8,0.6-1.1l0.8-1.6h0.4l-1.6,3.1v2.1h-0.4V52.4z
			"/>
		<path d="M14.2,54.4c1.7-1.7,2.5-2.7,2.5-3.5c0-0.6-0.3-1.1-1.1-1.1c-0.5,0-0.9,0.3-1.2,0.7l-0.3-0.4c0.4-0.4,0.8-0.8,1.5-0.8
			c0.9,0,1.4,0.6,1.4,1.4c0,1-0.9,2-2.3,3.5c0.3,0,0.6,0,0.9,0h1.7v0.3h-3.1V54.4z"/>
		<path d="M18,52c0-1.7,0.6-2.6,1.5-2.6c1,0,1.5,0.9,1.5,2.6c0,1.7-0.6,2.7-1.5,2.7C18.6,54.7,18,53.7,18,52z M20.7,52
			c0-1.6-0.5-2.3-1.2-2.3s-1.2,0.8-1.2,2.3c0,1.6,0.5,2.4,1.2,2.4C20.3,54.4,20.7,53.6,20.7,52z"/>
		<path d="M22.2,54.3h1.2v-4.2h-0.9v-0.2c0.4-0.1,0.7-0.2,1-0.3h0.3v4.8h1.1v0.3h-2.7V54.3z"/>
		<path d="M25.6,53.3c0-0.7,0.5-1.2,1-1.4l0,0c-0.4-0.2-0.7-0.6-0.7-1.2c0-0.7,0.6-1.2,1.3-1.2c0.9,0,1.4,0.6,1.4,1.3
			c0,0.6-0.4,1.1-0.7,1.3l0,0c0.4,0.3,0.9,0.6,0.9,1.3s-0.6,1.3-1.6,1.3C26.3,54.7,25.6,54.1,25.6,53.3z M28.5,53.3
			c0-0.8-0.8-1.1-1.6-1.4c-0.5,0.3-0.9,0.7-0.9,1.3s0.5,1.1,1.3,1.1C28,54.4,28.5,53.9,28.5,53.3z M28.3,50.7c0-0.6-0.4-1-1-1
			s-1,0.4-1,1c0,0.7,0.7,1,1.4,1.3C28.1,51.5,28.3,51.2,28.3,50.7z"/>
	</g>
	<g class="st0">
		<path d="M5.5,66.1h2.9v0.3H5.9v2.1H8v0.3H5.9v2.5H5.5C5.5,71.3,5.5,66.1,5.5,66.1z"/>
	</g>
	<g class="st0">
		<path d="M10.2,69.3l-1.5-3.2h0.4l0.8,1.6c0.2,0.4,0.4,0.8,0.6,1.1l0,0c0.2-0.4,0.4-0.8,0.6-1.1l0.8-1.6h0.3l-1.6,3.1v2.1h-0.4
			V69.3z"/>
		<path d="M14.2,71.2c1.7-1.7,2.5-2.7,2.5-3.5c0-0.6-0.3-1.1-1.1-1.1c-0.5,0-0.9,0.3-1.2,0.7l-0.2-0.2c0.4-0.4,0.8-0.8,1.5-0.8
			c0.9,0,1.4,0.6,1.4,1.4c0,1-0.9,2-2.3,3.5c0.3,0,0.6,0,0.9,0h1.7v0.3h-3.2V71.2z"/>
		<path d="M18,68.8c0-1.7,0.6-2.6,1.5-2.6c1,0,1.5,0.9,1.5,2.6s-0.6,2.7-1.5,2.7C18.6,71.5,18,70.5,18,68.8z M20.7,68.8
			c0-1.6-0.5-2.3-1.2-2.3s-1.2,0.8-1.2,2.3c0,1.6,0.5,2.4,1.2,2.4C20.3,71.2,20.7,70.4,20.7,68.8z"/>
		<path d="M22.2,71.1h1.2v-4.2h-0.9v-0.2c0.4-0.1,0.7-0.2,1-0.3h0.3v4.7h1.1v0.3h-2.7V71.1z"/>
		<path d="M28.4,66.6h-2.7v-0.3h3.1v0.2c-1.2,1.6-1.5,2.9-1.6,4.9h-0.4C26.9,69.4,27.3,68.1,28.4,66.6z"/>
	</g>
	<g class="st0">
		<path d="M5.5,83h2.9v0.3H5.9v2.1H8v0.3H5.9v2.5H5.5C5.5,88.2,5.5,83,5.5,83z"/>
	</g>
	<g class="st0">
		<path d="M10.2,86.1L8.6,83H9l0.8,1.6c0.2,0.4,0.4,0.8,0.6,1.1l0,0c0.2-0.4,0.4-0.8,0.6-1.1l0.8-1.6h0.4l-1.6,3.1v2.1h-0.4V86.1z"
			/>
		<path d="M14.2,88c1.7-1.7,2.5-2.7,2.5-3.5c0-0.6-0.3-1.1-1.1-1.1c-0.5,0-0.9,0.3-1.2,0.7l-0.2-0.2c0.4-0.4,0.8-0.8,1.5-0.8
			c0.9,0,1.4,0.6,1.4,1.4c0,1-0.9,2-2.3,3.5c0.3,0,0.6,0,0.9,0h1.7v0.3h-3.2V88z"/>
		<path d="M18,85.7c0-1.7,0.6-2.6,1.5-2.6c1,0,1.5,0.9,1.5,2.6s-0.6,2.7-1.5,2.7C18.6,88.4,18,87.4,18,85.7z M20.7,85.7
			c0-1.6-0.5-2.3-1.2-2.3s-1.2,0.8-1.2,2.3c0,1.6,0.5,2.4,1.2,2.4C20.3,88,20.7,87.2,20.7,85.7z"/>
		<path d="M22.2,87.9h1.2v-4.2h-0.9v-0.2c0.4-0.1,0.7-0.2,1-0.3h0.3V88h1.1v0.3h-2.7V87.9z"/>
		<path d="M25.7,85.9c0-2.1,0.9-2.9,1.9-2.9c0.5,0,0.8,0.2,1.1,0.5l-0.2,0.2c-0.2-0.3-0.5-0.4-0.9-0.4c-0.8,0-1.5,0.7-1.5,2.5
			c0.4-0.4,0.8-0.7,1.3-0.7c0.9,0,1.4,0.6,1.4,1.6c0,0.9-0.6,1.6-1.4,1.6C26.4,88.4,25.7,87.5,25.7,85.9z M26.1,86.2
			c0.1,1.1,0.5,1.8,1.3,1.8c0.6,0,1-0.6,1-1.3s-0.3-1.3-1.1-1.3C27,85.5,26.5,85.7,26.1,86.2z"/>
	</g>
	<g class="st0">
		<path d="M5.5,99.8h2.9v0.3H5.9v2.1H8v0.3H5.9v2.5H5.5C5.5,105,5.5,99.8,5.5,99.8z"/>
	</g>
	<g class="st0">
		<path d="M10.2,103l-1.6-3.1H9l0.8,1.6c0.2,0.4,0.4,0.8,0.6,1.1l0,0c0.2-0.4,0.4-0.8,0.6-1.1l0.8-1.6h0.4l-1.6,3.1v2.1h-0.4V103z"
			/>
		<path d="M14.2,104.9c1.7-1.7,2.5-2.7,2.5-3.5c0-0.6-0.3-1.1-1.1-1.1c-0.5,0-0.9,0.3-1.2,0.7l-0.2-0.2c0.4-0.4,0.8-0.8,1.5-0.8
			c0.9,0,1.4,0.6,1.4,1.4c0,1-0.9,2-2.3,3.5c0.3,0,0.6,0,0.9,0h1.7v0.3h-3.2V104.9z"/>
		<path d="M18,102.5c0-1.7,0.6-2.6,1.5-2.6c1,0,1.5,0.9,1.5,2.6s-0.6,2.7-1.5,2.7C18.6,105.2,18,104.2,18,102.5z M20.7,102.5
			c0-1.6-0.5-2.3-1.2-2.3s-1.2,0.8-1.2,2.3c0,1.6,0.5,2.4,1.2,2.4C20.3,104.9,20.7,104.1,20.7,102.5z"/>
		<path d="M22.2,104.8h1.2v-4.2h-0.9v-0.2c0.4-0.1,0.7-0.2,1-0.3h0.3v4.8h1.1v0.3h-2.7V104.8z"/>
		<path d="M25.5,104.5l0.2-0.2c0.3,0.3,0.7,0.6,1.4,0.6s1.3-0.6,1.3-1.4s-0.5-1.3-1.2-1.3c-0.4,0-0.6,0.1-1,0.3l-0.2-0.2l0.2-2.4
			h2.4v0.3h-2l-0.2,1.8c0.3-0.2,0.5-0.3,0.9-0.3c0.9,0,1.6,0.5,1.6,1.6s-0.8,1.7-1.6,1.7C26.3,105.2,25.9,104.8,25.5,104.5z"/>
	</g>
	<rect x="33.4" y="30.3" class="st2" width="79.5" height="8.9"/>
	<rect x="33.4" y="45.3" class="st3" width="95.7" height="8.9"/>
	<rect x="33.4" y="64" class="st3" width="75.3" height="8.9"/>
	<rect x="33.4" y="80.8" class="st3" width="165.7" height="8.9"/>
	<rect x="33.4" y="97.6" class="st3" width="145.1" height="8.9"/>
</g>
</svg>
