<?xml version="1.0" encoding="utf-8"?>
<!-- Generator: Adobe Illustrator 23.0.3, SVG Export Plug-In . SVG Version: 6.00 Build 0)  -->
<svg version="1.1" id="Layer_1" xmlns="http://www.w3.org/2000/svg" xmlns:xlink="http://www.w3.org/1999/xlink" x="0px" y="0px"
	 viewBox="0 0 242.1 114" style="enable-background:new 0 0 242.1 114;" xml:space="preserve">
<style type="text/css">
	.st0{enable-background:new    ;}
	.st1{fill:none;stroke:#000000;stroke-width:0.25;}
	.st2{fill:#55371E;}
	.st3{fill:#ABD693;}
</style>
<g>
	<g class="st0">
		<path d="M0.8,0.4h1.8c2,0,3.3,1,3.3,3.2S4.6,6.9,2.7,6.9H0.8V0.4z M2.6,5.7c1.1,0,1.8-0.5,1.8-2.1s-0.7-2-1.8-2H2.3v4.1
			C2.3,5.7,2.6,5.7,2.6,5.7z"/>
	</g>
	<g class="st0">
		<path d="M7.1,0.4h2.2c1.4,0,2.6,0.5,2.6,2.1c0,1.5-1.2,2.2-2.5,2.2H8.6v2.2H7.1V0.4z M9.3,3.5c0.8,0,1.2-0.4,1.2-1
			s-0.4-0.9-1.2-0.9H8.6v2h0.7V3.5z"/>
	</g>
	<g class="st0">
		<path d="M12.6,6.1l0.8-1c0.5,0.4,1.1,0.7,1.6,0.7c0.6,0,0.9-0.2,0.9-0.6c0-0.4-0.4-0.5-0.9-0.8L14.2,4c-0.7-0.3-1.3-0.8-1.3-1.8
			c0-1.1,1-1.9,2.3-1.9c0.8,0,1.5,0.3,2.1,0.9l-0.8,0.9c-0.4-0.3-0.8-0.5-1.3-0.5s-0.8,0.2-0.8,0.6c0,0.4,0.4,0.5,1,0.8l0.8,0.3
			c0.8,0.3,1.3,0.8,1.3,1.8c0,1.1-0.9,2-2.5,2C14.1,7,13.2,6.7,12.6,6.1z"/>
	</g>
	<g class="st0">
		<path d="M20.4,5.1c0-1.1,0.3-2.1,0.9-2.9l0.2,0.1c-0.5,0.8-0.8,1.8-0.8,2.8s0.3,2,0.8,2.8L21.3,8C20.7,7.1,20.4,6.2,20.4,5.1z"/>
		<path d="M22.2,2.6h1c1.3,0,1.9,0.8,1.9,2.1s-0.6,2.2-1.9,2.2h-1V2.6z M23.2,6.6c1.2,0,1.7-0.8,1.7-1.9c0-1.1-0.5-1.9-1.7-1.9h-0.7
			v3.8C22.5,6.6,23.2,6.6,23.2,6.6z"/>
		<path d="M26,2.7c0-0.1,0.1-0.3,0.2-0.3s0.2,0.1,0.2,0.3S26.3,3,26.2,3S26,2.9,26,2.7z M26.1,3.8h0.3v3.1h-0.3V3.8z"/>
		<path d="M27.1,3.8h0.3l0.7,2c0.1,0.3,0.2,0.6,0.3,0.9l0,0c0.1-0.3,0.2-0.6,0.3-0.9l0.7-2h0.3l-1.1,3.1h-0.3L27.1,3.8z"/>
		<path d="M30.4,2.7c0-0.1,0.1-0.3,0.2-0.3s0.2,0.1,0.2,0.3S30.7,3,30.6,3S30.4,2.9,30.4,2.7z M30.5,3.8h0.3v3.1h-0.3V3.8z"/>
		<path d="M31.7,5.3c0-1,0.6-1.6,1.4-1.6c0.4,0,0.6,0.1,0.9,0.4V3.5V2.2h0.3v4.7h-0.2V6.5l0,0c-0.3,0.3-0.6,0.5-1,0.5
			C32.2,7,31.7,6.4,31.7,5.3z M34,6.2V4.3c-0.3-0.3-0.6-0.4-0.9-0.4c-0.6,0-1.1,0.6-1.1,1.4c0,0.8,0.4,1.4,1,1.4
			C33.4,6.7,33.7,6.5,34,6.2z"/>
		<path d="M35.2,5.3c0-1,0.7-1.6,1.4-1.6c0.7,0,1.2,0.5,1.2,1.4c0,0.1,0,0.2,0,0.2h-2.2c0,0.8,0.5,1.4,1.2,1.4
			c0.3,0,0.6-0.1,0.8-0.3l0.1,0.2c-0.2,0.1-0.5,0.3-1,0.3C35.9,7,35.2,6.3,35.2,5.3z M37.5,5.1c0-0.8-0.4-1.2-0.9-1.2
			s-1,0.4-1.1,1.2H37.5z"/>
		<path d="M38.6,3.8h0.2v0.5l0,0c0.3-0.3,0.6-0.6,1.1-0.6c0.6,0,0.9,0.4,0.9,1.2v2h-0.2v-2c0-0.7-0.2-1-0.7-1c-0.4,0-0.6,0.2-1,0.6
			v2.4h-0.3V3.8z"/>
		<path d="M41.8,5.3c0-1,0.6-1.6,1.4-1.6c0.4,0,0.6,0.1,0.9,0.4V3.5V2.2h0.3v4.7h-0.2V6.5l0,0c-0.3,0.3-0.6,0.5-1,0.5
			C42.3,7,41.8,6.4,41.8,5.3z M44.1,6.2V4.3c-0.3-0.3-0.6-0.4-0.9-0.4c-0.6,0-1.1,0.6-1.1,1.4c0,0.8,0.4,1.4,1,1.4
			C43.5,6.7,43.8,6.5,44.1,6.2z"/>
		<path d="M46.9,3.8h0.2v0.4l0,0c0.3-0.2,0.7-0.5,1.1-0.5c0.8,0,1.2,0.6,1.2,1.6C49.4,6.4,48.8,7,48,7c-0.3,0-0.6-0.1-0.9-0.4v1.7
			h-0.3V3.8H46.9z M49.2,5.3c0-0.8-0.3-1.3-1-1.3c-0.3,0-0.6,0.2-1,0.5v1.9c0.4,0.3,0.7,0.4,0.9,0.4C48.7,6.7,49.2,6.1,49.2,5.3z"/>
		<path d="M50.2,5.3c0-1,0.7-1.6,1.4-1.6c0.7,0,1.2,0.5,1.2,1.4c0,0.1,0,0.2,0,0.2h-2.2c0,0.8,0.5,1.4,1.2,1.4
			c0.3,0,0.6-0.1,0.8-0.3l0.1,0.2c-0.2,0.1-0.5,0.3-1,0.3C50.8,7,50.2,6.3,50.2,5.3z M52.5,5.1c0-0.8-0.4-1.2-0.9-1.2
			s-1,0.4-1.1,1.2H52.5z"/>
		<path d="M53.6,3.8h0.2v0.6l0,0C54,4,54.3,3.7,54.7,3.7c0.1,0,0.2,0,0.3,0.1l-0.1,0.3c-0.1,0-0.2-0.1-0.3-0.1
			c-0.3,0-0.6,0.2-0.9,0.8v2.1h-0.1V3.8z"/>
		<path d="M56.6,6.3l0.2-0.2c0.3,0.4,0.8,0.6,1.3,0.6c0.7,0,1.1-0.4,1.1-0.9s-0.3-0.7-0.8-0.9l-0.6-0.3c-0.4-0.2-0.9-0.4-0.9-1.1
			c0-0.6,0.5-1.1,1.2-1.1c0.5,0,0.9,0.2,1.2,0.5l-0.2,0.2c-0.3-0.3-0.6-0.4-1-0.4c-0.6,0-0.9,0.3-0.9,0.8s0.4,0.7,0.7,0.8l0.7,0.3
			c0.5,0.2,0.9,0.5,0.9,1.1c0,0.7-0.5,1.2-1.4,1.2C57.5,7,57,6.7,56.6,6.3z"/>
		<path d="M60.3,2.2h0.3v2c0.3-0.3,0.7-0.6,1.1-0.6c0.6,0,0.9,0.4,0.9,1.2v2h-0.3v-2c0-0.7-0.2-1-0.7-1c-0.4,0-0.6,0.2-1,0.6v2.4
			h-0.3V2.2z"/>
		<path d="M63.5,6.1c0-0.7,0.6-1,2-1.2c0-0.5-0.1-1-0.7-1c-0.4,0-0.8,0.2-1,0.4l-0.1-0.2c0.2-0.2,0.7-0.4,1.2-0.4c0.7,0,1,0.5,1,1.2
			v2h-0.3V6.5l0,0C65.3,6.8,64.9,7,64.5,7C64,7,63.5,6.7,63.5,6.1z M65.6,6.2V5.1c-1.3,0.1-1.7,0.4-1.7,0.9c0,0.4,0.3,0.6,0.7,0.6
			S65.2,6.5,65.6,6.2z"/>
	</g>
	<g class="st0">
		<path d="M67,3.8h0.2v0.6l0,0c0.2-0.4,0.5-0.7,0.9-0.7c0.1,0,0.2,0,0.3,0.1l-0.1,0.3C68.2,4.1,68.1,4,68,4c-0.3,0-0.6,0.2-0.9,0.8
			v2.1h-0.3V3.8H67z"/>
	</g>
	<g class="st0">
		<path d="M68.6,5.3c0-1,0.7-1.6,1.4-1.6c0.7,0,1.2,0.5,1.2,1.4c0,0.1,0,0.2,0,0.2H69c0,0.8,0.5,1.4,1.2,1.4c0.3,0,0.6-0.1,0.8-0.3
			l0.1,0.2c-0.2,0.1-0.5,0.3-1,0.3C69.3,7,68.6,6.3,68.6,5.3z M70.9,5.1c0-0.8-0.4-1.2-0.9-1.2s-1,0.4-1.1,1.2H70.9z"/>
		<path d="M71.7,7.9c0.5-0.8,0.8-1.8,0.8-2.8s-0.3-2-0.8-2.8l0.2-0.1c0.5,0.9,0.9,1.8,0.9,2.9S72.5,7.2,71.9,8L71.7,7.9z"/>
	</g>
	<g class="st0">
		<path d="M0.6,13.1c0-1.1,0.3-2.1,0.9-2.9l0.2,0.1c-0.5,0.8-0.8,1.8-0.8,2.8s0.3,2,0.8,2.8L1.5,16C0.9,15.1,0.6,14.2,0.6,13.1z"/>
		<path d="M2.3,12.8h0.5c0.8,0,1.2-0.3,1.2-0.9H2.3v-0.2h0.4h1.2C3.8,11.2,3.4,11,2.7,11H2.2v-0.2h2.4V11h-1
			c0.3,0.1,0.5,0.4,0.5,0.7h0.4v0.2H4.1c0,0.7-0.5,1.1-1.1,1.2l1.3,1.8H3.9l-1.3-1.8H2.1v-0.3H2.3z"/>
		<path d="M6.9,11.8h0.2v0.4l0,0c0.3-0.2,0.7-0.5,1.1-0.5c0.8,0,1.2,0.6,1.2,1.6C9.4,14.4,8.8,15,8,15c-0.3,0-0.6-0.1-0.9-0.4v1.7
			H6.8L6.9,11.8L6.9,11.8z M9.2,13.3c0-0.8-0.3-1.3-1-1.3c-0.3,0-0.6,0.2-1,0.5v1.9c0.4,0.3,0.7,0.4,0.9,0.4
			C8.7,14.7,9.2,14.1,9.2,13.3z"/>
		<path d="M10.1,13.3c0-1,0.7-1.6,1.4-1.6c0.7,0,1.2,0.5,1.2,1.4c0,0.1,0,0.2,0,0.2h-2.2c0,0.8,0.5,1.4,1.2,1.4
			c0.3,0,0.6-0.1,0.8-0.3l0.1,0.2c-0.2,0.1-0.5,0.3-1,0.3C10.8,15,10.1,14.3,10.1,13.3z M12.4,13.1c0-0.8-0.4-1.2-0.9-1.2
			s-1,0.4-1.1,1.2H12.4z"/>
		<path d="M13.5,11.8h0.2v0.6l0,0c0.2-0.4,0.5-0.7,0.9-0.7c0.1,0,0.2,0,0.3,0.1l-0.1,0.3c-0.1,0-0.2-0.1-0.3-0.1
			c-0.3,0-0.6,0.2-0.9,0.8v2.1h-0.3v-3.1H13.5z"/>
		<path d="M16.5,14.5l0.2-0.2c0.3,0.2,0.5,0.4,1,0.4s0.7-0.3,0.7-0.6c0-0.4-0.4-0.6-0.8-0.7c-0.5-0.2-1-0.4-1-0.9s0.4-0.8,1-0.8
			c0.3,0,0.7,0.1,0.9,0.3l-0.2,0.2c-0.2-0.2-0.4-0.3-0.7-0.3c-0.5,0-0.7,0.3-0.7,0.6c0,0.4,0.3,0.5,0.7,0.6c0.5,0.2,1,0.3,1,1
			c0,0.5-0.4,0.9-1.1,0.9C17.2,15,16.8,14.8,16.5,14.5z"/>
		<path d="M19.5,10.2h0.3v2c0.3-0.3,0.6-0.6,1.1-0.6c0.6,0,0.9,0.4,0.9,1.2v2h-0.2v-2c0-0.7-0.2-1-0.7-1c-0.4,0-0.6,0.2-1,0.6v2.4
			h-0.3v-4.6H19.5z"/>
		<path d="M22.7,14.1c0-0.7,0.6-1,2-1.2c0-0.5-0.1-1-0.7-1c-0.4,0-0.8,0.2-1,0.4l-0.1-0.2c0.2-0.2,0.7-0.4,1.2-0.4
			c0.7,0,1,0.5,1,1.2v2h-0.2v-0.4l0,0c-0.3,0.3-0.7,0.5-1.1,0.5C23.1,15,22.7,14.7,22.7,14.1z M24.8,14.2v-1.1
			c-1.3,0.1-1.7,0.4-1.7,0.9c0,0.4,0.3,0.6,0.7,0.6S24.4,14.5,24.8,14.2z"/>
	</g>
	<g class="st0">
		<path d="M26.1,11.8h0.2v0.6l0,0c0.2-0.4,0.5-0.7,0.9-0.7c0.1,0,0.2,0,0.3,0.1l0.1,0.2c-0.1,0-0.2-0.1-0.3-0.1
			c-0.3,0-0.6,0.2-0.9,0.8v2.1h-0.3V11.8z"/>
	</g>
	<g class="st0">
		<path d="M27.9,13.3c0-1,0.7-1.6,1.4-1.6s1.2,0.5,1.2,1.4c0,0.1,0,0.2,0,0.2h-2.2c0,0.8,0.5,1.4,1.2,1.4c0.3,0,0.6-0.1,0.8-0.3
			l0.1,0.2c-0.2,0.1-0.5,0.3-1,0.3C28.5,15,27.9,14.3,27.9,13.3z M30.2,13.1c0-0.8-0.4-1.2-0.9-1.2s-1,0.4-1.1,1.2H30.2z"/>
		<path d="M30.9,15.9c0.5-0.8,0.8-1.8,0.8-2.8s-0.3-2-0.8-2.8l0.2-0.1c0.5,0.9,0.9,1.8,0.9,2.9s-0.3,2.1-0.9,2.9L30.9,15.9z"/>
	</g>
	<line class="st1" x1="0" y1="23.4" x2="242.1" y2="23.4"/>
	<line class="st1" x1="0" y1="113.8" x2="242.1" y2="113.8"/>
	<g class="st0">
		<path d="M221.1,36.2c1.3-1.2,2.2-2.1,2.2-2.8c0-0.5-0.3-0.8-0.7-0.8s-0.6,0.2-0.9,0.5l-0.6-0.6c0.5-0.5,1-0.8,1.7-0.8
			c1,0,1.7,0.6,1.7,1.6c0,0.9-0.8,1.8-1.6,2.6c0.3,0,0.6-0.1,0.8-0.1h1v1h-3.6L221.1,36.2L221.1,36.2z"/>
		<path d="M225.4,34.3c0-1.7,0.7-2.6,1.8-2.6s1.8,0.9,1.8,2.6s-0.7,2.7-1.8,2.7S225.4,36,225.4,34.3z M227.9,34.3
			c0-1.4-0.3-1.7-0.7-1.7s-0.7,0.3-0.7,1.7s0.3,1.7,0.7,1.7C227.6,36,227.9,35.7,227.9,34.3z"/>
		<path d="M229.8,36.2c0-0.4,0.3-0.7,0.7-0.7s0.7,0.3,0.7,0.7s-0.3,0.7-0.7,0.7S229.8,36.6,229.8,36.2z"/>
		<path d="M232,34.3c0-1.7,0.7-2.6,1.8-2.6s1.8,0.9,1.8,2.6s-0.7,2.7-1.8,2.7C232.7,36.9,232,36,232,34.3z M234.5,34.3
			c0-1.4-0.3-1.7-0.7-1.7s-0.7,0.3-0.7,1.7s0.3,1.7,0.7,1.7C234.2,36,234.5,35.7,234.5,34.3z"/>
		<path d="M236.2,34.3c0-1.7,0.7-2.6,1.8-2.6s1.8,0.9,1.8,2.6S239.1,37,238,37S236.2,36,236.2,34.3z M238.7,34.3
			c0-1.4-0.3-1.7-0.7-1.7s-0.7,0.3-0.7,1.7s0.3,1.7,0.7,1.7C238.4,36,238.7,35.7,238.7,34.3z"/>
	</g>
	<g class="st0">
		<path d="M227.2,52.4c0-0.7,0.5-1.2,1-1.4l0,0c-0.4-0.2-0.7-0.6-0.7-1.2c0-0.7,0.6-1.2,1.3-1.2c0.9,0,1.4,0.6,1.4,1.3
			c0,0.6-0.4,1.1-0.7,1.3l0,0c0.4,0.3,0.9,0.6,0.9,1.3s-0.6,1.3-1.6,1.3C227.9,53.8,227.2,53.2,227.2,52.4z M230,52.4
			c0-0.8-0.8-1.1-1.6-1.4c-0.5,0.3-0.9,0.7-0.9,1.3s0.5,1.1,1.3,1.1C229.6,53.5,230,53,230,52.4z M229.9,49.8c0-0.6-0.4-1-1-1
			s-1,0.4-1,1c0,0.7,0.7,1,1.4,1.3C229.6,50.6,229.9,50.3,229.9,49.8z"/>
		<path d="M231.3,53.4c0-0.2,0.2-0.4,0.3-0.4c0.2,0,0.3,0.1,0.3,0.4c0,0.2-0.2,0.4-0.3,0.4C231.4,53.8,231.3,53.6,231.3,53.4z"/>
		<path d="M232.9,51.1c0-1.7,0.6-2.6,1.5-2.6c1,0,1.5,0.9,1.5,2.6c0,1.7-0.6,2.7-1.5,2.7C233.4,53.8,232.9,52.8,232.9,51.1z
			 M235.6,51.1c0-1.6-0.5-2.3-1.2-2.3s-1.2,0.8-1.2,2.3c0,1.6,0.5,2.4,1.2,2.4C235.1,53.5,235.6,52.7,235.6,51.1z"/>
		<path d="M236.7,51.1c0-1.7,0.6-2.6,1.5-2.6c1,0,1.5,0.9,1.5,2.6c0,1.7-0.6,2.7-1.5,2.7C237.2,53.8,236.7,52.8,236.7,51.1z
			 M239.4,51.1c0-1.6-0.5-2.3-1.2-2.3s-1.2,0.8-1.2,2.3c0,1.6,0.5,2.4,1.2,2.4C238.9,53.5,239.4,52.7,239.4,51.1z"/>
	</g>
	<g class="st0">
		<path d="M223.4,70.3c1.7-1.7,2.5-2.7,2.5-3.5c0-0.6-0.3-1.1-1.1-1.1c-0.5,0-0.9,0.3-1.2,0.7l-0.2-0.2c0.4-0.4,0.8-0.8,1.5-0.8
			c0.9,0,1.4,0.6,1.4,1.4c0,1-0.9,2-2.3,3.5c0.3,0,0.6,0,0.9,0h1.7v0.3h-3.1L223.4,70.3L223.4,70.3z"/>
		<path d="M227.3,70.1l0.2-0.2c0.2,0.3,0.5,0.4,0.9,0.4c0.8,0,1.5-0.7,1.5-2.5c-0.4,0.4-0.8,0.7-1.3,0.7c-0.9,0-1.4-0.6-1.4-1.6
			c0-0.9,0.6-1.6,1.4-1.6c1,0,1.7,0.9,1.7,2.4c0,2.1-0.9,2.9-1.9,2.9C227.9,70.6,227.6,70.4,227.3,70.1z M228.7,68.2
			c0.4,0,0.8-0.2,1.2-0.8c-0.1-1.1-0.5-1.8-1.3-1.8c-0.6,0-1,0.6-1,1.3C227.6,67.6,227.9,68.2,228.7,68.2z"/>
		<path d="M231.3,70.3c0-0.2,0.2-0.4,0.3-0.4s0.3,0.1,0.3,0.4c0,0.2-0.2,0.4-0.3,0.4S231.3,70.5,231.3,70.3z"/>
		<path d="M235,69h-2.4v-0.2l2.4-3.4h0.3v3.3h0.8V69h-0.8v1.5H235V69z M235,68.7v-1.9c0-0.2,0-0.6,0-0.9l0,0
			c-0.1,0.2-0.3,0.4-0.4,0.6l-1.5,2.1h1.9V68.7z"/>
		<path d="M236.7,67.9c0-1.7,0.6-2.6,1.5-2.6c1,0,1.5,0.9,1.5,2.6s-0.6,2.7-1.5,2.7C237.2,70.6,236.7,69.6,236.7,67.9z M239.4,67.9
			c0-1.6-0.5-2.3-1.2-2.3s-1.2,0.8-1.2,2.3c0,1.6,0.5,2.4,1.2,2.4S239.4,69.5,239.4,67.9z"/>
	</g>
	<g class="st0">
		<path d="M223.4,87.1c1.7-1.7,2.5-2.7,2.5-3.5c0-0.6-0.3-1.1-1.1-1.1c-0.5,0-0.9,0.3-1.2,0.7l-0.2-0.2c0.4-0.4,0.8-0.8,1.5-0.8
			c0.9,0,1.4,0.6,1.4,1.4c0,1-0.9,2-2.3,3.5c0.3,0,0.6,0,0.9,0h1.7v0.3h-3.1L223.4,87.1L223.4,87.1z"/>
		<path d="M229.9,82.6h-2.7v-0.3h3.1v0.2c-1.2,1.6-1.5,2.9-1.6,4.9h-0.4C228.5,85.3,228.9,84,229.9,82.6z"/>
		<path d="M231.3,87.1c0-0.2,0.2-0.4,0.3-0.4s0.3,0.1,0.3,0.4c0,0.2-0.2,0.4-0.3,0.4S231.3,87.3,231.3,87.1z"/>
		<path d="M232.8,86c0-0.7,0.5-1.2,1-1.4l0,0c-0.4-0.2-0.7-0.6-0.7-1.2c0-0.7,0.6-1.2,1.3-1.2c0.9,0,1.4,0.6,1.4,1.3
			c0,0.6-0.4,1.1-0.7,1.3l0,0c0.4,0.3,0.9,0.6,0.9,1.3c0,0.7-0.6,1.3-1.6,1.3C233.5,87.5,232.8,86.9,232.8,86z M235.6,86.1
			c0-0.8-0.8-1.1-1.6-1.4c-0.5,0.3-0.9,0.7-0.9,1.3c0,0.6,0.5,1.1,1.3,1.1C235.1,87.2,235.6,86.7,235.6,86.1z M235.5,83.5
			c0-0.6-0.4-1-1-1s-1,0.4-1,1c0,0.7,0.7,1,1.4,1.3C235.2,84.3,235.5,83.9,235.5,83.5z"/>
		<path d="M236.7,84.8c0-1.7,0.6-2.6,1.5-2.6c1,0,1.5,0.9,1.5,2.6s-0.6,2.7-1.5,2.7C237.2,87.5,236.7,86.5,236.7,84.8z M239.4,84.8
			c0-1.6-0.5-2.3-1.2-2.3s-1.2,0.8-1.2,2.3c0,1.6,0.5,2.4,1.2,2.4C238.9,87.1,239.4,86.3,239.4,84.8z"/>
	</g>
	<g class="st0">
		<path d="M229.4,102.7H227v-0.2l2.4-3.4h0.3v3.3h0.8v0.3h-0.8v1.5h-0.3V102.7z M229.4,102.4v-1.9c0-0.2,0-0.6,0-0.9l0,0
			c-0.1,0.2-0.3,0.4-0.4,0.6l-1.5,2.1h1.9V102.4z"/>
		<path d="M231.3,103.9c0-0.2,0.2-0.4,0.3-0.4c0.2,0,0.3,0.1,0.3,0.4c0,0.2-0.2,0.4-0.3,0.4C231.4,104.3,231.3,104.2,231.3,103.9z"
			/>
		<path d="M235,102.7h-2.4v-0.2l2.4-3.4h0.3v3.3h0.8v0.3h-0.8v1.5H235V102.7z M235,102.4v-1.9c0-0.2,0-0.6,0-0.9l0,0
			c-0.1,0.2-0.3,0.4-0.4,0.6l-1.5,2.1h1.9V102.4z"/>
		<path d="M236.7,101.6c0-1.7,0.6-2.6,1.5-2.6c1,0,1.5,0.9,1.5,2.6s-0.6,2.7-1.5,2.7C237.2,104.3,236.7,103.3,236.7,101.6z
			 M239.4,101.6c0-1.6-0.5-2.3-1.2-2.3s-1.2,0.8-1.2,2.3c0,1.6,0.5,2.4,1.2,2.4S239.4,103.2,239.4,101.6z"/>
	</g>
	<g class="st0">
		<path d="M3,31.6h3.3v1H4.2v1.2H6v1H4.2v2H3C3,36.8,3,31.6,3,31.6z"/>
	</g>
	<g class="st0">
		<path d="M8,35l-1.6-3.4h1.3l0.5,1.2c0.1,0.4,0.3,0.8,0.4,1.2l0,0c0.2-0.4,0.3-0.8,0.4-1.2l0.5-1.2h1.2L9.1,35v1.9H7.9V35H8z"/>
		<path d="M12.6,36.2c1.3-1.2,2.2-2.1,2.2-2.8c0-0.5-0.3-0.8-0.7-0.8c-0.4,0-0.6,0.2-0.9,0.5l-0.6-0.6c0.5-0.5,1-0.8,1.7-0.8
			c1,0,1.7,0.6,1.7,1.6c0,0.9-0.8,1.8-1.6,2.6c0.3,0,0.6-0.1,0.8-0.1h1v1h-3.6V36.2z"/>
		<path d="M16.8,34.3c0-1.7,0.7-2.6,1.8-2.6s1.8,0.9,1.8,2.6S19.7,37,18.6,37S16.8,36,16.8,34.3z M19.3,34.3c0-1.4-0.3-1.7-0.7-1.7
			c-0.4,0-0.7,0.3-0.7,1.7s0.3,1.7,0.7,1.7C19,36,19.3,35.7,19.3,34.3z"/>
		<path d="M21.3,35.9h1.1V33h-1v-0.7c0.6-0.1,0.9-0.2,1.3-0.5h0.9v4.1h1v1h-3.2L21.3,35.9L21.3,35.9z"/>
		<path d="M25.3,36.3l0.6-0.7c0.2,0.2,0.5,0.4,0.8,0.4c0.6,0,1-0.4,1-1.6c-0.3,0.3-0.7,0.5-1,0.5c-0.9,0-1.5-0.5-1.5-1.6
			s0.8-1.7,1.7-1.7c1,0,1.9,0.7,1.9,2.5c0,1.9-1,2.8-2.1,2.8C26.1,36.9,25.6,36.6,25.3,36.3z M27,34.1c0.3,0,0.6-0.1,0.8-0.5
			c-0.1-0.8-0.4-1.1-0.8-1.1c-0.3,0-0.6,0.2-0.6,0.8C26.3,33.9,26.6,34.1,27,34.1z"/>
	</g>
	<g class="st0">
		<path d="M5.5,48.4h2.9v0.3H5.9v2.1H8v0.3H5.9v2.5H5.5V48.4z"/>
	</g>
	<g class="st0">
		<path d="M10.2,51.5l-1.5-3.1h0.4L9.9,50c0.2,0.4,0.4,0.8,0.6,1.1l0,0c0.2-0.4,0.4-0.8,0.6-1.1l0.8-1.6h0.4l-1.7,3.1v2.1h-0.4V51.5
			z"/>
		<path d="M14.2,53.4c1.7-1.7,2.5-2.7,2.5-3.5c0-0.6-0.3-1.1-1.1-1.1c-0.5,0-0.9,0.3-1.2,0.7l-0.2-0.2c0.4-0.4,0.8-0.8,1.5-0.8
			c0.9,0,1.4,0.6,1.4,1.4c0,1-0.9,2-2.3,3.5c0.3,0,0.6,0,0.9,0h1.7v0.3h-3.1L14.2,53.4L14.2,53.4z"/>
		<path d="M18,51.1c0-1.7,0.6-2.6,1.5-2.6c1,0,1.5,0.9,1.5,2.6c0,1.7-0.6,2.7-1.5,2.7S18,52.8,18,51.1z M20.7,51.1
			c0-1.6-0.5-2.3-1.2-2.3s-1.2,0.8-1.2,2.3c0,1.6,0.5,2.4,1.2,2.4C20.3,53.5,20.7,52.7,20.7,51.1z"/>
		<path d="M22.2,53.4h1.2v-4.2h-0.9V49c0.4-0.1,0.7-0.2,1-0.3h0.3v4.7h1.1v0.3h-2.7C22.2,53.7,22.2,53.4,22.2,53.4z"/>
		<path d="M25.6,52.4c0-0.7,0.5-1.2,1-1.4l0,0c-0.4-0.2-0.7-0.6-0.7-1.2c0-0.7,0.6-1.2,1.3-1.2c0.9,0,1.4,0.6,1.4,1.3
			c0,0.6-0.4,1.1-0.7,1.3l0,0c0.4,0.3,0.9,0.6,0.9,1.3s-0.6,1.3-1.6,1.3C26.3,53.8,25.6,53.2,25.6,52.4z M28.5,52.4
			c0-0.8-0.8-1.1-1.6-1.4c-0.5,0.3-0.9,0.7-0.9,1.3s0.5,1.1,1.3,1.1C28,53.5,28.5,53,28.5,52.4z M28.3,49.8c0-0.6-0.4-1-1-1
			s-1,0.4-1,1c0,0.7,0.7,1,1.4,1.3C28.1,50.6,28.3,50.3,28.3,49.8z"/>
	</g>
	<g class="st0">
		<path d="M5.5,65.2h2.9v0.3H5.9v2.1H8v0.3H5.9v2.5H5.5V65.2z"/>
	</g>
	<g class="st0">
		<path d="M10.2,68.4l-1.6-3.1H9l0.8,1.6c0.2,0.4,0.4,0.8,0.6,1.1l0,0c0.2-0.4,0.4-0.8,0.6-1.1l0.8-1.6h0.4l-1.6,3.1v2.1h-0.4V68.4z
			"/>
		<path d="M14.2,70.3c1.7-1.7,2.5-2.7,2.5-3.5c0-0.6-0.3-1.1-1.1-1.1c-0.5,0-0.9,0.3-1.2,0.7l-0.2-0.2c0.4-0.4,0.8-0.8,1.5-0.8
			c0.9,0,1.4,0.6,1.4,1.4c0,1-0.9,2-2.3,3.5c0.3,0,0.6,0,0.9,0h1.7v0.3h-3.1L14.2,70.3L14.2,70.3z"/>
		<path d="M18,67.9c0-1.7,0.6-2.6,1.5-2.6c1,0,1.5,0.9,1.5,2.6s-0.6,2.7-1.5,2.7S18,69.6,18,67.9z M20.7,67.9c0-1.6-0.5-2.3-1.2-2.3
			s-1.2,0.8-1.2,2.3c0,1.6,0.5,2.4,1.2,2.4C20.3,70.3,20.7,69.5,20.7,67.9z"/>
		<path d="M22.2,70.2h1.2V66h-0.9v-0.2c0.4-0.1,0.7-0.2,1-0.3h0.3v4.8h1.1v0.3h-2.7C22.2,70.6,22.2,70.2,22.2,70.2z"/>
		<path d="M28.4,65.7h-2.7v-0.3h3.1v0.2c-1.2,1.6-1.5,2.9-1.6,4.9h-0.4C26.9,68.5,27.3,67.2,28.4,65.7z"/>
	</g>
	<g class="st0">
		<path d="M5.5,82.1h2.9v0.3H5.9v2.1H8v0.3H5.9v2.6H5.5V82.1z"/>
	</g>
	<g class="st0">
		<path d="M10.2,85.2l-1.6-3.1H9l0.8,1.6c0.2,0.4,0.4,0.8,0.6,1.1l0,0c0.2-0.4,0.4-0.8,0.6-1.1l0.8-1.6h0.4l-1.6,3.1v2.2h-0.4V85.2z
			"/>
		<path d="M14.2,87.1c1.7-1.7,2.5-2.7,2.5-3.5c0-0.6-0.3-1.1-1.1-1.1c-0.5,0-0.9,0.3-1.2,0.7L14.2,83c0.4-0.4,0.8-0.8,1.5-0.8
			c0.9,0,1.4,0.6,1.4,1.4c0,1-0.9,2-2.3,3.5c0.3,0,0.6,0,0.9,0h1.7v0.3h-3.1L14.2,87.1L14.2,87.1z"/>
		<path d="M18,84.8c0-1.7,0.6-2.6,1.5-2.6c1,0,1.5,0.9,1.5,2.6s-0.6,2.7-1.5,2.7S18,86.5,18,84.8z M20.7,84.8c0-1.6-0.5-2.3-1.2-2.3
			s-1.2,0.8-1.2,2.3c0,1.6,0.5,2.4,1.2,2.4C20.3,87.1,20.7,86.3,20.7,84.8z"/>
		<path d="M22.2,87h1.2v-4.2h-0.9v-0.2c0.4-0.1,0.7-0.2,1-0.3h0.3v4.8h1.1v0.3h-2.7C22.2,87.4,22.2,87,22.2,87z"/>
		<path d="M25.7,85c0-2.1,0.9-2.9,1.9-2.9c0.5,0,0.8,0.2,1.1,0.5l-0.2,0.2c-0.2-0.3-0.5-0.4-0.9-0.4c-0.8,0-1.5,0.7-1.5,2.5
			c0.4-0.4,0.8-0.7,1.3-0.7c0.9,0,1.4,0.6,1.4,1.6c0,0.9-0.6,1.6-1.4,1.6C26.4,87.5,25.7,86.6,25.7,85z M26.1,85.3
			c0.1,1.1,0.5,1.8,1.3,1.8c0.6,0,1-0.6,1-1.3s-0.3-1.3-1.1-1.3C27,84.6,26.5,84.8,26.1,85.3z"/>
	</g>
	<g class="st0">
		<path d="M5.5,98.9h2.9v0.3H5.9v2.1H8v0.3H5.9v2.5H5.5V98.9z"/>
	</g>
	<g class="st0">
		<path d="M10.2,102.1L8.6,99H9l0.8,1.6c0.2,0.4,0.4,0.8,0.6,1.1l0,0c0.2-0.4,0.4-0.8,0.6-1.1l0.8-1.6h0.4l-1.6,3.1v2.1h-0.4
			C10.2,104.2,10.2,102.1,10.2,102.1z"/>
		<path d="M14.2,104c1.7-1.7,2.5-2.7,2.5-3.5c0-0.6-0.3-1.1-1.1-1.1c-0.5,0-0.9,0.3-1.2,0.7l-0.2-0.2c0.4-0.4,0.8-0.8,1.5-0.8
			c0.9,0,1.4,0.6,1.4,1.4c0,1-0.9,2-2.3,3.5c0.3,0,0.6,0,0.9,0h1.7v0.3h-3.1L14.2,104L14.2,104z"/>
		<path d="M18,101.6c0-1.7,0.6-2.6,1.5-2.6c1,0,1.5,0.9,1.5,2.6s-0.6,2.7-1.5,2.7C18.6,104.3,18,103.3,18,101.6z M20.7,101.6
			c0-1.6-0.5-2.3-1.2-2.3s-1.2,0.8-1.2,2.3c0,1.6,0.5,2.4,1.2,2.4C20.3,104,20.7,103.2,20.7,101.6z"/>
		<path d="M22.2,103.9h1.2v-4.2h-0.9v-0.3c0.4-0.1,0.7-0.2,1-0.3h0.3v4.8h1.1v0.3h-2.7C22.2,104.2,22.2,103.9,22.2,103.9z"/>
		<path d="M25.5,103.6l0.2-0.2c0.3,0.3,0.7,0.6,1.4,0.6s1.3-0.6,1.3-1.4s-0.5-1.3-1.2-1.3c-0.4,0-0.6,0.1-1,0.3l-0.2-0.2l0.2-2.4
			h2.4v0.3h-2l-0.2,1.8c0.3-0.2,0.5-0.3,0.9-0.3c0.9,0,1.6,0.5,1.6,1.6s-0.8,1.7-1.6,1.7C26.3,104.3,25.9,103.9,25.5,103.6z"/>
	</g>
	<rect x="33.4" y="29.4" class="st2" width="112.7" height="8.9"/>
	<rect x="33.4" y="44.4" class="st3" width="44.9" height="8.9"/>
	<rect x="33.4" y="63.1" class="st3" width="165.7" height="8.9"/>
	<rect x="33.4" y="79.9" class="st3" width="156.6" height="8.9"/>
	<rect x="33.4" y="96.7" class="st3" width="24.6" height="8.9"/>
</g>
</svg>
