<?xml version="1.0" encoding="utf-8"?>
<!-- Generator: Adobe Illustrator 23.0.3, SVG Export Plug-In . SVG Version: 6.00 Build 0)  -->
<svg version="1.1" id="Layer_1" xmlns="http://www.w3.org/2000/svg" xmlns:xlink="http://www.w3.org/1999/xlink" x="0px" y="0px"
	 viewBox="0 0 243.9 114" style="enable-background:new 0 0 243.9 114;" xml:space="preserve">
<style type="text/css">
	.st0{enable-background:new    ;}
	.st1{fill:none;stroke:#000000;stroke-width:0.25;}
	.st2{fill:#55371E;}
	.st3{fill:#ABD693;}
</style>
<g>
	<g class="st0">
		<path d="M1.7,0.4h4.1v1.2H3.2v1.3h2.2v1.2H3.2v1.5h2.7v1.2H1.7V0.4z"/>
	</g>
	<g class="st0">
		<path d="M7.2,0.4h2.2c1.4,0,2.6,0.5,2.6,2.1c0,1.5-1.2,2.2-2.5,2.2H8.7v2.2H7.2C7.2,6.9,7.2,0.4,7.2,0.4z M9.4,3.5
			c0.8,0,1.2-0.4,1.2-1s-0.4-0.9-1.2-0.9H8.7v2h0.7V3.5z"/>
	</g>
	<g class="st0">
		<path d="M12.6,6.1l0.8-1c0.5,0.4,1.1,0.7,1.6,0.7c0.6,0,0.9-0.2,0.9-0.6c0-0.4-0.4-0.5-0.9-0.8L14.2,4c-0.7-0.3-1.3-0.8-1.3-1.8
			c0-1.1,1-1.9,2.3-1.9c0.7,0,1.5,0.3,2.1,0.9L16.5,2c-0.4-0.3-0.8-0.5-1.3-0.5s-0.8,0.2-0.8,0.6c0,0.4,0.4,0.5,1,0.8l0.8,0.3
			C17,3.5,17.5,4,17.5,5c0,1.1-0.9,2-2.5,2C14.1,7,13.2,6.7,12.6,6.1z"/>
	</g>
	<g class="st0">
		<path d="M20.4,5.1c0-1.1,0.3-2.1,0.9-2.9l0.2,0.1c-0.5,0.8-0.8,1.8-0.8,2.8s0.3,2,0.8,2.8L21.3,8C20.7,7.1,20.4,6.2,20.4,5.1z"/>
		<path d="M22.3,2.6h2.3v0.3h-2v1.6h1.7v0.3h-1.7v1.9h2.1V7h-2.4C22.3,7,22.3,2.6,22.3,2.6z"/>
		<path d="M25.4,6.1c0-0.7,0.6-1,2-1.2c0-0.5-0.1-1-0.7-1c-0.4,0-0.8,0.2-1,0.4l-0.2-0.2c0.2-0.2,0.7-0.4,1.2-0.4c0.7,0,1,0.5,1,1.2
			v2h-0.2V6.5l0,0C27.2,6.8,26.8,7,26.4,7C25.8,7,25.4,6.7,25.4,6.1z M27.4,6.2V5.1c-1.3,0.1-1.7,0.4-1.7,0.9c0,0.4,0.3,0.6,0.7,0.6
			S27,6.5,27.4,6.2z"/>
		<path d="M28.8,3.8H29v0.6l0,0c0.2-0.4,0.5-0.7,0.9-0.7c0.1,0,0.2,0,0.3,0.1l-0.1,0.3C30,4.1,29.9,4,29.8,4c-0.3,0-0.6,0.2-0.9,0.8
			v2.1h-0.3V3.8H28.8z"/>
		<path d="M30.8,3.8H31v0.5l0,0c0.3-0.3,0.6-0.6,1.1-0.6c0.6,0,0.9,0.4,0.9,1.2v2h-0.3v-2c0-0.7-0.2-1-0.7-1c-0.4,0-0.6,0.2-1,0.6
			v2.4h-0.3L30.8,3.8L30.8,3.8z"/>
		<path d="M34.2,2.7c0-0.1,0.1-0.3,0.2-0.3s0.2,0.1,0.2,0.3S34.5,3,34.4,3S34.2,2.9,34.2,2.7z M34.3,3.8h0.3v3.1h-0.3V3.8z"/>
		<path d="M35.8,3.8H36v0.5l0,0c0.3-0.3,0.6-0.6,1.1-0.6c0.6,0,0.9,0.4,0.9,1.2v2h-0.3v-2c0-0.7-0.2-1-0.7-1c-0.4,0-0.6,0.2-1,0.6
			v2.4h-0.3L35.8,3.8L35.8,3.8z"/>
		<path d="M39,7.5c0-0.3,0.2-0.5,0.5-0.8l0,0c-0.2-0.1-0.3-0.3-0.3-0.5c0-0.3,0.2-0.5,0.3-0.6l0,0c-0.2-0.2-0.4-0.5-0.4-0.9
			c0-0.6,0.5-1.1,1.1-1.1c0.2,0,0.3,0,0.4,0.1h1.1v0.2H41c0.2,0.2,0.3,0.5,0.3,0.8c0,0.6-0.5,1.1-1.1,1.1c-0.2,0-0.4,0-0.5-0.1
			c-0.1,0.1-0.3,0.2-0.3,0.4s0.1,0.4,0.6,0.4h0.7c0.7,0,1,0.2,1,0.7s-0.6,1.1-1.5,1.1C39.5,8.4,39,8,39,7.5z M41.5,7.4
			c0-0.3-0.3-0.5-0.7-0.5h-0.7c-0.1,0-0.2,0-0.4-0.1c-0.3,0.2-0.4,0.4-0.4,0.7c0,0.4,0.4,0.7,1,0.7C41,8.1,41.5,7.7,41.5,7.4z
			 M41,4.8c0-0.5-0.4-0.9-0.8-0.9c-0.4,0-0.8,0.3-0.8,0.9c0,0.5,0.4,0.9,0.8,0.9C40.7,5.7,41,5.3,41,4.8z"/>
		<path d="M42,6.5l0.2-0.2c0.3,0.2,0.5,0.4,1,0.4s0.7-0.3,0.7-0.6c0-0.4-0.4-0.6-0.8-0.7c-0.5-0.2-1-0.4-1-0.9s0.4-0.8,1-0.8
			c0.3,0,0.7,0.1,0.9,0.3l-0.2,0.2c-0.2-0.2-0.4-0.3-0.7-0.3c-0.5,0-0.7,0.3-0.7,0.6c0,0.4,0.3,0.5,0.7,0.6c0.5,0.2,1,0.3,1,1
			C44.1,6.6,43.7,7,43,7C42.7,7,42.3,6.8,42,6.5z"/>
		<path d="M46.4,3.8h0.2v0.4l0,0c0.3-0.2,0.7-0.5,1.1-0.5c0.8,0,1.2,0.6,1.2,1.6c0,1.1-0.6,1.7-1.4,1.7c-0.3,0-0.6-0.1-0.9-0.4v1.7
			h-0.3V3.8H46.4z M48.6,5.3c0-0.8-0.3-1.3-1-1.3c-0.3,0-0.6,0.2-1,0.5v1.9c0.4,0.3,0.7,0.4,0.9,0.4C48.2,6.7,48.6,6.1,48.6,5.3z"/>
		<path d="M49.6,5.3c0-1,0.7-1.6,1.4-1.6s1.2,0.5,1.2,1.4c0,0.1,0,0.2,0,0.2H50c0,0.8,0.5,1.4,1.2,1.4c0.3,0,0.6-0.1,0.8-0.3
			l0.1,0.2c-0.2,0.1-0.5,0.3-1,0.3C50.3,7,49.6,6.3,49.6,5.3z M51.9,5.1c0-0.8-0.4-1.2-0.9-1.2s-1,0.4-1.1,1.2H51.9z"/>
		<path d="M53,3.8h0.2v0.6l0,0c0.2-0.4,0.5-0.7,0.9-0.7c0.1,0,0.2,0,0.3,0.1L54.5,4c-0.1,0-0.2-0.1-0.3-0.1c-0.3,0-0.6,0.2-0.9,0.8
			v2.1H53V3.8z"/>
		<path d="M56.1,6.3l0.2-0.2c0.3,0.4,0.8,0.6,1.3,0.6c0.7,0,1.1-0.4,1.1-0.9s-0.3-0.7-0.8-0.9l-0.6-0.3c-0.4-0.2-0.9-0.4-0.9-1.1
			c0-0.6,0.5-1.1,1.2-1.1c0.5,0,0.9,0.2,1.2,0.5l-0.2,0.2c-0.3-0.3-0.6-0.4-1-0.4c-0.6,0-0.9,0.3-0.9,0.8s0.4,0.7,0.7,0.8l0.7,0.3
			C58.6,4.8,59,5.1,59,5.7c0,0.7-0.5,1.2-1.4,1.2C56.9,7,56.4,6.7,56.1,6.3z"/>
		<path d="M59.8,2.2h0.3v2c0.3-0.3,0.6-0.6,1.1-0.6c0.6,0,0.9,0.4,0.9,1.2v2h-0.3v-2c0-0.7-0.2-1-0.7-1c-0.4,0-0.6,0.2-1,0.6v2.4
			h-0.3V2.2z"/>
		<path d="M63,6.1c0-0.7,0.6-1,2-1.2c0-0.5-0.1-1-0.7-1c-0.4,0-0.8,0.2-1,0.4l-0.1-0.2c0.2-0.2,0.7-0.4,1.2-0.4c0.7,0,1,0.5,1,1.2v2
			h-0.2V6.5l0,0C64.9,6.8,64.5,7,64.1,7C63.4,7,63,6.7,63,6.1z M65,6.2V5.1c-1.3,0.1-1.7,0.4-1.7,0.9c0,0.4,0.3,0.6,0.7,0.6
			C64.4,6.6,64.6,6.5,65,6.2z"/>
	</g>
	<g class="st0">
		<path d="M66.4,3.8h0.2v0.6l0,0c0.2-0.4,0.5-0.7,0.9-0.7c0.1,0,0.2,0,0.3,0.1l-0.1,0.3c-0.1,0-0.2-0.1-0.3-0.1
			c-0.3,0-0.6,0.2-0.9,0.8v2.1h-0.3V3.8H66.4z"/>
	</g>
	<g class="st0">
		<path d="M68.2,5.3c0-1,0.7-1.6,1.4-1.6c0.7,0,1.2,0.5,1.2,1.4c0,0.1,0,0.2,0,0.2h-2.3c0,0.8,0.5,1.4,1.2,1.4
			c0.3,0,0.6-0.1,0.8-0.3l0.1,0.2c-0.2,0.1-0.5,0.3-1,0.3C68.8,7,68.2,6.3,68.2,5.3z M70.5,5.1c0-0.8-0.4-1.2-0.9-1.2
			s-1,0.4-1.1,1.2H70.5z"/>
		<path d="M71.2,7.9C71.7,7.1,72,6.1,72,5.1s-0.3-2-0.8-2.8l0.2-0.1c0.5,0.9,0.9,1.8,0.9,2.9S72,7.2,71.4,8L71.2,7.9z"/>
	</g>
	<g class="st0">
		<path d="M1.5,13.1c0-1.1,0.3-2.1,0.9-2.9l0.2,0.1c-0.5,0.8-0.8,1.8-0.8,2.8s0.3,2,0.8,2.8L2.4,16C1.8,15.1,1.5,14.2,1.5,13.1z"/>
		<path d="M3.2,12.8h0.5c0.8,0,1.2-0.3,1.2-0.9H3.2v-0.2h0.4h1.2C4.7,11.2,4.3,11,3.6,11H3.1v-0.2h2.4V11h-1C4.8,11.1,5,11.4,5,11.7
			h0.4v0.2H5c0,0.7-0.5,1.1-1.1,1.2l1.3,1.8H4.8l-1.3-1.8H3v-0.3H3.2z"/>
		<path d="M7.8,11.8H8v0.4l0,0c0.3-0.2,0.7-0.5,1.1-0.5c0.8,0,1.2,0.6,1.2,1.6c0,1.1-0.6,1.7-1.4,1.7c-0.3,0-0.6-0.1-0.9-0.4v1.7
			H7.7L7.8,11.8L7.8,11.8z M10.1,13.3c0-0.8-0.3-1.3-1-1.3c-0.3,0-0.6,0.2-1,0.5v1.9c0.4,0.3,0.7,0.4,0.9,0.4
			C9.6,14.7,10.1,14.1,10.1,13.3z"/>
		<path d="M11,13.3c0-1,0.7-1.6,1.4-1.6c0.7,0,1.2,0.5,1.2,1.4c0,0.1,0,0.2,0,0.2h-2.2c0,0.8,0.5,1.4,1.2,1.4c0.3,0,0.6-0.1,0.8-0.3
			l0.1,0.2c-0.2,0.1-0.5,0.3-1,0.3C11.7,15,11,14.3,11,13.3z M13.3,13.1c0-0.8-0.4-1.2-0.9-1.2s-1,0.4-1.1,1.2H13.3z"/>
		<path d="M14.4,11.8h0.2v0.6l0,0c0.2-0.4,0.5-0.7,0.9-0.7c0.1,0,0.2,0,0.3,0.1l-0.1,0.3c-0.1,0-0.2-0.1-0.3-0.1
			c-0.3,0-0.6,0.2-0.9,0.8v2.1h-0.3v-3.1H14.4z"/>
		<path d="M17.4,14.5l0.2-0.2c0.3,0.2,0.5,0.4,1,0.4s0.7-0.3,0.7-0.6c0-0.4-0.4-0.6-0.8-0.7c-0.5-0.2-1-0.4-1-0.9s0.4-0.8,1-0.8
			c0.3,0,0.7,0.1,0.9,0.3l-0.2,0.2c-0.2-0.2-0.4-0.3-0.7-0.3c-0.5,0-0.7,0.3-0.7,0.6c0,0.4,0.3,0.5,0.7,0.6c0.5,0.2,1,0.3,1,1
			c0,0.5-0.4,0.9-1.1,0.9C18.1,15,17.7,14.8,17.4,14.5z"/>
		<path d="M20.4,10.2h0.3v2c0.3-0.3,0.6-0.6,1.1-0.6c0.6,0,0.9,0.4,0.9,1.2v2h-0.2v-2c0-0.7-0.2-1-0.7-1c-0.4,0-0.6,0.2-1,0.6v2.4
			h-0.3v-4.6H20.4z"/>
		<path d="M23.6,14.1c0-0.7,0.6-1,2-1.2c0-0.5-0.1-1-0.7-1c-0.4,0-0.8,0.2-1,0.4l-0.1-0.2c0.2-0.2,0.7-0.4,1.2-0.4
			c0.7,0,1,0.5,1,1.2v2h-0.2v-0.4l0,0c-0.3,0.3-0.7,0.5-1.1,0.5C24.1,15,23.6,14.7,23.6,14.1z M25.7,14.2v-1.1
			C24.4,13.2,24,13.5,24,14c0,0.4,0.3,0.6,0.7,0.6S25.3,14.5,25.7,14.2z"/>
	</g>
	<g class="st0">
		<path d="M27,11.8h0.2v0.6l0,0c0.2-0.4,0.5-0.7,0.9-0.7c0.1,0,0.2,0,0.3,0.1l0.1,0.2c-0.1,0-0.2-0.1-0.3-0.1
			c-0.3,0-0.6,0.2-0.9,0.8v2.1H27V11.8z"/>
	</g>
	<g class="st0">
		<path d="M28.8,13.3c0-1,0.7-1.6,1.4-1.6s1.2,0.5,1.2,1.4c0,0.1,0,0.2,0,0.2h-2.2c0,0.8,0.5,1.4,1.2,1.4c0.3,0,0.6-0.1,0.8-0.3
			l0.1,0.2c-0.2,0.1-0.5,0.3-1,0.3C29.4,15,28.8,14.3,28.8,13.3z M31.1,13.1c0-0.8-0.4-1.2-0.9-1.2s-1,0.4-1.1,1.2H31.1z"/>
		<path d="M31.8,15.9c0.5-0.8,0.8-1.8,0.8-2.8s-0.3-2-0.8-2.8l0.2-0.1c0.5,0.9,0.9,1.8,0.9,2.9S32.6,15.2,32,16L31.8,15.9z"/>
	</g>
	<line class="st1" x1="0.9" y1="23.4" x2="243" y2="23.4"/>
	<line class="st1" x1="0.9" y1="113.8" x2="243" y2="113.8"/>
	<g class="st0">
		<path d="M222.3,35.9h1.1V33h-1v-0.7c0.6-0.1,0.9-0.2,1.3-0.5h0.9v4.1h1v1h-3.2v-1H222.3z"/>
		<path d="M226.3,35.5c0-0.6,0.4-1,0.9-1.2l0,0c-0.4-0.3-0.7-0.7-0.7-1.2c0-0.9,0.7-1.4,1.6-1.4c0.9,0,1.5,0.6,1.5,1.4
			c0,0.5-0.3,0.9-0.7,1.1l0,0c0.5,0.3,0.9,0.7,0.9,1.3c0,0.8-0.7,1.4-1.8,1.4C227.1,36.9,226.3,36.4,226.3,35.5z M228.8,35.5
			c0-0.4-0.4-0.6-1.1-0.9c-0.2,0.2-0.4,0.5-0.4,0.8c0,0.4,0.4,0.7,0.8,0.7C228.5,36.1,228.8,35.9,228.8,35.5z M228.7,33.1
			c0-0.4-0.2-0.7-0.6-0.7c-0.3,0-0.6,0.2-0.6,0.6c0,0.4,0.4,0.6,0.9,0.8C228.6,33.6,228.7,33.4,228.7,33.1z"/>
		<path d="M230.7,36.2c0-0.4,0.3-0.7,0.7-0.7s0.7,0.3,0.7,0.7s-0.3,0.7-0.7,0.7S230.7,36.6,230.7,36.2z"/>
		<path d="M232.9,35.5c0-0.6,0.4-1,0.9-1.2l0,0c-0.4-0.3-0.7-0.7-0.7-1.2c0-0.9,0.7-1.4,1.6-1.4c0.9,0,1.5,0.6,1.5,1.4
			c0,0.5-0.3,0.9-0.7,1.1l0,0c0.5,0.3,0.9,0.7,0.9,1.3c0,0.8-0.7,1.4-1.8,1.4C233.7,36.9,232.9,36.4,232.9,35.5z M235.4,35.5
			c0-0.4-0.4-0.6-1.1-0.9c-0.2,0.2-0.4,0.5-0.4,0.8c0,0.4,0.4,0.7,0.8,0.7C235.1,36.1,235.4,35.9,235.4,35.5z M235.3,33.1
			c0-0.4-0.2-0.7-0.6-0.7c-0.3,0-0.6,0.2-0.6,0.6c0,0.4,0.4,0.6,0.9,0.8C235.2,33.6,235.3,33.4,235.3,33.1z"/>
		<path d="M237,36.2l0.5-0.7c0.3,0.3,0.7,0.5,1.1,0.5c0.5,0,0.8-0.2,0.8-0.6c0-0.4-0.3-0.7-1.4-0.7v-0.8c0.9,0,1.2-0.3,1.2-0.7
			s-0.2-0.6-0.6-0.6c-0.4,0-0.6,0.2-1,0.4l-0.6-0.7c0.5-0.4,1-0.6,1.6-0.6c1,0,1.8,0.5,1.8,1.4c0,0.5-0.3,0.9-0.8,1.1l0,0
			c0.6,0.2,1,0.6,1,1.2c0,0.9-0.9,1.5-1.9,1.5C237.9,36.9,237.4,36.6,237,36.2z"/>
	</g>
	<g class="st0">
		<path d="M224.3,53.4c1.7-1.7,2.5-2.7,2.5-3.5c0-0.6-0.3-1.1-1.1-1.1c-0.5,0-0.9,0.3-1.2,0.7l-0.2-0.2c0.4-0.4,0.8-0.8,1.5-0.8
			c0.9,0,1.4,0.6,1.4,1.4c0,1-0.9,2-2.3,3.5c0.3,0,0.6,0,0.9,0h1.7v0.3h-3.1L224.3,53.4L224.3,53.4z"/>
		<path d="M228.5,53.4h1.2v-4.2h-0.9V49c0.4-0.1,0.7-0.2,1-0.3h0.3v4.7h1.1v0.3h-2.7V53.4z"/>
		<path d="M232.2,53.4c0-0.2,0.2-0.4,0.3-0.4s0.3,0.1,0.3,0.4c0,0.2-0.2,0.4-0.3,0.4S232.2,53.6,232.2,53.4z"/>
		<path d="M233.8,53.3l0.2-0.2c0.2,0.3,0.5,0.4,0.9,0.4c0.8,0,1.5-0.7,1.5-2.5c-0.4,0.4-0.8,0.7-1.3,0.7c-0.9,0-1.4-0.6-1.4-1.6
			c0-0.9,0.6-1.6,1.4-1.6c1,0,1.7,0.9,1.7,2.4c0,2.1-0.9,2.9-1.9,2.9C234.4,53.8,234.1,53.6,233.8,53.3z M235.2,51.3
			c0.4,0,0.8-0.2,1.2-0.8c-0.1-1.1-0.5-1.8-1.3-1.8c-0.6,0-1,0.6-1,1.3C234.1,50.8,234.4,51.3,235.2,51.3z"/>
		<path d="M237.4,53.1l0.2-0.2c0.3,0.3,0.7,0.6,1.4,0.6s1.3-0.6,1.3-1.4c0-0.8-0.5-1.3-1.2-1.3c-0.4,0-0.6,0.1-1,0.3l-0.2-0.2
			l0.2-2.4h2.4v0.3h-2l-0.2,1.8c0.3-0.2,0.5-0.3,0.9-0.3c0.9,0,1.6,0.5,1.6,1.6s-0.8,1.7-1.6,1.7C238.2,53.8,237.7,53.4,237.4,53.1z
			"/>
	</g>
	<g class="st0">
		<path d="M224.6,70.2h1.2V66h-0.9v-0.2c0.4-0.1,0.7-0.2,1-0.3h0.3v4.8h1.1v0.3h-2.7L224.6,70.2L224.6,70.2z"/>
		<path d="M228.2,70.1l0.2-0.2c0.2,0.3,0.5,0.4,0.9,0.4c0.8,0,1.5-0.7,1.5-2.5c-0.4,0.4-0.8,0.7-1.3,0.7c-0.9,0-1.4-0.6-1.4-1.6
			c0-0.9,0.6-1.6,1.4-1.6c1,0,1.7,0.9,1.7,2.4c0,2.1-0.9,2.9-1.9,2.9C228.8,70.6,228.5,70.4,228.2,70.1z M229.6,68.2
			c0.4,0,0.8-0.2,1.2-0.8c-0.1-1.1-0.5-1.8-1.3-1.8c-0.6,0-1,0.6-1,1.3C228.5,67.6,228.8,68.2,229.6,68.2z"/>
		<path d="M232.2,70.3c0-0.2,0.2-0.4,0.3-0.4s0.3,0.1,0.3,0.4c0,0.2-0.2,0.4-0.3,0.4S232.2,70.5,232.2,70.3z"/>
		<path d="M233.8,68.2c0-2.1,0.9-2.9,1.9-2.9c0.5,0,0.8,0.2,1.1,0.5l-0.2,0.2c-0.2-0.3-0.5-0.4-0.9-0.4c-0.8,0-1.5,0.7-1.5,2.5
			c0.4-0.4,0.8-0.7,1.3-0.7c0.9,0,1.4,0.6,1.4,1.6c0,0.9-0.6,1.6-1.4,1.6C234.4,70.6,233.8,69.7,233.8,68.2z M234.2,68.5
			c0.1,1.1,0.5,1.8,1.3,1.8c0.6,0,1-0.6,1-1.3s-0.3-1.3-1.1-1.3C235,67.7,234.6,67.9,234.2,68.5z"/>
		<path d="M237.5,69.2c0-0.7,0.5-1.2,1-1.4l0,0c-0.4-0.2-0.7-0.6-0.7-1.2c0-0.7,0.6-1.2,1.3-1.2c0.9,0,1.4,0.6,1.4,1.3
			c0,0.6-0.4,1.1-0.7,1.3l0,0c0.4,0.3,0.9,0.6,0.9,1.3c0,0.7-0.6,1.3-1.6,1.3C238.2,70.6,237.5,70,237.5,69.2z M240.3,69.3
			c0-0.8-0.8-1.1-1.6-1.4c-0.5,0.3-0.9,0.7-0.9,1.3c0,0.6,0.5,1.1,1.3,1.1C239.9,70.3,240.3,69.9,240.3,69.3z M240.2,66.7
			c0-0.6-0.4-1-1-1s-1,0.4-1,1c0,0.7,0.7,1,1.4,1.3C240,67.5,240.2,67.1,240.2,66.7z"/>
	</g>
	<g class="st0">
		<path d="M224.6,87h1.2v-4.2h-0.9v-0.2c0.4-0.1,0.7-0.2,1-0.3h0.3v4.8h1.1v0.3h-2.7L224.6,87L224.6,87z"/>
		<path d="M228.2,87l0.2-0.2c0.2,0.3,0.5,0.4,0.9,0.4c0.8,0,1.5-0.7,1.5-2.5c-0.4,0.4-0.8,0.7-1.3,0.7c-0.9,0-1.4-0.6-1.4-1.6
			c0-0.9,0.6-1.6,1.4-1.6c1,0,1.7,0.9,1.7,2.4c0,2.1-0.9,2.9-1.9,2.9C228.8,87.5,228.5,87.3,228.2,87z M229.6,85
			c0.4,0,0.8-0.2,1.2-0.8c-0.1-1.1-0.5-1.8-1.3-1.8c-0.6,0-1,0.6-1,1.3C228.5,84.5,228.8,85,229.6,85z"/>
		<path d="M232.2,87.1c0-0.2,0.2-0.4,0.3-0.4s0.3,0.1,0.3,0.4c0,0.2-0.2,0.4-0.3,0.4S232.2,87.3,232.2,87.1z"/>
		<path d="M233.6,86.7l0.2-0.2c0.3,0.3,0.7,0.7,1.4,0.7s1.2-0.4,1.2-1.1s-0.5-1.2-1.8-1.2v-0.3c1.2,0,1.6-0.5,1.6-1.1s-0.4-1-1-1
			c-0.5,0-0.9,0.2-1.2,0.6l-0.2-0.2c0.4-0.3,0.8-0.6,1.4-0.6c0.8,0,1.4,0.4,1.4,1.2c0,0.7-0.4,1.1-1,1.3l0,0
			c0.6,0.1,1.2,0.6,1.2,1.3c0,0.9-0.7,1.4-1.6,1.4C234.4,87.5,233.9,87.1,233.6,86.7z"/>
		<path d="M237.4,86.8l0.2-0.2c0.3,0.3,0.7,0.6,1.4,0.6s1.3-0.6,1.3-1.4s-0.5-1.3-1.2-1.3c-0.4,0-0.6,0.1-1,0.3l-0.2-0.2l0.2-2.4
			h2.4v0.3h-2l-0.2,1.8c0.3-0.2,0.5-0.3,0.9-0.3c0.9,0,1.6,0.5,1.6,1.6s-0.8,1.7-1.6,1.7C238.2,87.5,237.7,87.1,237.4,86.8z"/>
	</g>
	<g class="st0">
		<path d="M224.6,103.9h1.2v-4.2h-0.9v-0.3c0.4-0.1,0.7-0.2,1-0.3h0.3v4.8h1.1v0.3h-2.7L224.6,103.9L224.6,103.9z"/>
		<path d="M228.2,103.8l0.2-0.2c0.2,0.3,0.5,0.4,0.9,0.4c0.8,0,1.5-0.7,1.5-2.5c-0.4,0.4-0.8,0.7-1.3,0.7c-0.9,0-1.4-0.6-1.4-1.6
			c0-0.9,0.6-1.6,1.4-1.6c1,0,1.7,0.9,1.7,2.4c0,2.1-0.9,2.9-1.9,2.9C228.8,104.3,228.5,104.1,228.2,103.8z M229.6,101.9
			c0.4,0,0.8-0.2,1.2-0.8c-0.1-1.1-0.5-1.8-1.3-1.8c-0.6,0-1,0.6-1,1.3S228.8,101.9,229.6,101.9z"/>
		<path d="M232.2,103.9c0-0.2,0.2-0.4,0.3-0.4s0.3,0.1,0.3,0.4c0,0.2-0.2,0.4-0.3,0.4S232.2,104.2,232.2,103.9z"/>
		<path d="M233.6,103.6l0.2-0.2c0.3,0.3,0.7,0.7,1.4,0.7s1.2-0.4,1.2-1.1s-0.5-1.2-1.8-1.2v-0.4c1.2,0,1.6-0.5,1.6-1.1s-0.4-1-1-1
			c-0.5,0-0.9,0.2-1.2,0.6l-0.2-0.2c0.4-0.3,0.8-0.6,1.4-0.6c0.8,0,1.4,0.4,1.4,1.2c0,0.7-0.4,1.1-1,1.3l0,0
			c0.6,0.1,1.2,0.6,1.2,1.3c0,0.9-0.7,1.4-1.6,1.4C234.4,104.3,233.9,103.9,233.6,103.6z"/>
		<path d="M237.4,103.6l0.2-0.2c0.3,0.3,0.7,0.6,1.4,0.6s1.3-0.6,1.3-1.4s-0.5-1.3-1.2-1.3c-0.4,0-0.6,0.1-1,0.3l-0.2-0.2l0.2-2.4
			h2.4v0.3h-2l-0.2,1.8c0.3-0.2,0.5-0.3,0.9-0.3c0.9,0,1.6,0.5,1.6,1.6s-0.8,1.7-1.6,1.7C238.2,104.3,237.7,103.9,237.4,103.6z"/>
	</g>
	<g class="st0">
		<path d="M3.9,31.6h3.3v1H5.1v1.2h1.8v1H5.1v2H3.9C3.9,36.8,3.9,31.6,3.9,31.6z"/>
	</g>
	<g class="st0">
		<path d="M8.9,35l-1.6-3.4h1.3l0.5,1.2c0.1,0.4,0.3,0.8,0.4,1.2l0,0c0.2-0.4,0.3-0.8,0.4-1.2l0.5-1.2h1.2L10,35v1.9H8.8V35H8.9z"/>
		<path d="M13.5,36.2c1.3-1.2,2.2-2.1,2.2-2.8c0-0.5-0.3-0.8-0.7-0.8c-0.4,0-0.6,0.2-0.9,0.5l-0.6-0.6c0.5-0.5,1-0.8,1.7-0.8
			c1,0,1.7,0.6,1.7,1.6c0,0.9-0.8,1.8-1.6,2.6c0.3,0,0.6-0.1,0.8-0.1h1v1h-3.6V36.2z"/>
		<path d="M17.7,34.3c0-1.7,0.7-2.6,1.8-2.6s1.8,0.9,1.8,2.6S20.6,37,19.5,37S17.7,36,17.7,34.3z M20.2,34.3c0-1.4-0.3-1.7-0.7-1.7
			c-0.4,0-0.7,0.3-0.7,1.7s0.3,1.7,0.7,1.7C19.9,36,20.2,35.7,20.2,34.3z"/>
		<path d="M22.2,35.9h1.1V33h-1v-0.7c0.6-0.1,0.9-0.2,1.3-0.5h0.9v4.1h1v1h-3.2L22.2,35.9L22.2,35.9z"/>
		<path d="M26.2,36.3l0.6-0.7c0.2,0.2,0.5,0.4,0.8,0.4c0.6,0,1-0.4,1-1.6c-0.3,0.3-0.7,0.5-1,0.5c-0.9,0-1.5-0.5-1.5-1.6
			s0.8-1.7,1.7-1.7c1,0,1.9,0.7,1.9,2.5c0,1.9-1,2.8-2.1,2.8C27,36.9,26.5,36.6,26.2,36.3z M27.9,34.1c0.3,0,0.6-0.1,0.8-0.5
			c-0.1-0.8-0.4-1.1-0.8-1.1c-0.3,0-0.6,0.2-0.6,0.8C27.2,33.9,27.5,34.1,27.9,34.1z"/>
	</g>
	<g class="st0">
		<path d="M6.4,48.4h2.9v0.3H6.8v2.1h2.1v0.3H6.8v2.5H6.4V48.4z"/>
	</g>
	<g class="st0">
		<path d="M11.2,51.5l-1.6-3.1H10l0.8,1.6c0.2,0.4,0.4,0.8,0.6,1.1l0,0c0.2-0.4,0.4-0.8,0.6-1.1l0.8-1.6h0.4l-1.7,3.1v2.1h-0.4v-2.1
			H11.2z"/>
		<path d="M15.1,53.4c1.7-1.7,2.5-2.7,2.5-3.5c0-0.6-0.3-1.1-1.1-1.1c-0.5,0-0.9,0.3-1.2,0.7l-0.2-0.2c0.4-0.4,0.8-0.8,1.5-0.8
			c0.9,0,1.4,0.6,1.4,1.4c0,1-0.9,2-2.3,3.5c0.3,0,0.6,0,0.9,0h1.7v0.3h-3.1L15.1,53.4L15.1,53.4z"/>
		<path d="M18.9,51.1c0-1.7,0.6-2.6,1.5-2.6c1,0,1.5,0.9,1.5,2.6c0,1.7-0.6,2.7-1.5,2.7S18.9,52.8,18.9,51.1z M21.6,51.1
			c0-1.6-0.5-2.3-1.2-2.3s-1.2,0.8-1.2,2.3c0,1.6,0.5,2.4,1.2,2.4C21.2,53.5,21.6,52.7,21.6,51.1z"/>
		<path d="M23.1,53.4h1.2v-4.2h-0.9V49c0.4-0.1,0.7-0.2,1-0.3h0.3v4.7h1.1v0.3h-2.7C23.1,53.7,23.1,53.4,23.1,53.4z"/>
		<path d="M26.5,52.4c0-0.7,0.5-1.2,1-1.4l0,0c-0.4-0.2-0.7-0.6-0.7-1.2c0-0.7,0.6-1.2,1.3-1.2c0.9,0,1.4,0.6,1.4,1.3
			c0,0.6-0.4,1.1-0.7,1.3l0,0c0.4,0.3,0.9,0.6,0.9,1.3s-0.6,1.3-1.6,1.3C27.2,53.8,26.5,53.2,26.5,52.4z M29.4,52.4
			c0-0.8-0.8-1.1-1.6-1.4c-0.5,0.3-0.9,0.7-0.9,1.3s0.5,1.1,1.3,1.1C28.9,53.5,29.4,53,29.4,52.4z M29.2,49.8c0-0.6-0.4-1-1-1
			s-1,0.4-1,1c0,0.7,0.7,1,1.4,1.3C29,50.6,29.2,50.3,29.2,49.8z"/>
	</g>
	<g class="st0">
		<path d="M6.4,65.2h2.9v0.3H6.8v2.1h2.1v0.3H6.8v2.5H6.4V65.2z"/>
	</g>
	<g class="st0">
		<path d="M11.2,68.4l-1.6-3.1H10l0.8,1.6c0.2,0.4,0.4,0.8,0.6,1.1l0,0c0.2-0.4,0.4-0.8,0.6-1.1l0.8-1.6h0.4l-1.7,3.1v2.1h-0.4v-2.1
			H11.2z"/>
		<path d="M15.1,70.3c1.7-1.7,2.5-2.7,2.5-3.5c0-0.6-0.3-1.1-1.1-1.1c-0.5,0-0.9,0.3-1.2,0.7l-0.2-0.2c0.4-0.4,0.8-0.8,1.5-0.8
			c0.9,0,1.4,0.6,1.4,1.4c0,1-0.9,2-2.3,3.5c0.3,0,0.6,0,0.9,0h1.7v0.3h-3.1L15.1,70.3L15.1,70.3z"/>
		<path d="M18.9,67.9c0-1.7,0.6-2.6,1.5-2.6c1,0,1.5,0.9,1.5,2.6s-0.6,2.7-1.5,2.7S18.9,69.6,18.9,67.9z M21.6,67.9
			c0-1.6-0.5-2.3-1.2-2.3s-1.2,0.8-1.2,2.3c0,1.6,0.5,2.4,1.2,2.4C21.2,70.3,21.6,69.5,21.6,67.9z"/>
		<path d="M23.1,70.2h1.2V66h-0.9v-0.2c0.4-0.1,0.7-0.2,1-0.3h0.3v4.8h1.1v0.3h-2.7C23.1,70.6,23.1,70.2,23.1,70.2z"/>
		<path d="M29.3,65.7h-2.7v-0.3h3.1v0.2c-1.2,1.6-1.5,2.9-1.6,4.9h-0.4C27.8,68.5,28.2,67.2,29.3,65.7z"/>
	</g>
	<g class="st0">
		<path d="M6.4,82.1h2.9v0.3H6.8v2.1h2.1v0.3H6.8v2.6H6.4V82.1z"/>
	</g>
	<g class="st0">
		<path d="M11.2,85.2l-1.6-3.1H10l0.8,1.6c0.2,0.4,0.4,0.8,0.6,1.1l0,0c0.2-0.4,0.4-0.8,0.6-1.1l0.8-1.6h0.4l-1.7,3.1v2.2h-0.4v-2.2
			H11.2z"/>
		<path d="M15.1,87.1c1.7-1.7,2.5-2.7,2.5-3.5c0-0.6-0.3-1.1-1.1-1.1c-0.5,0-0.9,0.3-1.2,0.7L15.1,83c0.4-0.4,0.8-0.8,1.5-0.8
			c0.9,0,1.4,0.6,1.4,1.4c0,1-0.9,2-2.3,3.5c0.3,0,0.6,0,0.9,0h1.7v0.3h-3.1L15.1,87.1L15.1,87.1z"/>
		<path d="M18.9,84.8c0-1.7,0.6-2.6,1.5-2.6c1,0,1.5,0.9,1.5,2.6s-0.6,2.7-1.5,2.7S18.9,86.5,18.9,84.8z M21.6,84.8
			c0-1.6-0.5-2.3-1.2-2.3s-1.2,0.8-1.2,2.3c0,1.6,0.5,2.4,1.2,2.4C21.2,87.1,21.6,86.3,21.6,84.8z"/>
		<path d="M23.1,87h1.2v-4.2h-0.9v-0.2c0.4-0.1,0.7-0.2,1-0.3h0.3v4.8h1.1v0.3h-2.7C23.1,87.4,23.1,87,23.1,87z"/>
		<path d="M26.6,85c0-2.1,0.9-2.9,1.9-2.9c0.5,0,0.8,0.2,1.1,0.5l-0.2,0.2c-0.2-0.3-0.5-0.4-0.9-0.4c-0.8,0-1.5,0.7-1.5,2.5
			c0.4-0.4,0.8-0.7,1.3-0.7c0.9,0,1.4,0.6,1.4,1.6c0,0.9-0.6,1.6-1.4,1.6C27.3,87.5,26.6,86.6,26.6,85z M27,85.3
			c0.1,1.1,0.5,1.8,1.3,1.8c0.6,0,1-0.6,1-1.3s-0.3-1.3-1.1-1.3C27.9,84.6,27.4,84.8,27,85.3z"/>
	</g>
	<g class="st0">
		<path d="M6.4,98.9h2.9v0.3H6.8v2.1h2.1v0.3H6.8v2.5H6.4V98.9z"/>
	</g>
	<g class="st0">
		<path d="M11.2,102.1L9.6,99H10l0.8,1.6c0.2,0.4,0.4,0.8,0.6,1.1l0,0c0.2-0.4,0.4-0.8,0.6-1.1l0.8-1.6h0.4l-1.6,3.1v2.1h-0.4
			C11.2,104.2,11.2,102.1,11.2,102.1z"/>
		<path d="M15.1,104c1.7-1.7,2.5-2.7,2.5-3.5c0-0.6-0.3-1.1-1.1-1.1c-0.5,0-0.9,0.3-1.2,0.7l-0.2-0.2c0.4-0.4,0.8-0.8,1.5-0.8
			c0.9,0,1.4,0.6,1.4,1.4c0,1-0.9,2-2.3,3.5c0.3,0,0.6,0,0.9,0h1.7v0.3h-3.1L15.1,104L15.1,104z"/>
		<path d="M18.9,101.6c0-1.7,0.6-2.6,1.5-2.6c1,0,1.5,0.9,1.5,2.6s-0.6,2.7-1.5,2.7C19.5,104.3,18.9,103.3,18.9,101.6z M21.6,101.6
			c0-1.6-0.5-2.3-1.2-2.3s-1.2,0.8-1.2,2.3c0,1.6,0.5,2.4,1.2,2.4C21.2,104,21.6,103.2,21.6,101.6z"/>
		<path d="M23.1,103.9h1.2v-4.2h-0.9v-0.3c0.4-0.1,0.7-0.2,1-0.3h0.3v4.8h1.1v0.3h-2.7C23.1,104.2,23.1,103.9,23.1,103.9z"/>
		<path d="M26.4,103.6l0.2-0.2c0.3,0.3,0.7,0.6,1.4,0.6s1.3-0.6,1.3-1.4s-0.5-1.3-1.2-1.3c-0.4,0-0.6,0.1-1,0.3l-0.2-0.2l0.2-2.4
			h2.4v0.3h-2l-0.2,1.8c0.3-0.2,0.5-0.3,0.9-0.3c0.9,0,1.6,0.5,1.6,1.6s-0.8,1.7-1.6,1.7C27.2,104.3,26.8,103.9,26.4,103.6z"/>
	</g>
	<rect x="34.3" y="29.4" class="st2" width="61.1" height="8.9"/>
	<rect x="34.3" y="46.2" class="st3" width="165.8" height="8.9"/>
	<rect x="34.3" y="63.1" class="st3" width="89.7" height="8.9"/>
	<rect x="34.3" y="79.9" class="st3" width="78.6" height="8.9"/>
	<rect x="34.3" y="96.7" class="st3" width="78.6" height="8.9"/>
</g>
</svg>
