<?xml version="1.0" encoding="utf-8"?>
<!-- Generator: Adobe Illustrator 23.0.3, SVG Export Plug-In . SVG Version: 6.00 Build 0)  -->
<svg version="1.1" id="Layer_1" xmlns="http://www.w3.org/2000/svg" xmlns:xlink="http://www.w3.org/1999/xlink" x="0px" y="0px"
	 viewBox="0 0 243.4 113.7" style="enable-background:new 0 0 243.4 113.7;" xml:space="preserve">
<style type="text/css">
	.st0{enable-background:new    ;}
	.st1{fill:none;stroke:#000000;stroke-width:0.25;}
	.st2{fill:#55371E;}
	.st3{fill:#ABD693;}
</style>
<g>
	<g class="st0">
		<path d="M1.3,0.3h1.4l1.5,3l0.6,1.3l0,0C4.7,4,4.6,3.2,4.6,2.5V0.3h1.3v5.9H4.5L3,3.3L2.4,2l0,0c0.1,0.6,0.2,1.4,0.2,2.1v2.1H1.3
			V0.3z"/>
		<path d="M7.3,0.3H11v1.1H8.7v1.2h2v1.1h-2v1.4h2.4v1.1H7.3C7.3,6.2,7.3,0.3,7.3,0.3z"/>
		<path d="M13.4,1.5h-1.6V0.3h4.6v1.1h-1.6v4.8h-1.3V1.5H13.4z"/>
		<path d="M18.5,0.3h1.4l0.3,2.8c0.1,0.6,0.2,1.2,0.2,1.9l0,0c0.1-0.6,0.2-1.2,0.4-1.9l0.6-2.7h1.1l0.6,2.7c0.1,0.6,0.2,1.2,0.4,1.9
			l0,0c0.1-0.6,0.2-1.3,0.2-1.9l0.4-2.7h1.3l-1,5.9h-1.7l-0.6-2.7c-0.1-0.5-0.2-0.9-0.2-1.4l0,0c-0.1,0.4-0.1,0.9-0.2,1.4l-0.5,2.6
			h-1.6L18.5,0.3z"/>
		<path d="M26.1,3.3c0-1.9,1.1-3,2.7-3s2.7,1.1,2.7,3s-1.1,3.1-2.7,3.1S26.1,5.2,26.1,3.3z M30.1,3.3c0-1.2-0.5-1.9-1.3-1.9
			s-1.3,0.7-1.3,1.9s0.5,1.9,1.3,1.9S30.1,4.4,30.1,3.3z"/>
	</g>
	<g class="st0">
		<path d="M32.5,0.3h2.1c1.2,0,2.3,0.4,2.3,1.8c0,0.9-0.4,1.4-1,1.7l1.3,2.3h-1.5L34.6,4h-0.7v2.1h-1.3L32.5,0.3L32.5,0.3z M34.5,3
			c0.7,0,1.1-0.3,1.1-0.9s-0.4-0.7-1.1-0.7h-0.7V3H34.5z"/>
	</g>
	<g class="st0">
		<path d="M39.1,1.5h-1.6V0.3h4.6v1.1h-1.6v4.8h-1.3V1.5H39.1z"/>
		<path d="M42.9,0.3h1.3v2.3h2V0.3h1.3v5.9h-1.3V3.8h-2v2.4h-1.3V0.3z"/>
	</g>
	<g class="st0">
		<path d="M1.2,12.4c0-1.1,0.3-2.1,0.9-2.9l0.2,0.1c-0.6,0.8-0.8,1.8-0.8,2.8s0.3,2,0.8,2.8l-0.2,0.2C1.5,14.5,1.2,13.6,1.2,12.4z"
			/>
		<path d="M2.9,12.1h0.5c0.8,0,1.2-0.3,1.2-0.9H2.9V11h0.4h1.2c-0.1-0.5-0.5-0.7-1.2-0.7H2.8v-0.2h2.4v0.2h-1
			c0.3,0.1,0.5,0.4,0.5,0.7h0.4v0.2H4.7c0,0.7-0.5,1.1-1.1,1.2l1.3,1.8H4.5l-1-1.8H3v-0.3H2.9z"/>
		<path d="M7.4,10.1c0-0.1,0.1-0.3,0.2-0.3s0.2,0.1,0.2,0.3c0,0.2-0.1,0.3-0.2,0.3S7.4,10.2,7.4,10.1z M7.5,11.1h0.3v3.1H7.5V11.1z"
			/>
		<path d="M9,11.1h0.2v0.5l0,0c0.3-0.3,0.6-0.6,1.1-0.6c0.6,0,0.9,0.4,0.9,1.2v2h-0.3v-2c0-0.7-0.2-1-0.7-1c-0.4,0-0.6,0.2-1,0.6
			v2.4H8.9L9,11.1L9,11.1z"/>
		<path d="M13.5,12.1c0-1.4,0.7-2.2,1.8-2.2c0.5,0,0.9,0.2,1.1,0.5l-0.2,0.2c-0.2-0.3-0.5-0.4-0.9-0.4c-0.9,0-1.5,0.7-1.5,1.9
			s0.6,2,1.5,2c0.4,0,0.8-0.2,1.1-0.5l0.2,0.2c-0.3,0.4-0.7,0.6-1.3,0.6C14.2,14.3,13.5,13.4,13.5,12.1z"/>
	</g>
	<g class="st0">
		<path d="M17.3,11.1h0.2v0.6l0,0c0.2-0.4,0.5-0.7,0.9-0.7c0.1,0,0.2,0,0.3,0.1l-0.1,0.3c-0.1,0-0.2-0.1-0.3-0.1
			c-0.3,0-0.6,0.2-0.9,0.8v2.1h-0.3v-3.1H17.3z"/>
	</g>
	<g class="st0">
		<path d="M19.1,12.7c0-1,0.7-1.6,1.4-1.6c0.8,0,1.4,0.6,1.4,1.6s-0.6,1.6-1.4,1.6S19.1,13.7,19.1,12.7z M21.6,12.7
			c0-0.8-0.5-1.4-1.1-1.4s-1.1,0.6-1.1,1.4s0.5,1.4,1.1,1.4C21.1,14,21.6,13.5,21.6,12.7z"/>
	</g>
	<g class="st0">
		<path d="M22.8,11.1H23v0.6l0,0c0.2-0.4,0.5-0.7,0.9-0.7c0.1,0,0.2,0,0.3,0.1l-0.1,0.3c-0.1,0-0.2-0.1-0.3-0.1
			c-0.3,0-0.6,0.2-0.9,0.8v2.1h-0.3v-3.1H22.8z"/>
	</g>
	<g class="st0">
		<path d="M24.6,12.7c0-1,0.7-1.6,1.4-1.6s1.2,0.5,1.2,1.4c0,0.1,0,0.2,0,0.2H25c0,0.8,0.5,1.4,1.2,1.4c0.3,0,0.6-0.1,0.8-0.3
			l0.1,0.2c-0.2,0.1-0.5,0.3-1,0.3C25.2,14.3,24.6,13.7,24.6,12.7z M26.9,12.5c0-0.8-0.4-1.2-0.9-1.2s-1,0.4-1.1,1.2H26.9z"/>
		<path d="M27.6,15.2c0.5-0.8,0.8-1.8,0.8-2.8s-0.3-2-0.8-2.8l0.2-0.1c0.5,0.9,0.9,1.8,0.9,2.9s-0.3,2.1-0.9,2.9L27.6,15.2z"/>
	</g>
	<line class="st1" x1="0.7" y1="23.1" x2="242.8" y2="23.1"/>
	<line class="st1" x1="0.7" y1="113.5" x2="242.8" y2="113.5"/>
	<g class="st0">
		<path d="M217.5,35.9l0.5-0.7c0.3,0.3,0.7,0.5,1.1,0.5c0.5,0,0.8-0.2,0.8-0.6c0-0.4-0.3-0.7-1.4-0.7v-0.8c0.9,0,1.2-0.3,1.2-0.7
			s-0.2-0.6-0.6-0.6c-0.4,0-0.6,0.2-1,0.4l-0.6-0.7c0.5-0.4,1-0.6,1.6-0.6c1,0,1.8,0.5,1.8,1.4c0,0.5-0.3,0.9-0.8,1.1l0,0
			c0.6,0.2,1,0.6,1,1.2c0,0.9-0.9,1.5-1.9,1.5C218.4,36.6,217.8,36.4,217.5,35.9z"/>
		<path d="M221.7,35.9l0.5-0.7c0.3,0.3,0.7,0.5,1.1,0.5c0.5,0,0.8-0.2,0.8-0.6c0-0.4-0.3-0.7-1.4-0.7v-0.8c0.9,0,1.2-0.3,1.2-0.7
			s-0.2-0.6-0.6-0.6c-0.4,0-0.6,0.2-1,0.4l-0.6-0.7c0.5-0.4,1-0.6,1.6-0.6c1,0,1.8,0.5,1.8,1.4c0,0.5-0.3,0.9-0.8,1.1l0,0
			c0.6,0.2,1,0.6,1,1.2c0,0.9-0.9,1.5-1.9,1.5C222.6,36.6,222.1,36.4,221.7,35.9z"/>
		<path d="M226.1,37.5c0.6-0.2,0.9-0.6,0.9-1c0,0,0,0-0.1,0c-0.4,0-0.7-0.2-0.7-0.7c0-0.4,0.3-0.7,0.7-0.7c0.5,0,0.8,0.4,0.8,1.1
			c0,0.9-0.5,1.5-1.4,1.8L226.1,37.5z"/>
		<path d="M228.5,34.1c0-1.9,1-2.8,2.1-2.8c0.7,0,1.2,0.3,1.5,0.6l-0.6,0.7c-0.2-0.2-0.5-0.4-0.8-0.4c-0.6,0-1,0.4-1,1.6
			c0.3-0.3,0.7-0.5,1-0.5c0.9,0,1.5,0.5,1.5,1.6s-0.8,1.7-1.7,1.7C229.4,36.6,228.5,35.9,228.5,34.1z M229.6,34.7
			c0.1,0.8,0.4,1.1,0.8,1.1c0.4,0,0.6-0.2,0.6-0.8c0-0.5-0.3-0.7-0.7-0.7C230.1,34.2,229.8,34.3,229.6,34.7z"/>
		<path d="M232.7,34c0-1.7,0.7-2.6,1.8-2.6s1.8,0.9,1.8,2.6s-0.7,2.7-1.8,2.7S232.7,35.7,232.7,34z M235.2,34c0-1.4-0.3-1.7-0.7-1.7
			s-0.7,0.3-0.7,1.7s0.3,1.7,0.7,1.7S235.2,35.4,235.2,34z"/>
		<path d="M236.8,35.9l0.5-0.7c0.3,0.3,0.7,0.5,1.1,0.5c0.5,0,0.9-0.3,0.9-0.8s-0.3-0.8-0.8-0.8c-0.3,0-0.4,0.1-0.8,0.3l-0.5-0.3
			l0.1-2.6h2.9v1h-1.9l-0.1,1c0.2-0.1,0.4-0.1,0.6-0.1c0.9,0,1.6,0.5,1.6,1.6s-0.9,1.8-1.9,1.8C237.7,36.6,237.2,36.3,236.8,35.9z"
			/>
	</g>
	<g class="st0">
		<path d="M220.1,52.8l0.2-0.2c0.3,0.3,0.7,0.7,1.4,0.7s1.2-0.4,1.2-1.1c0-0.7-0.5-1.2-1.8-1.2v-0.3c1.2,0,1.6-0.5,1.6-1.1
			s-0.4-1-1-1c-0.5,0-0.9,0.2-1.2,0.6l-0.2-0.2c0.4-0.3,0.8-0.6,1.4-0.6c0.8,0,1.4,0.4,1.4,1.2c0,0.7-0.4,1.1-1,1.3l0,0
			c0.6,0.1,1.2,0.6,1.2,1.3c0,0.9-0.7,1.4-1.6,1.4C220.9,53.5,220.5,53.1,220.1,52.8z"/>
		<path d="M223.9,52.8l0.2-0.2c0.3,0.3,0.7,0.6,1.4,0.6s1.3-0.6,1.3-1.4c0-0.8-0.5-1.3-1.2-1.3c-0.4,0-0.6,0.1-1,0.3l-0.2-0.2
			l0.2-2.4h2.4v0.3h-2l-0.2,1.8c0.3-0.2,0.5-0.3,0.9-0.3c0.9,0,1.6,0.5,1.6,1.6s-0.8,1.7-1.6,1.7C224.7,53.5,224.3,53.1,223.9,52.8z
			"/>
		<path d="M227.9,54.4c0.4-0.2,0.6-0.5,0.6-1h-0.1c-0.2,0-0.3-0.1-0.3-0.3s0.2-0.3,0.3-0.3c0.2,0,0.4,0.2,0.4,0.6
			c0,0.6-0.3,1-0.8,1.3L227.9,54.4z"/>
		<path d="M229.8,53l0.2-0.2c0.2,0.3,0.5,0.4,0.9,0.4c0.8,0,1.5-0.7,1.5-2.5c-0.4,0.4-0.8,0.7-1.3,0.7c-0.9,0-1.4-0.6-1.4-1.6
			c0-0.9,0.6-1.6,1.4-1.6c1,0,1.7,0.9,1.7,2.4c0,2.1-0.9,2.9-1.9,2.9C230.4,53.5,230,53.3,229.8,53z M231.1,51.1
			c0.4,0,0.8-0.2,1.2-0.8c-0.1-1.1-0.5-1.8-1.3-1.8c-0.6,0-1,0.6-1,1.3C230,50.5,230.3,51.1,231.1,51.1z"/>
		<path d="M233.4,52.8l0.2-0.2c0.3,0.3,0.7,0.7,1.4,0.7s1.2-0.4,1.2-1.1c0-0.7-0.5-1.2-1.8-1.2v-0.3c1.2,0,1.6-0.5,1.6-1.1
			s-0.4-1-1-1c-0.5,0-0.9,0.2-1.2,0.6l-0.2-0.2c0.4-0.3,0.8-0.6,1.4-0.6c0.8,0,1.4,0.4,1.4,1.2c0,0.7-0.4,1.1-1,1.3l0,0
			c0.6,0.1,1.2,0.6,1.2,1.3c0,0.9-0.7,1.4-1.6,1.4C234.2,53.5,233.7,53.1,233.4,52.8z"/>
		<path d="M237.3,53.2c1.7-1.7,2.5-2.7,2.5-3.5c0-0.6-0.3-1.1-1.1-1.1c-0.5,0-0.9,0.3-1.2,0.7l-0.2-0.2c0.4-0.4,0.8-0.8,1.5-0.8
			c0.9,0,1.4,0.6,1.4,1.4c0,1-0.9,2-2.3,3.5c0.3,0,0.6,0,0.9,0h1.7v0.2h-3.1L237.3,53.2L237.3,53.2z"/>
	</g>
	<g class="st0">
		<path d="M220.1,69.6l0.2-0.2c0.3,0.3,0.7,0.7,1.4,0.7s1.2-0.4,1.2-1.1s-0.5-1.2-1.8-1.2v-0.4c1.2,0,1.6-0.5,1.6-1.1s-0.4-1-1-1
			c-0.5,0-0.9,0.2-1.2,0.6l-0.2-0.2c0.4-0.3,0.8-0.6,1.4-0.6c0.8,0,1.4,0.4,1.4,1.2c0,0.7-0.4,1.1-1,1.3l0,0
			c0.6,0.1,1.2,0.6,1.2,1.3c0,0.9-0.7,1.4-1.6,1.4C220.9,70.3,220.5,69.9,220.1,69.6z"/>
		<path d="M224.1,67.7c0-1.7,0.6-2.6,1.5-2.6s1.5,0.9,1.5,2.6s-0.6,2.7-1.5,2.7S224.1,69.4,224.1,67.7z M226.8,67.7
			c0-1.6-0.5-2.3-1.2-2.3s-1.2,0.8-1.2,2.3c0,1.6,0.5,2.4,1.2,2.4C226.4,70,226.8,69.2,226.8,67.7z"/>
		<path d="M227.9,71.2c0.4-0.2,0.6-0.5,0.6-1h-0.1c-0.2,0-0.3-0.1-0.3-0.3c0-0.2,0.2-0.3,0.3-0.3c0.2,0,0.4,0.2,0.4,0.6
			c0,0.6-0.3,1-0.8,1.3L227.9,71.2z"/>
		<path d="M229.6,68.9c0-0.7,0.5-1.2,1-1.4l0,0c-0.4-0.2-0.7-0.6-0.7-1.2c0-0.7,0.6-1.2,1.3-1.2c0.9,0,1.4,0.6,1.4,1.3
			c0,0.6-0.4,1.1-0.7,1.3l0,0c0.4,0.3,0.9,0.6,0.9,1.3c0,0.7-0.6,1.3-1.6,1.3C230.3,70.3,229.6,69.7,229.6,68.9z M232.5,69
			c0-0.8-0.8-1.1-1.6-1.4c-0.5,0.3-0.9,0.7-0.9,1.3c0,0.6,0.5,1.1,1.3,1.1C232,70,232.5,69.6,232.5,69z M232.3,66.4c0-0.6-0.4-1-1-1
			s-1,0.4-1,1c0,0.7,0.7,1,1.4,1.3C232.1,67.2,232.3,66.8,232.3,66.4z"/>
		<path d="M233.5,67.7c0-1.7,0.6-2.6,1.5-2.6c1,0,1.5,0.9,1.5,2.6s-0.6,2.7-1.5,2.7C234.1,70.3,233.5,69.4,233.5,67.7z M236.2,67.7
			c0-1.6-0.5-2.3-1.2-2.3s-1.2,0.8-1.2,2.3c0,1.6,0.5,2.4,1.2,2.4C235.8,70,236.2,69.2,236.2,67.7z"/>
		<path d="M237.2,69.6l0.2-0.2c0.3,0.3,0.7,0.6,1.4,0.6s1.3-0.6,1.3-1.4s-0.5-1.3-1.2-1.3c-0.4,0-0.6,0.1-1,0.3l-0.2-0.2l0.2-2.4
			h2.4v0.4h-2l-0.2,1.8c0.3-0.2,0.5-0.3,0.9-0.3c0.9,0,1.6,0.5,1.6,1.6s-0.8,1.7-1.6,1.7C238,70.3,237.5,70,237.2,69.6z"/>
	</g>
	<g class="st0">
		<path d="M220.1,86.4l0.2-0.2c0.3,0.3,0.7,0.7,1.4,0.7s1.2-0.4,1.2-1.1s-0.5-1.2-1.8-1.2v-0.3c1.2,0,1.6-0.5,1.6-1.1s-0.4-1-1-1
			c-0.5,0-0.9,0.2-1.2,0.6l-0.2-0.2c0.4-0.3,0.8-0.6,1.4-0.6c0.8,0,1.4,0.4,1.4,1.2c0,0.7-0.4,1.1-1,1.3l0,0
			c0.6,0.1,1.2,0.6,1.2,1.3c0,0.9-0.7,1.4-1.6,1.4C220.9,87.2,220.5,86.8,220.1,86.4z"/>
		<path d="M226.8,82.3h-2.7V82h3.1v0.2c-1.2,1.6-1.5,2.9-1.6,4.9h-0.4C225.3,85,225.7,83.7,226.8,82.3z"/>
		<path d="M227.9,88.1c0.4-0.2,0.6-0.5,0.6-1h-0.1c-0.2,0-0.3-0.1-0.3-0.3c0-0.2,0.2-0.3,0.3-0.3c0.2,0,0.4,0.2,0.4,0.6
			c0,0.6-0.3,1-0.8,1.3L227.9,88.1z"/>
		<path d="M229.5,86.4l0.2-0.2c0.3,0.3,0.7,0.7,1.4,0.7s1.2-0.4,1.2-1.1s-0.5-1.2-1.8-1.2v-0.3c1.2,0,1.6-0.5,1.6-1.1s-0.4-1-1-1
			c-0.5,0-0.9,0.2-1.2,0.6l-0.2-0.2c0.4-0.3,0.8-0.6,1.4-0.6c0.8,0,1.4,0.4,1.4,1.2c0,0.7-0.4,1.1-1,1.3l0,0
			c0.6,0.1,1.2,0.6,1.2,1.3c0,0.9-0.7,1.4-1.6,1.4C230.4,87.2,229.9,86.8,229.5,86.4z"/>
		<path d="M233.5,85.8c0-0.7,0.5-1.2,1-1.4l0,0c-0.4-0.2-0.7-0.6-0.7-1.2c0-0.7,0.6-1.2,1.3-1.2c0.9,0,1.4,0.6,1.4,1.3
			c0,0.6-0.4,1.1-0.7,1.3l0,0c0.4,0.3,0.9,0.6,0.9,1.3c0,0.7-0.6,1.3-1.6,1.3C234.2,87.2,233.5,86.6,233.5,85.8z M236.3,85.8
			c0-0.8-0.8-1.1-1.6-1.4c-0.5,0.3-0.9,0.7-0.9,1.3c0,0.6,0.5,1.1,1.3,1.1C235.8,86.9,236.3,86.4,236.3,85.8z M236.1,83.2
			c0-0.6-0.4-1-1-1s-1,0.4-1,1c0,0.7,0.7,1,1.4,1.3C235.9,84,236.1,83.7,236.1,83.2z"/>
		<path d="M237.2,86.5l0.2-0.2c0.3,0.3,0.7,0.6,1.4,0.6s1.3-0.6,1.3-1.4s-0.5-1.3-1.2-1.3c-0.4,0-0.6,0.1-1,0.3l-0.2-0.2l0.2-2.4
			h2.4v0.3h-2l-0.2,1.8c0.3-0.2,0.5-0.3,0.9-0.3c0.9,0,1.6,0.5,1.6,1.6S239.8,87,239,87C238,87.2,237.5,86.8,237.2,86.5z"/>
	</g>
	<g class="st0">
		<path d="M222.4,102.4H220v-0.2l2.4-3.4h0.3v3.3h0.8v0.3h-0.8v1.5h-0.3V102.4z M222.4,102.1v-1.9c0-0.2,0-0.6,0-0.9l0,0
			c-0.1,0.2-0.3,0.4-0.4,0.6l-1.5,2.1h1.9V102.1z"/>
		<path d="M226.2,102.4h-2.4v-0.2l2.4-3.4h0.3v3.3h0.8v0.3h-0.8v1.5h-0.3V102.4z M226.2,102.1v-1.9c0-0.2,0-0.6,0-0.9l0,0
			c-0.1,0.2-0.3,0.4-0.4,0.6l-1.5,2.1h1.9V102.1z"/>
		<path d="M227.9,104.9c0.4-0.2,0.6-0.5,0.6-1h-0.1c-0.2,0-0.3-0.1-0.3-0.3c0-0.2,0.2-0.3,0.3-0.3c0.2,0,0.4,0.2,0.4,0.6
			c0,0.6-0.3,1-0.8,1.3L227.9,104.9z"/>
		<path d="M229.7,101.6c0-2.1,0.9-2.9,1.9-2.9c0.5,0,0.8,0.2,1.1,0.5l-0.2,0.2c-0.2-0.3-0.5-0.4-0.9-0.4c-0.8,0-1.5,0.7-1.5,2.5
			c0.4-0.4,0.8-0.7,1.3-0.7c0.9,0,1.4,0.6,1.4,1.6c0,0.9-0.6,1.6-1.4,1.6C230.4,104,229.7,103.1,229.7,101.6z M230.1,101.9
			c0.1,1.1,0.5,1.8,1.3,1.8c0.6,0,1-0.6,1-1.3c0-0.7-0.3-1.3-1.1-1.3C231,101.1,230.5,101.3,230.1,101.9z"/>
		<path d="M233.5,103.7c1.7-1.7,2.5-2.7,2.5-3.5c0-0.6-0.3-1.1-1.1-1.1c-0.5,0-0.9,0.3-1.2,0.7l-0.2-0.2c0.4-0.4,0.8-0.8,1.5-0.8
			c0.9,0,1.4,0.6,1.4,1.4c0,1-0.9,2-2.3,3.5c0.3,0,0.6,0,0.9,0h1.7v0.3h-3.1L233.5,103.7L233.5,103.7z"/>
		<path d="M237.7,103.6h1.2v-4.2H238v-0.2c0.4-0.1,0.7-0.2,1-0.3h0.3v4.8h1.1v0.3h-2.7L237.7,103.6L237.7,103.6z"/>
	</g>
	<g class="st0">
		<path d="M3.7,31.3H7v1H4.9v1.2h1.8v1H4.9v2H3.7C3.7,36.5,3.7,31.3,3.7,31.3z"/>
	</g>
	<g class="st0">
		<path d="M8.7,34.7l-1.6-3.4h1.3l0.5,1.2c0.1,0.4,0.3,0.8,0.4,1.2l0,0c0.2-0.4,0.3-0.8,0.4-1.2l0.5-1.2h1.2l-1.6,3.4v1.9H8.6v-1.9
			H8.7z"/>
		<path d="M13.3,35.9c1.3-1.2,2.2-2.1,2.2-2.8c0-0.5-0.3-0.8-0.7-0.8c-0.4,0-0.6,0.2-0.9,0.5l-0.7-0.6c0.5-0.5,1-0.8,1.7-0.8
			c1,0,1.7,0.6,1.7,1.6c0,0.9-0.8,1.8-1.6,2.6c0.3,0,0.6-0.1,0.8-0.1h1v1h-3.6v-0.6H13.3z"/>
		<path d="M17.5,34c0-1.7,0.7-2.6,1.8-2.6s1.8,0.9,1.8,2.6s-0.7,2.7-1.8,2.7S17.5,35.7,17.5,34z M20,34c0-1.4-0.3-1.7-0.7-1.7
			c-0.4,0-0.7,0.3-0.7,1.7s0.3,1.7,0.7,1.7S20,35.4,20,34z"/>
		<path d="M22,35.6h1.1v-2.9h-1V32c0.6-0.1,0.9-0.2,1.3-0.5h0.8v4.1h1v1H22V35.6z"/>
		<path d="M26,36l0.6-0.7c0.2,0.2,0.5,0.4,0.8,0.4c0.6,0,1-0.4,1-1.6c-0.3,0.3-0.7,0.5-1,0.5c-0.9,0-1.5-0.5-1.5-1.6
			s0.8-1.7,1.7-1.7c1,0,1.9,0.7,1.9,2.5c0,1.9-1,2.8-2.1,2.8C26.8,36.6,26.3,36.4,26,36z M27.6,33.8c0.3,0,0.6-0.1,0.8-0.5
			c-0.1-0.8-0.4-1.1-0.8-1.1c-0.3,0-0.6,0.2-0.6,0.8C27,33.6,27.3,33.8,27.6,33.8z"/>
	</g>
	<g class="st0">
		<path d="M6.2,48.1h2.9v0.3H6.6v2.1h2.1v0.3H6.6v2.6H6.2V48.1z"/>
	</g>
	<g class="st0">
		<path d="M10.9,51.3l-1.6-3.1h0.4l0.8,1.6c0.2,0.4,0.4,0.8,0.6,1.1l0,0c0.2-0.4,0.4-0.8,0.6-1.1l0.8-1.6h0.4l-1.6,3.1v2.1h-0.4
			C10.9,53.4,10.9,51.3,10.9,51.3z"/>
		<path d="M14.8,53.2c1.7-1.7,2.5-2.7,2.5-3.5c0-0.6-0.3-1.1-1.1-1.1c-0.5,0-0.9,0.3-1.2,0.7l-0.2-0.2c0.4-0.4,0.8-0.8,1.5-0.8
			c0.9,0,1.4,0.6,1.4,1.4c0,1-0.9,2-2.3,3.5c0.3,0,0.6,0,0.9,0H18v0.2h-3.1L14.8,53.2L14.8,53.2z"/>
		<path d="M18.7,50.8c0-1.7,0.6-2.6,1.5-2.6c1,0,1.5,0.9,1.5,2.6c0,1.7-0.6,2.7-1.5,2.7C19.3,53.5,18.7,52.5,18.7,50.8z M21.4,50.8
			c0-1.6-0.5-2.3-1.2-2.3S19,49.3,19,50.8c0,1.6,0.5,2.4,1.2,2.4C21,53.2,21.4,52.4,21.4,50.8z"/>
		<path d="M22.8,53.1H24v-4.2h-0.9v-0.2c0.4-0.1,0.7-0.2,1-0.3h0.3v4.8h1.1v0.2h-2.7C22.8,53.4,22.8,53.1,22.8,53.1z"/>
		<path d="M26.3,52.1c0-0.7,0.5-1.2,1-1.4l0,0c-0.4-0.2-0.7-0.6-0.7-1.2c0-0.7,0.6-1.2,1.3-1.2c0.9,0,1.4,0.6,1.4,1.3
			c0,0.6-0.4,1.1-0.7,1.3l0,0c0.4,0.3,0.9,0.6,0.9,1.3s-0.6,1.3-1.6,1.3C27,53.5,26.3,52.9,26.3,52.1z M29.1,52.1
			c0-0.8-0.8-1.1-1.6-1.4C27,51,26.6,51.4,26.6,52s0.5,1.1,1.3,1.1C28.7,53.2,29.1,52.7,29.1,52.1z M29,49.5c0-0.6-0.4-1-1-1
			s-1,0.4-1,1c0,0.7,0.7,1,1.4,1.3C28.7,50.4,29,50,29,49.5z"/>
	</g>
	<g class="st0">
		<path d="M6.2,65h2.9v0.3H6.6v2.1h2.1v0.3H6.6v2.5H6.2V65z"/>
	</g>
	<g class="st0">
		<path d="M10.9,68.1L9.3,65h0.4l0.8,1.6c0.2,0.4,0.4,0.8,0.6,1.1l0,0c0.2-0.4,0.4-0.8,0.6-1.1l0.8-1.6h0.4l-1.6,3.1v2.1h-0.4
			C10.9,70.2,10.9,68.1,10.9,68.1z"/>
		<path d="M14.8,70c1.7-1.7,2.5-2.7,2.5-3.5c0-0.6-0.3-1.1-1.1-1.1c-0.5,0-0.9,0.3-1.2,0.7l-0.2-0.2c0.4-0.4,0.8-0.8,1.5-0.8
			c0.9,0,1.4,0.6,1.4,1.4c0,1-0.9,2-2.3,3.5c0.3,0,0.6,0,0.9,0H18v0.3h-3.1L14.8,70L14.8,70z"/>
		<path d="M18.7,67.7c0-1.7,0.6-2.6,1.5-2.6c1,0,1.5,0.9,1.5,2.6s-0.6,2.7-1.5,2.7C19.3,70.3,18.7,69.4,18.7,67.7z M21.4,67.7
			c0-1.6-0.5-2.3-1.2-2.3S19,66.2,19,67.7c0,1.6,0.5,2.4,1.2,2.4C21,70,21.4,69.2,21.4,67.7z"/>
		<path d="M22.8,69.9H24v-4.2h-0.9v-0.3c0.4-0.1,0.7-0.2,1-0.3h0.3v4.8h1.1v0.3h-2.7C22.8,70.2,22.8,69.9,22.8,69.9z"/>
		<path d="M29,65.4h-2.7v-0.3h3.1v0.2c-1.2,1.6-1.5,2.9-1.6,4.9h-0.4C27.6,68.2,28,66.9,29,65.4z"/>
	</g>
	<g class="st0">
		<path d="M6.2,81.8h2.9v0.3H6.6v2.1h2.1v0.3H6.6V87H6.2V81.8z"/>
	</g>
	<g class="st0">
		<path d="M10.9,84.9l-1.6-3.1h0.4l0.8,1.6c0.2,0.4,0.4,0.8,0.6,1.1l0,0c0.2-0.4,0.4-0.8,0.6-1.1l0.8-1.6h0.4l-1.6,3.1V87h-0.4
			C10.9,87,10.9,84.9,10.9,84.9z"/>
		<path d="M14.8,86.8c1.7-1.7,2.5-2.7,2.5-3.5c0-0.6-0.3-1.1-1.1-1.1c-0.5,0-0.9,0.3-1.2,0.7l-0.2-0.2c0.4-0.4,0.8-0.8,1.5-0.8
			c0.9,0,1.4,0.6,1.4,1.4c0,1-0.9,2-2.3,3.5c0.3,0,0.6,0,0.9,0H18v0.3h-3.1L14.8,86.8L14.8,86.8z"/>
		<path d="M18.7,84.5c0-1.7,0.6-2.6,1.5-2.6c1,0,1.5,0.9,1.5,2.6s-0.6,2.7-1.5,2.7C19.3,87.2,18.7,86.2,18.7,84.5z M21.4,84.5
			c0-1.6-0.5-2.3-1.2-2.3S19,83,19,84.5c0,1.6,0.5,2.4,1.2,2.4C21,86.9,21.4,86.1,21.4,84.5z"/>
		<path d="M22.8,86.8H24v-4.2h-0.9v-0.2c0.4-0.1,0.7-0.2,1-0.3h0.3v4.8h1.1v0.3h-2.7C22.8,87.2,22.8,86.8,22.8,86.8z"/>
		<path d="M26.4,84.8c0-2.1,0.9-2.9,1.9-2.9c0.5,0,0.8,0.2,1.1,0.5l-0.2,0.2c-0.2-0.3-0.5-0.4-0.9-0.4c-0.8,0-1.5,0.7-1.5,2.5
			c0.4-0.4,0.8-0.7,1.3-0.7c0.9,0,1.4,0.6,1.4,1.6c0,0.9-0.6,1.6-1.4,1.6C27.1,87.2,26.4,86.3,26.4,84.8z M26.8,85.1
			c0.1,1.1,0.5,1.8,1.3,1.8c0.6,0,1-0.6,1-1.3c0-0.7-0.3-1.3-1.1-1.3C27.7,84.3,27.2,84.5,26.8,85.1z"/>
	</g>
	<g class="st0">
		<path d="M6.2,98.6h2.9v0.3H6.6v2.1h2.1v0.3H6.6v2.5H6.2V98.6z"/>
	</g>
	<g class="st0">
		<path d="M10.9,101.8l-1.6-3.1h0.4l0.8,1.6c0.2,0.4,0.4,0.8,0.6,1.1l0,0c0.2-0.4,0.4-0.8,0.6-1.1l0.8-1.6h0.4l-1.6,3.1v2.1h-0.4
			C10.9,103.9,10.9,101.8,10.9,101.8z"/>
		<path d="M14.8,103.7c1.7-1.7,2.5-2.7,2.5-3.5c0-0.6-0.3-1.1-1.1-1.1c-0.5,0-0.9,0.3-1.2,0.7l-0.2-0.2c0.4-0.4,0.8-0.8,1.5-0.8
			c0.9,0,1.4,0.6,1.4,1.4c0,1-0.9,2-2.3,3.5c0.3,0,0.6,0,0.9,0H18v0.3h-3.1L14.8,103.7L14.8,103.7z"/>
		<path d="M18.7,101.3c0-1.7,0.6-2.6,1.5-2.6c1,0,1.5,0.9,1.5,2.6s-0.6,2.7-1.5,2.7S18.7,103,18.7,101.3z M21.4,101.3
			c0-1.6-0.5-2.3-1.2-2.3s-1.2,0.8-1.2,2.3c0,1.6,0.5,2.4,1.2,2.4C21,103.7,21.4,102.9,21.4,101.3z"/>
		<path d="M22.8,103.6H24v-4.2h-0.9v-0.2c0.4-0.1,0.7-0.2,1-0.3h0.3v4.8h1.1v0.3h-2.7C22.8,104,22.8,103.6,22.8,103.6z"/>
		<path d="M26.2,103.3l0.2-0.2c0.3,0.3,0.7,0.6,1.4,0.6s1.3-0.6,1.3-1.4s-0.5-1.3-1.2-1.3c-0.4,0-0.6,0.1-1,0.3l-0.2-0.2l0.2-2.4
			h2.3V99h-2l-0.2,1.8c0.3-0.2,0.5-0.3,0.9-0.3c0.9,0,1.6,0.5,1.6,1.6s-0.8,1.7-1.6,1.7C27,104,26.5,103.7,26.2,103.3z"/>
	</g>
	<rect x="34.1" y="29.1" class="st2" width="124.7" height="8.9"/>
	<rect x="34.1" y="45.9" class="st3" width="133.4" height="8.9"/>
	<rect x="34.1" y="62.8" class="st3" width="114.3" height="8.9"/>
	<rect x="34.1" y="79.6" class="st3" width="138.7" height="8.9"/>
	<rect x="34.1" y="96.5" class="st3" width="165.6" height="8.9"/>
</g>
</svg>
