<?xml version="1.0" encoding="utf-8"?>
<!-- Generator: Adobe Illustrator 23.0.3, SVG Export Plug-In . SVG Version: 6.00 Build 0)  -->
<svg version="1.1" id="Layer_1" xmlns="http://www.w3.org/2000/svg" xmlns:xlink="http://www.w3.org/1999/xlink" x="0px" y="0px"
	 viewBox="0 0 242.1 116" style="enable-background:new 0 0 242.1 116;" xml:space="preserve">
<style type="text/css">
	.st0{enable-background:new    ;}
	.st1{fill:none;stroke:#000000;stroke-width:0.25;}
	.st2{fill:#55371E;}
	.st3{fill:#ABD693;}
</style>
<g class="st0">
	<path d="M0.8,1.7H3c1.4,0,2.6,0.5,2.6,2.1C5.6,5.3,4.4,6,3.1,6H2.3v2.2H0.8V1.7z M3,4.9c0.8,0,1.2-0.4,1.2-1S3.8,3,3,3H2.3v2H3V4.9
		z"/>
	<path d="M6.8,1.7H9c1.3,0,2.4,0.4,2.4,1.6c0,0.6-0.3,1.2-0.8,1.4l0,0c0.7,0.2,1.2,0.7,1.2,1.5c0,1.3-1.1,1.9-2.5,1.9H6.9V1.7H6.8z
		 M8.9,4.3c0.7,0,1-0.3,1-0.8s-0.3-0.7-1-0.7H8.2v1.5H8.9z M9.1,7.1c0.8,0,1.2-0.3,1.2-0.9c0-0.6-0.4-0.8-1.2-0.8H8.3v1.7H9.1z"/>
	<path d="M12.8,1.7h1.8c2,0,3.3,1,3.3,3.2s-1.3,3.3-3.2,3.3h-1.9C12.8,8.2,12.8,1.7,12.8,1.7z M14.6,7.1c1.1,0,1.8-0.5,1.8-2.1
		s-0.7-2-1.8-2h-0.3v4.1H14.6z"/>
	<path d="M19.2,1.7h1.5v6.5h-1.5V1.7z"/>
	<path d="M23.4,3h-1.8V1.7h5.1v1.2h-1.8v5.3h-1.5V3z"/>
	<path d="M27.8,4.3l0.6-1l-1.1-0.5l0.2-0.7l1.2,0.2l0.1-1.2h0.8l0.1,1.2L30.8,2L31,2.7l-1.1,0.5l0.6,1l-0.6,0.4l-0.8-0.9l-0.7,1.1
		L27.8,4.3z"/>
</g>
<g class="st0">
	<path d="M34.1,6.4c0-1.1,0.3-2.1,0.9-2.9l0.1,0.1c-0.5,0.8-0.8,1.8-0.8,2.8s0.3,2,0.8,2.8l-0.2,0.1C34.4,8.5,34.1,7.6,34.1,6.4z"/>
	<path d="M36,4h1.1c1,0,1.6,0.3,1.6,1.2c0,0.8-0.6,1.2-1.5,1.2h-0.8v1.8h-0.3L36,4L36,4z M37,6.2c0.9,0,1.3-0.3,1.3-1
		S37.9,4.3,37,4.3h-0.7v1.9H37z"/>
</g>
<g class="st0">
	<path d="M39.5,5.1h0.2v0.6l0,0C39.9,5.3,40.2,5,40.6,5c0.1,0,0.2,0,0.3,0.1l-0.1,0.3c-0.1,0-0.2-0.1-0.3-0.1
		c-0.3,0-0.6,0.2-0.9,0.8v2.1h-0.3V5.1H39.5z"/>
</g>
<g class="st0">
	<path d="M41.3,6.7c0-1,0.7-1.6,1.4-1.6c0.8,0,1.4,0.6,1.4,1.6s-0.6,1.6-1.4,1.6C41.9,8.3,41.3,7.7,41.3,6.7z M43.8,6.7
		c0-0.8-0.5-1.4-1.1-1.4s-1.1,0.6-1.1,1.4c0,0.8,0.5,1.4,1.1,1.4S43.8,7.5,43.8,6.7z"/>
	<path d="M45.1,5.4h-0.4V5.2h0.4V4.4c0-0.6,0.3-0.9,0.8-0.9c0.1,0,0.3,0,0.5,0.1l-0.1,0.2c-0.1-0.1-0.3-0.1-0.4-0.1
		c-0.3,0-0.5,0.3-0.5,0.7v0.7h0.7v0.2h-0.7v2.9h-0.3V5.4z"/>
	<path d="M46.6,4.1c0-0.1,0.1-0.3,0.2-0.3c0.1,0,0.2,0.1,0.2,0.3s-0.1,0.3-0.2,0.3C46.7,4.4,46.6,4.3,46.6,4.1z M46.7,5.1H47v3.1
		h-0.3V5.1z"/>
	<path d="M48.3,7.4v-2h-0.5V5.2h0.5V4.3h0.2v0.9h0.9v0.2h-0.9v2c0,0.4,0.1,0.7,0.5,0.7c0.1,0,0.3,0,0.4-0.1l0.1,0.2
		c-0.2,0.1-0.4,0.1-0.5,0.1C48.5,8.3,48.3,7.9,48.3,7.4z"/>
	<path d="M51.8,7.9L51.8,7.9v0.3h-0.2V3.6h0.3V5v0.6c0.3-0.3,0.7-0.5,1.1-0.5c0.8,0,1.2,0.6,1.2,1.6c0,1.1-0.6,1.7-1.4,1.7
		C52.5,8.3,52.1,8.2,51.8,7.9z M53.8,6.6c0-0.8-0.3-1.3-1-1.3c-0.3,0-0.7,0.2-1,0.5v1.9c0.3,0.3,0.7,0.4,0.9,0.4
		C53.4,8.1,53.8,7.5,53.8,6.6z"/>
	<path d="M54.8,6.7c0-1,0.7-1.6,1.4-1.6c0.7,0,1.2,0.5,1.2,1.4c0,0.1,0,0.2,0,0.2h-2.2c0,0.8,0.5,1.4,1.2,1.4c0.3,0,0.6-0.1,0.8-0.3
		L57.3,8c-0.2,0.1-0.5,0.3-1,0.3C55.4,8.3,54.8,7.7,54.8,6.7z M57.1,6.5c0-0.8-0.4-1.2-0.9-1.2s-1,0.4-1.1,1.2H57.1z"/>
</g>
<g class="st0">
	<path d="M58.2,5.4h-0.4V5.2h0.4V4.4c0-0.6,0.3-0.9,0.8-0.9c0.1,0,0.3,0,0.5,0.1l-0.1,0.2c-0.1-0.1-0.3-0.1-0.4-0.1
		c-0.3,0-0.5,0.3-0.5,0.7v0.7h0.7v0.2h-0.7v2.9h-0.3V5.4z"/>
</g>
<g class="st0">
	<path d="M59.6,6.7c0-1,0.7-1.6,1.4-1.6c0.8,0,1.4,0.6,1.4,1.6S61.8,8.3,61,8.3C60.2,8.3,59.6,7.7,59.6,6.7z M62.1,6.7
		c0-0.8-0.5-1.4-1.1-1.4s-1.1,0.6-1.1,1.4c0,0.8,0.5,1.4,1.1,1.4S62.1,7.5,62.1,6.7z"/>
</g>
<g class="st0">
	<path d="M63.3,5.1h0.2v0.6l0,0C63.7,5.3,64,5,64.4,5c0.1,0,0.2,0,0.3,0.1l-0.1,0.3c-0.1,0-0.2-0.1-0.3-0.1c-0.3,0-0.6,0.2-0.9,0.8
		v2.1h-0.3V5.1H63.3z"/>
</g>
<g class="st0">
	<path d="M65.1,6.7c0-1,0.7-1.6,1.4-1.6c0.7,0,1.2,0.5,1.2,1.4c0,0.1,0,0.2,0,0.2h-2.3c0,0.8,0.5,1.4,1.2,1.4c0.3,0,0.6-0.1,0.8-0.3
		L67.5,8c-0.2,0.1-0.5,0.3-1,0.3C65.7,8.3,65.1,7.7,65.1,6.7z M67.4,6.5c0-0.8-0.4-1.2-0.9-1.2s-1,0.4-1.1,1.2H67.4z"/>
	<path d="M69.8,4h1c1.3,0,1.9,0.8,1.9,2.1s-0.6,2.2-1.9,2.2h-1V4z M70.8,8c1.2,0,1.7-0.8,1.7-1.9S72,4.2,70.8,4.2h-0.7V8
		C70.1,8,70.8,8,70.8,8z"/>
	<path d="M73.4,6.7c0-1,0.7-1.6,1.4-1.6c0.7,0,1.2,0.5,1.2,1.4c0,0.1,0,0.2,0,0.2h-2.2c0,0.8,0.5,1.4,1.2,1.4c0.3,0,0.6-0.1,0.8-0.3
		L75.9,8c-0.2,0.1-0.5,0.3-1,0.3C74.1,8.3,73.4,7.7,73.4,6.7z M75.7,6.5c0-0.8-0.4-1.2-0.9-1.2s-1,0.4-1.1,1.2H75.7z"/>
	<path d="M76.8,5.1H77v0.4l0,0C77.3,5.3,77.7,5,78.1,5c0.8,0,1.2,0.6,1.2,1.6c0,1.1-0.6,1.7-1.4,1.7c-0.3,0-0.6-0.1-0.9-0.4v1.7
		h-0.3V5.1H76.8z M79.1,6.6c0-0.8-0.3-1.3-1-1.3c-0.3,0-0.6,0.2-1,0.5v1.9C77.5,8,77.8,8.1,78,8.1C78.7,8.1,79.1,7.5,79.1,6.6z"/>
</g>
<g class="st0">
	<path d="M80.3,5.1h0.2v0.6l0,0C80.7,5.3,81,5,81.4,5c0.1,0,0.2,0,0.3,0.1l-0.1,0.3c-0.1,0-0.2-0.1-0.3-0.1c-0.3,0-0.6,0.2-0.9,0.8
		v2.1h-0.3V5.1H80.3z"/>
</g>
<g class="st0">
	<path d="M82.1,6.7c0-1,0.7-1.6,1.4-1.6c0.7,0,1.2,0.5,1.2,1.4c0,0.1,0,0.2,0,0.2h-2.3c0,0.8,0.5,1.4,1.2,1.4c0.3,0,0.6-0.1,0.8-0.3
		L84.5,8c-0.2,0.1-0.5,0.3-1,0.3C82.7,8.3,82.1,7.7,82.1,6.7z M84.4,6.5c0-0.8-0.4-1.2-0.9-1.2s-1,0.4-1.1,1.2H84.4z"/>
	<path d="M85.2,6.7c0-1,0.7-1.6,1.4-1.6c0.4,0,0.7,0.2,0.9,0.4l-0.1,0.1c-0.2-0.2-0.4-0.3-0.7-0.3c-0.6,0-1.1,0.6-1.1,1.4
		c0,0.8,0.4,1.4,1.1,1.4c0.3,0,0.6-0.2,0.8-0.4l0.1,0.2c-0.3,0.2-0.6,0.4-1,0.4C85.8,8.3,85.2,7.7,85.2,6.7z"/>
	<path d="M88.3,4.1c0-0.1,0.1-0.3,0.2-0.3s0.2,0.1,0.2,0.3s-0.1,0.3-0.2,0.3S88.3,4.3,88.3,4.1z M88.4,5.1h0.3v3.1h-0.3V5.1z"/>
</g>
<g class="st0">
	<path d="M89.7,7.5c0-0.7,0.6-1,2-1.2c0-0.5-0.1-1-0.7-1c-0.4,0-0.8,0.2-1,0.4l-0.1-0.2c0.2-0.2,0.7-0.4,1.2-0.4c0.7,0,1,0.5,1,1.2
		v2h-0.2V7.9l0,0c-0.3,0.3-0.7,0.5-1.1,0.5C90.1,8.3,89.7,8.1,89.7,7.5z M91.7,7.6V6.5C90.4,6.6,90,6.9,90,7.4C90,7.8,90.3,8,90.7,8
		S91.3,7.9,91.7,7.6z"/>
</g>
<g class="st0">
	<path d="M93.1,7.4v-2h-0.5V5.2h0.5V4.3h0.2v0.9h0.9v0.2h-0.8v2c0,0.4,0.1,0.7,0.5,0.7c0.1,0,0.3,0,0.4-0.1l0.1,0.2
		c-0.2,0.1-0.4,0.1-0.5,0.1C93.3,8.3,93.1,7.9,93.1,7.4z"/>
	<path d="M95,4.1c0-0.1,0.1-0.3,0.2-0.3s0.2,0.1,0.2,0.3s-0.1,0.3-0.2,0.3S95,4.3,95,4.1z M95.1,5.1h0.3v3.1h-0.3V5.1z"/>
	<path d="M96.3,6.7c0-1,0.7-1.6,1.4-1.6c0.8,0,1.4,0.6,1.4,1.6s-0.6,1.6-1.4,1.6C96.9,8.3,96.3,7.7,96.3,6.7z M98.8,6.7
		c0-0.8-0.5-1.4-1.1-1.4s-1.1,0.6-1.1,1.4c0,0.8,0.5,1.4,1.1,1.4S98.8,7.5,98.8,6.7z"/>
	<path d="M100,5.1h0.2v0.5l0,0c0.3-0.3,0.6-0.6,1.1-0.6c0.6,0,0.9,0.4,0.9,1.2v2h-0.3v-2c0-0.7-0.2-1-0.7-1c-0.4,0-0.6,0.2-1,0.6
		v2.4h-0.3V5.1H100z"/>
	<path d="M103.2,9.1c0.3-0.2,0.5-0.4,0.5-0.8h-0.1c-0.1,0-0.3-0.1-0.3-0.3c0-0.2,0.1-0.3,0.3-0.3c0.2,0,0.3,0.2,0.3,0.5
		c0,0.5-0.3,0.9-0.7,1.1L103.2,9.1z"/>
	<path d="M106.2,4h0.3v4.3h-0.3V4z"/>
	<path d="M107.8,5.1h0.2v0.5l0,0c0.3-0.3,0.6-0.6,1.1-0.6c0.6,0,0.9,0.4,0.9,1.2v2h-0.3v-2c0-0.7-0.2-1-0.7-1c-0.4,0-0.6,0.2-1,0.6
		v2.4h-0.3V5.1H107.8z"/>
</g>
<g class="st0">
	<path d="M111.3,7.4v-2h-0.5V5.2h0.5V4.3h0.2v0.9h0.9v0.2h-0.9v2c0,0.4,0.1,0.7,0.5,0.7c0.1,0,0.3,0,0.4-0.1l0.1,0.2
		c-0.2,0.1-0.4,0.1-0.5,0.1C111.5,8.3,111.3,7.9,111.3,7.4z"/>
</g>
<g class="st0">
	<path d="M112.9,6.7c0-1,0.7-1.6,1.4-1.6c0.7,0,1.2,0.5,1.2,1.4c0,0.1,0,0.2,0,0.2h-2.2c0,0.8,0.5,1.4,1.2,1.4
		c0.3,0,0.6-0.1,0.8-0.3l0.1,0.2c-0.2,0.1-0.5,0.3-1,0.3C113.5,8.3,112.9,7.7,112.9,6.7z M115.2,6.5c0-0.8-0.4-1.2-0.9-1.2
		s-1,0.4-1.1,1.2H115.2z"/>
</g>
<g class="st0">
	<path d="M116.3,5.1h0.2v0.6l0,0c0.2-0.4,0.5-0.7,0.9-0.7c0.1,0,0.2,0,0.3,0.1l-0.1,0.3c-0.1,0-0.2-0.1-0.3-0.1
		c-0.3,0-0.6,0.2-0.9,0.8v2.1h-0.3V5.1H116.3z"/>
</g>
<g class="st0">
	<path d="M118.1,6.7c0-1,0.7-1.6,1.4-1.6s1.2,0.5,1.2,1.4c0,0.1,0,0.2,0,0.2h-2.3c0,0.8,0.5,1.4,1.2,1.4c0.3,0,0.6-0.1,0.8-0.3
		l0.1,0.2c-0.2,0.1-0.5,0.3-1,0.3C118.7,8.3,118.1,7.7,118.1,6.7z M120.4,6.5c0-0.8-0.4-1.2-0.9-1.2s-1,0.4-1.1,1.2H120.4z"/>
</g>
<g class="st0">
	<path d="M121,7.9l0.2-0.2c0.3,0.2,0.5,0.4,1,0.4s0.7-0.3,0.7-0.6c0-0.4-0.4-0.6-0.8-0.7c-0.5-0.2-1-0.4-1-0.9s0.4-0.8,1-0.8
		c0.3,0,0.7,0.1,0.9,0.3l-0.2,0.2c-0.2-0.2-0.4-0.3-0.7-0.3c-0.5,0-0.7,0.3-0.7,0.6c0,0.4,0.3,0.5,0.7,0.6c0.5,0.2,1,0.3,1,1
		c0,0.5-0.4,0.9-1.1,0.9C121.7,8.3,121.3,8.1,121,7.9z"/>
</g>
<g class="st0">
	<path d="M124,7.4v-2h-0.5V5.2h0.5V4.3h0.2v0.9h0.9v0.2h-0.9v2c0,0.4,0.1,0.7,0.5,0.7c0.1,0,0.3,0,0.4-0.1l0.1,0.2
		c-0.2,0.1-0.4,0.1-0.5,0.1C124.2,8.3,124,7.9,124,7.4z"/>
	<path d="M126.9,7.2c0-0.6,0.4-0.9,0.9-1.3c-0.2-0.4-0.3-0.7-0.3-1.1c0-0.6,0.4-1,0.9-1c0.5,0,0.7,0.3,0.7,0.8c0,0.6-0.5,0.9-1,1.3
		c0.3,0.5,0.7,1.1,1.2,1.5c0.3-0.4,0.5-0.9,0.7-1.4h0.3c-0.2,0.6-0.4,1.1-0.8,1.6c0.3,0.2,0.6,0.4,0.8,0.5l-0.1,0.3
		c-0.3-0.1-0.6-0.3-0.9-0.5c-0.3,0.3-0.7,0.5-1.2,0.5C127.5,8.3,126.9,7.9,126.9,7.2z M128.2,8.1c0.4,0,0.7-0.2,0.9-0.5
		c-0.5-0.4-0.9-1-1.2-1.5c-0.4,0.3-0.7,0.6-0.7,1C127.2,7.7,127.6,8.1,128.2,8.1z M128,5.7c0.4-0.3,0.8-0.6,0.8-1.1
		c0-0.3-0.1-0.6-0.5-0.6c-0.4,0-0.6,0.3-0.6,0.7C127.8,5.1,127.8,5.4,128,5.7z"/>
</g>
<g class="st0">
	<path d="M133.3,4.2h-1.4V4h3v0.3h-1.4v4h-0.3L133.3,4.2L133.3,4.2z"/>
</g>
<g class="st0">
	<path d="M135,7.5c0-0.7,0.6-1,2-1.2c0-0.5-0.1-1-0.7-1c-0.4,0-0.8,0.2-1,0.4l-0.1-0.2c0.2-0.2,0.7-0.4,1.2-0.4c0.7,0,1,0.5,1,1.2v2
		h-0.2V7.9l0,0c-0.3,0.3-0.7,0.5-1.1,0.5C135.4,8.3,135,8.1,135,7.5z M137,7.6V6.5c-1.3,0.1-1.7,0.4-1.7,0.9c0,0.4,0.3,0.6,0.7,0.6
		S136.6,7.9,137,7.6z"/>
	<path d="M139,6.6l-1-1.5h0.3l0.5,0.8c0.1,0.2,0.2,0.3,0.3,0.5l0,0c0.1-0.2,0.2-0.3,0.3-0.5l0.5-0.8h0.3l-1,1.5l1.1,1.6H140
		l-0.6-0.9c-0.1-0.2-0.2-0.4-0.4-0.6l0,0c-0.1,0.2-0.2,0.4-0.4,0.6l-0.5,0.9h-0.3L139,6.6z"/>
	<path d="M140.7,9.3c0.5-0.8,0.8-1.8,0.8-2.8s-0.3-2-0.8-2.8l0.2-0.1c0.5,0.9,0.9,1.8,0.9,2.9s-0.3,2.1-0.9,2.9L140.7,9.3z"/>
</g>
<g class="st0">
	<path d="M0.6,14.4c0-1.1,0.3-2.1,0.9-2.9l0.2,0.1c-0.5,0.8-0.8,1.8-0.8,2.8s0.3,2,0.8,2.8l-0.2,0.1C0.9,16.5,0.6,15.6,0.6,14.4z"/>
	<path d="M2.3,14.2h0.5c0.8,0,1.2-0.3,1.2-0.9H2.3v-0.2h0.4h1.2c-0.1-0.5-0.5-0.7-1.2-0.7H2.2v-0.2h2.4v0.2h-1
		c0.3,0.1,0.5,0.4,0.5,0.7h0.4v0.2H4.1c0,0.7-0.5,1.1-1.1,1.2l1.3,1.8H3.9l-1.3-1.8H2.1v-0.3H2.3z"/>
	<path d="M6.8,12.1c0-0.1,0.1-0.3,0.2-0.3s0.2,0.1,0.2,0.3c0,0.2-0.1,0.3-0.2,0.3S6.8,12.3,6.8,12.1z M6.9,13.1h0.3v3.1H6.9V13.1z"
		/>
	<path d="M8.4,13.1h0.2v0.5l0,0C8.9,13.3,9.2,13,9.7,13c0.6,0,0.9,0.4,0.9,1.2v2h-0.2v-2c0-0.7-0.2-1-0.7-1c-0.4,0-0.6,0.2-1,0.6
		v2.4H8.4V13.1z"/>
	<path d="M12.9,14.1c0-1.4,0.7-2.2,1.8-2.2c0.5,0,0.9,0.2,1.1,0.5l-0.2,0.2c-0.2-0.3-0.5-0.4-0.9-0.4c-0.9,0-1.5,0.7-1.5,1.9
		s0.6,2,1.5,2c0.4,0,0.8-0.2,1.1-0.5l0.2,0.2c-0.3,0.4-0.7,0.6-1.3,0.6C13.6,16.3,12.9,15.5,12.9,14.1z"/>
</g>
<g class="st0">
	<path d="M16.7,13.1h0.2v0.6l0,0c0.2-0.4,0.5-0.7,0.9-0.7c0.1,0,0.2,0,0.3,0.1L18,13.4c-0.1,0-0.2-0.1-0.3-0.1
		c-0.3,0-0.6,0.2-0.9,0.8v2.1h-0.3v-3.1H16.7z"/>
</g>
<g class="st0">
	<path d="M18.5,14.7c0-1,0.7-1.6,1.4-1.6c0.8,0,1.4,0.6,1.4,1.6s-0.6,1.6-1.4,1.6S18.5,15.7,18.5,14.7z M21,14.7
		c0-0.8-0.5-1.4-1.1-1.4s-1.1,0.6-1.1,1.4s0.5,1.4,1.1,1.4S21,15.5,21,14.7z"/>
</g>
<g class="st0">
	<path d="M22.2,13.1h0.2v0.6l0,0c0.2-0.4,0.5-0.7,0.9-0.7c0.1,0,0.2,0,0.3,0.1l-0.1,0.3c-0.1,0-0.2-0.1-0.3-0.1
		c-0.3,0-0.6,0.2-0.9,0.8v2.1H22v-3.1H22.2z"/>
</g>
<g class="st0">
	<path d="M24,14.7c0-1,0.7-1.6,1.4-1.6s1.2,0.5,1.2,1.4c0,0.1,0,0.2,0,0.2h-2.2c0,0.8,0.5,1.4,1.2,1.4c0.3,0,0.6-0.1,0.8-0.3
		l0.1,0.2c-0.2,0.1-0.5,0.3-1,0.3C24.6,16.3,24,15.7,24,14.7z M26.3,14.5c0-0.8-0.4-1.2-0.9-1.2s-1,0.4-1.1,1.2H26.3z"/>
	<path d="M27,17.3c0.5-0.8,0.8-1.8,0.8-2.8s-0.3-2-0.8-2.8l0.2-0.1c0.5,0.9,0.9,1.8,0.9,2.9s-0.3,2.1-0.9,2.9L27,17.3z"/>
</g>
<line class="st1" x1="0" y1="24.8" x2="242.1" y2="24.8"/>
<line class="st1" x1="0" y1="115.2" x2="242.1" y2="115.2"/>
<g class="st0">
	<path d="M217.2,37.3h1.1v-2.9h-1v-0.8c0.6-0.1,0.9-0.2,1.3-0.5h0.9v4.1h1v1h-3.2v-0.9H217.2z"/>
	<path d="M221.1,37.5c1.3-1.2,2.2-2.1,2.2-2.8c0-0.5-0.3-0.8-0.7-0.8s-0.6,0.2-0.9,0.5l-0.6-0.6c0.5-0.5,1-0.8,1.7-0.8
		c1,0,1.7,0.6,1.7,1.6c0,0.9-0.8,1.8-1.6,2.6c0.3,0,0.6-0.1,0.8-0.1h1v1h-3.6L221.1,37.5L221.1,37.5z"/>
	<path d="M225.4,39.1c0.6-0.2,0.9-0.6,0.9-1c0,0,0,0-0.1,0c-0.4,0-0.7-0.2-0.7-0.7c0-0.4,0.3-0.7,0.7-0.7c0.5,0,0.8,0.4,0.8,1.1
		c0,0.9-0.5,1.5-1.4,1.8L225.4,39.1z"/>
	<path d="M229.8,37h-2.2v-0.8l1.9-3.1h1.4v3h0.6V37h-0.6v1.2h-1.1L229.8,37L229.8,37z M229.8,36.1v-0.8c0-0.3,0-0.8,0-1.1l0,0
		c-0.1,0.3-0.3,0.6-0.4,0.9l-0.7,1.1h1.1V36.1z"/>
	<path d="M231.9,37.6l0.5-0.7c0.3,0.3,0.7,0.5,1.1,0.5c0.5,0,0.9-0.3,0.9-0.8s-0.3-0.8-0.8-0.8c-0.3,0-0.4,0.1-0.8,0.3l-0.5-0.3
		l0.1-2.6h2.9v1h-1.9l-0.1,1c0.2-0.1,0.4-0.1,0.6-0.1c0.9,0,1.6,0.5,1.6,1.6s-0.9,1.8-1.9,1.8C232.8,38.3,232.3,38,231.9,37.6z"/>
	<path d="M236.2,37.5c1.3-1.2,2.2-2.1,2.2-2.8c0-0.5-0.3-0.8-0.7-0.8s-0.6,0.2-0.9,0.5l-0.6-0.6c0.5-0.5,1-0.8,1.7-0.8
		c1,0,1.7,0.6,1.7,1.6c0,0.9-0.8,1.8-1.6,2.6c0.3,0,0.6-0.1,0.8-0.1h1v1h-3.6L236.2,37.5L236.2,37.5z"/>
</g>
<g class="st0">
	<path d="M219.9,54.7h1.2v-4.2h-0.9v-0.2c0.4-0.1,0.7-0.2,1-0.3h0.3v4.8h1.1v0.3h-2.7L219.9,54.7L219.9,54.7z"/>
	<path d="M225.5,53.5h-2.4v-0.2l2.4-3.4h0.3v3.3h0.8v0.3h-0.8V55h-0.3V53.5z M225.5,53.2v-1.9c0-0.2,0-0.6,0-0.9l0,0
		c-0.1,0.2-0.3,0.4-0.4,0.6l-1.5,2.1h1.9V53.2z"/>
	<path d="M227.3,56.1c0.4-0.2,0.6-0.5,0.6-1h-0.1c-0.2,0-0.3-0.1-0.3-0.3s0.2-0.3,0.3-0.3c0.2,0,0.4,0.2,0.4,0.6
		c0,0.6-0.3,1-0.8,1.3L227.3,56.1z"/>
	<path d="M229,54.8c1.7-1.7,2.5-2.7,2.5-3.5c0-0.6-0.3-1.1-1.1-1.1c-0.5,0-0.9,0.3-1.2,0.7l-0.2-0.2c0.4-0.4,0.8-0.8,1.5-0.8
		c0.9,0,1.4,0.6,1.4,1.4c0,1-0.9,2-2.3,3.5c0.3,0,0.6,0,0.9,0h1.7v0.3h-3.1L229,54.8L229,54.8z"/>
	<path d="M232.8,54.8c1.7-1.7,2.5-2.7,2.5-3.5c0-0.6-0.3-1.1-1.1-1.1c-0.5,0-0.9,0.3-1.2,0.7l-0.2-0.2c0.4-0.4,0.8-0.8,1.5-0.8
		c0.9,0,1.4,0.6,1.4,1.4c0,1-0.9,2-2.3,3.5c0.3,0,0.6,0,0.9,0h1.7v0.3h-3.1L232.8,54.8L232.8,54.8z"/>
	<path d="M236.7,52.7c0-2.1,0.9-2.9,1.9-2.9c0.5,0,0.8,0.2,1.1,0.5l-0.2,0.2c-0.2-0.3-0.5-0.4-0.9-0.4c-0.8,0-1.5,0.7-1.5,2.5
		c0.4-0.4,0.8-0.7,1.3-0.7c0.9,0,1.4,0.6,1.4,1.6c0,0.9-0.6,1.6-1.4,1.6C237.4,55.1,236.7,54.3,236.7,52.7z M237.1,53
		c0.1,1.1,0.5,1.8,1.3,1.8c0.6,0,1-0.6,1-1.3s-0.3-1.3-1.1-1.3C238,52.3,237.5,52.5,237.1,53z"/>
</g>
<g class="st0">
	<path d="M219.9,71.6h1.2v-4.2h-0.9v-0.2c0.4-0.1,0.7-0.2,1-0.3h0.3v4.7h1.1v0.3h-2.7L219.9,71.6L219.9,71.6z"/>
	<path d="M223.4,71.7c1.7-1.7,2.5-2.7,2.5-3.5c0-0.6-0.3-1.1-1.1-1.1c-0.5,0-0.9,0.3-1.2,0.7l-0.2-0.2c0.4-0.4,0.8-0.8,1.5-0.8
		c0.9,0,1.4,0.6,1.4,1.4c0,1-0.9,2-2.3,3.5c0.3,0,0.6,0,0.9,0h1.7V72h-3.2V71.7z"/>
	<path d="M227.3,72.9c0.4-0.2,0.6-0.5,0.6-1h-0.1c-0.2,0-0.3-0.1-0.3-0.3s0.2-0.3,0.3-0.3c0.2,0,0.4,0.2,0.4,0.6
		c0,0.6-0.3,1-0.8,1.3L227.3,72.9z"/>
	<path d="M229,71.7c1.7-1.7,2.5-2.7,2.5-3.5c0-0.6-0.3-1.1-1.1-1.1c-0.5,0-0.9,0.3-1.2,0.7l-0.2-0.2c0.4-0.4,0.8-0.8,1.5-0.8
		c0.9,0,1.4,0.6,1.4,1.4c0,1-0.9,2-2.3,3.5c0.3,0,0.6,0,0.9,0h1.7V72h-3.1L229,71.7L229,71.7z"/>
	<path d="M233.1,71.6h1.2v-4.2h-0.9v-0.2c0.4-0.1,0.7-0.2,1-0.3h0.3v4.7h1.1v0.3h-2.7L233.1,71.6L233.1,71.6z"/>
	<path d="M236.5,71.3l0.2-0.2c0.3,0.3,0.7,0.7,1.4,0.7s1.2-0.4,1.2-1.1s-0.5-1.2-1.8-1.2v-0.3c1.2,0,1.6-0.5,1.6-1.1s-0.4-1-1-1
		c-0.5,0-0.9,0.2-1.2,0.6l-0.2-0.2c0.4-0.3,0.8-0.6,1.4-0.6c0.8,0,1.4,0.4,1.4,1.2c0,0.7-0.4,1.1-1,1.3l0,0c0.6,0.1,1.2,0.6,1.2,1.3
		c0,0.9-0.7,1.4-1.6,1.4C237.3,72,236.9,71.6,236.5,71.3z"/>
</g>
<g class="st0">
	<path d="M223.5,88.3l0.2-0.2c0.2,0.3,0.5,0.4,0.9,0.4c0.8,0,1.5-0.7,1.5-2.5c-0.4,0.4-0.8,0.7-1.3,0.7c-0.9,0-1.4-0.6-1.4-1.6
		c0-0.9,0.6-1.6,1.4-1.6c1,0,1.7,0.9,1.7,2.4c0,2.1-0.9,2.9-1.9,2.9C224.1,88.8,223.8,88.6,223.5,88.3z M224.9,86.4
		c0.4,0,0.8-0.2,1.2-0.8c-0.1-1.1-0.5-1.8-1.3-1.8c-0.6,0-1,0.6-1,1.3C223.8,85.9,224.1,86.4,224.9,86.4z"/>
	<path d="M227.3,89.7c0.4-0.2,0.6-0.5,0.6-1h-0.1c-0.2,0-0.3-0.1-0.3-0.3s0.2-0.3,0.3-0.3c0.2,0,0.4,0.2,0.4,0.6
		c0,0.6-0.3,1-0.8,1.3L227.3,89.7z"/>
	<path d="M228.9,88.1l0.2-0.2c0.3,0.3,0.7,0.7,1.4,0.7s1.2-0.4,1.2-1.1s-0.5-1.2-1.8-1.2V86c1.2,0,1.6-0.5,1.6-1.1s-0.4-1-1-1
		c-0.5,0-0.9,0.2-1.2,0.6l-0.2-0.2c0.4-0.3,0.8-0.6,1.4-0.6c0.8,0,1.4,0.4,1.4,1.2c0,0.7-0.4,1.1-1,1.3l0,0c0.6,0.1,1.2,0.6,1.2,1.3
		c0,0.9-0.7,1.4-1.6,1.4C229.7,88.8,229.2,88.5,228.9,88.1z"/>
	<path d="M232.8,87.4c0-0.7,0.5-1.2,1-1.4l0,0c-0.4-0.2-0.7-0.6-0.7-1.2c0-0.7,0.6-1.2,1.3-1.2c0.9,0,1.4,0.6,1.4,1.3
		c0,0.6-0.4,1.1-0.7,1.3l0,0c0.4,0.3,0.9,0.6,0.9,1.3c0,0.7-0.6,1.3-1.6,1.3C233.5,88.8,232.8,88.2,232.8,87.4z M235.6,87.5
		c0-0.8-0.8-1.1-1.6-1.4c-0.5,0.3-0.9,0.7-0.9,1.3c0,0.6,0.5,1.1,1.3,1.1C235.1,88.5,235.6,88.1,235.6,87.5z M235.5,84.9
		c0-0.6-0.4-1-1-1s-1,0.4-1,1c0,0.7,0.7,1,1.4,1.3C235.2,85.7,235.5,85.3,235.5,84.9z"/>
	<path d="M236.5,88.1l0.2-0.2c0.3,0.3,0.7,0.6,1.4,0.6s1.3-0.6,1.3-1.4s-0.5-1.3-1.2-1.3c-0.4,0-0.6,0.1-1,0.3l-0.2-0.2l0.2-2.4h2.4
		v0.3h-2l-0.2,1.8c0.3-0.2,0.5-0.3,0.9-0.3c0.9,0,1.6,0.5,1.6,1.6s-0.8,1.7-1.6,1.7C237.3,88.8,236.8,88.5,236.5,88.1z"/>
</g>
<g class="st0">
	<path d="M219.9,105.3h1.2v-4.2h-0.9v-0.2c0.4-0.1,0.7-0.2,1-0.3h0.3v4.8h1.1v0.3h-2.7L219.9,105.3L219.9,105.3z"/>
	<path d="M223.4,103c0-1.7,0.6-2.6,1.5-2.6c1,0,1.5,0.9,1.5,2.6s-0.6,2.7-1.5,2.7S223.4,104.7,223.4,103z M226.1,103
		c0-1.6-0.5-2.3-1.2-2.3s-1.2,0.8-1.2,2.3c0,1.6,0.5,2.4,1.2,2.4C225.7,105.4,226.1,104.6,226.1,103z"/>
	<path d="M227.3,106.6c0.4-0.2,0.6-0.5,0.6-1h-0.1c-0.2,0-0.3-0.1-0.3-0.3s0.2-0.3,0.3-0.3c0.2,0,0.4,0.2,0.4,0.6
		c0,0.6-0.3,1-0.8,1.3L227.3,106.6z"/>
	<path d="M229,105.4c1.7-1.7,2.5-2.7,2.5-3.5c0-0.6-0.3-1.1-1.1-1.1c-0.5,0-0.9,0.3-1.2,0.7l-0.2-0.2c0.4-0.4,0.8-0.8,1.5-0.8
		c0.9,0,1.4,0.6,1.4,1.4c0,1-0.9,2-2.3,3.5c0.3,0,0.6,0,0.9,0h1.7v0.3h-3.1L229,105.4L229,105.4z"/>
	<path d="M232.7,105l0.2-0.2c0.3,0.3,0.7,0.7,1.4,0.7s1.2-0.4,1.2-1.1s-0.5-1.2-1.8-1.2v-0.3c1.2,0,1.6-0.5,1.6-1.1s-0.4-1-1-1
		c-0.5,0-0.9,0.2-1.2,0.6l-0.2-0.2c0.4-0.3,0.8-0.6,1.4-0.6c0.8,0,1.4,0.4,1.4,1.2c0,0.7-0.4,1.1-1,1.3l0,0c0.6,0.1,1.2,0.6,1.2,1.3
		c0,0.9-0.7,1.4-1.6,1.4C233.5,105.7,233,105.3,232.7,105z"/>
	<path d="M239.4,100.8h-2.7v-0.3h3.1v0.2c-1.2,1.6-1.5,2.9-1.6,4.9h-0.4C237.9,103.5,238.3,102.2,239.4,100.8z"/>
</g>
<g class="st0">
	<path d="M3,33h3.3v1H4.2v1.2H6v1H4.2v2H3C3,38.2,3,33,3,33z"/>
</g>
<g class="st0">
	<path d="M8,36.4L6.4,33h1.3l0.5,1.2c0.1,0.4,0.3,0.8,0.4,1.2l0,0C8.8,35,8.9,34.6,9,34.2L9.5,33h1.2l-1.6,3.4v1.9H7.9v-1.9H8z"/>
	<path d="M12.6,37.5c1.3-1.2,2.2-2.1,2.2-2.8c0-0.5-0.3-0.8-0.7-0.8c-0.4,0-0.6,0.2-0.9,0.5l-0.6-0.6c0.5-0.5,1-0.8,1.7-0.8
		c1,0,1.7,0.6,1.7,1.6c0,0.9-0.8,1.8-1.6,2.6c0.3,0,0.6-0.1,0.8-0.1h1v1h-3.6V37.5z"/>
	<path d="M16.8,35.7c0-1.7,0.7-2.6,1.8-2.6s1.8,0.9,1.8,2.6s-0.7,2.7-1.8,2.7S16.8,37.4,16.8,35.7z M19.3,35.7
		c0-1.4-0.3-1.7-0.7-1.7c-0.4,0-0.7,0.3-0.7,1.7s0.3,1.7,0.7,1.7S19.3,37,19.3,35.7z"/>
	<path d="M21.3,37.3h1.1v-2.9h-1v-0.8c0.6-0.1,0.9-0.2,1.3-0.5h0.9v4.1h1v1h-3.2v-0.9H21.3z"/>
	<path d="M25.3,37.7l0.6-0.7c0.2,0.2,0.5,0.4,0.8,0.4c0.6,0,1-0.4,1-1.6c-0.3,0.3-0.7,0.5-1,0.5c-0.9,0-1.5-0.5-1.5-1.6
		S26,33,26.9,33c1,0,1.9,0.7,1.9,2.5c0,1.9-1,2.8-2.1,2.8C26.1,38.3,25.6,38,25.3,37.7z M27,35.5c0.3,0,0.6-0.1,0.8-0.5
		c-0.1-0.8-0.4-1.1-0.8-1.1c-0.3,0-0.6,0.2-0.6,0.8C26.3,35.3,26.6,35.5,27,35.5z"/>
</g>
<g class="st0">
	<path d="M5.5,49.8h2.9v0.3H5.9v2.1H8v0.3H5.9V55H5.5V49.8z"/>
</g>
<g class="st0">
	<path d="M10.3,52.9l-1.6-3.1h0.4l0.8,1.6c0.2,0.4,0.4,0.8,0.6,1.1l0,0c0.2-0.4,0.4-0.8,0.6-1.1l0.8-1.6h0.4l-1.6,3.1V55h-0.4
		C10.3,55,10.3,52.9,10.3,52.9z"/>
	<path d="M14.2,54.8c1.7-1.7,2.5-2.7,2.5-3.5c0-0.6-0.3-1.1-1.1-1.1c-0.5,0-0.9,0.3-1.2,0.7l-0.3-0.3c0.4-0.4,0.8-0.8,1.5-0.8
		c0.9,0,1.4,0.6,1.4,1.4c0,1-0.9,2-2.3,3.5c0.3,0,0.6,0,0.9,0h1.7V55h-3.1C14.2,55,14.2,54.8,14.2,54.8z"/>
	<path d="M18,52.5c0-1.7,0.6-2.6,1.5-2.6c1,0,1.5,0.9,1.5,2.6c0,1.7-0.6,2.7-1.5,2.7C18.6,55.1,18,54.2,18,52.5z M20.7,52.5
		c0-1.6-0.5-2.3-1.2-2.3s-1.2,0.8-1.2,2.3c0,1.6,0.5,2.4,1.2,2.4C20.3,54.8,20.7,54,20.7,52.5z"/>
	<path d="M22.2,54.7h1.2v-4.2h-0.9v-0.2c0.4-0.1,0.7-0.2,1-0.3h0.3v4.8h1.1v0.3h-2.7C22.2,55.1,22.2,54.7,22.2,54.7z"/>
	<path d="M25.6,53.7c0-0.7,0.5-1.2,1-1.4l0,0c-0.4-0.2-0.7-0.6-0.7-1.2c0-0.7,0.6-1.2,1.3-1.2c0.9,0,1.4,0.6,1.4,1.3
		c0,0.6-0.4,1.1-0.7,1.3l0,0c0.4,0.3,0.9,0.6,0.9,1.3s-0.6,1.3-1.6,1.3C26.3,55.1,25.6,54.5,25.6,53.7z M28.5,53.8
		c0-0.8-0.8-1.1-1.6-1.4c-0.5,0.3-0.9,0.7-0.9,1.3s0.5,1.1,1.3,1.1C28,54.9,28.5,54.4,28.5,53.8z M28.3,51.2c0-0.6-0.4-1-1-1
		s-1,0.4-1,1c0,0.7,0.7,1,1.4,1.3C28.1,52,28.3,51.6,28.3,51.2z"/>
</g>
<g class="st0">
	<path d="M5.5,66.6h2.9v0.3H5.9V69H8v0.3H5.9v2.5H5.5V66.6z"/>
</g>
<g class="st0">
	<path d="M10.3,69.8l-1.6-3.2h0.4l0.8,1.6c0.2,0.4,0.4,0.8,0.6,1.1l0,0c0.2-0.4,0.4-0.8,0.6-1.1l0.8-1.6h0.4l-1.6,3.1v2.1h-0.4
		C10.3,71.8,10.3,69.8,10.3,69.8z"/>
	<path d="M14.2,71.7c1.7-1.7,2.5-2.7,2.5-3.5c0-0.6-0.3-1.1-1.1-1.1c-0.5,0-0.9,0.3-1.2,0.7l-0.2-0.2c0.4-0.4,0.8-0.8,1.5-0.8
		c0.9,0,1.4,0.6,1.4,1.4c0,1-0.9,2-2.3,3.5c0.3,0,0.6,0,0.9,0h1.7V72h-3.1L14.2,71.7L14.2,71.7z"/>
	<path d="M18,69.3c0-1.7,0.6-2.6,1.5-2.6c1,0,1.5,0.9,1.5,2.6S20.4,72,19.5,72C18.6,72,18,71,18,69.3z M20.7,69.3
		c0-1.6-0.5-2.3-1.2-2.3s-1.2,0.8-1.2,2.3c0,1.6,0.5,2.4,1.2,2.4C20.3,71.7,20.7,70.9,20.7,69.3z"/>
	<path d="M22.2,71.6h1.2v-4.2h-0.9v-0.2c0.4-0.1,0.7-0.2,1-0.3h0.3v4.7h1.1v0.3h-2.7C22.2,71.9,22.2,71.6,22.2,71.6z"/>
	<path d="M28.4,67.1h-2.7v-0.3h3.1V67c-1.2,1.6-1.5,2.9-1.6,4.9h-0.4C26.9,69.8,27.3,68.5,28.4,67.1z"/>
</g>
<g class="st0">
	<path d="M5.5,83.5h2.9v0.3H5.9v2.1H8v0.3H5.9v2.5H5.5V83.5z"/>
</g>
<g class="st0">
	<path d="M10.3,86.6l-1.6-3.1h0.4l0.8,1.6c0.2,0.4,0.4,0.8,0.6,1.1l0,0c0.2-0.4,0.4-0.8,0.6-1.1l0.8-1.6h0.4l-1.7,3.1v2.1h-0.4
		L10.3,86.6L10.3,86.6z"/>
	<path d="M14.2,88.5c1.7-1.7,2.5-2.7,2.5-3.5c0-0.6-0.3-1.1-1.1-1.1c-0.5,0-0.9,0.3-1.2,0.7l-0.2-0.2c0.4-0.4,0.8-0.8,1.5-0.8
		c0.9,0,1.4,0.6,1.4,1.4c0,1-0.9,2-2.3,3.5c0.3,0,0.6,0,0.9,0h1.7v0.3h-3.1L14.2,88.5L14.2,88.5z"/>
	<path d="M18,86.2c0-1.7,0.6-2.6,1.5-2.6c1,0,1.5,0.9,1.5,2.6s-0.6,2.7-1.5,2.7C18.6,88.8,18,87.9,18,86.2z M20.7,86.2
		c0-1.6-0.5-2.3-1.2-2.3s-1.2,0.8-1.2,2.3c0,1.6,0.5,2.4,1.2,2.4C20.3,88.5,20.7,87.7,20.7,86.2z"/>
	<path d="M22.2,88.4h1.2v-4.2h-0.9V84c0.4-0.1,0.7-0.2,1-0.3h0.3v4.8h1.1v0.3h-2.7C22.2,88.8,22.2,88.4,22.2,88.4z"/>
	<path d="M25.7,86.4c0-2.1,0.9-2.9,1.9-2.9c0.5,0,0.8,0.2,1.1,0.5l-0.2,0.2c-0.2-0.3-0.5-0.4-0.9-0.4c-0.8,0-1.5,0.7-1.5,2.5
		c0.4-0.4,0.8-0.7,1.3-0.7c0.9,0,1.4,0.6,1.4,1.6c0,0.9-0.6,1.6-1.4,1.6C26.4,88.8,25.7,88,25.7,86.4z M26.1,86.7
		c0.1,1.1,0.5,1.8,1.3,1.8c0.6,0,1-0.6,1-1.3s-0.3-1.3-1.1-1.3C27,86,26.5,86.2,26.1,86.7z"/>
</g>
<g class="st0">
	<path d="M5.5,100.3h2.9v0.3H5.9v2.1H8v0.3H5.9v2.5H5.5V100.3z"/>
</g>
<g class="st0">
	<path d="M10.3,103.4l-1.6-3.1h0.4l0.8,1.6c0.2,0.4,0.4,0.8,0.6,1.1l0,0c0.2-0.4,0.4-0.8,0.6-1.1l0.8-1.6h0.4l-1.6,3.1v2.1h-0.4
		C10.3,105.5,10.3,103.4,10.3,103.4z"/>
	<path d="M14.2,105.4c1.7-1.7,2.5-2.7,2.5-3.5c0-0.6-0.3-1.1-1.1-1.1c-0.5,0-0.9,0.3-1.2,0.7l-0.2-0.2c0.4-0.4,0.8-0.8,1.5-0.8
		c0.9,0,1.4,0.6,1.4,1.4c0,1-0.9,2-2.3,3.5c0.3,0,0.6,0,0.9,0h1.7v0.3h-3.1L14.2,105.4L14.2,105.4z"/>
	<path d="M18,103c0-1.7,0.6-2.6,1.5-2.6c1,0,1.5,0.9,1.5,2.6s-0.6,2.7-1.5,2.7S18,104.7,18,103z M20.7,103c0-1.6-0.5-2.3-1.2-2.3
		s-1.2,0.8-1.2,2.3c0,1.6,0.5,2.4,1.2,2.4C20.3,105.4,20.7,104.6,20.7,103z"/>
	<path d="M22.2,105.3h1.2v-4.2h-0.9v-0.2c0.4-0.1,0.7-0.2,1-0.3h0.3v4.8h1.1v0.3h-2.7C22.2,105.7,22.2,105.3,22.2,105.3z"/>
	<path d="M25.5,105l0.2-0.2c0.3,0.3,0.7,0.6,1.4,0.6s1.3-0.6,1.3-1.4s-0.5-1.3-1.2-1.3c-0.4,0-0.6,0.1-1,0.3l-0.2-0.2l0.2-2.4h2.4
		v0.3h-2l-0.2,1.8c0.3-0.2,0.5-0.3,0.9-0.3c0.9,0,1.6,0.5,1.6,1.6s-0.8,1.7-1.6,1.7C26.3,105.7,25.9,105.3,25.5,105z"/>
</g>
<rect x="33.4" y="30.8" class="st2" width="145" height="8.9"/>
<rect x="33.4" y="47.6" class="st3" width="165.8" height="8.9"/>
<rect x="33.4" y="64.4" class="st3" width="142.3" height="8.9"/>
<rect x="33.4" y="81.3" class="st3" width="109.3" height="8.9"/>
<rect x="33.4" y="98.1" class="st3" width="119.2" height="8.9"/>
</svg>
