<?xml version="1.0" encoding="utf-8"?>
<!-- Generator: Adobe Illustrator 23.0.3, SVG Export Plug-In . SVG Version: 6.00 Build 0)  -->
<svg version="1.1" id="Layer_1" xmlns="http://www.w3.org/2000/svg" xmlns:xlink="http://www.w3.org/1999/xlink" x="0px" y="0px"
	 viewBox="0 0 243 127.5" style="enable-background:new 0 0 243 127.5;" xml:space="preserve">
<style type="text/css">
	.st0{fill:none;stroke:#000000;stroke-width:0.25;}
	.st1{fill:#55371E;}
	.st2{fill:#ABD693;}
</style>
<g>
	<g>
		<path d="M1.1,0.5h2.1c1.3,0,2.3,0.5,2.3,2c0,1-0.4,1.6-1.1,1.9L5.7,7H4.2L3.1,4.7H2.4V7H1.1V0.5z M3.2,3.5c0.7,0,1.1-0.3,1.1-1
			S3.9,1.7,3.2,1.7H2.5v1.8H3.2z"/>
		<path d="M6.5,0.5h3.7v1.2H7.8V3h2v1.2h-2v1.5h2.5v1.2H6.5C6.5,6.9,6.5,0.5,6.5,0.5z"/>
		<path d="M10.5,0.5h1.4l0.7,3c0.2,0.7,0.3,1.4,0.5,2.1l0,0c0.2-0.7,0.3-1.4,0.5-2.1l0.7-3h1.4L13.9,7h-1.6L10.5,0.5z"/>
		<path d="M16.1,0.5h3.7v1.2h-2.4V3h2v1.2h-2v1.5h2.5v1.2h-3.8V0.5z"/>
		<path d="M20.9,0.5h1.4l1.5,3.2l0.6,1.4l0,0c-0.1-0.7-0.2-1.6-0.2-2.4V0.5h1.3V7h-1.4l-1.5-3.2L22,2.4l0,0c0.1,0.7,0.2,1.6,0.2,2.4
			v2.3h-1.3V0.5z"/>
		<path d="M26.7,4V0.5H28v3.6c0,1.3,0.4,1.7,1,1.7c0.7,0,1-0.4,1-1.7V0.5h1.3V4c0,2.2-0.8,3.1-2.3,3.1S26.7,6.2,26.7,4z"/>
		<path d="M32.5,0.5h3.7v1.2h-2.3V3h2v1.2h-2v1.5h2.5v1.2h-3.8V0.5H32.5z"/>
		<path d="M38.9,0.5h3.7v1.2h-2.4v1.5h2.1v1.3h-2.1V7h-1.3V0.5z"/>
		<path d="M43.4,0.5h2.1c1.3,0,2.4,0.5,2.4,2c0,1-0.4,1.6-1.1,1.9L48.1,7h-1.5l-1.1-2.3h-0.7V7h-1.3V0.5H43.4z M45.5,3.5
			c0.7,0,1.1-0.3,1.1-1s-0.4-0.9-1.1-0.9h-0.7v1.9H45.5z"/>
		<path d="M48.5,3.7c0-2.1,1.1-3.3,2.7-3.3s2.7,1.2,2.7,3.3s-1.1,3.4-2.7,3.4S48.5,5.9,48.5,3.7z M52.5,3.7c0-1.3-0.5-2.1-1.3-2.1
			s-1.3,0.8-1.3,2.1s0.5,2.1,1.3,2.1S52.5,5,52.5,3.7z"/>
		<path d="M54.8,0.5h1.5l1,2.9c0.1,0.4,0.2,0.8,0.3,1.2l0,0c0.1-0.4,0.2-0.8,0.3-1.2l1-2.9h1.5V7h-1.2V4.6c0-0.6,0.1-1.6,0.2-2.2
			l0,0l-0.5,1.5l-1,2.5h-0.7l-0.8-2.5l-0.5-1.5l0,0C56,3,56.1,4,56.1,4.6V7h-1.2L54.8,0.5L54.8,0.5z"/>
		<path d="M62.8,3.7c0-2.1,1.1-3.3,2.7-3.3s2.7,1.2,2.7,3.3s-1.1,3.4-2.7,3.4S62.8,5.9,62.8,3.7z M66.8,3.7c0-1.3-0.5-2.1-1.3-2.1
			s-1.3,0.8-1.3,2.1s0.5,2.1,1.3,2.1S66.8,5,66.8,3.7z"/>
		<path d="M69.1,0.5h2c1.3,0,2.4,0.5,2.4,2.1c0,1.5-1.1,2.2-2.3,2.2h-0.7V7h-1.3L69.1,0.5L69.1,0.5z M71.1,3.6c0.7,0,1.1-0.4,1.1-1
			s-0.4-0.9-1.1-0.9h-0.6v2h0.6V3.6z"/>
		<path d="M74.3,0.5H78v1.2h-2.4V3h2v1.2h-2v1.5h2.5v1.2h-3.8C74.3,6.9,74.3,0.5,74.3,0.5z"/>
		<path d="M79.1,0.5h2.1c1.3,0,2.3,0.5,2.3,2c0,1-0.4,1.6-1.1,1.9L83.7,7h-1.5l-1.1-2.3h-0.7V7h-1.3C79.1,7,79.1,0.5,79.1,0.5z
			 M81.1,3.5c0.7,0,1.1-0.3,1.1-1s-0.4-0.9-1.1-0.9h-0.7v1.9H81.1z"/>
		<path d="M85.5,0.5h1.6L89,7h-1.4l-0.4-1.5h-1.8L85,7h-1.4L85.5,0.5z M85.6,4.3h1.3l-0.1-0.6c-0.2-0.7-0.3-1.4-0.5-2.1l0,0
			C86.2,2.3,86,3,85.8,3.7L85.6,4.3z"/>
		<path d="M89.9,1.7h-1.6V0.5h4.6v1.2h-1.6V7h-1.4V1.7z"/>
		<path d="M93.5,0.5h1.3V7h-1.3V0.5z"/>
		<path d="M95.8,3.7c0-2.1,1.1-3.3,2.7-3.3s2.7,1.2,2.7,3.3s-1.1,3.4-2.7,3.4S95.8,5.9,95.8,3.7z M99.8,3.7c0-1.3-0.5-2.1-1.3-2.1
			s-1.3,0.8-1.3,2.1s0.5,2.1,1.3,2.1S99.8,5,99.8,3.7z"/>
		<path d="M102.1,0.5h1.4l1.5,3.2l0.6,1.4l0,0c-0.1-0.7-0.2-1.6-0.2-2.4V0.5h1.3V7h-1.4l-1.5-3.2l-0.6-1.4l0,0
			c0.1,0.7,0.2,1.6,0.2,2.4v2.3h-1.3V0.5z"/>
		<path d="M107.5,6.2l0.8-1c0.4,0.4,1,0.7,1.5,0.7c0.6,0,0.8-0.2,0.8-0.6c0-0.4-0.3-0.5-0.9-0.8l-0.8-0.4c-0.6-0.3-1.2-0.8-1.2-1.8
			c0-1.1,0.9-1.9,2.1-1.9c0.7,0,1.4,0.3,1.9,0.9L111,2.2c-0.4-0.3-0.8-0.5-1.2-0.5c-0.5,0-0.8,0.2-0.8,0.6c0,0.4,0.4,0.5,0.9,0.8
			l0.8,0.3c0.7,0.3,1.2,0.8,1.2,1.8c0,1.1-0.8,2-2.2,2C108.9,7.1,108.1,6.8,107.5,6.2z"/>
	</g>
	<g>
		<path d="M114,5.2c0-1.1,0.3-2.1,0.8-2.9l0.2,0.1c-0.5,0.8-0.7,1.8-0.7,2.8s0.2,2,0.7,2.8l-0.2,0.1C114.3,7.3,114,6.4,114,5.2z"/>
		<path d="M115.5,3.9h0.2v0.5l0,0c0.3-0.3,0.6-0.6,1-0.6c0.6,0,0.9,0.4,0.9,1.2v2h-0.3V5c0-0.7-0.2-1-0.7-1c-0.3,0-0.6,0.2-0.9,0.6
			V7h-0.3V3.9H115.5z"/>
		<path d="M118.3,5.5c0-1,0.6-1.6,1.2-1.6c0.7,0,1.1,0.5,1.1,1.4c0,0.1,0,0.2,0,0.2h-2c0,0.8,0.4,1.4,1.1,1.4c0.3,0,0.6-0.1,0.8-0.3
			l0.1,0.2c-0.2,0.1-0.5,0.3-0.9,0.3C118.9,7.1,118.3,6.5,118.3,5.5z M120.4,5.3c0-0.8-0.3-1.2-0.8-1.2s-0.9,0.4-1,1.2H120.4z"/>
		<path d="M121.2,6.2v-2h-0.4V4h0.5V3.1h0.2V4h0.8v0.2h-0.8v2c0,0.4,0.1,0.7,0.5,0.7c0.1,0,0.3,0,0.4-0.1l0.1,0.2
			c-0.2,0.1-0.3,0.1-0.5,0.1C121.4,7.1,121.2,6.7,121.2,6.2z"/>
		<path d="M123.7,5.5c0-1,0.6-1.6,1.3-1.6s1.3,0.6,1.3,1.6s-0.6,1.6-1.3,1.6C124.3,7.1,123.7,6.5,123.7,5.5z M126,5.5
			c0-0.8-0.4-1.4-1-1.4s-1,0.6-1,1.4c0,0.8,0.4,1.4,1,1.4S126,6.3,126,5.5z"/>
		<path d="M127,4.1h-0.4V3.9h0.4V3.2c0-0.6,0.3-0.9,0.7-0.9c0.1,0,0.3,0,0.4,0.1L128,2.6c-0.1-0.1-0.2-0.1-0.3-0.1
			c-0.3,0-0.4,0.3-0.4,0.7v0.7h0.7v0.2h-0.7V7H127V4.1z"/>
		<path d="M129.2,5.5c0-1,0.6-1.6,1.2-1.6c0.7,0,1.1,0.5,1.1,1.4c0,0.1,0,0.2,0,0.2h-2c0,0.8,0.4,1.4,1.1,1.4c0.3,0,0.6-0.1,0.8-0.3
			l0.1,0.2c-0.2,0.1-0.5,0.3-0.9,0.3C129.7,7.1,129.2,6.5,129.2,5.5z M131.2,5.3c0-0.8-0.3-1.2-0.8-1.2s-0.9,0.4-1,1.2H131.2z"/>
		<path d="M132.6,5.4l-0.9-1.5h0.3l0.5,0.8c0.1,0.2,0.2,0.3,0.3,0.5l0,0c0.1-0.2,0.2-0.3,0.3-0.5l0.4-0.8h0.3l-0.9,1.5l1,1.6h-0.3
			l-0.5-0.9c-0.1-0.2-0.2-0.4-0.3-0.6l0,0c-0.1,0.2-0.2,0.4-0.3,0.6L132,7h-0.3L132.6,5.4z"/>
		<path d="M134.1,5.5c0-1,0.6-1.6,1.3-1.6c0.4,0,0.6,0.2,0.8,0.4L136,4.5c-0.2-0.2-0.4-0.3-0.7-0.3c-0.6,0-1,0.6-1,1.4
			c0,0.8,0.4,1.4,1,1.4c0.3,0,0.6-0.2,0.8-0.4l0.1,0.2c-0.2,0.2-0.5,0.4-0.9,0.4C134.6,7.1,134.1,6.5,134.1,5.5z"/>
		<path d="M136.7,2.9c0-0.1,0.1-0.3,0.2-0.3c0.1,0,0.2,0.1,0.2,0.3s-0.1,0.3-0.2,0.3C136.8,3.1,136.7,3,136.7,2.9z M136.8,3.9h0.3V7
			h-0.3V3.9z"/>
		<path d="M137.7,6.7l0.2-0.2c0.2,0.2,0.5,0.4,0.9,0.4s0.7-0.3,0.7-0.6c0-0.4-0.4-0.6-0.7-0.7c-0.4-0.2-0.9-0.4-0.9-0.9
			s0.3-0.8,0.9-0.8c0.3,0,0.6,0.1,0.8,0.3l-0.1,0.2c-0.2-0.2-0.4-0.3-0.7-0.3c-0.4,0-0.6,0.3-0.6,0.6c0,0.4,0.3,0.5,0.7,0.6
			c0.4,0.2,0.9,0.3,0.9,1c0,0.5-0.3,0.9-1,0.9C138.3,7.1,137.9,6.9,137.7,6.7z"/>
		<path d="M140,5.5c0-1,0.6-1.6,1.2-1.6c0.7,0,1.1,0.5,1.1,1.4c0,0.1,0,0.2,0,0.2h-2c0,0.8,0.4,1.4,1.1,1.4c0.3,0,0.6-0.1,0.8-0.3
			l0.1,0.2c-0.2,0.1-0.5,0.3-0.9,0.3C140.6,7.1,140,6.5,140,5.5z M142.1,5.3c0-0.8-0.3-1.2-0.8-1.2s-0.9,0.4-1,1.2H142.1z"/>
		<path d="M143.8,5.5c0-1,0.6-1.6,1.3-1.6c0.3,0,0.6,0.1,0.9,0.4V3.7V2.3h0.3V7h-0.4V6.6l0,0c-0.2,0.3-0.5,0.5-0.9,0.5
			C144.3,7.1,143.8,6.5,143.8,5.5z M145.9,6.3V4.5c-0.3-0.3-0.6-0.4-0.8-0.4c-0.6,0-1,0.6-1,1.4c0,0.8,0.3,1.4,0.9,1.4
			C145.3,6.8,145.6,6.7,145.9,6.3z"/>
		<path d="M147.1,5.9v-2h0.3v2c0,0.7,0.2,1,0.6,1c0.3,0,0.6-0.2,0.9-0.6V4h0.3v3.1h-0.3V6.6l0,0c-0.3,0.4-0.6,0.6-1,0.6
			C147.3,7.1,147.1,6.7,147.1,5.9z"/>
		<path d="M150.2,6.2v-2h-0.4V4h0.4V3.1h0.2V4h0.8v0.2h-0.8v2c0,0.4,0.1,0.7,0.5,0.7c0.1,0,0.3,0,0.4-0.1l0.1,0.2
			c-0.2,0.1-0.3,0.1-0.5,0.1C150.3,7.1,150.2,6.7,150.2,6.2z"/>
		<path d="M151.4,8.4l0.1-0.3c0.1,0,0.1,0.1,0.2,0.1c0.3,0,0.6-0.4,0.7-0.8l0.1-0.3l-1.2-3.2h0.3l0.7,2c0.1,0.3,0.2,0.6,0.3,0.9l0,0
			c0.1-0.3,0.2-0.6,0.3-0.9l0.6-2h0.3l-1.1,3.5c-0.2,0.5-0.4,1-1,1C151.6,8.4,151.5,8.4,151.4,8.4z"/>
		<path d="M153.9,8c0.5-0.8,0.7-1.8,0.7-2.8s-0.2-2-0.7-2.8l0.2-0.1c0.5,0.9,0.8,1.8,0.8,2.9s-0.3,2.1-0.8,2.9L153.9,8z"/>
		<path d="M156.8,5.2c0-1.1,0.3-2.1,0.8-2.9l0.2,0.1c-0.5,0.8-0.7,1.8-0.7,2.8s0.2,2,0.7,2.8l-0.2,0.1C157,7.3,156.8,6.4,156.8,5.2z
			"/>
		<path d="M158.2,2.9c0-0.1,0.1-0.3,0.2-0.3c0.1,0,0.2,0.1,0.2,0.3s-0.1,0.3-0.2,0.3C158.3,3.1,158.2,3,158.2,2.9z M158.3,3.9h0.3V7
			h-0.3V3.9z"/>
		<path d="M159.5,3.9h0.2v0.5l0,0c0.3-0.3,0.6-0.6,1-0.6c0.6,0,0.9,0.4,0.9,1.2v2h-0.3V5c0-0.7-0.2-1-0.7-1c-0.3,0-0.6,0.2-0.9,0.6
			V7h-0.3V3.9H159.5z"/>
		<path d="M162.3,5.5c0-1,0.6-1.6,1.3-1.6c0.4,0,0.6,0.2,0.8,0.4l-0.2,0.2c-0.2-0.2-0.4-0.3-0.7-0.3c-0.6,0-1,0.6-1,1.4
			c0,0.8,0.4,1.4,1,1.4c0.3,0,0.6-0.2,0.8-0.4l0.1,0.2c-0.2,0.2-0.5,0.4-0.9,0.4C162.8,7.1,162.3,6.5,162.3,5.5z"/>
		<path d="M165,6.6V2.3h0.3v4.3c0,0.1,0.1,0.2,0.1,0.2s0,0,0.1,0V7c-0.1,0-0.1,0-0.2,0C165.1,7.1,165,6.9,165,6.6z"/>
		<path d="M166.2,5.9v-2h0.3v2c0,0.7,0.2,1,0.6,1c0.3,0,0.6-0.2,0.9-0.6V4h0.3v3.1h-0.2V6.6l0,0c-0.3,0.4-0.6,0.6-1,0.6
			C166.5,7.1,166.2,6.7,166.2,5.9z"/>
		<path d="M169,5.5c0-1,0.6-1.6,1.3-1.6c0.3,0,0.6,0.1,0.9,0.4V3.7V2.3h0.3V7h-0.2V6.6l0,0c-0.2,0.3-0.5,0.5-0.9,0.5
			C169.5,7.1,169,6.5,169,5.5z M171.1,6.3V4.5c-0.3-0.3-0.6-0.4-0.8-0.4c-0.6,0-1,0.6-1,1.4c0,0.8,0.3,1.4,0.9,1.4
			C170.5,6.8,170.8,6.7,171.1,6.3z"/>
		<path d="M172.2,2.9c0-0.1,0.1-0.3,0.2-0.3c0.1,0,0.2,0.1,0.2,0.3s-0.1,0.3-0.2,0.3C172.3,3.1,172.2,3,172.2,2.9z M172.3,3.9h0.3V7
			h-0.3V3.9z"/>
		<path d="M173.5,3.9h0.2v0.5l0,0c0.3-0.3,0.6-0.6,1-0.6c0.6,0,0.9,0.4,0.9,1.2v2h-0.3V5c0-0.7-0.2-1-0.7-1c-0.3,0-0.6,0.2-0.9,0.6
			V7h-0.3V3.9H173.5z"/>
		<path d="M176.3,7.7c0-0.3,0.2-0.5,0.4-0.8l0,0c-0.1-0.1-0.2-0.3-0.2-0.5c0-0.3,0.2-0.5,0.3-0.6l0,0c-0.2-0.2-0.4-0.5-0.4-0.9
			c0-0.6,0.4-1.1,1-1.1c0.2,0,0.3,0,0.4,0.1h1v0.2h-0.7c0.2,0.2,0.3,0.5,0.3,0.8c0,0.6-0.4,1.1-1,1.1c-0.2,0-0.3,0-0.5-0.1
			c-0.1,0.1-0.2,0.2-0.2,0.4s0.1,0.4,0.5,0.4h0.6c0.6,0,0.9,0.2,0.9,0.7s-0.5,1.1-1.3,1.1C176.8,8.5,176.3,8.2,176.3,7.7z
			 M178.5,7.5c0-0.3-0.2-0.5-0.7-0.5h-0.6c-0.1,0-0.2,0-0.4-0.1c-0.3,0.2-0.4,0.4-0.4,0.7c0,0.4,0.3,0.7,0.9,0.7
			C178.1,8.3,178.5,7.9,178.5,7.5z M178.2,4.9c0-0.5-0.3-0.9-0.7-0.9s-0.7,0.3-0.7,0.9c0,0.5,0.3,0.9,0.7,0.9
			C177.8,5.8,178.2,5.4,178.2,4.9z"/>
		<path d="M180.1,5.5c0-1,0.6-1.6,1.3-1.6s1.3,0.6,1.3,1.6s-0.6,1.6-1.3,1.6S180.1,6.5,180.1,5.5z M182.4,5.5c0-0.8-0.4-1.4-1-1.4
			s-1,0.6-1,1.4c0,0.8,0.4,1.4,1,1.4S182.4,6.3,182.4,5.5z"/>
		<path d="M183.3,6.2v-2h-0.4V4h0.5V3.1h0.2V4h0.8v0.2h-0.8v2c0,0.4,0.1,0.7,0.5,0.7c0.1,0,0.3,0,0.4-0.1l0.1,0.2
			c-0.2,0.1-0.3,0.1-0.5,0.1C183.5,7.1,183.3,6.7,183.3,6.2z"/>
		<path d="M185,2.3h0.3v2c0.3-0.3,0.6-0.6,1-0.6c0.6,0,0.9,0.4,0.9,1.2v2h-0.3v-2c0-0.7-0.2-1-0.7-1c-0.3,0-0.6,0.2-0.9,0.6v2.4H185
			V2.3z"/>
		<path d="M187.7,5.5c0-1,0.6-1.6,1.2-1.6c0.7,0,1.1,0.5,1.1,1.4c0,0.1,0,0.2,0,0.2h-2c0,0.8,0.4,1.4,1.1,1.4c0.3,0,0.6-0.1,0.8-0.3
			l0.1,0.2c-0.2,0.1-0.5,0.3-0.9,0.3C188.3,7.1,187.7,6.5,187.7,5.5z M189.8,5.3c0-0.8-0.3-1.2-0.8-1.2s-0.9,0.4-1,1.2H189.8z"/>
		<path d="M190.7,3.9h0.2v0.6l0,0c0.2-0.4,0.5-0.7,0.8-0.7c0.1,0,0.2,0,0.3,0.1l-0.1,0.3c-0.1,0-0.1-0.1-0.3-0.1
			c-0.3,0-0.6,0.2-0.8,0.8V7h-0.3V3.9H190.7z"/>
		<path d="M193.2,5.5c0-1,0.6-1.6,1.3-1.6s1.3,0.6,1.3,1.6s-0.6,1.6-1.3,1.6C193.8,7.1,193.2,6.5,193.2,5.5z M195.5,5.5
			c0-0.8-0.4-1.4-1-1.4s-1,0.6-1,1.4c0,0.8,0.4,1.4,1,1.4S195.5,6.3,195.5,5.5z"/>
		<path d="M196.5,3.9h0.2v0.4l0,0c0.3-0.2,0.6-0.5,1-0.5c0.8,0,1.1,0.6,1.1,1.6c0,1.1-0.6,1.7-1.3,1.7c-0.3,0-0.6-0.1-0.9-0.4v1.7
			h-0.3V3.9H196.5z M198.5,5.4c0-0.8-0.2-1.3-0.9-1.3c-0.3,0-0.6,0.2-0.9,0.5v1.9c0.3,0.3,0.6,0.4,0.8,0.4
			C198.1,6.8,198.5,6.3,198.5,5.4z"/>
		<path d="M199.3,5.5c0-1,0.6-1.6,1.2-1.6c0.7,0,1.1,0.5,1.1,1.4c0,0.1,0,0.2,0,0.2h-2c0,0.8,0.4,1.4,1.1,1.4c0.3,0,0.6-0.1,0.8-0.3
			l0.1,0.2c-0.2,0.1-0.5,0.3-0.9,0.3C199.9,7.1,199.3,6.5,199.3,5.5z M201.4,5.3c0-0.8-0.3-1.2-0.8-1.2s-0.9,0.4-1,1.2H201.4z"/>
		<path d="M202.2,3.9h0.2v0.6l0,0c0.2-0.4,0.5-0.7,0.8-0.7c0.1,0,0.2,0,0.3,0.1l-0.1,0.3c-0.1,0-0.1-0.1-0.3-0.1
			c-0.3,0-0.6,0.2-0.8,0.8V7H202V3.9H202.2z"/>
		<path d="M203.7,6.2c0-0.7,0.6-1,1.8-1.2c0-0.5-0.1-1-0.7-1c-0.4,0-0.7,0.2-0.9,0.4l-0.1-0.2c0.2-0.2,0.6-0.4,1.1-0.4
			c0.7,0,0.9,0.5,0.9,1.2v2h-0.2V6.6l0,0c-0.3,0.3-0.6,0.5-1,0.5C204,7.1,203.7,6.8,203.7,6.2z M205.5,6.3V5.2
			c-1.2,0.1-1.6,0.4-1.6,0.9c0,0.4,0.3,0.6,0.6,0.6C204.8,6.8,205.1,6.7,205.5,6.3z"/>
		<path d="M206.6,6.2v-2h-0.4V4h0.5V3.1h0.2V4h0.8v0.2h-0.8v2c0,0.4,0.1,0.7,0.5,0.7c0.1,0,0.3,0,0.4-0.1l0.1,0.2
			c-0.2,0.1-0.3,0.1-0.5,0.1C206.8,7.1,206.6,6.7,206.6,6.2z"/>
		<path d="M208.2,2.9c0-0.1,0.1-0.3,0.2-0.3c0.1,0,0.2,0.1,0.2,0.3s-0.1,0.3-0.2,0.3C208.3,3.1,208.2,3,208.2,2.9z M208.3,3.9h0.3V7
			h-0.3V3.9z"/>
		<path d="M209.5,3.9h0.2v0.5l0,0c0.3-0.3,0.6-0.6,1-0.6c0.6,0,0.9,0.4,0.9,1.2v2h-0.3V5c0-0.7-0.2-1-0.7-1c-0.3,0-0.6,0.2-0.9,0.6
			V7h-0.3V3.9H209.5z"/>
		<path d="M212.2,7.7c0-0.3,0.2-0.5,0.4-0.8l0,0c-0.1-0.1-0.2-0.3-0.2-0.5c0-0.3,0.2-0.5,0.3-0.6l0,0c-0.2-0.2-0.4-0.5-0.4-0.9
			c0-0.6,0.4-1.1,1-1.1c0.2,0,0.3,0,0.4,0.1h1v0.2H214c0.2,0.2,0.3,0.5,0.3,0.8c0,0.6-0.4,1.1-1,1.1c-0.2,0-0.3,0-0.5-0.1
			c-0.1,0.1-0.2,0.2-0.2,0.4s0.1,0.4,0.5,0.4h0.6c0.6,0,0.9,0.2,0.9,0.7s-0.5,1.1-1.3,1.1C212.7,8.5,212.2,8.2,212.2,7.7z
			 M214.5,7.5c0-0.3-0.2-0.5-0.7-0.5h-0.6c-0.1,0-0.2,0-0.4-0.1c-0.3,0.2-0.4,0.4-0.4,0.7c0,0.4,0.3,0.7,0.9,0.7
			C214.1,8.3,214.5,7.9,214.5,7.5z M214.1,4.9c0-0.5-0.3-0.9-0.7-0.9s-0.7,0.3-0.7,0.9c0,0.5,0.3,0.9,0.7,0.9
			C213.7,5.8,214.1,5.4,214.1,4.9z"/>
		<path d="M216.1,2.9c0-0.1,0.1-0.3,0.2-0.3c0.1,0,0.2,0.1,0.2,0.3s-0.1,0.3-0.2,0.3C216.2,3.1,216.1,3,216.1,2.9z M216.2,3.9h0.3V7
			h-0.3V3.9z"/>
		<path d="M217.4,3.9h0.2v0.5l0,0c0.3-0.3,0.6-0.6,1-0.6c0.6,0,0.9,0.4,0.9,1.2v2h-0.3V5c0-0.7-0.2-1-0.7-1c-0.3,0-0.6,0.2-0.9,0.6
			V7h-0.3V3.9H217.4z"/>
		<path d="M220.2,5.5c0-1,0.6-1.6,1.3-1.6c0.4,0,0.6,0.2,0.8,0.4l-0.2,0.2c-0.2-0.2-0.4-0.3-0.7-0.3c-0.6,0-1,0.6-1,1.4
			c0,0.8,0.4,1.4,1,1.4c0.3,0,0.6-0.2,0.8-0.4l0.1,0.2c-0.2,0.2-0.5,0.4-0.9,0.4C220.8,7.1,220.2,6.5,220.2,5.5z"/>
		<path d="M222.6,5.5c0-1,0.6-1.6,1.3-1.6s1.3,0.6,1.3,1.6s-0.6,1.6-1.3,1.6S222.6,6.5,222.6,5.5z M224.9,5.5c0-0.8-0.4-1.4-1-1.4
			s-1,0.6-1,1.4c0,0.8,0.4,1.4,1,1.4S224.9,6.3,224.9,5.5z"/>
		<path d="M225.9,3.9h0.2v0.5l0,0c0.3-0.3,0.6-0.6,0.9-0.6c0.5,0,0.7,0.3,0.8,0.6c0.3-0.4,0.6-0.6,1-0.6c0.6,0,0.9,0.4,0.9,1.2v2
			h-0.3V5c0-0.7-0.2-1-0.6-1c-0.3,0-0.5,0.2-0.9,0.6V7h-0.3V5c0-0.7-0.2-1-0.6-1c-0.3,0-0.5,0.2-0.9,0.6V7h-0.2V3.9z"/>
		<path d="M230.3,5.5c0-1,0.6-1.6,1.2-1.6c0.7,0,1.1,0.5,1.1,1.4c0,0.1,0,0.2,0,0.2h-2c0,0.8,0.4,1.4,1.1,1.4c0.3,0,0.6-0.1,0.8-0.3
			l0.1,0.2c-0.2,0.1-0.5,0.3-0.9,0.3C230.9,7.1,230.3,6.5,230.3,5.5z M232.4,5.3c0-0.8-0.3-1.2-0.8-1.2s-0.9,0.4-1,1.2H232.4z"/>
		<path d="M232.9,8c0.5-0.8,0.7-1.8,0.7-2.8s-0.2-2-0.7-2.8l0.2-0.1c0.5,0.9,0.8,1.8,0.8,2.9s-0.3,2.1-0.8,2.9L232.9,8z"/>
	</g>
	<g>
		<path d="M1,13.2c0-1.1,0.3-2.1,0.9-2.9l0.2,0.1c-0.5,0.8-0.8,1.8-0.8,2.8s0.3,2,0.8,2.8l-0.2,0.2C1.3,15.3,1,14.4,1,13.2z"/>
		<path d="M2.7,12.9h0.5c0.8,0,1.2-0.3,1.2-0.9H2.7v-0.2h0.4h1.2c-0.1-0.5-0.5-0.7-1.2-0.7H2.6v-0.2H5v0.2H4
			c0.3,0.1,0.5,0.4,0.5,0.7h0.4V12H4.5c0,0.7-0.5,1.1-1.1,1.2L4.7,15H4.3L3,13.2H2.5v-0.3H2.7z"/>
		<path d="M7.2,10.9c0-0.1,0.1-0.3,0.2-0.3c0.1,0,0.2,0.1,0.2,0.3c0,0.2-0.1,0.3-0.2,0.3C7.3,11.1,7.2,11,7.2,10.9z M7.3,11.9h0.3
			V15H7.3V11.9z"/>
		<path d="M8.7,11.9h0.2v0.5l0,0c0.3-0.3,0.6-0.6,1.1-0.6c0.6,0,0.9,0.4,0.9,1.2v2h-0.3v-2c0-0.7-0.2-1-0.7-1c-0.4,0-0.6,0.2-1,0.6
			V15H8.6L8.7,11.9L8.7,11.9z"/>
		<path d="M13.3,12.9c0-1.4,0.7-2.2,1.8-2.2c0.5,0,0.9,0.2,1.1,0.5L16,11.4c-0.2-0.3-0.5-0.4-0.9-0.4c-0.9,0-1.5,0.7-1.5,1.9
			s0.6,2,1.5,2c0.4,0,0.8-0.2,1.1-0.5l0.2,0.2c-0.3,0.4-0.7,0.6-1.3,0.6C14,15.1,13.3,14.2,13.3,12.9z"/>
		<path d="M17.2,11.9h0.2v0.6l0,0c0.2-0.4,0.5-0.7,0.9-0.7c0.1,0,0.2,0,0.3,0.1l-0.1,0.3c-0.1,0-0.2-0.1-0.3-0.1
			c-0.3,0-0.6,0.2-0.9,0.8V15H17v-3.1H17.2z"/>
		<path d="M18.9,13.5c0-1,0.7-1.6,1.4-1.6c0.8,0,1.4,0.6,1.4,1.6s-0.7,1.6-1.4,1.6S18.9,14.5,18.9,13.5z M21.4,13.5
			c0-0.8-0.5-1.4-1.1-1.4s-1.1,0.6-1.1,1.4s0.5,1.4,1.1,1.4C20.9,14.8,21.4,14.3,21.4,13.5z"/>
		<path d="M22.7,11.9h0.2v0.6l0,0c0.2-0.4,0.5-0.7,0.9-0.7c0.1,0,0.2,0,0.3,0.1L24,12.2c-0.1,0-0.2-0.1-0.3-0.1
			c-0.3,0-0.6,0.2-0.9,0.8V15h-0.3v-3.1H22.7z"/>
		<path d="M24.4,13.5c0-1,0.7-1.6,1.4-1.6s1.2,0.5,1.2,1.4c0,0.1,0,0.2,0,0.2h-2.2c0,0.8,0.5,1.4,1.2,1.4c0.3,0,0.6-0.1,0.8-0.3
			l0.1,0.2c-0.2,0.1-0.5,0.3-1,0.3C25,15.1,24.4,14.5,24.4,13.5z M26.7,13.3c0-0.8-0.4-1.2-0.9-1.2s-1,0.4-1.1,1.2H26.7z"/>
		<path d="M27.4,16c0.5-0.8,0.8-1.8,0.8-2.8s-0.3-2-0.8-2.8l0.2-0.1c0.5,0.9,0.9,1.8,0.9,2.9s-0.3,2.1-0.9,2.9L27.4,16z"/>
	</g>
	<line class="st0" x1="0.4" y1="23.7" x2="242.5" y2="23.7"/>
	<line class="st0" x1="0.4" y1="114.1" x2="242.5" y2="114.1"/>
	<g>
		<path d="M217.3,36.4c1.3-1.2,2.2-2.1,2.2-2.8c0-0.5-0.3-0.8-0.7-0.8s-0.6,0.2-0.9,0.5l-0.6-0.6c0.5-0.5,1-0.8,1.7-0.8
			c1,0,1.7,0.6,1.7,1.6c0,0.9-0.8,1.8-1.6,2.6c0.3,0,0.6-0.1,0.8-0.1h1v1h-3.6L217.3,36.4L217.3,36.4z"/>
		<path d="M221.8,36.2h1.1v-2.9h-1v-0.8c0.6-0.1,0.9-0.2,1.3-0.5h0.9v4.1h1v1h-3.2v-0.9H221.8z"/>
		<path d="M225.8,38c0.6-0.2,0.9-0.6,0.9-1c0,0,0,0-0.1,0c-0.4,0-0.7-0.2-0.7-0.7c0-0.4,0.3-0.7,0.7-0.7c0.5,0,0.8,0.4,0.8,1.1
			c0,0.9-0.5,1.5-1.4,1.8L225.8,38z"/>
		<path d="M228.4,36.2h1.1v-2.9h-1v-0.8c0.6-0.1,0.9-0.2,1.3-0.5h0.9v4.1h1v1h-3.2v-0.9H228.4z"/>
		<path d="M232.7,36.2h1.1v-2.9h-1v-0.8c0.6-0.1,0.9-0.2,1.3-0.5h0.9v4.1h1v1h-3.2v-0.9H232.7z"/>
		<path d="M236.7,35.8c0-0.6,0.4-1,0.9-1.2l0,0c-0.4-0.3-0.7-0.7-0.7-1.2c0-0.9,0.7-1.4,1.6-1.4c0.9,0,1.5,0.6,1.5,1.4
			c0,0.5-0.3,0.9-0.7,1.1l0,0c0.5,0.3,0.9,0.7,0.9,1.3c0,0.8-0.7,1.4-1.8,1.4C237.4,37.2,236.7,36.6,236.7,35.8z M239.1,35.8
			c0-0.4-0.4-0.6-1.1-0.9c-0.2,0.2-0.4,0.5-0.4,0.8c0,0.4,0.4,0.7,0.8,0.7C238.8,36.4,239.1,36.2,239.1,35.8z M239,33.4
			c0-0.4-0.2-0.7-0.6-0.7c-0.3,0-0.6,0.2-0.6,0.6c0,0.4,0.4,0.6,0.9,0.8C238.9,33.9,239,33.7,239,33.4z"/>
	</g>
	<g>
		<path d="M220,53.7c1.7-1.7,2.5-2.7,2.5-3.5c0-0.6-0.3-1.1-1.1-1.1c-0.5,0-0.9,0.3-1.2,0.7l-0.3-0.3c0.4-0.4,0.8-0.8,1.5-0.8
			c0.9,0,1.4,0.6,1.4,1.4c0,1-0.9,2-2.3,3.5c0.3,0,0.6,0,0.9,0h1.7v0.3H220L220,53.7L220,53.7z"/>
		<path d="M223.8,53.7c1.7-1.7,2.5-2.7,2.5-3.5c0-0.6-0.3-1.1-1.1-1.1c-0.5,0-0.9,0.3-1.2,0.7l-0.2-0.2c0.4-0.4,0.8-0.8,1.5-0.8
			c0.9,0,1.4,0.6,1.4,1.4c0,1-0.9,2-2.3,3.5c0.3,0,0.6,0,0.9,0h1.7V54h-3.1L223.8,53.7L223.8,53.7z"/>
		<path d="M227.7,55c0.4-0.2,0.6-0.5,0.6-1h-0.1c-0.2,0-0.3-0.1-0.3-0.3s0.2-0.3,0.3-0.3c0.2,0,0.4,0.2,0.4,0.6c0,0.6-0.3,1-0.8,1.3
			L227.7,55z"/>
		<path d="M229.4,51.4c0-1.7,0.6-2.6,1.5-2.6s1.5,0.9,1.5,2.6c0,1.7-0.6,2.7-1.5,2.7S229.4,53.1,229.4,51.4z M232.1,51.4
			c0-1.6-0.5-2.3-1.2-2.3s-1.2,0.8-1.2,2.3c0,1.6,0.5,2.4,1.2,2.4C231.7,53.7,232.1,52.9,232.1,51.4z"/>
		<path d="M233.2,52.6c0-0.7,0.5-1.2,1-1.4l0,0c-0.4-0.2-0.7-0.6-0.7-1.2c0-0.7,0.6-1.2,1.3-1.2c0.9,0,1.4,0.6,1.4,1.3
			c0,0.6-0.4,1.1-0.7,1.3l0,0c0.4,0.3,0.9,0.6,0.9,1.3s-0.6,1.3-1.6,1.3C233.9,54,233.2,53.4,233.2,52.6z M236,52.7
			c0-0.8-0.8-1.1-1.6-1.4c-0.5,0.3-0.9,0.7-0.9,1.3s0.5,1.1,1.3,1.1C235.5,53.8,236,53.3,236,52.7z M235.9,50.1c0-0.6-0.4-1-1-1
			s-1,0.4-1,1c0,0.7,0.7,1,1.4,1.3C235.6,50.9,235.9,50.5,235.9,50.1z"/>
		<path d="M237,53.7c1.7-1.7,2.5-2.7,2.5-3.5c0-0.6-0.3-1.1-1.1-1.1c-0.5,0-0.9,0.3-1.2,0.7l-0.2-0.2c0.4-0.4,0.8-0.8,1.5-0.8
			c0.9,0,1.4,0.6,1.4,1.4c0,1-0.9,2-2.3,3.5c0.3,0,0.6,0,0.9,0h1.7V54h-3.1L237,53.7L237,53.7z"/>
	</g>
	<g>
		<path d="M220.3,70.5h1.2v-4.2h-0.9v-0.2c0.4-0.1,0.7-0.2,1-0.3h0.3v4.7h1.1v0.3h-2.7L220.3,70.5L220.3,70.5z"/>
		<path d="M226.5,66h-2.7v-0.3h3.1v0.2c-1.2,1.6-1.5,2.9-1.6,4.9h-0.4C225,68.7,225.5,67.4,226.5,66z"/>
		<path d="M227.7,71.8c0.4-0.2,0.6-0.5,0.6-1h-0.1c-0.2,0-0.3-0.1-0.3-0.3s0.2-0.3,0.3-0.3c0.2,0,0.4,0.2,0.4,0.6
			c0,0.6-0.3,1-0.8,1.3L227.7,71.8z"/>
		<path d="M229.4,70.6c1.7-1.7,2.5-2.7,2.5-3.5c0-0.6-0.3-1.1-1.1-1.1c-0.5,0-0.9,0.3-1.2,0.7l-0.2-0.2c0.4-0.4,0.8-0.8,1.5-0.8
			c0.9,0,1.4,0.6,1.4,1.4c0,1-0.9,2-2.3,3.5c0.3,0,0.6,0,0.9,0h1.7v0.3h-3.1L229.4,70.6L229.4,70.6z"/>
		<path d="M235.9,66h-2.7v-0.3h3.1v0.2c-1.2,1.6-1.5,2.9-1.6,4.9h-0.4C234.5,68.7,234.9,67.4,235.9,66z"/>
		<path d="M236.9,70.2l0.2-0.2c0.3,0.3,0.7,0.7,1.4,0.7s1.2-0.4,1.2-1.1s-0.5-1.2-1.8-1.2v-0.3c1.2,0,1.6-0.5,1.6-1.1s-0.4-1-1-1
			c-0.5,0-0.9,0.2-1.2,0.6l-0.2-0.2c0.4-0.3,0.8-0.6,1.4-0.6c0.8,0,1.4,0.4,1.4,1.2c0,0.7-0.4,1.1-1,1.3l0,0
			c0.6,0.1,1.2,0.6,1.2,1.3c0,0.9-0.7,1.4-1.6,1.4C237.7,70.9,237.3,70.5,236.9,70.2z"/>
	</g>
	<g>
		<path d="M220.3,87.3h1.2v-4.2h-0.9v-0.2c0.4-0.1,0.7-0.2,1-0.3h0.3v4.8h1.1v0.3h-2.7L220.3,87.3L220.3,87.3z"/>
		<path d="M225.9,86.1h-2.4v-0.2l2.4-3.4h0.3v3.3h0.8v0.3h-0.8v1.5h-0.3V86.1z M225.9,85.8v-1.9c0-0.2,0-0.6,0-0.9l0,0
			c-0.1,0.2-0.3,0.4-0.4,0.6l-1.5,2.1h1.9V85.8z"/>
		<path d="M227.7,88.6c0.4-0.2,0.6-0.5,0.6-1h-0.1c-0.2,0-0.3-0.1-0.3-0.3s0.2-0.3,0.3-0.3c0.2,0,0.4,0.2,0.4,0.6
			c0,0.6-0.3,1-0.8,1.3L227.7,88.6z"/>
		<path d="M229.7,87.3h1.2v-4.2H230v-0.2c0.4-0.1,0.7-0.2,1-0.3h0.3v4.8h1.1v0.3h-2.7L229.7,87.3L229.7,87.3z"/>
		<path d="M233.2,86.3c0-0.7,0.5-1.2,1-1.4l0,0c-0.4-0.2-0.7-0.6-0.7-1.2c0-0.7,0.6-1.2,1.3-1.2c0.9,0,1.4,0.6,1.4,1.3
			c0,0.6-0.4,1.1-0.7,1.3l0,0c0.4,0.3,0.9,0.6,0.9,1.3c0,0.7-0.6,1.3-1.6,1.3C233.9,87.7,233.2,87.1,233.2,86.3z M236,86.4
			c0-0.8-0.8-1.1-1.6-1.4c-0.5,0.3-0.9,0.7-0.9,1.3c0,0.6,0.5,1.1,1.3,1.1C235.5,87.4,236,87,236,86.4z M235.9,83.8c0-0.6-0.4-1-1-1
			s-1,0.4-1,1c0,0.7,0.7,1,1.4,1.3C235.6,84.6,235.9,84.2,235.9,83.8z"/>
		<path d="M237.4,87.3h1.2v-4.2h-0.9v-0.2c0.4-0.1,0.7-0.2,1-0.3h0.3v4.8h1.1v0.3h-2.7L237.4,87.3L237.4,87.3z"/>
	</g>
	<g>
		<path d="M220.3,104.2h1.2V100h-0.9v-0.2c0.4-0.1,0.7-0.2,1-0.3h0.3v4.8h1.1v0.3h-2.7L220.3,104.2L220.3,104.2z"/>
		<path d="M225.9,103h-2.4v-0.2l2.4-3.4h0.3v3.3h0.8v0.3h-0.8v1.5h-0.3V103z M225.9,102.6v-1.9c0-0.2,0-0.6,0-0.9l0,0
			c-0.1,0.2-0.3,0.4-0.4,0.6l-1.5,2.1h1.9V102.6z"/>
		<path d="M227.7,105.5c0.4-0.2,0.6-0.5,0.6-1h-0.1c-0.2,0-0.3-0.1-0.3-0.3s0.2-0.3,0.3-0.3c0.2,0,0.4,0.2,0.4,0.6
			c0,0.6-0.3,1-0.8,1.3L227.7,105.5z"/>
		<path d="M232.1,99.7h-2.7v-0.3h3.1v0.2c-1.2,1.6-1.5,2.9-1.6,4.9h-0.4C230.6,102.4,231.1,101.1,232.1,99.7z"/>
		<path d="M233.2,103.2c0-0.7,0.5-1.2,1-1.4l0,0c-0.4-0.2-0.7-0.6-0.7-1.2c0-0.7,0.6-1.2,1.3-1.2c0.9,0,1.4,0.6,1.4,1.3
			c0,0.6-0.4,1.1-0.7,1.3l0,0c0.4,0.3,0.9,0.6,0.9,1.3c0,0.7-0.6,1.3-1.6,1.3C233.9,104.6,233.2,104,233.2,103.2z M236,103.2
			c0-0.8-0.8-1.1-1.6-1.4c-0.5,0.3-0.9,0.7-0.9,1.3c0,0.6,0.5,1.1,1.3,1.1C235.5,104.3,236,103.8,236,103.2z M235.9,100.6
			c0-0.6-0.4-1-1-1s-1,0.4-1,1c0,0.7,0.7,1,1.4,1.3C235.6,101.4,235.9,101.1,235.9,100.6z"/>
		<path d="M237.2,104.1l0.2-0.2c0.2,0.3,0.5,0.4,0.9,0.4c0.8,0,1.5-0.7,1.5-2.5c-0.4,0.4-0.8,0.7-1.3,0.7c-0.9,0-1.4-0.6-1.4-1.6
			c0-0.9,0.6-1.6,1.4-1.6c1,0,1.7,0.9,1.7,2.4c0,2.1-0.9,2.9-1.9,2.9C237.8,104.6,237.4,104.4,237.2,104.1z M238.5,102.2
			c0.4,0,0.8-0.2,1.2-0.8c-0.1-1.1-0.5-1.8-1.3-1.8c-0.6,0-1,0.6-1,1.3S237.7,102.2,238.5,102.2z"/>
	</g>
	<g>
		<path d="M3.4,31.9h3.3v1H4.6v1.2h1.8v1H4.6v2H3.4C3.4,37.1,3.4,31.9,3.4,31.9z"/>
		<path d="M8.4,35.3l-1.6-3.4h1.3l0.5,1.2c0.1,0.4,0.3,0.8,0.4,1.2l0,0c0.2-0.4,0.3-0.8,0.4-1.2l0.5-1.2h1.2l-1.6,3.4v1.9H8.3v-1.9
			H8.4z"/>
		<path d="M13,36.4c1.3-1.2,2.2-2.1,2.2-2.8c0-0.5-0.3-0.8-0.7-0.8c-0.4,0-0.6,0.2-0.9,0.5l-0.7-0.6c0.5-0.5,1-0.8,1.7-0.8
			c1,0,1.7,0.6,1.7,1.6c0,0.9-0.8,1.8-1.6,2.6c0.3,0,0.6-0.1,0.8-0.1h1v1h-3.6v-0.6H13z"/>
		<path d="M17.2,34.6c0-1.7,0.7-2.6,1.8-2.6c1.1,0,1.8,0.9,1.8,2.6s-0.7,2.7-1.8,2.7C17.9,37.2,17.2,36.3,17.2,34.6z M19.7,34.6
			c0-1.4-0.3-1.7-0.7-1.7c-0.4,0-0.7,0.3-0.7,1.7s0.3,1.7,0.7,1.7S19.7,35.9,19.7,34.6z"/>
		<path d="M21.7,36.2h1.1v-2.9h-1v-0.8c0.6-0.1,0.9-0.2,1.3-0.5H24v4.1h1v1h-3.2L21.7,36.2L21.7,36.2z"/>
		<path d="M25.7,36.6l0.6-0.7c0.2,0.2,0.5,0.4,0.8,0.4c0.6,0,1-0.4,1-1.6c-0.3,0.3-0.7,0.5-1,0.5c-0.9,0-1.5-0.5-1.5-1.6
			s0.8-1.7,1.7-1.7c1,0,1.9,0.7,1.9,2.5c0,1.9-1,2.8-2.1,2.8C26.5,37.2,26,36.9,25.7,36.6z M27.4,34.4c0.3,0,0.6-0.1,0.8-0.5
			c-0.1-0.8-0.4-1.1-0.8-1.1c-0.3,0-0.6,0.2-0.6,0.8C26.7,34.2,27,34.4,27.4,34.4z"/>
	</g>
	<g>
		<path d="M5.9,48.7h2.9V49H6.3v2.1h2.1v0.3H6.3v2.5H5.9V48.7z"/>
		<path d="M10.7,51.8l-1.6-3.1h0.4l0.8,1.6c0.2,0.4,0.4,0.8,0.6,1.1l0,0c0.2-0.4,0.4-0.8,0.6-1.1l0.8-1.6h0.4l-1.6,3.1v2.1h-0.4
			C10.7,53.9,10.7,51.8,10.7,51.8z"/>
		<path d="M14.6,53.7c1.7-1.7,2.5-2.7,2.5-3.5c0-0.6-0.3-1.1-1.1-1.1c-0.5,0-0.9,0.3-1.2,0.7l-0.3-0.3c0.4-0.4,0.8-0.8,1.5-0.8
			c0.9,0,1.4,0.6,1.4,1.4c0,1-0.9,2-2.3,3.5c0.3,0,0.6,0,0.9,0h1.7v0.3h-3.1V53.7z"/>
		<path d="M18.4,51.4c0-1.7,0.6-2.6,1.5-2.6s1.5,0.9,1.5,2.6c0,1.7-0.6,2.7-1.5,2.7S18.4,53.1,18.4,51.4z M21.1,51.4
			c0-1.6-0.5-2.3-1.2-2.3s-1.2,0.8-1.2,2.3c0,1.6,0.5,2.4,1.2,2.4C20.7,53.7,21.1,52.9,21.1,51.4z"/>
		<path d="M22.6,53.6h1.2v-4.2h-0.9v-0.2c0.4-0.1,0.7-0.2,1-0.3h0.3v4.8h1.1V54h-2.7C22.6,54,22.6,53.6,22.6,53.6z"/>
		<path d="M26,52.6c0-0.7,0.5-1.2,1-1.4l0,0c-0.4-0.2-0.7-0.6-0.7-1.2c0-0.7,0.6-1.2,1.3-1.2c0.9,0,1.4,0.6,1.4,1.3
			c0,0.6-0.4,1.1-0.7,1.3l0,0c0.4,0.3,0.9,0.6,0.9,1.3S28.6,54,27.6,54C26.7,54,26,53.4,26,52.6z M28.9,52.7c0-0.8-0.8-1.1-1.6-1.4
			c-0.5,0.3-0.9,0.7-0.9,1.3s0.5,1.1,1.3,1.1C28.4,53.8,28.9,53.3,28.9,52.7z M28.7,50.1c0-0.6-0.4-1-1-1s-1,0.4-1,1
			c0,0.7,0.7,1,1.4,1.3C28.5,50.9,28.7,50.5,28.7,50.1z"/>
	</g>
	<g>
		<path d="M5.9,65.5h2.9v0.3H6.3v2.1h2.1v0.3H6.3v2.5H5.9V65.5z"/>
		<path d="M10.7,68.7l-1.6-3.2h0.4l0.8,1.6c0.2,0.4,0.4,0.8,0.6,1.1l0,0c0.2-0.4,0.4-0.8,0.6-1.1l0.8-1.6h0.4l-1.6,3.1v2.1h-0.4
			V68.7z"/>
		<path d="M14.6,70.6c1.7-1.7,2.5-2.7,2.5-3.5c0-0.6-0.3-1.1-1.1-1.1c-0.5,0-0.9,0.3-1.2,0.7l-0.2-0.2c0.4-0.4,0.8-0.8,1.5-0.8
			c0.9,0,1.4,0.6,1.4,1.4c0,1-0.9,2-2.3,3.5c0.3,0,0.6,0,0.9,0h1.7v0.3h-3.1L14.6,70.6L14.6,70.6z"/>
		<path d="M18.4,68.2c0-1.7,0.6-2.6,1.5-2.6s1.5,0.9,1.5,2.6s-0.6,2.7-1.5,2.7S18.4,69.9,18.4,68.2z M21.1,68.2
			c0-1.6-0.5-2.3-1.2-2.3s-1.2,0.8-1.2,2.3c0,1.6,0.5,2.4,1.2,2.4C20.7,70.6,21.1,69.8,21.1,68.2z"/>
		<path d="M22.6,70.5h1.2v-4.2h-0.9v-0.2c0.4-0.1,0.7-0.2,1-0.3h0.3v4.7h1.1v0.3h-2.7C22.6,70.8,22.6,70.5,22.6,70.5z"/>
		<path d="M28.8,66h-2.7v-0.3h3.1v0.2c-1.2,1.6-1.5,2.9-1.6,4.9h-0.4C27.3,68.7,27.7,67.4,28.8,66z"/>
	</g>
	<g>
		<path d="M5.9,82.4h2.9v0.3H6.3v2.1h2.1v0.3H6.3v2.5H5.9V82.4z"/>
		<path d="M10.7,85.5l-1.6-3.1h0.4l0.8,1.6c0.2,0.4,0.4,0.8,0.6,1.1l0,0c0.2-0.4,0.4-0.8,0.6-1.1l0.8-1.6h0.4L11,85.5v2.1h-0.4
			L10.7,85.5L10.7,85.5z"/>
		<path d="M14.6,87.4c1.7-1.7,2.5-2.7,2.5-3.5c0-0.6-0.3-1.1-1.1-1.1c-0.5,0-0.9,0.3-1.2,0.7l-0.2-0.2c0.4-0.4,0.8-0.8,1.5-0.8
			c0.9,0,1.4,0.6,1.4,1.4c0,1-0.9,2-2.3,3.5c0.3,0,0.6,0,0.9,0h1.7v0.3h-3.1L14.6,87.4L14.6,87.4z"/>
		<path d="M18.4,85.1c0-1.7,0.6-2.6,1.5-2.6s1.5,0.9,1.5,2.6s-0.6,2.7-1.5,2.7S18.4,86.8,18.4,85.1z M21.1,85.1
			c0-1.6-0.5-2.3-1.2-2.3s-1.2,0.8-1.2,2.3c0,1.6,0.5,2.4,1.2,2.4C20.7,87.4,21.1,86.6,21.1,85.1z"/>
		<path d="M22.6,87.3h1.2v-4.2h-0.9v-0.2c0.4-0.1,0.7-0.2,1-0.3h0.3v4.8h1.1v0.3h-2.7C22.6,87.7,22.6,87.3,22.6,87.3z"/>
		<path d="M26.1,85.3c0-2.1,0.9-2.9,1.9-2.9c0.5,0,0.8,0.2,1.1,0.5l-0.2,0.3c-0.2-0.3-0.5-0.4-0.9-0.4c-0.8,0-1.5,0.7-1.5,2.5
			c0.4-0.4,0.8-0.7,1.3-0.7c0.9,0,1.4,0.6,1.4,1.6c0,0.9-0.6,1.6-1.4,1.6C26.8,87.7,26.1,86.9,26.1,85.3z M26.5,85.6
			c0.1,1.1,0.5,1.8,1.3,1.8c0.6,0,1-0.6,1-1.3s-0.3-1.3-1.1-1.3C27.4,84.9,26.9,85.1,26.5,85.6z"/>
	</g>
	<g>
		<path d="M5.9,99.2h2.9v0.3H6.3v2.1h2.1v0.3H6.3v2.5H5.9V99.2z"/>
		<path d="M10.7,102.3l-1.6-3.1h0.4l0.8,1.6c0.2,0.4,0.4,0.8,0.6,1.1l0,0c0.2-0.4,0.4-0.8,0.6-1.1l0.8-1.6h0.4l-1.6,3.1v2.1h-0.4
			C10.7,104.4,10.7,102.3,10.7,102.3z"/>
		<path d="M14.6,104.3c1.7-1.7,2.5-2.7,2.5-3.5c0-0.6-0.3-1.1-1.1-1.1c-0.5,0-0.9,0.3-1.2,0.7l-0.2-0.2c0.4-0.4,0.8-0.8,1.5-0.8
			c0.9,0,1.4,0.6,1.4,1.4c0,1-0.9,2-2.3,3.5c0.3,0,0.6,0,0.9,0h1.7v0.3h-3.1L14.6,104.3L14.6,104.3z"/>
		<path d="M18.4,101.9c0-1.7,0.6-2.6,1.5-2.6s1.5,0.9,1.5,2.6s-0.6,2.7-1.5,2.7S18.4,103.6,18.4,101.9z M21.1,101.9
			c0-1.6-0.5-2.3-1.2-2.3s-1.2,0.8-1.2,2.3c0,1.6,0.5,2.4,1.2,2.4C20.7,104.3,21.1,103.5,21.1,101.9z"/>
		<path d="M22.6,104.2h1.2V100h-0.9v-0.2c0.4-0.1,0.7-0.2,1-0.3h0.3v4.8h1.1v0.3h-2.7C22.6,104.6,22.6,104.2,22.6,104.2z"/>
		<path d="M25.9,103.9l0.2-0.2c0.3,0.3,0.7,0.6,1.4,0.6s1.3-0.6,1.3-1.4s-0.5-1.3-1.2-1.3c-0.4,0-0.6,0.1-1,0.3l-0.2-0.2l0.2-2.4
			h2.3v0.3h-2l-0.2,1.8c0.3-0.2,0.5-0.3,0.9-0.3c0.9,0,1.6,0.5,1.6,1.6s-0.8,1.7-1.6,1.7C26.7,104.6,26.3,104.2,25.9,103.9z"/>
	</g>
	<rect x="33.8" y="29.7" class="st1" width="158.5" height="8.9"/>
	<rect x="33.8" y="46.5" class="st2" width="165.8" height="8.9"/>
	<rect x="33.8" y="63.3" class="st2" width="129.5" height="8.9"/>
	<rect x="33.8" y="80.2" class="st2" width="106.4" height="8.9"/>
	<rect x="33.8" y="97" class="st2" width="110.9" height="8.9"/>
	<g>
		<path d="M1.2,120.7h1.3c0.9,0,1.5,0.3,1.5,1.2c0,0.7-0.5,1.2-1.2,1.3l1.3,2.1H3.7l-1.3-2.1h-1v2.1H1.2V120.7z M2.4,122.9
			c0.8,0,1.3-0.3,1.3-1S3.2,121,2.4,121H1.5v2h0.9V122.9z"/>
		<path d="M4.6,123.6c0-1.1,0.7-1.8,1.5-1.8s1.3,0.6,1.3,1.6c0,0.1,0,0.2,0,0.3H4.9c0,0.8,0.5,1.5,1.3,1.5c0.4,0,0.7-0.1,0.9-0.3
			l0.1,0.2c-0.3,0.2-0.6,0.3-1.1,0.3C5.3,125.4,4.6,124.7,4.6,123.6z M7.1,123.4c0-0.9-0.4-1.3-1-1.3s-1.1,0.5-1.2,1.3H7.1z"/>
		<path d="M7.8,121.9h0.3l0.8,2.1c0.1,0.3,0.2,0.7,0.3,1l0,0c0.1-0.3,0.2-0.6,0.3-1l0.8-2.1h0.3l-1.2,3.4H9L7.8,121.9z"/>
		<path d="M11.1,123.6c0-1.1,0.7-1.8,1.5-1.8s1.3,0.6,1.3,1.6c0,0.1,0,0.2,0,0.3h-2.4c0,0.8,0.5,1.5,1.3,1.5c0.4,0,0.7-0.1,0.9-0.3
			l0.1,0.2c-0.3,0.2-0.6,0.3-1.1,0.3C11.8,125.4,11.1,124.7,11.1,123.6z M13.6,123.4c0-0.9-0.4-1.3-1-1.3s-1.1,0.5-1.2,1.3H13.6z"/>
		<path d="M14.8,121.9h0.3v0.5l0,0c0.3-0.3,0.7-0.6,1.2-0.6c0.7,0,1,0.4,1,1.3v2.2H17v-2.1c0-0.7-0.2-1.1-0.8-1.1
			c-0.4,0-0.7,0.2-1.1,0.6v2.5h-0.3C14.8,125.2,14.8,121.9,14.8,121.9z"/>
		<path d="M18.5,124.1v-2.2h0.3v2.1c0,0.7,0.2,1.1,0.8,1.1c0.4,0,0.7-0.2,1.1-0.7v-2.5h0.2v3.4h-0.3v-0.6l0,0
			c-0.3,0.4-0.7,0.6-1.1,0.6C18.8,125.4,18.5,125,18.5,124.1z"/>
		<path d="M21.9,123.6c0-1.1,0.7-1.8,1.5-1.8s1.3,0.6,1.3,1.6c0,0.1,0,0.2,0,0.3h-2.4c0,0.8,0.5,1.5,1.3,1.5c0.4,0,0.7-0.1,0.9-0.3
			l0.1,0.2c-0.3,0.2-0.6,0.3-1.1,0.3C22.6,125.4,21.9,124.7,21.9,123.6z M24.4,123.4c0-0.9-0.4-1.3-1-1.3c-0.6,0-1.1,0.5-1.2,1.3
			H24.4z"/>
		<path d="M27,122.2h-0.5V122H27v-0.8c0-0.7,0.3-1,0.8-1c0.2,0,0.3,0,0.5,0.1l-0.1,0.3c-0.1-0.1-0.3-0.1-0.4-0.1
			c-0.4,0-0.5,0.3-0.5,0.8v0.7h0.8v0.3h-0.8v3.1H27V122.2z"/>
		<path d="M28.8,121.9h0.3v0.6l0,0c0.2-0.4,0.6-0.7,1-0.7c0.1,0,0.2,0,0.3,0.1l-0.1,0.3c-0.1,0-0.2-0.1-0.3-0.1
			c-0.3,0-0.7,0.2-0.9,0.9v2.3h-0.3V121.9z"/>
		<path d="M30.7,123.6c0-1.1,0.7-1.8,1.5-1.8s1.5,0.6,1.5,1.8c0,1.1-0.7,1.8-1.5,1.8C31.4,125.4,30.7,124.7,30.7,123.6z M33.4,123.6
			c0-0.9-0.5-1.5-1.2-1.5s-1.2,0.6-1.2,1.5s0.5,1.5,1.2,1.5S33.4,124.5,33.4,123.6z"/>
		<path d="M34.7,121.9H35v0.5l0,0c0.3-0.3,0.7-0.6,1.1-0.6c0.5,0,0.8,0.3,0.9,0.7c0.4-0.4,0.8-0.7,1.1-0.7c0.7,0,1,0.4,1,1.3v2.2
			h-0.2v-2.1c0-0.7-0.2-1.1-0.7-1.1c-0.3,0-0.6,0.2-1,0.6v2.5h-0.3v-2.1c0-0.7-0.2-1.1-0.8-1.1c-0.3,0-0.6,0.2-1,0.6v2.5h-0.3v-3.2
			H34.7z"/>
		<path d="M41.5,123.6c0-1.1,0.7-1.8,1.5-1.8s1.5,0.6,1.5,1.8c0,1.1-0.7,1.8-1.5,1.8C42.2,125.4,41.5,124.7,41.5,123.6z M44.2,123.6
			c0-0.9-0.5-1.5-1.2-1.5s-1.2,0.6-1.2,1.5s0.5,1.5,1.2,1.5S44.2,124.5,44.2,123.6z"/>
		<path d="M45.5,121.9h0.3v0.4l0,0c0.3-0.3,0.7-0.5,1.1-0.5c0.9,0,1.3,0.7,1.3,1.7c0,1.1-0.7,1.8-1.5,1.8c-0.3,0-0.7-0.2-1-0.4v1.8
			h-0.3v-4.8H45.5z M48,123.6c0-0.8-0.3-1.4-1.1-1.4c-0.3,0-0.7,0.2-1.1,0.6v2c0.4,0.3,0.7,0.4,1,0.4C47.5,125.1,48,124.5,48,123.6z
			"/>
		<path d="M49.1,123.6c0-1.1,0.7-1.8,1.5-1.8s1.3,0.6,1.3,1.6c0,0.1,0,0.2,0,0.3h-2.4c0,0.8,0.5,1.5,1.3,1.5c0.4,0,0.7-0.1,0.9-0.3
			l0.1,0.2c-0.3,0.2-0.6,0.3-1.1,0.3C49.8,125.4,49.1,124.7,49.1,123.6z M51.5,123.4c0-0.9-0.4-1.3-1-1.3s-1.1,0.5-1.2,1.3H51.5z"/>
		<path d="M52.7,121.9H53v0.6l0,0c0.2-0.4,0.6-0.7,1-0.7c0.1,0,0.2,0,0.3,0.1l-0.1,0.3c-0.1,0-0.2-0.1-0.3-0.1
			c-0.3,0-0.7,0.2-0.9,0.9v2.3h-0.3V121.9z"/>
		<path d="M54.6,124.5c0-0.7,0.7-1.1,2.2-1.3c0-0.5-0.1-1.1-0.8-1.1c-0.4,0-0.8,0.2-1.1,0.4l-0.1-0.2c0.2-0.2,0.7-0.4,1.3-0.4
			c0.8,0,1.1,0.6,1.1,1.3v2.2h-0.3V125l0,0c-0.3,0.3-0.7,0.5-1.2,0.5C55,125.4,54.6,125.1,54.6,124.5z M56.7,124.6v-1.1
			c-1.4,0.2-1.9,0.5-1.9,1s0.3,0.7,0.7,0.7C56,125.1,56.3,124.9,56.7,124.6z"/>
		<path d="M58.3,124.4v-2.2h-0.5V122h0.5v-1h0.3v1h1v0.3h-1v2.2c0,0.4,0.1,0.7,0.6,0.7c0.1,0,0.3,0,0.4-0.1l0.1,0.3
			c-0.2,0.1-0.4,0.1-0.5,0.1C58.4,125.4,58.3,125,58.3,124.4z"/>
		<path d="M60.3,120.8c0-0.2,0.1-0.3,0.3-0.3s0.3,0.1,0.3,0.3c0,0.2-0.1,0.3-0.3,0.3S60.3,121,60.3,120.8z M60.4,121.9h0.3v3.4h-0.3
			V121.9z"/>
		<path d="M61.7,123.6c0-1.1,0.7-1.8,1.5-1.8s1.5,0.6,1.5,1.8c0,1.1-0.7,1.8-1.5,1.8C62.4,125.4,61.7,124.7,61.7,123.6z M64.4,123.6
			c0-0.9-0.5-1.5-1.2-1.5s-1.2,0.6-1.2,1.5s0.5,1.5,1.2,1.5S64.4,124.5,64.4,123.6z"/>
		<path d="M65.7,121.9H66v0.5l0,0c0.3-0.3,0.7-0.6,1.2-0.6c0.7,0,1,0.4,1,1.3v2.2h-0.3v-2.1c0-0.7-0.2-1.1-0.8-1.1
			c-0.4,0-0.7,0.2-1.1,0.6v2.5h-0.3C65.7,125.2,65.7,121.9,65.7,121.9z"/>
		<path d="M69,124.9l0.2-0.2c0.3,0.2,0.6,0.4,1.1,0.4s0.8-0.3,0.8-0.7s-0.4-0.6-0.8-0.7c-0.5-0.2-1-0.4-1-1c0-0.5,0.4-0.9,1.1-0.9
			c0.4,0,0.7,0.1,1,0.4l-0.2,0.2c-0.2-0.2-0.5-0.3-0.8-0.3c-0.5,0-0.8,0.3-0.8,0.6c0,0.4,0.4,0.5,0.8,0.7c0.5,0.2,1.1,0.4,1.1,1
			c0,0.5-0.4,0.9-1.1,0.9C69.7,125.4,69.3,125.2,69,124.9z"/>
		<path d="M73.2,124.9l0.2-0.2c0.3,0.2,0.6,0.4,1.1,0.4s0.8-0.3,0.8-0.7s-0.4-0.6-0.8-0.7c-0.5-0.2-1-0.4-1-1c0-0.5,0.4-0.9,1.1-0.9
			c0.4,0,0.7,0.1,1,0.4l-0.2,0.2c-0.2-0.2-0.5-0.3-0.8-0.3c-0.5,0-0.8,0.3-0.8,0.6c0,0.4,0.4,0.5,0.8,0.7c0.5,0.2,1.1,0.4,1.1,1
			c0,0.5-0.4,0.9-1.1,0.9C74,125.4,73.5,125.2,73.2,124.9z"/>
		<path d="M76.4,124.4v-2.2h-0.5V122h0.5v-1h0.3v1h1v0.3h-1v2.2c0,0.4,0.1,0.7,0.6,0.7c0.1,0,0.3,0,0.4-0.1l0.1,0.3
			c-0.2,0.1-0.4,0.1-0.5,0.1C76.6,125.4,76.4,125,76.4,124.4z"/>
		<path d="M78.2,123.6c0-1.1,0.7-1.8,1.5-1.8s1.5,0.6,1.5,1.8c0,1.1-0.7,1.8-1.5,1.8C78.9,125.4,78.2,124.7,78.2,123.6z M80.9,123.6
			c0-0.9-0.5-1.5-1.2-1.5s-1.2,0.6-1.2,1.5s0.5,1.5,1.2,1.5S80.9,124.5,80.9,123.6z"/>
		<path d="M81.9,123.6c0-1.1,0.7-1.8,1.5-1.8s1.5,0.6,1.5,1.8c0,1.1-0.7,1.8-1.5,1.8C82.6,125.4,81.9,124.7,81.9,123.6z M84.6,123.6
			c0-0.9-0.5-1.5-1.2-1.5s-1.2,0.6-1.2,1.5s0.5,1.5,1.2,1.5S84.6,124.5,84.6,123.6z"/>
		<path d="M85.7,123.6c0-1.1,0.7-1.8,1.5-1.8c0.4,0,0.7,0.2,1,0.4v-0.6v-1.4h0.3v5h-0.3v-0.4l0,0c-0.3,0.3-0.6,0.5-1.1,0.5
			C86.2,125.4,85.7,124.8,85.7,123.6z M88.2,124.6v-2c-0.4-0.3-0.7-0.4-1-0.4c-0.7,0-1.2,0.7-1.2,1.5c0,0.9,0.4,1.5,1.1,1.5
			C87.5,125.1,87.8,124.9,88.2,124.6z"/>
		<path d="M90.9,124.5c0-0.7,0.7-1.1,2.2-1.3c0-0.5-0.1-1.1-0.8-1.1c-0.4,0-0.8,0.2-1.1,0.4l-0.1-0.2c0.2-0.2,0.7-0.4,1.3-0.4
			c0.8,0,1.1,0.6,1.1,1.3v2.2h-0.3V125l0,0c-0.3,0.3-0.7,0.5-1.2,0.5C91.4,125.4,90.9,125.1,90.9,124.5z M93.1,124.6v-1.1
			c-1.4,0.2-1.9,0.5-1.9,1s0.3,0.7,0.7,0.7C92.3,125.1,92.7,124.9,93.1,124.6z"/>
		<path d="M94.6,124.4v-2.2h-0.5V122h0.5v-1h0.3v1h1v0.3h-1v2.2c0,0.4,0.1,0.7,0.6,0.7c0.1,0,0.3,0,0.4-0.1l0.1,0.3
			c-0.2,0.1-0.4,0.1-0.5,0.1C94.8,125.4,94.6,125,94.6,124.4z"/>
		<path d="M99,125.4c-0.5,0-0.9-0.3-1.2-0.5l0.2-0.2c0.3,0.2,0.6,0.5,1.1,0.5c0.6,0,0.9-0.3,0.9-0.9c0-1.4-2-1-2-2.4
			c0-0.6,0.4-1,1-1.1v-0.7h0.3v0.7c0.5,0,0.7,0.2,1,0.5l-0.2,0.2c-0.3-0.3-0.5-0.4-0.9-0.4c-0.5,0-0.8,0.3-0.8,0.8
			c0,1.2,2,0.8,2,2.4c0,0.7-0.5,1.1-1.1,1.1v0.7H99V125.4z"/>
		<path d="M101,124.8l0.2-0.2c0.3,0.3,0.6,0.6,1.2,0.6s1-0.4,1-1s-0.4-1-1.6-1v-0.3c1,0,1.4-0.4,1.4-1c0-0.5-0.4-0.8-0.9-0.8
			c-0.4,0-0.8,0.2-1,0.5l-0.2-0.2c0.3-0.3,0.7-0.5,1.2-0.5c0.7,0,1.2,0.4,1.2,1.1c0,0.6-0.4,0.9-0.9,1.1l0,0c0.6,0.1,1,0.5,1,1.2
			c0,0.8-0.6,1.3-1.4,1.3C101.7,125.4,101.3,125.1,101,124.8z"/>
		<path d="M104.6,125.1c0-0.2,0.1-0.3,0.3-0.3s0.3,0.1,0.3,0.3s-0.1,0.3-0.3,0.3S104.6,125.3,104.6,125.1z"/>
		<path d="M106,123.1c0-1.5,0.5-2.3,1.3-2.3s1.3,0.8,1.3,2.3s-0.5,2.3-1.3,2.3S106,124.5,106,123.1z M108.4,123.1c0-1.4-0.4-2-1-2
			s-1,0.7-1,2c0,1.4,0.4,2.1,1,2.1C108,125.1,108.4,124.4,108.4,123.1z"/>
		<path d="M109.2,124.8l0.2-0.2c0.3,0.3,0.6,0.5,1.2,0.5s1.1-0.5,1.1-1.2s-0.4-1.2-1.1-1.2c-0.3,0-0.6,0.1-0.8,0.3l-0.2-0.1l0.2-2.1
			h2.1v0.3h-1.8l-0.1,1.6c0.2-0.1,0.5-0.2,0.8-0.2c0.8,0,1.4,0.4,1.4,1.4s-0.7,1.5-1.4,1.5C109.9,125.4,109.5,125.1,109.2,124.8z"/>
		<path d="M112.6,124.8l0.2-0.2c0.3,0.3,0.6,0.6,1.2,0.6s1-0.4,1-1s-0.4-1-1.6-1v-0.3c1,0,1.4-0.4,1.4-1c0-0.5-0.4-0.8-0.9-0.8
			c-0.4,0-0.8,0.2-1,0.5l-0.2-0.2c0.3-0.3,0.7-0.5,1.2-0.5c0.7,0,1.2,0.4,1.2,1.1c0,0.6-0.4,0.9-0.9,1.1l0,0c0.6,0.1,1,0.5,1,1.2
			c0,0.8-0.6,1.3-1.4,1.3C113.3,125.4,112.9,125.1,112.6,124.8z"/>
		<path d="M118.1,125L118.1,125v0.3h-0.3v-5h0.3v1.5v0.7c0.3-0.3,0.7-0.5,1.2-0.5c0.9,0,1.3,0.7,1.3,1.7c0,1.1-0.7,1.8-1.5,1.8
			C118.8,125.4,118.4,125.2,118.1,125z M120.3,123.6c0-0.8-0.3-1.4-1.1-1.4c-0.3,0-0.7,0.2-1.1,0.6v2c0.4,0.3,0.7,0.4,1,0.4
			C119.8,125.1,120.3,124.5,120.3,123.6z"/>
		<path d="M121.5,120.8c0-0.2,0.1-0.3,0.3-0.3s0.3,0.1,0.3,0.3c0,0.2-0.1,0.3-0.3,0.3S121.5,121,121.5,120.8z M121.6,121.9h0.3v3.4
			h-0.3V121.9z"/>
		<path d="M123.2,124.9v-4.6h0.3v4.6c0,0.1,0.1,0.2,0.1,0.2h0.1l0.1,0.3c-0.1,0-0.1,0-0.2,0C123.3,125.4,123.2,125.2,123.2,124.9z"
			/>
		<path d="M124.9,124.9v-4.6h0.3v4.6c0,0.1,0.1,0.2,0.1,0.2h0.1l0.1,0.3c-0.1,0-0.1,0-0.2,0C125,125.4,124.9,125.2,124.9,124.9z"/>
		<path d="M126.4,120.8c0-0.2,0.1-0.3,0.3-0.3s0.3,0.1,0.3,0.3c0,0.2-0.1,0.3-0.3,0.3S126.4,121,126.4,120.8z M126.5,121.9h0.3v3.4
			h-0.3V121.9z"/>
		<path d="M127.8,123.6c0-1.1,0.7-1.8,1.5-1.8s1.5,0.6,1.5,1.8c0,1.1-0.7,1.8-1.5,1.8C128.5,125.4,127.8,124.7,127.8,123.6z
			 M130.5,123.6c0-0.9-0.5-1.5-1.2-1.5s-1.2,0.6-1.2,1.5s0.5,1.5,1.2,1.5S130.5,124.5,130.5,123.6z"/>
		<path d="M131.9,121.9h0.3v0.5l0,0c0.3-0.3,0.7-0.6,1.2-0.6c0.7,0,1,0.4,1,1.3v2.2h-0.3v-2.1c0-0.7-0.2-1.1-0.8-1.1
			c-0.4,0-0.7,0.2-1.1,0.6v2.5h-0.3V121.9z"/>
		<path d="M136.9,123.4c0-1.2,0.4-2.2,0.9-3.2l0.2,0.1c-0.6,0.9-0.8,2-0.8,3.1s0.3,2.2,0.8,3.1h-0.1
			C137.3,125.6,136.9,124.6,136.9,123.4z"/>
		<path d="M138.6,123.6c0-1.1,0.7-1.8,1.5-1.8s1.3,0.6,1.3,1.6c0,0.1,0,0.2,0,0.3H139c0,0.8,0.5,1.5,1.3,1.5c0.4,0,0.7-0.1,0.9-0.3
			l0.1,0.2c-0.3,0.2-0.6,0.3-1.1,0.3C139.3,125.4,138.6,124.7,138.6,123.6z M141.1,123.4c0-0.9-0.4-1.3-1-1.3s-1.1,0.5-1.2,1.3
			H141.1z"/>
		<path d="M142.9,123.5l-1-1.6h0.3l0.5,0.9c0.1,0.2,0.2,0.4,0.4,0.6l0,0c0.1-0.2,0.2-0.4,0.3-0.6l0.5-0.9h0.3l-1,1.6l1.1,1.7H144
			l-0.6-0.9c-0.1-0.2-0.3-0.4-0.4-0.6l0,0c-0.1,0.2-0.3,0.4-0.4,0.6l-0.6,0.9h-0.3L142.9,123.5z"/>
		<path d="M144.8,123.6c0-1.1,0.7-1.8,1.5-1.8c0.5,0,0.8,0.2,1,0.4l-0.2,0.2c-0.2-0.2-0.5-0.4-0.8-0.4c-0.7,0-1.2,0.6-1.2,1.5
			s0.5,1.5,1.2,1.5c0.4,0,0.7-0.2,0.9-0.4l0.2,0.2c-0.3,0.3-0.6,0.4-1.1,0.4C145.5,125.4,144.8,124.7,144.8,123.6z"/>
		<path d="M148.2,120.3h0.3v2.2c0.4-0.3,0.7-0.6,1.2-0.6c0.7,0,1,0.4,1,1.3v2.2h-0.3v-2.1c0-0.7-0.2-1.1-0.8-1.1
			c-0.4,0-0.7,0.2-1.1,0.6v2.5h-0.3L148.2,120.3L148.2,120.3z"/>
		<path d="M151.7,124.5c0-0.7,0.7-1.1,2.2-1.3c0-0.5-0.1-1.1-0.8-1.1c-0.4,0-0.8,0.2-1.1,0.4l-0.1-0.2c0.2-0.2,0.7-0.4,1.3-0.4
			c0.8,0,1.1,0.6,1.1,1.3v2.2h-0.4V125l0,0c-0.3,0.3-0.7,0.5-1.2,0.5C152.1,125.4,151.7,125.1,151.7,124.5z M153.9,124.6v-1.1
			c-1.4,0.2-1.9,0.5-1.9,1s0.3,0.7,0.7,0.7C153.1,125.1,153.4,124.9,153.9,124.6z"/>
		<path d="M155.4,121.9h0.3v0.5l0,0c0.3-0.3,0.7-0.6,1.2-0.6c0.7,0,1,0.4,1,1.3v2.2h-0.3v-2.1c0-0.7-0.2-1.1-0.8-1.1
			c-0.4,0-0.7,0.2-1.1,0.6v2.5h-0.3L155.4,121.9L155.4,121.9z"/>
		<path d="M158.8,126c0-0.3,0.2-0.6,0.5-0.8l0,0c-0.2-0.1-0.3-0.3-0.3-0.5c0-0.3,0.2-0.5,0.4-0.6l0,0c-0.2-0.2-0.4-0.5-0.4-0.9
			c0-0.7,0.5-1.2,1.2-1.2c0.2,0,0.3,0,0.4,0.1h1.1v0.3h-0.8c0.2,0.2,0.4,0.5,0.4,0.8c0,0.7-0.5,1.2-1.2,1.2c-0.2,0-0.4,0-0.6-0.1
			c-0.1,0.1-0.3,0.3-0.3,0.5s0.1,0.4,0.6,0.4h0.7c0.8,0,1.1,0.2,1.1,0.8s-0.6,1.1-1.6,1.1C159.3,126.9,158.8,126.6,158.8,126z
			 M161.5,125.8c0-0.4-0.3-0.5-0.8-0.5H160c-0.1,0-0.2,0-0.4-0.1c-0.3,0.2-0.4,0.5-0.4,0.7c0,0.4,0.4,0.7,1.1,0.7
			C161,126.7,161.5,126.2,161.5,125.8z M161,123c0-0.6-0.4-0.9-0.9-0.9s-0.9,0.4-0.9,0.9c0,0.6,0.4,0.9,0.9,0.9
			C160.6,124,161,123.6,161,123z"/>
		<path d="M162.1,123.6c0-1.1,0.7-1.8,1.5-1.8s1.3,0.6,1.3,1.6c0,0.1,0,0.2,0,0.3h-2.4c0,0.8,0.5,1.5,1.3,1.5c0.4,0,0.7-0.1,0.9-0.3
			l0.1,0.2c-0.3,0.2-0.6,0.3-1.1,0.3C162.8,125.4,162.1,124.7,162.1,123.6z M164.6,123.4c0-0.9-0.4-1.3-1-1.3s-1.1,0.5-1.2,1.3
			H164.6z"/>
		<path d="M167.2,121.9h0.3v0.6l0,0c0.2-0.4,0.6-0.7,1-0.7c0.1,0,0.2,0,0.3,0.1l-0.1,0.3c-0.1,0-0.2-0.1-0.3-0.1
			c-0.3,0-0.7,0.2-0.9,0.9v2.3h-0.3V121.9z"/>
		<path d="M169,124.5c0-0.7,0.7-1.1,2.2-1.3c0-0.5-0.1-1.1-0.8-1.1c-0.4,0-0.8,0.2-1.1,0.4l-0.1-0.2c0.2-0.2,0.7-0.4,1.3-0.4
			c0.8,0,1.1,0.6,1.1,1.3v2.2h-0.3V125l0,0c-0.3,0.3-0.7,0.5-1.2,0.5C169.5,125.4,169,125.1,169,124.5z M171.2,124.6v-1.1
			c-1.4,0.2-1.9,0.5-1.9,1s0.3,0.7,0.7,0.7C170.5,125.1,170.8,124.9,171.2,124.6z"/>
		<path d="M172.7,124.4v-2.2h-0.5V122h0.5v-1h0.3v1h1v0.3h-1v2.2c0,0.4,0.1,0.7,0.6,0.7c0.1,0,0.3,0,0.4-0.1l0.1,0.3
			c-0.2,0.1-0.4,0.1-0.5,0.1C172.9,125.4,172.7,125,172.7,124.4z"/>
		<path d="M174.5,123.6c0-1.1,0.7-1.8,1.5-1.8s1.3,0.6,1.3,1.6c0,0.1,0,0.2,0,0.3h-2.4c0,0.8,0.5,1.5,1.3,1.5c0.4,0,0.7-0.1,0.9-0.3
			l0.1,0.2c-0.3,0.2-0.6,0.3-1.1,0.3C175.2,125.4,174.5,124.7,174.5,123.6z M176.9,123.4c0-0.9-0.4-1.3-1-1.3s-1.1,0.5-1.2,1.3
			H176.9z"/>
		<path d="M179.3,124.5c0-0.7,0.7-1.1,2.2-1.3c0-0.5-0.1-1.1-0.8-1.1c-0.4,0-0.8,0.2-1.1,0.4l-0.1-0.2c0.2-0.2,0.7-0.4,1.3-0.4
			c0.8,0,1.1,0.6,1.1,1.3v2.2h-0.3V125l0,0c-0.3,0.3-0.7,0.5-1.2,0.5C179.7,125.4,179.3,125.1,179.3,124.5z M181.5,124.6v-1.1
			c-1.4,0.2-1.9,0.5-1.9,1s0.3,0.7,0.7,0.7C180.7,125.1,181,124.9,181.5,124.6z"/>
		<path d="M182.5,124.9l0.2-0.2c0.3,0.2,0.6,0.4,1.1,0.4s0.8-0.3,0.8-0.7s-0.4-0.6-0.8-0.7c-0.5-0.2-1-0.4-1-1
			c0-0.5,0.4-0.9,1.1-0.9c0.4,0,0.7,0.1,1,0.4l-0.2,0.2c-0.2-0.2-0.5-0.3-0.8-0.3c-0.5,0-0.8,0.3-0.8,0.6c0,0.4,0.4,0.5,0.8,0.7
			c0.5,0.2,1.1,0.4,1.1,1c0,0.5-0.4,0.9-1.1,0.9C183.3,125.4,182.8,125.2,182.5,124.9z"/>
		<path d="M186.9,123.6c0-1.1,0.7-1.8,1.5-1.8s1.5,0.6,1.5,1.8c0,1.1-0.7,1.8-1.5,1.8C187.6,125.4,186.9,124.7,186.9,123.6z
			 M189.6,123.6c0-0.9-0.5-1.5-1.2-1.5s-1.2,0.6-1.2,1.5s0.5,1.5,1.2,1.5S189.6,124.5,189.6,123.6z"/>
		<path d="M190.9,121.9h0.3v0.5l0,0c0.3-0.3,0.7-0.6,1.2-0.6c0.7,0,1,0.4,1,1.3v2.2h-0.3v-2.1c0-0.7-0.2-1.1-0.8-1.1
			c-0.4,0-0.7,0.2-1.1,0.6v2.5h-0.3V121.9z"/>
		<path d="M195.7,125.1c1.5-1.5,2.2-2.3,2.2-3.1c0-0.6-0.3-1-1-1c-0.4,0-0.8,0.3-1,0.6l-0.2-0.2c0.3-0.4,0.7-0.7,1.3-0.7
			c0.8,0,1.3,0.5,1.3,1.3c0,0.9-0.8,1.7-2.1,3.1c0.2,0,0.5,0,0.7,0h1.5v0.3h-2.7V125.1z"/>
		<path d="M199.2,125l0.2-0.2c0.2,0.2,0.5,0.4,0.8,0.4c0.7,0,1.3-0.6,1.3-2.2c-0.3,0.4-0.7,0.6-1.1,0.6c-0.8,0-1.2-0.5-1.2-1.4
			c0-0.8,0.6-1.4,1.2-1.4c0.9,0,1.5,0.7,1.5,2.1c0,1.9-0.8,2.5-1.6,2.5C199.7,125.4,199.4,125.2,199.2,125z M200.3,123.3
			c0.3,0,0.7-0.2,1.1-0.7c-0.1-0.9-0.4-1.6-1.2-1.6c-0.5,0-0.9,0.5-0.9,1.1C199.4,122.8,199.7,123.3,200.3,123.3z"/>
	</g>
	<g>
		<path d="M202.5,122.4v-1.3h-0.3V121h0.3v-0.6h0.2v0.6h0.6v0.2h-0.6v1.3c0,0.2,0.1,0.4,0.3,0.4c0.1,0,0.2,0,0.2-0.1v0.1
			c-0.1,0-0.2,0.1-0.3,0.1C202.6,123,202.5,122.8,202.5,122.4z"/>
		<path d="M203.7,120h0.2v1.3c0.2-0.2,0.4-0.4,0.7-0.4c0.4,0,0.6,0.2,0.6,0.8v1.3H205v-1.2c0-0.4-0.1-0.6-0.4-0.6
			c-0.2,0-0.4,0.1-0.6,0.4v1.5h-0.2V120H203.7z"/>
	</g>
	<g>
		<path d="M207.6,120.7h0.5l1,2.7c0.1,0.3,0.2,0.7,0.4,1l0,0c0.1-0.3,0.2-0.7,0.4-1l1-2.7h0.5v4.6h-0.3v-3c0-0.4,0-0.9,0-1.2l0,0
			l-0.4,1l-1,2.7h-0.3l-1-2.7l-0.4-1l0,0c0,0.4,0,0.9,0,1.2v3h-0.3L207.6,120.7L207.6,120.7z"/>
		<path d="M212.2,124.5c0-0.7,0.7-1.1,2.2-1.3c0-0.5-0.1-1.1-0.8-1.1c-0.4,0-0.8,0.2-1.1,0.4l-0.1-0.2c0.2-0.2,0.7-0.4,1.3-0.4
			c0.8,0,1.1,0.6,1.1,1.3v2.2h-0.3V125l0,0c-0.3,0.3-0.7,0.5-1.2,0.5C212.7,125.4,212.2,125.1,212.2,124.5z M214.4,124.6v-1.1
			c-1.4,0.2-1.9,0.5-1.9,1s0.3,0.7,0.7,0.7C213.6,125.1,214,124.9,214.4,124.6z"/>
		<path d="M215.9,121.9h0.3v0.6l0,0c0.2-0.4,0.6-0.7,1-0.7c0.1,0,0.2,0,0.3,0.1l-0.1,0.3c-0.1,0-0.2-0.1-0.3-0.1
			c-0.3,0-0.7,0.2-0.9,0.9v2.3h-0.3V121.9z"/>
		<path d="M217.8,123.6c0-1.1,0.7-1.8,1.5-1.8c0.5,0,0.8,0.2,1,0.4l-0.2,0.2c-0.2-0.2-0.5-0.4-0.8-0.4c-0.7,0-1.2,0.6-1.2,1.5
			s0.5,1.5,1.2,1.5c0.4,0,0.7-0.2,0.9-0.4l0.2,0.2c-0.3,0.3-0.6,0.4-1.1,0.4C218.4,125.4,217.8,124.7,217.8,123.6z"/>
		<path d="M221.2,120.3h0.3v2.2c0.4-0.3,0.7-0.6,1.2-0.6c0.7,0,1,0.4,1,1.3v2.2h-0.3v-2.1c0-0.7-0.2-1.1-0.8-1.1
			c-0.4,0-0.7,0.2-1.1,0.6v2.5h-0.3L221.2,120.3L221.2,120.3z"/>
		<path d="M224.6,126.2c0.3-0.2,0.5-0.5,0.5-0.8H225c-0.2,0-0.3-0.1-0.3-0.3s0.1-0.3,0.3-0.3s0.4,0.2,0.4,0.5c0,0.5-0.3,0.9-0.7,1.1
			L224.6,126.2z"/>
		<path d="M227.5,125.1c1.5-1.5,2.2-2.3,2.2-3.1c0-0.6-0.3-1-1-1c-0.4,0-0.8,0.3-1,0.6l-0.2-0.2c0.3-0.4,0.7-0.7,1.3-0.7
			c0.8,0,1.3,0.5,1.3,1.3c0,0.9-0.8,1.7-2.1,3.1c0.2,0,0.5,0,0.7,0h1.5v0.3h-2.7V125.1z"/>
		<path d="M230.9,123.1c0-1.5,0.5-2.3,1.3-2.3s1.3,0.8,1.3,2.3s-0.5,2.3-1.3,2.3S230.9,124.5,230.9,123.1z M233.2,123.1
			c0-1.4-0.4-2-1-2s-1,0.7-1,2c0,1.4,0.4,2.1,1,2.1C232.8,125.1,233.2,124.4,233.2,123.1z"/>
		<path d="M234.5,125h1.1v-3.7h-0.8v-0.2c0.4-0.1,0.7-0.2,0.9-0.3h0.3v4.2h1v0.3h-2.3V125H234.5z"/>
		<path d="M237.6,125l0.2-0.2c0.2,0.2,0.5,0.4,0.8,0.4c0.7,0,1.3-0.6,1.3-2.2c-0.3,0.4-0.7,0.6-1.1,0.6c-0.8,0-1.2-0.5-1.2-1.4
			c0-0.8,0.6-1.4,1.2-1.4c0.9,0,1.5,0.7,1.5,2.1c0,1.9-0.8,2.5-1.6,2.5C238.2,125.4,237.9,125.2,237.6,125z M238.8,123.3
			c0.3,0,0.7-0.2,1.1-0.7c-0.1-0.9-0.4-1.6-1.2-1.6c-0.5,0-0.9,0.5-0.9,1.1C237.8,122.8,238.1,123.3,238.8,123.3z"/>
		<path d="M240.8,126.4c0.6-0.9,0.8-2,0.8-3.1s-0.3-2.2-0.8-3.1l0.2-0.1c0.6,0.9,0.9,1.9,0.9,3.2s-0.4,2.2-0.9,3.2L240.8,126.4z"/>
	</g>
</g>
</svg>
